<?xml version="1.0" encoding="utf-8"?>
<!-- Generator: Adobe Illustrator 26.3.1, SVG Export Plug-In . SVG Version: 6.00 Build 0)  -->
<svg version="1.1" baseProfile="tiny" id="Layer_1" xmlns="http://www.w3.org/2000/svg" xmlns:xlink="http://www.w3.org/1999/xlink"
	 x="0px" y="0px" width="260px" height="258.2px" viewBox="0 0 260 258.2" overflow="visible" xml:space="preserve">
<path fill="#F2EDED" d="M243.3,258.2H16.7c-9.2,0-16.7-7.5-16.7-16.7V16.7C0,7.5,7.5,0,16.7,0h226.5c9.2,0,16.7,7.5,16.7,16.7v224.8
	C260,250.7,252.5,258.2,243.3,258.2z"/>
<g>
	<path fill="#363636" d="M42.9,201.8h-1.1l-4.4-6.7v6.7h-1.1v-8.4h1.1l4.4,6.6v-6.6h1.1V201.8z"/>
	<path fill="#363636" d="M50.7,198.9h-5.3c0,0.6,0.3,1.2,0.7,1.5c0.4,0.4,0.9,0.5,1.5,0.5c0.5,0,0.9-0.1,1.2-0.3
		c0.3-0.2,0.5-0.5,0.7-0.9h1.2c-0.2,0.6-0.5,1.1-1.1,1.5c-0.5,0.4-1.2,0.6-2,0.6c-0.6,0-1.2-0.1-1.7-0.4c-0.5-0.3-0.9-0.7-1.2-1.2
		c-0.3-0.5-0.4-1.1-0.4-1.8s0.1-1.3,0.4-1.8s0.7-0.9,1.1-1.2c0.5-0.3,1.1-0.4,1.7-0.4c0.6,0,1.2,0.1,1.7,0.4
		c0.5,0.3,0.9,0.6,1.1,1.1c0.3,0.5,0.4,1,0.4,1.6C50.8,198.5,50.7,198.7,50.7,198.9z M49.3,197c-0.2-0.3-0.4-0.5-0.8-0.7
		c-0.3-0.2-0.7-0.2-1-0.2c-0.6,0-1,0.2-1.4,0.5c-0.4,0.4-0.6,0.8-0.7,1.5h4.2C49.6,197.6,49.5,197.3,49.3,197z"/>
	<path fill="#363636" d="M61,195.2l-2.1,6.6h-1.1l-1.6-5.2l-1.6,5.2h-1.1l-2.1-6.6h1.1l1.5,5.5l1.6-5.5h1.1l1.6,5.5l1.5-5.5H61z"/>
	<path fill="#363636" d="M66.3,193.4v5.3c0,0.7,0.2,1.3,0.5,1.7c0.4,0.4,0.9,0.5,1.5,0.5c0.6,0,1.1-0.2,1.5-0.5
		c0.4-0.4,0.5-0.9,0.5-1.7v-5.3h1.1v5.3c0,0.7-0.1,1.3-0.4,1.8c-0.3,0.5-0.7,0.8-1.1,1.1c-0.5,0.2-1,0.3-1.6,0.3
		c-0.6,0-1.1-0.1-1.6-0.3c-0.5-0.2-0.9-0.6-1.1-1.1c-0.3-0.5-0.4-1.1-0.4-1.8v-5.3H66.3z"/>
	<path fill="#363636" d="M76.8,197.6l2.6,4.2h-1.2l-2-3.3l-1.9,3.3H73l2.6-4.2l-2.6-4.2h1.2l2,3.3l1.9-3.3h1.2L76.8,197.6z"/>
	<path fill="#363636" d="M86.1,195.5c0.4-0.3,0.9-0.4,1.5-0.4c0.6,0,1.1,0.1,1.6,0.4s0.9,0.7,1.1,1.2s0.4,1.1,0.4,1.8
		c0,0.7-0.1,1.3-0.4,1.8c-0.3,0.5-0.6,0.9-1.1,1.2s-1,0.4-1.6,0.4c-0.6,0-1.1-0.1-1.5-0.4c-0.4-0.3-0.8-0.6-1-0.9v4.3H84v-9.7h1.1
		v1.2C85.3,196.1,85.6,195.7,86.1,195.5z M89.2,197.2c-0.2-0.4-0.5-0.6-0.8-0.8c-0.3-0.2-0.7-0.3-1.1-0.3c-0.4,0-0.8,0.1-1.1,0.3
		c-0.3,0.2-0.6,0.5-0.8,0.9c-0.2,0.4-0.3,0.8-0.3,1.3c0,0.5,0.1,0.9,0.3,1.3c0.2,0.4,0.5,0.7,0.8,0.9c0.3,0.2,0.7,0.3,1.1,0.3
		c0.4,0,0.8-0.1,1.1-0.3c0.3-0.2,0.6-0.5,0.8-0.9c0.2-0.4,0.3-0.8,0.3-1.3C89.5,198,89.4,197.6,89.2,197.2z"/>
	<path fill="#363636" d="M92.1,196.7c0.3-0.5,0.6-0.9,1.1-1.2s1-0.4,1.6-0.4c0.6,0,1.1,0.1,1.5,0.4c0.4,0.2,0.7,0.6,0.9,0.9v-1.2
		h1.1v6.6h-1.1v-1.2c-0.2,0.4-0.5,0.7-1,1c-0.4,0.3-0.9,0.4-1.5,0.4c-0.6,0-1.1-0.1-1.6-0.4c-0.5-0.3-0.8-0.7-1.1-1.2
		c-0.3-0.5-0.4-1.1-0.4-1.8C91.7,197.8,91.8,197.2,92.1,196.7z M97,197.2c-0.2-0.4-0.5-0.7-0.8-0.8c-0.3-0.2-0.7-0.3-1.1-0.3
		c-0.4,0-0.8,0.1-1.1,0.3c-0.3,0.2-0.6,0.5-0.8,0.8c-0.2,0.4-0.3,0.8-0.3,1.3c0,0.5,0.1,0.9,0.3,1.3c0.2,0.4,0.5,0.7,0.8,0.9
		c0.3,0.2,0.7,0.3,1.1,0.3c0.4,0,0.8-0.1,1.1-0.3c0.3-0.2,0.6-0.5,0.8-0.9c0.2-0.4,0.3-0.8,0.3-1.3S97.2,197.6,97,197.2z"/>
	<path fill="#363636" d="M101.5,196.1v3.9c0,0.3,0.1,0.5,0.2,0.7c0.1,0.1,0.4,0.2,0.7,0.2h0.8v0.9h-1c-0.6,0-1.1-0.1-1.4-0.4
		c-0.3-0.3-0.5-0.7-0.5-1.4v-3.9h-0.9v-0.9h0.9v-1.7h1.1v1.7h1.7v0.9H101.5z"/>
	<path fill="#363636" d="M105.9,196.1v3.9c0,0.3,0.1,0.5,0.2,0.7c0.1,0.1,0.4,0.2,0.7,0.2h0.8v0.9h-1c-0.6,0-1.1-0.1-1.4-0.4
		c-0.3-0.3-0.5-0.7-0.5-1.4v-3.9H104v-0.9h0.9v-1.7h1.1v1.7h1.7v0.9H105.9z"/>
	<path fill="#363636" d="M114.9,198.9h-5.3c0,0.6,0.3,1.2,0.7,1.5c0.4,0.4,0.9,0.5,1.5,0.5c0.5,0,0.9-0.1,1.2-0.3
		c0.3-0.2,0.5-0.5,0.7-0.9h1.2c-0.2,0.6-0.5,1.1-1.1,1.5c-0.5,0.4-1.2,0.6-2,0.6c-0.6,0-1.2-0.1-1.7-0.4c-0.5-0.3-0.9-0.7-1.2-1.2
		c-0.3-0.5-0.4-1.1-0.4-1.8s0.1-1.3,0.4-1.8s0.7-0.9,1.1-1.2c0.5-0.3,1.1-0.4,1.7-0.4c0.6,0,1.2,0.1,1.7,0.4
		c0.5,0.3,0.9,0.6,1.1,1.1c0.3,0.5,0.4,1,0.4,1.6C115,198.5,114.9,198.7,114.9,198.9z M113.5,197c-0.2-0.3-0.4-0.5-0.8-0.7
		c-0.3-0.2-0.7-0.2-1-0.2c-0.6,0-1,0.2-1.4,0.5c-0.4,0.4-0.6,0.8-0.7,1.5h4.2C113.8,197.6,113.7,197.3,113.5,197z"/>
	<path fill="#363636" d="M118.3,195.4c0.4-0.2,0.8-0.3,1.3-0.3v1.1h-0.3c-1.2,0-1.8,0.7-1.8,2v3.6h-1.1v-6.6h1.1v1.1
		C117.7,195.9,118,195.6,118.3,195.4z"/>
	<path fill="#363636" d="M126,195.8c0.5,0.5,0.7,1.2,0.7,2.1v3.9h-1.1v-3.7c0-0.7-0.2-1.2-0.5-1.5c-0.3-0.3-0.8-0.5-1.3-0.5
		c-0.6,0-1,0.2-1.4,0.5s-0.5,0.9-0.5,1.6v3.6h-1.1v-6.6h1.1v0.9c0.2-0.3,0.5-0.6,0.9-0.8s0.8-0.3,1.2-0.3
		C124.9,195.1,125.5,195.3,126,195.8z"/>
	<path fill="#363636" d="M134.4,196.1H133v5.7H132v-5.7h-0.9v-0.9h0.9v-0.5c0-0.7,0.2-1.3,0.6-1.6c0.4-0.3,1-0.5,1.8-0.5v0.9
		c-0.5,0-0.8,0.1-1,0.3c-0.2,0.2-0.3,0.5-0.3,0.9v0.5h1.4V196.1z"/>
	<path fill="#363636" d="M141.7,198.9h-5.3c0,0.6,0.3,1.2,0.7,1.5c0.4,0.4,0.9,0.5,1.5,0.5c0.5,0,0.9-0.1,1.2-0.3
		c0.3-0.2,0.5-0.5,0.7-0.9h1.2c-0.2,0.6-0.5,1.1-1.1,1.5c-0.5,0.4-1.2,0.6-2,0.6c-0.6,0-1.2-0.1-1.7-0.4c-0.5-0.3-0.9-0.7-1.2-1.2
		c-0.3-0.5-0.4-1.1-0.4-1.8s0.1-1.3,0.4-1.8c0.3-0.5,0.7-0.9,1.1-1.2c0.5-0.3,1.1-0.4,1.7-0.4c0.6,0,1.2,0.1,1.7,0.4
		c0.5,0.3,0.9,0.6,1.1,1.1c0.3,0.5,0.4,1,0.4,1.6C141.7,198.5,141.7,198.7,141.7,198.9z M140.3,197c-0.2-0.3-0.4-0.5-0.8-0.7
		c-0.3-0.2-0.7-0.2-1-0.2c-0.6,0-1,0.2-1.4,0.5c-0.4,0.4-0.6,0.8-0.7,1.5h4.2C140.6,197.6,140.5,197.3,140.3,197z"/>
	<path fill="#363636" d="M143.1,196.7c0.3-0.5,0.6-0.9,1.1-1.2c0.5-0.3,1-0.4,1.6-0.4c0.6,0,1.1,0.1,1.5,0.4s0.7,0.6,0.9,0.9v-1.2
		h1.1v6.6h-1.1v-1.2c-0.2,0.4-0.5,0.7-1,1c-0.4,0.3-0.9,0.4-1.5,0.4c-0.6,0-1.1-0.1-1.6-0.4c-0.5-0.3-0.8-0.7-1.1-1.2
		c-0.3-0.5-0.4-1.1-0.4-1.8C142.7,197.8,142.9,197.2,143.1,196.7z M148,197.2c-0.2-0.4-0.5-0.7-0.8-0.8c-0.3-0.2-0.7-0.3-1.1-0.3
		s-0.8,0.1-1.1,0.3c-0.3,0.2-0.6,0.5-0.8,0.8c-0.2,0.4-0.3,0.8-0.3,1.3c0,0.5,0.1,0.9,0.3,1.3s0.5,0.7,0.8,0.9
		c0.3,0.2,0.7,0.3,1.1,0.3s0.8-0.1,1.1-0.3c0.3-0.2,0.6-0.5,0.8-0.9c0.2-0.4,0.3-0.8,0.3-1.3S148.2,197.6,148,197.2z"/>
	<path fill="#363636" d="M152.6,196.1v3.9c0,0.3,0.1,0.5,0.2,0.7s0.4,0.2,0.7,0.2h0.8v0.9h-1c-0.6,0-1.1-0.1-1.4-0.4
		s-0.5-0.7-0.5-1.4v-3.9h-0.9v-0.9h0.9v-1.7h1.1v1.7h1.7v0.9H152.6z"/>
	<path fill="#363636" d="M161.5,195.2v6.6h-1.1v-1c-0.2,0.3-0.5,0.6-0.9,0.8c-0.4,0.2-0.8,0.3-1.2,0.3c-0.5,0-1-0.1-1.4-0.3
		c-0.4-0.2-0.7-0.5-1-1c-0.2-0.4-0.4-0.9-0.4-1.5v-3.9h1.1v3.7c0,0.6,0.2,1.1,0.5,1.5s0.8,0.5,1.3,0.5c0.6,0,1-0.2,1.4-0.5
		c0.3-0.4,0.5-0.9,0.5-1.6v-3.6H161.5z"/>
	<path fill="#363636" d="M165.2,195.4c0.4-0.2,0.8-0.3,1.3-0.3v1.1h-0.3c-1.2,0-1.8,0.7-1.8,2v3.6h-1.1v-6.6h1.1v1.1
		C164.6,195.9,164.9,195.6,165.2,195.4z"/>
	<path fill="#363636" d="M173.7,198.9h-5.3c0,0.6,0.3,1.2,0.7,1.5c0.4,0.4,0.9,0.5,1.5,0.5c0.5,0,0.9-0.1,1.2-0.3
		c0.3-0.2,0.5-0.5,0.7-0.9h1.2c-0.2,0.6-0.5,1.1-1.1,1.5c-0.5,0.4-1.2,0.6-2,0.6c-0.6,0-1.2-0.1-1.7-0.4c-0.5-0.3-0.9-0.7-1.2-1.2
		c-0.3-0.5-0.4-1.1-0.4-1.8s0.1-1.3,0.4-1.8c0.3-0.5,0.7-0.9,1.1-1.2c0.5-0.3,1.1-0.4,1.7-0.4c0.6,0,1.2,0.1,1.7,0.4
		c0.5,0.3,0.9,0.6,1.1,1.1c0.3,0.5,0.4,1,0.4,1.6C173.8,198.5,173.8,198.7,173.7,198.9z M172.4,197c-0.2-0.3-0.4-0.5-0.8-0.7
		c-0.3-0.2-0.7-0.2-1-0.2c-0.6,0-1,0.2-1.4,0.5c-0.4,0.4-0.6,0.8-0.7,1.5h4.2C172.6,197.6,172.6,197.3,172.4,197z"/>
	<path fill="#363636" d="M175.2,196.7c0.3-0.5,0.6-0.9,1.1-1.2c0.5-0.3,1-0.4,1.6-0.4c0.5,0,1,0.1,1.4,0.4c0.4,0.2,0.8,0.5,1,0.9
		v-3.5h1.1v8.9h-1.1v-1.2c-0.2,0.4-0.5,0.7-1,1c-0.4,0.3-0.9,0.4-1.5,0.4c-0.6,0-1.1-0.1-1.6-0.4c-0.5-0.3-0.9-0.7-1.1-1.2
		c-0.3-0.5-0.4-1.1-0.4-1.8C174.8,197.8,174.9,197.2,175.2,196.7z M180.1,197.2c-0.2-0.4-0.5-0.7-0.8-0.8c-0.3-0.2-0.7-0.3-1.1-0.3
		s-0.8,0.1-1.1,0.3c-0.3,0.2-0.6,0.5-0.8,0.8c-0.2,0.4-0.3,0.8-0.3,1.3c0,0.5,0.1,0.9,0.3,1.3s0.5,0.7,0.8,0.9
		c0.3,0.2,0.7,0.3,1.1,0.3s0.8-0.1,1.1-0.3c0.3-0.2,0.6-0.5,0.8-0.9c0.2-0.4,0.3-0.8,0.3-1.3S180.3,197.6,180.1,197.2z"/>
	<path fill="#363636" d="M186.6,193.9c-0.1-0.1-0.2-0.3-0.2-0.5s0.1-0.4,0.2-0.5s0.3-0.2,0.5-0.2c0.2,0,0.4,0.1,0.5,0.2
		s0.2,0.3,0.2,0.5s-0.1,0.4-0.2,0.5c-0.1,0.1-0.3,0.2-0.5,0.2C186.9,194.2,186.7,194.1,186.6,193.9z M187.6,195.2v6.6h-1.1v-6.6
		H187.6z"/>
	<path fill="#363636" d="M194.6,195.8c0.5,0.5,0.7,1.2,0.7,2.1v3.9h-1.1v-3.7c0-0.7-0.2-1.2-0.5-1.5c-0.3-0.3-0.8-0.5-1.3-0.5
		c-0.6,0-1,0.2-1.4,0.5c-0.3,0.4-0.5,0.9-0.5,1.6v3.6h-1.1v-6.6h1.1v0.9c0.2-0.3,0.5-0.6,0.9-0.8c0.4-0.2,0.8-0.3,1.2-0.3
		C193.5,195.1,194.1,195.3,194.6,195.8z"/>
	<path fill="#363636" d="M44.8,210.5v8.3h-1.1v-6.2l-2.8,6.2h-0.8l-2.8-6.2v6.2h-1.1v-8.3h1.2l3.1,6.9l3.1-6.9H44.8z"/>
	<path fill="#363636" d="M46.7,210.9c-0.1-0.1-0.2-0.3-0.2-0.5s0.1-0.4,0.2-0.5s0.3-0.2,0.5-0.2c0.2,0,0.4,0.1,0.5,0.2
		c0.1,0.1,0.2,0.3,0.2,0.5s-0.1,0.4-0.2,0.5c-0.1,0.1-0.3,0.2-0.5,0.2C47,211.2,46.8,211.1,46.7,210.9z M47.7,212.2v6.6h-1.1v-6.6
		H47.7z"/>
	<path fill="#363636" d="M49.6,213.7c0.3-0.5,0.6-0.9,1.1-1.2c0.5-0.3,1-0.4,1.7-0.4c0.8,0,1.5,0.2,2,0.6c0.5,0.4,0.9,0.9,1,1.6
		h-1.2c-0.1-0.4-0.3-0.7-0.7-0.9c-0.3-0.2-0.7-0.3-1.2-0.3c-0.6,0-1.1,0.2-1.5,0.6c-0.4,0.4-0.6,1-0.6,1.8c0,0.8,0.2,1.4,0.6,1.8
		c0.4,0.4,0.9,0.6,1.5,0.6c0.5,0,0.9-0.1,1.2-0.3c0.3-0.2,0.5-0.5,0.7-1h1.2c-0.2,0.7-0.5,1.2-1.1,1.6c-0.5,0.4-1.2,0.6-2,0.6
		c-0.6,0-1.2-0.1-1.7-0.4c-0.5-0.3-0.9-0.7-1.1-1.2s-0.4-1.1-0.4-1.8C49.2,214.8,49.3,214.2,49.6,213.7z"/>
	<path fill="#363636" d="M58.8,212.4c0.4-0.2,0.8-0.3,1.3-0.3v1.1h-0.3c-1.2,0-1.8,0.7-1.8,2v3.6h-1.1v-6.6H58v1.1
		C58.2,212.9,58.4,212.6,58.8,212.4z"/>
	<path fill="#363636" d="M62.6,218.5c-0.5-0.3-0.9-0.7-1.2-1.2c-0.3-0.5-0.4-1.1-0.4-1.8c0-0.7,0.1-1.3,0.4-1.8s0.7-0.9,1.2-1.2
		c0.5-0.3,1.1-0.4,1.7-0.4s1.2,0.1,1.7,0.4c0.5,0.3,0.9,0.7,1.2,1.2s0.4,1.1,0.4,1.8s-0.1,1.3-0.5,1.8c-0.3,0.5-0.7,0.9-1.2,1.2
		c-0.5,0.3-1.1,0.4-1.7,0.4C63.6,218.9,63.1,218.8,62.6,218.5z M65.3,217.7c0.3-0.2,0.6-0.5,0.8-0.8s0.3-0.8,0.3-1.3
		c0-0.5-0.1-1-0.3-1.3c-0.2-0.4-0.5-0.6-0.8-0.8c-0.3-0.2-0.7-0.3-1.1-0.3c-0.4,0-0.8,0.1-1.1,0.3c-0.3,0.2-0.6,0.5-0.8,0.8
		c-0.2,0.4-0.3,0.8-0.3,1.3c0,0.5,0.1,1,0.3,1.4c0.2,0.4,0.5,0.6,0.8,0.8s0.7,0.3,1.1,0.3S65,217.9,65.3,217.7z"/>
	<path fill="#363636" d="M70,218.7c-0.4-0.2-0.7-0.4-0.9-0.7c-0.2-0.3-0.4-0.7-0.4-1.1h1.1c0,0.3,0.2,0.6,0.5,0.8
		c0.3,0.2,0.6,0.3,1.1,0.3c0.4,0,0.7-0.1,1-0.3c0.2-0.2,0.4-0.4,0.4-0.7c0-0.3-0.1-0.5-0.4-0.6c-0.3-0.1-0.7-0.3-1.2-0.4
		c-0.5-0.1-0.9-0.3-1.2-0.4c-0.3-0.1-0.6-0.3-0.8-0.6c-0.2-0.3-0.3-0.6-0.3-1c0-0.3,0.1-0.6,0.3-0.9c0.2-0.3,0.5-0.5,0.9-0.7
		c0.4-0.2,0.8-0.2,1.3-0.2c0.7,0,1.3,0.2,1.8,0.6c0.4,0.4,0.7,0.9,0.7,1.5h-1.1c0-0.3-0.2-0.6-0.4-0.8s-0.6-0.3-1-0.3
		c-0.4,0-0.7,0.1-0.9,0.3c-0.2,0.2-0.3,0.4-0.3,0.7c0,0.2,0.1,0.4,0.2,0.5c0.1,0.1,0.3,0.3,0.5,0.3s0.5,0.2,0.9,0.3
		c0.5,0.1,0.9,0.3,1.2,0.4s0.5,0.3,0.8,0.6s0.3,0.6,0.3,1c0,0.4-0.1,0.7-0.3,1c-0.2,0.3-0.5,0.5-0.8,0.7c-0.4,0.2-0.8,0.2-1.3,0.2
		C70.9,218.9,70.4,218.8,70,218.7z"/>
	<path fill="#363636" d="M76.5,218.5c-0.5-0.3-0.9-0.7-1.2-1.2c-0.3-0.5-0.4-1.1-0.4-1.8c0-0.7,0.1-1.3,0.4-1.8s0.7-0.9,1.2-1.2
		c0.5-0.3,1.1-0.4,1.7-0.4s1.2,0.1,1.7,0.4c0.5,0.3,0.9,0.7,1.2,1.2s0.4,1.1,0.4,1.8s-0.1,1.3-0.5,1.8c-0.3,0.5-0.7,0.9-1.2,1.2
		c-0.5,0.3-1.1,0.4-1.7,0.4C77.6,218.9,77,218.8,76.5,218.5z M79.3,217.7c0.3-0.2,0.6-0.5,0.8-0.8s0.3-0.8,0.3-1.3
		c0-0.5-0.1-1-0.3-1.3c-0.2-0.4-0.5-0.6-0.8-0.8c-0.3-0.2-0.7-0.3-1.1-0.3c-0.4,0-0.8,0.1-1.1,0.3c-0.3,0.2-0.6,0.5-0.8,0.8
		c-0.2,0.4-0.3,0.8-0.3,1.3c0,0.5,0.1,1,0.3,1.4c0.2,0.4,0.5,0.6,0.8,0.8s0.7,0.3,1.1,0.3S78.9,217.9,79.3,217.7z"/>
	<path fill="#363636" d="M85.7,213.1h-1.4v5.7h-1.1v-5.7h-0.9v-0.9h0.9v-0.5c0-0.7,0.2-1.3,0.6-1.6c0.4-0.3,1-0.5,1.8-0.5v0.9
		c-0.5,0-0.8,0.1-1,0.3c-0.2,0.2-0.3,0.5-0.3,0.9v0.5h1.4V213.1z"/>
	<path fill="#363636" d="M88.3,213.1v3.9c0,0.3,0.1,0.5,0.2,0.7c0.1,0.1,0.4,0.2,0.7,0.2H90v0.9h-1c-0.6,0-1.1-0.1-1.4-0.4
		c-0.3-0.3-0.5-0.7-0.5-1.4v-3.9h-0.9v-0.9h0.9v-1.7h1.1v1.7H90v0.9H88.3z"/>
	<path fill="#363636" d="M99.4,216.9h-3.6l-0.7,1.9H94l3-8.3h1.3l3,8.3h-1.2L99.4,216.9z M99.1,216.1l-1.5-4.2l-1.5,4.2H99.1z"/>
	<path fill="#363636" d="M103.4,217.9h3.2v0.9h-4.5v-0.9l3.2-4.8h-3.2v-0.9h4.4v0.9L103.4,217.9z"/>
	<path fill="#363636" d="M113.9,212.2v6.6h-1.1v-1c-0.2,0.3-0.5,0.6-0.9,0.8c-0.4,0.2-0.8,0.3-1.2,0.3c-0.5,0-1-0.1-1.4-0.3
		c-0.4-0.2-0.7-0.5-1-1c-0.2-0.4-0.4-0.9-0.4-1.5v-3.9h1.1v3.7c0,0.6,0.2,1.1,0.5,1.5s0.8,0.5,1.3,0.5c0.6,0,1-0.2,1.4-0.5
		c0.3-0.4,0.5-0.9,0.5-1.6v-3.6H113.9z"/>
	<path fill="#363636" d="M117.6,212.4c0.4-0.2,0.8-0.3,1.3-0.3v1.1h-0.3c-1.2,0-1.8,0.7-1.8,2v3.6h-1.1v-6.6h1.1v1.1
		C117,212.9,117.3,212.6,117.6,212.4z"/>
	<path fill="#363636" d="M126.2,215.9h-5.3c0,0.6,0.3,1.2,0.7,1.5c0.4,0.4,0.9,0.5,1.5,0.5c0.5,0,0.9-0.1,1.2-0.3
		c0.3-0.2,0.5-0.5,0.7-0.9h1.2c-0.2,0.6-0.5,1.1-1.1,1.5c-0.5,0.4-1.2,0.6-2,0.6c-0.6,0-1.2-0.1-1.7-0.4c-0.5-0.3-0.9-0.7-1.2-1.2
		c-0.3-0.5-0.4-1.1-0.4-1.8s0.1-1.3,0.4-1.8s0.7-0.9,1.1-1.2c0.5-0.3,1.1-0.4,1.7-0.4c0.6,0,1.2,0.1,1.7,0.4
		c0.5,0.3,0.9,0.6,1.1,1.1c0.3,0.5,0.4,1,0.4,1.6C126.2,215.5,126.2,215.7,126.2,215.9z M124.8,214c-0.2-0.3-0.4-0.5-0.8-0.7
		c-0.3-0.2-0.7-0.2-1-0.2c-0.6,0-1,0.2-1.4,0.5c-0.4,0.4-0.6,0.8-0.7,1.5h4.2C125.1,214.6,125,214.3,124.8,214z"/>
	<path fill="#363636" d="M132.9,212.5c0.4-0.3,0.9-0.4,1.5-0.4c0.6,0,1.1,0.1,1.6,0.4c0.5,0.3,0.9,0.7,1.1,1.2
		c0.3,0.5,0.4,1.1,0.4,1.8c0,0.7-0.1,1.3-0.4,1.8c-0.3,0.5-0.6,0.9-1.1,1.2c-0.5,0.3-1,0.4-1.6,0.4c-0.6,0-1.1-0.1-1.5-0.4
		c-0.4-0.3-0.8-0.6-1-0.9v4.3h-1.1v-9.7h1.1v1.2C132.2,213.1,132.5,212.7,132.9,212.5z M136.1,214.2c-0.2-0.4-0.5-0.6-0.8-0.8
		c-0.3-0.2-0.7-0.3-1.1-0.3c-0.4,0-0.8,0.1-1.1,0.3c-0.3,0.2-0.6,0.5-0.8,0.9c-0.2,0.4-0.3,0.8-0.3,1.3c0,0.5,0.1,0.9,0.3,1.3
		c0.2,0.4,0.5,0.7,0.8,0.9c0.3,0.2,0.7,0.3,1.1,0.3c0.4,0,0.8-0.1,1.1-0.3c0.3-0.2,0.6-0.5,0.8-0.9s0.3-0.8,0.3-1.3
		C136.4,215,136.3,214.6,136.1,214.2z"/>
	<path fill="#363636" d="M140.1,209.9v8.9H139v-8.9H140.1z"/>
	<path fill="#363636" d="M141.9,213.7c0.3-0.5,0.6-0.9,1.1-1.2c0.5-0.3,1-0.4,1.6-0.4c0.6,0,1.1,0.1,1.5,0.4s0.7,0.6,0.9,0.9v-1.2
		h1.1v6.6h-1.1v-1.2c-0.2,0.4-0.5,0.7-1,1c-0.4,0.3-0.9,0.4-1.5,0.4c-0.6,0-1.1-0.1-1.6-0.4c-0.5-0.3-0.8-0.7-1.1-1.2
		c-0.3-0.5-0.4-1.1-0.4-1.8C141.5,214.8,141.6,214.2,141.9,213.7z M146.8,214.2c-0.2-0.4-0.5-0.7-0.8-0.8c-0.3-0.2-0.7-0.3-1.1-0.3
		s-0.8,0.1-1.1,0.3c-0.3,0.2-0.6,0.5-0.8,0.8c-0.2,0.4-0.3,0.8-0.3,1.3c0,0.5,0.1,0.9,0.3,1.3s0.5,0.7,0.8,0.9
		c0.3,0.2,0.7,0.3,1.1,0.3s0.8-0.1,1.1-0.3c0.3-0.2,0.6-0.5,0.8-0.9c0.2-0.4,0.3-0.8,0.3-1.3S147,214.6,146.8,214.2z"/>
	<path fill="#363636" d="M151.4,213.1v3.9c0,0.3,0.1,0.5,0.2,0.7s0.4,0.2,0.7,0.2h0.8v0.9h-1c-0.6,0-1.1-0.1-1.4-0.4
		s-0.5-0.7-0.5-1.4v-3.9h-0.9v-0.9h0.9v-1.7h1.1v1.7h1.7v0.9H151.4z"/>
	<path fill="#363636" d="M157.1,213.1h-1.4v5.7h-1.1v-5.7h-0.9v-0.9h0.9v-0.5c0-0.7,0.2-1.3,0.6-1.6s1-0.5,1.8-0.5v0.9
		c-0.5,0-0.8,0.1-1,0.3c-0.2,0.2-0.3,0.5-0.3,0.9v0.5h1.4V213.1z"/>
	<path fill="#363636" d="M159.5,218.5c-0.5-0.3-0.9-0.7-1.2-1.2c-0.3-0.5-0.4-1.1-0.4-1.8c0-0.7,0.1-1.3,0.4-1.8s0.7-0.9,1.2-1.2
		c0.5-0.3,1.1-0.4,1.7-0.4s1.2,0.1,1.7,0.4c0.5,0.3,0.9,0.7,1.2,1.2s0.4,1.1,0.4,1.8s-0.2,1.3-0.5,1.8c-0.3,0.5-0.7,0.9-1.2,1.2
		c-0.5,0.3-1.1,0.4-1.7,0.4C160.6,218.9,160,218.8,159.5,218.5z M162.3,217.7c0.3-0.2,0.6-0.5,0.8-0.8s0.3-0.8,0.3-1.3
		c0-0.5-0.1-1-0.3-1.3c-0.2-0.4-0.5-0.6-0.8-0.8c-0.3-0.2-0.7-0.3-1.1-0.3c-0.4,0-0.8,0.1-1.1,0.3c-0.3,0.2-0.6,0.5-0.8,0.8
		c-0.2,0.4-0.3,0.8-0.3,1.3c0,0.5,0.1,1,0.3,1.4c0.2,0.4,0.5,0.6,0.8,0.8s0.7,0.3,1.1,0.3C161.6,217.9,162,217.9,162.3,217.7z"/>
	<path fill="#363636" d="M167.9,212.4c0.4-0.2,0.8-0.3,1.3-0.3v1.1H169c-1.2,0-1.8,0.7-1.8,2v3.6H166v-6.6h1.1v1.1
		C167.3,212.9,167.6,212.6,167.9,212.4z"/>
	<path fill="#363636" d="M179.8,212.4c0.4,0.2,0.7,0.5,0.9,1c0.2,0.4,0.3,0.9,0.3,1.5v3.9H180v-3.7c0-0.7-0.2-1.2-0.5-1.5
		c-0.3-0.3-0.8-0.5-1.3-0.5c-0.6,0-1,0.2-1.4,0.5c-0.3,0.4-0.5,0.9-0.5,1.6v3.6h-1.1v-3.7c0-0.7-0.2-1.2-0.5-1.5
		c-0.3-0.3-0.8-0.5-1.3-0.5c-0.6,0-1,0.2-1.4,0.5s-0.5,0.9-0.5,1.6v3.6h-1.1v-6.6h1.1v0.9c0.2-0.3,0.5-0.6,0.9-0.8
		c0.4-0.2,0.8-0.3,1.2-0.3c0.6,0,1,0.1,1.5,0.4c0.4,0.2,0.7,0.6,0.9,1.1c0.2-0.5,0.5-0.8,0.9-1.1c0.4-0.3,0.9-0.4,1.4-0.4
		C178.9,212.1,179.4,212.2,179.8,212.4z"/>
</g>
<g>
	<path fill="#363636" d="M43.1,173c-0.2,0.5-0.6,0.8-1.2,1.1s-1.2,0.4-2,0.4h-1.6v3.8h-2v-9.8H40c0.8,0,1.4,0.1,1.9,0.4
		c0.5,0.3,0.9,0.6,1.2,1.1s0.4,1,0.4,1.6C43.5,172,43.4,172.5,43.1,173z M41.1,172.5c0.3-0.2,0.4-0.6,0.4-1c0-1-0.5-1.4-1.6-1.4
		h-1.6v2.8h1.6C40.4,172.9,40.8,172.8,41.1,172.5z"/>
	<path fill="#363636" d="M44.8,172.3c0.3-0.6,0.7-1.1,1.3-1.4c0.5-0.3,1.1-0.5,1.8-0.5c0.6,0,1.1,0.1,1.5,0.3s0.8,0.5,1,0.9v-1.1h2
		v7.8h-2v-1.1c-0.3,0.4-0.6,0.7-1,0.9c-0.4,0.2-1,0.4-1.5,0.4c-0.7,0-1.2-0.2-1.8-0.5c-0.5-0.3-1-0.8-1.3-1.4
		c-0.3-0.6-0.5-1.3-0.5-2.1C44.4,173.6,44.5,172.9,44.8,172.3z M50.2,173.2c-0.2-0.3-0.4-0.6-0.8-0.8c-0.3-0.2-0.7-0.3-1-0.3
		c-0.4,0-0.7,0.1-1,0.3c-0.3,0.2-0.6,0.4-0.7,0.8s-0.3,0.7-0.3,1.2s0.1,0.9,0.3,1.2c0.2,0.3,0.4,0.6,0.8,0.8c0.3,0.2,0.6,0.3,1,0.3
		c0.4,0,0.7-0.1,1-0.3c0.3-0.2,0.6-0.4,0.8-0.8c0.2-0.3,0.3-0.7,0.3-1.2S50.4,173.5,50.2,173.2z"/>
	<path fill="#363636" d="M60.9,171.3c0.6,0.6,0.9,1.4,0.9,2.4v4.5h-2V174c0-0.6-0.2-1.1-0.5-1.4s-0.7-0.5-1.3-0.5
		c-0.5,0-1,0.2-1.3,0.5c-0.3,0.3-0.5,0.8-0.5,1.4v4.3h-2v-7.8h2v1c0.3-0.3,0.6-0.6,1-0.8c0.4-0.2,0.9-0.3,1.3-0.3
		C59.6,170.4,60.3,170.7,60.9,171.3z"/>
	<path fill="#363636" d="M70.8,175h-5.7c0,0.6,0.2,1,0.6,1.3c0.3,0.3,0.8,0.5,1.3,0.5c0.7,0,1.2-0.3,1.6-0.9h2.1
		c-0.2,0.7-0.7,1.4-1.3,1.8s-1.4,0.7-2.3,0.7c-0.7,0-1.4-0.2-2-0.5c-0.6-0.3-1.1-0.8-1.4-1.4c-0.3-0.6-0.5-1.3-0.5-2.1
		c0-0.8,0.2-1.5,0.5-2.1c0.3-0.6,0.8-1.1,1.4-1.4c0.6-0.3,1.3-0.5,2-0.5c0.7,0,1.4,0.2,2,0.5c0.6,0.3,1,0.8,1.4,1.4
		c0.3,0.6,0.5,1.3,0.5,2C70.8,174.5,70.8,174.7,70.8,175z M68.8,173.6c0-0.5-0.2-0.9-0.5-1.2c-0.4-0.3-0.8-0.5-1.3-0.5
		c-0.5,0-0.9,0.1-1.2,0.4c-0.3,0.3-0.5,0.7-0.6,1.2H68.8z"/>
	<path fill="#363636" d="M74.2,167.9v10.4h-2v-10.4H74.2z"/>
	<path fill="#363636" d="M77.4,178c-0.5-0.2-0.9-0.5-1.2-0.9c-0.3-0.4-0.5-0.8-0.5-1.3h2c0,0.3,0.2,0.5,0.4,0.7s0.6,0.3,1,0.3
		c0.4,0,0.7-0.1,0.9-0.2s0.3-0.3,0.3-0.6c0-0.3-0.1-0.4-0.4-0.6c-0.3-0.1-0.7-0.3-1.2-0.4c-0.6-0.1-1.1-0.3-1.4-0.4
		c-0.4-0.1-0.7-0.4-1-0.7c-0.3-0.3-0.4-0.7-0.4-1.2c0-0.4,0.1-0.8,0.4-1.2c0.2-0.4,0.6-0.6,1.1-0.8c0.5-0.2,1-0.3,1.6-0.3
		c0.9,0,1.7,0.2,2.2,0.7c0.6,0.5,0.9,1.1,0.9,1.9h-1.9c0-0.3-0.2-0.6-0.4-0.7c-0.2-0.2-0.5-0.3-0.9-0.3c-0.4,0-0.6,0.1-0.8,0.2
		s-0.3,0.3-0.3,0.5c0,0.3,0.1,0.5,0.4,0.6c0.3,0.1,0.7,0.3,1.2,0.4c0.6,0.1,1,0.3,1.4,0.4c0.4,0.1,0.7,0.4,0.9,0.7
		c0.3,0.3,0.4,0.7,0.4,1.2c0,0.4-0.1,0.8-0.4,1.2c-0.2,0.4-0.6,0.6-1.1,0.8c-0.5,0.2-1,0.3-1.6,0.3C78.5,178.4,77.9,178.3,77.4,178z
		"/>
</g>
<rect x="36.4" y="36.8" fill="none" stroke="#363636" stroke-width="1.5" stroke-miterlimit="10" width="33.1" height="70.8"/>
<rect x="69.5" y="36.8" fill="none" stroke="#363636" stroke-width="1.5" stroke-miterlimit="10" width="33.1" height="70.8"/>
<rect x="102.6" y="36.8" fill="none" stroke="#363636" stroke-width="1.5" stroke-miterlimit="10" width="33.1" height="70.8"/>
<line fill="none" stroke="#363636" stroke-width="1.5" stroke-miterlimit="10" x1="52.9" y1="72.2" x2="86" y2="72.2"/>
<polyline fill="none" stroke="#363636" stroke-width="1.5" stroke-miterlimit="10" points="78.4,64.6 86,72.2 78.4,79.8 "/>
<line fill="none" stroke="#363636" stroke-width="1.5" stroke-miterlimit="10" x1="86" y1="91.5" x2="119.2" y2="91.5"/>
<polyline fill="none" stroke="#363636" stroke-width="1.5" stroke-miterlimit="10" points="111.5,83.9 119.2,91.5 111.5,99.1 "/>
</svg>
