<?xml version="1.0" encoding="utf-8"?>
<!-- Generator: Adobe Illustrator 26.3.1, SVG Export Plug-In . SVG Version: 6.00 Build 0)  -->
<svg version="1.1" baseProfile="tiny" id="Layer_1" xmlns="http://www.w3.org/2000/svg" xmlns:xlink="http://www.w3.org/1999/xlink"
	 x="0px" y="0px" width="260px" height="258.2px" viewBox="0 0 260 258.2" overflow="visible" xml:space="preserve">
<path fill="#F2EDED" d="M243.3,258.2H16.7c-9.2,0-16.7-7.5-16.7-16.7V16.7C0,7.5,7.5,0,16.7,0h226.5c9.2,0,16.7,7.5,16.7,16.7v224.8
	C260,250.7,252.5,258.2,243.3,258.2z"/>
<g>
	<path fill="#363636" d="M42.9,201.8h-1.1l-4.4-6.7v6.7h-1.1v-8.4h1.1l4.4,6.6v-6.6h1.1V201.8z"/>
	<path fill="#363636" d="M50.7,198.9h-5.3c0,0.6,0.3,1.2,0.7,1.5c0.4,0.4,0.9,0.5,1.5,0.5c0.5,0,0.9-0.1,1.2-0.3
		c0.3-0.2,0.5-0.5,0.7-0.9h1.2c-0.2,0.6-0.5,1.1-1.1,1.5c-0.5,0.4-1.2,0.6-2,0.6c-0.6,0-1.2-0.1-1.7-0.4c-0.5-0.3-0.9-0.7-1.2-1.2
		c-0.3-0.5-0.4-1.1-0.4-1.8s0.1-1.3,0.4-1.8s0.7-0.9,1.1-1.2c0.5-0.3,1.1-0.4,1.7-0.4c0.6,0,1.2,0.1,1.7,0.4
		c0.5,0.3,0.9,0.6,1.1,1.1c0.3,0.5,0.4,1,0.4,1.6C50.8,198.5,50.7,198.7,50.7,198.9z M49.3,197c-0.2-0.3-0.4-0.5-0.8-0.7
		c-0.3-0.2-0.7-0.2-1-0.2c-0.6,0-1,0.2-1.4,0.5c-0.4,0.4-0.6,0.8-0.7,1.5h4.2C49.6,197.6,49.5,197.3,49.3,197z"/>
	<path fill="#363636" d="M61,195.2l-2.1,6.6h-1.1l-1.6-5.2l-1.6,5.2h-1.1l-2.1-6.6h1.1l1.5,5.5l1.6-5.5h1.1l1.6,5.5l1.5-5.5H61z"/>
	<path fill="#363636" d="M67.3,195.5c0.4-0.3,0.9-0.4,1.5-0.4c0.6,0,1.1,0.1,1.6,0.4s0.9,0.7,1.1,1.2s0.4,1.1,0.4,1.8
		c0,0.7-0.1,1.3-0.4,1.8c-0.3,0.5-0.6,0.9-1.1,1.2s-1,0.4-1.6,0.4c-0.6,0-1.1-0.1-1.5-0.4c-0.4-0.3-0.8-0.6-1-0.9v4.3h-1.1v-9.7h1.1
		v1.2C66.5,196.1,66.9,195.7,67.3,195.5z M70.5,197.2c-0.2-0.4-0.5-0.6-0.8-0.8c-0.3-0.2-0.7-0.3-1.1-0.3c-0.4,0-0.8,0.1-1.1,0.3
		c-0.3,0.2-0.6,0.5-0.8,0.9c-0.2,0.4-0.3,0.8-0.3,1.3c0,0.5,0.1,0.9,0.3,1.3c0.2,0.4,0.5,0.7,0.8,0.9c0.3,0.2,0.7,0.3,1.1,0.3
		c0.4,0,0.8-0.1,1.1-0.3c0.3-0.2,0.6-0.5,0.8-0.9c0.2-0.4,0.3-0.8,0.3-1.3C70.8,198,70.7,197.6,70.5,197.2z"/>
	<path fill="#363636" d="M73.3,196.7c0.3-0.5,0.6-0.9,1.1-1.2s1-0.4,1.6-0.4c0.6,0,1.1,0.1,1.5,0.4c0.4,0.2,0.7,0.6,0.9,0.9v-1.2
		h1.1v6.6h-1.1v-1.2c-0.2,0.4-0.5,0.7-1,1c-0.4,0.3-0.9,0.4-1.5,0.4c-0.6,0-1.1-0.1-1.6-0.4c-0.5-0.3-0.8-0.7-1.1-1.2
		c-0.3-0.5-0.4-1.1-0.4-1.8C72.9,197.8,73.1,197.2,73.3,196.7z M78.2,197.2c-0.2-0.4-0.5-0.7-0.8-0.8c-0.3-0.2-0.7-0.3-1.1-0.3
		c-0.4,0-0.8,0.1-1.1,0.3c-0.3,0.2-0.6,0.5-0.8,0.8c-0.2,0.4-0.3,0.8-0.3,1.3c0,0.5,0.1,0.9,0.3,1.3c0.2,0.4,0.5,0.7,0.8,0.9
		c0.3,0.2,0.7,0.3,1.1,0.3c0.4,0,0.8-0.1,1.1-0.3c0.3-0.2,0.6-0.5,0.8-0.9c0.2-0.4,0.3-0.8,0.3-1.3S78.4,197.6,78.2,197.2z"/>
	<path fill="#363636" d="M82.8,196.1v3.9c0,0.3,0.1,0.5,0.2,0.7c0.1,0.1,0.4,0.2,0.7,0.2h0.8v0.9h-1c-0.6,0-1.1-0.1-1.4-0.4
		c-0.3-0.3-0.5-0.7-0.5-1.4v-3.9h-0.9v-0.9h0.9v-1.7h1.1v1.7h1.7v0.9H82.8z"/>
	<path fill="#363636" d="M85.9,193.9c-0.1-0.1-0.2-0.3-0.2-0.5s0.1-0.4,0.2-0.5s0.3-0.2,0.5-0.2c0.2,0,0.4,0.1,0.5,0.2
		c0.1,0.1,0.2,0.3,0.2,0.5s-0.1,0.4-0.2,0.5c-0.1,0.1-0.3,0.2-0.5,0.2C86.2,194.2,86,194.1,85.9,193.9z M86.9,195.2v6.6h-1.1v-6.6
		H86.9z"/>
	<path fill="#363636" d="M94.7,198.9h-5.3c0,0.6,0.3,1.2,0.7,1.5c0.4,0.4,0.9,0.5,1.5,0.5c0.5,0,0.9-0.1,1.2-0.3
		c0.3-0.2,0.5-0.5,0.7-0.9h1.2c-0.2,0.6-0.5,1.1-1.1,1.5c-0.5,0.4-1.2,0.6-2,0.6c-0.6,0-1.2-0.1-1.7-0.4c-0.5-0.3-0.9-0.7-1.2-1.2
		c-0.3-0.5-0.4-1.1-0.4-1.8s0.1-1.3,0.4-1.8s0.7-0.9,1.1-1.2c0.5-0.3,1.1-0.4,1.7-0.4c0.6,0,1.2,0.1,1.7,0.4
		c0.5,0.3,0.9,0.6,1.1,1.1c0.3,0.5,0.4,1,0.4,1.6C94.8,198.5,94.8,198.7,94.7,198.9z M93.4,197c-0.2-0.3-0.4-0.5-0.8-0.7
		c-0.3-0.2-0.7-0.2-1-0.2c-0.6,0-1,0.2-1.4,0.5c-0.4,0.4-0.6,0.8-0.7,1.5h4.2C93.7,197.6,93.6,197.3,93.4,197z"/>
	<path fill="#363636" d="M101.4,195.8c0.5,0.5,0.7,1.2,0.7,2.1v3.9H101v-3.7c0-0.7-0.2-1.2-0.5-1.5c-0.3-0.3-0.8-0.5-1.3-0.5
		c-0.6,0-1,0.2-1.4,0.5s-0.5,0.9-0.5,1.6v3.6h-1.1v-6.6h1.1v0.9c0.2-0.3,0.5-0.6,0.9-0.8s0.8-0.3,1.2-0.3
		C100.2,195.1,100.9,195.3,101.4,195.8z"/>
	<path fill="#363636" d="M105.2,196.1v3.9c0,0.3,0.1,0.5,0.2,0.7c0.1,0.1,0.4,0.2,0.7,0.2h0.8v0.9h-1c-0.6,0-1.1-0.1-1.4-0.4
		c-0.3-0.3-0.5-0.7-0.5-1.4v-3.9h-0.9v-0.9h0.9v-1.7h1.1v1.7h1.7v0.9H105.2z"/>
	<path fill="#363636" d="M111.5,196.7c0.3-0.5,0.6-0.9,1.1-1.2s1-0.4,1.6-0.4c0.6,0,1.1,0.1,1.5,0.4c0.4,0.2,0.7,0.6,0.9,0.9v-1.2
		h1.1v6.6h-1.1v-1.2c-0.2,0.4-0.5,0.7-1,1c-0.4,0.3-0.9,0.4-1.5,0.4c-0.6,0-1.1-0.1-1.6-0.4c-0.5-0.3-0.8-0.7-1.1-1.2
		c-0.3-0.5-0.4-1.1-0.4-1.8C111.1,197.8,111.2,197.2,111.5,196.7z M116.3,197.2c-0.2-0.4-0.5-0.7-0.8-0.8c-0.3-0.2-0.7-0.3-1.1-0.3
		c-0.4,0-0.8,0.1-1.1,0.3c-0.3,0.2-0.6,0.5-0.8,0.8c-0.2,0.4-0.3,0.8-0.3,1.3c0,0.5,0.1,0.9,0.3,1.3c0.2,0.4,0.5,0.7,0.8,0.9
		c0.3,0.2,0.7,0.3,1.1,0.3c0.4,0,0.8-0.1,1.1-0.3c0.3-0.2,0.6-0.5,0.8-0.9c0.2-0.4,0.3-0.8,0.3-1.3S116.5,197.6,116.3,197.2z"/>
	<path fill="#363636" d="M121.6,195.5c0.4-0.3,0.9-0.4,1.5-0.4c0.6,0,1.1,0.1,1.6,0.4s0.9,0.7,1.1,1.2s0.4,1.1,0.4,1.8
		c0,0.7-0.1,1.3-0.4,1.8c-0.3,0.5-0.6,0.9-1.1,1.2s-1,0.4-1.6,0.4c-0.6,0-1.1-0.1-1.5-0.4c-0.4-0.3-0.8-0.6-1-0.9v4.3h-1.1v-9.7h1.1
		v1.2C120.9,196.1,121.2,195.7,121.6,195.5z M124.8,197.2c-0.2-0.4-0.5-0.6-0.8-0.8c-0.3-0.2-0.7-0.3-1.1-0.3
		c-0.4,0-0.8,0.1-1.1,0.3c-0.3,0.2-0.6,0.5-0.8,0.9c-0.2,0.4-0.3,0.8-0.3,1.3c0,0.5,0.1,0.9,0.3,1.3c0.2,0.4,0.5,0.7,0.8,0.9
		c0.3,0.2,0.7,0.3,1.1,0.3c0.4,0,0.8-0.1,1.1-0.3c0.3-0.2,0.6-0.5,0.8-0.9c0.2-0.4,0.3-0.8,0.3-1.3C125.1,198,125,197.6,124.8,197.2
		z"/>
	<path fill="#363636" d="M129.8,195.5c0.4-0.3,0.9-0.4,1.5-0.4c0.6,0,1.1,0.1,1.6,0.4c0.5,0.3,0.9,0.7,1.1,1.2
		c0.3,0.5,0.4,1.1,0.4,1.8c0,0.7-0.1,1.3-0.4,1.8c-0.3,0.5-0.6,0.9-1.1,1.2c-0.5,0.3-1,0.4-1.6,0.4c-0.6,0-1.1-0.1-1.5-0.4
		c-0.4-0.3-0.8-0.6-1-0.9v4.3h-1.1v-9.7h1.1v1.2C129,196.1,129.3,195.7,129.8,195.5z M133,197.2c-0.2-0.4-0.5-0.6-0.8-0.8
		c-0.3-0.2-0.7-0.3-1.1-0.3c-0.4,0-0.8,0.1-1.1,0.3c-0.3,0.2-0.6,0.5-0.8,0.9c-0.2,0.4-0.3,0.8-0.3,1.3c0,0.5,0.1,0.9,0.3,1.3
		c0.2,0.4,0.5,0.7,0.8,0.9c0.3,0.2,0.7,0.3,1.1,0.3c0.4,0,0.8-0.1,1.1-0.3c0.3-0.2,0.6-0.5,0.8-0.9s0.3-0.8,0.3-1.3
		C133.3,198,133.2,197.6,133,197.2z"/>
	<path fill="#363636" d="M136.8,201.7c-0.4-0.2-0.7-0.4-0.9-0.7c-0.2-0.3-0.4-0.7-0.4-1.1h1.1c0,0.3,0.2,0.6,0.5,0.8
		s0.6,0.3,1.1,0.3c0.4,0,0.7-0.1,1-0.3c0.2-0.2,0.4-0.4,0.4-0.7c0-0.3-0.1-0.5-0.4-0.6c-0.3-0.1-0.7-0.3-1.2-0.4
		c-0.5-0.1-0.9-0.3-1.2-0.4c-0.3-0.1-0.6-0.3-0.8-0.6c-0.2-0.3-0.3-0.6-0.3-1c0-0.3,0.1-0.6,0.3-0.9c0.2-0.3,0.5-0.5,0.9-0.7
		c0.4-0.2,0.8-0.2,1.3-0.2c0.7,0,1.3,0.2,1.8,0.6s0.7,0.9,0.7,1.5h-1.1c0-0.3-0.2-0.6-0.4-0.8s-0.6-0.3-1-0.3
		c-0.4,0-0.7,0.1-0.9,0.3c-0.2,0.2-0.3,0.4-0.3,0.7c0,0.2,0.1,0.4,0.2,0.5c0.1,0.1,0.3,0.3,0.5,0.3s0.5,0.2,0.9,0.3
		c0.5,0.1,0.9,0.3,1.2,0.4s0.5,0.3,0.8,0.6s0.3,0.6,0.3,1c0,0.4-0.1,0.7-0.3,1c-0.2,0.3-0.5,0.5-0.8,0.7c-0.4,0.2-0.8,0.2-1.3,0.2
		C137.6,201.9,137.2,201.8,136.8,201.7z"/>
	<path fill="#363636" d="M145.3,193.9c-0.1-0.1-0.2-0.3-0.2-0.5s0.1-0.4,0.2-0.5c0.1-0.1,0.3-0.2,0.5-0.2c0.2,0,0.4,0.1,0.5,0.2
		s0.2,0.3,0.2,0.5s-0.1,0.4-0.2,0.5c-0.1,0.1-0.3,0.2-0.5,0.2C145.6,194.2,145.5,194.1,145.3,193.9z M146.4,195.2v6.6h-1.1v-6.6
		H146.4z"/>
	<path fill="#363636" d="M153.4,195.8c0.5,0.5,0.7,1.2,0.7,2.1v3.9H153v-3.7c0-0.7-0.2-1.2-0.5-1.5c-0.3-0.3-0.8-0.5-1.3-0.5
		c-0.6,0-1,0.2-1.4,0.5s-0.5,0.9-0.5,1.6v3.6h-1.1v-6.6h1.1v0.9c0.2-0.3,0.5-0.6,0.9-0.8s0.8-0.3,1.2-0.3
		C152.2,195.1,152.9,195.3,153.4,195.8z"/>
	<path fill="#363636" d="M155.9,196.7c0.3-0.5,0.7-0.9,1.1-1.2c0.5-0.3,1-0.4,1.7-0.4c0.8,0,1.5,0.2,2,0.6c0.5,0.4,0.9,0.9,1,1.6
		h-1.2c-0.1-0.4-0.3-0.7-0.7-0.9c-0.3-0.2-0.7-0.3-1.2-0.3c-0.6,0-1.1,0.2-1.5,0.6c-0.4,0.4-0.6,1-0.6,1.8c0,0.8,0.2,1.4,0.6,1.8
		c0.4,0.4,0.9,0.6,1.5,0.6c0.5,0,0.9-0.1,1.2-0.3c0.3-0.2,0.5-0.5,0.7-1h1.2c-0.2,0.7-0.5,1.2-1.1,1.6s-1.2,0.6-2,0.6
		c-0.6,0-1.2-0.1-1.7-0.4c-0.5-0.3-0.9-0.7-1.1-1.2c-0.3-0.5-0.4-1.1-0.4-1.8C155.5,197.8,155.6,197.2,155.9,196.7z"/>
	<path fill="#363636" d="M165.1,195.4c0.4-0.2,0.8-0.3,1.3-0.3v1.1h-0.3c-1.2,0-1.8,0.7-1.8,2v3.6h-1.1v-6.6h1.1v1.1
		C164.5,195.9,164.8,195.6,165.1,195.4z"/>
	<path fill="#363636" d="M173.6,198.9h-5.3c0,0.6,0.3,1.2,0.7,1.5c0.4,0.4,0.9,0.5,1.5,0.5c0.5,0,0.9-0.1,1.2-0.3
		c0.3-0.2,0.5-0.5,0.7-0.9h1.2c-0.2,0.6-0.5,1.1-1.1,1.5c-0.5,0.4-1.2,0.6-2,0.6c-0.6,0-1.2-0.1-1.7-0.4c-0.5-0.3-0.9-0.7-1.2-1.2
		c-0.3-0.5-0.4-1.1-0.4-1.8s0.1-1.3,0.4-1.8c0.3-0.5,0.7-0.9,1.1-1.2c0.5-0.3,1.1-0.4,1.7-0.4c0.6,0,1.2,0.1,1.7,0.4
		c0.5,0.3,0.9,0.6,1.1,1.1c0.3,0.5,0.4,1,0.4,1.6C173.7,198.5,173.7,198.7,173.6,198.9z M172.3,197c-0.2-0.3-0.4-0.5-0.8-0.7
		c-0.3-0.2-0.7-0.2-1-0.2c-0.6,0-1,0.2-1.4,0.5c-0.4,0.4-0.6,0.8-0.7,1.5h4.2C172.5,197.6,172.4,197.3,172.3,197z"/>
	<path fill="#363636" d="M175.1,196.7c0.3-0.5,0.6-0.9,1.1-1.2c0.5-0.3,1-0.4,1.6-0.4c0.6,0,1.1,0.1,1.5,0.4s0.7,0.6,0.9,0.9v-1.2
		h1.1v6.6h-1.1v-1.2c-0.2,0.4-0.5,0.7-1,1c-0.4,0.3-0.9,0.4-1.5,0.4c-0.6,0-1.1-0.1-1.6-0.4c-0.5-0.3-0.8-0.7-1.1-1.2
		c-0.3-0.5-0.4-1.1-0.4-1.8C174.7,197.8,174.8,197.2,175.1,196.7z M180,197.2c-0.2-0.4-0.5-0.7-0.8-0.8c-0.3-0.2-0.7-0.3-1.1-0.3
		s-0.8,0.1-1.1,0.3c-0.3,0.2-0.6,0.5-0.8,0.8c-0.2,0.4-0.3,0.8-0.3,1.3c0,0.5,0.1,0.9,0.3,1.3s0.5,0.7,0.8,0.9
		c0.3,0.2,0.7,0.3,1.1,0.3s0.8-0.1,1.1-0.3c0.3-0.2,0.6-0.5,0.8-0.9c0.2-0.4,0.3-0.8,0.3-1.3S180.2,197.6,180,197.2z"/>
	<path fill="#363636" d="M184.2,201.7c-0.4-0.2-0.7-0.4-0.9-0.7c-0.2-0.3-0.4-0.7-0.4-1.1h1.1c0,0.3,0.2,0.6,0.5,0.8
		s0.6,0.3,1.1,0.3c0.4,0,0.7-0.1,1-0.3c0.2-0.2,0.4-0.4,0.4-0.7c0-0.3-0.1-0.5-0.4-0.6c-0.3-0.1-0.7-0.3-1.2-0.4
		c-0.5-0.1-0.9-0.3-1.2-0.4c-0.3-0.1-0.6-0.3-0.8-0.6c-0.2-0.3-0.3-0.6-0.3-1c0-0.3,0.1-0.6,0.3-0.9c0.2-0.3,0.5-0.5,0.9-0.7
		c0.4-0.2,0.8-0.2,1.3-0.2c0.7,0,1.3,0.2,1.8,0.6s0.7,0.9,0.7,1.5h-1.1c0-0.3-0.2-0.6-0.4-0.8s-0.6-0.3-1-0.3
		c-0.4,0-0.7,0.1-0.9,0.3c-0.2,0.2-0.3,0.4-0.3,0.7c0,0.2,0.1,0.4,0.2,0.5c0.1,0.1,0.3,0.3,0.5,0.3s0.5,0.2,0.9,0.3
		c0.5,0.1,0.9,0.3,1.2,0.4s0.6,0.3,0.8,0.6s0.3,0.6,0.3,1c0,0.4-0.1,0.7-0.3,1c-0.2,0.3-0.5,0.5-0.8,0.7c-0.4,0.2-0.8,0.2-1.3,0.2
		C185,201.9,184.6,201.8,184.2,201.7z"/>
	<path fill="#363636" d="M195.4,198.9h-5.3c0,0.6,0.3,1.2,0.7,1.5c0.4,0.4,0.9,0.5,1.5,0.5c0.5,0,0.9-0.1,1.2-0.3
		c0.3-0.2,0.5-0.5,0.7-0.9h1.2c-0.2,0.6-0.5,1.1-1.1,1.5c-0.5,0.4-1.2,0.6-2,0.6c-0.6,0-1.2-0.1-1.7-0.4c-0.5-0.3-0.9-0.7-1.2-1.2
		c-0.3-0.5-0.4-1.1-0.4-1.8s0.1-1.3,0.4-1.8c0.3-0.5,0.7-0.9,1.1-1.2c0.5-0.3,1.1-0.4,1.7-0.4c0.6,0,1.2,0.1,1.7,0.4
		c0.5,0.3,0.9,0.6,1.1,1.1c0.3,0.5,0.4,1,0.4,1.6C195.5,198.5,195.5,198.7,195.4,198.9z M194.1,197c-0.2-0.3-0.4-0.5-0.8-0.7
		c-0.3-0.2-0.7-0.2-1-0.2c-0.6,0-1,0.2-1.4,0.5c-0.4,0.4-0.6,0.8-0.7,1.5h4.2C194.4,197.6,194.3,197.3,194.1,197z"/>
	<path fill="#363636" d="M196.9,196.7c0.3-0.5,0.6-0.9,1.1-1.2s1-0.4,1.6-0.4c0.5,0,1,0.1,1.4,0.4c0.4,0.2,0.8,0.5,1,0.9v-3.5h1.1
		v8.9h-1.1v-1.2c-0.2,0.4-0.5,0.7-1,1c-0.4,0.3-0.9,0.4-1.5,0.4c-0.6,0-1.1-0.1-1.6-0.4s-0.8-0.7-1.1-1.2c-0.3-0.5-0.4-1.1-0.4-1.8
		C196.5,197.8,196.7,197.2,196.9,196.7z M201.8,197.2c-0.2-0.4-0.5-0.7-0.8-0.8c-0.3-0.2-0.7-0.3-1.1-0.3c-0.4,0-0.8,0.1-1.1,0.3
		c-0.3,0.2-0.6,0.5-0.8,0.8c-0.2,0.4-0.3,0.8-0.3,1.3c0,0.5,0.1,0.9,0.3,1.3c0.2,0.4,0.5,0.7,0.8,0.9c0.3,0.2,0.7,0.3,1.1,0.3
		c0.4,0,0.8-0.1,1.1-0.3c0.3-0.2,0.6-0.5,0.8-0.9c0.2-0.4,0.3-0.8,0.3-1.3S202,197.6,201.8,197.2z"/>
	<path fill="#363636" d="M36.3,213.7c0.3-0.5,0.6-0.9,1.1-1.2c0.5-0.3,1-0.4,1.7-0.4c0.8,0,1.5,0.2,2,0.6c0.5,0.4,0.9,0.9,1,1.6H41
		c-0.1-0.4-0.3-0.7-0.7-0.9c-0.3-0.2-0.7-0.3-1.2-0.3c-0.6,0-1.1,0.2-1.5,0.6c-0.4,0.4-0.6,1-0.6,1.8c0,0.8,0.2,1.4,0.6,1.8
		c0.4,0.4,0.9,0.6,1.5,0.6c0.5,0,0.9-0.1,1.2-0.3c0.3-0.2,0.5-0.5,0.7-1h1.2c-0.2,0.7-0.5,1.2-1.1,1.6c-0.5,0.4-1.2,0.6-2,0.6
		c-0.6,0-1.2-0.1-1.7-0.4c-0.5-0.3-0.9-0.7-1.1-1.2s-0.4-1.1-0.4-1.8C35.9,214.8,36,214.2,36.3,213.7z"/>
	<path fill="#363636" d="M44.7,209.9v8.9h-1.1v-8.9H44.7z"/>
	<path fill="#363636" d="M46.6,210.9c-0.1-0.1-0.2-0.3-0.2-0.5s0.1-0.4,0.2-0.5s0.3-0.2,0.5-0.2c0.2,0,0.4,0.1,0.5,0.2
		c0.1,0.1,0.2,0.3,0.2,0.5s-0.1,0.4-0.2,0.5c-0.1,0.1-0.3,0.2-0.5,0.2C46.9,211.2,46.7,211.1,46.6,210.9z M47.6,212.2v6.6h-1.1v-6.6
		H47.6z"/>
	<path fill="#363636" d="M55.5,215.9h-5.3c0,0.6,0.3,1.2,0.7,1.5c0.4,0.4,0.9,0.5,1.5,0.5c0.5,0,0.9-0.1,1.2-0.3
		c0.3-0.2,0.5-0.5,0.7-0.9h1.2c-0.2,0.6-0.5,1.1-1.1,1.5c-0.5,0.4-1.2,0.6-2,0.6c-0.6,0-1.2-0.1-1.7-0.4c-0.5-0.3-0.9-0.7-1.2-1.2
		c-0.3-0.5-0.4-1.1-0.4-1.8s0.1-1.3,0.4-1.8s0.7-0.9,1.1-1.2c0.5-0.3,1.1-0.4,1.7-0.4c0.6,0,1.2,0.1,1.7,0.4
		c0.5,0.3,0.9,0.6,1.1,1.1c0.3,0.5,0.4,1,0.4,1.6C55.5,215.5,55.5,215.7,55.5,215.9z M54.1,214c-0.2-0.3-0.4-0.5-0.8-0.7
		c-0.3-0.2-0.7-0.2-1-0.2c-0.6,0-1,0.2-1.4,0.5c-0.4,0.4-0.6,0.8-0.7,1.5h4.2C54.4,214.6,54.3,214.3,54.1,214z"/>
	<path fill="#363636" d="M62.1,212.8c0.5,0.5,0.7,1.2,0.7,2.1v3.9h-1.1v-3.7c0-0.7-0.2-1.2-0.5-1.5c-0.3-0.3-0.8-0.5-1.3-0.5
		c-0.6,0-1,0.2-1.4,0.5s-0.5,0.9-0.5,1.6v3.6h-1.1v-6.6H58v0.9c0.2-0.3,0.5-0.6,0.9-0.8s0.8-0.3,1.2-0.3
		C60.9,212.1,61.6,212.3,62.1,212.8z"/>
	<path fill="#363636" d="M66,213.1v3.9c0,0.3,0.1,0.5,0.2,0.7c0.1,0.1,0.4,0.2,0.7,0.2h0.8v0.9h-1c-0.6,0-1.1-0.1-1.4-0.4
		c-0.3-0.3-0.5-0.7-0.5-1.4v-3.9H64v-0.9h0.9v-1.7H66v1.7h1.7v0.9H66z"/>
	<path fill="#363636" d="M69.2,210.4h1.2l-1.2,2.7h-0.8L69.2,210.4z"/>
	<path fill="#363636" d="M72.6,218.7c-0.4-0.2-0.7-0.4-0.9-0.7c-0.2-0.3-0.4-0.7-0.4-1.1h1.1c0,0.3,0.2,0.6,0.5,0.8
		c0.3,0.2,0.6,0.3,1.1,0.3c0.4,0,0.7-0.1,1-0.3c0.2-0.2,0.4-0.4,0.4-0.7c0-0.3-0.1-0.5-0.4-0.6c-0.3-0.1-0.7-0.3-1.2-0.4
		c-0.5-0.1-0.9-0.3-1.2-0.4c-0.3-0.1-0.6-0.3-0.8-0.6c-0.2-0.3-0.3-0.6-0.3-1c0-0.3,0.1-0.6,0.3-0.9c0.2-0.3,0.5-0.5,0.9-0.7
		c0.4-0.2,0.8-0.2,1.3-0.2c0.7,0,1.3,0.2,1.8,0.6c0.4,0.4,0.7,0.9,0.7,1.5h-1.1c0-0.3-0.2-0.6-0.4-0.8s-0.6-0.3-1-0.3
		c-0.4,0-0.7,0.1-0.9,0.3c-0.2,0.2-0.3,0.4-0.3,0.7c0,0.2,0.1,0.4,0.2,0.5c0.1,0.1,0.3,0.3,0.5,0.3s0.5,0.2,0.9,0.3
		c0.5,0.1,0.9,0.3,1.2,0.4s0.5,0.3,0.8,0.6s0.3,0.6,0.3,1c0,0.4-0.1,0.7-0.3,1c-0.2,0.3-0.5,0.5-0.8,0.7c-0.4,0.2-0.8,0.2-1.3,0.2
		C73.4,218.9,73,218.8,72.6,218.7z"/>
	<path fill="#363636" d="M83,212.4c0.4-0.2,0.8-0.3,1.3-0.3v1.1H84c-1.2,0-1.8,0.7-1.8,2v3.6h-1.1v-6.6h1.1v1.1
		C82.4,212.9,82.6,212.6,83,212.4z"/>
	<path fill="#363636" d="M91.5,215.9h-5.3c0,0.6,0.3,1.2,0.7,1.5c0.4,0.4,0.9,0.5,1.5,0.5c0.5,0,0.9-0.1,1.2-0.3
		c0.3-0.2,0.5-0.5,0.7-0.9h1.2c-0.2,0.6-0.5,1.1-1.1,1.5c-0.5,0.4-1.2,0.6-2,0.6c-0.6,0-1.2-0.1-1.7-0.4c-0.5-0.3-0.9-0.7-1.2-1.2
		c-0.3-0.5-0.4-1.1-0.4-1.8s0.1-1.3,0.4-1.8s0.7-0.9,1.1-1.2c0.5-0.3,1.1-0.4,1.7-0.4c0.6,0,1.2,0.1,1.7,0.4
		c0.5,0.3,0.9,0.6,1.1,1.1c0.3,0.5,0.4,1,0.4,1.6C91.6,215.5,91.6,215.7,91.5,215.9z M90.2,214c-0.2-0.3-0.4-0.5-0.8-0.7
		c-0.3-0.2-0.7-0.2-1-0.2c-0.6,0-1,0.2-1.4,0.5c-0.4,0.4-0.6,0.8-0.7,1.5h4.2C90.4,214.6,90.3,214.3,90.2,214z"/>
	<path fill="#363636" d="M95.5,217.8l2-5.6h1.2l-2.6,6.6h-1.3l-2.6-6.6h1.2L95.5,217.8z"/>
	<path fill="#363636" d="M105.7,215.9h-5.3c0,0.6,0.3,1.2,0.7,1.5c0.4,0.4,0.9,0.5,1.5,0.5c0.5,0,0.9-0.1,1.2-0.3
		c0.3-0.2,0.5-0.5,0.7-0.9h1.2c-0.2,0.6-0.5,1.1-1.1,1.5c-0.5,0.4-1.2,0.6-2,0.6c-0.6,0-1.2-0.1-1.7-0.4c-0.5-0.3-0.9-0.7-1.2-1.2
		c-0.3-0.5-0.4-1.1-0.4-1.8s0.1-1.3,0.4-1.8s0.7-0.9,1.1-1.2c0.5-0.3,1.1-0.4,1.7-0.4c0.6,0,1.2,0.1,1.7,0.4
		c0.5,0.3,0.9,0.6,1.1,1.1c0.3,0.5,0.4,1,0.4,1.6C105.7,215.5,105.7,215.7,105.7,215.9z M104.3,214c-0.2-0.3-0.4-0.5-0.8-0.7
		c-0.3-0.2-0.7-0.2-1-0.2c-0.6,0-1,0.2-1.4,0.5c-0.4,0.4-0.6,0.8-0.7,1.5h4.2C104.6,214.6,104.5,214.3,104.3,214z"/>
	<path fill="#363636" d="M112.3,212.8c0.5,0.5,0.7,1.2,0.7,2.1v3.9H112v-3.7c0-0.7-0.2-1.2-0.5-1.5c-0.3-0.3-0.8-0.5-1.3-0.5
		c-0.6,0-1,0.2-1.4,0.5s-0.5,0.9-0.5,1.6v3.6h-1.1v-6.6h1.1v0.9c0.2-0.3,0.5-0.6,0.9-0.8s0.8-0.3,1.2-0.3
		C111.2,212.1,111.8,212.3,112.3,212.8z"/>
	<path fill="#363636" d="M120.7,212.2v6.6h-1.1v-1c-0.2,0.3-0.5,0.6-0.9,0.8c-0.4,0.2-0.8,0.3-1.2,0.3c-0.5,0-1-0.1-1.4-0.3
		c-0.4-0.2-0.7-0.5-1-1c-0.2-0.4-0.4-0.9-0.4-1.5v-3.9h1.1v3.7c0,0.6,0.2,1.1,0.5,1.5s0.8,0.5,1.3,0.5c0.6,0,1-0.2,1.4-0.5
		c0.3-0.4,0.5-0.9,0.5-1.6v-3.6H120.7z"/>
	<path fill="#363636" d="M128.5,215.9h-5.3c0,0.6,0.3,1.2,0.7,1.5c0.4,0.4,0.9,0.5,1.5,0.5c0.5,0,0.9-0.1,1.2-0.3
		c0.3-0.2,0.5-0.5,0.7-0.9h1.2c-0.2,0.6-0.5,1.1-1.1,1.5c-0.5,0.4-1.2,0.6-2,0.6c-0.6,0-1.2-0.1-1.7-0.4c-0.5-0.3-0.9-0.7-1.2-1.2
		c-0.3-0.5-0.4-1.1-0.4-1.8s0.1-1.3,0.4-1.8s0.7-0.9,1.1-1.2c0.5-0.3,1.1-0.4,1.7-0.4c0.6,0,1.2,0.1,1.7,0.4
		c0.5,0.3,0.9,0.6,1.1,1.1c0.3,0.5,0.4,1,0.4,1.6C128.5,215.5,128.5,215.7,128.5,215.9z M127.1,214c-0.2-0.3-0.4-0.5-0.8-0.7
		c-0.3-0.2-0.7-0.2-1-0.2c-0.6,0-1,0.2-1.4,0.5c-0.4,0.4-0.6,0.8-0.7,1.5h4.2C127.4,214.6,127.3,214.3,127.1,214z"/>
	<path fill="#363636" d="M138.3,217.6c-0.2,0.3-0.5,0.6-0.8,0.9c-0.4,0.2-0.8,0.4-1.3,0.4v1h-0.6v-1c-0.7-0.1-1.3-0.3-1.8-0.7
		c-0.5-0.4-0.7-0.9-0.7-1.5h1.2c0,0.3,0.2,0.6,0.4,0.9c0.2,0.2,0.5,0.4,0.9,0.5v-3c-0.5-0.1-1-0.3-1.3-0.4c-0.3-0.1-0.6-0.4-0.8-0.7
		c-0.2-0.3-0.3-0.7-0.3-1.2c0-0.6,0.2-1.2,0.7-1.6s1.1-0.7,1.8-0.7v-1h0.6v1c0.7,0.1,1.2,0.3,1.6,0.7s0.7,0.9,0.7,1.5h-1.2
		c0-0.3-0.2-0.5-0.4-0.8c-0.2-0.2-0.5-0.4-0.8-0.5v2.9c0.5,0.1,1,0.3,1.3,0.4c0.3,0.1,0.6,0.4,0.8,0.7c0.2,0.3,0.3,0.7,0.3,1.2
		C138.6,216.9,138.5,217.3,138.3,217.6z M134.4,213.5c0.2,0.2,0.6,0.4,1,0.5v-2.8c-0.4,0-0.7,0.2-1,0.4c-0.2,0.2-0.4,0.5-0.4,1
		C134.1,213,134.2,213.3,134.4,213.5z M137.1,217.5c0.2-0.3,0.4-0.6,0.4-0.9c0-0.4-0.1-0.7-0.4-0.9s-0.6-0.4-1-0.5v2.8
		C136.5,217.9,136.9,217.8,137.1,217.5z"/>
	<path fill="#363636" d="M142.7,215.9c0.6-0.5,1.1-1.1,1.5-1.6c0.4-0.6,0.6-1.1,0.6-1.7c0-0.5-0.1-0.9-0.4-1.2s-0.7-0.5-1.2-0.5
		c-0.5,0-1,0.2-1.3,0.5s-0.5,0.8-0.5,1.4h-1.1c0-0.9,0.3-1.6,0.8-2.1c0.5-0.5,1.2-0.7,2-0.7c0.8,0,1.5,0.2,2,0.7
		c0.5,0.5,0.7,1.1,0.7,1.9c0,0.7-0.2,1.3-0.6,1.9c-0.4,0.6-0.8,1.2-1.3,1.7s-1.1,1-1.9,1.7h4.1v0.9h-5.8v-0.8
		C141.3,217.1,142.1,216.4,142.7,215.9z"/>
	<path fill="#363636" d="M152.9,211.1h-4.2v2.7c0.2-0.3,0.5-0.5,0.8-0.6s0.7-0.2,1.2-0.2c0.7,0,1.2,0.1,1.6,0.4s0.7,0.6,0.9,1.1
		c0.2,0.4,0.3,0.9,0.3,1.4c0,0.6-0.1,1.1-0.3,1.5s-0.5,0.8-1,1.1s-1,0.4-1.7,0.4c-0.8,0-1.5-0.2-2-0.6c-0.5-0.4-0.8-1-0.9-1.7h1.1
		c0.1,0.5,0.3,0.8,0.7,1.1s0.8,0.4,1.3,0.4c0.6,0,1.1-0.2,1.4-0.6s0.5-0.9,0.5-1.5s-0.2-1.1-0.5-1.4s-0.8-0.5-1.4-0.5
		c-0.4,0-0.8,0.1-1.1,0.3c-0.3,0.2-0.5,0.5-0.7,0.8h-1v-4.9h5.2V211.1z"/>
	<path fill="#363636" d="M155.6,211.2c0.4-0.8,1.2-1.2,2.4-1.2c1.1,0,1.9,0.4,2.3,1.2c0.4,0.8,0.7,1.8,0.7,3.2
		c0,1.4-0.2,2.5-0.7,3.3c-0.4,0.8-1.2,1.2-2.3,1.2c-1.1,0-1.9-0.4-2.4-1.2c-0.4-0.8-0.7-1.9-0.7-3.3
		C154.9,213,155.1,211.9,155.6,211.2z M159.7,212.6c-0.1-0.5-0.3-0.9-0.6-1.2s-0.7-0.4-1.2-0.4c-0.5,0-1,0.1-1.2,0.4
		s-0.5,0.7-0.6,1.2c-0.1,0.5-0.1,1.1-0.1,1.8c0,0.7,0,1.3,0.1,1.8c0.1,0.5,0.3,0.9,0.6,1.2c0.3,0.3,0.7,0.4,1.2,0.4
		c0.5,0,0.9-0.1,1.2-0.4c0.3-0.3,0.5-0.7,0.6-1.2c0.1-0.5,0.1-1.1,0.1-1.8C159.9,213.7,159.8,213.1,159.7,212.6z"/>
	<path fill="#363636" d="M167.2,218.8l-3.4-3.8v3.8h-1.1v-8.4h1.1v3.9l3.5-3.9h1.4l-3.8,4.2l3.8,4.2H167.2z"/>
</g>
<g>
	<path fill="#3C61ED" d="M134.4,77.2c-0.2,0.3-0.4,0.5-0.7,0.7s-0.7,0.3-1.1,0.3V79H132v-0.8c-0.6-0.1-1.1-0.2-1.5-0.6
		c-0.4-0.3-0.6-0.8-0.6-1.3h1c0,0.3,0.1,0.5,0.3,0.7c0.2,0.2,0.4,0.3,0.8,0.4V75c-0.4-0.1-0.8-0.2-1.1-0.3s-0.5-0.3-0.7-0.6
		c-0.2-0.3-0.3-0.6-0.3-1c0-0.5,0.2-1,0.6-1.3c0.4-0.4,0.9-0.5,1.5-0.6v-0.8h0.5v0.8c0.6,0,1,0.2,1.4,0.5s0.5,0.7,0.6,1.2h-1
		c0-0.2-0.1-0.4-0.3-0.6c-0.2-0.2-0.4-0.3-0.7-0.4v2.4c0.4,0.1,0.8,0.2,1.1,0.3c0.3,0.1,0.5,0.3,0.7,0.6c0.2,0.3,0.3,0.6,0.3,1
		C134.6,76.6,134.5,76.9,134.4,77.2z M131.2,73.7c0.2,0.2,0.5,0.3,0.8,0.4v-2.3c-0.3,0-0.6,0.1-0.8,0.3c-0.2,0.2-0.3,0.5-0.3,0.8
		C130.9,73.3,131,73.6,131.2,73.7z M133.4,77.1c0.2-0.2,0.3-0.5,0.3-0.8c0-0.3-0.1-0.6-0.3-0.8c-0.2-0.2-0.5-0.3-0.9-0.4v2.4
		C132.9,77.4,133.2,77.3,133.4,77.1z"/>
	<path fill="#3C61ED" d="M140.8,71.7h-3.5V74c0.2-0.2,0.4-0.4,0.7-0.5s0.6-0.2,1-0.2c0.6,0,1,0.1,1.4,0.3c0.3,0.2,0.6,0.5,0.7,0.9
		c0.2,0.4,0.2,0.7,0.2,1.2c0,0.5-0.1,0.9-0.3,1.3c-0.2,0.4-0.5,0.7-0.8,0.9c-0.4,0.2-0.8,0.3-1.4,0.3c-0.7,0-1.3-0.2-1.7-0.5
		c-0.4-0.4-0.7-0.8-0.8-1.4h0.9c0.1,0.4,0.3,0.7,0.5,0.9c0.3,0.2,0.6,0.3,1.1,0.3c0.5,0,0.9-0.2,1.2-0.5c0.3-0.3,0.4-0.7,0.4-1.3
		c0-0.5-0.1-0.9-0.4-1.2c-0.3-0.3-0.7-0.4-1.2-0.4c-0.4,0-0.7,0.1-0.9,0.3c-0.3,0.2-0.5,0.4-0.6,0.7h-0.9v-4.1h4.4V71.7z"/>
	<path fill="#3C61ED" d="M143,71.8c0.4-0.6,1-1,2-1c0.9,0,1.6,0.3,1.9,1c0.4,0.6,0.6,1.5,0.6,2.7c0,1.2-0.2,2.1-0.6,2.7
		c-0.4,0.6-1,1-1.9,1c-0.9,0-1.6-0.3-2-1c-0.4-0.6-0.6-1.6-0.6-2.7C142.5,73.3,142.6,72.4,143,71.8z M146.5,73
		c-0.1-0.4-0.2-0.7-0.5-1c-0.2-0.2-0.6-0.4-1-0.4c-0.5,0-0.8,0.1-1,0.4c-0.2,0.2-0.4,0.6-0.5,1c-0.1,0.4-0.1,0.9-0.1,1.5
		c0,0.6,0,1.1,0.1,1.5c0.1,0.4,0.2,0.7,0.5,1c0.2,0.2,0.6,0.4,1,0.4c0.4,0,0.8-0.1,1-0.4c0.2-0.2,0.4-0.6,0.5-1
		c0.1-0.4,0.1-0.9,0.1-1.5C146.6,73.9,146.6,73.4,146.5,73z"/>
	<path fill="#3C61ED" d="M152.7,78.2l-2.9-3.2v3.2h-0.9v-7h0.9v3.2l2.9-3.2h1.2l-3.2,3.5l3.2,3.5H152.7z"/>
</g>
<g>
	<path fill="#3C61ED" d="M73.7,100.2c0.4-0.3,1-0.5,1.7-0.5c0.5,0,0.8,0.1,1.2,0.2s0.6,0.4,0.8,0.7s0.3,0.6,0.3,1
		c0,0.4-0.1,0.8-0.4,1.1c-0.2,0.3-0.5,0.5-0.9,0.6v0.1c0.4,0.1,0.8,0.3,1,0.6s0.4,0.7,0.4,1.2c0,0.4-0.1,0.7-0.3,1s-0.4,0.5-0.8,0.7
		c-0.3,0.2-0.8,0.3-1.2,0.3c-0.7,0-1.3-0.2-1.7-0.6c-0.5-0.4-0.7-0.9-0.8-1.6h0.9c0,0.4,0.2,0.7,0.5,1c0.3,0.3,0.7,0.4,1.1,0.4
		s0.8-0.1,1.1-0.4s0.4-0.6,0.4-0.9c0-0.5-0.2-0.9-0.5-1.1c-0.3-0.2-0.8-0.3-1.5-0.3h-0.2v-0.8h0.2c0.6,0,1.1-0.1,1.4-0.3
		s0.5-0.5,0.5-0.9c0-0.4-0.1-0.6-0.3-0.8c-0.2-0.2-0.6-0.3-1-0.3c-0.4,0-0.7,0.1-1,0.3c-0.3,0.2-0.4,0.5-0.4,0.9h-0.9
		C73,101.1,73.2,100.6,73.7,100.2z"/>
	<path fill="#3C61ED" d="M88.7,100.2v6.9h-0.9v-5.2l-2.3,5.2h-0.6l-2.3-5.2v5.2h-0.9v-6.9h1l2.6,5.7l2.6-5.7H88.7z"/>
	<path fill="#3C61ED" d="M91.3,106.8c-0.4-0.2-0.7-0.6-1-1c-0.2-0.4-0.4-0.9-0.4-1.5c0-0.6,0.1-1.1,0.4-1.5c0.2-0.4,0.6-0.8,1-1
		c0.4-0.2,0.9-0.3,1.4-0.3s1,0.1,1.4,0.3c0.4,0.2,0.8,0.6,1,1c0.2,0.4,0.4,0.9,0.4,1.5s-0.1,1.1-0.4,1.5s-0.6,0.8-1,1
		c-0.4,0.2-0.9,0.3-1.4,0.3C92.2,107.2,91.7,107.1,91.3,106.8z M93.6,106.2c0.3-0.2,0.5-0.4,0.7-0.7s0.3-0.7,0.3-1.1
		s-0.1-0.8-0.3-1.1s-0.4-0.5-0.7-0.7c-0.3-0.2-0.6-0.2-0.9-0.2c-0.3,0-0.6,0.1-0.9,0.2c-0.3,0.1-0.5,0.4-0.7,0.7s-0.2,0.7-0.2,1.1
		c0,0.4,0.1,0.8,0.2,1.1c0.2,0.3,0.4,0.5,0.7,0.7c0.3,0.1,0.6,0.2,0.9,0.2C93,106.4,93.3,106.3,93.6,106.2z"/>
	<path fill="#3C61ED" d="M101,102.1c0.4,0.4,0.6,1,0.6,1.7v3.2h-0.9V104c0-0.5-0.1-1-0.4-1.3c-0.3-0.3-0.6-0.4-1.1-0.4
		c-0.5,0-0.9,0.2-1.1,0.5s-0.4,0.7-0.4,1.3v3h-0.9v-5.5h0.9v0.8c0.2-0.3,0.4-0.5,0.7-0.6s0.7-0.2,1-0.2
		C100,101.5,100.6,101.7,101,102.1z"/>
	<path fill="#3C61ED" d="M104.2,102.4v3.2c0,0.3,0.1,0.5,0.2,0.6c0.1,0.1,0.3,0.2,0.6,0.2h0.7v0.8h-0.8c-0.5,0-0.9-0.1-1.1-0.3
		s-0.4-0.6-0.4-1.2v-3.2h-0.7v-0.8h0.7v-1.4h0.9v1.4h1.4v0.8H104.2z"/>
	<path fill="#3C61ED" d="M110.6,101.8c0.3,0.2,0.6,0.4,0.8,0.8c0.2,0.4,0.3,0.8,0.3,1.3v3.2h-0.9V104c0-0.5-0.1-1-0.4-1.3
		c-0.3-0.3-0.6-0.4-1.1-0.4c-0.5,0-0.9,0.2-1.1,0.5s-0.4,0.7-0.4,1.3v3h-0.9v-7.4h0.9v2.7c0.2-0.3,0.4-0.5,0.7-0.6
		c0.3-0.2,0.7-0.2,1.1-0.2C109.9,101.5,110.2,101.6,110.6,101.8z"/>
	<path fill="#3C61ED" d="M113.9,107c-0.3-0.1-0.6-0.3-0.8-0.6c-0.2-0.3-0.3-0.6-0.3-0.9h0.9c0,0.3,0.2,0.5,0.4,0.7
		c0.2,0.2,0.5,0.3,0.9,0.3c0.3,0,0.6-0.1,0.8-0.2s0.3-0.3,0.3-0.6c0-0.2-0.1-0.4-0.3-0.5c-0.2-0.1-0.5-0.2-1-0.3
		c-0.4-0.1-0.7-0.2-1-0.3c-0.3-0.1-0.5-0.3-0.7-0.5c-0.2-0.2-0.3-0.5-0.3-0.9c0-0.3,0.1-0.5,0.2-0.8c0.2-0.2,0.4-0.4,0.7-0.6
		s0.7-0.2,1-0.2c0.6,0,1.1,0.2,1.5,0.5c0.4,0.3,0.6,0.7,0.6,1.3h-0.9c0-0.3-0.1-0.5-0.3-0.7c-0.2-0.2-0.5-0.3-0.8-0.3
		c-0.3,0-0.6,0.1-0.8,0.2c-0.2,0.1-0.3,0.3-0.3,0.5c0,0.2,0.1,0.3,0.2,0.4c0.1,0.1,0.3,0.2,0.4,0.3c0.2,0.1,0.4,0.1,0.7,0.2
		c0.4,0.1,0.7,0.2,1,0.3s0.5,0.3,0.6,0.5c0.2,0.2,0.3,0.5,0.3,0.8c0,0.3-0.1,0.6-0.2,0.8c-0.2,0.2-0.4,0.4-0.7,0.6s-0.7,0.2-1,0.2
		C114.6,107.2,114.3,107.1,113.9,107z"/>
</g>
<g>
	<path fill="#3C61ED" d="M128.5,40.3c-0.2,0.3-0.4,0.5-0.7,0.7c-0.3,0.2-0.7,0.3-1.1,0.3v0.8h-0.5v-0.8c-0.6-0.1-1.1-0.2-1.5-0.6
		c-0.4-0.3-0.6-0.8-0.6-1.3h1c0,0.3,0.1,0.5,0.3,0.7c0.2,0.2,0.4,0.3,0.8,0.4v-2.5c-0.4-0.1-0.8-0.2-1.1-0.3s-0.5-0.3-0.7-0.6
		c-0.2-0.3-0.3-0.6-0.3-1c0-0.5,0.2-1,0.6-1.3c0.4-0.4,0.9-0.5,1.5-0.6v-0.8h0.5v0.8c0.6,0,1,0.2,1.4,0.5s0.5,0.7,0.6,1.2h-1
		c0-0.2-0.1-0.4-0.3-0.6c-0.2-0.2-0.4-0.3-0.7-0.4v2.4c0.4,0.1,0.8,0.2,1.1,0.3c0.3,0.1,0.5,0.3,0.7,0.6c0.2,0.3,0.3,0.6,0.3,1
		C128.7,39.7,128.6,40,128.5,40.3z M125.3,36.9c0.2,0.2,0.5,0.3,0.9,0.4V35c-0.3,0-0.6,0.1-0.8,0.3c-0.2,0.2-0.3,0.5-0.3,0.8
		C125,36.5,125.1,36.7,125.3,36.9z M127.5,40.2c0.2-0.2,0.3-0.5,0.3-0.8c0-0.3-0.1-0.6-0.3-0.8c-0.2-0.2-0.5-0.3-0.9-0.4v2.4
		C127,40.6,127.3,40.5,127.5,40.2z"/>
	<path fill="#3C61ED" d="M131,34.5c0.4-0.3,1-0.5,1.7-0.5c0.5,0,0.8,0.1,1.2,0.2s0.6,0.4,0.8,0.7s0.3,0.6,0.3,1
		c0,0.4-0.1,0.8-0.4,1.1c-0.2,0.3-0.5,0.5-0.9,0.6v0.1c0.4,0.1,0.8,0.3,1,0.6c0.3,0.3,0.4,0.7,0.4,1.2c0,0.4-0.1,0.7-0.3,1
		c-0.2,0.3-0.4,0.5-0.8,0.7c-0.3,0.2-0.8,0.3-1.2,0.3c-0.7,0-1.3-0.2-1.7-0.6s-0.7-0.9-0.8-1.6h0.9c0,0.4,0.2,0.7,0.5,1
		c0.3,0.3,0.7,0.4,1.1,0.4s0.8-0.1,1.1-0.4s0.4-0.6,0.4-0.9c0-0.5-0.2-0.9-0.5-1.1c-0.3-0.2-0.8-0.3-1.5-0.3h-0.2v-0.8h0.2
		c0.6,0,1.1-0.1,1.4-0.3s0.5-0.5,0.5-0.9c0-0.4-0.1-0.6-0.3-0.8c-0.2-0.2-0.6-0.3-1-0.3c-0.4,0-0.7,0.1-1,0.3
		c-0.3,0.2-0.4,0.5-0.4,0.9h-0.9C130.3,35.3,130.6,34.8,131,34.5z"/>
	<path fill="#3C61ED" d="M136.7,34.9c0.4-0.6,1-1,2-1c0.9,0,1.6,0.3,1.9,1c0.4,0.6,0.6,1.5,0.6,2.7c0,1.2-0.2,2.1-0.6,2.7
		c-0.4,0.6-1,1-1.9,1c-0.9,0-1.6-0.3-2-1c-0.4-0.6-0.6-1.6-0.6-2.7C136.2,36.5,136.4,35.6,136.7,34.9z M140.2,36.1
		c-0.1-0.4-0.2-0.7-0.5-1c-0.2-0.2-0.6-0.4-1-0.4c-0.5,0-0.8,0.1-1,0.4c-0.2,0.2-0.4,0.6-0.5,1c-0.1,0.4-0.1,0.9-0.1,1.5
		c0,0.6,0,1.1,0.1,1.5c0.1,0.4,0.2,0.7,0.5,1c0.2,0.2,0.6,0.4,1,0.4c0.4,0,0.8-0.1,1-0.4c0.2-0.2,0.4-0.6,0.5-1
		c0.1-0.4,0.1-0.9,0.1-1.5C140.3,37,140.3,36.6,140.2,36.1z"/>
	<path fill="#3C61ED" d="M143,34.9c0.4-0.6,1-1,2-1c0.9,0,1.6,0.3,2,1s0.6,1.5,0.6,2.7c0,1.2-0.2,2.1-0.6,2.7s-1,1-2,1
		c-0.9,0-1.6-0.3-2-1s-0.6-1.6-0.6-2.7C142.5,36.5,142.6,35.6,143,34.9z M146.5,36.1c-0.1-0.4-0.2-0.7-0.5-1c-0.2-0.2-0.6-0.4-1-0.4
		c-0.5,0-0.8,0.1-1,0.4c-0.2,0.2-0.4,0.6-0.5,1c-0.1,0.4-0.1,0.9-0.1,1.5c0,0.6,0,1.1,0.1,1.5c0.1,0.4,0.2,0.7,0.5,1
		c0.2,0.2,0.6,0.4,1,0.4c0.4,0,0.8-0.1,1-0.4c0.2-0.2,0.4-0.6,0.5-1c0.1-0.4,0.1-0.9,0.1-1.5C146.6,37,146.5,36.6,146.5,36.1z"/>
	<path fill="#3C61ED" d="M152.7,41.3l-2.9-3.2v3.2h-0.9v-7h0.9v3.2l2.9-3.2h1.1l-3.2,3.5l3.2,3.5H152.7z"/>
</g>
<g>
	<path fill="#363636" d="M43.2,171.4c-0.2-0.4-0.5-0.7-0.9-0.9c-0.4-0.2-0.8-0.3-1.4-0.3c-0.6,0-1.1,0.1-1.5,0.4
		c-0.4,0.3-0.8,0.6-1.1,1.1c-0.3,0.5-0.4,1-0.4,1.7c0,0.7,0.1,1.2,0.4,1.7c0.3,0.5,0.6,0.9,1.1,1.1c0.5,0.3,1,0.4,1.6,0.4
		c0.7,0,1.4-0.2,1.8-0.6c0.5-0.4,0.8-0.9,0.9-1.7h-3.4v-1.5h5.3v1.7c-0.1,0.7-0.4,1.3-0.8,1.9c-0.4,0.6-1,1-1.7,1.4
		c-0.7,0.4-1.4,0.5-2.3,0.5c-0.9,0-1.8-0.2-2.6-0.6c-0.8-0.4-1.4-1-1.8-1.8s-0.7-1.6-0.7-2.6c0-1,0.2-1.8,0.7-2.6
		c0.4-0.8,1-1.4,1.8-1.8c0.8-0.4,1.6-0.6,2.5-0.6c1.1,0,2.1,0.3,2.9,0.8c0.8,0.5,1.4,1.3,1.7,2.3H43.2z"/>
	<path fill="#363636" d="M50.1,170.7c0.4-0.2,0.9-0.4,1.4-0.4v2.1h-0.5c-0.6,0-1.1,0.1-1.4,0.4c-0.3,0.3-0.5,0.8-0.5,1.5v3.9h-2
		v-7.8h2v1.2C49.3,171.3,49.7,171,50.1,170.7z"/>
	<path fill="#363636" d="M59.9,175h-5.7c0,0.6,0.2,1,0.6,1.3c0.3,0.3,0.8,0.5,1.3,0.5c0.7,0,1.2-0.3,1.6-0.9h2.1
		c-0.2,0.7-0.7,1.4-1.3,1.8s-1.4,0.7-2.3,0.7c-0.7,0-1.4-0.2-2-0.5c-0.6-0.3-1.1-0.8-1.4-1.4c-0.3-0.6-0.5-1.3-0.5-2.1
		c0-0.8,0.2-1.5,0.5-2.1c0.3-0.6,0.8-1.1,1.4-1.4c0.6-0.3,1.3-0.5,2-0.5c0.7,0,1.4,0.2,2,0.5c0.6,0.3,1,0.8,1.4,1.4
		c0.3,0.6,0.5,1.3,0.5,2C60,174.5,60,174.7,59.9,175z M57.9,173.6c0-0.5-0.2-0.9-0.5-1.2c-0.4-0.3-0.8-0.5-1.3-0.5
		c-0.5,0-0.9,0.1-1.2,0.4c-0.3,0.3-0.5,0.7-0.6,1.2H57.9z"/>
	<path fill="#363636" d="M68.8,170.5L64,181.9h-2.1l1.7-3.9l-3.1-7.6h2.2l2,5.4l2-5.4H68.8z"/>
	<path fill="#363636" d="M73.4,172.1h-1.4v6.1h-2v-6.1h-0.9v-1.6h0.9v-0.4c0-1,0.3-1.7,0.8-2.1c0.5-0.4,1.4-0.7,2.5-0.6v1.7
		c-0.5,0-0.8,0.1-1,0.2s-0.3,0.5-0.3,0.9v0.3h1.4V172.1z"/>
	<path fill="#363636" d="M74.8,169.2c-0.2-0.2-0.3-0.5-0.3-0.8c0-0.3,0.1-0.6,0.3-0.8c0.2-0.2,0.5-0.3,0.9-0.3s0.6,0.1,0.9,0.3
		c0.2,0.2,0.3,0.5,0.3,0.8c0,0.3-0.1,0.6-0.3,0.8c-0.2,0.2-0.5,0.3-0.9,0.3S75.1,169.5,74.8,169.2z M76.7,170.5v7.8h-2v-7.8H76.7z"
		/>
	<path fill="#363636" d="M85.1,171.3c0.6,0.6,0.9,1.4,0.9,2.4v4.5h-2V174c0-0.6-0.2-1.1-0.5-1.4s-0.7-0.5-1.3-0.5
		c-0.5,0-1,0.2-1.3,0.5c-0.3,0.3-0.5,0.8-0.5,1.4v4.3h-2v-7.8h2v1c0.3-0.3,0.6-0.6,1-0.8c0.4-0.2,0.9-0.3,1.3-0.3
		C83.8,170.4,84.6,170.7,85.1,171.3z"/>
	<path fill="#363636" d="M87.8,172.3c0.3-0.6,0.8-1.1,1.4-1.4c0.6-0.3,1.2-0.5,2-0.5c1,0,1.8,0.2,2.4,0.7s1.1,1.2,1.3,2h-2.1
		c-0.1-0.3-0.3-0.6-0.6-0.8s-0.6-0.3-1-0.3c-0.6,0-1,0.2-1.3,0.6c-0.3,0.4-0.5,1-0.5,1.7c0,0.7,0.2,1.3,0.5,1.7
		c0.3,0.4,0.8,0.6,1.3,0.6c0.8,0,1.3-0.4,1.6-1.1h2.1c-0.2,0.8-0.6,1.5-1.3,2c-0.6,0.5-1.4,0.7-2.4,0.7c-0.7,0-1.4-0.2-2-0.5
		c-0.6-0.3-1-0.8-1.4-1.4c-0.3-0.6-0.5-1.3-0.5-2.1S87.5,172.9,87.8,172.3z"/>
	<path fill="#363636" d="M102.2,170.8c0.5,0.3,0.8,0.6,1.1,1.1c0.3,0.5,0.4,1.1,0.4,1.8v4.5h-2V174c0-0.6-0.2-1.1-0.5-1.4
		s-0.7-0.5-1.3-0.5c-0.5,0-1,0.2-1.3,0.5c-0.3,0.3-0.5,0.8-0.5,1.4v4.3h-2v-10.4h2v3.6c0.3-0.3,0.6-0.6,1-0.8s0.9-0.3,1.4-0.3
		C101.2,170.4,101.8,170.5,102.2,170.8z"/>
	<path fill="#363636" d="M114.9,176.4H111l-0.6,1.9h-2.1l3.5-9.8h2.3l3.5,9.8h-2.1L114.9,176.4z M114.3,174.8l-1.4-4.1l-1.4,4.1
		H114.3z"/>
	<path fill="#363636" d="M121.9,170.7c0.4-0.2,0.9-0.4,1.5-0.4c0.7,0,1.3,0.2,1.8,0.5c0.5,0.3,1,0.8,1.3,1.4
		c0.3,0.6,0.5,1.3,0.5,2.1c0,0.8-0.2,1.5-0.5,2.1c-0.3,0.6-0.7,1.1-1.3,1.4c-0.5,0.3-1.1,0.5-1.8,0.5c-0.6,0-1.1-0.1-1.5-0.3
		c-0.4-0.2-0.8-0.5-1.1-0.9v4.8h-2v-11.5h2v1.1C121.1,171.3,121.4,171,121.9,170.7z M124.7,173.1c-0.2-0.3-0.4-0.6-0.8-0.8
		c-0.3-0.2-0.7-0.3-1-0.3c-0.4,0-0.7,0.1-1,0.3c-0.3,0.2-0.6,0.4-0.8,0.8c-0.2,0.3-0.3,0.8-0.3,1.2s0.1,0.9,0.3,1.2
		c0.2,0.3,0.4,0.6,0.8,0.8c0.3,0.2,0.6,0.3,1,0.3c0.4,0,0.7-0.1,1-0.3s0.6-0.5,0.8-0.8c0.2-0.3,0.3-0.8,0.3-1.2
		C124.9,173.9,124.9,173.5,124.7,173.1z"/>
	<path fill="#363636" d="M131.4,170.7c0.4-0.2,0.9-0.4,1.5-0.4c0.7,0,1.3,0.2,1.8,0.5c0.5,0.3,1,0.8,1.3,1.4s0.5,1.3,0.5,2.1
		c0,0.8-0.2,1.5-0.5,2.1s-0.7,1.1-1.3,1.4c-0.5,0.3-1.1,0.5-1.8,0.5c-0.6,0-1.1-0.1-1.5-0.3c-0.4-0.2-0.8-0.5-1.1-0.9v4.8h-2v-11.5
		h2v1.1C130.6,171.3,130.9,171,131.4,170.7z M134.2,173.1c-0.2-0.3-0.4-0.6-0.8-0.8c-0.3-0.2-0.7-0.3-1-0.3c-0.4,0-0.7,0.1-1,0.3
		c-0.3,0.2-0.6,0.4-0.8,0.8c-0.2,0.3-0.3,0.8-0.3,1.2s0.1,0.9,0.3,1.2c0.2,0.3,0.4,0.6,0.8,0.8c0.3,0.2,0.6,0.3,1,0.3
		c0.4,0,0.7-0.1,1-0.3s0.6-0.5,0.8-0.8c0.2-0.3,0.3-0.8,0.3-1.2C134.4,173.9,134.3,173.5,134.2,173.1z"/>
	<path fill="#363636" d="M139.1,178c-0.5-0.2-0.9-0.5-1.2-0.9c-0.3-0.4-0.5-0.8-0.5-1.3h2c0,0.3,0.2,0.5,0.4,0.7s0.6,0.3,1,0.3
		c0.4,0,0.7-0.1,0.9-0.2s0.3-0.3,0.3-0.6c0-0.3-0.1-0.4-0.4-0.6c-0.3-0.1-0.7-0.3-1.2-0.4c-0.6-0.1-1.1-0.3-1.4-0.4s-0.7-0.4-1-0.7
		c-0.3-0.3-0.4-0.7-0.4-1.2c0-0.4,0.1-0.8,0.4-1.2c0.2-0.4,0.6-0.6,1.1-0.8c0.5-0.2,1-0.3,1.6-0.3c0.9,0,1.7,0.2,2.2,0.7
		c0.6,0.5,0.9,1.1,0.9,1.9h-1.9c0-0.3-0.2-0.6-0.4-0.7c-0.2-0.2-0.5-0.3-0.9-0.3c-0.4,0-0.6,0.1-0.8,0.2s-0.3,0.3-0.3,0.5
		c0,0.3,0.1,0.5,0.4,0.6c0.3,0.1,0.7,0.3,1.2,0.4c0.6,0.1,1,0.3,1.4,0.4c0.4,0.1,0.7,0.4,0.9,0.7s0.4,0.7,0.4,1.2
		c0,0.4-0.1,0.8-0.4,1.2s-0.6,0.6-1.1,0.8c-0.5,0.2-1,0.3-1.6,0.3C140.2,178.4,139.6,178.3,139.1,178z"/>
</g>
<line fill="none" stroke="#3C61ED" stroke-width="1.5" stroke-miterlimit="10" x1="35.8" y1="89.8" x2="154.1" y2="89.8"/>
<path fill="none" stroke="#3C61ED" stroke-width="1.5" stroke-miterlimit="10" d="M36.1,76.5c0,0,55.4-9.9,78.2-39.7"/>
</svg>
