<?xml version="1.0" encoding="utf-8"?>
<!-- Generator: Adobe Illustrator 26.3.1, SVG Export Plug-In . SVG Version: 6.00 Build 0)  -->
<svg version="1.1" baseProfile="tiny" id="Layer_1" xmlns="http://www.w3.org/2000/svg" xmlns:xlink="http://www.w3.org/1999/xlink"
	 x="0px" y="0px" width="260px" height="258.2px" viewBox="0 0 260 258.2" overflow="visible" xml:space="preserve">
<path fill="#F2EDED" d="M243.3,258.2H16.7c-9.2,0-16.7-7.5-16.7-16.7V16.7C0,7.5,7.5,0,16.7,0h226.5c9.2,0,16.7,7.5,16.7,16.7v224.8
	C260,250.7,252.5,258.2,243.3,258.2z"/>
<g>
	<path fill="#363636" d="M44.8,193.5v8.3h-1.1v-6.2l-2.8,6.2h-0.8l-2.8-6.2v6.2h-1.1v-8.3h1.2l3.1,6.9l3.1-6.9H44.8z"/>
	<path fill="#363636" d="M52.6,198.9h-5.3c0,0.6,0.3,1.2,0.7,1.5c0.4,0.4,0.9,0.5,1.5,0.5c0.5,0,0.9-0.1,1.2-0.3
		c0.3-0.2,0.5-0.5,0.7-0.9h1.2c-0.2,0.6-0.5,1.1-1.1,1.5c-0.5,0.4-1.2,0.6-2,0.6c-0.6,0-1.2-0.1-1.7-0.4c-0.5-0.3-0.9-0.7-1.2-1.2
		c-0.3-0.5-0.4-1.1-0.4-1.8s0.1-1.3,0.4-1.8s0.7-0.9,1.1-1.2c0.5-0.3,1.1-0.4,1.7-0.4c0.6,0,1.2,0.1,1.7,0.4
		c0.5,0.3,0.9,0.6,1.1,1.1c0.3,0.5,0.4,1,0.4,1.6C52.6,198.5,52.6,198.7,52.6,198.9z M51.2,197c-0.2-0.3-0.4-0.5-0.8-0.7
		c-0.3-0.2-0.7-0.2-1-0.2c-0.6,0-1,0.2-1.4,0.5c-0.4,0.4-0.6,0.8-0.7,1.5h4.2C51.5,197.6,51.4,197.3,51.2,197z"/>
	<path fill="#363636" d="M59.2,195.8c0.5,0.5,0.7,1.2,0.7,2.1v3.9h-1.1v-3.7c0-0.7-0.2-1.2-0.5-1.5c-0.3-0.3-0.8-0.5-1.3-0.5
		c-0.6,0-1,0.2-1.4,0.5s-0.5,0.9-0.5,1.6v3.6h-1.1v-6.6h1.1v0.9c0.2-0.3,0.5-0.6,0.9-0.8s0.8-0.3,1.2-0.3
		C58.1,195.1,58.7,195.3,59.2,195.8z"/>
	<path fill="#363636" d="M63.1,196.1v3.9c0,0.3,0.1,0.5,0.2,0.7c0.1,0.1,0.4,0.2,0.7,0.2h0.8v0.9h-1c-0.6,0-1.1-0.1-1.4-0.4
		c-0.3-0.3-0.5-0.7-0.5-1.4v-3.9h-0.9v-0.9H62v-1.7h1.1v1.7h1.7v0.9H63.1z"/>
	<path fill="#363636" d="M67.3,201.5c-0.5-0.3-0.9-0.7-1.2-1.2c-0.3-0.5-0.4-1.1-0.4-1.8c0-0.7,0.1-1.3,0.4-1.8s0.7-0.9,1.2-1.2
		c0.5-0.3,1.1-0.4,1.7-0.4s1.2,0.1,1.7,0.4c0.5,0.3,0.9,0.7,1.2,1.2s0.4,1.1,0.4,1.8s-0.1,1.3-0.5,1.8c-0.3,0.5-0.7,0.9-1.2,1.2
		c-0.5,0.3-1.1,0.4-1.7,0.4C68.4,201.9,67.8,201.8,67.3,201.5z M70.1,200.7c0.3-0.2,0.6-0.5,0.8-0.8s0.3-0.8,0.3-1.3
		c0-0.5-0.1-1-0.3-1.3c-0.2-0.4-0.5-0.6-0.8-0.8c-0.3-0.2-0.7-0.3-1.1-0.3c-0.4,0-0.8,0.1-1.1,0.3c-0.3,0.2-0.6,0.5-0.8,0.8
		c-0.2,0.4-0.3,0.8-0.3,1.3c0,0.5,0.1,1,0.3,1.4c0.2,0.4,0.5,0.6,0.8,0.8s0.7,0.3,1.1,0.3S69.8,200.9,70.1,200.7z"/>
	<path fill="#363636" d="M75.7,195.4c0.4-0.2,0.8-0.3,1.3-0.3v1.1h-0.3c-1.2,0-1.8,0.7-1.8,2v3.6h-1.1v-6.6h1.1v1.1
		C75.1,195.9,75.4,195.6,75.7,195.4z"/>
	<path fill="#363636" d="M78.3,193.9c-0.1-0.1-0.2-0.3-0.2-0.5s0.1-0.4,0.2-0.5s0.3-0.2,0.5-0.2c0.2,0,0.4,0.1,0.5,0.2
		c0.1,0.1,0.2,0.3,0.2,0.5s-0.1,0.4-0.2,0.5c-0.1,0.1-0.3,0.2-0.5,0.2C78.6,194.2,78.5,194.1,78.3,193.9z M79.4,195.2v6.6h-1.1v-6.6
		H79.4z"/>
	<path fill="#363636" d="M86.4,195.8c0.5,0.5,0.7,1.2,0.7,2.1v3.9h-1.1v-3.7c0-0.7-0.2-1.2-0.5-1.5c-0.3-0.3-0.8-0.5-1.3-0.5
		c-0.6,0-1,0.2-1.4,0.5s-0.5,0.9-0.5,1.6v3.6h-1.1v-6.6h1.1v0.9c0.2-0.3,0.5-0.6,0.9-0.8s0.8-0.3,1.2-0.3
		C85.2,195.1,85.9,195.3,86.4,195.8z"/>
	<path fill="#363636" d="M93.1,195.5c0.4,0.2,0.7,0.6,1,0.9v-1.2h1.1v6.7c0,0.6-0.1,1.1-0.4,1.6c-0.3,0.5-0.6,0.8-1.1,1.1
		c-0.5,0.3-1,0.4-1.7,0.4c-0.9,0-1.6-0.2-2.2-0.6c-0.6-0.4-0.9-1-1-1.7h1.1c0.1,0.4,0.4,0.7,0.7,1s0.8,0.4,1.4,0.4
		c0.6,0,1.1-0.2,1.5-0.6c0.4-0.4,0.6-0.9,0.6-1.6v-1.4c-0.2,0.4-0.5,0.7-1,1c-0.4,0.3-0.9,0.4-1.5,0.4c-0.6,0-1.1-0.1-1.6-0.4
		s-0.9-0.7-1.1-1.2c-0.3-0.5-0.4-1.1-0.4-1.8c0-0.7,0.1-1.3,0.4-1.8s0.6-0.9,1.1-1.2s1-0.4,1.6-0.4
		C92.2,195.1,92.7,195.2,93.1,195.5z M93.8,197.2c-0.2-0.4-0.5-0.7-0.8-0.8c-0.3-0.2-0.7-0.3-1.1-0.3c-0.4,0-0.8,0.1-1.1,0.3
		c-0.3,0.2-0.6,0.5-0.8,0.8c-0.2,0.4-0.3,0.8-0.3,1.3c0,0.5,0.1,0.9,0.3,1.3c0.2,0.4,0.5,0.7,0.8,0.9c0.3,0.2,0.7,0.3,1.1,0.3
		c0.4,0,0.8-0.1,1.1-0.3c0.3-0.2,0.6-0.5,0.8-0.9c0.2-0.4,0.3-0.8,0.3-1.3S94,197.6,93.8,197.2z"/>
	<path fill="#363636" d="M100.2,196.7c0.3-0.5,0.6-0.9,1.1-1.2s1-0.4,1.6-0.4c0.5,0,1,0.1,1.4,0.4c0.4,0.2,0.8,0.5,1,0.9v-3.5h1.1
		v8.9h-1.1v-1.2c-0.2,0.4-0.5,0.7-1,1c-0.4,0.3-0.9,0.4-1.5,0.4c-0.6,0-1.1-0.1-1.6-0.4s-0.9-0.7-1.1-1.2c-0.3-0.5-0.4-1.1-0.4-1.8
		C99.8,197.8,100,197.2,100.2,196.7z M105.1,197.2c-0.2-0.4-0.5-0.7-0.8-0.8c-0.3-0.2-0.7-0.3-1.1-0.3c-0.4,0-0.8,0.1-1.1,0.3
		c-0.3,0.2-0.6,0.5-0.8,0.8c-0.2,0.4-0.3,0.8-0.3,1.3c0,0.5,0.1,0.9,0.3,1.3c0.2,0.4,0.5,0.7,0.8,0.9c0.3,0.2,0.7,0.3,1.1,0.3
		c0.4,0,0.8-0.1,1.1-0.3c0.3-0.2,0.6-0.5,0.8-0.9c0.2-0.4,0.3-0.8,0.3-1.3S105.3,197.6,105.1,197.2z"/>
	<path fill="#363636" d="M114.3,198.9h-5.3c0,0.6,0.3,1.2,0.7,1.5c0.4,0.4,0.9,0.5,1.5,0.5c0.5,0,0.9-0.1,1.2-0.3
		c0.3-0.2,0.5-0.5,0.7-0.9h1.2c-0.2,0.6-0.5,1.1-1.1,1.5c-0.5,0.4-1.2,0.6-2,0.6c-0.6,0-1.2-0.1-1.7-0.4c-0.5-0.3-0.9-0.7-1.2-1.2
		c-0.3-0.5-0.4-1.1-0.4-1.8s0.1-1.3,0.4-1.8s0.7-0.9,1.1-1.2c0.5-0.3,1.1-0.4,1.7-0.4c0.6,0,1.2,0.1,1.7,0.4
		c0.5,0.3,0.9,0.6,1.1,1.1c0.3,0.5,0.4,1,0.4,1.6C114.4,198.5,114.3,198.7,114.3,198.9z M112.9,197c-0.2-0.3-0.4-0.5-0.8-0.7
		c-0.3-0.2-0.7-0.2-1-0.2c-0.6,0-1,0.2-1.4,0.5c-0.4,0.4-0.6,0.8-0.7,1.5h4.2C113.2,197.6,113.1,197.3,112.9,197z"/>
	<path fill="#363636" d="M116.8,201.7c-0.4-0.2-0.7-0.4-0.9-0.7c-0.2-0.3-0.4-0.7-0.4-1.1h1.1c0,0.3,0.2,0.6,0.5,0.8
		c0.3,0.2,0.6,0.3,1.1,0.3c0.4,0,0.7-0.1,1-0.3c0.2-0.2,0.4-0.4,0.4-0.7c0-0.3-0.1-0.5-0.4-0.6c-0.3-0.1-0.7-0.3-1.2-0.4
		c-0.5-0.1-0.9-0.3-1.2-0.4c-0.3-0.1-0.6-0.3-0.8-0.6c-0.2-0.3-0.3-0.6-0.3-1c0-0.3,0.1-0.6,0.3-0.9c0.2-0.3,0.5-0.5,0.9-0.7
		c0.4-0.2,0.8-0.2,1.3-0.2c0.7,0,1.3,0.2,1.8,0.6c0.4,0.4,0.7,0.9,0.7,1.5h-1.1c0-0.3-0.2-0.6-0.4-0.8s-0.6-0.3-1-0.3
		c-0.4,0-0.7,0.1-0.9,0.3c-0.2,0.2-0.3,0.4-0.3,0.7c0,0.2,0.1,0.4,0.2,0.5c0.1,0.1,0.3,0.3,0.5,0.3s0.5,0.2,0.9,0.3
		c0.5,0.1,0.9,0.3,1.2,0.4s0.5,0.3,0.8,0.6s0.3,0.6,0.3,1c0,0.4-0.1,0.7-0.3,1c-0.2,0.3-0.5,0.5-0.8,0.7c-0.4,0.2-0.8,0.2-1.3,0.2
		C117.6,201.9,117.2,201.8,116.8,201.7z"/>
	<path fill="#363636" d="M122.1,193.9c-0.1-0.1-0.2-0.3-0.2-0.5s0.1-0.4,0.2-0.5s0.3-0.2,0.5-0.2c0.2,0,0.4,0.1,0.5,0.2
		c0.1,0.1,0.2,0.3,0.2,0.5s-0.1,0.4-0.2,0.5c-0.1,0.1-0.3,0.2-0.5,0.2C122.4,194.2,122.2,194.1,122.1,193.9z M123.1,195.2v6.6h-1.1
		v-6.6H123.1z"/>
	<path fill="#363636" d="M129.2,195.5c0.4,0.2,0.7,0.6,1,0.9v-1.2h1.1v6.7c0,0.6-0.1,1.1-0.4,1.6c-0.3,0.5-0.6,0.8-1.1,1.1
		c-0.5,0.3-1,0.4-1.7,0.4c-0.9,0-1.6-0.2-2.2-0.6c-0.6-0.4-0.9-1-1-1.7h1.1c0.1,0.4,0.4,0.7,0.7,1s0.8,0.4,1.4,0.4
		c0.6,0,1.1-0.2,1.5-0.6c0.4-0.4,0.6-0.9,0.6-1.6v-1.4c-0.2,0.4-0.5,0.7-1,1c-0.4,0.3-0.9,0.4-1.5,0.4c-0.6,0-1.1-0.1-1.6-0.4
		s-0.9-0.7-1.1-1.2c-0.3-0.5-0.4-1.1-0.4-1.8c0-0.7,0.1-1.3,0.4-1.8s0.6-0.9,1.1-1.2s1-0.4,1.6-0.4
		C128.3,195.1,128.8,195.2,129.2,195.5z M129.9,197.2c-0.2-0.4-0.5-0.7-0.8-0.8c-0.3-0.2-0.7-0.3-1.1-0.3c-0.4,0-0.8,0.1-1.1,0.3
		c-0.3,0.2-0.6,0.5-0.8,0.8c-0.2,0.4-0.3,0.8-0.3,1.3c0,0.5,0.1,0.9,0.3,1.3c0.2,0.4,0.5,0.7,0.8,0.9c0.3,0.2,0.7,0.3,1.1,0.3
		c0.4,0,0.8-0.1,1.1-0.3c0.3-0.2,0.6-0.5,0.8-0.9c0.2-0.4,0.3-0.8,0.3-1.3S130.1,197.6,129.9,197.2z"/>
	<path fill="#363636" d="M138.3,195.8c0.5,0.5,0.7,1.2,0.7,2.1v3.9h-1.1v-3.7c0-0.7-0.2-1.2-0.5-1.5c-0.3-0.3-0.8-0.5-1.3-0.5
		c-0.6,0-1,0.2-1.4,0.5s-0.5,0.9-0.5,1.6v3.6h-1.1v-6.6h1.1v0.9c0.2-0.3,0.5-0.6,0.9-0.8s0.8-0.3,1.2-0.3
		C137.1,195.1,137.8,195.3,138.3,195.8z"/>
	<path fill="#363636" d="M145,201.7c-0.4-0.2-0.7-0.4-0.9-0.7c-0.2-0.3-0.4-0.7-0.4-1.1h1.1c0,0.3,0.2,0.6,0.5,0.8
		c0.3,0.2,0.6,0.3,1.1,0.3c0.4,0,0.7-0.1,1-0.3c0.2-0.2,0.4-0.4,0.4-0.7c0-0.3-0.1-0.5-0.4-0.6c-0.3-0.1-0.7-0.3-1.2-0.4
		c-0.5-0.1-0.9-0.3-1.2-0.4c-0.3-0.1-0.6-0.3-0.8-0.6c-0.2-0.3-0.3-0.6-0.3-1c0-0.3,0.1-0.6,0.3-0.9c0.2-0.3,0.5-0.5,0.9-0.7
		c0.4-0.2,0.8-0.2,1.3-0.2c0.7,0,1.3,0.2,1.8,0.6c0.4,0.4,0.7,0.9,0.7,1.5h-1.1c0-0.3-0.2-0.6-0.4-0.8s-0.6-0.3-1-0.3
		c-0.4,0-0.7,0.1-0.9,0.3s-0.3,0.4-0.3,0.7c0,0.2,0.1,0.4,0.2,0.5c0.1,0.1,0.3,0.3,0.5,0.3s0.5,0.2,0.9,0.3c0.5,0.1,0.9,0.3,1.2,0.4
		s0.5,0.3,0.8,0.6s0.3,0.6,0.3,1c0,0.4-0.1,0.7-0.3,1c-0.2,0.3-0.5,0.5-0.8,0.7c-0.4,0.2-0.8,0.2-1.3,0.2
		C145.8,201.9,145.4,201.8,145,201.7z"/>
	<path fill="#363636" d="M151.6,196.1v3.9c0,0.3,0.1,0.5,0.2,0.7c0.1,0.1,0.4,0.2,0.7,0.2h0.8v0.9h-1c-0.6,0-1.1-0.1-1.4-0.4
		c-0.3-0.3-0.5-0.7-0.5-1.4v-3.9h-0.9v-0.9h0.9v-1.7h1.1v1.7h1.7v0.9H151.6z"/>
	<path fill="#363636" d="M160.5,195.2v6.6h-1.1v-1c-0.2,0.3-0.5,0.6-0.9,0.8c-0.4,0.2-0.8,0.3-1.2,0.3c-0.5,0-1-0.1-1.4-0.3
		s-0.7-0.5-1-1s-0.4-0.9-0.4-1.5v-3.9h1.1v3.7c0,0.6,0.2,1.1,0.5,1.5s0.8,0.5,1.3,0.5c0.6,0,1-0.2,1.4-0.5c0.3-0.4,0.5-0.9,0.5-1.6
		v-3.6H160.5z"/>
	<path fill="#363636" d="M162.3,196.7c0.3-0.5,0.6-0.9,1.1-1.2c0.5-0.3,1-0.4,1.6-0.4c0.5,0,1,0.1,1.4,0.4c0.4,0.2,0.8,0.5,1,0.9
		v-3.5h1.1v8.9h-1.1v-1.2c-0.2,0.4-0.5,0.7-1,1c-0.4,0.3-0.9,0.4-1.5,0.4c-0.6,0-1.1-0.1-1.6-0.4c-0.5-0.3-0.9-0.7-1.1-1.2
		c-0.3-0.5-0.4-1.1-0.4-1.8C161.9,197.8,162,197.2,162.3,196.7z M167.2,197.2c-0.2-0.4-0.5-0.7-0.8-0.8c-0.3-0.2-0.7-0.3-1.1-0.3
		s-0.8,0.1-1.1,0.3c-0.3,0.2-0.6,0.5-0.8,0.8c-0.2,0.4-0.3,0.8-0.3,1.3c0,0.5,0.1,0.9,0.3,1.3s0.5,0.7,0.8,0.9
		c0.3,0.2,0.7,0.3,1.1,0.3s0.8-0.1,1.1-0.3c0.3-0.2,0.6-0.5,0.8-0.9c0.2-0.4,0.3-0.8,0.3-1.3S167.4,197.6,167.2,197.2z"/>
	<path fill="#363636" d="M176.4,198.9h-5.3c0,0.6,0.3,1.2,0.7,1.5c0.4,0.4,0.9,0.5,1.5,0.5c0.5,0,0.9-0.1,1.2-0.3
		c0.3-0.2,0.5-0.5,0.7-0.9h1.2c-0.2,0.6-0.5,1.1-1.1,1.5c-0.5,0.4-1.2,0.6-2,0.6c-0.6,0-1.2-0.1-1.7-0.4c-0.5-0.3-0.9-0.7-1.2-1.2
		c-0.3-0.5-0.4-1.1-0.4-1.8s0.1-1.3,0.4-1.8c0.3-0.5,0.7-0.9,1.1-1.2c0.5-0.3,1.1-0.4,1.7-0.4c0.6,0,1.2,0.1,1.7,0.4
		c0.5,0.3,0.8,0.6,1.1,1.1c0.3,0.5,0.4,1,0.4,1.6C176.4,198.5,176.4,198.7,176.4,198.9z M175,197c-0.2-0.3-0.4-0.5-0.8-0.7
		c-0.3-0.2-0.7-0.2-1-0.2c-0.6,0-1,0.2-1.4,0.5c-0.4,0.4-0.6,0.8-0.7,1.5h4.2C175.3,197.6,175.2,197.3,175,197z"/>
	<path fill="#363636" d="M183,195.8c0.5,0.5,0.7,1.2,0.7,2.1v3.9h-1.1v-3.7c0-0.7-0.2-1.2-0.5-1.5c-0.3-0.3-0.8-0.5-1.3-0.5
		c-0.6,0-1,0.2-1.4,0.5s-0.5,0.9-0.5,1.6v3.6h-1.1v-6.6h1.1v0.9c0.2-0.3,0.5-0.6,0.9-0.8s0.8-0.3,1.2-0.3
		C181.9,195.1,182.5,195.3,183,195.8z"/>
	<path fill="#363636" d="M186.9,196.1v3.9c0,0.3,0.1,0.5,0.2,0.7s0.4,0.2,0.7,0.2h0.8v0.9h-1c-0.6,0-1.1-0.1-1.4-0.4
		c-0.3-0.3-0.5-0.7-0.5-1.4v-3.9h-0.9v-0.9h0.9v-1.7h1.1v1.7h1.7v0.9H186.9z"/>
	<path fill="#363636" d="M190.9,201.7c-0.4-0.2-0.7-0.4-0.9-0.7c-0.2-0.3-0.4-0.7-0.4-1.1h1.1c0,0.3,0.2,0.6,0.5,0.8
		c0.3,0.2,0.6,0.3,1.1,0.3c0.4,0,0.7-0.1,1-0.3c0.2-0.2,0.4-0.4,0.4-0.7c0-0.3-0.1-0.5-0.4-0.6c-0.3-0.1-0.7-0.3-1.2-0.4
		c-0.5-0.1-0.9-0.3-1.2-0.4c-0.3-0.1-0.6-0.3-0.8-0.6c-0.2-0.3-0.3-0.6-0.3-1c0-0.3,0.1-0.6,0.3-0.9c0.2-0.3,0.5-0.5,0.9-0.7
		c0.4-0.2,0.8-0.2,1.3-0.2c0.7,0,1.3,0.2,1.8,0.6s0.7,0.9,0.7,1.5h-1.1c0-0.3-0.2-0.6-0.4-0.8s-0.6-0.3-1-0.3
		c-0.4,0-0.7,0.1-0.9,0.3c-0.2,0.2-0.3,0.4-0.3,0.7c0,0.2,0.1,0.4,0.2,0.5c0.1,0.1,0.3,0.3,0.5,0.3c0.2,0.1,0.5,0.2,0.9,0.3
		c0.5,0.1,0.9,0.3,1.2,0.4s0.6,0.3,0.8,0.6s0.3,0.6,0.3,1c0,0.4-0.1,0.7-0.3,1c-0.2,0.3-0.5,0.5-0.8,0.7c-0.4,0.2-0.8,0.2-1.3,0.2
		C191.7,201.9,191.3,201.8,190.9,201.7z"/>
	<path fill="#363636" d="M199.4,193.9c-0.1-0.1-0.2-0.3-0.2-0.5s0.1-0.4,0.2-0.5s0.3-0.2,0.5-0.2c0.2,0,0.4,0.1,0.5,0.2
		s0.2,0.3,0.2,0.5s-0.1,0.4-0.2,0.5c-0.1,0.1-0.3,0.2-0.5,0.2C199.7,194.2,199.6,194.1,199.4,193.9z M200.5,195.2v6.6h-1.1v-6.6
		H200.5z"/>
	<path fill="#363636" d="M207.5,195.8c0.5,0.5,0.7,1.2,0.7,2.1v3.9h-1.1v-3.7c0-0.7-0.2-1.2-0.5-1.5c-0.3-0.3-0.8-0.5-1.3-0.5
		c-0.6,0-1,0.2-1.4,0.5c-0.3,0.4-0.5,0.9-0.5,1.6v3.6h-1.1v-6.6h1.1v0.9c0.2-0.3,0.5-0.6,0.9-0.8c0.4-0.2,0.8-0.3,1.2-0.3
		C206.3,195.1,207,195.3,207.5,195.8z"/>
	<path fill="#363636" d="M37.5,218.5c-0.5-0.3-0.9-0.7-1.2-1.2c-0.3-0.5-0.4-1.1-0.4-1.8c0-0.7,0.1-1.3,0.4-1.8s0.7-0.9,1.2-1.2
		c0.5-0.3,1.1-0.4,1.7-0.4s1.2,0.1,1.7,0.4c0.5,0.3,0.9,0.7,1.2,1.2s0.4,1.1,0.4,1.8s-0.1,1.3-0.5,1.8c-0.3,0.5-0.7,0.9-1.2,1.2
		c-0.5,0.3-1.1,0.4-1.7,0.4C38.6,218.9,38,218.8,37.5,218.5z M40.3,217.7c0.3-0.2,0.6-0.5,0.8-0.8s0.3-0.8,0.3-1.3
		c0-0.5-0.1-1-0.3-1.3c-0.2-0.4-0.5-0.6-0.8-0.8c-0.3-0.2-0.7-0.3-1.1-0.3c-0.4,0-0.8,0.1-1.1,0.3c-0.3,0.2-0.6,0.5-0.8,0.8
		c-0.2,0.4-0.3,0.8-0.3,1.3c0,0.5,0.1,1,0.3,1.4c0.2,0.4,0.5,0.6,0.8,0.8s0.7,0.3,1.1,0.3S39.9,217.9,40.3,217.7z"/>
	<path fill="#363636" d="M49.1,212.8c0.5,0.5,0.7,1.2,0.7,2.1v3.9h-1.1v-3.7c0-0.7-0.2-1.2-0.5-1.5c-0.3-0.3-0.8-0.5-1.3-0.5
		c-0.6,0-1,0.2-1.4,0.5s-0.5,0.9-0.5,1.6v3.6H44v-6.6h1.1v0.9c0.2-0.3,0.5-0.6,0.9-0.8s0.8-0.3,1.2-0.3
		C48,212.1,48.6,212.3,49.1,212.8z"/>
	<path fill="#363636" d="M57.6,215.9h-5.3c0,0.6,0.3,1.2,0.7,1.5c0.4,0.4,0.9,0.5,1.5,0.5c0.5,0,0.9-0.1,1.2-0.3
		c0.3-0.2,0.5-0.5,0.7-0.9h1.2c-0.2,0.6-0.5,1.1-1.1,1.5c-0.5,0.4-1.2,0.6-2,0.6c-0.6,0-1.2-0.1-1.7-0.4c-0.5-0.3-0.9-0.7-1.2-1.2
		c-0.3-0.5-0.4-1.1-0.4-1.8s0.1-1.3,0.4-1.8s0.7-0.9,1.1-1.2c0.5-0.3,1.1-0.4,1.7-0.4c0.6,0,1.2,0.1,1.7,0.4
		c0.5,0.3,0.9,0.6,1.1,1.1c0.3,0.5,0.4,1,0.4,1.6C57.7,215.5,57.7,215.7,57.6,215.9z M56.3,214c-0.2-0.3-0.4-0.5-0.8-0.7
		c-0.3-0.2-0.7-0.2-1-0.2c-0.6,0-1,0.2-1.4,0.5c-0.4,0.4-0.6,0.8-0.7,1.5h4.2C56.5,214.6,56.5,214.3,56.3,214z"/>
	<path fill="#363636" d="M63.7,213.9v0.9h-4.8v-0.9H63.7z"/>
	<path fill="#363636" d="M67.8,215.9c0.6-0.5,1.1-1.1,1.5-1.6c0.4-0.6,0.6-1.1,0.6-1.7c0-0.5-0.1-0.9-0.4-1.2s-0.7-0.5-1.2-0.5
		c-0.5,0-1,0.2-1.3,0.5c-0.3,0.3-0.5,0.8-0.5,1.4h-1.1c0-0.9,0.3-1.6,0.8-2.1c0.5-0.5,1.2-0.7,2-0.7c0.8,0,1.5,0.2,2,0.7
		c0.5,0.5,0.7,1.1,0.7,1.9c0,0.7-0.2,1.3-0.6,1.9s-0.8,1.2-1.4,1.7s-1.1,1-1.9,1.7h4.1v0.9h-5.8v-0.8
		C66.4,217.1,67.2,216.4,67.8,215.9z"/>
	<path fill="#363636" d="M77.2,213.9v0.9h-4.8v-0.9H77.2z"/>
	<path fill="#363636" d="M80.4,218.5c-0.5-0.3-0.9-0.7-1.2-1.2c-0.3-0.5-0.4-1.1-0.4-1.8c0-0.7,0.1-1.3,0.4-1.8s0.7-0.9,1.2-1.2
		c0.5-0.3,1.1-0.4,1.7-0.4s1.2,0.1,1.7,0.4c0.5,0.3,0.9,0.7,1.2,1.2s0.4,1.1,0.4,1.8s-0.1,1.3-0.5,1.8c-0.3,0.5-0.7,0.9-1.2,1.2
		c-0.5,0.3-1.1,0.4-1.7,0.4C81.5,218.9,80.9,218.8,80.4,218.5z M83.2,217.7c0.3-0.2,0.6-0.5,0.8-0.8s0.3-0.8,0.3-1.3
		c0-0.5-0.1-1-0.3-1.3c-0.2-0.4-0.5-0.6-0.8-0.8c-0.3-0.2-0.7-0.3-1.1-0.3c-0.4,0-0.8,0.1-1.1,0.3c-0.3,0.2-0.6,0.5-0.8,0.8
		c-0.2,0.4-0.3,0.8-0.3,1.3c0,0.5,0.1,1,0.3,1.4c0.2,0.4,0.5,0.6,0.8,0.8s0.7,0.3,1.1,0.3S82.9,217.9,83.2,217.7z"/>
	<path fill="#363636" d="M92.1,212.8c0.5,0.5,0.7,1.2,0.7,2.1v3.9h-1.1v-3.7c0-0.7-0.2-1.2-0.5-1.5c-0.3-0.3-0.8-0.5-1.3-0.5
		c-0.6,0-1,0.2-1.4,0.5s-0.5,0.9-0.5,1.6v3.6h-1.1v-6.6H88v0.9c0.2-0.3,0.5-0.6,0.9-0.8s0.8-0.3,1.2-0.3
		C90.9,212.1,91.6,212.3,92.1,212.8z"/>
	<path fill="#363636" d="M100.6,215.9h-5.3c0,0.6,0.3,1.2,0.7,1.5c0.4,0.4,0.9,0.5,1.5,0.5c0.5,0,0.9-0.1,1.2-0.3
		c0.3-0.2,0.5-0.5,0.7-0.9h1.2c-0.2,0.6-0.5,1.1-1.1,1.5c-0.5,0.4-1.2,0.6-2,0.6c-0.6,0-1.2-0.1-1.7-0.4c-0.5-0.3-0.9-0.7-1.2-1.2
		c-0.3-0.5-0.4-1.1-0.4-1.8s0.1-1.3,0.4-1.8s0.7-0.9,1.1-1.2c0.5-0.3,1.1-0.4,1.7-0.4c0.6,0,1.2,0.1,1.7,0.4
		c0.5,0.3,0.9,0.6,1.1,1.1c0.3,0.5,0.4,1,0.4,1.6C100.6,215.5,100.6,215.7,100.6,215.9z M99.2,214c-0.2-0.3-0.4-0.5-0.8-0.7
		c-0.3-0.2-0.7-0.2-1-0.2c-0.6,0-1,0.2-1.4,0.5c-0.4,0.4-0.6,0.8-0.7,1.5h4.2C99.5,214.6,99.4,214.3,99.2,214z"/>
	<path fill="#363636" d="M106.3,209.9v8.9h-1.1v-8.9H106.3z"/>
	<path fill="#363636" d="M108.2,210.9c-0.1-0.1-0.2-0.3-0.2-0.5s0.1-0.4,0.2-0.5s0.3-0.2,0.5-0.2c0.2,0,0.4,0.1,0.5,0.2
		c0.1,0.1,0.2,0.3,0.2,0.5s-0.1,0.4-0.2,0.5c-0.1,0.1-0.3,0.2-0.5,0.2C108.6,211.2,108.4,211.1,108.2,210.9z M109.3,212.2v6.6h-1.1
		v-6.6H109.3z"/>
	<path fill="#363636" d="M113.6,217.8l2-5.6h1.2l-2.6,6.6h-1.3l-2.6-6.6h1.2L113.6,217.8z"/>
	<path fill="#363636" d="M123.8,215.9h-5.3c0,0.6,0.3,1.2,0.7,1.5c0.4,0.4,0.9,0.5,1.5,0.5c0.5,0,0.9-0.1,1.2-0.3
		c0.3-0.2,0.5-0.5,0.7-0.9h1.2c-0.2,0.6-0.5,1.1-1.1,1.5c-0.5,0.4-1.2,0.6-2,0.6c-0.6,0-1.2-0.1-1.7-0.4c-0.5-0.3-0.9-0.7-1.2-1.2
		c-0.3-0.5-0.4-1.1-0.4-1.8s0.1-1.3,0.4-1.8s0.7-0.9,1.1-1.2c0.5-0.3,1.1-0.4,1.7-0.4c0.6,0,1.2,0.1,1.7,0.4
		c0.5,0.3,0.9,0.6,1.1,1.1c0.3,0.5,0.4,1,0.4,1.6C123.9,215.5,123.9,215.7,123.8,215.9z M122.5,214c-0.2-0.3-0.4-0.5-0.8-0.7
		c-0.3-0.2-0.7-0.2-1-0.2c-0.6,0-1,0.2-1.4,0.5c-0.4,0.4-0.6,0.8-0.7,1.5h4.2C122.8,214.6,122.7,214.3,122.5,214z"/>
	<path fill="#363636" d="M129.5,218.7c-0.4-0.2-0.7-0.4-0.9-0.7c-0.2-0.3-0.4-0.7-0.4-1.1h1.1c0,0.3,0.2,0.6,0.5,0.8
		c0.3,0.2,0.6,0.3,1.1,0.3c0.4,0,0.7-0.1,1-0.3c0.2-0.2,0.4-0.4,0.4-0.7c0-0.3-0.1-0.5-0.4-0.6c-0.3-0.1-0.7-0.3-1.2-0.4
		c-0.5-0.1-0.9-0.3-1.2-0.4c-0.3-0.1-0.6-0.3-0.8-0.6c-0.2-0.3-0.3-0.6-0.3-1c0-0.3,0.1-0.6,0.3-0.9c0.2-0.3,0.5-0.5,0.9-0.7
		c0.4-0.2,0.8-0.2,1.3-0.2c0.7,0,1.3,0.2,1.8,0.6s0.7,0.9,0.7,1.5h-1.1c0-0.3-0.2-0.6-0.4-0.8s-0.6-0.3-1-0.3
		c-0.4,0-0.7,0.1-0.9,0.3c-0.2,0.2-0.3,0.4-0.3,0.7c0,0.2,0.1,0.4,0.2,0.5c0.1,0.1,0.3,0.3,0.5,0.3s0.5,0.2,0.9,0.3
		c0.5,0.1,0.9,0.3,1.2,0.4s0.5,0.3,0.8,0.6s0.3,0.6,0.3,1c0,0.4-0.1,0.7-0.3,1c-0.2,0.3-0.5,0.5-0.8,0.7c-0.4,0.2-0.8,0.2-1.3,0.2
		C130.3,218.9,129.9,218.8,129.5,218.7z"/>
	<path fill="#363636" d="M140.8,215.9h-5.3c0,0.6,0.3,1.2,0.7,1.5c0.4,0.4,0.9,0.5,1.5,0.5c0.5,0,0.9-0.1,1.2-0.3
		c0.3-0.2,0.5-0.5,0.7-0.9h1.2c-0.2,0.6-0.5,1.1-1.1,1.5c-0.5,0.4-1.2,0.6-2,0.6c-0.6,0-1.2-0.1-1.7-0.4c-0.5-0.3-0.9-0.7-1.2-1.2
		c-0.3-0.5-0.4-1.1-0.4-1.8s0.1-1.3,0.4-1.8c0.3-0.5,0.7-0.9,1.1-1.2c0.5-0.3,1.1-0.4,1.7-0.4c0.6,0,1.2,0.1,1.7,0.4
		c0.5,0.3,0.8,0.6,1.1,1.1c0.3,0.5,0.4,1,0.4,1.6C140.8,215.5,140.8,215.7,140.8,215.9z M139.4,214c-0.2-0.3-0.4-0.5-0.8-0.7
		c-0.3-0.2-0.7-0.2-1-0.2c-0.6,0-1,0.2-1.4,0.5c-0.4,0.4-0.6,0.8-0.7,1.5h4.2C139.7,214.6,139.6,214.3,139.4,214z"/>
	<path fill="#363636" d="M143.2,218.7c-0.4-0.2-0.7-0.4-0.9-0.7c-0.2-0.3-0.4-0.7-0.4-1.1h1.1c0,0.3,0.2,0.6,0.5,0.8
		s0.6,0.3,1.1,0.3c0.4,0,0.7-0.1,1-0.3c0.2-0.2,0.4-0.4,0.4-0.7c0-0.3-0.1-0.5-0.4-0.6c-0.3-0.1-0.7-0.3-1.2-0.4
		c-0.5-0.1-0.9-0.3-1.2-0.4c-0.3-0.1-0.6-0.3-0.8-0.6c-0.2-0.3-0.3-0.6-0.3-1c0-0.3,0.1-0.6,0.3-0.9c0.2-0.3,0.5-0.5,0.9-0.7
		c0.4-0.2,0.8-0.2,1.3-0.2c0.7,0,1.3,0.2,1.8,0.6s0.7,0.9,0.7,1.5h-1.1c0-0.3-0.2-0.6-0.4-0.8s-0.6-0.3-1-0.3
		c-0.4,0-0.7,0.1-0.9,0.3c-0.2,0.2-0.3,0.4-0.3,0.7c0,0.2,0.1,0.4,0.2,0.5c0.1,0.1,0.3,0.3,0.5,0.3s0.5,0.2,0.9,0.3
		c0.5,0.1,0.9,0.3,1.2,0.4s0.5,0.3,0.8,0.6s0.3,0.6,0.3,1c0,0.4-0.1,0.7-0.3,1c-0.2,0.3-0.5,0.5-0.8,0.7c-0.4,0.2-0.8,0.2-1.3,0.2
		C144.1,218.9,143.6,218.8,143.2,218.7z"/>
	<path fill="#363636" d="M149.5,218.7c-0.4-0.2-0.7-0.4-0.9-0.7c-0.2-0.3-0.4-0.7-0.4-1.1h1.1c0,0.3,0.2,0.6,0.5,0.8
		s0.6,0.3,1.1,0.3c0.4,0,0.7-0.1,1-0.3c0.2-0.2,0.4-0.4,0.4-0.7c0-0.3-0.1-0.5-0.4-0.6c-0.3-0.1-0.7-0.3-1.2-0.4
		c-0.5-0.1-0.9-0.3-1.2-0.4c-0.3-0.1-0.6-0.3-0.8-0.6c-0.2-0.3-0.3-0.6-0.3-1c0-0.3,0.1-0.6,0.3-0.9c0.2-0.3,0.5-0.5,0.9-0.7
		c0.4-0.2,0.8-0.2,1.3-0.2c0.7,0,1.3,0.2,1.8,0.6s0.7,0.9,0.7,1.5h-1.1c0-0.3-0.2-0.6-0.4-0.8s-0.6-0.3-1-0.3
		c-0.4,0-0.7,0.1-0.9,0.3c-0.2,0.2-0.3,0.4-0.3,0.7c0,0.2,0.1,0.4,0.2,0.5c0.1,0.1,0.3,0.3,0.5,0.3s0.5,0.2,0.9,0.3
		c0.5,0.1,0.9,0.3,1.2,0.4s0.5,0.3,0.8,0.6s0.3,0.6,0.3,1c0,0.4-0.1,0.7-0.3,1c-0.2,0.3-0.5,0.5-0.8,0.7c-0.4,0.2-0.8,0.2-1.3,0.2
		C150.3,218.9,149.9,218.8,149.5,218.7z"/>
	<path fill="#363636" d="M154.8,210.9c-0.1-0.1-0.2-0.3-0.2-0.5s0.1-0.4,0.2-0.5c0.1-0.1,0.3-0.2,0.5-0.2c0.2,0,0.4,0.1,0.5,0.2
		s0.2,0.3,0.2,0.5s-0.1,0.4-0.2,0.5c-0.1,0.1-0.3,0.2-0.5,0.2C155.1,211.2,154.9,211.1,154.8,210.9z M155.8,212.2v6.6h-1.1v-6.6
		H155.8z"/>
	<path fill="#363636" d="M158.9,218.5c-0.5-0.3-0.9-0.7-1.2-1.2c-0.3-0.5-0.4-1.1-0.4-1.8c0-0.7,0.1-1.3,0.4-1.8s0.7-0.9,1.2-1.2
		c0.5-0.3,1.1-0.4,1.7-0.4s1.2,0.1,1.7,0.4c0.5,0.3,0.9,0.7,1.2,1.2s0.4,1.1,0.4,1.8s-0.1,1.3-0.5,1.8c-0.3,0.5-0.7,0.9-1.2,1.2
		c-0.5,0.3-1.1,0.4-1.7,0.4C160,218.9,159.4,218.8,158.9,218.5z M161.7,217.7c0.3-0.2,0.6-0.5,0.8-0.8s0.3-0.8,0.3-1.3
		c0-0.5-0.1-1-0.3-1.3c-0.2-0.4-0.5-0.6-0.8-0.8c-0.3-0.2-0.7-0.3-1.1-0.3c-0.4,0-0.8,0.1-1.1,0.3c-0.3,0.2-0.6,0.5-0.8,0.8
		c-0.2,0.4-0.3,0.8-0.3,1.3c0,0.5,0.1,1,0.3,1.4c0.2,0.4,0.5,0.6,0.8,0.8s0.7,0.3,1.1,0.3C161,217.9,161.3,217.9,161.7,217.7z"/>
	<path fill="#363636" d="M170.5,212.8c0.5,0.5,0.7,1.2,0.7,2.1v3.9h-1.1v-3.7c0-0.7-0.2-1.2-0.5-1.5c-0.3-0.3-0.8-0.5-1.3-0.5
		c-0.6,0-1,0.2-1.4,0.5s-0.5,0.9-0.5,1.6v3.6h-1.1v-6.6h1.1v0.9c0.2-0.3,0.5-0.6,0.9-0.8s0.8-0.3,1.2-0.3
		C169.4,212.1,170,212.3,170.5,212.8z"/>
	<path fill="#363636" d="M174,218.7c-0.4-0.2-0.7-0.4-0.9-0.7c-0.2-0.3-0.4-0.7-0.4-1.1h1.1c0,0.3,0.2,0.6,0.5,0.8
		c0.3,0.2,0.6,0.3,1.1,0.3c0.4,0,0.7-0.1,1-0.3c0.2-0.2,0.4-0.4,0.4-0.7c0-0.3-0.1-0.5-0.4-0.6c-0.3-0.1-0.7-0.3-1.2-0.4
		c-0.5-0.1-0.9-0.3-1.2-0.4c-0.3-0.1-0.6-0.3-0.8-0.6c-0.2-0.3-0.3-0.6-0.3-1c0-0.3,0.1-0.6,0.3-0.9c0.2-0.3,0.5-0.5,0.9-0.7
		c0.4-0.2,0.8-0.2,1.3-0.2c0.7,0,1.3,0.2,1.8,0.6c0.4,0.4,0.7,0.9,0.7,1.5h-1.1c0-0.3-0.2-0.6-0.4-0.8s-0.6-0.3-1-0.3
		c-0.4,0-0.7,0.1-0.9,0.3s-0.3,0.4-0.3,0.7c0,0.2,0.1,0.4,0.2,0.5c0.1,0.1,0.3,0.3,0.5,0.3s0.5,0.2,0.9,0.3c0.5,0.1,0.9,0.3,1.2,0.4
		s0.5,0.3,0.8,0.6s0.3,0.6,0.3,1c0,0.4-0.1,0.7-0.3,1c-0.2,0.3-0.5,0.5-0.8,0.7c-0.4,0.2-0.8,0.2-1.3,0.2
		C174.9,218.9,174.4,218.8,174,218.7z"/>
</g>
<g>
	<path fill="#363636" d="M43,168.5v1.6h-2.6v8.2h-2v-8.2h-2.6v-1.6H43z"/>
	<path fill="#363636" d="M50.4,170.8c0.5,0.3,0.8,0.6,1.1,1.1c0.3,0.5,0.4,1.1,0.4,1.8v4.5h-2V174c0-0.6-0.2-1.1-0.5-1.4
		s-0.7-0.5-1.3-0.5c-0.5,0-1,0.2-1.3,0.5c-0.3,0.3-0.5,0.8-0.5,1.4v4.3h-2v-10.4h2v3.6c0.3-0.3,0.6-0.6,1-0.8s0.9-0.3,1.4-0.3
		C49.4,170.4,49.9,170.5,50.4,170.8z"/>
	<path fill="#363636" d="M53.8,169.2c-0.2-0.2-0.3-0.5-0.3-0.8c0-0.3,0.1-0.6,0.3-0.8c0.2-0.2,0.5-0.3,0.9-0.3s0.6,0.1,0.9,0.3
		c0.2,0.2,0.3,0.5,0.3,0.8c0,0.3-0.1,0.6-0.3,0.8c-0.2,0.2-0.5,0.3-0.9,0.3S54.1,169.5,53.8,169.2z M55.7,170.5v7.8h-2v-7.8H55.7z"
		/>
	<path fill="#363636" d="M64.1,171.3c0.6,0.6,0.9,1.4,0.9,2.4v4.5h-2V174c0-0.6-0.2-1.1-0.5-1.4s-0.7-0.5-1.3-0.5
		c-0.5,0-1,0.2-1.3,0.5c-0.3,0.3-0.5,0.8-0.5,1.4v4.3h-2v-7.8h2v1c0.3-0.3,0.6-0.6,1-0.8c0.4-0.2,0.9-0.3,1.3-0.3
		C62.8,170.4,63.6,170.7,64.1,171.3z"/>
	<path fill="#363636" d="M71.4,178.3l-2.6-3.3v3.3h-2v-10.4h2v5.9l2.6-3.3h2.5l-3.4,3.9l3.4,3.9H71.4z"/>
	<path fill="#363636" d="M78.6,172.1h-1.4v6.1h-2v-6.1h-0.9v-1.6h0.9v-0.4c0-1,0.3-1.7,0.8-2.1c0.5-0.4,1.4-0.7,2.5-0.6v1.7
		c-0.5,0-0.8,0.1-1,0.2s-0.3,0.5-0.3,0.9v0.3h1.4V172.1z"/>
	<path fill="#363636" d="M87.2,170.5v7.8h-2v-1c-0.3,0.3-0.6,0.6-1,0.8c-0.4,0.2-0.8,0.3-1.3,0.3c-0.6,0-1.1-0.1-1.6-0.4
		c-0.5-0.3-0.8-0.6-1.1-1.1s-0.4-1.1-0.4-1.8v-4.5h2v4.3c0,0.6,0.2,1.1,0.5,1.4c0.3,0.3,0.7,0.5,1.3,0.5c0.5,0,1-0.2,1.3-0.5
		c0.3-0.3,0.5-0.8,0.5-1.4v-4.3H87.2z"/>
	<path fill="#363636" d="M91.1,167.9v10.4h-2v-10.4H91.1z"/>
</g>
<rect x="36.3" y="36.8" fill="none" stroke="#363636" stroke-width="1.5" stroke-miterlimit="10" width="101.4" height="60.2"/>
<g>
	<g>
		<path fill="#363636" d="M103.2,75.8c0.7,1,0.8,2,0.2,3c-0.1,0.1-0.1,0.3,0,0.4c0.6,1,0.6,2-0.1,2.9c0.2,0.5,0.4,1,0.5,1.4
			c0.1,0.7-0.1,1.3-0.6,1.9c-0.1,0.1-0.1,0.4-0.1,0.5c0.5,1,0.7,2.1,0.7,3.2c0,2.1,0,4.2,0,6.3c0,1.5-0.6,2-2,2
			c-9.9,0-19.8,0-29.7,0c-1.3,0-1.9-0.5-1.9-1.8c0-2.4,0-4.9,0.1-7.3c0-0.8,0.4-1.6,0.6-2.4c0-0.1,0.1-0.4,0-0.5
			c-0.9-1.3-0.9-2-0.1-3.3c-0.8-1-0.8-2.1,0-3.2c-0.8-1.1-0.8-2.1,0-3.2c-0.8-1-0.8-2.1,0-3.2c-0.8-1-0.8-2.1-0.1-3
			c-0.2-0.7-0.4-1.3-0.4-1.9c0-0.3,0.1-0.7,0.3-1c0.2-0.3,0.2-0.6,0-0.9c-0.7-1.2-0.3-2.6,0.9-3.2c0.3-0.2,0.4-0.3,0.4-0.7
			c0.4-6.6,5.5-12.4,12-13.8c8.1-1.6,15.9,3.2,17.9,11.3c0.2,0.8,0.3,1.7,0.4,2.6c0,0.2,0.1,0.4,0.3,0.5c1.5,1,1.8,2.2,0.8,3.8
			c0.8,1,0.8,2.1,0,3.2c0.6,0.7,0.8,1.6,0.4,2.4c-0.3,0.6-0.3,1,0,1.6C104,74.3,103.8,75.1,103.2,75.8z M78.1,63.8
			c0.4,1.7-0.3,2.8-1.9,3.2c-0.1,0-0.3,0.3-0.3,0.4c0,1.2,0,2.4,0.2,3.5c0.9,4.2,3.4,7.1,7.5,8.4c4.1,1.3,7.9,0.4,11.1-2.5
			c2.8-2.6,3.8-5.9,3.5-9.7c-2-0.6-2.6-1.4-2.3-3.2c-0.5-0.5-1.1-0.9-1.4-1.5c-0.3-0.6-0.2-1.3-0.3-1.8c-0.4-0.4-0.9-0.8-1.2-1.2
			c-0.2-0.2-0.3-0.4-0.6-0.4c-1,0-1.9,0-2.9,0c-0.8,0-1.4-0.2-2-0.7c-0.1-0.1-0.3-0.2-0.4-0.3c-0.8,0.8-1.7,1.1-2.8,1.1
			c-0.8,0-1.7,0-2.5,0c-0.2,0-0.4,0.1-0.5,0.2c-0.3,0.6-0.8,1.1-1.5,1.3C80,62.3,79.6,63,78.1,63.8z M81.4,83c0-0.9,0-1.6,0-2.4
			c0-0.4-0.1-0.6-0.5-0.7c-3-1.6-5-4.1-6.1-7.3c-0.7-2-0.7-4-0.7-6c0-0.9,0.2-1.2,1.2-1.2c0.1,0,0.2,0,0.3,0c0.6,0,0.9-0.3,0.9-0.8
			c0-0.4-0.3-0.7-0.8-0.8c-0.5-0.1-0.8-0.4-0.8-0.9c0-0.4,0.4-0.7,0.9-0.7c0.4,0,0.9,0,1.3,0c0.6,0,0.9-0.2,1-0.7
			c0-0.5-0.2-0.8-0.8-0.9c-0.5-0.1-0.8-0.3-0.8-0.8c0-0.5,0.3-0.7,0.9-0.8c0.5,0,1,0,1.5,0c0.5,0,0.8-0.2,0.9-0.7
			c0.1-0.7,0.3-0.9,1.1-0.9c1.2,0,2.4,0,3.6,0c1,0,1.6-0.5,1.8-1.5c0.1-0.6,0.3-0.9,0.8-0.9c0.5,0,0.7,0.4,0.8,0.9
			c0.2,1,0.7,1.5,1.8,1.5c1.2,0,2.4,0,3.6,0c0.6,0,0.8,0.2,1,0.8c0.1,0.6,0.3,0.8,1,0.8c0.5,0,1,0,1.5,0c0.4,0,0.7,0.3,0.7,0.7
			c0,0.4-0.2,0.7-0.6,0.8c-0.1,0-0.1,0-0.2,0c-0.5,0.1-0.7,0.4-0.7,0.9c0,0.5,0.4,0.7,0.9,0.7c0.4,0,0.9,0,1.3,0c0.6,0,1,0.3,1,0.7
			c0,0.5-0.2,0.8-0.9,0.9c-0.4,0.1-0.7,0.4-0.7,0.8c0,0.4,0.4,0.7,0.8,0.8c0.2,0,0.5,0,0.7,0c0.5,0,0.9,0.3,0.9,0.8
			c0,1.7,0.1,3.5-0.3,5.2c-0.9,3.8-3.1,6.6-6.5,8.5c-0.1,0.1-0.3,0.2-0.3,0.4c0,0.9,0,1.8,0,2.7c1.7,0,3.4,0,5,0
			c1.5,0,2.9,0.3,4.1,1.3c0.1,0.1,0.2,0.1,0.2,0.1c0.4-0.7,0.2-1.2-0.5-1.3c-0.5-0.1-0.8-0.3-0.8-0.8c0-0.5,0.3-0.7,0.8-0.8
			c0.5-0.1,0.8-0.3,0.8-0.8c0-0.5-0.3-0.7-0.7-0.8c-0.5-0.1-0.8-0.3-0.8-0.8c0-0.5,0.3-0.7,0.8-0.8c0.5-0.1,0.8-0.3,0.8-0.8
			c0-0.5-0.3-0.7-0.7-0.8c-0.5-0.1-0.8-0.3-0.8-0.8c0-0.5,0.3-0.7,0.8-0.8c0.4-0.1,0.7-0.3,0.7-0.8c0-0.5-0.3-0.7-0.7-0.8
			c-0.5-0.1-0.8-0.3-0.8-0.8c0-0.5,0.3-0.8,0.8-0.8c0.5-0.1,0.7-0.3,0.7-0.8c0-0.5-0.3-0.7-0.7-0.8c-0.5-0.1-0.8-0.3-0.8-0.8
			c0-0.5,0.3-0.8,0.8-0.8c0.5-0.1,0.7-0.3,0.7-0.8c0-0.5-0.3-0.7-0.8-0.8c-0.5-0.1-0.8-0.3-0.8-0.8c0-0.5,0.3-0.8,0.8-0.8
			c0.5,0,0.7-0.3,0.7-0.8c0-0.5-0.3-0.7-0.8-0.8c-0.6-0.1-0.8-0.3-0.8-0.9c0-0.7-0.1-1.4-0.2-2c-1.4-9.2-11.9-14.4-20-9.7
			c-4.5,2.6-6.8,6.5-7,11.7c0,0.7-0.2,0.9-0.8,1c-0.5,0.1-0.8,0.3-0.8,0.8c0,0.5,0.3,0.7,0.8,0.8c0.5,0.1,0.8,0.3,0.8,0.8
			c0,0.5-0.3,0.7-0.7,0.8c-0.5,0.1-0.8,0.3-0.8,0.8c0,0.5,0.3,0.7,0.8,0.8c0.5,0.1,0.7,0.3,0.7,0.8c0,0.5-0.3,0.7-0.8,0.8
			c-0.5,0.1-0.8,0.3-0.8,0.8c0,0.5,0.3,0.8,0.8,0.8c0.5,0.1,0.8,0.3,0.8,0.8c0,0.5-0.3,0.8-0.8,0.8c-0.5,0-0.7,0.3-0.7,0.8
			c0,0.5,0.3,0.7,0.7,0.8c0.2,0,0.4,0,0.5,0.1c0.2,0.2,0.4,0.5,0.4,0.8c0,0.4-0.4,0.6-0.8,0.7c-0.4,0.1-0.7,0.3-0.8,0.8
			c0,0.5,0.2,0.7,0.7,0.8c0.5,0.1,0.8,0.3,0.9,0.8c0,0.6-0.3,0.7-0.8,0.9c-0.3,0.1-0.6,0.3-0.7,0.6c-0.1,0.2,0.1,0.6,0.2,0.8
			c0.1,0.1,0.4,0.2,0.6,0.2c0.4,0.1,0.7,0.3,0.7,0.8c0,0.5-0.2,0.7-0.7,0.8c-0.1,0-0.2,0-0.3,0.1c-0.6,0.2-0.7,0.8-0.2,1.3
			c0.2-0.1,0.3-0.2,0.5-0.4c1.1-0.8,2.3-1,3.6-1C77.9,83,79.6,83,81.4,83z M76.6,95.8c7,0,13.9,0,20.8,0c0-1.1,0-2.3,0-3.4
			c-0.1-2.1-1.8-3.8-3.9-3.8c-4.3,0-8.6,0-13,0c-1.8,0-3.5,1.3-3.8,3C76.6,93.1,76.6,94.4,76.6,95.8z M94.2,87.1c0-0.8,0-1.6,0-2.4
			c-0.7,0-1.3,0-1.9,0c-1,0-1.2-0.2-1.2-1.2c0-0.9,0-1.7,0-2.7c-2.7,0.9-5.3,0.8-8,0c0,0.9,0,1.7,0,2.6c0,1.1-0.2,1.3-1.3,1.3
			c-0.6,0-1.2,0-1.9,0c0,0.9,0,1.6,0,2.4C84.6,87.1,89.4,87.1,94.2,87.1z M78.2,84.7c-0.8,0-1.6,0-2.3,0c-2.3,0-4.1,1.7-4.1,4.1
			c0,2.2,0,4.3,0,6.5c0,0.2,0,0.4,0,0.6c1.1,0,2.1,0,3.2,0c0-1,0-1.9,0-2.9c0-2.3,0.9-4,2.9-5.2c0.1-0.1,0.3-0.2,0.3-0.4
			C78.2,86.5,78.2,85.6,78.2,84.7z M102.2,95.8c0-0.1,0-0.2,0-0.3c0-2.4,0-4.8,0-7.1c0-1.7-1.2-3.2-2.9-3.6
			c-1.1-0.2-2.3-0.2-3.5-0.3c0,1,0,1.9,0,2.8c0,0.1,0.1,0.2,0.2,0.3c2.1,1.2,3,3.1,2.9,5.5c0,0.9,0,1.8,0,2.6
			C100.1,95.8,101.1,95.8,102.2,95.8z"/>
	</g>
</g>
<g>
	<g>
		<path fill="#363636" d="M130.1,90.5c0.3,0,0.6,0,0.8,0c0.4,0,0.8,0,1.1,0.1c1,0.2,1.6,1.1,1.7,2.1c0,0.6,0,1.1,0,1.7
			c0,0.3-0.2,0.5-0.5,0.5c-3.3,0-6.7,0-10,0c-0.3,0-0.5-0.2-0.5-0.5c0-0.6,0-1.2,0-1.8c0-1.1,0.9-2,2-2c0.5,0,0.9,0,1.4,0
			c0.1,0,0.1,0,0.2,0c0-0.3,0-0.6,0-0.9c0,0-0.1-0.1-0.1-0.1c-0.9-0.6-1.5-1.4-1.7-2.4c-0.1-0.3-0.1-0.6-0.1-0.9c0-0.6,0-1.1,0-1.7
			c0.1-1.4,0.7-2.5,2-3.3c0.1-0.1,0.2-0.1,0.2-0.3c0.1-0.7,0.7-1.1,1.5-1.2c1,0,2,0.3,2.8,0.9c1.2,0.9,1.9,2.1,1.9,3.7
			c0,0.6,0,1.2,0,1.9c0,0.3-0.1,0.4-0.3,0.4c-0.1,0-0.2,0-0.4,0c0,0.5-0.2,0.9-0.4,1.4c-0.3,0.7-0.8,1.2-1.4,1.6
			c-0.1,0.1-0.1,0.1-0.1,0.2C130.1,89.9,130.1,90.2,130.1,90.5z M125.4,82.6c0.2,0,0.3,0,0.4,0.2c0,0.1,0,0.2-0.1,0.3
			c-0.1,0-0.2,0-0.2,0c-0.1,0-0.1-0.1-0.1-0.2c-0.2,0.4-0.4,0.9-0.4,1.3c0,0.7,0,1.4,0,2.1c0,0.6,0.2,1.2,0.5,1.7
			c0,0.1,0.1,0.1,0.1,0.2c0-0.2,0-0.3,0-0.5c0-0.8,0.5-1.3,1.3-1.3c0.2,0,0.4,0,0.6,0c0.3,0,0.6,0,0.7,0.2c0.2-0.1,0.4-0.2,0.6-0.2
			c0.3,0,0.6,0,1,0c0.6,0,1.1,0.5,1.1,1.1c0,0.2,0,0.4,0,0.7c0.1,0,0.1,0,0.1,0c0.4-0.5,0.6-1.1,0.6-1.7c0-0.8,0-1.5,0-2.3
			c0-1.1-0.9-2-2.1-2.1c-0.6,0-1.2,0-1.9,0c-0.4,0-0.5,0.1-0.6,0.5c0,0.1-0.1,0.2-0.2,0.2c-0.1,0-0.2-0.1-0.2-0.2c0-0.1,0-0.1,0-0.2
			c0-0.3,0-0.5,0-0.8C126,81.8,125.7,82.2,125.4,82.6z M125.3,91c0,1.1,0,2.2,0,3.4c0.9,0,1.7,0,2.6,0c0-0.2,0-0.4-0.1-0.5
			c-0.5-0.9-1-1.8-1.5-2.8c0,0-0.1-0.1-0.1-0.1C125.9,91,125.6,91,125.3,91z M131,94.3c0-1.1,0-2.2,0-3.4c-0.3,0-0.6,0-0.9,0
			c-0.1,0-0.2,0-0.2,0.1c-0.5,0.9-0.9,1.8-1.4,2.6c-0.1,0.2-0.1,0.4-0.1,0.6C129.3,94.3,130.1,94.3,131,94.3z M132.2,85.9
			C132.2,85.9,132.2,85.9,132.2,85.9c0-0.7,0-1.2,0-1.8c0-0.7-0.2-1.3-0.5-1.9c-0.9-1.5-2.2-2.2-3.9-2.1c-0.4,0-0.8,0.3-0.9,0.7
			c0,0.3,0,0.5,0,0.8c0.2,0,0.4-0.1,0.5-0.1c0.6,0,1.3,0,1.9,0c1.4,0,2.6,1.1,2.6,2.6c0,0.5,0,1,0,1.6c0,0.1,0,0.1,0,0.2
			C132.1,85.9,132.1,85.9,132.2,85.9z M128.1,87.8c-0.2,0.2-0.4,0.3-0.7,0.3c-0.3,0-0.7,0-1,0c-0.2,0-0.3,0.1-0.4,0.3
			c-0.1,0.2-0.1,0.4,0.1,0.5c1.2,0.9,2.9,0.9,4,0c0.1,0,0.1-0.1,0.1-0.2c0-0.3-0.2-0.5-0.5-0.5c-0.3,0-0.6,0-0.9,0
			C128.6,88.1,128.3,88.1,128.1,87.8z M124.8,91c0,0-0.1,0-0.1,0c-0.8,0-1.5,0.8-1.6,1.6c0,0.6,0,1.1,0,1.7c0,0,0,0.1,0,0.1
			c0.6,0,1.1,0,1.7,0C124.8,93.2,124.8,92.1,124.8,91z M131.5,94.3c0.6,0,1.1,0,1.7,0c0,0,0,0,0-0.1c0-0.5,0-1,0-1.6
			c0-0.7-0.3-1.2-0.9-1.5c-0.2-0.1-0.5-0.2-0.8-0.2C131.5,92.1,131.5,93.2,131.5,94.3z M128.1,93.4c0.4-0.8,0.8-1.5,1.2-2.3
			c-0.2,0-0.3,0-0.5,0.1c-0.2,0.1-0.4,0-0.6-0.1c-0.1-0.1-0.2-0.1-0.3,0c-0.2,0.1-0.4,0.1-0.6,0.1c-0.1,0-0.3-0.1-0.5-0.1
			C127.3,91.9,127.7,92.6,128.1,93.4z M126.7,89.7c0,0.3,0,0.5,0,0.7c0,0,0.1,0.1,0.1,0.1c0.2,0,0.4,0.1,0.6,0.1
			c0.2,0,0.3,0,0.4-0.1c0.2-0.1,0.4-0.1,0.6,0c0.1,0,0.2,0.1,0.3,0.1c0.3,0,0.5-0.1,0.8-0.1c0,0,0.1-0.1,0.1-0.1c0-0.2,0-0.5,0-0.7
			C128.6,90.1,127.7,90.1,126.7,89.7z M126,87.7c0.3-0.2,0.6-0.1,0.9-0.1c0.2,0,0.4,0,0.6,0c0.2,0,0.4-0.2,0.4-0.4
			c0-0.2-0.1-0.4-0.4-0.4c-0.3,0-0.6,0-0.9,0C126.2,86.9,125.9,87.3,126,87.7z M130.3,87.7c0.1-0.4-0.2-0.7-0.6-0.8
			c-0.3,0-0.6,0-0.9,0c-0.2,0-0.4,0.2-0.4,0.4c0,0.2,0.2,0.3,0.4,0.3c0.3,0,0.5,0,0.8,0C129.8,87.6,130,87.7,130.3,87.7z"/>
		<path fill="#363636" d="M126,82.1c0.1,0,0.2,0.1,0.2,0.2c0,0.1-0.1,0.2-0.2,0.2c-0.1,0-0.2-0.1-0.2-0.2
			C125.7,82.2,125.9,82.1,126,82.1z"/>
		<path fill="#363636" d="M126.2,83.3c-0.1,0-0.2-0.1-0.2-0.2c0-0.1,0.1-0.2,0.2-0.2c0.1,0,0.2,0.1,0.2,0.2
			C126.5,83.2,126.4,83.3,126.2,83.3z"/>
		<path fill="#363636" d="M127.9,91.7c0-0.1,0.1-0.2,0.2-0.2c0.1,0,0.2,0.1,0.2,0.2c0,0.1-0.1,0.3-0.2,0.2
			C128,91.9,127.9,91.8,127.9,91.7z"/>
	</g>
</g>
</svg>
