<?xml version="1.0" encoding="utf-8"?>
<!-- Generator: Adobe Illustrator 26.3.1, SVG Export Plug-In . SVG Version: 6.00 Build 0)  -->
<svg version="1.1" baseProfile="tiny" id="Layer_1" xmlns="http://www.w3.org/2000/svg" xmlns:xlink="http://www.w3.org/1999/xlink"
	 x="0px" y="0px" width="260px" height="258.2px" viewBox="0 0 260 258.2" overflow="visible" xml:space="preserve">
<path fill="#F2EDED" d="M243.3,258.2H16.7c-9.2,0-16.7-7.5-16.7-16.7V16.7C0,7.5,7.5,0,16.7,0h226.5c9.2,0,16.7,7.5,16.7,16.7v224.8
	C260,250.7,252.5,258.2,243.3,258.2z"/>
<g>
	<path fill="#363636" d="M38,201.3c-0.6-0.4-1.1-0.9-1.5-1.5c-0.4-0.7-0.6-1.4-0.6-2.2c0-0.8,0.2-1.5,0.6-2.2
		c0.4-0.7,0.9-1.2,1.5-1.5s1.3-0.5,2.1-0.5c0.8,0,1.5,0.2,2.1,0.5c0.6,0.4,1.1,0.9,1.5,1.5c0.4,0.6,0.6,1.4,0.6,2.2
		c0,0.8-0.2,1.6-0.6,2.2c-0.4,0.6-0.9,1.2-1.5,1.5c-0.6,0.4-1.4,0.5-2.1,0.5C39.3,201.9,38.6,201.7,38,201.3z M41.7,200.5
		c0.5-0.3,0.8-0.7,1.1-1.2c0.3-0.5,0.4-1.1,0.4-1.8c0-0.7-0.1-1.3-0.4-1.8s-0.6-0.9-1.1-1.2c-0.5-0.3-1-0.4-1.6-0.4
		c-0.6,0-1.1,0.1-1.6,0.4c-0.5,0.3-0.8,0.7-1.1,1.2c-0.3,0.5-0.4,1.1-0.4,1.8c0,0.7,0.1,1.2,0.4,1.8c0.3,0.5,0.6,0.9,1.1,1.2
		c0.5,0.3,1,0.4,1.6,0.4S41.2,200.8,41.7,200.5z"/>
	<path fill="#363636" d="M50.9,195.8c0.5,0.5,0.7,1.2,0.7,2.1v3.9h-1.1v-3.7c0-0.7-0.2-1.2-0.5-1.5c-0.3-0.3-0.8-0.5-1.3-0.5
		c-0.6,0-1,0.2-1.4,0.5s-0.5,0.9-0.5,1.6v3.6h-1.1v-6.6h1.1v0.9c0.2-0.3,0.5-0.6,0.9-0.8s0.8-0.3,1.2-0.3
		C49.8,195.1,50.4,195.3,50.9,195.8z"/>
	<path fill="#363636" d="M59.4,198.9h-5.3c0,0.6,0.3,1.2,0.7,1.5c0.4,0.4,0.9,0.5,1.5,0.5c0.5,0,0.9-0.1,1.2-0.3
		c0.3-0.2,0.5-0.5,0.7-0.9h1.2c-0.2,0.6-0.5,1.1-1.1,1.5c-0.5,0.4-1.2,0.6-2,0.6c-0.6,0-1.2-0.1-1.7-0.4c-0.5-0.3-0.9-0.7-1.2-1.2
		c-0.3-0.5-0.4-1.1-0.4-1.8s0.1-1.3,0.4-1.8s0.7-0.9,1.1-1.2c0.5-0.3,1.1-0.4,1.7-0.4c0.6,0,1.2,0.1,1.7,0.4
		c0.5,0.3,0.9,0.6,1.1,1.1c0.3,0.5,0.4,1,0.4,1.6C59.4,198.5,59.4,198.7,59.4,198.9z M58,197c-0.2-0.3-0.4-0.5-0.8-0.7
		c-0.3-0.2-0.7-0.2-1-0.2c-0.6,0-1,0.2-1.4,0.5c-0.4,0.4-0.6,0.8-0.7,1.5h4.2C58.3,197.6,58.2,197.3,58,197z"/>
	<path fill="#363636" d="M65.4,196.9v0.9h-4.8v-0.9H65.4z"/>
	<path fill="#363636" d="M69.6,198.9c0.6-0.5,1.1-1.1,1.5-1.6c0.4-0.6,0.6-1.1,0.6-1.7c0-0.5-0.1-0.9-0.4-1.2s-0.7-0.5-1.2-0.5
		c-0.5,0-1,0.2-1.3,0.5c-0.3,0.3-0.5,0.8-0.5,1.4h-1.1c0-0.9,0.3-1.6,0.8-2.1c0.5-0.5,1.2-0.7,2-0.7c0.8,0,1.5,0.2,2,0.7
		c0.5,0.5,0.7,1.1,0.7,1.9c0,0.7-0.2,1.3-0.6,1.9s-0.8,1.2-1.4,1.7s-1.1,1-1.9,1.7h4.1v0.9h-5.8v-0.8
		C68.2,200.1,69,199.4,69.6,198.9z"/>
	<path fill="#363636" d="M78.9,196.9v0.9h-4.8v-0.9H78.9z"/>
	<path fill="#363636" d="M82.2,201.5c-0.5-0.3-0.9-0.7-1.2-1.2c-0.3-0.5-0.4-1.1-0.4-1.8c0-0.7,0.1-1.3,0.4-1.8s0.7-0.9,1.2-1.2
		c0.5-0.3,1.1-0.4,1.7-0.4s1.2,0.1,1.7,0.4c0.5,0.3,0.9,0.7,1.2,1.2s0.4,1.1,0.4,1.8s-0.1,1.3-0.5,1.8c-0.3,0.5-0.7,0.9-1.2,1.2
		c-0.5,0.3-1.1,0.4-1.7,0.4C83.2,201.9,82.7,201.8,82.2,201.5z M85,200.7c0.3-0.2,0.6-0.5,0.8-0.8s0.3-0.8,0.3-1.3
		c0-0.5-0.1-1-0.3-1.3c-0.2-0.4-0.5-0.6-0.8-0.8c-0.3-0.2-0.7-0.3-1.1-0.3c-0.4,0-0.8,0.1-1.1,0.3c-0.3,0.2-0.6,0.5-0.8,0.8
		c-0.2,0.4-0.3,0.8-0.3,1.3c0,0.5,0.1,1,0.3,1.4c0.2,0.4,0.5,0.6,0.8,0.8s0.7,0.3,1.1,0.3S84.6,200.9,85,200.7z"/>
	<path fill="#363636" d="M93.8,195.8c0.5,0.5,0.7,1.2,0.7,2.1v3.9h-1.1v-3.7c0-0.7-0.2-1.2-0.5-1.5c-0.3-0.3-0.8-0.5-1.3-0.5
		c-0.6,0-1,0.2-1.4,0.5s-0.5,0.9-0.5,1.6v3.6h-1.1v-6.6h1.1v0.9c0.2-0.3,0.5-0.6,0.9-0.8s0.8-0.3,1.2-0.3
		C92.7,195.1,93.3,195.3,93.8,195.8z"/>
	<path fill="#363636" d="M102.3,198.9h-5.3c0,0.6,0.3,1.2,0.7,1.5c0.4,0.4,0.9,0.5,1.5,0.5c0.5,0,0.9-0.1,1.2-0.3
		c0.3-0.2,0.5-0.5,0.7-0.9h1.2c-0.2,0.6-0.5,1.1-1.1,1.5c-0.5,0.4-1.2,0.6-2,0.6c-0.6,0-1.2-0.1-1.7-0.4c-0.5-0.3-0.9-0.7-1.2-1.2
		c-0.3-0.5-0.4-1.1-0.4-1.8s0.1-1.3,0.4-1.8s0.7-0.9,1.1-1.2c0.5-0.3,1.1-0.4,1.7-0.4c0.6,0,1.2,0.1,1.7,0.4
		c0.5,0.3,0.9,0.6,1.1,1.1c0.3,0.5,0.4,1,0.4,1.6C102.4,198.5,102.3,198.7,102.3,198.9z M100.9,197c-0.2-0.3-0.4-0.5-0.8-0.7
		c-0.3-0.2-0.7-0.2-1-0.2c-0.6,0-1,0.2-1.4,0.5c-0.4,0.4-0.6,0.8-0.7,1.5h4.2C101.2,197.6,101.1,197.3,100.9,197z"/>
	<path fill="#363636" d="M108.1,192.9v8.9H107v-8.9H108.1z"/>
	<path fill="#363636" d="M110,193.9c-0.1-0.1-0.2-0.3-0.2-0.5s0.1-0.4,0.2-0.5s0.3-0.2,0.5-0.2c0.2,0,0.4,0.1,0.5,0.2
		c0.1,0.1,0.2,0.3,0.2,0.5s-0.1,0.4-0.2,0.5c-0.1,0.1-0.3,0.2-0.5,0.2C110.3,194.2,110.1,194.1,110,193.9z M111,195.2v6.6h-1.1v-6.6
		H111z"/>
	<path fill="#363636" d="M115.3,200.8l2-5.6h1.2l-2.6,6.6h-1.3l-2.6-6.6h1.2L115.3,200.8z"/>
	<path fill="#363636" d="M125.6,198.9h-5.3c0,0.6,0.3,1.2,0.7,1.5c0.4,0.4,0.9,0.5,1.5,0.5c0.5,0,0.9-0.1,1.2-0.3
		c0.3-0.2,0.5-0.5,0.7-0.9h1.2c-0.2,0.6-0.5,1.1-1.1,1.5c-0.5,0.4-1.2,0.6-2,0.6c-0.6,0-1.2-0.1-1.7-0.4c-0.5-0.3-0.9-0.7-1.2-1.2
		c-0.3-0.5-0.4-1.1-0.4-1.8s0.1-1.3,0.4-1.8s0.7-0.9,1.1-1.2c0.5-0.3,1.1-0.4,1.7-0.4c0.6,0,1.2,0.1,1.7,0.4
		c0.5,0.3,0.9,0.6,1.1,1.1c0.3,0.5,0.4,1,0.4,1.6C125.6,198.5,125.6,198.7,125.6,198.9z M124.2,197c-0.2-0.3-0.4-0.5-0.8-0.7
		c-0.3-0.2-0.7-0.2-1-0.2c-0.6,0-1,0.2-1.4,0.5c-0.4,0.4-0.6,0.8-0.7,1.5h4.2C124.5,197.6,124.4,197.3,124.2,197z"/>
	<path fill="#363636" d="M131.3,193.4v5.3c0,0.7,0.2,1.3,0.5,1.7c0.4,0.4,0.9,0.5,1.5,0.5c0.6,0,1.1-0.2,1.5-0.5s0.5-0.9,0.5-1.7
		v-5.3h1.1v5.3c0,0.7-0.1,1.3-0.4,1.8c-0.3,0.5-0.7,0.8-1.1,1.1c-0.5,0.2-1,0.3-1.6,0.3c-0.6,0-1.1-0.1-1.6-0.3
		c-0.5-0.2-0.9-0.6-1.1-1.1c-0.3-0.5-0.4-1.1-0.4-1.8v-5.3H131.3z"/>
	<path fill="#363636" d="M141.8,197.6l2.6,4.2h-1.2l-2-3.3l-1.9,3.3H138l2.6-4.2l-2.6-4.2h1.2l2,3.3l1.9-3.3h1.2L141.8,197.6z"/>
	<path fill="#363636" d="M149,196.7c0.3-0.5,0.6-0.9,1.1-1.2c0.5-0.3,1-0.4,1.6-0.4c0.5,0,1,0.1,1.4,0.4c0.4,0.2,0.8,0.5,1,0.9v-3.5
		h1.1v8.9h-1.1v-1.2c-0.2,0.4-0.5,0.7-1,1c-0.4,0.3-0.9,0.4-1.5,0.4c-0.6,0-1.1-0.1-1.6-0.4c-0.5-0.3-0.9-0.7-1.1-1.2
		c-0.3-0.5-0.4-1.1-0.4-1.8C148.6,197.8,148.8,197.2,149,196.7z M153.9,197.2c-0.2-0.4-0.5-0.7-0.8-0.8c-0.3-0.2-0.7-0.3-1.1-0.3
		s-0.8,0.1-1.1,0.3c-0.3,0.2-0.6,0.5-0.8,0.8c-0.2,0.4-0.3,0.8-0.3,1.3c0,0.5,0.1,0.9,0.3,1.3s0.5,0.7,0.8,0.9
		c0.3,0.2,0.7,0.3,1.1,0.3s0.8-0.1,1.1-0.3c0.3-0.2,0.6-0.5,0.8-0.9c0.2-0.4,0.3-0.8,0.3-1.3S154.1,197.6,153.9,197.2z"/>
	<path fill="#363636" d="M163.1,198.9h-5.3c0,0.6,0.3,1.2,0.7,1.5c0.4,0.4,0.9,0.5,1.5,0.5c0.5,0,0.9-0.1,1.2-0.3
		c0.3-0.2,0.5-0.5,0.7-0.9h1.2c-0.2,0.6-0.5,1.1-1.1,1.5c-0.5,0.4-1.2,0.6-2,0.6c-0.6,0-1.2-0.1-1.7-0.4c-0.5-0.3-0.9-0.7-1.2-1.2
		c-0.3-0.5-0.4-1.1-0.4-1.8s0.1-1.3,0.4-1.8c0.3-0.5,0.7-0.9,1.1-1.2c0.5-0.3,1.1-0.4,1.7-0.4c0.6,0,1.2,0.1,1.7,0.4
		c0.5,0.3,0.9,0.6,1.1,1.1c0.3,0.5,0.4,1,0.4,1.6C163.1,198.5,163.1,198.7,163.1,198.9z M161.7,197c-0.2-0.3-0.4-0.5-0.8-0.7
		c-0.3-0.2-0.7-0.2-1-0.2c-0.6,0-1,0.2-1.4,0.5c-0.4,0.4-0.6,0.8-0.7,1.5h4.2C162,197.6,161.9,197.3,161.7,197z"/>
	<path fill="#363636" d="M165.6,201.7c-0.4-0.2-0.7-0.4-0.9-0.7c-0.2-0.3-0.4-0.7-0.4-1.1h1.1c0,0.3,0.2,0.6,0.5,0.8
		c0.3,0.2,0.6,0.3,1.1,0.3c0.4,0,0.7-0.1,1-0.3c0.2-0.2,0.4-0.4,0.4-0.7c0-0.3-0.1-0.5-0.4-0.6c-0.3-0.1-0.7-0.3-1.2-0.4
		c-0.5-0.1-0.9-0.3-1.2-0.4c-0.3-0.1-0.6-0.3-0.8-0.6c-0.2-0.3-0.3-0.6-0.3-1c0-0.3,0.1-0.6,0.3-0.9c0.2-0.3,0.5-0.5,0.9-0.7
		c0.4-0.2,0.8-0.2,1.3-0.2c0.7,0,1.3,0.2,1.8,0.6c0.4,0.4,0.7,0.9,0.7,1.5h-1.1c0-0.3-0.2-0.6-0.4-0.8s-0.6-0.3-1-0.3
		c-0.4,0-0.7,0.1-0.9,0.3s-0.3,0.4-0.3,0.7c0,0.2,0.1,0.4,0.2,0.5c0.1,0.1,0.3,0.3,0.5,0.3s0.5,0.2,0.9,0.3c0.5,0.1,0.9,0.3,1.2,0.4
		s0.5,0.3,0.8,0.6s0.3,0.6,0.3,1c0,0.4-0.1,0.7-0.3,1c-0.2,0.3-0.5,0.5-0.8,0.7c-0.4,0.2-0.8,0.2-1.3,0.2
		C166.4,201.9,166,201.8,165.6,201.7z"/>
	<path fill="#363636" d="M170.9,193.9c-0.1-0.1-0.2-0.3-0.2-0.5s0.1-0.4,0.2-0.5c0.1-0.1,0.3-0.2,0.5-0.2c0.2,0,0.4,0.1,0.5,0.2
		c0.1,0.1,0.2,0.3,0.2,0.5s-0.1,0.4-0.2,0.5c-0.1,0.1-0.3,0.2-0.5,0.2C171.2,194.2,171,194.1,170.9,193.9z M171.9,195.2v6.6h-1.1
		v-6.6H171.9z"/>
	<path fill="#363636" d="M178,195.5c0.4,0.2,0.7,0.6,1,0.9v-1.2h1.1v6.7c0,0.6-0.1,1.1-0.4,1.6c-0.3,0.5-0.6,0.8-1.1,1.1
		c-0.5,0.3-1,0.4-1.7,0.4c-0.9,0-1.6-0.2-2.2-0.6c-0.6-0.4-0.9-1-1-1.7h1.1c0.1,0.4,0.4,0.7,0.7,1s0.8,0.4,1.4,0.4
		c0.6,0,1.1-0.2,1.5-0.6c0.4-0.4,0.6-0.9,0.6-1.6v-1.4c-0.2,0.4-0.5,0.7-1,1c-0.4,0.3-0.9,0.4-1.5,0.4c-0.6,0-1.1-0.1-1.6-0.4
		c-0.5-0.3-0.8-0.7-1.1-1.2c-0.3-0.5-0.4-1.1-0.4-1.8c0-0.7,0.1-1.3,0.4-1.8c0.3-0.5,0.6-0.9,1.1-1.2c0.5-0.3,1-0.4,1.6-0.4
		C177.1,195.1,177.6,195.2,178,195.5z M178.7,197.2c-0.2-0.4-0.5-0.7-0.8-0.8c-0.3-0.2-0.7-0.3-1.1-0.3c-0.4,0-0.8,0.1-1.1,0.3
		c-0.3,0.2-0.6,0.5-0.8,0.8c-0.2,0.4-0.3,0.8-0.3,1.3c0,0.5,0.1,0.9,0.3,1.3c0.2,0.4,0.5,0.7,0.8,0.9c0.3,0.2,0.7,0.3,1.1,0.3
		c0.4,0,0.8-0.1,1.1-0.3c0.3-0.2,0.6-0.5,0.8-0.9s0.3-0.8,0.3-1.3S178.9,197.6,178.7,197.2z"/>
	<path fill="#363636" d="M187.1,195.8c0.5,0.5,0.7,1.2,0.7,2.1v3.9h-1.1v-3.7c0-0.7-0.2-1.2-0.5-1.5c-0.3-0.3-0.8-0.5-1.3-0.5
		c-0.6,0-1,0.2-1.4,0.5s-0.5,0.9-0.5,1.6v3.6h-1.1v-6.6h1.1v0.9c0.2-0.3,0.5-0.6,0.9-0.8s0.8-0.3,1.2-0.3
		C185.9,195.1,186.6,195.3,187.1,195.8z"/>
	<path fill="#363636" d="M192.8,196.7c0.3-0.5,0.6-0.9,1.1-1.2s1-0.4,1.6-0.4c0.6,0,1.1,0.1,1.5,0.4s0.7,0.6,0.9,0.9v-1.2h1.1v6.6
		H198v-1.2c-0.2,0.4-0.5,0.7-1,1c-0.4,0.3-0.9,0.4-1.5,0.4c-0.6,0-1.1-0.1-1.6-0.4s-0.8-0.7-1.1-1.2c-0.3-0.5-0.4-1.1-0.4-1.8
		C192.4,197.8,192.5,197.2,192.8,196.7z M197.7,197.2c-0.2-0.4-0.5-0.7-0.8-0.8c-0.3-0.2-0.7-0.3-1.1-0.3c-0.4,0-0.8,0.1-1.1,0.3
		c-0.3,0.2-0.6,0.5-0.8,0.8c-0.2,0.4-0.3,0.8-0.3,1.3c0,0.5,0.1,0.9,0.3,1.3c0.2,0.4,0.5,0.7,0.8,0.9c0.3,0.2,0.7,0.3,1.1,0.3
		c0.4,0,0.8-0.1,1.1-0.3c0.3-0.2,0.6-0.5,0.8-0.9c0.2-0.4,0.3-0.8,0.3-1.3S197.9,197.6,197.7,197.2z"/>
	<path fill="#363636" d="M206.1,195.8c0.5,0.5,0.7,1.2,0.7,2.1v3.9h-1.1v-3.7c0-0.7-0.2-1.2-0.5-1.5c-0.3-0.3-0.8-0.5-1.3-0.5
		c-0.6,0-1,0.2-1.4,0.5c-0.3,0.4-0.5,0.9-0.5,1.6v3.6h-1.1v-6.6h1.1v0.9c0.2-0.3,0.5-0.6,0.9-0.8c0.4-0.2,0.8-0.3,1.2-0.3
		C204.9,195.1,205.6,195.3,206.1,195.8z"/>
	<path fill="#363636" d="M208.6,196.7c0.3-0.5,0.6-0.9,1.1-1.2s1-0.4,1.6-0.4c0.5,0,1,0.1,1.4,0.4c0.4,0.2,0.8,0.5,1,0.9v-3.5h1.1
		v8.9h-1.1v-1.2c-0.2,0.4-0.5,0.7-1,1c-0.4,0.3-0.9,0.4-1.5,0.4c-0.6,0-1.1-0.1-1.6-0.4s-0.8-0.7-1.1-1.2c-0.3-0.5-0.4-1.1-0.4-1.8
		C208.2,197.8,208.3,197.2,208.6,196.7z M213.4,197.2c-0.2-0.4-0.5-0.7-0.8-0.8c-0.3-0.2-0.7-0.3-1.1-0.3c-0.4,0-0.8,0.1-1.1,0.3
		c-0.3,0.2-0.6,0.5-0.8,0.8c-0.2,0.4-0.3,0.8-0.3,1.3c0,0.5,0.1,0.9,0.3,1.3c0.2,0.4,0.5,0.7,0.8,0.9c0.3,0.2,0.7,0.3,1.1,0.3
		c0.4,0,0.8-0.1,1.1-0.3c0.3-0.2,0.6-0.5,0.8-0.9c0.2-0.4,0.3-0.8,0.3-1.3S213.6,197.6,213.4,197.2z"/>
	<path fill="#363636" d="M45.6,212.4c0.4,0.2,0.7,0.5,0.9,1s0.3,0.9,0.3,1.5v3.9h-1.1v-3.7c0-0.7-0.2-1.2-0.5-1.5
		c-0.3-0.3-0.8-0.5-1.3-0.5c-0.6,0-1,0.2-1.4,0.5c-0.3,0.4-0.5,0.9-0.5,1.6v3.6h-1.1v-3.7c0-0.7-0.2-1.2-0.5-1.5
		c-0.3-0.3-0.8-0.5-1.3-0.5c-0.6,0-1,0.2-1.4,0.5s-0.5,0.9-0.5,1.6v3.6h-1.1v-6.6h1.1v0.9c0.2-0.3,0.5-0.6,0.9-0.8
		c0.4-0.2,0.8-0.3,1.2-0.3c0.6,0,1,0.1,1.5,0.4c0.4,0.2,0.7,0.6,0.9,1.1c0.2-0.5,0.5-0.8,0.9-1.1c0.4-0.3,0.9-0.4,1.4-0.4
		C44.7,212.1,45.2,212.2,45.6,212.4z"/>
	<path fill="#363636" d="M54.6,215.9h-5.3c0,0.6,0.3,1.2,0.7,1.5c0.4,0.4,0.9,0.5,1.5,0.5c0.5,0,0.9-0.1,1.2-0.3
		c0.3-0.2,0.5-0.5,0.7-0.9h1.2c-0.2,0.6-0.5,1.1-1.1,1.5c-0.5,0.4-1.2,0.6-2,0.6c-0.6,0-1.2-0.1-1.7-0.4c-0.5-0.3-0.9-0.7-1.2-1.2
		c-0.3-0.5-0.4-1.1-0.4-1.8s0.1-1.3,0.4-1.8s0.7-0.9,1.1-1.2c0.5-0.3,1.1-0.4,1.7-0.4c0.6,0,1.2,0.1,1.7,0.4
		c0.5,0.3,0.9,0.6,1.1,1.1c0.3,0.5,0.4,1,0.4,1.6C54.7,215.5,54.7,215.7,54.6,215.9z M53.3,214c-0.2-0.3-0.4-0.5-0.8-0.7
		c-0.3-0.2-0.7-0.2-1-0.2c-0.6,0-1,0.2-1.4,0.5c-0.4,0.4-0.6,0.8-0.7,1.5h4.2C53.5,214.6,53.5,214.3,53.3,214z"/>
	<path fill="#363636" d="M61.3,212.8c0.5,0.5,0.7,1.2,0.7,2.1v3.9h-1.1v-3.7c0-0.7-0.2-1.2-0.5-1.5c-0.3-0.3-0.8-0.5-1.3-0.5
		c-0.6,0-1,0.2-1.4,0.5s-0.5,0.9-0.5,1.6v3.6h-1.1v-6.6h1.1v0.9c0.2-0.3,0.5-0.6,0.9-0.8s0.8-0.3,1.2-0.3
		C60.1,212.1,60.8,212.3,61.3,212.8z"/>
	<path fill="#363636" d="M65.1,213.1v3.9c0,0.3,0.1,0.5,0.2,0.7c0.1,0.1,0.4,0.2,0.7,0.2h0.8v0.9h-1c-0.6,0-1.1-0.1-1.4-0.4
		c-0.3-0.3-0.5-0.7-0.5-1.4v-3.9h-0.9v-0.9H64v-1.7h1.1v1.7h1.7v0.9H65.1z"/>
	<path fill="#363636" d="M69.4,218.5c-0.5-0.3-0.9-0.7-1.2-1.2c-0.3-0.5-0.4-1.1-0.4-1.8c0-0.7,0.1-1.3,0.4-1.8s0.7-0.9,1.2-1.2
		c0.5-0.3,1.1-0.4,1.7-0.4s1.2,0.1,1.7,0.4c0.5,0.3,0.9,0.7,1.2,1.2s0.4,1.1,0.4,1.8s-0.1,1.3-0.5,1.8c-0.3,0.5-0.7,0.9-1.2,1.2
		c-0.5,0.3-1.1,0.4-1.7,0.4C70.4,218.9,69.9,218.8,69.4,218.5z M72.1,217.7c0.3-0.2,0.6-0.5,0.8-0.8s0.3-0.8,0.3-1.3
		c0-0.5-0.1-1-0.3-1.3c-0.2-0.4-0.5-0.6-0.8-0.8c-0.3-0.2-0.7-0.3-1.1-0.3c-0.4,0-0.8,0.1-1.1,0.3c-0.3,0.2-0.6,0.5-0.8,0.8
		c-0.2,0.4-0.3,0.8-0.3,1.3c0,0.5,0.1,1,0.3,1.4c0.2,0.4,0.5,0.6,0.8,0.8s0.7,0.3,1.1,0.3S71.8,217.9,72.1,217.7z"/>
	<path fill="#363636" d="M77.8,212.4c0.4-0.2,0.8-0.3,1.3-0.3v1.1h-0.3c-1.2,0-1.8,0.7-1.8,2v3.6h-1.1v-6.6h1.1v1.1
		C77.1,212.9,77.4,212.6,77.8,212.4z"/>
	<path fill="#363636" d="M80.4,210.9c-0.1-0.1-0.2-0.3-0.2-0.5s0.1-0.4,0.2-0.5s0.3-0.2,0.5-0.2c0.2,0,0.4,0.1,0.5,0.2
		c0.1,0.1,0.2,0.3,0.2,0.5s-0.1,0.4-0.2,0.5c-0.1,0.1-0.3,0.2-0.5,0.2C80.7,211.2,80.5,211.1,80.4,210.9z M81.4,212.2v6.6h-1.1v-6.6
		H81.4z"/>
	<path fill="#363636" d="M88.4,212.8c0.5,0.5,0.7,1.2,0.7,2.1v3.9h-1.1v-3.7c0-0.7-0.2-1.2-0.5-1.5c-0.3-0.3-0.8-0.5-1.3-0.5
		c-0.6,0-1,0.2-1.4,0.5s-0.5,0.9-0.5,1.6v3.6h-1.1v-6.6h1.1v0.9c0.2-0.3,0.5-0.6,0.9-0.8s0.8-0.3,1.2-0.3
		C87.3,212.1,87.9,212.3,88.4,212.8z"/>
	<path fill="#363636" d="M95.2,212.5c0.4,0.2,0.7,0.6,1,0.9v-1.2h1.1v6.7c0,0.6-0.1,1.1-0.4,1.6c-0.3,0.5-0.6,0.8-1.1,1.1
		c-0.5,0.3-1,0.4-1.7,0.4c-0.9,0-1.6-0.2-2.2-0.6c-0.6-0.4-0.9-1-1-1.7H92c0.1,0.4,0.4,0.7,0.7,1s0.8,0.4,1.4,0.4
		c0.6,0,1.1-0.2,1.5-0.6c0.4-0.4,0.6-0.9,0.6-1.6v-1.4c-0.2,0.4-0.5,0.7-1,1c-0.4,0.3-0.9,0.4-1.5,0.4c-0.6,0-1.1-0.1-1.6-0.4
		s-0.9-0.7-1.1-1.2c-0.3-0.5-0.4-1.1-0.4-1.8c0-0.7,0.1-1.3,0.4-1.8s0.6-0.9,1.1-1.2s1-0.4,1.6-0.4
		C94.2,212.1,94.7,212.2,95.2,212.5z M95.8,214.2c-0.2-0.4-0.5-0.7-0.8-0.8c-0.3-0.2-0.7-0.3-1.1-0.3c-0.4,0-0.8,0.1-1.1,0.3
		c-0.3,0.2-0.6,0.5-0.8,0.8c-0.2,0.4-0.3,0.8-0.3,1.3c0,0.5,0.1,0.9,0.3,1.3c0.2,0.4,0.5,0.7,0.8,0.9c0.3,0.2,0.7,0.3,1.1,0.3
		c0.4,0,0.8-0.1,1.1-0.3c0.3-0.2,0.6-0.5,0.8-0.9c0.2-0.4,0.3-0.8,0.3-1.3S96,214.6,95.8,214.2z"/>
	<path fill="#363636" d="M103.2,218.7c-0.4-0.2-0.7-0.4-0.9-0.7c-0.2-0.3-0.4-0.7-0.4-1.1h1.1c0,0.3,0.2,0.6,0.5,0.8
		c0.3,0.2,0.6,0.3,1.1,0.3c0.4,0,0.7-0.1,1-0.3c0.2-0.2,0.4-0.4,0.4-0.7c0-0.3-0.1-0.5-0.4-0.6c-0.3-0.1-0.7-0.3-1.2-0.4
		c-0.5-0.1-0.9-0.3-1.2-0.4c-0.3-0.1-0.6-0.3-0.8-0.6c-0.2-0.3-0.3-0.6-0.3-1c0-0.3,0.1-0.6,0.3-0.9c0.2-0.3,0.5-0.5,0.9-0.7
		c0.4-0.2,0.8-0.2,1.3-0.2c0.7,0,1.3,0.2,1.8,0.6c0.4,0.4,0.7,0.9,0.7,1.5h-1.1c0-0.3-0.2-0.6-0.4-0.8s-0.6-0.3-1-0.3
		c-0.4,0-0.7,0.1-0.9,0.3c-0.2,0.2-0.3,0.4-0.3,0.7c0,0.2,0.1,0.4,0.2,0.5c0.1,0.1,0.3,0.3,0.5,0.3s0.5,0.2,0.9,0.3
		c0.5,0.1,0.9,0.3,1.2,0.4s0.5,0.3,0.8,0.6s0.3,0.6,0.3,1c0,0.4-0.1,0.7-0.3,1c-0.2,0.3-0.5,0.5-0.8,0.7c-0.4,0.2-0.8,0.2-1.3,0.2
		C104.1,218.9,103.6,218.8,103.2,218.7z"/>
	<path fill="#363636" d="M114.5,215.9h-5.3c0,0.6,0.3,1.2,0.7,1.5c0.4,0.4,0.9,0.5,1.5,0.5c0.5,0,0.9-0.1,1.2-0.3
		c0.3-0.2,0.5-0.5,0.7-0.9h1.2c-0.2,0.6-0.5,1.1-1.1,1.5c-0.5,0.4-1.2,0.6-2,0.6c-0.6,0-1.2-0.1-1.7-0.4c-0.5-0.3-0.9-0.7-1.2-1.2
		c-0.3-0.5-0.4-1.1-0.4-1.8s0.1-1.3,0.4-1.8s0.7-0.9,1.1-1.2c0.5-0.3,1.1-0.4,1.7-0.4c0.6,0,1.2,0.1,1.7,0.4
		c0.5,0.3,0.9,0.6,1.1,1.1c0.3,0.5,0.4,1,0.4,1.6C114.5,215.5,114.5,215.7,114.5,215.9z M113.1,214c-0.2-0.3-0.4-0.5-0.8-0.7
		c-0.3-0.2-0.7-0.2-1-0.2c-0.6,0-1,0.2-1.4,0.5c-0.4,0.4-0.6,0.8-0.7,1.5h4.2C113.4,214.6,113.3,214.3,113.1,214z"/>
	<path fill="#363636" d="M116.9,218.7c-0.4-0.2-0.7-0.4-0.9-0.7c-0.2-0.3-0.4-0.7-0.4-1.1h1.1c0,0.3,0.2,0.6,0.5,0.8
		c0.3,0.2,0.6,0.3,1.1,0.3c0.4,0,0.7-0.1,1-0.3c0.2-0.2,0.4-0.4,0.4-0.7c0-0.3-0.1-0.5-0.4-0.6c-0.3-0.1-0.7-0.3-1.2-0.4
		c-0.5-0.1-0.9-0.3-1.2-0.4c-0.3-0.1-0.6-0.3-0.8-0.6c-0.2-0.3-0.3-0.6-0.3-1c0-0.3,0.1-0.6,0.3-0.9c0.2-0.3,0.5-0.5,0.9-0.7
		c0.4-0.2,0.8-0.2,1.3-0.2c0.7,0,1.3,0.2,1.8,0.6c0.4,0.4,0.7,0.9,0.7,1.5h-1.1c0-0.3-0.2-0.6-0.4-0.8s-0.6-0.3-1-0.3
		c-0.4,0-0.7,0.1-0.9,0.3c-0.2,0.2-0.3,0.4-0.3,0.7c0,0.2,0.1,0.4,0.2,0.5c0.1,0.1,0.3,0.3,0.5,0.3s0.5,0.2,0.9,0.3
		c0.5,0.1,0.9,0.3,1.2,0.4s0.5,0.3,0.8,0.6s0.3,0.6,0.3,1c0,0.4-0.1,0.7-0.3,1c-0.2,0.3-0.5,0.5-0.8,0.7c-0.4,0.2-0.8,0.2-1.3,0.2
		C117.8,218.9,117.3,218.8,116.9,218.7z"/>
	<path fill="#363636" d="M123.2,218.7c-0.4-0.2-0.7-0.4-0.9-0.7c-0.2-0.3-0.4-0.7-0.4-1.1h1.1c0,0.3,0.2,0.6,0.5,0.8
		c0.3,0.2,0.6,0.3,1.1,0.3c0.4,0,0.7-0.1,1-0.3c0.2-0.2,0.4-0.4,0.4-0.7c0-0.3-0.1-0.5-0.4-0.6c-0.3-0.1-0.7-0.3-1.2-0.4
		c-0.5-0.1-0.9-0.3-1.2-0.4c-0.3-0.1-0.6-0.3-0.8-0.6c-0.2-0.3-0.3-0.6-0.3-1c0-0.3,0.1-0.6,0.3-0.9c0.2-0.3,0.5-0.5,0.9-0.7
		c0.4-0.2,0.8-0.2,1.3-0.2c0.7,0,1.3,0.2,1.8,0.6c0.4,0.4,0.7,0.9,0.7,1.5h-1.1c0-0.3-0.2-0.6-0.4-0.8s-0.6-0.3-1-0.3
		c-0.4,0-0.7,0.1-0.9,0.3c-0.2,0.2-0.3,0.4-0.3,0.7c0,0.2,0.1,0.4,0.2,0.5c0.1,0.1,0.3,0.3,0.5,0.3s0.5,0.2,0.9,0.3
		c0.5,0.1,0.9,0.3,1.2,0.4s0.5,0.3,0.8,0.6s0.3,0.6,0.3,1c0,0.4-0.1,0.7-0.3,1c-0.2,0.3-0.5,0.5-0.8,0.7c-0.4,0.2-0.8,0.2-1.3,0.2
		C124.1,218.9,123.6,218.8,123.2,218.7z"/>
	<path fill="#363636" d="M128.5,210.9c-0.1-0.1-0.2-0.3-0.2-0.5s0.1-0.4,0.2-0.5s0.3-0.2,0.5-0.2c0.2,0,0.4,0.1,0.5,0.2
		c0.1,0.1,0.2,0.3,0.2,0.5s-0.1,0.4-0.2,0.5c-0.1,0.1-0.3,0.2-0.5,0.2C128.9,211.2,128.7,211.1,128.5,210.9z M129.6,212.2v6.6h-1.1
		v-6.6H129.6z"/>
	<path fill="#363636" d="M132.6,218.5c-0.5-0.3-0.9-0.7-1.2-1.2c-0.3-0.5-0.4-1.1-0.4-1.8c0-0.7,0.1-1.3,0.4-1.8s0.7-0.9,1.2-1.2
		c0.5-0.3,1.1-0.4,1.7-0.4s1.2,0.1,1.7,0.4c0.5,0.3,0.9,0.7,1.2,1.2s0.4,1.1,0.4,1.8s-0.2,1.3-0.5,1.8c-0.3,0.5-0.7,0.9-1.2,1.2
		c-0.5,0.3-1.1,0.4-1.7,0.4C133.7,218.9,133.1,218.8,132.6,218.5z M135.4,217.7c0.3-0.2,0.6-0.5,0.8-0.8s0.3-0.8,0.3-1.3
		c0-0.5-0.1-1-0.3-1.3c-0.2-0.4-0.5-0.6-0.8-0.8c-0.3-0.2-0.7-0.3-1.1-0.3c-0.4,0-0.8,0.1-1.1,0.3c-0.3,0.2-0.6,0.5-0.8,0.8
		c-0.2,0.4-0.3,0.8-0.3,1.3c0,0.5,0.1,1,0.3,1.4c0.2,0.4,0.5,0.6,0.8,0.8s0.7,0.3,1.1,0.3C134.7,217.9,135.1,217.9,135.4,217.7z"/>
	<path fill="#363636" d="M144.3,212.8c0.5,0.5,0.7,1.2,0.7,2.1v3.9h-1.1v-3.7c0-0.7-0.2-1.2-0.5-1.5c-0.3-0.3-0.8-0.5-1.3-0.5
		c-0.6,0-1,0.2-1.4,0.5s-0.5,0.9-0.5,1.6v3.6h-1.1v-6.6h1.1v0.9c0.2-0.3,0.5-0.6,0.9-0.8s0.8-0.3,1.2-0.3
		C143.1,212.1,143.8,212.3,144.3,212.8z"/>
	<path fill="#363636" d="M147.8,218.7c-0.4-0.2-0.7-0.4-0.9-0.7c-0.2-0.3-0.4-0.7-0.4-1.1h1.1c0,0.3,0.2,0.6,0.5,0.8
		c0.3,0.2,0.6,0.3,1.1,0.3c0.4,0,0.7-0.1,1-0.3c0.2-0.2,0.4-0.4,0.4-0.7c0-0.3-0.1-0.5-0.4-0.6c-0.3-0.1-0.7-0.3-1.2-0.4
		c-0.5-0.1-0.9-0.3-1.2-0.4c-0.3-0.1-0.6-0.3-0.8-0.6c-0.2-0.3-0.3-0.6-0.3-1c0-0.3,0.1-0.6,0.3-0.9c0.2-0.3,0.5-0.5,0.9-0.7
		c0.4-0.2,0.8-0.2,1.3-0.2c0.7,0,1.3,0.2,1.8,0.6c0.4,0.4,0.7,0.9,0.7,1.5h-1.1c0-0.3-0.2-0.6-0.4-0.8s-0.6-0.3-1-0.3
		c-0.4,0-0.7,0.1-0.9,0.3s-0.3,0.4-0.3,0.7c0,0.2,0.1,0.4,0.2,0.5c0.1,0.1,0.3,0.3,0.5,0.3s0.5,0.2,0.9,0.3c0.5,0.1,0.9,0.3,1.2,0.4
		s0.5,0.3,0.8,0.6s0.3,0.6,0.3,1c0,0.4-0.1,0.7-0.3,1c-0.2,0.3-0.5,0.5-0.8,0.7c-0.4,0.2-0.8,0.2-1.3,0.2
		C148.6,218.9,148.2,218.8,147.8,218.7z"/>
</g>
<g>
	<path fill="#363636" d="M43,168.5v1.6h-2.6v8.2h-2v-8.2h-2.6v-1.6H43z"/>
	<path fill="#363636" d="M50.4,170.8c0.5,0.3,0.8,0.6,1.1,1.1c0.3,0.5,0.4,1.1,0.4,1.8v4.5h-2V174c0-0.6-0.2-1.1-0.5-1.4
		s-0.7-0.5-1.3-0.5c-0.5,0-1,0.2-1.3,0.5c-0.3,0.3-0.5,0.8-0.5,1.4v4.3h-2v-10.4h2v3.6c0.3-0.3,0.6-0.6,1-0.8s0.9-0.3,1.4-0.3
		C49.4,170.4,49.9,170.5,50.4,170.8z"/>
	<path fill="#363636" d="M53.8,169.2c-0.2-0.2-0.3-0.5-0.3-0.8c0-0.3,0.1-0.6,0.3-0.8c0.2-0.2,0.5-0.3,0.9-0.3s0.6,0.1,0.9,0.3
		c0.2,0.2,0.3,0.5,0.3,0.8c0,0.3-0.1,0.6-0.3,0.8c-0.2,0.2-0.5,0.3-0.9,0.3S54.1,169.5,53.8,169.2z M55.7,170.5v7.8h-2v-7.8H55.7z"
		/>
	<path fill="#363636" d="M64.1,171.3c0.6,0.6,0.9,1.4,0.9,2.4v4.5h-2V174c0-0.6-0.2-1.1-0.5-1.4s-0.7-0.5-1.3-0.5
		c-0.5,0-1,0.2-1.3,0.5c-0.3,0.3-0.5,0.8-0.5,1.4v4.3h-2v-7.8h2v1c0.3-0.3,0.6-0.6,1-0.8c0.4-0.2,0.9-0.3,1.3-0.3
		C62.8,170.4,63.6,170.7,64.1,171.3z"/>
	<path fill="#363636" d="M71.4,178.3l-2.6-3.3v3.3h-2v-10.4h2v5.9l2.6-3.3h2.5l-3.4,3.9l3.4,3.9H71.4z"/>
	<path fill="#363636" d="M78.6,172.1h-1.4v6.1h-2v-6.1h-0.9v-1.6h0.9v-0.4c0-1,0.3-1.7,0.8-2.1c0.5-0.4,1.4-0.7,2.5-0.6v1.7
		c-0.5,0-0.8,0.1-1,0.2s-0.3,0.5-0.3,0.9v0.3h1.4V172.1z"/>
	<path fill="#363636" d="M87.2,170.5v7.8h-2v-1c-0.3,0.3-0.6,0.6-1,0.8c-0.4,0.2-0.8,0.3-1.3,0.3c-0.6,0-1.1-0.1-1.6-0.4
		c-0.5-0.3-0.8-0.6-1.1-1.1s-0.4-1.1-0.4-1.8v-4.5h2v4.3c0,0.6,0.2,1.1,0.5,1.4c0.3,0.3,0.7,0.5,1.3,0.5c0.5,0,1-0.2,1.3-0.5
		c0.3-0.3,0.5-0.8,0.5-1.4v-4.3H87.2z"/>
	<path fill="#363636" d="M91.1,167.9v10.4h-2v-10.4H91.1z"/>
</g>
<rect x="36.3" y="36.8" fill="none" stroke="#3C61ED" stroke-width="1.5" stroke-miterlimit="10" width="101.4" height="60.2"/>
<g>
	<g>
		<path fill="#3C61ED" d="M103.2,75.8c0.7,1,0.8,2,0.2,3c-0.1,0.1-0.1,0.3,0,0.4c0.6,1,0.6,2-0.1,2.9c0.2,0.5,0.4,1,0.5,1.4
			c0.1,0.7-0.1,1.3-0.6,1.9c-0.1,0.1-0.1,0.4-0.1,0.5c0.5,1,0.7,2.1,0.7,3.2c0,2.1,0,4.2,0,6.3c0,1.5-0.6,2-2,2
			c-9.9,0-19.8,0-29.7,0c-1.3,0-1.9-0.5-1.9-1.8c0-2.4,0-4.9,0.1-7.3c0-0.8,0.4-1.6,0.6-2.4c0-0.1,0.1-0.4,0-0.5
			c-0.9-1.3-0.9-2-0.1-3.3c-0.8-1-0.8-2.1,0-3.2c-0.8-1.1-0.8-2.1,0-3.2c-0.8-1-0.8-2.1,0-3.2c-0.8-1-0.8-2.1-0.1-3
			c-0.2-0.7-0.4-1.3-0.4-1.9c0-0.3,0.1-0.7,0.3-1c0.2-0.3,0.2-0.6,0-0.9c-0.7-1.2-0.3-2.6,0.9-3.2c0.3-0.2,0.4-0.3,0.4-0.7
			c0.4-6.6,5.5-12.4,12-13.8c8.1-1.6,15.9,3.2,17.9,11.3c0.2,0.8,0.3,1.7,0.4,2.6c0,0.2,0.1,0.4,0.3,0.5c1.5,1,1.8,2.2,0.8,3.8
			c0.8,1,0.8,2.1,0,3.2c0.6,0.7,0.8,1.6,0.4,2.4c-0.3,0.6-0.3,1,0,1.6C104,74.3,103.8,75.1,103.2,75.8z M78.1,63.8
			c0.4,1.7-0.3,2.8-1.9,3.2c-0.1,0-0.3,0.3-0.3,0.4c0,1.2,0,2.4,0.2,3.5c0.9,4.2,3.4,7.1,7.5,8.4c4.1,1.3,7.9,0.4,11.1-2.5
			c2.8-2.6,3.8-5.9,3.5-9.7c-2-0.6-2.6-1.4-2.3-3.2c-0.5-0.5-1.1-0.9-1.4-1.5c-0.3-0.6-0.2-1.3-0.3-1.8c-0.4-0.4-0.9-0.8-1.2-1.2
			c-0.2-0.2-0.3-0.4-0.6-0.4c-1,0-1.9,0-2.9,0c-0.8,0-1.4-0.2-2-0.7c-0.1-0.1-0.3-0.2-0.4-0.3c-0.8,0.8-1.7,1.1-2.8,1.1
			c-0.8,0-1.7,0-2.5,0c-0.2,0-0.4,0.1-0.5,0.2c-0.3,0.6-0.8,1.1-1.5,1.3C80,62.3,79.6,63,78.1,63.8z M81.4,83c0-0.9,0-1.6,0-2.4
			c0-0.4-0.1-0.6-0.5-0.7c-3-1.6-5-4.1-6.1-7.3c-0.7-2-0.7-4-0.7-6c0-0.9,0.2-1.2,1.2-1.2c0.1,0,0.2,0,0.3,0c0.6,0,0.9-0.3,0.9-0.8
			c0-0.4-0.3-0.7-0.8-0.8c-0.5-0.1-0.8-0.4-0.8-0.9c0-0.4,0.4-0.7,0.9-0.7c0.4,0,0.9,0,1.3,0c0.6,0,0.9-0.2,1-0.7
			c0-0.5-0.2-0.8-0.8-0.9c-0.5-0.1-0.8-0.3-0.8-0.8c0-0.5,0.3-0.7,0.9-0.8c0.5,0,1,0,1.5,0c0.5,0,0.8-0.2,0.9-0.7
			c0.1-0.7,0.3-0.9,1.1-0.9c1.2,0,2.4,0,3.6,0c1,0,1.6-0.5,1.8-1.5c0.1-0.6,0.3-0.9,0.8-0.9c0.5,0,0.7,0.4,0.8,0.9
			c0.2,1,0.7,1.5,1.8,1.5c1.2,0,2.4,0,3.6,0c0.6,0,0.8,0.2,1,0.8c0.1,0.6,0.3,0.8,1,0.8c0.5,0,1,0,1.5,0c0.4,0,0.7,0.3,0.7,0.7
			c0,0.4-0.2,0.7-0.6,0.8c-0.1,0-0.1,0-0.2,0c-0.5,0.1-0.7,0.4-0.7,0.9c0,0.5,0.4,0.7,0.9,0.7c0.4,0,0.9,0,1.3,0c0.6,0,1,0.3,1,0.7
			c0,0.5-0.2,0.8-0.9,0.9c-0.4,0.1-0.7,0.4-0.7,0.8c0,0.4,0.4,0.7,0.8,0.8c0.2,0,0.5,0,0.7,0c0.5,0,0.9,0.3,0.9,0.8
			c0,1.7,0.1,3.5-0.3,5.2c-0.9,3.8-3.1,6.6-6.5,8.5c-0.1,0.1-0.3,0.2-0.3,0.4c0,0.9,0,1.8,0,2.7c1.7,0,3.4,0,5,0
			c1.5,0,2.9,0.3,4.1,1.3c0.1,0.1,0.2,0.1,0.2,0.1c0.4-0.7,0.2-1.2-0.5-1.3c-0.5-0.1-0.8-0.3-0.8-0.8c0-0.5,0.3-0.7,0.8-0.8
			c0.5-0.1,0.8-0.3,0.8-0.8c0-0.5-0.3-0.7-0.7-0.8c-0.5-0.1-0.8-0.3-0.8-0.8c0-0.5,0.3-0.7,0.8-0.8c0.5-0.1,0.8-0.3,0.8-0.8
			c0-0.5-0.3-0.7-0.7-0.8c-0.5-0.1-0.8-0.3-0.8-0.8c0-0.5,0.3-0.7,0.8-0.8c0.4-0.1,0.7-0.3,0.7-0.8c0-0.5-0.3-0.7-0.7-0.8
			c-0.5-0.1-0.8-0.3-0.8-0.8c0-0.5,0.3-0.8,0.8-0.8c0.5-0.1,0.7-0.3,0.7-0.8c0-0.5-0.3-0.7-0.7-0.8c-0.5-0.1-0.8-0.3-0.8-0.8
			c0-0.5,0.3-0.8,0.8-0.8c0.5-0.1,0.7-0.3,0.7-0.8c0-0.5-0.3-0.7-0.8-0.8c-0.5-0.1-0.8-0.3-0.8-0.8c0-0.5,0.3-0.8,0.8-0.8
			c0.5,0,0.7-0.3,0.7-0.8c0-0.5-0.3-0.7-0.8-0.8c-0.6-0.1-0.8-0.3-0.8-0.9c0-0.7-0.1-1.4-0.2-2c-1.4-9.2-11.9-14.4-20-9.7
			c-4.5,2.6-6.8,6.5-7,11.7c0,0.7-0.2,0.9-0.8,1c-0.5,0.1-0.8,0.3-0.8,0.8c0,0.5,0.3,0.7,0.8,0.8c0.5,0.1,0.8,0.3,0.8,0.8
			c0,0.5-0.3,0.7-0.7,0.8c-0.5,0.1-0.8,0.3-0.8,0.8c0,0.5,0.3,0.7,0.8,0.8c0.5,0.1,0.7,0.3,0.7,0.8c0,0.5-0.3,0.7-0.8,0.8
			c-0.5,0.1-0.8,0.3-0.8,0.8c0,0.5,0.3,0.8,0.8,0.8c0.5,0.1,0.8,0.3,0.8,0.8c0,0.5-0.3,0.8-0.8,0.8c-0.5,0-0.7,0.3-0.7,0.8
			c0,0.5,0.3,0.7,0.7,0.8c0.2,0,0.4,0,0.5,0.1c0.2,0.2,0.4,0.5,0.4,0.8c0,0.4-0.4,0.6-0.8,0.7c-0.4,0.1-0.7,0.3-0.8,0.8
			c0,0.5,0.2,0.7,0.7,0.8c0.5,0.1,0.8,0.3,0.9,0.8c0,0.6-0.3,0.7-0.8,0.9c-0.3,0.1-0.6,0.3-0.7,0.6c-0.1,0.2,0.1,0.6,0.2,0.8
			c0.1,0.1,0.4,0.2,0.6,0.2c0.4,0.1,0.7,0.3,0.7,0.8c0,0.5-0.2,0.7-0.7,0.8c-0.1,0-0.2,0-0.3,0.1c-0.6,0.2-0.7,0.8-0.2,1.3
			c0.2-0.1,0.3-0.2,0.5-0.4c1.1-0.8,2.3-1,3.6-1C77.9,83,79.6,83,81.4,83z M76.6,95.8c7,0,13.9,0,20.8,0c0-1.1,0-2.3,0-3.4
			c-0.1-2.1-1.8-3.8-3.9-3.8c-4.3,0-8.6,0-13,0c-1.8,0-3.5,1.3-3.8,3C76.6,93.1,76.6,94.4,76.6,95.8z M94.2,87.1c0-0.8,0-1.6,0-2.4
			c-0.7,0-1.3,0-1.9,0c-1,0-1.2-0.2-1.2-1.2c0-0.9,0-1.7,0-2.7c-2.7,0.9-5.3,0.8-8,0c0,0.9,0,1.7,0,2.6c0,1.1-0.2,1.3-1.3,1.3
			c-0.6,0-1.2,0-1.9,0c0,0.9,0,1.6,0,2.4C84.6,87.1,89.4,87.1,94.2,87.1z M78.2,84.7c-0.8,0-1.6,0-2.3,0c-2.3,0-4.1,1.7-4.1,4.1
			c0,2.2,0,4.3,0,6.5c0,0.2,0,0.4,0,0.6c1.1,0,2.1,0,3.2,0c0-1,0-1.9,0-2.9c0-2.3,0.9-4,2.9-5.2c0.1-0.1,0.3-0.2,0.3-0.4
			C78.2,86.5,78.2,85.6,78.2,84.7z M102.2,95.8c0-0.1,0-0.2,0-0.3c0-2.4,0-4.8,0-7.1c0-1.7-1.2-3.2-2.9-3.6
			c-1.1-0.2-2.3-0.2-3.5-0.3c0,1,0,1.9,0,2.8c0,0.1,0.1,0.2,0.2,0.3c2.1,1.2,3,3.1,2.9,5.5c0,0.9,0,1.8,0,2.6
			C100.1,95.8,101.1,95.8,102.2,95.8z"/>
	</g>
</g>
<g>
	<g>
		<path fill="#3C61ED" d="M129.5,89.8c0.3,0,0.6,0,1,0c0.4,0,0.9,0,1.3,0.1c1.1,0.3,1.9,1.2,1.9,2.4c0,0.6,0,1.3,0,1.9
			c0,0.4-0.2,0.6-0.6,0.6c-3.9,0-7.7,0-11.6,0c-0.4,0-0.6-0.2-0.6-0.6c0-0.7,0-1.4,0-2c0-1.2,1.1-2.3,2.3-2.4c0.5,0,1.1,0,1.6,0
			c0.1,0,0.1,0,0.2,0c0-0.4,0-0.7,0-1.1c0,0-0.1-0.1-0.1-0.1c-1-0.7-1.7-1.6-2-2.8c-0.1-0.4-0.1-0.7-0.1-1.1c0-0.7,0-1.3,0-2
			c0.1-1.7,0.9-2.9,2.3-3.8c0.1-0.1,0.2-0.2,0.2-0.3c0.1-0.8,0.8-1.3,1.7-1.3c1.2,0,2.3,0.3,3.3,1c1.4,1.1,2.1,2.5,2.2,4.2
			c0,0.7,0,1.4,0,2.1c0,0.3-0.1,0.4-0.4,0.4c-0.1,0-0.3,0-0.4,0c-0.1,0.6-0.2,1.1-0.4,1.6c-0.4,0.8-0.9,1.4-1.7,1.9
			c-0.1,0.1-0.1,0.1-0.1,0.3C129.5,89.1,129.5,89.5,129.5,89.8z M124.1,80.6c0.3,0,0.4,0,0.4,0.2c0,0.1,0,0.3-0.2,0.3
			c-0.1,0-0.2,0-0.3,0c-0.1,0-0.1-0.1-0.2-0.2c-0.3,0.5-0.5,1-0.5,1.6c0,0.8,0,1.7,0,2.5c0,0.7,0.2,1.4,0.6,2
			c0.1,0.1,0.1,0.2,0.2,0.2c0-0.2,0-0.4,0-0.6c0-0.9,0.6-1.5,1.5-1.5c0.2,0,0.4,0,0.6,0c0.3,0,0.6,0,0.9,0.2
			c0.3-0.1,0.5-0.2,0.7-0.2c0.4,0,0.7,0,1.1,0c0.7,0,1.3,0.6,1.3,1.3c0,0.3,0,0.5,0,0.8c0.1,0,0.1,0,0.1,0c0.4-0.6,0.7-1.2,0.7-2
			c0-0.9,0-1.8,0-2.6c0-1.3-1.1-2.4-2.4-2.4c-0.7,0-1.4,0-2.2,0c-0.5,0-0.6,0.1-0.7,0.6c0,0.2-0.1,0.2-0.3,0.2
			c-0.2,0-0.2-0.1-0.3-0.3c0-0.1,0-0.2,0-0.2c0-0.3,0-0.6,0-0.9C124.8,79.8,124.4,80.2,124.1,80.6z M123.9,90.4c0,1.3,0,2.6,0,3.9
			c1,0,2,0,3.1,0c0-0.2,0-0.4-0.1-0.6c-0.6-1.1-1.1-2.1-1.7-3.2c0,0-0.1-0.1-0.1-0.1C124.7,90.4,124.3,90.4,123.9,90.4z M130.6,94.3
			c0-1.3,0-2.6,0-3.9c-0.4,0-0.7,0-1,0c-0.1,0-0.2,0-0.3,0.2c-0.5,1-1.1,2-1.6,3.1c-0.1,0.2-0.1,0.4-0.1,0.7
			C128.6,94.3,129.6,94.3,130.6,94.3z M132,84.5c0,0,0-0.1,0-0.1c0-0.7,0-1.3,0-2c0-0.8-0.2-1.5-0.6-2.2c-1-1.7-2.5-2.5-4.5-2.4
			c-0.5,0-0.9,0.4-1,0.8c-0.1,0.3,0,0.6-0.1,0.9c0.2,0,0.4-0.1,0.6-0.1c0.7,0,1.5,0,2.2,0c1.7,0,3,1.3,3,3c0,0.6,0,1.2,0,1.8
			c0,0.1,0,0.1,0,0.2C131.8,84.5,131.9,84.5,132,84.5z M127.3,86.7c-0.2,0.2-0.5,0.3-0.8,0.3c-0.4,0-0.8,0-1.2,0
			c-0.2,0-0.4,0.1-0.5,0.3c-0.1,0.2-0.1,0.4,0.1,0.6c1.4,1,3.3,1,4.7-0.1c0.1-0.1,0.1-0.2,0.1-0.2c0-0.4-0.2-0.6-0.6-0.6
			c-0.4,0-0.7,0-1.1,0C127.8,87.1,127.5,87,127.3,86.7z M123.4,90.4c-0.1,0-0.1,0-0.1,0c-0.9,0-1.8,0.9-1.8,1.8c0,0.6,0,1.3,0,1.9
			c0,0,0,0.1,0,0.1c0.6,0,1.3,0,1.9,0C123.4,93,123.4,91.7,123.4,90.4z M131.2,94.3c0.7,0,1.3,0,1.9,0c0,0,0-0.1,0-0.1
			c0-0.6,0-1.2,0-1.8c0-0.8-0.3-1.4-1-1.7c-0.3-0.2-0.6-0.3-0.9-0.2C131.2,91.7,131.2,93,131.2,94.3z M127.3,93.1
			c0.5-0.9,0.9-1.7,1.4-2.6c-0.2,0-0.4,0.1-0.5,0.1c-0.2,0.1-0.5,0.1-0.7-0.1c-0.1-0.1-0.3-0.1-0.4,0c-0.2,0.1-0.4,0.2-0.7,0.1
			c-0.2-0.1-0.3-0.1-0.6-0.1C126.3,91.4,126.8,92.2,127.3,93.1z M125.6,88.9c0,0.3,0,0.6,0,0.9c0,0,0.1,0.1,0.1,0.1
			c0.2,0.1,0.5,0.1,0.7,0.1c0.2,0,0.3,0,0.5-0.1c0.2-0.2,0.5-0.2,0.7,0c0.1,0.1,0.2,0.1,0.3,0.1c0.3,0,0.6-0.1,0.9-0.2
			c0,0,0.1-0.1,0.1-0.1c0-0.3,0-0.5,0-0.8C127.8,89.4,126.7,89.4,125.6,88.9z M124.8,86.6c0.3-0.2,0.7-0.1,1-0.1c0.2,0,0.5,0,0.7,0
			c0.3,0,0.4-0.2,0.4-0.4c0-0.2-0.2-0.4-0.4-0.4c-0.4,0-0.7,0-1.1,0C125,85.7,124.7,86.2,124.8,86.6z M129.8,86.6
			c0.1-0.4-0.2-0.9-0.7-0.9c-0.4,0-0.7,0-1.1,0c-0.3,0-0.4,0.2-0.4,0.4c0,0.2,0.2,0.4,0.5,0.4c0.3,0,0.6,0,0.9,0
			C129.2,86.5,129.5,86.5,129.8,86.6z"/>
		<path fill="#3C61ED" d="M124.8,80.1c0.1,0,0.3,0.1,0.3,0.3c0,0.1-0.1,0.3-0.3,0.3c-0.1,0-0.3-0.1-0.3-0.3
			C124.5,80.2,124.6,80.1,124.8,80.1z"/>
		<path fill="#3C61ED" d="M125.1,81.5c-0.1,0-0.3-0.1-0.3-0.3c0-0.1,0.1-0.3,0.3-0.3c0.2,0,0.3,0.1,0.3,0.3
			C125.3,81.3,125.2,81.5,125.1,81.5z"/>
		<path fill="#3C61ED" d="M127,91.2c0-0.1,0.1-0.3,0.3-0.3c0.1,0,0.3,0.1,0.3,0.3c0,0.2-0.1,0.3-0.3,0.3
			C127.1,91.5,127,91.4,127,91.2z"/>
	</g>
</g>
</svg>
