<svg width="20" height="17" viewBox="0 0 20 17" fill="none" xmlns="http://www.w3.org/2000/svg">
<path d="M15.6883 6.92861C15.4883 6.72861 15.3883 6.62861 15.2883 6.52861C13.7883 5.02861 12.2883 3.52861 10.7883 2.02861C10.2883 1.52861 10.2883 0.828613 10.6883 0.328613C11.1883 -0.171386 11.7883 -0.0713861 12.2883 0.428614C14.4883 2.62861 16.7883 4.82861 18.9883 7.12861C19.6883 7.82861 19.5883 8.32862 18.9883 9.02861C16.7883 11.2286 14.5883 13.4286 12.3883 15.6286C11.7883 16.2286 10.9883 16.2286 10.4883 15.6286C10.0883 15.1286 10.1883 14.5286 10.7883 14.0286C12.2883 12.5286 13.6883 11.1286 15.1883 9.62861C15.2883 9.52861 15.3883 9.42861 15.5883 9.22861C15.2883 9.22861 15.1883 9.22861 14.9883 9.22861C8.78834 9.22861 8.4 9.22861 2.2 9.22861C1.7 9.22861 1.2 9.12861 1 8.52861C0.700001 7.82861 1.2 7.02861 1.9 6.92861C2 6.92861 2.2 6.92861 2.3 6.92861C8.5 6.92861 8.78834 6.92861 15.0883 6.92861C15.2883 6.92861 15.3883 6.92861 15.6883 6.92861Z" fill="white"/>
</svg>
