<?xml version="1.0" encoding="utf-8"?>
<!-- Generator: Adobe Illustrator 26.3.1, SVG Export Plug-In . SVG Version: 6.00 Build 0)  -->
<svg version="1.1" id="Layer_1" xmlns="http://www.w3.org/2000/svg" xmlns:xlink="http://www.w3.org/1999/xlink" x="0px" y="0px"
	 width="20px" height="17px" viewBox="0 0 20 17" style="enable-background:new 0 0 20 17;" xml:space="preserve">
<style type="text/css">
	.st0{fill:#FFFFFF;}
</style>
<path class="st0" d="M15.5,7.4c-0.2-0.2-0.3-0.3-0.4-0.4c-1.5-1.5-3-3-4.5-4.5c-0.5-0.5-0.5-1.2-0.1-1.7c0.5-0.5,1.1-0.4,1.6,0.1
	c2.2,2.2,4.5,4.4,6.7,6.7c0.7,0.7,0.6,1.2,0,1.9c-2.2,2.2-4.4,4.4-6.6,6.6c-0.6,0.6-1.4,0.6-1.9,0c-0.4-0.5-0.3-1.1,0.3-1.6
	c1.5-1.5,2.9-2.9,4.4-4.4c0.1-0.1,0.2-0.2,0.4-0.4c-0.3,0-0.4,0-0.6,0c-6.2,0-6.6,0-12.8,0C1.5,9.7,1,9.6,0.8,9
	C0.5,8.3,1,7.5,1.7,7.4c0.1,0,0.3,0,0.4,0c6.2,0,6.5,0,12.8,0C15.1,7.4,15.2,7.4,15.5,7.4z"/>
</svg>
