<?xml version="1.0" encoding="utf-8"?>
<!-- Generator: Adobe Illustrator 26.3.1, SVG Export Plug-In . SVG Version: 6.00 Build 0)  -->
<svg version="1.1" baseProfile="tiny" id="Layer_1" xmlns="http://www.w3.org/2000/svg" xmlns:xlink="http://www.w3.org/1999/xlink"
	 x="0px" y="0px" width="20px" height="17px" viewBox="0 0 20 17" overflow="visible" xml:space="preserve">
<path fill="#FFFFFF" d="M13.1,3.8c-0.3,0-0.4,0-0.6,0c-2.1,0-4.2,0-6.4,0C5.5,3.8,5,3.3,4.9,2.7c0-0.7,0.5-1.1,1.2-1.1
	c3.1,0,6.3-0.1,9.5,0c1,0,1.3,0.4,1.3,1.3c0,3.1,0,6.2,0,9.3c0,0.8-0.6,1.4-1.3,1.3c-0.6-0.1-1-0.6-0.9-1.3c0-2.1,0-4.1,0-6.2
	c0-0.1,0-0.3,0-0.6c-0.2,0.2-0.3,0.3-0.4,0.4c-4.4,4.4-4.7,4.7-9,9c-0.4,0.4-0.8,0.6-1.3,0.4c-0.7-0.3-0.9-1.2-0.5-1.8
	c0.1-0.1,0.2-0.2,0.3-0.3c4.4-4.4,4.6-4.6,9-9C12.8,4.1,12.9,4,13.1,3.8z"/>
</svg>
