<?xml version="1.0" encoding="utf-8"?>
<!-- Generator: Adobe Illustrator 26.3.1, SVG Export Plug-In . SVG Version: 6.00 Build 0)  -->
<svg version="1.1" baseProfile="tiny" id="Layer_1" xmlns="http://www.w3.org/2000/svg" xmlns:xlink="http://www.w3.org/1999/xlink"
	 x="0px" y="0px" width="514.7px" height="157.6px" viewBox="0 0 514.7 157.6" overflow="visible" xml:space="preserve">
<path fill="#F2EDED" d="M498.6,157.6H16c-8.8,0-16-7.2-16-16V16C0,7.2,7.2,0,16,0h482.6c8.8,0,16,7.2,16,16v125.6
	C514.7,150.4,507.5,157.6,498.6,157.6z"/>
<g>
	<path fill="#363636" d="M89,94.9v4.8c0,0.5,0.1,0.9,0.4,1.2c0.3,0.3,0.7,0.4,1.1,0.4c0.5,0,0.9-0.1,1.2-0.4s0.4-0.7,0.4-1.2v-4.8
		h1.6v4.7c0,0.7-0.1,1.2-0.4,1.7s-0.7,0.8-1.1,1c-0.5,0.2-1,0.3-1.6,0.3c-0.6,0-1.1-0.1-1.6-0.3s-0.8-0.6-1.1-1
		c-0.3-0.5-0.4-1-0.4-1.7v-4.7H89z"/>
	<path fill="#363636" d="M99.7,102.6L98,100l-1.5,2.6h-1.7l2.4-3.9l-2.5-3.8h1.8l1.7,2.6l1.5-2.6h1.7L99,98.7l2.5,3.8H99.7z"/>
	<path fill="#363636" d="M109.4,92.1l-3,12.4h-1.5l3-12.4H109.4z"/>
	<path fill="#363636" d="M114.7,94.9v4.8c0,0.5,0.1,0.9,0.4,1.2c0.3,0.3,0.7,0.4,1.1,0.4c0.5,0,0.9-0.1,1.2-0.4s0.4-0.7,0.4-1.2
		v-4.8h1.6v4.7c0,0.7-0.1,1.2-0.4,1.7s-0.7,0.8-1.1,1c-0.5,0.2-1,0.3-1.6,0.3c-0.6,0-1.1-0.1-1.6-0.3s-0.8-0.6-1.1-1
		c-0.3-0.5-0.4-1-0.4-1.7v-4.7H114.7z"/>
	<path fill="#363636" d="M122.4,94.9v7.7h-1.5v-7.7H122.4z"/>
</g>
<g>
	<path fill="#363636" d="M214.2,32v4.9c0,0.7,0.2,1.2,0.5,1.5c0.3,0.3,0.8,0.5,1.4,0.5c0.6,0,1-0.2,1.4-0.5c0.3-0.3,0.5-0.8,0.5-1.5
		V32h1v4.8c0,0.6-0.1,1.2-0.4,1.6c-0.3,0.4-0.6,0.8-1,1c-0.4,0.2-0.9,0.3-1.5,0.3c-0.5,0-1-0.1-1.5-0.3c-0.4-0.2-0.8-0.5-1-1
		c-0.3-0.4-0.4-1-0.4-1.6V32H214.2z"/>
	<path fill="#363636" d="M221.6,39.5c-0.4-0.2-0.7-0.4-0.9-0.7c-0.2-0.3-0.3-0.6-0.4-1h1c0,0.3,0.2,0.5,0.4,0.7
		c0.3,0.2,0.6,0.3,1,0.3c0.4,0,0.7-0.1,0.9-0.3c0.2-0.2,0.3-0.4,0.3-0.6c0-0.3-0.1-0.5-0.4-0.6c-0.2-0.1-0.6-0.3-1.1-0.4
		c-0.4-0.1-0.8-0.2-1.1-0.4s-0.5-0.3-0.7-0.5c-0.2-0.2-0.3-0.6-0.3-0.9c0-0.3,0.1-0.6,0.3-0.8c0.2-0.3,0.4-0.5,0.8-0.6
		s0.7-0.2,1.2-0.2c0.7,0,1.2,0.2,1.6,0.5c0.4,0.3,0.6,0.8,0.7,1.4h-1c0-0.3-0.1-0.6-0.4-0.8c-0.2-0.2-0.5-0.3-0.9-0.3
		c-0.4,0-0.6,0.1-0.9,0.2c-0.2,0.2-0.3,0.4-0.3,0.6c0,0.2,0.1,0.4,0.2,0.5c0.1,0.1,0.3,0.2,0.5,0.3s0.5,0.2,0.8,0.3
		c0.4,0.1,0.8,0.2,1.1,0.3c0.3,0.1,0.5,0.3,0.7,0.5c0.2,0.2,0.3,0.5,0.3,0.9c0,0.3-0.1,0.6-0.3,0.9c-0.2,0.3-0.4,0.5-0.8,0.6
		c-0.3,0.2-0.7,0.2-1.1,0.2C222.3,39.7,221.9,39.7,221.6,39.5z"/>
	<path fill="#363636" d="M231.9,37h-4.8c0,0.6,0.2,1.1,0.6,1.4c0.4,0.3,0.8,0.5,1.3,0.5c0.4,0,0.8-0.1,1.1-0.3
		c0.3-0.2,0.5-0.5,0.6-0.8h1.1c-0.2,0.6-0.5,1.1-1,1.4c-0.5,0.4-1.1,0.5-1.8,0.5c-0.6,0-1.1-0.1-1.5-0.4s-0.8-0.6-1.1-1.1
		c-0.3-0.5-0.4-1-0.4-1.6c0-0.6,0.1-1.2,0.4-1.6c0.2-0.5,0.6-0.8,1.1-1.1c0.5-0.3,1-0.4,1.6-0.4c0.6,0,1.1,0.1,1.5,0.4s0.8,0.6,1,1
		s0.4,0.9,0.4,1.5C231.9,36.6,231.9,36.8,231.9,37z M230.6,35.2c-0.2-0.3-0.4-0.5-0.7-0.6c-0.3-0.1-0.6-0.2-1-0.2
		c-0.5,0-0.9,0.2-1.3,0.5c-0.4,0.3-0.6,0.8-0.6,1.3h3.8C230.9,35.8,230.8,35.5,230.6,35.2z"/>
	<path fill="#363636" d="M235,33.8c0.3-0.2,0.7-0.3,1.2-0.3v1h-0.3c-1.1,0-1.7,0.6-1.7,1.8v3.3h-1v-6h1v1
		C234.4,34.3,234.7,34,235,33.8z"/>
	<path fill="#363636" d="M241.3,32.8v2.6h2.8v0.8h-2.8v2.6h3.1v0.8h-4.1V32h4.1v0.8H241.3z"/>
	<path fill="#363636" d="M249.1,39.6l-1.4-2.2l-1.4,2.2h-1l1.9-3l-1.9-3h1.1l1.4,2.2l1.4-2.2h1l-1.9,3l1.9,3H249.1z"/>
	<path fill="#363636" d="M253.1,33.9c0.4-0.2,0.8-0.3,1.4-0.3c0.5,0,1,0.1,1.5,0.4c0.4,0.3,0.8,0.6,1,1.1c0.2,0.5,0.4,1,0.4,1.6
		c0,0.6-0.1,1.2-0.4,1.6c-0.2,0.5-0.6,0.8-1,1.1c-0.4,0.3-0.9,0.4-1.5,0.4c-0.5,0-1-0.1-1.4-0.3c-0.4-0.2-0.7-0.5-0.9-0.9v4h-1v-8.9
		h1v1.1C252.4,34.4,252.7,34.1,253.1,33.9z M256,35.4c-0.2-0.3-0.4-0.6-0.7-0.8s-0.7-0.3-1-0.3c-0.4,0-0.7,0.1-1,0.3
		s-0.6,0.4-0.7,0.8c-0.2,0.3-0.3,0.7-0.3,1.2c0,0.5,0.1,0.9,0.3,1.2c0.2,0.3,0.4,0.6,0.7,0.8s0.7,0.3,1,0.3c0.4,0,0.7-0.1,1-0.3
		s0.6-0.4,0.7-0.8c0.2-0.3,0.3-0.7,0.3-1.2C256.3,36.2,256.2,35.8,256,35.4z"/>
	<path fill="#363636" d="M264.1,37h-4.8c0,0.6,0.2,1.1,0.6,1.4c0.4,0.3,0.8,0.5,1.3,0.5c0.4,0,0.8-0.1,1.1-0.3
		c0.3-0.2,0.5-0.5,0.6-0.8h1.1c-0.2,0.6-0.5,1.1-1,1.4c-0.5,0.4-1.1,0.5-1.8,0.5c-0.6,0-1.1-0.1-1.5-0.4s-0.8-0.6-1.1-1.1
		c-0.3-0.5-0.4-1-0.4-1.6c0-0.6,0.1-1.2,0.4-1.6c0.2-0.5,0.6-0.8,1-1.1c0.5-0.3,1-0.4,1.6-0.4c0.6,0,1.1,0.1,1.5,0.4
		c0.4,0.2,0.8,0.6,1,1s0.4,0.9,0.4,1.5C264.1,36.6,264.1,36.8,264.1,37z M262.8,35.2c-0.2-0.3-0.4-0.5-0.7-0.6
		c-0.3-0.1-0.6-0.2-1-0.2c-0.5,0-0.9,0.2-1.3,0.5c-0.4,0.3-0.6,0.8-0.6,1.3h3.8C263.1,35.8,263,35.5,262.8,35.2z"/>
	<path fill="#363636" d="M267.2,33.8c0.3-0.2,0.7-0.3,1.2-0.3v1h-0.3c-1.1,0-1.7,0.6-1.7,1.8v3.3h-1v-6h1v1
		C266.6,34.3,266.9,34,267.2,33.8z"/>
	<path fill="#363636" d="M269.6,32.4c-0.1-0.1-0.2-0.3-0.2-0.5c0-0.2,0.1-0.4,0.2-0.5c0.1-0.1,0.3-0.2,0.5-0.2
		c0.2,0,0.3,0.1,0.5,0.2c0.1,0.1,0.2,0.3,0.2,0.5c0,0.2-0.1,0.4-0.2,0.5c-0.1,0.1-0.3,0.2-0.5,0.2C269.9,32.6,269.7,32.6,269.6,32.4
		z M270.5,33.6v6h-1v-6H270.5z"/>
	<path fill="#363636" d="M277.7,37h-4.8c0,0.6,0.2,1.1,0.6,1.4c0.4,0.3,0.8,0.5,1.3,0.5c0.4,0,0.8-0.1,1.1-0.3
		c0.3-0.2,0.5-0.5,0.6-0.8h1.1c-0.2,0.6-0.5,1.1-1,1.4c-0.5,0.4-1.1,0.5-1.8,0.5c-0.6,0-1.1-0.1-1.5-0.4s-0.8-0.6-1.1-1.1
		c-0.3-0.5-0.4-1-0.4-1.6c0-0.6,0.1-1.2,0.4-1.6c0.2-0.5,0.6-0.8,1-1.1c0.5-0.3,1-0.4,1.6-0.4c0.6,0,1.1,0.1,1.5,0.4
		c0.4,0.2,0.8,0.6,1,1s0.4,0.9,0.4,1.5C277.8,36.6,277.7,36.8,277.7,37z M276.5,35.2c-0.2-0.3-0.4-0.5-0.7-0.6
		c-0.3-0.1-0.6-0.2-1-0.2c-0.5,0-0.9,0.2-1.3,0.5c-0.4,0.3-0.6,0.8-0.6,1.3h3.8C276.7,35.8,276.6,35.5,276.5,35.2z"/>
	<path fill="#363636" d="M283.8,34.2c0.5,0.4,0.7,1.1,0.7,1.9v3.6h-1v-3.4c0-0.6-0.2-1.1-0.5-1.4c-0.3-0.3-0.7-0.5-1.2-0.5
		c-0.5,0-0.9,0.2-1.3,0.5c-0.3,0.3-0.5,0.8-0.5,1.4v3.3h-1v-6h1v0.9c0.2-0.3,0.5-0.5,0.8-0.7s0.7-0.3,1.1-0.3
		C282.7,33.5,283.3,33.7,283.8,34.2z"/>
	<path fill="#363636" d="M286.1,35c0.2-0.5,0.6-0.8,1-1.1c0.4-0.3,1-0.4,1.5-0.4c0.7,0,1.4,0.2,1.8,0.5s0.8,0.9,1,1.5h-1.1
		c-0.1-0.4-0.3-0.7-0.6-0.9c-0.3-0.2-0.7-0.3-1.1-0.3c-0.6,0-1,0.2-1.4,0.6c-0.4,0.4-0.5,0.9-0.5,1.7c0,0.7,0.2,1.3,0.5,1.7
		c0.4,0.4,0.8,0.6,1.4,0.6c0.4,0,0.8-0.1,1.1-0.3s0.5-0.5,0.6-0.9h1.1c-0.2,0.6-0.5,1.1-1,1.5c-0.5,0.4-1.1,0.6-1.8,0.6
		c-0.6,0-1.1-0.1-1.5-0.4c-0.4-0.3-0.8-0.6-1-1.1c-0.2-0.5-0.4-1-0.4-1.7C285.7,36,285.9,35.5,286.1,35z"/>
	<path fill="#363636" d="M298.3,37h-4.8c0,0.6,0.2,1.1,0.6,1.4c0.4,0.3,0.8,0.5,1.3,0.5c0.4,0,0.8-0.1,1.1-0.3
		c0.3-0.2,0.5-0.5,0.6-0.8h1.1c-0.2,0.6-0.5,1.1-1,1.4s-1.1,0.5-1.8,0.5c-0.6,0-1.1-0.1-1.5-0.4s-0.8-0.6-1.1-1.1
		c-0.3-0.5-0.4-1-0.4-1.6c0-0.6,0.1-1.2,0.4-1.6c0.2-0.5,0.6-0.8,1.1-1.1c0.5-0.3,1-0.4,1.6-0.4c0.6,0,1.1,0.1,1.5,0.4
		c0.4,0.2,0.8,0.6,1,1s0.4,0.9,0.4,1.5C298.3,36.6,298.3,36.8,298.3,37z M297,35.2c-0.2-0.3-0.4-0.5-0.7-0.6c-0.3-0.1-0.6-0.2-1-0.2
		c-0.5,0-0.9,0.2-1.3,0.5s-0.6,0.8-0.6,1.3h3.8C297.3,35.8,297.2,35.5,297,35.2z"/>
	<path fill="#363636" d="M303.6,39.5c-0.4-0.2-0.7-0.4-0.9-0.7s-0.3-0.7-0.4-1.1h1.1c0,0.4,0.2,0.7,0.4,0.9c0.3,0.2,0.6,0.4,1.1,0.4
		c0.5,0,0.9-0.1,1.1-0.4c0.3-0.2,0.4-0.5,0.4-0.9c0-0.3-0.1-0.5-0.2-0.7c-0.2-0.2-0.4-0.3-0.6-0.4c-0.2-0.1-0.6-0.2-1-0.3
		c-0.5-0.1-0.9-0.3-1.2-0.4c-0.3-0.1-0.6-0.3-0.8-0.6c-0.2-0.3-0.3-0.7-0.3-1.1c0-0.4,0.1-0.8,0.3-1.1c0.2-0.3,0.5-0.6,0.9-0.7
		c0.4-0.2,0.8-0.3,1.3-0.3c0.7,0,1.3,0.2,1.8,0.5c0.5,0.4,0.7,0.8,0.8,1.4h-1.1c0-0.3-0.2-0.6-0.5-0.8s-0.6-0.3-1.1-0.3
		c-0.4,0-0.8,0.1-1,0.3c-0.3,0.2-0.4,0.5-0.4,0.9c0,0.3,0.1,0.5,0.2,0.7c0.2,0.2,0.4,0.3,0.6,0.4c0.2,0.1,0.6,0.2,1,0.3
		c0.5,0.1,0.9,0.3,1.2,0.4c0.3,0.1,0.6,0.3,0.8,0.6c0.2,0.3,0.3,0.7,0.3,1.1c0,0.4-0.1,0.7-0.3,1.1c-0.2,0.3-0.5,0.6-0.9,0.8
		c-0.4,0.2-0.8,0.3-1.4,0.3C304.5,39.7,304,39.6,303.6,39.5z"/>
	<path fill="#363636" d="M310.2,34.4V38c0,0.3,0.1,0.5,0.2,0.6c0.1,0.1,0.3,0.2,0.6,0.2h0.7v0.8h-0.9c-0.6,0-1-0.1-1.3-0.4
		c-0.3-0.3-0.4-0.7-0.4-1.3v-3.6h-0.8v-0.8h0.8v-1.5h1v1.5h1.6v0.8H310.2z"/>
	<path fill="#363636" d="M314.8,33.8c0.3-0.2,0.7-0.3,1.2-0.3v1h-0.3c-1.1,0-1.7,0.6-1.7,1.8v3.3h-1v-6h1v1
		C314.2,34.3,314.4,34,314.8,33.8z"/>
	<path fill="#363636" d="M317.1,35c0.2-0.5,0.6-0.8,1-1.1c0.4-0.3,0.9-0.4,1.5-0.4c0.5,0,1,0.1,1.4,0.3s0.7,0.5,0.9,0.9v-1.1h1v6h-1
		v-1.1c-0.2,0.4-0.5,0.6-0.9,0.9c-0.4,0.2-0.8,0.3-1.4,0.3c-0.5,0-1-0.1-1.5-0.4s-0.8-0.6-1-1.1c-0.2-0.5-0.4-1-0.4-1.6
		C316.7,36,316.9,35.5,317.1,35z M321.6,35.4c-0.2-0.3-0.4-0.6-0.7-0.8s-0.7-0.3-1-0.3s-0.7,0.1-1,0.3c-0.3,0.2-0.6,0.4-0.7,0.8
		c-0.2,0.3-0.3,0.7-0.3,1.2c0,0.5,0.1,0.9,0.3,1.2c0.2,0.3,0.4,0.6,0.7,0.8c0.3,0.2,0.6,0.3,1,0.3s0.7-0.1,1-0.3s0.6-0.4,0.7-0.8
		c0.2-0.3,0.3-0.7,0.3-1.2C321.8,36.2,321.7,35.8,321.6,35.4z"/>
	<path fill="#363636" d="M325.8,34.4V38c0,0.3,0.1,0.5,0.2,0.6c0.1,0.1,0.3,0.2,0.6,0.2h0.7v0.8h-0.9c-0.6,0-1-0.1-1.3-0.4
		c-0.3-0.3-0.4-0.7-0.4-1.3v-3.6H324v-0.8h0.8v-1.5h1v1.5h1.6v0.8H325.8z"/>
	<path fill="#363636" d="M334,37h-4.8c0,0.6,0.2,1.1,0.6,1.4c0.4,0.3,0.8,0.5,1.3,0.5c0.4,0,0.8-0.1,1.1-0.3
		c0.3-0.2,0.5-0.5,0.6-0.8h1.1c-0.2,0.6-0.5,1.1-1,1.4s-1.1,0.5-1.8,0.5c-0.6,0-1.1-0.1-1.5-0.4s-0.8-0.6-1.1-1.1
		c-0.3-0.5-0.4-1-0.4-1.6c0-0.6,0.1-1.2,0.4-1.6c0.2-0.5,0.6-0.8,1.1-1.1c0.5-0.3,1-0.4,1.6-0.4c0.6,0,1.1,0.1,1.5,0.4
		c0.4,0.2,0.8,0.6,1,1s0.4,0.9,0.4,1.5C334,36.6,334,36.8,334,37z M332.8,35.2c-0.2-0.3-0.4-0.5-0.7-0.6c-0.3-0.1-0.6-0.2-1-0.2
		c-0.5,0-0.9,0.2-1.3,0.5s-0.6,0.8-0.6,1.3h3.8C333,35.8,332.9,35.5,332.8,35.2z"/>
	<path fill="#363636" d="M339.2,33.9c0.4,0.2,0.7,0.5,0.9,0.9v-1.1h1v6.2c0,0.5-0.1,1-0.4,1.5s-0.6,0.8-1,1
		c-0.4,0.2-0.9,0.4-1.5,0.4c-0.8,0-1.5-0.2-2-0.6c-0.5-0.4-0.8-0.9-0.9-1.5h1c0.1,0.4,0.3,0.7,0.7,0.9s0.8,0.3,1.2,0.3
		c0.5,0,1-0.2,1.3-0.5s0.5-0.8,0.5-1.5v-1.3c-0.2,0.4-0.5,0.6-0.9,0.9s-0.8,0.4-1.4,0.4c-0.5,0-1-0.1-1.5-0.4
		c-0.4-0.3-0.8-0.6-1-1.1c-0.2-0.5-0.4-1-0.4-1.6c0-0.6,0.1-1.2,0.4-1.6c0.2-0.5,0.6-0.8,1-1.1c0.4-0.3,0.9-0.4,1.5-0.4
		C338.4,33.5,338.8,33.6,339.2,33.9z M339.8,35.4c-0.2-0.3-0.4-0.6-0.7-0.8s-0.7-0.3-1-0.3s-0.7,0.1-1,0.3c-0.3,0.2-0.6,0.4-0.7,0.8
		c-0.2,0.3-0.3,0.7-0.3,1.2c0,0.5,0.1,0.9,0.3,1.2c0.2,0.3,0.4,0.6,0.7,0.8c0.3,0.2,0.6,0.3,1,0.3s0.7-0.1,1-0.3s0.6-0.4,0.7-0.8
		c0.2-0.3,0.3-0.7,0.3-1.2C340.1,36.2,340,35.8,339.8,35.4z"/>
	<path fill="#363636" d="M348,33.6l-3.6,8.9h-1l1.2-2.9l-2.4-6h1.1l1.9,4.9l1.9-4.9H348z"/>
	<path fill="#363636" d="M359.7,32v7.6h-1V34l-2.5,5.7h-0.7l-2.5-5.7v5.7h-1V32h1.1l2.8,6.3l2.8-6.3H359.7z"/>
	<path fill="#363636" d="M361.4,35c0.2-0.5,0.6-0.8,1-1.1s0.9-0.4,1.5-0.4c0.5,0,1,0.1,1.4,0.3s0.7,0.5,0.9,0.9v-1.1h1v6h-1v-1.1
		c-0.2,0.4-0.5,0.6-0.9,0.9c-0.4,0.2-0.8,0.3-1.4,0.3c-0.5,0-1-0.1-1.5-0.4c-0.4-0.3-0.8-0.6-1-1.1s-0.4-1-0.4-1.6
		C361,36,361.2,35.5,361.4,35z M365.9,35.4c-0.2-0.3-0.4-0.6-0.7-0.8c-0.3-0.2-0.7-0.3-1-0.3c-0.4,0-0.7,0.1-1,0.3s-0.6,0.4-0.7,0.8
		c-0.2,0.3-0.3,0.7-0.3,1.2c0,0.5,0.1,0.9,0.3,1.2c0.2,0.3,0.4,0.6,0.7,0.8s0.6,0.3,1,0.3c0.4,0,0.7-0.1,1-0.3
		c0.3-0.2,0.6-0.4,0.7-0.8c0.2-0.3,0.3-0.7,0.3-1.2C366.1,36.2,366,35.8,365.9,35.4z"/>
	<path fill="#363636" d="M369.7,39.5c-0.4-0.2-0.7-0.4-0.9-0.7c-0.2-0.3-0.3-0.6-0.4-1h1c0,0.3,0.2,0.5,0.4,0.7
		c0.3,0.2,0.6,0.3,1,0.3c0.4,0,0.7-0.1,0.9-0.3s0.3-0.4,0.3-0.6c0-0.3-0.1-0.5-0.4-0.6c-0.2-0.1-0.6-0.3-1.1-0.4
		c-0.4-0.1-0.8-0.2-1.1-0.4s-0.5-0.3-0.7-0.5c-0.2-0.2-0.3-0.6-0.3-0.9c0-0.3,0.1-0.6,0.3-0.8s0.4-0.5,0.8-0.6
		c0.3-0.2,0.7-0.2,1.2-0.2c0.7,0,1.2,0.2,1.6,0.5c0.4,0.3,0.6,0.8,0.7,1.4h-1c0-0.3-0.1-0.6-0.4-0.8c-0.2-0.2-0.5-0.3-0.9-0.3
		c-0.4,0-0.6,0.1-0.9,0.2s-0.3,0.4-0.3,0.6c0,0.2,0.1,0.4,0.2,0.5c0.1,0.1,0.3,0.2,0.5,0.3s0.5,0.2,0.8,0.3c0.4,0.1,0.8,0.2,1.1,0.3
		c0.3,0.1,0.5,0.3,0.7,0.5c0.2,0.2,0.3,0.5,0.3,0.9c0,0.3-0.1,0.6-0.3,0.9s-0.4,0.5-0.8,0.6c-0.3,0.2-0.7,0.2-1.1,0.2
		C370.5,39.7,370.1,39.7,369.7,39.5z"/>
	<path fill="#363636" d="M375.8,34.4V38c0,0.3,0.1,0.5,0.2,0.6c0.1,0.1,0.3,0.2,0.6,0.2h0.7v0.8h-0.9c-0.6,0-1-0.1-1.3-0.4
		c-0.3-0.3-0.4-0.7-0.4-1.3v-3.6H374v-0.8h0.8v-1.5h1v1.5h1.6v0.8H375.8z"/>
	<path fill="#363636" d="M384.1,37h-4.8c0,0.6,0.2,1.1,0.6,1.4c0.4,0.3,0.8,0.5,1.3,0.5c0.4,0,0.8-0.1,1.1-0.3
		c0.3-0.2,0.5-0.5,0.6-0.8h1.1c-0.2,0.6-0.5,1.1-1,1.4c-0.5,0.4-1.1,0.5-1.8,0.5c-0.6,0-1.1-0.1-1.5-0.4c-0.5-0.3-0.8-0.6-1.1-1.1
		c-0.3-0.5-0.4-1-0.4-1.6c0-0.6,0.1-1.2,0.4-1.6c0.2-0.5,0.6-0.8,1.1-1.1c0.5-0.3,1-0.4,1.6-0.4c0.6,0,1.1,0.1,1.5,0.4
		c0.4,0.2,0.8,0.6,1,1s0.4,0.9,0.4,1.5C384.1,36.6,384.1,36.8,384.1,37z M382.8,35.2c-0.2-0.3-0.4-0.5-0.7-0.6
		c-0.3-0.1-0.6-0.2-1-0.2c-0.5,0-0.9,0.2-1.3,0.5s-0.6,0.8-0.6,1.3h3.8C383.1,35.8,383,35.5,382.8,35.2z"/>
	<path fill="#363636" d="M387.2,33.8c0.3-0.2,0.7-0.3,1.2-0.3v1h-0.3c-1.1,0-1.7,0.6-1.7,1.8v3.3h-1v-6h1v1
		C386.6,34.3,386.8,34,387.2,33.8z"/>
	<path fill="#363636" d="M389.5,35c0.2-0.5,0.6-0.8,1-1.1c0.4-0.3,1-0.4,1.5-0.4c0.7,0,1.4,0.2,1.8,0.5s0.8,0.9,1,1.5h-1.1
		c-0.1-0.4-0.3-0.7-0.6-0.9s-0.7-0.3-1.1-0.3c-0.6,0-1,0.2-1.4,0.6c-0.4,0.4-0.5,0.9-0.5,1.7c0,0.7,0.2,1.3,0.5,1.7
		c0.4,0.4,0.8,0.6,1.4,0.6c0.4,0,0.8-0.1,1.1-0.3s0.5-0.5,0.6-0.9h1.1c-0.2,0.6-0.5,1.1-1,1.5c-0.5,0.4-1.1,0.6-1.8,0.6
		c-0.6,0-1.1-0.1-1.5-0.4c-0.4-0.3-0.8-0.6-1-1.1c-0.2-0.5-0.4-1-0.4-1.7C389.1,36,389.3,35.5,389.5,35z"/>
	<path fill="#363636" d="M397.2,31.5v8.1h-1v-8.1H397.2z"/>
	<path fill="#363636" d="M398.9,35c0.2-0.5,0.6-0.8,1-1.1c0.4-0.3,0.9-0.4,1.5-0.4c0.5,0,1,0.1,1.4,0.3s0.7,0.5,0.9,0.9v-1.1h1v6h-1
		v-1.1c-0.2,0.4-0.5,0.6-0.9,0.9c-0.4,0.2-0.8,0.3-1.4,0.3c-0.5,0-1-0.1-1.5-0.4s-0.8-0.6-1-1.1c-0.2-0.5-0.4-1-0.4-1.6
		C398.5,36,398.6,35.5,398.9,35z M403.3,35.4c-0.2-0.3-0.4-0.6-0.7-0.8s-0.7-0.3-1-0.3s-0.7,0.1-1,0.3c-0.3,0.2-0.6,0.4-0.7,0.8
		c-0.2,0.3-0.3,0.7-0.3,1.2c0,0.5,0.1,0.9,0.3,1.2c0.2,0.3,0.4,0.6,0.7,0.8c0.3,0.2,0.6,0.3,1,0.3s0.7-0.1,1-0.3s0.6-0.4,0.7-0.8
		c0.2-0.3,0.3-0.7,0.3-1.2C403.6,36.2,403.5,35.8,403.3,35.4z"/>
	<path fill="#363636" d="M407.2,39.5c-0.4-0.2-0.7-0.4-0.9-0.7c-0.2-0.3-0.3-0.6-0.4-1h1c0,0.3,0.2,0.5,0.4,0.7
		c0.3,0.2,0.6,0.3,1,0.3c0.4,0,0.7-0.1,0.9-0.3s0.3-0.4,0.3-0.6c0-0.3-0.1-0.5-0.4-0.6c-0.2-0.1-0.6-0.3-1.1-0.4
		c-0.4-0.1-0.8-0.2-1.1-0.4s-0.5-0.3-0.7-0.5c-0.2-0.2-0.3-0.6-0.3-0.9c0-0.3,0.1-0.6,0.3-0.8s0.4-0.5,0.8-0.6
		c0.3-0.2,0.7-0.2,1.2-0.2c0.7,0,1.2,0.2,1.6,0.5c0.4,0.3,0.6,0.8,0.7,1.4h-1c0-0.3-0.1-0.6-0.4-0.8c-0.2-0.2-0.5-0.3-0.9-0.3
		c-0.4,0-0.6,0.1-0.9,0.2s-0.3,0.4-0.3,0.6c0,0.2,0.1,0.4,0.2,0.5c0.1,0.1,0.3,0.2,0.5,0.3s0.5,0.2,0.8,0.3c0.4,0.1,0.8,0.2,1.1,0.3
		c0.3,0.1,0.5,0.3,0.7,0.5c0.2,0.2,0.3,0.5,0.3,0.9c0,0.3-0.1,0.6-0.3,0.9c-0.2,0.3-0.4,0.5-0.8,0.6c-0.3,0.2-0.7,0.2-1.1,0.2
		C408,39.7,407.6,39.7,407.2,39.5z"/>
	<path fill="#363636" d="M413,39.5c-0.4-0.2-0.7-0.4-0.9-0.7c-0.2-0.3-0.3-0.6-0.4-1h1c0,0.3,0.2,0.5,0.4,0.7c0.3,0.2,0.6,0.3,1,0.3
		c0.4,0,0.7-0.1,0.9-0.3s0.3-0.4,0.3-0.6c0-0.3-0.1-0.5-0.4-0.6c-0.2-0.1-0.6-0.3-1.1-0.4c-0.4-0.1-0.8-0.2-1.1-0.4
		s-0.5-0.3-0.7-0.5c-0.2-0.2-0.3-0.6-0.3-0.9c0-0.3,0.1-0.6,0.3-0.8s0.4-0.5,0.8-0.6c0.3-0.2,0.7-0.2,1.2-0.2c0.7,0,1.2,0.2,1.6,0.5
		c0.4,0.3,0.6,0.8,0.7,1.4h-1c0-0.3-0.1-0.6-0.4-0.8c-0.2-0.2-0.5-0.3-0.9-0.3c-0.4,0-0.6,0.1-0.9,0.2s-0.3,0.4-0.3,0.6
		c0,0.2,0.1,0.4,0.2,0.5c0.1,0.1,0.3,0.2,0.5,0.3s0.5,0.2,0.8,0.3c0.4,0.1,0.8,0.2,1.1,0.3c0.3,0.1,0.5,0.3,0.7,0.5
		c0.2,0.2,0.3,0.5,0.3,0.9c0,0.3-0.1,0.6-0.3,0.9c-0.2,0.3-0.4,0.5-0.8,0.6c-0.3,0.2-0.7,0.2-1.1,0.2
		C413.7,39.7,413.3,39.7,413,39.5z"/>
</g>
<g>
	<path fill="#363636" d="M216.9,54.5h-2.5l-0.4,1.2h-1.3l2.3-6.3h1.5l2.3,6.3h-1.3L216.9,54.5z M216.5,53.5l-0.9-2.6l-0.9,2.6H216.5
		z"/>
	<path fill="#363636" d="M223.7,51.2c0.4,0.4,0.5,0.9,0.5,1.6v2.9H223v-2.8c0-0.4-0.1-0.7-0.3-0.9c-0.2-0.2-0.5-0.3-0.8-0.3
		c-0.3,0-0.6,0.1-0.8,0.3c-0.2,0.2-0.3,0.5-0.3,0.9v2.8h-1.3v-5h1.3v0.6c0.2-0.2,0.4-0.4,0.6-0.5c0.3-0.1,0.5-0.2,0.9-0.2
		C222.8,50.6,223.3,50.8,223.7,51.2z"/>
	<path fill="#363636" d="M225.4,51.8c0.2-0.4,0.5-0.7,0.8-0.9s0.7-0.3,1.2-0.3c0.3,0,0.6,0.1,0.9,0.2s0.5,0.3,0.7,0.6V49h1.3v6.7
		H229v-0.7c-0.2,0.2-0.4,0.4-0.7,0.6c-0.3,0.1-0.6,0.2-1,0.2c-0.4,0-0.8-0.1-1.2-0.3s-0.6-0.5-0.8-0.9c-0.2-0.4-0.3-0.8-0.3-1.4
		C225.1,52.6,225.2,52.2,225.4,51.8z M228.8,52.4c-0.1-0.2-0.3-0.4-0.5-0.5c-0.2-0.1-0.4-0.2-0.7-0.2s-0.4,0.1-0.6,0.2
		s-0.4,0.3-0.5,0.5c-0.1,0.2-0.2,0.5-0.2,0.8s0.1,0.6,0.2,0.8c0.1,0.2,0.3,0.4,0.5,0.5s0.4,0.2,0.6,0.2c0.2,0,0.5-0.1,0.7-0.2
		c0.2-0.1,0.4-0.3,0.5-0.5c0.1-0.2,0.2-0.5,0.2-0.8C229,52.9,229,52.6,228.8,52.4z"/>
	<path fill="#363636" d="M236.3,50.7l-3.1,7.3h-1.3l1.1-2.5l-2-4.9h1.4l1.3,3.5l1.3-3.5H236.3z"/>
	<path fill="#363636" d="M247.5,49.4l-1.8,6.3h-1.5l-1.2-4.5l-1.2,4.5l-1.5,0l-1.7-6.3h1.3l1.1,4.9l1.3-4.9h1.4l1.2,4.9l1.1-4.9
		H247.5z"/>
	<path fill="#363636" d="M249.2,55.4c-0.4-0.2-0.7-0.5-0.9-0.9c-0.2-0.4-0.3-0.8-0.3-1.4s0.1-1,0.3-1.3c0.2-0.4,0.5-0.7,0.9-0.9
		s0.8-0.3,1.3-0.3s0.9,0.1,1.3,0.3c0.4,0.2,0.7,0.5,0.9,0.9c0.2,0.4,0.3,0.8,0.3,1.3s-0.1,1-0.3,1.4c-0.2,0.4-0.5,0.7-0.9,0.9
		s-0.8,0.3-1.3,0.3C250.1,55.7,249.6,55.6,249.2,55.4z M251.2,54.5c0.2-0.1,0.4-0.3,0.5-0.5c0.1-0.2,0.2-0.5,0.2-0.8
		c0-0.5-0.1-0.8-0.4-1.1c-0.2-0.3-0.6-0.4-0.9-0.4s-0.7,0.1-0.9,0.4c-0.2,0.3-0.4,0.6-0.4,1.1c0,0.5,0.1,0.8,0.4,1.1
		s0.5,0.4,0.9,0.4C250.8,54.6,251,54.6,251.2,54.5z"/>
	<path fill="#363636" d="M258.8,50.7l-3.1,7.3h-1.3l1.1-2.5l-2-4.9h1.4l1.3,3.5l1.3-3.5H258.8z"/>
	<path fill="#363636" d="M263.7,51.2c0.4,0.4,0.5,0.9,0.5,1.6v2.9H263v-2.8c0-0.4-0.1-0.7-0.3-0.9c-0.2-0.2-0.5-0.3-0.8-0.3
		c-0.3,0-0.6,0.1-0.8,0.3c-0.2,0.2-0.3,0.5-0.3,0.9v2.8h-1.3v-5h1.3v0.6c0.2-0.2,0.4-0.4,0.6-0.5c0.3-0.1,0.5-0.2,0.9-0.2
		C262.9,50.6,263.3,50.8,263.7,51.2z"/>
	<path fill="#363636" d="M265.4,51.8c0.2-0.4,0.5-0.7,0.8-0.9c0.3-0.2,0.7-0.3,1.2-0.3c0.4,0,0.7,0.1,1,0.2c0.3,0.1,0.5,0.3,0.7,0.6
		v-0.7h1.3v5h-1.3v-0.7c-0.2,0.2-0.4,0.4-0.7,0.6c-0.3,0.2-0.6,0.2-1,0.2c-0.4,0-0.8-0.1-1.1-0.3c-0.3-0.2-0.6-0.5-0.8-0.9
		c-0.2-0.4-0.3-0.8-0.3-1.4C265.1,52.6,265.2,52.2,265.4,51.8z M268.9,52.4c-0.1-0.2-0.3-0.4-0.5-0.5c-0.2-0.1-0.4-0.2-0.7-0.2
		c-0.2,0-0.4,0.1-0.6,0.2s-0.4,0.3-0.5,0.5c-0.1,0.2-0.2,0.5-0.2,0.8s0.1,0.6,0.2,0.8c0.1,0.2,0.3,0.4,0.5,0.5s0.4,0.2,0.6,0.2
		c0.2,0,0.5-0.1,0.7-0.2c0.2-0.1,0.4-0.3,0.5-0.5c0.1-0.2,0.2-0.5,0.2-0.8C269.1,52.9,269,52.6,268.9,52.4z"/>
	<path fill="#363636" d="M273.4,50.8c0.3-0.1,0.6-0.2,0.9-0.2v1.3H274c-0.4,0-0.7,0.1-0.9,0.3c-0.2,0.2-0.3,0.5-0.3,1v2.5h-1.3v-5
		h1.3v0.8C273,51.2,273.2,51,273.4,50.8z"/>
	<path fill="#363636" d="M276.1,55.4c-0.4-0.2-0.7-0.5-0.9-0.9c-0.2-0.4-0.3-0.8-0.3-1.4s0.1-1,0.3-1.3c0.2-0.4,0.5-0.7,0.9-0.9
		c0.4-0.2,0.8-0.3,1.3-0.3c0.5,0,0.9,0.1,1.3,0.3c0.4,0.2,0.7,0.5,0.9,0.9c0.2,0.4,0.3,0.8,0.3,1.3s-0.1,1-0.3,1.4
		c-0.2,0.4-0.5,0.7-0.9,0.9c-0.4,0.2-0.8,0.3-1.3,0.3C276.9,55.7,276.5,55.6,276.1,55.4z M278,54.5c0.2-0.1,0.4-0.3,0.5-0.5
		c0.1-0.2,0.2-0.5,0.2-0.8c0-0.5-0.1-0.8-0.4-1.1c-0.2-0.3-0.6-0.4-0.9-0.4c-0.4,0-0.7,0.1-0.9,0.4c-0.2,0.3-0.4,0.6-0.4,1.1
		c0,0.5,0.1,0.8,0.4,1.1c0.2,0.3,0.5,0.4,0.9,0.4C277.6,54.6,277.8,54.6,278,54.5z"/>
	<path fill="#363636" d="M287.8,50.7l-1.5,5H285l-0.9-3.5l-0.9,3.5h-1.4l-1.5-5h1.3l0.9,3.8l1-3.8h1.3l0.9,3.8l0.9-3.8H287.8z"/>
	<path fill="#363636" d="M289.3,55.5c-0.3-0.1-0.6-0.3-0.8-0.6c-0.2-0.3-0.3-0.5-0.3-0.8h1.3c0,0.2,0.1,0.4,0.3,0.5s0.4,0.2,0.6,0.2
		c0.2,0,0.4,0,0.6-0.1c0.1-0.1,0.2-0.2,0.2-0.4c0-0.2-0.1-0.3-0.2-0.4s-0.4-0.2-0.8-0.3c-0.4-0.1-0.7-0.2-0.9-0.3
		c-0.2-0.1-0.4-0.2-0.6-0.4c-0.2-0.2-0.3-0.5-0.3-0.8c0-0.3,0.1-0.5,0.2-0.8c0.2-0.2,0.4-0.4,0.7-0.5s0.6-0.2,1-0.2
		c0.6,0,1.1,0.1,1.4,0.4c0.4,0.3,0.5,0.7,0.6,1.2h-1.2c0-0.2-0.1-0.4-0.2-0.5c-0.1-0.1-0.3-0.2-0.6-0.2c-0.2,0-0.4,0-0.5,0.1
		c-0.1,0.1-0.2,0.2-0.2,0.4c0,0.2,0.1,0.3,0.3,0.4c0.2,0.1,0.4,0.2,0.8,0.3c0.4,0.1,0.7,0.2,0.9,0.3s0.4,0.2,0.6,0.4
		s0.3,0.5,0.3,0.8c0,0.3-0.1,0.5-0.2,0.8c-0.2,0.2-0.4,0.4-0.7,0.5c-0.3,0.1-0.6,0.2-1,0.2C290,55.7,289.7,55.7,289.3,55.5z"/>
	<path fill="#363636" d="M296.4,55.7l-1.7-2.1v2.1h-1.3V49h1.3v3.8l1.7-2.1h1.6l-2.2,2.5l2.2,2.5H296.4z"/>
	<path fill="#363636" d="M298.8,49.9c-0.1-0.1-0.2-0.3-0.2-0.5c0-0.2,0.1-0.4,0.2-0.5c0.1-0.1,0.3-0.2,0.6-0.2s0.4,0.1,0.6,0.2
		c0.1,0.1,0.2,0.3,0.2,0.5c0,0.2-0.1,0.4-0.2,0.5c-0.1,0.1-0.3,0.2-0.6,0.2S298.9,50,298.8,49.9z M299.9,50.7v5h-1.3v-5H299.9z"/>
	<path fill="#363636" d="M302.6,54.3l-1.1,2.5h-0.8l0.6-2.5H302.6z"/>
	<path fill="#363636" d="M306.6,55.5c-0.4-0.1-0.6-0.4-0.8-0.6c-0.2-0.3-0.3-0.6-0.3-1h1.4c0,0.3,0.1,0.5,0.3,0.6
		c0.2,0.2,0.4,0.2,0.7,0.2c0.3,0,0.5-0.1,0.7-0.2c0.2-0.1,0.3-0.3,0.3-0.6c0-0.2-0.1-0.3-0.2-0.5s-0.3-0.2-0.4-0.3s-0.4-0.1-0.7-0.2
		c-0.4-0.1-0.7-0.2-1-0.4c-0.3-0.1-0.5-0.3-0.7-0.5c-0.2-0.2-0.3-0.6-0.3-0.9c0-0.4,0.1-0.7,0.3-1c0.2-0.3,0.4-0.5,0.8-0.6
		c0.3-0.1,0.7-0.2,1.2-0.2c0.6,0,1.2,0.2,1.6,0.5c0.4,0.3,0.6,0.8,0.7,1.3h-1.4c0-0.2-0.1-0.4-0.3-0.5c-0.2-0.1-0.4-0.2-0.7-0.2
		c-0.2,0-0.4,0.1-0.6,0.2s-0.2,0.3-0.2,0.5c0,0.2,0.1,0.3,0.2,0.4c0.1,0.1,0.2,0.2,0.4,0.3s0.4,0.1,0.7,0.2c0.4,0.1,0.7,0.2,1,0.4
		s0.5,0.3,0.7,0.5c0.2,0.2,0.3,0.6,0.3,0.9c0,0.3-0.1,0.6-0.3,0.9s-0.4,0.5-0.8,0.7s-0.7,0.3-1.2,0.3
		C307.4,55.7,307,55.7,306.6,55.5z"/>
	<path fill="#363636" d="M314.1,55.7l-1.7-2.1v2.1h-1.3V49h1.3v3.8l1.7-2.1h1.6l-2.2,2.5l2.2,2.5H314.1z"/>
	<path fill="#363636" d="M316.4,49.9c-0.1-0.1-0.2-0.3-0.2-0.5c0-0.2,0.1-0.4,0.2-0.5c0.1-0.1,0.3-0.2,0.6-0.2s0.4,0.1,0.6,0.2
		c0.1,0.1,0.2,0.3,0.2,0.5c0,0.2-0.1,0.4-0.2,0.5c-0.1,0.1-0.3,0.2-0.6,0.2S316.6,50,316.4,49.9z M317.6,50.7v5h-1.3v-5H317.6z"/>
	<path fill="#363636" d="M320.1,49v6.7h-1.3V49H320.1z"/>
	<path fill="#363636" d="M322.6,49v6.7h-1.3V49H322.6z"/>
	<path fill="#363636" d="M324.7,55.5c-0.3-0.1-0.6-0.3-0.8-0.6c-0.2-0.3-0.3-0.5-0.3-0.8h1.3c0,0.2,0.1,0.4,0.3,0.5s0.4,0.2,0.6,0.2
		c0.2,0,0.4,0,0.6-0.1s0.2-0.2,0.2-0.4c0-0.2-0.1-0.3-0.2-0.4s-0.4-0.2-0.8-0.3c-0.4-0.1-0.7-0.2-0.9-0.3c-0.2-0.1-0.4-0.2-0.6-0.4
		c-0.2-0.2-0.3-0.5-0.3-0.8c0-0.3,0.1-0.5,0.2-0.8c0.2-0.2,0.4-0.4,0.7-0.5c0.3-0.1,0.6-0.2,1-0.2c0.6,0,1.1,0.1,1.4,0.4
		c0.4,0.3,0.5,0.7,0.6,1.2h-1.2c0-0.2-0.1-0.4-0.2-0.5s-0.3-0.2-0.6-0.2c-0.2,0-0.4,0-0.5,0.1c-0.1,0.1-0.2,0.2-0.2,0.4
		c0,0.2,0.1,0.3,0.3,0.4c0.2,0.1,0.4,0.2,0.8,0.3c0.4,0.1,0.7,0.2,0.9,0.3c0.2,0.1,0.4,0.2,0.6,0.4s0.3,0.5,0.3,0.8
		c0,0.3-0.1,0.5-0.2,0.8c-0.2,0.2-0.4,0.4-0.7,0.5s-0.6,0.2-1,0.2C325.4,55.7,325,55.7,324.7,55.5z"/>
	<path fill="#363636" d="M332.6,50.9c0.3,0.2,0.5,0.4,0.7,0.7c0.2,0.3,0.2,0.7,0.2,1.2v2.9h-1.3v-2.8c0-0.4-0.1-0.7-0.3-0.9
		c-0.2-0.2-0.5-0.3-0.8-0.3c-0.3,0-0.6,0.1-0.8,0.3c-0.2,0.2-0.3,0.5-0.3,0.9v2.8h-1.3V49h1.3v2.3c0.2-0.2,0.4-0.4,0.6-0.5
		c0.3-0.1,0.6-0.2,0.9-0.2C332,50.6,332.3,50.7,332.6,50.9z"/>
	<path fill="#363636" d="M334.7,51.8c0.2-0.4,0.5-0.7,0.8-0.9c0.3-0.2,0.7-0.3,1.2-0.3c0.4,0,0.7,0.1,1,0.2c0.3,0.1,0.5,0.3,0.7,0.6
		v-0.7h1.3v5h-1.3v-0.7c-0.2,0.2-0.4,0.4-0.7,0.6c-0.3,0.2-0.6,0.2-1,0.2c-0.4,0-0.8-0.1-1.1-0.3c-0.3-0.2-0.6-0.5-0.8-0.9
		c-0.2-0.4-0.3-0.8-0.3-1.4C334.4,52.6,334.5,52.2,334.7,51.8z M338.1,52.4c-0.1-0.2-0.3-0.4-0.5-0.5c-0.2-0.1-0.4-0.2-0.7-0.2
		c-0.2,0-0.4,0.1-0.6,0.2s-0.4,0.3-0.5,0.5c-0.1,0.2-0.2,0.5-0.2,0.8s0.1,0.6,0.2,0.8c0.1,0.2,0.3,0.4,0.5,0.5s0.4,0.2,0.6,0.2
		c0.2,0,0.5-0.1,0.7-0.2c0.2-0.1,0.4-0.3,0.5-0.5c0.1-0.2,0.2-0.5,0.2-0.8C338.3,52.9,338.3,52.6,338.1,52.4z"/>
	<path fill="#363636" d="M342.7,50.8c0.3-0.1,0.6-0.2,0.9-0.2v1.3h-0.3c-0.4,0-0.7,0.1-0.9,0.3c-0.2,0.2-0.3,0.5-0.3,1v2.5h-1.3v-5
		h1.3v0.8C342.2,51.2,342.5,51,342.7,50.8z"/>
	<path fill="#363636" d="M349.1,53.5h-3.6c0,0.4,0.2,0.6,0.4,0.8c0.2,0.2,0.5,0.3,0.8,0.3c0.5,0,0.8-0.2,1-0.6h1.4
		c-0.1,0.5-0.4,0.9-0.8,1.2c-0.4,0.3-0.9,0.5-1.5,0.5c-0.5,0-0.9-0.1-1.3-0.3s-0.7-0.5-0.9-0.9c-0.2-0.4-0.3-0.8-0.3-1.4
		c0-0.5,0.1-1,0.3-1.4c0.2-0.4,0.5-0.7,0.9-0.9s0.8-0.3,1.3-0.3c0.5,0,0.9,0.1,1.3,0.3s0.7,0.5,0.9,0.9s0.3,0.8,0.3,1.3
		C349.1,53.2,349.1,53.4,349.1,53.5z M347.8,52.7c0-0.3-0.1-0.6-0.4-0.8c-0.2-0.2-0.5-0.3-0.8-0.3c-0.3,0-0.6,0.1-0.8,0.3
		c-0.2,0.2-0.3,0.5-0.4,0.8H347.8z"/>
</g>
<g>
	<path fill="#363636" d="M217.9,89.9c0.2,0.2,0.4,0.4,0.5,0.7s0.2,0.6,0.2,0.9c0,0.4-0.1,0.7-0.3,1c-0.2,0.3-0.5,0.6-0.9,0.7
		c-0.4,0.2-0.8,0.3-1.3,0.3h-2.9v-7.7h2.8c0.5,0,1,0.1,1.3,0.3c0.4,0.2,0.6,0.4,0.8,0.7s0.3,0.6,0.3,1c0,0.5-0.1,0.8-0.4,1.1
		c-0.2,0.3-0.6,0.5-1,0.6C217.4,89.6,217.6,89.7,217.9,89.9z M214.2,89.1h1.7c0.5,0,0.8-0.1,1.1-0.3c0.3-0.2,0.4-0.5,0.4-0.9
		s-0.1-0.7-0.4-0.9c-0.3-0.2-0.6-0.3-1.1-0.3h-1.7V89.1z M217.2,92.3c0.3-0.2,0.4-0.6,0.4-1c0-0.4-0.1-0.8-0.4-1
		c-0.3-0.2-0.7-0.4-1.2-0.4h-1.7v2.7h1.8C216.5,92.7,216.9,92.6,217.2,92.3z"/>
	<path fill="#363636" d="M225.3,87.5v6h-1v-0.9c-0.2,0.3-0.5,0.5-0.8,0.7c-0.3,0.2-0.7,0.3-1.1,0.3c-0.5,0-0.9-0.1-1.3-0.3
		s-0.7-0.5-0.9-0.9c-0.2-0.4-0.3-0.9-0.3-1.4v-3.5h1v3.4c0,0.6,0.1,1.1,0.5,1.4c0.3,0.3,0.7,0.5,1.2,0.5c0.5,0,1-0.2,1.3-0.5
		s0.5-0.8,0.5-1.4v-3.3H225.3z"/>
	<path fill="#363636" d="M227.1,86.3c-0.1-0.1-0.2-0.3-0.2-0.5c0-0.2,0.1-0.4,0.2-0.5c0.1-0.1,0.3-0.2,0.5-0.2
		c0.2,0,0.3,0.1,0.5,0.2s0.2,0.3,0.2,0.5c0,0.2-0.1,0.4-0.2,0.5s-0.3,0.2-0.5,0.2C227.4,86.5,227.2,86.4,227.1,86.3z M228,87.5v6h-1
		v-6H228z"/>
	<path fill="#363636" d="M230.7,85.4v8.1h-1v-8.1H230.7z"/>
	<path fill="#363636" d="M232.4,88.8c0.2-0.5,0.6-0.8,1-1.1c0.4-0.3,0.9-0.4,1.5-0.4c0.5,0,0.9,0.1,1.3,0.3c0.4,0.2,0.7,0.5,0.9,0.9
		v-3.2h1v8.1h-1v-1.1c-0.2,0.4-0.5,0.7-0.9,0.9c-0.4,0.2-0.8,0.3-1.4,0.3c-0.5,0-1-0.1-1.5-0.4c-0.4-0.3-0.8-0.6-1-1.1
		c-0.2-0.5-0.4-1-0.4-1.6C232.1,89.8,232.2,89.3,232.4,88.8z M236.9,89.3c-0.2-0.3-0.4-0.6-0.7-0.8c-0.3-0.2-0.7-0.3-1-0.3
		c-0.4,0-0.7,0.1-1,0.3c-0.3,0.2-0.6,0.4-0.7,0.8c-0.2,0.3-0.3,0.7-0.3,1.2c0,0.5,0.1,0.9,0.3,1.2c0.2,0.3,0.4,0.6,0.7,0.8
		c0.3,0.2,0.6,0.3,1,0.3c0.4,0,0.7-0.1,1-0.3c0.3-0.2,0.6-0.4,0.7-0.8c0.2-0.3,0.3-0.7,0.3-1.2C237.2,90,237.1,89.6,236.9,89.3z"/>
	<path fill="#363636" d="M247.4,86.3c0.6,0.3,1.1,0.8,1.4,1.3c0.3,0.6,0.5,1.3,0.5,2c0,0.8-0.2,1.5-0.5,2c-0.3,0.6-0.8,1-1.4,1.3
		c-0.6,0.3-1.3,0.5-2.2,0.5h-2.4v-7.7h2.4C246,85.8,246.8,86,247.4,86.3z M247.5,91.9c0.5-0.5,0.8-1.3,0.8-2.2c0-1-0.3-1.7-0.8-2.2
		c-0.5-0.5-1.3-0.8-2.3-0.8h-1.4v6h1.4C246.2,92.7,246.9,92.4,247.5,91.9z"/>
	<path fill="#363636" d="M256.1,90.9h-4.8c0,0.6,0.2,1.1,0.6,1.4c0.4,0.3,0.8,0.5,1.3,0.5c0.4,0,0.8-0.1,1.1-0.3
		c0.3-0.2,0.5-0.5,0.6-0.8h1.1c-0.2,0.6-0.5,1.1-1,1.4c-0.5,0.4-1.1,0.5-1.8,0.5c-0.6,0-1.1-0.1-1.5-0.4s-0.8-0.6-1.1-1.1
		c-0.3-0.5-0.4-1-0.4-1.6c0-0.6,0.1-1.2,0.4-1.6c0.2-0.5,0.6-0.8,1.1-1.1c0.5-0.3,1-0.4,1.6-0.4c0.6,0,1.1,0.1,1.5,0.4s0.8,0.6,1,1
		s0.4,0.9,0.4,1.5C256.1,90.4,256.1,90.6,256.1,90.9z M254.8,89.1c-0.2-0.3-0.4-0.5-0.7-0.6c-0.3-0.1-0.6-0.2-1-0.2
		c-0.5,0-0.9,0.2-1.3,0.5c-0.4,0.3-0.6,0.8-0.6,1.3h3.8C255.1,89.7,255,89.3,254.8,89.1z"/>
	<path fill="#363636" d="M258.3,93.4c-0.4-0.2-0.7-0.4-0.9-0.7c-0.2-0.3-0.3-0.6-0.4-1h1c0,0.3,0.2,0.5,0.4,0.7
		c0.3,0.2,0.6,0.3,1,0.3c0.4,0,0.7-0.1,0.9-0.3s0.3-0.4,0.3-0.6c0-0.3-0.1-0.5-0.4-0.6c-0.2-0.1-0.6-0.3-1.1-0.4
		c-0.4-0.1-0.8-0.2-1.1-0.4s-0.5-0.3-0.7-0.5c-0.2-0.2-0.3-0.6-0.3-0.9c0-0.3,0.1-0.6,0.3-0.8c0.2-0.3,0.4-0.5,0.8-0.6
		c0.3-0.2,0.7-0.2,1.2-0.2c0.7,0,1.2,0.2,1.6,0.5c0.4,0.3,0.6,0.8,0.7,1.4h-1c0-0.3-0.1-0.6-0.4-0.8c-0.2-0.2-0.5-0.3-0.9-0.3
		c-0.4,0-0.6,0.1-0.9,0.2s-0.3,0.4-0.3,0.6c0,0.2,0.1,0.4,0.2,0.5c0.1,0.1,0.3,0.2,0.5,0.3s0.5,0.2,0.8,0.3c0.4,0.1,0.8,0.2,1.1,0.3
		c0.3,0.1,0.5,0.3,0.7,0.5c0.2,0.2,0.3,0.5,0.3,0.9c0,0.3-0.1,0.6-0.3,0.9s-0.4,0.5-0.8,0.6c-0.3,0.2-0.7,0.2-1.1,0.2
		C259.1,93.6,258.7,93.5,258.3,93.4z"/>
	<path fill="#363636" d="M263.2,86.3c-0.1-0.1-0.2-0.3-0.2-0.5c0-0.2,0.1-0.4,0.2-0.5s0.3-0.2,0.5-0.2c0.2,0,0.3,0.1,0.5,0.2
		c0.1,0.1,0.2,0.3,0.2,0.5c0,0.2-0.1,0.4-0.2,0.5c-0.1,0.1-0.3,0.2-0.5,0.2C263.5,86.5,263.3,86.4,263.2,86.3z M264.2,87.5v6h-1v-6
		H264.2z"/>
	<path fill="#363636" d="M269.7,87.7c0.4,0.2,0.7,0.5,0.9,0.9v-1.1h1v6.2c0,0.5-0.1,1-0.4,1.5c-0.2,0.4-0.6,0.8-1,1
		c-0.4,0.2-0.9,0.4-1.5,0.4c-0.8,0-1.5-0.2-2-0.6c-0.5-0.4-0.8-0.9-0.9-1.5h1c0.1,0.4,0.3,0.7,0.7,0.9s0.8,0.3,1.2,0.3
		c0.5,0,1-0.2,1.3-0.5c0.3-0.3,0.5-0.8,0.5-1.5v-1.3c-0.2,0.4-0.5,0.6-0.9,0.9s-0.8,0.4-1.4,0.4c-0.5,0-1-0.1-1.5-0.4
		s-0.8-0.6-1-1.1s-0.4-1-0.4-1.6c0-0.6,0.1-1.2,0.4-1.6s0.6-0.8,1-1.1s0.9-0.4,1.5-0.4C268.9,87.4,269.3,87.5,269.7,87.7z
		 M270.3,89.3c-0.2-0.3-0.4-0.6-0.7-0.8c-0.3-0.2-0.7-0.3-1-0.3c-0.4,0-0.7,0.1-1,0.3s-0.6,0.4-0.7,0.8c-0.2,0.3-0.3,0.7-0.3,1.2
		c0,0.5,0.1,0.9,0.3,1.2c0.2,0.3,0.4,0.6,0.7,0.8s0.6,0.3,1,0.3c0.4,0,0.7-0.1,1-0.3c0.3-0.2,0.6-0.4,0.7-0.8
		c0.2-0.3,0.3-0.7,0.3-1.2C270.6,90,270.5,89.6,270.3,89.3z"/>
	<path fill="#363636" d="M278,88c0.5,0.4,0.7,1.1,0.7,1.9v3.6h-1v-3.4c0-0.6-0.2-1.1-0.5-1.4c-0.3-0.3-0.7-0.5-1.2-0.5
		c-0.5,0-0.9,0.2-1.3,0.5c-0.3,0.3-0.5,0.8-0.5,1.4v3.3h-1v-6h1v0.9c0.2-0.3,0.5-0.5,0.8-0.7c0.3-0.2,0.7-0.3,1.1-0.3
		C277,87.4,277.6,87.6,278,88z"/>
	<path fill="#363636" d="M284.3,93.3c-0.4-0.2-0.7-0.4-0.9-0.7s-0.3-0.7-0.4-1.1h1.1c0,0.4,0.2,0.7,0.4,0.9c0.3,0.2,0.6,0.4,1.1,0.4
		c0.5,0,0.9-0.1,1.1-0.4c0.3-0.2,0.4-0.5,0.4-0.9c0-0.3-0.1-0.5-0.2-0.7c-0.2-0.2-0.4-0.3-0.6-0.4c-0.2-0.1-0.6-0.2-1-0.3
		c-0.5-0.1-0.9-0.3-1.2-0.4c-0.3-0.1-0.6-0.3-0.8-0.6c-0.2-0.3-0.3-0.7-0.3-1.1c0-0.4,0.1-0.8,0.3-1.1c0.2-0.3,0.5-0.6,0.9-0.7
		c0.4-0.2,0.8-0.3,1.3-0.3c0.7,0,1.3,0.2,1.8,0.5c0.5,0.4,0.7,0.8,0.8,1.4h-1.1c0-0.3-0.2-0.6-0.5-0.8s-0.6-0.3-1.1-0.3
		c-0.4,0-0.8,0.1-1,0.3c-0.3,0.2-0.4,0.5-0.4,0.9c0,0.3,0.1,0.5,0.2,0.7c0.2,0.2,0.4,0.3,0.6,0.4c0.2,0.1,0.6,0.2,1,0.3
		c0.5,0.1,0.9,0.3,1.2,0.4c0.3,0.1,0.6,0.3,0.8,0.6c0.2,0.3,0.3,0.7,0.3,1.1c0,0.4-0.1,0.7-0.3,1.1c-0.2,0.3-0.5,0.6-0.9,0.8
		c-0.4,0.2-0.8,0.3-1.4,0.3C285.2,93.6,284.7,93.5,284.3,93.3z"/>
	<path fill="#363636" d="M294.9,87.5l-3.6,8.9h-1l1.2-2.9l-2.4-6h1.1l1.9,4.9l1.9-4.9H294.9z"/>
	<path fill="#363636" d="M296.8,93.4c-0.4-0.2-0.7-0.4-0.9-0.7c-0.2-0.3-0.3-0.6-0.4-1h1c0,0.3,0.2,0.5,0.4,0.7
		c0.3,0.2,0.6,0.3,1,0.3c0.4,0,0.7-0.1,0.9-0.3s0.3-0.4,0.3-0.6c0-0.3-0.1-0.5-0.4-0.6c-0.2-0.1-0.6-0.3-1.1-0.4
		c-0.4-0.1-0.8-0.2-1.1-0.4s-0.5-0.3-0.7-0.5c-0.2-0.2-0.3-0.6-0.3-0.9c0-0.3,0.1-0.6,0.3-0.8s0.4-0.5,0.8-0.6
		c0.3-0.2,0.7-0.2,1.2-0.2c0.7,0,1.2,0.2,1.6,0.5c0.4,0.3,0.6,0.8,0.7,1.4h-1c0-0.3-0.1-0.6-0.4-0.8c-0.2-0.2-0.5-0.3-0.9-0.3
		c-0.4,0-0.6,0.1-0.9,0.2s-0.3,0.4-0.3,0.6c0,0.2,0.1,0.4,0.2,0.5c0.1,0.1,0.3,0.2,0.5,0.3s0.5,0.2,0.8,0.3c0.4,0.1,0.8,0.2,1.1,0.3
		c0.3,0.1,0.5,0.3,0.7,0.5c0.2,0.2,0.3,0.5,0.3,0.9c0,0.3-0.1,0.6-0.3,0.9s-0.4,0.5-0.8,0.6c-0.3,0.2-0.7,0.2-1.1,0.2
		C297.6,93.6,297.2,93.5,296.8,93.4z"/>
	<path fill="#363636" d="M302.9,88.3v3.6c0,0.3,0.1,0.5,0.2,0.6c0.1,0.1,0.3,0.2,0.6,0.2h0.7v0.8h-0.9c-0.6,0-1-0.1-1.3-0.4
		c-0.3-0.3-0.4-0.7-0.4-1.3v-3.6h-0.8v-0.8h0.8v-1.5h1v1.5h1.6v0.8H302.9z"/>
	<path fill="#363636" d="M311.1,90.9h-4.8c0,0.6,0.2,1.1,0.6,1.4c0.4,0.3,0.8,0.5,1.3,0.5c0.4,0,0.8-0.1,1.1-0.3
		c0.3-0.2,0.5-0.5,0.6-0.8h1.1c-0.2,0.6-0.5,1.1-1,1.4s-1.1,0.5-1.8,0.5c-0.6,0-1.1-0.1-1.5-0.4s-0.8-0.6-1.1-1.1
		c-0.3-0.5-0.4-1-0.4-1.6c0-0.6,0.1-1.2,0.4-1.6c0.2-0.5,0.6-0.8,1.1-1.1c0.5-0.3,1-0.4,1.6-0.4c0.6,0,1.1,0.1,1.5,0.4
		c0.4,0.2,0.8,0.6,1,1s0.4,0.9,0.4,1.5C311.2,90.4,311.2,90.6,311.1,90.9z M309.9,89.1c-0.2-0.3-0.4-0.5-0.7-0.6
		c-0.3-0.1-0.6-0.2-1-0.2c-0.5,0-0.9,0.2-1.3,0.5s-0.6,0.8-0.6,1.3h3.8C310.1,89.7,310,89.3,309.9,89.1z"/>
	<path fill="#363636" d="M321,87.6c0.4,0.2,0.7,0.5,0.9,0.9c0.2,0.4,0.3,0.9,0.3,1.4v3.6h-1v-3.4c0-0.6-0.1-1.1-0.4-1.4
		c-0.3-0.3-0.7-0.5-1.2-0.5c-0.5,0-0.9,0.2-1.2,0.5s-0.5,0.8-0.5,1.4v3.3h-1v-3.4c0-0.6-0.1-1.1-0.4-1.4c-0.3-0.3-0.7-0.5-1.2-0.5
		c-0.5,0-0.9,0.2-1.2,0.5c-0.3,0.3-0.5,0.8-0.5,1.4v3.3h-1v-6h1v0.9c0.2-0.3,0.5-0.6,0.8-0.7s0.7-0.3,1.1-0.3c0.5,0,1,0.1,1.3,0.3
		s0.7,0.6,0.9,1c0.2-0.4,0.4-0.8,0.8-1c0.4-0.2,0.8-0.4,1.3-0.4C320.2,87.4,320.6,87.5,321,87.6z"/>
	<path fill="#363636" d="M326.8,86.3c-0.1-0.1-0.2-0.3-0.2-0.5c0-0.2,0.1-0.4,0.2-0.5s0.3-0.2,0.5-0.2c0.2,0,0.3,0.1,0.5,0.2
		c0.1,0.1,0.2,0.3,0.2,0.5c0,0.2-0.1,0.4-0.2,0.5c-0.1,0.1-0.3,0.2-0.5,0.2C327.1,86.5,326.9,86.4,326.8,86.3z M327.8,87.5v6h-1v-6
		H327.8z"/>
	<path fill="#363636" d="M334.2,88c0.5,0.4,0.7,1.1,0.7,1.9v3.6h-1v-3.4c0-0.6-0.2-1.1-0.5-1.4c-0.3-0.3-0.7-0.5-1.2-0.5
		c-0.5,0-0.9,0.2-1.3,0.5c-0.3,0.3-0.5,0.8-0.5,1.4v3.3h-1v-6h1v0.9c0.2-0.3,0.5-0.5,0.8-0.7s0.7-0.3,1.1-0.3
		C333.1,87.4,333.7,87.6,334.2,88z"/>
	<path fill="#363636" d="M343.8,85.8v0.8h-3.3v2.6h2.7V90h-2.7v3.5h-1v-7.7H343.8z"/>
	<path fill="#363636" d="M345,86.3c-0.1-0.1-0.2-0.3-0.2-0.5c0-0.2,0.1-0.4,0.2-0.5c0.1-0.1,0.3-0.2,0.5-0.2c0.2,0,0.3,0.1,0.5,0.2
		c0.1,0.1,0.2,0.3,0.2,0.5c0,0.2-0.1,0.4-0.2,0.5c-0.1,0.1-0.3,0.2-0.5,0.2C345.3,86.5,345.1,86.4,345,86.3z M346,87.5v6h-1v-6H346z
		"/>
	<path fill="#363636" d="M351.5,87.7c0.4,0.2,0.7,0.5,0.9,0.9v-1.1h1v6.2c0,0.5-0.1,1-0.4,1.5s-0.6,0.8-1,1
		c-0.4,0.2-0.9,0.4-1.5,0.4c-0.8,0-1.5-0.2-2-0.6c-0.5-0.4-0.8-0.9-0.9-1.5h1c0.1,0.4,0.3,0.7,0.7,0.9s0.8,0.3,1.2,0.3
		c0.5,0,1-0.2,1.3-0.5s0.5-0.8,0.5-1.5v-1.3c-0.2,0.4-0.5,0.6-0.9,0.9s-0.8,0.4-1.4,0.4c-0.5,0-1-0.1-1.5-0.4
		c-0.4-0.3-0.8-0.6-1-1.1c-0.2-0.5-0.4-1-0.4-1.6c0-0.6,0.1-1.2,0.4-1.6c0.2-0.5,0.6-0.8,1-1.1c0.4-0.3,0.9-0.4,1.5-0.4
		C350.7,87.4,351.2,87.5,351.5,87.7z M352.1,89.3c-0.2-0.3-0.4-0.6-0.7-0.8s-0.7-0.3-1-0.3s-0.7,0.1-1,0.3c-0.3,0.2-0.6,0.4-0.7,0.8
		c-0.2,0.3-0.3,0.7-0.3,1.2c0,0.5,0.1,0.9,0.3,1.2c0.2,0.3,0.4,0.6,0.7,0.8c0.3,0.2,0.6,0.3,1,0.3s0.7-0.1,1-0.3s0.6-0.4,0.7-0.8
		c0.2-0.3,0.3-0.7,0.3-1.2C352.4,90,352.3,89.6,352.1,89.3z"/>
	<path fill="#363636" d="M363.6,87.6c0.4,0.2,0.7,0.5,0.9,0.9s0.3,0.9,0.3,1.4v3.6h-1v-3.4c0-0.6-0.1-1.1-0.4-1.4
		c-0.3-0.3-0.7-0.5-1.2-0.5c-0.5,0-0.9,0.2-1.2,0.5c-0.3,0.3-0.5,0.8-0.5,1.4v3.3h-1v-3.4c0-0.6-0.1-1.1-0.4-1.4
		c-0.3-0.3-0.7-0.5-1.2-0.5c-0.5,0-0.9,0.2-1.2,0.5c-0.3,0.3-0.5,0.8-0.5,1.4v3.3h-1v-6h1v0.9c0.2-0.3,0.5-0.6,0.8-0.7
		c0.3-0.2,0.7-0.3,1.1-0.3c0.5,0,1,0.1,1.3,0.3s0.7,0.6,0.9,1c0.2-0.4,0.4-0.8,0.8-1c0.4-0.2,0.8-0.4,1.3-0.4
		C362.8,87.4,363.3,87.5,363.6,87.6z"/>
	<path fill="#363636" d="M366.5,88.8c0.2-0.5,0.6-0.8,1-1.1s0.9-0.4,1.5-0.4c0.5,0,1,0.1,1.4,0.3s0.7,0.5,0.9,0.9v-1.1h1v6h-1v-1.1
		c-0.2,0.4-0.5,0.6-0.9,0.9c-0.4,0.2-0.8,0.3-1.4,0.3c-0.5,0-1-0.1-1.5-0.4c-0.4-0.3-0.8-0.6-1-1.1s-0.4-1-0.4-1.6
		C366.1,89.8,366.2,89.3,366.5,88.8z M370.9,89.3c-0.2-0.3-0.4-0.6-0.7-0.8c-0.3-0.2-0.7-0.3-1-0.3c-0.4,0-0.7,0.1-1,0.3
		s-0.6,0.4-0.7,0.8c-0.2,0.3-0.3,0.7-0.3,1.2c0,0.5,0.1,0.9,0.3,1.2c0.2,0.3,0.4,0.6,0.7,0.8s0.6,0.3,1,0.3c0.4,0,0.7-0.1,1-0.3
		c0.3-0.2,0.6-0.4,0.7-0.8c0.2-0.3,0.3-0.7,0.3-1.2C371.2,90,371.1,89.6,370.9,89.3z"/>
	<path fill="#363636" d="M379.3,88.3H378v5.2h-1v-5.2h-0.8v-0.8h0.8V87c0-0.7,0.2-1.2,0.5-1.5c0.3-0.3,0.9-0.5,1.7-0.5v0.8
		c-0.4,0-0.8,0.1-0.9,0.3c-0.2,0.2-0.3,0.5-0.3,0.9v0.4h1.3V88.3z"/>
	<path fill="#363636" d="M382.2,87.6c0.3-0.2,0.7-0.3,1.2-0.3v1h-0.3c-1.1,0-1.7,0.6-1.7,1.8v3.3h-1v-6h1v1
		C381.6,88.1,381.9,87.8,382.2,87.6z"/>
	<path fill="#363636" d="M385.6,93.2c-0.5-0.3-0.8-0.6-1.1-1.1c-0.3-0.5-0.4-1-0.4-1.6c0-0.6,0.1-1.2,0.4-1.6
		c0.3-0.5,0.6-0.8,1.1-1.1c0.5-0.3,1-0.4,1.6-0.4c0.6,0,1.1,0.1,1.6,0.4c0.5,0.3,0.8,0.6,1.1,1.1c0.3,0.5,0.4,1,0.4,1.6
		c0,0.6-0.1,1.2-0.4,1.6c-0.3,0.5-0.6,0.8-1.1,1.1c-0.5,0.3-1,0.4-1.6,0.4C386.6,93.6,386.1,93.5,385.6,93.2z M388.2,92.5
		c0.3-0.2,0.6-0.4,0.8-0.8c0.2-0.3,0.3-0.7,0.3-1.2c0-0.5-0.1-0.9-0.3-1.2s-0.4-0.6-0.7-0.8c-0.3-0.2-0.6-0.2-1-0.2
		c-0.4,0-0.7,0.1-1,0.2c-0.3,0.2-0.5,0.4-0.7,0.8c-0.2,0.3-0.3,0.7-0.3,1.2c0,0.5,0.1,0.9,0.3,1.2c0.2,0.3,0.4,0.6,0.7,0.8
		c0.3,0.2,0.6,0.2,1,0.2S387.9,92.6,388.2,92.5z"/>
	<path fill="#363636" d="M400.1,87.6c0.4,0.2,0.7,0.5,0.9,0.9s0.3,0.9,0.3,1.4v3.6h-1v-3.4c0-0.6-0.1-1.1-0.4-1.4
		c-0.3-0.3-0.7-0.5-1.2-0.5c-0.5,0-0.9,0.2-1.2,0.5c-0.3,0.3-0.5,0.8-0.5,1.4v3.3h-1v-3.4c0-0.6-0.1-1.1-0.4-1.4
		c-0.3-0.3-0.7-0.5-1.2-0.5c-0.5,0-0.9,0.2-1.2,0.5c-0.3,0.3-0.5,0.8-0.5,1.4v3.3h-1v-6h1v0.9c0.2-0.3,0.5-0.6,0.8-0.7
		s0.7-0.3,1.1-0.3c0.5,0,1,0.1,1.3,0.3s0.7,0.6,0.9,1c0.2-0.4,0.4-0.8,0.8-1c0.4-0.2,0.8-0.4,1.3-0.4
		C399.3,87.4,399.7,87.5,400.1,87.6z"/>
	<path fill="#363636" d="M406.9,93.3c-0.4-0.2-0.7-0.4-0.9-0.7c-0.2-0.3-0.3-0.7-0.4-1.1h1.1c0,0.4,0.2,0.7,0.4,0.9
		c0.3,0.2,0.6,0.4,1.1,0.4c0.5,0,0.9-0.1,1.1-0.4c0.3-0.2,0.4-0.5,0.4-0.9c0-0.3-0.1-0.5-0.2-0.7s-0.4-0.3-0.6-0.4
		c-0.2-0.1-0.6-0.2-1-0.3c-0.5-0.1-0.9-0.3-1.2-0.4s-0.6-0.3-0.8-0.6c-0.2-0.3-0.3-0.7-0.3-1.1c0-0.4,0.1-0.8,0.3-1.1
		c0.2-0.3,0.5-0.6,0.9-0.7s0.8-0.3,1.3-0.3c0.7,0,1.3,0.2,1.8,0.5s0.7,0.8,0.8,1.4h-1.1c0-0.3-0.2-0.6-0.5-0.8
		c-0.3-0.2-0.6-0.3-1.1-0.3c-0.4,0-0.8,0.1-1,0.3c-0.3,0.2-0.4,0.5-0.4,0.9c0,0.3,0.1,0.5,0.2,0.7c0.2,0.2,0.4,0.3,0.6,0.4
		c0.2,0.1,0.6,0.2,1,0.3c0.5,0.1,0.9,0.3,1.2,0.4s0.6,0.3,0.8,0.6s0.3,0.7,0.3,1.1c0,0.4-0.1,0.7-0.3,1.1s-0.5,0.6-0.9,0.8
		c-0.4,0.2-0.8,0.3-1.4,0.3C407.8,93.6,407.3,93.5,406.9,93.3z"/>
	<path fill="#363636" d="M412.3,88.8c0.2-0.5,0.6-0.8,1-1.1c0.4-0.3,1-0.4,1.5-0.4c0.7,0,1.4,0.2,1.8,0.5s0.8,0.9,1,1.5h-1.1
		c-0.1-0.4-0.3-0.7-0.6-0.9s-0.7-0.3-1.1-0.3c-0.6,0-1,0.2-1.4,0.6c-0.4,0.4-0.5,0.9-0.5,1.7c0,0.7,0.2,1.3,0.5,1.7
		c0.4,0.4,0.8,0.6,1.4,0.6c0.4,0,0.8-0.1,1.1-0.3s0.5-0.5,0.6-0.9h1.1c-0.2,0.6-0.5,1.1-1,1.5c-0.5,0.4-1.1,0.6-1.8,0.6
		c-0.6,0-1.1-0.1-1.5-0.4c-0.4-0.3-0.8-0.6-1-1.1c-0.2-0.5-0.4-1-0.4-1.7C411.9,89.8,412.1,89.3,412.3,88.8z"/>
	<path fill="#363636" d="M420.7,87.6c0.3-0.2,0.7-0.3,1.2-0.3v1h-0.3c-1.1,0-1.7,0.6-1.7,1.8v3.3h-1v-6h1v1
		C420.2,88.1,420.4,87.8,420.7,87.6z"/>
	<path fill="#363636" d="M423.1,88.8c0.2-0.5,0.6-0.8,1-1.1c0.4-0.3,0.9-0.4,1.5-0.4c0.5,0,1,0.1,1.4,0.3s0.7,0.5,0.9,0.9v-1.1h1v6
		h-1v-1.1c-0.2,0.4-0.5,0.6-0.9,0.9c-0.4,0.2-0.8,0.3-1.4,0.3c-0.5,0-1-0.1-1.5-0.4s-0.8-0.6-1-1.1c-0.2-0.5-0.4-1-0.4-1.6
		C422.7,89.8,422.8,89.3,423.1,88.8z M427.5,89.3c-0.2-0.3-0.4-0.6-0.7-0.8s-0.7-0.3-1-0.3s-0.7,0.1-1,0.3c-0.3,0.2-0.6,0.4-0.7,0.8
		c-0.2,0.3-0.3,0.7-0.3,1.2c0,0.5,0.1,0.9,0.3,1.2c0.2,0.3,0.4,0.6,0.7,0.8c0.3,0.2,0.6,0.3,1,0.3s0.7-0.1,1-0.3s0.6-0.4,0.7-0.8
		c0.2-0.3,0.3-0.7,0.3-1.2C427.8,90,427.7,89.6,427.5,89.3z"/>
	<path fill="#363636" d="M431.7,88.3v3.6c0,0.3,0.1,0.5,0.2,0.6s0.3,0.2,0.6,0.2h0.7v0.8h-0.9c-0.6,0-1-0.1-1.3-0.4
		c-0.3-0.3-0.4-0.7-0.4-1.3v-3.6H430v-0.8h0.8v-1.5h1v1.5h1.6v0.8H431.7z"/>
	<path fill="#363636" d="M434.5,88.8c0.2-0.5,0.6-0.8,1-1.1c0.4-0.3,1-0.4,1.5-0.4c0.7,0,1.4,0.2,1.8,0.5s0.8,0.9,1,1.5h-1.1
		c-0.1-0.4-0.3-0.7-0.6-0.9s-0.7-0.3-1.1-0.3c-0.6,0-1,0.2-1.4,0.6c-0.4,0.4-0.5,0.9-0.5,1.7c0,0.7,0.2,1.3,0.5,1.7
		c0.4,0.4,0.8,0.6,1.4,0.6c0.4,0,0.8-0.1,1.1-0.3s0.5-0.5,0.6-0.9h1.1c-0.2,0.6-0.5,1.1-1,1.5c-0.5,0.4-1.1,0.6-1.8,0.6
		c-0.6,0-1.1-0.1-1.5-0.4c-0.4-0.3-0.8-0.6-1-1.1c-0.2-0.5-0.4-1-0.4-1.7C434.2,89.8,434.3,89.3,434.5,88.8z"/>
	<path fill="#363636" d="M445.4,87.6c0.4,0.2,0.7,0.5,0.9,0.9s0.3,0.9,0.3,1.4v3.6h-1v-3.4c0-0.6-0.2-1.1-0.5-1.4
		c-0.3-0.3-0.7-0.5-1.2-0.5c-0.5,0-0.9,0.2-1.3,0.5c-0.3,0.3-0.5,0.8-0.5,1.4v3.3h-1v-8.1h1v3c0.2-0.3,0.5-0.5,0.8-0.7
		c0.3-0.2,0.7-0.3,1.2-0.3C444.7,87.4,445.1,87.5,445.4,87.6z"/>
	<path fill="#363636" d="M455.4,89v0.8H451V89H455.4z"/>
	<path fill="#363636" d="M461.2,85.8v4.9c0,0.7,0.2,1.2,0.5,1.5c0.3,0.3,0.8,0.5,1.4,0.5c0.6,0,1-0.2,1.4-0.5
		c0.3-0.3,0.5-0.8,0.5-1.5v-4.9h1v4.8c0,0.6-0.1,1.2-0.4,1.6c-0.3,0.4-0.6,0.8-1,1c-0.4,0.2-0.9,0.3-1.5,0.3s-1-0.1-1.5-0.3
		s-0.8-0.5-1-1c-0.3-0.4-0.4-1-0.4-1.6v-4.8H461.2z"/>
	<path fill="#363636" d="M468.6,85.8v7.7h-1v-7.7H468.6z"/>
	<path fill="#363636" d="M474.2,85.8v4.9c0,0.7,0.2,1.2,0.5,1.5c0.3,0.3,0.8,0.5,1.4,0.5c0.6,0,1-0.2,1.4-0.5
		c0.3-0.3,0.5-0.8,0.5-1.5v-4.9h1v4.8c0,0.6-0.1,1.2-0.4,1.6c-0.3,0.4-0.6,0.8-1,1c-0.4,0.2-0.9,0.3-1.5,0.3s-1-0.1-1.5-0.3
		s-0.8-0.5-1-1c-0.3-0.4-0.4-1-0.4-1.6v-4.8H474.2z"/>
	<path fill="#363636" d="M483.8,89.7l2.4,3.8H485l-1.8-3l-1.7,3h-1.1l2.3-3.8l-2.4-3.8h1.1l1.8,3l1.8-3h1.1L483.8,89.7z"/>
	<path fill="#363636" d="M221,102.9v7.6h-1v-5.7l-2.5,5.7h-0.7l-2.5-5.7v5.7h-1v-7.6h1.1l2.8,6.3l2.8-6.3H221z"/>
	<path fill="#363636" d="M222.7,105.8c0.2-0.5,0.6-0.8,1-1.1c0.4-0.3,0.9-0.4,1.5-0.4c0.5,0,1,0.1,1.4,0.3s0.7,0.5,0.9,0.9v-1.1h1v6
		h-1v-1.1c-0.2,0.4-0.5,0.6-0.9,0.9c-0.4,0.2-0.8,0.3-1.4,0.3c-0.5,0-1-0.1-1.5-0.4c-0.4-0.3-0.8-0.6-1-1.1c-0.2-0.5-0.4-1-0.4-1.6
		C222.3,106.8,222.5,106.3,222.7,105.8z M227.2,106.3c-0.2-0.3-0.4-0.6-0.7-0.8c-0.3-0.2-0.7-0.3-1-0.3c-0.4,0-0.7,0.1-1,0.3
		c-0.3,0.2-0.6,0.4-0.7,0.8c-0.2,0.3-0.3,0.7-0.3,1.2c0,0.5,0.1,0.9,0.3,1.2c0.2,0.3,0.4,0.6,0.7,0.8c0.3,0.2,0.6,0.3,1,0.3
		c0.4,0,0.7-0.1,1-0.3c0.3-0.2,0.6-0.4,0.7-0.8c0.2-0.3,0.3-0.7,0.3-1.2C227.4,107,227.4,106.6,227.2,106.3z"/>
	<path fill="#363636" d="M231,110.4c-0.4-0.2-0.7-0.4-0.9-0.7c-0.2-0.3-0.3-0.6-0.4-1h1c0,0.3,0.2,0.5,0.4,0.7
		c0.3,0.2,0.6,0.3,1,0.3c0.4,0,0.7-0.1,0.9-0.3c0.2-0.2,0.3-0.4,0.3-0.6c0-0.3-0.1-0.5-0.4-0.6c-0.2-0.1-0.6-0.3-1.1-0.4
		c-0.4-0.1-0.8-0.2-1.1-0.4s-0.5-0.3-0.7-0.5c-0.2-0.2-0.3-0.6-0.3-0.9c0-0.3,0.1-0.6,0.3-0.8c0.2-0.3,0.4-0.5,0.8-0.6
		s0.7-0.2,1.2-0.2c0.7,0,1.2,0.2,1.6,0.5c0.4,0.3,0.6,0.8,0.7,1.4h-1c0-0.3-0.1-0.6-0.4-0.8c-0.2-0.2-0.5-0.3-0.9-0.3
		c-0.4,0-0.6,0.1-0.9,0.2c-0.2,0.2-0.3,0.4-0.3,0.6c0,0.2,0.1,0.4,0.2,0.5c0.1,0.1,0.3,0.2,0.5,0.3s0.5,0.2,0.8,0.3
		c0.4,0.1,0.8,0.2,1.1,0.3c0.3,0.1,0.5,0.3,0.7,0.5c0.2,0.2,0.3,0.5,0.3,0.9c0,0.3-0.1,0.6-0.3,0.9c-0.2,0.3-0.4,0.5-0.8,0.6
		c-0.3,0.2-0.7,0.2-1.1,0.2C231.8,110.6,231.4,110.5,231,110.4z"/>
	<path fill="#363636" d="M237.1,105.3v3.6c0,0.3,0.1,0.5,0.2,0.6s0.3,0.2,0.6,0.2h0.7v0.8h-0.9c-0.6,0-1-0.1-1.3-0.4
		s-0.4-0.7-0.4-1.3v-3.6h-0.8v-0.8h0.8v-1.5h1v1.5h1.6v0.8H237.1z"/>
	<path fill="#363636" d="M245.4,107.9h-4.8c0,0.6,0.2,1.1,0.6,1.4c0.4,0.3,0.8,0.5,1.3,0.5c0.4,0,0.8-0.1,1.1-0.3
		c0.3-0.2,0.5-0.5,0.6-0.8h1.1c-0.2,0.6-0.5,1.1-1,1.4c-0.5,0.4-1.1,0.5-1.8,0.5c-0.6,0-1.1-0.1-1.5-0.4s-0.8-0.6-1.1-1.1
		c-0.3-0.5-0.4-1-0.4-1.6c0-0.6,0.1-1.2,0.4-1.6c0.2-0.5,0.6-0.8,1.1-1.1c0.5-0.3,1-0.4,1.6-0.4c0.6,0,1.1,0.1,1.5,0.4s0.8,0.6,1,1
		s0.4,0.9,0.4,1.5C245.4,107.4,245.4,107.6,245.4,107.9z M244.1,106.1c-0.2-0.3-0.4-0.5-0.7-0.6c-0.3-0.1-0.6-0.2-1-0.2
		c-0.5,0-0.9,0.2-1.3,0.5c-0.4,0.3-0.6,0.8-0.6,1.3h3.8C244.4,106.7,244.3,106.3,244.1,106.1z"/>
	<path fill="#363636" d="M248.5,104.6c0.3-0.2,0.7-0.3,1.2-0.3v1h-0.3c-1.1,0-1.7,0.6-1.7,1.8v3.3h-1v-6h1v1
		C247.9,105.1,248.1,104.8,248.5,104.6z"/>
	<path fill="#363636" d="M253.9,104.6c0.3-0.6,0.8-1.1,1.4-1.4c0.6-0.3,1.2-0.5,1.9-0.5c0.8,0,1.6,0.2,2.2,0.6s1.1,1,1.4,1.7h-1.2
		c-0.2-0.5-0.5-0.8-0.9-1.1c-0.4-0.2-0.9-0.4-1.4-0.4c-0.5,0-1,0.1-1.4,0.4s-0.8,0.6-1,1.1c-0.2,0.5-0.4,1-0.4,1.6
		c0,0.6,0.1,1.1,0.4,1.6c0.2,0.5,0.6,0.8,1,1.1s0.9,0.4,1.4,0.4c0.6,0,1-0.1,1.4-0.4c0.4-0.2,0.7-0.6,0.9-1.1h1.2
		c-0.3,0.7-0.7,1.3-1.4,1.7c-0.6,0.4-1.4,0.6-2.2,0.6c-0.7,0-1.4-0.2-1.9-0.5s-1-0.8-1.4-1.4s-0.5-1.3-0.5-2
		S253.6,105.2,253.9,104.6z"/>
	<path fill="#363636" d="M263.3,102.4v8.1h-1v-8.1H263.3z"/>
	<path fill="#363636" d="M265,105.8c0.2-0.5,0.6-0.8,1-1.1s0.9-0.4,1.5-0.4c0.5,0,1,0.1,1.4,0.3s0.7,0.5,0.9,0.9v-1.1h1v6h-1v-1.1
		c-0.2,0.4-0.5,0.6-0.9,0.9c-0.4,0.2-0.8,0.3-1.4,0.3c-0.5,0-1-0.1-1.5-0.4c-0.4-0.3-0.8-0.6-1-1.1s-0.4-1-0.4-1.6
		C264.6,106.8,264.7,106.3,265,105.8z M269.4,106.3c-0.2-0.3-0.4-0.6-0.7-0.8c-0.3-0.2-0.7-0.3-1-0.3c-0.4,0-0.7,0.1-1,0.3
		s-0.6,0.4-0.7,0.8c-0.2,0.3-0.3,0.7-0.3,1.2c0,0.5,0.1,0.9,0.3,1.2c0.2,0.3,0.4,0.6,0.7,0.8s0.6,0.3,1,0.3c0.4,0,0.7-0.1,1-0.3
		c0.3-0.2,0.6-0.4,0.7-0.8c0.2-0.3,0.3-0.7,0.3-1.2C269.7,107,269.6,106.6,269.4,106.3z"/>
	<path fill="#363636" d="M273.3,110.4c-0.4-0.2-0.7-0.4-0.9-0.7c-0.2-0.3-0.3-0.6-0.4-1h1c0,0.3,0.2,0.5,0.4,0.7
		c0.3,0.2,0.6,0.3,1,0.3c0.4,0,0.7-0.1,0.9-0.3s0.3-0.4,0.3-0.6c0-0.3-0.1-0.5-0.4-0.6c-0.2-0.1-0.6-0.3-1.1-0.4
		c-0.4-0.1-0.8-0.2-1.1-0.4s-0.5-0.3-0.7-0.5c-0.2-0.2-0.3-0.6-0.3-0.9c0-0.3,0.1-0.6,0.3-0.8s0.4-0.5,0.8-0.6
		c0.3-0.2,0.7-0.2,1.2-0.2c0.7,0,1.2,0.2,1.6,0.5c0.4,0.3,0.6,0.8,0.7,1.4h-1c0-0.3-0.1-0.6-0.4-0.8c-0.2-0.2-0.5-0.3-0.9-0.3
		c-0.4,0-0.6,0.1-0.9,0.2s-0.3,0.4-0.3,0.6c0,0.2,0.1,0.4,0.2,0.5c0.1,0.1,0.3,0.2,0.5,0.3s0.5,0.2,0.8,0.3c0.4,0.1,0.8,0.2,1.1,0.3
		c0.3,0.1,0.5,0.3,0.7,0.5c0.2,0.2,0.3,0.5,0.3,0.9c0,0.3-0.1,0.6-0.3,0.9s-0.4,0.5-0.8,0.6c-0.3,0.2-0.7,0.2-1.1,0.2
		C274.1,110.6,273.6,110.5,273.3,110.4z"/>
	<path fill="#363636" d="M279,110.4c-0.4-0.2-0.7-0.4-0.9-0.7c-0.2-0.3-0.3-0.6-0.4-1h1c0,0.3,0.2,0.5,0.4,0.7
		c0.3,0.2,0.6,0.3,1,0.3c0.4,0,0.7-0.1,0.9-0.3c0.2-0.2,0.3-0.4,0.3-0.6c0-0.3-0.1-0.5-0.4-0.6c-0.2-0.1-0.6-0.3-1.1-0.4
		c-0.4-0.1-0.8-0.2-1.1-0.4s-0.5-0.3-0.7-0.5c-0.2-0.2-0.3-0.6-0.3-0.9c0-0.3,0.1-0.6,0.3-0.8c0.2-0.3,0.4-0.5,0.8-0.6
		c0.3-0.2,0.7-0.2,1.2-0.2c0.7,0,1.2,0.2,1.6,0.5c0.4,0.3,0.6,0.8,0.7,1.4h-1c0-0.3-0.1-0.6-0.4-0.8c-0.2-0.2-0.5-0.3-0.9-0.3
		c-0.4,0-0.6,0.1-0.9,0.2c-0.2,0.2-0.3,0.4-0.3,0.6c0,0.2,0.1,0.4,0.2,0.5c0.1,0.1,0.3,0.2,0.5,0.3s0.5,0.2,0.8,0.3
		c0.4,0.1,0.8,0.2,1.1,0.3c0.3,0.1,0.5,0.3,0.7,0.5c0.2,0.2,0.3,0.5,0.3,0.9c0,0.3-0.1,0.6-0.3,0.9c-0.2,0.3-0.4,0.5-0.8,0.6
		c-0.3,0.2-0.7,0.2-1.1,0.2C279.8,110.6,279.4,110.5,279,110.4z"/>
</g>
<g>
	<path fill="#363636" d="M219.9,121.7v6.3h-1.3v-4.1l-1.7,4.1h-1l-1.7-4.1v4.1H213v-6.3h1.4l2,4.7l2-4.7H219.9z"/>
	<path fill="#363636" d="M225.8,123v5h-1.3v-0.6c-0.2,0.2-0.4,0.4-0.6,0.5c-0.3,0.1-0.5,0.2-0.9,0.2c-0.4,0-0.7-0.1-1-0.2
		c-0.3-0.2-0.5-0.4-0.7-0.7c-0.2-0.3-0.3-0.7-0.3-1.1V123h1.3v2.7c0,0.4,0.1,0.7,0.3,0.9c0.2,0.2,0.5,0.3,0.8,0.3
		c0.3,0,0.6-0.1,0.8-0.3c0.2-0.2,0.3-0.5,0.3-0.9V123H225.8z"/>
	<path fill="#363636" d="M230.9,123.2c0.3,0.2,0.5,0.4,0.7,0.7c0.2,0.3,0.2,0.7,0.2,1.2v2.9h-1.3v-2.8c0-0.4-0.1-0.7-0.3-0.9
		c-0.2-0.2-0.5-0.3-0.8-0.3c-0.3,0-0.6,0.1-0.8,0.3c-0.2,0.2-0.3,0.5-0.3,0.9v2.8h-1.3v-6.7h1.3v2.3c0.2-0.2,0.4-0.4,0.6-0.5
		s0.6-0.2,0.9-0.2C230.2,123,230.6,123,230.9,123.2z"/>
	<path fill="#363636" d="M233,124.2c0.2-0.4,0.5-0.7,0.8-0.9s0.7-0.3,1.2-0.3c0.4,0,0.7,0.1,1,0.2c0.3,0.1,0.5,0.3,0.7,0.6V123h1.3
		v5h-1.3v-0.7c-0.2,0.2-0.4,0.4-0.7,0.6c-0.3,0.2-0.6,0.2-1,0.2c-0.4,0-0.8-0.1-1.1-0.3s-0.6-0.5-0.8-0.9c-0.2-0.4-0.3-0.8-0.3-1.4
		C232.7,125,232.8,124.6,233,124.2z M236.4,124.7c-0.1-0.2-0.3-0.4-0.5-0.5c-0.2-0.1-0.4-0.2-0.7-0.2s-0.4,0.1-0.6,0.2
		s-0.4,0.3-0.5,0.5c-0.1,0.2-0.2,0.5-0.2,0.8s0.1,0.6,0.2,0.8c0.1,0.2,0.3,0.4,0.5,0.5s0.4,0.2,0.6,0.2c0.2,0,0.5-0.1,0.7-0.2
		c0.2-0.1,0.4-0.3,0.5-0.5c0.1-0.2,0.2-0.5,0.2-0.8C236.6,125.2,236.5,125,236.4,124.7z"/>
	<path fill="#363636" d="M246.8,123.5c0.4,0.4,0.6,0.9,0.6,1.6v2.9h-1.3v-2.8c0-0.4-0.1-0.7-0.3-0.9c-0.2-0.2-0.5-0.3-0.8-0.3
		c-0.3,0-0.6,0.1-0.8,0.3c-0.2,0.2-0.3,0.5-0.3,0.9v2.8h-1.3v-2.8c0-0.4-0.1-0.7-0.3-0.9c-0.2-0.2-0.5-0.3-0.8-0.3
		c-0.3,0-0.6,0.1-0.8,0.3c-0.2,0.2-0.3,0.5-0.3,0.9v2.8h-1.3v-5h1.3v0.6c0.2-0.2,0.4-0.4,0.6-0.5s0.5-0.2,0.8-0.2
		c0.4,0,0.7,0.1,1,0.2s0.5,0.4,0.7,0.7c0.2-0.3,0.4-0.5,0.7-0.7s0.6-0.3,1-0.3C245.9,123,246.4,123.1,246.8,123.5z"/>
	<path fill="#363636" d="M256.2,123.5c0.4,0.4,0.6,0.9,0.6,1.6v2.9h-1.3v-2.8c0-0.4-0.1-0.7-0.3-0.9c-0.2-0.2-0.5-0.3-0.8-0.3
		c-0.3,0-0.6,0.1-0.8,0.3c-0.2,0.2-0.3,0.5-0.3,0.9v2.8H252v-2.8c0-0.4-0.1-0.7-0.3-0.9c-0.2-0.2-0.5-0.3-0.8-0.3
		c-0.3,0-0.6,0.1-0.8,0.3c-0.2,0.2-0.3,0.5-0.3,0.9v2.8h-1.3v-5h1.3v0.6c0.2-0.2,0.4-0.4,0.6-0.5s0.5-0.2,0.8-0.2
		c0.4,0,0.7,0.1,1,0.2s0.5,0.4,0.7,0.7c0.2-0.3,0.4-0.5,0.7-0.7s0.6-0.3,1-0.3C255.3,123,255.8,123.1,256.2,123.5z"/>
	<path fill="#363636" d="M258,124.2c0.2-0.4,0.5-0.7,0.8-0.9c0.3-0.2,0.7-0.3,1.2-0.3c0.4,0,0.7,0.1,1,0.2c0.3,0.1,0.5,0.3,0.7,0.6
		V123h1.3v5h-1.3v-0.7c-0.2,0.2-0.4,0.4-0.7,0.6s-0.6,0.2-1,0.2c-0.4,0-0.8-0.1-1.1-0.3c-0.3-0.2-0.6-0.5-0.8-0.9
		c-0.2-0.4-0.3-0.8-0.3-1.4C257.7,125,257.8,124.6,258,124.2z M261.4,124.7c-0.1-0.2-0.3-0.4-0.5-0.5c-0.2-0.1-0.4-0.2-0.7-0.2
		c-0.2,0-0.5,0.1-0.6,0.2s-0.4,0.3-0.5,0.5c-0.1,0.2-0.2,0.5-0.2,0.8s0.1,0.6,0.2,0.8c0.1,0.2,0.3,0.4,0.5,0.5s0.4,0.2,0.6,0.2
		c0.2,0,0.5-0.1,0.7-0.2c0.2-0.1,0.4-0.3,0.5-0.5c0.1-0.2,0.2-0.5,0.2-0.8C261.6,125.2,261.5,125,261.4,124.7z"/>
	<path fill="#363636" d="M264.1,124.2c0.2-0.4,0.5-0.7,0.8-0.9c0.3-0.2,0.7-0.3,1.2-0.3c0.3,0,0.6,0.1,0.9,0.2s0.5,0.3,0.7,0.6v-2.4
		h1.3v6.7h-1.3v-0.7c-0.2,0.2-0.4,0.4-0.7,0.6c-0.3,0.1-0.6,0.2-1,0.2c-0.4,0-0.8-0.1-1.2-0.3c-0.3-0.2-0.6-0.5-0.8-0.9
		c-0.2-0.4-0.3-0.8-0.3-1.4C263.8,125,263.9,124.6,264.1,124.2z M267.5,124.7c-0.1-0.2-0.3-0.4-0.5-0.5c-0.2-0.1-0.4-0.2-0.7-0.2
		c-0.2,0-0.4,0.1-0.6,0.2s-0.4,0.3-0.5,0.5c-0.1,0.2-0.2,0.5-0.2,0.8s0.1,0.6,0.2,0.8c0.1,0.2,0.3,0.4,0.5,0.5s0.4,0.2,0.6,0.2
		c0.2,0,0.5-0.1,0.7-0.2c0.2-0.1,0.4-0.3,0.5-0.5c0.1-0.2,0.2-0.5,0.2-0.8C267.7,125.2,267.6,125,267.5,124.7z"/>
	<path fill="#363636" d="M276.2,126.8h-2.5l-0.4,1.2h-1.3l2.3-6.3h1.5l2.3,6.3h-1.3L276.2,126.8z M275.8,125.8l-0.9-2.6l-0.9,2.6
		H275.8z"/>
	<path fill="#363636" d="M282.6,123.2c0.3,0.2,0.5,0.4,0.7,0.7c0.2,0.3,0.2,0.7,0.2,1.2v2.9h-1.3v-2.8c0-0.4-0.1-0.7-0.3-0.9
		c-0.2-0.2-0.5-0.3-0.8-0.3c-0.3,0-0.6,0.1-0.8,0.3c-0.2,0.2-0.3,0.5-0.3,0.9v2.8h-1.3v-6.7h1.3v2.3c0.2-0.2,0.4-0.4,0.6-0.5
		c0.3-0.1,0.6-0.2,0.9-0.2C282,123,282.3,123,282.6,123.2z"/>
	<path fill="#363636" d="M285.5,127.9c-0.3-0.1-0.6-0.3-0.8-0.6c-0.2-0.3-0.3-0.5-0.3-0.8h1.3c0,0.2,0.1,0.4,0.3,0.5
		s0.4,0.2,0.6,0.2c0.2,0,0.4,0,0.6-0.1s0.2-0.2,0.2-0.4c0-0.2-0.1-0.3-0.2-0.4s-0.4-0.2-0.8-0.3c-0.4-0.1-0.7-0.2-0.9-0.3
		c-0.2-0.1-0.4-0.2-0.6-0.4c-0.2-0.2-0.3-0.5-0.3-0.8c0-0.3,0.1-0.5,0.2-0.8c0.2-0.2,0.4-0.4,0.7-0.5c0.3-0.1,0.6-0.2,1-0.2
		c0.6,0,1.1,0.1,1.4,0.4c0.4,0.3,0.5,0.7,0.6,1.2h-1.2c0-0.2-0.1-0.4-0.2-0.5s-0.3-0.2-0.6-0.2c-0.2,0-0.4,0-0.5,0.1
		c-0.1,0.1-0.2,0.2-0.2,0.4c0,0.2,0.1,0.3,0.3,0.4c0.2,0.1,0.4,0.2,0.8,0.3c0.4,0.1,0.7,0.2,0.9,0.3c0.2,0.1,0.4,0.2,0.6,0.4
		s0.3,0.5,0.3,0.8c0,0.3-0.1,0.5-0.2,0.8c-0.2,0.2-0.4,0.4-0.7,0.5s-0.6,0.2-1,0.2C286.2,128.1,285.8,128,285.5,127.9z"/>
	<path fill="#363636" d="M289.6,124.2c0.2-0.4,0.5-0.7,0.8-0.9c0.3-0.2,0.7-0.3,1.2-0.3c0.4,0,0.7,0.1,1,0.2
		c0.3,0.1,0.5,0.3,0.7,0.6V123h1.3v5h-1.3v-0.7c-0.2,0.2-0.4,0.4-0.7,0.6s-0.6,0.2-1,0.2c-0.4,0-0.8-0.1-1.1-0.3
		c-0.3-0.2-0.6-0.5-0.8-0.9c-0.2-0.4-0.3-0.8-0.3-1.4C289.3,125,289.4,124.6,289.6,124.2z M293,124.7c-0.1-0.2-0.3-0.4-0.5-0.5
		c-0.2-0.1-0.4-0.2-0.7-0.2c-0.2,0-0.5,0.1-0.6,0.2s-0.4,0.3-0.5,0.5c-0.1,0.2-0.2,0.5-0.2,0.8s0.1,0.6,0.2,0.8
		c0.1,0.2,0.3,0.4,0.5,0.5s0.4,0.2,0.6,0.2c0.2,0,0.5-0.1,0.7-0.2c0.2-0.1,0.4-0.3,0.5-0.5c0.1-0.2,0.2-0.5,0.2-0.8
		C293.2,125.2,293.2,125,293,124.7z"/>
	<path fill="#363636" d="M299.9,123.5c0.4,0.4,0.5,0.9,0.5,1.6v2.9h-1.3v-2.8c0-0.4-0.1-0.7-0.3-0.9c-0.2-0.2-0.5-0.3-0.8-0.3
		c-0.3,0-0.6,0.1-0.8,0.3c-0.2,0.2-0.3,0.5-0.3,0.9v2.8h-1.3v-5h1.3v0.6c0.2-0.2,0.4-0.4,0.6-0.5s0.5-0.2,0.9-0.2
		C299.1,123,299.6,123.1,299.9,123.5z"/>
	<path fill="#363636" d="M303,126.7l-1.1,2.5h-0.8l0.6-2.5H303z"/>
	<path fill="#363636" d="M307.1,127.9c-0.4-0.1-0.6-0.4-0.8-0.6c-0.2-0.3-0.3-0.6-0.3-1h1.3c0,0.3,0.1,0.5,0.3,0.6
		c0.2,0.2,0.4,0.2,0.7,0.2c0.3,0,0.5-0.1,0.7-0.2c0.2-0.1,0.3-0.3,0.3-0.6c0-0.2-0.1-0.3-0.2-0.5c-0.1-0.1-0.3-0.2-0.4-0.3
		s-0.4-0.1-0.7-0.2c-0.4-0.1-0.7-0.2-1-0.4s-0.5-0.3-0.7-0.5c-0.2-0.2-0.3-0.6-0.3-0.9c0-0.4,0.1-0.7,0.3-1c0.2-0.3,0.4-0.5,0.8-0.6
		c0.3-0.1,0.7-0.2,1.2-0.2c0.6,0,1.2,0.2,1.6,0.5c0.4,0.3,0.6,0.8,0.7,1.3H309c0-0.2-0.1-0.4-0.3-0.5c-0.2-0.1-0.4-0.2-0.7-0.2
		c-0.2,0-0.4,0.1-0.6,0.2c-0.1,0.1-0.2,0.3-0.2,0.5c0,0.2,0.1,0.3,0.2,0.4c0.1,0.1,0.2,0.2,0.4,0.3s0.4,0.1,0.7,0.2
		c0.4,0.1,0.7,0.2,1,0.4s0.5,0.3,0.7,0.5c0.2,0.2,0.3,0.6,0.3,0.9c0,0.3-0.1,0.6-0.3,0.9s-0.4,0.5-0.8,0.7s-0.7,0.3-1.2,0.3
		C307.8,128.1,307.4,128,307.1,127.9z"/>
	<path fill="#363636" d="M314.5,128l-1.7-2.1v2.1h-1.3v-6.7h1.3v3.8l1.7-2.1h1.6l-2.2,2.5l2.2,2.5H314.5z"/>
	<path fill="#363636" d="M316.9,122.2c-0.1-0.1-0.2-0.3-0.2-0.5c0-0.2,0.1-0.4,0.2-0.5c0.1-0.1,0.3-0.2,0.6-0.2
		c0.2,0,0.4,0.1,0.6,0.2c0.1,0.1,0.2,0.3,0.2,0.5c0,0.2-0.1,0.4-0.2,0.5c-0.1,0.1-0.3,0.2-0.6,0.2
		C317.3,122.4,317.1,122.4,316.9,122.2z M318.1,123v5h-1.3v-5H318.1z"/>
	<path fill="#363636" d="M320.6,121.4v6.7h-1.3v-6.7H320.6z"/>
	<path fill="#363636" d="M323.1,121.4v6.7h-1.3v-6.7H323.1z"/>
	<path fill="#363636" d="M325.2,127.9c-0.3-0.1-0.6-0.3-0.8-0.6c-0.2-0.3-0.3-0.5-0.3-0.8h1.3c0,0.2,0.1,0.4,0.3,0.5
		s0.4,0.2,0.6,0.2c0.2,0,0.4,0,0.6-0.1c0.1-0.1,0.2-0.2,0.2-0.4c0-0.2-0.1-0.3-0.2-0.4s-0.4-0.2-0.8-0.3c-0.4-0.1-0.7-0.2-0.9-0.3
		c-0.2-0.1-0.4-0.2-0.6-0.4c-0.2-0.2-0.3-0.5-0.3-0.8c0-0.3,0.1-0.5,0.2-0.8c0.2-0.2,0.4-0.4,0.7-0.5s0.6-0.2,1-0.2
		c0.6,0,1.1,0.1,1.4,0.4c0.4,0.3,0.5,0.7,0.6,1.2H327c0-0.2-0.1-0.4-0.2-0.5c-0.1-0.1-0.3-0.2-0.6-0.2c-0.2,0-0.4,0-0.5,0.1
		c-0.1,0.1-0.2,0.2-0.2,0.4c0,0.2,0.1,0.3,0.3,0.4c0.2,0.1,0.4,0.2,0.8,0.3c0.4,0.1,0.7,0.2,0.9,0.3s0.4,0.2,0.6,0.4
		s0.3,0.5,0.3,0.8c0,0.3-0.1,0.5-0.2,0.8c-0.2,0.2-0.4,0.4-0.7,0.5c-0.3,0.1-0.6,0.2-1,0.2C325.8,128.1,325.5,128,325.2,127.9z"/>
	<path fill="#363636" d="M333.1,123.2c0.3,0.2,0.5,0.4,0.7,0.7c0.2,0.3,0.2,0.7,0.2,1.2v2.9h-1.3v-2.8c0-0.4-0.1-0.7-0.3-0.9
		c-0.2-0.2-0.5-0.3-0.8-0.3c-0.3,0-0.6,0.1-0.8,0.3c-0.2,0.2-0.3,0.5-0.3,0.9v2.8h-1.3v-6.7h1.3v2.3c0.2-0.2,0.4-0.4,0.6-0.5
		c0.3-0.1,0.6-0.2,0.9-0.2C332.4,123,332.8,123,333.1,123.2z"/>
	<path fill="#363636" d="M335.2,124.2c0.2-0.4,0.5-0.7,0.8-0.9c0.3-0.2,0.7-0.3,1.2-0.3c0.4,0,0.7,0.1,1,0.2
		c0.3,0.1,0.5,0.3,0.7,0.6V123h1.3v5h-1.3v-0.7c-0.2,0.2-0.4,0.4-0.7,0.6s-0.6,0.2-1,0.2c-0.4,0-0.8-0.1-1.1-0.3
		c-0.3-0.2-0.6-0.5-0.8-0.9c-0.2-0.4-0.3-0.8-0.3-1.4C334.9,125,335,124.6,335.2,124.2z M338.6,124.7c-0.1-0.2-0.3-0.4-0.5-0.5
		c-0.2-0.1-0.4-0.2-0.7-0.2c-0.2,0-0.5,0.1-0.6,0.2s-0.4,0.3-0.5,0.5c-0.1,0.2-0.2,0.5-0.2,0.8s0.1,0.6,0.2,0.8
		c0.1,0.2,0.3,0.4,0.5,0.5s0.4,0.2,0.6,0.2c0.2,0,0.5-0.1,0.7-0.2c0.2-0.1,0.4-0.3,0.5-0.5c0.1-0.2,0.2-0.5,0.2-0.8
		C338.8,125.2,338.7,125,338.6,124.7z"/>
	<path fill="#363636" d="M343.2,123.2c0.3-0.1,0.6-0.2,0.9-0.2v1.3h-0.3c-0.4,0-0.7,0.1-0.9,0.3c-0.2,0.2-0.3,0.5-0.3,1v2.5h-1.3v-5
		h1.3v0.8C342.7,123.5,342.9,123.3,343.2,123.2z"/>
	<path fill="#363636" d="M349.5,125.9h-3.6c0,0.4,0.2,0.6,0.4,0.8c0.2,0.2,0.5,0.3,0.8,0.3c0.5,0,0.8-0.2,1-0.6h1.4
		c-0.1,0.5-0.4,0.9-0.8,1.2c-0.4,0.3-0.9,0.5-1.5,0.5c-0.5,0-0.9-0.1-1.3-0.3c-0.4-0.2-0.7-0.5-0.9-0.9c-0.2-0.4-0.3-0.8-0.3-1.4
		c0-0.5,0.1-1,0.3-1.4c0.2-0.4,0.5-0.7,0.9-0.9s0.8-0.3,1.3-0.3c0.5,0,0.9,0.1,1.3,0.3s0.7,0.5,0.9,0.9s0.3,0.8,0.3,1.3
		C349.6,125.6,349.6,125.8,349.5,125.9z M348.3,125.1c0-0.3-0.1-0.6-0.4-0.8c-0.2-0.2-0.5-0.3-0.8-0.3c-0.3,0-0.6,0.1-0.8,0.3
		c-0.2,0.2-0.3,0.5-0.4,0.8H348.3z"/>
</g>
<path fill="#FFA300" d="M113.1,120.6c-0.2-0.6-0.7-1.1-1.3-1.1L108,119l-1.6-3.4c-0.3-0.6-0.9-0.9-1.5-0.9c-0.7,0-1.2,0.3-1.5,0.9
	l-1.6,3.4l-3.7,0.5c-0.6,0.1-1.1,0.5-1.3,1.1c-0.2,0.6,0,1.3,0.4,1.7l2.7,2.6l-0.6,3.7c-0.1,0.6,0.1,1.3,0.7,1.7
	c0.5,0.4,1.2,0.4,1.7,0.1l3.3-1.7l3.3,1.7c0.3,0.1,0.5,0.2,0.8,0.2c0.3,0,0.7-0.1,1-0.3c0.5-0.4,0.8-1,0.7-1.7l-0.6-3.7l2.7-2.6
	C113.1,121.9,113.3,121.2,113.1,120.6z"/>
<path fill="#FFA300" d="M92.9,120.6c-0.2-0.6-0.7-1.1-1.3-1.1l-3.7-0.5l-1.6-3.4c-0.3-0.6-0.9-0.9-1.5-0.9c-0.7,0-1.2,0.3-1.5,0.9
	l-1.6,3.4l-3.7,0.5c-0.6,0.1-1.1,0.5-1.3,1.1c-0.2,0.6,0,1.3,0.4,1.7l2.7,2.6l-0.6,3.7c-0.1,0.6,0.1,1.3,0.7,1.7
	c0.5,0.4,1.2,0.4,1.7,0.1l3.3-1.7l3.3,1.7c0.3,0.1,0.5,0.2,0.8,0.2c0.3,0,0.7-0.1,1-0.3c0.5-0.4,0.8-1,0.7-1.7L90,125l2.7-2.6
	C92.9,121.9,93.1,121.2,92.9,120.6z"/>
<path fill="#FFA300" d="M133.3,120.6c-0.2-0.6-0.7-1.1-1.3-1.1l-3.7-0.5l-1.6-3.4c-0.3-0.6-0.9-0.9-1.5-0.9s-1.2,0.3-1.5,0.9
	l-1.6,3.4l-3.7,0.5c-0.6,0.1-1.1,0.5-1.3,1.1c-0.2,0.6,0,1.3,0.4,1.7l2.7,2.6l-0.6,3.7c-0.1,0.6,0.1,1.3,0.7,1.7
	c0.5,0.4,1.2,0.4,1.7,0.1l3.3-1.7l3.3,1.7c0.3,0.1,0.5,0.2,0.8,0.2c0.3,0,0.7-0.1,1-0.3c0.5-0.4,0.8-1,0.7-1.7l-0.6-3.7l2.7-2.6
	C133.3,121.9,133.5,121.2,133.3,120.6z"/>
<g id="_x32_Lap3Y_00000177484031234964950230000011914793645766200985_">
	<path fill="#363636" stroke="#F2EDED" stroke-linejoin="round" stroke-miterlimit="10" d="M118.5,53.9c0.1,0.9,0.4,1.7,0.4,2.6
		c0,7.4,0,14.8,0,22.2c0,0.9-0.1,1.7-0.6,2.4c-0.7,1-1.7,1.5-2.9,1.5c-11.5,0-22.9,0-34.4,0c-0.9,0-1.7-0.1-2.5-0.6
		c-1.1-0.8-1.5-1.8-1.5-3.1c0-2.3,0-4.6,0-7c0-9.8,0-19.6,0-29.3c0-0.3,0-0.5,0-0.8c0.1-0.6,0.5-1,1.1-1c0.6,0,1.1,0.4,1.2,1
		c0,0.2,0,0.4,0,0.6c0,12,0,24.1,0,36.1c0,1.4,0.3,1.7,1.7,1.7c10.1,0,20.2,0,30.2,0c0.2,0,0.5,0,0.6,0c0-8.1,0-16.2,0-24.3
		c0-0.7,0.3-1.4,0.4-2.1c-0.3-0.3-0.7-0.7-1-1.2c-0.9-1.4-0.9-2.9-0.3-4.4c0.7-1.9,2-3.4,3.4-4.8c0.5-0.5,1.1-0.5,1.6,0
		c1.5,1.4,2.9,3,3.5,5.1c0.6,1.9,0.4,3.7-1.1,5.1c-0.1,0.1-0.2,0.2-0.3,0.3C118.4,53.9,118.5,53.9,118.5,53.9z M114.3,64
		c0,0.3,0,0.5,0,0.6c0,4.7,0,9.3,0,14c0,0.2,0,0.3,0,0.5c0.1,0.7,0.5,1.1,1.1,1.2c0.6,0,1.1-0.4,1.2-1.1c0-0.2,0-0.4,0-0.5
		c0-4.7,0-9.3,0-14c0-0.2,0-0.4,0-0.6C115.8,64,115,64,114.3,64z M115.5,45.9c-0.1,0-0.2,0-0.3,0c-0.6,0.9-1.2,1.7-1.7,2.6
		c-0.3,0.6-0.4,1.3-0.5,2c0,0.7,0.3,1.5,1.1,1.7c0.7,0.2,1.4,0.2,2.1,0.1c0.8-0.1,1.3-0.6,1.4-1.5c0-0.6,0.1-1.3-0.2-1.9
		C116.9,47.9,116.2,46.9,115.5,45.9z M114.3,61.6c0.8,0,1.5,0,2.3,0c0-0.8,0-1.6,0-2.3c0-1.1,0-2.2,0-3.4c0-0.7-0.5-1.2-1.2-1.2
		c-0.6,0-1.1,0.5-1.2,1.2C114.2,57.8,114.3,59.7,114.3,61.6z"/>
	<path fill="#363636" stroke="#F2EDED" stroke-linejoin="round" stroke-miterlimit="10" d="M79.4,36.1c0.3,0,0.6,0,0.8,0
		c15.4,0,30.8,0,46.3,0c0.3,0,0.5,0,0.8,0c0.6,0.1,1,0.5,1,1.1c0,0.6-0.4,1.1-0.9,1.2c-0.2,0-0.4,0-0.6,0c-16,0-32,0-48,0
		c-1.2,0-1.6-0.4-1.6-1.6c0-2.2,0-4.4,0-6.7c0.1-2.1,1.5-3.3,3.5-3.4c0.1,0,0.2,0,0.3,0c16,0,32.1,0,48.1,0c1.5,0,2.8,0.5,3.4,1.9
		c0.3,0.5,0.4,1.2,0.4,1.8c0,2.9,0,5.9,0,8.8c0,0.5,0,1-0.5,1.3c-0.8,0.5-1.8,0-1.8-1.1c0-1.2,0-2.4,0-3.5c0-1.8,0-3.6,0-5.4
		c0-1-0.4-1.5-1.5-1.5c-16.1,0-32.1,0-48.2,0c-1.1,0-1.5,0.4-1.5,1.4C79.4,32.4,79.4,34.2,79.4,36.1z"/>
	<path fill="#363636" stroke="#F2EDED" stroke-linejoin="round" stroke-miterlimit="10" d="M121.2,62.8c0-6,0-12.1,0-18.1
		c0-1.3,0.4-1.6,1.7-1.6c2.8,0,5.5,0,8.3,0c1.3,0,1.7,0.4,1.7,1.6c0,12.1,0,24.3,0,36.4c0,1.1-0.4,1.5-1.5,1.5c-2.9,0-5.7,0-8.6,0
		c-1.1,0-1.5-0.4-1.5-1.5C121.2,75,121.2,68.9,121.2,62.8z M130.5,75.6c0-0.8,0-1.5,0-2.3c-0.4,0-0.7,0-1,0c-0.7,0-1.2-0.5-1.2-1.2
		c0-0.6,0.5-1.1,1.2-1.2c0.3,0,0.7,0,1,0c0-0.8,0-1.5,0-2.3c-0.4,0-0.8,0-1.2,0c-0.8,0-1.6,0-2.4-0.1c-0.7-0.1-1.1-0.7-1-1.4
		c0.1-0.5,0.5-0.8,1.2-0.9c1.1,0,2.2,0,3.4,0c0-0.8,0-1.6,0-2.3c-0.3,0-0.6,0-0.9,0c-0.8,0-1.3-0.5-1.3-1.1c0-0.7,0.5-1.2,1.3-1.2
		c0.3,0,0.6,0,1,0c0-0.8,0-1.5,0-2.3c-0.2,0-0.5,0-0.7,0c-0.8,0-1.7,0-2.5,0c-0.5,0-1-0.1-1.3-0.6c-0.4-0.8,0.1-1.7,1.1-1.7
		c1.1,0,2.2,0,3.4,0c0-0.8,0-1.5,0-2.3c-0.4,0-0.7,0-1,0c-0.7,0-1.2-0.5-1.2-1.1c0-0.7,0.4-1.1,1.2-1.2c0.3,0,0.7,0,1.1,0
		c0-0.8,0-1.5,0-2.3c-0.3,0-0.6,0-0.9,0c-0.9,0-1.8,0-2.6,0c-0.6,0-1-0.5-1-1.1c0-0.6,0.4-1,1-1.1c0.3,0,0.5,0,0.8,0
		c0.9,0,1.8,0,2.8,0c0-0.8,0-1.5,0-2.3c-2.3,0-4.6,0-6.9,0c0,11.6,0,23.2,0,34.8c2.3,0,4.6,0,6.9,0c0-0.8,0-1.5,0-2.3
		c-0.2,0-0.5,0-0.7,0c-0.9,0-1.8,0-2.8,0c-0.5,0-0.9-0.2-1.1-0.7c-0.2-0.5-0.1-1,0.2-1.2c0.3-0.2,0.7-0.4,1.1-0.4
		C128.4,75.6,129.4,75.6,130.5,75.6z"/>
	<path fill="#363636" stroke="#F2EDED" stroke-linejoin="round" stroke-miterlimit="10" d="M84,43.1c0,0.3,0,0.5,0,0.7
		c0,4.2,0,8.3,0,12.5c0,0.6,0.1,0.8,0.7,0.8c7.7,0,15.5,0,23.2,0c0.3,0,0.7,0.1,1,0.2c0.5,0.2,0.6,0.7,0.6,1.2
		c-0.1,0.5-0.4,0.8-0.9,0.9c-0.2,0-0.5,0.1-0.8,0.1c-8.2,0-16.4,0-24.6,0c-1.3,0-1.6-0.3-1.6-1.6c0-5.1,0-10.3,0-15.4
		c0-1.2,0.4-1.6,1.6-1.6c9,0,18.1,0,27.1,0c0.4,0,0.7,0.1,1,0.3c0.4,0.2,0.5,0.7,0.4,1.1c-0.1,0.5-0.4,0.8-0.9,0.9
		c-0.2,0-0.5,0-0.7,0c-8.5,0-17,0-25.5,0C84.6,43.1,84.4,43.1,84,43.1z"/>
	<path fill="#363636" stroke="#F2EDED" stroke-linejoin="round" stroke-miterlimit="10" d="M89.8,78c-2.2,0-4.4,0-6.7,0
		c-1.1,0-1.5-0.4-1.5-1.4c0-4.4,0-8.9,0-13.3c0-1.1,0.4-1.5,1.5-1.5c4.4,0,8.7,0,13.1,0c1.3,0,1.7,0.4,1.7,1.6c0,4.3,0,8.6,0,13
		c0,0.1,0,0.2,0,0.3c0,0.9-0.4,1.4-1.4,1.4C94.3,78,92.1,78,89.8,78z M84.1,64c0,3.9,0,7.7,0,11.5c3.9,0,7.7,0,11.5,0
		c0-3.9,0-7.7,0-11.5C91.7,64,87.9,64,84.1,64z"/>
	<path fill="#363636" stroke="#F2EDED" stroke-linejoin="round" stroke-miterlimit="10" d="M105,73.3c-1.1,0-2.3,0-3.4,0
		c-0.6,0-1-0.3-1.2-0.8c-0.2-0.5-0.1-0.9,0.3-1.2c0.2-0.2,0.6-0.3,0.9-0.3c2.2,0,4.4,0,6.7,0c0.8,0,1.4,0.5,1.4,1.2
		c0,0.7-0.5,1.1-1.4,1.1C107.1,73.3,106,73.3,105,73.3C105,73.3,105,73.3,105,73.3z"/>
	<path fill="#363636" stroke="#F2EDED" stroke-linejoin="round" stroke-miterlimit="10" d="M105,61.7c1.1,0,2.2,0,3.3,0
		c0.8,0,1.3,0.5,1.3,1.2c0,0.7-0.5,1.2-1.3,1.2c-2.2,0-4.4,0-6.6,0c-0.8,0-1.3-0.4-1.4-1.1c0-0.7,0.5-1.2,1.4-1.2
		C102.8,61.7,103.9,61.7,105,61.7z"/>
	<path fill="#363636" stroke="#F2EDED" stroke-linejoin="round" stroke-miterlimit="10" d="M103.8,75.6c0.7,0,1.5,0,2.2,0
		c0.8,0,1.3,0.5,1.3,1.2c0,0.7-0.5,1.1-1.3,1.1c-1.5,0-2.9,0-4.4,0c-0.8,0-1.3-0.5-1.3-1.2c0-0.7,0.5-1.1,1.3-1.1
		C102.3,75.6,103.1,75.6,103.8,75.6z"/>
	<path fill="#363636" stroke="#F2EDED" stroke-linejoin="round" stroke-miterlimit="10" d="M103.8,68.7c-0.7,0-1.5,0-2.2,0
		c-0.8,0-1.3-0.5-1.2-1.2c0-0.7,0.5-1.1,1.2-1.1c1.5,0,3,0,4.5,0c0.7,0,1.2,0.5,1.3,1.1c0,0.7-0.5,1.2-1.3,1.2
		C105.3,68.7,104.5,68.7,103.8,68.7z"/>
	<path fill="#363636" stroke="#F2EDED" stroke-linejoin="round" stroke-miterlimit="10" d="M86.4,31.5c0.6,0,1.1,0.5,1.1,1.2
		c0,0.7-0.5,1.2-1.2,1.1c-0.6,0-1.1-0.6-1.1-1.2C85.2,31.9,85.7,31.5,86.4,31.5z"/>
	<path fill="#363636" stroke="#F2EDED" stroke-linejoin="round" stroke-miterlimit="10" d="M89.8,31.5c0.6,0,1.2,0.5,1.2,1.1
		c0,0.7-0.5,1.2-1.2,1.2c-0.6,0-1.1-0.5-1.1-1.2C88.7,32,89.2,31.5,89.8,31.5z"/>
	<path fill="#363636" stroke="#F2EDED" stroke-linejoin="round" stroke-miterlimit="10" d="M81.7,32.6c0-0.7,0.5-1.2,1.1-1.2
		c0.7,0,1.2,0.5,1.2,1.1c0,0.7-0.5,1.2-1.1,1.2C82.2,33.8,81.7,33.3,81.7,32.6z"/>
</g>
</svg>
