<?xml version="1.0" encoding="utf-8"?>
<!-- Generator: Adobe Illustrator 26.2.1, SVG Export Plug-In . SVG Version: 6.00 Build 0)  -->
<svg version="1.1" baseProfile="tiny" id="Layer_1" xmlns="http://www.w3.org/2000/svg" xmlns:xlink="http://www.w3.org/1999/xlink"
	 x="0px" y="0px" width="300px" height="600px" viewBox="0 0 300 600" overflow="visible" xml:space="preserve">
<path fill="#F2EDED" d="M263.3,578.5H36.7c-9.2,0-16.7-7.5-16.7-16.7V38.2c0-9.2,7.5-16.7,16.7-16.7h226.5c9.2,0,16.7,7.5,16.7,16.7
	v523.6C280,571,272.5,578.5,263.3,578.5z"/>
<g>
	<path fill="#F2BABA" d="M271.7,233.5H28.3c-3.8,0-6.9-3.1-6.9-6.9v-87.4c0-3.8,3.1-6.9,6.9-6.9h243.3c3.8,0,6.9,3.1,6.9,6.9v87.4
		C278.5,230.4,275.5,233.5,271.7,233.5z"/>
	<rect x="31.4" y="132.3" fill="none" width="237.1" height="101.2"/>
	<text transform="matrix(1.0114 0 0 1 107.4321 187.9862)" fill="#6D5252" font-family="'Poppins-Medium'" font-size="12px">Thinking Time</text>
</g>
<g>
	<path fill="#F2BABA" d="M273.1,553.1H26.9c-3.8,0-6.9-3.1-6.9-6.9v-87.4c0-3.8,3.1-6.9,6.9-6.9h246.2c3.8,0,6.9,3.1,6.9,6.9v87.4
		C280,550,276.9,553.1,273.1,553.1z"/>
	<rect x="31.4" y="451.9" fill="none" width="237.1" height="101.2"/>
	<text transform="matrix(1.0114 0 0 1 108.2935 507.5551)" fill="#6D5252" font-family="'Poppins-Medium'" font-size="12px">Courses Time</text>
</g>
<g>
	<path fill="#F2DCBA" d="M273.1,356.8H26.9c-3.8,0-6.9-3.1-6.9-6.9v-61.5c0-3.8,3.1-6.9,6.9-6.9h246.2c3.8,0,6.9,3.1,6.9,6.9v61.5
		C280,353.7,276.9,356.8,273.1,356.8z"/>
	<rect x="31.4" y="281.6" fill="none" width="237.1" height="75.2"/>
	<text transform="matrix(1 0 0 1 122.1664 324.2951)" fill="#6B6251" font-family="'Poppins-Medium'" font-size="12px">Excercise</text>
</g>
<g>
	<path fill="#F2BABA" d="M273.1,448.9H26.9c-3.8,0-6.9-3.1-6.9-6.9v-9.4c0-3.8,3.1-6.9,6.9-6.9h246.2c3.8,0,6.9,3.1,6.9,6.9v9.4
		C280,445.8,276.9,448.9,273.1,448.9z"/>
	<rect x="31.4" y="425.7" fill="none" width="237.1" height="23.1"/>
	<text transform="matrix(1 0 0 1 116.3705 442.3702)" fill="#695353" font-family="'Poppins-Medium'" font-size="12px">Languages</text>
</g>
</svg>
