<?xml version="1.0" encoding="utf-8"?>
<!-- Generator: Adobe Illustrator 26.2.1, SVG Export Plug-In . SVG Version: 6.00 Build 0)  -->
<svg version="1.1" baseProfile="tiny" id="Layer_1" xmlns="http://www.w3.org/2000/svg" xmlns:xlink="http://www.w3.org/1999/xlink"
	 x="0px" y="0px" width="300px" height="600px" viewBox="0 0 300 600" overflow="visible" xml:space="preserve">
<path fill="#F2EDED" d="M263.3,578.5H36.7c-9.2,0-16.7-7.5-16.7-16.7V38.2c0-9.2,7.5-16.7,16.7-16.7h226.5c9.2,0,16.7,7.5,16.7,16.7
	v523.6C280,571,272.5,578.5,263.3,578.5z"/>
<g>
	<path fill="#F2BABA" d="M273.1,62.7H26.9c-3.8,0-6.9-3.1-6.9-6.9v-9.4c0-3.8,3.1-6.9,6.9-6.9h246.2c3.8,0,6.9,3.1,6.9,6.9v9.4
		C280,59.6,276.9,62.7,273.1,62.7z"/>
	<rect x="31.4" y="39.5" fill="none" width="237.1" height="23.1"/>
	<text transform="matrix(1 0 0 1 116.3705 56.2068)" fill="#6D5252" font-family="'Poppins-Medium'" font-size="12px">Languages</text>
</g>
<g>
	<path fill="#F2BABA" d="M271.7,204.8H28.3c-3.8,0-6.9-3.1-6.9-6.9v-9.4c0-3.8,3.1-6.9,6.9-6.9h243.3c3.8,0,6.9,3.1,6.9,6.9v9.4
		C278.5,201.7,275.5,204.8,271.7,204.8z"/>
	<rect x="20" y="181.6" fill="none" width="260" height="23.1"/>
	<text transform="matrix(1.0114 0 0 1 115.9873 198.3052)" fill="#6D5252" font-family="'Poppins-Medium'" font-size="12px">Languages</text>
</g>
<g>
	<path fill="#F2BABA" d="M271.7,562.4H28.3c-3.8,0-6.9-3.1-6.9-6.9v-9.4c0-3.8,3.1-6.9,6.9-6.9h243.3c3.8,0,6.9,3.1,6.9,6.9v9.4
		C278.5,559.4,275.5,562.4,271.7,562.4z"/>
	<rect x="20" y="539.3" fill="none" width="260" height="23.1"/>
	<text transform="matrix(1.0114 0 0 1 108.293 555.958)" fill="#6D5252" font-family="'Poppins-Medium'" font-size="12px">Courses Time</text>
</g>
<g>
	<path fill="#F2DCBA" d="M273.1,87.9H26.9c-3.8,0-6.9-3.1-6.9-6.9v-8.9c0-3.8,3.1-6.9,6.9-6.9h246.2c3.8,0,6.9,3.1,6.9,6.9V81
		C280,84.8,276.9,87.9,273.1,87.9z"/>
	<rect x="31.4" y="65.2" fill="none" width="237.1" height="23.3"/>
	<text transform="matrix(1 0 0 1 122.1664 81.9041)" fill="#6B6251" font-family="'Poppins-Medium'" font-size="12px">Excercise</text>
</g>
<g>
	<path fill="#B8E0CE" d="M273.1,323.3H26.9c-3.8,0-6.9-3.1-6.9-6.9v-62c0-3.8,3.1-6.9,6.9-6.9h246.2c3.8,0,6.9,3.1,6.9,6.9v62
		C280,320.2,276.9,323.3,273.1,323.3z"/>
	<rect x="31.4" y="247.6" fill="none" width="237.1" height="75.8"/>
	<text transform="matrix(1 0 0 1 110.0765 290.5256)" fill="#50685E" font-family="'Poppins-Medium'" font-size="12px">Focus Time +</text>
</g>
<g>
	<path fill="#B8E0CE" d="M273.1,458.1H26.9c-3.8,0-6.9-3.1-6.9-6.9v-62c0-3.8,3.1-6.9,6.9-6.9h246.2c3.8,0,6.9,3.1,6.9,6.9v62
		C280,455,276.9,458.1,273.1,458.1z"/>
	<rect x="31.4" y="382.3" fill="none" width="237.1" height="75.8"/>
	<text transform="matrix(1 0 0 1 115.9203 425.28)" fill="#50685E" font-family="'Poppins-Medium'" font-size="12px">Focus Time</text>
</g>
<g>
	<path fill="#B8E0CE" d="M273.1,179.4H26.9c-3.8,0-6.9-3.1-6.9-6.9v-62c0-3.8,3.1-6.9,6.9-6.9h246.2c3.8,0,6.9,3.1,6.9,6.9v62
		C280,176.3,276.9,179.4,273.1,179.4z"/>
	<rect x="31.4" y="103.6" fill="none" width="237.1" height="75.8"/>
	<text transform="matrix(1 0 0 1 110.0765 146.5602)" fill="#50685E" font-family="'Poppins-Medium'" font-size="12px">Focus Time +</text>
</g>
<g>
	<path fill="#F2DCBA" d="M273.1,362.5H26.9c-3.8,0-6.9-3.1-6.9-6.9v-22.4c0-3.8,3.1-6.9,6.9-6.9h246.2c3.8,0,6.9,3.1,6.9,6.9v22.4
		C280,359.4,276.9,362.5,273.1,362.5z"/>
	<rect x="31.4" y="326.4" fill="none" width="237.1" height="36.1"/>
	<text transform="matrix(1 0 0 1 122.1664 349.5128)" fill="#6B6251" font-family="'Poppins-Medium'" font-size="12px">Excercise</text>
</g>
<g>
	<path fill="#F2DCBA" d="M273.1,536.3H26.9c-3.8,0-6.9-3.1-6.9-6.9V468c0-3.8,3.1-6.9,6.9-6.9h246.2c3.8,0,6.9,3.1,6.9,6.9v61.5
		C280,533.2,276.9,536.3,273.1,536.3z"/>
	<rect x="31.4" y="461.1" fill="none" width="237.1" height="75.2"/>
	<text transform="matrix(1 0 0 1 122.1664 503.7739)" fill="#6B6251" font-family="'Poppins-Medium'" font-size="12px">Excercise</text>
</g>
<g id="lOOHDA_00000152253787235204476650000005493094116793767300_">
	<path fill="#50685E" d="M208.3,146.8c0.1,0,0.2,0,0.3,0c1.4,0,2.9,0,4.3,0c0.6,0,0.8,0.2,0.7,0.8c0,1.2-0.5,2.2-1.6,2.7
		c-0.4,0.2-1,0.3-1.4,0.3c-4.5,0-9,0-13.5,0c-0.8,0-1.6-0.2-2.2-0.8c-0.7-0.7-0.8-1.5-0.8-2.4c0-0.3,0.2-0.5,0.6-0.5
		c1.5,0,2.9,0,4.4,0c0.1,0,0.2,0,0.3,0c0,0,0,0,0-0.1c-0.1-0.1-0.2-0.1-0.3-0.2c-1.9-1.1-3.2-2.7-3.7-4.9c-0.1-0.5-0.2-1.1-0.2-1.6
		c0-0.5,0.2-0.7,0.6-0.7c1.9,0,3.9,0,5.8,0c4.2,0,8.3,0,12.5,0c0.5,0,1.1,0.1,1.6,0.2c1.4,0.3,1.9,1.1,1.6,2.5
		c-0.2,1.2-1,1.9-2.1,2.3c-0.9,0.4-2,0.6-3,0.7c-0.6,0.1-1.2,0.1-1.7,0.1c-0.1,0-0.2,0-0.3,0.1C209.7,145.8,209,146.3,208.3,146.8
		C208.4,146.8,208.4,146.8,208.3,146.8z M196.3,140.5c0,0.1,0,0.2,0,0.3c0.2,1.5,0.9,2.9,2,3.9c2.1,1.9,4.6,2.6,7.4,2
		c2.6-0.6,4.5-2.1,5.5-4.7c0.2-0.4,0.2-0.9,0.3-1.4C206.4,140.5,201.3,140.5,196.3,140.5z M212.5,147.9c-5.8,0-11.6,0-17.3,0
		c0,0.9,0.6,1.5,1.4,1.6c0.2,0,0.4,0,0.6,0c4.4,0,8.9,0,13.3,0c0.1,0,0.3,0,0.4,0C211.9,149.4,212.4,148.9,212.5,147.9z
		 M211.3,144.2c0.5-0.1,1-0.1,1.4-0.2c0.9-0.1,1.7-0.3,2.5-0.7c0.5-0.3,0.9-0.7,1.1-1.3c0.2-1,0-1.3-0.9-1.4
		c-0.4-0.1-0.8-0.1-1.3-0.1c-0.5,0-1,0-1.5,0C212.5,141.8,212,143,211.3,144.2z"/>
	<path fill="#50685E" d="M200.4,130.4c0.1,0.1,0.3,0.2,0.4,0.3c0.1,0.1,0,0.4,0,0.5c0,0.1-0.2,0.2-0.2,0.3c-0.4,0.5-0.4,1.1-0.2,1.6
		c0.2,0.5,0.5,1.1,0.7,1.6c0.3,1.1,0.3,2.1-0.1,3.2c-0.1,0.3-0.4,0.5-0.7,0.4c-0.3-0.1-0.4-0.4-0.3-0.7c0-0.1,0.1-0.3,0.1-0.4
		c0.1-0.5,0.2-1,0.1-1.5c0-0.3-0.2-0.7-0.3-1c-0.2-0.5-0.5-1-0.6-1.5c-0.3-1,0.1-2,0.8-2.6C200.1,130.5,200.2,130.4,200.4,130.4z"/>
	<path fill="#50685E" d="M207.7,136.1c0-0.5-0.2-0.9-0.4-1.3c-0.2-0.5-0.5-1-0.6-1.5c-0.3-1,0-1.8,0.7-2.6c0.2-0.3,0.6-0.3,0.8-0.1
		c0.2,0.2,0.2,0.5,0,0.8c-0.1,0.1-0.1,0.1-0.2,0.2c-0.4,0.5-0.5,1.1-0.2,1.7c0.2,0.5,0.5,1.1,0.7,1.7c0.3,1,0.3,2.1-0.1,3.1
		c-0.2,0.4-0.4,0.5-0.7,0.4c-0.3-0.1-0.4-0.4-0.3-0.8C207.4,137.1,207.6,136.6,207.7,136.1z"/>
	<path fill="#50685E" d="M204,137.3c-0.3,0-0.5-0.3-0.4-0.6c0.1-0.3,0.2-0.6,0.2-0.9c0.2-0.7,0.1-1.4-0.2-2.1
		c-0.2-0.4-0.3-0.7-0.5-1.1c-0.5-1.1-0.2-2.1,0.5-3c0.2-0.3,0.6-0.3,0.8-0.1c0.2,0.2,0.2,0.5,0,0.8c0,0.1-0.1,0.1-0.1,0.2
		c-0.4,0.5-0.5,1.1-0.2,1.7c0.3,0.7,0.6,1.4,0.8,2.2c0.2,0.9,0.1,1.8-0.3,2.6C204.4,137.2,204.3,137.3,204,137.3z"/>
</g>
<g id="lOOHDA_00000033357022832710592600000017840068489051148722_">
	<path fill="#50685E" d="M208.3,290.8c0.1,0,0.2,0,0.3,0c1.4,0,2.9,0,4.3,0c0.6,0,0.8,0.2,0.7,0.8c0,1.2-0.5,2.2-1.6,2.7
		c-0.4,0.2-1,0.3-1.4,0.3c-4.5,0-9,0-13.5,0c-0.8,0-1.6-0.2-2.2-0.8c-0.7-0.7-0.8-1.5-0.8-2.4c0-0.3,0.2-0.5,0.6-0.5
		c1.5,0,2.9,0,4.4,0c0.1,0,0.2,0,0.3,0c0,0,0,0,0-0.1c-0.1-0.1-0.2-0.1-0.3-0.2c-1.9-1.1-3.2-2.7-3.7-4.9c-0.1-0.5-0.2-1.1-0.2-1.6
		c0-0.5,0.2-0.7,0.6-0.7c1.9,0,3.9,0,5.8,0c4.2,0,8.3,0,12.5,0c0.5,0,1.1,0.1,1.6,0.2c1.4,0.3,1.9,1.1,1.6,2.5
		c-0.2,1.2-1,1.9-2.1,2.3c-0.9,0.4-2,0.6-3,0.7c-0.6,0.1-1.2,0.1-1.7,0.1c-0.1,0-0.2,0-0.3,0.1C209.7,289.8,209,290.2,208.3,290.8
		C208.4,290.7,208.4,290.7,208.3,290.8z M196.3,284.5c0,0.1,0,0.2,0,0.3c0.2,1.5,0.9,2.9,2,3.9c2.1,1.9,4.6,2.6,7.4,2
		c2.6-0.6,4.5-2.1,5.5-4.7c0.2-0.4,0.2-0.9,0.3-1.4C206.4,284.5,201.3,284.5,196.3,284.5z M212.5,291.9c-5.8,0-11.6,0-17.3,0
		c0,0.9,0.6,1.5,1.4,1.6c0.2,0,0.4,0,0.6,0c4.4,0,8.9,0,13.3,0c0.1,0,0.3,0,0.4,0C211.9,293.4,212.4,292.9,212.5,291.9z
		 M211.3,288.1c0.5-0.1,1-0.1,1.4-0.2c0.9-0.1,1.7-0.3,2.5-0.7c0.5-0.3,0.9-0.7,1.1-1.3c0.2-1,0-1.3-0.9-1.4
		c-0.4-0.1-0.8-0.1-1.3-0.1c-0.5,0-1,0-1.5,0C212.5,285.8,212,287,211.3,288.1z"/>
	<path fill="#50685E" d="M200.4,274.3c0.1,0.1,0.3,0.2,0.4,0.3c0.1,0.1,0,0.4,0,0.5c0,0.1-0.2,0.2-0.2,0.3c-0.4,0.5-0.4,1.1-0.2,1.6
		c0.2,0.5,0.5,1.1,0.7,1.6c0.3,1.1,0.3,2.1-0.1,3.2c-0.1,0.3-0.4,0.5-0.7,0.4c-0.3-0.1-0.4-0.4-0.3-0.7c0-0.1,0.1-0.3,0.1-0.4
		c0.1-0.5,0.2-1,0.1-1.5c0-0.3-0.2-0.7-0.3-1c-0.2-0.5-0.5-1-0.6-1.5c-0.3-1,0.1-2,0.8-2.6C200.1,274.4,200.2,274.4,200.4,274.3z"/>
	<path fill="#50685E" d="M207.7,280c0-0.5-0.2-0.9-0.4-1.3c-0.2-0.5-0.5-1-0.6-1.5c-0.3-1,0-1.8,0.7-2.6c0.2-0.3,0.6-0.3,0.8-0.1
		c0.2,0.2,0.2,0.5,0,0.8c-0.1,0.1-0.1,0.1-0.2,0.2c-0.4,0.5-0.5,1.1-0.2,1.7c0.2,0.5,0.5,1.1,0.7,1.7c0.3,1,0.3,2.1-0.1,3.1
		c-0.2,0.4-0.4,0.5-0.7,0.4c-0.3-0.1-0.4-0.4-0.3-0.8C207.4,281,207.6,280.5,207.7,280z"/>
	<path fill="#50685E" d="M204,281.3c-0.3,0-0.5-0.3-0.4-0.6c0.1-0.3,0.2-0.6,0.2-0.9c0.2-0.7,0.1-1.4-0.2-2.1
		c-0.2-0.4-0.3-0.7-0.5-1.1c-0.5-1.1-0.2-2.1,0.5-3c0.2-0.3,0.6-0.3,0.8-0.1c0.2,0.2,0.2,0.5,0,0.8c0,0.1-0.1,0.1-0.1,0.2
		c-0.4,0.5-0.5,1.1-0.2,1.7c0.3,0.7,0.6,1.4,0.8,2.2c0.2,0.9,0.1,1.8-0.3,2.6C204.4,281.1,204.3,281.3,204,281.3z"/>
</g>
</svg>
