<?xml version="1.0" encoding="utf-8"?>
<!-- Generator: Adobe Illustrator 26.2.1, SVG Export Plug-In . SVG Version: 6.00 Build 0)  -->
<svg version="1.1" baseProfile="tiny" id="Layer_1" xmlns="http://www.w3.org/2000/svg" xmlns:xlink="http://www.w3.org/1999/xlink"
	 x="0px" y="0px" width="260px" height="557px" viewBox="0 0 260 557" overflow="visible" xml:space="preserve">
<path fill="#F2EDED" d="M243.3,557H16.7C7.5,557,0,549.5,0,540.3V16.7C0,7.5,7.5,0,16.7,0h226.5c9.2,0,16.7,7.5,16.7,16.7v523.6
	C260,549.5,252.5,557,243.3,557z"/>
<g>
	<path fill="#F2BABA" d="M253.1,41.2H6.9c-3.8,0-6.9-3.1-6.9-6.9v-9.4C0,21.1,3.1,18,6.9,18h246.2c3.8,0,6.9,3.1,6.9,6.9v9.4
		C260,38.1,256.9,41.2,253.1,41.2z"/>
	<rect x="11.4" y="18" fill="none" width="237.1" height="23.1"/>
	<g>
		<path fill="#6D5252" d="M98.6,33.6h2.8v1.1h-4.2v-8.3h1.4V33.6z"/>
		<path fill="#6D5252" d="M102.6,29.6c0.3-0.5,0.7-0.9,1.1-1.2s1-0.4,1.6-0.4c0.5,0,1,0.1,1.4,0.3c0.4,0.2,0.7,0.5,0.9,0.8v-1h1.4
			v6.6h-1.4v-1c-0.2,0.3-0.5,0.6-0.9,0.8c-0.4,0.2-0.9,0.3-1.4,0.3c-0.6,0-1.1-0.1-1.6-0.4s-0.8-0.7-1.1-1.2
			c-0.3-0.5-0.4-1.1-0.4-1.8S102.3,30.1,102.6,29.6z M107.3,30.2c-0.2-0.3-0.4-0.6-0.7-0.8c-0.3-0.2-0.6-0.3-1-0.3s-0.7,0.1-1,0.3
			c-0.3,0.2-0.6,0.4-0.7,0.8s-0.3,0.7-0.3,1.2s0.1,0.9,0.3,1.2s0.4,0.6,0.7,0.8c0.3,0.2,0.6,0.3,1,0.3c0.4,0,0.7-0.1,1-0.3
			s0.5-0.4,0.7-0.8c0.2-0.3,0.3-0.7,0.3-1.2C107.6,30.9,107.5,30.5,107.3,30.2z"/>
		<path fill="#6D5252" d="M115.5,28.3c0.4,0.2,0.7,0.5,1,1c0.2,0.4,0.3,0.9,0.3,1.5v3.9h-1.4V31c0-0.6-0.1-1-0.4-1.4
			c-0.3-0.3-0.7-0.5-1.2-0.5c-0.5,0-0.9,0.2-1.2,0.5c-0.3,0.3-0.4,0.8-0.4,1.4v3.7h-1.4v-6.6h1.4v0.8c0.2-0.3,0.5-0.5,0.9-0.6
			c0.3-0.2,0.7-0.2,1.1-0.2C114.6,28,115.1,28.1,115.5,28.3z"/>
		<path fill="#6D5252" d="M122.5,28.3c0.4,0.2,0.7,0.5,0.9,0.8v-1h1.4v6.7c0,0.6-0.1,1.1-0.4,1.6c-0.3,0.5-0.6,0.8-1.1,1.1
			c-0.5,0.3-1.1,0.4-1.7,0.4c-0.9,0-1.6-0.2-2.2-0.6c-0.6-0.4-0.9-1-1-1.7h1.4c0.1,0.3,0.3,0.6,0.7,0.8c0.3,0.2,0.7,0.3,1.2,0.3
			c0.6,0,1-0.2,1.3-0.5c0.3-0.3,0.5-0.8,0.5-1.5v-1.1c-0.2,0.3-0.5,0.6-0.9,0.8s-0.8,0.3-1.4,0.3c-0.6,0-1.1-0.1-1.6-0.4
			s-0.9-0.7-1.1-1.2c-0.3-0.5-0.4-1.1-0.4-1.8s0.1-1.3,0.4-1.8c0.3-0.5,0.7-0.9,1.1-1.2s1-0.4,1.6-0.4
			C121.7,28,122.2,28.1,122.5,28.3z M123.2,30.2c-0.2-0.3-0.4-0.6-0.7-0.8c-0.3-0.2-0.6-0.3-1-0.3s-0.7,0.1-1,0.3
			c-0.3,0.2-0.6,0.4-0.7,0.8s-0.3,0.7-0.3,1.2s0.1,0.9,0.3,1.2s0.4,0.6,0.7,0.8c0.3,0.2,0.6,0.3,1,0.3c0.4,0,0.7-0.1,1-0.3
			s0.5-0.4,0.7-0.8c0.2-0.3,0.3-0.7,0.3-1.2C123.5,30.9,123.4,30.5,123.2,30.2z"/>
		<path fill="#6D5252" d="M132.6,28.1v6.6h-1.4v-0.8c-0.2,0.3-0.5,0.5-0.8,0.6c-0.3,0.2-0.7,0.2-1.1,0.2c-0.5,0-1-0.1-1.4-0.3
			c-0.4-0.2-0.7-0.5-1-1c-0.2-0.4-0.4-0.9-0.4-1.5v-3.9h1.4v3.7c0,0.6,0.1,1,0.4,1.4c0.3,0.3,0.7,0.5,1.2,0.5c0.5,0,0.9-0.2,1.2-0.5
			c0.3-0.3,0.5-0.8,0.5-1.4v-3.7H132.6z"/>
		<path fill="#6D5252" d="M134.4,29.6c0.3-0.5,0.7-0.9,1.1-1.2c0.5-0.3,1-0.4,1.6-0.4c0.5,0,1,0.1,1.4,0.3s0.7,0.5,0.9,0.8v-1h1.4
			v6.6h-1.4v-1c-0.2,0.3-0.5,0.6-0.9,0.8c-0.4,0.2-0.9,0.3-1.4,0.3c-0.6,0-1.1-0.1-1.6-0.4c-0.5-0.3-0.8-0.7-1.1-1.2
			c-0.3-0.5-0.4-1.1-0.4-1.8S134.1,30.1,134.4,29.6z M139.1,30.2c-0.2-0.3-0.4-0.6-0.7-0.8c-0.3-0.2-0.6-0.3-1-0.3
			c-0.4,0-0.7,0.1-1,0.3c-0.3,0.2-0.6,0.4-0.7,0.8c-0.2,0.3-0.3,0.7-0.3,1.2s0.1,0.9,0.3,1.2c0.2,0.3,0.4,0.6,0.7,0.8
			c0.3,0.2,0.6,0.3,1,0.3c0.4,0,0.7-0.1,1-0.3c0.3-0.2,0.5-0.4,0.7-0.8c0.2-0.3,0.3-0.7,0.3-1.2C139.4,30.9,139.3,30.5,139.1,30.2z"
			/>
		<path fill="#6D5252" d="M146.6,28.3c0.4,0.2,0.7,0.5,0.9,0.8v-1h1.4v6.7c0,0.6-0.1,1.1-0.4,1.6c-0.3,0.5-0.6,0.8-1.1,1.1
			c-0.5,0.3-1.1,0.4-1.7,0.4c-0.9,0-1.6-0.2-2.2-0.6s-0.9-1-1-1.7h1.4c0.1,0.3,0.3,0.6,0.7,0.8s0.7,0.3,1.2,0.3c0.6,0,1-0.2,1.3-0.5
			c0.3-0.3,0.5-0.8,0.5-1.5v-1.1c-0.2,0.3-0.5,0.6-0.9,0.8c-0.4,0.2-0.8,0.3-1.3,0.3c-0.6,0-1.1-0.1-1.6-0.4
			c-0.5-0.3-0.9-0.7-1.1-1.2c-0.3-0.5-0.4-1.1-0.4-1.8s0.1-1.3,0.4-1.8c0.3-0.5,0.7-0.9,1.1-1.2c0.5-0.3,1-0.4,1.6-0.4
			C145.8,28,146.2,28.1,146.6,28.3z M147.3,30.2c-0.2-0.3-0.4-0.6-0.7-0.8c-0.3-0.2-0.6-0.3-1-0.3c-0.4,0-0.7,0.1-1,0.3
			c-0.3,0.2-0.5,0.4-0.7,0.8c-0.2,0.3-0.3,0.7-0.3,1.2s0.1,0.9,0.3,1.2c0.2,0.3,0.4,0.6,0.7,0.8c0.3,0.2,0.6,0.3,1,0.3
			c0.4,0,0.7-0.1,1-0.3c0.3-0.2,0.5-0.4,0.7-0.8c0.2-0.3,0.3-0.7,0.3-1.2C147.5,30.9,147.4,30.5,147.3,30.2z"/>
		<path fill="#6D5252" d="M156.7,31.9h-5.1c0,0.5,0.2,1,0.6,1.3c0.4,0.3,0.8,0.5,1.3,0.5c0.7,0,1.3-0.3,1.6-0.9h1.5
			c-0.2,0.6-0.6,1.1-1.1,1.5c-0.5,0.4-1.2,0.6-2,0.6c-0.6,0-1.2-0.1-1.7-0.4c-0.5-0.3-0.9-0.7-1.2-1.2c-0.3-0.5-0.4-1.1-0.4-1.8
			c0-0.7,0.1-1.3,0.4-1.8c0.3-0.5,0.7-0.9,1.2-1.2s1.1-0.4,1.7-0.4c0.6,0,1.2,0.1,1.7,0.4c0.5,0.3,0.9,0.7,1.1,1.1
			c0.3,0.5,0.4,1.1,0.4,1.7C156.8,31.5,156.8,31.7,156.7,31.9z M155.3,30.8c0-0.5-0.2-0.9-0.5-1.2c-0.4-0.3-0.8-0.5-1.3-0.5
			c-0.5,0-0.9,0.2-1.2,0.5s-0.5,0.7-0.6,1.2H155.3z"/>
		<path fill="#6D5252" d="M159.1,34.5c-0.4-0.2-0.7-0.4-1-0.8c-0.2-0.3-0.4-0.7-0.4-1.1h1.4c0,0.3,0.2,0.5,0.4,0.7
			c0.2,0.2,0.5,0.3,0.9,0.3c0.4,0,0.7-0.1,0.9-0.2c0.2-0.1,0.3-0.3,0.3-0.6c0-0.2-0.1-0.4-0.4-0.6s-0.6-0.3-1.1-0.4
			c-0.5-0.1-0.9-0.3-1.2-0.4c-0.3-0.1-0.6-0.3-0.8-0.6c-0.2-0.3-0.3-0.6-0.3-1c0-0.4,0.1-0.7,0.3-1s0.5-0.5,0.9-0.7s0.8-0.3,1.3-0.3
			c0.8,0,1.4,0.2,1.8,0.6c0.5,0.4,0.7,0.9,0.7,1.6h-1.4c0-0.3-0.1-0.5-0.4-0.7s-0.5-0.3-0.9-0.3c-0.4,0-0.6,0.1-0.8,0.2
			c-0.2,0.1-0.3,0.3-0.3,0.5c0,0.2,0.1,0.3,0.2,0.4s0.3,0.2,0.5,0.3c0.2,0.1,0.5,0.2,0.8,0.3c0.5,0.1,0.9,0.3,1.2,0.4
			s0.6,0.3,0.8,0.6c0.2,0.3,0.3,0.6,0.3,1c0,0.4-0.1,0.7-0.3,1s-0.5,0.5-0.9,0.7s-0.8,0.3-1.3,0.3C160,34.8,159.5,34.7,159.1,34.5z"
			/>
	</g>
</g>
<g>
	<path fill="#F2BABA" d="M251.7,183.3H8.3c-3.8,0-6.9-3.1-6.9-6.9V167c0-3.8,3.1-6.9,6.9-6.9h243.3c3.8,0,6.9,3.1,6.9,6.9v9.4
		C258.5,180.2,255.5,183.3,251.7,183.3z"/>
	<rect y="160.1" fill="none" width="260" height="23.1"/>
	<g>
		<path fill="#6D5252" d="M98.3,175.7h2.9v1.1h-4.2v-8.3h1.4V175.7z"/>
		<path fill="#6D5252" d="M102.2,171.7c0.3-0.5,0.7-0.9,1.1-1.2c0.5-0.3,1-0.4,1.6-0.4c0.5,0,1,0.1,1.4,0.3c0.4,0.2,0.7,0.5,0.9,0.8
			v-1h1.4v6.6h-1.4v-1c-0.2,0.3-0.6,0.6-1,0.8s-0.9,0.3-1.4,0.3c-0.6,0-1.1-0.1-1.6-0.4s-0.9-0.7-1.1-1.2c-0.3-0.5-0.4-1.1-0.4-1.8
			S102,172.2,102.2,171.7z M107,172.3c-0.2-0.3-0.4-0.6-0.7-0.8c-0.3-0.2-0.6-0.3-1-0.3c-0.4,0-0.7,0.1-1,0.3
			c-0.3,0.2-0.6,0.4-0.7,0.8c-0.2,0.3-0.3,0.7-0.3,1.2s0.1,0.9,0.3,1.2c0.2,0.3,0.4,0.6,0.8,0.8c0.3,0.2,0.6,0.3,1,0.3
			c0.4,0,0.7-0.1,1-0.3s0.6-0.4,0.7-0.8c0.2-0.3,0.3-0.7,0.3-1.2C107.3,173,107.2,172.6,107,172.3z"/>
		<path fill="#6D5252" d="M115.3,170.4c0.4,0.2,0.7,0.5,1,1c0.2,0.4,0.4,0.9,0.4,1.5v3.9h-1.4v-3.7c0-0.6-0.1-1-0.4-1.4
			c-0.3-0.3-0.7-0.5-1.2-0.5c-0.5,0-0.9,0.2-1.2,0.5c-0.3,0.3-0.5,0.8-0.5,1.4v3.7h-1.4v-6.6h1.4v0.8c0.2-0.3,0.5-0.5,0.9-0.6
			c0.4-0.2,0.7-0.2,1.1-0.2C114.4,170.1,114.9,170.2,115.3,170.4z"/>
		<path fill="#6D5252" d="M122.5,170.4c0.4,0.2,0.7,0.5,0.9,0.8v-1h1.4v6.7c0,0.6-0.1,1.1-0.4,1.6c-0.3,0.5-0.6,0.8-1.1,1.1
			c-0.5,0.3-1.1,0.4-1.8,0.4c-0.9,0-1.7-0.2-2.3-0.6c-0.6-0.4-0.9-1-1-1.7h1.4c0.1,0.3,0.3,0.6,0.7,0.8s0.8,0.3,1.2,0.3
			c0.6,0,1-0.2,1.4-0.5c0.3-0.3,0.5-0.8,0.5-1.5v-1.1c-0.2,0.3-0.6,0.6-1,0.8c-0.4,0.2-0.9,0.3-1.4,0.3c-0.6,0-1.1-0.1-1.6-0.4
			c-0.5-0.3-0.9-0.7-1.1-1.2c-0.3-0.5-0.4-1.1-0.4-1.8s0.1-1.3,0.4-1.8c0.3-0.5,0.7-0.9,1.1-1.2c0.5-0.3,1-0.4,1.6-0.4
			C121.6,170.1,122.1,170.2,122.5,170.4z M123.1,172.3c-0.2-0.3-0.4-0.6-0.7-0.8c-0.3-0.2-0.6-0.3-1-0.3c-0.4,0-0.7,0.1-1,0.3
			c-0.3,0.2-0.6,0.4-0.7,0.8c-0.2,0.3-0.3,0.7-0.3,1.2s0.1,0.9,0.3,1.2c0.2,0.3,0.4,0.6,0.8,0.8c0.3,0.2,0.6,0.3,1,0.3
			c0.4,0,0.7-0.1,1-0.3s0.6-0.4,0.7-0.8c0.2-0.3,0.3-0.7,0.3-1.2C123.4,173,123.3,172.6,123.1,172.3z"/>
		<path fill="#6D5252" d="M132.7,170.2v6.6h-1.4V176c-0.2,0.3-0.5,0.5-0.9,0.6c-0.4,0.2-0.7,0.2-1.1,0.2c-0.5,0-1-0.1-1.4-0.3
			c-0.4-0.2-0.7-0.5-1-1c-0.2-0.4-0.4-0.9-0.4-1.5v-3.9h1.4v3.7c0,0.6,0.1,1,0.4,1.4c0.3,0.3,0.7,0.5,1.2,0.5c0.5,0,0.9-0.2,1.2-0.5
			c0.3-0.3,0.5-0.8,0.5-1.4v-3.7H132.7z"/>
		<path fill="#6D5252" d="M134.5,171.7c0.3-0.5,0.7-0.9,1.1-1.2c0.5-0.3,1-0.4,1.6-0.4c0.5,0,1,0.1,1.4,0.3s0.7,0.5,0.9,0.8v-1h1.4
			v6.6h-1.4v-1c-0.2,0.3-0.6,0.6-1,0.8c-0.4,0.2-0.9,0.3-1.4,0.3c-0.6,0-1.1-0.1-1.6-0.4s-0.9-0.7-1.1-1.2c-0.3-0.5-0.4-1.1-0.4-1.8
			S134.2,172.2,134.5,171.7z M139.2,172.3c-0.2-0.3-0.4-0.6-0.7-0.8c-0.3-0.2-0.6-0.3-1-0.3c-0.4,0-0.7,0.1-1,0.3
			c-0.3,0.2-0.6,0.4-0.7,0.8c-0.2,0.3-0.3,0.7-0.3,1.2s0.1,0.9,0.3,1.2c0.2,0.3,0.4,0.6,0.8,0.8c0.3,0.2,0.6,0.3,1,0.3
			c0.4,0,0.7-0.1,1-0.3s0.6-0.4,0.7-0.8c0.2-0.3,0.3-0.7,0.3-1.2C139.5,173,139.4,172.6,139.2,172.3z"/>
		<path fill="#6D5252" d="M146.8,170.4c0.4,0.2,0.7,0.5,0.9,0.8v-1h1.4v6.7c0,0.6-0.1,1.1-0.4,1.6c-0.3,0.5-0.6,0.8-1.1,1.1
			c-0.5,0.3-1.1,0.4-1.8,0.4c-0.9,0-1.7-0.2-2.3-0.6c-0.6-0.4-0.9-1-1-1.7h1.4c0.1,0.3,0.3,0.6,0.7,0.8s0.8,0.3,1.2,0.3
			c0.6,0,1-0.2,1.4-0.5c0.3-0.3,0.5-0.8,0.5-1.5v-1.1c-0.2,0.3-0.6,0.6-1,0.8s-0.9,0.3-1.4,0.3c-0.6,0-1.1-0.1-1.6-0.4
			c-0.5-0.3-0.9-0.7-1.1-1.2c-0.3-0.5-0.4-1.1-0.4-1.8s0.1-1.3,0.4-1.8c0.3-0.5,0.7-0.9,1.1-1.2c0.5-0.3,1-0.4,1.6-0.4
			C145.9,170.1,146.4,170.2,146.8,170.4z M147.5,172.3c-0.2-0.3-0.4-0.6-0.7-0.8c-0.3-0.2-0.6-0.3-1-0.3c-0.4,0-0.7,0.1-1,0.3
			c-0.3,0.2-0.6,0.4-0.7,0.8c-0.2,0.3-0.3,0.7-0.3,1.2s0.1,0.9,0.3,1.2c0.2,0.3,0.4,0.6,0.8,0.8c0.3,0.2,0.6,0.3,1,0.3
			c0.4,0,0.7-0.1,1-0.3s0.6-0.4,0.7-0.8c0.2-0.3,0.3-0.7,0.3-1.2C147.7,173,147.6,172.6,147.5,172.3z"/>
		<path fill="#6D5252" d="M157,174h-5.1c0,0.5,0.2,1,0.6,1.3c0.4,0.3,0.8,0.5,1.3,0.5c0.7,0,1.3-0.3,1.6-0.9h1.5
			c-0.2,0.6-0.6,1.1-1.1,1.5c-0.5,0.4-1.2,0.6-2,0.6c-0.6,0-1.2-0.1-1.7-0.4c-0.5-0.3-0.9-0.7-1.2-1.2c-0.3-0.5-0.4-1.1-0.4-1.8
			c0-0.7,0.1-1.3,0.4-1.8c0.3-0.5,0.7-0.9,1.2-1.2s1.1-0.4,1.7-0.4c0.6,0,1.2,0.1,1.7,0.4c0.5,0.3,0.9,0.7,1.2,1.1
			c0.3,0.5,0.4,1.1,0.4,1.7C157.1,173.6,157.1,173.8,157,174z M155.6,172.9c0-0.5-0.2-0.9-0.5-1.2c-0.4-0.3-0.8-0.5-1.3-0.5
			c-0.5,0-0.9,0.2-1.2,0.5s-0.5,0.7-0.6,1.2H155.6z"/>
		<path fill="#6D5252" d="M159.5,176.6c-0.4-0.2-0.7-0.4-1-0.8c-0.2-0.3-0.4-0.7-0.4-1.1h1.4c0,0.3,0.2,0.5,0.4,0.7
			c0.2,0.2,0.6,0.3,0.9,0.3c0.4,0,0.7-0.1,0.9-0.2c0.2-0.1,0.3-0.3,0.3-0.6c0-0.2-0.1-0.4-0.4-0.6c-0.2-0.1-0.6-0.3-1.1-0.4
			c-0.5-0.1-0.9-0.3-1.2-0.4s-0.6-0.3-0.8-0.6c-0.2-0.3-0.3-0.6-0.3-1c0-0.4,0.1-0.7,0.3-1c0.2-0.3,0.5-0.5,0.9-0.7s0.8-0.3,1.4-0.3
			c0.8,0,1.4,0.2,1.8,0.6c0.5,0.4,0.7,0.9,0.7,1.6H162c0-0.3-0.1-0.5-0.4-0.7c-0.2-0.2-0.5-0.3-0.9-0.3c-0.4,0-0.6,0.1-0.8,0.2
			c-0.2,0.1-0.3,0.3-0.3,0.5c0,0.2,0.1,0.3,0.2,0.4c0.1,0.1,0.3,0.2,0.5,0.3c0.2,0.1,0.5,0.2,0.8,0.3c0.5,0.1,0.9,0.3,1.2,0.4
			s0.6,0.3,0.8,0.6c0.2,0.3,0.3,0.6,0.4,1c0,0.4-0.1,0.7-0.3,1c-0.2,0.3-0.5,0.5-0.9,0.7c-0.4,0.2-0.8,0.3-1.4,0.3
			C160.3,176.9,159.9,176.8,159.5,176.6z"/>
	</g>
</g>
<g>
	<path fill="#F2BABA" d="M251.7,540.9H8.3c-3.8,0-6.9-3.1-6.9-6.9v-9.4c0-3.8,3.1-6.9,6.9-6.9h243.3c3.8,0,6.9,3.1,6.9,6.9v9.4
		C258.5,537.9,255.5,540.9,251.7,540.9z"/>
	<rect y="517.8" fill="none" width="260" height="23.1"/>
	<g>
		<path fill="#6D5252" d="M89.3,528.1c0.4-0.6,0.9-1.2,1.6-1.5c0.7-0.4,1.4-0.5,2.2-0.5c0.9,0,1.7,0.2,2.4,0.7
			c0.7,0.4,1.2,1.1,1.5,1.9h-1.7c-0.2-0.4-0.5-0.8-0.9-1c-0.4-0.2-0.8-0.3-1.3-0.3c-0.6,0-1.1,0.1-1.5,0.4s-0.8,0.6-1,1.1
			c-0.2,0.5-0.4,1-0.4,1.6c0,0.6,0.1,1.2,0.4,1.6c0.2,0.5,0.6,0.8,1,1.1s0.9,0.4,1.5,0.4c0.5,0,1-0.1,1.3-0.3c0.4-0.2,0.7-0.5,0.9-1
			H97c-0.3,0.8-0.8,1.4-1.5,1.8c-0.7,0.4-1.5,0.6-2.4,0.6c-0.8,0-1.5-0.2-2.2-0.5c-0.7-0.4-1.2-0.9-1.6-1.5
			c-0.4-0.6-0.6-1.4-0.6-2.2C88.7,529.5,88.9,528.7,89.3,528.1z"/>
		<path fill="#6D5252" d="M99.8,534.1c-0.5-0.3-0.9-0.7-1.2-1.2c-0.3-0.5-0.4-1.1-0.4-1.8c0-0.7,0.1-1.3,0.4-1.8
			c0.3-0.5,0.7-0.9,1.2-1.2c0.5-0.3,1.1-0.4,1.7-0.4s1.2,0.1,1.7,0.4c0.5,0.3,0.9,0.7,1.2,1.2c0.3,0.5,0.4,1.1,0.4,1.8
			c0,0.7-0.2,1.3-0.5,1.8c-0.3,0.5-0.7,0.9-1.3,1.2c-0.5,0.3-1.1,0.4-1.8,0.4C100.9,534.6,100.3,534.4,99.8,534.1z M102.5,533.1
			c0.3-0.2,0.6-0.4,0.8-0.8s0.3-0.7,0.3-1.2c0-0.5-0.1-0.9-0.3-1.2c-0.2-0.3-0.4-0.6-0.7-0.8c-0.3-0.2-0.6-0.3-1-0.3s-0.7,0.1-1,0.3
			c-0.3,0.2-0.5,0.4-0.7,0.8c-0.2,0.3-0.3,0.7-0.3,1.2c0,0.7,0.2,1.3,0.6,1.6c0.4,0.4,0.8,0.6,1.4,0.6
			C101.8,533.4,102.2,533.3,102.5,533.1z"/>
		<path fill="#6D5252" d="M112.4,527.8v6.6H111v-0.8c-0.2,0.3-0.5,0.5-0.9,0.6c-0.4,0.2-0.7,0.2-1.1,0.2c-0.5,0-1-0.1-1.4-0.3
			c-0.4-0.2-0.7-0.5-1-1c-0.2-0.4-0.4-0.9-0.4-1.5v-3.9h1.4v3.7c0,0.6,0.1,1,0.4,1.4c0.3,0.3,0.7,0.5,1.2,0.5c0.5,0,0.9-0.2,1.2-0.5
			c0.3-0.3,0.5-0.8,0.5-1.4v-3.7H112.4z"/>
		<path fill="#6D5252" d="M116.4,528c0.3-0.2,0.7-0.3,1.2-0.3v1.4h-0.4c-0.5,0-1,0.1-1.2,0.4c-0.3,0.3-0.4,0.7-0.4,1.4v3.5h-1.4
			v-6.6h1.4v1C115.8,528.5,116.1,528.2,116.4,528z"/>
		<path fill="#6D5252" d="M119.9,534.3c-0.4-0.2-0.7-0.4-1-0.8c-0.2-0.3-0.4-0.7-0.4-1.1h1.4c0,0.3,0.2,0.5,0.4,0.7
			c0.2,0.2,0.6,0.3,0.9,0.3c0.4,0,0.7-0.1,0.9-0.2c0.2-0.1,0.3-0.3,0.3-0.6c0-0.2-0.1-0.4-0.4-0.6s-0.6-0.3-1.1-0.4
			c-0.5-0.1-0.9-0.3-1.2-0.4c-0.3-0.1-0.6-0.3-0.8-0.6c-0.2-0.3-0.3-0.6-0.3-1c0-0.4,0.1-0.7,0.3-1s0.5-0.5,0.9-0.7s0.8-0.3,1.4-0.3
			c0.8,0,1.4,0.2,1.8,0.6c0.5,0.4,0.7,0.9,0.7,1.6h-1.4c0-0.3-0.1-0.5-0.4-0.7c-0.2-0.2-0.5-0.3-0.9-0.3c-0.4,0-0.6,0.1-0.8,0.2
			c-0.2,0.1-0.3,0.3-0.3,0.5c0,0.2,0.1,0.3,0.2,0.4s0.3,0.2,0.5,0.3c0.2,0.1,0.5,0.2,0.8,0.3c0.5,0.1,0.9,0.3,1.2,0.4
			s0.6,0.3,0.8,0.6s0.3,0.6,0.4,1c0,0.4-0.1,0.7-0.3,1s-0.5,0.5-0.9,0.7s-0.8,0.3-1.4,0.3C120.8,534.6,120.3,534.5,119.9,534.3z"/>
		<path fill="#6D5252" d="M131.4,531.7h-5.1c0,0.5,0.2,1,0.6,1.3c0.4,0.3,0.8,0.5,1.3,0.5c0.7,0,1.3-0.3,1.6-0.9h1.5
			c-0.2,0.6-0.6,1.1-1.1,1.5c-0.5,0.4-1.2,0.6-2,0.6c-0.6,0-1.2-0.1-1.7-0.4c-0.5-0.3-0.9-0.7-1.2-1.2c-0.3-0.5-0.4-1.1-0.4-1.8
			c0-0.7,0.1-1.3,0.4-1.8c0.3-0.5,0.7-0.9,1.2-1.2s1.1-0.4,1.7-0.4c0.6,0,1.2,0.1,1.7,0.4c0.5,0.3,0.9,0.7,1.2,1.1s0.4,1.1,0.4,1.7
			C131.5,531.2,131.5,531.5,131.4,531.7z M130,530.6c0-0.5-0.2-0.9-0.5-1.2c-0.4-0.3-0.8-0.5-1.3-0.5c-0.5,0-0.9,0.2-1.2,0.5
			s-0.5,0.7-0.6,1.2H130z"/>
		<path fill="#6D5252" d="M133.8,534.3c-0.4-0.2-0.7-0.4-1-0.8c-0.2-0.3-0.4-0.7-0.4-1.1h1.4c0,0.3,0.2,0.5,0.4,0.7
			c0.2,0.2,0.6,0.3,0.9,0.3c0.4,0,0.7-0.1,0.9-0.2c0.2-0.1,0.3-0.3,0.3-0.6c0-0.2-0.1-0.4-0.4-0.6c-0.2-0.1-0.6-0.3-1.1-0.4
			c-0.5-0.1-0.9-0.3-1.2-0.4c-0.3-0.1-0.6-0.3-0.8-0.6c-0.2-0.3-0.3-0.6-0.3-1c0-0.4,0.1-0.7,0.3-1s0.5-0.5,0.9-0.7s0.8-0.3,1.4-0.3
			c0.8,0,1.4,0.2,1.8,0.6c0.5,0.4,0.7,0.9,0.7,1.6h-1.4c0-0.3-0.1-0.5-0.4-0.7c-0.2-0.2-0.5-0.3-0.9-0.3c-0.4,0-0.6,0.1-0.8,0.2
			c-0.2,0.1-0.3,0.3-0.3,0.5c0,0.2,0.1,0.3,0.2,0.4s0.3,0.2,0.5,0.3c0.2,0.1,0.5,0.2,0.8,0.3c0.5,0.1,0.9,0.3,1.2,0.4
			s0.6,0.3,0.8,0.6s0.3,0.6,0.4,1c0,0.4-0.1,0.7-0.3,1s-0.5,0.5-0.9,0.7c-0.4,0.2-0.8,0.3-1.4,0.3
			C134.7,534.6,134.3,534.5,133.8,534.3z"/>
		<path fill="#6D5252" d="M147.9,526.1v1.1h-2.2v7.2h-1.4v-7.2H142v-1.1H147.9z"/>
		<path fill="#6D5252" d="M149.4,526.7c-0.2-0.2-0.3-0.4-0.3-0.6s0.1-0.5,0.3-0.6s0.4-0.3,0.6-0.3c0.2,0,0.4,0.1,0.6,0.3
			s0.3,0.4,0.3,0.6s-0.1,0.5-0.3,0.6s-0.4,0.3-0.6,0.3C149.8,527,149.6,526.9,149.4,526.7z M150.7,527.8v6.6h-1.4v-6.6H150.7z"/>
		<path fill="#6D5252" d="M162,528.1c0.4,0.2,0.7,0.5,1,1c0.2,0.4,0.4,0.9,0.4,1.5v3.9H162v-3.7c0-0.6-0.1-1-0.4-1.4
			c-0.3-0.3-0.7-0.5-1.2-0.5s-0.9,0.2-1.2,0.5c-0.3,0.3-0.5,0.8-0.5,1.4v3.7h-1.4v-3.7c0-0.6-0.1-1-0.4-1.4
			c-0.3-0.3-0.7-0.5-1.2-0.5c-0.5,0-0.9,0.2-1.2,0.5c-0.3,0.3-0.5,0.8-0.5,1.4v3.7h-1.4v-6.6h1.4v0.8c0.2-0.3,0.5-0.5,0.9-0.6
			c0.3-0.2,0.7-0.2,1.1-0.2c0.5,0,1,0.1,1.4,0.3s0.7,0.5,1,1c0.2-0.4,0.5-0.7,0.9-1c0.4-0.2,0.9-0.4,1.4-0.4
			C161.1,527.7,161.6,527.8,162,528.1z"/>
		<path fill="#6D5252" d="M171.2,531.7h-5.1c0,0.5,0.2,1,0.6,1.3c0.4,0.3,0.8,0.5,1.3,0.5c0.7,0,1.3-0.3,1.6-0.9h1.5
			c-0.2,0.6-0.6,1.1-1.1,1.5c-0.5,0.4-1.2,0.6-2,0.6c-0.6,0-1.2-0.1-1.7-0.4c-0.5-0.3-0.9-0.7-1.2-1.2c-0.3-0.5-0.4-1.1-0.4-1.8
			c0-0.7,0.1-1.3,0.4-1.8c0.3-0.5,0.7-0.9,1.2-1.2s1.1-0.4,1.7-0.4c0.6,0,1.2,0.1,1.7,0.4c0.5,0.3,0.9,0.7,1.2,1.1
			c0.3,0.5,0.4,1.1,0.4,1.7C171.3,531.2,171.2,531.5,171.2,531.7z M169.8,530.6c0-0.5-0.2-0.9-0.5-1.2c-0.4-0.3-0.8-0.5-1.3-0.5
			c-0.5,0-0.9,0.2-1.2,0.5s-0.5,0.7-0.6,1.2H169.8z"/>
	</g>
</g>
<g>
	<path fill="#F2DCBA" d="M253.1,66.4H6.9c-3.8,0-6.9-3.1-6.9-6.9v-8.9c0-3.8,3.1-6.9,6.9-6.9h246.2c3.8,0,6.9,3.1,6.9,6.9v8.9
		C260,63.3,256.9,66.4,253.1,66.4z"/>
	<rect x="11.4" y="43.7" fill="none" width="237.1" height="23.3"/>
	<g>
		<path fill="#6B6251" d="M104.4,53.2v2.4h2.9v1.1h-2.9v2.6h3.2v1.1h-4.6v-8.4h4.6v1.1H104.4z"/>
		<path fill="#6B6251" d="M112.2,57.1l2.1,3.3h-1.5l-1.4-2.2l-1.3,2.2h-1.4l2.1-3.3l-2.1-3.4h1.5l1.4,2.2l1.3-2.2h1.4L112.2,57.1z"
			/>
		<path fill="#6B6251" d="M115.3,55.3c0.3-0.5,0.7-0.9,1.1-1.2s1-0.4,1.7-0.4c0.8,0,1.5,0.2,2,0.6c0.5,0.4,0.9,0.9,1.1,1.6h-1.5
			c-0.1-0.3-0.3-0.6-0.6-0.8c-0.3-0.2-0.6-0.3-1-0.3c-0.6,0-1,0.2-1.3,0.6c-0.3,0.4-0.5,0.9-0.5,1.7c0,0.7,0.2,1.3,0.5,1.7
			c0.3,0.4,0.8,0.6,1.3,0.6c0.8,0,1.3-0.3,1.6-1h1.5c-0.2,0.7-0.6,1.2-1.1,1.6c-0.5,0.4-1.2,0.6-2,0.6c-0.6,0-1.2-0.1-1.7-0.4
			c-0.5-0.3-0.9-0.7-1.1-1.2c-0.3-0.5-0.4-1.1-0.4-1.8C114.9,56.4,115,55.8,115.3,55.3z"/>
		<path fill="#6B6251" d="M128.6,57.6h-5.1c0,0.5,0.2,1,0.6,1.3c0.4,0.3,0.8,0.5,1.3,0.5c0.7,0,1.3-0.3,1.6-0.9h1.5
			c-0.2,0.6-0.6,1.1-1.1,1.5c-0.5,0.4-1.2,0.6-1.9,0.6c-0.6,0-1.2-0.1-1.7-0.4c-0.5-0.3-0.9-0.7-1.2-1.2c-0.3-0.5-0.4-1.1-0.4-1.8
			c0-0.7,0.1-1.3,0.4-1.8c0.3-0.5,0.7-0.9,1.2-1.2s1.1-0.4,1.7-0.4c0.6,0,1.2,0.1,1.7,0.4c0.5,0.3,0.9,0.7,1.1,1.1s0.4,1.1,0.4,1.7
			C128.6,57.2,128.6,57.4,128.6,57.6z M127.2,56.5c0-0.5-0.2-0.9-0.5-1.2c-0.4-0.3-0.8-0.5-1.3-0.5c-0.5,0-0.9,0.2-1.2,0.5
			s-0.5,0.7-0.6,1.2H127.2z"/>
		<path fill="#6B6251" d="M132.1,54c0.3-0.2,0.7-0.3,1.2-0.3v1.4h-0.3c-0.5,0-0.9,0.1-1.2,0.4c-0.3,0.3-0.4,0.7-0.4,1.4v3.5h-1.4
			v-6.6h1.4v1C131.5,54.4,131.8,54.2,132.1,54z"/>
		<path fill="#6B6251" d="M134.5,55.3c0.3-0.5,0.7-0.9,1.1-1.2c0.5-0.3,1-0.4,1.7-0.4c0.8,0,1.5,0.2,2,0.6c0.5,0.4,0.9,0.9,1.1,1.6
			h-1.5c-0.1-0.3-0.3-0.6-0.6-0.8c-0.3-0.2-0.6-0.3-1-0.3c-0.6,0-1,0.2-1.3,0.6c-0.3,0.4-0.5,0.9-0.5,1.7c0,0.7,0.2,1.3,0.5,1.7
			c0.3,0.4,0.8,0.6,1.3,0.6c0.8,0,1.3-0.3,1.6-1h1.5c-0.2,0.7-0.6,1.2-1.1,1.6c-0.5,0.4-1.2,0.6-2,0.6c-0.6,0-1.2-0.1-1.7-0.4
			c-0.5-0.3-0.9-0.7-1.1-1.2c-0.3-0.5-0.4-1.1-0.4-1.8C134.1,56.4,134.2,55.8,134.5,55.3z"/>
		<path fill="#6B6251" d="M141.8,52.7c-0.2-0.2-0.3-0.4-0.3-0.6s0.1-0.5,0.3-0.6s0.4-0.3,0.6-0.3c0.2,0,0.4,0.1,0.6,0.3
			s0.3,0.4,0.3,0.6s-0.1,0.5-0.3,0.6s-0.4,0.3-0.6,0.3C142.2,52.9,142,52.8,141.8,52.7z M143.1,53.8v6.6h-1.4v-6.6H143.1z"/>
		<path fill="#6B6251" d="M145.9,60.2c-0.4-0.2-0.7-0.4-1-0.8c-0.2-0.3-0.4-0.7-0.4-1.1h1.4c0,0.3,0.2,0.5,0.4,0.7
			c0.2,0.2,0.5,0.3,0.9,0.3c0.4,0,0.7-0.1,0.9-0.2c0.2-0.1,0.3-0.3,0.3-0.6c0-0.2-0.1-0.4-0.4-0.6s-0.6-0.3-1.1-0.4
			c-0.5-0.1-0.9-0.3-1.2-0.4c-0.3-0.1-0.6-0.3-0.8-0.6c-0.2-0.3-0.3-0.6-0.3-1c0-0.4,0.1-0.7,0.3-1s0.5-0.5,0.9-0.7s0.8-0.3,1.3-0.3
			c0.8,0,1.4,0.2,1.8,0.6c0.5,0.4,0.7,0.9,0.7,1.6h-1.4c0-0.3-0.1-0.5-0.4-0.7s-0.5-0.3-0.9-0.3c-0.4,0-0.6,0.1-0.8,0.2
			c-0.2,0.1-0.3,0.3-0.3,0.5c0,0.2,0.1,0.3,0.2,0.4s0.3,0.2,0.5,0.3c0.2,0.1,0.5,0.2,0.8,0.3c0.5,0.1,0.9,0.3,1.2,0.4
			s0.6,0.3,0.8,0.6c0.2,0.3,0.3,0.6,0.3,1c0,0.4-0.1,0.7-0.3,1s-0.5,0.5-0.9,0.7s-0.8,0.3-1.3,0.3C146.8,60.5,146.3,60.4,145.9,60.2
			z"/>
		<path fill="#6B6251" d="M157.3,57.6h-5.1c0,0.5,0.2,1,0.6,1.3c0.4,0.3,0.8,0.5,1.3,0.5c0.7,0,1.3-0.3,1.6-0.9h1.5
			c-0.2,0.6-0.6,1.1-1.1,1.5c-0.5,0.4-1.2,0.6-1.9,0.6c-0.6,0-1.2-0.1-1.7-0.4c-0.5-0.3-0.9-0.7-1.2-1.2c-0.3-0.5-0.4-1.1-0.4-1.8
			c0-0.7,0.1-1.3,0.4-1.8c0.3-0.5,0.7-0.9,1.2-1.2s1.1-0.4,1.7-0.4c0.6,0,1.2,0.1,1.7,0.4c0.5,0.3,0.9,0.7,1.1,1.1
			c0.3,0.5,0.4,1.1,0.4,1.7C157.4,57.2,157.4,57.4,157.3,57.6z M156,56.5c0-0.5-0.2-0.9-0.5-1.2c-0.4-0.3-0.8-0.5-1.3-0.5
			c-0.5,0-0.9,0.2-1.2,0.5s-0.5,0.7-0.6,1.2H156z"/>
	</g>
</g>
<g>
	<path fill="#B8E0CE" d="M253.1,301.8H6.9c-3.8,0-6.9-3.1-6.9-6.9v-62c0-3.8,3.1-6.9,6.9-6.9h246.2c3.8,0,6.9,3.1,6.9,6.9v62
		C260,298.7,256.9,301.8,253.1,301.8z"/>
	<rect x="11.4" y="226.1" fill="none" width="237.1" height="75.8"/>
	<g>
		<path fill="#50685E" d="M95.9,260.7v1.1h-3.5v2.5h2.8v1.1h-2.8v3.6H91v-8.3H95.9z"/>
		<path fill="#50685E" d="M98.3,268.7c-0.5-0.3-0.9-0.7-1.2-1.2c-0.3-0.5-0.4-1.1-0.4-1.8c0-0.7,0.1-1.3,0.4-1.8
			c0.3-0.5,0.7-0.9,1.2-1.2c0.5-0.3,1.1-0.4,1.7-0.4c0.6,0,1.2,0.1,1.7,0.4c0.5,0.3,0.9,0.7,1.2,1.2c0.3,0.5,0.4,1.1,0.4,1.8
			c0,0.7-0.2,1.3-0.5,1.8c-0.3,0.5-0.7,0.9-1.2,1.2c-0.5,0.3-1.1,0.4-1.7,0.4C99.4,269.1,98.8,269,98.3,268.7z M101,267.7
			c0.3-0.2,0.6-0.4,0.8-0.8c0.2-0.3,0.3-0.7,0.3-1.2c0-0.5-0.1-0.9-0.3-1.2s-0.4-0.6-0.7-0.8c-0.3-0.2-0.6-0.3-1-0.3
			c-0.4,0-0.7,0.1-1,0.3c-0.3,0.2-0.5,0.4-0.7,0.8c-0.2,0.3-0.3,0.7-0.3,1.2c0,0.7,0.2,1.3,0.5,1.6c0.4,0.4,0.8,0.6,1.4,0.6
			C100.4,267.9,100.7,267.9,101,267.7z"/>
		<path fill="#50685E" d="M104.8,263.9c0.3-0.5,0.7-0.9,1.1-1.2s1-0.4,1.7-0.4c0.8,0,1.5,0.2,2,0.6c0.5,0.4,0.9,0.9,1.1,1.6h-1.5
			c-0.1-0.3-0.3-0.6-0.6-0.8c-0.3-0.2-0.6-0.3-1-0.3c-0.6,0-1,0.2-1.3,0.6c-0.3,0.4-0.5,0.9-0.5,1.7c0,0.7,0.2,1.3,0.5,1.7
			c0.3,0.4,0.8,0.6,1.3,0.6c0.8,0,1.3-0.3,1.6-1h1.5c-0.2,0.7-0.6,1.2-1.1,1.6c-0.5,0.4-1.2,0.6-2,0.6c-0.6,0-1.2-0.1-1.7-0.4
			c-0.5-0.3-0.9-0.7-1.1-1.2c-0.3-0.5-0.4-1.1-0.4-1.8C104.4,265,104.5,264.4,104.8,263.9z"/>
		<path fill="#50685E" d="M118,262.4v6.6h-1.4v-0.8c-0.2,0.3-0.5,0.5-0.8,0.6c-0.3,0.2-0.7,0.2-1.1,0.2c-0.5,0-1-0.1-1.4-0.3
			c-0.4-0.2-0.7-0.5-1-1c-0.2-0.4-0.4-0.9-0.4-1.5v-3.9h1.4v3.7c0,0.6,0.1,1,0.4,1.4c0.3,0.3,0.7,0.5,1.2,0.5c0.5,0,0.9-0.2,1.2-0.5
			c0.3-0.3,0.5-0.8,0.5-1.4v-3.7H118z"/>
		<path fill="#50685E" d="M120.8,268.9c-0.4-0.2-0.7-0.4-1-0.8c-0.2-0.3-0.4-0.7-0.4-1.1h1.4c0,0.3,0.2,0.5,0.4,0.7
			c0.2,0.2,0.5,0.3,0.9,0.3c0.4,0,0.7-0.1,0.9-0.2c0.2-0.1,0.3-0.3,0.3-0.6c0-0.2-0.1-0.4-0.4-0.6c-0.2-0.1-0.6-0.3-1.1-0.4
			c-0.5-0.1-0.9-0.3-1.2-0.4s-0.6-0.3-0.8-0.6c-0.2-0.3-0.3-0.6-0.3-1c0-0.4,0.1-0.7,0.3-1s0.5-0.5,0.9-0.7c0.4-0.2,0.8-0.3,1.3-0.3
			c0.8,0,1.4,0.2,1.8,0.6c0.5,0.4,0.7,0.9,0.7,1.6h-1.4c0-0.3-0.1-0.5-0.4-0.7s-0.5-0.3-0.9-0.3c-0.4,0-0.6,0.1-0.8,0.2
			c-0.2,0.1-0.3,0.3-0.3,0.5c0,0.2,0.1,0.3,0.2,0.4c0.1,0.1,0.3,0.2,0.5,0.3c0.2,0.1,0.5,0.2,0.8,0.3c0.5,0.1,0.9,0.3,1.2,0.4
			c0.3,0.1,0.6,0.3,0.8,0.6s0.3,0.6,0.3,1c0,0.4-0.1,0.7-0.3,1s-0.5,0.5-0.9,0.7c-0.4,0.2-0.8,0.3-1.3,0.3
			C121.7,269.1,121.2,269,120.8,268.9z"/>
		<path fill="#50685E" d="M134.7,260.7v1.1h-2.2v7.2h-1.4v-7.2h-2.2v-1.1H134.7z"/>
		<path fill="#50685E" d="M136.2,261.3c-0.2-0.2-0.3-0.4-0.3-0.6s0.1-0.5,0.3-0.6s0.4-0.3,0.6-0.3c0.2,0,0.4,0.1,0.6,0.3
			s0.3,0.4,0.3,0.6s-0.1,0.5-0.3,0.6s-0.4,0.3-0.6,0.3C136.5,261.5,136.3,261.5,136.2,261.3z M137.5,262.4v6.6h-1.4v-6.6H137.5z"/>
		<path fill="#50685E" d="M148.7,262.6c0.4,0.2,0.7,0.5,1,1c0.2,0.4,0.4,0.9,0.4,1.5v3.9h-1.4v-3.7c0-0.6-0.1-1-0.4-1.4
			c-0.3-0.3-0.7-0.5-1.2-0.5s-0.9,0.2-1.2,0.5c-0.3,0.3-0.5,0.8-0.5,1.4v3.7H144v-3.7c0-0.6-0.1-1-0.4-1.4c-0.3-0.3-0.7-0.5-1.2-0.5
			c-0.5,0-0.9,0.2-1.2,0.5c-0.3,0.3-0.4,0.8-0.4,1.4v3.7h-1.4v-6.6h1.4v0.8c0.2-0.3,0.5-0.5,0.9-0.6c0.3-0.2,0.7-0.2,1.1-0.2
			c0.5,0,1,0.1,1.4,0.3c0.4,0.2,0.7,0.5,1,1c0.2-0.4,0.5-0.7,0.9-1c0.4-0.2,0.9-0.4,1.4-0.4C147.8,262.3,148.3,262.4,148.7,262.6z"
			/>
		<path fill="#50685E" d="M157.7,266.2h-5.1c0,0.5,0.2,1,0.6,1.3c0.4,0.3,0.8,0.5,1.3,0.5c0.7,0,1.3-0.3,1.6-0.9h1.5
			c-0.2,0.6-0.6,1.1-1.1,1.5c-0.5,0.4-1.2,0.6-2,0.6c-0.6,0-1.2-0.1-1.7-0.4c-0.5-0.3-0.9-0.7-1.2-1.2c-0.3-0.5-0.4-1.1-0.4-1.8
			c0-0.7,0.1-1.3,0.4-1.8c0.3-0.5,0.7-0.9,1.2-1.2s1.1-0.4,1.7-0.4c0.6,0,1.2,0.1,1.7,0.4c0.5,0.3,0.9,0.7,1.1,1.1
			c0.3,0.5,0.4,1.1,0.4,1.7C157.8,265.8,157.8,266,157.7,266.2z M156.4,265.1c0-0.5-0.2-0.9-0.5-1.2c-0.4-0.3-0.8-0.5-1.3-0.5
			c-0.5,0-0.9,0.2-1.2,0.5s-0.5,0.7-0.6,1.2H156.4z"/>
		<path fill="#50685E" d="M168.7,265.3h-2.4v2.5H165v-2.5h-2.4v-1.2h2.4v-2.5h1.3v2.5h2.4V265.3z"/>
	</g>
</g>
<g>
	<path fill="#B8E0CE" d="M253.1,436.6H6.9c-3.8,0-6.9-3.1-6.9-6.9v-62c0-3.8,3.1-6.9,6.9-6.9h246.2c3.8,0,6.9,3.1,6.9,6.9v62
		C260,433.5,256.9,436.6,253.1,436.6z"/>
	<rect x="11.4" y="360.8" fill="none" width="237.1" height="75.8"/>
	<g>
		<path fill="#50685E" d="M101.7,395.4v1.1h-3.5v2.5h2.8v1.1h-2.8v3.6h-1.4v-8.3H101.7z"/>
		<path fill="#50685E" d="M104.2,403.5c-0.5-0.3-0.9-0.7-1.2-1.2c-0.3-0.5-0.4-1.1-0.4-1.8c0-0.7,0.1-1.3,0.4-1.8
			c0.3-0.5,0.7-0.9,1.2-1.2c0.5-0.3,1.1-0.4,1.7-0.4c0.6,0,1.2,0.1,1.7,0.4c0.5,0.3,0.9,0.7,1.2,1.2c0.3,0.5,0.4,1.1,0.4,1.8
			c0,0.7-0.2,1.3-0.5,1.8c-0.3,0.5-0.7,0.9-1.2,1.2c-0.5,0.3-1.1,0.4-1.7,0.4C105.2,403.9,104.7,403.7,104.2,403.5z M106.9,402.4
			c0.3-0.2,0.6-0.4,0.8-0.8c0.2-0.3,0.3-0.7,0.3-1.2c0-0.5-0.1-0.9-0.3-1.2s-0.4-0.6-0.7-0.8c-0.3-0.2-0.6-0.3-1-0.3
			c-0.4,0-0.7,0.1-1,0.3c-0.3,0.2-0.5,0.4-0.7,0.8c-0.2,0.3-0.3,0.7-0.3,1.2c0,0.7,0.2,1.3,0.5,1.6c0.4,0.4,0.8,0.6,1.4,0.6
			C106.2,402.7,106.6,402.6,106.9,402.4z"/>
		<path fill="#50685E" d="M110.6,398.7c0.3-0.5,0.7-0.9,1.1-1.2s1-0.4,1.7-0.4c0.8,0,1.5,0.2,2,0.6c0.5,0.4,0.9,0.9,1.1,1.6H115
			c-0.1-0.3-0.3-0.6-0.6-0.8c-0.3-0.2-0.6-0.3-1-0.3c-0.6,0-1,0.2-1.3,0.6c-0.3,0.4-0.5,0.9-0.5,1.7c0,0.7,0.2,1.3,0.5,1.7
			c0.3,0.4,0.8,0.6,1.3,0.6c0.8,0,1.3-0.3,1.6-1h1.5c-0.2,0.7-0.6,1.2-1.1,1.6c-0.5,0.4-1.2,0.6-2,0.6c-0.6,0-1.2-0.1-1.7-0.4
			c-0.5-0.3-0.9-0.7-1.1-1.2c-0.3-0.5-0.4-1.1-0.4-1.8C110.2,399.8,110.3,399.2,110.6,398.7z"/>
		<path fill="#50685E" d="M123.8,397.2v6.6h-1.4V403c-0.2,0.3-0.5,0.5-0.8,0.6c-0.3,0.2-0.7,0.2-1.1,0.2c-0.5,0-1-0.1-1.4-0.3
			c-0.4-0.2-0.7-0.5-1-1c-0.2-0.4-0.4-0.9-0.4-1.5v-3.9h1.4v3.7c0,0.6,0.1,1,0.4,1.4c0.3,0.3,0.7,0.5,1.2,0.5c0.5,0,0.9-0.2,1.2-0.5
			c0.3-0.3,0.5-0.8,0.5-1.4v-3.7H123.8z"/>
		<path fill="#50685E" d="M126.6,403.6c-0.4-0.2-0.7-0.4-1-0.8c-0.2-0.3-0.4-0.7-0.4-1.1h1.4c0,0.3,0.2,0.5,0.4,0.7
			c0.2,0.2,0.5,0.3,0.9,0.3c0.4,0,0.7-0.1,0.9-0.2c0.2-0.1,0.3-0.3,0.3-0.6c0-0.2-0.1-0.4-0.4-0.6c-0.2-0.1-0.6-0.3-1.1-0.4
			c-0.5-0.1-0.9-0.3-1.2-0.4s-0.6-0.3-0.8-0.6c-0.2-0.3-0.3-0.6-0.3-1c0-0.4,0.1-0.7,0.3-1s0.5-0.5,0.9-0.7c0.4-0.2,0.8-0.3,1.3-0.3
			c0.8,0,1.4,0.2,1.8,0.6c0.5,0.4,0.7,0.9,0.7,1.6h-1.4c0-0.3-0.1-0.5-0.4-0.7s-0.5-0.3-0.9-0.3c-0.4,0-0.6,0.1-0.8,0.2
			c-0.2,0.1-0.3,0.3-0.3,0.5c0,0.2,0.1,0.3,0.2,0.4c0.1,0.1,0.3,0.2,0.5,0.3c0.2,0.1,0.5,0.2,0.8,0.3c0.5,0.1,0.9,0.3,1.2,0.4
			c0.3,0.1,0.6,0.3,0.8,0.6s0.3,0.6,0.3,1c0,0.4-0.1,0.7-0.3,1s-0.5,0.5-0.9,0.7c-0.4,0.2-0.8,0.3-1.3,0.3
			C127.5,403.9,127.1,403.8,126.6,403.6z"/>
		<path fill="#50685E" d="M140.6,395.4v1.1h-2.2v7.2H137v-7.2h-2.2v-1.1H140.6z"/>
		<path fill="#50685E" d="M142,396c-0.2-0.2-0.3-0.4-0.3-0.6s0.1-0.5,0.3-0.6s0.4-0.3,0.6-0.3c0.2,0,0.4,0.1,0.6,0.3
			s0.3,0.4,0.3,0.6s-0.1,0.5-0.3,0.6s-0.4,0.3-0.6,0.3C142.4,396.3,142.2,396.2,142,396z M143.3,397.2v6.6h-1.4v-6.6H143.3z"/>
		<path fill="#50685E" d="M154.5,397.4c0.4,0.2,0.7,0.5,1,1c0.2,0.4,0.4,0.9,0.4,1.5v3.9h-1.4v-3.7c0-0.6-0.1-1-0.4-1.4
			c-0.3-0.3-0.7-0.5-1.2-0.5s-0.9,0.2-1.2,0.5c-0.3,0.3-0.5,0.8-0.5,1.4v3.7h-1.4v-3.7c0-0.6-0.1-1-0.4-1.4
			c-0.3-0.3-0.7-0.5-1.2-0.5c-0.5,0-0.9,0.2-1.2,0.5c-0.3,0.3-0.4,0.8-0.4,1.4v3.7h-1.4v-6.6h1.4v0.8c0.2-0.3,0.5-0.5,0.9-0.6
			c0.3-0.2,0.7-0.2,1.1-0.2c0.5,0,1,0.1,1.4,0.3c0.4,0.2,0.7,0.5,1,1c0.2-0.4,0.5-0.7,0.9-1c0.4-0.2,0.9-0.4,1.4-0.4
			C153.6,397.1,154.1,397.2,154.5,397.4z"/>
		<path fill="#50685E" d="M163.6,401h-5.1c0,0.5,0.2,1,0.6,1.3c0.4,0.3,0.8,0.5,1.3,0.5c0.7,0,1.3-0.3,1.6-0.9h1.5
			c-0.2,0.6-0.6,1.1-1.1,1.5c-0.5,0.4-1.2,0.6-2,0.6c-0.6,0-1.2-0.1-1.7-0.4c-0.5-0.3-0.9-0.7-1.2-1.2c-0.3-0.5-0.4-1.1-0.4-1.8
			c0-0.7,0.1-1.3,0.4-1.8c0.3-0.5,0.7-0.9,1.2-1.2s1.1-0.4,1.7-0.4c0.6,0,1.2,0.1,1.7,0.4c0.5,0.3,0.9,0.7,1.1,1.1
			c0.3,0.5,0.4,1.1,0.4,1.7C163.6,400.6,163.6,400.8,163.6,401z M162.2,399.9c0-0.5-0.2-0.9-0.5-1.2c-0.4-0.3-0.8-0.5-1.3-0.5
			c-0.5,0-0.9,0.2-1.2,0.5s-0.5,0.7-0.6,1.2H162.2z"/>
	</g>
</g>
<g>
	<path fill="#B8E0CE" d="M253.1,157.9H6.9c-3.8,0-6.9-3.1-6.9-6.9V89c0-3.8,3.1-6.9,6.9-6.9h246.2c3.8,0,6.9,3.1,6.9,6.9v62
		C260,154.8,256.9,157.9,253.1,157.9z"/>
	<rect x="11.4" y="82.1" fill="none" width="237.1" height="75.8"/>
	<g>
		<path fill="#50685E" d="M95.9,116.7v1.1h-3.5v2.5h2.8v1.1h-2.8v3.6H91v-8.3H95.9z"/>
		<path fill="#50685E" d="M98.3,124.7c-0.5-0.3-0.9-0.7-1.2-1.2c-0.3-0.5-0.4-1.1-0.4-1.8c0-0.7,0.1-1.3,0.4-1.8
			c0.3-0.5,0.7-0.9,1.2-1.2c0.5-0.3,1.1-0.4,1.7-0.4c0.6,0,1.2,0.1,1.7,0.4c0.5,0.3,0.9,0.7,1.2,1.2c0.3,0.5,0.4,1.1,0.4,1.8
			c0,0.7-0.2,1.3-0.5,1.8c-0.3,0.5-0.7,0.9-1.2,1.2c-0.5,0.3-1.1,0.4-1.7,0.4C99.4,125.2,98.8,125,98.3,124.7z M101,123.7
			c0.3-0.2,0.6-0.4,0.8-0.8c0.2-0.3,0.3-0.7,0.3-1.2c0-0.5-0.1-0.9-0.3-1.2s-0.4-0.6-0.7-0.8c-0.3-0.2-0.6-0.3-1-0.3
			c-0.4,0-0.7,0.1-1,0.3c-0.3,0.2-0.5,0.4-0.7,0.8c-0.2,0.3-0.3,0.7-0.3,1.2c0,0.7,0.2,1.3,0.5,1.6c0.4,0.4,0.8,0.6,1.4,0.6
			C100.4,124,100.7,123.9,101,123.7z"/>
		<path fill="#50685E" d="M104.8,120c0.3-0.5,0.7-0.9,1.1-1.2s1-0.4,1.7-0.4c0.8,0,1.5,0.2,2,0.6c0.5,0.4,0.9,0.9,1.1,1.6h-1.5
			c-0.1-0.3-0.3-0.6-0.6-0.8c-0.3-0.2-0.6-0.3-1-0.3c-0.6,0-1,0.2-1.3,0.6c-0.3,0.4-0.5,0.9-0.5,1.7c0,0.7,0.2,1.3,0.5,1.7
			c0.3,0.4,0.8,0.6,1.3,0.6c0.8,0,1.3-0.3,1.6-1h1.5c-0.2,0.7-0.6,1.2-1.1,1.6c-0.5,0.4-1.2,0.6-2,0.6c-0.6,0-1.2-0.1-1.7-0.4
			c-0.5-0.3-0.9-0.7-1.1-1.2c-0.3-0.5-0.4-1.1-0.4-1.8C104.4,121.1,104.5,120.5,104.8,120z"/>
		<path fill="#50685E" d="M118,118.4v6.6h-1.4v-0.8c-0.2,0.3-0.5,0.5-0.8,0.6c-0.3,0.2-0.7,0.2-1.1,0.2c-0.5,0-1-0.1-1.4-0.3
			c-0.4-0.2-0.7-0.5-1-1c-0.2-0.4-0.4-0.9-0.4-1.5v-3.9h1.4v3.7c0,0.6,0.1,1,0.4,1.4c0.3,0.3,0.7,0.5,1.2,0.5c0.5,0,0.9-0.2,1.2-0.5
			c0.3-0.3,0.5-0.8,0.5-1.4v-3.7H118z"/>
		<path fill="#50685E" d="M120.8,124.9c-0.4-0.2-0.7-0.4-1-0.8c-0.2-0.3-0.4-0.7-0.4-1.1h1.4c0,0.3,0.2,0.5,0.4,0.7
			c0.2,0.2,0.5,0.3,0.9,0.3c0.4,0,0.7-0.1,0.9-0.2c0.2-0.1,0.3-0.3,0.3-0.6c0-0.2-0.1-0.4-0.4-0.6c-0.2-0.1-0.6-0.3-1.1-0.4
			c-0.5-0.1-0.9-0.3-1.2-0.4s-0.6-0.3-0.8-0.6c-0.2-0.3-0.3-0.6-0.3-1c0-0.4,0.1-0.7,0.3-1s0.5-0.5,0.9-0.7c0.4-0.2,0.8-0.3,1.3-0.3
			c0.8,0,1.4,0.2,1.8,0.6c0.5,0.4,0.7,0.9,0.7,1.6h-1.4c0-0.3-0.1-0.5-0.4-0.7s-0.5-0.3-0.9-0.3c-0.4,0-0.6,0.1-0.8,0.2
			c-0.2,0.1-0.3,0.3-0.3,0.5c0,0.2,0.1,0.3,0.2,0.4c0.1,0.1,0.3,0.2,0.5,0.3c0.2,0.1,0.5,0.2,0.8,0.3c0.5,0.1,0.9,0.3,1.2,0.4
			c0.3,0.1,0.6,0.3,0.8,0.6s0.3,0.6,0.3,1c0,0.4-0.1,0.7-0.3,1s-0.5,0.5-0.9,0.7c-0.4,0.2-0.8,0.3-1.3,0.3
			C121.7,125.2,121.2,125.1,120.8,124.9z"/>
		<path fill="#50685E" d="M134.7,116.7v1.1h-2.2v7.2h-1.4v-7.2h-2.2v-1.1H134.7z"/>
		<path fill="#50685E" d="M136.2,117.3c-0.2-0.2-0.3-0.4-0.3-0.6s0.1-0.5,0.3-0.6s0.4-0.3,0.6-0.3c0.2,0,0.4,0.1,0.6,0.3
			s0.3,0.4,0.3,0.6s-0.1,0.5-0.3,0.6s-0.4,0.3-0.6,0.3C136.5,117.6,136.3,117.5,136.2,117.3z M137.5,118.4v6.6h-1.4v-6.6H137.5z"/>
		<path fill="#50685E" d="M148.7,118.7c0.4,0.2,0.7,0.5,1,1c0.2,0.4,0.4,0.9,0.4,1.5v3.9h-1.4v-3.7c0-0.6-0.1-1-0.4-1.4
			c-0.3-0.3-0.7-0.5-1.2-0.5s-0.9,0.2-1.2,0.5c-0.3,0.3-0.5,0.8-0.5,1.4v3.7H144v-3.7c0-0.6-0.1-1-0.4-1.4c-0.3-0.3-0.7-0.5-1.2-0.5
			c-0.5,0-0.9,0.2-1.2,0.5c-0.3,0.3-0.4,0.8-0.4,1.4v3.7h-1.4v-6.6h1.4v0.8c0.2-0.3,0.5-0.5,0.9-0.6c0.3-0.2,0.7-0.2,1.1-0.2
			c0.5,0,1,0.1,1.4,0.3c0.4,0.2,0.7,0.5,1,1c0.2-0.4,0.5-0.7,0.9-1c0.4-0.2,0.9-0.4,1.4-0.4C147.8,118.3,148.3,118.4,148.7,118.7z"
			/>
		<path fill="#50685E" d="M157.7,122.3h-5.1c0,0.5,0.2,1,0.6,1.3c0.4,0.3,0.8,0.5,1.3,0.5c0.7,0,1.3-0.3,1.6-0.9h1.5
			c-0.2,0.6-0.6,1.1-1.1,1.5c-0.5,0.4-1.2,0.6-2,0.6c-0.6,0-1.2-0.1-1.7-0.4c-0.5-0.3-0.9-0.7-1.2-1.2c-0.3-0.5-0.4-1.1-0.4-1.8
			c0-0.7,0.1-1.3,0.4-1.8c0.3-0.5,0.7-0.9,1.2-1.2s1.1-0.4,1.7-0.4c0.6,0,1.2,0.1,1.7,0.4c0.5,0.3,0.9,0.7,1.1,1.1
			c0.3,0.5,0.4,1.1,0.4,1.7C157.8,121.8,157.8,122.1,157.7,122.3z M156.4,121.2c0-0.5-0.2-0.9-0.5-1.2c-0.4-0.3-0.8-0.5-1.3-0.5
			c-0.5,0-0.9,0.2-1.2,0.5s-0.5,0.7-0.6,1.2H156.4z"/>
		<path fill="#50685E" d="M168.7,121.3h-2.4v2.5H165v-2.5h-2.4v-1.2h2.4v-2.5h1.3v2.5h2.4V121.3z"/>
	</g>
</g>
<g>
	<path fill="#F2DCBA" d="M253.1,341H6.9c-3.8,0-6.9-3.1-6.9-6.9v-22.4c0-3.8,3.1-6.9,6.9-6.9h246.2c3.8,0,6.9,3.1,6.9,6.9v22.4
		C260,337.9,256.9,341,253.1,341z"/>
	<rect x="11.4" y="304.9" fill="none" width="237.1" height="36.1"/>
	<g>
		<path fill="#6B6251" d="M104.4,320.8v2.4h2.9v1.1h-2.9v2.6h3.2v1.1h-4.6v-8.4h4.6v1.1H104.4z"/>
		<path fill="#6B6251" d="M112.2,324.7l2.1,3.3h-1.5l-1.4-2.2L110,328h-1.4l2.1-3.3l-2.1-3.4h1.5l1.4,2.2l1.3-2.2h1.4L112.2,324.7z"
			/>
		<path fill="#6B6251" d="M115.3,322.9c0.3-0.5,0.7-0.9,1.1-1.2s1-0.4,1.7-0.4c0.8,0,1.5,0.2,2,0.6c0.5,0.4,0.9,0.9,1.1,1.6h-1.5
			c-0.1-0.3-0.3-0.6-0.6-0.8c-0.3-0.2-0.6-0.3-1-0.3c-0.6,0-1,0.2-1.3,0.6c-0.3,0.4-0.5,0.9-0.5,1.7c0,0.7,0.2,1.3,0.5,1.7
			c0.3,0.4,0.8,0.6,1.3,0.6c0.8,0,1.3-0.3,1.6-1h1.5c-0.2,0.7-0.6,1.2-1.1,1.6c-0.5,0.4-1.2,0.6-2,0.6c-0.6,0-1.2-0.1-1.7-0.4
			c-0.5-0.3-0.9-0.7-1.1-1.2c-0.3-0.5-0.4-1.1-0.4-1.8C114.9,324,115,323.4,115.3,322.9z"/>
		<path fill="#6B6251" d="M128.6,325.2h-5.1c0,0.5,0.2,1,0.6,1.3c0.4,0.3,0.8,0.5,1.3,0.5c0.7,0,1.3-0.3,1.6-0.9h1.5
			c-0.2,0.6-0.6,1.1-1.1,1.5c-0.5,0.4-1.2,0.6-1.9,0.6c-0.6,0-1.2-0.1-1.7-0.4c-0.5-0.3-0.9-0.7-1.2-1.2c-0.3-0.5-0.4-1.1-0.4-1.8
			c0-0.7,0.1-1.3,0.4-1.8c0.3-0.5,0.7-0.9,1.2-1.2s1.1-0.4,1.7-0.4c0.6,0,1.2,0.1,1.7,0.4c0.5,0.3,0.9,0.7,1.1,1.1s0.4,1.1,0.4,1.7
			C128.6,324.8,128.6,325,128.6,325.2z M127.2,324.1c0-0.5-0.2-0.9-0.5-1.2c-0.4-0.3-0.8-0.5-1.3-0.5c-0.5,0-0.9,0.2-1.2,0.5
			s-0.5,0.7-0.6,1.2H127.2z"/>
		<path fill="#6B6251" d="M132.1,321.6c0.3-0.2,0.7-0.3,1.2-0.3v1.4h-0.3c-0.5,0-0.9,0.1-1.2,0.4c-0.3,0.3-0.4,0.7-0.4,1.4v3.5h-1.4
			v-6.6h1.4v1C131.5,322,131.8,321.8,132.1,321.6z"/>
		<path fill="#6B6251" d="M134.5,322.9c0.3-0.5,0.7-0.9,1.1-1.2c0.5-0.3,1-0.4,1.7-0.4c0.8,0,1.5,0.2,2,0.6c0.5,0.4,0.9,0.9,1.1,1.6
			h-1.5c-0.1-0.3-0.3-0.6-0.6-0.8c-0.3-0.2-0.6-0.3-1-0.3c-0.6,0-1,0.2-1.3,0.6c-0.3,0.4-0.5,0.9-0.5,1.7c0,0.7,0.2,1.3,0.5,1.7
			c0.3,0.4,0.8,0.6,1.3,0.6c0.8,0,1.3-0.3,1.6-1h1.5c-0.2,0.7-0.6,1.2-1.1,1.6c-0.5,0.4-1.2,0.6-2,0.6c-0.6,0-1.2-0.1-1.7-0.4
			c-0.5-0.3-0.9-0.7-1.1-1.2c-0.3-0.5-0.4-1.1-0.4-1.8C134.1,324,134.2,323.4,134.5,322.9z"/>
		<path fill="#6B6251" d="M141.8,320.3c-0.2-0.2-0.3-0.4-0.3-0.6s0.1-0.5,0.3-0.6s0.4-0.3,0.6-0.3c0.2,0,0.4,0.1,0.6,0.3
			s0.3,0.4,0.3,0.6s-0.1,0.5-0.3,0.6s-0.4,0.3-0.6,0.3C142.2,320.5,142,320.4,141.8,320.3z M143.1,321.4v6.6h-1.4v-6.6H143.1z"/>
		<path fill="#6B6251" d="M145.9,327.8c-0.4-0.2-0.7-0.4-1-0.8c-0.2-0.3-0.4-0.7-0.4-1.1h1.4c0,0.3,0.2,0.5,0.4,0.7
			c0.2,0.2,0.5,0.3,0.9,0.3c0.4,0,0.7-0.1,0.9-0.2c0.2-0.1,0.3-0.3,0.3-0.6c0-0.2-0.1-0.4-0.4-0.6s-0.6-0.3-1.1-0.4
			c-0.5-0.1-0.9-0.3-1.2-0.4c-0.3-0.1-0.6-0.3-0.8-0.6c-0.2-0.3-0.3-0.6-0.3-1c0-0.4,0.1-0.7,0.3-1s0.5-0.5,0.9-0.7s0.8-0.3,1.3-0.3
			c0.8,0,1.4,0.2,1.8,0.6c0.5,0.4,0.7,0.9,0.7,1.6h-1.4c0-0.3-0.1-0.5-0.4-0.7s-0.5-0.3-0.9-0.3c-0.4,0-0.6,0.1-0.8,0.2
			c-0.2,0.1-0.3,0.3-0.3,0.5c0,0.2,0.1,0.3,0.2,0.4s0.3,0.2,0.5,0.3c0.2,0.1,0.5,0.2,0.8,0.3c0.5,0.1,0.9,0.3,1.2,0.4
			s0.6,0.3,0.8,0.6c0.2,0.3,0.3,0.6,0.3,1c0,0.4-0.1,0.7-0.3,1s-0.5,0.5-0.9,0.7s-0.8,0.3-1.3,0.3
			C146.8,328.1,146.3,328,145.9,327.8z"/>
		<path fill="#6B6251" d="M157.3,325.2h-5.1c0,0.5,0.2,1,0.6,1.3c0.4,0.3,0.8,0.5,1.3,0.5c0.7,0,1.3-0.3,1.6-0.9h1.5
			c-0.2,0.6-0.6,1.1-1.1,1.5c-0.5,0.4-1.2,0.6-1.9,0.6c-0.6,0-1.2-0.1-1.7-0.4c-0.5-0.3-0.9-0.7-1.2-1.2c-0.3-0.5-0.4-1.1-0.4-1.8
			c0-0.7,0.1-1.3,0.4-1.8c0.3-0.5,0.7-0.9,1.2-1.2s1.1-0.4,1.7-0.4c0.6,0,1.2,0.1,1.7,0.4c0.5,0.3,0.9,0.7,1.1,1.1
			c0.3,0.5,0.4,1.1,0.4,1.7C157.4,324.8,157.4,325,157.3,325.2z M156,324.1c0-0.5-0.2-0.9-0.5-1.2c-0.4-0.3-0.8-0.5-1.3-0.5
			c-0.5,0-0.9,0.2-1.2,0.5s-0.5,0.7-0.6,1.2H156z"/>
	</g>
</g>
<g>
	<path fill="#F2DCBA" d="M253.1,514.8H6.9c-3.8,0-6.9-3.1-6.9-6.9v-61.4c0-3.8,3.1-6.9,6.9-6.9h246.2c3.8,0,6.9,3.1,6.9,6.9V508
		C260,511.7,256.9,514.8,253.1,514.8z"/>
	<rect x="11.4" y="439.6" fill="none" width="237.1" height="75.2"/>
	<g>
		<path fill="#6B6251" d="M104.4,475v2.4h2.9v1.1h-2.9v2.6h3.2v1.1h-4.6v-8.4h4.6v1.1H104.4z"/>
		<path fill="#6B6251" d="M112.2,478.9l2.1,3.3h-1.5l-1.4-2.2l-1.3,2.2h-1.4l2.1-3.3l-2.1-3.4h1.5l1.4,2.2l1.3-2.2h1.4L112.2,478.9z
			"/>
		<path fill="#6B6251" d="M115.3,477.2c0.3-0.5,0.7-0.9,1.1-1.2s1-0.4,1.7-0.4c0.8,0,1.5,0.2,2,0.6c0.5,0.4,0.9,0.9,1.1,1.6h-1.5
			c-0.1-0.3-0.3-0.6-0.6-0.8c-0.3-0.2-0.6-0.3-1-0.3c-0.6,0-1,0.2-1.3,0.6c-0.3,0.4-0.5,0.9-0.5,1.7c0,0.7,0.2,1.3,0.5,1.7
			c0.3,0.4,0.8,0.6,1.3,0.6c0.8,0,1.3-0.3,1.6-1h1.5c-0.2,0.7-0.6,1.2-1.1,1.6c-0.5,0.4-1.2,0.6-2,0.6c-0.6,0-1.2-0.1-1.7-0.4
			c-0.5-0.3-0.9-0.7-1.1-1.2c-0.3-0.5-0.4-1.1-0.4-1.8C114.9,478.3,115,477.7,115.3,477.2z"/>
		<path fill="#6B6251" d="M128.6,479.5h-5.1c0,0.5,0.2,1,0.6,1.3c0.4,0.3,0.8,0.5,1.3,0.5c0.7,0,1.3-0.3,1.6-0.9h1.5
			c-0.2,0.6-0.6,1.1-1.1,1.5c-0.5,0.4-1.2,0.6-1.9,0.6c-0.6,0-1.2-0.1-1.7-0.4c-0.5-0.3-0.9-0.7-1.2-1.2c-0.3-0.5-0.4-1.1-0.4-1.8
			c0-0.7,0.1-1.3,0.4-1.8c0.3-0.5,0.7-0.9,1.2-1.2s1.1-0.4,1.7-0.4c0.6,0,1.2,0.1,1.7,0.4c0.5,0.3,0.9,0.7,1.1,1.1s0.4,1.1,0.4,1.7
			C128.6,479.1,128.6,479.3,128.6,479.5z M127.2,478.4c0-0.5-0.2-0.9-0.5-1.2c-0.4-0.3-0.8-0.5-1.3-0.5c-0.5,0-0.9,0.2-1.2,0.5
			s-0.5,0.7-0.6,1.2H127.2z"/>
		<path fill="#6B6251" d="M132.1,475.8c0.3-0.2,0.7-0.3,1.2-0.3v1.4h-0.3c-0.5,0-0.9,0.1-1.2,0.4c-0.3,0.3-0.4,0.7-0.4,1.4v3.5h-1.4
			v-6.6h1.4v1C131.5,476.3,131.8,476,132.1,475.8z"/>
		<path fill="#6B6251" d="M134.5,477.2c0.3-0.5,0.7-0.9,1.1-1.2c0.5-0.3,1-0.4,1.7-0.4c0.8,0,1.5,0.2,2,0.6c0.5,0.4,0.9,0.9,1.1,1.6
			h-1.5c-0.1-0.3-0.3-0.6-0.6-0.8c-0.3-0.2-0.6-0.3-1-0.3c-0.6,0-1,0.2-1.3,0.6c-0.3,0.4-0.5,0.9-0.5,1.7c0,0.7,0.2,1.3,0.5,1.7
			c0.3,0.4,0.8,0.6,1.3,0.6c0.8,0,1.3-0.3,1.6-1h1.5c-0.2,0.7-0.6,1.2-1.1,1.6c-0.5,0.4-1.2,0.6-2,0.6c-0.6,0-1.2-0.1-1.7-0.4
			c-0.5-0.3-0.9-0.7-1.1-1.2c-0.3-0.5-0.4-1.1-0.4-1.8C134.1,478.3,134.2,477.7,134.5,477.2z"/>
		<path fill="#6B6251" d="M141.8,474.5c-0.2-0.2-0.3-0.4-0.3-0.6s0.1-0.5,0.3-0.6s0.4-0.3,0.6-0.3c0.2,0,0.4,0.1,0.6,0.3
			s0.3,0.4,0.3,0.6s-0.1,0.5-0.3,0.6s-0.4,0.3-0.6,0.3C142.2,474.8,142,474.7,141.8,474.5z M143.1,475.7v6.6h-1.4v-6.6H143.1z"/>
		<path fill="#6B6251" d="M145.9,482.1c-0.4-0.2-0.7-0.4-1-0.8c-0.2-0.3-0.4-0.7-0.4-1.1h1.4c0,0.3,0.2,0.5,0.4,0.7
			c0.2,0.2,0.5,0.3,0.9,0.3c0.4,0,0.7-0.1,0.9-0.2c0.2-0.1,0.3-0.3,0.3-0.6c0-0.2-0.1-0.4-0.4-0.6s-0.6-0.3-1.1-0.4
			c-0.5-0.1-0.9-0.3-1.2-0.4c-0.3-0.1-0.6-0.3-0.8-0.6c-0.2-0.3-0.3-0.6-0.3-1c0-0.4,0.1-0.7,0.3-1s0.5-0.5,0.9-0.7s0.8-0.3,1.3-0.3
			c0.8,0,1.4,0.2,1.8,0.6c0.5,0.4,0.7,0.9,0.7,1.6h-1.4c0-0.3-0.1-0.5-0.4-0.7s-0.5-0.3-0.9-0.3c-0.4,0-0.6,0.1-0.8,0.2
			c-0.2,0.1-0.3,0.3-0.3,0.5c0,0.2,0.1,0.3,0.2,0.4s0.3,0.2,0.5,0.3c0.2,0.1,0.5,0.2,0.8,0.3c0.5,0.1,0.9,0.3,1.2,0.4
			s0.6,0.3,0.8,0.6c0.2,0.3,0.3,0.6,0.3,1c0,0.4-0.1,0.7-0.3,1s-0.5,0.5-0.9,0.7s-0.8,0.3-1.3,0.3
			C146.8,482.4,146.3,482.3,145.9,482.1z"/>
		<path fill="#6B6251" d="M157.3,479.5h-5.1c0,0.5,0.2,1,0.6,1.3c0.4,0.3,0.8,0.5,1.3,0.5c0.7,0,1.3-0.3,1.6-0.9h1.5
			c-0.2,0.6-0.6,1.1-1.1,1.5c-0.5,0.4-1.2,0.6-1.9,0.6c-0.6,0-1.2-0.1-1.7-0.4c-0.5-0.3-0.9-0.7-1.2-1.2c-0.3-0.5-0.4-1.1-0.4-1.8
			c0-0.7,0.1-1.3,0.4-1.8c0.3-0.5,0.7-0.9,1.2-1.2s1.1-0.4,1.7-0.4c0.6,0,1.2,0.1,1.7,0.4c0.5,0.3,0.9,0.7,1.1,1.1
			c0.3,0.5,0.4,1.1,0.4,1.7C157.4,479.1,157.4,479.3,157.3,479.5z M156,478.4c0-0.5-0.2-0.9-0.5-1.2c-0.4-0.3-0.8-0.5-1.3-0.5
			c-0.5,0-0.9,0.2-1.2,0.5s-0.5,0.7-0.6,1.2H156z"/>
	</g>
</g>
<g id="lOOHDA_00000152253787235204476650000005493094116793767300_">
	<path fill="#50685E" d="M188.3,125.3c0.1,0,0.2,0,0.3,0c1.4,0,2.9,0,4.3,0c0.6,0,0.8,0.2,0.7,0.8c0,1.2-0.5,2.2-1.6,2.7
		c-0.4,0.2-1,0.3-1.4,0.3c-4.5,0-9,0-13.5,0c-0.8,0-1.6-0.2-2.2-0.8c-0.7-0.7-0.8-1.5-0.8-2.4c0-0.3,0.2-0.5,0.6-0.5
		c1.5,0,2.9,0,4.4,0c0.1,0,0.2,0,0.3,0c0,0,0,0,0-0.1c-0.1-0.1-0.2-0.1-0.3-0.2c-1.9-1.1-3.2-2.7-3.7-4.9c-0.1-0.5-0.2-1.1-0.2-1.6
		s0.2-0.7,0.6-0.7c1.9,0,3.9,0,5.8,0c4.2,0,8.3,0,12.5,0c0.5,0,1.1,0.1,1.6,0.2c1.4,0.3,1.9,1.1,1.6,2.5c-0.2,1.2-1,1.9-2.1,2.3
		c-0.9,0.4-2,0.6-3,0.7c-0.6,0.1-1.2,0.1-1.7,0.1c-0.1,0-0.2,0-0.3,0.1C189.7,124.3,189,124.8,188.3,125.3
		C188.4,125.3,188.4,125.3,188.3,125.3z M176.3,119c0,0.1,0,0.2,0,0.3c0.2,1.5,0.9,2.9,2,3.9c2.1,1.9,4.6,2.6,7.4,2
		c2.6-0.6,4.5-2.1,5.5-4.7c0.2-0.4,0.2-0.9,0.3-1.4C186.4,119,181.3,119,176.3,119z M192.5,126.4c-5.8,0-11.6,0-17.3,0
		c0,0.9,0.6,1.5,1.4,1.6c0.2,0,0.4,0,0.6,0c4.4,0,8.9,0,13.3,0c0.1,0,0.3,0,0.4,0C191.9,127.9,192.4,127.4,192.5,126.4z
		 M191.3,122.7c0.5-0.1,1-0.1,1.4-0.2c0.9-0.1,1.7-0.3,2.5-0.7c0.5-0.3,0.9-0.7,1.1-1.3c0.2-1,0-1.3-0.9-1.4
		c-0.4-0.1-0.8-0.1-1.3-0.1s-1,0-1.5,0C192.5,120.3,192,121.5,191.3,122.7z"/>
	<path fill="#50685E" d="M180.4,108.9c0.1,0.1,0.3,0.2,0.4,0.3c0.1,0.1,0,0.4,0,0.5s-0.2,0.2-0.2,0.3c-0.4,0.5-0.4,1.1-0.2,1.6
		s0.5,1.1,0.7,1.6c0.3,1.1,0.3,2.1-0.1,3.2c-0.1,0.3-0.4,0.5-0.7,0.4s-0.4-0.4-0.3-0.7c0-0.1,0.1-0.3,0.1-0.4c0.1-0.5,0.2-1,0.1-1.5
		c0-0.3-0.2-0.7-0.3-1c-0.2-0.5-0.5-1-0.6-1.5c-0.3-1,0.1-2,0.8-2.6C180.1,109,180.2,108.9,180.4,108.9z"/>
	<path fill="#50685E" d="M187.7,114.6c0-0.5-0.2-0.9-0.4-1.3c-0.2-0.5-0.5-1-0.6-1.5c-0.3-1,0-1.8,0.7-2.6c0.2-0.3,0.6-0.3,0.8-0.1
		s0.2,0.5,0,0.8c-0.1,0.1-0.1,0.1-0.2,0.2c-0.4,0.5-0.5,1.1-0.2,1.7c0.2,0.5,0.5,1.1,0.7,1.7c0.3,1,0.3,2.1-0.1,3.1
		c-0.2,0.4-0.4,0.5-0.7,0.4s-0.4-0.4-0.3-0.8C187.4,115.6,187.6,115.1,187.7,114.6z"/>
	<path fill="#50685E" d="M184,115.8c-0.3,0-0.5-0.3-0.4-0.6s0.2-0.6,0.2-0.9c0.2-0.7,0.1-1.4-0.2-2.1c-0.2-0.4-0.3-0.7-0.5-1.1
		c-0.5-1.1-0.2-2.1,0.5-3c0.2-0.3,0.6-0.3,0.8-0.1s0.2,0.5,0,0.8c0,0.1-0.1,0.1-0.1,0.2c-0.4,0.5-0.5,1.1-0.2,1.7
		c0.3,0.7,0.6,1.4,0.8,2.2c0.2,0.9,0.1,1.8-0.3,2.6C184.4,115.7,184.3,115.8,184,115.8z"/>
</g>
<g id="lOOHDA_00000033357022832710592600000017840068489051148722_">
	<path fill="#50685E" d="M188.3,269.3c0.1,0,0.2,0,0.3,0c1.4,0,2.9,0,4.3,0c0.6,0,0.8,0.2,0.7,0.8c0,1.2-0.5,2.2-1.6,2.7
		c-0.4,0.2-1,0.3-1.4,0.3c-4.5,0-9,0-13.5,0c-0.8,0-1.6-0.2-2.2-0.8c-0.7-0.7-0.8-1.5-0.8-2.4c0-0.3,0.2-0.5,0.6-0.5
		c1.5,0,2.9,0,4.4,0c0.1,0,0.2,0,0.3,0c0,0,0,0,0-0.1c-0.1-0.1-0.2-0.1-0.3-0.2c-1.9-1.1-3.2-2.7-3.7-4.9c-0.1-0.5-0.2-1.1-0.2-1.6
		s0.2-0.7,0.6-0.7c1.9,0,3.9,0,5.8,0c4.2,0,8.3,0,12.5,0c0.5,0,1.1,0.1,1.6,0.2c1.4,0.3,1.9,1.1,1.6,2.5c-0.2,1.2-1,1.9-2.1,2.3
		c-0.9,0.4-2,0.6-3,0.7c-0.6,0.1-1.2,0.1-1.7,0.1c-0.1,0-0.2,0-0.3,0.1C189.7,268.3,189,268.7,188.3,269.3
		C188.4,269.2,188.4,269.2,188.3,269.3z M176.3,263c0,0.1,0,0.2,0,0.3c0.2,1.5,0.9,2.9,2,3.9c2.1,1.9,4.6,2.6,7.4,2
		c2.6-0.6,4.5-2.1,5.5-4.7c0.2-0.4,0.2-0.9,0.3-1.4C186.4,263,181.3,263,176.3,263z M192.5,270.4c-5.8,0-11.6,0-17.3,0
		c0,0.9,0.6,1.5,1.4,1.6c0.2,0,0.4,0,0.6,0c4.4,0,8.9,0,13.3,0c0.1,0,0.3,0,0.4,0C191.9,271.9,192.4,271.4,192.5,270.4z
		 M191.3,266.6c0.5-0.1,1-0.1,1.4-0.2c0.9-0.1,1.7-0.3,2.5-0.7c0.5-0.3,0.9-0.7,1.1-1.3c0.2-1,0-1.3-0.9-1.4
		c-0.4-0.1-0.8-0.1-1.3-0.1s-1,0-1.5,0C192.5,264.3,192,265.5,191.3,266.6z"/>
	<path fill="#50685E" d="M180.4,252.8c0.1,0.1,0.3,0.2,0.4,0.3c0.1,0.1,0,0.4,0,0.5s-0.2,0.2-0.2,0.3c-0.4,0.5-0.4,1.1-0.2,1.6
		c0.2,0.5,0.5,1.1,0.7,1.6c0.3,1.1,0.3,2.1-0.1,3.2c-0.1,0.3-0.4,0.5-0.7,0.4s-0.4-0.4-0.3-0.7c0-0.1,0.1-0.3,0.1-0.4
		c0.1-0.5,0.2-1,0.1-1.5c0-0.3-0.2-0.7-0.3-1c-0.2-0.5-0.5-1-0.6-1.5c-0.3-1,0.1-2,0.8-2.6C180.1,252.9,180.2,252.9,180.4,252.8z"/>
	<path fill="#50685E" d="M187.7,258.5c0-0.5-0.2-0.9-0.4-1.3c-0.2-0.5-0.5-1-0.6-1.5c-0.3-1,0-1.8,0.7-2.6c0.2-0.3,0.6-0.3,0.8-0.1
		s0.2,0.5,0,0.8c-0.1,0.1-0.1,0.1-0.2,0.2c-0.4,0.5-0.5,1.1-0.2,1.7c0.2,0.5,0.5,1.1,0.7,1.7c0.3,1,0.3,2.1-0.1,3.1
		c-0.2,0.4-0.4,0.5-0.7,0.4s-0.4-0.4-0.3-0.8C187.4,259.5,187.6,259,187.7,258.5z"/>
	<path fill="#50685E" d="M184,259.8c-0.3,0-0.5-0.3-0.4-0.6c0.1-0.3,0.2-0.6,0.2-0.9c0.2-0.7,0.1-1.4-0.2-2.1
		c-0.2-0.4-0.3-0.7-0.5-1.1c-0.5-1.1-0.2-2.1,0.5-3c0.2-0.3,0.6-0.3,0.8-0.1s0.2,0.5,0,0.8c0,0.1-0.1,0.1-0.1,0.2
		c-0.4,0.5-0.5,1.1-0.2,1.7c0.3,0.7,0.6,1.4,0.8,2.2c0.2,0.9,0.1,1.8-0.3,2.6C184.4,259.6,184.3,259.8,184,259.8z"/>
</g>
</svg>
