<?xml version="1.0" encoding="utf-8"?>
<!-- Generator: Adobe Illustrator 26.2.1, SVG Export Plug-In . SVG Version: 6.00 Build 0)  -->
<svg version="1.1" baseProfile="tiny" id="Layer_1" xmlns="http://www.w3.org/2000/svg" xmlns:xlink="http://www.w3.org/1999/xlink"
	 x="0px" y="0px" width="260px" height="557px" viewBox="0 0 260 557" overflow="visible" xml:space="preserve">
<path fill="#F2EDED" d="M243.3,557H16.7C7.5,557,0,549.5,0,540.3V16.7C0,7.5,7.5,0,16.7,0h226.5c9.2,0,16.7,7.5,16.7,16.7v523.6
	C260,549.5,252.5,557,243.3,557z"/>
<g>
	<path fill="#F2BABA" d="M253,212H7c-3.8,0-7-3.1-7-6.9v-87.4c0-3.8,3.1-6.9,7-6.9h245.9c3.8,0,7,3.1,7,6.9v87.4
		C259.9,208.9,256.9,212,253,212z"/>
	<rect x="11.4" y="110.8" fill="none" width="237.1" height="101.2"/>
	<text transform="matrix(1.0114 0 0 1 87.4321 166.4863)" fill="#6D5252" font-family="'Poppins-Medium'" font-size="12px">Thinking Time</text>
</g>
<g>
	<path fill="#F2BABA" d="M253.1,531.6H6.9c-3.8,0-6.9-3.1-6.9-6.9v-87.4c0-3.8,3.1-6.9,6.9-6.9h246.2c3.8,0,6.9,3.1,6.9,6.9v87.4
		C260,528.5,256.9,531.6,253.1,531.6z"/>
	<rect x="11.4" y="430.4" fill="none" width="237.1" height="101.2"/>
	<text transform="matrix(1.0114 0 0 1 88.2935 486.0547)" fill="#6D5252" font-family="'Poppins-Medium'" font-size="12px">Courses Time</text>
</g>
<g>
	<path fill="#F2DCBA" d="M253.1,335.3H6.9c-3.8,0-6.9-3.1-6.9-6.9v-61.5c0-3.8,3.1-6.9,6.9-6.9h246.2c3.8,0,6.9,3.1,6.9,6.9v61.5
		C260,332.2,256.9,335.3,253.1,335.3z"/>
	<rect x="11.4" y="260.1" fill="none" width="237.1" height="75.2"/>
	<text transform="matrix(1 0 0 1 102.1664 302.7951)" fill="#6B6251" font-family="'Poppins-Medium'" font-size="12px">Excercise</text>
</g>
<g>
	<path fill="#F2BABA" d="M253.1,427.4H6.9c-3.8,0-6.9-3.1-6.9-6.9v-9.4c0-3.8,3.1-6.9,6.9-6.9h246.2c3.8,0,6.9,3.1,6.9,6.9v9.4
		C260,424.3,256.9,427.4,253.1,427.4z"/>
	<rect x="11.4" y="404.2" fill="none" width="237.1" height="23.1"/>
	<text transform="matrix(1 0 0 1 96.3705 420.8702)" fill="#695353" font-family="'Poppins-Medium'" font-size="12px">Languages</text>
</g>
</svg>
