<?xml version="1.0" encoding="utf-8"?>
<!-- Generator: Adobe Illustrator 26.3.1, SVG Export Plug-In . SVG Version: 6.00 Build 0)  -->
<svg version="1.1" baseProfile="tiny" id="Layer_1" xmlns="http://www.w3.org/2000/svg" xmlns:xlink="http://www.w3.org/1999/xlink"
	 x="0px" y="0px" width="24px" height="24px" viewBox="0 0 24 24" overflow="visible" xml:space="preserve">
<path fill="#6E7699" d="M6.9,12.3c-0.4,0-0.9,0-1.3-0.1l-3.2-0.3c-0.4,0-0.7-0.4-0.7-0.8c0-0.4,0.4-0.7,0.8-0.7l3.2,0.3
	c4.9,0.4,9.7-2,12.1-6.3c0.2-0.4,0.7-0.5,1-0.3c0.4,0.2,0.5,0.7,0.3,1C16.6,9.6,11.9,12.3,6.9,12.3z"/>
<path fill="#6E7699" d="M5.5,20.1c-0.1,0-0.2,0-0.4-0.1c-0.4-0.2-0.5-0.7-0.3-1c2.7-4.8,8.1-7.6,13.6-7.1l3.2,0.3
	c0.4,0,0.7,0.4,0.7,0.8c0,0.4-0.4,0.7-0.8,0.7l-3.2-0.3c-4.9-0.4-9.7,2-12.1,6.3C6,20,5.8,20.1,5.5,20.1z"/>
<path fill="#6E7699" d="M12,22.8C6.1,22.8,1.2,17.9,1.2,12S6.1,1.2,12,1.2S22.8,6.1,22.8,12S17.9,22.8,12,22.8z M12,2.8
	c-5.1,0-9.2,4.2-9.2,9.2s4.2,9.2,9.2,9.2s9.2-4.1,9.2-9.2S17.1,2.8,12,2.8z"/>
<path fill="#6E7699" d="M16.5,21.7c-0.3,0-0.6-0.2-0.7-0.6l-1.2-5c-0.8-3.2-2.3-6.2-4.3-8.7L7,3.5C6.8,3.2,6.8,2.7,7.2,2.4
	c0.3-0.3,0.8-0.2,1.1,0.1l3.2,3.9c2.2,2.7,3.8,5.9,4.6,9.3l1.2,5c0.1,0.4-0.1,0.8-0.5,0.9C16.6,21.7,16.5,21.7,16.5,21.7z"/>
</svg>
