<?xml version="1.0" encoding="utf-8"?>
<!-- Generator: Adobe Illustrator 26.3.1, SVG Export Plug-In . SVG Version: 6.00 Build 0)  -->
<svg version="1.1" id="Layer_1" xmlns="http://www.w3.org/2000/svg" xmlns:xlink="http://www.w3.org/1999/xlink" x="0px" y="0px"
	 width="48px" height="48px" viewBox="0 0 48 48"  xml:space="preserve" >
<g id="UQal27_00000031200916655280471850000014323438492770855056_">
	<g>
		<g>
			<path fill="#3a405d" d="M16.6,43.8c-0.8,0-1.1-0.2-1.1-1.1c0-3.7,0-7.5,0-11.2c0-0.3-0.1-0.6-0.3-0.8c-1.8-1.8-3.6-3.6-5.5-5.5
				c-1.8-1.8-1.8-4.4-0.1-6.2c1.2-1.3,2.6-2.6,3.8-3.9c0.2-0.2,0.3-0.4,0.3-0.6c0.4-2.4,0.9-4.8,1.3-7.2c0.3-1.6,1.2-2.6,2.8-3
				c1.5-0.4,2.8,0.1,3.8,1.3c0,0.1,0.1,0.1,0.2,0.2C24,3.5,27.5,4.1,28.6,7c2.1-1.4,4.9-0.6,5.8,2c0.7-0.4,1.5-0.6,2.3-0.4
				c1.9,0.3,3.1,2.1,2.8,4c-0.4,2.2-0.8,4.5-1.2,6.7c0,0.2-0.1,0.5-0.2,0.7c-0.3,0.4-0.3,0.9-0.2,1.4c0.7,3.8-0.4,7.1-3.1,9.9
				c-0.2,0.2-0.3,0.5-0.3,0.8c0,3.5,0,7,0,10.5c0,0.9-0.2,1.1-1.1,1.1c0,0-0.3-0.1-0.3-0.4c0-0.3,0-1.1,0-1.1c0-0.2,0-0.4,0-0.6
				c0-3.4,0-6.7,0-10.1c0-0.4,0.1-0.7,0.4-1c0.9-0.9,1.7-1.9,2.3-3.1c0.8-1.8,1.1-3.7,0.8-5.7c-1.9,0.7-3.5,0.2-4.6-1.5
				c-0.9,0.7-1.9,1-3,0.8s-2-0.8-2.6-1.8c-0.2,0.2-0.4,0.3-0.5,0.5c0.6,0.7,1.3,1.3,1.8,1.9c1,1.2,0.9,2.3-0.2,3.3
				c-0.4,0.3-0.8,0.6-1.2,0.9c0.4,1.3,0.6,2.7,0.4,4.1c-0.2,1.2-0.5,2.3-1.1,3.3c-0.3,0.5-0.7,0.6-1.1,0.3c-0.5,0.1-0.5-0.4-0.3-0.8
				c0-0.1,0.1-0.2,0.1-0.2c1-1.9,1.1-3.9,0.5-5.9c-0.8-0.2-1.5-0.2-2.2-0.5c-2.2-0.8-4-2.3-5.9-3.7c-0.3-0.2-0.3-0.6-0.1-1
				c0.2-0.3,0.6-0.4,1-0.2c0.1,0.1,0.2,0.2,0.3,0.2c0.8,0.6,1.6,1.2,2.5,1.8c0.9,0.6,1.9,1.1,2.9,1.5c0.9,0.4,1.9,0.2,2.7-0.4
				c0.9-0.7,0.9-1.1,0.1-1.9c-2.2-2.2-4.5-4.5-6.7-6.7c-1.4-1.4-3-1.4-4.4,0s-2.8,2.8-4.1,4.1c-1.4,1.4-1.4,3.1,0,4.5
				c1.8,1.8,3.7,3.7,5.5,5.5c0.4,0.4,0.6,0.8,0.6,1.4c0,3.5,0,7,0,10.4c0,0.2,0,0.4,0,0.5C17.1,42.3,17.1,43.8,16.6,43.8z
				 M24.7,18.7c0.7-0.4,1.1-1,1.2-1.8c0.4-2.3,0.8-4.6,1.2-6.9c0.1-0.6,0.3-1.2,0.2-1.8C27.2,6.9,26.2,6,25,5.9
				c-1.3,0-2.4,0.8-2.6,2.1c-0.4,2.3-0.8,4.5-1.2,6.8c0,0.2,0,0.4,0.1,0.5C22.4,16.6,23.5,17.6,24.7,18.7z M33,10.4
				c0-1.4-0.8-2.3-2-2.5c-1-0.1-2.1,0.7-2.3,1.8c-0.5,2.5-0.9,5-1.3,7.5c-0.2,1.3,0.6,2.4,1.8,2.5c1.2,0.2,2.3-0.6,2.5-1.8
				c0.3-1.4,0.5-2.8,0.8-4.2C32.6,12.5,32.9,11.4,33,10.4z M33.1,18.6c0,1.2,0.7,2,1.7,2.1s1.9-0.5,2.1-1.4c0.4-2.3,0.8-4.6,1.2-6.9
				c0.2-1.1-0.5-2-1.6-2.2c-1-0.2-2,0.5-2.2,1.6c-0.2,1.2-0.4,2.4-0.6,3.5C33.5,16.5,33.3,17.6,33.1,18.6z M19.9,14
				c0-0.2,0.1-0.3,0.1-0.4c0.3-1.7,0.6-3.3,0.9-5c0.1-0.3,0.1-0.7,0-1.1c-0.2-1-1.1-1.8-2.1-1.8c-1.1,0-1.9,0.7-2.2,1.7
				c-0.2,0.7-0.3,1.5-0.4,2.3c-0.2,1.4-0.5,2.6-0.7,4C17.1,13,18.5,13.2,19.9,14z"/>
		</g>
	</g>
</g>
</svg>
