<?xml version="1.0" encoding="utf-8"?>
<!-- Generator: Adobe Illustrator 26.3.1, SVG Export Plug-In . SVG Version: 6.00 Build 0)  -->
<svg version="1.1" baseProfile="tiny" xmlns="http://www.w3.org/2000/svg" xmlns:xlink="http://www.w3.org/1999/xlink" x="0px"
	 y="0px" width="1200px" height="700px" viewBox="0 0 1200 700" overflow="visible" xml:space="preserve">
<g id="Layer_2" display="none">
	<g display="inline">
		<path fill="#FFF3CD" d="M990.7,172.9c10.1-7.4,18.3-17,26.7-26.3c8.8-9.8,17.6-19.6,26.4-29.5c3.6-4.1,7.7-8.1,10.9-12.6
			c4.1-5.8,5.2-12.6,5.5-19.5c0.3-8.8-0.8-34.5-16-23.9c-8.5,6-13.8,17.6-16.5,27.3c-1.8,6.4-2.8,13-3,19.6
			c-0.3,7.7-0.6,18.9,4,25.7c5.7,8.4,17.7,0.8,23.3-3.8c8.3-6.9,14.4-16.7,20.8-25.3c8.7-11.6,17.4-23.2,26.1-34.8
			c4.5-6.1,9.1-12.2,13.6-18.2c4.7-6.3,9.7-12.4,13.2-19.5c2.7-5.6,1.7-14.9,1-20.8c-0.3-2-1.1-11.9-4.5-9.5
			c-3.5,2.4-5.9,6.6-8.4,10c-2.8,3.7-5.5,7.4-8.3,11.2c-5.1,6.9-10.3,13.8-15.4,20.7c-10.3,13.8-20.3,27.8-30.7,41.5
			c-4.1,5.4-8.6,11-14.3,14.8c-2.5,1.7-5.4,3.1-8.3,3.7c-1.9,0.4-3.3,0.2-5.2-0.1c-0.3-0.3-0.7-0.5-1-0.8c2.1,5.5,2.5,10.8,1.1,15.9
			c1.8-6.6,3.8-12.4,7.8-18c2.1-2.9,4.6-6.5,7.9-8.2c1.2-0.6,2.7-1.2,4.1-1.2c4.5-0.1,3.4,4.8,2.5-2.7c-0.2-4.2-0.4-8.4-0.7-12.6
			c0.4-8.8,1.6-7-0.7-3.6c-1,1.5-2.2,2.8-3.4,4.2c-2.6,3-5.3,5.9-7.9,8.9c-5.9,6.8-11.8,13.6-17.8,20.5
			c-12.2,14-24.6,27.7-34.6,43.3c-2.6,4-1.9,10.7-1.5,15.2C987.3,165.8,988,174.8,990.7,172.9L990.7,172.9z"/>
	</g>
	<g display="inline">
		<path fill="#FFF3CD" d="M1066,273.3c10.2,0.7,20.1,0.5,30.3-0.9c8.4-1.2,17.8-3.1,25.1-7.8c10.5-6.7,10.6-20.4,9.2-31.6
			c-0.6-4.6-1.1-10.9-5.8-13.1c-3.3-1.5-7.4-1.4-10.8-0.6c-6.8,1.6-12.5,6.3-15.6,12.5c-2.3,4.6-3,9.6-3.4,14.6
			c-0.5,7.6-0.7,17.3,2.8,24.3c4,8.2,16.2,6.5,23.5,4.5c9.3-2.5,17.7-7.8,25.7-12.9c9.1-5.9,18.1-12.1,26.8-18.6
			c9.1-6.8,19.2-13.6,26.5-22.3c3.3-3.8,2.3-13.2,2.1-17.7c-0.1-1.2-1.7-15.1-3.8-13.9c-8.1,4.7-15,11.8-22.4,17.5
			c-8.1,6.2-16.3,12.2-24.8,17.8c-8,5.4-16.2,10.8-25.2,14.5c-4.2,1.7-8.6,3.2-13.2,3.8c-2.3,0.3-4.5,0.4-6.8,0.2
			c-1.2-0.1-5.5-0.8-5.6-1.2c0.4,3.8,0.9,7.6,1.3,11.4c0.4,11.9-1.7,9.9,0.3,6.2c0.6-1.1,1.5-2.2,2.3-3.1c2-2.2,4.4-3.9,7.1-5
			c4.1-1.7,12.5-3.4,15.2,1.2c-0.5-1.3-1.1-2.7-1.6-4c0.1,0.4,0.2,0.8,0.3,1.3c-0.3-6.4-0.7-12.8-1-19.2c0.2-2.2,1.7-3.6-0.4-1.6
			c-0.9,0.8-1.6,1.8-2.5,2.6c-1.8,1.5-3.7,2.8-5.8,3.9c-4.6,2.3-9.6,3.8-14.5,5.3c-11.8,3.7-23.7,7.6-35.7,10.7
			C1061.9,253.1,1062.6,273.1,1066,273.3L1066,273.3z"/>
	</g>
	<g display="inline">
		<path fill="#FFF3CD" d="M1080.8,398.1c10.3,11.5,26,15.8,40.8,17.9c8.6,1.2,17.4,1.6,26.1,1.7c4.3,0.1,8.5,0.1,12.8-0.1
			c3.8-0.1,8.1,0.2,11.7-1.1c3.7-1.4,5.4-4,6.4-7.8c2.1-7.7,1.6-16.4,0.5-24.2c-1.1-7.6-4.6-15.7-13.6-15.2
			c-7.2,0.4-13.8,5.6-19.2,9.9c-8,6.4-9.5,15-9.6,24.9c-0.1,10.5,0.9,23.2,11.2,28.8c6,3.3,15.9,6.9,21.6,1.6c1.5-1.4,1.9-6.3,2-7.9
			c0.5-4.3,0.5-8.9,0.1-13.2c-0.2-1.6-1.7-15-4.9-11.9c-3.2,3.2-8.8,1.6-12.7,0.7c-2.3-0.5-4.8-1.1-7-2.2c-1-0.5-1.9-1.1-2.7-1.9
			c-3-2.7-1.3-4.4-0.8,3.7c0,4.2,0,8.4-0.1,12.5c-0.5,5.2-0.6,2.4,1.6,0.1c1-1.1,2.2-2,3.3-2.9c2.8-2.1,5.8-4.1,8.9-5.7
			c4.7-2.3,14.7-5,17.1,1.9c-0.7-3.4-1.3-6.9-2-10.3c0,0.4,0.1,0.8,0.1,1.2c0-4.5,0-8.9,0.1-13.4c1-7,0.8-4-3.3-3.4
			c-1.6,0.3-3.2,0.3-4.8,0.4c-4.6,0.2-9.2,0.3-13.8,0.3c-9,0-17.9-0.4-26.8-1.3c-15.1-1.5-29-4.7-42.1-12.7
			c-3.6-2.2-3.8,9.1-3.8,10.7c-0.1,3.9,0,7.9,0.6,11.7C1079,393.4,1079.3,396.4,1080.8,398.1L1080.8,398.1z"/>
	</g>
	<g display="inline">
		<path fill="#FFF3CD" d="M1033.7,521.1c16.3,13.6,33.6,26.6,53.8,33.9c8.6,3.1,19,4.2,24.3-4.9c2.9-5,3.4-11.3,3.6-17
			c0.3-7.8,0.3-18-4.1-24.9c-4.5-7.2-14.4-7.5-21.3-3.8c-8.4,4.5-12.6,13-14.5,22c-1.4,6.7-1.7,13.6-1.5,20.3
			c0.2,7.3,0.7,15.6,3.6,22.4c3.6,8.5,11.9,12,19.6,15.9c10.5,5.3,21.2,10.4,32.4,14c10,3.2,25.8,7.8,35.5,1.9
			c4.3-2.6,3.4-12.8,3.3-17.1c-0.1-3.4,0.4-15.5-4.1-16.9c-3.6-1.1-7.1-0.6-10.8-0.7c-4.2-0.1-8.3-0.4-12.5-1
			c-7.5-1.1-14.8-3.1-21.8-5.6c-7.2-2.5-14.2-5.6-21.2-8.8c-3.3-1.5-6.6-2.9-9.8-4.6c-3-1.6-4.7-3.6-7.1-5.7c-0.9-0.8-1-5.1-0.1,2.6
			c0.2,2.1-0.2,5.4,0.2,7.5c0.2,0.7,0.2-0.7,0.4-1.4c1-3,2.7-5.7,4.9-7.9c4.4-4.3,11.4-6,17.3-4.2c1.5,0.4,2.8,1.1,4,2
			c0.5,0.4,0.9,1.1,1.5,1.5c-0.4-0.3-0.3-23.9-0.9-23.2c-2.3,2.2-3.5,3.9-6.8,4.8c-7.4,2-15.6-0.9-22.5-3.5
			c-15.7-5.8-30.3-14.2-45.3-21.7c-1.8-0.9-2.4,10.4-2.4,10.7C1031.4,510.9,1030.9,518.8,1033.7,521.1L1033.7,521.1z"/>
	</g>
	<g display="inline">
		<path fill="#FFF3CD" d="M340.9,585.7c-1-2.5-2.8-5.4-5.1-2.4c-2.7,3.5-2.4,9.6-2.8,13.7c-1,9.9-1.3,19.9-1.2,29.8
			c0,4.7,0.3,9.4,0.5,14.1c0.3,5.3,0.2,11.9,2.9,16.6c3.4,5.9,11.2,0.9,13.9-3.4c2.3-3.5,3.1-8,3.5-12.1c0.8-7.6,0.5-15.7-1.2-23.1
			c-1.4-5.8-4.8-13-11.9-12.1c-6.8,0.9-12.3,7.9-14.9,13.7c-4.8,10.7-4.4,26.2-1.1,37.3c0,0,1.3,5.5,2.8,4.9
			c8.2-3.1,15.7-7.6,22.3-13.4c-1.6-3.9-3.3-7.9-4.9-11.8c0.2,2.5,0.4,5,0.5,7.4c-0.1-1.4-0.1-1.1,0,1c0.1-1.5,0.1-1.1,0,1
			c0.1-1.3-0.2,1.5-0.2,1.6c-0.3,1.7-0.8,3.3-1.3,4.8c-2.6,7-7.7,13-13.8,17.1c-1.4,1-1.8,6.3-1.9,7.5c-0.4,3.4-0.4,6.9-0.2,10.3
			c0.1,1.3,1.3,15,3.8,13.9c10.4-4.3,15.6-14.4,18.3-24.9c4.1-16,3.1-32.9,1.8-49.2c-0.1-1.3-1.4-14.9-4.9-11.8
			c-6.1,5.4-12.7,9.4-20.3,12.2c0.9,1.6,1.8,3.3,2.8,4.9c0.1,6,0.2,11.9,0.2,17.9c0.2-0.4,0.4-0.7,0.6-1.1c0.8-1.1,1.5-2.2,2.3-3.3
			c1.6-2,3.6-3.9,6-5c1.9-0.9,4.2-1.4,6.2-0.8c1.1,0.3,1.7,1,2.6,1.5c1.7,1,1,4.3,0.2-1.8c-0.2-4.4-0.5-8.7-0.7-13.1
			c0.1-8.2,2.2-7.7-0.4-4.8c-0.8,0.9-1.7,1.6-2.7,2.2c-1.7,1-4.7,2.3-5.8,0.3c0.8,2.6,1.6,5.1,2.4,7.7c0.5,3.3,0-2.8,0-3.7
			c-0.1-2.8-0.1-4.5,0-6.5c0.1-4.5-0.4-9.9,0.6-14.3c-0.5,1.3-0.9,2.6-1.4,4c0.7-1.3,1.3-2.9,2.5-3.7c2.1-1.5,1.7-8.8,1.7-10.7
			C342.5,594.3,342.5,589.5,340.9,585.7L340.9,585.7z"/>
	</g>
	<g display="inline">
		<path fill="#FFF3CD" d="M805.5,136.4c6.5-7.2,12.7-14.8,19.7-21.6c7.3-7,15.2-13.5,23.3-19.7c8.2-6.3,16.5-12.5,24.9-18.7
			c9.2-6.9,19-13.4,27.6-21.1c1.4-1.2,1.7-5.9,1.9-7.3c0.4-3.3,0.3-6.7,0.2-10.1c-0.1-1.1-1.7-14.8-3.7-13.6
			C890,30,881.6,37.1,873,43.5c-8.9,6.7-17.8,13.2-26.5,20.1c-16.3,13-33.4,27.5-43.3,46.2c-2.6,4.9-2.1,11.6-1.7,17
			C801.6,128.1,803.1,139,805.5,136.4L805.5,136.4z"/>
	</g>
	<g display="inline">
		<path fill="#FFF3CD" d="M632.9,129.4c8.3,2.9,14.3-2.7,17.6-10c5.2-11.5,5-28.3,0.7-39.9c-2.4-6.7-9.7-13.7-17.1-9.5
			c-3.6,2.1-5.3,5.8-6.2,9.7c-1.8,8.4-1.1,17.5,0.6,25.8c0.1,0.4,1.1,4.7,2.5,4.5c19.2-2.2,20.5-28.6,22.7-43
			c1.1-7.3,3.6-13.8,8.3-19.7c2.4-3,5.2-5.7,8.3-7.9c3.4-2.5,7.2-3.9,10-7.2c2.9-3.5,2.1-11.7,1.9-15.8c-0.2-2.8,0-11.2-3.4-12.3
			c-6.2-2.1-14.9,7.6-18.4,11.8c-5.2,6.1-8.5,13.4-10.4,21.1c-3.3,13.3-1.2,39.1-19.6,41.9c0.8,1.5,1.7,3,2.5,4.5
			c-0.1-0.4-0.2-0.8-0.3-1.3c0.4,3.6,0.8,7.3,1.3,10.9c0-0.4,0-0.9,0-1.3c-0.2,3.7-0.5,7.3-0.7,11c0.4-2.2,5.4-3.8,8.2-3.4
			c1.9,0.3,3.5,1.2,4.9,2.5c3.2,2.9,2.3,6.9,1.9-4c-0.4-11.5,0.3-6.9-1.7-3.3c-0.9,1.8-2.2,3.3-3.6,4.7c-2.9,3.2-6.3,5.8-10.5,7.1
			C628.3,107.6,629,128.1,632.9,129.4L632.9,129.4z"/>
	</g>
	<g display="inline">
		<path fill="#FFF3CD" d="M458.5,125.4c3.8,0,7.6-3,10.6-5.1c3.6-2.4,6.7-5.4,9.5-8.7c3.7-4.4,5.1-8.5,5.6-14.2
			c0.7-7.3,1.2-17.4-2.9-23.9c-3.7-6-13-9.4-19.6-10.7c-8-1.6-16.1-0.7-23.6,2.4c-3,1.3-2.9,9.1-3,11.5c-0.1,5.5-0.4,12.4,2,17.5
			c1.9,4.1,5.7,6.7,10.3,4.8c6.6-2.8,7-12.1,7.2-18.1c0.2-8.7-0.1-19.1-5.3-26.5c-3.2-4.5-8.8-7.2-14.1-8.4
			c-12.6-2.9-27.2-1-39.8,0.8c-11.2,1.6-21,5.3-24.8,16.8c-2.1,6.4-1.7,14.2-0.7,20.8c0.4,2.5,2,10.9,4.7,5.3
			c2.7-5.6,11.6-8.2,17.1-9.5c9.3-2.2,19.1-3,28.6-3.5c7.5-0.4,16.2-0.7,23,3.1c1.8,1,3.1,2.4,4.5,3.9c5.9,6.1,4-19.1,0.7-17.1
			c-0.5,0.3-0.9,0.9-1.4,1.2c-1.5,0.9-6.2,1.7-7.2-0.4c-0.3,9.6-0.7,19.3-1,28.9c7-2.9,14.6-3.9,22.1-2.6c3.5,0.6,6.9,1.6,10,3.1
			c2.5,1.2,7.8,3.5,8.7,6.4c-0.6-7.1-1.2-14.2-1.7-21.2c0.2-2.3,0.7-2.7-0.9-1.2c-1,0.9-1.8,2.2-2.6,3.2c-1.6,1.9-3.4,3.6-5.3,5.3
			c-3.8,3.6-8.6,6.2-12.2,9.9C454.5,101.7,453.9,125.4,458.5,125.4L458.5,125.4z"/>
	</g>
	<g display="inline">
		<path fill="#FFF3CD" d="M345.9,153.4c4.1-12.8,4.6-27.2,1.7-40.3c-1.3-5.8-3.6-11.6-8.2-15.6c-4.5-3.9-10.3-5.1-16.1-5.8
			c-14.7-1.7-29.5-3.3-44.2-4.6c-5.8-0.5-13.6-2.6-16.3,4.2c-2.3,5.8-2,13.1-1.5,19.1c0.4,4.7,0.9,9,3.3,13.1
			c0.3,0.2,0.6,0.4,0.9,0.5c10.2-2.1,19.9-6.7,23.9-16.9c3-7.5,2.9-16.4,2.4-24.3c-0.5-6.6-1.6-13.6-5.5-19.1
			c-5.6-7.8-15.8-12.2-22.8-18.8c-3.8-3.6-7.6-7.8-9.9-12.6c-1.2-2.6-1.9-8.2-1.4-0.2c0.4,2.3,0.4,4.7,0.1,7c0-0.2,0.1-0.4,0.1-0.6
			c0.8-0.8,1.2-3.2,1.8-4.3c3-5.2,2.3-12.9,1.8-18.6c-0.1-1.2-2-13.4-4.3-10.4c-8.3,10.6-7.3,28-5.4,40.4
			c1.8,11.5,6.2,21.4,14.7,29.5c7.1,6.7,16.8,10.8,23.1,18.2c0.7,0.8,1.2,1.9,1.8,2.7c2.2,5.7,2,0.2-0.6-16.5
			c-0.2,0.5-0.4,0.9-0.6,1.4c-1.5,2.1-2.8,4.1-4.8,5.7c-2,1.7-4.4,3-6.8,3.9c-1,0.4-7.7,2.8-8.4,1.5c0.9,3.7,1.8,7.3,2.7,11
			c0-0.4-0.1-0.8-0.1-1.2c-0.4,6-0.8,11.9-1.1,17.9c1-3.2,10-1.1,12.3-0.8c4.5,0.5,9.1,0.8,13.6,1.2c9.4,0.8,18.8,1.6,28.2,2.4
			c6.8,0.6,15.4,1,20.4,6.4c0.8,0.8,3.1,4.2,2.9,4.5c-0.7,1,0.3-6.1-0.4-1c-0.2,1.8-0.6,3.5-0.9,5.3c-0.9,4.2-0.7,9.1,0.2,13.3
			C343.3,152.1,344.7,157.1,345.9,153.4L345.9,153.4z"/>
	</g>
	<g display="inline">
		<path fill="#FFF3CD" d="M233.2,161.7c-7.5-18.3-22.2-30.8-40.3-38.2c-9.5-3.9-19.5-6.4-29.5-8.7c-10.4-2.3-21.7-4.9-32.4-3.5
			c-3.9,0.5-8.2,1.7-10.8,4.9c-4.8,5.9-3.8,16.9-3.3,23.8c0.5,7,2.8,21.2,13.3,19.3c10.7-1.9,10.5-19.6,10.3-27.2
			c-0.3-11.7-2.3-23.3-12.2-30.5c-8.7-6.3-19.2-10.8-29-14.8c-5.6-2.3-11.2-4.4-17-6.2c-5.6-1.8-11.6-4-17.4-4.2
			c-5-0.2-5.5,33.6,0.9,35.8c8.4,2.9,17.4,3.9,25.9,6.4c8.5,2.6,16.8,5.7,24.8,9.5c3.6,1.7,7.3,3.4,10.6,5.6
			c2.9,1.9,5.2,4.8,7.2,6.9c1.8-18,1.7-23.8-0.3-17.6c-0.2,0.3-0.4,0.7-0.7,1c-1.3,1.2-2.1,2.2-4,2.4c-1.5,0.2-3.2-0.1-4.5-0.8
			c-4.4-2.3-1.9-6.7-1.2,5.3c-0.2,5.4-0.4,10.8-0.5,16.2c-0.3,1.9,0.2,0.5,1.4-0.2c0.8-0.5,1.7-0.8,2.6-1.1c2.4-0.8,5-1.1,7.6-1.3
			c5.7-0.4,11.4,0.3,16.9,1.2c10.9,1.8,22,3.5,32.8,6.2c17.4,4.4,37.7,13,46.8,29.7c2.2,4.1,3.2-2.5,3.3-4.2
			C235,172.6,235.1,166.4,233.2,161.7L233.2,161.7z"/>
	</g>
	<g display="inline">
		<path fill="#FFF3CD" d="M152.1,208.1c-11.1-10.3-25-19.3-40.7-19.4c-13.7-0.1-34,4.2-37.1,19.8c-1.5,7.5-1.2,16.5,0.6,24
			c0.8,3.4,1.9,7,5.4,8.6c6.9,3.1,11.3-3.7,12.6-9.6c2.2-10.4,2.5-26-3.9-35.2c-4-5.7-11.6-8.5-18.1-10
			c-15.7-3.5-35.1,0.9-46.2,13.2c-1.4,1.6-1.7,5.7-1.9,7.5c-0.4,4.1-0.4,8.4-0.1,12.6c0.2,1.9,1.3,13.9,4.7,11.3
			c11.6-8.9,24.1-14.5,39.1-13.2c6.5,0.6,14.7,2.2,19.5,7c1,0.9,1.4,1.9,2.2,2.9c3.8-19.1,3.4-25.4-1.2-19c-0.5,0.6-1.1,0.9-1.8,1.1
			c-1,0.4-2.2,0.4-3.2,0.3c-1.2-0.1-3.1-1.8-2.7-0.3c0.4,5.2,0.9,10.3,1.3,15.5c-0.1,9-1.4,6.1,2.5,3.4c1.3-0.9,2.7-1.6,4.2-2.2
			c3-1.3,6.1-2.4,9.2-3.3c6.2-1.6,12.3-2.1,18.7-2.2c12.1-0.3,25.8,1.1,36.2,7.9c2.5,1.6,2.7-6.5,2.7-7.6
			C154.1,218.2,154.7,210.6,152.1,208.1L152.1,208.1z"/>
	</g>
	<g display="inline">
		<path fill="#FFF3CD" d="M136.1,328.4c-16.1-16.1-41.1-20.8-62.3-12.8c-10.1,3.8-18.3,11.1-22.7,20.9c-6,13.2-6.5,31.5-1.6,45
			c1.1,3.2,2.6,1,3.3-1.1c1.3-4.5,1.1-9.7,0.7-14.3c0,0.1,0.2,4.6-0.1,5c0.9-1.1,1.3-3.6,2-5c1.8-3.5,4.4-6.8,7.3-9.4
			c6.5-6,15.2-9.5,23.7-11.2c15.8-3.3,34.8-2,48.9,6.3c2.8,1.7,3-7.1,3-8.5C138.5,339.5,139.1,331.4,136.1,328.4L136.1,328.4z"/>
	</g>
	<g display="inline">
		<path fill="#FFF3CD" d="M138.4,422c-14.8-0.3-27.8,4.6-37.8,15.7c-11.4,12.8-15.7,28.9-16.7,45.7c-0.1,1.8,0.8,22.9,4.8,19.6
			c7-5.6,7.5-16.3,7.5-24.5c0-9.6-0.6-21-6.8-28.9c-8.4-10.8-28.2-15.6-38.4-5c-5.1,5.3-7.4,13.1-8.7,20.2
			c-2.2,11.3-2.3,23.2-1.3,34.6c1.7,18.8,7.4,36.3,16.5,52.8c4.8,8.6,10.2,16.8,15.9,24.9c4.4,6.3,9,15.2,17.1,16.9
			c3.1,0.7,5.8-30.4-0.8-32.9c-6.4-2.4-9.9-8.6-13.6-13.9c-4.3-6.1-8.5-12.2-12.5-18.5c-3.9-6.3-7.5-12.8-10.4-19.6
			c-2.3-5.4-4.8-13.3-5.5-17.8c-0.5-3.6-0.2-1.1-0.2-0.1c-0.1-2-0.1-1.2,0.2-3.1c0.4-2.2,1-4.3,2-6.3c2.8-6,7.9-9.8,14.5-10.4
			c6.6-0.6,14.4,1.4,19.8,5.4c2.2,1.7,3.9,3.7,5.5,6c4.6,6.5,3.7-19.5-0.3-14.5c-1.1,1.4-2,2.6-3.4,3.8c1.6,6.5,3.2,13.1,4.8,19.6
			c-0.1,2.3,0.1-0.6,0.1-0.6c0.2-1.2,0.5-2.4,0.9-3.6c0.8-2.6,1.8-5.1,2.9-7.5c2.8-5.7,6.7-10.9,11.2-15.4
			c9-9.2,20.3-17.2,32.9-20.4C142.8,443.2,141.9,422.1,138.4,422L138.4,422z"/>
	</g>
	<g display="inline">
		<path fill="#FFF3CD" d="M193.2,557.6c-10.4,8.7-18.5,19.9-25.4,31.5c-3.3,5.6-7.2,11.5-8.6,17.8c-1.4,6.1-1.5,12.5-0.9,18.8
			c0.4,4.6,0.9,10,3.9,13.8c0.3,0.2,0.6,0.4,1,0.6c7-1.7,14.7-4.6,17.6-11.8c3.9-9.7,3.2-23,0.5-32.9c-1.6-5.7-6.1-11.6-12.6-7.9
			c-6.1,3.5-8.5,11.2-10.8,17.4c-3.2,8.5-6.2,17-8.6,25.7c-2,7.4-3,15.6-7.7,21.9c-4,5.5-9.8,8.6-16.1,10.7c-3.2,1-6.5,1.8-9.8,2.4
			c-4.2,0.7-7.7,0.6-10.8,3.8c-2.7,2.7-2.1,11.2-2.1,14.5c0.1,2.5,0.2,5.1,0.6,7.6c0.2,1.1,0.8,5.9,2.1,6.9c4.8,3.2,11.3,0.6,16.6-1
			c4.9-1.4,9.7-3.4,13.9-6.3c11.3-7.6,14.1-19.9,17.2-32.4c1.8-6.9,4-13.7,6.4-20.4c2-5.6,3.5-12.2,7.3-17c1.5-1.8,3.2-3.3,5.6-3.4
			c1.1-0.1,2.4,0.1,3.4,0.8c0.4,0.3,0.8,0.7,1.1,1.1c4.5,5.8,4.4-0.9-0.3-20.2c-2,2-3,3.8-5.8,5.2c-0.8,0.4-8.3,2.8-8.1,3.2
			c0.6,3.2,1.2,6.4,1.9,9.6c0-0.4-0.1-0.8-0.1-1.1c0,4.1,0,8.3,0,12.4c-0.1,1.5-0.9,2.5,0.2,1c0.7-0.9,1.1-2.2,1.6-3.2
			c1.1-2.1,2.2-4.2,3.4-6.3c2.5-4.5,5.1-8.9,7.8-13.3c5.5-8.9,11.5-17.5,17.4-26.1c2.6-3.8,1.8-10.6,1.5-14.9
			C196.5,564.6,195.6,555.5,193.2,557.6L193.2,557.6z"/>
	</g>
</g>
<g id="Layer_1" display="none">
	<g display="inline">
		<path fill="#F8E088" d="M994.1,157c3.5-2.6,6.6-5.6,9.9-8.5c3.2-2.9,6.4-5.9,9.6-8.9c6.5-6,13-12,19.4-18
			c5.2-4.8,11.9-9.8,13.8-17c1.4-5.3,0.3-13.6-5.6-15.8c-2.5-0.9-5.1-0.1-6.9,1.8c-2,2.1-2.6,5.1-2.6,7.9c0,3,0.6,6,2.8,8.3
			c2.1,2.2,5,3.4,8,3.7c7.3,0.8,13.7-3.8,19.3-7.9c6.1-4.6,11.8-9.5,17.3-14.8c5.4-5.2,10.6-10.7,15.4-16.5
			c4.8-5.8,9.5-11.9,13.5-18.4c1.1-1.8,2.1-3.6,3-5.4c0.3-0.6,0.3-1.5,0.2-2.2c0-0.1-0.2-1.6-0.5-1.2c-4,5.5-7.7,11.3-11.8,16.7
			c-4.2,5.5-8.7,10.9-13.5,15.9c-4.8,5.1-9.8,9.9-15.1,14.4c-2.6,2.2-5.2,4.4-7.9,6.4c-2.8,2.1-5.6,4.3-8.7,5.9
			c-5.3,2.8-12.2,4.1-17.4,0.4c-1.4-1-3.6-3.1-3.4-5c0.2-2.2,2.1-4.6,4.2-5.4c2.4-0.9,4.9-0.2,6.7,1.5c0.9,0.9,1.6,2,2.1,3.2
			c0.2,0.5,0.4,1.1,0.5,1.7c0,0.2,0,0.7,0,0.2c0,0.3-0.1,0.7-0.2,1c-0.7,3.1-2.7,5.8-4.9,8.2c-2.4,2.6-5,5-7.6,7.4
			c-6.7,6.3-13.3,12.7-19.9,19.1c-6.7,6.5-13.8,12.7-19.9,19.8C993.7,155.7,993.9,157.1,994.1,157L994.1,157z"/>
	</g>
	<g display="inline">
		<path fill="#F8E088" d="M1068,257.6c10.1,1.6,20.3,1.4,30.4-0.7c4.2-0.9,8.7-2.1,11.8-5.3c3-3.1,3.7-7.5,2.8-11.6
			c0-0.1-0.1-0.6-0.3-0.6c-2.7,0.1-5.8,0.7-7.8,2.5c-2.1,1.9-2.2,5.8-1.1,8.2c1.2,2.6,4.5,3.5,7.1,3.8c3.5,0.3,7.2,0.1,10.7-0.1
			c14.4-1.2,28.5-6.4,40.4-14.7c6.8-4.7,12.9-10.3,17.8-17c0.4-0.6,0.3-1.8,0.2-2.5c0-0.2-0.2-1.8-0.6-1.4
			c-8.6,10.3-19,18.7-31.3,24.2c-6,2.7-12.3,4.7-18.7,6c-3.3,0.6-6.5,1.1-9.9,1.3c-3.1,0.2-6.4,0.5-9.6,0c-1.5-0.2-3.2-0.6-4.5-1.5
			c-0.6-0.4-0.9-1-1.3-1.5c-0.2-0.2-0.1-0.7-0.1,0.2c0,0.9,0,0.3,0.1,0.1c0.2-0.3,0.3-0.5,0.5-0.8c1.9-2.3,5.4-2.9,8.2-3
			c-0.1-0.2-0.2-0.4-0.3-0.6c0.3,1.5-1.2,3.6-2.1,4.7c-1.3,1.5-3,2.7-4.8,3.6c-3.6,1.7-7.7,2.6-11.5,3.5c-8.5,1.8-17.4,2.5-26.1,2
			C1067.8,256.4,1067.8,257.5,1068,257.6L1068,257.6z"/>
	</g>
	<g display="inline">
		<path fill="#F8E088" d="M1079.1,387.1c6.9,2.9,14.1,5.2,21.2,7.6c7.1,2.4,14.1,4.9,21.2,7.2c6.9,2.3,13.8,4.7,20.7,7
			c6.2,2.1,12.8,4.5,19.4,3.2c5.2-1.1,9.8-4.5,10.9-9.9c1-4.6,0.3-11-4.3-13.6c-5.3-2.9-12.4,0-17.2,2.7c-2.5,1.4-5,3.2-6.8,5.4
			c-1.9,2.2-2.1,6-0.8,8.6c0.8,1.4,2,2.6,3.1,3.7c1.3,1.2,2.6,2.4,3.9,3.6c2.6,2.2,5.5,4.2,8.5,5.9c3,1.7,6.3,3.4,9.6,4.4
			c1.7,0.5,3.4,0.9,5.2,0.8c1.9,0,3.3-0.6,4.8-1.7c0.4-0.3,0.2-3-0.2-2.9c-2.6,0.6-5.4,0.8-8,0.2c-2.8-0.6-5.4-1.7-7.9-3
			c-5.2-2.6-10.1-5.9-14.3-9.9c-1-0.9-1.9-1.9-2.8-2.9c-0.4-0.5-0.9-1-1.2-1.5c0.1,0.2-0.5-0.8-0.4-0.8c-0.1,1.2,0,1.3,0.3,0.5
			c0.1-0.2,0.2-0.3,0.3-0.5c1.6-2.2,4.1-4,6.4-5.4c4.3-2.6,10.2-5,15.4-3.8c2.4,0.6,4.4,2,5.4,4.3c0.8,1.7,0.4,3.3-0.5,4.9
			c-2.5,4.5-7.9,6.5-12.7,6.6c-6.2,0.2-12.2-2.1-18-4c-6.3-2.1-12.6-4.1-18.8-6.2c-7.1-2.3-14.1-4.6-21.2-6.8
			c-7-2.3-14-4.7-21.2-6.5C1078.8,384.6,1078.6,386.9,1079.1,387.1L1079.1,387.1z"/>
	</g>
	<g display="inline">
		<path fill="#F8E088" d="M1037.7,516.8c-1.3-2.4-3-4.6-4.4-7c0,0.3,0,0.6,0,1c9.8,12,22.9,21.5,37.2,27.6
			c6.6,2.8,15.2,6.6,21.8,1.9c5-3.5,7.2-11.1,4-16.6c-2.8-4.7-9.9-6.7-13.8-2.1c-2.1,2.5-2.6,6-2.8,9.1c-0.1,3.5,0.3,7,1,10.4
			c3,13.7,12.8,25.3,24.5,32.7c6.7,4.2,14.1,7.3,21.7,9.6c7.8,2.4,15.9,4.2,23.9,5.4c2,0.3,4.1,0.6,6.1,0.9c0.5,0.1,0.8-4.1-0.1-4.3
			c-14.6-3-29.6-5.3-43.3-11.6c-11.8-5.4-22.7-14-28.7-25.7c-2.7-5.2-4.9-11.6-4.2-17.6c0.3-3,1.8-6.2,4.6-7.5c2.2-1,4.9-0.7,7,0.4
			c2,1.1,4.6,3.4,4.7,5.9c0.1,2.7-2.4,5.6-4.5,7.1c-6.2,4.5-13.9,1.7-20.3-0.8c-13.1-5.1-24.8-12.8-35.2-22.2
			c-1.2-1.1-2.4-2.3-3.6-3.4c-0.1-0.1-0.2,0.8,0,1c1.5,2.1,2.8,4.4,4.4,6.4C1037.7,517.2,1037.8,516.9,1037.7,516.8L1037.7,516.8z"
			/>
	</g>
	<g display="inline">
		<path fill="#F8E088" d="M840,654c2.9,2.1,6.3,4,9.8,4.7c3.5,0.7,7.2,0.8,10.7,0.2c7.1-1.1,13.6-5.1,17.9-10.9
			c4.5-6,7.1-13.3,8.7-20.6c1.8-7.9,2.3-16.3,1.4-24.3c-1-8.6-3.6-17.1-9.5-23.6c-0.8-0.9-1.1,2.5-1.1,2.7c-0.1,1.9-0.1,3.9,0.5,5.7
			c0.6,1.6,1.1,3.4,1.3,4.9c0.1,0.4,0.1,0.9,0.2,1.3c0.1,0.5,0.1,0.6,0,0.2c0,0.2,0,0.4,0.1,0.7c0,0.2,0,0.4,0.1,0.7
			c0-0.5,0-0.5,0,0.1c0,0.2,0,1.5,0,0.5c0,1.7-0.1,2.7-0.4,4.6c-0.3,1.8-0.8,3.5-1.4,5.3c0.6,1.8,1.1,3.6,1.7,5.3
			c0.1-11.3,0.2-22.7,0.3-34c-0.4,1.1-0.8,2.2-1.2,3.3c6.1,3.8,12.3,7.7,18.4,11.5c2.8,1.7,5.5,3.7,8.5,4.9c1.3,0.5,2.7,1,4.1,1
			c1.7,0.1,2.9-0.5,4.1-1.5c1.2-0.9,0.3-8.9-0.5-8.6c-6.1,2.1-11.7-2.4-16.6-5.4c-5.9-3.7-11.9-7.4-17.8-11.2
			c-1.1-0.7-1.2,3-1.2,3.3c-0.1,11.3-0.2,22.6-0.3,34c0,1.6,0,3.4,0.5,5c0.2,0.7,0.7,1.5,1.2,0.3c3.8-10.9,3.6-23.6-0.3-34.4
			c-0.2,2.8-0.4,5.6-0.6,8.4c2.2,2.4,4,5,5.4,8c0.6,1.3,1.1,2.7,1.6,4.2c0.2,0.8,0.4,1.6,0.6,2.3c0.1,0.4,0.2,0.7,0.2,1.1
			c-0.1-0.3,0.1,0.6,0.1,0.8c0.1,0.4,0.1,0.9,0.2,1.3c0.1,0.7,0-0.3,0.1,0.5c0,0.4,0.1,0.8,0.1,1.1c0,0.2,0,0.4,0,0.6
			c0,0.5,0-0.7,0,0.2c0,0.8,0,1.5,0,2.3c0-0.8,0,0.3,0,0.6c0,0.5,0,0.9-0.1,1.4c0,0.2-0.1,1.1,0,0.5c0,0.5-0.1,0.9-0.1,1.4
			c-0.1,0.8-0.2,1.7-0.3,2.5c-0.2,1.3-0.5,3.1-0.8,4.6c-2.9,13.3-10.2,26.5-24,30.6c-3.6,1.1-7.3,1.5-11,1.2
			c-3.6-0.3-7.3-0.8-10.6-2.3C839.9,651.1,839.5,653.6,840,654L840,654z"/>
	</g>
	<g display="inline">
		<path fill="#F8E088" d="M804.7,120.4c0.7-3.1,2.8-5.8,4.8-8.2c2.1-2.5,4.2-4.9,6.4-7.3c4.3-4.7,8.9-9.3,13.6-13.6
			c9.5-8.8,19.8-16.7,30.7-23.7c6.1-4,12.5-7.6,18.9-11c0.9-0.5,0-3.8-0.1-3.8c-23.7,12-45,28.9-62.8,48.6c-2.5,2.8-4.9,5.5-7.2,8.5
			c-2.3,2.9-4.1,6-4.6,9.7C804.4,119.8,804.5,121,804.7,120.4L804.7,120.4z"/>
	</g>
	<g display="inline">
		<path fill="#F8E088" d="M639.3,120.5c5.9-5.8,9.2-13.5,10.9-21.6c0.9-4.2,1.3-8.6,1.1-12.9c-0.1-1.7-0.3-3.7-1.6-4.9
			c-1.1-0.9-2.6-1.3-3.9-1.1c-4.3,0.5-6.1,5.1-7.3,8.6c-0.2,0.6-0.5,2.9,0.2,3.3c5.1,3.4,10.2-1.3,12.7-5.5c2.7-4.6,4.5-9.7,6-14.8
			c2.9-10.3,4.3-21,7.6-31.2c1.9-5.7,4.5-11.2,8.1-16c0.4-0.5,0.3-1.5,0.2-2c0-0.1-0.2-1.5-0.5-1.1c-6.5,8.1-9.2,18.4-11.5,28.3
			c-2.3,10.3-4,21-8.7,30.7c-1.3,2.7-2.8,5.4-5.1,7.3c-2.4,1.9-5.9,2.7-8.6,0.9c0.1,1.1,0.1,2.2,0.2,3.3c1-2.9,2.3-6.4,5.3-7.7
			c2.4-1,6.2-0.4,6.3,2.8c0.2,7.1-1.8,14.5-4.8,20.9c-1.9,3.9-4.1,7.8-6.6,11.3C639,119.4,639.2,120.6,639.3,120.5L639.3,120.5z"/>
	</g>
	<g display="inline">
		<path fill="#F8E088" d="M461.6,110.7c4.1-1.7,8-4,11-7.2c2.9-3.2,4.7-7.3,4.9-11.6c0.3-4.3-0.7-8.5-3.5-11.9
			c-2.6-3.1-6.3-5.1-10.2-6.2c-5.9-1.6-12.1-0.9-18-0.3c-0.7,0.1-0.3,3.3,0,3.7c3.4,4.5,11.9,8.3,15.8,2.1c1.8-2.9,1.7-6.8,1-9.9
			c-0.8-3.4-3-6.1-5.9-8.1c-3.3-2.2-7.1-3.6-10.8-4.9c-4.1-1.4-8.3-2.5-12.6-3.3c-8.6-1.6-17.4-1.9-26.1-0.8
			c-10,1.2-19.9,3.7-30.1,2.2c-0.4-0.1-0.5,2.9,0.1,3.1c7.9,2.8,16.3,1,24.3-0.3c8-1.3,15.9-1.8,24-1.1c7.9,0.7,15.8,2.4,23.2,5.2
			c3.3,1.2,6.7,2.6,9.5,5c2,1.7,4.5,4.7,3.8,7.5c-0.9,3.3-4.1,5.1-7.3,4.8c-3.5-0.3-6.6-2.4-8.7-5.1c0,1.2,0,2.5,0,3.7
			c8.3-0.9,17.7-1.9,24.9,3.2c2.9,2.1,5.5,5.1,6,8.8c0.6,4-1.7,8.3-4.1,11.3c-3,3.7-6.9,6.3-11.1,8.4
			C461.2,109.2,461.5,110.7,461.6,110.7L461.6,110.7z"/>
	</g>
	<g display="inline">
		<path fill="#F8E088" d="M334.9,135.8c7.8-7.8,5.6-21.5,0-29.9C327.6,94.7,313.6,91,301.2,89c-3.5-0.6-7-1.3-10.5-1.4
			c-3.2-0.1-6.6,0.8-7.9,4c-0.8,2.1-0.9,5.6,0.8,7.4c1.4,1.5,3.8,1.6,5.7,1c6.1-1.9,5-10.6,3.3-15.2c-2.4-6.5-6.9-12.2-11.4-17.4
			c-9.6-11.3-23.5-24.7-19.7-41.1c0.1-0.5,0.1-1.2,0-1.8c0-0.2-0.2-0.8-0.4-0.3c-1.9,5.7-1.3,12.2,0.4,17.9c1.8,6,5.1,11.5,8.9,16.4
			c3.9,5,8.3,9.6,12.4,14.5c2.1,2.5,4,5,5.8,7.7c1.7,2.6,3.3,5.4,4.2,8.5c0.7,2.6,0.1,5.6-2.5,6.9c-1.6,0.8-3.8,0.9-5.4,0.1
			c-0.4-0.2-0.8-0.5-1.1-0.8c-0.1-0.1-0.2-0.3-0.3-0.5c0-0.1-0.1-0.2-0.1-0.2c-0.2-0.5-0.2-0.3,0,0.5c-0.2-0.1,0.9-1.5,1-1.7
			c0.6-0.7,1.3-1.2,2.1-1.5c3-1.3,6.6-0.5,9.7,0c11.9,1.7,24.9,3.8,34.2,12c4.2,3.7,7.3,8.9,8.6,14.4c1.3,5.6-0.2,11.5-4,15.9
			C334.5,134.5,334.9,135.9,334.9,135.8L334.9,135.8z"/>
	</g>
	<g display="inline">
		<path fill="#F8E088" d="M225.3,167.8c-9.9-11-21.9-20-34.5-27.5c-12.4-7.4-25.6-13.2-39.4-17.3c-3.5-1-7-2-10.6-2.8
			c-2.7-0.6-6-1-8.4,0.7c-2.2,1.6-2.5,4.6-1.9,7c0.6,2.3,2.5,4.2,4.8,4.9c2.6,0.7,5-0.6,6.5-2.7c1.6-2.2,2-5,1.9-7.7
			c-0.3-6.9-5.4-11.4-10.6-15.3c-12.5-9.1-26.2-16.6-40.8-22c-1.8-0.7-3.5-1.2-5.4-1.5c-0.3-0.1-0.4,2.5,0.1,2.7
			c3.2,1.6,6.7,2.7,10,4c3.3,1.3,6.6,2.7,9.8,4.2c6.4,3,12.6,6.4,18.5,10.2c3,1.9,5.9,3.9,8.7,6c2.5,1.9,5,3.9,6.9,6.5
			c1.7,2.4,2.8,5.1,1.8,8c-0.8,2.3-2.6,4.4-5.1,4.8c-2.4,0.4-4.8-1.1-6.1-3.1c-0.2-0.3-0.3-0.5-0.4-0.8c-0.2-0.4,0-0.7-0.2-0.2
			c0.2-0.5,0.4-0.9,0.8-1.3c1-1.1,2.5-1.6,3.9-1.7c2.9-0.3,5.8,0.6,8.6,1.4c3.2,0.8,6.3,1.7,9.4,2.7c12.5,4,24.6,9.4,36,15.9
			c12.8,7.4,24.3,16.5,35.6,26C225.3,169.1,225.5,168,225.3,167.8L225.3,167.8z"/>
	</g>
	<g display="inline">
		<path fill="#F8E088" d="M154.3,228c2.5-3.8,1.2-9.1-1.6-12.4c-4.1-4.8-10.9-6.5-16.7-8.2c-6.9-2-14-3.5-21.1-4.5
			c-3.5-0.5-7-0.9-10.5-1.1c-3.5-0.3-7.1-0.5-10.7-0.3c-3.3,0.2-6.7,0.9-9.3,3.2c-2.5,2.1-3.5,5.1-3.3,8.3c0,0.4,0,1.6,0.4,1.8
			c2.3,0.8,6.1,1,6.6-2.1c0.3-1.7,0-3.6-1.2-4.8c-1.4-1.3-3.2-2.3-4.8-3.2c-7.3-4.1-15.8-6.1-24.3-5.9c-4.9,0.2-9.6,1.1-14.1,3
			c-0.6,0.2-0.1,2.8,0.1,2.7c13.9-4.4,29.9-3.1,42,5.6c0.4,0.3,0.8,0.6,1.1,0.9c0.1,0.1,0.2,0.3,0.3,0.4c0.3,0.1,0.2-0.4,0.2-0.4
			c-0.2,0.1-0.5,0.5-0.7,0.6c-0.3,0.1-0.5,0.2-0.8,0.3c-1.5,0.3-3.1,0-4.4-0.6c0.1,0.6,0.3,1.2,0.4,1.8c-0.1-2.3,2.2-4.6,4-5.7
			c2.4-1.5,5.2-2,8-2.2c5.9-0.4,11.9-0.1,17.8,0.4c6.2,0.5,12.3,1.4,18.4,2.6c5.5,1.1,11.2,2.2,16.4,4.4c2.7,1.1,5.3,2.7,7.1,5.1
			c2.1,2.9,2.8,6.9,0.8,10.1C154.2,227.7,154.3,228,154.3,228L154.3,228z"/>
	</g>
	<g display="inline">
		<path fill="#F8E088" d="M132.2,334.7c-2.6-2.5-6-4.4-9.2-6.1c-3.1-1.7-6.3-3.3-9.5-4.7c-6.5-2.8-13.5-4.7-20.5-5.5
			c-12.4-1.5-25.2,0.8-35.8,7.7c-5.7,3.7-10.4,8.5-13.6,14.5c-0.3,0.6-0.3,1.4-0.2,2c0,0.1,0.3,1.4,0.5,1.1
			c6.3-10.3,16.8-16.9,28.4-19.9c12.9-3.3,26.3-1.4,38.6,3.2c3.7,1.4,7.3,2.9,10.8,4.6c1.8,0.9,3.6,1.8,5.4,2.7
			c1.7,0.9,3.4,2,5.2,2.6C132.5,336.9,132.5,334.9,132.2,334.7L132.2,334.7z"/>
	</g>
	<g display="inline">
		<path fill="#F8E088" d="M138.7,433.4c-11.2-0.1-22,2.7-31.7,8.3c-9.6,5.5-17.9,13.3-23.9,22.6c-3.5,5.3-6.2,11-8,17.1
			c-0.2,0.7-0.2,1.5-0.1,2.2c0,0.1,0.2,1.6,0.4,1.4c9.4-5.5,16.7-15.7,17.7-26.6c0.2-2.6,0.1-5.8-2.3-7.3c-2.1-1.3-5-1.3-7.3-0.7
			c-5.3,1.4-9.4,5.9-12.5,10.2c-13.5,19-20.2,43-20.2,66.2c0,6.6,0.5,13.2,1.5,19.7c1,6.3,2.4,12.6,4.8,18.5
			c0.2,0.4,0.3-0.2,0.3-0.3c0.1-0.4,0.1-1-0.1-1.4c-3.1-10.4-5.4-20.9-5.8-31.8c-0.4-10.7,0.8-21.4,3.4-31.8
			c2.6-10.5,6.7-20.6,12.2-29.8c2.7-4.5,5.6-9.1,9.5-12.6c3.5-3.1,8.7-5.6,13.4-3.6c1.7,0.7,2.6,2,2.3,3.9c-0.2,1.4-0.6,2.8-1,4.1
			c-0.9,2.7-2.1,5.3-3.6,7.7c-3.1,4.9-7.3,8.9-12.4,11.7c0.1,1.2,0.2,2.4,0.3,3.6c6.7-21.5,24.1-38.1,44.9-45.9
			c5.9-2.2,12-3.8,18.3-4.4C138.9,434.3,138.8,433.4,138.7,433.4L138.7,433.4z"/>
	</g>
	<g display="inline">
		<path fill="#F8E088" d="M197,576.8c-1.1-2.5-1-5.4,0.4-7.7c0-0.1,0-0.2,0-0.2C196,571.2,195.8,574.3,197,576.8
			C197,576.8,197,576.8,197,576.8L197,576.8z"/>
	</g>
	<g display="inline">
		<path fill="#F8E088" d="M197.3,572.3c0.3-1.8,0.5-3.6,1-5.4c0.1-0.3-0.1-2-0.2-1.6c-3.3,6.9-6.7,13.7-10.8,20.2
			c-4.1,6.5-8.6,12.8-13.6,18.6c-2.9,3.4-5.9,6.6-9,9.7c0.1,0.1,0.2,0.1,0.3,0.2c-0.4-1.1,0.7-2.7,1.3-3.5c0.6-1,1.4-1.9,2.1-2.9
			c1.4-1.8,2.9-3.5,4.6-5.1c3.1-2.7,7-4.5,11.1-3.2c1.7,0.5,3.3,1.6,4.1,3.3c1,2.2-1,5.1-2.2,6.9c-2.2,3.5-4.7,6.8-7.5,9.8
			c-11.4,12.5-26.3,20.9-40.4,29.9c-8,5.1-15.9,10.4-23,16.8c-0.4,0.4-0.3,1.7-0.2,2.2c0,0.2,0.2,1.6,0.5,1.3
			c14.4-12.6,31.5-21.3,46.9-32.5c7.4-5.4,14.5-11.5,20.2-18.9c2.8-3.7,6.2-8,6.7-12.7c0.2-2.2,0-4.7-1.2-6.6c-1-1.5-2.8-2.5-4.6-3
			c-5.3-1.3-9.9,2.2-13.2,6c-1.9,2.1-3.8,4.3-5,6.8c-1.2,2.6-1.4,5.6-0.5,8.3c0,0.1,0.2,0.3,0.3,0.2c11.2-11.2,20.6-24,27.9-38
			c2-4,3.9-8,5.5-12.2c-0.1-0.4-0.2-0.8-0.3-1.2c-0.2,2.1-0.5,4.2-0.8,6.4C197.2,572.1,197.3,572.5,197.3,572.3L197.3,572.3z"/>
	</g>
	<g display="inline">
		<path fill="#F8E088" d="M335.5,596.2c1.3,8.4,1.5,16.9,0.1,25.3c-0.7,4.1-1.7,8.2-3.1,12.1c-0.7,1.9-1.4,3.9-2.2,5.8
			c-0.2,0.4-0.8,2.3-1.2,2.2c-0.5-0.1-1-1.9-1.1-2.3c-0.8-3.4,2.2-7,5.4-7.6c3.9-0.7,5.9,3,6.7,6.2c1.9,7.4,1.9,15.2,0.5,22.7
			c-1.6,8.5-5.1,16.6-10.1,23.6c-0.3,0.4-0.2,1.3-0.2,1.8c0,0.1,0.2,1.3,0.4,1c6.9-9.5,10.8-21,11.4-32.8c0.3-5.8-0.2-11.8-1.5-17.5
			c-0.5-2.2-1.2-4.7-3-6.3c-2-1.8-4.8-1.5-6.9,0c-4.1,2.9-4.5,10-1.6,13.9c0.1,0.1,0.2-0.1,0.2-0.1c7.1-14.9,9.6-32.6,6.2-48.8
			C335.6,594.7,335.5,596,335.5,596.2L335.5,596.2z"/>
	</g>
	<g display="inline">
		<path fill="#F8E088" d="M492.7,606.1c-2.1-3-5.4-4.9-8.9-5.8c-1.8-0.5-3.7-0.7-5.6-0.3c-1.9,0.5-3.7,1.3-5.4,2.4
			c-3.6,2.3-6.3,5.7-8.8,9.1c-2.7,3.8-5.1,7.8-6.9,12.1c-2,4.8-2.9,10-2.9,15.2c0,4.5,0.8,9.3,2.7,13.4c1.6,3.4,3.9,6.4,7.2,8.4
			c3.5,2.1,7.7,2.7,11.7,1.8c9.8-2.1,16.2-11.6,18.8-20.7c0.6-2.2,0.6-4.6,0.2-6.8c-0.1-0.7-0.7-3.6-1.5-1.7
			c-1.6,3.6-3,7.1-5.3,10.3c-2.3,3.1-5.2,5.8-8.7,7.5c-6.7,3.2-14.6,2.4-19.4-3.5c-1-1.2-1.8-2.6-2.5-4c-0.3-0.6-0.6-1.4-0.7-1.9
			c-0.1-0.4-0.2-0.8-0.3-1.2c-0.2-0.7-0.1-0.3,0-0.1c0-0.2-0.1-0.5-0.1-0.7c-0.1-0.8,0-0.1,0,0c0-0.2,0-0.5-0.1-0.7c0,0,0,0.8,0,0.3
			c0-0.2,0-0.9,0-0.3c0,0.8,0.1-1.1,0-0.4c0-0.5,0.1-0.8,0.2-1.3c0.3-2,0.9-3.9,1.6-5.8c1.5-4,3.7-7.8,6.1-11.4
			c2.2-3.3,4.6-6.5,7.7-9.1c3.2-2.7,7-4.6,11.1-5.4c3.7-0.7,7.3,0.1,9.7,3.2c0.2,0.3,0.3-0.9,0.3-1C493,607.3,493,606.5,492.7,606.1
			L492.7,606.1z"/>
	</g>
	<g display="inline">
		<path fill="#F8E088" d="M490,635.6c-0.9,6-1.7,12.2-0.1,18.1c1.2,4.7,4.1,9.6,8.9,11.2c4.7,1.6,9.3-0.8,12.5-4.2
			c3.8-4,6-9.1,7.8-14.3c1.9-5.6,3.3-11.7,3.4-17.7c0.1-5.2-0.3-11.4-3.6-15.8c-2.8-3.7-7.5-4.7-11.7-3c-4.6,1.8-8.2,5.8-10.4,10.1
			c-3.1,6.2-4.3,13.2-4.3,20.1c0,6.9,1.3,14,4.5,20.1c0.1,0.3,0.2,0.5,0.5,0.6c3.6-1.2,3.4-6,3.2-9.1c0-0.4-0.2-3.4-1.1-3.1
			c-0.9,0.3-0.7,3.7-0.7,4.2c-0.1-3.5,0.7-2.7-0.4-1.8c-0.4,0.3-0.8,0.5-1.2,0.6c0.2,0.2,0.3,0.4,0.5,0.6c-1-2-1.9-4-2.5-6.1
			c-0.3-1-0.5-1.8-0.6-2.7c0-0.3-0.1-0.5-0.1-0.8c-0.2-1.3,0,0.4,0-0.4c0-0.3-0.1-0.5-0.1-0.8c0-0.3,0-0.9,0-0.3c0-0.2,0-1.8,0-0.9
			c0-0.1,0.1-1.7,0-1c0.1-1.2,0.2-2,0.4-3.2c0.4-2.2,1.1-4.3,2-6.4c2.8-6.7,11.1-15.5,19-10.9c1.5,0.8,2.7,2.2,3.5,3.7
			c0.3,0.7,0.7,1.5,0.8,2c0.1,0.2,0.3,1.3,0.2,0.7c0,0.2,0.1,0.4,0.1,0.7c0.2,1.1,0-0.8,0,0.3c0,0.2,0,0.8,0-0.2c0,0.2,0,0.5,0,0.7
			c0-1,0,0.2,0,0.5c0,0.2-0.1,0.8,0,0c0,0.2,0,0.4-0.1,0.7c0,0.2-0.1,0.4-0.1,0.7c-0.1,1.1,0.1-0.6-0.1,0.4c-0.5,2.5-1,5-1.7,7.4
			c-1.4,4.5-3.1,9-5.8,12.9c-2.3,3.4-5.5,6.6-9.5,7.7c-4.4,1.1-8.7-1-11.2-4.6c-3.2-4.6-2.2-10.5-1.6-15.7c0-0.4,0.1-1.2-0.1-1.6
			C490.2,635.3,490.1,635.2,490,635.6L490,635.6z"/>
	</g>
	<g display="inline">
		<path fill="#F8E088" d="M522.5,618.4c0.1-1,0-2.1,0.2-3.2c0.2-1,0.2-2.1,0-3.2c0-0.1-0.3-1.7-0.7-1.2c-2.5,3.6-3.7,8.4-4.5,12.6
			c-1.1,5.5-1.3,11.2-0.6,16.7c0.6,4.7,2.2,9.6,5.7,12.9c2.8,2.7,7,4.3,10.8,2.9c1.9-0.7,3.6-2.2,4.6-4c0.8-1.5,1.1-3.1,1.3-4.8
			c0.2-2.2,0.3-4.8-0.3-7c-0.2-0.5-0.7-1.9-1.1-0.6c-0.2,0.5-0.1,0.4-0.4,1c-0.2,0.4-0.6,1.1-1,1.6c-1,1.2-2.3,2.2-3.8,2.8
			c-2.9,1.2-6.4,0.7-9-1.1c-2.7-1.8-4.6-4.7-5.2-7.9c0,0.1-0.1-0.6-0.1-0.8c0.1,0.5,0-0.5-0.1-0.7c0,0.6,0-0.6,0-0.8
			c0-0.5,0-0.1,0,0c0-0.3,0-0.6,0-0.9c0.1-1.6,0.3-3.4,0.6-5.1c0.4-2.3,1-4.5,1.7-6.7c0.8-2.4,2-4.6,2.3-7.1
			c-0.2,0.3-0.4,0.5-0.6,0.8c-0.2-0.5-0.1-0.2-0.1,0.2c0,0.4,0,0.8,0,1.2c0,0.7,0,1.4,0.1,2.2C522.3,618.7,522.4,619,522.5,618.4
			L522.5,618.4z"/>
	</g>
	<g display="inline">
		<path fill="#F8E088" d="M560.3,616.9c-0.3-3.6-2-6.5-4.9-8.6c-2.5-1.8-6.3-3.2-9.4-3c-1.6,0.1-3,0.8-3.7,2.3
			c-0.6,1.5-0.7,3.2-0.6,4.8c0.1,1.6,0.2,3.4,0.8,4.9c0.7,1.7,2.2,2.7,3.7,3.6c1.9,1.1,3.9,2,5.8,3c4,2.3,7.9,4.9,11.4,7.8
			c0.8,0.6,1.5,1.3,2.1,2c0.3,0.3,0.6,0.7,0.8,1.1c0.1,0.2,0.1,0.4,0.2,0.5c0-1.6-0.1-3.1-0.1-4.7c0,0.1-0.1,0.3-0.1,0.4
			c-0.8,1.8-2.1,3.4-3.5,4.8c-4.9,5.1-13.4,8.9-20.1,4.9c-1.8-1.1-3.3-2.7-4.3-4.4c-0.4-0.7-0.7-1.5-0.9-2.1c-0.2-0.7-0.1-0.2,0-0.1
			c0-0.1,0-0.2-0.1-0.4c0.1,0.4,0.1,0.8,0.1,1.2c0,0.4,0,0.8,0,1.2c0-1-0.1,0.3,0-0.2c0.8-3.7,4.3-7.5,7.7-9.7c1-0.6,1-6.9-0.2-6.8
			c-10.6,0.6-10.8,15.8-8.4,23.2c1.2,3.8,4,7,7.7,8.5c3.6,1.5,7.6,1.1,11.2-0.4c3.7-1.5,7-4.1,9.5-7.2c1.5-1.8,2.6-3.9,3.1-6.2
			c0.6-3.3,0.6-7.7-1-10.8c-1-2-2.7-3.3-4.4-4.6c-1.9-1.5-3.9-2.8-6-4.1c-2-1.3-4.1-2.4-6.2-3.5c-1.9-1-4.1-1.7-5.8-3.1
			c-0.4-0.3-0.8-0.6-1.1-1c-0.1-0.1-0.2-0.3-0.3-0.4c-0.1-0.1-0.2-0.2-0.2-0.3c-0.4-1.9-0.4,0,0.2,5.7c0.6-0.7,1-1.2,2-1.5
			c1.8-0.6,3.9-0.5,5.8-0.3c2.8,0.3,8,1.1,8.6,4.6C560,619.5,560.3,617.4,560.3,616.9L560.3,616.9z"/>
	</g>
	<g display="inline">
		<path fill="#F8E088" d="M569.7,628.3c1,0.8,1.8,1.3,3.1,1.6c1.1,0.3,2.2,0.5,3.4,0.7c2.3,0.3,4.5,0,6.7-0.6
			c4.3-1.1,8.4-3.5,11.4-6.9c3.9-4.5,5.6-10.4,5-16.3c-0.3-2.9-1.1-5.8-3.7-7.3c-1.9-1.1-4.3-1.4-6.5-1.1c-4.6,0.6-8.9,3.7-11.9,7.2
			c-3.2,3.8-5.4,8.4-6.9,13.1c-1.6,5.1-2.5,10.5-2.6,15.8c-0.1,5.7,0.4,11.8,3.2,16.9c2.8,5.1,7.9,8.2,13.8,7.8
			c6.3-0.4,12-4,16.8-7.9c0.5-0.4,0.6-2,0.6-2.4c0.1-1.3,0.1-2.7,0-4c-0.1-0.6-0.4-4.5-1.5-3.6c-6.6,5.4-17.9,11.8-26,5.5
			c-1.5-1.2-2.7-2.7-3.6-4.4c-0.3-0.7-0.8-1.8-0.9-2.3c-0.1-0.4-0.2-0.8-0.3-1.3c-0.3-1,0.1,0.4-0.1-0.3c0-0.3-0.1-0.6-0.1-0.8
			c-0.2-1.1,0,0.5,0-0.2c0-0.3-0.1-0.6-0.1-0.8c0-0.2,0-0.8,0,0.1c0-0.2,0-0.5,0-0.7c0-1.1,0,0.6,0-0.1c0-0.3,0-0.6,0-0.9
			c0-0.2,0-0.5,0-0.7c0,0.8,0-0.3,0-0.4c0-0.5,0.1-0.9,0.1-1.4c0.1-1.1-0.1,0.3,0-0.3c0-0.3,0.1-0.6,0.1-0.8
			c0.2-1.1,0.4-2.2,0.7-3.3c1.9-8.1,6.2-16.8,14-20.6c3.4-1.6,8.3-2.6,11.5,0c0.8,0.6,1.1,1.3,1.6,2.1c-0.2-0.4,0.2-2.7-0.2-1.5
			c-0.2,0.5-0.3,1-0.5,1.5c-0.7,1.8-1.7,3.5-2.9,5c-2.9,3.5-6.8,6.2-11.1,7.6c-2.2,0.7-4.4,1-6.7,1.2c-1.1,0.1-2.1,0.1-3.2,0
			c-0.5-0.1-1.1-0.1-1.6-0.2c-0.6-0.1-1.2,0-1.8,0C568.9,623.4,569.1,627.9,569.7,628.3L569.7,628.3z"/>
	</g>
	<g display="inline">
		<path fill="#F8E088" d="M641.6,615.3c6.6-1.6,12.9-6.6,13.8-13.6c0.5-3.9,0.1-8.1-1.9-11.5c-1.7-2.8-4.4-4.9-7.3-6.3
			C633.9,577.6,616,583,609,595c-3.9,6.7-4.3,15.2-2.8,22.7c0.7,3.4,2,6.6,4,9.4c2.2,3,5.3,5.2,8.6,6.8c4,1.9,8.3,3,12.5,4.3
			c4.7,1.4,9.5,2.9,14.2,4.3c3.5,1,7.4,1.9,10.3,4.2c0.7,0.5,1.3,1.1,1.8,1.8c0.2,0.3,0.4,0.6,0.5,0.9c0.1,0.2,0.1,0.3,0.2,0.5
			c0.2,0.4,0,0.1,0.1,0.1c0.2-0.1-0.2-2.1-0.1-2.3c-0.2,0.3-0.2,0.8-0.4,1.1c-0.4,0.9-0.9,1.7-1.5,2.5c-2.7,3.3-6.8,4.9-10.7,6.2
			c-4.3,1.4-8.8,2.2-13.2,2.6c-4.6,0.4-9.2,0.2-13.8-0.5c-3.2-0.5-6.7-1.3-9.3-3.4c-0.5-0.5-1.1-1-1.5-1.5c-0.2-0.2-0.3-0.5-0.5-0.7
			c0-0.1,0.8,0.9-0.1-0.2c0,0,0,0.1,0,0.1c0.1,0.6,0.2,1.1,0.2,1.7c0-0.7-0.1-1.5-0.2-2.2c-0.1-0.3-0.2-1.2-0.4-1.3
			c-0.7-0.4-0.8,1.3-0.9,1.7c-0.3,4.3,0.1,9.3,3.7,12.1c2.7,2.2,6,3,9.4,3.4c9,1.1,18,0,26.5-2.9c3.8-1.3,7.8-2.9,10.6-5.8
			c3.5-3.5,4.2-8.6,3.8-13.3c-0.3-4.2-1.8-7.8-5.5-10c-3.3-2-7.3-2.8-11-3.9c-4.6-1.3-9.3-2.6-14-3.9c-4.1-1.1-8.3-2.1-12.2-4
			c-3.2-1.5-5.9-3.8-7.8-6.8c-0.9-1.3-1.5-2.8-2-4.3c-0.2-0.6-0.4-1.3-0.5-2c-0.1-0.6-0.1-0.8-0.2-1.5c0-0.4,0,0.1,0,0.1
			c0-0.2,0-0.4,0-0.7c0,0.7,0-0.3,0-0.5c0-0.4,0,0,0,0c0-0.2,0-0.4,0.1-0.7c0-0.4,0.1-0.6,0.1-0.9c0.3-1.6,0.8-3.1,1.4-4.6
			c1.3-3.1,3.5-5.9,6-8.2c5.4-4.8,12.6-7.4,19.8-7.6c6.5-0.2,13.8,1.8,18,7.2c0.5,0.6,0.9,1.2,1.2,1.9c0.1,0.3,0.8,1.5,0.6,1.8
			c0.1-0.1,0.1-1.2-0.1,0c-0.2,0.8-0.5,1.5-0.9,2.3c-1.6,3.1-4.6,5.6-7.4,7.7c-1.5,1.2-3,2.3-4.5,3.5
			C641.1,612.6,641.3,615.4,641.6,615.3L641.6,615.3z"/>
	</g>
	<g display="inline">
		<path fill="#F8E088" d="M665.4,596c-2.3,6.9-3.6,14.1-5.3,21.1c-1.7,7.3-3.5,14.6-5,22c-0.8,3.7-1.1,7.5-0.8,11.3
			c0.3,3.2,1,6.6,3.3,9.1c3.8,4.2,10.2,3.9,15.2,2.7c6.2-1.5,12.3-4.8,13.3-11.7c0.3-1.9,0.3-4-0.1-6c-0.1-0.3-0.3-1.2-0.7-1.2
			c-0.4,0-0.6,1-0.6,1.3c-0.4,1.8-2.1,3.7-3.7,4.9c-2,1.5-4.3,2.6-6.6,3.4c-4.4,1.6-9.9,2.7-14.3,0.5c-2-1-3.7-3-4.2-5.3
			c0,0.2,0,0.6,0-0.1c0,0.9,0-0.5,0,0c0,0.5,0-0.6,0-0.1c0-0.3,0.1-0.7,0.1-1c0.1-1.2,0.4-2.5,0.6-3.7c1.4-7,3-14,4.4-20.9
			c1.7-8.2,3.5-16.3,4.7-24.5c0.1-0.4,0.1-1,0-1.4C665.6,596.2,665.5,595.6,665.4,596L665.4,596z"/>
	</g>
	<g display="inline">
		<path fill="#F8E088" d="M647.6,633.8c8.8-10.5,19.3-19.5,30.9-26.8c1.1-0.7,0.8-3.3,0.7-4.3c0-0.3-0.2-3.8-1.1-3.1
			c-11.7,8.6-22,19.1-30.8,30.6c-0.4,0.5-0.3,1.7-0.2,2.3C647.1,632.7,647.3,634.2,647.6,633.8L647.6,633.8z"/>
	</g>
	<g display="inline">
		<path fill="#F8E088" d="M683.2,610c-1.4,5.2-2.6,10.5-3.7,15.9c-0.5,2.5-0.7,5-0.6,7.5c0.1,2.7,0.4,5.6,2,7.9
			c2.6,3.9,7.9,3,10.9,0.1c1.7-1.6,2.7-3.9,3.6-6.1c1-2.6,1.8-5.2,2.6-7.8c2-6.4,3.7-12.9,5.3-19.4c0.3-1.5,0.3-3.2-0.1-4.7
			c-0.1-0.6-0.5-2.1-1-0.9c-3.6,8.1-6.1,16.4-6.9,25.3c-0.4,4.4-0.6,9.1,0.6,13.4c0.9,3.1,2.9,6.4,6.5,6.4c2,0,3.7-1,5.2-2.3
			c0.8-0.8,1.6-1.6,2.3-2.5c0.8-1.1,1.3-2.4,1.9-3.7c0.5-1.1,0.3-3,0.2-4.2c0-0.4-0.2-2.4-0.9-1.9c-0.7,0.5-1.4,0.8-2,1.4
			c-0.7,0.7-1.5,1.4-2.3,1.9c-1.5,1-3.1,1.9-5,1.9c-1.6-0.1-3.1-0.9-4-2.2c-0.4-0.6-0.6-1.3-0.8-1.7c-0.1-0.4-0.1-0.4,0-0.1
			c-0.1-0.4-0.1-0.4,0,0c0-0.2,0-0.4-0.1-0.7c0,0.5,0,0.6,0,0.3c0-1.1-0.1,0.5,0-0.4c0-0.5,0-0.7,0.1-1.2c0.1-1.2,0.2-2.5,0.4-3.7
			c0.3-2.2,0.7-4.4,1.2-6.5c1.1-4.6,2.6-9.3,4.7-13.5c-0.3-2.1-0.6-4.1-0.9-6.2c-1.2,4.8-2.6,9.5-4.1,14.2c-0.7,2.3-1.5,4.6-2.3,6.8
			c-0.7,2-1.3,4.1-2.3,6c-1.7,3.4-4.9,6.6-9,6.1c-1.7-0.2-3.2-1.1-3.9-2.7c-0.1-0.2-0.2-0.6-0.2-0.6c-0.1,0.2,0.2,0.6,0.1,0.7
			c0.1-0.1,0.1-1,0.1-1c0-0.4,0.1-0.8,0.1-1.1c0.8-6,1.9-11.9,3.1-17.8c0.2-0.8,0.1-1.7,0-2.4C683.7,610.3,683.4,609.3,683.2,610
			L683.2,610z"/>
	</g>
	<g display="inline">
		<path fill="#F8E088" d="M720.1,607.4c1.1-1.8-0.3-3.7-1.5-4.9c-0.8-0.8-1.5-1.2-2.6-0.5c-1.1,0.7-1.7,2.2-2.1,3.3
			c-2.4,6.3-3.5,13.1-3.6,19.9c0,3.7,0.1,7.5,0.8,11.2c0.6,3,1.4,6,3.1,8.5c3.4,4.8,9.8,5.1,14.7,2.6c11-5.7,14.3-19.5,14.3-30.9
			c0-6-0.7-13.5-5.5-17.8c-3.4-3.1-8.3-4.3-12.9-3.8c-5.6,0.6-10.4,4.1-13.4,8.9c-3.7,6-4.5,13.2-4,20.1c0,0.4,0.2,2.9,0.9,2.6
			c0.8-0.3,0.6-3.1,0.6-3.6c0-0.2,0-0.5,0-0.7c-0.1-1.2,0,0.4,0-0.3c0-0.2,0-0.5,0-0.7c0-0.7-0.1,0.8,0-0.3c0.1-1,0.2-1.7,0.4-2.8
			c0.5-2,1.2-4,2.3-5.8c2.1-3.6,5.2-6.7,9.2-8.2c7.4-2.7,17.1-0.1,19.7,8.1c0.1,0.4,0.3,0.9,0.3,1.4c-0.1-0.3,0.1,0.4,0.1,0.3
			c0.2,1.3,0-0.4,0.1,0.4c0,0.1,0.1,1,0,0.5c0-0.7,0,0.7,0,0.7c0,0.2,0,0.9,0,0c0,0.4,0,0.8,0,1.1c0,0.2-0.1,0.8,0,0
			c0,0.2,0,0.5-0.1,0.7c0,0.1-0.2,1.5-0.1,0.9c-0.1,1-0.4,2.2-0.6,3.1c-1.1,4.2-3.1,8.1-6,11.4c-3,3.4-7.2,6.2-11.8,6.6
			c-4.6,0.4-8.2-2.2-9.7-6.5c-0.4-1.2-0.4-1.5-0.6-2.7c0-0.1-0.1-0.9,0-0.3c0-0.4-0.1-0.8-0.1-1.1c0-0.2-0.1-1.1,0-0.5
			c0-0.4,0-0.8,0-1.1c0-1,0-0.9,0-1.7c0-0.6,0-1.3,0.1-1.8c0.1-1.5,0.3-2.9,0.5-4.4c0.5-3,1.3-6,2.4-8.9c0.4-1.2,1-2.4,2-3.3
			c0.4-0.4,1.1-1.1,1.6-1.2c0.3-0.1,0.4-0.1,0.7,0c0.2,0.1,0.5,0.4,0.6,0.3C719.8,606.3,720,607.5,720.1,607.4L720.1,607.4z"/>
	</g>
	<g display="inline">
		<path fill="#F8E088" d="M745.8,568.2c-3.1,12.6-5.4,25.4-6.8,38.3c-0.7,6.6-1.2,13.3-1.5,20c-0.2,3.4-0.3,6.7-0.3,10.1
			c-0.1,3.6-0.2,7.2,0.1,10.8c0.2,2.6,1.1,8.5,5.2,7.1c3.7-1.3,4.1-6.2,4.4-9.4c0.1-1.6,0.1-3.2-0.3-4.8c-0.1-0.5-0.7-1.8-1.1-0.6
			c-0.6,1.9-1.4,4-3.5,4.5c-0.9,0.2-2,0.1-2.6-0.6c0,0-0.3-0.4-0.3-0.4c-0.3-0.3,0.2,0.9,0.2,1.2c0,0.1,0,1.2,0,0.3c0-0.5,0-1,0-1.5
			c-0.1-6.1-0.1-11,0.1-17.2c0.4-12,1.5-23.9,3.1-35.8c1-7,2.2-14,3.5-20.9C746.1,569.1,746,567.5,745.8,568.2L745.8,568.2z"/>
	</g>
	<g display="inline">
		<path fill="#F8E088" d="M754.6,607.4c-0.3,0.7-0.6,1.2-0.8,1.9c-0.3,1.2-0.5,2.4-0.7,3.6c-0.4,2.3-0.9,4.6-1.3,7
			c-0.9,4.7-2,9.5-1.9,14.3c0.1,4.3,1,9.3,5.5,11.1c3,1.2,6.6,0.2,9-1.9c3.8-3.3,5.2-9,5.9-13.7c0.2-1.3,0.2-2.7,0-4
			c0-0.2-0.4-2.1-0.9-1.5c-0.8,0.9-1.3,2.1-1.9,3.2c-0.7,1.3-1.5,2.7-2.4,3.9c-1.9,2.5-4.4,4.2-7.5,4.5c-1.3,0.1-2.6,0-3.8-0.5
			c-0.6-0.3-1.1-0.7-1.5-1.1c-0.2-0.2-0.4-0.5-0.6-0.8c-0.1-0.2-0.1-0.5-0.2-0.3c-0.1,0.2,0,0.7,0,0.8c0,0,0-0.6,0-0.3
			c0,0.3,0-0.4,0-0.3c0.1-0.9,0.3-1.8,0.4-2.7c0.3-2.1,0.6-4.2,1-6.3c0.4-2.5,0.7-4.9,1.1-7.4c0.4-2.8,0.6-5.4,0.8-8.2
			C754.9,608.4,754.8,606.9,754.6,607.4L754.6,607.4z"/>
	</g>
	<g display="inline">
		<path fill="#F8E088" d="M750.6,592.9c2.4,1.9,4.9,3.9,6.9,6.2c0.2,0.3,0.4-0.1,0.5-0.3c0.9-2.1,1.5-4.3,2.4-6.4
			c0.9-2.2,2-4.3,3.1-6.4c2.3-4.2,5.2-8,8.2-11.8c0.9-1.1,0.6-3.5,0.5-4.9c0-0.3-0.5-3.5-1.1-2.7c-3.4,3.8-6.1,8.3-8.4,12.8
			c-2.3,4.7-4.5,9.7-5.5,14.8c0.1-0.3,0.3-0.6,0.4-0.9c-2.5-0.6-4.8-2.1-7-3.4C750.6,590,750.1,592.5,750.6,592.9L750.6,592.9z"/>
	</g>
	<g display="inline">
		<path fill="#F8E088" d="M774.4,619.9c1.8,4.4,7.3,4.5,11.4,4.1c4.3-0.5,9.1-2.4,11.7-5.9c1.4-1.8,2.1-3.9,2.5-6.1
			c0.6-3.5,0.6-7.4-0.3-10.9c-1.1-4.4-4.5-7.4-9.1-7.3c-4.4,0-8.7,2.3-12.2,4.8c-4.4,3.2-8.5,6.9-12,11c-3.4,4-6.3,8.5-7.3,13.7
			c-1.1,5.8-0.7,12.7,2.7,17.8c2.7,4.2,7.5,7,12.3,7.9c6,1.1,13.3,0.2,18-4c0.4-0.4,0.5-1.6,0.5-2.1c0.1-0.9,0.1-1.9,0-2.8
			c0-0.6-0.1-3.8-1-3.8c-2.5-0.1-4.6,0.7-7,1.3c-2.3,0.6-4.6,1.1-7,1.2c-4,0.2-8.2-0.6-11.6-2.9c-1.5-1-2.8-2.2-3.9-3.6
			c-0.5-0.6-0.9-1.3-1.2-2c-0.1-0.2-0.3-0.8-0.4-0.9c-0.1-0.4-0.1-0.9-0.1-0.2c0,0.3-0.1,1.4,0,0.5c0,0.1,0.1-0.7,0.2-0.8
			c0.3-1.1,0.7-2.1,1.2-3.1c0.9-2,2.2-3.8,3.5-5.5c2.8-3.6,6.1-7,9.7-9.9c3.2-2.6,6.7-5,10.7-6.3c3.3-1,7.4-1.4,10.3,1
			c0.7,0.5,1.3,1.1,1.7,1.9c0.2,0.3,0.3,0.5,0.4,0.8c0.3,0.7,0.1,0.3,0.1,0.2c0.2,0.5,0,0.1,0-0.2c-0.1-0.6,0-1.2,0-1.9
			c0-0.8-0.1,0.6-0.1,0.3c-0.2,0.9-0.5,1.7-1,2.5c-2.3,4.2-6.7,6.5-11.2,7.7c-2.1,0.6-4.3,1.4-6.5,1.6c-1.7,0.2-4,0.3-5-1.2
			c-0.3-0.4-0.4,1.1-0.4,1.1C774.1,618.3,774.1,619.2,774.4,619.9L774.4,619.9z"/>
	</g>
	<g display="inline">
		<path fill="#F8E088" d="M830.7,605.1c-2.4-5.5-7.8-10-14-10c-5.8,0-11,3.7-13.3,9c-0.5,1.3-0.4,3.1-0.3,4.4c0,0.5,0.1,2.8,0.9,2.9
			c5.5,0.6,11.6,1.3,16.3,4.6c2,1.4,3.9,3.3,4.9,5.6c0.2,0.3,0.3,0.7,0.4,1.1c0,0.1,0.1,0.2,0.1,0.4c0.1,0.4,0.1,0.5,0,0.2
			c0-0.1-0.2-3-0.1-1.6c0,0.1,0-0.4,0-0.5c0.1-0.1-0.2,0.8-0.2,0.7c-0.2,0.5-0.4,1-0.6,1.4c-2.5,4.3-7.2,6.7-11.8,7.9
			c-5.4,1.5-11.5,1.6-16.7-0.9c-2.4-1.2-4.5-2.8-6.2-5c-0.7-0.9-1.3-1.9-1.7-2.9c-0.3-0.6-0.3-0.7-0.4-1.4c0.1,0.6,0,0,0-0.1
			c0,0.2,0,1.8,0.1,0.8c0.1-1.3,0.1-3.2-0.5-4.5c-0.5-1-0.9-0.1-1,0.6c-1.1,7.1,0.4,15.1,6.1,20c5.1,4.3,12.2,4.7,18.5,3.1
			c5.4-1.4,11.7-4.2,14.5-9.3c1.9-3.5,2.1-7.6,1.8-11.5c-0.3-3.4-1.4-6.7-3.6-9.4c-4.8-5.9-13-6.7-20.1-7.2c0.2,2.4,0.4,4.9,0.6,7.3
			c2-5.1,6.9-8.9,12.4-9.4c5.3-0.5,11,1.9,13.5,6.7c0.3,0.6,0.5-0.4,0.5-0.6C831,606.7,831,605.8,830.7,605.1L830.7,605.1z"/>
	</g>
</g>
<g id="Layer_3" display="none">
	<g display="inline">
		<path fill="#F8E088" d="M1042.2,72.1c8.7-10.6,16.3-22.5,23.8-34c1-1.6,0.8-4.4,0.6-6.2c0-0.4-0.8-4.5-1.4-3.5
			c-8.2,12.3-16.4,24.9-23.5,37.9C1041.1,67.4,1042,72.4,1042.2,72.1L1042.2,72.1z"/>
	</g>
	<g display="inline">
		<path fill="#F8E088" d="M965.8,139.7c6.2-11.9,13.1-24.1,17.4-36.9c0.4-1.1-0.5-6.7-0.7-6.3c-3.6,5.2-5.9,11.4-8.5,17.2
			c-3,6.8-5.9,13.7-8.8,20.6C964.7,135.5,965.8,139.7,965.8,139.7L965.8,139.7z"/>
	</g>
	<g display="inline">
		<path fill="#F8E088" d="M1004.3,70.5c4.5-11,9.1-21.9,13.6-32.9c0.5-1.3,0.6-3.6,0.2-5c-0.1-0.4-0.6-2.7-1.1-1.3
			c-4.4,11.5-8.9,23.1-13.3,34.6C1003.3,67,1003.9,71.5,1004.3,70.5L1004.3,70.5z"/>
	</g>
	<g display="inline">
		<path fill="#F8E088" d="M961.3,62.2c4.3-12,8-24.3,10.6-36.8c0.2-1-0.5-6.9-1.1-4.3c-2.5,12.7-5.8,25.1-10.1,37.3
			C960.4,59.2,961,62.9,961.3,62.2L961.3,62.2z"/>
	</g>
	<g display="inline">
		<path fill="#F8E088" d="M1029.8,173.3c17.7-8.2,36.2-13.9,55.1-18.7c1.3-0.3,0.6-6.6-0.2-6.5c-19.3,3.6-37.7,10.8-55.1,19.7
			C1028.5,168.5,1029.6,173.4,1029.8,173.3L1029.8,173.3z"/>
	</g>
	<g display="inline">
		<path fill="#F8E088" d="M1128.9,131.8c11.7-4,23.6-7.4,34.9-12.3c1-0.4,0.4-5.3-0.1-5.2c-11.9,3.1-23.3,7.9-34.9,12
			C1127.5,126.7,1128.5,131.9,1128.9,131.8L1128.9,131.8z"/>
	</g>
	<g display="inline">
		<path fill="#F8E088" d="M1053.4,223.4c12.5-5.2,25-8.3,38.3-10.9c1.4-0.3,0.8-7.5-0.2-7.4c-13.4,1.4-26.8,6.7-38.2,13.7
			C1052.4,219.4,1053.1,223.5,1053.4,223.4L1053.4,223.4z"/>
	</g>
	<g display="inline">
		<path fill="#F8E088" d="M1152.4,182.3c7.9-2.5,15.9-5,23.6-8c1-0.4,0.3-5.3-0.1-5.1c-8,2.2-15.8,5-23.6,7.7
			C1151.1,177.3,1152,182.4,1152.4,182.3L1152.4,182.3z"/>
	</g>
	<g display="inline">
		<path fill="#F8E088" d="M1064.7,264c3.4,2.4,7.6,2.8,11.7,3.6c4.8,1,9.6,1.9,14.4,2.8c9.3,1.7,18.5,3.3,27.8,4.8
			c0.8,0.1,1.4-7.3-0.2-7.6c-9-1.6-17.9-3.2-26.9-4.6c-4.5-0.7-8.9-1.4-13.4-2c-4.2-0.6-9.4-2.3-13.4-0.7
			C1064,260.6,1064.2,263.7,1064.7,264L1064.7,264z"/>
	</g>
	<g display="inline">
		<path fill="#F8E088" d="M1058.9,245.8c21.9-11.7,43.3-24.4,64.1-37.9c1.1-0.7,0-5.4-0.1-5.4c-21.9,12-43.3,25-64.2,38.7
			C1057.8,241.8,1058.8,245.9,1058.9,245.8L1058.9,245.8z"/>
	</g>
	<g display="inline">
		<path fill="#F8E088" d="M1097.4,187.1c14.9-12.7,30.4-24.6,46.3-36c1.1-0.8,0-6.3-0.5-6c-16.5,11.3-31.7,24.2-46.1,38
			C1096.3,183.8,1097.1,187.3,1097.4,187.1L1097.4,187.1z"/>
	</g>
	<g display="inline">
		<path fill="#F8E088" d="M787.9,112.6C801.3,90,819.4,71,839.1,53.9c1.7-1.5-0.1-9.7-0.8-9.2c-20.9,17.1-37.3,39-50.8,62.2
			C786.6,108.3,788,112.5,787.9,112.6L787.9,112.6z"/>
	</g>
	<g display="inline">
		<path fill="#F8E088" d="M772.9,102c3.4-12.4,8.4-24.5,14.4-35.9c0.7-1.3,0.6-3,0.4-4.4c0-0.3-0.6-3.2-1-2.5
			c-6.4,12-11.1,24.6-14.6,37.7c-0.3,1.2-0.5,2.9-0.1,4C772.1,101.2,772.5,103.3,772.9,102L772.9,102z"/>
	</g>
	<g display="inline">
		<path fill="#F8E088" d="M886.9,62.1c2.6-1.5,5.3-3,7.9-4.4c0.9-0.5-0.1-3.7-0.1-3.7c-2.6,1.5-5.2,3-7.9,4.6
			C886,59,886.9,62.1,886.9,62.1L886.9,62.1z"/>
	</g>
	<g display="inline">
		<path fill="#F8E088" d="M731.3,30.3c-0.4-5.9-0.7-11.9-1.3-17.8c-0.3-2.6-1-1.2-0.9,0.6c0.2,6.3,0.6,12.5,1,18.8
			c0,0.5,0.1,2.2,0.8,2C731.5,33.7,731.3,30.6,731.3,30.3L731.3,30.3z"/>
	</g>
	<g display="inline">
		<path fill="#F8E088" d="M700.2,51.1c-1.1-1.9-2.2-3.8-3.4-5.7c-0.3-0.6-0.6,1.7-0.6,1.8c0,1-0.1,2.2,0.5,3.1
			c1.1,1.9,2.3,3.7,3.4,5.6c0.3,0.6,0.6-1.7,0.6-1.8C700.7,53.2,700.7,52,700.2,51.1L700.2,51.1z"/>
	</g>
	<g display="inline">
		<path fill="#F8E088" d="M767.9,64.5c3-6.7,6-13.4,9-20.1c0.4-0.9,0.4-2.5,0.1-3.4c-0.1-0.3-0.3-1.8-0.8-0.9c-3,6.8-6,13.6-9,20.4
			C766.9,61.4,767.5,65.4,767.9,64.5L767.9,64.5z"/>
	</g>
	<g display="inline">
		<path fill="#F8E088" d="M613,113.9c0.8-22.4-1.1-44.6-5.7-66.5c-0.4-1.7-0.7-0.9-1.2,0c-0.7,1.3-0.2,4.2,0.1,5.6
			c4.3,19.5,6.2,39.5,5.6,59.5C611.7,114.4,612.8,117.7,613,113.9L613,113.9z"/>
	</g>
	<g display="inline">
		<path fill="#F8E088" d="M632.1,114.3c1.5-7.4,3-14.8,4.6-22.2c0.3-1.3,0.6-3.9-0.1-5.2c-0.5-0.8-0.8-1.6-1.1,0
			c-1.5,7.6-3,15.2-4.4,22.8c-0.2,1.2-0.5,3.5,0.1,4.6C631.5,115.1,631.8,115.8,632.1,114.3L632.1,114.3z"/>
	</g>
	<g display="inline">
		<path fill="#F8E088" d="M586.4,120.2c6.2-21.9,4.8-48.6-8.5-67.8c-0.1-0.2-1,4.8-0.4,6c9.1,17.8,13.4,36.7,8,56.4
			c-0.3,1.2-0.6,3-0.1,4.3C585.5,119.4,586,121.6,586.4,120.2L586.4,120.2z"/>
	</g>
	<g display="inline">
		<path fill="#F8E088" d="M658.8,128.2c0.8-13.8,6.8-23.8,17.1-32.7c1.7-1.4-0.4-9.7-0.5-9.6c-13.1,8.3-20.5,27.9-17.1,43
			C658.5,130,658.7,128.6,658.8,128.2L658.8,128.2z"/>
	</g>
	<g display="inline">
		<path fill="#F8E088" d="M610.7,100.3c3.1-13.8,4.1-27.5,2.5-41.5c-0.7-6.6-2.7-30.4-13.4-29.4c-1.7,0.2-1.1,8.8,0,9.7
			c3.1,2.8,6.1,5.1,7.8,9c2,4.3,2.7,9.1,3.4,13.7c1.6,11.6,1.2,23.6-1.2,35C609.7,97.7,610.2,102.5,610.7,100.3L610.7,100.3z"/>
	</g>
	<g display="inline">
		<path fill="#F8E088" d="M472.9,111.2c14.4,5.7,19.6-16.6,19.7-26.4c0.2-12.9-4.4-28.9-17.8-33.9c-0.1,0.1-0.3,0.2-0.4,0.3
			c-3,2.8-2.5,11.2-0.7,14.6c1.6,3.1,1.9-6.4,1.8-7.2c0-0.3-0.1-0.6-0.1-1c-0.3,2.8-0.6,5.6-0.8,8.3c1.3-2.1,8.1,3.9,9.4,5.3
			c3.3,3.5,6.1,8.4,5.8,13.3c-0.6,9.9-7.5,19.3-17,22.2C472,107,472.1,110.9,472.9,111.2L472.9,111.2z"/>
	</g>
	<g display="inline">
		<path fill="#F8E088" d="M423.5,112.7C441.6,117,442.7,93.2,437,82c-3.7-7.4-10.6-12-18.1-15c-4.6-1.9-9.4-3.3-14.3-4.4
			c-5.1-1.2-11.3-2.9-16.4-1.9c-2.2,0.4-1.9,12.5,0.3,13.1c6.3,1.9,13.5,1.6,20,3c6.3,1.4,12.7,3.2,18.3,6.6
			c4.5,2.7,11.4,8.3,10.6,14.1c-0.8,6.1-8.4,11.4-14.1,11C422.9,108.4,422.7,112.5,423.5,112.7L423.5,112.7z"/>
	</g>
</g>
<g id="Layer_4" display="none">
	<g display="inline">
		<path fill="#F8E088" d="M994.9,155.9c0.3,0,0.3-2.1-0.1-2.1C994.5,153.8,994.5,155.9,994.9,155.9L994.9,155.9z"/>
	</g>
	<g display="inline">
		<path fill="#F8E088" d="M994.3,155.5c0.4,1.1,0.9,2.2,1.3,3.3c0.2,0.2,0.4,0.2,0.5,0c3.3-2.7,5.6-7.3,8.4-10.5
			c2.9-3.4,6-6.5,9.3-9.5c7.3-6.6,15.5-12.3,24.1-17.2c9.1-5.2,18.7-9.4,28.5-13.1c10.2-3.9,20.8-6.7,31-10.5c-0.5-4.3-1-8.7-1.5-13
			c-0.3,1.3-0.6,2.7-0.9,4c-0.6,3-0.6,6.7,0.1,9.7c0.2,0.8,1.3,4.6,2.1,1.8c0.3-1.2,0.7-2.4,1-3.6c0.3-1.3,1.2-14.9-1.2-14.2
			c-11.1,3.1-22.1,7.7-32.7,12.2c-10.4,4.4-20.6,9.5-30.2,15.5c-8.1,5.1-15.7,11-22.5,17.7c-3.6,3.6-7,7.4-10.1,11.5
			c-2.7,3.5-7.4,8.6-6.4,13.3C994.8,150.6,994.3,154.9,994.3,155.5L994.3,155.5z"/>
	</g>
	<g display="inline">
		<path fill="#F8E088" d="M1069.2,263.8c13.7,0.4,27.9-3.4,40.9-7.3c6.5-2,12.9-4.3,19.1-6.9c6-2.5,13.1-4.9,18-9.2
			c1.7-1.5,1-14.8-0.8-14.3c-6.3,1.6-12.5,6.4-18.4,9.2c-6.3,3-12.6,5.6-19.1,8c-13.1,4.8-26.7,7.2-40,11.2
			C1067.4,254.9,1067.7,263.7,1069.2,263.8L1069.2,263.8z"/>
	</g>
	<g display="inline">
		<path fill="#F8E088" d="M1076,388.9c8.5,1,17.1,1.2,25.6,3c7.9,1.7,15.7,4.1,23.1,7.4c7.8,3.4,15.2,7.7,21.9,12.8
			c6.8,5.1,12.1,10.9,17.6,17.2c1,1.2,1.5-3.4,1.5-3.5c0.2-2.4,0.1-5.2-0.7-7.5c-2.9-7.9-10.1-13.3-16.6-18.1
			c-6.7-4.9-14.1-9-21.8-12.2c-15.2-6.3-34.4-10.5-50.7-6.4C1074.5,381.8,1074.7,388.8,1076,388.9L1076,388.9z"/>
	</g>
	<g display="inline">
		<path fill="#F8E088" d="M1043,505c2.9,2.1,7.1,0.4,10.6,0.4c3.5,0,7.1,0.3,10.5,0.9c8.2,1.5,16,4.8,22.6,9.9
			c6.6,5.1,11.8,11.9,15.8,19.1c2.1,3.8,3.9,7.8,5.5,11.8c0.9,2.1,1.7,4.2,2.5,6.3c0.4,1,0.8,2.1,1.2,3.1c1.7-5.5,1.4-7.2-1.1-5.3
			c-2.4,1.1-2.1,13,0.3,13.9c3.9,1.4,4.2-5.5,4.4-7.8c0.4-5.8-0.6-11.1-2.7-16.4c-3.9-9.9-8.3-19.8-15.2-28
			c-6.4-7.6-15.1-12.9-24.6-15.6c-4.8-1.4-9.9-2.1-14.8-1.9c-4.8,0.2-12,0.4-15,4.5C1042.3,500.8,1042.1,504.4,1043,505L1043,505z"
			/>
	</g>
	<g display="inline">
		<path fill="#F8E088" d="M988.7,549.8c2.2,5.9,6.5,10.9,10.3,15.9c-0.1-4.5-0.2-9-0.3-13.5c-1.2,1.6-1.8,3.2-3.3,4.5
			c-1.4,1.3-1,5.8-0.9,7.4c0,0.5,0.7,6.3,1.6,5.8c2.6-1.5,3.6-3.2,4.4-6c0.5-2.1,0.4-4.6,0.2-6.8c-0.1-1-0.1-4.2-1.2-4.9
			c-2.2-1.3-4.1-3.2-5.9-5c-1.5-1.5-2.8-3.6-4.6-4.6C988.3,542.1,988.5,549.1,988.7,549.8L988.7,549.8z"/>
	</g>
	<g display="inline">
		<path fill="#F8E088" d="M1044.2,483.7c1.8-7.5,10.2-11.5,16.9-13.2c6.1-1.5,12.8-3.2,18.6-0.6c1.3,0.6,0.8-9.9,0.4-11
			c-1.7-3.8-4.3-4.2-8.2-3.5c-4.8,0.9-9.7,2.2-14.2,4.1c-8,3.5-13.6,9.9-14.9,18.7C1042.7,479.4,1043.4,487.1,1044.2,483.7
			L1044.2,483.7z"/>
	</g>
	<g display="inline">
		<path fill="#F8E088" d="M977.6,154.8c0-6.7,0.8-13.3,2.5-19.8c1.6-5.9,4.2-11.4,6-17.2c0.3-1.1-0.2-8.5-0.9-7.7
			c-4.6,5.2-6.1,14.9-7.4,21.6c-1.4,7.7-1.9,15.4-1.7,23.2C976.3,158.7,977.6,158.8,977.6,154.8L977.6,154.8z"/>
	</g>
	<g display="inline">
		<path fill="#F8E088" d="M1067.4,279.1c2.5,7.8,9.3,11.4,16.8,13.2c8.6,2,17.2,2.3,18.3-8.2c0.2-1.5,0.4-4-0.3-5.5
			c-0.2-0.5-0.7-2.1-1.2-0.7c-2.5,7.4-13.1,5.8-19,5c-5.3-0.8-11.6-2-14.4-7C1067.6,275.9,1067.2,278.5,1067.4,279.1L1067.4,279.1z"
			/>
	</g>
	<g display="inline">
		<path fill="#F8E088" d="M1050.8,70.2c10.3,8.6,28.4,7.1,34.9-5.7c2.7-5.3,2.8-12.9,0.7-18.5c-1.9-5.3-7.2-9.4-12.7-5.7
			c-4.7,3.2-4.6,10.5-3.5,15.5c1.3,5.6,6.2,7.7,11.5,7.9c16.8,0.7,33.3-9.4,47-18c2-1.2,0.1-9.4-0.2-9.2c-9.4,4.9-19,10.2-29.1,13.5
			c-4.9,1.6-10,2.7-15.2,3c-1.9,0.1-3.9,0.1-5.8-0.3c-1-0.2-5.7-3-5.8-2.9c0,1,0,2,0,3c0.3-0.3,0.6-0.6,0.8-0.9
			c1.3-0.5,2.1-1.5,3.6-1.7c2.2-0.4,4.3,0.3,6,1.7c2.1,1.9,1.8,3.1,0.3,5.4c-1.3,2-3.1,3.6-5,5c-7.9,5.8-19,7-27.5,2
			C1050.7,64.1,1049.7,69.4,1050.8,70.2L1050.8,70.2z"/>
	</g>
	<g display="inline">
		<path fill="#F8E088" d="M811.6,122.9c1.5-15.8,6.5-30.9,15.2-44.2c4.2-6.4,9.2-12.3,14.7-17.6c2.9-2.7,5.9-5.3,9.2-7.7
			c1.6-1.2,8.6-7.3,10.6-5.8c-0.4-3.9-0.9-7.8-1.3-11.6c0,0.3,0,0.6-0.1,1c0.3-1.2,0.6-2.3,0.9-3.5c-0.2,0.2-0.4,0.4-0.6,0.5
			c-1.6,1.5-1.9,13.6,0.8,14.1c0.2,0,0.4,0.1,0.6,0.1c0.1-0.1,0.3-0.2,0.4-0.3c2.3-4.4,1.7-11.3-0.1-15.8c-0.1-0.6-0.4-0.9-0.9-1.1
			c-3.4-0.1-7.7,4-10.4,6c-3.6,2.8-7.1,5.8-10.3,9.1C833.6,53,828,60.7,823.4,69c-8.8,15.9-13.4,33.8-13.3,52
			C810.1,122.7,811.3,126.8,811.6,122.9L811.6,122.9z"/>
	</g>
	<g display="inline">
		<path fill="#F8E088" d="M791.9,118.2c1.3-18.3,0-36.9-4.5-54.7c-0.5-1.9-1-1.4-1.6,0c-0.8,2-0.3,5.2,0.2,7.2
			c3.3,14.9,5,29.8,4.5,45C790.5,117,791.6,122.1,791.9,118.2L791.9,118.2z"/>
	</g>
	<g display="inline">
		<path fill="#F8E088" d="M803.1,69.5c1.1-9,5.5-15.5,11-22.4c1-1.3-0.1-7.8-0.6-7.3c-7.2,6.7-10.5,17.6-11.4,27.1
			C801.9,68,802.6,72.8,803.1,69.5L803.1,69.5z"/>
	</g>
	<g display="inline">
		<path fill="#F8E088" d="M624.2,111.4c1.9-19.7-0.1-41.9-9.7-59.5c-9.2-17-27.5-24.8-46.1-25.9c-1.3-0.1-1.6,9.5,0.2,9.9
			c14.3,3,29.7,7.2,40,18.4c12.6,13.8,15.6,36,14.2,53.9C622.7,109.5,623.8,115.5,624.2,111.4L624.2,111.4z"/>
	</g>
	<g display="inline">
		<path fill="#F8E088" d="M633.1,76.4c-1.7-8.3-0.7-16.6,2.4-24.4c2.7-6.7,7.1-11.6,11.3-17.2c1-1.4,0.2-9.7-0.8-9
			c-7.8,5.8-12.1,17.7-14,26.8c-1.9,9-1.8,18.5,0.3,27.5C632.9,82.4,633.3,77.3,633.1,76.4L633.1,76.4z"/>
	</g>
	<g display="inline">
		<path fill="#F8E088" d="M472.2,115.3c4.1-9,2.4-20.7-2-29.2c-5.5-10.8-15.8-17-26.8-21.1c-13.5-5-27.8-8.1-41.9-10.5
			c-7.6-1.3-15.2-2.3-22.9-3c-5.8-0.6-11-1.1-14.2,4.6c-0.6,1.1-0.3,9.6,0.5,9.1c2.8-1.7,7.1-1.2,10.2-1c6.1,0.5,12.1,1,18.2,1.8
			c11.8,1.5,23.4,3.8,34.9,6.7c9.9,2.5,20.1,5.2,28.8,10.6c9.1,5.6,18.2,15.6,14.4,26.9C471.1,111.1,471.7,116.5,472.2,115.3
			L472.2,115.3z"/>
	</g>
	<g display="inline">
		<path fill="#F8E088" d="M477.3,79c2.2-12.3,2.2-26-3.2-37.5c-4.4-9.4-16.9-23-28.8-18.5c-9,3.4-8.1,21.2,1.4,23.5
			c2.2,0.5,5.4,0.8,7.6,0.1c2.6-0.9,3.1-3.2,3.4-5.7c0.6-5.1,0-10.5-4.6-13.5c-7.3-4.7-15.4-8.5-23.1-12.4
			c-8.4-4.2-16.7-8.2-25.7-11c-0.7-0.2-1.3,7.1,0,7.9c10.3,6.3,21.2,11.6,31.9,17.3c5.5,3,11.5,5.7,16.7,9.2
			c1.9,1.3,2.3,2.8,1.6-0.9c-0.6-3.4-0.6-2.3-3.1-2.2c-2,0.1-4.2-0.1-6.1-0.8c-0.9-0.3-1.7-1.2-2.6-1.5c-1-1.4-1.1-1-0.2,1.2
			c-0.1,2.1,0.2,2.6,1,1.5c0.7,0.1,3.2-1.8,4.6-2c1.4-0.2,2.8-0.1,4.2,0.1c4.8,0.7,9.3,2.9,13,5.9c10.7,8.7,13,22.2,11,35.3
			C476.3,76,476.9,81.3,477.3,79L477.3,79z"/>
	</g>
	<g display="inline">
		<path fill="#F8E088" d="M297.2,130.5c-8.4-11.9-17.6-22.8-22.5-36.8c-2-5.8-3.2-11.7-2.2-17.8c1.2-7.2,4.7-13.6,8.2-19.9
			c1-1.8,0.4-13.3-1-12.2c-6.3,5-8.8,14-10.1,21.7c-1.6,9.5-1.4,19.5,0.4,29c1.6,8.3,4.8,16.3,9.2,23.6c4.3,7,10.5,15,17.6,19.3
			C297.9,138,297.9,131.5,297.2,130.5L297.2,130.5z"/>
	</g>
	<g display="inline">
		<path fill="#F8E088" d="M288.7,93.9c-2.5-5.9-3.9-11.9-1.5-18.1c1.4-3.6,3.7-6.8,6.5-9.5c3-2.8,6.6-5,10.6-5.8
			c2.6-0.6,10.3-0.8,11,3.2c0.3-3.3,0.7-6.7,1-10c-3.9,1.8-23,9.1-19.2-1c2.8-7.5,9.2-13.1,15.4-17.8c2.3-1.7,0-12.9-1-12.2
			c-10.8,7.7-18.1,17.2-18.4,30.9c-0.1,4.7-0.2,13.2,3.7,16.7c4.5,4,15.3-1.2,19.8-3.3c2.3-1.1,1.3-8.1,1-10
			c-2.9-17.8-23-7.2-29.1,2.9c-6.9,11.5-6.8,28-0.4,39.7C288.8,100.9,289.2,95.1,288.7,93.9L288.7,93.9z"/>
	</g>
	<g display="inline">
		<path fill="#F8E088" d="M242.7,97c-6.1-11-12.4-21.6-20.7-31.1c-7.1-8-15.7-17.6-25.8-21.7c-0.8-0.3-1.1,8,0,9.1
			c8.3,8.2,17.9,14.7,26,23.2c7.5,7.8,14.9,16.1,20.4,25.5C242.5,101.9,243.4,98.2,242.7,97L242.7,97z"/>
	</g>
	<g display="inline">
		<path fill="#F8E088" d="M199.4,80.1c-4-2-10-6-14.5-4.5c-1.3,0.4-0.9,6.3,0,7.1c4,3.3,9.9,3.6,14.8,5.3
			C200.1,88.1,201,80.9,199.4,80.1L199.4,80.1z"/>
	</g>
	<g display="inline">
		<path fill="#F8E088" d="M222.8,169.2c-25.1-13.2-51-24.1-77.6-33.8c-11.8-4.3-25.6-11.2-38.5-9.3c-10.7,1.6-16.6,10.2-17,20.5
			c0,0.8,0.8,7.5,1.6,5.2c3.5-9.9,15.3-12.7,24.7-11.5c12.2,1.6,24.3,6.5,35.8,10.4c23.8,7.9,47.5,16.6,71.1,25.1
			C223.3,175.9,224.1,169.9,222.8,169.2L222.8,169.2z"/>
	</g>
	<g display="inline">
		<path fill="#F8E088" d="M125.6,160.5c-10-14.1-32.7-10.6-37.9,6c-1.7,5.5-1.7,14,5.3,14.7c7.9,0.9,15.4-3.8,19.2-10.4
			c0.9-1.6,1.7-9.8-0.6-10.6c-20.3-6.8-42.8-1.6-57.9,13.6c-1.4,1.4-0.9,5.4-0.7,7.2c0,0.5,0.6,5.1,1.7,4
			c14.7-14.8,37.3-20.5,57.2-14.1c-0.2-3.5-0.4-7-0.6-10.6c-2.4,4.2-5.9,7.5-10.5,9.2c-2.1,0.8-11.2,3.2-12.2-0.4
			c0.1,2,0.2,4.1,0.3,6.1c0.6-7.2,9.9-13,16.1-14.6c7.4-2,14,0.4,20.5,3.7C125.9,164.6,125.9,160.9,125.6,160.5L125.6,160.5z"/>
	</g>
	<g display="inline">
		<path fill="#F8E088" d="M127.5,108.1C109.7,95,97.1,75.9,91.8,54.4c-0.5-2-1.1-1.4-1.6,0c-0.8,2.1-0.2,5.3,0.2,7.4
			c4.5,21.8,17.8,40.7,36.9,52.2C127.9,114.4,128.6,108.9,127.5,108.1L127.5,108.1z"/>
	</g>
	<g display="inline">
		<path fill="#F8E088" d="M197.2,192.8c-5.7-2.5-11.6-5.1-17.8-6.2c-5.6-1-12.7-1.9-18.1,0.3c-2,0.8-1.4,11.9,0.3,11.7
			c6.1-0.4,11.9-2.8,18.1-3c6.1-0.3,11.9-0.1,17.7,1.9C197.6,197.6,198.3,193.3,197.2,192.8L197.2,192.8z"/>
	</g>
	<g display="inline">
		<path fill="#F8E088" d="M146.7,274c-14.6-19.3-41.6-23-64.2-21.1c-12,1-25.7,4.1-34.9,12.4c-8.1,7.2-10.3,18.6-7.8,28.9
			c0.9,3.8,1.5-4.3,1.4-5.3c-0.7-4.6,4.2-10,7.4-12.8c4.1-3.6,9.1-6.2,14.1-8.1c10.4-4,21.6-5.4,32.7-5.3
			c18.1,0.1,38.7,3.8,51.1,18.3C146.6,281.1,147.8,275.5,146.7,274L146.7,274z"/>
	</g>
	<g display="inline">
		<path fill="#F8E088" d="M65.1,237.3c-12.3-11.1-29.5-10.5-44.6-6.9c-1.6,0.4-1,8.8,0.2,8.7c14.8-0.9,30.6-3.9,44.4,3.3
			C65.3,242.6,65.9,238,65.1,237.3L65.1,237.3z"/>
	</g>
	<g display="inline">
		<path fill="#F8E088" d="M135.1,298.3c-10.2-5.1-23.9,0-29.2,9.7c-4.6,8.6-4.7,20.8-0.6,29.5c0.7,1.6,1.1-1,1.2-1.5
			c0.3-1.8,0.2-4-0.5-5.7c-3.2-8.5,1.4-17.3,8.3-22.5c3.1-2.3,6.9-4.1,10.7-5c3.5-0.8,6.7-0.2,10.2,0
			C135.9,302.9,135.9,298.6,135.1,298.3L135.1,298.3z"/>
	</g>
	<g display="inline">
		<path fill="#F8E088" d="M49.9,355.1c0.6,0,1.1,0,1.7,0c0.6,0,1.2,0.1,1.7-0.2c0.3-0.2,0.3-1.8,0-1.9c-0.5-0.3-1.1-0.2-1.7-0.2
			c-0.6,0-1.1,0-1.7,0C49.5,352.8,49.5,355.1,49.9,355.1L49.9,355.1z"/>
	</g>
	<g display="inline">
		<path fill="#F8E088" d="M64,329.1c-0.1-5.3-0.6-13.1-5.8-16c-5.4-3-15.1-2.3-20.2,1c-5.9,3.8-6.5,11.9-5,18.1
			c1.3,5.3,8.1,7.6,10.1,1.5c0.6-1.8,1.3-8.3-0.8-9.3c-5.4-2.7-11.8-1.6-15.4,3.5c-2.9,4.1-3.1,9.8-2.3,14.5c0.5,2.8,1.3,1,1.4-0.9
			c0.2-8.4,10.7-10.3,16.5-7c-0.3-3.1-0.5-6.2-0.8-9.3c-0.6,1.7-2.6,2.3-4.2,2c-1-0.1-1.8-0.6-2.4-1.3c-0.8,3.9-0.5,4.4,0.9,1.5
			c2.3-3,6.1-4,9.7-4.4c3.4-0.3,7-0.3,10.4-0.1c4.9,0.3,6.2,3.4,7,7.8C63.4,333.3,64,330.3,64,329.1L64,329.1z"/>
	</g>
	<g display="inline">
		<path fill="#F8E088" d="M136.5,410.3c-2-8.1-6.9-15.8-15.4-18c-8.5-2.2-17.2,2.3-21.2,9.9c-0.8,1.6-1.6,8.8,0.5,9.7
			c5.9,2.5,9.3-0.5,9.6-6.5c0.3-6.2-1.7-9.4-7.8-10.9c-13.7-3.2-27.2,3.9-36.4,13.6c-18.7,19.6-30.9,50.3-25.5,77.4
			c2.5,12.3,9.4,25.6,21.8,30.2c0.5,0.2,1.3-6.7,0-7.6c-9.7-6.4-16.8-15.1-19.7-26.5c-3.5-14,2.3-28.8,8.8-41.1
			c5.6-10.5,12.4-21,22-28.3c5.1-3.8,11-6.5,17.3-7.7c2.9-0.5,5.9-0.7,8.8-0.4c2.1,0.2,8.4,0.8,8.9,3.4c-0.1-2.4-0.1-4.8-0.2-7.1
			c-0.7,3.6-5.7,2.3-7.9,1.5c0.2,3.2,0.3,6.5,0.5,9.7c3.4-6.8,10.1-11.5,17.8-11.7c7.4-0.2,15.7,4.6,17.7,12
			C136.5,412.9,136.6,410.6,136.5,410.3L136.5,410.3z"/>
	</g>
	<g display="inline">
		<path fill="#F8E088" d="M91.5,381.6c-15.6-3.2-35.7-7.7-42.3-24.4c-0.6-1.6-1.1,1.1-1.2,1.5c-0.3,1.7-0.1,3.9,0.5,5.5
			c6.1,18.8,25.6,23.1,43.1,22.6C92.4,386.7,92.4,381.8,91.5,381.6L91.5,381.6z"/>
	</g>
	<g display="inline">
		<path fill="#F8E088" d="M130.9,448.4c-8.2-1.4-15.9,2.1-18.2,10.5c-1.6,5.7-1.8,15.5,3.1,19.8c0.6,0.6,0.8-5,0.4-5.7
			c-1.3-2.8-2.8-5.5-1.9-8.7c0.7-2.3,2.5-4.6,4.3-6.2c3.4-2.9,7.9-4.7,12.4-4.2C131.7,454,132,448.6,130.9,448.4L130.9,448.4z"/>
	</g>
	<g display="inline">
		<path fill="#F8E088" d="M163.5,538.2c-35.6,13.8-64,44.5-77,80.2c-0.5,1.4-0.4,3.3-0.2,4.7c0,0.2,0.6,2.9,1,2.2
			c17.2-34.5,43.1-62.3,76.3-81.9C164.6,542.8,163.8,538.1,163.5,538.2L163.5,538.2z"/>
	</g>
	<g display="inline">
		<path fill="#F8E088" d="M149,526.2c-7.8,7.7-16.6,16-28.2,16.2c-4.9,0.1-10.3-1.4-13.8-5.1c-1.3-1.4-2.9-3.9-2.9-5
			c0.2-2.2,2.5-4.7,4-6.2c1-1,0.3-8.6-0.5-8.3c-5.5,2.3-6.2,9-6,14.3c0.1,6.1,1.6,12.8,7,16.4c15.4,10.5,31.7-6.5,40.9-17.2
			C150.3,530.4,149.3,525.9,149,526.2L149,526.2z"/>
	</g>
	<g display="inline">
		<path fill="#F8E088" d="M140.1,624.3c-0.8,4.8-4.9,31.9,5.5,30.3c1.3-0.2,1.1-7.3-0.2-7.6c-7.7-2-4.6-14.4-4.3-20.1
			C141.1,626.3,140.5,621.9,140.1,624.3L140.1,624.3z"/>
	</g>
	<g display="inline">
		<path fill="#F8E088" d="M174.8,567.5c-4.3-5.2-11.9-6.9-17.7-3.1c-6.4,4.2-8.1,12.6-8.2,19.7c0,0.7-0.3,6,1.2,6.2
			c5.3,0.8,9.7-2.5,11-7.6c0.3-1,0.2-9.7-1-8.7c-9.8,8.5-12.4,26.5-5.4,37.5c0.5,0.8,0.9-2.1,0.9-2.1c0.1-1.4,0.1-3.3-0.4-4.6
			c-2-4.5-2.7-8.4-0.8-13.1c1.4-3.4,3.7-6.2,6.5-8.5c-0.3-2.9-0.7-5.8-1-8.7c-1.2,4.6-5.6,6.8-10,6c0.4,2.1,0.8,4.1,1.2,6.2
			c0.2-10.8,13.6-22.7,23.6-14.1C175,572.8,175.5,568.3,174.8,567.5L174.8,567.5z"/>
	</g>
	<g display="inline">
		<path fill="#F8E088" d="M296.9,589.4c1.8,11.4,5,22.7,5.4,34.3c0.4,10.2-2.6,19.9-8.6,28.2c-4.8,6.7-11,12.3-18.2,16.3
			c-7.3,4-15.2,5.7-23.2,7.7c-1.3,0.3-1.1,7.6,0.2,7.8c19.1,3.1,38.3-14.2,45.9-30.3c10.3-21.6,3.1-44.7-0.5-67
			C297.3,582.9,296.7,588.2,296.9,589.4L296.9,589.4z"/>
	</g>
	<g display="inline">
		<path fill="#F8E088" d="M279.2,590.9c2.7,6.7,5.5,13.4,7.2,20.4c1.8,7.3,3.7,16.2,2.4,23.6c-1.1,6.6-6.4,9.8-12.2,5.6
			c-4.9-3.6-8.6-9-11.1-14.4c-1.1-2.4-1.4,4.9-1.4,5.4c0.3,4.5,1.8,6.7,5.9,8.5c2.2,1,4.3,2.2,6.5,3.2c0.2,0.2,0.4,0.4,0.6,0.6
			c-0.6-1.4-1.2-1.3-1.8,0.4c-1.3,0.9-2.4,2.7-3.5,3.8c-10.1,9.7-24.9,14.2-38.7,13.2c-1-0.1-1.3,7.8,0.2,8.1
			c15.8,3.1,32.2-3.1,42.3-15.7c3.6-4.5,5.5-12.1,2.4-17.5c-1.1-2-3.1-3-5.1-4c-1.2-0.6-2.4-1-3.6-1.6c-0.5-0.2-3.3-2.1-3.3-1.6
			c-0.5,1.8-0.9,3.6-1.4,5.4c2.9,6,8.6,15.4,15.8,16.7c7.2,1.2,9.4-8.3,9.9-13.6c1.5-16.3-2.3-36.5-11-50.4
			C279.3,586.9,278.9,590.1,279.2,590.9L279.2,590.9z"/>
	</g>
	<g display="inline">
		<path fill="#F8E088" d="M253.8,578.1c-5.7,16.6-23.8,24.2-39.4,15.5c0,0-2.1,8.4,0.2,9.7c17.9,9.8,37.8-2.4,40-21.9
			C254.7,580.9,254.2,576.9,253.8,578.1L253.8,578.1z"/>
	</g>
	<g display="inline">
		<path fill="#F8E088" d="M321.2,651.9c8.4,10.1,20,23.6,34.7,18c1.6-0.6,0.2-7.2-0.2-7.1c-14.2,5.4-25.9-5.6-34.4-15.7
			C321.3,647.1,320.4,650.9,321.2,651.9L321.2,651.9z"/>
	</g>
	<g display="inline">
		<path fill="#F8E088" d="M640.4,105.7c-1.3-12.1,2.9-24.3,10.3-33.9c3.2-4.2,7-7.9,11.3-10.9c2-1.4,5.3-4,7.9-4.2
			c1.2-0.1,2.8,0.5,2.9,0.8c0.1,0.9-2.3,2.6-2.8,3c0.3,0.2,0.7,0.4,1,0.6c-0.1-0.9-0.2-1.8-0.3-2.7c-0.4,0.5-0.8,1-1.2,1.5
			c0.9,1.8,1.3,1.7,1.3-0.2c0.7-1.5,0.5-1.8-0.6-1c-0.9,0.7-1.9,0.6-2.8-0.3c-0.3-0.3-0.6-0.6-0.9-0.9c-2.3-2.8-0.5-6.9,1.1-9.5
			c2.7-4.4,7-7.4,11.9-9.1c10.3-3.6,21.7-2.7,32.4-4.7c1.6-0.3,1.3-9.4-0.2-9.5c-18.7-1.1-45.5-0.4-48.6,23.1
			c-0.6,4.8-1.5,21.5,5.9,22.6c4.2,0.6,4.9-5.2,5-8.1c0.2-5.1-0.9-9.3-4-13.3c-0.7-0.9-1.1,1.3-1.2,1.5c-1.7,6.7-1.4,14.4,1.3,20.7
			c0.2,0.5,0.5,1,1,0.6c5.4-4.9,7.2-16.8,3.2-23.2c-4.5-7.1-17.3,6.3-20.4,9.9c-12,13.6-16.7,31.9-14.3,49.7
			C639.7,111.5,640.5,106.9,640.4,105.7L640.4,105.7z"/>
	</g>
	<g display="inline">
		<path fill="#F8E088" d="M721,106.9c3.3-18.3,13-33.8,25.5-47.2c1.2-1.3,0-8.3-0.7-7.8c-14.8,12.2-23.2,30.9-26.2,49.6
			c-0.2,1.4-0.6,4.1,0.1,5.4C720.3,107.7,720.7,108.6,721,106.9L721,106.9z"/>
	</g>
	<g display="inline">
		<path fill="#F8E088" d="M737.9,93.6c1.7-3.2,4.1-5.9,7.1-8c3.1-2.1,6.7-3.1,10.1-4.6c0.8-0.4,0.7-4.9-0.1-5
			c-7.5-1-14.5,6.2-17.6,12.3c-0.5,1-0.4,2.3-0.3,3.4C737.2,91.9,737.6,94.1,737.9,93.6L737.9,93.6z"/>
	</g>
	<g display="inline">
		<path fill="#F8E088" d="M529.5,97.7c-4.5-10.5-8.9-21.1-13.5-31.6c-0.6-1.4-1,0.9-1.1,1.3c-0.3,1.5-0.2,3.6,0.4,5
			c4.4,10.5,9,21,13.5,31.5c0.6,1.4,1-1,1.1-1.3C530.2,101.2,530,99,529.5,97.7L529.5,97.7z"/>
	</g>
	<g display="inline">
		<path fill="#F8E088" d="M514,46.2c-2.6-11.2,0.7-20.8,6.1-30.4c0.7-1.2-0.3-6.1-0.5-5.8c-8.5,10.7-9.3,26.8-6.2,39.6
			C513.8,51.5,514.2,47,514,46.2L514,46.2z"/>
	</g>
	<g display="inline">
		<path fill="#F8E088" d="M500.7,77c-4.6-5.4-12.8-14.3-20.6-9.2c-5.2,3.4-6.4,11.7-3.9,17.1c0.8,1.6,1-4.8,0.8-5.6
			c0.7,2.6,0.1,0.7,1.3,0.1c1.1-0.5,2.1-1.6,3.3-2.1c2-0.9,4.2-1.2,6.3-0.8c5.1,0.9,9,4.9,12.5,8.5c0.8,0.8,1-2.7,1-2.9
			C501.5,80.7,501.7,78.1,500.7,77L500.7,77z"/>
	</g>
	<g display="inline">
		<path fill="#F8E088" d="M891.5,123.4c3.8-11.2,11.1-20.8,20.7-27.6c5-3.5,10.5-6.2,16.3-8c5.7-1.8,11.3-1.5,16.9-2.7
			c1.6-0.4,1.4-9.7-0.2-9.9c-5.7-0.8-13,2-18.3,4.2c-5.5,2.3-10.7,5.4-15.3,9.1c-9.7,7.8-17,18.1-20.9,29.9
			C890.5,119.7,891.2,124.4,891.5,123.4L891.5,123.4z"/>
	</g>
	<g display="inline">
		<path fill="#F8E088" d="M946.2,80.4c0.2-2.9,0.3-5.9,0.3-8.8c0-0.9,0.3-6.1-1-6.4c-1.3-0.3-1.3,2.9-1.3,3.7c0,2.9-0.1,5.9-0.1,8.8
			c0,0.5,0.9,7.8,1.6,6.6c1.1-1.7,2.3-3.1,4.1-4.2c-0.2-3.7-0.4-7.5-0.6-11.2c-2.3,4-5.3,7.5-9,10.2c-1.9,1.4-4.1,2.6-6.3,3.5
			c-1.1,0.5-2.4,0.7-3.5,1.1c-2.3,0.9-1.4-1.4-2.3,2.9c-1.2,5.7,0,1.2,0.8-0.3c0.4-0.8,0.9-1.6,1.3-2.4c1.1-1.8,2.2-3.5,3.5-5.1
			c2.5-3.3,5.4-6.2,8.6-8.8c6.5-5.3,14.2-9.1,22.3-11.1c3.8-0.9,7.7-1.5,11.6-1.6c3.9-0.1,9.5,1.7,13,0.5c1.8-0.6,1.4-9.1,0.1-10.1
			c-3.9-3-10.7-2.4-15.4-2c-5,0.4-10,1.5-14.8,3.2c-9.8,3.5-18.9,9.7-25.5,17.8c-5.4,6.6-12,17.9-7.4,26.7c2.4,4.6,8.8,0.8,12.1-1.1
			c5.1-3,9-7.2,11.9-12.3c0.8-1.5,0.6-12.1-0.9-11c-2,1.4-3.2,2.9-4.4,5c0.5,1.7,1.1,3.5,1.6,5.2c0-3,0-5.9,0-8.9
			c-0.8,0-1.5,0-2.3,0.1c0,3.1,0.1,6.1,0.3,9.2C944.7,81.5,945.9,84,946.2,80.4L946.2,80.4z"/>
	</g>
	<g display="inline">
		<path fill="#F8E088" d="M921.1,60.5c3.7-7,6.4-14.4,7.7-22.2c0.5-3.1,1.9-14.1-2.6-14.7c-1.3-0.2-0.6,6.5-0.2,7.2
			c1.8,3.5-0.3,8.2-1.3,11.7c-1.2,3.9-2.6,7.7-4.3,11.4c-0.5,1.2-0.4,3.2-0.2,4.5C920.2,58.6,920.8,61.2,921.1,60.5L921.1,60.5z"/>
	</g>
	<g display="inline">
		<path fill="#F8E088" d="M1032.3,197.7c9.6-15.5,24.2-27.7,40.9-34.9c8-3.5,16.6-5.8,25.3-6.8c4.6-0.5,9.3-0.8,13.9-0.3
			c2.4,0.3,4.8,0.8,6.9,1.8c1.7,0.8,5.7,3.4,5.9,5.5c0.1,1,0.2,4.3,1.6,3.8c1.2-0.4,0.8-6.2,0.7-6.9c-1.2-11.2-8.5-15.9-19.4-15.6
			c-10.3,0.3-20.7,2.7-30.2,6.6c-19.5,8-35.5,22.2-46,40.5C1030.9,193,1032.3,197.7,1032.3,197.7L1032.3,197.7z"/>
	</g>
	<g display="inline">
		<path fill="#F8E088" d="M1099.5,185.2c7.3,2.3,13.6,6.3,18.8,12c2.5,2.7,4.6,5.6,6.4,8.8c1.1,2.1,1.8,6,3.9,7.2
			c0.6,0.4,0.6-5,0.5-5.4c-2-14.7-16.1-25.4-29.7-28.8C1098.8,178.9,1098.2,184.8,1099.5,185.2L1099.5,185.2z"/>
	</g>
</g>
<g id="Layer_5" display="none">
	<g display="inline">
		<path fill="#F8E088" d="M852,179.4c12.3-1.4,23.9-8.9,33.5-16.3c10.9-8.4,20.2-18.8,28.2-29.9c7.6-10.5,16.5-22.7,17.7-36
			c0.5-5.5,0.5-12.8-2.9-17.5c-3.2-4.5-8.4-4.9-12.8-1.9c-1.4,0.9-0.5,10.1,0.5,9.8c4-1.1,10.2-0.1,11.8,4.6
			c1.4,4-4.5,12.2-6.6,15.8c-5.4,9.4-11.7,18.3-18.7,26.5c-6.7,7.9-14.2,15.3-22.5,21.6c-8.8,6.8-18.6,11.4-28.5,16.3
			C850.6,173,851,179.5,852,179.4L852,179.4z"/>
	</g>
	<g display="inline">
		<path fill="#F8E088" d="M217.2,197.6c-5.2-27.8-18.2-53.4-38-73.6c-9.6-9.8-20.7-18.3-32.8-24.8c-5.1-2.8-14-9-19.8-6.2
			c-5.4,2.6-4.6,11.4-3.4,16.1c0.6,2.1,1.2,1.8,1.8,0c0.8-2.4,0.4-5.9-0.2-8.3c-0.1-0.4-0.2-0.8-0.3-1.1c0.1,2.4,0.3,4.8,0.4,7.2
			c0.2-2.7,6.7-1.8,8-1.4c3,0.8,5.8,2.2,8.6,3.5c5.7,2.6,11.1,5.6,16.3,9.1c9.6,6.3,18.4,13.9,26.2,22.4
			c15.8,17.4,27.3,38.8,32.2,61.8C216.7,205.1,217.4,198.5,217.2,197.6L217.2,197.6z"/>
	</g>
	<g display="inline">
		<path fill="#F8E088" d="M199.1,371.5c11.5-11.3,6.4-35.7-9.4-40.3c-3.6-1-9.1-1.5-12.4,0.7c-3.2,2.1-3,6.9-2.6,10.3
			c0.4,4.1,2.1,7.3,5.9,9.3c3.6,1.9,6.7,1.5,7.6-2.7c4.1-18.7-15.1-31.9-30.1-37.3c-20.2-7.3-44.8-9.7-64.2,1.3
			c-18.1,10.4-28.2,31-24.3,51.7c0.9,4.9,1.8-1.6,1.6-3.3c-1.2-12.2,6.5-24,15.5-31.7c10-8.5,23-12.3,36-12.7
			c13-0.4,26.3,2.3,38.3,7.2c5.6,2.3,11.1,5.2,15.7,9.1c1.9,1.6,3.7,3.5,5.2,5.5c0.9,1.2,1.7,2.4,2.4,3.7c0.4,0.8,1.5,5,1.5,2.4
			c0.2-1.7,0.3-3.3,0.5-5c-1.8,4.7-9.2-1.7-10.1-4.1c0.2,2.1,0.5,4.3,0.7,6.4c0-0.4,0-0.8,0-1.2c-0.3,1.3-0.5,2.7-0.8,4
			c2.9-5.5,13.7-3,18-0.8c3.1,1.6,6.1,4.4,7.6,7.6c2.2,4.8-0.5,9.9-3.3,13.7C197.7,366.7,198.7,371.9,199.1,371.5L199.1,371.5z"/>
	</g>
	<g display="inline">
		<path fill="#F8E088" d="M254.8,498c-8.9,9.8-17.2,19.6-28,27.4c-5.4,3.9-11.3,7.8-17.6,10.2c-6.5,2.5-15,1.5-15.1-7.3
			c0-0.5-0.1-5.3-1.1-5.2c-1.2,0-1.2,3.1-1.2,3.9c-0.1,6.3-0.1,16.1,5.3,20.6c6.3,5.2,15.8-1.7,21.2-5.2c14.8-9.6,28.2-22.8,37-38.2
			C256,503,255.2,497.6,254.8,498L254.8,498z"/>
	</g>
	<g display="inline">
		<path fill="#F8E088" d="M145.3,50.4c-5.1-2.9-8.7-7-12-11.8c-0.7-1-1.4-2-2-3.1c-0.4-0.7-0.8-1.4-1.3-2.2
			c-0.4,1.5-0.1,1.8,0.9,0.8c2.8-0.4,4.2-2.4,7.3-0.4c0.9,0.6,1.8-7.8,0.3-9.2c-3.2-2.9-8-2.7-10.1,1.4c-1.7,3.4-1.5,8.4-0.7,12
			c1.7,7.9,10,16.6,17.7,18.8C146.1,56.9,146.5,51,145.3,50.4L145.3,50.4z"/>
	</g>
	<g display="inline">
		<path fill="#F8E088" d="M639.7,140.2c4.2-21.3-0.6-46.5,13.5-64.8c5.5-7.2,13.2-11.7,22.3-11.8c8.1-0.1,16.8,3.3,20.2,11.2
			c0.7,1.7,1.2-1.1,1.2-1.6c0.3-1.8,0.2-4.2-0.5-5.9c-3.1-8-10.4-13-18.8-13.9c-9.7-1-18.5,3.5-24.5,11.1
			c-15.8,20-10.5,47.3-14.8,70.6c-0.2,1.4-0.6,3.9,0.1,5.2C639.1,141,639.4,141.8,639.7,140.2L639.7,140.2z"/>
	</g>
	<g display="inline">
		<path fill="#F8E088" d="M1088.4,236.9c13.6,13.2,34.1,33.7,24.5,54.4c-4.4,9.6-13.6,13.8-23.6,15.2c-2.1,0.3-4.5,0.7-6.7,0.4
			c-3.6-0.6-7.5-5.1-2.3,3.5c0.5,0.9,1.7,1.3,1.9,2.5c-0.2-1.4-0.3-0.2-0.7,0.4c-1.3,1.9-2,4.2-3.5,6.1c-6,7.6-16.1,13.2-25.8,13.3
			c-4.3,0-8.8-1.1-12.2-3.8c-1.6-1.2-2.9-2.7-4-4.4c-0.5-0.8-1-1.6-1.4-2.5c-0.1-0.3-1-3.3-1.1-1.8c0.1-1.9,1.9-3.4,2.9-4.3
			c0.2,0,0.4,0,0.5,0c1,1.7,1.3,1.2,0.9-1.6c0.2,0.2-1.9,2.9-1.8,2.9c-3.7,4.4-10.1,6.2-15.3,8.1c-10.4,3.7-21.1,6.4-32,8
			c-12.3,1.8-24.9,2.4-37.3,1.6c-12.6-0.8-25.1-3.4-37.5-5.8c-0.8-0.2-1.3,7.2,0.2,7.9c25.7,11,56.5,11.8,83.7,6.5
			c6.7-1.3,13.3-3,19.8-5.1c5.7-1.9,12.2-3.7,17.1-7.5c4.4-3.4,5.8-8.2,5.9-13.6c0.1-4.8-0.2-10.6-4.2-13.8c-0.2-0.3-0.5-0.3-0.7,0
			c-6.4,6.6-6,18.5-3.1,26.6c3.6,10.2,13,15.6,23.7,13.9c10.5-1.6,21.6-9.2,26-19c3.2-7.1,5.1-21.8-2.9-26.5c-0.2-0.3-0.4-0.3-0.7,0
			c-3.7,2.4-3,9.8-2,13.4c1.5,5.9,7.1,5.6,12.1,4.8c13.1-2,23.3-8.7,27-21.8c2.9-10.1,2.3-21.7-1.4-31.5
			c-5.1-13.2-15.4-23-25.6-32.4C1088.4,230.7,1087.3,235.8,1088.4,236.9L1088.4,236.9z"/>
	</g>
	<g display="inline">
		<path fill="#F8E088" d="M897.3,470.8c-3,14.6-6.2,31.1,0.1,45.3c5.9,13.2,19.6,17.1,33,17.9c25.8,1.5,52.1-3.9,76.4,7.7
			c15.9,7.6,24.9,21,35.5,34.4c0.7,0.9,1.1-2.6,1.1-2.7c0.2-1.7,0.2-4-0.5-5.6c-10.3-23.3-31.3-39.5-56.5-42.9
			c-10.9-1.5-21.9-1-32.8-0.2c-13.9,1.1-29.2,3.9-42.6-1.4c-20.2-8-16.2-31.9-12.8-49.1C898.3,473.5,897.7,468.7,897.3,470.8
			L897.3,470.8z"/>
	</g>
	<g display="inline">
		<path fill="#F8E088" d="M754.3,657.2c19.7,4.2,41.6-11.5,44.7-31.3c3.1-19.5-8.9-43.7-28.1-49.9c-1.3-0.4-3.2,16.6,0.4,16.5
			c7.7-0.2,13.9,5.5,18.1,11.4c2.3,3.3,4.2,6.8,5.7,10.6c1.1,2.6,1.8,4.2,0.9,7c-0.7,2.1-1.7,4.2-2.8,6.2
			c-8.1,14.5-23.2,21.7-39.1,24C753.3,651.8,753.4,657,754.3,657.2L754.3,657.2z"/>
	</g>
	<g display="inline">
		<path fill="#F8E088" d="M767.7,581.2c-0.6-1.6-1.2-3.1-1.8-4.7c-0.2,2.1-0.4,4.2-0.6,6.3c6.8,14.7,13.8,28.5,17.1,44.5
			c0.5-3.4,1-6.7,1.4-10.1c-6.9-17.3-13.6-34.8-18.6-52.8c-0.3,4.1-0.5,8.2-0.8,12.3c7.6-0.6,15-0.6,22.6,0.8
			c6.6,1.2,15,3.2,20.4,7.4c-0.2-4.4-0.5-8.9-0.7-13.3c-0.1,0.3-0.3,0.6-0.4,0.9c-0.8,1.7-1.6,12.1,1.1,12.6c0.2,0,0.3,0.1,0.5,0.1
			c2,0.4,1.2-10.1,1.1-11c-0.7-4.5-1.6-5.9-5.7-7.7c-4-1.7-8.1-3-12.4-3.9c-8.8-1.9-18-2.1-26.8-0.2c-3,0.6-1.1,11.6-0.5,13.4
			c5.9,17.7,11.8,35.3,19.1,52.5c0.9,2.2,1.6-0.8,1.8-1.7c0.5-2.6,0.4-5.8-0.3-8.4c-3.9-14.1-8.8-30.6-18.5-42
			c-0.7-0.8-0.9,2.4-0.9,2.5c-0.1,1.1-0.2,3.6,0.7,4.4c0.7,0.7,1.3,1.5,2,2.2C767.7,585.7,768,581.8,767.7,581.2L767.7,581.2z"/>
	</g>
	<g display="inline">
		<path fill="#F8E088" d="M403.8,602c-3.2-12.4-16-19.1-28.1-14.4c-13,5.1-19.4,18.8-22.4,31.6c-2.7,11.3-3.5,26.4,4.1,36
			c8.2,10.4,25.3,12.2,37.3,8.7c15-4.4,20.9-18.5,18.1-33.1c-0.7-3.7-1.7,2.4-1.6,3.3c0.1,5.7-6.1,11.9-10.6,14.5
			c-5.3,3.2-11.7,4.4-17.8,4.5c-11.5,0.2-28.6-4.6-28.6-18.9c0-12.7,7.6-28.2,18.5-34.9c10-6.1,26.3-5.7,30.5,7.3
			C403.5,607.9,404.1,602.9,403.8,602L403.8,602z"/>
	</g>
	<g display="inline">
		<path fill="#F8E088" d="M397.3,626.7c-1.2,12.8,6.7,28.9,22,25c13.9-3.6,18.3-24.3,8.9-34.5c-10.2-11-30.6-7.6-33.7,7.8
			c-1.2,5.9-1.1,14,2.9,19c4,4.9,10.8,5.7,15.5,1.5c1.3-1.1,0.1-9.2-0.5-8.9c-3,1.4-6.4,1.5-9.5,0.4c-2-0.7-3.7-1.8-5.1-3.4
			c-0.1-0.1-1.5-1.3-1.4-1c-0.2-0.8,1.1-3.1,1.5-3.7c4.8-8,15.8-9.1,23.8-5.6c4.3,1.9,10.3,6.1,6.9,11.2c-2.3,3.5-6.1,6.1-10.2,7.1
			c-7.5,2-20.1-2.6-19.7-12.2C398.8,628,397.7,622.5,397.3,626.7L397.3,626.7z"/>
	</g>
	<g display="inline">
		<path fill="#F8E088" d="M422.1,608.6c-3.5,12.4,4,29.1,11.1,38.9c3.3,4.5,11.9,10.1,15.7,2.9c1.8-3.5,3-14.1-0.9-16.3
			c-0.9-0.5-0.8,8-0.6,8.7c0.7-4.1,0.3-5.2-1.2-3.1c-1.1,0.9-2.2,1.3-3.6,1.4c-1.5,0.2-3.1-0.1-4.4-0.7c-3.3-1.4-5.4-4.6-7.3-7.5
			c-4.8-7.3-7.3-14.4-8.2-23C422.9,609.8,422.4,607.6,422.1,608.6L422.1,608.6z"/>
	</g>
	<g display="inline">
		<path fill="#F8E088" d="M453.8,609.9c-5.8-4.1-14.8-2.7-16.9,5c-0.8,3.1-1,8.9,0.8,11.7c2.1,3.4,8.9,3.4,12.4,4.1
			c4.9,1,10,1.5,14.7,3c2.2,0.7,3.7,2.1,5.7,3c0.8,1.2,1.1,1.1,0.7-0.2c0.1-1.2-0.1-1.4-0.5-0.5c-0.8,0.3-1.7,1.9-2.5,2.6
			c-3.5,2.9-8.5,5.4-13.1,5.6c-2.5,0.1-5.3-0.5-7.3-2.1c-0.6-0.4-1.3-1.6-1.9-1.9c-1,5.3-0.8,7,0.5,5c0.3-0.5,0.8-0.9,1.3-1.2
			c2.2-1.9,0.1-13.6-1.1-12.8c-3.7,2.6-3.8,7.8-3.7,11.9c0.1,4.3,0.6,9.9,4.3,12.7c7.6,5.7,20.3-1.9,24.8-8.6
			c4.1-6.2,3.9-18.7-2.6-23.2c-3.8-2.7-8.7-3.3-13.2-4.2c-3.1-0.6-6.2-1.2-9.4-1.8c-2.7-0.5-7.1-0.4-8.9-2.7c0.3,1.4,0.7,2.7,1,4.1
			c-0.1-0.5-0.1-1.1-0.2-1.6c-0.1,2.2-0.3,4.3-0.4,6.5c2.1-6.2,9.1-9,15.3-8.1C454.6,616.3,454.6,610.5,453.8,609.9L453.8,609.9z"/>
	</g>
	<g display="inline">
		<path fill="#F8E088" d="M470.6,621.8c6.2,4.3,16,6.4,23,2.7c5.8-3.1,7.5-8.9,7.4-15.1c-0.1-6-1.5-12.1-7.4-14.8
			c-6.4-3-13-0.3-17.8,4.3c-10.2,9.9-15.7,29.1-7,41.6c6.9,10,28.6,20.2,33.4,3c0.6-2.2,0.6-4.7,0.3-7c0-0.4-0.8-4.4-1.5-3.2
			c-5.5,9.1-17.1,6.2-24.4,1.3c-1.8-1.2-3.5-2.5-5-4.1c-0.8-0.8-1.6-1.7-2.3-2.7c-0.1-0.2-1.8-2.8-1.5-1c-0.4-2.6,3-7.3,4.3-9.4
			c1.3-2,2.7-3.9,4.3-5.6c3.2-3.3,7.4-5.9,12.1-5.9c1.8,0,3.7,0.3,5.4,1.1c0.9,0.4,1.9,1,2.6,1.7c0.3,0.3,0.5,0.5,0.8,0.8
			c0.7,1.3,0.9,1.2,0.7-0.2c0.2-1.4,0-1.4-0.5-0.1c-0.2,0.6-0.6,1.1-0.9,1.6c-0.7,1-1.5,1.9-2.4,2.7c-2.1,1.8-4.5,2.9-7.2,3.5
			c-5.5,1.2-11-0.5-16.4,0.5C469.9,617.8,470.1,621.5,470.6,621.8L470.6,621.8z"/>
	</g>
	<g display="inline">
		<path fill="#F8E088" d="M529,610.6c7.7,0.4,16.4-0.8,20.4-8.4c2.8-5.5,2.8-14-0.3-19.4c-3.9-6.9-13.4-9.5-20.8-8.8
			c-8.2,0.8-15.5,5.5-19.8,12.5c-4.2,6.8-5.6,14.8-5.4,22.7c0.2,7.3,1.4,15.2,8.1,19.3c8.4,5.2,18.3,2.5,27.4,2.7
			c4.3,0.1,9,0.8,12.5,3.5c4.9,3.7,3.5,7.8,0.8,12.5c-4.9,8.6-14.1,14-24,14.5c-5.1,0.2-10.3-0.6-15-2.7c-2.9-1.3-4.8-3.1-7.1-5.1
			c-0.2-0.1-1.2-2.1-0.9-0.6c-0.4-1.6,2-4.6,2.8-5.9c1-1.6,0-10.3-0.8-9.6c-5.9,5.7-6.3,14.9-4.7,22.5c1.8,8.6,9,13.1,17.3,14.7
			c16.7,3.2,32.7-8.5,36.9-24.5c1.8-7.1,2.2-16.3-1.3-23c-4-7.7-13.6-8.4-21.3-8c-8.4,0.5-19.4,2.2-25.8-5c-6.6-7.5,1.8-20,8.3-24.8
			c7.7-5.9,19.5-7,27.7-1.7c1.3,0.8,2.4,1.7,3.4,2.8c1.2,1.3,1.2,1.3,0.9,2.8c-0.3,2-2.6,4.3-4.1,5.6c-4.2,3.6-10.1,5.2-15.4,6.2
			C528,605.6,528.2,610.6,529,610.6L529,610.6z"/>
	</g>
	<g display="inline">
		<path fill="#F8E088" d="M554.9,591.9c-2.1,9-3.9,18-3.6,27.3c0.2,7.3,1.1,17,6.8,22.4c5.6,5.3,16.4,5.7,22.9,2
			c6.9-3.9,7.6-12.4,6.5-19.5c-0.8-5-1.9,0.4-1.9,2.4c0-2.1-0.6,0.5-1.2,1.4c-0.6,1-1.4,1.8-2.3,2.6c-2,1.8-4.6,2.8-7.2,3.4
			c-4.5,1.1-10,1.1-14.3-0.8c-12.8-5.8-7.1-27.5-4.8-37.9C555.9,594.5,555.4,589.8,554.9,591.9L554.9,591.9z"/>
	</g>
	<g display="inline">
		<path fill="#F8E088" d="M534.6,620.7c8.3,3.1,23.2,3,29.3-4.7c4.3-5.5,4.5-18.1-1.1-22.8c-1.2-1-1.4,3.4-1.4,3.9
			c-0.1,1.6-0.3,5.4,1,6.7c0.6,1.2,1.1,1.3,1.3,0.3c0.7-1.4,0.4-0.9-0.8,1.4c-0.6,0.9-1.3,1.6-2,2.3c-2.4,2.4-5.5,4-8.7,5.2
			c-6,2.3-11.5,2.4-17.8,2.3C533.7,615.3,533.7,620.4,534.6,620.7L534.6,620.7z"/>
	</g>
	<g display="inline">
		<path fill="#F8E088" d="M581.8,603.2c-2,7.7-2.9,15.7-1.5,23.6c1.3,7,6.9,18.4,15.7,13.6c7.6-4.1,9.9-15.3,10.9-23.1
			c1.3-10,0.4-20.4-2.9-30c-0.3-1-0.9-0.9-1.3,0c-5,13.4-6.6,29.7-2.2,43.5c1.6,5,5.6,11.1,11.7,10.4c6.8-0.8,6.9-9.1,6.5-14.2
			c-0.1-0.7-0.2-4-1.4-3.8c-1.1,0.2-0.9,4.8-0.9,5.3c0,0.5,0,0.9,0,1.4c0.2-1.6,0.3-3.2,0.5-4.8c-2.7,9-13,2.8-15.1-3
			c-2.9-8-0.7-17.2,2.4-24.7c-0.4,0-0.8,0-1.3,0c3.1,9.6,2.4,26.1-7.9,31.8c-3.9,2.1-8.1,0.6-10.8-2.8c-4.3-5.4-2.8-12.3-1.6-18.5
			c0.2-1,0.4-2.9,0-3.9C582.6,603.7,582.1,602,581.8,603.2L581.8,603.2z"/>
	</g>
	<g display="inline">
		<path fill="#F8E088" d="M610.8,604.4c-1.6,11-2.6,27.4,11.1,31.1c15,4,19.5-12.5,17.5-23.9c-1.1-6.2-4.5-12.2-10.9-14.2
			c-7.1-2.2-12.5,2.8-15.5,8.7c-3,5.9-4.4,12.9-3.9,19.6c0.4,5.4,3.8,13.7,10.4,9.1c1.1-0.8,0.5-8.2-0.4-8c-2,0.5-3.8,0.1-5.6-1.2
			c-2.4-1.7-2.2-2.5-1.4-5c1-3.2,2.4-6.5,4.6-9.1c5.6-6.6,15.3-5.2,19.6,2.2c4.7,7.9-7,13.5-13.3,13.3c-3.1-0.1-6.2-1.1-8.4-3.2
			c-4.6-4.4-3.6-11.1-2.9-16.8C611.7,606.3,611.1,602.5,610.8,604.4L610.8,604.4z"/>
	</g>
	<g display="inline">
		<path fill="#F8E088" d="M632.9,552.4c-1.1,24.6-0.2,49.8,5,73.9c1.5,7.1,4.1,19,12.8,20.5c10.9,1.9,11.8-13.4,10.8-20.3
			c-0.2-1.4-0.5-3.8-1.9-2.2c-1.3,1.6-0.5,6.6-0.3,8.4c-0.7-5.7-1-1.8-4-0.3c-1.1,0.6-2.4,0.9-3.6,1c-3.2,0.1-5.9-1.6-7.8-4.1
			c-4.6-6-5.5-15.4-6.7-22.6c-2.8-17.8-2.5-35.7-3.3-53.6C633.8,551.2,633,549.5,632.9,552.4L632.9,552.4z"/>
	</g>
	<g display="inline">
		<path fill="#F8E088" d="M650,598.3c0,6.1,1.1,12.2,2.3,18.2c1.1,5.4,2.1,12.9,6.4,17c3.1,3,7.8,3.2,9.9-0.9
			c1.9-3.8,1.6-10.1-0.2-13.8c-1-2-1.5,1.3-1.6,2c-0.3,2.2-0.3,5.3,0.6,7.4c0.9-4.5,0.4-5.9-1.5-4.4c-0.6,0.5-1.3,0.8-2.1,0.7
			c-1.3,0.2-2.5-0.2-3.6-0.8c-3-1.5-4.2-4.5-5.2-7.6c-2-6.1-2.8-12.5-4.3-18.7C650.2,596.1,650,598,650,598.3L650,598.3z"/>
	</g>
	<g display="inline">
		<path fill="#F8E088" d="M639.1,583.4c2,6.8,5.6,12,11.1,16.5c0.2,0.2,0.3,0.2,0.5,0c3.1-5.8,2.5-12.8,2.8-19.1
			c0.4-7.7,4.9-16.4,13.9-15.1c1.2,0.2,1.9-10.4-0.3-10.9c-10.3-2.7-14.7,8.5-15.7,16.7c-0.6,5.3,0.5,11.3-0.8,16.4
			c-2,8.1-10.1-3.8-11.2-7.1C639.3,580.1,639,582.9,639.1,583.4L639.1,583.4z"/>
	</g>
	<g display="inline">
		<path fill="#F8E088" d="M666.4,617.4c7.8,4.1,17,4.3,25.1,0.6c6.6-3.1,9-7.8,9-15c0-6.2-1.4-13.1-7.5-16.2
			c-6.8-3.4-14.4-0.3-19.5,4.6c-9.7,9.3-14.3,27.7-5.6,39.2c10.2,13.5,28,6.7,35.7-5.4c1.3-2,0.9-5.3,0.7-7.5c0-0.5-0.7-5.4-1.7-4.2
			c-5.8,6.9-15,12.7-24.3,10.7c-5-1.1-9.3-4.2-11.6-8.8c-0.1,0.4-0.1,0.8-0.2,1.1c0.2-0.7,0.4-1.4,0.7-2.1c0.6-1.6,1.4-3.1,2.3-4.5
			c1.3-2.2,2.9-4.2,4.6-6c3.6-3.7,8.3-6.3,13.6-6.2c2.4,0.1,4.7,0.7,6.7,2c0.2,0.1,2.8,2.7,2.8,2.7c0.3-0.6,0.5-1.3,0.8-1.9
			c-0.4,1-0.9,1.8-1.6,2.5c-6.8,8.3-20.4,9-30.1,7.6C665.3,610.7,665.3,616.9,666.4,617.4L666.4,617.4z"/>
	</g>
	<g display="inline">
		<path fill="#F8E088" d="M731.3,604.4c2.8-2.1,2.2-7.4,1.8-10.4c-0.6-3.9-2.4-7.8-6-9.7c-5.4-2.9-12.7-0.6-17.5,2.6
			c-4.1,2.8-4.4,7.6-3.5,12.2c1.1,5.5,7.9,6.1,12.5,7.5c3.2,1,6.6,1.9,9.3,4c1.1,0.9,2.2,1.9,3,3.1c1.3,2.3,1.4,2.5,0.3,0.6
			c-0.3,0.4-0.5,0.8-0.8,1.2c-1,0.6-1.8,2.1-2.8,2.9c-1.3,1-2.9,1.8-4.4,2.3c-2.6,0.9-5.4,1.1-8,0.7c-4.6-0.8-12.5-6-12.1-11.6
			c0-0.7-0.7-7.6-1.4-5.6c-2.4,7.2-0.8,17.2,4.1,23c5.6,6.5,15.5,6.6,22.1,1.6c6.5-4.9,7.9-14.8,5-22.2c-1.6-4-4.9-6.9-8.7-8.7
			c-4.9-2.3-13.4-2.1-17-6.4c0.3,1.2,0.6,2.4,0.9,3.6c0-0.4-0.1-0.9-0.1-1.3c-0.1,2-0.3,3.9-0.4,5.9c2-4.3,10.3-6.9,14.8-6.8
			c3,0.1,9.8,2.5,8.3,6.1C730.4,599.7,730.6,605,731.3,604.4L731.3,604.4z"/>
	</g>
	<g display="inline">
		<path fill="#F8E088" d="M414.4,154.9c2.7-16.3-0.4-34-8.1-48.6c-3.8-7.3-9.5-16.9-17-20.8c-8.4-4.4-10,5-9.9,11.2
			c0.2,7.5,1,18.7,8.4,22.7c7.3,4,12.4-1.4,13.4-8.4c2.8-18.8-9-31.9-24.7-40.2c-10.1-5.3-21.1-8.7-32.4-10.1
			c-5.6-0.7-11.3-0.8-17-0.5c-4.3,0.3-12.9,3-14.6-2.6c0.3,2,0.6,4,0.9,6c0-0.4,0-0.7,0-1.1c-0.2,2-0.4,3.9-0.6,5.9
			c0.2-0.5,0.4-0.9,0.7-1.4c1.4-2,1-5.7,0.8-8c-0.1-0.6-0.6-5.6-1.8-4.5c-3.5,3.3-2.5,12.3-0.8,16.3c2.7,6.4,10.6,3.6,15.9,3.1
			c14.7-1.4,29.6,0.8,43.2,6.4c6.6,2.7,13.1,6.2,18.6,10.8c2.5,2.1,4.9,4.5,6.7,7.3c0.9,1.4,2,3,2.4,4.6c0.6,2.3-0.1,3.6-2.2,5
			c-2.7,1.8-6.5,1.2-9.1-0.6c-2.4-1.6-6.1-6.8-5-9.8c1.5-4,7.3-1.3,9.4,0.3c2.6,2,4.8,4.6,6.9,7.1c10.7,12.9,16,29.2,14.8,45.9
			C413.1,151.9,413.9,157.8,414.4,154.9L414.4,154.9z"/>
	</g>
	<g display="inline">
		<path fill="#F8E088" d="M575.8,39c-1.1-6.5-3.4-12.7-5.7-18.9c-2-5.2-3.8-12.2-7.2-16.7c-0.1-0.1-0.3-0.1-0.4-0.2
			c-0.9,0.5-1.1,0.8-1.4,1.8c-0.6,2-1.5,9.1,0.9,10.2c0-3.3,0.1-6.6,0.1-9.9c0.3,2.4,0.6,4.9,0.8,7.3c0-0.1,0-0.1,0-0.2
			c-0.3,0.9-0.6,1.8-1,2.7c1.5,0.7,2.9,5.9,3.5,7.3c1.2,2.7,2.4,5.4,3.5,8.2c1.8,4.3,3,10.2,6,13.8C575.6,45.2,575.8,39.5,575.8,39
			L575.8,39z"/>
	</g>
	<g display="inline">
		<path fill="#F8E088" d="M1024.4,65.7c0.3-10,9.7-18.3,18.4-21.8c4.7-1.9,9.7-2.8,14.6-3.3c4.6-0.4,11,1,14.8-1.6
			c1.6-1.1,1.3-9.8-0.3-10.8c-4.6-3.3-13.8-0.8-19,0.5c-6,1.4-11.8,4-16.8,7.7c-9,6.9-13.5,17.3-13,28.6
			C1023.2,67,1024.3,69.1,1024.4,65.7L1024.4,65.7z"/>
	</g>
	<g display="inline">
		<path fill="#F8E088" d="M1154.4,116.8c1.8,2.7,5.5,4.1,8.7,3.2c3-0.9,4.5-3.8,5.1-6.6c1-4.6,0.8-9.9-0.5-14.4
			c-0.6-2.2-2.4-6.8-5.3-4.9c-1.7,1.1-0.8,7.9,0,9.4c0.9,1.7,1.9,3.5,3.1,5c0.2,0.4,0.4,0.7,0.5,1.1c-0.1-1.7-0.2-3.4-0.3-5.1
			c-0.1,0-1.4,2.4-1.7,2.7c-1.3,1.4-2.9,2.6-4.6,3.4c-1.6,0.7-3.6,0.8-5,1.7C1153.5,112.9,1153.9,116,1154.4,116.8L1154.4,116.8z"/>
	</g>
	<g display="inline">
		<path fill="#F8E088" d="M1063.3,258.9c4.5-4.7,5-12.3,4.7-18.5c-0.3-7.1-1.9-14.9-7-20.3c-1.2-1.3-1.6,4.1-1.6,4.4
			c-0.1,2.2-0.3,5.9,1.2,7.7c2,2.6,4.3,5.6,4.8,8.9c0.6,3.6-1.4,7.7-2.9,11C1062,253.3,1062.7,259.5,1063.3,258.9L1063.3,258.9z"/>
	</g>
	<g display="inline">
		<path fill="#F8E088" d="M1112.7,574.1c7.5,8.1,13.1,17.4,16.7,27.8c0.3-4.4,0.6-8.8,0.9-13.2c-2-1.5-4-2.7-6.3-3.7
			c-0.8-0.4-1.7,10.9-0.1,12.5c1.8,1.8,3.7,3.6,5.8,5.1c1.9,1.4,1.5-11.7,0.9-13.2c-4-9.2-9.9-17.1-17.7-23.4
			C1112.4,565.7,1111.4,572.7,1112.7,574.1L1112.7,574.1z"/>
	</g>
	<g display="inline">
		<path fill="#F8E088" d="M1115.3,413.3c5.4,0.9,12.7,0.2,16.7-4c3.9-4,3.9-11.2,2.6-16.3c-0.7-2.6-1.5-0.5-1.6,1
			c-0.2,3.2-3.2,6.3-5.6,8.1c-3.7,2.8-8,3.4-12.2,5.1C1114.2,407.8,1114.3,413.1,1115.3,413.3L1115.3,413.3z"/>
	</g>
	<g display="inline">
		<path fill="#F8E088" d="M90.6,606.8c-5.5-9-21.8,7.4-25.3,12.4c-1.3,1.8-0.3,12.7,1,11.7c1.1-0.8,2.1-1.6,3.2-2.5
			c1.1-0.9,1.1-8.1-0.5-8.5c-1.1-0.3-2.2-0.7-3.3-1c0.2,4,0.4,8,0.6,11.9c4-3.5,7.4-7.6,11.5-11.1c3.6-3.1,7.9-7.4,12.8-7.9
			C91.6,611.8,90.9,607.4,90.6,606.8L90.6,606.8z"/>
	</g>
	<g display="inline">
		<path fill="#F8E088" d="M195.9,641c-7.8-3-8.8,8.2-8.3,13.1c0.7,7,5.7,12.9,13.2,11.3c1.9-0.4,1.6-11.4-0.3-11.6
			c-3.4-0.3-7.6-1.1-10-3.8c-0.3-0.3-0.5-0.5-0.7-0.8c-1-1.8-1-0.7,0,3.2c0.5-0.3,1-1.9,1.4-2.4c1.3-1.5,2.9-2.5,4.9-2.5
			C197.1,647.6,197,641.4,195.9,641L195.9,641z"/>
	</g>
	<g display="inline">
		<path fill="#F8E088" d="M101.5,436.8c-6.7-1.1-13.8-1.1-20.3-3.4c-3.1-1.1-6-2.8-8.4-5.2c-1.3-1.3-4.4-4.7-4.5-5.9
			c0-0.8-0.1-6-1.5-6c-1.4,0-1.2,5.5-1.2,6.1c0,8,2.3,15.6,9.5,19.9c8,4.8,17.9,3.8,26.5,1.2C102.8,443.1,102.7,437,101.5,436.8
			L101.5,436.8z"/>
	</g>
	<g display="inline">
		<path fill="#F8E088" d="M76.7,170.9c-8.6-2.2-20.6-2.2-26.6,5.4c-0.7,0.8-0.5,7.9,0.4,7.6c4.4-1.5,8-4.5,12.5-5.9
			c4.6-1.4,9.2-1.4,13.8-0.2C77.4,177.9,78.2,171.3,76.7,170.9L76.7,170.9z"/>
	</g>
</g>
<g id="Layer_6">
	<g>
		<path fill="#F8E088" d="M737,665.2c19.9,4.2,41.9-11.6,45-31.5c3.1-19.6-9-44-28.3-50.2c-1.3-0.4-3.2,16.6,0.4,16.5
			c7.7-0.2,14,5.5,18.2,11.5c2.3,3.3,4.2,6.9,5.8,10.6c1.1,2.6,1.8,4.3,0.9,7.1c-0.7,2.2-1.7,4.2-2.8,6.2
			c-8.2,14.6-23.3,21.9-39.4,24.2C736,659.8,736.1,665,737,665.2L737,665.2z"/>
	</g>
	<g>
		<path fill="#F8E088" d="M750.5,588.6c-0.6-1.6-1.2-3.1-1.8-4.7c-0.2,2.1-0.4,4.2-0.6,6.3c6.9,14.8,13.9,28.7,17.3,44.8
			c0.5-3.4,1-6.7,1.4-10.1c-7-17.4-13.7-35.1-18.8-53.2c-0.3,4.1-0.5,8.2-0.8,12.3c7.6-0.6,15.2-0.6,22.7,0.8
			c6.6,1.2,15.2,3.2,20.6,7.4c-0.2-4.4-0.5-8.9-0.7-13.3c-0.1,0.3-0.3,0.6-0.4,1c-0.8,1.7-1.6,12.1,1.1,12.6c0.2,0,0.3,0.1,0.5,0.1
			c2,0.3,1.2-10.1,1.1-11c-0.7-4.5-1.6-5.9-5.8-7.7c-4-1.7-8.2-3-12.4-3.9c-8.9-1.9-18.1-2.1-27-0.2c-3,0.6-1.1,11.6-0.5,13.4
			c5.9,17.9,11.9,35.6,19.3,52.9c0.9,2.2,1.6-0.8,1.8-1.7c0.5-2.6,0.4-5.8-0.3-8.4c-2.1-7.6-4.5-15.1-7.6-22.3
			c-2.9-6.7-6.2-14.4-11-20c-0.7-0.8-0.9,2.4-0.9,2.5c-0.1,1.1-0.2,3.6,0.7,4.4c0.7,0.7,1.3,1.5,2,2.3
			C750.5,593.1,750.8,589.3,750.5,588.6L750.5,588.6z"/>
	</g>
	<g>
		<path fill="#F8E088" d="M456.8,614.6c-2.5-12.2-13.5-23-26.3-16.5c-12.6,6.4-17.6,21.9-20.3,34.7c-2.8,13.1-4.2,29.4,2.2,41.7
			c6.2,11.9,21.1,16.4,33.6,12.9c16.2-4.5,21.8-22.2,19.3-37.4c-0.8-4.8-1.8,0.4-1.8,2.4c0.1,14.8-14.7,24.2-28,23.8
			c-13.9-0.4-25.4-9.7-25-24.3c0.4-13.8,5.2-31,15.7-40.6c4.4-4,10.3-6.9,16.4-5.8c6.8,1.3,11.8,6.8,13.4,13.3
			C456.6,621.4,457,615.6,456.8,614.6L456.8,614.6z"/>
	</g>
	<g>
		<path fill="#F8E088" d="M448.9,639.4c-1,10.8,5.2,25.3,18.5,21.7c11.5-3.2,14.6-20.6,7.6-29.4c-8.2-10.2-25.9-7-28.4,6.1
			c-1,5-1,12,2.1,16.4c3.2,4.6,9.1,5.5,13.3,1.7c1.2-1.1,0.3-9.2-0.5-8.9c-3.3,1.4-15,0.1-11.5-5.1c4.2-6.2,13.1-6.9,19.5-3.9
			c1.9,0.9,3.4,2,4.8,3.5c1.5,1.5,1.8,1.7,0.3,3.9c-1.9,2.7-4.8,4.7-8,5.6c-5.5,1.6-16.4-1.3-16.2-8.8
			C450.4,640.6,449.3,635.2,448.9,639.4L448.9,639.4z"/>
	</g>
	<g>
		<path fill="#F8E088" d="M469.4,624.5c-3,9.7,2.6,22.3,7.4,30.5c2.3,3.9,7.9,11.1,13.2,7.1c3.8-2.9,3.1-10.1,2.4-14.1
			c-0.1-0.8-0.3-2.6-1.2-3c-0.2-0.1-0.3-0.1-0.5-0.2c-1.3-0.5-0.7,8-0.6,8.7c0-0.4-0.1-0.9-0.1-1.3c0.2-1.8,0.4-3.7,0.6-5.5
			c-0.9,3.4-4.6,4.4-7.7,3.2c-2.8-1-4.7-3.8-6.2-6.2c-3.9-5.8-5.8-11.5-6.6-18.5C470,625.1,469.7,623.6,469.4,624.5L469.4,624.5z"/>
	</g>
	<g>
		<path fill="#F8E088" d="M495.4,626.1c-5-3.3-12.4-2-13.9,4.5c-0.5,2-0.5,5.4,0.2,7.5c1.1,3.2,4.5,3.2,7.5,3.8
			c4.6,0.9,9.4,1.5,14,2.8c1.2,0.3,2.5,0.7,3.6,1.3c1,0.5,1.9,1.1,2.6,1.9c1.3,2.1,1.4,1.9,0.2-0.6c0.4,0.1-5,4.5-5.1,4.5
			c-2,1.2-4.2,2.2-6.4,2.6c-1.8,0.3-3.7,0.3-5.5-0.3c-1.1-0.4-2.1-1-2.9-1.8c-0.8,2.2-0.5,2.6,0.7,1.2c1.7-1.5,0-10.2-0.8-9.6
			c-4.6,3.5-4.2,14.8-0.2,18.7c6,5.9,17.4-0.8,21.1-6.5c2.9-4.5,3-13.4-1.1-17.3c-2.6-2.4-6.4-3.2-9.7-3.8c-2.9-0.6-5.8-1.1-8.7-1.7
			c-2.6-0.5-6.6-0.3-8.5-2.4c0.2,1,0.5,2,0.7,3c0-0.4-0.1-0.9-0.1-1.3c-0.1,1.6-0.2,3.2-0.3,4.8c1.8-5.1,7.5-7.3,12.6-6.5
			C496,630.9,496.1,626.5,495.4,626.1L495.4,626.1z"/>
	</g>
	<g>
		<path fill="#F8E088" d="M509.2,636c5.3,3.9,13.7,5.9,19.6,2.3c4.9-3,5.7-8.4,5.5-13.6c-0.2-5.2-1.5-10.5-6.7-12.7
			c-5.5-2.3-10.9,0.3-14.7,4.3c-8.1,8.4-12.1,23.6-6.1,34.3c5.2,9.4,24.3,18.8,28.5,3.8c0.6-2.2,0.6-4.7,0.3-7
			c-0.1-0.4-0.8-4.3-1.5-3.2c-5.2,7.6-15,4.6-21.1,0.1c-1.2-0.9-2.3-1.8-3.3-2.8c-0.7-0.7-1.3-1.4-1.8-2.2c-1.1-2.5-1.3-2.4-0.6,0.3
			c-1.1-0.8,5.4-9.5,6.1-10.2c2.5-2.8,5.7-5.1,9.5-5.5c1.7-0.2,3.4,0.1,5,0.7c0.6,0.2,3.4,2.5,3.5,2.5c0.6-3.9,0.3-4.3-1.1-1.1
			c-0.6,0.8-1.3,1.6-2.1,2.3c-1.6,1.4-3.3,2.2-5.3,2.7c-4.6,1.2-9.3-0.1-13.8,0.9C508.5,632,508.7,635.7,509.2,636L509.2,636z"/>
	</g>
	<g>
		<path fill="#F8E088" d="M557.1,627c6.4,0.4,13.5-0.3,16.8-6.6c2.3-4.4,2.3-11,0.6-15.6c-5.1-13.6-25.2-10.6-32.7-1.3
			c-4.1,5.1-5.8,11.6-6.1,18c-0.3,6-0.2,14,4.1,18.7c4.6,4.9,11.9,5,18.1,4.6c4.1-0.2,8.2-0.6,12.2,0.3c2,0.5,4,1.4,5.6,2.7
			c2,1.7,2.6,2,1.6,4.6c-3.1,8.3-11,14-19.8,14.8c-4.3,0.4-8.7-0.1-12.6-1.7c-2.2-0.9-4.3-2.1-6-3.8c-0.1-0.1-1.4-1.6-1.4-1.6
			c-0.1,2.3,0,2.7,0.5,1.2c0.4-1.3,1-2.5,1.7-3.7c0.8-1.5,0.1-10.4-0.8-9.6c-5,4.5-5.2,12-4.3,18.3c1,7,4.8,11.3,11.4,13.5
			c14.2,4.7,29.1-4.6,33.4-18.5c1.9-6.1,2.2-13.6,0.1-19.7c-2.3-6.8-8.9-8.9-15.6-8.9c-7.4,0-16.4,2.4-22.7-2.8
			c-6.4-5.2-0.3-14.5,4.5-18.7c5.9-5.1,14.9-6.7,22.1-3.3c1.3,0.6,2.5,1.3,3.5,2.3c0.1,0.1,2.4,2.2,1.9,1.3c0.1-0.2,0.2-0.3,0.2-0.5
			c-0.3,1-0.8,1.9-1.4,2.8c-0.5,0.8-1.1,1.5-1.8,2.2c-3.4,3.3-8.6,4.8-13.1,5.9C556.1,622,556.3,626.9,557.1,627L557.1,627z"/>
	</g>
	<g>
		<path fill="#F8E088" d="M585.7,607.5c-1.8,7.7-3.3,15.3-3,23.3c0.2,6,1,14.2,5.6,18.6c4.6,4.5,14.1,5,19.4,1.6
			c5.6-3.6,5.8-11.2,4.9-17.2c-0.6-3.8-1.8-1.3-1.9,1.2c0,3.7-7.4,6.1-10.2,6.6c-3.2,0.5-6.8,0.5-9.8-0.7c-10.7-4.4-6-21.6-4.2-29.9
			C586.7,610.1,586.2,605.5,585.7,607.5L585.7,607.5z"/>
	</g>
	<g>
		<path fill="#F8E088" d="M569.1,632c7,2.7,20.2,3,24.8-4.3c3.1-4.9,3-15.7-1.6-19.6c-1.2-1-1.4,3.4-1.4,3.9c-0.1,1.7-0.3,5.3,1,6.7
			c1.8,1.9,0-0.3,0.3-0.4c-0.6,0.3-1.4,1.7-2,2.2c-2,1.9-4.5,3.2-7.1,4.2c-4.7,1.9-9.2,2-14.2,2C568.2,626.6,568.2,631.6,569.1,632
			L569.1,632z"/>
	</g>
	<g>
		<path fill="#F8E088" d="M607.8,616.7c-1.7,6.5-2.5,13.2-1.4,19.8c1,5.8,5.2,15.8,12.8,12.3c6.6-3,8.6-13,9.4-19.4
			c1.1-8.8,0.4-17.8-2.4-26.2c-0.3-1-0.9-0.9-1.3,0c-4.2,11.5-5.6,25.6-1.8,37.4c1.4,4.4,5.5,10.5,11,8.4c4.9-1.8,4.5-8.5,4.2-12.7
			c0-0.4-0.3-4.1-1.2-3.9c-1,0.2-1,3.3-1,4c0-1.5-1.9,0.6-2.2,0.8c-1.1,0.5-2.2,0.5-3.3,0.3c-2.8-0.5-4.8-2.6-5.9-5.1
			c-2.6-6.1-0.7-13.5,1.7-19.3c-0.4,0-0.8,0-1.3,0c2.3,7.4,1.5,20.4-6.8,24.3c-2.9,1.4-5.9,0.4-8-1.9c-3.7-4-2.5-9.5-1.7-14.4
			c0.2-1.1,0.4-2.9,0-3.9C608.5,617.2,608.1,615.5,607.8,616.7L607.8,616.7z"/>
	</g>
	<g>
		<path fill="#F8E088" d="M631.5,617.8c-1.4,9.5-2.1,24.2,10.1,26.7c12.9,2.6,15.3-12.4,13.5-21.7c-1-5.1-3.8-9.9-9.1-11.5
			c-6-1.8-10.5,2.6-13,7.6c-2.5,5.1-3.6,11.1-3.1,16.8c0.4,4.6,3,12.1,8.8,7.9c1-0.7,0.6-8.2-0.4-8c-1.7,0.3-2.8,0-4.2-1
			c-0.7-0.4-1.3-0.9-1.7-1.5c-0.2,1.2,0,0.9,0.4-1.1c0.9-2.6,1.9-5.2,3.8-7.3c4.6-5.3,12.6-4,15.9,2.1c0.4,0.7,0.8,1.4,1,2.2
			c0.1-1.8-0.1-1.8-0.5,0.2c-0.9,1.1-1.3,2.4-2.4,3.4c-2,1.9-4.7,2.9-7.4,3.2c-2.6,0.3-5.4-0.1-7.6-1.7c-4.4-3.1-3.8-9-3.2-13.7
			C632.4,619.8,631.8,616,631.5,617.8L631.5,617.8z"/>
	</g>
	<g>
		<path fill="#F8E088" d="M649.6,575.3c-1.1,20.5-0.2,41.6,4.1,61.7c1.3,5.9,3.6,16.6,11.3,17.1c9.2,0.6,9-12.7,8.3-18.5
			c-0.2-1.3-0.4-3.5-1.7-2.5c-1.3,0.9-0.7,6.1-0.6,7.3c-0.4-4.6-0.4-1.8-3-0.5c-1.2,0.6-2.6,0.9-4,0.7c-2.3-0.2-4.2-1.8-5.5-3.6
			c-3.7-5.3-4.5-13.4-5.4-19.6c-2-14-1.7-28.1-2.5-42.1C650.5,573.2,649.7,573.4,649.6,575.3L649.6,575.3z"/>
	</g>
	<g>
		<path fill="#F8E088" d="M663.7,612.7c0,5.1,0.7,10.2,1.7,15.2c0.9,4.7,1.7,11.6,5.6,15.1c8.7,7.8,10.3-8.9,7.9-14
			c-1-2-1.5,1.3-1.6,2c-0.3,2.2-0.3,5.3,0.6,7.4c0.1,0.3,0.3,0.7,0.4,1c-0.2-1.6-0.5-3.1-0.7-4.7c0,0.4,0,0.7,0,1.1
			c0.2-1.6,0.3-3.2,0.5-4.8c-0.7,2.3-3.2,2.9-5.3,2.3c-2.9-0.9-4.1-3.7-5-6.3c-1.7-4.8-2.2-9.9-3.6-14.9
			C663.9,611,663.7,612.3,663.7,612.7L663.7,612.7z"/>
	</g>
	<g>
		<path fill="#F8E088" d="M655.8,592.7c1.5,5,4,8.8,7.7,12.4c0.2,0.2,0.3,0.2,0.5,0c3.9-6.9-1.1-24.4,11.5-23.4
			c1.4,0.1,1.8-10.4-0.3-10.9c-13.6-3.5-10.8,20.1-12.4,27c0.2-0.4,0.4-0.9,0.7-1.3c-3.7-0.6-6.2-2.9-7.4-6.4
			C656,589.3,655.7,592.1,655.8,592.7L655.8,592.7z"/>
	</g>
	<g>
		<path fill="#F8E088" d="M677.2,628.6c10.1,5.1,27.6,2.7,27.8-11.1c0.1-4.7-0.8-9.9-5-12.7c-5.6-3.7-12.6-1.1-17,3.1
			c-7.7,7.4-11.7,22.1-4.6,31.3c8.4,11,22.9,5.4,29.2-4.4c1-1.5,0.7-4,0.6-5.6c0-0.4-0.6-4-1.3-3.2c-4.7,5.5-11.8,10.2-19.3,9
			c-3.2-0.5-7-2.3-8.8-5.1c-2.8-4.2,1.5-9.4,4.5-12.5c3-3.1,6.9-5.3,11.3-5.2c3.6,0.1,9.3,2.1,6.4,6.1c-2.1,2.9-7.8,4.5-11.2,5.2
			c-4.2,0.9-8.4,0.6-12.6,0C676.5,623.5,676.3,628.1,677.2,628.6L677.2,628.6z"/>
	</g>
	<g>
		<path fill="#F8E088" d="M730.5,617.9c4.2-3.9,1-13.6-3.4-16c-4.5-2.4-10.4-0.5-14.4,2.2c-2.8,1.9-3.2,4.3-3,7.5
			c0.3,4.2,1.8,5.3,5.8,6.6c4.2,1.4,12.1,2.2,14.3,6.7c2.4,4.9-7.7,7.8-11.1,7.6c-4.7-0.3-11.9-4.6-11.5-10.2c0-0.6-0.6-5.6-1-4.2
			c-1.5,5.5-0.8,12.4,2.6,17.2c4.5,6.3,13.4,6.8,19.3,2.1c4.9-4,5.9-11.5,3.7-17.3c-1.3-3.3-4-5.6-7.1-7.1c-4.1-1.9-11-1.7-14-5.3
			c0.2,0.9,0.4,1.8,0.7,2.7c0-0.3-0.1-0.7-0.1-1c-0.1,1.5-0.2,2.9-0.3,4.4c1.6-3.4,7.9-5.5,11.5-5.6c3-0.1,9,2,7.5,5.6
			C729.8,614.4,730.1,618.3,730.5,617.9L730.5,617.9z"/>
	</g>
	<g>
		<path fill="#F8E088" d="M969.9,341.8c23.8,7.4,51.3,3.4,73.5-7.3c4.1-2,8.7-4.4,11.1-8.5c2.2-3.8,2.2-9.3,1.2-13.5
			c-2.5-10-15.7-7.1-22.6-3.9c-9.2,4.3-11.3,13.2-10.3,22.6c1.1,10.5,6.9,18.6,16.8,22.7c19.5,8,44.2,4.4,63.2-3.4
			c21.7-8.9,40.7-25,50.5-46.6c1.1-2.4,0.7-6.1,0.4-8.7c-0.1-0.5-1-5.3-1.9-4c-19,28.9-47.9,49.6-83.1,51.9
			c-8.3,0.5-16.9,0.2-25-1.8c-5.9-1.4-22.5-8.4-16.8-16.6c4.2-6.1,14.6-9.5,21.8-8.5c0.9,0.1,5.3,2.3,5,2.4c0.1-1,0.2-2.1,0.3-3.1
			c-0.4,0.9-0.9,1.7-1.6,2.5c-0.6,0.8-1.4,1.5-2.1,2.2c-4,3.5-9.3,5.6-14.2,7.6c-21.4,8.8-43.6,9.8-66.3,7.6
			C969,335.3,968.7,341.4,969.9,341.8L969.9,341.8z"/>
	</g>
	<g>
		<path fill="#F8E088" d="M973.7,283.7c27.3-19.3,60.6-29.1,85.6-51.8c1.3-1.2,0.8-5.2,0.7-6.8c-0.1-0.6-0.4-4.7-1.6-3.8
			c-26.6,21.4-58.6,34.6-85.2,55.9C972,278.1,973.1,284.2,973.7,283.7L973.7,283.7z"/>
	</g>
	<g>
		<path fill="#F8E088" d="M970.6,395.5c11,8.3,22.7,15.8,35,22.1c6.3,3.2,12.7,6,19.2,8.5c3.3,1.2,6.6,2.4,9.9,3.5
			c2.6,0.8,8.8,1.6,10.5,3.8c-0.1-4.1-0.2-8.1-0.3-12.2c-0.1,0.1-0.3,0.2-0.4,0.2c-1-1.4-1.6,4.3-1.6,4.5c-0.1,2.1-0.3,6.1,1.2,7.9
			c0.1,0.1,0.2,0.2,0.3,0.3c0.1,0.1,0.3,0.1,0.4,0.2c1-0.3,1.1-0.7,1.5-1.7c1.1-2.5,1.4-9.3-0.6-11.6c-1.6-1.9-4.7-1.7-7-2.2
			c-3.3-0.7-6.6-1.5-9.9-2.4c-6.8-1.8-13.6-4-20.1-6.6c-13.4-5.3-26-12-37.7-20.4C970.3,389.3,969.4,394.7,970.6,395.5L970.6,395.5z
			"/>
	</g>
	<g>
		<path fill="#F8E088" d="M226.7,337.8c-12.6-12.2-30.1-16.6-47.1-17.9c-8.8-0.7-17.8-0.6-26.6-0.1c-7.3,0.5-15.5,2.1-18.3,9.8
			c-1.8,4.9-2.1,13.9,2.2,17.7c5.2,4.7,12.5,0.1,14.1-5.6c1.8-6.5,0.8-15.2-3.9-20.3c-6.1-6.5-16.4-7.4-24.7-6.2
			c-10.2,1.6-19.5,6.6-27.8,12.5c-4.5,3.2-8.8,6.7-13.2,10.2c-4.6,3.7-9.7,7.1-13.9,11.3c-1,1-0.4,9.1,0.5,8.8
			c6.1-2.2,11.3-7.6,16.3-11.7c6.2-5,12.5-10,19.5-14c11.3-6.3,28-11.5,40-3.8c2.3,1.5,5.9,4.4,5,6.9c-1,2.7-4.9,4.2-7.6,4.1
			c-1.6-0.1-3.2-0.7-4.4-1.9c-0.1-0.1-0.9-0.7-0.8,0c-0.1-0.5,0.9-1.9,1.3-2.4c2-2.8,5.3-4.3,8.6-5.1c6.1-1.5,12.8-1.3,19.1-1.3
			c6.5-0.1,13.1,0.1,19.6,0.7c15.2,1.5,29.4,6,41.9,14.9C227.1,344.9,227.8,338.8,226.7,337.8L226.7,337.8z"/>
	</g>
	<g>
		<path fill="#F8E088" d="M226.2,287.8c-19.3,1-39.1-4-54.2-16.5c-6.6-5.4-12.2-12-16.5-19.4c-2.4-4.1-4-8.3-5.8-12.6
			c-1.4-3.3-0.1,1.1-0.1,1.1c0.2,0.1,3.4-1.1,4-1.2c2.2-0.2,4.2-0.3,6.3-1.1c2.3-0.9,1.3-12.8-0.3-12.6c-4.6,0.7-10.1-1.6-12.5,3.7
			c-2,4.6-1.4,11.2-0.3,16c2.3,10.3,8.1,20.4,15.1,28.2c16,18,41.1,26.6,64.6,20.8C227.5,294,227.1,287.8,226.2,287.8L226.2,287.8z"
			/>
	</g>
	<g>
		<path fill="#F8E088" d="M208.2,377.9c-17.9-9-37.3,0.7-51.9,11.7c-14.2,10.6-26,25.7-31.7,42.5c-0.7,2-0.6,4.6-0.3,6.7
			c0,0.3,0.9,4.1,1.5,3.1c7.8-16,17.1-30.1,30.9-41.5c12.7-10.6,34.8-24.7,51.8-16.7C208.5,383.6,209.6,378.6,208.2,377.9
			L208.2,377.9z"/>
	</g>
</g>
</svg>
