<?xml version="1.0" encoding="utf-8"?>
<!-- Generator: Adobe Illustrator 26.3.1, SVG Export Plug-In . SVG Version: 6.00 Build 0)  -->
<svg version="1.1" baseProfile="tiny" id="Layer_1" xmlns="http://www.w3.org/2000/svg" xmlns:xlink="http://www.w3.org/1999/xlink"
	 x="0px" y="0px" width="191px" height="268px" viewBox="0 0 191 268" overflow="visible" xml:space="preserve">
<rect fill="#F2ECEC" width="191" height="268"/>
<g>
	<path fill="#363636" d="M49.2,194.2L46,205.5h-2.7l-2.1-8l-2.2,8l-2.7,0l-3-11.3h2.4l2,8.8l2.3-8.8h2.5l2.2,8.7l2-8.7H49.2z"/>
	<path fill="#363636" d="M52.3,205c-0.7-0.4-1.2-0.9-1.6-1.6c-0.4-0.7-0.6-1.5-0.6-2.4s0.2-1.7,0.6-2.4c0.4-0.7,1-1.2,1.7-1.6
		c0.7-0.4,1.5-0.6,2.3-0.6s1.6,0.2,2.3,0.6c0.7,0.4,1.3,0.9,1.7,1.6c0.4,0.7,0.6,1.5,0.6,2.4s-0.2,1.7-0.6,2.4
		c-0.4,0.7-1,1.2-1.7,1.6c-0.7,0.4-1.5,0.6-2.4,0.6C53.8,205.6,53,205.4,52.3,205z M55.8,203.3c0.4-0.2,0.7-0.5,0.9-0.9
		c0.2-0.4,0.3-0.9,0.3-1.5c0-0.9-0.2-1.5-0.7-2c-0.4-0.5-1-0.7-1.6-0.7s-1.2,0.2-1.6,0.7c-0.4,0.5-0.7,1.1-0.7,2s0.2,1.5,0.6,2
		s1,0.7,1.6,0.7C55.1,203.6,55.5,203.5,55.8,203.3z"/>
	<path fill="#363636" d="M64.4,196.8c0.5-0.3,1-0.4,1.6-0.4v2.4h-0.6c-0.7,0-1.2,0.2-1.6,0.5c-0.4,0.3-0.5,0.9-0.5,1.7v4.5H61v-9
		h2.3v1.4C63.6,197.4,63.9,197,64.4,196.8z"/>
	<path fill="#363636" d="M72.9,205.5l-3-3.8v3.8h-2.3v-12h2.3v6.8l3-3.8h2.9l-4,4.5l4,4.5H72.9z"/>
	<path fill="#363636" d="M83.5,198.4v4.3c0,0.3,0.1,0.5,0.2,0.7c0.1,0.1,0.4,0.2,0.7,0.2h1.1v1.9h-1.4c-1.9,0-2.9-0.9-2.9-2.8v-4.3
		h-1.1v-1.9h1.1v-2.2h2.3v2.2h2v1.9H83.5z"/>
	<path fill="#363636" d="M94,196.8c0.5,0.3,0.9,0.7,1.2,1.3c0.3,0.6,0.4,1.3,0.4,2.1v5.3h-2.3v-5c0-0.7-0.2-1.3-0.5-1.6
		c-0.4-0.4-0.8-0.6-1.5-0.6c-0.6,0-1.1,0.2-1.5,0.6c-0.4,0.4-0.5,0.9-0.5,1.6v5h-2.3v-12h2.3v4.1c0.3-0.4,0.7-0.7,1.2-0.9
		c0.5-0.2,1-0.3,1.6-0.3C92.9,196.4,93.5,196.5,94,196.8z"/>
	<path fill="#363636" d="M106.1,201.7h-6.6c0.1,0.6,0.3,1.2,0.7,1.5c0.4,0.4,0.9,0.6,1.5,0.6c0.8,0,1.4-0.4,1.8-1.1h2.4
		c-0.3,0.9-0.8,1.6-1.5,2.1c-0.7,0.6-1.6,0.8-2.7,0.8c-0.9,0-1.6-0.2-2.3-0.6c-0.7-0.4-1.2-0.9-1.6-1.6c-0.4-0.7-0.6-1.5-0.6-2.4
		c0-0.9,0.2-1.7,0.6-2.4c0.4-0.7,0.9-1.2,1.6-1.6c0.7-0.4,1.5-0.6,2.3-0.6c0.9,0,1.6,0.2,2.3,0.5c0.7,0.4,1.2,0.9,1.6,1.6
		c0.4,0.7,0.6,1.4,0.6,2.3C106.2,201.1,106.2,201.4,106.1,201.7z M103.8,200.1c0-0.6-0.2-1-0.6-1.4s-0.9-0.5-1.5-0.5
		c-0.6,0-1,0.2-1.4,0.5c-0.4,0.3-0.6,0.8-0.7,1.4H103.8z"/>
	<path fill="#363636" d="M114.3,198.4v4.3c0,0.3,0.1,0.5,0.2,0.7c0.1,0.1,0.4,0.2,0.7,0.2h1.1v1.9h-1.4c-1.9,0-2.9-0.9-2.9-2.8v-4.3
		H111v-1.9h1.1v-2.2h2.3v2.2h2v1.9H114.3z"/>
	<path fill="#363636" d="M126.3,201.7h-6.6c0.1,0.6,0.3,1.2,0.7,1.5c0.4,0.4,0.9,0.6,1.5,0.6c0.8,0,1.4-0.4,1.8-1.1h2.4
		c-0.3,0.9-0.8,1.6-1.5,2.1c-0.7,0.6-1.6,0.8-2.7,0.8c-0.9,0-1.6-0.2-2.3-0.6c-0.7-0.4-1.2-0.9-1.6-1.6c-0.4-0.7-0.6-1.5-0.6-2.4
		c0-0.9,0.2-1.7,0.6-2.4c0.4-0.7,0.9-1.2,1.6-1.6c0.7-0.4,1.5-0.6,2.3-0.6c0.9,0,1.6,0.2,2.3,0.5c0.7,0.4,1.2,0.9,1.6,1.6
		c0.4,0.7,0.6,1.4,0.6,2.3C126.3,201.1,126.3,201.4,126.3,201.7z M124,200.1c0-0.6-0.2-1-0.6-1.4s-0.9-0.5-1.5-0.5
		c-0.6,0-1,0.2-1.4,0.5c-0.4,0.3-0.6,0.8-0.7,1.4H124z"/>
	<path fill="#363636" d="M127.9,198.5c0.4-0.7,0.9-1.2,1.5-1.6s1.3-0.6,2.1-0.6c0.7,0,1.3,0.1,1.8,0.4c0.5,0.3,0.9,0.6,1.2,1v-1.3
		h2.3v9h-2.3v-1.3c-0.3,0.4-0.7,0.8-1.2,1s-1.1,0.4-1.8,0.4c-0.8,0-1.4-0.2-2.1-0.6s-1.1-0.9-1.5-1.6c-0.4-0.7-0.5-1.5-0.5-2.4
		C127.4,200,127.6,199.2,127.9,198.5z M134.1,199.6c-0.2-0.4-0.5-0.7-0.9-0.9s-0.8-0.3-1.2-0.3c-0.4,0-0.8,0.1-1.2,0.3
		s-0.6,0.5-0.9,0.9c-0.2,0.4-0.3,0.9-0.3,1.4s0.1,1,0.3,1.4c0.2,0.4,0.5,0.7,0.9,0.9c0.4,0.2,0.7,0.3,1.2,0.3c0.4,0,0.8-0.1,1.2-0.3
		c0.4-0.2,0.7-0.5,0.9-0.9c0.2-0.4,0.3-0.9,0.3-1.4S134.4,200,134.1,199.6z"/>
	<path fill="#363636" d="M152.8,197.4c0.7,0.7,1,1.6,1,2.8v5.3h-2.3v-5c0-0.7-0.2-1.2-0.5-1.6c-0.4-0.4-0.8-0.6-1.5-0.6
		s-1.1,0.2-1.5,0.6c-0.4,0.4-0.5,0.9-0.5,1.6v5h-2.3v-5c0-0.7-0.2-1.2-0.5-1.6c-0.4-0.4-0.8-0.6-1.5-0.6c-0.6,0-1.1,0.2-1.5,0.6
		c-0.4,0.4-0.5,0.9-0.5,1.6v5H139v-9h2.3v1.1c0.3-0.4,0.7-0.7,1.1-0.9s1-0.3,1.5-0.3c0.7,0,1.3,0.1,1.9,0.4c0.5,0.3,1,0.7,1.3,1.3
		c0.3-0.5,0.7-0.9,1.3-1.2c0.6-0.3,1.2-0.5,1.8-0.5C151.2,196.4,152.1,196.7,152.8,197.4z"/>
	<path fill="#363636" d="M158.4,203.1l-1.9,4.6h-1.5l1.1-4.6H158.4z"/>
	<path fill="#363636" d="M26.3,218.4v4.3c0,0.3,0.1,0.5,0.2,0.7c0.1,0.1,0.4,0.2,0.7,0.2h1.1v1.9h-1.4c-1.9,0-2.9-0.9-2.9-2.8v-4.3
		h-1.1v-1.9H24v-2.2h2.3v2.2h2v1.9H26.3z"/>
	<path fill="#363636" d="M36.8,216.8c0.5,0.3,0.9,0.7,1.2,1.3c0.3,0.6,0.4,1.3,0.4,2.1v5.3h-2.3v-5c0-0.7-0.2-1.3-0.5-1.6
		c-0.4-0.4-0.8-0.6-1.5-0.6c-0.6,0-1.1,0.2-1.5,0.6c-0.4,0.4-0.5,0.9-0.5,1.6v5h-2.3v-12h2.3v4.1c0.3-0.4,0.7-0.7,1.2-0.9
		c0.5-0.2,1-0.3,1.6-0.3C35.6,216.4,36.2,216.5,36.8,216.8z"/>
	<path fill="#363636" d="M48.9,221.7h-6.6c0.1,0.6,0.3,1.2,0.7,1.5c0.4,0.4,0.9,0.6,1.5,0.6c0.8,0,1.4-0.4,1.8-1.1h2.4
		c-0.3,0.9-0.8,1.6-1.5,2.1c-0.7,0.6-1.6,0.8-2.7,0.8c-0.9,0-1.6-0.2-2.3-0.6c-0.7-0.4-1.2-0.9-1.6-1.6S40,221.9,40,221
		c0-0.9,0.2-1.7,0.6-2.4c0.4-0.7,0.9-1.2,1.6-1.6s1.5-0.6,2.3-0.6c0.9,0,1.6,0.2,2.3,0.5c0.7,0.4,1.2,0.9,1.6,1.6s0.6,1.4,0.6,2.3
		C49,221.1,48.9,221.4,48.9,221.7z M46.6,220.2c0-0.6-0.2-1-0.6-1.4c-0.4-0.4-0.9-0.5-1.5-0.5c-0.6,0-1,0.2-1.4,0.5
		c-0.4,0.3-0.6,0.8-0.7,1.4H46.6z"/>
	<path fill="#363636" d="M58.2,217.4c0.7,0.7,1,1.6,1,2.8v5.3h-2.3v-5c0-0.7-0.2-1.3-0.5-1.6c-0.4-0.4-0.8-0.6-1.5-0.6
		c-0.6,0-1.1,0.2-1.5,0.6c-0.4,0.4-0.5,0.9-0.5,1.6v5h-2.3v-9h2.3v1.1c0.3-0.4,0.7-0.7,1.2-0.9c0.5-0.2,1-0.3,1.5-0.3
		C56.6,216.4,57.5,216.7,58.2,217.4z"/>
	<path fill="#363636" d="M67.8,218.4v4.3c0,0.3,0.1,0.5,0.2,0.7c0.1,0.1,0.4,0.2,0.7,0.2h1.1v1.9h-1.4c-1.9,0-2.9-0.9-2.9-2.8v-4.3
		h-1.1v-1.9h1.1v-2.2h2.3v2.2h2v1.9H67.8z"/>
	<path fill="#363636" d="M78.3,216.8c0.5,0.3,0.9,0.7,1.2,1.3c0.3,0.6,0.4,1.3,0.4,2.1v5.3h-2.3v-5c0-0.7-0.2-1.3-0.5-1.6
		c-0.4-0.4-0.8-0.6-1.5-0.6c-0.6,0-1.1,0.2-1.5,0.6c-0.4,0.4-0.5,0.9-0.5,1.6v5h-2.3v-12h2.3v4.1c0.3-0.4,0.7-0.7,1.2-0.9
		c0.5-0.2,1-0.3,1.6-0.3C77.2,216.4,77.8,216.5,78.3,216.8z"/>
	<path fill="#363636" d="M90.4,221.7h-6.6c0.1,0.6,0.3,1.2,0.7,1.5c0.4,0.4,0.9,0.6,1.5,0.6c0.8,0,1.4-0.4,1.8-1.1h2.4
		c-0.3,0.9-0.8,1.6-1.5,2.1c-0.7,0.6-1.6,0.8-2.7,0.8c-0.9,0-1.6-0.2-2.3-0.6c-0.7-0.4-1.2-0.9-1.6-1.6s-0.6-1.5-0.6-2.4
		c0-0.9,0.2-1.7,0.6-2.4c0.4-0.7,0.9-1.2,1.6-1.6s1.5-0.6,2.3-0.6c0.9,0,1.6,0.2,2.3,0.5c0.7,0.4,1.2,0.9,1.6,1.6s0.6,1.4,0.6,2.3
		C90.5,221.1,90.5,221.4,90.4,221.7z M88.1,220.2c0-0.6-0.2-1-0.6-1.4c-0.4-0.4-0.9-0.5-1.5-0.5c-0.6,0-1,0.2-1.4,0.5
		c-0.4,0.3-0.6,0.8-0.7,1.4H88.1z"/>
	<path fill="#363636" d="M99.5,216.8c0.5-0.3,1.1-0.4,1.8-0.4c0.8,0,1.5,0.2,2.1,0.6c0.6,0.4,1.1,0.9,1.5,1.6s0.5,1.5,0.5,2.4
		s-0.2,1.7-0.5,2.4s-0.9,1.3-1.5,1.6c-0.6,0.4-1.3,0.6-2.1,0.6c-0.7,0-1.2-0.1-1.7-0.4c-0.5-0.3-0.9-0.6-1.2-1v5.6H96v-13.2h2.3v1.3
		C98.6,217.4,99,217.1,99.5,216.8z M102.7,219.6c-0.2-0.4-0.5-0.7-0.9-0.9s-0.8-0.3-1.2-0.3c-0.4,0-0.8,0.1-1.2,0.3
		s-0.7,0.5-0.9,0.9c-0.2,0.4-0.3,0.9-0.3,1.4s0.1,1,0.3,1.4c0.2,0.4,0.5,0.7,0.9,0.9c0.4,0.2,0.7,0.3,1.2,0.3c0.4,0,0.8-0.1,1.2-0.3
		s0.7-0.5,0.9-0.9s0.3-0.9,0.3-1.4C103,220.4,102.9,220,102.7,219.6z"/>
	<path fill="#363636" d="M110.4,216.8c0.5-0.3,1-0.4,1.6-0.4v2.4h-0.6c-0.7,0-1.2,0.2-1.6,0.5c-0.4,0.3-0.5,0.9-0.5,1.7v4.5H107v-9
		h2.3v1.4C109.5,217.4,109.9,217.1,110.4,216.8z"/>
	<path fill="#363636" d="M115.2,225.1c-0.7-0.4-1.2-0.9-1.6-1.6c-0.4-0.7-0.6-1.5-0.6-2.4s0.2-1.7,0.6-2.4c0.4-0.7,1-1.2,1.7-1.6
		c0.7-0.4,1.5-0.6,2.3-0.6c0.9,0,1.6,0.2,2.3,0.6c0.7,0.4,1.3,0.9,1.7,1.6c0.4,0.7,0.6,1.5,0.6,2.4s-0.2,1.7-0.6,2.4
		c-0.4,0.7-1,1.2-1.7,1.6c-0.7,0.4-1.5,0.6-2.4,0.6C116.6,225.6,115.9,225.5,115.2,225.1z M118.7,223.4c0.4-0.2,0.7-0.5,0.9-0.9
		c0.2-0.4,0.3-0.9,0.3-1.5c0-0.9-0.2-1.5-0.7-2s-1-0.7-1.6-0.7c-0.6,0-1.2,0.2-1.6,0.7c-0.4,0.5-0.7,1.1-0.7,2s0.2,1.5,0.6,2
		s1,0.7,1.6,0.7C117.9,223.7,118.3,223.6,118.7,223.4z"/>
	<path fill="#363636" d="M127.3,216.8c0.5-0.3,1.1-0.4,1.8-0.4c0.8,0,1.5,0.2,2.1,0.6c0.6,0.4,1.1,0.9,1.5,1.6
		c0.4,0.7,0.5,1.5,0.5,2.4s-0.2,1.7-0.5,2.4c-0.4,0.7-0.9,1.3-1.5,1.6c-0.6,0.4-1.3,0.6-2.1,0.6c-0.7,0-1.3-0.1-1.8-0.4
		s-0.9-0.6-1.2-1v1.3h-2.3v-12h2.3v4.3C126.4,217.4,126.8,217.1,127.3,216.8z M130.5,219.6c-0.2-0.4-0.5-0.7-0.9-0.9
		s-0.8-0.3-1.2-0.3c-0.4,0-0.8,0.1-1.2,0.3c-0.4,0.2-0.7,0.5-0.9,0.9c-0.2,0.4-0.3,0.9-0.3,1.4s0.1,1,0.3,1.4
		c0.2,0.4,0.5,0.7,0.9,0.9c0.4,0.2,0.7,0.3,1.2,0.3c0.4,0,0.8-0.1,1.2-0.3s0.7-0.5,0.9-0.9c0.2-0.4,0.3-0.9,0.3-1.4
		C130.9,220.4,130.8,220,130.5,219.6z"/>
	<path fill="#363636" d="M137.1,213.5v12h-2.3v-12H137.1z"/>
	<path fill="#363636" d="M147.6,221.7h-6.6c0.1,0.6,0.3,1.2,0.7,1.5c0.4,0.4,0.9,0.6,1.5,0.6c0.8,0,1.4-0.4,1.8-1.1h2.4
		c-0.3,0.9-0.8,1.6-1.5,2.1c-0.7,0.6-1.6,0.8-2.7,0.8c-0.9,0-1.6-0.2-2.3-0.6c-0.7-0.4-1.2-0.9-1.6-1.6c-0.4-0.7-0.6-1.5-0.6-2.4
		c0-0.9,0.2-1.7,0.6-2.4c0.4-0.7,0.9-1.2,1.6-1.6c0.7-0.4,1.5-0.6,2.3-0.6c0.9,0,1.6,0.2,2.3,0.5c0.7,0.4,1.2,0.9,1.6,1.6
		c0.4,0.7,0.6,1.4,0.6,2.3C147.7,221.1,147.7,221.4,147.6,221.7z M145.3,220.2c0-0.6-0.2-1-0.6-1.4s-0.9-0.5-1.5-0.5
		c-0.6,0-1,0.2-1.4,0.5c-0.4,0.3-0.6,0.8-0.7,1.4H145.3z"/>
	<path fill="#363636" d="M163.1,217.4c0.7,0.7,1,1.6,1,2.8v5.3h-2.3v-5c0-0.7-0.2-1.2-0.5-1.6c-0.4-0.4-0.8-0.6-1.5-0.6
		s-1.1,0.2-1.5,0.6c-0.4,0.4-0.5,0.9-0.5,1.6v5h-2.3v-5c0-0.7-0.2-1.2-0.5-1.6c-0.4-0.4-0.8-0.6-1.5-0.6c-0.6,0-1.1,0.2-1.5,0.6
		c-0.4,0.4-0.5,0.9-0.5,1.6v5h-2.3v-9h2.3v1.1c0.3-0.4,0.7-0.7,1.1-0.9s1-0.3,1.5-0.3c0.7,0,1.3,0.1,1.9,0.4c0.5,0.3,1,0.7,1.3,1.3
		c0.3-0.5,0.7-0.9,1.3-1.2c0.6-0.3,1.2-0.5,1.8-0.5C161.6,216.4,162.5,216.7,163.1,217.4z"/>
	<path fill="#363636" d="M166.3,225.2c-0.3-0.3-0.4-0.6-0.4-0.9s0.1-0.7,0.4-0.9s0.6-0.4,1-0.4c0.4,0,0.7,0.1,1,0.4
		c0.3,0.3,0.4,0.6,0.4,0.9s-0.1,0.7-0.4,0.9c-0.3,0.3-0.6,0.4-1,0.4C166.9,225.6,166.6,225.5,166.3,225.2z"/>
</g>
<g id="CG4EO4_00000127741522499956789060000013624677765174074267_">
	<g>
		<path fill="#7500D4" d="M64,148.4c-4.9,4.4-10.4,3-13.3,0.1c-3-3.1-4-8.5,0.1-12.8c-1.7-3-3.4-5.8-4.9-8.8
			c-9.7-20.1-5.3-45.2,10.6-61c4.5-4.4,9.5-8,15.1-10.8c0.3-0.1,0.5-0.3,0.8-0.4c1.1-0.4,2.1-0.1,2.6,0.8c0.5,0.9,0.1,1.9-1,2.5
			c-2.5,1.4-4.9,2.8-7.4,4.3c-0.9,0.5-1.6,1.2-2.7,2c0.7,0,1-0.1,1.3-0.1c1.4,0.1,3-0.2,4.1,0.4c1.9,0.9,3.2,0.4,4.8-0.5
			c13.7-7,27.6-7.4,41.6-1.1c0.3,0.1,0.5,0.2,0.8,0.4c1.1,0.7,1.9,0.7,2.9-0.3c0.5-0.5,1.2-0.8,1.9-1.2c0.6-0.3,1.3-0.6,2.2-1
			c-2.3-1.2-4.3-2.3-6.4-3.3c-11.3-5-22.9-5.7-34.8-2.6c-0.5,0.1-0.9,0.3-1.4,0.4c-1.1,0.2-2-0.3-2.2-1.3c-0.3-1.1,0.2-1.9,1.3-2.2
			c2.4-0.6,4.7-1.3,7.1-1.7c15.3-2.4,29.3,0.9,41.9,9.9c0.4,0.3,0.8,0.5,1.2,0.6c9.6,2,13.6,13.6,6.8,21c-0.1,0.1-0.3,0.3-0.4,0.5
			c2.2,4,3.8,8.2,4.7,12.6c1.3,6.1,1.3,12.3,0,18.4c-0.2,0.8-0.1,1.4,0.6,2c2.2,2,2.8,5.2,1.7,7.9c-1.1,2.8-3.7,4.5-6.8,4.4
			c-0.9,0-1.4,0.3-1.9,1c-7.2,10.8-17.2,17.6-30.1,20c-14.2,2.6-27-0.7-38.2-9.8c-0.1-0.1-0.3-0.2-0.6-0.4c0.9,2.3,1.1,4.5,0.4,6.7
			c-0.1,0.2,0.4,0.7,0.8,0.9c6,4.1,12.6,6.9,19.8,8.1c15.1,2.6,28.9-0.8,41.1-10c0.6-0.4,0.8-0.8,0.6-1.6c-0.9-4,2.5-7.3,6.5-6.5
			c0.8,0.2,1.2-0.1,1.6-0.6c7.4-9.5,11.1-20.2,11-32.1c-0.1-7.2-1.7-14-4.7-20.5c-0.1-0.3-0.2-0.5-0.3-0.8c-0.4-1.1-0.1-2.1,0.8-2.5
			c1-0.5,2-0.1,2.5,1c2.1,4.2,3.6,8.6,4.4,13.2c3,16.3-0.7,31.1-11,44.2c-0.5,0.6-0.5,1-0.3,1.7c0.7,2.1,0.2,4-1.3,5.5
			c-1.5,1.5-3.4,2-5.5,1.3c-0.8-0.3-1.3-0.1-2,0.4c-11.8,9-25.1,12.9-39.9,11.4c-9.2-0.9-17.5-4-25.2-9.1c-0.2-0.2-0.5-0.3-0.7-0.5
			C64.2,148.5,64.1,148.4,64,148.4z M76,74.5c0.1-0.1,0.5-0.3,0.9-0.5c1.8-0.9,3.5-1.8,5.3-2.7c1-0.5,1.8,0,2.3,0.9
			c0.5,0.9,0.2,1.8-0.7,2.3c-0.2,0.2-0.5,0.3-0.8,0.4c-13.4,6.1-20.7,19-18.8,33.5c1.6,12.6,11.9,23.7,24.4,26.4
			c0.6,0.1,1,0.1,1.5-0.5c3.2-4.2,8.8-4.2,11.9,0c0.4,0.6,0.8,0.7,1.4,0.5c14.5-3.1,25.3-16.9,24.8-31.5c-0.2-4.9-1.6-9.5-3.6-14
			c-2-4.6-6.8-6.7-9.3-10.8c0-0.1-0.1-0.1-0.2-0.1c-7.3-5.3-15.5-7.1-24.4-5.8c-1.4,0.2-2.4-0.3-2.6-1.4c-0.2-1.1,0.5-1.9,1.9-2.1
			c7.2-1.2,14.2-0.3,20.9,2.7c1.2,0.5,2.3,1.1,3.3,1.6c0.5-2.1,1-4.2,1.5-6.3c-11.6-6.7-28.9-6.7-41,0.9
			C75.1,70.2,75.5,72.3,76,74.5z M127,86c0,0,0,0,0,0.1c0.1,0.3,0.3,0.6,0.5,0.9c6.6,12.8,6,25.3-2.2,37.2c-5,7.3-12.2,11.9-20.9,14
			c-0.6,0.2-1.1,0.3-1.2,1.1c-0.6,3.6-3.6,6-7.2,6c-3.6,0-6.6-2.4-7.2-6c-0.1-0.7-0.4-0.9-1.1-1.1c-7-1.6-12.9-5.1-17.9-10.2
			c-11.6-11.8-12.9-31.5-3-44.7c0.3-0.4,0.5-0.8,0.6-0.9c-2.2-0.6-4.3-1.2-6.5-1.8c-4.3,6.3-6.8,13.6-7.1,21.5
			c-0.3,5.8,0.7,11.3,2.8,16.7c0.5,1.3,0.1,2.3-1,2.6c-1.1,0.4-2-0.1-2.5-1.4c-1.8-4.5-2.8-9.2-3-14c-0.4-10.1,2.2-19.4,8-27.8
			c0.4-0.6,0.5-1.1,0.2-1.8c-0.4-1.1-0.7-2.4-0.8-3.6c-0.1-1,0.1-1.9,0.2-3.1c-0.6,0.7-1.1,1.3-1.6,1.9
			C46.4,84,42.7,97.7,45.2,112.8c1.2,7.3,4.1,13.9,8.4,20c0.2,0.3,0.7,0.6,1,0.5c2.2-0.6,4.3-0.4,6.7,0.6c-0.4-0.5-0.6-0.7-0.8-1
			c-1.3-1.8-2.7-3.6-3.9-5.5c-0.6-0.9-0.3-1.9,0.5-2.5c0.9-0.6,1.8-0.4,2.5,0.5c0.4,0.5,0.7,1.1,1.1,1.6
			c7.9,11.3,18.8,17.6,32.7,18.5c9.1,0.6,17.5-1.7,25.2-6.5c5.4-3.4,9.8-7.7,13.2-13.2c-2.6-2.4-3.6-5.3-2.1-8.6
			c1.4-3.2,4.1-4.5,7.6-4.4c2.2-10,0.9-19.6-3.8-28.4C131.2,85,129.1,85.5,127,86z M127.2,82.1c5.1,0,9.2-4.1,9.2-9
			c0-5-4.1-9.1-9.1-9.1c-5.1,0-9.3,4.1-9.3,9.1C118.1,78.1,122.2,82.1,127.2,82.1z M66.4,78.5c3.1,0.1,5.6-2.3,5.7-5.3
			c0.1-2.9-2.4-5.4-5.3-5.5c-3-0.1-5.6,2.3-5.7,5.3C60.9,75.9,63.3,78.4,66.4,78.5z M51.8,142.1c0,3.1,2.5,5.4,5.6,5.4
			c3,0,5.4-2.4,5.5-5.4c0-3-2.5-5.5-5.5-5.5C54.2,136.6,51.8,139.1,51.8,142.1z M95.9,142c2,0,3.7-1.6,3.7-3.5c0-2-1.6-3.6-3.6-3.6
			c-2.1,0-3.8,1.6-3.8,3.6C92.3,140.4,93.9,142,95.9,142z M136.5,123.9c2,0,3.6-1.5,3.7-3.6c0-2-1.6-3.7-3.7-3.6
			c-2,0-3.6,1.7-3.6,3.6C132.8,122.3,134.4,123.9,136.5,123.9z M135.5,141.2c0-1-0.8-1.8-1.8-1.8c-0.9,0-1.8,0.8-1.9,1.8
			c0,1,0.8,1.8,1.8,1.8C134.7,143,135.5,142.2,135.5,141.2z"/>
		<path fill="#7500D4" d="M77.8,111.1c1.1,1,2.1,1.7,2.9,2.6c0.8,0.9,0.7,2-0.1,2.7c-0.8,0.7-1.8,0.6-2.6-0.4
			c-1-1.2-2.1-1.7-3.6-1.4c-0.9,0.2-1.8-0.1-2.2-1c-0.4-1,0-1.8,0.8-2.3c1.2-0.8,1.8-1.8,1.5-3.2c-0.3-1.3-1.3-2.1-2.7-2.4
			c-1-0.2-1.6-0.8-1.5-1.8c0-1,0.6-1.6,1.6-1.8c1.4-0.3,2.4-1,2.7-2.4c0.3-1.4-0.4-2.4-1.5-3.3c-0.8-0.6-1.2-1.3-0.8-2.3
			c0.4-1,1.2-1.1,2.2-1c3.3,0.2,4.7-1.8,3.3-4.7c-0.4-0.9-0.7-1.7,0.1-2.5c0.8-0.8,1.7-0.6,2.6-0.1c1.1,0.7,2.2,0.8,3.3,0.1
			c1.1-0.7,1.6-1.7,1.4-3c0-0.2,0-0.5,0-0.7c0-0.9,0.3-1.7,1.2-1.8c0.6-0.1,1.4,0.3,2,0.5c0.3,0.1,0.4,0.5,0.6,0.7
			c1.6,1.8,4.2,1.3,5.1-0.9c0.1-0.3,0.2-0.7,0.3-1.1c0.3-0.8,1-1.4,1.8-1.2c0.6,0.2,1.1,0.8,1.6,1.2c0.2,0.2,0.2,0.6,0.3,0.9
			c0.7,2.1,3.3,2.7,4.9,1.2c0.4-0.3,0.6-0.9,1-1.1c0.6-0.3,1.4-0.5,1.9-0.3c0.5,0.2,0.8,1,1.1,1.6c0.1,0.3,0,0.7-0.1,1.1
			c-0.1,2.3,2.1,3.9,4.3,2.9c0.1,0,0.1-0.1,0.2-0.1c0.9-0.5,1.9-1,2.8,0c0.9,1,0.5,1.9-0.1,2.9c-0.6,0.9-0.6,2,0,2.9
			c0.7,1,1.6,1.6,2.8,1.4c0.3,0,0.7,0,1-0.1c0.9-0.1,1.7,0.3,1.8,1.1c0.1,0.6-0.3,1.3-0.5,2c0,0.1-0.2,0.2-0.4,0.3
			c-1.1,0.8-1.7,1.8-1.4,3.1c0.3,1.4,1.3,2.1,2.7,2.4c1,0.2,1.6,0.7,1.6,1.7c0,1-0.6,1.7-1.6,1.9c-1.4,0.3-2.3,1-2.6,2.4
			c-0.3,1.4,0.4,2.4,1.4,3.2c0.8,0.6,1.3,1.3,0.8,2.3c-0.4,1.1-1.4,1.2-2.4,1.1c-1.3-0.2-2.4,0.1-3.2,1.2c-0.7,1.1-0.7,2.2,0,3.3
			c0.5,0.9,0.9,1.8-0.1,2.7c-0.9,0.8-1.8,0.5-2.7-0.1c-1-0.6-2.1-0.7-3.2,0c-1.1,0.7-1.6,1.6-1.4,2.9c0.1,0.4,0.2,0.9,0,1.2
			c-0.2,0.5-0.6,1.2-1.1,1.4c-0.5,0.2-1.2-0.1-1.8-0.2c-0.3-0.1-0.5-0.4-0.7-0.7c-0.8-1.1-1.8-1.6-3.1-1.3c-1.3,0.3-2.1,1.2-2.4,2.4
			c-0.2,1-0.8,1.8-1.9,1.7c-1.1,0-1.7-0.8-1.9-1.8c-0.3-1.3-1.1-2.1-2.3-2.4c-1.3-0.3-2.3,0.2-3,1.2c-0.2,0.2-0.3,0.5-0.5,0.5
			c-0.7,0.2-1.4,0.6-2,0.5c-0.9-0.1-1.3-0.9-1.1-1.8c0.3-1.7-0.1-3-1.6-4c-0.8-0.6-0.8-1.5-0.2-2.3c0.6-0.8,1.5-1.1,2.3-0.5
			c1.2,0.9,2.2,1.9,3.4,3c2.4-0.8,4.9-0.4,7.2,1.6c2.2-1.9,4.7-2.5,7.6-1.5c1.2-2.6,3.4-4,6.4-4.2c0.2-2.9,1.7-5,4.2-6.3
			c-0.7-3.6-0.5-4.9,1.4-7.2c-0.6-1.3-1.3-2.4-1.6-3.7c-0.3-1.3-0.1-2.6-0.1-4.1c-2.4-1.1-3.7-3.2-4-6.1c-2.9-0.2-5.1-1.6-6.4-4.2
			c-2.8,0.9-5.3,0.5-7.5-1.5c-2.3,2-4.8,2.5-7.6,1.5c-1.2,2.7-3.4,4-6.4,4.2c-0.2,2.9-1.6,5-4.3,6.3c0.9,2.7,0.5,5.2-1.6,7.4
			C78.2,106.1,78.8,108.6,77.8,111.1z"/>
		<path fill="#7500D4" d="M96.2,89.1c2.1,0.6,4.3,1.2,6.4,1.9c1.2,0.4,1.6,1.5,1.2,2.5c-0.5,1.1-1.5,1.4-2.7,0.8
			c-4.7-2.3-9.9-1.2-13.1,2.2c-3.2,3.3-3.9,8.4-1.7,12.6c2.2,4.1,6.8,6.4,11.4,5.6c4.7-0.7,8.5-4.4,9.2-8.9c0.3-2.2,0.1-4.4-0.9-6.5
			c-0.2-0.5-0.5-1.1-0.4-1.5c0.3-0.6,0.8-1.4,1.4-1.6c0.9-0.4,1.6,0.3,2.1,1.1c2,3.8,2.3,7.7,0.8,11.6c-3.1,8.1-12,11.7-20,8.3
			c-6.3-2.7-9.9-10.2-8.1-16.8c1.7-6.5,7.6-11,14.4-10.9C96.1,89.3,96.2,89.2,96.2,89.1z"/>
		<path fill="#7500D4" d="M123.6,67.6c1,0,1.8,0.8,1.8,1.8c0,1-0.9,1.8-1.8,1.8c-1,0-1.8-0.9-1.8-1.8
			C121.8,68.4,122.6,67.6,123.6,67.6z"/>
		<path fill="#7500D4" d="M129.1,76.7c-0.9,0-1.8-0.9-1.8-1.8c0-0.9,0.9-1.8,1.8-1.8c0.9,0,1.8,0.9,1.8,1.8
			C130.9,75.8,130,76.7,129.1,76.7z"/>
		<path fill="#7500D4" d="M125.4,76.7c0,1-0.8,1.8-1.8,1.7c-1,0-1.8-0.8-1.8-1.8c0-1,0.8-1.8,1.8-1.7
			C124.6,74.9,125.4,75.7,125.4,76.7z"/>
		<path fill="#7500D4" d="M55.3,143.9c-1-0.1-1.8-1-1.7-1.9c0.1-1,1-1.7,1.9-1.7c1,0.1,1.8,1,1.7,1.9
			C57.2,143.1,56.3,143.9,55.3,143.9z"/>
	</g>
</g>
</svg>
