<?xml version="1.0" encoding="utf-8"?>
<!-- Generator: Adobe Illustrator 26.3.1, SVG Export Plug-In . SVG Version: 6.00 Build 0)  -->
<svg version="1.1" baseProfile="tiny" id="Layer_1" xmlns="http://www.w3.org/2000/svg" xmlns:xlink="http://www.w3.org/1999/xlink"
	 x="0px" y="0px" width="191px" height="268px" viewBox="0 0 191 268" overflow="visible" xml:space="preserve">
<rect fill="#F2ECEC" width="191" height="268"/>
<g>
	<path fill="#363636" d="M37.4,204.8c-0.9-0.5-1.6-1.2-2.1-2.1c-0.5-0.9-0.8-1.9-0.8-3c0-1.1,0.3-2.1,0.8-3c0.5-0.9,1.2-1.6,2.1-2.1
		c0.9-0.5,1.9-0.7,2.9-0.7c1.1,0,2,0.2,2.9,0.7c0.9,0.5,1.6,1.2,2.1,2.1c0.5,0.9,0.8,1.9,0.8,3c0,1.1-0.3,2.1-0.8,3
		s-1.2,1.6-2.1,2.1c-0.9,0.5-1.9,0.7-2.9,0.7C39.3,205.6,38.3,205.3,37.4,204.8z M42.1,203.1c0.5-0.3,0.9-0.7,1.2-1.3s0.4-1.2,0.4-2
		s-0.1-1.4-0.4-2c-0.3-0.6-0.7-1-1.2-1.3c-0.5-0.3-1.1-0.5-1.8-0.5s-1.3,0.2-1.8,0.5c-0.5,0.3-0.9,0.7-1.2,1.3
		c-0.3,0.6-0.4,1.2-0.4,2s0.1,1.4,0.4,2s0.7,1,1.2,1.3c0.5,0.3,1.1,0.5,1.8,0.5S41.6,203.4,42.1,203.1z"/>
	<path fill="#363636" d="M55.4,197.4c0.7,0.7,1,1.6,1,2.8v5.3h-2.3v-5c0-0.7-0.2-1.3-0.5-1.6c-0.4-0.4-0.8-0.6-1.5-0.6
		c-0.6,0-1.1,0.2-1.5,0.6c-0.4,0.4-0.5,0.9-0.5,1.6v5h-2.3v-9h2.3v1.1c0.3-0.4,0.7-0.7,1.2-0.9c0.5-0.2,1-0.3,1.5-0.3
		C53.9,196.4,54.7,196.7,55.4,197.4z"/>
	<path fill="#363636" d="M60.8,193.5v12h-2.3v-12H60.8z"/>
	<path fill="#363636" d="M71.6,196.5l-5.6,13.2h-2.4l1.9-4.5l-3.6-8.7h2.5l2.3,6.3l2.3-6.3H71.6z"/>
	<path fill="#363636" d="M76.7,198.5c0.4-0.7,0.9-1.2,1.6-1.6c0.7-0.4,1.4-0.6,2.3-0.6c1.1,0,2,0.3,2.8,0.8c0.7,0.6,1.2,1.3,1.5,2.3
		h-2.4c-0.1-0.4-0.3-0.7-0.7-0.9c-0.3-0.2-0.7-0.3-1.1-0.3c-0.6,0-1.2,0.2-1.5,0.7s-0.6,1.1-0.6,2c0,0.9,0.2,1.5,0.6,2
		s0.9,0.7,1.5,0.7c0.9,0,1.5-0.4,1.8-1.2h2.4c-0.2,1-0.7,1.7-1.5,2.3s-1.7,0.9-2.8,0.9c-0.9,0-1.6-0.2-2.3-0.6
		c-0.7-0.4-1.2-0.9-1.6-1.6c-0.4-0.7-0.6-1.5-0.6-2.4S76.3,199.2,76.7,198.5z"/>
	<path fill="#363636" d="M88.1,205c-0.7-0.4-1.2-0.9-1.6-1.6c-0.4-0.7-0.6-1.5-0.6-2.4s0.2-1.7,0.6-2.4c0.4-0.7,1-1.2,1.7-1.6
		c0.7-0.4,1.5-0.6,2.3-0.6s1.6,0.2,2.3,0.6c0.7,0.4,1.3,0.9,1.7,1.6c0.4,0.7,0.6,1.5,0.6,2.4s-0.2,1.7-0.6,2.4
		c-0.4,0.7-1,1.2-1.7,1.6c-0.7,0.4-1.5,0.6-2.4,0.6C89.5,205.6,88.8,205.4,88.1,205z M91.6,203.3c0.4-0.2,0.7-0.5,0.9-0.9
		c0.2-0.4,0.3-0.9,0.3-1.5c0-0.9-0.2-1.5-0.7-2c-0.4-0.5-1-0.7-1.6-0.7s-1.2,0.2-1.6,0.7c-0.4,0.5-0.7,1.1-0.7,2s0.2,1.5,0.6,2
		s1,0.7,1.6,0.7C90.8,203.6,91.2,203.5,91.6,203.3z"/>
	<path fill="#363636" d="M96.7,198.5c0.4-0.7,0.9-1.2,1.5-1.6s1.3-0.6,2.1-0.6c0.7,0,1.3,0.1,1.8,0.4c0.5,0.3,0.9,0.6,1.2,1v-1.3
		h2.3v9h-2.3v-1.3c-0.3,0.4-0.7,0.8-1.2,1c-0.5,0.3-1.1,0.4-1.8,0.4c-0.8,0-1.4-0.2-2.1-0.6s-1.1-0.9-1.5-1.6s-0.5-1.5-0.5-2.4
		C96.2,200,96.4,199.2,96.7,198.5z M102.9,199.6c-0.2-0.4-0.5-0.7-0.9-0.9s-0.8-0.3-1.2-0.3s-0.8,0.1-1.2,0.3
		c-0.4,0.2-0.6,0.5-0.9,0.9c-0.2,0.4-0.3,0.9-0.3,1.4s0.1,1,0.3,1.4s0.5,0.7,0.9,0.9s0.7,0.3,1.2,0.3c0.4,0,0.8-0.1,1.2-0.3
		c0.4-0.2,0.7-0.5,0.9-0.9c0.2-0.4,0.3-0.9,0.3-1.4S103.1,200,102.9,199.6z"/>
	<path fill="#363636" d="M107.7,198.5c0.4-0.7,0.9-1.2,1.6-1.6c0.7-0.4,1.4-0.6,2.3-0.6c1.1,0,2,0.3,2.8,0.8
		c0.7,0.6,1.2,1.3,1.5,2.3h-2.4c-0.1-0.4-0.3-0.7-0.7-0.9c-0.3-0.2-0.7-0.3-1.1-0.3c-0.6,0-1.2,0.2-1.5,0.7s-0.6,1.1-0.6,2
		c0,0.9,0.2,1.5,0.6,2s0.9,0.7,1.5,0.7c0.9,0,1.5-0.4,1.8-1.2h2.4c-0.2,1-0.7,1.7-1.5,2.3s-1.7,0.9-2.8,0.9c-0.9,0-1.6-0.2-2.3-0.6
		c-0.7-0.4-1.2-0.9-1.6-1.6s-0.6-1.5-0.6-2.4S107.3,199.2,107.7,198.5z"/>
	<path fill="#363636" d="M124.4,196.8c0.5,0.3,0.9,0.7,1.2,1.3c0.3,0.6,0.4,1.3,0.4,2.1v5.3h-2.3v-5c0-0.7-0.2-1.3-0.5-1.6
		c-0.4-0.4-0.8-0.6-1.5-0.6c-0.6,0-1.1,0.2-1.5,0.6c-0.4,0.4-0.5,0.9-0.5,1.6v5h-2.3v-12h2.3v4.1c0.3-0.4,0.7-0.7,1.2-0.9
		c0.5-0.2,1-0.3,1.6-0.3C123.2,196.4,123.8,196.5,124.4,196.8z"/>
	<path fill="#363636" d="M134.7,198.4v4.3c0,0.3,0.1,0.5,0.2,0.7c0.1,0.1,0.4,0.2,0.7,0.2h1.1v1.9h-1.4c-1.9,0-2.9-0.9-2.9-2.8v-4.3
		h-1.1v-1.9h1.1v-2.2h2.3v2.2h2v1.9H134.7z"/>
	<path fill="#363636" d="M145.2,196.8c0.5,0.3,0.9,0.7,1.2,1.3c0.3,0.6,0.4,1.3,0.4,2.1v5.3h-2.3v-5c0-0.7-0.2-1.3-0.5-1.6
		c-0.4-0.4-0.8-0.6-1.5-0.6c-0.6,0-1.1,0.2-1.5,0.6c-0.4,0.4-0.5,0.9-0.5,1.6v5h-2.3v-12h2.3v4.1c0.3-0.4,0.7-0.7,1.2-0.9
		c0.5-0.2,1-0.3,1.6-0.3C144.1,196.4,144.7,196.5,145.2,196.8z"/>
	<path fill="#363636" d="M157.3,201.7h-6.6c0.1,0.6,0.3,1.2,0.7,1.5c0.4,0.4,0.9,0.6,1.5,0.6c0.8,0,1.4-0.4,1.8-1.1h2.4
		c-0.3,0.9-0.8,1.6-1.5,2.1c-0.7,0.6-1.6,0.8-2.7,0.8c-0.9,0-1.6-0.2-2.3-0.6c-0.7-0.4-1.2-0.9-1.6-1.6c-0.4-0.7-0.6-1.5-0.6-2.4
		c0-0.9,0.2-1.7,0.6-2.4c0.4-0.7,0.9-1.2,1.6-1.6c0.7-0.4,1.5-0.6,2.3-0.6c0.9,0,1.6,0.2,2.3,0.5c0.7,0.4,1.2,0.9,1.6,1.6
		c0.4,0.7,0.6,1.4,0.6,2.3C157.4,201.1,157.4,201.4,157.3,201.7z M155,200.1c0-0.6-0.2-1-0.6-1.4s-0.9-0.5-1.5-0.5
		c-0.6,0-1,0.2-1.4,0.5c-0.4,0.3-0.6,0.8-0.7,1.4H155z"/>
	<path fill="#363636" d="M51,218.6c0.4-0.7,0.9-1.2,1.6-1.6c0.7-0.4,1.4-0.6,2.3-0.6c1.1,0,2,0.3,2.8,0.8c0.7,0.6,1.2,1.3,1.5,2.3
		h-2.4c-0.1-0.4-0.3-0.7-0.7-0.9c-0.3-0.2-0.7-0.3-1.1-0.3c-0.6,0-1.2,0.2-1.5,0.7s-0.6,1.1-0.6,2c0,0.9,0.2,1.5,0.6,2
		s0.9,0.7,1.5,0.7c0.9,0,1.5-0.4,1.8-1.2h2.4c-0.2,1-0.7,1.7-1.5,2.3s-1.7,0.9-2.8,0.9c-0.9,0-1.6-0.2-2.3-0.6
		c-0.7-0.4-1.2-0.9-1.6-1.6c-0.4-0.7-0.6-1.5-0.6-2.4S50.6,219.3,51,218.6z"/>
	<path fill="#363636" d="M62.4,225.1c-0.7-0.4-1.2-0.9-1.6-1.6c-0.4-0.7-0.6-1.5-0.6-2.4s0.2-1.7,0.6-2.4c0.4-0.7,1-1.2,1.7-1.6
		c0.7-0.4,1.5-0.6,2.3-0.6s1.6,0.2,2.3,0.6c0.7,0.4,1.3,0.9,1.7,1.6c0.4,0.7,0.6,1.5,0.6,2.4s-0.2,1.7-0.6,2.4
		c-0.4,0.7-1,1.2-1.7,1.6c-0.7,0.4-1.5,0.6-2.4,0.6C63.8,225.6,63.1,225.5,62.4,225.1z M65.9,223.4c0.4-0.2,0.7-0.5,0.9-0.9
		c0.2-0.4,0.3-0.9,0.3-1.5c0-0.9-0.2-1.5-0.7-2c-0.4-0.5-1-0.7-1.6-0.7s-1.2,0.2-1.6,0.7c-0.4,0.5-0.7,1.1-0.7,2s0.2,1.5,0.6,2
		s1,0.7,1.6,0.7C65.1,223.7,65.5,223.6,65.9,223.4z"/>
	<path fill="#363636" d="M71,218.6c0.4-0.7,0.9-1.2,1.5-1.6s1.3-0.6,2.1-0.6c0.7,0,1.3,0.1,1.8,0.4c0.5,0.3,0.9,0.6,1.2,1v-1.3h2.3
		v9h-2.3v-1.3c-0.3,0.4-0.7,0.8-1.2,1c-0.5,0.3-1.1,0.4-1.8,0.4c-0.8,0-1.4-0.2-2.1-0.6s-1.1-0.9-1.5-1.6c-0.4-0.7-0.5-1.5-0.5-2.4
		C70.5,220.1,70.7,219.3,71,218.6z M77.2,219.6c-0.2-0.4-0.5-0.7-0.9-0.9s-0.8-0.3-1.2-0.3c-0.4,0-0.8,0.1-1.2,0.3
		c-0.4,0.2-0.6,0.5-0.9,0.9c-0.2,0.4-0.3,0.9-0.3,1.4s0.1,1,0.3,1.4c0.2,0.4,0.5,0.7,0.9,0.9s0.7,0.3,1.2,0.3c0.4,0,0.8-0.1,1.2-0.3
		c0.4-0.2,0.7-0.5,0.9-0.9c0.2-0.4,0.3-0.9,0.3-1.4S77.4,220,77.2,219.6z"/>
	<path fill="#363636" d="M82,218.6c0.4-0.7,0.9-1.2,1.6-1.6c0.7-0.4,1.4-0.6,2.3-0.6c1.1,0,2,0.3,2.8,0.8c0.7,0.6,1.2,1.3,1.5,2.3
		h-2.4c-0.1-0.4-0.3-0.7-0.7-0.9c-0.3-0.2-0.7-0.3-1.1-0.3c-0.6,0-1.2,0.2-1.5,0.7s-0.6,1.1-0.6,2c0,0.9,0.2,1.5,0.6,2
		s0.9,0.7,1.5,0.7c0.9,0,1.5-0.4,1.8-1.2h2.4c-0.2,1-0.7,1.7-1.5,2.3s-1.7,0.9-2.8,0.9c-0.9,0-1.6-0.2-2.3-0.6
		c-0.7-0.4-1.2-0.9-1.6-1.6c-0.4-0.7-0.6-1.5-0.6-2.4S81.6,219.3,82,218.6z"/>
	<path fill="#363636" d="M98.7,216.8c0.5,0.3,0.9,0.7,1.2,1.3c0.3,0.6,0.4,1.3,0.4,2.1v5.3h-2.3v-5c0-0.7-0.2-1.3-0.5-1.6
		c-0.4-0.4-0.8-0.6-1.5-0.6c-0.6,0-1.1,0.2-1.5,0.6c-0.4,0.4-0.5,0.9-0.5,1.6v5h-2.3v-12h2.3v4.1c0.3-0.4,0.7-0.7,1.2-0.9
		c0.5-0.2,1-0.3,1.6-0.3C97.5,216.4,98.1,216.5,98.7,216.8z"/>
	<path fill="#363636" d="M102.5,218.6c0.4-0.7,0.9-1.2,1.5-1.6s1.3-0.6,2.1-0.6c0.7,0,1.3,0.1,1.8,0.4c0.5,0.3,0.9,0.6,1.2,1v-1.3
		h2.3v9H109v-1.3c-0.3,0.4-0.7,0.8-1.2,1s-1.1,0.4-1.8,0.4c-0.8,0-1.4-0.2-2.1-0.6s-1.1-0.9-1.5-1.6c-0.4-0.7-0.5-1.5-0.5-2.4
		C101.9,220.1,102.1,219.3,102.5,218.6z M108.7,219.6c-0.2-0.4-0.5-0.7-0.9-0.9s-0.8-0.3-1.2-0.3c-0.4,0-0.8,0.1-1.2,0.3
		s-0.6,0.5-0.9,0.9c-0.2,0.4-0.3,0.9-0.3,1.4s0.1,1,0.3,1.4c0.2,0.4,0.5,0.7,0.9,0.9c0.4,0.2,0.7,0.3,1.2,0.3c0.4,0,0.8-0.1,1.2-0.3
		c0.4-0.2,0.7-0.5,0.9-0.9c0.2-0.4,0.3-0.9,0.3-1.4S108.9,220,108.7,219.6z"/>
	<path fill="#363636" d="M117,216.8c0.5-0.3,1.1-0.4,1.8-0.4c0.8,0,1.5,0.2,2.1,0.6c0.6,0.4,1.1,0.9,1.5,1.6
		c0.4,0.7,0.5,1.5,0.5,2.4s-0.2,1.7-0.5,2.4c-0.4,0.7-0.9,1.3-1.5,1.6c-0.6,0.4-1.3,0.6-2.1,0.6c-0.7,0-1.3-0.1-1.8-0.4
		s-0.9-0.6-1.2-1v1.3h-2.3v-12h2.3v4.3C116,217.4,116.4,217.1,117,216.8z M120.2,219.6c-0.2-0.4-0.5-0.7-0.9-0.9s-0.8-0.3-1.2-0.3
		c-0.4,0-0.8,0.1-1.2,0.3c-0.4,0.2-0.7,0.5-0.9,0.9c-0.2,0.4-0.3,0.9-0.3,1.4s0.1,1,0.3,1.4c0.2,0.4,0.5,0.7,0.9,0.9
		c0.4,0.2,0.7,0.3,1.2,0.3c0.4,0,0.8-0.1,1.2-0.3s0.7-0.5,0.9-0.9c0.2-0.4,0.3-0.9,0.3-1.4C120.5,220.4,120.4,220,120.2,219.6z"/>
	<path fill="#363636" d="M126.7,213.5v12h-2.3v-12H126.7z"/>
	<path fill="#363636" d="M137.2,221.7h-6.6c0.1,0.6,0.3,1.2,0.7,1.5c0.4,0.4,0.9,0.6,1.5,0.6c0.8,0,1.4-0.4,1.8-1.1h2.4
		c-0.3,0.9-0.8,1.6-1.5,2.1c-0.7,0.6-1.6,0.8-2.7,0.8c-0.9,0-1.6-0.2-2.3-0.6c-0.7-0.4-1.2-0.9-1.6-1.6c-0.4-0.7-0.6-1.5-0.6-2.4
		c0-0.9,0.2-1.7,0.6-2.4c0.4-0.7,0.9-1.2,1.6-1.6c0.7-0.4,1.5-0.6,2.3-0.6c0.9,0,1.6,0.2,2.3,0.5c0.7,0.4,1.2,0.9,1.6,1.6
		c0.4,0.7,0.6,1.4,0.6,2.3C137.3,221.1,137.3,221.4,137.2,221.7z M135,220.2c0-0.6-0.2-1-0.6-1.4s-0.9-0.5-1.5-0.5
		c-0.6,0-1,0.2-1.4,0.5c-0.4,0.3-0.6,0.8-0.7,1.4H135z"/>
	<path fill="#363636" d="M138.9,225.2c-0.3-0.3-0.4-0.6-0.4-0.9s0.1-0.7,0.4-0.9s0.6-0.4,1-0.4c0.4,0,0.7,0.1,1,0.4
		c0.3,0.3,0.4,0.6,0.4,0.9s-0.1,0.7-0.4,0.9c-0.3,0.3-0.6,0.4-1,0.4C139.5,225.6,139.2,225.5,138.9,225.2z"/>
</g>
<g id="CzQ3rk_00000029762259022130272680000017814295564452028811_">
	<g>
		<path fill="#7500D4" d="M64.5,117.8c-1.7-1.9-1.7-1.9-3.8-0.9c-4.9,2.3-9.9,4.6-14.8,6.9c-0.2,0.1-0.3,0.2-0.5,0.3
			c-1.1,0.5-2.1,0.1-2.5-0.8c-0.4-0.9,0-1.9,1.1-2.4c3.2-1.5,6.3-3,9.5-4.4c2.2-1,4.4-2.1,6.6-3.1c-1.1-1.6-1-1.8,0.9-4.1
			c-0.3-0.3-0.5-0.6-0.8-0.9c-5.3-5.3-10.5-10.5-15.8-15.8c-1.5-1.5-1.5-2.2,0-3.7c3.7-3.7,7.3-7.4,11.1-11c1.1-1.1,2.5-1.9,3.8-2.7
			c1-0.6,2-0.3,2.5,0.6c0.5,0.9,0.2,1.9-0.8,2.5c-3.4,1.8-5.7,5-8.5,7.4c5.3,5.3,10.5,10.5,15.7,15.7c4.3-7.1,8.6-14.2,13.1-21.5
			c-4.5-1.2-8.6-3.5-13.3-3.4c-0.2,0-0.5,0-0.7,0c-1.1,0-1.9-0.7-1.9-1.7c0-1,0.7-1.8,1.8-1.8c2.1,0.1,4.3,0.2,6.3,0.7
			c3,0.8,5.8,1.9,8.7,2.8c0.3,0.1,0.6,0.2,0.8,0.2c1.8-2.7,3.5-5.5,5.5-8c6.9-8.8,15.9-13.9,26.9-15.7c4.9-0.8,9.8-0.3,14.7-0.2
			c4.9,0.1,9.7,0.3,14.6,0.4c1.6,0,2.2,0.6,2.2,2.2c0.2,7.8,0.4,15.6,0.5,23.3c0,5.1-1,10.1-2.9,14.8c-0.5,1.3-1.4,1.8-2.4,1.4
			c-1-0.4-1.4-1.3-0.8-2.7c1.4-3.6,2.3-7.3,2.6-11.2c0.1-0.8,0-1.6,0-2.6c-5.7-1-10.7-3.5-14.8-7.6c-4.1-4.1-6.7-9.1-7.8-14.9
			c-3.3-0.1-6.6,0.4-9.8,1.3c-9.7,2.7-17.4,8.3-22.7,16.9c-6,9.7-11.9,19.5-17.9,29.3c-0.1,0.1-0.1,0.2-0.2,0.5c1,1,2.2,2.1,3.2,3.1
			c1.7,1.7,3.3,3.3,5,5c1,1,1.1,1.9,0.3,2.7c-0.8,0.8-1.8,0.8-2.8-0.2c-2.4-2.3-4.7-4.7-7-7c-0.3-0.3-0.5-0.7-0.7-0.9
			c-1.7,1.7-3.3,3.3-4.8,4.9c8,8,16.2,16.2,24.3,24.3c1.5-1.5,3.1-3.1,4.7-4.7c-0.2-0.2-0.4-0.5-0.7-0.8c-3.3-3.3-6.7-6.7-10-10
			c-0.3-0.3-0.6-0.6-0.8-1c-0.4-0.8-0.4-1.7,0.4-2.1c0.5-0.3,1.4-0.2,2.1-0.2c0.3,0,0.6,0.5,0.9,0.8c3.4,3.4,6.8,6.8,10.3,10.3
			c0.3,0.3,0.6,0.6,1,0.9c4.2-2.5,8.2-5,12.3-7.5c6-3.7,12.1-7.3,18.1-11.1c4.5-2.8,8.2-6.5,11.1-10.9c0.2-0.3,0.4-0.5,0.5-0.8
			c0.7-1,1.6-1.2,2.5-0.7c0.9,0.6,1.1,1.7,0.3,2.7c-1.7,2.2-3.3,4.5-5.2,6.5c-3.3,3.7-7.4,6.3-11.7,8.7c-0.7,0.4-0.9,0.8-0.6,1.6
			c1.1,3.3,2.4,6.5,3.1,9.9c1.5,6.7-0.3,12.5-5,17.4c-3.4,3.6-7,7-10.5,10.5c-1.4,1.4-2.1,1.4-3.5,0c-5.3-5.3-10.7-10.7-16-16
			c-0.2-0.2-0.4-0.5-0.6-0.8c-1.2,0.7-1.8,2.3-3.5,1.5c-1.3,3.2-2.6,6.4-3.8,9.5c-0.8,2-1.6,3.9-2.4,5.9c-0.5,1.3-1.4,1.8-2.4,1.5
			c-1.1-0.4-1.4-1.4-0.9-2.8c2-5.1,4-10.2,6.1-15.2c0.5-1.2,0.4-2-0.6-2.8c-0.3-0.2-0.5-0.7-0.9-1.2c-0.4,0.6-0.6,1-0.8,1.3
			c-1.8,3.2-3.5,6.5-5.3,9.7c-0.2,0.3-0.3,0.6-0.5,0.8c-0.7,1.3-1.6,1.7-2.6,1.2c-1-0.5-1.2-1.5-0.5-2.9c1.5-2.8,3-5.6,4.6-8.4
			c0.8-1.4,1.5-2.8,2.3-4.2c-0.8-0.8-1.5-1.5-2.4-2.4c-0.3,0.4-0.5,0.7-0.7,1.1c-3.7,5.7-7.4,11.4-11,17.1c-0.1,0.2-0.3,0.5-0.5,0.7
			c-0.7,0.9-1.6,1.1-2.5,0.6c-0.8-0.5-1-1.5-0.5-2.5c1.4-2.2,2.7-4.3,4.1-6.5c2.6-4.1,5.2-8.1,7.8-12.2c0.2-0.3,0.3-0.6,0.4-1
			c-0.3,0.3-0.6,0.5-0.9,0.8c-3.3,3.3-6.6,6.6-9.9,9.9c-0.2,0.2-0.4,0.4-0.6,0.6c-0.8,0.8-1.8,0.8-2.5,0.1c-0.8-0.7-0.8-1.8,0.1-2.6
			c3.4-3.5,6.9-6.9,10.3-10.3c0.3-0.3,0.7-0.6,1.1-0.9c-0.1-0.1-0.1-0.2-0.2-0.2c-0.3,0.2-0.7,0.4-1,0.6c-6,3.8-11.9,7.6-17.9,11.5
			c-1.5,1-2.6,1-3.2,0c-0.6-1-0.2-1.9,1.3-2.9c5.7-3.7,11.4-7.4,17.1-11c0.3-0.2,0.6-0.4,1.1-0.7c-0.9-0.7-1.7-1.4-2.7-2.2
			c-3.7,2-7.8,4.2-11.9,6.5c-1.7,0.9-2.7,0.9-3.3-0.2c-0.6-1.1-0.1-1.9,1.6-2.9c3.4-1.9,6.9-3.8,10.3-5.7
			C63.9,118.2,64.1,118,64.5,117.8z M120.1,118.6c-7.3,4.5-14.4,8.8-21.5,13.1c5.2,5.2,10.4,10.4,15.6,15.6c1.8-1.8,3.8-3.5,5.5-5.4
			c3.2-3.6,4.5-8,3.5-12.7C122.4,125.7,121.2,122.3,120.1,118.6z M143.9,75.1c-0.1-6.1-0.3-12.1-0.4-18.2
			c-6.3-0.2-12.4-0.4-18.6-0.6C126.5,65.6,135,73.8,143.9,75.1z M63.4,106.5c0.8-0.8,1.6-1.5,2.4-2.1c-5.3-5.3-10.7-10.6-15.9-15.8
			c-0.7,0.6-1.5,1.4-2.4,2.1C52.9,96.1,58.2,101.4,63.4,106.5z M111.3,150.2c-5.2-5.3-10.5-10.7-15.7-16c-0.8,0.8-1.5,1.6-2.2,2.2
			c5.3,5.3,10.6,10.6,15.9,15.9C110,151.6,110.8,150.8,111.3,150.2z"/>
		<path fill="#7500D4" d="M129.1,88.3c-0.1,13.4-14.3,21.7-26,15.1c-4.2-2.4-6.9-6-8.2-10.6c-0.4-1.3,0-2.1,1.1-2.5
			c1-0.3,1.9,0.2,2.3,1.4c1.1,3.7,3.3,6.6,6.7,8.6c5.2,3,12,2.2,16.3-1.8c4.7-4.5,6-11,3.2-16.6c-2.4-4.7-6.2-7.4-11.4-7.8
			c-5.5-0.4-9.9,1.8-13,6.4c-0.7,1.1-1.1,2.3-1.6,3.5c-0.2,0.4-0.2,0.8-0.3,1.1c-0.4,1.1-1.2,1.6-2.2,1.3c-0.9-0.3-1.4-1.1-1.2-2.2
			c1.1-4.7,3.7-8.5,7.9-11c6.1-3.6,12.3-3.6,18.4,0.1C126.1,76.7,129.2,82.3,129.1,88.3z"/>
		<path fill="#7500D4" d="M111.8,77.9c4.1,0.1,7.9,2.6,9.4,6.3c1.7,4.1,0.8,8.5-2.1,11.6c-1.5,1.5-3.2,1.4-3.8-1
			c-1.4-5.3-4.8-8.7-10.1-10.1c-2.2-0.6-2.6-2.3-0.9-3.9C106.4,78.9,108.9,77.8,111.8,77.9z M117.9,91.2c1.5-2.8,0.7-6.3-1.9-8.4
			c-1.9-1.6-5.6-2.1-7.2-0.6C113,84,115.9,87.1,117.9,91.2z"/>
		<path fill="#7500D4" d="M72.5,59.5c1.4,0.2,3.3-0.3,3.3,1.9c0,2.1-1.9,1.6-3.3,1.8c-0.2,1.4,0.3,3.2-1.9,3.4
			c-1.2,0.1-1.5-0.5-1.8-3.3c-1.3-0.3-3.2,0.3-3.3-1.9c-0.1-1.2,0.7-1.6,3.4-1.8c0.2-1.3-0.3-3.3,1.9-3.3
			C72.8,56.3,72.3,58.2,72.5,59.5z"/>
		<path fill="#7500D4" d="M138.8,122.6c-0.1,1.4,0.3,3.2-1.8,3.4c-1.2,0.1-1.6-0.7-1.9-3.4c-1.4-0.2-3.4,0.4-3.3-2
			c0.1-2,2-1.4,3.3-1.7c0.2-1.4-0.4-3.5,2-3.3c2,0.1,1.5,1.9,1.6,3.3c1.3,0.3,3.4-0.3,3.4,1.9C142.2,122.9,140.2,122.5,138.8,122.6z
			"/>
		<path fill="#7500D4" d="M137.1,148.8c-0.2,1.3,0.4,3.3-1.7,3.3c-2.3,0.1-1.7-2-1.9-3.4c-1.4-0.2-3.4,0.3-3.4-1.9
			c0.1-2,1.9-1.6,3.3-1.7c0.3-1.4-0.4-3.4,1.9-3.4c2.1,0.1,1.5,2,1.7,3.3c1.3,0.3,3.3-0.4,3.4,1.9
			C140.5,148.2,139.9,148.5,137.1,148.8z"/>
		<path fill="#7500D4" d="M56.8,141.6c0.4,0.3,1.1,0.6,1.3,1.1c0.2,0.5,0.2,1.4-0.1,1.8c-2.3,2.5-4.7,4.9-7.2,7.3
			c-0.7,0.7-1.6,0.6-2.3-0.1c-0.7-0.7-0.7-1.6-0.1-2.3c2.3-2.4,4.7-4.8,7.1-7.2C55.8,142,56.2,141.9,56.8,141.6z"/>
		<path fill="#7500D4" d="M53.2,70.1c-1,0-1.8-0.8-1.8-1.8c0-0.9,0.9-1.7,1.7-1.7c0.9,0,1.7,0.8,1.8,1.7
			C55,69.2,54.1,70.1,53.2,70.1z"/>
		<path fill="#7500D4" d="M68.9,80.9c0,1-0.8,1.7-1.7,1.7c-1,0-1.8-0.8-1.7-1.8c0-0.9,0.8-1.7,1.8-1.6C68.2,79.2,69,79.9,68.9,80.9z
			"/>
		<path fill="#7500D4" d="M138.1,83.4c0,0.9-0.8,1.7-1.7,1.7c-1,0-1.8-0.8-1.7-1.8c0-0.9,0.9-1.6,1.8-1.6
			C137.4,81.6,138.1,82.4,138.1,83.4z"/>
		<path fill="#7500D4" d="M61.1,88.8c-0.9,0-1.7-0.8-1.8-1.7c0-0.9,0.8-1.8,1.7-1.8c0.9,0,1.7,0.8,1.8,1.7
			C62.8,87.9,62,88.8,61.1,88.8z"/>
		<path fill="#7500D4" d="M82.8,70.2c0,0.9-0.8,1.7-1.7,1.7c-0.9,0-1.7-0.8-1.7-1.7c0-0.9,0.8-1.7,1.8-1.7
			C82.1,68.5,82.9,69.2,82.8,70.2z"/>
		<path fill="#7500D4" d="M142.2,110.3c-0.9,0-1.7-0.8-1.7-1.8c0-0.9,0.9-1.7,1.8-1.7c0.9,0,1.7,0.8,1.7,1.8
			C143.9,109.5,143.1,110.3,142.2,110.3z"/>
		<path fill="#7500D4" d="M80.1,101.9c0,0.9-0.8,1.7-1.7,1.7c-0.9,0-1.7-0.8-1.7-1.8c0-0.9,0.8-1.7,1.7-1.7
			C79.3,100.1,80.1,101,80.1,101.9z"/>
		<path fill="#7500D4" d="M89.9,111.7c0,0.9-0.7,1.8-1.7,1.8c-0.9,0-1.7-0.8-1.8-1.7c0-0.9,0.8-1.8,1.7-1.8
			C89.1,110,89.9,110.8,89.9,111.7z"/>
		<path fill="#7500D4" d="M99.8,121.6c0,0.9-0.8,1.7-1.7,1.7c-0.9,0-1.7-0.8-1.7-1.7c0-0.9,0.8-1.7,1.8-1.7
			C99,119.9,99.8,120.7,99.8,121.6z"/>
		<path fill="#7500D4" d="M142.3,133.1c0-0.9,0.7-1.8,1.7-1.8c0.9,0,1.7,0.8,1.8,1.7c0,0.9-0.8,1.8-1.7,1.8
			C143.2,134.8,142.3,134,142.3,133.1z"/>
		<path fill="#7500D4" d="M116.6,61.9c0.9,0,1.7,0.8,1.7,1.8c0,0.9-0.9,1.7-1.8,1.7c-0.9,0-1.7-0.8-1.7-1.8
			C114.9,62.6,115.7,61.9,116.6,61.9z"/>
		<path fill="#7500D4" d="M120.8,132.8c0,0.9-0.8,1.7-1.7,1.7c-0.9,0-1.8-0.8-1.7-1.7c0-0.9,0.9-1.8,1.8-1.8
			C120.1,131,120.8,131.8,120.8,132.8z"/>
		<path fill="#7500D4" d="M111.2,138.9c0-0.9,0.9-1.7,1.7-1.8c0.9,0,1.8,0.9,1.8,1.7c0,0.9-0.9,1.8-1.7,1.8
			C112.1,140.7,111.2,139.8,111.2,138.9z"/>
	</g>
</g>
</svg>
