<?xml version="1.0" encoding="utf-8"?>
<!-- Generator: Adobe Illustrator 26.3.1, SVG Export Plug-In . SVG Version: 6.00 Build 0)  -->
<svg version="1.1" baseProfile="tiny" id="Layer_1" xmlns="http://www.w3.org/2000/svg" xmlns:xlink="http://www.w3.org/1999/xlink"
	 x="0px" y="0px" width="191px" height="268px" viewBox="0 0 191 268" overflow="visible" xml:space="preserve">
<rect fill="#F2ECEC" width="191" height="268"/>
<g>
	<path fill="#363636" d="M41.9,194.2v1.8h-3v9.5h-2.3V196h-3v-1.8H41.9z"/>
	<path fill="#363636" d="M50.4,196.8c0.5,0.3,0.9,0.7,1.2,1.3c0.3,0.6,0.4,1.3,0.4,2.1v5.3h-2.3v-5c0-0.7-0.2-1.3-0.5-1.6
		c-0.4-0.4-0.8-0.6-1.5-0.6c-0.6,0-1.1,0.2-1.5,0.6c-0.4,0.4-0.5,0.9-0.5,1.6v5h-2.3v-12h2.3v4.1c0.3-0.4,0.7-0.7,1.2-0.9
		c0.5-0.2,1-0.3,1.6-0.3C49.2,196.4,49.8,196.5,50.4,196.8z"/>
	<path fill="#363636" d="M54.4,195c-0.3-0.3-0.4-0.6-0.4-0.9s0.1-0.7,0.4-0.9c0.3-0.3,0.6-0.4,1-0.4c0.4,0,0.7,0.1,1,0.4
		c0.3,0.3,0.4,0.6,0.4,0.9s-0.1,0.7-0.4,0.9c-0.3,0.3-0.6,0.4-1,0.4C55,195.4,54.6,195.3,54.4,195z M56.5,196.5v9h-2.3v-9H56.5z"/>
	<path fill="#363636" d="M66.3,197.4c0.7,0.7,1,1.6,1,2.8v5.3H65v-5c0-0.7-0.2-1.3-0.5-1.6c-0.4-0.4-0.8-0.6-1.5-0.6
		c-0.6,0-1.1,0.2-1.5,0.6c-0.4,0.4-0.5,0.9-0.5,1.6v5h-2.3v-9H61v1.1c0.3-0.4,0.7-0.7,1.2-0.9c0.5-0.2,1-0.3,1.5-0.3
		C64.8,196.4,65.6,196.7,66.3,197.4z"/>
	<path fill="#363636" d="M74.7,205.5l-3-3.8v3.8h-2.3v-12h2.3v6.8l3-3.8h2.9l-4,4.5l4,4.5H74.7z"/>
	<path fill="#363636" d="M97.8,194.2l-3.2,11.3H92l-2.1-8l-2.2,8l-2.7,0l-3-11.3h2.4l2,8.8l2.3-8.8h2.5l2.2,8.7l2-8.7H97.8z"/>
	<path fill="#363636" d="M99.5,195c-0.3-0.3-0.4-0.6-0.4-0.9s0.1-0.7,0.4-0.9s0.6-0.4,1-0.4s0.7,0.1,1,0.4s0.4,0.6,0.4,0.9
		s-0.1,0.7-0.4,0.9c-0.3,0.3-0.6,0.4-1,0.4S99.7,195.3,99.5,195z M101.6,196.5v9h-2.3v-9H101.6z"/>
	<path fill="#363636" d="M111.4,197.4c0.7,0.7,1,1.6,1,2.8v5.3h-2.3v-5c0-0.7-0.2-1.3-0.5-1.6c-0.4-0.4-0.8-0.6-1.5-0.6
		c-0.6,0-1.1,0.2-1.5,0.6c-0.4,0.4-0.5,0.9-0.5,1.6v5h-2.3v-9h2.3v1.1c0.3-0.4,0.7-0.7,1.2-0.9c0.5-0.2,1-0.3,1.5-0.3
		C109.9,196.4,110.7,196.7,111.4,197.4z"/>
	<path fill="#363636" d="M121.4,198.7v1.9h-6.9v-1.9H121.4z"/>
	<path fill="#363636" d="M139.1,194.2l-3.2,11.3h-2.7l-2.1-8l-2.2,8l-2.7,0l-3-11.3h2.4l2,8.8l2.3-8.8h2.5l2.2,8.7l2-8.7H139.1z"/>
	<path fill="#363636" d="M140.7,195c-0.3-0.3-0.4-0.6-0.4-0.9s0.1-0.7,0.4-0.9s0.6-0.4,1-0.4s0.7,0.1,1,0.4s0.4,0.6,0.4,0.9
		s-0.1,0.7-0.4,0.9c-0.3,0.3-0.6,0.4-1,0.4S141,195.3,140.7,195z M142.8,196.5v9h-2.3v-9H142.8z"/>
	<path fill="#363636" d="M152.6,197.4c0.7,0.7,1,1.6,1,2.8v5.3h-2.3v-5c0-0.7-0.2-1.3-0.5-1.6c-0.4-0.4-0.8-0.6-1.5-0.6
		c-0.6,0-1.1,0.2-1.5,0.6c-0.4,0.4-0.5,0.9-0.5,1.6v5h-2.3v-9h2.3v1.1c0.3-0.4,0.7-0.7,1.2-0.9c0.5-0.2,1-0.3,1.5-0.3
		C151.1,196.4,152,196.7,152.6,197.4z"/>
	<path fill="#363636" d="M155.8,205.2c-0.3-0.3-0.4-0.6-0.4-0.9s0.1-0.7,0.4-0.9s0.6-0.4,1-0.4c0.4,0,0.7,0.1,1,0.4
		c0.3,0.3,0.4,0.6,0.4,0.9s-0.1,0.7-0.4,0.9c-0.3,0.3-0.6,0.4-1,0.4C156.4,205.6,156,205.5,155.8,205.2z"/>
</g>
<g id="Gtbh9q_00000153686889898259929810000008832174810058870937_">
	<g>
		<path fill="#7500D4" d="M76.1,97c0.5-5.5,2.9-9.6,6.9-12.5c-1-2.7-2.1-5.2-2.8-7.8c-0.8-2.9-0.7-5.8,0.1-8.7
			c0.4-1.4,1.2-2.1,2.3-1.8c1.1,0.3,1.6,1.2,1.2,2.7c-1.7,7.1,1,12.8,6.1,17.5c3.5,3.2,7.9,3.2,11.4,0.1c4.8-4.2,7.4-9.5,6.7-16
			c-0.7-5.9-6.6-10.6-12.5-10.3c-3,0.2-5.5,1.2-7.9,2.9c-1.4,1.1-2.8,0.7-3.2-0.8c-0.3-1,0.3-1.6,1-2.1c5-3.8,10.4-4.8,16.3-2.5
			c7.5,3,11.6,10.9,9.6,18.8c-0.7,2.7-1.8,5.2-2.8,7.9c4,2.9,6.4,7,6.9,12.2c6.3-1.3,10.1-3.5,10.7-8.9c0.3-2.3,0.1-4.7-0.1-7
			c-0.4-5.4-2.3-10.3-5.4-14.8c-0.1-0.2-0.2-0.3-0.3-0.5c-0.6-1.1-0.5-2,0.4-2.6c0.9-0.6,1.9-0.4,2.6,0.6c2,2.8,3.7,5.8,4.6,9.1
			c0.8,2.9,1.2,5.8,1.7,8.7c0.1,0.8,0.4,1.2,1.1,1.4c4.1,1.2,8.2,2.8,11.8,5.1c2.7,1.7,5,3.8,6.3,6.8c1.2,3,0.2,7.4-2.2,9.6
			c-0.8,0.7-1.6,0.8-2.4,0.1c-0.8-0.6-0.9-1.5-0.3-2.4c0-0.1,0.1-0.1,0.1-0.2c2.6-3.5,2.4-6-0.9-8.9c-3-2.7-6.6-4.2-10.3-5.6
			c-0.9-0.4-1.9-0.6-2.9-1c-0.3,1.5-0.4,3-0.8,4.4c-1.2,4-3.9,6.6-7.8,8c-9.1,3.5-18.6,5.1-28.4,4.7c-7.9-0.3-15.5-1.8-22.8-4.7
			c-5.1-2-7.9-5.7-8.3-11.3c-0.5-7.6,0.8-14.9,4.9-21.5c4.4-7.1,10.5-12,18.4-14.6c9.4-3,18.5-2.1,27.2,2.6c1.9,1,3.6,2.4,5.3,3.7
			c1.1,0.8,1.2,1.9,0.5,2.7c-0.7,0.8-1.6,0.9-2.7,0.1c-2.7-2-5.4-3.9-8.6-5.1c-8.2-3.1-16.4-3.1-24.2,0.9
			c-11.3,5.6-16.9,15-17.3,27.6c0,1.2-0.1,2.5,0,3.7c0.3,3.5,2,6.1,5.3,7.5C72.4,95.7,74.2,96.2,76.1,97z M106.1,87.2
			c-2.8,3.2-6.1,5.1-10.3,5.1c-4.2,0-7.5-2-10.3-5.1c-3.4,2.4-5.5,5.5-5.7,9.7c0,0.4,0.2,1,0.4,1c1.5,0.4,3.1,0.7,4.8,1
			c0-1,0-1.8,0-2.5c0-1.4,0.7-2.3,1.8-2.2c1.1,0,1.8,0.8,1.8,2.3c0,1,0,1.9,0,3c4.8,0.5,9.5,0.5,14.2,0c0-0.6,0-1.1,0-1.6
			c0-0.5,0-1,0-1.6c0.1-1.3,0.8-2.1,1.9-2.1c1,0,1.7,0.8,1.8,2.1c0,0.8,0,1.7,0,2.6c1.6-0.3,3-0.6,4.4-0.8c0.7-0.1,0.9-0.4,0.9-1.1
			C111.6,92.7,109.5,89.6,106.1,87.2z"/>
		<path fill="#7500D4" d="M126.6,113.9c-20.5,4.7-41.1,4.6-61.7,0.2c0.7,0.6,1.5,1.2,2.2,1.8c0.6,0.5,1.3,0.8,1.9,1.3
			c0.8,0.6,1,1.5,0.5,2.3c-0.5,0.9-1.4,1.1-2.3,0.6c-2.9-1.5-5.4-3.4-7.1-6.2c-0.7-1.3-1.7-2-3-2.5c-4-1.4-7.9-3.2-11.1-6.2
			c-1.1-1-2.1-2.2-2.8-3.5c-1.9-3.5-1.3-7.1,1.3-10.2c2.5-2.9,5.7-4.7,9.1-6.3c0.9-0.4,1.8-0.8,2.7-1.1c1.3-0.5,2.2-0.1,2.6,0.9
			c0.4,0.9-0.2,1.8-1.3,2.4c-2.7,1.4-5.4,2.8-8.1,4.3c-0.8,0.4-1.5,1.1-2.1,1.8c-2.5,3-2.4,6,0.7,8.7c1.8,1.6,4,2.9,6.1,4
			c7,3.4,14.5,5,22.1,6.1c8.2,1.2,16.5,1.5,24.8,1.2c10.4-0.5,20.7-1.6,30.6-5.1c2.2-0.7,4.2-1.8,6.3-2.7c0.2-0.1,0.4-0.2,0.5-0.3
			c1-0.4,2,0,2.4,0.9c0.4,0.9,0.1,1.9-0.9,2.3c-2.3,1-4.7,2-7,3c-0.4,0.2-1,0.5-1.2,0.9c-1.5,3-3.9,5.2-6.8,6.7
			c-3,1.5-6.2,2.7-9.3,4.1c-0.5,0.2-1.1,0.3-1.9,0.6c0.3,0.5,0.5,0.9,0.7,1.3c5.3,9.3,10.6,18.6,15.9,27.9c0.4,0.6,0.6,1.5,0.5,2.1
			c-0.1,0.5-0.9,1.1-1.5,1.2c-0.6,0-1.4-0.4-1.7-0.9c-1.6-2.6-3.1-5.3-4.6-7.9c-4.1-7.1-8.1-14.2-12.2-21.3c-0.9-1.6-0.9-1.6-2.9-1
			c0.3,1,0.7,1.9,1,2.9c0.8,2.2,1.6,4.5,2.4,6.7c0.4,1.3,0.1,2.2-1,2.6c-1.1,0.4-1.9-0.1-2.4-1.4c-1.2-3.2-2.3-6.4-3.4-9.5
			c-0.1-0.4-0.6-0.8-0.9-0.8c-3.7,0.2-7.5,0.4-11.3,0.6c-0.5,3.2-1,6.5-1.5,9.8c-0.6,4-1.2,8-1.8,12.1c0,0.3-0.1,0.6-0.1,0.8
			c-0.3,1.2-1.1,1.9-2.1,1.7c-1-0.2-1.6-1.2-1.4-2.3c0.4-2.7,0.8-5.4,1.2-8.1c0.7-4.4,1.4-8.9,2-13.3c0-0.3,0-0.6,0-0.9
			c-0.1-0.1-0.2-0.1-0.2-0.2c-2.3-0.3-2.3-0.3-3.1,1.8c-0.8,2.3-1.6,4.6-2.5,6.9c-0.5,1.3-1.4,1.8-2.4,1.5c-1.1-0.4-1.5-1.3-1-2.7
			c1-2.7,2-5.4,2.9-8.2c-1.8-0.7-1.9-0.7-2.8,0.9c-5.5,9.7-11.1,19.3-16.6,29c-0.8,1.5-2,1.8-3,0.8c-0.9-0.8-0.6-1.7-0.1-2.6
			c2-3.6,4.1-7.1,6.1-10.7c3.4-5.9,6.7-11.7,10.1-17.6c0.2-0.3,0.4-0.7,0.6-1.2c-0.9-0.3-1.8-0.5-2.6-0.8c-1.4-0.4-2-1.2-1.7-2.3
			c0.3-1.2,1.1-1.6,2.7-1.1c4.5,1.3,9.1,2.4,13.9,2.5c4.6,0.1,9.2,0.2,13.7-0.1c6.3-0.4,12.5-1.9,18.2-4.7c1.8-0.9,3.5-2.2,5.3-3.3
			C126.7,114.2,126.7,114.1,126.6,113.9z"/>
		<path fill="#7500D4" d="M104.7,72.7c0,4.9-4.2,9-9,8.9c-4.8-0.1-8.9-4.2-8.9-9c0-4.9,4.1-9,9-9C100.7,63.7,104.8,67.8,104.7,72.7z
			 M100.8,74c0.9-1.7-0.1-4.3-1.9-5.7c-1.9-1.4-4.7-1.3-6.5,0.2c-1.7,1.4-2.4,3.8-1.6,5.5C93.1,70,98.1,69.8,100.8,74z M95.8,74.6
			c-1,0-1.7,0.7-1.8,1.7c0,0.9,0.8,1.7,1.7,1.8c1,0,1.7-0.7,1.7-1.7C97.5,75.3,96.8,74.6,95.8,74.6z"/>
		<path fill="#7500D4" d="M106.5,154.4c0,1.4-0.6,2.2-1.6,2.3c-1,0.1-1.8-0.6-2-1.8c-0.7-4.4-1.4-8.9-2-13.4
			c-0.5-3.4-1-6.8-1.5-10.1c-0.2-1.3,0.3-2.3,1.3-2.4c1.1-0.2,1.9,0.4,2.2,1.8c0.9,5.6,1.7,11.2,2.5,16.8
			C105.8,150,106.1,152.3,106.5,154.4z"/>
		<path fill="#7500D4" d="M112.9,140.1c0.3,0.2,1,0.6,1.2,1.2c1.6,4.3,3.2,8.6,4.7,13c0.4,1.2-0.1,2.1-1.1,2.4
			c-1,0.3-1.8-0.2-2.2-1.3c-1.5-4.2-3.1-8.4-4.5-12.7C110.5,141.3,111.2,140.1,112.9,140.1z"/>
		<path fill="#7500D4" d="M49.2,69.3c-2.9-0.4-3.5-0.8-3.4-2c0.1-1.2,0.7-1.6,3.4-1.8c0.3-1.3-0.3-3.4,2-3.4c2.1,0.1,1.6,2,1.9,3.4
			c1.4,0.2,3.4-0.3,3.4,2c0,2.1-2,1.6-3.4,1.9c-0.3,1.4,0.3,3.5-2,3.4C48.9,72.5,49.4,70.7,49.2,69.3z"/>
		<path fill="#7500D4" d="M135.3,62.1c-0.5,2.9-0.8,3.5-2,3.5c-1.1,0-1.4-0.6-1.8-3.5c-1.4-0.2-3.3,0.4-3.4-1.9
			c-0.1-1.2,0.7-1.6,3.5-1.8c0.1-1.4-0.4-3.4,1.9-3.4c2.2,0,1.7,2,1.8,3.4c1.4,0.2,3.4-0.4,3.4,1.9
			C138.6,62.4,136.6,61.8,135.3,62.1z"/>
		<path fill="#7500D4" d="M115.4,78c0.3-3,0.6-3.5,1.8-3.4c2.3,0.1,1.6,2,1.9,3.4c1.4,0.2,3.5-0.4,3.4,1.9c-0.1,2.1-2,1.6-3.5,1.8
			c0,0.6,0,1.1,0,1.7c-0.1,1.1-0.7,1.7-1.7,1.8c-0.9,0.1-1.6-0.6-1.8-1.7c0-0.3-0.1-0.6,0-0.8c0.1-0.8-0.3-1.1-1-1c-0.3,0-0.6,0-1,0
			c-1-0.1-1.5-0.8-1.5-1.7c0-0.9,0.5-1.5,1.4-1.7C114,78.1,114.6,78.1,115.4,78z"/>
		<path fill="#7500D4" d="M81.1,141.5c-0.4,1.2-0.9,2.5-1.3,3.8c-0.5,1.4-1.1,2.8-1.6,4.3c-0.5,1.2-1.3,1.8-2.4,1.4
			c-1-0.3-1.5-1.4-1-2.6c0.9-2.6,1.9-5.1,2.8-7.6c0.4-1,1.1-1.3,2.1-1.2C80.6,139.8,81,140.4,81.1,141.5z"/>
		<path fill="#7500D4" d="M45.7,78.1c0,0.9-0.9,1.8-1.8,1.8c-0.9,0-1.8-0.9-1.8-1.8c0-0.9,0.9-1.8,1.8-1.8
			C44.8,76.3,45.7,77.2,45.7,78.1z"/>
		<path fill="#7500D4" d="M142.3,76.3c0.9,0,1.8,0.9,1.7,1.8c0,0.9-0.9,1.8-1.8,1.7c-0.9,0-1.8-0.9-1.7-1.8
			C140.5,77.1,141.4,76.3,142.3,76.3z"/>
		<path fill="#7500D4" d="M85.4,108.2c0,0.9-0.9,1.7-1.8,1.7c-0.9,0-1.8-0.9-1.7-1.8c0-0.9,0.9-1.8,1.8-1.7
			C84.6,106.4,85.4,107.2,85.4,108.2z"/>
		<path fill="#7500D4" d="M107.9,109.9c-0.9,0-1.8-0.8-1.8-1.8c0-0.9,0.9-1.8,1.8-1.8c0.9,0,1.8,0.9,1.8,1.8
			C109.7,109.1,108.9,109.9,107.9,109.9z"/>
		<path fill="#7500D4" d="M74.3,74.5c-0.9,0-1.8-0.9-1.7-1.8c0-1,0.8-1.7,1.8-1.7c0.9,0,1.8,0.9,1.7,1.8
			C76.1,73.7,75.2,74.5,74.3,74.5z"/>
		<path fill="#7500D4" d="M60,54.8c0.9,0,1.8,0.8,1.7,1.8c0,1-0.8,1.8-1.8,1.8c-0.9,0-1.7-0.8-1.7-1.8C58.3,55.7,59.1,54.8,60,54.8z
			"/>
		<path fill="#7500D4" d="M56.5,97.8c0.9,0,1.7,0.9,1.7,1.8c0,0.9-0.9,1.7-1.8,1.7c-0.9,0-1.7-0.9-1.7-1.8
			C54.7,98.5,55.6,97.7,56.5,97.8z"/>
		<path fill="#7500D4" d="M135.1,101.3c-0.9,0-1.8-0.8-1.8-1.8c0-0.9,0.8-1.8,1.8-1.8c1,0,1.8,0.8,1.8,1.8
			C136.9,100.5,136.1,101.3,135.1,101.3z"/>
		<path fill="#7500D4" d="M65.4,103.1c0,1-0.8,1.7-1.8,1.7c-1,0-1.7-0.8-1.7-1.8c0-1,0.8-1.7,1.8-1.7
			C64.6,101.4,65.4,102.2,65.4,103.1z"/>
		<path fill="#7500D4" d="M127.9,104.9c-1,0-1.7-0.8-1.7-1.8c0-1,0.8-1.7,1.8-1.7c1,0,1.7,0.8,1.7,1.8
			C129.7,104.1,128.9,104.9,127.9,104.9z"/>
		<path fill="#7500D4" d="M72.5,104.9c0.9,0,1.8,0.8,1.8,1.8c0,1-0.8,1.8-1.7,1.8c-0.9,0-1.8-0.8-1.8-1.7
			C70.8,105.8,71.6,104.9,72.5,104.9z"/>
		<path fill="#7500D4" d="M119.1,108.4c-1,0-1.8-0.8-1.8-1.7c0-0.9,0.8-1.8,1.7-1.8c0.9,0,1.8,0.8,1.8,1.7
			C120.8,107.6,120,108.4,119.1,108.4z"/>
		<path fill="#7500D4" d="M97.5,108.5c0,1-0.8,1.8-1.8,1.7c-0.9,0-1.7-0.8-1.7-1.8c0-1,0.8-1.8,1.8-1.7
			C96.8,106.7,97.5,107.5,97.5,108.5z"/>
		<path fill="#7500D4" d="M122.6,53.1c1,0,1.8,0.7,1.8,1.7c0,1-0.7,1.8-1.7,1.8c-0.9,0-1.8-0.8-1.8-1.7
			C120.8,53.9,121.6,53.1,122.6,53.1z"/>
		<path fill="#7500D4" d="M76.1,83.4c0,0.9-0.9,1.8-1.8,1.8c-0.9,0-1.8-0.8-1.8-1.8c0-0.9,0.8-1.8,1.8-1.8
			C75.2,81.7,76.1,82.5,76.1,83.4z"/>
		<path fill="#7500D4" d="M136.9,92.3c0,0.9-0.8,1.8-1.7,1.8c-0.9,0-1.8-0.8-1.8-1.7c0-0.9,0.8-1.8,1.7-1.8
			C136,90.6,136.9,91.4,136.9,92.3z"/>
		<path fill="#7500D4" d="M49.3,56.7c-0.1,0.9-1,1.7-1.9,1.7c-0.9-0.1-1.7-0.9-1.7-1.9c0.1-0.9,1-1.7,1.9-1.7
			C48.5,54.9,49.3,55.8,49.3,56.7z"/>
		<path fill="#7500D4" d="M147.6,54.8c0,0.9-0.8,1.8-1.7,1.8c-0.9,0-1.8-0.8-1.8-1.8c0-1,0.8-1.8,1.7-1.8
			C146.8,53.1,147.6,53.9,147.6,54.8z"/>
		<path fill="#7500D4" d="M56.5,94.2c-0.9,0-1.8-0.8-1.8-1.8c0-0.9,0.8-1.8,1.7-1.8c0.9,0,1.8,0.9,1.8,1.8
			C58.2,93.3,57.4,94.1,56.5,94.2z"/>
	</g>
</g>
</svg>
