<?xml version="1.0" encoding="utf-8"?>
<!-- Generator: Adobe Illustrator 26.3.1, SVG Export Plug-In . SVG Version: 6.00 Build 0)  -->
<svg version="1.1" baseProfile="tiny" id="Layer_1" xmlns="http://www.w3.org/2000/svg" xmlns:xlink="http://www.w3.org/1999/xlink"
	 x="0px" y="0px" viewBox="0 0 514.7 284.4" overflow="visible" xml:space="preserve">
<path fill="#F2EDED" d="M498.7,284.4H16c-8.8,0-16-7.1-16-16V16C0,7.1,7.1,0,16,0h482.7c8.8,0,16,7.1,16,16v252.5
	C514.7,277.2,507.5,284.4,498.7,284.4z"/>
<g>
	<path fill="#363636" d="M133.5,246.3c-0.6-0.4-1.1-0.9-1.5-1.5c-0.4-0.7-0.6-1.4-0.6-2.2c0-0.8,0.2-1.5,0.6-2.2
		c0.4-0.7,0.9-1.2,1.5-1.5c0.6-0.4,1.3-0.5,2.1-0.5c0.8,0,1.5,0.2,2.1,0.5c0.6,0.4,1.1,0.9,1.5,1.5c0.4,0.6,0.6,1.4,0.6,2.2
		c0,0.8-0.2,1.6-0.6,2.2c-0.4,0.6-0.9,1.2-1.5,1.5c-0.6,0.4-1.4,0.5-2.1,0.5C134.9,246.9,134.2,246.7,133.5,246.3z M137.2,245.5
		c0.5-0.3,0.8-0.7,1.1-1.2c0.3-0.5,0.4-1.1,0.4-1.8c0-0.7-0.1-1.3-0.4-1.8s-0.6-0.9-1.1-1.2c-0.5-0.3-1-0.4-1.6-0.4
		c-0.6,0-1.1,0.1-1.6,0.4c-0.5,0.3-0.8,0.7-1.1,1.2c-0.3,0.5-0.4,1.1-0.4,1.8c0,0.7,0.1,1.2,0.4,1.8c0.3,0.5,0.6,0.9,1.1,1.2
		c0.5,0.3,1,0.4,1.6,0.4S136.8,245.8,137.2,245.5z"/>
	<path fill="#363636" d="M146.5,240.8c0.5,0.5,0.7,1.2,0.7,2.1v3.9h-1.1v-3.7c0-0.7-0.2-1.2-0.5-1.5c-0.3-0.3-0.8-0.5-1.3-0.5
		c-0.6,0-1,0.2-1.4,0.5c-0.3,0.4-0.5,0.9-0.5,1.6v3.6h-1.1v-6.6h1.1v0.9c0.2-0.3,0.5-0.6,0.9-0.8c0.4-0.2,0.8-0.3,1.2-0.3
		C145.3,240.1,146,240.3,146.5,240.8z"/>
	<path fill="#363636" d="M155,243.9h-5.3c0,0.6,0.3,1.2,0.7,1.5c0.4,0.4,0.9,0.5,1.5,0.5c0.5,0,0.9-0.1,1.2-0.3
		c0.3-0.2,0.5-0.5,0.7-0.9h1.2c-0.2,0.6-0.5,1.1-1.1,1.5c-0.5,0.4-1.2,0.6-2,0.6c-0.6,0-1.2-0.1-1.7-0.4c-0.5-0.3-0.9-0.7-1.2-1.2
		c-0.3-0.5-0.4-1.1-0.4-1.8s0.1-1.3,0.4-1.8s0.7-0.9,1.1-1.2c0.5-0.3,1.1-0.4,1.7-0.4c0.6,0,1.2,0.1,1.7,0.4
		c0.5,0.3,0.9,0.6,1.1,1.1c0.3,0.5,0.4,1,0.4,1.6C155,243.5,155,243.7,155,243.9z M153.6,242c-0.2-0.3-0.4-0.5-0.8-0.7
		c-0.3-0.2-0.7-0.2-1-0.2c-0.6,0-1,0.2-1.4,0.5c-0.4,0.4-0.6,0.8-0.7,1.5h4.2C153.9,242.6,153.8,242.3,153.6,242z"/>
	<path fill="#363636" d="M161,241.9v0.9h-4.8v-0.9H161z"/>
	<path fill="#363636" d="M165.1,243.9c0.6-0.5,1.1-1.1,1.5-1.6c0.4-0.6,0.6-1.1,0.6-1.7c0-0.5-0.1-0.9-0.4-1.2
		c-0.3-0.3-0.7-0.5-1.2-0.5c-0.5,0-1,0.2-1.3,0.5c-0.3,0.3-0.5,0.8-0.5,1.4h-1.1c0-0.9,0.3-1.6,0.8-2.1c0.5-0.5,1.2-0.7,2-0.7
		c0.8,0,1.5,0.2,2,0.7c0.5,0.5,0.7,1.1,0.7,1.9c0,0.7-0.2,1.3-0.6,1.9s-0.8,1.2-1.4,1.7s-1.1,1-1.9,1.7h4.1v0.9h-5.8v-0.8
		C163.7,245.1,164.5,244.4,165.1,243.9z"/>
	<path fill="#363636" d="M174.5,241.9v0.9h-4.8v-0.9H174.5z"/>
	<path fill="#363636" d="M178.2,246.3c-0.6-0.4-1.1-0.9-1.5-1.5c-0.4-0.7-0.6-1.4-0.6-2.2c0-0.8,0.2-1.5,0.6-2.2
		c0.4-0.7,0.9-1.2,1.5-1.5c0.6-0.4,1.3-0.5,2.1-0.5c0.8,0,1.5,0.2,2.1,0.5c0.6,0.4,1.1,0.9,1.5,1.5c0.4,0.6,0.6,1.4,0.6,2.2
		c0,0.8-0.2,1.6-0.6,2.2c-0.4,0.6-0.9,1.2-1.5,1.5c-0.6,0.4-1.4,0.5-2.1,0.5C179.6,246.9,178.9,246.7,178.2,246.3z M181.9,245.5
		c0.5-0.3,0.8-0.7,1.1-1.2c0.3-0.5,0.4-1.1,0.4-1.8c0-0.7-0.1-1.3-0.4-1.8s-0.6-0.9-1.1-1.2c-0.5-0.3-1-0.4-1.6-0.4
		c-0.6,0-1.1,0.1-1.6,0.4c-0.5,0.3-0.8,0.7-1.1,1.2c-0.3,0.5-0.4,1.1-0.4,1.8c0,0.7,0.1,1.2,0.4,1.8c0.3,0.5,0.6,0.9,1.1,1.2
		c0.5,0.3,1,0.4,1.6,0.4S181.5,245.8,181.9,245.5z"/>
	<path fill="#363636" d="M191.1,240.8c0.5,0.5,0.7,1.2,0.7,2.1v3.9h-1.1v-3.7c0-0.7-0.2-1.2-0.5-1.5c-0.3-0.3-0.8-0.5-1.3-0.5
		c-0.6,0-1,0.2-1.4,0.5c-0.3,0.4-0.5,0.9-0.5,1.6v3.6H186v-6.6h1.1v0.9c0.2-0.3,0.5-0.6,0.9-0.8c0.4-0.2,0.8-0.3,1.2-0.3
		C190,240.1,190.6,240.3,191.1,240.8z"/>
	<path fill="#363636" d="M199.6,243.9h-5.3c0,0.6,0.3,1.2,0.7,1.5c0.4,0.4,0.9,0.5,1.5,0.5c0.5,0,0.9-0.1,1.2-0.3
		c0.3-0.2,0.5-0.5,0.7-0.9h1.2c-0.2,0.6-0.5,1.1-1.1,1.5c-0.5,0.4-1.2,0.6-2,0.6c-0.6,0-1.2-0.1-1.7-0.4c-0.5-0.3-0.9-0.7-1.2-1.2
		c-0.3-0.5-0.4-1.1-0.4-1.8s0.1-1.3,0.4-1.8s0.7-0.9,1.1-1.2c0.5-0.3,1.1-0.4,1.7-0.4c0.6,0,1.2,0.1,1.7,0.4
		c0.5,0.3,0.9,0.6,1.1,1.1c0.3,0.5,0.4,1,0.4,1.6C199.7,243.5,199.7,243.7,199.6,243.9z M198.3,242c-0.2-0.3-0.4-0.5-0.8-0.7
		c-0.3-0.2-0.7-0.2-1-0.2c-0.6,0-1,0.2-1.4,0.5c-0.4,0.4-0.6,0.8-0.7,1.5h4.2C198.5,242.6,198.4,242.3,198.3,242z"/>
	<path fill="#363636" d="M202.2,245.3l-1.3,3.2h-0.7l0.9-3.2H202.2z"/>
	<path fill="#363636" d="M211.1,246.8l-2-3.4h-1.3v3.4h-1.1v-8.4h2.7c0.6,0,1.2,0.1,1.6,0.3s0.8,0.5,1,0.9c0.2,0.4,0.3,0.8,0.3,1.3
		c0,0.6-0.2,1.1-0.5,1.5c-0.3,0.4-0.8,0.7-1.5,0.9l2.1,3.5H211.1z M207.8,242.5h1.6c0.6,0,1-0.1,1.3-0.4s0.4-0.7,0.4-1.2
		c0-0.5-0.1-0.9-0.4-1.2s-0.7-0.4-1.3-0.4h-1.6V242.5z"/>
	<path fill="#363636" d="M219.9,243.9h-5.3c0,0.6,0.3,1.2,0.7,1.5c0.4,0.4,0.9,0.5,1.5,0.5c0.5,0,0.9-0.1,1.2-0.3
		c0.3-0.2,0.5-0.5,0.7-0.9h1.2c-0.2,0.6-0.5,1.1-1.1,1.5c-0.5,0.4-1.2,0.6-2,0.6c-0.6,0-1.2-0.1-1.7-0.4c-0.5-0.3-0.9-0.7-1.2-1.2
		c-0.3-0.5-0.4-1.1-0.4-1.8s0.1-1.3,0.4-1.8s0.7-0.9,1.1-1.2c0.5-0.3,1.1-0.4,1.7-0.4c0.6,0,1.2,0.1,1.7,0.4
		c0.5,0.3,0.9,0.6,1.1,1.1c0.3,0.5,0.4,1,0.4,1.6C220,243.5,220,243.7,219.9,243.9z M218.6,242c-0.2-0.3-0.4-0.5-0.8-0.7
		c-0.3-0.2-0.7-0.2-1-0.2c-0.6,0-1,0.2-1.4,0.5c-0.4,0.4-0.6,0.8-0.7,1.5h4.2C218.9,242.6,218.8,242.3,218.6,242z"/>
	<path fill="#363636" d="M221.4,241.7c0.3-0.5,0.6-0.9,1.1-1.2c0.5-0.3,1-0.4,1.7-0.4c0.8,0,1.5,0.2,2,0.6s0.9,0.9,1,1.6h-1.2
		c-0.1-0.4-0.3-0.7-0.7-0.9c-0.3-0.2-0.7-0.3-1.2-0.3c-0.6,0-1.1,0.2-1.5,0.6c-0.4,0.4-0.6,1-0.6,1.8c0,0.8,0.2,1.4,0.6,1.8
		c0.4,0.4,0.9,0.6,1.5,0.6c0.5,0,0.9-0.1,1.2-0.3c0.3-0.2,0.5-0.5,0.7-1h1.2c-0.2,0.7-0.5,1.2-1.1,1.6c-0.5,0.4-1.2,0.6-2,0.6
		c-0.6,0-1.2-0.1-1.7-0.4c-0.5-0.3-0.9-0.7-1.1-1.2s-0.4-1.1-0.4-1.8C221,242.8,221.1,242.2,221.4,241.7z"/>
	<path fill="#363636" d="M229.9,246.5c-0.5-0.3-0.9-0.7-1.2-1.2c-0.3-0.5-0.4-1.1-0.4-1.8c0-0.7,0.1-1.3,0.4-1.8
		c0.3-0.5,0.7-0.9,1.2-1.2c0.5-0.3,1.1-0.4,1.7-0.4s1.2,0.1,1.7,0.4c0.5,0.3,0.9,0.7,1.2,1.2s0.4,1.1,0.4,1.8s-0.1,1.3-0.5,1.8
		c-0.3,0.5-0.7,0.9-1.2,1.2c-0.5,0.3-1.1,0.4-1.7,0.4C231,246.9,230.4,246.8,229.9,246.5z M232.7,245.7c0.3-0.2,0.6-0.5,0.8-0.8
		s0.3-0.8,0.3-1.3c0-0.5-0.1-1-0.3-1.3s-0.5-0.6-0.8-0.8s-0.7-0.3-1.1-0.3c-0.4,0-0.8,0.1-1.1,0.3s-0.6,0.5-0.8,0.8
		c-0.2,0.4-0.3,0.8-0.3,1.3c0,0.5,0.1,1,0.3,1.4c0.2,0.4,0.5,0.6,0.8,0.8s0.7,0.3,1.1,0.3S232.3,245.9,232.7,245.7z"/>
	<path fill="#363636" d="M238.3,240.4c0.4-0.2,0.8-0.3,1.3-0.3v1.1h-0.3c-1.2,0-1.8,0.7-1.8,2v3.6h-1.1v-6.6h1.1v1.1
		C237.7,240.9,237.9,240.6,238.3,240.4z"/>
	<path fill="#363636" d="M240.9,241.7c0.3-0.5,0.6-0.9,1.1-1.2s1-0.4,1.6-0.4c0.5,0,1,0.1,1.4,0.4c0.4,0.2,0.8,0.5,1,0.9v-3.5h1.1
		v8.9H246v-1.2c-0.2,0.4-0.5,0.7-1,1c-0.4,0.3-0.9,0.4-1.5,0.4c-0.6,0-1.1-0.1-1.6-0.4s-0.9-0.7-1.1-1.2c-0.3-0.5-0.4-1.1-0.4-1.8
		C240.5,242.8,240.6,242.2,240.9,241.7z M245.7,242.2c-0.2-0.4-0.5-0.7-0.8-0.8c-0.3-0.2-0.7-0.3-1.1-0.3c-0.4,0-0.8,0.1-1.1,0.3
		c-0.3,0.2-0.6,0.5-0.8,0.8c-0.2,0.4-0.3,0.8-0.3,1.3c0,0.5,0.1,0.9,0.3,1.3c0.2,0.4,0.5,0.7,0.8,0.9c0.3,0.2,0.7,0.3,1.1,0.3
		c0.4,0,0.8-0.1,1.1-0.3c0.3-0.2,0.6-0.5,0.8-0.9c0.2-0.4,0.3-0.8,0.3-1.3S245.9,242.6,245.7,242.2z"/>
	<path fill="#363636" d="M254.9,243.9h-5.3c0,0.6,0.3,1.2,0.7,1.5c0.4,0.4,0.9,0.5,1.5,0.5c0.5,0,0.9-0.1,1.2-0.3
		c0.3-0.2,0.5-0.5,0.7-0.9h1.2c-0.2,0.6-0.5,1.1-1.1,1.5c-0.5,0.4-1.2,0.6-2,0.6c-0.6,0-1.2-0.1-1.7-0.4c-0.5-0.3-0.9-0.7-1.2-1.2
		c-0.3-0.5-0.4-1.1-0.4-1.8s0.1-1.3,0.4-1.8s0.7-0.9,1.1-1.2c0.5-0.3,1.1-0.4,1.7-0.4c0.6,0,1.2,0.1,1.7,0.4
		c0.5,0.3,0.9,0.6,1.1,1.1c0.3,0.5,0.4,1,0.4,1.6C255,243.5,255,243.7,254.9,243.9z M253.6,242c-0.2-0.3-0.4-0.5-0.8-0.7
		c-0.3-0.2-0.7-0.2-1-0.2c-0.6,0-1,0.2-1.4,0.5c-0.4,0.4-0.6,0.8-0.7,1.5h4.2C253.8,242.6,253.8,242.3,253.6,242z"/>
	<path fill="#363636" d="M256.4,241.7c0.3-0.5,0.6-0.9,1.1-1.2s1-0.4,1.6-0.4c0.5,0,1,0.1,1.4,0.4c0.4,0.2,0.8,0.5,1,0.9v-3.5h1.1
		v8.9h-1.1v-1.2c-0.2,0.4-0.5,0.7-1,1c-0.4,0.3-0.9,0.4-1.5,0.4c-0.6,0-1.1-0.1-1.6-0.4s-0.9-0.7-1.1-1.2c-0.3-0.5-0.4-1.1-0.4-1.8
		C256,242.8,256.1,242.2,256.4,241.7z M261.3,242.2c-0.2-0.4-0.5-0.7-0.8-0.8c-0.3-0.2-0.7-0.3-1.1-0.3c-0.4,0-0.8,0.1-1.1,0.3
		c-0.3,0.2-0.6,0.5-0.8,0.8c-0.2,0.4-0.3,0.8-0.3,1.3c0,0.5,0.1,0.9,0.3,1.3c0.2,0.4,0.5,0.7,0.8,0.9c0.3,0.2,0.7,0.3,1.1,0.3
		c0.4,0,0.8-0.1,1.1-0.3c0.3-0.2,0.6-0.5,0.8-0.9s0.3-0.8,0.3-1.3S261.5,242.6,261.3,242.2z"/>
	<path fill="#363636" d="M265.7,245.3l-1.3,3.2h-0.7l0.9-3.2H265.7z"/>
	<path fill="#363636" d="M271.8,246.3c-0.6-0.4-1.1-0.9-1.5-1.5c-0.4-0.7-0.6-1.4-0.6-2.2c0-0.8,0.2-1.5,0.6-2.2
		c0.4-0.7,0.9-1.2,1.5-1.5c0.6-0.4,1.3-0.5,2.1-0.5c0.8,0,1.5,0.2,2.1,0.5c0.6,0.4,1.1,0.9,1.5,1.5c0.4,0.6,0.6,1.4,0.6,2.2
		c0,0.8-0.2,1.6-0.6,2.2c-0.4,0.6-0.9,1.2-1.5,1.5s-1.4,0.5-2.1,0.5C273.1,246.9,272.4,246.7,271.8,246.3z M275.5,245.5
		c0.5-0.3,0.8-0.7,1.1-1.2c0.3-0.5,0.4-1.1,0.4-1.8c0-0.7-0.1-1.3-0.4-1.8c-0.3-0.5-0.6-0.9-1.1-1.2c-0.5-0.3-1-0.4-1.6-0.4
		s-1.1,0.1-1.6,0.4c-0.5,0.3-0.8,0.7-1.1,1.2c-0.3,0.5-0.4,1.1-0.4,1.8c0,0.7,0.1,1.2,0.4,1.8c0.3,0.5,0.6,0.9,1.1,1.2
		c0.5,0.3,1,0.4,1.6,0.4S275,245.8,275.5,245.5z"/>
	<path fill="#363636" d="M284.7,240.8c0.5,0.5,0.7,1.2,0.7,2.1v3.9h-1.1v-3.7c0-0.7-0.2-1.2-0.5-1.5c-0.3-0.3-0.8-0.5-1.3-0.5
		c-0.6,0-1,0.2-1.4,0.5c-0.3,0.4-0.5,0.9-0.5,1.6v3.6h-1.1v-6.6h1.1v0.9c0.2-0.3,0.5-0.6,0.9-0.8c0.4-0.2,0.8-0.3,1.2-0.3
		C283.5,240.1,284.2,240.3,284.7,240.8z"/>
	<path fill="#363636" d="M293.2,243.9h-5.3c0,0.6,0.3,1.2,0.7,1.5c0.4,0.4,0.9,0.5,1.5,0.5c0.5,0,0.9-0.1,1.2-0.3
		c0.3-0.2,0.5-0.5,0.7-0.9h1.2c-0.2,0.6-0.5,1.1-1.1,1.5c-0.5,0.4-1.2,0.6-2,0.6c-0.6,0-1.2-0.1-1.7-0.4c-0.5-0.3-0.9-0.7-1.2-1.2
		c-0.3-0.5-0.4-1.1-0.4-1.8s0.1-1.3,0.4-1.8c0.3-0.5,0.7-0.9,1.1-1.2c0.5-0.3,1.1-0.4,1.7-0.4c0.6,0,1.2,0.1,1.7,0.4
		c0.5,0.3,0.9,0.6,1.1,1.1c0.3,0.5,0.4,1,0.4,1.6C293.2,243.5,293.2,243.7,293.2,243.9z M291.8,242c-0.2-0.3-0.4-0.5-0.8-0.7
		c-0.3-0.2-0.7-0.2-1-0.2c-0.6,0-1,0.2-1.4,0.5c-0.4,0.4-0.6,0.8-0.7,1.5h4.2C292.1,242.6,292,242.3,291.8,242z"/>
	<path fill="#363636" d="M306.6,240.2l-2.1,6.6h-1.1l-1.6-5.2l-1.6,5.2h-1.1l-2.1-6.6h1.1l1.5,5.5l1.6-5.5h1.1l1.6,5.5l1.5-5.5
		H306.6z"/>
	<path fill="#363636" d="M307.7,241.7c0.3-0.5,0.6-0.9,1.1-1.2c0.5-0.3,1-0.4,1.6-0.4c0.6,0,1.1,0.1,1.5,0.4s0.7,0.6,0.9,0.9v-1.2
		h1.1v6.6h-1.1v-1.2c-0.2,0.4-0.5,0.7-1,1c-0.4,0.3-0.9,0.4-1.5,0.4c-0.6,0-1.1-0.1-1.6-0.4c-0.5-0.3-0.8-0.7-1.1-1.2
		c-0.3-0.5-0.4-1.1-0.4-1.8C307.3,242.8,307.4,242.2,307.7,241.7z M312.6,242.2c-0.2-0.4-0.5-0.7-0.8-0.8c-0.3-0.2-0.7-0.3-1.1-0.3
		s-0.8,0.1-1.1,0.3c-0.3,0.2-0.6,0.5-0.8,0.8s-0.3,0.8-0.3,1.3c0,0.5,0.1,0.9,0.3,1.3s0.5,0.7,0.8,0.9c0.3,0.2,0.7,0.3,1.1,0.3
		s0.8-0.1,1.1-0.3c0.3-0.2,0.6-0.5,0.8-0.9c0.2-0.4,0.3-0.8,0.3-1.3S312.8,242.6,312.6,242.2z"/>
	<path fill="#363636" d="M321.5,240.2l-4,9.7h-1.1l1.3-3.2l-2.7-6.5h1.2l2.1,5.3l2-5.3H321.5z"/>
	<path fill="#363636" d="M328.4,241.1h-1.4v5.7H326v-5.7h-0.9v-0.9h0.9v-0.5c0-0.7,0.2-1.3,0.6-1.6c0.4-0.3,1-0.5,1.8-0.5v0.9
		c-0.5,0-0.8,0.1-1,0.3c-0.2,0.2-0.3,0.5-0.3,0.9v0.5h1.4V241.1z"/>
	<path fill="#363636" d="M335.7,243.9h-5.3c0,0.6,0.3,1.2,0.7,1.5c0.4,0.4,0.9,0.5,1.5,0.5c0.5,0,0.9-0.1,1.2-0.3
		c0.3-0.2,0.5-0.5,0.7-0.9h1.2c-0.2,0.6-0.5,1.1-1.1,1.5c-0.5,0.4-1.2,0.6-2,0.6c-0.6,0-1.2-0.1-1.7-0.4c-0.5-0.3-0.9-0.7-1.2-1.2
		c-0.3-0.5-0.4-1.1-0.4-1.8s0.1-1.3,0.4-1.8c0.3-0.5,0.7-0.9,1.1-1.2c0.5-0.3,1.1-0.4,1.7-0.4c0.6,0,1.2,0.1,1.7,0.4
		c0.5,0.3,0.8,0.6,1.1,1.1c0.3,0.5,0.4,1,0.4,1.6C335.7,243.5,335.7,243.7,335.7,243.9z M334.3,242c-0.2-0.3-0.4-0.5-0.8-0.7
		c-0.3-0.2-0.7-0.2-1-0.2c-0.6,0-1,0.2-1.4,0.5c-0.4,0.4-0.6,0.8-0.7,1.5h4.2C334.6,242.6,334.5,242.3,334.3,242z"/>
	<path fill="#363636" d="M343.1,243.9h-5.3c0,0.6,0.3,1.2,0.7,1.5c0.4,0.4,0.9,0.5,1.5,0.5c0.5,0,0.9-0.1,1.2-0.3
		c0.3-0.2,0.5-0.5,0.7-0.9h1.2c-0.2,0.6-0.5,1.1-1.1,1.5c-0.5,0.4-1.2,0.6-2,0.6c-0.6,0-1.2-0.1-1.7-0.4c-0.5-0.3-0.9-0.7-1.2-1.2
		c-0.3-0.5-0.4-1.1-0.4-1.8s0.1-1.3,0.4-1.8c0.3-0.5,0.7-0.9,1.1-1.2c0.5-0.3,1.1-0.4,1.7-0.4c0.6,0,1.2,0.1,1.7,0.4
		c0.5,0.3,0.9,0.6,1.1,1.1c0.3,0.5,0.4,1,0.4,1.6C343.2,243.5,343.1,243.7,343.1,243.9z M341.8,242c-0.2-0.3-0.4-0.5-0.8-0.7
		c-0.3-0.2-0.7-0.2-1-0.2c-0.6,0-1,0.2-1.4,0.5c-0.4,0.4-0.6,0.8-0.7,1.5h4.2C342,242.6,341.9,242.3,341.8,242z"/>
	<path fill="#363636" d="M344.6,241.7c0.3-0.5,0.6-0.9,1.1-1.2c0.5-0.3,1-0.4,1.6-0.4c0.5,0,1,0.1,1.4,0.4c0.4,0.2,0.8,0.5,1,0.9
		v-3.5h1.1v8.9h-1.1v-1.2c-0.2,0.4-0.5,0.7-1,1c-0.4,0.3-0.9,0.4-1.5,0.4c-0.6,0-1.1-0.1-1.6-0.4c-0.5-0.3-0.9-0.7-1.1-1.2
		c-0.3-0.5-0.4-1.1-0.4-1.8C344.2,242.8,344.3,242.2,344.6,241.7z M349.5,242.2c-0.2-0.4-0.5-0.7-0.8-0.8c-0.3-0.2-0.7-0.3-1.1-0.3
		s-0.8,0.1-1.1,0.3c-0.3,0.2-0.6,0.5-0.8,0.8s-0.3,0.8-0.3,1.3c0,0.5,0.1,0.9,0.3,1.3s0.5,0.7,0.8,0.9c0.3,0.2,0.7,0.3,1.1,0.3
		s0.8-0.1,1.1-0.3c0.3-0.2,0.6-0.5,0.8-0.9c0.2-0.4,0.3-0.8,0.3-1.3S349.7,242.6,349.5,242.2z"/>
	<path fill="#363636" d="M354.8,240.5c0.4-0.2,0.9-0.4,1.5-0.4c0.6,0,1.1,0.1,1.6,0.4s0.8,0.7,1.1,1.2c0.3,0.5,0.4,1.1,0.4,1.8
		c0,0.7-0.1,1.3-0.4,1.8c-0.3,0.5-0.6,0.9-1.1,1.2c-0.5,0.3-1,0.4-1.6,0.4c-0.6,0-1.1-0.1-1.5-0.4c-0.4-0.2-0.8-0.6-1-0.9v1.2h-1.1
		v-8.9h1.1v3.5C354,241.1,354.4,240.7,354.8,240.5z M358,242.2c-0.2-0.4-0.5-0.6-0.8-0.8c-0.3-0.2-0.7-0.3-1.1-0.3
		c-0.4,0-0.8,0.1-1.1,0.3c-0.3,0.2-0.6,0.5-0.8,0.9s-0.3,0.8-0.3,1.3c0,0.5,0.1,0.9,0.3,1.3s0.5,0.7,0.8,0.9
		c0.3,0.2,0.7,0.3,1.1,0.3c0.4,0,0.8-0.1,1.1-0.3c0.3-0.2,0.6-0.5,0.8-0.9c0.2-0.4,0.3-0.8,0.3-1.3C358.3,243,358.2,242.6,358,242.2
		z"/>
	<path fill="#363636" d="M360.8,241.7c0.3-0.5,0.6-0.9,1.1-1.2c0.5-0.3,1-0.4,1.6-0.4c0.6,0,1.1,0.1,1.5,0.4
		c0.4,0.2,0.7,0.6,0.9,0.9v-1.2h1.1v6.6H366v-1.2c-0.2,0.4-0.5,0.7-1,1c-0.4,0.3-0.9,0.4-1.5,0.4c-0.6,0-1.1-0.1-1.6-0.4
		s-0.8-0.7-1.1-1.2c-0.3-0.5-0.4-1.1-0.4-1.8C360.4,242.8,360.5,242.2,360.8,241.7z M365.7,242.2c-0.2-0.4-0.5-0.7-0.8-0.8
		c-0.3-0.2-0.7-0.3-1.1-0.3c-0.4,0-0.8,0.1-1.1,0.3c-0.3,0.2-0.6,0.5-0.8,0.8c-0.2,0.4-0.3,0.8-0.3,1.3c0,0.5,0.1,0.9,0.3,1.3
		c0.2,0.4,0.5,0.7,0.8,0.9c0.3,0.2,0.7,0.3,1.1,0.3c0.4,0,0.8-0.1,1.1-0.3c0.3-0.2,0.6-0.5,0.8-0.9s0.3-0.8,0.3-1.3
		S365.9,242.6,365.7,242.2z"/>
	<path fill="#363636" d="M368.9,241.7c0.3-0.5,0.6-0.9,1.1-1.2s1-0.4,1.7-0.4c0.8,0,1.5,0.2,2,0.6c0.5,0.4,0.9,0.9,1,1.6h-1.2
		c-0.1-0.4-0.3-0.7-0.7-0.9c-0.3-0.2-0.7-0.3-1.2-0.3c-0.6,0-1.1,0.2-1.5,0.6c-0.4,0.4-0.6,1-0.6,1.8c0,0.8,0.2,1.4,0.6,1.8
		c0.4,0.4,0.9,0.6,1.5,0.6c0.5,0,0.9-0.1,1.2-0.3c0.3-0.2,0.5-0.5,0.7-1h1.2c-0.2,0.7-0.5,1.2-1.1,1.6c-0.5,0.4-1.2,0.6-2,0.6
		c-0.6,0-1.2-0.1-1.7-0.4c-0.5-0.3-0.9-0.7-1.1-1.2c-0.3-0.5-0.4-1.1-0.4-1.8C368.5,242.8,368.7,242.2,368.9,241.7z"/>
	<path fill="#363636" d="M379.9,246.8l-2.6-2.9v2.9h-1.1v-8.9h1.1v5.2l2.5-2.9h1.5l-3.1,3.3l3.1,3.3H379.9z"/>
</g>
<g>
	<path fill="#363636" d="M192,33.2v-1.8h3.4v10.2h-2v-8.4H192z"/>
	<path fill="#363636" d="M204.2,33.1h-4.5v2.4c0.2-0.2,0.5-0.4,0.8-0.6c0.4-0.2,0.8-0.2,1.2-0.2c0.7,0,1.4,0.2,1.8,0.5
		c0.5,0.3,0.8,0.7,1,1.3s0.3,1.1,0.3,1.6c0,1.1-0.3,1.9-0.9,2.6c-0.6,0.7-1.5,1-2.6,1c-1.1,0-1.9-0.3-2.5-0.8
		c-0.6-0.5-1-1.2-1.1-2.1h1.9c0.1,0.4,0.3,0.7,0.6,0.9c0.3,0.2,0.7,0.3,1.1,0.3c0.6,0,1-0.2,1.2-0.5c0.3-0.3,0.4-0.8,0.4-1.4
		c0-0.6-0.1-1-0.4-1.3c-0.3-0.3-0.7-0.5-1.3-0.5c-0.4,0-0.7,0.1-1,0.3c-0.3,0.2-0.4,0.5-0.6,0.8h-1.9v-6h6.3V33.1z"/>
	<path fill="#363636" d="M221.8,34.6c0.6,0.6,0.9,1.4,0.9,2.4v4.5h-2v-4.3c0-0.6-0.2-1.1-0.5-1.4c-0.3-0.3-0.7-0.5-1.3-0.5
		c-0.5,0-1,0.2-1.3,0.5c-0.3,0.3-0.5,0.8-0.5,1.4v4.3h-2v-4.3c0-0.6-0.2-1.1-0.5-1.4c-0.3-0.3-0.7-0.5-1.3-0.5c-0.5,0-1,0.2-1.3,0.5
		c-0.3,0.3-0.5,0.8-0.5,1.4v4.3h-2v-7.8h2v0.9c0.3-0.3,0.6-0.6,1-0.8c0.4-0.2,0.8-0.3,1.3-0.3c0.6,0,1.1,0.1,1.6,0.4
		c0.5,0.3,0.8,0.6,1.1,1.1c0.3-0.4,0.6-0.8,1.1-1.1c0.5-0.3,1-0.4,1.6-0.4C220.5,33.8,221.2,34.1,221.8,34.6z"/>
	<path fill="#363636" d="M224.7,32.6c-0.2-0.2-0.3-0.5-0.3-0.8c0-0.3,0.1-0.6,0.3-0.8c0.2-0.2,0.5-0.3,0.9-0.3s0.6,0.1,0.9,0.3
		c0.2,0.2,0.3,0.5,0.3,0.8c0,0.3-0.1,0.6-0.3,0.8c-0.2,0.2-0.5,0.3-0.9,0.3S224.9,32.8,224.7,32.6z M226.5,33.9v7.8h-2v-7.8H226.5z"
		/>
	<path fill="#363636" d="M235,34.6c0.6,0.6,0.9,1.4,0.9,2.4v4.5h-2v-4.3c0-0.6-0.2-1.1-0.5-1.4s-0.7-0.5-1.3-0.5
		c-0.5,0-1,0.2-1.3,0.5c-0.3,0.3-0.5,0.8-0.5,1.4v4.3h-2v-7.8h2v1c0.3-0.3,0.6-0.6,1-0.8c0.4-0.2,0.9-0.3,1.3-0.3
		C233.7,33.8,234.4,34.1,235,34.6z"/>
	<path fill="#363636" d="M245,33.9v7.8h-2v-1c-0.3,0.3-0.6,0.6-1,0.8c-0.4,0.2-0.8,0.3-1.3,0.3c-0.6,0-1.1-0.1-1.6-0.4
		c-0.5-0.3-0.8-0.6-1.1-1.1s-0.4-1.1-0.4-1.8v-4.5h2v4.3c0,0.6,0.2,1.1,0.5,1.4c0.3,0.3,0.7,0.5,1.3,0.5c0.5,0,1-0.2,1.3-0.5
		c0.3-0.3,0.5-0.8,0.5-1.4v-4.3H245z"/>
	<path fill="#363636" d="M249.2,35.5v3.8c0,0.3,0.1,0.5,0.2,0.6c0.1,0.1,0.3,0.2,0.6,0.2h0.9v1.7h-1.2c-1.7,0-2.5-0.8-2.5-2.4v-3.7
		h-0.9v-1.6h0.9V32h2v1.9h1.7v1.6H249.2z"/>
	<path fill="#363636" d="M259.5,38.3h-5.7c0,0.6,0.2,1,0.6,1.3c0.3,0.3,0.8,0.5,1.3,0.5c0.7,0,1.2-0.3,1.6-0.9h2.1
		c-0.2,0.7-0.7,1.4-1.3,1.8c-0.6,0.5-1.4,0.7-2.3,0.7c-0.7,0-1.4-0.2-2-0.5c-0.6-0.3-1.1-0.8-1.4-1.4c-0.3-0.6-0.5-1.3-0.5-2.1
		c0-0.8,0.2-1.5,0.5-2.1c0.3-0.6,0.8-1.1,1.4-1.4c0.6-0.3,1.3-0.5,2-0.5c0.7,0,1.4,0.2,2,0.5c0.6,0.3,1,0.8,1.4,1.4
		c0.3,0.6,0.5,1.3,0.5,2C259.6,37.9,259.6,38.1,259.5,38.3z M257.6,37c0-0.5-0.2-0.9-0.5-1.2c-0.4-0.3-0.8-0.5-1.3-0.5
		c-0.5,0-0.9,0.1-1.2,0.4c-0.3,0.3-0.5,0.7-0.6,1.2H257.6z"/>
	<path fill="#363636" d="M262.3,41.4c-0.5-0.2-0.9-0.5-1.2-0.9c-0.3-0.4-0.5-0.8-0.5-1.3h2c0,0.3,0.2,0.5,0.4,0.7s0.6,0.3,1,0.3
		c0.4,0,0.7-0.1,0.9-0.2s0.3-0.3,0.3-0.6c0-0.3-0.1-0.4-0.4-0.6s-0.7-0.3-1.2-0.4c-0.6-0.1-1.1-0.3-1.4-0.4c-0.4-0.1-0.7-0.4-1-0.7
		c-0.3-0.3-0.4-0.7-0.4-1.2c0-0.4,0.1-0.8,0.4-1.2c0.2-0.4,0.6-0.6,1.1-0.8c0.5-0.2,1-0.3,1.6-0.3c0.9,0,1.7,0.2,2.2,0.7
		c0.6,0.5,0.9,1.1,0.9,1.9h-1.9c0-0.3-0.2-0.6-0.4-0.7c-0.2-0.2-0.5-0.3-0.9-0.3c-0.4,0-0.6,0.1-0.8,0.2s-0.3,0.3-0.3,0.5
		c0,0.3,0.1,0.5,0.4,0.6c0.3,0.1,0.7,0.3,1.2,0.4c0.6,0.1,1,0.3,1.4,0.4s0.7,0.4,0.9,0.7c0.3,0.3,0.4,0.7,0.4,1.2
		c0,0.4-0.1,0.8-0.4,1.2c-0.2,0.4-0.6,0.6-1.1,0.8c-0.5,0.2-1,0.3-1.6,0.3C263.4,41.8,262.8,41.6,262.3,41.4z"/>
	<path fill="#363636" d="M273.4,41.3c-0.6-0.3-1.1-0.8-1.4-1.4c-0.3-0.6-0.5-1.3-0.5-2.1s0.2-1.5,0.5-2.1c0.3-0.6,0.8-1.1,1.4-1.4
		s1.3-0.5,2-0.5c0.7,0,1.4,0.2,2,0.5c0.6,0.3,1.1,0.8,1.4,1.4c0.3,0.6,0.5,1.3,0.5,2.1s-0.2,1.5-0.5,2.1c-0.4,0.6-0.8,1.1-1.5,1.4
		s-1.3,0.5-2.1,0.5C274.7,41.8,274,41.6,273.4,41.3z M276.4,39.8c0.3-0.2,0.6-0.4,0.7-0.8c0.2-0.3,0.3-0.8,0.3-1.3
		c0-0.7-0.2-1.3-0.6-1.7c-0.4-0.4-0.9-0.6-1.4-0.6c-0.6,0-1,0.2-1.4,0.6c-0.4,0.4-0.6,1-0.6,1.7s0.2,1.3,0.6,1.7s0.8,0.6,1.4,0.6
		C275.8,40,276.1,40,276.4,39.8z"/>
	<path fill="#363636" d="M284.5,35.5h-1.4v6.1h-2v-6.1h-0.9v-1.6h0.9v-0.4c0-1,0.3-1.7,0.8-2.1c0.5-0.4,1.4-0.7,2.5-0.6v1.7
		c-0.5,0-0.8,0.1-1,0.2s-0.3,0.5-0.3,0.9v0.3h1.4V35.5z"/>
	<path fill="#363636" d="M291.4,35.5v3.8c0,0.3,0.1,0.5,0.2,0.6c0.1,0.1,0.3,0.2,0.6,0.2h0.9v1.7h-1.2c-1.7,0-2.5-0.8-2.5-2.4v-3.7
		h-0.9v-1.6h0.9V32h2v1.9h1.7v1.6H291.4z"/>
	<path fill="#363636" d="M297.5,34.1c0.4-0.2,0.9-0.4,1.4-0.4v2.1h-0.5c-0.6,0-1.1,0.1-1.4,0.4s-0.5,0.8-0.5,1.5v3.9h-2v-7.8h2v1.2
		C296.7,34.7,297.1,34.3,297.5,34.1z"/>
	<path fill="#363636" d="M307.5,33.9v7.8h-2v-1c-0.3,0.3-0.6,0.6-1,0.8c-0.4,0.2-0.8,0.3-1.3,0.3c-0.6,0-1.1-0.1-1.6-0.4
		c-0.5-0.3-0.8-0.6-1.1-1.1c-0.3-0.5-0.4-1.1-0.4-1.8v-4.5h2v4.3c0,0.6,0.2,1.1,0.5,1.4c0.3,0.3,0.7,0.5,1.3,0.5
		c0.5,0,1-0.2,1.3-0.5c0.3-0.3,0.5-0.8,0.5-1.4v-4.3H307.5z"/>
	<path fill="#363636" d="M311.7,35.5v3.8c0,0.3,0.1,0.5,0.2,0.6c0.1,0.1,0.3,0.2,0.6,0.2h0.9v1.7h-1.2c-1.7,0-2.5-0.8-2.5-2.4v-3.7
		h-0.9v-1.6h0.9V32h2v1.9h1.7v1.6H311.7z"/>
	<path fill="#363636" d="M320.8,34.1c0.5,0.3,0.8,0.6,1.1,1.1c0.3,0.5,0.4,1.1,0.4,1.8v4.5h-2v-4.3c0-0.6-0.2-1.1-0.5-1.4
		c-0.3-0.3-0.7-0.5-1.3-0.5c-0.5,0-1,0.2-1.3,0.5c-0.3,0.3-0.5,0.8-0.5,1.4v4.3h-2V31.3h2v3.6c0.3-0.3,0.6-0.6,1-0.8
		s0.9-0.3,1.4-0.3C319.8,33.8,320.3,33.9,320.8,34.1z"/>
</g>
<rect x="135.4" y="69.2" fill="#F2EDED" stroke="#7500D4" stroke-width="3" stroke-miterlimit="10" width="243.9" height="144.8"/>
<path fill="#7500D4" d="M356.5,103.1c0.3-0.4,0.5-0.8,0.4-1.3c0-0.2-0.1-0.5-0.2-0.7c0-0.1-0.1-0.2-0.1-0.4l0-0.1l0-0.1
	c0.5-0.7,0.5-1.4,0.1-2.1c-0.1-0.1-0.1-0.4,0-0.5c0.5-0.7,0.4-1.4-0.1-2.1l-0.1-0.1l0.1-0.1c0.3-0.4,0.6-1,0.3-1.7
	c-0.2-0.5-0.2-0.8,0-1.4c0.3-0.7,0-1.3-0.3-1.7l-0.1-0.1l0.1-0.1c0.6-0.8,0.6-1.5,0-2.3l-0.1-0.1l0.1-0.1c0.7-1.1,0.5-2-0.6-2.7
	c-0.2-0.1-0.2-0.4-0.3-0.5c0-0.2-0.1-0.5-0.1-0.8c-0.1-0.4-0.1-0.8-0.2-1.2c-1.3-5.3-5.9-8.8-11.1-8.8c-0.8,0-1.6,0.1-2.4,0.2
	c-4.9,1-8.8,5.5-9.1,10.4c0,0.3-0.1,0.5-0.4,0.6c-0.4,0.2-0.7,0.6-0.8,1c-0.1,0.4,0,0.9,0.2,1.2c0.2,0.3,0.2,0.5,0,0.9
	c-0.1,0.2-0.2,0.5-0.2,0.7c0,0.3,0.1,0.6,0.2,1c0,0.2,0.1,0.3,0.1,0.5l0,0.1l0,0.1c-0.5,0.7-0.5,1.4,0.1,2.1l0.1,0.1l-0.1,0.1
	c-0.6,0.8-0.6,1.5,0,2.3l0.1,0.1l-0.1,0.1c-0.6,0.8-0.6,1.5,0,2.3l0.1,0.1l-0.1,0.1c-0.6,0.8-0.6,1.5,0,2.3l0.1,0.1l-0.1,0.1
	c-0.6,1-0.6,1.4,0.1,2.3c0.1,0.1,0.1,0.3,0,0.5c-0.1,0.2-0.1,0.4-0.2,0.6c-0.1,0.4-0.3,0.8-0.3,1.2c-0.1,1.8-0.1,3.7,0,5.5l0,0.1
	c0,0.8,0.4,1.2,1.3,1.2l22.8,0c1,0,1.4-0.4,1.4-1.4c0-1,0-2,0-3l0-1.8c0-1-0.2-1.7-0.5-2.4C356.4,103.5,356.4,103.2,356.5,103.1z
	 M333.2,86.5c0.4-0.1,0.5-0.2,0.5-0.6c0.2-4,2-7.1,5.5-9.1c3-1.7,6.6-1.8,9.7-0.3c3.2,1.5,5.3,4.5,5.8,7.8c0.1,0.5,0.1,1,0.1,1.5
	l0,0.1c0,0.4,0.1,0.5,0.5,0.6c0.6,0.1,0.7,0.5,0.7,0.8c0,0.4-0.3,0.7-0.7,0.7c-0.4,0-0.5,0.3-0.5,0.5c0,0.1,0,0.4,0.5,0.4
	c0.5,0.1,0.7,0.3,0.7,0.8c0,0.4-0.3,0.7-0.7,0.8c-0.4,0.1-0.5,0.3-0.5,0.5c0,0.2,0.1,0.4,0.5,0.5c0.4,0.1,0.7,0.3,0.7,0.8
	c0,0.4-0.3,0.7-0.7,0.8c-0.4,0-0.5,0.3-0.5,0.5c0,0.2,0.1,0.4,0.5,0.5c0.4,0.1,0.7,0.3,0.7,0.8c0,0.4-0.3,0.7-0.7,0.8
	c-0.4,0.1-0.5,0.3-0.5,0.5c0,0.2,0.1,0.4,0.5,0.5c0.4,0.1,0.7,0.3,0.7,0.8c0,0.4-0.3,0.7-0.7,0.8c-0.5,0.1-0.5,0.4-0.5,0.5
	c0,0.2,0.1,0.4,0.5,0.5c0.4,0.1,0.7,0.3,0.7,0.8c0,0.4-0.3,0.7-0.7,0.8c-0.4,0-0.5,0.3-0.5,0.4c0,0.2,0,0.4,0.5,0.5
	c0.4,0.1,0.6,0.3,0.6,0.4c0.1,0.2,0.1,0.4-0.1,0.8l-0.1,0.1l-0.1,0c0,0,0,0,0,0c-0.1,0-0.1,0-0.2-0.1c-0.8-0.7-1.8-1-3-1
	c-0.9,0-1.8,0-2.7,0c-0.4,0-0.8,0-1.2,0h-0.2l0-0.7c0-0.5,0-1.1,0-1.6c0-0.2,0.3-0.4,0.3-0.4c2.6-1.4,4.2-3.6,4.9-6.4
	c0.3-1.3,0.3-2.6,0.2-3.8l0-0.1c0-0.3-0.2-0.5-0.5-0.5c-0.1,0-0.2,0-0.2,0c-0.1,0-0.2,0-0.3,0c-0.4,0-0.8-0.4-0.8-0.8
	c0-0.4,0.2-0.7,0.7-0.8c0.5-0.1,0.6-0.3,0.5-0.5c0-0.1,0-0.4-0.6-0.4c-0.2,0-0.3,0-0.5,0c-0.2,0-0.4,0-0.5,0c-0.5,0-0.8-0.3-0.8-0.7
	c0-0.4,0.2-0.7,0.7-0.8l0,0c0,0,0.1,0,0.1,0c0.3-0.1,0.4-0.2,0.4-0.5c0-0.3-0.1-0.4-0.4-0.4c-0.3,0-0.5,0-0.8,0c-0.1,0-0.2,0-0.4,0
	c-0.6,0-0.8-0.2-0.9-0.7c-0.1-0.4-0.2-0.5-0.6-0.5c-0.5,0-1,0-1.5,0c-0.4,0-0.8,0-1.2,0c-0.9,0-1.4-0.4-1.5-1.3
	c-0.1-0.4-0.2-0.5-0.5-0.5c-0.2,0-0.4,0.1-0.5,0.5c-0.1,0.9-0.6,1.3-1.5,1.3c-0.5,0-1,0-1.6,0c-0.4,0-0.8,0-1.2,0
	c-0.5,0-0.6,0.1-0.7,0.5c-0.1,0.4-0.4,0.7-0.8,0.7c-0.1,0-0.3,0-0.4,0c-0.2,0-0.5,0-0.7,0c-0.2,0-0.5,0.1-0.5,0.4
	c0,0.3,0.1,0.4,0.4,0.5c0.7,0.1,0.8,0.6,0.8,0.8c0,0.3-0.2,0.7-0.9,0.7c-0.1,0-0.3,0-0.4,0c-0.2,0-0.4,0-0.5,0
	c-0.3,0-0.5,0.2-0.5,0.4c0,0.3,0.1,0.4,0.5,0.5c0.5,0.1,0.8,0.4,0.8,0.8c0,0.4-0.4,0.7-0.9,0.7c-0.1,0-0.1,0-0.2,0l-0.1,0
	c-0.6,0-0.7,0.1-0.7,0.7c0,1.5,0,3.1,0.5,4.6c0.8,2.4,2.4,4.3,4.6,5.5c0.3,0.1,0.4,0.3,0.4,0.7c0,0.4,0,0.8,0,1.3c0,0.2,0,0.4,0,0.6
	v0.2l-1.4,0c-0.9,0-1.8,0-2.7,0c0,0,0,0,0,0c-1.1,0-1.9,0.2-2.6,0.7c-0.1,0.1-0.2,0.1-0.3,0.2l-0.2,0.2l-0.1-0.1
	c-0.2-0.2-0.3-0.5-0.3-0.8c0.1-0.2,0.2-0.4,0.5-0.5c0.1,0,0.1,0,0.2,0l0.1,0c0.3-0.1,0.4-0.2,0.4-0.5c0-0.2-0.1-0.4-0.4-0.4l-0.1,0
	c-0.2,0-0.4-0.1-0.5-0.2c-0.1-0.2-0.3-0.5-0.2-0.7c0.1-0.2,0.4-0.5,0.6-0.5c0.4-0.1,0.5-0.2,0.5-0.5c0-0.2-0.1-0.4-0.5-0.5
	c-0.4-0.1-0.7-0.3-0.7-0.8c0-0.4,0.3-0.7,0.7-0.7c0.5-0.1,0.5-0.3,0.5-0.4c0-0.2-0.1-0.4-0.3-0.5c0,0-0.1,0-0.1,0c0,0-0.1,0-0.1,0
	c-0.4-0.1-0.7-0.4-0.7-0.8c0-0.4,0.3-0.7,0.7-0.7c0.4,0,0.5-0.3,0.5-0.5c0-0.2-0.1-0.4-0.5-0.4c-0.5-0.1-0.7-0.3-0.7-0.8
	c0-0.4,0.3-0.7,0.7-0.8c0.4,0,0.5-0.3,0.5-0.5c0-0.3-0.1-0.4-0.4-0.4c-0.5-0.1-0.8-0.3-0.8-0.8c0-0.4,0.3-0.7,0.8-0.8
	c0.3,0,0.4-0.2,0.4-0.4c0-0.2,0-0.4-0.5-0.5c-0.5-0.1-0.7-0.3-0.7-0.8C332.4,86.9,332.6,86.6,333.2,86.5z M337.2,86.6l0-0.1l0.1-0.1
	c1.1-0.6,1.4-1,1.2-2.3l0-0.1l0.1,0c0.5-0.2,0.8-0.5,1.1-0.9c0.1-0.2,0.4-0.2,0.5-0.2c0.6,0,1.3,0,1.9,0c0.9,0,1.5-0.2,2-0.8
	l0.1-0.1l0.2,0.2c0.1,0.1,0.1,0.1,0.2,0.2c0.4,0.4,0.9,0.5,1.5,0.5c0.3,0,0.5,0,0.8,0c0.5,0,1,0,1.4,0c0.3,0,0.5,0.2,0.6,0.3
	c0.2,0.2,0.4,0.5,0.7,0.7c0.1,0.1,0.2,0.2,0.3,0.3l0,0l0,0.1c0,0.1,0,0.3,0,0.4c0,0.3,0,0.7,0.2,0.9c0.1,0.3,0.4,0.5,0.6,0.7
	c0.1,0.1,0.3,0.2,0.4,0.4l0.1,0.1l0,0.1c-0.2,1.3,0.2,1.8,1.6,2.2l0.1,0l0,0.1c0.3,3.1-0.7,5.7-2.7,7.6c-1.7,1.6-3.7,2.4-5.8,2.4
	c-0.9,0-1.9-0.2-2.8-0.5c-3.1-1-5.2-3.3-5.9-6.6c-0.1-0.7-0.2-1.3-0.2-2c0-0.2,0-0.5,0-0.7c0-0.2,0.2-0.4,0.4-0.4
	C337.1,88.6,337.5,87.8,337.2,86.6z M341,101.6v-2.2l0.2,0.1c2.1,0.6,4,0.6,6,0l0.2-0.1v2.3c0,0.7,0.1,0.8,0.8,0.8c0.3,0,0.7,0,1,0
	l0.6,0v2.2h-11.3v-2.2l1.6,0C340.9,102.4,341,102.4,341,101.6z M335.2,111.3h-2.8l0-2.1c0-1.2,0-2.3,0-3.5c0-1.9,1.4-3.3,3.3-3.3
	c0.4,0,0.8,0,1.2,0l0.8,0l0,0.7c0,0.5,0,1,0,1.5c0,0.2-0.2,0.4-0.3,0.4c-1.4,0.9-2.1,2.1-2.1,3.8c0,0.5,0,1,0,1.5L335.2,111.3z
	 M352.4,110.3c0,0.3,0,0.5,0,0.8v0.2h-16.3l0-0.2c0-0.3,0-0.7,0-1c0-0.7,0-1.5,0.1-2.2c0.2-1.4,1.5-2.5,3-2.5c3.3,0,6.7,0,9.9,0
	c1.7,0,3.1,1.3,3.2,3C352.4,109.1,352.4,109.7,352.4,110.3z M356,109.4c0,0.5,0,1,0,1.6c0,0.1,0,0.1,0,0.2l0,0.2h-2.7v-0.2
	c0-0.2,0-0.4,0-0.6c0-0.5,0-0.9,0-1.4c0.1-1.8-0.7-3.1-2.2-4c-0.1-0.1-0.3-0.2-0.3-0.4c0-0.5,0-1.1,0-1.6l0-0.7l0.2,0
	c0.3,0,0.6,0,0.9,0c0.6,0,1.2,0,1.8,0.2c1.3,0.3,2.3,1.5,2.3,2.9C356.1,106.8,356.1,108.1,356,109.4z"/>
<rect x="309.2" y="69.2" fill="none" stroke="#7500D4" stroke-width="3" stroke-miterlimit="10" width="70.1" height="41.6"/>
<g>
	<path fill="#7500D4" d="M286.5,181.4c-2-0.5-4.2-0.5-6.4-0.5c-0.8,0-1.5,0-2.3,0c-1.4-0.1-2.9,0-4.4,0c-0.7,0-1.4,0-2.1,0h-0.5
		v-0.5c0-0.7,0-1.4,0-2.1c0-1.6,0-3.1,0-4.7c0-1.2,0.6-1.7,1.2-2.2c4.9-3.1,8.6-7.3,11.1-12.6c1.5-3.1,2.4-6.6,2.7-10.6l0-0.5h3.4
		c2,0,2.2-0.3,2.2-2.3c0-1.5,0-3,0-4.5c0-3.3,0-6.7,0-10.1c-0.3-11.7-5.2-21.3-14.6-28.3c-6.2-4.6-13.6-6.9-21.9-6.8
		c-5.9,0.1-10.3,3.5-11.3,8.7c-0.2,1.2-0.7,2-1.9,2.6c-9.7,5.7-14.9,14.1-15.3,25.2c-0.2,4-0.2,8.3-0.1,13.2c0.1,3,0.3,5.3,0.8,7.4
		c1.8,7.9,6.2,14.2,13.3,18.7c0.3,0.2,1,0.7,1,1.3c0,1.8,0,3.7,0,5.6l0,2.3l-1.1,0l-1.1,0c-1.1,0-2.2,0-3.4,0c-2.4,0-5,0-7.5,0.1
		c-8.1,0.3-15.1,7.4-15.3,15.5c-0.1,4-0.1,8-0.1,11.9l0,1.9c0,2.4,1.2,3.6,3.6,3.6c26.2,0,52.4,0,78.6,0c2.4,0,3.6-1.2,3.6-3.6
		l0-1.7c0-3.7,0.1-7.5,0-11.3C299,189.4,294.1,183.1,286.5,181.4z M246.2,111.2c0-0.6,0-1.2,0.1-1.9c0-1.5,0.1-3,0.3-4.5
		c0.6-3.4,3.7-6,7.3-6.1c13.6-0.4,24,5.2,30.8,16.8c2.6,4.4,3.9,9.3,4.1,14.8c0.1,3.1,0.1,6.3,0,9.4c0,1.3,0,2.6,0,3.9
		c0,0.2,0,0.4,0,0.6l-0.1,0.7H286v-2c0-1.3,0-2.6,0-3.9c0-2.8,0-5.7-0.1-8.5c-0.4-11.1-9.1-19.5-20.1-19.6c-5.3-0.1-10.2-0.1-14.8,0
		c-0.9,0-1.8,0.2-2.7,0.4c-0.5,0.1-1,0.2-1.5,0.3l-0.6,0.1L246.2,111.2z M236,158.4l0,0.5c0,1.1,0,2.2-0.3,3.4l-0.2,1.1l-1-1.4
		c-0.3-0.4-0.5-0.7-0.8-1.1c-2.8-4.3-4.2-8.9-4.3-13.6c-0.1-6.8-0.1-12,0.1-16.9c0.1-3.4,1.2-6.9,3.4-10.8l0.4-0.7l0.5,0.6
		c0.1,0.2,0.3,0.4,0.4,0.6c0.2,0.3,0.4,0.6,0.6,0.8c0.4,0.2,1,0.3,1.4,0.1c0.9-0.3,0.8-1.1,0.7-1.6c-0.1-0.5-0.4-1-2.3-0.9l-1,0
		l0.6-0.8c2.4-3.4,5.1-5.9,8.6-7.9l0.8-0.4v7.1c0,0.2,0,0.3,0,0.5c0,0.4,0,0.7,0,1c0.1,0.9,0.5,1.3,1.3,1.4c0.8,0,1.3-0.4,1.4-1.2
		c0.7-3.5,1.9-4.4,5.4-4.4c1.3,0,2.6,0,3.9,0c3.5,0,7.2,0,10.8,0.1c9.1,0.3,16.5,7.7,16.7,16.8c0.2,5.9,0.1,11.9-0.1,17.9
		c-0.2,4.7-1.8,9.3-5,13.6c-0.2,0.3-0.5,0.4-1,0.5l-0.6,0.1v-0.6c0-0.5,0-1.1,0-1.6c0-1.2,0-2.3,0-3.5c-0.3-4.4-3.9-8-8.3-8.2
		c-2.5-0.1-5-0.2-7.5,0c-1,0.1-2,0.5-3,0.9c-0.5,0.2-1.1,0.4-1.6,0.6l-0.3,0.1l-0.2-0.2c-1.1-1.1-2.9-1.6-5.4-1.5c-1,0-2,0-3,0
		c-0.5,0-0.9,0-1.4,0C239.7,148.8,236.1,152.4,236,158.4z M273.6,158.3l-0.1,0.5l-0.5,0c-0.6-0.1-1.2-0.1-1.8-0.2
		c-1.3-0.1-2.6-0.2-3.9-0.3c-1.2,0-2.4,0-3.6,0c-0.8,0-1.7,0-2.5,0c-2.1,0-3.5-1.3-3.6-3.2c0-0.9,0.3-1.8,0.9-2.4
		c0.6-0.6,1.5-1,2.5-1c2.4-0.1,4.9-0.1,7.4,0.1c1.6,0.1,3,0.9,4,2.2C273.4,155.2,273.9,156.8,273.6,158.3z M254.8,154.9
		c0,1.9-1.4,3.2-3.4,3.3c-0.9,0-1.7,0-2.6,0c-0.7,0-1.5,0-2.2,0c-0.5,0-1.1,0-1.6,0c-1.9,0-3.6-0.1-5.2,0.8l-0.6,0.3l-0.1-0.7
		c-0.4-1.7,0-3.4,1.1-4.8c1-1.3,2.5-2.1,4.1-2.3c2.5-0.2,5-0.1,7.4-0.1C253.5,151.6,254.9,153,254.8,154.9z M240.3,168
		c-1.6-1.2-1.9-2.7-1.1-4.5c0.7-1.6,2-2.4,3.6-2.5c3.1-0.1,5.6-0.1,7.9-0.1c2.3,0,3.9-0.5,5.2-1.9l0.4-0.4l0.4,0.4
		c1.4,1.3,3,1.9,5.2,1.9c2.8-0.1,5.2-0.1,7.4,0c1.4,0,2.6,0.5,3.4,1.3c0.7,0.8,1.1,1.9,1.1,3.3c0,0.7-0.5,1.6-1,2
		c-4.7,3.8-10.6,5.7-16.4,5.7C250.6,173.3,244.9,171.6,240.3,168z M268.1,180.2c0,0.5-0.7,1-1.1,1.1l-0.6,0.1
		c-1.8,0.4-3.6,0.8-5.5,1c-1,0.1-2-0.5-2.4-0.7c-1.6-1-3-1-4.4,0c-0.7,0.5-1.5,0.7-2.3,0.7c-0.5,0-0.9-0.1-1.5-0.2
		c-0.8-0.2-1.7-0.4-2.6-0.5c-0.7-0.1-1.3-0.2-2-0.4c-0.4-0.1-1.2-0.6-1.2-1.2c-0.1-1.4,0-2.8,0-4.3l0-2.2l0.7,0.3
		c7.5,2.9,14.8,2.9,22.3,0l0.7-0.3l0,2.2C268.1,177.4,268.1,178.8,268.1,180.2z M230.3,211h-14l-0.1-0.6c0-0.2-0.1-0.4-0.1-0.7
		c0-1.2,0-2.5,0-3.7c0-3.1,0-6.3,0.1-9.5c0.2-6.7,6-12.5,12.7-12.8c0.2,0,0.4,0,0.6,0l0.8,0.1V211z M233.2,211v-27.3l2.4,0
		c2,0,3.9,0,5.9,0c0.6,0,1.1,0.6,1.3,1l1.5,2.8c3.3,6.2,6.8,12.5,10.1,18.8c0.4,0.8,0.5,1.8,0.5,2.8c0,0.4,0,0.9,0.1,1.3l0.1,0.6
		H233.2z M245.7,184.3l1,0.2c0.5,0.1,0.9,0.2,1.3,0.2c0.9,0.1,1.7,0.3,2.5,0.5c1.5,0.5,2.8,0.3,4-0.6c1.1-0.8,2.2-0.8,3.3,0
		c1.2,0.9,2.6,1.1,4.1,0.6c0.8-0.2,1.6-0.4,2.5-0.5c0.4-0.1,0.8-0.1,1.3-0.2l1-0.2l-10.5,19.6L245.7,184.3z M279.3,211.1h-21.6
		l0-0.5c0-0.2,0-0.5,0-0.7c-0.1-1.3-0.1-2.7,0.7-4.1c3.8-7,7.6-14.1,11.2-20.7c0.4-0.7,0.9-1.4,2.2-1.4c1.7,0,3.3,0,5,0
		c0.7,0,1.4,0,2.1,0h0.5V211.1z M296.4,206.7l0,3.3c0,0.2,0,0.3-0.1,0.4l-0.1,0.6h-14v-27.2l0.5,0c2.2-0.2,4.4,0.4,6.6,1.6
		c4.6,2.7,7,6.8,7.1,12.3C296.4,200.7,296.4,203.7,296.4,206.7z"/>
	<path fill="#7500D4" d="M239.3,117.5C239.3,117.5,239.3,117.5,239.3,117.5c0.4,0,0.7-0.2,1-0.4c0.3-0.3,0.4-0.6,0.4-0.9
		c0-0.7-0.7-1.3-1.4-1.3c-0.3,0-0.7,0.2-1,0.4c-0.3,0.3-0.4,0.6-0.4,0.9C237.9,116.9,238.6,117.5,239.3,117.5z"/>
	<path fill="#7500D4" d="M241.2,120.5C241.2,120.5,241.2,120.5,241.2,120.5c-0.4,0-0.7,0.2-1,0.4c-0.3,0.3-0.4,0.6-0.4,1
		c0,0.3,0.2,0.7,0.4,1c0.3,0.3,0.6,0.4,0.9,0.4c0.7,0,1.3-0.6,1.3-1.4C242.5,121.1,241.9,120.5,241.2,120.5z"/>
	<path fill="#7500D4" d="M256.4,188.5C256.3,188.5,256.3,188.5,256.4,188.5c-0.4,0-0.7,0.1-1,0.4c-0.3,0.3-0.4,0.6-0.4,0.9
		c0,0.7,0.6,1.4,1.3,1.4c0.3,0,0.7-0.1,0.9-0.3c0.3-0.3,0.5-0.7,0.5-1.1C257.7,189.1,257.1,188.5,256.4,188.5z"/>
</g>
</svg>
