<?xml version="1.0" encoding="utf-8"?>
<!-- Generator: Adobe Illustrator 26.3.1, SVG Export Plug-In . SVG Version: 6.00 Build 0)  -->
<svg version="1.1" baseProfile="tiny" id="Layer_1" xmlns="http://www.w3.org/2000/svg" xmlns:xlink="http://www.w3.org/1999/xlink"
	 x="0px" y="0px" width="514.7px" height="284.4px" viewBox="0 0 514.7 284.4" overflow="visible" xml:space="preserve">
<path fill="#F2EDED" d="M498.7,284.4H16c-8.8,0-16-7.1-16-16V16C0,7.1,7.1,0,16,0h482.7c8.8,0,16,7.1,16,16v252.5
	C514.7,277.2,507.5,284.4,498.7,284.4z"/>
<path fill="#E8C3E2" d="M239.1,237.9c0-106.8-86.6-193.4-193.4-193.4v193.4H239.1z"/>
<path fill="#E8D5E5" d="M178.3,237.9c0-73.2-59.4-132.6-132.6-132.6v132.6H178.3z"/>
<path fill="#E8E0E3" d="M117,237.9c0-39.4-31.9-71.3-71.3-71.3v71.3H117z"/>
<g>
	<path fill="#363636" d="M24.5,223h7v0.9h-3.2v3.5h3.2v0.9h-7v-0.9h3.1v-3.5h-3.1V223z"/>
	<path fill="#363636" d="M24.9,221.4c-0.1,0.1-0.3,0.2-0.4,0.2c-0.2,0-0.3-0.1-0.4-0.2c-0.1-0.1-0.2-0.3-0.2-0.4
		c0-0.2,0.1-0.3,0.2-0.4c0.1-0.1,0.3-0.2,0.4-0.2c0.2,0,0.3,0.1,0.4,0.2c0.1,0.1,0.2,0.3,0.2,0.4C25.1,221.1,25,221.3,24.9,221.4z
		 M25.9,220.5h5.5v0.9h-5.5V220.5z"/>
	<path fill="#363636" d="M26.2,215.5c0.2-0.4,0.5-0.6,0.8-0.8h-1v-0.9h5.6c0.5,0,0.9,0.1,1.3,0.3c0.4,0.2,0.7,0.5,0.9,0.9
		s0.3,0.9,0.3,1.4c0,0.7-0.2,1.3-0.5,1.8c-0.3,0.5-0.8,0.8-1.4,0.8v-0.9c0.3-0.1,0.6-0.3,0.8-0.6c0.2-0.3,0.3-0.7,0.3-1.1
		c0-0.5-0.2-0.9-0.5-1.2c-0.3-0.3-0.8-0.5-1.3-0.5h-1.2c0.3,0.2,0.6,0.4,0.8,0.8c0.2,0.4,0.3,0.8,0.3,1.2c0,0.5-0.1,0.9-0.4,1.3
		c-0.2,0.4-0.6,0.7-1,0.9c-0.4,0.2-0.9,0.3-1.5,0.3c-0.6,0-1.1-0.1-1.5-0.3c-0.4-0.2-0.8-0.5-1-0.9c-0.2-0.4-0.3-0.8-0.3-1.3
		C25.9,216.2,26,215.8,26.2,215.5z M27.6,214.9c-0.3,0.2-0.5,0.4-0.7,0.7c-0.2,0.3-0.2,0.6-0.2,0.9s0.1,0.6,0.2,0.9
		c0.2,0.3,0.4,0.5,0.7,0.7s0.7,0.2,1.1,0.2c0.4,0,0.8-0.1,1.1-0.2s0.5-0.4,0.7-0.7c0.2-0.3,0.2-0.6,0.2-0.9s-0.1-0.7-0.2-0.9
		s-0.4-0.5-0.7-0.7s-0.7-0.2-1.1-0.2S27.9,214.8,27.6,214.9z"/>
	<path fill="#363636" d="M26.1,208.4c0.2-0.3,0.4-0.6,0.8-0.8c0.4-0.2,0.8-0.3,1.3-0.3h3.2v0.9h-3.1c-0.5,0-1,0.1-1.3,0.4
		c-0.3,0.3-0.4,0.6-0.4,1.1c0,0.5,0.1,0.9,0.5,1.1c0.3,0.3,0.7,0.4,1.3,0.4h3v0.9H24v-0.9h2.7c-0.3-0.2-0.5-0.4-0.6-0.7
		c-0.2-0.3-0.2-0.7-0.2-1.1C25.8,209.1,25.9,208.7,26.1,208.4z"/>
</g>
<g>
	<path fill="#7500D4" d="M24.5,178.1l7,2.6v1l-7,2.6v-1l6-2.2l-6-2.2V178.1z"/>
	<path fill="#7500D4" d="M27.2,177.1c-0.4-0.2-0.8-0.5-1-0.9c-0.2-0.4-0.3-0.8-0.3-1.3c0-0.5,0.1-0.9,0.3-1.2
		c0.2-0.4,0.5-0.6,0.8-0.8h-1v-0.9h5.5v0.9h-1c0.3,0.2,0.6,0.4,0.8,0.8s0.3,0.8,0.3,1.2c0,0.5-0.1,0.9-0.4,1.3
		c-0.2,0.4-0.6,0.7-1,0.9c-0.4,0.2-0.9,0.3-1.5,0.3C28.1,177.5,27.6,177.3,27.2,177.1z M27.6,173.1c-0.3,0.2-0.5,0.4-0.7,0.7
		c-0.2,0.3-0.2,0.6-0.2,0.9s0.1,0.6,0.2,0.9c0.2,0.3,0.4,0.5,0.7,0.7s0.7,0.2,1.1,0.2c0.4,0,0.8-0.1,1.1-0.2s0.5-0.4,0.7-0.7
		c0.2-0.3,0.2-0.6,0.2-0.9s-0.1-0.7-0.2-0.9s-0.4-0.5-0.7-0.7s-0.7-0.2-1.1-0.2S27.9,172.9,27.6,173.1z"/>
	<path fill="#7500D4" d="M24,169.4h7.4v0.9H24V169.4z"/>
	<path fill="#7500D4" d="M25.9,163h5.5v0.9h-0.8c0.3,0.2,0.5,0.4,0.7,0.7c0.2,0.3,0.2,0.7,0.2,1c0,0.4-0.1,0.8-0.3,1.2
		c-0.2,0.3-0.4,0.6-0.8,0.8c-0.4,0.2-0.8,0.3-1.3,0.3h-3.2V167H29c0.5,0,1-0.1,1.2-0.4c0.3-0.3,0.4-0.6,0.4-1.1
		c0-0.5-0.2-0.9-0.5-1.2c-0.3-0.3-0.7-0.4-1.3-0.4h-3V163z"/>
	<path fill="#7500D4" d="M29,156.5v4.4c0.5,0,1-0.2,1.3-0.6c0.3-0.3,0.5-0.7,0.5-1.2c0-0.4-0.1-0.7-0.3-1c-0.2-0.3-0.4-0.4-0.7-0.6
		v-1c0.5,0.1,1,0.4,1.3,0.9c0.3,0.4,0.5,1,0.5,1.6c0,0.5-0.1,1-0.3,1.4c-0.2,0.4-0.6,0.7-1,1s-0.9,0.3-1.5,0.3s-1.1-0.1-1.5-0.3
		c-0.4-0.2-0.8-0.5-1-1c-0.2-0.4-0.3-0.9-0.3-1.4c0-0.5,0.1-1,0.3-1.4s0.5-0.7,0.9-0.9c0.4-0.2,0.8-0.3,1.3-0.3
		C28.6,156.5,28.8,156.5,29,156.5z M27.4,157.7c-0.2,0.2-0.4,0.4-0.6,0.6c-0.1,0.3-0.2,0.6-0.2,0.9c0,0.5,0.1,0.9,0.4,1.2
		s0.7,0.5,1.2,0.6v-3.5C27.9,157.4,27.6,157.5,27.4,157.7z"/>
	<path fill="#7500D4" d="M26.7,150.4v1.1h4.7v0.9h-4.7v0.7h-0.8v-0.7h-0.4c-0.6,0-1.1-0.2-1.3-0.5c-0.3-0.3-0.4-0.8-0.4-1.5h0.8
		c0,0.4,0.1,0.7,0.2,0.8c0.2,0.2,0.4,0.2,0.8,0.2h0.4v-1.1H26.7z"/>
	<path fill="#7500D4" d="M31.2,148.3c-0.2,0.4-0.6,0.7-1,1c-0.4,0.2-0.9,0.4-1.5,0.4c-0.6,0-1.1-0.1-1.5-0.4c-0.4-0.2-0.8-0.6-1-1
		s-0.3-0.9-0.3-1.4s0.1-1,0.3-1.4s0.6-0.8,1-1c0.4-0.2,0.9-0.4,1.5-0.4s1.1,0.1,1.5,0.4s0.8,0.6,1,1c0.2,0.4,0.3,0.9,0.3,1.4
		C31.5,147.5,31.4,147.9,31.2,148.3z M30.5,146c-0.2-0.3-0.4-0.5-0.7-0.7s-0.7-0.3-1.1-0.3s-0.8,0.1-1.1,0.3s-0.5,0.4-0.7,0.7
		c-0.1,0.3-0.2,0.6-0.2,0.9c0,0.3,0.1,0.6,0.2,0.9c0.2,0.3,0.4,0.5,0.7,0.7s0.7,0.2,1.1,0.2c0.4,0,0.8-0.1,1.1-0.2
		c0.3-0.2,0.5-0.4,0.7-0.7c0.1-0.3,0.2-0.6,0.2-0.9C30.7,146.6,30.6,146.3,30.5,146z"/>
	<path fill="#7500D4" d="M26.1,141.3c-0.2-0.3-0.3-0.7-0.3-1.1h0.9v0.2c0,1,0.6,1.5,1.7,1.5h3v0.9h-5.5V142h0.9
		C26.5,141.9,26.3,141.6,26.1,141.3z"/>
	<path fill="#7500D4" d="M27.2,136.5c-0.4-0.2-0.8-0.5-1-0.9c-0.2-0.4-0.3-0.9-0.3-1.4c0-0.7,0.2-1.2,0.5-1.7
		c0.3-0.4,0.8-0.7,1.4-0.9v1c-0.3,0.1-0.6,0.3-0.8,0.5s-0.3,0.6-0.3,1c0,0.5,0.2,0.9,0.5,1.3c0.4,0.3,0.9,0.5,1.5,0.5
		c0.7,0,1.2-0.2,1.5-0.5c0.4-0.3,0.5-0.7,0.5-1.3c0-0.4-0.1-0.7-0.3-1s-0.5-0.4-0.8-0.5v-1c0.6,0.1,1,0.4,1.3,0.9s0.5,1,0.5,1.6
		c0,0.5-0.1,1-0.3,1.4s-0.6,0.7-1,0.9s-0.9,0.3-1.5,0.3C28.1,136.9,27.6,136.8,27.2,136.5z"/>
	<path fill="#7500D4" d="M25.9,125.6h5.5v0.9h-0.8c0.3,0.2,0.5,0.4,0.7,0.7c0.2,0.3,0.2,0.7,0.2,1c0,0.4-0.1,0.8-0.3,1.2
		c-0.2,0.3-0.4,0.6-0.8,0.8c-0.4,0.2-0.8,0.3-1.3,0.3h-3.2v-0.9H29c0.5,0,1-0.1,1.2-0.4c0.3-0.3,0.4-0.6,0.4-1.1
		c0-0.5-0.2-0.9-0.5-1.1c-0.3-0.3-0.7-0.4-1.3-0.4h-3V125.6z"/>
	<path fill="#7500D4" d="M31.3,123.3c-0.1,0.3-0.3,0.6-0.6,0.8c-0.3,0.2-0.6,0.3-0.9,0.3v-0.9c0.3,0,0.5-0.2,0.7-0.4
		c0.2-0.2,0.3-0.5,0.3-0.9c0-0.3-0.1-0.6-0.2-0.8s-0.3-0.3-0.6-0.3c-0.2,0-0.4,0.1-0.5,0.3c-0.1,0.2-0.2,0.5-0.3,1
		c-0.1,0.4-0.2,0.7-0.3,1c-0.1,0.3-0.3,0.5-0.5,0.7c-0.2,0.2-0.5,0.3-0.9,0.3c-0.3,0-0.5-0.1-0.8-0.2c-0.2-0.2-0.4-0.4-0.6-0.7
		c-0.1-0.3-0.2-0.7-0.2-1c0-0.6,0.2-1.1,0.5-1.5c0.3-0.4,0.7-0.6,1.3-0.6v0.9c-0.3,0-0.5,0.1-0.7,0.3c-0.2,0.2-0.3,0.5-0.3,0.8
		c0,0.3,0.1,0.6,0.2,0.8c0.1,0.2,0.3,0.3,0.5,0.3c0.2,0,0.3-0.1,0.4-0.2c0.1-0.1,0.2-0.3,0.3-0.4c0.1-0.2,0.1-0.4,0.2-0.7
		c0.1-0.4,0.2-0.7,0.3-1s0.3-0.5,0.5-0.6c0.2-0.2,0.5-0.3,0.8-0.3c0.3,0,0.6,0.1,0.8,0.2c0.2,0.2,0.4,0.4,0.6,0.7s0.2,0.7,0.2,1
		C31.5,122.5,31.4,122.9,31.3,123.3z"/>
	<path fill="#7500D4" d="M26.7,117.7h3.2c0.3,0,0.5-0.1,0.6-0.2c0.1-0.1,0.2-0.3,0.2-0.6v-0.7h0.8v0.8c0,0.5-0.1,0.9-0.3,1.1
		s-0.6,0.4-1.2,0.4h-3.2v0.7h-0.8v-0.7h-1.4v-0.9h1.4v-1.4h0.8V117.7z"/>
	<path fill="#7500D4" d="M31.2,114.2c-0.2,0.4-0.6,0.7-1,1c-0.4,0.2-0.9,0.4-1.5,0.4c-0.6,0-1.1-0.1-1.5-0.4c-0.4-0.2-0.8-0.6-1-1
		s-0.3-0.9-0.3-1.4s0.1-1,0.3-1.4s0.6-0.8,1-1c0.4-0.2,0.9-0.4,1.5-0.4s1.1,0.1,1.5,0.4s0.8,0.6,1,1c0.2,0.4,0.3,0.9,0.3,1.4
		C31.5,113.3,31.4,113.8,31.2,114.2z M30.5,111.9c-0.2-0.3-0.4-0.5-0.7-0.7s-0.7-0.3-1.1-0.3s-0.8,0.1-1.1,0.3s-0.5,0.4-0.7,0.7
		c-0.1,0.3-0.2,0.6-0.2,0.9c0,0.3,0.1,0.6,0.2,0.9c0.2,0.3,0.4,0.5,0.7,0.7s0.7,0.2,1.1,0.2c0.4,0,0.8-0.1,1.1-0.2
		c0.3-0.2,0.5-0.4,0.7-0.7c0.1-0.3,0.2-0.6,0.2-0.9C30.7,112.5,30.6,112.2,30.5,111.9z"/>
	<path fill="#7500D4" d="M26.1,101.1c0.2-0.3,0.4-0.6,0.8-0.8c0.4-0.2,0.8-0.3,1.3-0.3h3.2v0.9h-3.1c-0.5,0-1,0.1-1.3,0.4
		c-0.3,0.3-0.4,0.6-0.4,1.1c0,0.5,0.2,0.9,0.5,1.1c0.3,0.3,0.7,0.4,1.3,0.4h3v0.9h-3.1c-0.5,0-1,0.1-1.3,0.4
		c-0.3,0.3-0.4,0.6-0.4,1.1c0,0.5,0.2,0.9,0.5,1.1c0.3,0.3,0.7,0.4,1.3,0.4h3v0.9h-5.5v-0.9h0.8c-0.3-0.2-0.5-0.4-0.7-0.7
		c-0.2-0.3-0.2-0.6-0.2-1c0-0.5,0.1-0.9,0.3-1.2s0.5-0.6,0.9-0.8c-0.4-0.2-0.7-0.4-0.9-0.8c-0.2-0.4-0.3-0.7-0.3-1.2
		C25.8,101.8,25.9,101.4,26.1,101.1z"/>
	<path fill="#7500D4" d="M29,93.5v4.4c0.5,0,1-0.2,1.3-0.6c0.3-0.3,0.5-0.7,0.5-1.2c0-0.4-0.1-0.7-0.3-1c-0.2-0.3-0.4-0.4-0.7-0.6
		v-1c0.5,0.1,1,0.4,1.3,0.9c0.3,0.4,0.5,1,0.5,1.6c0,0.5-0.1,1-0.3,1.4c-0.2,0.4-0.6,0.7-1,1s-0.9,0.3-1.5,0.3s-1.1-0.1-1.5-0.3
		c-0.4-0.2-0.8-0.5-1-1c-0.2-0.4-0.3-0.9-0.3-1.4c0-0.5,0.1-1,0.3-1.4s0.5-0.7,0.9-0.9c0.4-0.2,0.8-0.3,1.3-0.3
		C28.6,93.5,28.8,93.5,29,93.5z M27.4,94.7c-0.2,0.2-0.4,0.4-0.6,0.6c-0.1,0.3-0.2,0.6-0.2,0.9c0,0.5,0.1,0.9,0.4,1.2
		s0.7,0.5,1.2,0.6v-3.5C27.9,94.4,27.6,94.5,27.4,94.7z"/>
	<path fill="#7500D4" d="M26.1,90.7c-0.2-0.3-0.3-0.7-0.3-1.1h0.9v0.2c0,1,0.6,1.5,1.7,1.5h3v0.9h-5.5v-0.9h0.9
		C26.5,91.2,26.3,91,26.1,90.7z"/>
	<path fill="#7500D4" d="M31.3,87.8c-0.1,0.3-0.3,0.6-0.6,0.8c-0.3,0.2-0.6,0.3-0.9,0.3v-0.9c0.3,0,0.5-0.2,0.7-0.4
		c0.2-0.2,0.3-0.5,0.3-0.9c0-0.3-0.1-0.6-0.2-0.8s-0.3-0.3-0.6-0.3c-0.2,0-0.4,0.1-0.5,0.3c-0.1,0.2-0.2,0.5-0.3,1
		c-0.1,0.4-0.2,0.7-0.3,1c-0.1,0.3-0.3,0.5-0.5,0.7c-0.2,0.2-0.5,0.3-0.9,0.3c-0.3,0-0.5-0.1-0.8-0.2c-0.2-0.2-0.4-0.4-0.6-0.7
		c-0.1-0.3-0.2-0.7-0.2-1c0-0.6,0.2-1.1,0.5-1.5c0.3-0.4,0.7-0.6,1.3-0.6v0.9c-0.3,0-0.5,0.1-0.7,0.3c-0.2,0.2-0.3,0.5-0.3,0.8
		c0,0.3,0.1,0.6,0.2,0.8c0.1,0.2,0.3,0.3,0.5,0.3c0.2,0,0.3-0.1,0.4-0.2c0.1-0.1,0.2-0.3,0.3-0.4c0.1-0.2,0.1-0.4,0.2-0.7
		c0.1-0.4,0.2-0.7,0.3-1s0.3-0.5,0.5-0.6c0.2-0.2,0.5-0.3,0.8-0.3c0.3,0,0.6,0.1,0.8,0.2c0.2,0.2,0.4,0.4,0.6,0.7s0.2,0.7,0.2,1
		C31.5,87.1,31.4,87.4,31.3,87.8z"/>
</g>
<g>
	<path fill="#7500D4" d="M303.1,190.3l-1.7-2.8h-1.1v2.8h-0.9v-7h2.2c0.5,0,1,0.1,1.3,0.3s0.6,0.4,0.8,0.7c0.2,0.3,0.3,0.7,0.3,1.1
		c0,0.5-0.1,0.9-0.4,1.3c-0.3,0.4-0.7,0.6-1.2,0.7l1.8,2.9H303.1z M300.3,186.7h1.3c0.5,0,0.9-0.1,1.1-0.4c0.2-0.2,0.4-0.6,0.4-1
		c0-0.4-0.1-0.7-0.4-1s-0.6-0.3-1.1-0.3h-1.3V186.7z"/>
	<path fill="#7500D4" d="M310.5,187.9h-4.4c0,0.5,0.2,1,0.6,1.3c0.3,0.3,0.7,0.5,1.2,0.5c0.4,0,0.7-0.1,1-0.3
		c0.3-0.2,0.4-0.4,0.6-0.7h1c-0.1,0.5-0.4,1-0.9,1.3c-0.4,0.3-1,0.5-1.6,0.5c-0.5,0-1-0.1-1.4-0.3c-0.4-0.2-0.7-0.6-1-1
		s-0.3-0.9-0.3-1.5s0.1-1.1,0.3-1.5s0.5-0.8,1-1c0.4-0.2,0.9-0.3,1.4-0.3c0.5,0,1,0.1,1.4,0.3c0.4,0.2,0.7,0.5,0.9,0.9
		c0.2,0.4,0.3,0.8,0.3,1.3C310.5,187.5,310.5,187.7,310.5,187.9z M309.3,186.3c-0.2-0.2-0.4-0.4-0.6-0.6s-0.6-0.2-0.9-0.2
		c-0.5,0-0.9,0.1-1.2,0.4c-0.3,0.3-0.5,0.7-0.6,1.2h3.5C309.6,186.8,309.5,186.5,309.3,186.3z"/>
	<path fill="#7500D4" d="M312.5,190.2c-0.3-0.1-0.6-0.3-0.8-0.6c-0.2-0.3-0.3-0.6-0.3-0.9h0.9c0,0.3,0.2,0.5,0.4,0.7
		c0.2,0.2,0.5,0.3,0.9,0.3c0.3,0,0.6-0.1,0.8-0.2s0.3-0.3,0.3-0.6c0-0.2-0.1-0.4-0.3-0.5c-0.2-0.1-0.5-0.2-1-0.3
		c-0.4-0.1-0.7-0.2-1-0.3c-0.3-0.1-0.5-0.3-0.7-0.5c-0.2-0.2-0.3-0.5-0.3-0.9c0-0.3,0.1-0.5,0.2-0.8s0.4-0.4,0.7-0.6s0.7-0.2,1-0.2
		c0.6,0,1.1,0.2,1.5,0.5c0.4,0.3,0.6,0.7,0.6,1.3h-0.9c0-0.3-0.1-0.5-0.3-0.7c-0.2-0.2-0.5-0.3-0.8-0.3c-0.3,0-0.6,0.1-0.8,0.2
		c-0.2,0.1-0.3,0.3-0.3,0.5c0,0.2,0.1,0.3,0.2,0.4c0.1,0.1,0.3,0.2,0.4,0.3c0.2,0.1,0.4,0.1,0.7,0.2c0.4,0.1,0.7,0.2,1,0.3
		c0.2,0.1,0.5,0.3,0.6,0.5c0.2,0.2,0.3,0.5,0.3,0.8c0,0.3-0.1,0.6-0.2,0.8c-0.2,0.2-0.4,0.4-0.7,0.6c-0.3,0.1-0.7,0.2-1,0.2
		C313.2,190.4,312.9,190.3,312.5,190.2z"/>
	<path fill="#7500D4" d="M321.9,187.9h-4.4c0,0.5,0.2,1,0.6,1.3c0.3,0.3,0.7,0.5,1.2,0.5c0.4,0,0.7-0.1,1-0.3s0.4-0.4,0.6-0.7h1
		c-0.1,0.5-0.4,1-0.9,1.3s-1,0.5-1.6,0.5c-0.5,0-1-0.1-1.4-0.3s-0.7-0.6-1-1s-0.3-0.9-0.3-1.5s0.1-1.1,0.3-1.5s0.5-0.8,1-1
		c0.4-0.2,0.9-0.3,1.4-0.3c0.5,0,1,0.1,1.4,0.3c0.4,0.2,0.7,0.5,0.9,0.9s0.3,0.8,0.3,1.3C321.9,187.5,321.9,187.7,321.9,187.9z
		 M320.8,186.3c-0.2-0.2-0.4-0.4-0.6-0.6c-0.3-0.1-0.6-0.2-0.9-0.2c-0.5,0-0.9,0.1-1.2,0.4c-0.3,0.3-0.5,0.7-0.6,1.2h3.5
		C321,186.8,320.9,186.5,320.8,186.3z"/>
	<path fill="#7500D4" d="M323.1,186.1c0.2-0.4,0.5-0.8,0.9-1c0.4-0.2,0.8-0.3,1.3-0.3c0.5,0,0.9,0.1,1.2,0.3
		c0.4,0.2,0.6,0.5,0.8,0.8v-1h0.9v5.5h-0.9v-1c-0.2,0.3-0.4,0.6-0.8,0.8c-0.4,0.2-0.8,0.3-1.2,0.3c-0.5,0-0.9-0.1-1.3-0.4
		c-0.4-0.2-0.7-0.6-0.9-1c-0.2-0.4-0.3-0.9-0.3-1.5C322.8,187,322.9,186.5,323.1,186.1z M327.2,186.5c-0.2-0.3-0.4-0.5-0.7-0.7
		c-0.3-0.2-0.6-0.2-0.9-0.2s-0.6,0.1-0.9,0.2s-0.5,0.4-0.7,0.7c-0.2,0.3-0.2,0.7-0.2,1.1c0,0.4,0.1,0.8,0.2,1.1
		c0.2,0.3,0.4,0.5,0.7,0.7s0.6,0.2,0.9,0.2s0.7-0.1,0.9-0.2c0.3-0.2,0.5-0.4,0.7-0.7c0.2-0.3,0.2-0.7,0.2-1.1
		S327.3,186.8,327.2,186.5z"/>
	<path fill="#7500D4" d="M331.5,185c0.3-0.2,0.7-0.3,1.1-0.3v0.9h-0.2c-1,0-1.5,0.6-1.5,1.7v3h-0.9v-5.5h0.9v0.9
		C331,185.4,331.2,185.2,331.5,185z"/>
	<path fill="#7500D4" d="M333.6,186.1c0.2-0.4,0.5-0.8,0.9-1c0.4-0.2,0.9-0.3,1.4-0.3c0.7,0,1.2,0.2,1.7,0.5
		c0.4,0.3,0.7,0.8,0.9,1.4h-1c-0.1-0.3-0.3-0.6-0.5-0.8c-0.3-0.2-0.6-0.3-1-0.3c-0.5,0-0.9,0.2-1.3,0.5c-0.3,0.4-0.5,0.9-0.5,1.5
		c0,0.7,0.2,1.2,0.5,1.5c0.3,0.4,0.7,0.5,1.3,0.5c0.4,0,0.7-0.1,1-0.3s0.5-0.5,0.5-0.8h1c-0.1,0.6-0.4,1-0.9,1.3
		c-0.4,0.3-1,0.5-1.7,0.5c-0.5,0-1-0.1-1.4-0.3s-0.7-0.6-0.9-1s-0.3-0.9-0.3-1.5C333.3,187,333.4,186.5,333.6,186.1z"/>
	<path fill="#7500D4" d="M343.5,185c0.3,0.2,0.6,0.4,0.8,0.8c0.2,0.4,0.3,0.8,0.3,1.3v3.2h-0.9v-3.1c0-0.5-0.1-1-0.4-1.3
		c-0.3-0.3-0.6-0.4-1.1-0.4c-0.5,0-0.9,0.1-1.1,0.5c-0.3,0.3-0.4,0.7-0.4,1.3v3h-0.9v-7.4h0.9v2.7c0.2-0.3,0.4-0.5,0.7-0.7
		c0.3-0.2,0.7-0.2,1.1-0.2C342.8,184.7,343.2,184.8,343.5,185z"/>
	<path fill="#7500D4" d="M311.9,201.6h2.4v0.7H311v-7h0.9V201.6z"/>
	<path fill="#7500D4" d="M315.3,195.8c-0.1-0.1-0.2-0.3-0.2-0.4c0-0.2,0.1-0.3,0.2-0.4s0.3-0.2,0.4-0.2c0.2,0,0.3,0.1,0.4,0.2
		c0.1,0.1,0.2,0.3,0.2,0.4c0,0.2-0.1,0.3-0.2,0.4c-0.1,0.1-0.3,0.2-0.4,0.2C315.6,195.9,315.4,195.9,315.3,195.8z M316.2,196.8v5.5
		h-0.9v-5.5H316.2z"/>
	<path fill="#7500D4" d="M321.3,197c0.4,0.2,0.6,0.5,0.8,0.8v-1h0.9v5.6c0,0.5-0.1,0.9-0.3,1.3c-0.2,0.4-0.5,0.7-0.9,0.9
		s-0.9,0.3-1.4,0.3c-0.7,0-1.3-0.2-1.8-0.5c-0.5-0.3-0.8-0.8-0.8-1.4h0.9c0.1,0.3,0.3,0.6,0.6,0.8c0.3,0.2,0.7,0.3,1.1,0.3
		c0.5,0,0.9-0.2,1.2-0.5c0.3-0.3,0.5-0.8,0.5-1.3v-1.2c-0.2,0.3-0.4,0.6-0.8,0.8c-0.4,0.2-0.8,0.3-1.2,0.3c-0.5,0-0.9-0.1-1.3-0.4
		c-0.4-0.2-0.7-0.6-0.9-1c-0.2-0.4-0.3-0.9-0.3-1.5c0-0.6,0.1-1.1,0.3-1.5c0.2-0.4,0.5-0.8,0.9-1c0.4-0.2,0.8-0.4,1.3-0.4
		C320.5,196.7,320.9,196.8,321.3,197z M321.8,198.5c-0.2-0.3-0.4-0.5-0.7-0.7c-0.3-0.2-0.6-0.2-0.9-0.2s-0.7,0.1-0.9,0.2
		c-0.3,0.2-0.5,0.4-0.7,0.7c-0.2,0.3-0.2,0.7-0.2,1.1c0,0.4,0.1,0.8,0.2,1.1c0.2,0.3,0.4,0.5,0.7,0.7c0.3,0.2,0.6,0.2,0.9,0.2
		s0.7-0.1,0.9-0.2s0.5-0.4,0.7-0.7c0.2-0.3,0.2-0.7,0.2-1.1S322,198.8,321.8,198.5z"/>
	<path fill="#7500D4" d="M328.4,197c0.3,0.2,0.6,0.4,0.8,0.8c0.2,0.4,0.3,0.8,0.3,1.3v3.2h-0.9v-3.1c0-0.5-0.1-1-0.4-1.3
		c-0.3-0.3-0.6-0.4-1.1-0.4c-0.5,0-0.9,0.2-1.1,0.5s-0.4,0.7-0.4,1.3v3h-0.9v-7.4h0.9v2.7c0.2-0.3,0.4-0.5,0.7-0.6s0.7-0.2,1.1-0.2
		C327.6,196.7,328,196.8,328.4,197z"/>
	<path fill="#7500D4" d="M332,197.6v3.2c0,0.3,0.1,0.5,0.2,0.6c0.1,0.1,0.3,0.2,0.6,0.2h0.7v0.8h-0.8c-0.5,0-0.9-0.1-1.1-0.3
		c-0.3-0.2-0.4-0.6-0.4-1.2v-3.2h-0.7v-0.8h0.7v-1.4h0.9v1.4h1.4v0.8H332z"/>
</g>
<g>
	<path fill="#7500D4" d="M404.3,190.3l-1.7-2.8h-1.1v2.8h-0.9v-7h2.2c0.5,0,1,0.1,1.3,0.3s0.6,0.4,0.8,0.7c0.2,0.3,0.3,0.7,0.3,1.1
		c0,0.5-0.1,0.9-0.4,1.3c-0.3,0.4-0.7,0.6-1.2,0.7l1.8,2.9H404.3z M401.5,186.7h1.3c0.5,0,0.9-0.1,1.1-0.4c0.2-0.2,0.4-0.6,0.4-1
		c0-0.4-0.1-0.7-0.4-1s-0.6-0.3-1.1-0.3h-1.3V186.7z"/>
	<path fill="#7500D4" d="M411.7,187.9h-4.4c0,0.5,0.2,1,0.6,1.3c0.3,0.3,0.7,0.5,1.2,0.5c0.4,0,0.7-0.1,1-0.3
		c0.3-0.2,0.4-0.4,0.6-0.7h1c-0.1,0.5-0.4,1-0.9,1.3c-0.4,0.3-1,0.5-1.6,0.5c-0.5,0-1-0.1-1.4-0.3c-0.4-0.2-0.7-0.6-1-1
		s-0.3-0.9-0.3-1.5s0.1-1.1,0.3-1.5s0.5-0.8,1-1c0.4-0.2,0.9-0.3,1.4-0.3c0.5,0,1,0.1,1.4,0.3c0.4,0.2,0.7,0.5,0.9,0.9
		c0.2,0.4,0.3,0.8,0.3,1.3C411.7,187.5,411.7,187.7,411.7,187.9z M410.5,186.3c-0.2-0.2-0.4-0.4-0.6-0.6s-0.6-0.2-0.9-0.2
		c-0.5,0-0.9,0.1-1.2,0.4c-0.3,0.3-0.5,0.7-0.6,1.2h3.5C410.8,186.8,410.7,186.5,410.5,186.3z"/>
	<path fill="#7500D4" d="M413.7,190.2c-0.3-0.1-0.6-0.3-0.8-0.6c-0.2-0.3-0.3-0.6-0.3-0.9h0.9c0,0.3,0.2,0.5,0.4,0.7
		c0.2,0.2,0.5,0.3,0.9,0.3c0.3,0,0.6-0.1,0.8-0.2s0.3-0.3,0.3-0.6c0-0.2-0.1-0.4-0.3-0.5c-0.2-0.1-0.5-0.2-1-0.3
		c-0.4-0.1-0.7-0.2-1-0.3c-0.3-0.1-0.5-0.3-0.7-0.5c-0.2-0.2-0.3-0.5-0.3-0.9c0-0.3,0.1-0.5,0.2-0.8s0.4-0.4,0.7-0.6s0.7-0.2,1-0.2
		c0.6,0,1.1,0.2,1.5,0.5c0.4,0.3,0.6,0.7,0.6,1.3h-0.9c0-0.3-0.1-0.5-0.3-0.7c-0.2-0.2-0.5-0.3-0.8-0.3c-0.3,0-0.6,0.1-0.8,0.2
		c-0.2,0.1-0.3,0.3-0.3,0.5c0,0.2,0.1,0.3,0.2,0.4c0.1,0.1,0.3,0.2,0.4,0.3c0.2,0.1,0.4,0.1,0.7,0.2c0.4,0.1,0.7,0.2,1,0.3
		c0.2,0.1,0.5,0.3,0.6,0.5c0.2,0.2,0.3,0.5,0.3,0.8c0,0.3-0.1,0.6-0.2,0.8c-0.2,0.2-0.4,0.4-0.7,0.6c-0.3,0.1-0.7,0.2-1,0.2
		C414.4,190.4,414.1,190.3,413.7,190.2z"/>
	<path fill="#7500D4" d="M423.1,187.9h-4.4c0,0.5,0.2,1,0.6,1.3c0.3,0.3,0.7,0.5,1.2,0.5c0.4,0,0.7-0.1,1-0.3s0.4-0.4,0.6-0.7h1
		c-0.1,0.5-0.4,1-0.9,1.3s-1,0.5-1.6,0.5c-0.5,0-1-0.1-1.4-0.3s-0.7-0.6-1-1s-0.3-0.9-0.3-1.5s0.1-1.1,0.3-1.5s0.5-0.8,1-1
		c0.4-0.2,0.9-0.3,1.4-0.3c0.5,0,1,0.1,1.4,0.3c0.4,0.2,0.7,0.5,0.9,0.9s0.3,0.8,0.3,1.3C423.1,187.5,423.1,187.7,423.1,187.9z
		 M422,186.3c-0.2-0.2-0.4-0.4-0.6-0.6c-0.3-0.1-0.6-0.2-0.9-0.2c-0.5,0-0.9,0.1-1.2,0.4c-0.3,0.3-0.5,0.7-0.6,1.2h3.5
		C422.2,186.8,422.1,186.5,422,186.3z"/>
	<path fill="#7500D4" d="M424.3,186.1c0.2-0.4,0.5-0.8,0.9-1c0.4-0.2,0.8-0.3,1.3-0.3c0.5,0,0.9,0.1,1.2,0.3
		c0.4,0.2,0.6,0.5,0.8,0.8v-1h0.9v5.5h-0.9v-1c-0.2,0.3-0.4,0.6-0.8,0.8c-0.4,0.2-0.8,0.3-1.2,0.3c-0.5,0-0.9-0.1-1.3-0.4
		c-0.4-0.2-0.7-0.6-0.9-1c-0.2-0.4-0.3-0.9-0.3-1.5C424,187,424.1,186.5,424.3,186.1z M428.4,186.5c-0.2-0.3-0.4-0.5-0.7-0.7
		c-0.3-0.2-0.6-0.2-0.9-0.2s-0.6,0.1-0.9,0.2s-0.5,0.4-0.7,0.7c-0.2,0.3-0.2,0.7-0.2,1.1c0,0.4,0.1,0.8,0.2,1.1
		c0.2,0.3,0.4,0.5,0.7,0.7s0.6,0.2,0.9,0.2s0.7-0.1,0.9-0.2c0.3-0.2,0.5-0.4,0.7-0.7c0.2-0.3,0.2-0.7,0.2-1.1
		S428.5,186.8,428.4,186.5z"/>
	<path fill="#7500D4" d="M432.7,185c0.3-0.2,0.7-0.3,1.1-0.3v0.9h-0.2c-1,0-1.5,0.6-1.5,1.7v3h-0.9v-5.5h0.9v0.9
		C432.2,185.4,432.4,185.2,432.7,185z"/>
	<path fill="#7500D4" d="M434.8,186.1c0.2-0.4,0.5-0.8,0.9-1c0.4-0.2,0.9-0.3,1.4-0.3c0.7,0,1.2,0.2,1.7,0.5
		c0.4,0.3,0.7,0.8,0.9,1.4h-1c-0.1-0.3-0.3-0.6-0.5-0.8c-0.3-0.2-0.6-0.3-1-0.3c-0.5,0-0.9,0.2-1.3,0.5c-0.3,0.4-0.5,0.9-0.5,1.5
		c0,0.7,0.2,1.2,0.5,1.5c0.3,0.4,0.7,0.5,1.3,0.5c0.4,0,0.7-0.1,1-0.3s0.5-0.5,0.5-0.8h1c-0.1,0.6-0.4,1-0.9,1.3
		c-0.4,0.3-1,0.5-1.7,0.5c-0.5,0-1-0.1-1.4-0.3s-0.7-0.6-0.9-1s-0.3-0.9-0.3-1.5C434.5,187,434.6,186.5,434.8,186.1z"/>
	<path fill="#7500D4" d="M444.7,185c0.3,0.2,0.6,0.4,0.8,0.8c0.2,0.4,0.3,0.8,0.3,1.3v3.2h-0.9v-3.1c0-0.5-0.1-1-0.4-1.3
		c-0.3-0.3-0.6-0.4-1.1-0.4c-0.5,0-0.9,0.1-1.1,0.5c-0.3,0.3-0.4,0.7-0.4,1.3v3h-0.9v-7.4h0.9v2.7c0.2-0.3,0.4-0.5,0.7-0.7
		c0.3-0.2,0.7-0.2,1.1-0.2C444,184.7,444.4,184.8,444.7,185z"/>
	<path fill="#7500D4" d="M413.8,195.3v7h-0.9v-3.2h-3.5v3.2h-0.9v-7h0.9v3.1h3.5v-3.1H413.8z"/>
	<path fill="#7500D4" d="M420.3,199.9h-4.4c0,0.5,0.2,1,0.6,1.3c0.3,0.3,0.7,0.5,1.2,0.5c0.4,0,0.7-0.1,1-0.3s0.4-0.4,0.6-0.7h1
		c-0.1,0.5-0.4,1-0.9,1.3s-1,0.5-1.6,0.5c-0.5,0-1-0.1-1.4-0.3s-0.7-0.6-1-1s-0.3-0.9-0.3-1.5s0.1-1.1,0.3-1.5s0.5-0.8,1-1
		c0.4-0.2,0.9-0.3,1.4-0.3c0.5,0,1,0.1,1.4,0.3c0.4,0.2,0.7,0.5,0.9,0.9s0.3,0.8,0.3,1.3C420.3,199.5,420.3,199.7,420.3,199.9z
		 M419.1,198.3c-0.2-0.2-0.4-0.4-0.6-0.6c-0.3-0.1-0.6-0.2-0.9-0.2c-0.5,0-0.9,0.1-1.2,0.4c-0.3,0.3-0.5,0.7-0.6,1.2h3.5
		C419.4,198.8,419.3,198.5,419.1,198.3z"/>
	<path fill="#7500D4" d="M421.5,198.1c0.2-0.4,0.5-0.8,0.9-1c0.4-0.2,0.8-0.4,1.3-0.4c0.5,0,0.9,0.1,1.2,0.3
		c0.4,0.2,0.6,0.5,0.8,0.8v-1h0.9v5.5h-0.9v-1c-0.2,0.3-0.4,0.6-0.8,0.8s-0.8,0.3-1.2,0.3c-0.5,0-0.9-0.1-1.3-0.4
		c-0.4-0.2-0.7-0.6-0.9-1c-0.2-0.4-0.3-0.9-0.3-1.5C421.2,199,421.3,198.5,421.5,198.1z M425.6,198.5c-0.2-0.3-0.4-0.5-0.7-0.7
		c-0.3-0.2-0.6-0.2-0.9-0.2s-0.7,0.1-0.9,0.2c-0.3,0.2-0.5,0.4-0.7,0.7c-0.2,0.3-0.2,0.7-0.2,1.1c0,0.4,0.1,0.8,0.2,1.1
		c0.2,0.3,0.4,0.5,0.7,0.7c0.3,0.2,0.6,0.2,0.9,0.2s0.7-0.1,0.9-0.2s0.5-0.4,0.7-0.7c0.2-0.3,0.2-0.7,0.2-1.1
		S425.7,198.8,425.6,198.5z"/>
	<path fill="#7500D4" d="M430.3,201.5l1.7-4.6h1l-2.2,5.5h-1.1l-2.2-5.5h1L430.3,201.5z"/>
	<path fill="#7500D4" d="M438.6,196.8l-3.3,8.1h-0.9l1.1-2.6l-2.2-5.4h1l1.7,4.4l1.7-4.4H438.6z"/>
</g>
<g>
	<path fill="#7500D4" d="M297.3,87.6c-0.4-0.2-0.6-0.4-0.9-0.7c-0.2-0.3-0.3-0.6-0.3-1h1c0,0.3,0.2,0.6,0.4,0.8
		c0.2,0.2,0.6,0.3,1,0.3c0.4,0,0.8-0.1,1-0.3c0.2-0.2,0.4-0.5,0.4-0.8c0-0.3-0.1-0.5-0.2-0.6c-0.1-0.2-0.3-0.3-0.5-0.4
		c-0.2-0.1-0.5-0.2-0.9-0.3c-0.5-0.1-0.8-0.2-1.1-0.4s-0.5-0.3-0.7-0.6c-0.2-0.3-0.3-0.6-0.3-1c0-0.4,0.1-0.7,0.3-1
		c0.2-0.3,0.5-0.5,0.8-0.7c0.4-0.2,0.8-0.2,1.2-0.2c0.7,0,1.2,0.2,1.6,0.5c0.4,0.3,0.7,0.8,0.7,1.3h-1c0-0.3-0.2-0.5-0.4-0.7
		c-0.2-0.2-0.6-0.3-1-0.3c-0.4,0-0.7,0.1-0.9,0.3s-0.4,0.5-0.4,0.8c0,0.3,0.1,0.5,0.2,0.6s0.3,0.3,0.5,0.4c0.2,0.1,0.5,0.2,0.9,0.3
		c0.5,0.1,0.8,0.3,1.1,0.4c0.3,0.1,0.5,0.3,0.7,0.6c0.2,0.3,0.3,0.6,0.3,1c0,0.3-0.1,0.7-0.3,1c-0.2,0.3-0.4,0.5-0.8,0.7
		s-0.8,0.3-1.2,0.3C298.1,87.8,297.7,87.8,297.3,87.6z"/>
	<path fill="#7500D4" d="M306,82.4c0.3,0.2,0.6,0.4,0.8,0.8c0.2,0.4,0.3,0.8,0.3,1.3v3.2h-0.9v-3.1c0-0.5-0.1-1-0.4-1.3
		c-0.3-0.3-0.6-0.4-1.1-0.4c-0.5,0-0.9,0.1-1.1,0.5c-0.3,0.3-0.4,0.7-0.4,1.3v3h-0.9v-7.4h0.9v2.7c0.2-0.3,0.4-0.5,0.7-0.6
		c0.3-0.2,0.7-0.2,1.1-0.2C305.3,82.2,305.7,82.3,306,82.4z"/>
	<path fill="#7500D4" d="M308.6,81.2c-0.1-0.1-0.2-0.3-0.2-0.4c0-0.2,0.1-0.3,0.2-0.4c0.1-0.1,0.3-0.2,0.4-0.2
		c0.2,0,0.3,0.1,0.4,0.2c0.1,0.1,0.2,0.3,0.2,0.4c0,0.2-0.1,0.3-0.2,0.4c-0.1,0.1-0.3,0.2-0.4,0.2C308.9,81.4,308.8,81.3,308.6,81.2
		z M309.5,82.3v5.5h-0.9v-5.5H309.5z"/>
	<path fill="#7500D4" d="M312.8,82.5c0.4-0.2,0.8-0.3,1.2-0.3c0.5,0,0.9,0.1,1.3,0.3c0.4,0.2,0.7,0.6,0.9,1c0.2,0.4,0.3,0.9,0.3,1.5
		c0,0.6-0.1,1-0.3,1.5c-0.2,0.4-0.5,0.8-0.9,1c-0.4,0.2-0.8,0.4-1.3,0.4c-0.5,0-0.9-0.1-1.2-0.3c-0.4-0.2-0.6-0.5-0.8-0.8v3.6h-0.9
		v-8.1h0.9v1C312.2,83,312.4,82.7,312.8,82.5z M315.4,83.9c-0.2-0.3-0.4-0.5-0.7-0.7s-0.6-0.2-0.9-0.2c-0.3,0-0.6,0.1-0.9,0.2
		c-0.3,0.2-0.5,0.4-0.7,0.7c-0.2,0.3-0.3,0.7-0.3,1.1c0,0.4,0.1,0.8,0.3,1.1s0.4,0.5,0.7,0.7c0.3,0.2,0.6,0.2,0.9,0.2
		c0.3,0,0.7-0.1,0.9-0.2s0.5-0.4,0.7-0.7c0.2-0.3,0.2-0.7,0.2-1.1C315.7,84.6,315.6,84.2,315.4,83.9z"/>
	<path fill="#7500D4" d="M320.5,81.2c-0.1-0.1-0.2-0.3-0.2-0.4c0-0.2,0.1-0.3,0.2-0.4c0.1-0.1,0.3-0.2,0.4-0.2
		c0.2,0,0.3,0.1,0.4,0.2c0.1,0.1,0.2,0.3,0.2,0.4c0,0.2-0.1,0.3-0.2,0.4c-0.1,0.1-0.3,0.2-0.4,0.2C320.8,81.4,320.6,81.3,320.5,81.2
		z M321.4,82.3v5.5h-0.9v-5.5H321.4z"/>
	<path fill="#7500D4" d="M324.1,83v3.2c0,0.3,0.1,0.5,0.2,0.6c0.1,0.1,0.3,0.2,0.6,0.2h0.7v0.8h-0.8c-0.5,0-0.9-0.1-1.1-0.3
		c-0.3-0.2-0.4-0.6-0.4-1.2V83h-0.7v-0.8h0.7v-1.4h0.9v1.4h1.4V83H324.1z"/>
	<path fill="#7500D4" d="M329.3,83.5c0.2-0.4,0.5-0.8,0.9-1c0.4-0.2,0.8-0.3,1.3-0.3c0.5,0,0.9,0.1,1.2,0.3c0.4,0.2,0.6,0.5,0.8,0.8
		v-1h0.9v5.5h-0.9v-1c-0.2,0.3-0.4,0.6-0.8,0.8c-0.4,0.2-0.8,0.3-1.2,0.3c-0.5,0-0.9-0.1-1.3-0.4c-0.4-0.2-0.7-0.6-0.9-1
		c-0.2-0.4-0.3-0.9-0.3-1.5C328.9,84.4,329,84,329.3,83.5z M333.3,83.9c-0.2-0.3-0.4-0.5-0.7-0.7c-0.3-0.2-0.6-0.2-0.9-0.2
		s-0.6,0.1-0.9,0.2s-0.5,0.4-0.7,0.7c-0.2,0.3-0.2,0.7-0.2,1.1c0,0.4,0.1,0.8,0.2,1.1c0.2,0.3,0.4,0.5,0.7,0.7s0.6,0.2,0.9,0.2
		s0.7-0.1,0.9-0.2c0.3-0.2,0.5-0.4,0.7-0.7c0.2-0.3,0.2-0.7,0.2-1.1S333.5,84.2,333.3,83.9z"/>
	<path fill="#7500D4" d="M340.3,82.8c0.4,0.4,0.6,1,0.6,1.7v3.2H340v-3.1c0-0.5-0.1-1-0.4-1.3c-0.3-0.3-0.6-0.4-1.1-0.4
		c-0.5,0-0.9,0.1-1.1,0.5c-0.3,0.3-0.4,0.7-0.4,1.3v3H336v-5.5h0.9v0.8c0.2-0.3,0.4-0.5,0.7-0.6c0.3-0.2,0.7-0.2,1-0.2
		C339.4,82.2,339.9,82.4,340.3,82.8z"/>
	<path fill="#7500D4" d="M342.4,83.5c0.2-0.4,0.5-0.8,0.9-1c0.4-0.2,0.8-0.3,1.3-0.3c0.4,0,0.8,0.1,1.2,0.3c0.4,0.2,0.6,0.5,0.8,0.8
		v-2.9h0.9v7.4h-0.9v-1c-0.2,0.3-0.4,0.6-0.8,0.8s-0.8,0.3-1.2,0.3c-0.5,0-0.9-0.1-1.3-0.4c-0.4-0.2-0.7-0.6-0.9-1
		c-0.2-0.4-0.3-0.9-0.3-1.5C342.1,84.4,342.2,84,342.4,83.5z M346.5,83.9c-0.2-0.3-0.4-0.5-0.7-0.7c-0.3-0.2-0.6-0.2-0.9-0.2
		s-0.7,0.1-0.9,0.2c-0.3,0.2-0.5,0.4-0.7,0.7c-0.2,0.3-0.2,0.7-0.2,1.1c0,0.4,0.1,0.8,0.2,1.1c0.2,0.3,0.4,0.5,0.7,0.7
		c0.3,0.2,0.6,0.2,0.9,0.2s0.7-0.1,0.9-0.2s0.5-0.4,0.7-0.7c0.2-0.3,0.2-0.7,0.2-1.1S346.6,84.2,346.5,83.9z"/>
	<path fill="#7500D4" d="M308.3,92.8v6.9h-0.9v-5.2l-2.3,5.2h-0.6l-2.3-5.2v5.2h-0.9v-6.9h1l2.6,5.7l2.6-5.7H308.3z"/>
	<path fill="#7500D4" d="M314.8,97.4h-4.4c0,0.5,0.2,1,0.6,1.3c0.3,0.3,0.7,0.5,1.2,0.5c0.4,0,0.7-0.1,1-0.3
		c0.3-0.2,0.4-0.4,0.6-0.7h1c-0.1,0.5-0.4,1-0.9,1.3c-0.4,0.3-1,0.5-1.6,0.5c-0.5,0-1-0.1-1.4-0.3c-0.4-0.2-0.7-0.6-1-1
		s-0.3-0.9-0.3-1.5s0.1-1.1,0.3-1.5s0.5-0.8,1-1c0.4-0.2,0.9-0.3,1.4-0.3c0.5,0,1,0.1,1.4,0.3c0.4,0.2,0.7,0.5,0.9,0.9
		c0.2,0.4,0.3,0.8,0.3,1.3C314.8,97,314.8,97.2,314.8,97.4z M313.6,95.7c-0.2-0.2-0.4-0.4-0.6-0.6c-0.3-0.1-0.6-0.2-0.9-0.2
		c-0.5,0-0.9,0.1-1.2,0.4c-0.3,0.3-0.5,0.7-0.6,1.2h3.5C313.9,96.3,313.8,96,313.6,95.7z"/>
	<path fill="#7500D4" d="M316,95.5c0.2-0.4,0.5-0.8,0.9-1c0.4-0.2,0.8-0.4,1.3-0.4c0.5,0,0.9,0.1,1.2,0.3c0.4,0.2,0.6,0.5,0.8,0.8
		v-1h0.9v5.5h-0.9v-1c-0.2,0.3-0.4,0.6-0.8,0.8s-0.8,0.3-1.2,0.3c-0.5,0-0.9-0.1-1.3-0.4c-0.4-0.2-0.7-0.6-0.9-1
		c-0.2-0.4-0.3-0.9-0.3-1.5C315.7,96.4,315.8,96,316,95.5z M320.1,95.9c-0.2-0.3-0.4-0.5-0.7-0.7c-0.3-0.2-0.6-0.2-0.9-0.2
		s-0.7,0.1-0.9,0.2c-0.3,0.2-0.5,0.4-0.7,0.7c-0.2,0.3-0.2,0.7-0.2,1.1c0,0.4,0.1,0.8,0.2,1.1c0.2,0.3,0.4,0.5,0.7,0.7
		c0.3,0.2,0.6,0.2,0.9,0.2s0.7-0.1,0.9-0.2s0.5-0.4,0.7-0.7c0.2-0.3,0.2-0.7,0.2-1.1S320.2,96.2,320.1,95.9z"/>
	<path fill="#7500D4" d="M323.6,99.6c-0.3-0.1-0.6-0.3-0.8-0.6c-0.2-0.3-0.3-0.6-0.3-0.9h0.9c0,0.3,0.2,0.5,0.4,0.7
		c0.2,0.2,0.5,0.3,0.9,0.3c0.3,0,0.6-0.1,0.8-0.2s0.3-0.3,0.3-0.6c0-0.2-0.1-0.4-0.3-0.5c-0.2-0.1-0.5-0.2-1-0.3
		c-0.4-0.1-0.7-0.2-1-0.3c-0.3-0.1-0.5-0.3-0.7-0.5c-0.2-0.2-0.3-0.5-0.3-0.9c0-0.3,0.1-0.5,0.2-0.8c0.2-0.2,0.4-0.4,0.7-0.6
		s0.7-0.2,1-0.2c0.6,0,1.1,0.2,1.5,0.5s0.6,0.7,0.6,1.3h-0.9c0-0.3-0.1-0.5-0.3-0.7c-0.2-0.2-0.5-0.3-0.8-0.3
		c-0.3,0-0.6,0.1-0.8,0.2c-0.2,0.1-0.3,0.3-0.3,0.5c0,0.2,0.1,0.3,0.2,0.4c0.1,0.1,0.3,0.2,0.4,0.3c0.2,0.1,0.4,0.1,0.7,0.2
		c0.4,0.1,0.7,0.2,1,0.3c0.2,0.1,0.5,0.3,0.6,0.5c0.2,0.2,0.3,0.5,0.3,0.8c0,0.3-0.1,0.6-0.2,0.8c-0.2,0.2-0.4,0.4-0.7,0.6
		c-0.3,0.1-0.7,0.2-1,0.2C324.3,99.9,323.9,99.8,323.6,99.6z"/>
	<path fill="#7500D4" d="M332.9,94.3v5.5h-0.9V99c-0.2,0.3-0.4,0.5-0.7,0.7c-0.3,0.2-0.7,0.2-1,0.2c-0.4,0-0.8-0.1-1.2-0.3
		c-0.3-0.2-0.6-0.4-0.8-0.8c-0.2-0.4-0.3-0.8-0.3-1.3v-3.2h0.9v3.1c0,0.5,0.1,1,0.4,1.2c0.3,0.3,0.6,0.4,1.1,0.4
		c0.5,0,0.9-0.2,1.2-0.5s0.4-0.7,0.4-1.3v-3H332.9z"/>
	<path fill="#7500D4" d="M336,94.4c0.3-0.2,0.7-0.3,1.1-0.3v0.9h-0.2c-1,0-1.5,0.6-1.5,1.7v3h-0.9v-5.5h0.9v0.9
		C335.5,94.9,335.7,94.6,336,94.4z"/>
	<path fill="#7500D4" d="M343.1,97.4h-4.4c0,0.5,0.2,1,0.6,1.3c0.3,0.3,0.7,0.5,1.2,0.5c0.4,0,0.7-0.1,1-0.3
		c0.3-0.2,0.4-0.4,0.6-0.7h1c-0.1,0.5-0.4,1-0.9,1.3c-0.4,0.3-1,0.5-1.6,0.5c-0.5,0-1-0.1-1.4-0.3c-0.4-0.2-0.7-0.6-1-1
		s-0.3-0.9-0.3-1.5s0.1-1.1,0.3-1.5s0.5-0.8,1-1c0.4-0.2,0.9-0.3,1.4-0.3c0.5,0,1,0.1,1.4,0.3c0.4,0.2,0.7,0.5,0.9,0.9
		c0.2,0.4,0.3,0.8,0.3,1.3C343.1,97,343.1,97.2,343.1,97.4z M342,95.7c-0.2-0.2-0.4-0.4-0.6-0.6c-0.3-0.1-0.6-0.2-0.9-0.2
		c-0.5,0-0.9,0.1-1.2,0.4c-0.3,0.3-0.5,0.7-0.6,1.2h3.5C342.2,96.3,342.1,96,342,95.7z"/>
</g>
<g>
	<path fill="#7500D4" d="M411,81.2c0.6,0.3,1,0.7,1.3,1.2c0.3,0.5,0.4,1.1,0.4,1.9c0,0.7-0.1,1.3-0.4,1.9s-0.7,0.9-1.3,1.2
		s-1.2,0.4-2,0.4h-2.2v-7h2.2C409.8,80.8,410.5,80.9,411,81.2z M411.1,86.3c0.5-0.5,0.7-1.1,0.7-2c0-0.9-0.2-1.5-0.7-2
		c-0.5-0.5-1.2-0.7-2.1-0.7h-1.3V87h1.3C410,87,410.7,86.8,411.1,86.3z"/>
	<path fill="#7500D4" d="M418.9,85.4h-4.4c0,0.5,0.2,1,0.6,1.3c0.3,0.3,0.7,0.5,1.2,0.5c0.4,0,0.7-0.1,1-0.3
		c0.3-0.2,0.4-0.4,0.6-0.7h1c-0.1,0.5-0.4,1-0.9,1.3c-0.4,0.3-1,0.5-1.6,0.5c-0.5,0-1-0.1-1.4-0.3c-0.4-0.2-0.7-0.6-1-1
		s-0.3-0.9-0.3-1.5s0.1-1.1,0.3-1.5c0.2-0.4,0.5-0.8,1-1s0.9-0.3,1.4-0.3c0.5,0,1,0.1,1.4,0.3c0.4,0.2,0.7,0.5,0.9,0.9
		c0.2,0.4,0.3,0.8,0.3,1.3C419,85,419,85.2,418.9,85.4z M417.8,83.7c-0.2-0.2-0.4-0.4-0.6-0.6s-0.6-0.2-0.9-0.2
		c-0.5,0-0.9,0.1-1.2,0.4s-0.5,0.7-0.6,1.2h3.5C418,84.3,418,84,417.8,83.7z"/>
	<path fill="#7500D4" d="M421,87.6c-0.3-0.1-0.6-0.3-0.8-0.6c-0.2-0.3-0.3-0.6-0.3-0.9h0.9c0,0.3,0.2,0.5,0.4,0.7
		c0.2,0.2,0.5,0.3,0.9,0.3c0.3,0,0.6-0.1,0.8-0.2s0.3-0.3,0.3-0.6c0-0.2-0.1-0.4-0.3-0.5c-0.2-0.1-0.5-0.2-1-0.3
		c-0.4-0.1-0.7-0.2-1-0.3c-0.3-0.1-0.5-0.3-0.7-0.5c-0.2-0.2-0.3-0.5-0.3-0.9c0-0.3,0.1-0.5,0.2-0.8c0.2-0.2,0.4-0.4,0.7-0.6
		c0.3-0.1,0.7-0.2,1-0.2c0.6,0,1.1,0.2,1.5,0.5s0.6,0.7,0.6,1.3h-0.9c0-0.3-0.1-0.5-0.3-0.7c-0.2-0.2-0.5-0.3-0.8-0.3
		c-0.3,0-0.6,0.1-0.8,0.2c-0.2,0.1-0.3,0.3-0.3,0.5c0,0.2,0.1,0.3,0.2,0.4c0.1,0.1,0.3,0.2,0.4,0.3c0.2,0.1,0.4,0.1,0.7,0.2
		c0.4,0.1,0.7,0.2,1,0.3c0.2,0.1,0.5,0.3,0.6,0.5c0.2,0.2,0.3,0.5,0.3,0.8c0,0.3-0.1,0.6-0.2,0.8c-0.2,0.2-0.4,0.4-0.7,0.6
		c-0.3,0.1-0.7,0.2-1,0.2C421.7,87.9,421.3,87.8,421,87.6z"/>
	<path fill="#7500D4" d="M425.4,81.2c-0.1-0.1-0.2-0.3-0.2-0.4c0-0.2,0.1-0.3,0.2-0.4c0.1-0.1,0.3-0.2,0.4-0.2
		c0.2,0,0.3,0.1,0.4,0.2c0.1,0.1,0.2,0.3,0.2,0.4c0,0.2-0.1,0.3-0.2,0.4c-0.1,0.1-0.3,0.2-0.4,0.2C425.7,81.4,425.5,81.3,425.4,81.2
		z M426.3,82.3v5.5h-0.9v-5.5H426.3z"/>
	<path fill="#7500D4" d="M431.4,82.5c0.4,0.2,0.6,0.5,0.8,0.8v-1h0.9v5.6c0,0.5-0.1,0.9-0.3,1.3c-0.2,0.4-0.5,0.7-0.9,0.9
		s-0.9,0.3-1.4,0.3c-0.7,0-1.3-0.2-1.8-0.5c-0.5-0.3-0.8-0.8-0.8-1.4h0.9c0.1,0.3,0.3,0.6,0.6,0.8c0.3,0.2,0.7,0.3,1.1,0.3
		c0.5,0,0.9-0.2,1.2-0.5c0.3-0.3,0.5-0.8,0.5-1.3v-1.2c-0.2,0.3-0.4,0.6-0.8,0.8c-0.4,0.2-0.8,0.3-1.2,0.3c-0.5,0-0.9-0.1-1.3-0.4
		c-0.4-0.2-0.7-0.6-0.9-1c-0.2-0.4-0.3-0.9-0.3-1.5c0-0.6,0.1-1.1,0.3-1.5c0.2-0.4,0.5-0.8,0.9-1c0.4-0.2,0.8-0.3,1.3-0.3
		C430.6,82.2,431,82.3,431.4,82.5z M431.9,83.9c-0.2-0.3-0.4-0.5-0.7-0.7c-0.3-0.2-0.6-0.2-0.9-0.2s-0.7,0.1-0.9,0.2
		c-0.3,0.2-0.5,0.4-0.7,0.7c-0.2,0.3-0.2,0.7-0.2,1.1c0,0.4,0.1,0.8,0.2,1.1c0.2,0.3,0.4,0.5,0.7,0.7c0.3,0.2,0.6,0.2,0.9,0.2
		s0.7-0.1,0.9-0.2s0.5-0.4,0.7-0.7c0.2-0.3,0.2-0.7,0.2-1.1S432.1,84.2,431.9,83.9z"/>
	<path fill="#7500D4" d="M438.9,82.8c0.4,0.4,0.6,1,0.6,1.7v3.2h-0.9v-3.1c0-0.5-0.1-1-0.4-1.3c-0.3-0.3-0.6-0.4-1.1-0.4
		c-0.5,0-0.9,0.1-1.1,0.5c-0.3,0.3-0.4,0.7-0.4,1.3v3h-0.9v-5.5h0.9v0.8c0.2-0.3,0.4-0.5,0.7-0.6c0.3-0.2,0.7-0.2,1-0.2
		C438,82.2,438.5,82.4,438.9,82.8z"/>
	<path fill="#7500D4" d="M413.8,92.8v7h-0.9v-3.2h-3.5v3.2h-0.9v-7h0.9v3.1h3.5v-3.1H413.8z"/>
	<path fill="#7500D4" d="M420.3,97.4h-4.4c0,0.5,0.2,1,0.6,1.3c0.3,0.3,0.7,0.5,1.2,0.5c0.4,0,0.7-0.1,1-0.3s0.4-0.4,0.6-0.7h1
		c-0.1,0.5-0.4,1-0.9,1.3s-1,0.5-1.6,0.5c-0.5,0-1-0.1-1.4-0.3s-0.7-0.6-1-1S415,97.6,415,97s0.1-1.1,0.3-1.5s0.5-0.8,1-1
		c0.4-0.2,0.9-0.3,1.4-0.3c0.5,0,1,0.1,1.4,0.3c0.4,0.2,0.7,0.5,0.9,0.9s0.3,0.8,0.3,1.3C420.3,97,420.3,97.2,420.3,97.4z
		 M419.1,95.7c-0.2-0.2-0.4-0.4-0.6-0.6c-0.3-0.1-0.6-0.2-0.9-0.2c-0.5,0-0.9,0.1-1.2,0.4c-0.3,0.3-0.5,0.7-0.6,1.2h3.5
		C419.4,96.3,419.3,96,419.1,95.7z"/>
	<path fill="#7500D4" d="M421.5,95.5c0.2-0.4,0.5-0.8,0.9-1c0.4-0.2,0.8-0.4,1.3-0.4c0.5,0,0.9,0.1,1.2,0.3c0.4,0.2,0.6,0.5,0.8,0.8
		v-1h0.9v5.5h-0.9v-1c-0.2,0.3-0.4,0.6-0.8,0.8s-0.8,0.3-1.2,0.3c-0.5,0-0.9-0.1-1.3-0.4c-0.4-0.2-0.7-0.6-0.9-1
		c-0.2-0.4-0.3-0.9-0.3-1.5C421.2,96.4,421.3,96,421.5,95.5z M425.6,95.9c-0.2-0.3-0.4-0.5-0.7-0.7c-0.3-0.2-0.6-0.2-0.9-0.2
		s-0.7,0.1-0.9,0.2c-0.3,0.2-0.5,0.4-0.7,0.7c-0.2,0.3-0.2,0.7-0.2,1.1c0,0.4,0.1,0.8,0.2,1.1c0.2,0.3,0.4,0.5,0.7,0.7
		c0.3,0.2,0.6,0.2,0.9,0.2s0.7-0.1,0.9-0.2s0.5-0.4,0.7-0.7c0.2-0.3,0.2-0.7,0.2-1.1S425.7,96.2,425.6,95.9z"/>
	<path fill="#7500D4" d="M430.3,98.9l1.7-4.6h1l-2.2,5.5h-1.1l-2.2-5.5h1L430.3,98.9z"/>
	<path fill="#7500D4" d="M438.6,94.3l-3.3,8.1h-0.9l1.1-2.6l-2.2-5.4h1l1.7,4.4l1.7-4.4H438.6z"/>
</g>
<g>
	<path fill="#363636" d="M30.7,55.5v-2.4h0.7v3.4h-7v-0.9H30.7z"/>
	<path fill="#363636" d="M31.2,51.1c-0.2,0.4-0.6,0.7-1,1c-0.4,0.2-0.9,0.4-1.5,0.4c-0.6,0-1.1-0.1-1.5-0.4c-0.4-0.2-0.8-0.6-1-1
		s-0.3-0.9-0.3-1.4s0.1-1,0.3-1.4s0.6-0.8,1-1c0.4-0.2,0.9-0.4,1.5-0.4s1.1,0.1,1.5,0.4s0.8,0.6,1,1c0.2,0.4,0.3,0.9,0.3,1.4
		C31.5,50.2,31.4,50.7,31.2,51.1z M30.5,48.8c-0.2-0.3-0.4-0.5-0.7-0.7s-0.7-0.3-1.1-0.3s-0.8,0.1-1.1,0.3s-0.5,0.4-0.7,0.7
		c-0.1,0.3-0.2,0.6-0.2,0.9c0,0.3,0.1,0.6,0.2,0.9c0.2,0.3,0.4,0.5,0.7,0.7s0.7,0.2,1.1,0.2c0.4,0,0.8-0.1,1.1-0.2
		c0.3-0.2,0.5-0.4,0.7-0.7c0.1-0.3,0.2-0.6,0.2-0.9C30.7,49.4,30.6,49.1,30.5,48.8z"/>
	<path fill="#363636" d="M25.9,38.4l5.5,1.7v0.9l-4.4,1.3l4.4,1.3v0.9l-5.5,1.7v-0.9l4.6-1.3l-4.6-1.4v-0.9l4.6-1.3l-4.6-1.2V38.4z"
		/>
</g>
<g>
	<path fill="#363636" d="M58.7,257.5h2.4v0.7h-3.4v-7h0.9V257.5z"/>
	<path fill="#363636" d="M63.1,258c-0.4-0.2-0.7-0.6-1-1c-0.2-0.4-0.4-0.9-0.4-1.5c0-0.6,0.1-1.1,0.4-1.5c0.2-0.4,0.6-0.8,1-1
		c0.4-0.2,0.9-0.3,1.4-0.3s1,0.1,1.4,0.3c0.4,0.2,0.8,0.6,1,1c0.2,0.4,0.4,0.9,0.4,1.5s-0.1,1.1-0.4,1.5s-0.6,0.8-1,1
		c-0.4,0.2-0.9,0.3-1.4,0.3C64,258.3,63.6,258.2,63.1,258z M65.5,257.3c0.3-0.2,0.5-0.4,0.7-0.7s0.3-0.7,0.3-1.1s-0.1-0.8-0.3-1.1
		s-0.4-0.5-0.7-0.7c-0.3-0.2-0.6-0.2-0.9-0.2c-0.3,0-0.6,0.1-0.9,0.2s-0.5,0.4-0.7,0.7s-0.2,0.7-0.2,1.1c0,0.4,0.1,0.8,0.2,1.1
		c0.2,0.3,0.4,0.5,0.7,0.7c0.3,0.1,0.6,0.2,0.9,0.2C64.9,257.5,65.2,257.5,65.5,257.3z"/>
	<path fill="#363636" d="M75.9,252.8l-1.7,5.5h-0.9l-1.3-4.3l-1.3,4.3h-0.9l-1.7-5.5h0.9l1.3,4.6l1.4-4.6h0.9l1.3,4.6l1.2-4.6H75.9z
		"/>
</g>
<g>
	<path fill="#7500D4" d="M107.7,251.7c0.6,0.3,1,0.7,1.3,1.2c0.3,0.5,0.4,1.1,0.4,1.9c0,0.7-0.1,1.3-0.4,1.9
		c-0.3,0.5-0.7,0.9-1.3,1.2s-1.2,0.4-2,0.4h-2.2v-7h2.2C106.5,251.3,107.1,251.4,107.7,251.7z M107.8,256.8c0.5-0.5,0.7-1.1,0.7-2
		c0-0.9-0.2-1.5-0.7-2c-0.5-0.5-1.2-0.7-2.1-0.7h-1.3v5.5h1.3C106.6,257.5,107.3,257.3,107.8,256.8z"/>
	<path fill="#7500D4" d="M115.6,255.8h-4.4c0,0.5,0.2,1,0.6,1.3c0.3,0.3,0.7,0.5,1.2,0.5c0.4,0,0.7-0.1,1-0.3
		c0.3-0.2,0.4-0.4,0.6-0.7h1c-0.1,0.5-0.4,1-0.9,1.3c-0.4,0.3-1,0.5-1.6,0.5c-0.5,0-1-0.1-1.4-0.3c-0.4-0.2-0.7-0.6-1-1
		s-0.3-0.9-0.3-1.5s0.1-1.1,0.3-1.5c0.2-0.4,0.5-0.8,1-1c0.4-0.2,0.9-0.3,1.4-0.3c0.5,0,1,0.1,1.4,0.3s0.7,0.5,0.9,0.9
		c0.2,0.4,0.3,0.8,0.3,1.3C115.6,255.5,115.6,255.7,115.6,255.8z M114.4,254.2c-0.2-0.2-0.4-0.4-0.6-0.6c-0.3-0.1-0.6-0.2-0.9-0.2
		c-0.5,0-0.9,0.1-1.2,0.4c-0.3,0.3-0.5,0.7-0.6,1.2h3.5C114.7,254.8,114.6,254.5,114.4,254.2z"/>
	<path fill="#7500D4" d="M118.8,257.4l1.7-4.6h1l-2.1,5.5h-1.1l-2.1-5.5h1L118.8,257.4z"/>
	<path fill="#7500D4" d="M127.4,255.8H123c0,0.5,0.2,1,0.6,1.3c0.3,0.3,0.7,0.5,1.2,0.5c0.4,0,0.7-0.1,1-0.3
		c0.3-0.2,0.4-0.4,0.6-0.7h1c-0.1,0.5-0.4,1-0.9,1.3c-0.4,0.3-1,0.5-1.6,0.5c-0.5,0-1-0.1-1.4-0.3c-0.4-0.2-0.7-0.6-1-1
		s-0.3-0.9-0.3-1.5s0.1-1.1,0.3-1.5c0.2-0.4,0.5-0.8,1-1c0.4-0.2,0.9-0.3,1.4-0.3c0.5,0,1,0.1,1.4,0.3s0.7,0.5,0.9,0.9
		c0.2,0.4,0.3,0.8,0.3,1.3C127.4,255.5,127.4,255.7,127.4,255.8z M126.2,254.2c-0.2-0.2-0.4-0.4-0.6-0.6c-0.3-0.1-0.6-0.2-0.9-0.2
		c-0.5,0-0.9,0.1-1.2,0.4c-0.3,0.3-0.5,0.7-0.6,1.2h3.5C126.5,254.8,126.4,254.5,126.2,254.2z"/>
	<path fill="#7500D4" d="M129.5,250.8v7.4h-0.9v-7.4H129.5z"/>
	<path fill="#7500D4" d="M132.1,258c-0.4-0.2-0.7-0.6-1-1c-0.2-0.4-0.4-0.9-0.4-1.5c0-0.6,0.1-1.1,0.4-1.5c0.2-0.4,0.6-0.8,1-1
		c0.4-0.2,0.9-0.3,1.4-0.3s1,0.1,1.4,0.3c0.4,0.2,0.8,0.6,1,1c0.2,0.4,0.4,0.9,0.4,1.5s-0.1,1.1-0.4,1.5s-0.6,0.8-1,1
		c-0.4,0.2-0.9,0.3-1.4,0.3C133,258.3,132.5,258.2,132.1,258z M134.4,257.3c0.3-0.2,0.5-0.4,0.7-0.7s0.3-0.7,0.3-1.1
		s-0.1-0.8-0.3-1.1s-0.4-0.5-0.7-0.7c-0.3-0.2-0.6-0.2-0.9-0.2c-0.3,0-0.6,0.1-0.9,0.2s-0.5,0.4-0.7,0.7s-0.2,0.7-0.2,1.1
		c0,0.4,0.1,0.8,0.2,1.1c0.2,0.3,0.4,0.5,0.7,0.7c0.3,0.1,0.6,0.2,0.9,0.2C133.8,257.5,134.1,257.5,134.4,257.3z"/>
	<path fill="#7500D4" d="M139.2,253c0.4-0.2,0.8-0.3,1.2-0.3c0.5,0,0.9,0.1,1.3,0.3c0.4,0.2,0.7,0.6,0.9,1c0.2,0.4,0.3,0.9,0.3,1.5
		c0,0.6-0.1,1-0.3,1.5c-0.2,0.4-0.5,0.8-0.9,1c-0.4,0.2-0.8,0.4-1.3,0.4c-0.5,0-0.9-0.1-1.2-0.3c-0.4-0.2-0.6-0.5-0.8-0.8v3.6h-0.9
		v-8.1h0.9v1C138.6,253.5,138.8,253.2,139.2,253z M141.9,254.4c-0.2-0.3-0.4-0.5-0.7-0.7c-0.3-0.2-0.6-0.2-0.9-0.2
		c-0.3,0-0.6,0.1-0.9,0.2c-0.3,0.2-0.5,0.4-0.7,0.7c-0.2,0.3-0.3,0.7-0.3,1.1c0,0.4,0.1,0.8,0.3,1.1s0.4,0.5,0.7,0.7
		c0.3,0.2,0.6,0.2,0.9,0.2c0.3,0,0.7-0.1,0.9-0.2c0.3-0.2,0.5-0.4,0.7-0.7s0.2-0.7,0.2-1.1C142.1,255.1,142,254.7,141.9,254.4z"/>
	<path fill="#7500D4" d="M152,252.9c0.3,0.2,0.6,0.4,0.8,0.8s0.3,0.8,0.3,1.3v3.2h-0.9v-3.1c0-0.5-0.1-1-0.4-1.3s-0.6-0.4-1.1-0.4
		c-0.5,0-0.9,0.2-1.1,0.5c-0.3,0.3-0.4,0.7-0.4,1.3v3h-0.9v-3.1c0-0.5-0.1-1-0.4-1.3s-0.6-0.4-1.1-0.4c-0.5,0-0.9,0.2-1.1,0.5
		c-0.3,0.3-0.4,0.7-0.4,1.3v3h-0.9v-5.5h0.9v0.8c0.2-0.3,0.4-0.5,0.7-0.7c0.3-0.2,0.6-0.2,1-0.2c0.5,0,0.9,0.1,1.2,0.3
		c0.4,0.2,0.6,0.5,0.8,0.9c0.2-0.4,0.4-0.7,0.8-0.9c0.4-0.2,0.7-0.3,1.2-0.3C151.3,252.7,151.6,252.8,152,252.9z"/>
	<path fill="#7500D4" d="M159.5,255.8h-4.4c0,0.5,0.2,1,0.6,1.3c0.3,0.3,0.7,0.5,1.2,0.5c0.4,0,0.7-0.1,1-0.3
		c0.3-0.2,0.4-0.4,0.6-0.7h1c-0.1,0.5-0.4,1-0.9,1.3c-0.4,0.3-1,0.5-1.6,0.5c-0.5,0-1-0.1-1.4-0.3c-0.4-0.2-0.7-0.6-1-1
		s-0.3-0.9-0.3-1.5s0.1-1.1,0.3-1.5c0.2-0.4,0.5-0.8,1-1c0.4-0.2,0.9-0.3,1.4-0.3c0.5,0,1,0.1,1.4,0.3s0.7,0.5,0.9,0.9
		c0.2,0.4,0.3,0.8,0.3,1.3C159.5,255.5,159.5,255.7,159.5,255.8z M158.4,254.2c-0.2-0.2-0.4-0.4-0.6-0.6c-0.3-0.1-0.6-0.2-0.9-0.2
		c-0.5,0-0.9,0.1-1.2,0.4c-0.3,0.3-0.5,0.7-0.6,1.2h3.5C158.6,254.8,158.5,254.5,158.4,254.2z"/>
	<path fill="#7500D4" d="M165,253.3c0.4,0.4,0.6,1,0.6,1.7v3.2h-0.9v-3.1c0-0.5-0.1-1-0.4-1.3c-0.3-0.3-0.6-0.4-1.1-0.4
		c-0.5,0-0.9,0.2-1.1,0.5s-0.4,0.7-0.4,1.3v3h-0.9v-5.5h0.9v0.8c0.2-0.3,0.4-0.5,0.7-0.6s0.7-0.2,1-0.2
		C164.1,252.7,164.6,252.9,165,253.3z"/>
	<path fill="#7500D4" d="M168.2,253.5v3.2c0,0.3,0.1,0.5,0.2,0.6c0.1,0.1,0.3,0.2,0.6,0.2h0.7v0.8h-0.8c-0.5,0-0.9-0.1-1.1-0.3
		s-0.4-0.6-0.4-1.2v-3.2h-0.7v-0.8h0.7v-1.4h0.9v1.4h1.4v0.8H168.2z"/>
	<path fill="#7500D4" d="M178.4,255.8H174c0,0.5,0.2,1,0.6,1.3c0.3,0.3,0.7,0.5,1.2,0.5c0.4,0,0.7-0.1,1-0.3
		c0.3-0.2,0.4-0.4,0.6-0.7h1c-0.1,0.5-0.4,1-0.9,1.3c-0.4,0.3-1,0.5-1.6,0.5c-0.5,0-1-0.1-1.4-0.3c-0.4-0.2-0.7-0.6-1-1
		s-0.3-0.9-0.3-1.5s0.1-1.1,0.3-1.5c0.2-0.4,0.5-0.8,1-1c0.4-0.2,0.9-0.3,1.4-0.3c0.5,0,1,0.1,1.4,0.3s0.7,0.5,0.9,0.9
		c0.2,0.4,0.3,0.8,0.3,1.3C178.4,255.5,178.4,255.7,178.4,255.8z M177.3,254.2c-0.2-0.2-0.4-0.4-0.6-0.6c-0.3-0.1-0.6-0.2-0.9-0.2
		c-0.5,0-0.9,0.1-1.2,0.4c-0.3,0.3-0.5,0.7-0.6,1.2h3.5C177.5,254.8,177.4,254.5,177.3,254.2z"/>
	<path fill="#7500D4" d="M181.9,253.5h-1.1v4.7h-0.9v-4.7h-0.7v-0.8h0.7v-0.4c0-0.6,0.2-1.1,0.5-1.3c0.3-0.3,0.8-0.4,1.5-0.4v0.8
		c-0.4,0-0.7,0.1-0.8,0.2c-0.2,0.2-0.2,0.4-0.2,0.8v0.4h1.1V253.5z"/>
	<path fill="#7500D4" d="M185.2,253.5H184v4.7h-0.9v-4.7h-0.7v-0.8h0.7v-0.4c0-0.6,0.2-1.1,0.5-1.3c0.3-0.3,0.8-0.4,1.5-0.4v0.8
		c-0.4,0-0.7,0.1-0.8,0.2c-0.2,0.2-0.2,0.4-0.2,0.8v0.4h1.1V253.5z"/>
	<path fill="#7500D4" d="M187.2,258c-0.4-0.2-0.7-0.6-1-1c-0.2-0.4-0.4-0.9-0.4-1.5c0-0.6,0.1-1.1,0.4-1.5c0.2-0.4,0.6-0.8,1-1
		c0.4-0.2,0.9-0.3,1.4-0.3s1,0.1,1.4,0.3c0.4,0.2,0.8,0.6,1,1c0.2,0.4,0.4,0.9,0.4,1.5s-0.1,1.1-0.4,1.5s-0.6,0.8-1,1
		c-0.4,0.2-0.9,0.3-1.4,0.3C188.1,258.3,187.6,258.2,187.2,258z M189.5,257.3c0.3-0.2,0.5-0.4,0.7-0.7s0.3-0.7,0.3-1.1
		s-0.1-0.8-0.3-1.1s-0.4-0.5-0.7-0.7c-0.3-0.2-0.6-0.2-0.9-0.2c-0.3,0-0.6,0.1-0.9,0.2s-0.5,0.4-0.7,0.7s-0.2,0.7-0.2,1.1
		c0,0.4,0.1,0.8,0.2,1.1c0.2,0.3,0.4,0.5,0.7,0.7c0.3,0.1,0.6,0.2,0.9,0.2C188.9,257.5,189.3,257.5,189.5,257.3z"/>
	<path fill="#7500D4" d="M194.2,252.9c0.3-0.2,0.7-0.3,1.1-0.3v0.9h-0.2c-1,0-1.5,0.6-1.5,1.7v3h-0.9v-5.5h0.9v0.9
		C193.7,253.3,193.9,253.1,194.2,252.9z"/>
	<path fill="#7500D4" d="M197.5,253.5v3.2c0,0.3,0.1,0.5,0.2,0.6c0.1,0.1,0.3,0.2,0.6,0.2h0.7v0.8h-0.8c-0.5,0-0.9-0.1-1.1-0.3
		s-0.4-0.6-0.4-1.2v-3.2h-0.7v-0.8h0.7v-1.4h0.9v1.4h1.4v0.8H197.5z"/>
</g>
<g>
	<path fill="#363636" d="M231.5,251.3v7h-0.9v-3.2H227v3.2h-0.9v-7h0.9v3.1h3.5v-3.1H231.5z"/>
	<path fill="#363636" d="M233.1,251.7c-0.1-0.1-0.2-0.3-0.2-0.4c0-0.2,0.1-0.3,0.2-0.4c0.1-0.1,0.3-0.2,0.4-0.2
		c0.2,0,0.3,0.1,0.4,0.2c0.1,0.1,0.2,0.3,0.2,0.4c0,0.2-0.1,0.3-0.2,0.4c-0.1,0.1-0.3,0.2-0.4,0.2
		C233.4,251.9,233.2,251.8,233.1,251.7z M234,252.8v5.5h-0.9v-5.5H234z"/>
	<path fill="#363636" d="M239,253c0.4,0.2,0.6,0.5,0.8,0.8v-1h0.9v5.6c0,0.5-0.1,0.9-0.3,1.3s-0.5,0.7-0.9,0.9s-0.9,0.3-1.4,0.3
		c-0.7,0-1.3-0.2-1.8-0.5c-0.5-0.3-0.8-0.8-0.8-1.4h0.9c0.1,0.3,0.3,0.6,0.6,0.8c0.3,0.2,0.7,0.3,1.1,0.3c0.5,0,0.9-0.2,1.2-0.5
		c0.3-0.3,0.5-0.8,0.5-1.3v-1.2c-0.2,0.3-0.4,0.6-0.8,0.8c-0.4,0.2-0.8,0.3-1.2,0.3c-0.5,0-0.9-0.1-1.3-0.4c-0.4-0.2-0.7-0.6-0.9-1
		c-0.2-0.4-0.3-0.9-0.3-1.5c0-0.6,0.1-1.1,0.3-1.5c0.2-0.4,0.5-0.8,0.9-1c0.4-0.2,0.8-0.3,1.3-0.3C238.2,252.7,238.7,252.8,239,253z
		 M239.6,254.4c-0.2-0.3-0.4-0.5-0.7-0.7c-0.3-0.2-0.6-0.2-0.9-0.2s-0.6,0.1-0.9,0.2c-0.3,0.2-0.5,0.4-0.7,0.7s-0.2,0.7-0.2,1.1
		c0,0.4,0.1,0.8,0.2,1.1s0.4,0.5,0.7,0.7c0.3,0.2,0.6,0.2,0.9,0.2s0.7-0.1,0.9-0.2c0.3-0.2,0.5-0.4,0.7-0.7s0.2-0.7,0.2-1.1
		S239.7,254.7,239.6,254.4z"/>
	<path fill="#363636" d="M246.1,252.9c0.3,0.2,0.6,0.4,0.8,0.8c0.2,0.4,0.3,0.8,0.3,1.3v3.2h-0.9v-3.1c0-0.5-0.1-1-0.4-1.3
		c-0.3-0.3-0.6-0.4-1.1-0.4c-0.5,0-0.9,0.1-1.1,0.5c-0.3,0.3-0.4,0.7-0.4,1.3v3h-0.9v-7.4h0.9v2.7c0.2-0.3,0.4-0.5,0.7-0.7
		c0.3-0.2,0.7-0.2,1.1-0.2C245.4,252.7,245.8,252.8,246.1,252.9z"/>
</g>
<g>
	<path fill="#363636" d="M325.7,257.5h2.4v0.7h-3.3v-7h0.9V257.5z"/>
	<path fill="#363636" d="M330.1,258c-0.4-0.2-0.7-0.6-1-1c-0.2-0.4-0.4-0.9-0.4-1.5c0-0.6,0.1-1.1,0.4-1.5c0.2-0.4,0.6-0.8,1-1
		c0.4-0.2,0.9-0.3,1.4-0.3c0.5,0,1,0.1,1.4,0.3c0.4,0.2,0.8,0.6,1,1s0.4,0.9,0.4,1.5s-0.1,1.1-0.4,1.5s-0.6,0.8-1,1
		c-0.4,0.2-0.9,0.3-1.4,0.3C331,258.3,330.5,258.2,330.1,258z M332.4,257.3c0.3-0.2,0.5-0.4,0.7-0.7s0.3-0.7,0.3-1.1
		s-0.1-0.8-0.3-1.1c-0.2-0.3-0.4-0.5-0.7-0.7c-0.3-0.1-0.6-0.2-0.9-0.2c-0.3,0-0.6,0.1-0.9,0.2c-0.3,0.2-0.5,0.4-0.7,0.7
		c-0.2,0.3-0.2,0.7-0.2,1.1c0,0.4,0.1,0.8,0.2,1.1s0.4,0.5,0.7,0.7c0.3,0.1,0.6,0.2,0.9,0.2C331.8,257.5,332.1,257.5,332.4,257.3z"
		/>
	<path fill="#363636" d="M342.8,252.8l-1.7,5.5h-0.9l-1.3-4.4l-1.3,4.4h-0.9l-1.7-5.5h0.9l1.3,4.6l1.4-4.6h0.9l1.3,4.6l1.2-4.6
		H342.8z"/>
	<path fill="#363636" d="M350.4,254.8c-0.4,0.4-1,0.6-1.8,0.6h-1.3v2.9h-0.9v-7h2.2c0.8,0,1.4,0.2,1.8,0.6s0.6,0.9,0.6,1.5
		C351,253.9,350.8,254.4,350.4,254.8z M349.8,254.3c0.2-0.2,0.4-0.5,0.4-0.9c0-0.9-0.5-1.3-1.5-1.3h-1.3v2.6h1.3
		C349.1,254.6,349.5,254.5,349.8,254.3z"/>
	<path fill="#363636" d="M353.8,252.9c0.3-0.2,0.7-0.3,1.1-0.3v0.9h-0.2c-1,0-1.5,0.6-1.5,1.7v3h-0.9v-5.5h0.9v0.9
		C353.2,253.3,353.5,253.1,353.8,252.9z"/>
	<path fill="#363636" d="M356.9,258c-0.4-0.2-0.7-0.6-1-1s-0.4-0.9-0.4-1.5c0-0.6,0.1-1.1,0.4-1.5c0.2-0.4,0.6-0.8,1-1
		c0.4-0.2,0.9-0.3,1.4-0.3c0.5,0,1,0.1,1.4,0.3c0.4,0.2,0.8,0.6,1,1c0.2,0.4,0.4,0.9,0.4,1.5s-0.1,1.1-0.4,1.5s-0.6,0.8-1,1
		s-0.9,0.3-1.4,0.3C357.8,258.3,357.3,258.2,356.9,258z M359.2,257.3c0.3-0.2,0.5-0.4,0.7-0.7s0.3-0.7,0.3-1.1s-0.1-0.8-0.3-1.1
		c-0.2-0.3-0.4-0.5-0.7-0.7c-0.3-0.1-0.6-0.2-0.9-0.2c-0.3,0-0.6,0.1-0.9,0.2c-0.3,0.2-0.5,0.4-0.7,0.7c-0.2,0.3-0.2,0.7-0.2,1.1
		c0,0.4,0.1,0.8,0.2,1.1c0.2,0.3,0.4,0.5,0.7,0.7c0.3,0.1,0.6,0.2,0.9,0.2S358.9,257.5,359.2,257.3z"/>
	<path fill="#363636" d="M364,253c0.4-0.2,0.8-0.3,1.2-0.3c0.5,0,0.9,0.1,1.3,0.3c0.4,0.2,0.7,0.6,0.9,1c0.2,0.4,0.3,0.9,0.3,1.5
		c0,0.6-0.1,1-0.3,1.5c-0.2,0.4-0.5,0.8-0.9,1c-0.4,0.2-0.8,0.4-1.3,0.4c-0.5,0-0.9-0.1-1.2-0.3c-0.4-0.2-0.6-0.5-0.8-0.8v1h-0.9
		v-7.4h0.9v2.9C363.4,253.5,363.7,253.2,364,253z M366.7,254.4c-0.2-0.3-0.4-0.5-0.7-0.7c-0.3-0.2-0.6-0.2-0.9-0.2
		c-0.3,0-0.6,0.1-0.9,0.2s-0.5,0.4-0.7,0.7c-0.2,0.3-0.3,0.7-0.3,1.1c0,0.4,0.1,0.8,0.3,1.1s0.4,0.5,0.7,0.7s0.6,0.2,0.9,0.2
		c0.3,0,0.7-0.1,0.9-0.2c0.3-0.2,0.5-0.4,0.7-0.7c0.2-0.3,0.2-0.7,0.2-1.1C366.9,255.1,366.8,254.7,366.7,254.4z"/>
	<path fill="#363636" d="M370,250.8v7.4h-0.9v-7.4H370z"/>
	<path fill="#363636" d="M376.5,255.8h-4.4c0,0.5,0.2,1,0.6,1.3c0.3,0.3,0.7,0.5,1.2,0.5c0.4,0,0.7-0.1,1-0.3s0.4-0.4,0.6-0.7h1
		c-0.1,0.5-0.4,1-0.9,1.3s-1,0.5-1.6,0.5c-0.5,0-1-0.1-1.4-0.3s-0.7-0.6-1-1s-0.3-0.9-0.3-1.5s0.1-1.1,0.3-1.5s0.5-0.8,1-1
		c0.4-0.2,0.9-0.3,1.4-0.3c0.5,0,1,0.1,1.4,0.3c0.4,0.2,0.7,0.5,0.9,0.9s0.3,0.8,0.3,1.3C376.5,255.5,376.5,255.7,376.5,255.8z
		 M375.3,254.2c-0.2-0.2-0.4-0.4-0.6-0.6c-0.3-0.1-0.6-0.2-0.9-0.2c-0.5,0-0.9,0.1-1.2,0.4c-0.3,0.3-0.5,0.7-0.6,1.2h3.5
		C375.6,254.8,375.5,254.5,375.3,254.2z"/>
	<path fill="#363636" d="M385.4,252.9c0.3,0.2,0.6,0.4,0.8,0.8c0.2,0.4,0.3,0.8,0.3,1.3v3.2h-0.9v-3.1c0-0.5-0.1-1-0.4-1.3
		c-0.3-0.3-0.6-0.4-1.1-0.4c-0.5,0-0.8,0.2-1.1,0.5s-0.4,0.7-0.4,1.3v3h-0.9v-3.1c0-0.5-0.1-1-0.4-1.3c-0.3-0.3-0.6-0.4-1.1-0.4
		c-0.5,0-0.8,0.2-1.1,0.5s-0.4,0.7-0.4,1.3v3h-0.9v-5.5h0.9v0.8c0.2-0.3,0.4-0.5,0.7-0.7c0.3-0.2,0.6-0.2,1-0.2
		c0.5,0,0.9,0.1,1.2,0.3c0.4,0.2,0.6,0.5,0.8,0.9c0.2-0.4,0.4-0.7,0.8-0.9c0.4-0.2,0.7-0.3,1.2-0.3
		C384.7,252.7,385.1,252.8,385.4,252.9z"/>
	<path fill="#363636" d="M390.8,252.9c0.3-0.5,0.7-1,1.3-1.3c0.5-0.3,1.1-0.5,1.8-0.5c0.8,0,1.4,0.2,2,0.6c0.6,0.4,1,0.9,1.2,1.6
		H396c-0.2-0.4-0.5-0.7-0.8-1s-0.8-0.3-1.3-0.3c-0.5,0-0.9,0.1-1.3,0.3c-0.4,0.2-0.7,0.5-0.9,1s-0.3,0.9-0.3,1.5
		c0,0.6,0.1,1,0.3,1.5c0.2,0.4,0.5,0.7,0.9,1c0.4,0.2,0.8,0.3,1.3,0.3c0.5,0,0.9-0.1,1.3-0.3c0.4-0.2,0.6-0.5,0.8-1h1.1
		c-0.3,0.7-0.7,1.2-1.2,1.5c-0.6,0.4-1.2,0.5-2,0.5c-0.6,0-1.2-0.2-1.8-0.5c-0.5-0.3-0.9-0.7-1.3-1.3s-0.5-1.1-0.5-1.8
		C390.3,254.1,390.5,253.5,390.8,252.9z"/>
	<path fill="#363636" d="M399.3,250.8v7.4h-0.9v-7.4H399.3z"/>
	<path fill="#363636" d="M400.9,254c0.2-0.4,0.5-0.8,0.9-1c0.4-0.2,0.8-0.3,1.3-0.3c0.5,0,0.9,0.1,1.2,0.3c0.4,0.2,0.6,0.5,0.8,0.8
		v-1h0.9v5.5h-0.9v-1c-0.2,0.3-0.4,0.6-0.8,0.8c-0.4,0.2-0.8,0.3-1.2,0.3c-0.5,0-0.9-0.1-1.3-0.4c-0.4-0.2-0.7-0.6-0.9-1
		c-0.2-0.4-0.3-0.9-0.3-1.5C400.5,254.9,400.6,254.4,400.9,254z M404.9,254.4c-0.2-0.3-0.4-0.5-0.7-0.7c-0.3-0.2-0.6-0.2-0.9-0.2
		s-0.6,0.1-0.9,0.2s-0.5,0.4-0.7,0.7c-0.2,0.3-0.2,0.7-0.2,1.1c0,0.4,0.1,0.8,0.2,1.1c0.2,0.3,0.4,0.5,0.7,0.7s0.6,0.2,0.9,0.2
		s0.7-0.1,0.9-0.2c0.3-0.2,0.5-0.4,0.7-0.7c0.2-0.3,0.2-0.7,0.2-1.1S405.1,254.7,404.9,254.4z"/>
	<path fill="#363636" d="M409.2,252.9c0.3-0.2,0.7-0.3,1.1-0.3v0.9h-0.2c-1,0-1.5,0.6-1.5,1.7v3h-0.9v-5.5h0.9v0.9
		C408.7,253.3,408.9,253.1,409.2,252.9z"/>
	<path fill="#363636" d="M411.4,251.7c-0.1-0.1-0.2-0.3-0.2-0.4c0-0.2,0.1-0.3,0.2-0.4c0.1-0.1,0.3-0.2,0.4-0.2
		c0.2,0,0.3,0.1,0.4,0.2c0.1,0.1,0.2,0.3,0.2,0.4c0,0.2-0.1,0.3-0.2,0.4c-0.1,0.1-0.3,0.2-0.4,0.2
		C411.7,251.9,411.5,251.8,411.4,251.7z M412.3,252.8v5.5h-0.9v-5.5H412.3z"/>
	<path fill="#363636" d="M414.9,253.5v3.2c0,0.3,0.1,0.5,0.2,0.6c0.1,0.1,0.3,0.2,0.6,0.2h0.7v0.8h-0.8c-0.5,0-0.9-0.1-1.1-0.3
		c-0.3-0.2-0.4-0.6-0.4-1.2v-3.2h-0.7v-0.8h0.7v-1.4h0.9v1.4h1.4v0.8H414.9z"/>
	<path fill="#363636" d="M422.2,252.8l-3.3,8.1h-0.9l1.1-2.6l-2.2-5.4h1l1.7,4.4l1.7-4.4H422.2z"/>
</g>
<g>
	<path fill="#363636" d="M328.3,27.5v7h-0.9v-3.2h-3.5v3.2H323v-7h0.9v3.1h3.5v-3.1H328.3z"/>
	<path fill="#363636" d="M329.9,27.9c-0.1-0.1-0.2-0.3-0.2-0.4c0-0.2,0.1-0.3,0.2-0.4c0.1-0.1,0.3-0.2,0.4-0.2
		c0.2,0,0.3,0.1,0.4,0.2c0.1,0.1,0.2,0.3,0.2,0.4c0,0.2-0.1,0.3-0.2,0.4c-0.1,0.1-0.3,0.2-0.4,0.2C330.2,28.1,330,28,329.9,27.9z
		 M330.8,28.9v5.5h-0.9v-5.5H330.8z"/>
	<path fill="#363636" d="M335.9,29.2c0.4,0.2,0.6,0.5,0.8,0.8v-1h0.9v5.6c0,0.5-0.1,0.9-0.3,1.3c-0.2,0.4-0.5,0.7-0.9,0.9
		s-0.9,0.3-1.4,0.3c-0.7,0-1.3-0.2-1.8-0.5c-0.5-0.3-0.8-0.8-0.8-1.4h0.9c0.1,0.3,0.3,0.6,0.6,0.8c0.3,0.2,0.7,0.3,1.1,0.3
		c0.5,0,0.9-0.2,1.2-0.5c0.3-0.3,0.5-0.8,0.5-1.3v-1.2c-0.2,0.3-0.4,0.6-0.8,0.8c-0.4,0.2-0.8,0.3-1.2,0.3c-0.5,0-0.9-0.1-1.3-0.4
		c-0.4-0.2-0.7-0.6-0.9-1c-0.2-0.4-0.3-0.9-0.3-1.5c0-0.6,0.1-1.1,0.3-1.5c0.2-0.4,0.5-0.8,0.9-1c0.4-0.2,0.8-0.3,1.3-0.3
		C335.1,28.9,335.5,29,335.9,29.2z M336.4,30.6c-0.2-0.3-0.4-0.5-0.7-0.7c-0.3-0.2-0.6-0.2-0.9-0.2s-0.7,0.1-0.9,0.2
		c-0.3,0.2-0.5,0.4-0.7,0.7c-0.2,0.3-0.2,0.7-0.2,1.1c0,0.4,0.1,0.8,0.2,1.1c0.2,0.3,0.4,0.5,0.7,0.7c0.3,0.2,0.6,0.2,0.9,0.2
		s0.7-0.1,0.9-0.2s0.5-0.4,0.7-0.7c0.2-0.3,0.2-0.7,0.2-1.1S336.6,30.9,336.4,30.6z"/>
	<path fill="#363636" d="M343,29.1c0.3,0.2,0.6,0.4,0.8,0.8c0.2,0.4,0.3,0.8,0.3,1.3v3.2h-0.9v-3.1c0-0.5-0.1-1-0.4-1.3
		c-0.3-0.3-0.6-0.4-1.1-0.4c-0.5,0-0.9,0.1-1.1,0.5c-0.3,0.3-0.4,0.7-0.4,1.3v3h-0.9V27h0.9v2.7c0.2-0.3,0.4-0.5,0.7-0.6
		s0.7-0.2,1.1-0.2C342.3,28.8,342.6,28.9,343,29.1z"/>
	<path fill="#363636" d="M352.3,30.9c-0.4,0.4-1,0.6-1.8,0.6h-1.3v2.9h-0.9v-7h2.2c0.8,0,1.4,0.2,1.8,0.6s0.6,0.9,0.6,1.5
		C352.8,30.1,352.7,30.6,352.3,30.9z M351.6,30.4c0.2-0.2,0.4-0.5,0.4-0.9c0-0.9-0.5-1.3-1.5-1.3h-1.3v2.6h1.3
		C350.9,30.8,351.3,30.7,351.6,30.4z"/>
	<path fill="#363636" d="M355.6,29.1c0.3-0.2,0.7-0.3,1.1-0.3v0.9h-0.2c-1,0-1.5,0.6-1.5,1.7v3H354v-5.5h0.9v0.9
		C355,29.5,355.3,29.3,355.6,29.1z"/>
	<path fill="#363636" d="M358.7,34.2c-0.4-0.2-0.7-0.6-1-1c-0.2-0.4-0.4-0.9-0.4-1.5c0-0.6,0.1-1.1,0.4-1.5c0.2-0.4,0.6-0.8,1-1
		s0.9-0.3,1.4-0.3c0.5,0,1,0.1,1.4,0.3s0.8,0.6,1,1c0.2,0.4,0.4,0.9,0.4,1.5s-0.1,1.1-0.4,1.5s-0.6,0.8-1,1
		c-0.4,0.2-0.9,0.3-1.4,0.3C359.6,34.5,359.1,34.4,358.7,34.2z M361,33.5c0.3-0.2,0.5-0.4,0.7-0.7s0.3-0.7,0.3-1.1s-0.1-0.8-0.3-1.1
		c-0.2-0.3-0.4-0.5-0.7-0.7c-0.3-0.1-0.6-0.2-0.9-0.2c-0.3,0-0.6,0.1-0.9,0.2c-0.3,0.2-0.5,0.4-0.7,0.7c-0.2,0.3-0.2,0.7-0.2,1.1
		c0,0.4,0.1,0.8,0.2,1.1s0.4,0.5,0.7,0.7c0.3,0.1,0.6,0.2,0.9,0.2C360.4,33.7,360.7,33.6,361,33.5z"/>
	<path fill="#363636" d="M365.8,29.2c0.4-0.2,0.8-0.3,1.2-0.3c0.5,0,0.9,0.1,1.3,0.3c0.4,0.2,0.7,0.6,0.9,1c0.2,0.4,0.3,0.9,0.3,1.5
		c0,0.6-0.1,1-0.3,1.5c-0.2,0.4-0.5,0.8-0.9,1c-0.4,0.2-0.8,0.4-1.3,0.4c-0.5,0-0.9-0.1-1.2-0.3c-0.4-0.2-0.6-0.5-0.8-0.8v1h-0.9V27
		h0.9V30C365.2,29.6,365.5,29.4,365.8,29.2z M368.5,30.6c-0.2-0.3-0.4-0.5-0.7-0.7c-0.3-0.2-0.6-0.2-0.9-0.2c-0.3,0-0.6,0.1-0.9,0.2
		c-0.3,0.2-0.5,0.4-0.7,0.7c-0.2,0.3-0.3,0.7-0.3,1.1c0,0.4,0.1,0.8,0.3,1.1s0.4,0.5,0.7,0.7s0.6,0.2,0.9,0.2c0.3,0,0.7-0.1,0.9-0.2
		c0.3-0.2,0.5-0.4,0.7-0.7c0.2-0.3,0.2-0.7,0.2-1.1C368.7,31.3,368.7,30.9,368.5,30.6z"/>
	<path fill="#363636" d="M371.8,27v7.4h-0.9V27H371.8z"/>
	<path fill="#363636" d="M378.3,32h-4.4c0,0.5,0.2,1,0.6,1.3c0.3,0.3,0.7,0.5,1.2,0.5c0.4,0,0.7-0.1,1-0.3s0.4-0.4,0.6-0.7h1
		c-0.1,0.5-0.4,1-0.9,1.3s-1,0.5-1.6,0.5c-0.5,0-1-0.1-1.4-0.3s-0.7-0.6-1-1s-0.3-0.9-0.3-1.5s0.1-1.1,0.3-1.5c0.2-0.4,0.5-0.8,1-1
		c0.4-0.2,0.9-0.3,1.4-0.3c0.5,0,1,0.1,1.4,0.3c0.4,0.2,0.7,0.5,0.9,0.9s0.3,0.8,0.3,1.3C378.3,31.7,378.3,31.8,378.3,32z
		 M377.2,30.4c-0.2-0.2-0.4-0.4-0.6-0.6c-0.3-0.1-0.6-0.2-0.9-0.2c-0.5,0-0.9,0.1-1.2,0.4s-0.5,0.7-0.6,1.2h3.5
		C377.4,30.9,377.3,30.6,377.2,30.4z"/>
	<path fill="#363636" d="M387.3,29.1c0.3,0.2,0.6,0.4,0.8,0.8c0.2,0.4,0.3,0.8,0.3,1.3v3.2h-0.9v-3.1c0-0.5-0.1-1-0.4-1.3
		c-0.3-0.3-0.6-0.4-1.1-0.4c-0.5,0-0.9,0.2-1.1,0.5c-0.3,0.3-0.4,0.7-0.4,1.3v3h-0.9v-3.1c0-0.5-0.1-1-0.4-1.3
		c-0.3-0.3-0.6-0.4-1.1-0.4c-0.5,0-0.9,0.2-1.1,0.5c-0.3,0.3-0.4,0.7-0.4,1.3v3h-0.9v-5.5h0.9v0.8c0.2-0.3,0.4-0.5,0.7-0.7
		s0.6-0.2,1-0.2c0.5,0,0.9,0.1,1.2,0.3s0.6,0.5,0.8,0.9c0.2-0.4,0.4-0.7,0.8-0.9c0.4-0.2,0.7-0.3,1.2-0.3
		C386.5,28.8,386.9,28.9,387.3,29.1z"/>
	<path fill="#363636" d="M392.6,29.1c0.3-0.5,0.7-1,1.3-1.3c0.5-0.3,1.1-0.5,1.8-0.5c0.8,0,1.4,0.2,2,0.6s1,0.9,1.2,1.6h-1.1
		c-0.2-0.4-0.5-0.7-0.8-1s-0.8-0.3-1.3-0.3c-0.5,0-0.9,0.1-1.3,0.3c-0.4,0.2-0.7,0.5-0.9,1c-0.2,0.4-0.3,0.9-0.3,1.5
		c0,0.6,0.1,1,0.3,1.5c0.2,0.4,0.5,0.7,0.9,1c0.4,0.2,0.8,0.3,1.3,0.3c0.5,0,0.9-0.1,1.3-0.3c0.4-0.2,0.6-0.5,0.8-1h1.1
		c-0.3,0.7-0.7,1.2-1.2,1.5c-0.6,0.4-1.2,0.5-2,0.5c-0.6,0-1.2-0.2-1.8-0.5c-0.5-0.3-0.9-0.7-1.3-1.3s-0.5-1.1-0.5-1.8
		C392.2,30.3,392.3,29.6,392.6,29.1z"/>
	<path fill="#363636" d="M401.1,27v7.4h-0.9V27H401.1z"/>
	<path fill="#363636" d="M402.7,30.2c0.2-0.4,0.5-0.8,0.9-1c0.4-0.2,0.8-0.3,1.3-0.3c0.5,0,0.9,0.1,1.2,0.3c0.4,0.2,0.6,0.5,0.8,0.8
		v-1h0.9v5.5H407v-1c-0.2,0.3-0.4,0.6-0.8,0.8c-0.4,0.2-0.8,0.3-1.2,0.3c-0.5,0-0.9-0.1-1.3-0.4c-0.4-0.2-0.7-0.6-0.9-1
		c-0.2-0.4-0.3-0.9-0.3-1.5C402.3,31.1,402.5,30.6,402.7,30.2z M406.7,30.6c-0.2-0.3-0.4-0.5-0.7-0.7c-0.3-0.2-0.6-0.2-0.9-0.2
		s-0.6,0.1-0.9,0.2s-0.5,0.4-0.7,0.7c-0.2,0.3-0.2,0.7-0.2,1.1c0,0.4,0.1,0.8,0.2,1.1c0.2,0.3,0.4,0.5,0.7,0.7s0.6,0.2,0.9,0.2
		s0.7-0.1,0.9-0.2c0.3-0.2,0.5-0.4,0.7-0.7c0.2-0.3,0.2-0.7,0.2-1.1S406.9,30.9,406.7,30.6z"/>
	<path fill="#363636" d="M411,29.1c0.3-0.2,0.7-0.3,1.1-0.3v0.9h-0.2c-1,0-1.5,0.6-1.5,1.7v3h-0.9v-5.5h0.9v0.9
		C410.5,29.5,410.7,29.3,411,29.1z"/>
	<path fill="#363636" d="M413.2,27.9c-0.1-0.1-0.2-0.3-0.2-0.4c0-0.2,0.1-0.3,0.2-0.4c0.1-0.1,0.3-0.2,0.4-0.2
		c0.2,0,0.3,0.1,0.4,0.2c0.1,0.1,0.2,0.3,0.2,0.4c0,0.2-0.1,0.3-0.2,0.4c-0.1,0.1-0.3,0.2-0.4,0.2C413.5,28.1,413.3,28,413.2,27.9z
		 M414.1,28.9v5.5h-0.9v-5.5H414.1z"/>
	<path fill="#363636" d="M416.7,29.7v3.2c0,0.3,0.1,0.5,0.2,0.6c0.1,0.1,0.3,0.2,0.6,0.2h0.7v0.8h-0.8c-0.5,0-0.9-0.1-1.1-0.3
		c-0.3-0.2-0.4-0.6-0.4-1.2v-3.2h-0.7v-0.8h0.7v-1.4h0.9v1.4h1.4v0.8H416.7z"/>
	<path fill="#363636" d="M424,28.9l-3.3,8.1h-0.9l1.1-2.6l-2.2-5.4h1l1.7,4.4l1.7-4.4H424z"/>
</g>
<g>
	<path fill="#363636" d="M251.5,138.4h2.4v0.7h-3.4v-7h0.9V138.4z"/>
	<path fill="#363636" d="M255.9,138.9c-0.4-0.2-0.7-0.6-1-1c-0.2-0.4-0.4-0.9-0.4-1.5c0-0.6,0.1-1.1,0.4-1.5c0.2-0.4,0.6-0.8,1-1
		s0.9-0.3,1.4-0.3s1,0.1,1.4,0.3s0.8,0.6,1,1c0.2,0.4,0.4,0.9,0.4,1.5s-0.1,1.1-0.4,1.5s-0.6,0.8-1,1s-0.9,0.3-1.4,0.3
		C256.8,139.3,256.3,139.2,255.9,138.9z M258.2,138.2c0.3-0.2,0.5-0.4,0.7-0.7s0.3-0.7,0.3-1.1s-0.1-0.8-0.3-1.1
		c-0.2-0.3-0.4-0.5-0.7-0.7c-0.3-0.1-0.6-0.2-0.9-0.2c-0.3,0-0.6,0.1-0.9,0.2c-0.3,0.2-0.5,0.4-0.7,0.7s-0.2,0.7-0.2,1.1
		c0,0.4,0.1,0.8,0.2,1.1c0.2,0.3,0.4,0.5,0.7,0.7c0.3,0.1,0.6,0.2,0.9,0.2C257.6,138.5,258,138.4,258.2,138.2z"/>
	<path fill="#363636" d="M268.6,133.7l-1.7,5.5H266l-1.3-4.4l-1.3,4.4h-0.9l-1.7-5.5h0.9l1.3,4.6l1.4-4.6h0.9l1.3,4.6l1.2-4.6H268.6
		z"/>
	<path fill="#363636" d="M254.3,151.2l-1.7-2.8h-1.1v2.8h-0.9v-7h2.2c0.5,0,1,0.1,1.3,0.3c0.4,0.2,0.6,0.4,0.8,0.7
		c0.2,0.3,0.3,0.7,0.3,1c0,0.5-0.1,0.9-0.4,1.3c-0.3,0.4-0.7,0.6-1.2,0.7l1.8,2.9H254.3z M251.5,147.6h1.3c0.5,0,0.9-0.1,1.1-0.4
		c0.2-0.2,0.4-0.6,0.4-1c0-0.4-0.1-0.7-0.4-1c-0.2-0.2-0.6-0.3-1.1-0.3h-1.3V147.6z"/>
	<path fill="#363636" d="M256.7,144.6c-0.1-0.1-0.2-0.3-0.2-0.4c0-0.2,0.1-0.3,0.2-0.4c0.1-0.1,0.3-0.2,0.4-0.2
		c0.2,0,0.3,0.1,0.4,0.2s0.2,0.3,0.2,0.4c0,0.2-0.1,0.3-0.2,0.4s-0.3,0.2-0.4,0.2C257,144.8,256.8,144.8,256.7,144.6z M257.6,145.7
		v5.5h-0.9v-5.5H257.6z"/>
	<path fill="#363636" d="M260,151.1c-0.3-0.1-0.6-0.3-0.8-0.6c-0.2-0.3-0.3-0.6-0.3-0.9h0.9c0,0.3,0.2,0.5,0.4,0.7
		c0.2,0.2,0.5,0.3,0.9,0.3c0.3,0,0.6-0.1,0.8-0.2s0.3-0.3,0.3-0.6c0-0.2-0.1-0.4-0.3-0.5c-0.2-0.1-0.5-0.2-1-0.3
		c-0.4-0.1-0.7-0.2-1-0.3c-0.3-0.1-0.5-0.3-0.7-0.5c-0.2-0.2-0.3-0.5-0.3-0.9c0-0.3,0.1-0.5,0.2-0.8c0.2-0.2,0.4-0.4,0.7-0.6
		s0.7-0.2,1-0.2c0.6,0,1.1,0.2,1.5,0.5s0.6,0.7,0.6,1.3h-0.9c0-0.3-0.1-0.5-0.3-0.7c-0.2-0.2-0.5-0.3-0.8-0.3
		c-0.3,0-0.6,0.1-0.8,0.2c-0.2,0.1-0.3,0.3-0.3,0.5c0,0.2,0.1,0.3,0.2,0.4c0.1,0.1,0.3,0.2,0.4,0.3c0.2,0.1,0.4,0.1,0.7,0.2
		c0.4,0.1,0.7,0.2,1,0.3c0.2,0.1,0.5,0.3,0.6,0.5c0.2,0.2,0.3,0.5,0.3,0.8c0,0.3-0.1,0.6-0.2,0.8c-0.2,0.2-0.4,0.4-0.7,0.6
		c-0.3,0.1-0.7,0.2-1,0.2C260.7,151.3,260.3,151.2,260,151.1z"/>
	<path fill="#363636" d="M267.4,151.2l-2.1-2.4v2.4h-0.9v-7.4h0.9v4.4l2.1-2.4h1.3l-2.6,2.7l2.6,2.8H267.4z"/>
</g>
<g>
	<path fill="#363636" d="M483.3,132.2v7h-0.9V136h-3.6v3.2h-0.9v-7h0.9v3.1h3.6v-3.1H483.3z"/>
	<path fill="#363636" d="M484.9,132.6c-0.1-0.1-0.2-0.3-0.2-0.4c0-0.2,0.1-0.3,0.2-0.4c0.1-0.1,0.3-0.2,0.4-0.2
		c0.2,0,0.3,0.1,0.4,0.2c0.1,0.1,0.2,0.3,0.2,0.4c0,0.2-0.1,0.3-0.2,0.4c-0.1,0.1-0.3,0.2-0.4,0.2
		C485.1,132.8,485,132.8,484.9,132.6z M485.7,133.7v5.5h-0.9v-5.5H485.7z"/>
	<path fill="#363636" d="M490.8,133.9c0.4,0.2,0.6,0.5,0.8,0.8v-1h0.9v5.6c0,0.5-0.1,0.9-0.3,1.3s-0.5,0.7-0.9,0.9s-0.9,0.3-1.4,0.3
		c-0.7,0-1.3-0.2-1.8-0.5c-0.5-0.3-0.8-0.8-0.8-1.4h0.9c0.1,0.3,0.3,0.6,0.6,0.8c0.3,0.2,0.7,0.3,1.1,0.3c0.5,0,0.9-0.2,1.2-0.5
		c0.3-0.3,0.5-0.8,0.5-1.3v-1.2c-0.2,0.3-0.4,0.6-0.8,0.8c-0.4,0.2-0.8,0.3-1.2,0.3c-0.5,0-0.9-0.1-1.3-0.4c-0.4-0.2-0.7-0.6-0.9-1
		c-0.2-0.4-0.3-0.9-0.3-1.5c0-0.6,0.1-1.1,0.3-1.5c0.2-0.4,0.5-0.8,0.9-1c0.4-0.2,0.8-0.3,1.3-0.3
		C490,133.6,490.4,133.7,490.8,133.9z M491.3,135.4c-0.2-0.3-0.4-0.5-0.7-0.7c-0.3-0.2-0.6-0.2-0.9-0.2s-0.7,0.1-0.9,0.2
		c-0.3,0.2-0.5,0.4-0.7,0.7c-0.2,0.3-0.2,0.7-0.2,1.1c0,0.4,0.1,0.8,0.2,1.1c0.2,0.3,0.4,0.5,0.7,0.7c0.3,0.2,0.6,0.2,0.9,0.2
		s0.7-0.1,0.9-0.2c0.3-0.2,0.5-0.4,0.7-0.7c0.2-0.3,0.2-0.7,0.2-1.1S491.5,135.7,491.3,135.4z"/>
	<path fill="#363636" d="M497.9,133.9c0.3,0.2,0.6,0.4,0.8,0.8c0.2,0.4,0.3,0.8,0.3,1.3v3.2h-0.9v-3.1c0-0.5-0.1-1-0.4-1.3
		c-0.3-0.3-0.6-0.4-1.1-0.4c-0.5,0-0.9,0.1-1.1,0.5c-0.3,0.3-0.4,0.7-0.4,1.3v3h-0.9v-7.4h0.9v2.7c0.2-0.3,0.4-0.5,0.7-0.6
		s0.7-0.2,1.1-0.2C497.2,133.6,497.6,133.7,497.9,133.9z"/>
	<path fill="#363636" d="M483.4,151.2l-1.7-2.8h-1.1v2.8h-0.9v-7h2.2c0.5,0,1,0.1,1.3,0.3c0.4,0.2,0.6,0.4,0.8,0.7
		c0.2,0.3,0.3,0.7,0.3,1c0,0.5-0.1,0.9-0.4,1.3c-0.3,0.4-0.7,0.6-1.2,0.7l1.8,2.9H483.4z M480.6,147.6h1.3c0.5,0,0.9-0.1,1.1-0.4
		c0.2-0.2,0.4-0.6,0.4-1c0-0.4-0.1-0.7-0.4-1s-0.6-0.3-1.1-0.3h-1.3V147.6z"/>
	<path fill="#363636" d="M485.8,144.6c-0.1-0.1-0.2-0.3-0.2-0.4c0-0.2,0.1-0.3,0.2-0.4c0.1-0.1,0.3-0.2,0.4-0.2
		c0.2,0,0.3,0.1,0.4,0.2s0.2,0.3,0.2,0.4c0,0.2-0.1,0.3-0.2,0.4s-0.3,0.2-0.4,0.2C486.1,144.8,486,144.8,485.8,144.6z M486.7,145.7
		v5.5h-0.9v-5.5H486.7z"/>
	<path fill="#363636" d="M489.1,151.1c-0.3-0.1-0.6-0.3-0.8-0.6c-0.2-0.3-0.3-0.6-0.3-0.9h0.9c0,0.3,0.2,0.5,0.4,0.7
		c0.2,0.2,0.5,0.3,0.9,0.3c0.3,0,0.6-0.1,0.8-0.2s0.3-0.3,0.3-0.6c0-0.2-0.1-0.4-0.3-0.5c-0.2-0.1-0.5-0.2-1-0.3
		c-0.4-0.1-0.7-0.2-1-0.3c-0.3-0.1-0.5-0.3-0.7-0.5c-0.2-0.2-0.3-0.5-0.3-0.9c0-0.3,0.1-0.5,0.2-0.8c0.2-0.2,0.4-0.4,0.7-0.6
		s0.7-0.2,1.1-0.2c0.6,0,1.1,0.2,1.5,0.5c0.4,0.3,0.6,0.7,0.6,1.3h-0.9c0-0.3-0.1-0.5-0.3-0.7c-0.2-0.2-0.5-0.3-0.8-0.3
		c-0.3,0-0.6,0.1-0.8,0.2c-0.2,0.1-0.3,0.3-0.3,0.5c0,0.2,0.1,0.3,0.2,0.4c0.1,0.1,0.3,0.2,0.4,0.3c0.2,0.1,0.4,0.1,0.7,0.2
		c0.4,0.1,0.7,0.2,1,0.3c0.2,0.1,0.5,0.3,0.6,0.5c0.2,0.2,0.3,0.5,0.3,0.8c0,0.3-0.1,0.6-0.2,0.8c-0.2,0.2-0.4,0.4-0.7,0.6
		c-0.3,0.1-0.7,0.2-1,0.2C489.8,151.3,489.4,151.2,489.1,151.1z"/>
	<path fill="#363636" d="M496.5,151.2l-2.1-2.4v2.4h-0.9v-7.4h0.9v4.4l2.1-2.4h1.3l-2.6,2.7l2.6,2.8H496.5z"/>
</g>
<g>
	<line fill="none" stroke="#363636" stroke-miterlimit="10" x1="373.2" y1="243.8" x2="373.2" y2="40.6"/>
	<polyline fill="none" stroke="#363636" stroke-miterlimit="10" points="369.2,44.5 373.2,40.6 377.1,44.5 	"/>
	<polyline fill="none" stroke="#363636" stroke-miterlimit="10" points="377.1,239.8 373.2,243.8 369.2,239.8 	"/>
</g>
<g>
	<line fill="none" stroke="#363636" stroke-miterlimit="10" x1="271.5" y1="142.2" x2="474.8" y2="142.2"/>
	<polyline fill="none" stroke="#363636" stroke-miterlimit="10" points="470.8,138.2 474.8,142.2 470.8,146.2 	"/>
	<polyline fill="none" stroke="#363636" stroke-miterlimit="10" points="275.5,146.2 271.5,142.2 275.5,138.2 	"/>
</g>
<g>
	<line fill="none" stroke="#363636" stroke-miterlimit="10" x1="39" y1="237.9" x2="39" y2="36.4"/>
	<polyline fill="none" stroke="#363636" stroke-miterlimit="10" points="43.1,233.8 39,237.9 34.8,233.8 	"/>
</g>
<g>
	<line fill="none" stroke="#363636" stroke-miterlimit="10" x1="45.7" y1="244.7" x2="247.2" y2="244.7"/>
	<polyline fill="none" stroke="#363636" stroke-miterlimit="10" points="49.9,248.8 45.7,244.7 49.9,240.6 	"/>
</g>
<g>
	<rect x="339.2" y="116.5" fill="#7500D4" width="21.7" height="21.7"/>
	<line fill="none" stroke="#FFFFFF" stroke-width="2" stroke-miterlimit="10" x1="342.4" y1="121.1" x2="354.2" y2="121.1"/>
	<line fill="none" stroke="#FFFFFF" stroke-width="2" stroke-miterlimit="10" x1="342.4" y1="128.1" x2="351.4" y2="128.1"/>
	<line fill="none" stroke="#FFFFFF" stroke-width="2" stroke-miterlimit="10" x1="342.4" y1="124.7" x2="357.8" y2="124.7"/>
</g>
<g>
	<rect x="343.4" y="49.4" fill="#7500D4" width="21.7" height="21.7"/>
	<line fill="none" stroke="#FFFFFF" stroke-width="2" stroke-miterlimit="10" x1="346.5" y1="53.9" x2="358.4" y2="53.9"/>
	<line fill="none" stroke="#FFFFFF" stroke-width="2" stroke-miterlimit="10" x1="346.5" y1="61" x2="355.5" y2="61"/>
	<line fill="none" stroke="#FFFFFF" stroke-width="2" stroke-miterlimit="10" x1="346.5" y1="57.5" x2="361.9" y2="57.5"/>
</g>
<g>
	<rect x="296.1" y="138.2" fill="#7500D4" width="21.7" height="21.7"/>
	<line fill="none" stroke="#FFFFFF" stroke-width="2" stroke-miterlimit="10" x1="299.3" y1="142.8" x2="311.2" y2="142.8"/>
	<line fill="none" stroke="#FFFFFF" stroke-width="2" stroke-miterlimit="10" x1="299.3" y1="149.8" x2="308.3" y2="149.8"/>
	<line fill="none" stroke="#FFFFFF" stroke-width="2" stroke-miterlimit="10" x1="299.3" y1="146.4" x2="314.7" y2="146.4"/>
</g>
<g>
	<rect x="354.2" y="155.8" fill="#7500D4" width="21.7" height="21.7"/>
	<line fill="none" stroke="#FFFFFF" stroke-width="2" stroke-miterlimit="10" x1="357.4" y1="160.4" x2="369.3" y2="160.4"/>
	<line fill="none" stroke="#FFFFFF" stroke-width="2" stroke-miterlimit="10" x1="357.4" y1="167.4" x2="366.4" y2="167.4"/>
	<line fill="none" stroke="#FFFFFF" stroke-width="2" stroke-miterlimit="10" x1="357.4" y1="164" x2="372.8" y2="164"/>
</g>
<g>
	<rect x="378.9" y="87.8" fill="#7500D4" width="21.7" height="21.7"/>
	<line fill="none" stroke="#FFFFFF" stroke-width="2" stroke-miterlimit="10" x1="382.1" y1="92.3" x2="393.9" y2="92.3"/>
	<line fill="none" stroke="#FFFFFF" stroke-width="2" stroke-miterlimit="10" x1="382.1" y1="99.4" x2="391.1" y2="99.4"/>
	<line fill="none" stroke="#FFFFFF" stroke-width="2" stroke-miterlimit="10" x1="382.1" y1="95.9" x2="397.5" y2="95.9"/>
</g>
<g>
	<rect x="368" y="204.9" fill="#7500D4" width="21.7" height="21.7"/>
	<line fill="none" stroke="#FFFFFF" stroke-width="2" stroke-miterlimit="10" x1="371.2" y1="209.5" x2="383.1" y2="209.5"/>
	<line fill="none" stroke="#FFFFFF" stroke-width="2" stroke-miterlimit="10" x1="371.2" y1="216.5" x2="380.2" y2="216.5"/>
	<line fill="none" stroke="#FFFFFF" stroke-width="2" stroke-miterlimit="10" x1="371.2" y1="213.1" x2="386.6" y2="213.1"/>
</g>
<g>
	<rect x="428.7" y="135.3" fill="#7500D4" width="21.7" height="21.7"/>
	<line fill="none" stroke="#FFFFFF" stroke-width="2" stroke-miterlimit="10" x1="431.8" y1="139.9" x2="443.7" y2="139.9"/>
	<line fill="none" stroke="#FFFFFF" stroke-width="2" stroke-miterlimit="10" x1="431.8" y1="146.9" x2="440.8" y2="146.9"/>
	<line fill="none" stroke="#FFFFFF" stroke-width="2" stroke-miterlimit="10" x1="431.8" y1="143.5" x2="447.2" y2="143.5"/>
</g>
<g>
	<rect x="336.8" y="145" fill="#7500D4" width="21.7" height="21.7"/>
	<line fill="none" stroke="#FFFFFF" stroke-width="2" stroke-miterlimit="10" x1="339.9" y1="149.6" x2="351.8" y2="149.6"/>
	<line fill="none" stroke="#FFFFFF" stroke-width="2" stroke-miterlimit="10" x1="339.9" y1="156.6" x2="348.9" y2="156.6"/>
	<line fill="none" stroke="#FFFFFF" stroke-width="2" stroke-miterlimit="10" x1="339.9" y1="153.2" x2="355.4" y2="153.2"/>
</g>
<g>
	<rect x="172.7" y="179.4" fill="#7500D4" width="21.7" height="21.7"/>
	<line fill="none" stroke="#FFFFFF" stroke-width="2" stroke-miterlimit="10" x1="175.8" y1="184" x2="187.7" y2="184"/>
	<line fill="none" stroke="#FFFFFF" stroke-width="2" stroke-miterlimit="10" x1="175.8" y1="191.1" x2="184.8" y2="191.1"/>
	<line fill="none" stroke="#FFFFFF" stroke-width="2" stroke-miterlimit="10" x1="175.8" y1="187.6" x2="191.2" y2="187.6"/>
</g>
<g>
	<rect x="85.6" y="160.8" fill="#7500D4" width="21.7" height="21.7"/>
	<line fill="none" stroke="#FFFFFF" stroke-width="2" stroke-miterlimit="10" x1="88.7" y1="165.4" x2="100.6" y2="165.4"/>
	<line fill="none" stroke="#FFFFFF" stroke-width="2" stroke-miterlimit="10" x1="88.7" y1="172.4" x2="97.7" y2="172.4"/>
	<line fill="none" stroke="#FFFFFF" stroke-width="2" stroke-miterlimit="10" x1="88.7" y1="169" x2="104.2" y2="169"/>
</g>
<g>
	<rect x="83.8" y="196.4" fill="#7500D4" width="21.7" height="21.7"/>
	<line fill="none" stroke="#FFFFFF" stroke-width="2" stroke-miterlimit="10" x1="87" y1="201" x2="98.8" y2="201"/>
	<line fill="none" stroke="#FFFFFF" stroke-width="2" stroke-miterlimit="10" x1="87" y1="208.1" x2="96" y2="208.1"/>
	<line fill="none" stroke="#FFFFFF" stroke-width="2" stroke-miterlimit="10" x1="87" y1="204.6" x2="102.4" y2="204.6"/>
</g>
<g>
	<rect x="53.5" y="166.7" fill="#7500D4" width="21.7" height="21.7"/>
	<line fill="none" stroke="#FFFFFF" stroke-width="2" stroke-miterlimit="10" x1="56.6" y1="171.3" x2="68.5" y2="171.3"/>
	<line fill="none" stroke="#FFFFFF" stroke-width="2" stroke-miterlimit="10" x1="56.6" y1="178.3" x2="65.6" y2="178.3"/>
	<line fill="none" stroke="#FFFFFF" stroke-width="2" stroke-miterlimit="10" x1="56.6" y1="174.9" x2="72.1" y2="174.9"/>
</g>
<g>
	<rect x="77.9" y="71.1" fill="#7500D4" width="21.7" height="21.7"/>
	<line fill="none" stroke="#FFFFFF" stroke-width="2" stroke-miterlimit="10" x1="81" y1="75.7" x2="92.9" y2="75.7"/>
	<line fill="none" stroke="#FFFFFF" stroke-width="2" stroke-miterlimit="10" x1="81" y1="82.7" x2="90" y2="82.7"/>
	<line fill="none" stroke="#FFFFFF" stroke-width="2" stroke-miterlimit="10" x1="81" y1="79.3" x2="96.4" y2="79.3"/>
</g>
<g>
	<rect x="109.6" y="113.8" fill="#7500D4" width="21.7" height="21.7"/>
	<line fill="none" stroke="#FFFFFF" stroke-width="2" stroke-miterlimit="10" x1="112.7" y1="118.4" x2="124.6" y2="118.4"/>
	<line fill="none" stroke="#FFFFFF" stroke-width="2" stroke-miterlimit="10" x1="112.7" y1="125.4" x2="121.8" y2="125.4"/>
	<line fill="none" stroke="#FFFFFF" stroke-width="2" stroke-miterlimit="10" x1="112.7" y1="122" x2="128.2" y2="122"/>
</g>
<g>
	<rect x="101.9" y="185.6" fill="#7500D4" width="21.7" height="21.7"/>
	<line fill="none" stroke="#FFFFFF" stroke-width="2" stroke-miterlimit="10" x1="105" y1="190.2" x2="116.9" y2="190.2"/>
	<line fill="none" stroke="#FFFFFF" stroke-width="2" stroke-miterlimit="10" x1="105" y1="197.2" x2="114.1" y2="197.2"/>
	<line fill="none" stroke="#FFFFFF" stroke-width="2" stroke-miterlimit="10" x1="105" y1="193.8" x2="120.5" y2="193.8"/>
</g>
</svg>
