<svg width="515" height="325" viewBox="0 0 515 325" fill="none" xmlns="http://www.w3.org/2000/svg">
<path d="M498.62 325H15.93C7.12 325 0 317.8 0 308.9V16.1C0 7.2 7.12 0 15.93 0H498.72C507.53 0 514.65 7.2 514.65 16.1V309C514.55 317.8 507.43 325 498.62 325Z" fill="#F2EDED"/>
<path d="M110.528 94.6238V95.9798H108.296V103H106.616V95.9798H104.384V94.6238H110.528Z" fill="#363636"/>
<path d="M115.498 96.2558C116.002 96.2558 116.45 96.3678 116.842 96.5918C117.234 96.8078 117.538 97.1318 117.754 97.5638C117.978 97.9878 118.09 98.4998 118.09 99.0998V103H116.41V99.3278C116.41 98.7998 116.278 98.3958 116.014 98.1158C115.75 97.8278 115.39 97.6838 114.934 97.6838C114.47 97.6838 114.102 97.8278 113.83 98.1158C113.566 98.3958 113.434 98.7998 113.434 99.3278V103H111.754V94.1198H113.434V97.1798C113.65 96.8918 113.938 96.6678 114.298 96.5078C114.658 96.3398 115.058 96.2558 115.498 96.2558Z" fill="#363636"/>
<path d="M120.539 95.5598C120.243 95.5598 119.995 95.4678 119.795 95.2838C119.603 95.0918 119.507 94.8558 119.507 94.5758C119.507 94.2958 119.603 94.0638 119.795 93.8798C119.995 93.6878 120.243 93.5918 120.539 93.5918C120.835 93.5918 121.079 93.6878 121.271 93.8798C121.471 94.0638 121.571 94.2958 121.571 94.5758C121.571 94.8558 121.471 95.0918 121.271 95.2838C121.079 95.4678 120.835 95.5598 120.539 95.5598ZM121.367 96.3518V103H119.687V96.3518H121.367Z" fill="#363636"/>
<path d="M126.711 96.2558C127.503 96.2558 128.143 96.5078 128.631 97.0118C129.119 97.5078 129.363 98.2038 129.363 99.0998V103H127.683V99.3278C127.683 98.7998 127.551 98.3958 127.287 98.1158C127.023 97.8278 126.663 97.6838 126.207 97.6838C125.743 97.6838 125.375 97.8278 125.103 98.1158C124.839 98.3958 124.707 98.7998 124.707 99.3278V103H123.027V96.3518H124.707V97.1798C124.931 96.8918 125.215 96.6678 125.559 96.5078C125.911 96.3398 126.295 96.2558 126.711 96.2558Z" fill="#363636"/>
<path d="M134.897 103L132.641 100.168V103H130.961V94.1198H132.641V99.1718L134.873 96.3518H137.057L134.129 99.6878L137.081 103H134.897Z" fill="#363636"/>
<path d="M138.821 95.5598C138.525 95.5598 138.277 95.4678 138.077 95.2838C137.885 95.0918 137.789 94.8558 137.789 94.5758C137.789 94.2958 137.885 94.0638 138.077 93.8798C138.277 93.6878 138.525 93.5918 138.821 93.5918C139.117 93.5918 139.361 93.6878 139.553 93.8798C139.753 94.0638 139.853 94.2958 139.853 94.5758C139.853 94.8558 139.753 95.0918 139.553 95.2838C139.361 95.4678 139.117 95.5598 138.821 95.5598ZM139.649 96.3518V103H137.969V96.3518H139.649Z" fill="#363636"/>
<path d="M144.992 96.2558C145.784 96.2558 146.424 96.5078 146.912 97.0118C147.4 97.5078 147.644 98.2038 147.644 99.0998V103H145.964V99.3278C145.964 98.7998 145.832 98.3958 145.568 98.1158C145.304 97.8278 144.944 97.6838 144.488 97.6838C144.024 97.6838 143.656 97.8278 143.384 98.1158C143.12 98.3958 142.988 98.7998 142.988 99.3278V103H141.308V96.3518H142.988V97.1798C143.212 96.8918 143.496 96.6678 143.84 96.5078C144.192 96.3398 144.576 96.2558 144.992 96.2558Z" fill="#363636"/>
<path d="M151.846 96.2438C152.342 96.2438 152.778 96.3438 153.154 96.5438C153.53 96.7358 153.826 96.9878 154.042 97.2998V96.3518H155.734V103.048C155.734 103.664 155.61 104.212 155.362 104.692C155.114 105.18 154.742 105.564 154.246 105.844C153.75 106.132 153.15 106.276 152.446 106.276C151.502 106.276 150.726 106.056 150.118 105.616C149.518 105.176 149.178 104.576 149.098 103.816H150.766C150.854 104.12 151.042 104.36 151.33 104.536C151.626 104.72 151.982 104.812 152.398 104.812C152.886 104.812 153.282 104.664 153.586 104.368C153.89 104.08 154.042 103.64 154.042 103.048V102.016C153.826 102.328 153.526 102.588 153.142 102.796C152.766 103.004 152.334 103.108 151.846 103.108C151.286 103.108 150.774 102.964 150.31 102.676C149.846 102.388 149.478 101.984 149.206 101.464C148.942 100.936 148.81 100.332 148.81 99.6518C148.81 98.9798 148.942 98.3838 149.206 97.8638C149.478 97.3438 149.842 96.9438 150.298 96.6638C150.762 96.3838 151.278 96.2438 151.846 96.2438ZM154.042 99.6758C154.042 99.2678 153.962 98.9198 153.802 98.6318C153.642 98.3358 153.426 98.1118 153.154 97.9598C152.882 97.7998 152.59 97.7198 152.278 97.7198C151.966 97.7198 151.678 97.7958 151.414 97.9478C151.15 98.0998 150.934 98.3238 150.766 98.6198C150.606 98.9078 150.526 99.2518 150.526 99.6518C150.526 100.052 150.606 100.404 150.766 100.708C150.934 101.004 151.15 101.232 151.414 101.392C151.686 101.552 151.974 101.632 152.278 101.632C152.59 101.632 152.882 101.556 153.154 101.404C153.426 101.244 153.642 101.02 153.802 100.732C153.962 100.436 154.042 100.084 154.042 99.6758Z" fill="#363636"/>
<path d="M171.43 94.6238L169.09 103H167.11L165.538 97.0358L163.894 103L161.926 103.012L159.67 94.6238H161.47L162.946 101.128L164.65 94.6238H166.522L168.13 101.092L169.618 94.6238H171.43Z" fill="#363636"/>
<path d="M178.707 99.5318C178.707 99.7718 178.691 99.9878 178.659 100.18H173.799C173.839 100.66 174.007 101.036 174.303 101.308C174.599 101.58 174.963 101.716 175.395 101.716C176.019 101.716 176.463 101.448 176.727 100.912H178.539C178.347 101.552 177.979 102.08 177.435 102.496C176.891 102.904 176.223 103.108 175.431 103.108C174.791 103.108 174.215 102.968 173.703 102.688C173.199 102.4 172.803 101.996 172.515 101.476C172.235 100.956 172.095 100.356 172.095 99.6758C172.095 98.9878 172.235 98.3838 172.515 97.8638C172.795 97.3438 173.187 96.9438 173.691 96.6638C174.195 96.3838 174.775 96.2438 175.431 96.2438C176.063 96.2438 176.627 96.3798 177.123 96.6518C177.627 96.9238 178.015 97.3118 178.287 97.8158C178.567 98.3118 178.707 98.8838 178.707 99.5318ZM176.967 99.0518C176.959 98.6198 176.803 98.2758 176.499 98.0198C176.195 97.7558 175.823 97.6238 175.383 97.6238C174.967 97.6238 174.615 97.7518 174.327 98.0078C174.047 98.2558 173.875 98.6038 173.811 99.0518H176.967Z" fill="#363636"/>
<path d="M186.113 99.5318C186.113 99.7718 186.097 99.9878 186.065 100.18H181.205C181.245 100.66 181.413 101.036 181.709 101.308C182.005 101.58 182.369 101.716 182.801 101.716C183.425 101.716 183.869 101.448 184.133 100.912H185.945C185.753 101.552 185.385 102.08 184.841 102.496C184.297 102.904 183.629 103.108 182.837 103.108C182.197 103.108 181.621 102.968 181.109 102.688C180.605 102.4 180.209 101.996 179.921 101.476C179.641 100.956 179.501 100.356 179.501 99.6758C179.501 98.9878 179.641 98.3838 179.921 97.8638C180.201 97.3438 180.593 96.9438 181.097 96.6638C181.601 96.3838 182.181 96.2438 182.837 96.2438C183.469 96.2438 184.033 96.3798 184.529 96.6518C185.033 96.9238 185.421 97.3118 185.693 97.8158C185.973 98.3118 186.113 98.8838 186.113 99.5318ZM184.373 99.0518C184.365 98.6198 184.209 98.2758 183.905 98.0198C183.601 97.7558 183.229 97.6238 182.789 97.6238C182.373 97.6238 182.021 97.7518 181.733 98.0078C181.453 98.2558 181.281 98.6038 181.217 99.0518H184.373Z" fill="#363636"/>
<path d="M191.276 103L189.02 100.168V103H187.34V94.1198H189.02V99.1718L191.252 96.3518H193.436L190.508 99.6878L193.46 103H191.276Z" fill="#363636"/>
<path d="M197.543 101.104C198.311 100.464 198.923 99.9318 199.379 99.5078C199.835 99.0758 200.215 98.6278 200.519 98.1638C200.823 97.6998 200.975 97.2438 200.975 96.7958C200.975 96.3878 200.879 96.0678 200.687 95.8358C200.495 95.6038 200.199 95.4878 199.799 95.4878C199.399 95.4878 199.091 95.6238 198.875 95.8958C198.659 96.1598 198.547 96.5238 198.539 96.9878H196.907C196.939 96.0278 197.223 95.2998 197.759 94.8038C198.303 94.3078 198.991 94.0598 199.823 94.0598C200.735 94.0598 201.435 94.3038 201.923 94.7918C202.411 95.2718 202.655 95.9078 202.655 96.6998C202.655 97.3238 202.487 97.9198 202.151 98.4878C201.815 99.0558 201.431 99.5518 200.999 99.9758C200.567 100.392 200.003 100.896 199.307 101.488H202.847V102.88H196.919V101.632L197.543 101.104Z" fill="#363636"/>
<path d="M212.789 97.1438C212.597 96.7918 212.333 96.5238 211.997 96.3398C211.661 96.1558 211.269 96.0638 210.821 96.0638C210.325 96.0638 209.885 96.1758 209.501 96.3998C209.117 96.6238 208.817 96.9438 208.601 97.3598C208.385 97.7758 208.277 98.2558 208.277 98.7998C208.277 99.3598 208.385 99.8478 208.601 100.264C208.825 100.68 209.133 101 209.525 101.224C209.917 101.448 210.373 101.56 210.893 101.56C211.533 101.56 212.057 101.392 212.465 101.056C212.873 100.712 213.141 100.236 213.269 99.6278H210.389V98.3438H214.925V99.8078C214.813 100.392 214.573 100.932 214.205 101.428C213.837 101.924 213.361 102.324 212.777 102.628C212.201 102.924 211.553 103.072 210.833 103.072C210.025 103.072 209.293 102.892 208.637 102.532C207.989 102.164 207.477 101.656 207.101 101.008C206.733 100.36 206.549 99.6238 206.549 98.7998C206.549 97.9758 206.733 97.2398 207.101 96.5918C207.477 95.9358 207.989 95.4278 208.637 95.0678C209.293 94.6998 210.021 94.5158 210.821 94.5158C211.765 94.5158 212.585 94.7478 213.281 95.2118C213.977 95.6678 214.457 96.3118 214.721 97.1438H212.789Z" fill="#363636"/>
<path d="M219.12 103.108C218.48 103.108 217.904 102.968 217.392 102.688C216.88 102.4 216.476 101.996 216.18 101.476C215.892 100.956 215.748 100.356 215.748 99.6758C215.748 98.9958 215.896 98.3958 216.192 97.8758C216.496 97.3558 216.908 96.9558 217.428 96.6758C217.948 96.3878 218.528 96.2438 219.168 96.2438C219.808 96.2438 220.388 96.3878 220.908 96.6758C221.428 96.9558 221.836 97.3558 222.132 97.8758C222.436 98.3958 222.588 98.9958 222.588 99.6758C222.588 100.356 222.432 100.956 222.12 101.476C221.816 101.996 221.4 102.4 220.872 102.688C220.352 102.968 219.768 103.108 219.12 103.108ZM219.12 101.644C219.424 101.644 219.708 101.572 219.972 101.428C220.244 101.276 220.46 101.052 220.62 100.756C220.78 100.46 220.86 100.1 220.86 99.6758C220.86 99.0438 220.692 98.5598 220.356 98.2238C220.028 97.8798 219.624 97.7078 219.144 97.7078C218.664 97.7078 218.26 97.8798 217.932 98.2238C217.612 98.5598 217.452 99.0438 217.452 99.6758C217.452 100.308 217.608 100.796 217.92 101.14C218.24 101.476 218.64 101.644 219.12 101.644Z" fill="#363636"/>
<path d="M223.388 99.6518C223.388 98.9798 223.52 98.3838 223.784 97.8638C224.056 97.3438 224.42 96.9438 224.876 96.6638C225.34 96.3838 225.856 96.2438 226.424 96.2438C226.92 96.2438 227.352 96.3438 227.72 96.5438C228.096 96.7438 228.396 96.9958 228.62 97.2998V96.3518H230.312V103H228.62V102.028C228.404 102.34 228.104 102.6 227.72 102.808C227.344 103.008 226.908 103.108 226.412 103.108C225.852 103.108 225.34 102.964 224.876 102.676C224.42 102.388 224.056 101.984 223.784 101.464C223.52 100.936 223.388 100.332 223.388 99.6518ZM228.62 99.6758C228.62 99.2678 228.54 98.9198 228.38 98.6318C228.22 98.3358 228.004 98.1118 227.732 97.9598C227.46 97.7998 227.168 97.7198 226.856 97.7198C226.544 97.7198 226.256 97.7958 225.992 97.9478C225.728 98.0998 225.512 98.3238 225.344 98.6198C225.184 98.9078 225.104 99.2518 225.104 99.6518C225.104 100.052 225.184 100.404 225.344 100.708C225.512 101.004 225.728 101.232 225.992 101.392C226.264 101.552 226.552 101.632 226.856 101.632C227.168 101.632 227.46 101.556 227.732 101.404C228.004 101.244 228.22 101.02 228.38 100.732C228.54 100.436 228.62 100.084 228.62 99.6758Z" fill="#363636"/>
<path d="M233.633 94.1198V103H231.953V94.1198H233.633Z" fill="#363636"/>
<path d="M237.837 103.108C237.293 103.108 236.805 103.012 236.373 102.82C235.941 102.62 235.597 102.352 235.341 102.016C235.093 101.68 234.957 101.308 234.933 100.9H236.625C236.657 101.156 236.781 101.368 236.997 101.536C237.221 101.704 237.497 101.788 237.825 101.788C238.145 101.788 238.393 101.724 238.569 101.596C238.753 101.468 238.845 101.304 238.845 101.104C238.845 100.888 238.733 100.728 238.509 100.624C238.293 100.512 237.945 100.392 237.465 100.264C236.969 100.144 236.561 100.02 236.241 99.8918C235.929 99.7638 235.657 99.5678 235.425 99.3038C235.201 99.0398 235.089 98.6838 235.089 98.2358C235.089 97.8678 235.193 97.5318 235.401 97.2278C235.617 96.9238 235.921 96.6838 236.313 96.5078C236.713 96.3318 237.181 96.2438 237.717 96.2438C238.509 96.2438 239.141 96.4438 239.613 96.8438C240.085 97.2358 240.345 97.7678 240.393 98.4398H238.785C238.761 98.1758 238.649 97.9678 238.449 97.8158C238.257 97.6558 237.997 97.5758 237.669 97.5758C237.365 97.5758 237.129 97.6318 236.961 97.7438C236.801 97.8558 236.721 98.0118 236.721 98.2118C236.721 98.4358 236.833 98.6078 237.057 98.7278C237.281 98.8398 237.629 98.9558 238.101 99.0758C238.581 99.1958 238.977 99.3198 239.289 99.4478C239.601 99.5758 239.869 99.7758 240.093 100.048C240.325 100.312 240.445 100.664 240.453 101.104C240.453 101.488 240.345 101.832 240.129 102.136C239.921 102.44 239.617 102.68 239.217 102.856C238.825 103.024 238.365 103.108 237.837 103.108Z" fill="#363636"/>
<path d="M143.328 148L141.336 144.58H140.016V148H138.924V139.636H141.624C142.256 139.636 142.788 139.744 143.22 139.96C143.66 140.176 143.988 140.468 144.204 140.836C144.42 141.204 144.528 141.624 144.528 142.096C144.528 142.672 144.36 143.18 144.024 143.62C143.696 144.06 143.2 144.352 142.536 144.496L144.636 148H143.328ZM140.016 143.704H141.624C142.216 143.704 142.66 143.56 142.956 143.272C143.252 142.976 143.4 142.584 143.4 142.096C143.4 141.6 143.252 141.216 142.956 140.944C142.668 140.672 142.224 140.536 141.624 140.536H140.016V143.704Z" fill="#363636"/>
<path d="M152.225 144.46C152.225 144.668 152.213 144.888 152.189 145.12H146.933C146.973 145.768 147.193 146.276 147.593 146.644C148.001 147.004 148.493 147.184 149.069 147.184C149.541 147.184 149.933 147.076 150.245 146.86C150.565 146.636 150.789 146.34 150.917 145.972H152.093C151.917 146.604 151.565 147.12 151.037 147.52C150.509 147.912 149.853 148.108 149.069 148.108C148.445 148.108 147.885 147.968 147.389 147.688C146.901 147.408 146.517 147.012 146.237 146.5C145.957 145.98 145.817 145.38 145.817 144.7C145.817 144.02 145.953 143.424 146.225 142.912C146.497 142.4 146.877 142.008 147.365 141.736C147.861 141.456 148.429 141.316 149.069 141.316C149.693 141.316 150.245 141.452 150.725 141.724C151.205 141.996 151.573 142.372 151.829 142.852C152.093 143.324 152.225 143.86 152.225 144.46ZM151.097 144.232C151.097 143.816 151.005 143.46 150.821 143.164C150.637 142.86 150.385 142.632 150.065 142.48C149.753 142.32 149.405 142.24 149.021 142.24C148.469 142.24 147.997 142.416 147.605 142.768C147.221 143.12 147.001 143.608 146.945 144.232H151.097Z" fill="#363636"/>
<path d="M153.258 144.688C153.258 144.016 153.394 143.428 153.666 142.924C153.938 142.412 154.31 142.016 154.782 141.736C155.262 141.456 155.794 141.316 156.378 141.316C156.954 141.316 157.454 141.44 157.878 141.688C158.302 141.936 158.618 142.248 158.826 142.624V141.424H159.93V148H158.826V146.776C158.61 147.16 158.286 147.48 157.854 147.736C157.43 147.984 156.934 148.108 156.366 148.108C155.782 148.108 155.254 147.964 154.782 147.676C154.31 147.388 153.938 146.984 153.666 146.464C153.394 145.944 153.258 145.352 153.258 144.688ZM158.826 144.7C158.826 144.204 158.726 143.772 158.526 143.404C158.326 143.036 158.054 142.756 157.71 142.564C157.374 142.364 157.002 142.264 156.594 142.264C156.186 142.264 155.814 142.36 155.478 142.552C155.142 142.744 154.874 143.024 154.674 143.392C154.474 143.76 154.374 144.192 154.374 144.688C154.374 145.192 154.474 145.632 154.674 146.008C154.874 146.376 155.142 146.66 155.478 146.86C155.814 147.052 156.186 147.148 156.594 147.148C157.002 147.148 157.374 147.052 157.71 146.86C158.054 146.66 158.326 146.376 158.526 146.008C158.726 145.632 158.826 145.196 158.826 144.7Z" fill="#363636"/>
<path d="M161.368 144.688C161.368 144.016 161.504 143.428 161.776 142.924C162.048 142.412 162.42 142.016 162.892 141.736C163.372 141.456 163.908 141.316 164.5 141.316C165.012 141.316 165.488 141.436 165.928 141.676C166.368 141.908 166.704 142.216 166.936 142.6V139.12H168.04V148H166.936V146.764C166.72 147.156 166.4 147.48 165.976 147.736C165.552 147.984 165.056 148.108 164.488 148.108C163.904 148.108 163.372 147.964 162.892 147.676C162.42 147.388 162.048 146.984 161.776 146.464C161.504 145.944 161.368 145.352 161.368 144.688ZM166.936 144.7C166.936 144.204 166.836 143.772 166.636 143.404C166.436 143.036 166.164 142.756 165.82 142.564C165.484 142.364 165.112 142.264 164.704 142.264C164.296 142.264 163.924 142.36 163.588 142.552C163.252 142.744 162.984 143.024 162.784 143.392C162.584 143.76 162.484 144.192 162.484 144.688C162.484 145.192 162.584 145.632 162.784 146.008C162.984 146.376 163.252 146.66 163.588 146.86C163.924 147.052 164.296 147.148 164.704 147.148C165.112 147.148 165.484 147.052 165.82 146.86C166.164 146.66 166.436 146.376 166.636 146.008C166.836 145.632 166.936 145.196 166.936 144.7Z" fill="#363636"/>
<path d="M173.672 142.36H172.448L173.6 139.636H174.38L173.672 142.36ZM175.616 142.36H174.392L175.544 139.636H176.324L175.616 142.36Z" fill="#363636"/>
<path d="M177.235 143.812C177.235 142.996 177.419 142.264 177.787 141.616C178.155 140.96 178.655 140.448 179.287 140.08C179.927 139.712 180.635 139.528 181.411 139.528C182.323 139.528 183.119 139.748 183.799 140.188C184.479 140.628 184.975 141.252 185.287 142.06H183.979C183.747 141.556 183.411 141.168 182.971 140.896C182.539 140.624 182.019 140.488 181.411 140.488C180.827 140.488 180.303 140.624 179.839 140.896C179.375 141.168 179.011 141.556 178.747 142.06C178.483 142.556 178.351 143.14 178.351 143.812C178.351 144.476 178.483 145.06 178.747 145.564C179.011 146.06 179.375 146.444 179.839 146.716C180.303 146.988 180.827 147.124 181.411 147.124C182.019 147.124 182.539 146.992 182.971 146.728C183.411 146.456 183.747 146.068 183.979 145.564H185.287C184.975 146.364 184.479 146.984 183.799 147.424C183.119 147.856 182.323 148.072 181.411 148.072C180.635 148.072 179.927 147.892 179.287 147.532C178.655 147.164 178.155 146.656 177.787 146.008C177.419 145.36 177.235 144.628 177.235 143.812Z" fill="#363636"/>
<path d="M190.176 141.304C190.672 141.304 191.12 141.412 191.52 141.628C191.92 141.836 192.232 142.152 192.456 142.576C192.688 143 192.804 143.516 192.804 144.124V148H191.724V144.28C191.724 143.624 191.56 143.124 191.232 142.78C190.904 142.428 190.456 142.252 189.888 142.252C189.312 142.252 188.852 142.432 188.508 142.792C188.172 143.152 188.004 143.676 188.004 144.364V148H186.912V139.12H188.004V142.36C188.22 142.024 188.516 141.764 188.892 141.58C189.276 141.396 189.704 141.304 190.176 141.304Z" fill="#363636"/>
<path d="M194.18 144.688C194.18 144.016 194.316 143.428 194.588 142.924C194.86 142.412 195.232 142.016 195.704 141.736C196.184 141.456 196.716 141.316 197.3 141.316C197.876 141.316 198.376 141.44 198.8 141.688C199.224 141.936 199.54 142.248 199.748 142.624V141.424H200.852V148H199.748V146.776C199.532 147.16 199.208 147.48 198.776 147.736C198.352 147.984 197.856 148.108 197.288 148.108C196.704 148.108 196.176 147.964 195.704 147.676C195.232 147.388 194.86 146.984 194.588 146.464C194.316 145.944 194.18 145.352 194.18 144.688ZM199.748 144.7C199.748 144.204 199.648 143.772 199.448 143.404C199.248 143.036 198.976 142.756 198.632 142.564C198.296 142.364 197.924 142.264 197.516 142.264C197.108 142.264 196.736 142.36 196.4 142.552C196.064 142.744 195.796 143.024 195.596 143.392C195.396 143.76 195.296 144.192 195.296 144.688C195.296 145.192 195.396 145.632 195.596 146.008C195.796 146.376 196.064 146.66 196.4 146.86C196.736 147.052 197.108 147.148 197.516 147.148C197.924 147.148 198.296 147.052 198.632 146.86C198.976 146.66 199.248 146.376 199.448 146.008C199.648 145.632 199.748 145.196 199.748 144.7Z" fill="#363636"/>
<path d="M205.901 141.304C206.701 141.304 207.349 141.548 207.845 142.036C208.341 142.516 208.589 143.212 208.589 144.124V148H207.509V144.28C207.509 143.624 207.345 143.124 207.017 142.78C206.689 142.428 206.241 142.252 205.673 142.252C205.097 142.252 204.637 142.432 204.293 142.792C203.957 143.152 203.789 143.676 203.789 144.364V148H202.697V141.424H203.789V142.36C204.005 142.024 204.297 141.764 204.665 141.58C205.041 141.396 205.453 141.304 205.901 141.304Z" fill="#363636"/>
<path d="M213.085 141.316C213.653 141.316 214.149 141.44 214.573 141.688C215.005 141.936 215.325 142.248 215.533 142.624V141.424H216.637V148.144C216.637 148.744 216.509 149.276 216.253 149.74C215.997 150.212 215.629 150.58 215.149 150.844C214.677 151.108 214.125 151.24 213.493 151.24C212.629 151.24 211.909 151.036 211.333 150.628C210.757 150.22 210.417 149.664 210.313 148.96H211.393C211.513 149.36 211.761 149.68 212.137 149.92C212.513 150.168 212.965 150.292 213.493 150.292C214.093 150.292 214.581 150.104 214.957 149.728C215.341 149.352 215.533 148.824 215.533 148.144V146.764C215.317 147.148 214.997 147.468 214.573 147.724C214.149 147.98 213.653 148.108 213.085 148.108C212.501 148.108 211.969 147.964 211.489 147.676C211.017 147.388 210.645 146.984 210.373 146.464C210.101 145.944 209.965 145.352 209.965 144.688C209.965 144.016 210.101 143.428 210.373 142.924C210.645 142.412 211.017 142.016 211.489 141.736C211.969 141.456 212.501 141.316 213.085 141.316ZM215.533 144.7C215.533 144.204 215.433 143.772 215.233 143.404C215.033 143.036 214.761 142.756 214.417 142.564C214.081 142.364 213.709 142.264 213.301 142.264C212.893 142.264 212.521 142.36 212.185 142.552C211.849 142.744 211.581 143.024 211.381 143.392C211.181 143.76 211.081 144.192 211.081 144.688C211.081 145.192 211.181 145.632 211.381 146.008C211.581 146.376 211.849 146.66 212.185 146.86C212.521 147.052 212.893 147.148 213.301 147.148C213.709 147.148 214.081 147.052 214.417 146.86C214.761 146.66 215.033 146.376 215.233 146.008C215.433 145.632 215.533 145.196 215.533 144.7Z" fill="#363636"/>
<path d="M224.483 144.46C224.483 144.668 224.471 144.888 224.447 145.12H219.191C219.231 145.768 219.451 146.276 219.851 146.644C220.259 147.004 220.751 147.184 221.327 147.184C221.799 147.184 222.191 147.076 222.503 146.86C222.823 146.636 223.047 146.34 223.175 145.972H224.351C224.175 146.604 223.823 147.12 223.295 147.52C222.767 147.912 222.111 148.108 221.327 148.108C220.703 148.108 220.143 147.968 219.647 147.688C219.159 147.408 218.775 147.012 218.495 146.5C218.215 145.98 218.075 145.38 218.075 144.7C218.075 144.02 218.211 143.424 218.483 142.912C218.755 142.4 219.135 142.008 219.623 141.736C220.119 141.456 220.687 141.316 221.327 141.316C221.951 141.316 222.503 141.452 222.983 141.724C223.463 141.996 223.831 142.372 224.087 142.852C224.351 143.324 224.483 143.86 224.483 144.46ZM223.355 144.232C223.355 143.816 223.263 143.46 223.079 143.164C222.895 142.86 222.643 142.632 222.323 142.48C222.011 142.32 221.663 142.24 221.279 142.24C220.727 142.24 220.255 142.416 219.863 142.768C219.479 143.12 219.259 143.608 219.203 144.232H223.355Z" fill="#363636"/>
<path d="M230.215 142.648C230.439 142.256 230.767 141.936 231.199 141.688C231.631 141.44 232.123 141.316 232.675 141.316C233.267 141.316 233.799 141.456 234.271 141.736C234.743 142.016 235.115 142.412 235.387 142.924C235.659 143.428 235.795 144.016 235.795 144.688C235.795 145.352 235.659 145.944 235.387 146.464C235.115 146.984 234.739 147.388 234.259 147.676C233.787 147.964 233.259 148.108 232.675 148.108C232.107 148.108 231.607 147.984 231.175 147.736C230.751 147.488 230.431 147.172 230.215 146.788V148H229.123V139.12H230.215V142.648ZM234.679 144.688C234.679 144.192 234.579 143.76 234.379 143.392C234.179 143.024 233.907 142.744 233.563 142.552C233.227 142.36 232.855 142.264 232.447 142.264C232.047 142.264 231.675 142.364 231.331 142.564C230.995 142.756 230.723 143.04 230.515 143.416C230.315 143.784 230.215 144.212 230.215 144.7C230.215 145.196 230.315 145.632 230.515 146.008C230.723 146.376 230.995 146.66 231.331 146.86C231.675 147.052 232.047 147.148 232.447 147.148C232.855 147.148 233.227 147.052 233.563 146.86C233.907 146.66 234.179 146.376 234.379 146.008C234.579 145.632 234.679 145.192 234.679 144.688Z" fill="#363636"/>
<path d="M242.897 141.424L238.937 151.096H237.809L239.105 147.928L236.453 141.424H237.665L239.729 146.752L241.769 141.424H242.897Z" fill="#363636"/>
<path d="M246.786 144.688C246.786 144.016 246.922 143.428 247.194 142.924C247.466 142.412 247.838 142.016 248.31 141.736C248.79 141.456 249.326 141.316 249.918 141.316C250.43 141.316 250.906 141.436 251.346 141.676C251.786 141.908 252.122 142.216 252.354 142.6V139.12H253.458V148H252.354V146.764C252.138 147.156 251.818 147.48 251.394 147.736C250.97 147.984 250.474 148.108 249.906 148.108C249.322 148.108 248.79 147.964 248.31 147.676C247.838 147.388 247.466 146.984 247.194 146.464C246.922 145.944 246.786 145.352 246.786 144.688ZM252.354 144.7C252.354 144.204 252.254 143.772 252.054 143.404C251.854 143.036 251.582 142.756 251.238 142.564C250.902 142.364 250.53 142.264 250.122 142.264C249.714 142.264 249.342 142.36 249.006 142.552C248.67 142.744 248.402 143.024 248.202 143.392C248.002 143.76 247.902 144.192 247.902 144.688C247.902 145.192 248.002 145.632 248.202 146.008C248.402 146.376 248.67 146.66 249.006 146.86C249.342 147.052 249.714 147.148 250.122 147.148C250.53 147.148 250.902 147.052 251.238 146.86C251.582 146.66 251.854 146.376 252.054 146.008C252.254 145.632 252.354 145.196 252.354 144.7Z" fill="#363636"/>
<path d="M261.303 144.46C261.303 144.668 261.291 144.888 261.267 145.12H256.011C256.051 145.768 256.271 146.276 256.671 146.644C257.079 147.004 257.571 147.184 258.147 147.184C258.619 147.184 259.011 147.076 259.323 146.86C259.643 146.636 259.867 146.34 259.995 145.972H261.171C260.995 146.604 260.643 147.12 260.115 147.52C259.587 147.912 258.931 148.108 258.147 148.108C257.523 148.108 256.963 147.968 256.467 147.688C255.979 147.408 255.595 147.012 255.315 146.5C255.035 145.98 254.895 145.38 254.895 144.7C254.895 144.02 255.031 143.424 255.303 142.912C255.575 142.4 255.955 142.008 256.443 141.736C256.939 141.456 257.507 141.316 258.147 141.316C258.771 141.316 259.323 141.452 259.803 141.724C260.283 141.996 260.651 142.372 260.907 142.852C261.171 143.324 261.303 143.86 261.303 144.46ZM260.175 144.232C260.175 143.816 260.083 143.46 259.899 143.164C259.715 142.86 259.463 142.632 259.143 142.48C258.831 142.32 258.483 142.24 258.099 142.24C257.547 142.24 257.075 142.416 256.683 142.768C256.299 143.12 256.079 143.608 256.023 144.232H260.175Z" fill="#363636"/>
<path d="M265.072 148.108C264.568 148.108 264.116 148.024 263.716 147.856C263.316 147.68 263 147.44 262.768 147.136C262.536 146.824 262.408 146.468 262.384 146.068H263.512C263.544 146.396 263.696 146.664 263.968 146.872C264.248 147.08 264.612 147.184 265.06 147.184C265.476 147.184 265.804 147.092 266.044 146.908C266.284 146.724 266.404 146.492 266.404 146.212C266.404 145.924 266.276 145.712 266.02 145.576C265.764 145.432 265.368 145.292 264.832 145.156C264.344 145.028 263.944 144.9 263.632 144.772C263.328 144.636 263.064 144.44 262.84 144.184C262.624 143.92 262.516 143.576 262.516 143.152C262.516 142.816 262.616 142.508 262.816 142.228C263.016 141.948 263.3 141.728 263.668 141.568C264.036 141.4 264.456 141.316 264.928 141.316C265.656 141.316 266.244 141.5 266.692 141.868C267.14 142.236 267.38 142.74 267.412 143.38H266.32C266.296 143.036 266.156 142.76 265.9 142.552C265.652 142.344 265.316 142.24 264.892 142.24C264.5 142.24 264.188 142.324 263.956 142.492C263.724 142.66 263.608 142.88 263.608 143.152C263.608 143.368 263.676 143.548 263.812 143.692C263.956 143.828 264.132 143.94 264.34 144.028C264.556 144.108 264.852 144.2 265.228 144.304C265.7 144.432 266.084 144.56 266.38 144.688C266.676 144.808 266.928 144.992 267.136 145.24C267.352 145.488 267.464 145.812 267.472 146.212C267.472 146.572 267.372 146.896 267.172 147.184C266.972 147.472 266.688 147.7 266.32 147.868C265.96 148.028 265.544 148.108 265.072 148.108Z" fill="#363636"/>
<path d="M269.578 140.356C269.37 140.356 269.194 140.284 269.05 140.14C268.906 139.996 268.834 139.82 268.834 139.612C268.834 139.404 268.906 139.228 269.05 139.084C269.194 138.94 269.37 138.868 269.578 138.868C269.778 138.868 269.946 138.94 270.082 139.084C270.226 139.228 270.298 139.404 270.298 139.612C270.298 139.82 270.226 139.996 270.082 140.14C269.946 140.284 269.778 140.356 269.578 140.356ZM270.106 141.424V148H269.014V141.424H270.106Z" fill="#363636"/>
<path d="M274.679 141.316C275.247 141.316 275.743 141.44 276.167 141.688C276.599 141.936 276.919 142.248 277.127 142.624V141.424H278.231V148.144C278.231 148.744 278.103 149.276 277.847 149.74C277.591 150.212 277.223 150.58 276.743 150.844C276.271 151.108 275.719 151.24 275.087 151.24C274.223 151.24 273.503 151.036 272.927 150.628C272.351 150.22 272.011 149.664 271.907 148.96H272.987C273.107 149.36 273.355 149.68 273.731 149.92C274.107 150.168 274.559 150.292 275.087 150.292C275.687 150.292 276.175 150.104 276.551 149.728C276.935 149.352 277.127 148.824 277.127 148.144V146.764C276.911 147.148 276.591 147.468 276.167 147.724C275.743 147.98 275.247 148.108 274.679 148.108C274.095 148.108 273.563 147.964 273.083 147.676C272.611 147.388 272.239 146.984 271.967 146.464C271.695 145.944 271.559 145.352 271.559 144.688C271.559 144.016 271.695 143.428 271.967 142.924C272.239 142.412 272.611 142.016 273.083 141.736C273.563 141.456 274.095 141.316 274.679 141.316ZM277.127 144.7C277.127 144.204 277.027 143.772 276.827 143.404C276.627 143.036 276.355 142.756 276.011 142.564C275.675 142.364 275.303 142.264 274.895 142.264C274.487 142.264 274.115 142.36 273.779 142.552C273.443 142.744 273.175 143.024 272.975 143.392C272.775 143.76 272.675 144.192 272.675 144.688C272.675 145.192 272.775 145.632 272.975 146.008C273.175 146.376 273.443 146.66 273.779 146.86C274.115 147.052 274.487 147.148 274.895 147.148C275.303 147.148 275.675 147.052 276.011 146.86C276.355 146.66 276.627 146.376 276.827 146.008C277.027 145.632 277.127 145.196 277.127 144.7Z" fill="#363636"/>
<path d="M283.28 141.304C284.08 141.304 284.728 141.548 285.224 142.036C285.72 142.516 285.968 143.212 285.968 144.124V148H284.888V144.28C284.888 143.624 284.724 143.124 284.396 142.78C284.068 142.428 283.62 142.252 283.052 142.252C282.476 142.252 282.016 142.432 281.672 142.792C281.336 143.152 281.168 143.676 281.168 144.364V148H280.076V141.424H281.168V142.36C281.384 142.024 281.676 141.764 282.044 141.58C282.42 141.396 282.832 141.304 283.28 141.304Z" fill="#363636"/>
<path d="M287.92 139.636H289.132L287.98 142.36H287.212L287.92 139.636ZM289.864 139.636H291.076L289.924 142.36H289.144L289.864 139.636Z" fill="#363636"/>
<path d="M143.328 184L141.336 180.58H140.016V184H138.924V175.636H141.624C142.256 175.636 142.788 175.744 143.22 175.96C143.66 176.176 143.988 176.468 144.204 176.836C144.42 177.204 144.528 177.624 144.528 178.096C144.528 178.672 144.36 179.18 144.024 179.62C143.696 180.06 143.2 180.352 142.536 180.496L144.636 184H143.328ZM140.016 179.704H141.624C142.216 179.704 142.66 179.56 142.956 179.272C143.252 178.976 143.4 178.584 143.4 178.096C143.4 177.6 143.252 177.216 142.956 176.944C142.668 176.672 142.224 176.536 141.624 176.536H140.016V179.704Z" fill="#363636"/>
<path d="M152.225 180.46C152.225 180.668 152.213 180.888 152.189 181.12H146.933C146.973 181.768 147.193 182.276 147.593 182.644C148.001 183.004 148.493 183.184 149.069 183.184C149.541 183.184 149.933 183.076 150.245 182.86C150.565 182.636 150.789 182.34 150.917 181.972H152.093C151.917 182.604 151.565 183.12 151.037 183.52C150.509 183.912 149.853 184.108 149.069 184.108C148.445 184.108 147.885 183.968 147.389 183.688C146.901 183.408 146.517 183.012 146.237 182.5C145.957 181.98 145.817 181.38 145.817 180.7C145.817 180.02 145.953 179.424 146.225 178.912C146.497 178.4 146.877 178.008 147.365 177.736C147.861 177.456 148.429 177.316 149.069 177.316C149.693 177.316 150.245 177.452 150.725 177.724C151.205 177.996 151.573 178.372 151.829 178.852C152.093 179.324 152.225 179.86 152.225 180.46ZM151.097 180.232C151.097 179.816 151.005 179.46 150.821 179.164C150.637 178.86 150.385 178.632 150.065 178.48C149.753 178.32 149.405 178.24 149.021 178.24C148.469 178.24 147.997 178.416 147.605 178.768C147.221 179.12 147.001 179.608 146.945 180.232H151.097Z" fill="#363636"/>
<path d="M155.994 184.108C155.49 184.108 155.038 184.024 154.638 183.856C154.238 183.68 153.922 183.44 153.69 183.136C153.458 182.824 153.33 182.468 153.306 182.068H154.434C154.466 182.396 154.618 182.664 154.89 182.872C155.17 183.08 155.534 183.184 155.982 183.184C156.398 183.184 156.726 183.092 156.966 182.908C157.206 182.724 157.326 182.492 157.326 182.212C157.326 181.924 157.198 181.712 156.942 181.576C156.686 181.432 156.29 181.292 155.754 181.156C155.266 181.028 154.866 180.9 154.554 180.772C154.25 180.636 153.986 180.44 153.762 180.184C153.546 179.92 153.438 179.576 153.438 179.152C153.438 178.816 153.538 178.508 153.738 178.228C153.938 177.948 154.222 177.728 154.59 177.568C154.958 177.4 155.378 177.316 155.85 177.316C156.578 177.316 157.166 177.5 157.614 177.868C158.062 178.236 158.302 178.74 158.334 179.38H157.242C157.218 179.036 157.078 178.76 156.822 178.552C156.574 178.344 156.238 178.24 155.814 178.24C155.422 178.24 155.11 178.324 154.878 178.492C154.646 178.66 154.53 178.88 154.53 179.152C154.53 179.368 154.598 179.548 154.734 179.692C154.878 179.828 155.054 179.94 155.262 180.028C155.478 180.108 155.774 180.2 156.15 180.304C156.622 180.432 157.006 180.56 157.302 180.688C157.598 180.808 157.85 180.992 158.058 181.24C158.274 181.488 158.386 181.812 158.394 182.212C158.394 182.572 158.294 182.896 158.094 183.184C157.894 183.472 157.61 183.7 157.242 183.868C156.882 184.028 156.466 184.108 155.994 184.108Z" fill="#363636"/>
<path d="M165.936 180.46C165.936 180.668 165.924 180.888 165.9 181.12H160.644C160.684 181.768 160.904 182.276 161.304 182.644C161.712 183.004 162.204 183.184 162.78 183.184C163.252 183.184 163.644 183.076 163.956 182.86C164.276 182.636 164.5 182.34 164.628 181.972H165.804C165.628 182.604 165.276 183.12 164.748 183.52C164.22 183.912 163.564 184.108 162.78 184.108C162.156 184.108 161.596 183.968 161.1 183.688C160.612 183.408 160.228 183.012 159.948 182.5C159.668 181.98 159.528 181.38 159.528 180.7C159.528 180.02 159.664 179.424 159.936 178.912C160.208 178.4 160.588 178.008 161.076 177.736C161.572 177.456 162.14 177.316 162.78 177.316C163.404 177.316 163.956 177.452 164.436 177.724C164.916 177.996 165.284 178.372 165.54 178.852C165.804 179.324 165.936 179.86 165.936 180.46ZM164.808 180.232C164.808 179.816 164.716 179.46 164.532 179.164C164.348 178.86 164.096 178.632 163.776 178.48C163.464 178.32 163.116 178.24 162.732 178.24C162.18 178.24 161.708 178.416 161.316 178.768C160.932 179.12 160.712 179.608 160.656 180.232H164.808Z" fill="#363636"/>
<path d="M166.969 180.688C166.969 180.016 167.105 179.428 167.377 178.924C167.649 178.412 168.021 178.016 168.493 177.736C168.973 177.456 169.505 177.316 170.089 177.316C170.665 177.316 171.165 177.44 171.589 177.688C172.013 177.936 172.329 178.248 172.537 178.624V177.424H173.641V184H172.537V182.776C172.321 183.16 171.997 183.48 171.565 183.736C171.141 183.984 170.645 184.108 170.077 184.108C169.493 184.108 168.965 183.964 168.493 183.676C168.021 183.388 167.649 182.984 167.377 182.464C167.105 181.944 166.969 181.352 166.969 180.688ZM172.537 180.7C172.537 180.204 172.437 179.772 172.237 179.404C172.037 179.036 171.765 178.756 171.421 178.564C171.085 178.364 170.713 178.264 170.305 178.264C169.897 178.264 169.525 178.36 169.189 178.552C168.853 178.744 168.585 179.024 168.385 179.392C168.185 179.76 168.085 180.192 168.085 180.688C168.085 181.192 168.185 181.632 168.385 182.008C168.585 182.376 168.853 182.66 169.189 182.86C169.525 183.052 169.897 183.148 170.305 183.148C170.713 183.148 171.085 183.052 171.421 182.86C171.765 182.66 172.037 182.376 172.237 182.008C172.437 181.632 172.537 181.196 172.537 180.7Z" fill="#363636"/>
<path d="M176.579 178.492C176.771 178.116 177.043 177.824 177.395 177.616C177.755 177.408 178.191 177.304 178.703 177.304V178.432H178.415C177.191 178.432 176.579 179.096 176.579 180.424V184H175.487V177.424H176.579V178.492Z" fill="#363636"/>
<path d="M179.555 180.7C179.555 180.02 179.691 179.428 179.963 178.924C180.235 178.412 180.611 178.016 181.091 177.736C181.579 177.456 182.135 177.316 182.759 177.316C183.567 177.316 184.231 177.512 184.751 177.904C185.279 178.296 185.627 178.84 185.795 179.536H184.619C184.507 179.136 184.287 178.82 183.959 178.588C183.639 178.356 183.239 178.24 182.759 178.24C182.135 178.24 181.631 178.456 181.247 178.888C180.863 179.312 180.671 179.916 180.671 180.7C180.671 181.492 180.863 182.104 181.247 182.536C181.631 182.968 182.135 183.184 182.759 183.184C183.239 183.184 183.639 183.072 183.959 182.848C184.279 182.624 184.499 182.304 184.619 181.888H185.795C185.619 182.56 185.267 183.1 184.739 183.508C184.211 183.908 183.551 184.108 182.759 184.108C182.135 184.108 181.579 183.968 181.091 183.688C180.611 183.408 180.235 183.012 179.963 182.5C179.691 181.988 179.555 181.388 179.555 180.7Z" fill="#363636"/>
<path d="M190.516 177.304C191.012 177.304 191.46 177.412 191.86 177.628C192.26 177.836 192.572 178.152 192.796 178.576C193.028 179 193.144 179.516 193.144 180.124V184H192.064V180.28C192.064 179.624 191.9 179.124 191.572 178.78C191.244 178.428 190.796 178.252 190.228 178.252C189.652 178.252 189.192 178.432 188.848 178.792C188.512 179.152 188.344 179.676 188.344 180.364V184H187.252V175.12H188.344V178.36C188.56 178.024 188.856 177.764 189.232 177.58C189.616 177.396 190.044 177.304 190.516 177.304Z" fill="#363636"/>
<path d="M197.719 180.7C197.719 180.02 197.855 179.428 198.127 178.924C198.399 178.412 198.775 178.016 199.255 177.736C199.743 177.456 200.299 177.316 200.923 177.316C201.731 177.316 202.395 177.512 202.915 177.904C203.443 178.296 203.791 178.84 203.959 179.536H202.783C202.671 179.136 202.451 178.82 202.123 178.588C201.803 178.356 201.403 178.24 200.923 178.24C200.299 178.24 199.795 178.456 199.411 178.888C199.027 179.312 198.835 179.916 198.835 180.7C198.835 181.492 199.027 182.104 199.411 182.536C199.795 182.968 200.299 183.184 200.923 183.184C201.403 183.184 201.803 183.072 202.123 182.848C202.443 182.624 202.663 182.304 202.783 181.888H203.959C203.783 182.56 203.431 183.1 202.903 183.508C202.375 183.908 201.715 184.108 200.923 184.108C200.299 184.108 199.743 183.968 199.255 183.688C198.775 183.408 198.399 183.012 198.127 182.5C197.855 181.988 197.719 181.388 197.719 180.7Z" fill="#363636"/>
<path d="M211.248 177.424V184H210.156V183.028C209.948 183.364 209.656 183.628 209.28 183.82C208.912 184.004 208.504 184.096 208.056 184.096C207.544 184.096 207.084 183.992 206.676 183.784C206.268 183.568 205.944 183.248 205.704 182.824C205.472 182.4 205.356 181.884 205.356 181.276V177.424H206.436V181.132C206.436 181.78 206.6 182.28 206.928 182.632C207.256 182.976 207.704 183.148 208.272 183.148C208.856 183.148 209.316 182.968 209.652 182.608C209.988 182.248 210.156 181.724 210.156 181.036V177.424H211.248Z" fill="#363636"/>
<path d="M215.42 184.108C214.916 184.108 214.464 184.024 214.064 183.856C213.664 183.68 213.348 183.44 213.116 183.136C212.884 182.824 212.756 182.468 212.732 182.068H213.86C213.892 182.396 214.044 182.664 214.316 182.872C214.596 183.08 214.96 183.184 215.408 183.184C215.824 183.184 216.152 183.092 216.392 182.908C216.632 182.724 216.752 182.492 216.752 182.212C216.752 181.924 216.624 181.712 216.368 181.576C216.112 181.432 215.716 181.292 215.18 181.156C214.692 181.028 214.292 180.9 213.98 180.772C213.676 180.636 213.412 180.44 213.188 180.184C212.972 179.92 212.864 179.576 212.864 179.152C212.864 178.816 212.964 178.508 213.164 178.228C213.364 177.948 213.648 177.728 214.016 177.568C214.384 177.4 214.804 177.316 215.276 177.316C216.004 177.316 216.592 177.5 217.04 177.868C217.488 178.236 217.728 178.74 217.76 179.38H216.668C216.644 179.036 216.504 178.76 216.248 178.552C216 178.344 215.664 178.24 215.24 178.24C214.848 178.24 214.536 178.324 214.304 178.492C214.072 178.66 213.956 178.88 213.956 179.152C213.956 179.368 214.024 179.548 214.16 179.692C214.304 179.828 214.48 179.94 214.688 180.028C214.904 180.108 215.2 180.2 215.576 180.304C216.048 180.432 216.432 180.56 216.728 180.688C217.024 180.808 217.276 180.992 217.484 181.24C217.7 181.488 217.812 181.812 217.82 182.212C217.82 182.572 217.72 182.896 217.52 183.184C217.32 183.472 217.036 183.7 216.668 183.868C216.308 184.028 215.892 184.108 215.42 184.108Z" fill="#363636"/>
<path d="M220.694 178.324V182.2C220.694 182.52 220.762 182.748 220.898 182.884C221.034 183.012 221.27 183.076 221.606 183.076H222.41V184H221.426C220.818 184 220.362 183.86 220.058 183.58C219.754 183.3 219.602 182.84 219.602 182.2V178.324H218.75V177.424H219.602V175.768H220.694V177.424H222.41V178.324H220.694Z" fill="#363636"/>
<path d="M226.601 184.108C225.985 184.108 225.425 183.968 224.921 183.688C224.425 183.408 224.033 183.012 223.745 182.5C223.465 181.98 223.325 181.38 223.325 180.7C223.325 180.028 223.469 179.436 223.757 178.924C224.053 178.404 224.453 178.008 224.957 177.736C225.461 177.456 226.025 177.316 226.649 177.316C227.273 177.316 227.837 177.456 228.341 177.736C228.845 178.008 229.241 178.4 229.529 178.912C229.825 179.424 229.973 180.02 229.973 180.7C229.973 181.38 229.821 181.98 229.517 182.5C229.221 183.012 228.817 183.408 228.305 183.688C227.793 183.968 227.225 184.108 226.601 184.108ZM226.601 183.148C226.993 183.148 227.361 183.056 227.705 182.872C228.049 182.688 228.325 182.412 228.533 182.044C228.749 181.676 228.857 181.228 228.857 180.7C228.857 180.172 228.753 179.724 228.545 179.356C228.337 178.988 228.065 178.716 227.729 178.54C227.393 178.356 227.029 178.264 226.637 178.264C226.237 178.264 225.869 178.356 225.533 178.54C225.205 178.716 224.941 178.988 224.741 179.356C224.541 179.724 224.441 180.172 224.441 180.7C224.441 181.236 224.537 181.688 224.729 182.056C224.929 182.424 225.193 182.7 225.521 182.884C225.849 183.06 226.209 183.148 226.601 183.148Z" fill="#363636"/>
<path d="M239.316 177.304C239.828 177.304 240.284 177.412 240.684 177.628C241.084 177.836 241.4 178.152 241.632 178.576C241.864 179 241.98 179.516 241.98 180.124V184H240.9V180.28C240.9 179.624 240.736 179.124 240.408 178.78C240.088 178.428 239.652 178.252 239.1 178.252C238.532 178.252 238.08 178.436 237.744 178.804C237.408 179.164 237.24 179.688 237.24 180.376V184H236.16V180.28C236.16 179.624 235.996 179.124 235.668 178.78C235.348 178.428 234.912 178.252 234.36 178.252C233.792 178.252 233.34 178.436 233.004 178.804C232.668 179.164 232.5 179.688 232.5 180.376V184H231.408V177.424H232.5V178.372C232.716 178.028 233.004 177.764 233.364 177.58C233.732 177.396 234.136 177.304 234.576 177.304C235.128 177.304 235.616 177.428 236.04 177.676C236.464 177.924 236.78 178.288 236.988 178.768C237.172 178.304 237.476 177.944 237.9 177.688C238.324 177.432 238.796 177.304 239.316 177.304Z" fill="#363636"/>
<path d="M249.772 180.46C249.772 180.668 249.76 180.888 249.736 181.12H244.48C244.52 181.768 244.74 182.276 245.14 182.644C245.548 183.004 246.04 183.184 246.616 183.184C247.088 183.184 247.48 183.076 247.792 182.86C248.112 182.636 248.336 182.34 248.464 181.972H249.64C249.464 182.604 249.112 183.12 248.584 183.52C248.056 183.912 247.4 184.108 246.616 184.108C245.992 184.108 245.432 183.968 244.936 183.688C244.448 183.408 244.064 183.012 243.784 182.5C243.504 181.98 243.364 181.38 243.364 180.7C243.364 180.02 243.5 179.424 243.772 178.912C244.044 178.4 244.424 178.008 244.912 177.736C245.408 177.456 245.976 177.316 246.616 177.316C247.24 177.316 247.792 177.452 248.272 177.724C248.752 177.996 249.12 178.372 249.376 178.852C249.64 179.324 249.772 179.86 249.772 180.46ZM248.644 180.232C248.644 179.816 248.552 179.46 248.368 179.164C248.184 178.86 247.932 178.632 247.612 178.48C247.3 178.32 246.952 178.24 246.568 178.24C246.016 178.24 245.544 178.416 245.152 178.768C244.768 179.12 244.548 179.608 244.492 180.232H248.644Z" fill="#363636"/>
<path d="M252.305 178.492C252.497 178.116 252.769 177.824 253.121 177.616C253.481 177.408 253.917 177.304 254.429 177.304V178.432H254.141C252.917 178.432 252.305 179.096 252.305 180.424V184H251.213V177.424H252.305V178.492Z" fill="#363636"/>
<path d="M255.858 175.636H257.07L255.918 178.36H255.15L255.858 175.636Z" fill="#363636"/>
<path d="M260.643 184.108C260.139 184.108 259.687 184.024 259.287 183.856C258.887 183.68 258.571 183.44 258.339 183.136C258.107 182.824 257.979 182.468 257.955 182.068H259.083C259.115 182.396 259.267 182.664 259.539 182.872C259.819 183.08 260.183 183.184 260.631 183.184C261.047 183.184 261.375 183.092 261.615 182.908C261.855 182.724 261.975 182.492 261.975 182.212C261.975 181.924 261.847 181.712 261.591 181.576C261.335 181.432 260.939 181.292 260.403 181.156C259.915 181.028 259.515 180.9 259.203 180.772C258.899 180.636 258.635 180.44 258.411 180.184C258.195 179.92 258.087 179.576 258.087 179.152C258.087 178.816 258.187 178.508 258.387 178.228C258.587 177.948 258.871 177.728 259.239 177.568C259.607 177.4 260.027 177.316 260.499 177.316C261.227 177.316 261.815 177.5 262.263 177.868C262.711 178.236 262.951 178.74 262.983 179.38H261.891C261.867 179.036 261.727 178.76 261.471 178.552C261.223 178.344 260.887 178.24 260.463 178.24C260.071 178.24 259.759 178.324 259.527 178.492C259.295 178.66 259.179 178.88 259.179 179.152C259.179 179.368 259.247 179.548 259.383 179.692C259.527 179.828 259.703 179.94 259.911 180.028C260.127 180.108 260.423 180.2 260.799 180.304C261.271 180.432 261.655 180.56 261.951 180.688C262.247 180.808 262.499 180.992 262.707 181.24C262.923 181.488 263.035 181.812 263.043 182.212C263.043 182.572 262.943 182.896 262.743 183.184C262.543 183.472 262.259 183.7 261.891 183.868C261.531 184.028 261.115 184.108 260.643 184.108Z" fill="#363636"/>
<path d="M268.875 178.636C269.091 178.26 269.411 177.948 269.835 177.7C270.267 177.444 270.767 177.316 271.335 177.316C271.919 177.316 272.447 177.456 272.919 177.736C273.399 178.016 273.775 178.412 274.047 178.924C274.319 179.428 274.455 180.016 274.455 180.688C274.455 181.352 274.319 181.944 274.047 182.464C273.775 182.984 273.399 183.388 272.919 183.676C272.447 183.964 271.919 184.108 271.335 184.108C270.775 184.108 270.279 183.984 269.847 183.736C269.423 183.48 269.099 183.164 268.875 182.788V187.12H267.783V177.424H268.875V178.636ZM273.339 180.688C273.339 180.192 273.239 179.76 273.039 179.392C272.839 179.024 272.567 178.744 272.223 178.552C271.887 178.36 271.515 178.264 271.107 178.264C270.707 178.264 270.335 178.364 269.991 178.564C269.655 178.756 269.383 179.04 269.175 179.416C268.975 179.784 268.875 180.212 268.875 180.7C268.875 181.196 268.975 181.632 269.175 182.008C269.383 182.376 269.655 182.66 269.991 182.86C270.335 183.052 270.707 183.148 271.107 183.148C271.515 183.148 271.887 183.052 272.223 182.86C272.567 182.66 272.839 182.376 273.039 182.008C273.239 181.632 273.339 181.192 273.339 180.688Z" fill="#363636"/>
<path d="M276.985 178.492C277.177 178.116 277.449 177.824 277.801 177.616C278.161 177.408 278.597 177.304 279.109 177.304V178.432H278.821C277.597 178.432 276.985 179.096 276.985 180.424V184H275.893V177.424H276.985V178.492Z" fill="#363636"/>
<path d="M283.237 184.108C282.621 184.108 282.061 183.968 281.557 183.688C281.061 183.408 280.669 183.012 280.381 182.5C280.101 181.98 279.961 181.38 279.961 180.7C279.961 180.028 280.105 179.436 280.393 178.924C280.689 178.404 281.089 178.008 281.593 177.736C282.097 177.456 282.661 177.316 283.285 177.316C283.909 177.316 284.473 177.456 284.977 177.736C285.481 178.008 285.877 178.4 286.165 178.912C286.461 179.424 286.609 180.02 286.609 180.7C286.609 181.38 286.457 181.98 286.153 182.5C285.857 183.012 285.453 183.408 284.941 183.688C284.429 183.968 283.861 184.108 283.237 184.108ZM283.237 183.148C283.629 183.148 283.997 183.056 284.341 182.872C284.685 182.688 284.961 182.412 285.169 182.044C285.385 181.676 285.493 181.228 285.493 180.7C285.493 180.172 285.389 179.724 285.181 179.356C284.973 178.988 284.701 178.716 284.365 178.54C284.029 178.356 283.665 178.264 283.273 178.264C282.873 178.264 282.505 178.356 282.169 178.54C281.841 178.716 281.577 178.988 281.377 179.356C281.177 179.724 281.077 180.172 281.077 180.7C281.077 181.236 281.173 181.688 281.365 182.056C281.565 182.424 281.829 182.7 282.157 182.884C282.485 183.06 282.845 183.148 283.237 183.148Z" fill="#363636"/>
<path d="M289.137 178.648C289.361 178.256 289.689 177.936 290.121 177.688C290.553 177.44 291.045 177.316 291.597 177.316C292.189 177.316 292.721 177.456 293.193 177.736C293.665 178.016 294.037 178.412 294.309 178.924C294.581 179.428 294.717 180.016 294.717 180.688C294.717 181.352 294.581 181.944 294.309 182.464C294.037 182.984 293.661 183.388 293.181 183.676C292.709 183.964 292.181 184.108 291.597 184.108C291.029 184.108 290.529 183.984 290.097 183.736C289.673 183.488 289.353 183.172 289.137 182.788V184H288.045V175.12H289.137V178.648ZM293.601 180.688C293.601 180.192 293.501 179.76 293.301 179.392C293.101 179.024 292.829 178.744 292.485 178.552C292.149 178.36 291.777 178.264 291.369 178.264C290.969 178.264 290.597 178.364 290.253 178.564C289.917 178.756 289.645 179.04 289.437 179.416C289.237 179.784 289.137 180.212 289.137 180.7C289.137 181.196 289.237 181.632 289.437 182.008C289.645 182.376 289.917 182.66 290.253 182.86C290.597 183.052 290.969 183.148 291.369 183.148C291.777 183.148 292.149 183.052 292.485 182.86C292.829 182.66 293.101 182.376 293.301 182.008C293.501 181.632 293.601 181.192 293.601 180.688Z" fill="#363636"/>
<path d="M297.246 175.12V184H296.154V175.12H297.246Z" fill="#363636"/>
<path d="M305.108 180.46C305.108 180.668 305.096 180.888 305.072 181.12H299.816C299.856 181.768 300.076 182.276 300.476 182.644C300.884 183.004 301.376 183.184 301.952 183.184C302.424 183.184 302.816 183.076 303.128 182.86C303.448 182.636 303.672 182.34 303.8 181.972H304.976C304.8 182.604 304.448 183.12 303.92 183.52C303.392 183.912 302.736 184.108 301.952 184.108C301.328 184.108 300.768 183.968 300.272 183.688C299.784 183.408 299.4 183.012 299.12 182.5C298.84 181.98 298.7 181.38 298.7 180.7C298.7 180.02 298.836 179.424 299.108 178.912C299.38 178.4 299.76 178.008 300.248 177.736C300.744 177.456 301.312 177.316 301.952 177.316C302.576 177.316 303.128 177.452 303.608 177.724C304.088 177.996 304.456 178.372 304.712 178.852C304.976 179.324 305.108 179.86 305.108 180.46ZM303.98 180.232C303.98 179.816 303.888 179.46 303.704 179.164C303.52 178.86 303.268 178.632 302.948 178.48C302.636 178.32 302.288 178.24 301.904 178.24C301.352 178.24 300.88 178.416 300.488 178.768C300.104 179.12 299.884 179.608 299.828 180.232H303.98Z" fill="#363636"/>
<path d="M314.457 177.304C314.969 177.304 315.425 177.412 315.825 177.628C316.225 177.836 316.541 178.152 316.773 178.576C317.005 179 317.121 179.516 317.121 180.124V184H316.041V180.28C316.041 179.624 315.877 179.124 315.549 178.78C315.229 178.428 314.793 178.252 314.241 178.252C313.673 178.252 313.221 178.436 312.885 178.804C312.549 179.164 312.381 179.688 312.381 180.376V184H311.301V180.28C311.301 179.624 311.137 179.124 310.809 178.78C310.489 178.428 310.053 178.252 309.501 178.252C308.933 178.252 308.481 178.436 308.145 178.804C307.809 179.164 307.641 179.688 307.641 180.376V184H306.549V177.424H307.641V178.372C307.857 178.028 308.145 177.764 308.505 177.58C308.873 177.396 309.277 177.304 309.717 177.304C310.269 177.304 310.757 177.428 311.181 177.676C311.605 177.924 311.921 178.288 312.129 178.768C312.313 178.304 312.617 177.944 313.041 177.688C313.465 177.432 313.937 177.304 314.457 177.304Z" fill="#363636"/>
<path d="M321.24 184.108C320.736 184.108 320.284 184.024 319.884 183.856C319.484 183.68 319.168 183.44 318.936 183.136C318.704 182.824 318.576 182.468 318.552 182.068H319.68C319.712 182.396 319.864 182.664 320.136 182.872C320.416 183.08 320.78 183.184 321.228 183.184C321.644 183.184 321.972 183.092 322.212 182.908C322.452 182.724 322.572 182.492 322.572 182.212C322.572 181.924 322.444 181.712 322.188 181.576C321.932 181.432 321.536 181.292 321 181.156C320.512 181.028 320.112 180.9 319.8 180.772C319.496 180.636 319.232 180.44 319.008 180.184C318.792 179.92 318.684 179.576 318.684 179.152C318.684 178.816 318.784 178.508 318.984 178.228C319.184 177.948 319.468 177.728 319.836 177.568C320.204 177.4 320.624 177.316 321.096 177.316C321.824 177.316 322.412 177.5 322.86 177.868C323.308 178.236 323.548 178.74 323.58 179.38H322.488C322.464 179.036 322.324 178.76 322.068 178.552C321.82 178.344 321.484 178.24 321.06 178.24C320.668 178.24 320.356 178.324 320.124 178.492C319.892 178.66 319.776 178.88 319.776 179.152C319.776 179.368 319.844 179.548 319.98 179.692C320.124 179.828 320.3 179.94 320.508 180.028C320.724 180.108 321.02 180.2 321.396 180.304C321.868 180.432 322.252 180.56 322.548 180.688C322.844 180.808 323.096 180.992 323.304 181.24C323.52 181.488 323.632 181.812 323.64 182.212C323.64 182.572 323.54 182.896 323.34 183.184C323.14 183.472 322.856 183.7 322.488 183.868C322.128 184.028 321.712 184.108 321.24 184.108Z" fill="#363636"/>
<path d="M144.072 211.636V212.524H141.792V220H140.7V212.524H138.408V211.636H144.072Z" fill="#363636"/>
<path d="M145.008 216.688C145.008 216.016 145.144 215.428 145.416 214.924C145.688 214.412 146.06 214.016 146.532 213.736C147.012 213.456 147.544 213.316 148.128 213.316C148.704 213.316 149.204 213.44 149.628 213.688C150.052 213.936 150.368 214.248 150.576 214.624V213.424H151.68V220H150.576V218.776C150.36 219.16 150.036 219.48 149.604 219.736C149.18 219.984 148.684 220.108 148.116 220.108C147.532 220.108 147.004 219.964 146.532 219.676C146.06 219.388 145.688 218.984 145.416 218.464C145.144 217.944 145.008 217.352 145.008 216.688ZM150.576 216.7C150.576 216.204 150.476 215.772 150.276 215.404C150.076 215.036 149.804 214.756 149.46 214.564C149.124 214.364 148.752 214.264 148.344 214.264C147.936 214.264 147.564 214.36 147.228 214.552C146.892 214.744 146.624 215.024 146.424 215.392C146.224 215.76 146.124 216.192 146.124 216.688C146.124 217.192 146.224 217.632 146.424 218.008C146.624 218.376 146.892 218.66 147.228 218.86C147.564 219.052 147.936 219.148 148.344 219.148C148.752 219.148 149.124 219.052 149.46 218.86C149.804 218.66 150.076 218.376 150.276 218.008C150.476 217.632 150.576 217.196 150.576 216.7Z" fill="#363636"/>
<path d="M154.618 211.12V220H153.526V211.12H154.618Z" fill="#363636"/>
<path d="M160.151 220L157.571 217.096V220H156.479V211.12H157.571V216.34L160.103 213.424H161.627L158.531 216.7L161.639 220H160.151Z" fill="#363636"/>
<path d="M167.186 214.324V218.2C167.186 218.52 167.254 218.748 167.39 218.884C167.526 219.012 167.762 219.076 168.098 219.076H168.902V220H167.918C167.31 220 166.854 219.86 166.55 219.58C166.246 219.3 166.094 218.84 166.094 218.2V214.324H165.242V213.424H166.094V211.768H167.186V213.424H168.902V214.324H167.186Z" fill="#363636"/>
<path d="M173.093 220.108C172.477 220.108 171.917 219.968 171.413 219.688C170.917 219.408 170.525 219.012 170.237 218.5C169.957 217.98 169.817 217.38 169.817 216.7C169.817 216.028 169.961 215.436 170.249 214.924C170.545 214.404 170.945 214.008 171.449 213.736C171.953 213.456 172.517 213.316 173.141 213.316C173.765 213.316 174.329 213.456 174.833 213.736C175.337 214.008 175.733 214.4 176.021 214.912C176.317 215.424 176.465 216.02 176.465 216.7C176.465 217.38 176.313 217.98 176.009 218.5C175.713 219.012 175.309 219.408 174.797 219.688C174.285 219.968 173.717 220.108 173.093 220.108ZM173.093 219.148C173.485 219.148 173.853 219.056 174.197 218.872C174.541 218.688 174.817 218.412 175.025 218.044C175.241 217.676 175.349 217.228 175.349 216.7C175.349 216.172 175.245 215.724 175.037 215.356C174.829 214.988 174.557 214.716 174.221 214.54C173.885 214.356 173.521 214.264 173.129 214.264C172.729 214.264 172.361 214.356 172.025 214.54C171.697 214.716 171.433 214.988 171.233 215.356C171.033 215.724 170.933 216.172 170.933 216.7C170.933 217.236 171.029 217.688 171.221 218.056C171.421 218.424 171.685 218.7 172.013 218.884C172.341 219.06 172.701 219.148 173.093 219.148Z" fill="#363636"/>
<path d="M189.584 211.696V220H188.492V213.808L185.732 220H184.964L182.192 213.796V220H181.1V211.696H182.276L185.348 218.56L188.42 211.696H189.584Z" fill="#363636"/>
<path d="M191.028 216.688C191.028 216.016 191.164 215.428 191.436 214.924C191.708 214.412 192.08 214.016 192.552 213.736C193.032 213.456 193.564 213.316 194.148 213.316C194.724 213.316 195.224 213.44 195.648 213.688C196.072 213.936 196.388 214.248 196.596 214.624V213.424H197.7V220H196.596V218.776C196.38 219.16 196.056 219.48 195.624 219.736C195.2 219.984 194.704 220.108 194.136 220.108C193.552 220.108 193.024 219.964 192.552 219.676C192.08 219.388 191.708 218.984 191.436 218.464C191.164 217.944 191.028 217.352 191.028 216.688ZM196.596 216.7C196.596 216.204 196.496 215.772 196.296 215.404C196.096 215.036 195.824 214.756 195.48 214.564C195.144 214.364 194.772 214.264 194.364 214.264C193.956 214.264 193.584 214.36 193.248 214.552C192.912 214.744 192.644 215.024 192.444 215.392C192.244 215.76 192.144 216.192 192.144 216.688C192.144 217.192 192.244 217.632 192.444 218.008C192.644 218.376 192.912 218.66 193.248 218.86C193.584 219.052 193.956 219.148 194.364 219.148C194.772 219.148 195.144 219.052 195.48 218.86C195.824 218.66 196.096 218.376 196.296 218.008C196.496 217.632 196.596 217.196 196.596 216.7Z" fill="#363636"/>
<path d="M200.637 214.492C200.829 214.116 201.101 213.824 201.453 213.616C201.813 213.408 202.249 213.304 202.761 213.304V214.432H202.473C201.249 214.432 200.637 215.096 200.637 216.424V220H199.545V213.424H200.637V214.492Z" fill="#363636"/>
<path d="M207.694 220L205.114 217.096V220H204.022V211.12H205.114V216.34L207.646 213.424H209.17L206.074 216.7L209.182 220H207.694Z" fill="#363636"/>
<path d="M216.197 216.46C216.197 216.668 216.185 216.888 216.161 217.12H210.905C210.945 217.768 211.165 218.276 211.565 218.644C211.973 219.004 212.465 219.184 213.041 219.184C213.513 219.184 213.905 219.076 214.217 218.86C214.537 218.636 214.761 218.34 214.889 217.972H216.065C215.889 218.604 215.537 219.12 215.009 219.52C214.481 219.912 213.825 220.108 213.041 220.108C212.417 220.108 211.857 219.968 211.361 219.688C210.873 219.408 210.489 219.012 210.209 218.5C209.929 217.98 209.789 217.38 209.789 216.7C209.789 216.02 209.925 215.424 210.197 214.912C210.469 214.4 210.849 214.008 211.337 213.736C211.833 213.456 212.401 213.316 213.041 213.316C213.665 213.316 214.217 213.452 214.697 213.724C215.177 213.996 215.545 214.372 215.801 214.852C216.065 215.324 216.197 215.86 216.197 216.46ZM215.069 216.232C215.069 215.816 214.977 215.46 214.793 215.164C214.609 214.86 214.357 214.632 214.037 214.48C213.725 214.32 213.377 214.24 212.993 214.24C212.441 214.24 211.969 214.416 211.577 214.768C211.193 215.12 210.973 215.608 210.917 216.232H215.069Z" fill="#363636"/>
<path d="M218.971 214.324V218.2C218.971 218.52 219.039 218.748 219.175 218.884C219.311 219.012 219.547 219.076 219.883 219.076H220.687V220H219.703C219.095 220 218.639 219.86 218.335 219.58C218.031 219.3 217.879 218.84 217.879 218.2V214.324H217.027V213.424H217.879V211.768H218.971V213.424H220.687V214.324H218.971Z" fill="#363636"/>
<path d="M222.574 212.356C222.366 212.356 222.19 212.284 222.046 212.14C221.902 211.996 221.83 211.82 221.83 211.612C221.83 211.404 221.902 211.228 222.046 211.084C222.19 210.94 222.366 210.868 222.574 210.868C222.774 210.868 222.942 210.94 223.078 211.084C223.222 211.228 223.294 211.404 223.294 211.612C223.294 211.82 223.222 211.996 223.078 212.14C222.942 212.284 222.774 212.356 222.574 212.356ZM223.102 213.424V220H222.01V213.424H223.102Z" fill="#363636"/>
<path d="M228.167 213.304C228.967 213.304 229.615 213.548 230.111 214.036C230.607 214.516 230.855 215.212 230.855 216.124V220H229.775V216.28C229.775 215.624 229.611 215.124 229.283 214.78C228.955 214.428 228.507 214.252 227.939 214.252C227.363 214.252 226.903 214.432 226.559 214.792C226.223 215.152 226.055 215.676 226.055 216.364V220H224.963V213.424H226.055V214.36C226.271 214.024 226.563 213.764 226.931 213.58C227.307 213.396 227.719 213.304 228.167 213.304Z" fill="#363636"/>
<path d="M235.351 213.316C235.919 213.316 236.415 213.44 236.839 213.688C237.271 213.936 237.591 214.248 237.799 214.624V213.424H238.903V220.144C238.903 220.744 238.775 221.276 238.519 221.74C238.263 222.212 237.895 222.58 237.415 222.844C236.943 223.108 236.391 223.24 235.759 223.24C234.895 223.24 234.175 223.036 233.599 222.628C233.023 222.22 232.683 221.664 232.579 220.96H233.659C233.779 221.36 234.027 221.68 234.403 221.92C234.779 222.168 235.231 222.292 235.759 222.292C236.359 222.292 236.847 222.104 237.223 221.728C237.607 221.352 237.799 220.824 237.799 220.144V218.764C237.583 219.148 237.263 219.468 236.839 219.724C236.415 219.98 235.919 220.108 235.351 220.108C234.767 220.108 234.235 219.964 233.755 219.676C233.283 219.388 232.911 218.984 232.639 218.464C232.367 217.944 232.231 217.352 232.231 216.688C232.231 216.016 232.367 215.428 232.639 214.924C232.911 214.412 233.283 214.016 233.755 213.736C234.235 213.456 234.767 213.316 235.351 213.316ZM237.799 216.7C237.799 216.204 237.699 215.772 237.499 215.404C237.299 215.036 237.027 214.756 236.683 214.564C236.347 214.364 235.975 214.264 235.567 214.264C235.159 214.264 234.787 214.36 234.451 214.552C234.115 214.744 233.847 215.024 233.647 215.392C233.447 215.76 233.347 216.192 233.347 216.688C233.347 217.192 233.447 217.632 233.647 218.008C233.847 218.376 234.115 218.66 234.451 218.86C234.787 219.052 235.159 219.148 235.567 219.148C235.975 219.148 236.347 219.052 236.683 218.86C237.027 218.66 237.299 218.376 237.499 218.008C237.699 217.632 237.799 217.196 237.799 216.7Z" fill="#363636"/>
<path d="M243.539 216.688C243.539 216.016 243.675 215.428 243.947 214.924C244.219 214.412 244.591 214.016 245.063 213.736C245.543 213.456 246.075 213.316 246.659 213.316C247.235 213.316 247.735 213.44 248.159 213.688C248.583 213.936 248.899 214.248 249.107 214.624V213.424H250.211V220H249.107V218.776C248.891 219.16 248.567 219.48 248.135 219.736C247.711 219.984 247.215 220.108 246.647 220.108C246.063 220.108 245.535 219.964 245.063 219.676C244.591 219.388 244.219 218.984 243.947 218.464C243.675 217.944 243.539 217.352 243.539 216.688ZM249.107 216.7C249.107 216.204 249.007 215.772 248.807 215.404C248.607 215.036 248.335 214.756 247.991 214.564C247.655 214.364 247.283 214.264 246.875 214.264C246.467 214.264 246.095 214.36 245.759 214.552C245.423 214.744 245.155 215.024 244.955 215.392C244.755 215.76 244.655 216.192 244.655 216.688C244.655 217.192 244.755 217.632 244.955 218.008C245.155 218.376 245.423 218.66 245.759 218.86C246.095 219.052 246.467 219.148 246.875 219.148C247.283 219.148 247.655 219.052 247.991 218.86C248.335 218.66 248.607 218.376 248.807 218.008C249.007 217.632 249.107 217.196 249.107 216.7Z" fill="#363636"/>
<path d="M255.261 213.304C256.061 213.304 256.709 213.548 257.205 214.036C257.701 214.516 257.949 215.212 257.949 216.124V220H256.869V216.28C256.869 215.624 256.705 215.124 256.377 214.78C256.049 214.428 255.601 214.252 255.033 214.252C254.457 214.252 253.997 214.432 253.653 214.792C253.317 215.152 253.149 215.676 253.149 216.364V220H252.057V213.424H253.149V214.36C253.365 214.024 253.657 213.764 254.025 213.58C254.401 213.396 254.813 213.304 255.261 213.304Z" fill="#363636"/>
<path d="M259.325 216.688C259.325 216.016 259.461 215.428 259.733 214.924C260.005 214.412 260.377 214.016 260.849 213.736C261.329 213.456 261.865 213.316 262.457 213.316C262.969 213.316 263.445 213.436 263.885 213.676C264.325 213.908 264.661 214.216 264.893 214.6V211.12H265.997V220H264.893V218.764C264.677 219.156 264.357 219.48 263.933 219.736C263.509 219.984 263.013 220.108 262.445 220.108C261.861 220.108 261.329 219.964 260.849 219.676C260.377 219.388 260.005 218.984 259.733 218.464C259.461 217.944 259.325 217.352 259.325 216.688ZM264.893 216.7C264.893 216.204 264.793 215.772 264.593 215.404C264.393 215.036 264.121 214.756 263.777 214.564C263.441 214.364 263.069 214.264 262.661 214.264C262.253 214.264 261.881 214.36 261.545 214.552C261.209 214.744 260.941 215.024 260.741 215.392C260.541 215.76 260.441 216.192 260.441 216.688C260.441 217.192 260.541 217.632 260.741 218.008C260.941 218.376 261.209 218.66 261.545 218.86C261.881 219.052 262.253 219.148 262.661 219.148C263.069 219.148 263.441 219.052 263.777 218.86C264.121 218.66 264.393 218.376 264.593 218.008C264.793 217.632 264.893 217.196 264.893 216.7Z" fill="#363636"/>
<path d="M270.633 215.812C270.633 214.996 270.817 214.264 271.185 213.616C271.553 212.96 272.053 212.448 272.685 212.08C273.325 211.712 274.033 211.528 274.809 211.528C275.721 211.528 276.517 211.748 277.197 212.188C277.877 212.628 278.373 213.252 278.685 214.06H277.377C277.145 213.556 276.809 213.168 276.369 212.896C275.937 212.624 275.417 212.488 274.809 212.488C274.225 212.488 273.701 212.624 273.237 212.896C272.773 213.168 272.409 213.556 272.145 214.06C271.881 214.556 271.749 215.14 271.749 215.812C271.749 216.476 271.881 217.06 272.145 217.564C272.409 218.06 272.773 218.444 273.237 218.716C273.701 218.988 274.225 219.124 274.809 219.124C275.417 219.124 275.937 218.992 276.369 218.728C276.809 218.456 277.145 218.068 277.377 217.564H278.685C278.373 218.364 277.877 218.984 277.197 219.424C276.517 219.856 275.721 220.072 274.809 220.072C274.033 220.072 273.325 219.892 272.685 219.532C272.053 219.164 271.553 218.656 271.185 218.008C270.817 217.36 270.633 216.628 270.633 215.812Z" fill="#363636"/>
<path d="M286.143 213.424V220H285.051V219.028C284.843 219.364 284.551 219.628 284.175 219.82C283.807 220.004 283.399 220.096 282.951 220.096C282.439 220.096 281.979 219.992 281.571 219.784C281.163 219.568 280.839 219.248 280.599 218.824C280.367 218.4 280.251 217.884 280.251 217.276V213.424H281.331V217.132C281.331 217.78 281.495 218.28 281.823 218.632C282.151 218.976 282.599 219.148 283.167 219.148C283.751 219.148 284.211 218.968 284.547 218.608C284.883 218.248 285.051 217.724 285.051 217.036V213.424H286.143Z" fill="#363636"/>
<path d="M290.315 220.108C289.811 220.108 289.359 220.024 288.959 219.856C288.559 219.68 288.243 219.44 288.011 219.136C287.779 218.824 287.651 218.468 287.627 218.068H288.755C288.787 218.396 288.939 218.664 289.211 218.872C289.491 219.08 289.855 219.184 290.303 219.184C290.719 219.184 291.047 219.092 291.287 218.908C291.527 218.724 291.647 218.492 291.647 218.212C291.647 217.924 291.519 217.712 291.263 217.576C291.007 217.432 290.611 217.292 290.075 217.156C289.587 217.028 289.187 216.9 288.875 216.772C288.571 216.636 288.307 216.44 288.083 216.184C287.867 215.92 287.759 215.576 287.759 215.152C287.759 214.816 287.859 214.508 288.059 214.228C288.259 213.948 288.543 213.728 288.911 213.568C289.279 213.4 289.699 213.316 290.171 213.316C290.899 213.316 291.487 213.5 291.935 213.868C292.383 214.236 292.623 214.74 292.655 215.38H291.563C291.539 215.036 291.399 214.76 291.143 214.552C290.895 214.344 290.559 214.24 290.135 214.24C289.743 214.24 289.431 214.324 289.199 214.492C288.967 214.66 288.851 214.88 288.851 215.152C288.851 215.368 288.919 215.548 289.055 215.692C289.199 215.828 289.375 215.94 289.583 216.028C289.799 216.108 290.095 216.2 290.471 216.304C290.943 216.432 291.327 216.56 291.623 216.688C291.919 216.808 292.171 216.992 292.379 217.24C292.595 217.488 292.707 217.812 292.715 218.212C292.715 218.572 292.615 218.896 292.415 219.184C292.215 219.472 291.931 219.7 291.563 219.868C291.203 220.028 290.787 220.108 290.315 220.108Z" fill="#363636"/>
<path d="M295.588 214.324V218.2C295.588 218.52 295.656 218.748 295.792 218.884C295.928 219.012 296.164 219.076 296.5 219.076H297.304V220H296.32C295.712 220 295.256 219.86 294.952 219.58C294.648 219.3 294.496 218.84 294.496 218.2V214.324H293.644V213.424H294.496V211.768H295.588V213.424H297.304V214.324H295.588Z" fill="#363636"/>
<path d="M301.495 220.108C300.879 220.108 300.319 219.968 299.815 219.688C299.319 219.408 298.927 219.012 298.639 218.5C298.359 217.98 298.219 217.38 298.219 216.7C298.219 216.028 298.363 215.436 298.651 214.924C298.947 214.404 299.347 214.008 299.851 213.736C300.355 213.456 300.919 213.316 301.543 213.316C302.167 213.316 302.731 213.456 303.235 213.736C303.739 214.008 304.135 214.4 304.423 214.912C304.719 215.424 304.867 216.02 304.867 216.7C304.867 217.38 304.715 217.98 304.411 218.5C304.115 219.012 303.711 219.408 303.199 219.688C302.687 219.968 302.119 220.108 301.495 220.108ZM301.495 219.148C301.887 219.148 302.255 219.056 302.599 218.872C302.943 218.688 303.219 218.412 303.427 218.044C303.643 217.676 303.751 217.228 303.751 216.7C303.751 216.172 303.647 215.724 303.439 215.356C303.231 214.988 302.959 214.716 302.623 214.54C302.287 214.356 301.923 214.264 301.531 214.264C301.131 214.264 300.763 214.356 300.427 214.54C300.099 214.716 299.835 214.988 299.635 215.356C299.435 215.724 299.335 216.172 299.335 216.7C299.335 217.236 299.431 217.688 299.623 218.056C299.823 218.424 300.087 218.7 300.415 218.884C300.743 219.06 301.103 219.148 301.495 219.148Z" fill="#363636"/>
<path d="M314.211 213.304C314.723 213.304 315.179 213.412 315.579 213.628C315.979 213.836 316.295 214.152 316.527 214.576C316.759 215 316.875 215.516 316.875 216.124V220H315.795V216.28C315.795 215.624 315.631 215.124 315.303 214.78C314.983 214.428 314.547 214.252 313.995 214.252C313.427 214.252 312.975 214.436 312.639 214.804C312.303 215.164 312.135 215.688 312.135 216.376V220H311.055V216.28C311.055 215.624 310.891 215.124 310.563 214.78C310.243 214.428 309.807 214.252 309.255 214.252C308.687 214.252 308.235 214.436 307.899 214.804C307.563 215.164 307.395 215.688 307.395 216.376V220H306.303V213.424H307.395V214.372C307.611 214.028 307.899 213.764 308.259 213.58C308.627 213.396 309.031 213.304 309.471 213.304C310.023 213.304 310.511 213.428 310.935 213.676C311.359 213.924 311.675 214.288 311.883 214.768C312.067 214.304 312.371 213.944 312.795 213.688C313.219 213.432 313.691 213.304 314.211 213.304Z" fill="#363636"/>
<path d="M324.666 216.46C324.666 216.668 324.654 216.888 324.63 217.12H319.374C319.414 217.768 319.634 218.276 320.034 218.644C320.442 219.004 320.934 219.184 321.51 219.184C321.982 219.184 322.374 219.076 322.686 218.86C323.006 218.636 323.23 218.34 323.358 217.972H324.534C324.358 218.604 324.006 219.12 323.478 219.52C322.95 219.912 322.294 220.108 321.51 220.108C320.886 220.108 320.326 219.968 319.83 219.688C319.342 219.408 318.958 219.012 318.678 218.5C318.398 217.98 318.258 217.38 318.258 216.7C318.258 216.02 318.394 215.424 318.666 214.912C318.938 214.4 319.318 214.008 319.806 213.736C320.302 213.456 320.87 213.316 321.51 213.316C322.134 213.316 322.686 213.452 323.166 213.724C323.646 213.996 324.014 214.372 324.27 214.852C324.534 215.324 324.666 215.86 324.666 216.46ZM323.538 216.232C323.538 215.816 323.446 215.46 323.262 215.164C323.078 214.86 322.826 214.632 322.506 214.48C322.194 214.32 321.846 214.24 321.462 214.24C320.91 214.24 320.438 214.416 320.046 214.768C319.662 215.12 319.442 215.608 319.386 216.232H323.538Z" fill="#363636"/>
<path d="M327.2 214.492C327.392 214.116 327.664 213.824 328.016 213.616C328.376 213.408 328.812 213.304 329.324 213.304V214.432H329.036C327.812 214.432 327.2 215.096 327.2 216.424V220H326.108V213.424H327.2V214.492Z" fill="#363636"/>
<path d="M336.435 220.084C335.883 220.084 335.387 219.988 334.947 219.796C334.515 219.596 334.175 219.324 333.927 218.98C333.679 218.628 333.551 218.224 333.543 217.768H334.707C334.747 218.16 334.907 218.492 335.187 218.764C335.475 219.028 335.891 219.16 336.435 219.16C336.955 219.16 337.363 219.032 337.659 218.776C337.963 218.512 338.115 218.176 338.115 217.768C338.115 217.448 338.027 217.188 337.851 216.988C337.675 216.788 337.455 216.636 337.191 216.532C336.927 216.428 336.571 216.316 336.123 216.196C335.571 216.052 335.127 215.908 334.791 215.764C334.463 215.62 334.179 215.396 333.939 215.092C333.707 214.78 333.591 214.364 333.591 213.844C333.591 213.388 333.707 212.984 333.939 212.632C334.171 212.28 334.495 212.008 334.911 211.816C335.335 211.624 335.819 211.528 336.363 211.528C337.147 211.528 337.787 211.724 338.283 212.116C338.787 212.508 339.071 213.028 339.135 213.676H337.935C337.895 213.356 337.727 213.076 337.431 212.836C337.135 212.588 336.743 212.464 336.255 212.464C335.799 212.464 335.427 212.584 335.139 212.824C334.851 213.056 334.707 213.384 334.707 213.808C334.707 214.112 334.791 214.36 334.959 214.552C335.135 214.744 335.347 214.892 335.595 214.996C335.851 215.092 336.207 215.204 336.663 215.332C337.215 215.484 337.659 215.636 337.995 215.788C338.331 215.932 338.619 216.16 338.859 216.472C339.099 216.776 339.219 217.192 339.219 217.72C339.219 218.128 339.111 218.512 338.895 218.872C338.679 219.232 338.359 219.524 337.935 219.748C337.511 219.972 337.011 220.084 336.435 220.084Z" fill="#363636"/>
<path d="M346.658 213.424V220H345.566V219.028C345.358 219.364 345.066 219.628 344.69 219.82C344.322 220.004 343.914 220.096 343.466 220.096C342.954 220.096 342.494 219.992 342.086 219.784C341.678 219.568 341.354 219.248 341.114 218.824C340.882 218.4 340.766 217.884 340.766 217.276V213.424H341.846V217.132C341.846 217.78 342.01 218.28 342.338 218.632C342.666 218.976 343.114 219.148 343.682 219.148C344.266 219.148 344.726 218.968 345.062 218.608C345.398 218.248 345.566 217.724 345.566 217.036V213.424H346.658Z" fill="#363636"/>
<path d="M348.094 216.7C348.094 216.02 348.23 215.428 348.502 214.924C348.774 214.412 349.15 214.016 349.63 213.736C350.118 213.456 350.674 213.316 351.298 213.316C352.106 213.316 352.77 213.512 353.29 213.904C353.818 214.296 354.166 214.84 354.334 215.536H353.158C353.046 215.136 352.826 214.82 352.498 214.588C352.178 214.356 351.778 214.24 351.298 214.24C350.674 214.24 350.17 214.456 349.786 214.888C349.402 215.312 349.21 215.916 349.21 216.7C349.21 217.492 349.402 218.104 349.786 218.536C350.17 218.968 350.674 219.184 351.298 219.184C351.778 219.184 352.178 219.072 352.498 218.848C352.818 218.624 353.038 218.304 353.158 217.888H354.334C354.158 218.56 353.806 219.1 353.278 219.508C352.75 219.908 352.09 220.108 351.298 220.108C350.674 220.108 350.118 219.968 349.63 219.688C349.15 219.408 348.774 219.012 348.502 218.5C348.23 217.988 348.094 217.388 348.094 216.7Z" fill="#363636"/>
<path d="M355.383 216.7C355.383 216.02 355.519 215.428 355.791 214.924C356.063 214.412 356.439 214.016 356.919 213.736C357.407 213.456 357.963 213.316 358.587 213.316C359.395 213.316 360.059 213.512 360.579 213.904C361.107 214.296 361.455 214.84 361.623 215.536H360.447C360.335 215.136 360.115 214.82 359.787 214.588C359.467 214.356 359.067 214.24 358.587 214.24C357.963 214.24 357.459 214.456 357.075 214.888C356.691 215.312 356.499 215.916 356.499 216.7C356.499 217.492 356.691 218.104 357.075 218.536C357.459 218.968 357.963 219.184 358.587 219.184C359.067 219.184 359.467 219.072 359.787 218.848C360.107 218.624 360.327 218.304 360.447 217.888H361.623C361.447 218.56 361.095 219.1 360.567 219.508C360.039 219.908 359.379 220.108 358.587 220.108C357.963 220.108 357.407 219.968 356.919 219.688C356.439 219.408 356.063 219.012 355.791 218.5C355.519 217.988 355.383 217.388 355.383 216.7Z" fill="#363636"/>
<path d="M369.08 216.46C369.08 216.668 369.068 216.888 369.044 217.12H363.788C363.828 217.768 364.048 218.276 364.448 218.644C364.856 219.004 365.348 219.184 365.924 219.184C366.396 219.184 366.788 219.076 367.1 218.86C367.42 218.636 367.644 218.34 367.772 217.972H368.948C368.772 218.604 368.42 219.12 367.892 219.52C367.364 219.912 366.708 220.108 365.924 220.108C365.3 220.108 364.74 219.968 364.244 219.688C363.756 219.408 363.372 219.012 363.092 218.5C362.812 217.98 362.672 217.38 362.672 216.7C362.672 216.02 362.808 215.424 363.08 214.912C363.352 214.4 363.732 214.008 364.22 213.736C364.716 213.456 365.284 213.316 365.924 213.316C366.548 213.316 367.1 213.452 367.58 213.724C368.06 213.996 368.428 214.372 368.684 214.852C368.948 215.324 369.08 215.86 369.08 216.46ZM367.952 216.232C367.952 215.816 367.86 215.46 367.676 215.164C367.492 214.86 367.24 214.632 366.92 214.48C366.608 214.32 366.26 214.24 365.876 214.24C365.324 214.24 364.852 214.416 364.46 214.768C364.076 215.12 363.856 215.608 363.8 216.232H367.952Z" fill="#363636"/>
<path d="M372.85 220.108C372.346 220.108 371.894 220.024 371.494 219.856C371.094 219.68 370.778 219.44 370.546 219.136C370.314 218.824 370.186 218.468 370.162 218.068H371.29C371.322 218.396 371.474 218.664 371.746 218.872C372.026 219.08 372.39 219.184 372.838 219.184C373.254 219.184 373.582 219.092 373.822 218.908C374.062 218.724 374.182 218.492 374.182 218.212C374.182 217.924 374.054 217.712 373.798 217.576C373.542 217.432 373.146 217.292 372.61 217.156C372.122 217.028 371.722 216.9 371.41 216.772C371.106 216.636 370.842 216.44 370.618 216.184C370.402 215.92 370.294 215.576 370.294 215.152C370.294 214.816 370.394 214.508 370.594 214.228C370.794 213.948 371.078 213.728 371.446 213.568C371.814 213.4 372.234 213.316 372.706 213.316C373.434 213.316 374.022 213.5 374.47 213.868C374.918 214.236 375.158 214.74 375.19 215.38H374.098C374.074 215.036 373.934 214.76 373.678 214.552C373.43 214.344 373.094 214.24 372.67 214.24C372.278 214.24 371.966 214.324 371.734 214.492C371.502 214.66 371.386 214.88 371.386 215.152C371.386 215.368 371.454 215.548 371.59 215.692C371.734 215.828 371.91 215.94 372.118 216.028C372.334 216.108 372.63 216.2 373.006 216.304C373.478 216.432 373.862 216.56 374.158 216.688C374.454 216.808 374.706 216.992 374.914 217.24C375.13 217.488 375.242 217.812 375.25 218.212C375.25 218.572 375.15 218.896 374.95 219.184C374.75 219.472 374.466 219.7 374.098 219.868C373.738 220.028 373.322 220.108 372.85 220.108Z" fill="#363636"/>
<path d="M379.119 220.108C378.615 220.108 378.163 220.024 377.763 219.856C377.363 219.68 377.047 219.44 376.815 219.136C376.583 218.824 376.455 218.468 376.431 218.068H377.559C377.591 218.396 377.743 218.664 378.015 218.872C378.295 219.08 378.659 219.184 379.107 219.184C379.523 219.184 379.851 219.092 380.091 218.908C380.331 218.724 380.451 218.492 380.451 218.212C380.451 217.924 380.323 217.712 380.067 217.576C379.811 217.432 379.415 217.292 378.879 217.156C378.391 217.028 377.991 216.9 377.679 216.772C377.375 216.636 377.111 216.44 376.887 216.184C376.671 215.92 376.563 215.576 376.563 215.152C376.563 214.816 376.663 214.508 376.863 214.228C377.063 213.948 377.347 213.728 377.715 213.568C378.083 213.4 378.503 213.316 378.975 213.316C379.703 213.316 380.291 213.5 380.739 213.868C381.187 214.236 381.427 214.74 381.459 215.38H380.367C380.343 215.036 380.203 214.76 379.947 214.552C379.699 214.344 379.363 214.24 378.939 214.24C378.547 214.24 378.235 214.324 378.003 214.492C377.771 214.66 377.655 214.88 377.655 215.152C377.655 215.368 377.723 215.548 377.859 215.692C378.003 215.828 378.179 215.94 378.387 216.028C378.603 216.108 378.899 216.2 379.275 216.304C379.747 216.432 380.131 216.56 380.427 216.688C380.723 216.808 380.975 216.992 381.183 217.24C381.399 217.488 381.511 217.812 381.519 218.212C381.519 218.572 381.419 218.896 381.219 219.184C381.019 219.472 380.735 219.7 380.367 219.868C380.007 220.028 379.591 220.108 379.119 220.108Z" fill="#363636"/>
<path d="M119 226.75H113C107.57 226.75 105.25 224.43 105.25 219V213C105.25 207.57 107.57 205.25 113 205.25H119C124.43 205.25 126.75 207.57 126.75 213V219C126.75 224.43 124.43 226.75 119 226.75ZM113 206.75C108.39 206.75 106.75 208.39 106.75 213V219C106.75 223.61 108.39 225.25 113 225.25H119C123.61 225.25 125.25 223.61 125.25 219V213C125.25 208.39 123.61 206.75 119 206.75H113Z" fill="#292D32"/>
<path d="M104 139C104 135.134 107.134 132 111 132H121C124.866 132 128 135.134 128 139V149C128 152.866 124.866 156 121 156H111C107.134 156 104 152.866 104 149V139Z" fill="#C8EFE1"/>
<path d="M104 175C104 171.134 107.134 168 111 168H121C124.866 168 128 171.134 128 175V185C128 188.866 124.866 192 121 192H111C107.134 192 104 188.866 104 185V175Z" fill="#C8EFE1"/>
<path d="M119 154.75H113C107.57 154.75 105.25 152.43 105.25 147V141C105.25 135.57 107.57 133.25 113 133.25H119C124.43 133.25 126.75 135.57 126.75 141V147C126.75 152.43 124.43 154.75 119 154.75ZM113 134.75C108.39 134.75 106.75 136.39 106.75 141V147C106.75 151.61 108.39 153.25 113 153.25H119C123.61 153.25 125.25 151.61 125.25 147V141C125.25 136.39 123.61 134.75 119 134.75H113Z" fill="#3BC191"/>
<path d="M114.58 147.58C114.38 147.58 114.19 147.5 114.05 147.36L111.22 144.53C110.93 144.24 110.93 143.76 111.22 143.47C111.51 143.18 111.99 143.18 112.28 143.47L114.58 145.77L119.72 140.63C120.01 140.34 120.49 140.34 120.78 140.63C121.07 140.92 121.07 141.4 120.78 141.69L115.11 147.36C114.97 147.5 114.78 147.58 114.58 147.58Z" fill="#3BC191"/>
<path d="M119 190.75H113C107.57 190.75 105.25 188.43 105.25 183V177C105.25 171.57 107.57 169.25 113 169.25H119C124.43 169.25 126.75 171.57 126.75 177V183C126.75 188.43 124.43 190.75 119 190.75ZM113 170.75C108.39 170.75 106.75 172.39 106.75 177V183C106.75 187.61 108.39 189.25 113 189.25H119C123.61 189.25 125.25 187.61 125.25 183V177C125.25 172.39 123.61 170.75 119 170.75H113Z" fill="#3BC191"/>
<path d="M114.58 183.58C114.38 183.58 114.19 183.5 114.05 183.36L111.22 180.53C110.93 180.24 110.93 179.76 111.22 179.47C111.51 179.18 111.99 179.18 112.28 179.47L114.58 181.77L119.72 176.63C120.01 176.34 120.49 176.34 120.78 176.63C121.07 176.92 121.07 177.4 120.78 177.69L115.11 183.36C114.97 183.5 114.78 183.58 114.58 183.58Z" fill="#3BC191"/>
</svg>
