<?xml version="1.0" encoding="utf-8"?>
<!-- Generator: Adobe Illustrator 26.3.1, SVG Export Plug-In . SVG Version: 6.00 Build 0)  -->
<svg version="1.1" baseProfile="tiny" id="Layer_1" xmlns="http://www.w3.org/2000/svg" xmlns:xlink="http://www.w3.org/1999/xlink"
	 x="0px" y="0px" width="514.7px" height="197.2px" viewBox="0 0 514.7 197.2" overflow="visible" xml:space="preserve">
<path fill="#F2EDED" d="M498.6,197.2H15.9c-8.8,0-15.9-4.4-15.9-9.8V9.8C0,4.4,7.1,0,15.9,0h482.8c8.8,0,15.9,4.4,15.9,9.8v177.7
	C514.6,192.8,507.4,197.2,498.6,197.2z"/>
<text transform="matrix(1 0 0 1 35.556 123.9041)" fill="#363636" font-family="'Poppins-SemiBold'" font-size="12px">Skills</text>
<text transform="matrix(0.7071 -0.7071 0.7071 0.7071 109.2347 110.8812)" fill="#363636" font-family="'Poppins-Regular'" font-size="12px">Print</text>
<text transform="matrix(1 0 0 1 94.4943 138.1617)" fill="#363636" font-family="'Poppins-Regular'" font-size="11px">2000</text>
<text transform="matrix(1 0 0 1 176.4984 138.1617)" fill="#363636" font-family="'Poppins-Regular'" font-size="11px">2006</text>
<text transform="matrix(1 0 0 1 258.5019 138.1617)" fill="#363636" font-family="'Poppins-Regular'" font-size="11px">2009</text>
<text transform="matrix(1 0 0 1 340.5057 138.1617)" fill="#363636" font-family="'Poppins-Regular'" font-size="11px">2014</text>
<line fill="none" stroke="#1C1C1C" stroke-miterlimit="10" x1="96.5" y1="119.7" x2="168.6" y2="119.7"/>
<circle fill="#363636" cx="97.9" cy="119.7" r="3.4"/>
<polyline fill="none" stroke="#363636" stroke-miterlimit="10" points="164.4,115.4 168.6,119.7 164.4,123.9 "/>
<text transform="matrix(0.7071 -0.7071 0.7071 0.7071 191.2384 110.8812)" fill="#363636" font-family="'Poppins-Regular'" font-size="12px">Advertising</text>
<line fill="none" stroke="#1C1C1C" stroke-miterlimit="10" x1="178.5" y1="119.7" x2="250.6" y2="119.7"/>
<circle fill="#363636" cx="179.9" cy="119.7" r="3.4"/>
<polyline fill="none" stroke="#363636" stroke-miterlimit="10" points="246.4,115.4 250.6,119.7 246.4,123.9 "/>
<text transform="matrix(0.7071 -0.7071 0.7071 0.7071 273.242 110.8812)" fill="#363636" font-family="'Poppins-Regular'" font-size="12px">Product Design</text>
<line fill="none" stroke="#1C1C1C" stroke-miterlimit="10" x1="260.5" y1="119.7" x2="332.6" y2="119.7"/>
<circle fill="#363636" cx="261.9" cy="119.7" r="3.4"/>
<polyline fill="none" stroke="#363636" stroke-miterlimit="10" points="328.4,115.4 332.6,119.7 328.4,123.9 "/>
<text transform="matrix(0.7071 -0.7071 0.7071 0.7071 355.2457 110.8812)" fill="#363636" font-family="'Poppins-Regular'" font-size="12px">Engineering</text>
<line fill="none" stroke="#1C1C1C" stroke-miterlimit="10" x1="342.5" y1="119.7" x2="414.6" y2="119.7"/>
<circle fill="#363636" cx="343.9" cy="119.7" r="3.4"/>
<polyline fill="none" stroke="#363636" stroke-miterlimit="10" points="410.4,115.4 414.6,119.7 410.4,123.9 "/>
<g>
	<path fill="#323232" d="M472.7,128.4c-1.9-0.1-3.1-1.5-3.1-3.4c0-2.7,0-5.3,0-8c0-2.9-0.8-5.4-2.6-7.6c-0.8-0.9-1.8-1.6-2.1-2.8
		c-0.1-0.4-0.2-0.6,0.1-1c1.9-2.8,1.9-6.3,0-9c-0.4-0.6-0.9-0.9-1.6-0.8c-0.4,0-0.8,0.1-1.2,0.2c-2.7,0.6-4.5,2.2-5.5,4.8
		c-0.1,0.3-0.3,0.5-0.7,0.4c-0.2,0-0.5,0-0.7,0c-0.4-2.5-0.9-4.9-1.3-7.2c-0.3-1.5-1.5-2.5-3-2.5c-1.4,0-2.6,1-2.9,2.5
		c-0.4,2.4-0.8,4.8-1.3,7.2l0,0c-1.1,0.2-1.1,0.2-1.5-0.8c-1.3-2.9-3.6-4.4-6.7-4.6c-0.6,0-1,0.2-1.3,0.7c-2,2.7-2,6.3-0.1,9
		c0.3,0.4,0.3,0.7,0.1,1.1c-0.6,1.1-0.9,2.4-1,3.7c-0.1,1.6,0.2,3.2,0.5,4.7c0.8,4.6,1.7,9.2,2.5,13.8c0,0.1,0,0.3,0,0.4
		c-0.7,1.2-0.6,2.4-0.3,3.6c1,4.6,4.6,7.6,9.2,7.6c4.9,0,9.9,0,14.8,0c0.8,0,1.6-0.1,2.3-0.2c4.8-0.9,8.5-5.5,8.4-10.5
		C473.8,128.9,473.5,128.5,472.7,128.4z M461.3,98.5c0.5-0.3,1.1-0.4,1.7-0.5c0.2,0,0.4,0.1,0.5,0.3c1.1,1.7,1,4.2-0.3,5.9
		c-1.3-1.3-2.8-2.2-4.5-2.7C459.2,100.1,460.1,99.2,461.3,98.5z M450.1,95c0-0.2,0.1-0.5,0.1-0.7c0.1-0.4,0.4-0.7,0.8-0.7
		c0.5,0,0.7,0.3,0.8,0.7c0.2,1,0.4,2,0.5,2.9c0.1,0.6,0.2,1.1,0.3,1.7h0h-3.3C449.7,97.6,449.9,96.3,450.1,95z M449,101.2h4.1
		c0.3,1.8,0.6,3.5,0.9,5.4h-6C448.4,104.8,448.7,103,449,101.2z M438.8,98.2c0.1-0.1,0.2-0.2,0.3-0.2c1.9,0.2,3.8,1.6,4.3,3.5h0
		c-1.7,0.5-3.2,1.4-4.5,2.7C437.7,102.6,437.6,99.8,438.8,98.2z M438.5,112.3c-0.9-4.8,3-9.2,7.8-9c0.1,0,0.1,0,0.2,0.1
		c-0.2,0.9-0.3,1.9-0.5,2.8c-0.2,1.2,0.6,2.5,1.8,2.5c2.2,0.1,4.4,0.1,6.6,0c1.1,0,1.9-1.2,1.8-2.3c-0.1-0.5-0.2-1-0.2-1.5
		c-0.1-0.5-0.2-1-0.3-1.5c2.3-0.1,4.3,0.6,5.9,2.3c2,2,2.5,4.5,2,7.3c-0.9,4.7-1.7,9.4-2.6,14.1c0,0.2-0.1,0.5-0.2,0.8v0
		c-6.5-2.3-13-2.3-19.5,0c-0.2-1.3-0.5-2.6-0.7-3.9C439.9,120.1,439.2,116.2,438.5,112.3z M455.8,138c-0.6,0.1-1.2,0.2-1.8,0.2
		c-1,0-1.9,0-2.9,0v0.1c-1.4-0.1-2.9,0-4.3-0.2c-3.2-0.4-5.8-3.5-5.8-6.8c0-0.8,0.2-1.1,0.9-1.3c2.4-0.9,4.9-1.4,7.5-1.6
		c3.7-0.3,7.2,0.3,10.7,1.5c1.2,0.4,1.4,0.7,1.2,2C460.8,134.9,458.8,137.3,455.8,138z M464.4,138.1c-1.4,0.2-2.8,0-4.2,0
		c0.4-0.5,0.9-1,1.3-1.6c1.3-1.8,2-3.9,1.7-6.1c0-0.1,0-0.1,0-0.2c-0.7-1.1-0.3-2.3-0.1-3.4c0.9-4.8,1.8-9.7,2.6-14.5
		c0-0.2,0-0.4,0.1-0.7c1.1,1.7,1.5,3.4,1.5,5.2c0,2.7,0,5.4,0,8c0,2.8,1.3,4.7,3.9,5.5c0.1,0,0.2,0.1,0.2,0.1
		C471.2,134.4,468.2,137.6,464.4,138.1z"/>
	<path fill="#323232" d="M454.7,118.6c0.4-0.4,0.7-0.8,1.2-1.3v0c0.5,0.6,0.9,1,1.3,1.5c0.5,0.5,1.2,0.5,1.6,0.1
		c0.4-0.4,0.4-1.1-0.1-1.7c-0.7-0.7-1.3-1.4-2-2c-0.5-0.5-1.2-0.5-1.7,0c-0.6,0.6-1.3,1.3-1.9,1.9c-0.5,0.5-0.5,1.2-0.1,1.6
		C453.5,119.2,454.2,119.2,454.7,118.6z"/>
	<path fill="#323232" d="M445.1,118.6c0.4-0.4,0.7-0.8,1.2-1.3l0,0c0.5,0.5,0.9,1,1.4,1.5c0.5,0.5,1.1,0.5,1.5,0.1
		c0.4-0.4,0.5-1,0-1.5c-0.7-0.8-1.4-1.5-2.1-2.2c-0.5-0.5-1.1-0.5-1.6,0.1c-0.6,0.6-1.2,1.2-1.8,1.9c-0.5,0.6-0.6,1.2-0.1,1.7
		C443.9,119.2,444.5,119.2,445.1,118.6z"/>
	<path fill="#323232" d="M448.5,131.7c-0.6,0-1.1,0.5-1.1,1.1c0,0.6,0.4,1.1,1,1.1v0c0.6,0,1.1-0.5,1.1-1
		C449.5,132.2,449,131.7,448.5,131.7z"/>
	<path fill="#323232" d="M453.8,131.7c-0.6,0-1.1,0.5-1.1,1.1c0,0.6,0.5,1.1,1.1,1.1c0.6,0,1.1-0.5,1.1-1.1
		C454.8,132.2,454.4,131.7,453.8,131.7z"/>
</g>
</svg>
