<?xml version="1.0" encoding="utf-8"?>
<!-- Generator: Adobe Illustrator 26.3.1, SVG Export Plug-In . SVG Version: 6.00 Build 0)  -->
<svg version="1.1" baseProfile="tiny" id="Layer_1" xmlns="http://www.w3.org/2000/svg" xmlns:xlink="http://www.w3.org/1999/xlink"
	 x="0px" y="0px" width="514.7px" height="197.2px" viewBox="0 0 514.7 197.2" overflow="visible" xml:space="preserve">
<path fill="#F2EDED" d="M498.6,197.2H16c-8.8,0-16-7.2-16-16V16C0,7.2,7.2,0,16,0h482.6c8.8,0,16,7.2,16,16v165.2
	C514.7,190,507.5,197.2,498.6,197.2z"/>
<g>
	<path fill="#363636" d="M37.7,123.7c-0.5-0.2-0.8-0.5-1.1-0.9c-0.3-0.4-0.4-0.8-0.4-1.3H38c0,0.3,0.1,0.6,0.4,0.8
		c0.2,0.2,0.5,0.3,0.9,0.3c0.4,0,0.7-0.1,0.9-0.3c0.2-0.2,0.3-0.4,0.3-0.7c0-0.2-0.1-0.5-0.2-0.6s-0.3-0.3-0.6-0.4s-0.5-0.2-0.9-0.3
		c-0.5-0.2-1-0.3-1.3-0.5s-0.6-0.4-0.9-0.7s-0.4-0.7-0.4-1.3c0-0.5,0.1-0.9,0.4-1.3c0.2-0.4,0.6-0.6,1-0.8c0.4-0.2,1-0.3,1.5-0.3
		c0.9,0,1.6,0.2,2.1,0.6s0.8,1,0.9,1.8h-1.8c0-0.3-0.1-0.5-0.4-0.7c-0.2-0.2-0.5-0.3-0.9-0.3c-0.3,0-0.6,0.1-0.8,0.3
		c-0.2,0.2-0.3,0.4-0.3,0.7c0,0.2,0.1,0.4,0.2,0.6c0.1,0.1,0.3,0.3,0.6,0.4c0.2,0.1,0.5,0.2,0.9,0.3c0.5,0.2,1,0.3,1.3,0.5
		c0.3,0.2,0.6,0.4,0.9,0.7c0.2,0.3,0.4,0.7,0.4,1.3c0,0.4-0.1,0.9-0.3,1.2s-0.6,0.7-1,0.9c-0.4,0.2-1,0.3-1.6,0.3
		C38.7,124,38.2,123.9,37.7,123.7z"/>
	<path fill="#363636" d="M47.6,123.9l-2.3-2.8v2.8h-1.7V115h1.7v5.1l2.2-2.8h2.2l-2.9,3.3l3,3.3H47.6z"/>
	<path fill="#363636" d="M50.8,116.2c-0.2-0.2-0.3-0.4-0.3-0.7s0.1-0.5,0.3-0.7c0.2-0.2,0.4-0.3,0.7-0.3c0.3,0,0.5,0.1,0.7,0.3
		c0.2,0.2,0.3,0.4,0.3,0.7s-0.1,0.5-0.3,0.7c-0.2,0.2-0.4,0.3-0.7,0.3C51.3,116.5,51,116.4,50.8,116.2z M52.4,117.3v6.6h-1.7v-6.6
		H52.4z"/>
	<path fill="#363636" d="M55.7,115v8.9H54V115H55.7z"/>
	<path fill="#363636" d="M59.1,115v8.9h-1.7V115H59.1z"/>
	<path fill="#363636" d="M61.8,123.7c-0.4-0.2-0.8-0.5-1-0.8s-0.4-0.7-0.4-1.1H62c0,0.3,0.2,0.5,0.4,0.6c0.2,0.2,0.5,0.3,0.8,0.3
		c0.3,0,0.6-0.1,0.8-0.2c0.2-0.1,0.3-0.3,0.3-0.5c0-0.2-0.1-0.4-0.3-0.5c-0.2-0.1-0.6-0.2-1-0.4c-0.5-0.1-0.9-0.2-1.2-0.4
		c-0.3-0.1-0.6-0.3-0.8-0.6c-0.2-0.3-0.3-0.6-0.3-1.1c0-0.4,0.1-0.7,0.3-1c0.2-0.3,0.5-0.5,0.9-0.7s0.9-0.3,1.4-0.3
		c0.8,0,1.4,0.2,1.9,0.6c0.5,0.4,0.7,0.9,0.8,1.6h-1.6c0-0.3-0.1-0.5-0.3-0.6c-0.2-0.2-0.5-0.2-0.8-0.2c-0.3,0-0.5,0.1-0.7,0.2
		s-0.2,0.3-0.2,0.5c0,0.2,0.1,0.4,0.3,0.5c0.2,0.1,0.6,0.2,1,0.4c0.5,0.1,0.9,0.2,1.2,0.4s0.6,0.3,0.8,0.6c0.2,0.3,0.3,0.6,0.4,1.1
		c0,0.4-0.1,0.7-0.3,1c-0.2,0.3-0.5,0.5-0.9,0.7s-0.9,0.3-1.4,0.3C62.7,124,62.2,123.9,61.8,123.7z"/>
</g>
<g>
	<path fill="#363636" d="M110.4,103.8c0,0.7-0.4,1.3-1.1,2l-1.1,1.1l2.5,2.5l-0.8,0.8l-5.9-5.9l1.9-1.9c0.7-0.7,1.3-1,2-1
		c0.7,0,1.3,0.2,1.8,0.7C110.2,102.6,110.4,103.2,110.4,103.8z M109.4,104c0-0.4-0.1-0.8-0.5-1.1c-0.7-0.7-1.5-0.7-2.3,0.2l-1.1,1.1
		l2.2,2.2l1.1-1.1C109.1,104.8,109.3,104.4,109.4,104z"/>
	<path fill="#363636" d="M111.6,99.4c0.1-0.4,0.3-0.8,0.7-1.1l0.8,0.8l-0.2,0.2c-0.9,0.9-0.8,1.8,0.1,2.7l2.5,2.5l-0.8,0.8l-4.7-4.6
		l0.8-0.8l0.8,0.8C111.5,100.2,111.5,99.8,111.6,99.4z"/>
	<path fill="#363636" d="M112.4,96.6c-0.2,0-0.4-0.1-0.5-0.2c-0.1-0.1-0.2-0.3-0.2-0.5c0-0.2,0.1-0.4,0.2-0.5
		c0.1-0.1,0.3-0.2,0.5-0.2s0.4,0.1,0.5,0.2c0.1,0.1,0.2,0.3,0.2,0.5c0,0.2-0.1,0.4-0.2,0.5C112.8,96.5,112.6,96.6,112.4,96.6z
		 M114.1,96.7l4.7,4.6l-0.8,0.8l-4.6-4.6L114.1,96.7z"/>
	<path fill="#363636" d="M119.5,92.2c0.7,0,1.4,0.3,2,1l2.7,2.7l-0.8,0.8l-2.6-2.6c-0.5-0.5-0.9-0.7-1.4-0.7c-0.5,0-0.9,0.2-1.3,0.6
		c-0.4,0.4-0.6,0.9-0.6,1.4c0,0.5,0.3,1,0.8,1.5l2.6,2.6l-0.8,0.8l-4.7-4.6l0.8-0.8l0.7,0.7c-0.1-0.4-0.1-0.8,0.1-1.2
		c0.1-0.4,0.4-0.7,0.7-1.1C118.1,92.5,118.8,92.2,119.5,92.2z"/>
	<path fill="#363636" d="M122.4,89.7l2.7,2.7c0.2,0.2,0.4,0.3,0.6,0.3c0.2,0,0.4-0.1,0.6-0.4l0.6-0.6l0.7,0.7l-0.7,0.7
		c-0.4,0.4-0.9,0.7-1.3,0.7s-0.8-0.2-1.3-0.7l-2.7-2.7l-0.6,0.6l-0.6-0.6l0.6-0.6l-1.2-1.2l0.8-0.8l1.2,1.2l1.2-1.2l0.6,0.6
		L122.4,89.7z"/>
</g>
<g>
	<path fill="#363636" d="M97.2,135.5c0.5-0.5,1-1,1.3-1.5c0.4-0.5,0.5-1,0.5-1.5c0-0.5-0.1-0.9-0.3-1.1c-0.2-0.3-0.6-0.4-1.1-0.4
		c-0.5,0-0.9,0.2-1.2,0.5c-0.3,0.3-0.4,0.7-0.4,1.2h-1c0-0.8,0.3-1.5,0.7-1.9s1.1-0.7,1.8-0.7c0.8,0,1.4,0.2,1.8,0.6
		c0.4,0.4,0.7,1,0.7,1.7c0,0.6-0.2,1.2-0.5,1.8c-0.4,0.6-0.8,1.1-1.2,1.5s-1.1,0.9-1.8,1.5h3.8v0.8h-5.3v-0.7
		C96,136.6,96.7,136,97.2,135.5z"/>
	<path fill="#363636" d="M102.1,131.1c0.4-0.7,1.1-1.1,2.2-1.1c1,0,1.7,0.4,2.1,1.1c0.4,0.7,0.6,1.7,0.6,3c0,1.3-0.2,2.3-0.6,3
		c-0.4,0.7-1.1,1.1-2.1,1.1c-1,0-1.7-0.4-2.2-1.1c-0.4-0.7-0.6-1.7-0.6-3C101.5,132.8,101.7,131.9,102.1,131.1z M105.9,132.5
		c-0.1-0.4-0.3-0.8-0.5-1.1s-0.6-0.4-1.1-0.4c-0.5,0-0.9,0.1-1.1,0.4s-0.4,0.6-0.5,1.1c-0.1,0.4-0.1,1-0.1,1.6c0,0.7,0,1.2,0.1,1.7
		c0.1,0.4,0.3,0.8,0.5,1.1c0.3,0.3,0.6,0.4,1.1,0.4c0.5,0,0.9-0.1,1.1-0.4c0.3-0.3,0.4-0.6,0.5-1.1c0.1-0.4,0.1-1,0.1-1.7
		C106,133.5,106,132.9,105.9,132.5z"/>
	<path fill="#363636" d="M109,131.1c0.4-0.7,1.1-1.1,2.2-1.1c1,0,1.7,0.4,2.1,1.1c0.4,0.7,0.6,1.7,0.6,3c0,1.3-0.2,2.3-0.6,3
		c-0.4,0.7-1.1,1.1-2.1,1.1c-1,0-1.7-0.4-2.2-1.1c-0.4-0.7-0.6-1.7-0.6-3C108.4,132.8,108.6,131.9,109,131.1z M112.8,132.5
		c-0.1-0.4-0.3-0.8-0.5-1.1s-0.6-0.4-1.1-0.4c-0.5,0-0.9,0.1-1.1,0.4s-0.4,0.6-0.5,1.1c-0.1,0.4-0.1,1-0.1,1.6c0,0.7,0,1.2,0.1,1.7
		c0.1,0.4,0.3,0.8,0.5,1.1c0.3,0.3,0.6,0.4,1.1,0.4c0.5,0,0.9-0.1,1.1-0.4c0.3-0.3,0.4-0.6,0.5-1.1c0.1-0.4,0.1-1,0.1-1.7
		C113,133.5,112.9,132.9,112.8,132.5z"/>
	<path fill="#363636" d="M115.9,131.1c0.4-0.7,1.1-1.1,2.2-1.1c1,0,1.7,0.4,2.1,1.1c0.4,0.7,0.6,1.7,0.6,3c0,1.3-0.2,2.3-0.6,3
		c-0.4,0.7-1.1,1.1-2.1,1.1c-1,0-1.7-0.4-2.2-1.1c-0.4-0.7-0.6-1.7-0.6-3C115.3,132.8,115.5,131.9,115.9,131.1z M119.7,132.5
		c-0.1-0.4-0.3-0.8-0.5-1.1s-0.6-0.4-1.1-0.4c-0.5,0-0.9,0.1-1.1,0.4s-0.4,0.6-0.5,1.1c-0.1,0.4-0.1,1-0.1,1.6c0,0.7,0,1.2,0.1,1.7
		c0.1,0.4,0.3,0.8,0.5,1.1c0.3,0.3,0.6,0.4,1.1,0.4c0.5,0,0.9-0.1,1.1-0.4c0.3-0.3,0.4-0.6,0.5-1.1c0.1-0.4,0.1-1,0.1-1.7
		C119.9,133.5,119.8,132.9,119.7,132.5z"/>
</g>
<g>
	<path fill="#363636" d="M179.2,135.5c0.5-0.5,1-1,1.3-1.5c0.4-0.5,0.5-1,0.5-1.5c0-0.5-0.1-0.9-0.3-1.1c-0.2-0.3-0.6-0.4-1.1-0.4
		c-0.5,0-0.9,0.2-1.2,0.5c-0.3,0.3-0.4,0.7-0.4,1.2h-1c0-0.8,0.3-1.5,0.7-1.9s1.1-0.7,1.8-0.7c0.8,0,1.4,0.2,1.8,0.6
		c0.4,0.4,0.7,1,0.7,1.7c0,0.6-0.2,1.2-0.5,1.8c-0.4,0.6-0.8,1.1-1.2,1.5s-1.1,0.9-1.8,1.5h3.8v0.8h-5.3v-0.7
		C178,136.6,178.7,136,179.2,135.5z"/>
	<path fill="#363636" d="M184.1,131.1c0.4-0.7,1.1-1.1,2.2-1.1c1,0,1.7,0.4,2.1,1.1c0.4,0.7,0.6,1.7,0.6,3c0,1.3-0.2,2.3-0.6,3
		c-0.4,0.7-1.1,1.1-2.1,1.1c-1,0-1.7-0.4-2.2-1.1c-0.4-0.7-0.6-1.7-0.6-3C183.5,132.8,183.7,131.9,184.1,131.1z M187.9,132.5
		c-0.1-0.4-0.3-0.8-0.5-1.1s-0.6-0.4-1.1-0.4c-0.5,0-0.9,0.1-1.1,0.4s-0.4,0.6-0.5,1.1c-0.1,0.4-0.1,1-0.1,1.6c0,0.7,0,1.2,0.1,1.7
		c0.1,0.4,0.3,0.8,0.5,1.1c0.3,0.3,0.6,0.4,1.1,0.4c0.5,0,0.9-0.1,1.1-0.4c0.3-0.3,0.4-0.6,0.5-1.1c0.1-0.4,0.1-1,0.1-1.7
		C188,133.5,188,132.9,187.9,132.5z"/>
	<path fill="#363636" d="M191,131.1c0.4-0.7,1.1-1.1,2.2-1.1c1,0,1.7,0.4,2.1,1.1c0.4,0.7,0.6,1.7,0.6,3c0,1.3-0.2,2.3-0.6,3
		c-0.4,0.7-1.1,1.1-2.1,1.1c-1,0-1.7-0.4-2.2-1.1c-0.4-0.7-0.6-1.7-0.6-3C190.4,132.8,190.6,131.9,191,131.1z M194.8,132.5
		c-0.1-0.4-0.3-0.8-0.5-1.1s-0.6-0.4-1.1-0.4c-0.5,0-0.9,0.1-1.1,0.4s-0.4,0.6-0.5,1.1c-0.1,0.4-0.1,1-0.1,1.6c0,0.7,0,1.2,0.1,1.7
		c0.1,0.4,0.3,0.8,0.5,1.1c0.3,0.3,0.6,0.4,1.1,0.4c0.5,0,0.9-0.1,1.1-0.4c0.3-0.3,0.4-0.6,0.5-1.1c0.1-0.4,0.1-1,0.1-1.7
		C195,133.5,194.9,132.9,194.8,132.5z"/>
	<path fill="#363636" d="M200.2,130.9c-0.7,0-1.1,0.3-1.5,0.8s-0.5,1.3-0.5,2.5c0.2-0.4,0.4-0.7,0.8-0.9c0.4-0.2,0.8-0.3,1.3-0.3
		c0.8,0,1.4,0.2,1.8,0.7c0.5,0.5,0.7,1.1,0.7,1.9c0,0.5-0.1,0.9-0.3,1.3c-0.2,0.4-0.5,0.7-0.9,0.9c-0.4,0.2-0.9,0.4-1.4,0.4
		c-0.8,0-1.3-0.2-1.8-0.5c-0.4-0.3-0.7-0.8-0.9-1.4c-0.2-0.6-0.3-1.3-0.3-2.2c0-2.7,0.9-4,2.8-4c0.7,0,1.3,0.2,1.7,0.6
		s0.7,0.9,0.7,1.5h-0.9C201.6,131.3,201.1,130.9,200.2,130.9z M199.4,133.9c-0.3,0.1-0.5,0.3-0.7,0.6c-0.2,0.3-0.3,0.6-0.3,1
		c0,0.6,0.2,1,0.5,1.4c0.3,0.3,0.8,0.5,1.4,0.5c0.5,0,0.9-0.2,1.2-0.5c0.3-0.3,0.5-0.7,0.5-1.3c0-0.6-0.1-1-0.4-1.3
		c-0.3-0.3-0.7-0.5-1.3-0.5C199.9,133.7,199.6,133.8,199.4,133.9z"/>
</g>
<g>
	<path fill="#363636" d="M261.3,135.5c0.5-0.5,1-1,1.3-1.5c0.4-0.5,0.5-1,0.5-1.5c0-0.5-0.1-0.9-0.3-1.1c-0.2-0.3-0.6-0.4-1.1-0.4
		c-0.5,0-0.9,0.2-1.2,0.5c-0.3,0.3-0.4,0.7-0.4,1.2h-1c0-0.8,0.3-1.5,0.7-1.9c0.5-0.4,1.1-0.7,1.8-0.7c0.8,0,1.4,0.2,1.8,0.6
		s0.7,1,0.7,1.7c0,0.6-0.2,1.2-0.5,1.8c-0.4,0.6-0.8,1.1-1.2,1.5s-1.1,0.9-1.8,1.5h3.8v0.8h-5.3v-0.7
		C260,136.6,260.7,136,261.3,135.5z"/>
	<path fill="#363636" d="M266.1,131.1c0.4-0.7,1.1-1.1,2.2-1.1c1,0,1.7,0.4,2.1,1.1c0.4,0.7,0.6,1.7,0.6,3c0,1.3-0.2,2.3-0.6,3
		c-0.4,0.7-1.1,1.1-2.1,1.1c-1,0-1.7-0.4-2.2-1.1c-0.4-0.7-0.6-1.7-0.6-3C265.5,132.8,265.7,131.9,266.1,131.1z M269.9,132.5
		c-0.1-0.4-0.3-0.8-0.5-1.1c-0.3-0.3-0.6-0.4-1.1-0.4c-0.5,0-0.9,0.1-1.1,0.4c-0.3,0.3-0.4,0.6-0.5,1.1c-0.1,0.4-0.1,1-0.1,1.6
		c0,0.7,0,1.2,0.1,1.7c0.1,0.4,0.3,0.8,0.5,1.1c0.3,0.3,0.6,0.4,1.1,0.4c0.5,0,0.9-0.1,1.1-0.4c0.3-0.3,0.4-0.6,0.5-1.1
		c0.1-0.4,0.1-1,0.1-1.7C270.1,133.5,270,132.9,269.9,132.5z"/>
	<path fill="#363636" d="M273,131.1c0.4-0.7,1.1-1.1,2.2-1.1c1,0,1.7,0.4,2.1,1.1c0.4,0.7,0.6,1.7,0.6,3c0,1.3-0.2,2.3-0.6,3
		c-0.4,0.7-1.1,1.1-2.1,1.1c-1,0-1.7-0.4-2.2-1.1c-0.4-0.7-0.6-1.7-0.6-3C272.4,132.8,272.6,131.9,273,131.1z M276.8,132.5
		c-0.1-0.4-0.3-0.8-0.5-1.1c-0.3-0.3-0.6-0.4-1.1-0.4c-0.5,0-0.9,0.1-1.1,0.4c-0.3,0.3-0.4,0.6-0.5,1.1c-0.1,0.4-0.1,1-0.1,1.6
		c0,0.7,0,1.2,0.1,1.7c0.1,0.4,0.3,0.8,0.5,1.1c0.3,0.3,0.6,0.4,1.1,0.4c0.5,0,0.9-0.1,1.1-0.4c0.3-0.3,0.4-0.6,0.5-1.1
		c0.1-0.4,0.1-1,0.1-1.7C277,133.5,276.9,132.9,276.8,132.5z"/>
	<path fill="#363636" d="M281.1,137c0.3,0.2,0.6,0.3,1.1,0.3c0.6,0,1.1-0.2,1.3-0.7s0.4-1.3,0.4-2.4c-0.2,0.3-0.4,0.6-0.8,0.8
		c-0.4,0.2-0.8,0.3-1.2,0.3c-0.5,0-0.9-0.1-1.3-0.3c-0.4-0.2-0.7-0.5-0.9-0.9s-0.3-0.9-0.3-1.4c0-0.8,0.2-1.4,0.7-1.9
		c0.5-0.5,1.1-0.7,1.9-0.7c1,0,1.7,0.3,2.2,1c0.4,0.7,0.6,1.7,0.6,3c0,0.9-0.1,1.7-0.2,2.3s-0.4,1.1-0.8,1.4s-0.9,0.5-1.6,0.5
		c-0.7,0-1.3-0.2-1.7-0.6s-0.7-0.9-0.7-1.5h0.9C280.7,136.4,280.9,136.8,281.1,137z M283.4,134c0.3-0.3,0.5-0.7,0.5-1.2
		c0-0.6-0.2-1-0.5-1.3c-0.3-0.3-0.7-0.5-1.3-0.5c-0.5,0-0.9,0.2-1.2,0.5c-0.3,0.3-0.5,0.7-0.5,1.3c0,0.5,0.2,1,0.5,1.3
		c0.3,0.3,0.7,0.5,1.3,0.5C282.7,134.4,283.1,134.3,283.4,134z"/>
</g>
<g>
	<path fill="#363636" d="M343.3,135.5c0.5-0.5,1-1,1.3-1.5c0.4-0.5,0.5-1,0.5-1.5c0-0.5-0.1-0.9-0.3-1.1c-0.2-0.3-0.6-0.4-1.1-0.4
		c-0.5,0-0.9,0.2-1.2,0.5c-0.3,0.3-0.4,0.7-0.4,1.2h-1c0-0.8,0.3-1.5,0.7-1.9c0.5-0.4,1.1-0.7,1.8-0.7c0.8,0,1.4,0.2,1.8,0.6
		s0.7,1,0.7,1.7c0,0.6-0.2,1.2-0.5,1.8c-0.4,0.6-0.8,1.1-1.2,1.5s-1.1,0.9-1.8,1.5h3.8v0.8h-5.3v-0.7
		C342,136.6,342.7,136,343.3,135.5z"/>
	<path fill="#363636" d="M348.1,131.1c0.4-0.7,1.1-1.1,2.2-1.1c1,0,1.7,0.4,2.1,1.1c0.4,0.7,0.6,1.7,0.6,3c0,1.3-0.2,2.3-0.6,3
		c-0.4,0.7-1.1,1.1-2.1,1.1c-1,0-1.7-0.4-2.2-1.1c-0.4-0.7-0.6-1.7-0.6-3C347.5,132.8,347.7,131.9,348.1,131.1z M351.9,132.5
		c-0.1-0.4-0.3-0.8-0.5-1.1c-0.3-0.3-0.6-0.4-1.1-0.4c-0.5,0-0.9,0.1-1.1,0.4c-0.3,0.3-0.4,0.6-0.5,1.1c-0.1,0.4-0.1,1-0.1,1.6
		c0,0.7,0,1.2,0.1,1.7c0.1,0.4,0.3,0.8,0.5,1.1c0.3,0.3,0.6,0.4,1.1,0.4c0.5,0,0.9-0.1,1.1-0.4c0.3-0.3,0.4-0.6,0.5-1.1
		c0.1-0.4,0.1-1,0.1-1.7C352.1,133.5,352,132.9,351.9,132.5z"/>
	<path fill="#363636" d="M354.2,131.1v-0.9h2.1v8h-1v-7H354.2z"/>
	<path fill="#363636" d="M357.7,136.4v-0.8l3.9-5.3h1.2v5.2h1.1v0.9h-1.1v1.8h-1v-1.8H357.7z M361.8,131.3l-3,4.2h3V131.3z"/>
</g>
<line fill="none" stroke="#1C1C1C" stroke-miterlimit="10" x1="96.5" y1="119.7" x2="168.6" y2="119.7"/>
<circle fill="#363636" cx="97.9" cy="119.7" r="3.4"/>
<polyline fill="none" stroke="#363636" stroke-miterlimit="10" points="164.4,115.4 168.6,119.7 164.4,123.9 "/>
<g>
	<path fill="#363636" d="M194.1,105.4l-2.6,2.6l0.8,1.8l-0.8,0.8l-3.7-8l0.9-0.9l8,3.8l-0.8,0.8L194.1,105.4z M193.2,105l-4.1-1.9
		l1.9,4.1L193.2,105z"/>
	<path fill="#363636" d="M194,100.9c-0.2-0.6-0.2-1.1,0-1.6c0.1-0.5,0.4-1,0.8-1.4c0.4-0.4,0.8-0.6,1.3-0.8c0.5-0.1,0.9-0.2,1.4-0.1
		l-2.5-2.5l0.8-0.8l6.3,6.3l-0.8,0.8l-0.9-0.9c0.1,0.4,0.1,0.9,0,1.4c-0.1,0.5-0.4,0.9-0.8,1.3c-0.4,0.4-0.9,0.7-1.4,0.8
		c-0.5,0.1-1.1,0.1-1.7-0.1c-0.6-0.2-1.1-0.5-1.5-1C194.5,102,194.2,101.5,194,100.9z M197.8,97.8c-0.4-0.1-0.8-0.1-1.2,0
		c-0.4,0.1-0.7,0.3-1,0.6c-0.3,0.3-0.5,0.6-0.6,1c-0.1,0.4-0.1,0.8,0,1.2c0.1,0.4,0.4,0.8,0.7,1.1c0.4,0.4,0.7,0.6,1.1,0.7
		c0.4,0.1,0.8,0.1,1.2,0s0.7-0.3,1-0.6c0.3-0.3,0.5-0.6,0.6-1c0.1-0.4,0.1-0.8,0-1.2c-0.1-0.4-0.4-0.8-0.7-1.1
		C198.6,98.2,198.2,97.9,197.8,97.8z"/>
	<path fill="#363636" d="M204.4,96.3l-2.5-5.4l0.8-0.8l2.8,6.5l-0.9,0.9l-6.5-2.8l0.8-0.8L204.4,96.3z"/>
	<path fill="#363636" d="M210.3,87.8l-3.7,3.7c0.5,0.4,1,0.6,1.5,0.6s1-0.2,1.4-0.7c0.3-0.3,0.5-0.7,0.6-1.1c0.1-0.4,0-0.7-0.2-1.1
		l0.8-0.8c0.3,0.6,0.4,1.2,0.3,1.8s-0.4,1.3-1,1.8c-0.4,0.4-0.9,0.7-1.5,0.9c-0.5,0.1-1.1,0.1-1.7,0c-0.6-0.2-1.1-0.5-1.6-1
		c-0.5-0.5-0.8-1-1-1.6c-0.2-0.6-0.2-1.1,0-1.6c0.2-0.5,0.5-1,0.9-1.5c0.4-0.4,0.9-0.7,1.5-0.9c0.5-0.1,1.1-0.1,1.6,0
		c0.5,0.2,1,0.4,1.4,0.9C210,87.4,210.1,87.6,210.3,87.8z M207.9,87.3c-0.3-0.1-0.7-0.1-1,0c-0.3,0.1-0.6,0.3-0.9,0.6
		c-0.4,0.4-0.6,0.8-0.6,1.4c0,0.5,0.2,1,0.6,1.5l2.9-2.9C208.6,87.6,208.3,87.4,207.9,87.3z"/>
	<path fill="#363636" d="M210.2,82.9c0.1-0.4,0.3-0.8,0.7-1.1l0.8,0.8l-0.2,0.2c-0.9,0.9-0.8,1.8,0.1,2.7l2.5,2.5l-0.8,0.8l-4.6-4.6
		l0.8-0.8l0.8,0.8C210.1,83.7,210.1,83.3,210.2,82.9z"/>
	<path fill="#363636" d="M213.5,80.6l2.7,2.7c0.2,0.2,0.4,0.3,0.6,0.3c0.2,0,0.4-0.1,0.6-0.4l0.6-0.6l0.7,0.7l-0.7,0.7
		c-0.4,0.4-0.9,0.7-1.3,0.7c-0.4,0-0.8-0.2-1.3-0.7l-2.7-2.7l-0.6,0.6l-0.6-0.6l0.6-0.6l-1.2-1.2l0.8-0.8l1.2,1.2l1.2-1.2l0.6,0.6
		L213.5,80.6z"/>
	<path fill="#363636" d="M214.1,76.9c-0.2,0-0.4-0.1-0.5-0.2c-0.1-0.1-0.2-0.3-0.2-0.5c0-0.2,0.1-0.4,0.2-0.5
		c0.1-0.1,0.3-0.2,0.5-0.2s0.4,0.1,0.5,0.2c0.1,0.1,0.2,0.3,0.2,0.5c0,0.2-0.1,0.4-0.2,0.5C214.5,76.8,214.3,76.9,214.1,76.9z
		 M215.7,77.1l4.6,4.6l-0.8,0.8l-4.7-4.6L215.7,77.1z"/>
	<path fill="#363636" d="M222.3,79.6c-0.4,0.2-0.8,0.2-1.2,0.2c-0.4-0.1-0.7-0.2-1-0.5l0.8-0.8c0.3,0.2,0.6,0.3,0.9,0.2
		c0.3,0,0.7-0.2,1-0.5c0.3-0.3,0.5-0.6,0.5-0.9c0-0.3,0-0.5-0.2-0.7c-0.2-0.2-0.4-0.3-0.7-0.2c-0.3,0.1-0.7,0.3-1.1,0.5
		c-0.4,0.3-0.8,0.4-1.1,0.6c-0.3,0.1-0.6,0.2-1,0.1c-0.3,0-0.7-0.2-1-0.5c-0.2-0.2-0.4-0.5-0.4-0.9c-0.1-0.3,0-0.7,0.1-1.1
		c0.1-0.4,0.4-0.7,0.7-1.1c0.5-0.5,1.1-0.8,1.6-0.9s1.1,0.1,1.6,0.6l-0.8,0.8c-0.3-0.2-0.6-0.3-0.9-0.3c-0.3,0-0.6,0.2-0.9,0.5
		c-0.3,0.3-0.4,0.6-0.5,0.8c0,0.3,0,0.5,0.2,0.7c0.2,0.2,0.3,0.2,0.5,0.2c0.2,0,0.4,0,0.6-0.1c0.2-0.1,0.5-0.2,0.8-0.4
		c0.4-0.2,0.8-0.4,1.1-0.5s0.6-0.2,0.9-0.1s0.6,0.2,0.9,0.5c0.3,0.3,0.4,0.6,0.5,0.9c0.1,0.3,0,0.7-0.1,1.1
		c-0.1,0.4-0.4,0.7-0.7,1.1C223.1,79.2,222.7,79.5,222.3,79.6z"/>
	<path fill="#363636" d="M220.6,70.4c-0.2,0-0.4-0.1-0.5-0.2c-0.1-0.1-0.2-0.3-0.2-0.5c0-0.2,0.1-0.4,0.2-0.5
		c0.1-0.1,0.3-0.2,0.5-0.2c0.2,0,0.4,0.1,0.5,0.2c0.1,0.1,0.2,0.3,0.2,0.5c0,0.2-0.1,0.4-0.2,0.5C221,70.3,220.8,70.4,220.6,70.4z
		 M222.3,70.6l4.7,4.6l-0.8,0.8l-4.6-4.6L222.3,70.6z"/>
	<path fill="#363636" d="M227.6,66c0.7,0,1.4,0.3,2,1l2.7,2.7l-0.8,0.8l-2.6-2.6c-0.5-0.5-0.9-0.7-1.4-0.7c-0.5,0-0.9,0.2-1.3,0.6
		c-0.4,0.4-0.6,0.9-0.6,1.4c0,0.5,0.3,1,0.8,1.5l2.6,2.6l-0.8,0.8l-4.7-4.6l0.8-0.8l0.7,0.7c-0.1-0.4-0.1-0.8,0.1-1.2
		s0.4-0.7,0.7-1.1C226.3,66.3,227,66,227.6,66z"/>
	<path fill="#363636" d="M232.2,61c0.5-0.1,0.9-0.1,1.3,0l-0.8-0.8l0.8-0.8l4.8,4.8c0.4,0.4,0.7,0.9,0.9,1.4c0.1,0.5,0.1,1,0,1.6
		c-0.2,0.5-0.4,1-0.9,1.5c-0.6,0.6-1.3,1-2,1.1c-0.7,0.1-1.3,0-1.9-0.5l0.8-0.8c0.4,0.2,0.8,0.2,1.2,0.2s0.8-0.3,1.2-0.7
		c0.4-0.4,0.6-0.9,0.6-1.4c0-0.5-0.2-1-0.7-1.5l-1-1c0.1,0.4,0.1,0.9,0,1.4c-0.1,0.5-0.4,0.9-0.8,1.3c-0.4,0.4-0.9,0.7-1.4,0.8
		c-0.5,0.1-1.1,0.1-1.7-0.1c-0.6-0.2-1.1-0.5-1.5-1c-0.5-0.5-0.8-1-1-1.5c-0.2-0.6-0.2-1.1,0-1.6c0.1-0.5,0.4-1,0.8-1.4
		C231.2,61.4,231.7,61.2,232.2,61z M233.8,61.8c-0.4-0.1-0.8-0.1-1.2,0c-0.4,0.1-0.7,0.3-1,0.6c-0.3,0.3-0.5,0.6-0.6,1
		c-0.1,0.4-0.1,0.8,0,1.2c0.1,0.4,0.4,0.8,0.7,1.1c0.4,0.4,0.7,0.6,1.1,0.7c0.4,0.1,0.8,0.1,1.2,0s0.7-0.3,1-0.6
		c0.3-0.3,0.5-0.6,0.6-1c0.1-0.4,0.1-0.8,0-1.2c-0.1-0.4-0.4-0.8-0.7-1.1C234.6,62.1,234.2,61.9,233.8,61.8z"/>
</g>
<line fill="none" stroke="#1C1C1C" stroke-miterlimit="10" x1="178.5" y1="119.7" x2="250.6" y2="119.7"/>
<circle fill="#363636" cx="179.9" cy="119.7" r="3.4"/>
<polyline fill="none" stroke="#363636" stroke-miterlimit="10" points="246.4,115.4 250.6,119.7 246.4,123.9 "/>
<g>
	<path fill="#363636" d="M274.4,103.8c0,0.7-0.4,1.3-1.1,2l-1.1,1.1l2.5,2.5l-0.8,0.8l-5.9-5.9l1.9-1.9c0.7-0.7,1.3-1,2-1
		c0.7,0,1.3,0.2,1.8,0.7C274.2,102.6,274.4,103.2,274.4,103.8z M273.4,104c0-0.4-0.1-0.8-0.5-1.1c-0.7-0.7-1.5-0.7-2.3,0.2l-1.1,1.1
		l2.2,2.2l1.1-1.1C273.1,104.8,273.4,104.4,273.4,104z"/>
	<path fill="#363636" d="M275.6,99.4c0.1-0.4,0.3-0.8,0.7-1.1l0.8,0.8l-0.2,0.2c-0.9,0.9-0.8,1.8,0.1,2.7l2.5,2.5l-0.8,0.8l-4.7-4.6
		l0.8-0.8l0.8,0.8C275.6,100.2,275.5,99.8,275.6,99.4z"/>
	<path fill="#363636" d="M282.6,101.1c-0.6,0.2-1.1,0.2-1.7,0c-0.6-0.2-1.1-0.5-1.6-1c-0.5-0.5-0.8-1-1-1.6s-0.2-1.1,0-1.7
		c0.2-0.6,0.5-1,0.9-1.5s0.9-0.7,1.5-0.9c0.6-0.2,1.1-0.2,1.7,0s1.1,0.5,1.6,1c0.5,0.5,0.8,1,1,1.6c0.2,0.6,0.1,1.1,0,1.7
		s-0.5,1.1-0.9,1.5C283.6,100.6,283.1,100.9,282.6,101.1z M284,98.5c0.1-0.4,0.1-0.8,0-1.2c-0.1-0.4-0.4-0.8-0.7-1.2
		c-0.4-0.4-0.8-0.6-1.2-0.7c-0.4-0.1-0.8-0.1-1.2,0c-0.4,0.1-0.7,0.3-1,0.6c-0.3,0.3-0.5,0.6-0.6,1c-0.1,0.4-0.1,0.7,0,1.1
		c0.1,0.4,0.4,0.8,0.7,1.2c0.4,0.4,0.8,0.6,1.2,0.8c0.4,0.1,0.8,0.1,1.1,0c0.4-0.1,0.7-0.3,1-0.6S283.9,98.9,284,98.5z"/>
	<path fill="#363636" d="M283.8,93.1c-0.2-0.6-0.2-1.1,0-1.6c0.1-0.5,0.4-1,0.8-1.4c0.4-0.4,0.8-0.6,1.3-0.8
		c0.5-0.1,0.9-0.2,1.4-0.1l-2.5-2.5l0.8-0.8l6.3,6.3l-0.8,0.8l-0.9-0.9c0.1,0.4,0.1,0.9,0,1.4c-0.1,0.5-0.4,0.9-0.8,1.3
		c-0.4,0.4-0.9,0.7-1.4,0.8c-0.5,0.1-1.1,0.1-1.7-0.1c-0.6-0.2-1.1-0.5-1.5-1C284.3,94.2,284,93.7,283.8,93.1z M287.6,90
		c-0.4-0.1-0.8-0.1-1.2,0c-0.4,0.1-0.7,0.3-1,0.6c-0.3,0.3-0.5,0.6-0.6,1c-0.1,0.4-0.1,0.8,0,1.2c0.1,0.4,0.4,0.8,0.7,1.1
		c0.4,0.4,0.7,0.6,1.1,0.7c0.4,0.1,0.8,0.1,1.2,0s0.7-0.3,1-0.6c0.3-0.3,0.5-0.6,0.6-1c0.1-0.4,0.1-0.8,0-1.2
		c-0.1-0.4-0.4-0.8-0.7-1.1C288.4,90.4,288,90.2,287.6,90z"/>
	<path fill="#363636" d="M292.6,82.2l4.7,4.6l-0.8,0.8l-0.7-0.7c0.1,0.4,0.1,0.8-0.1,1.2c-0.1,0.4-0.4,0.8-0.7,1.1
		c-0.4,0.4-0.8,0.6-1.2,0.8c-0.4,0.1-0.9,0.1-1.4,0c-0.5-0.1-0.9-0.4-1.3-0.8l-2.7-2.7l0.8-0.8l2.6,2.6c0.5,0.5,0.9,0.7,1.4,0.7
		c0.5,0,0.9-0.2,1.3-0.6c0.4-0.4,0.6-0.9,0.6-1.4c0-0.5-0.3-1-0.8-1.5l-2.6-2.6L292.6,82.2z"/>
	<path fill="#363636" d="M295,82c-0.2-0.6-0.2-1.1,0-1.6c0.1-0.5,0.4-1,0.9-1.5c0.6-0.6,1.2-0.9,1.8-1c0.6-0.1,1.3,0,1.9,0.4
		l-0.8,0.8c-0.4-0.2-0.7-0.3-1.1-0.2s-0.8,0.3-1.1,0.6c-0.4,0.4-0.6,0.9-0.6,1.5c0,0.6,0.3,1.1,0.9,1.7c0.6,0.6,1.1,0.9,1.7,0.9
		c0.6,0,1.1-0.2,1.5-0.6c0.3-0.3,0.5-0.7,0.6-1.1c0.1-0.4,0-0.8-0.2-1.1l0.8-0.8c0.4,0.6,0.5,1.2,0.4,1.9c-0.1,0.7-0.4,1.3-1,1.8
		c-0.4,0.4-0.9,0.7-1.5,0.9c-0.5,0.1-1.1,0.1-1.6,0c-0.6-0.2-1.1-0.5-1.6-1C295.5,83,295.1,82.5,295,82z"/>
	<path fill="#363636" d="M300.7,75.4l2.7,2.7c0.2,0.2,0.4,0.3,0.6,0.3c0.2,0,0.4-0.1,0.6-0.4l0.6-0.6l0.7,0.7l-0.7,0.7
		c-0.4,0.4-0.9,0.7-1.3,0.7c-0.4,0-0.8-0.2-1.3-0.7l-2.7-2.7l-0.6,0.6l-0.6-0.6l0.6-0.6l-1.2-1.2l0.8-0.8l1.2,1.2l1.2-1.2l0.6,0.6
		L300.7,75.4z"/>
	<path fill="#363636" d="M307,66c0.7-0.2,1.4-0.3,2.1-0.1c0.7,0.2,1.4,0.6,2,1.2c0.6,0.6,1,1.3,1.2,2c0.2,0.7,0.2,1.4-0.1,2.1
		c-0.2,0.7-0.7,1.4-1.3,2l-1.8,1.8l-5.9-5.9l1.8-1.8C305.6,66.6,306.3,66.2,307,66z M311.4,70.2c0-0.8-0.4-1.6-1.1-2.3
		c-0.7-0.7-1.5-1.1-2.3-1.1c-0.8,0-1.6,0.4-2.4,1.1l-1.1,1.1l4.6,4.6l1.1-1.1C311,71.8,311.4,71,311.4,70.2z"/>
	<path fill="#363636" d="M317.3,62.8l-3.7,3.7c0.5,0.4,1,0.6,1.5,0.6c0.5,0,1-0.2,1.4-0.7c0.3-0.3,0.5-0.7,0.6-1.1
		c0.1-0.4,0-0.7-0.2-1.1l0.8-0.8c0.3,0.6,0.4,1.2,0.3,1.8c-0.1,0.7-0.4,1.3-1,1.8c-0.4,0.4-0.9,0.7-1.5,0.9c-0.5,0.1-1.1,0.1-1.7,0
		c-0.6-0.2-1.1-0.5-1.6-1c-0.5-0.5-0.8-1-1-1.6c-0.2-0.6-0.2-1.1,0-1.6c0.2-0.5,0.5-1,0.9-1.5c0.4-0.4,0.9-0.7,1.5-0.9
		c0.5-0.1,1.1-0.1,1.6,0c0.5,0.2,1,0.4,1.4,0.9C317,62.4,317.1,62.6,317.3,62.8z M314.9,62.4c-0.3-0.1-0.7-0.1-1,0
		c-0.3,0.1-0.6,0.3-0.9,0.6c-0.4,0.4-0.6,0.8-0.6,1.4c0,0.5,0.2,1,0.6,1.5l2.9-2.9C315.6,62.6,315.2,62.5,314.9,62.4z"/>
	<path fill="#363636" d="M320.9,63c-0.4,0.2-0.8,0.2-1.2,0.2c-0.4-0.1-0.7-0.2-1-0.5l0.8-0.8c0.3,0.2,0.6,0.3,0.9,0.2
		c0.3,0,0.7-0.2,1-0.5c0.3-0.3,0.5-0.6,0.5-0.9s0-0.5-0.2-0.7c-0.2-0.2-0.4-0.3-0.7-0.2c-0.3,0.1-0.7,0.3-1.1,0.5
		c-0.4,0.3-0.8,0.4-1.1,0.6s-0.6,0.2-1,0.1c-0.3,0-0.7-0.2-1-0.5c-0.2-0.2-0.4-0.5-0.4-0.9s0-0.7,0.1-1.1c0.1-0.4,0.4-0.7,0.7-1.1
		c0.5-0.5,1.1-0.8,1.6-0.9c0.6-0.1,1.1,0.1,1.6,0.6l-0.8,0.8c-0.3-0.2-0.6-0.3-0.9-0.3c-0.3,0-0.6,0.2-0.9,0.5
		c-0.3,0.3-0.4,0.6-0.5,0.8c0,0.3,0,0.5,0.2,0.7c0.2,0.2,0.3,0.2,0.5,0.2c0.2,0,0.4,0,0.6-0.1c0.2-0.1,0.5-0.2,0.8-0.4
		c0.4-0.2,0.8-0.4,1.1-0.5s0.6-0.2,0.9-0.1s0.6,0.2,0.9,0.5c0.3,0.3,0.4,0.6,0.5,0.9c0.1,0.3,0,0.7-0.1,1.1
		c-0.1,0.4-0.4,0.7-0.7,1.1C321.7,62.6,321.3,62.8,320.9,63z"/>
	<path fill="#363636" d="M319.2,53.8c-0.2,0-0.4-0.1-0.5-0.2c-0.1-0.1-0.2-0.3-0.2-0.5c0-0.2,0.1-0.4,0.2-0.5
		c0.1-0.1,0.3-0.2,0.5-0.2s0.4,0.1,0.5,0.2c0.1,0.1,0.2,0.3,0.2,0.5c0,0.2-0.1,0.4-0.2,0.5C319.6,53.7,319.4,53.8,319.2,53.8z
		 M320.9,53.9l4.7,4.6l-0.8,0.8l-4.6-4.6L320.9,53.9z"/>
	<path fill="#363636" d="M325.4,49.8c0.5-0.1,0.9-0.1,1.3,0l-0.8-0.8l0.8-0.8l4.8,4.8c0.4,0.4,0.7,0.9,0.9,1.4c0.2,0.5,0.2,1,0,1.6
		c-0.1,0.5-0.4,1-0.9,1.5c-0.6,0.6-1.3,1-2,1.1c-0.7,0.1-1.3,0-1.9-0.5l0.8-0.8c0.4,0.2,0.8,0.2,1.2,0.2c0.4-0.1,0.8-0.3,1.2-0.7
		c0.4-0.4,0.6-0.9,0.6-1.4c0-0.5-0.2-1-0.7-1.5l-1-1c0.1,0.4,0.1,0.9,0,1.4c-0.1,0.5-0.4,0.9-0.8,1.3c-0.4,0.4-0.9,0.7-1.4,0.8
		s-1.1,0.1-1.7-0.1c-0.6-0.2-1.1-0.5-1.5-1c-0.5-0.5-0.8-1-1-1.5c-0.2-0.6-0.2-1.1,0-1.6c0.1-0.5,0.4-1,0.8-1.4
		C324.4,50.2,324.9,50,325.4,49.8z M327,50.6c-0.4-0.1-0.8-0.1-1.2,0c-0.4,0.1-0.7,0.3-1,0.6c-0.3,0.3-0.5,0.6-0.6,1
		c-0.1,0.4-0.1,0.8,0,1.2c0.1,0.4,0.4,0.8,0.7,1.1c0.4,0.4,0.7,0.6,1.1,0.7c0.4,0.1,0.8,0.1,1.2,0c0.4-0.1,0.7-0.3,1-0.6
		c0.3-0.3,0.5-0.6,0.6-1c0.1-0.4,0.1-0.8,0-1.2c-0.1-0.4-0.4-0.8-0.7-1.1C327.8,50.9,327.4,50.7,327,50.6z"/>
	<path fill="#363636" d="M332,43.7c0.7,0,1.4,0.3,2,1l2.7,2.7l-0.8,0.8l-2.6-2.6c-0.5-0.5-0.9-0.7-1.4-0.7c-0.5,0-0.9,0.2-1.3,0.6
		c-0.4,0.4-0.6,0.9-0.6,1.4c0,0.5,0.3,1,0.8,1.5l2.6,2.6l-0.8,0.8l-4.7-4.6l0.8-0.8l0.7,0.7c-0.1-0.4-0.1-0.8,0.1-1.2
		c0.1-0.4,0.4-0.7,0.7-1.1C330.7,44,331.3,43.7,332,43.7z"/>
</g>
<line fill="none" stroke="#1C1C1C" stroke-miterlimit="10" x1="260.5" y1="119.7" x2="332.6" y2="119.7"/>
<circle fill="#363636" cx="261.9" cy="119.7" r="3.4"/>
<polyline fill="none" stroke="#363636" stroke-miterlimit="10" points="328.4,115.4 332.6,119.7 328.4,123.9 "/>
<g>
	<path fill="#363636" d="M351.4,104.2l2,2l2.2-2.2l0.6,0.6l-2.2,2.2l2,2l2.4-2.4l0.6,0.6l-3.2,3.2l-5.9-5.9l3.2-3.2l0.6,0.6
		L351.4,104.2z"/>
	<path fill="#363636" d="M359.7,98c0.7,0,1.4,0.3,2,1l2.7,2.7l-0.8,0.8l-2.6-2.6c-0.5-0.5-0.9-0.7-1.4-0.7c-0.5,0-0.9,0.2-1.3,0.6
		c-0.4,0.4-0.6,0.9-0.6,1.4c0,0.5,0.3,1,0.8,1.5l2.6,2.6l-0.8,0.8l-4.7-4.6l0.8-0.8l0.7,0.7c-0.1-0.4-0.1-0.8,0.1-1.2
		c0.1-0.4,0.4-0.7,0.7-1.1C358.3,98.3,359,98,359.7,98z"/>
	<path fill="#363636" d="M364.2,93c0.5-0.1,0.9-0.1,1.3,0l-0.8-0.8l0.8-0.8l4.8,4.8c0.4,0.4,0.7,0.9,0.9,1.4c0.1,0.5,0.1,1,0,1.6
		c-0.2,0.5-0.4,1-0.9,1.5c-0.6,0.6-1.3,1-2,1.1c-0.7,0.1-1.3,0-1.9-0.5l0.8-0.8c0.4,0.2,0.8,0.2,1.2,0.2c0.4-0.1,0.8-0.3,1.2-0.7
		c0.4-0.4,0.6-0.9,0.6-1.4c0-0.5-0.2-1-0.7-1.5l-1-1c0.1,0.4,0.1,0.9,0,1.4c-0.1,0.5-0.4,0.9-0.8,1.3c-0.4,0.4-0.9,0.7-1.4,0.8
		c-0.5,0.1-1.1,0.1-1.7-0.1c-0.6-0.2-1.1-0.5-1.5-1c-0.5-0.5-0.8-1-1-1.5c-0.2-0.6-0.2-1.1,0-1.6c0.1-0.5,0.4-1,0.8-1.4
		C363.3,93.4,363.7,93.1,364.2,93z M365.9,93.8c-0.4-0.1-0.8-0.1-1.2,0c-0.4,0.1-0.7,0.3-1,0.6c-0.3,0.3-0.5,0.6-0.6,1
		c-0.1,0.4-0.1,0.8,0,1.2c0.1,0.4,0.4,0.8,0.7,1.1c0.4,0.4,0.7,0.6,1.1,0.7c0.4,0.1,0.8,0.1,1.2,0c0.4-0.1,0.7-0.3,1-0.6
		c0.3-0.3,0.5-0.6,0.6-1c0.1-0.4,0.1-0.8,0-1.2c-0.1-0.4-0.4-0.8-0.7-1.1C366.6,94.1,366.3,93.9,365.9,93.8z"/>
	<path fill="#363636" d="M365.9,89.1c-0.2,0-0.4-0.1-0.5-0.2c-0.1-0.1-0.2-0.3-0.2-0.5c0-0.2,0.1-0.4,0.2-0.5
		c0.1-0.1,0.3-0.2,0.5-0.2c0.2,0,0.4,0.1,0.5,0.2c0.1,0.1,0.2,0.3,0.2,0.5c0,0.2-0.1,0.4-0.2,0.5C366.3,89.1,366.1,89.1,365.9,89.1z
		 M367.5,89.3l4.7,4.6l-0.8,0.8l-4.6-4.6L367.5,89.3z"/>
	<path fill="#363636" d="M372.9,84.8c0.7,0,1.4,0.3,2,1l2.7,2.7l-0.8,0.8l-2.6-2.6c-0.5-0.5-0.9-0.7-1.4-0.7s-0.9,0.2-1.3,0.6
		c-0.4,0.4-0.6,0.9-0.6,1.4c0,0.5,0.3,1,0.8,1.5l2.6,2.6l-0.8,0.8l-4.7-4.6l0.8-0.8l0.7,0.7c-0.1-0.4-0.1-0.8,0.1-1.2
		c0.1-0.4,0.4-0.7,0.7-1.1C371.6,85.1,372.2,84.8,372.9,84.8z"/>
	<path fill="#363636" d="M381.1,80.9l-3.7,3.7c0.5,0.4,1,0.6,1.5,0.6s1-0.2,1.4-0.7c0.3-0.3,0.5-0.7,0.6-1.1c0.1-0.4,0-0.7-0.2-1.1
		l0.8-0.8c0.3,0.6,0.4,1.2,0.3,1.8c-0.1,0.7-0.4,1.3-1,1.8c-0.4,0.4-0.9,0.7-1.5,0.9c-0.5,0.1-1.1,0.1-1.7,0c-0.6-0.2-1.1-0.5-1.6-1
		c-0.5-0.5-0.8-1-1-1.6c-0.2-0.6-0.2-1.1,0-1.6c0.2-0.5,0.5-1,0.9-1.5c0.4-0.4,0.9-0.7,1.5-0.9c0.5-0.1,1.1-0.1,1.6,0
		c0.5,0.2,1,0.4,1.4,0.9C380.8,80.6,381,80.8,381.1,80.9z M378.8,80.5c-0.3-0.1-0.7-0.1-1,0c-0.3,0.1-0.6,0.3-0.9,0.6
		c-0.4,0.4-0.6,0.8-0.6,1.4c0,0.5,0.2,1,0.6,1.5l2.9-2.9C379.4,80.8,379.1,80.6,378.8,80.5z"/>
	<path fill="#363636" d="M386.4,75.7l-3.7,3.7c0.5,0.4,1,0.6,1.5,0.6s1-0.2,1.4-0.7c0.3-0.3,0.5-0.7,0.6-1.1c0.1-0.4,0-0.7-0.2-1.1
		l0.8-0.8c0.3,0.6,0.4,1.2,0.3,1.8c-0.1,0.7-0.4,1.3-1,1.8c-0.4,0.4-0.9,0.7-1.5,0.9c-0.5,0.1-1.1,0.1-1.7,0c-0.6-0.2-1.1-0.5-1.6-1
		c-0.5-0.5-0.8-1-1-1.6c-0.2-0.6-0.2-1.1,0-1.6c0.2-0.5,0.5-1,0.9-1.5c0.4-0.4,0.9-0.7,1.5-0.9c0.5-0.1,1.1-0.1,1.6,0
		c0.5,0.2,1,0.4,1.4,0.9C386.1,75.3,386.2,75.5,386.4,75.7z M384,75.3c-0.3-0.1-0.7-0.1-1,0c-0.3,0.1-0.6,0.3-0.9,0.6
		c-0.4,0.4-0.6,0.8-0.6,1.4c0,0.5,0.2,1,0.6,1.5l2.9-2.9C384.7,75.5,384.4,75.3,384,75.3z"/>
	<path fill="#363636" d="M386.3,70.8c0.1-0.4,0.3-0.8,0.7-1.1l0.8,0.8l-0.2,0.2c-0.9,0.9-0.8,1.8,0.1,2.7l2.5,2.5l-0.8,0.8l-4.7-4.6
		l0.8-0.8l0.8,0.8C386.2,71.6,386.2,71.2,386.3,70.8z"/>
	<path fill="#363636" d="M387.1,67.9c-0.2,0-0.4-0.1-0.5-0.2c-0.1-0.1-0.2-0.3-0.2-0.5c0-0.2,0.1-0.4,0.2-0.5
		c0.1-0.1,0.3-0.2,0.5-0.2c0.2,0,0.4,0.1,0.5,0.2c0.1,0.1,0.2,0.3,0.2,0.5c0,0.2-0.1,0.4-0.2,0.5C387.5,67.8,387.3,67.9,387.1,67.9z
		 M388.7,68.1l4.7,4.6l-0.8,0.8l-4.7-4.6L388.7,68.1z"/>
	<path fill="#363636" d="M394.1,63.6c0.7,0,1.4,0.3,2,1l2.7,2.7l-0.8,0.8l-2.6-2.6c-0.5-0.5-0.9-0.7-1.4-0.7c-0.5,0-0.9,0.2-1.3,0.6
		c-0.4,0.4-0.6,0.9-0.6,1.4c0,0.5,0.3,1,0.8,1.5l2.6,2.6l-0.8,0.8l-4.7-4.6l0.8-0.8l0.7,0.7c-0.1-0.4-0.1-0.8,0.1-1.2
		s0.4-0.7,0.7-1.1C392.8,63.9,393.4,63.6,394.1,63.6z"/>
	<path fill="#363636" d="M398.7,58.5c0.5-0.1,0.9-0.1,1.3,0l-0.8-0.8l0.8-0.8l4.8,4.8c0.4,0.4,0.7,0.9,0.9,1.4c0.2,0.5,0.2,1,0,1.6
		c-0.1,0.5-0.4,1-0.9,1.5c-0.6,0.6-1.3,1-2,1.1c-0.7,0.1-1.3,0-1.9-0.5l0.8-0.8c0.4,0.2,0.8,0.2,1.2,0.2c0.4-0.1,0.8-0.3,1.2-0.7
		c0.4-0.4,0.6-0.9,0.6-1.4c0-0.5-0.2-1-0.7-1.5l-1-1c0.1,0.4,0.1,0.9,0,1.4c-0.1,0.5-0.4,0.9-0.8,1.3c-0.4,0.4-0.9,0.7-1.4,0.8
		c-0.5,0.1-1.1,0.1-1.7-0.1c-0.6-0.2-1.1-0.5-1.5-1c-0.5-0.5-0.8-1-1-1.5c-0.2-0.6-0.2-1.1,0-1.6c0.1-0.5,0.4-1,0.8-1.4
		C397.7,58.9,398.2,58.7,398.7,58.5z M400.3,59.3c-0.4-0.1-0.8-0.1-1.2,0c-0.4,0.1-0.7,0.3-1,0.6c-0.3,0.3-0.5,0.6-0.6,1
		c-0.1,0.4-0.1,0.8,0,1.2s0.4,0.8,0.7,1.1c0.4,0.4,0.7,0.6,1.1,0.7c0.4,0.1,0.8,0.1,1.2,0c0.4-0.1,0.7-0.3,1-0.6
		c0.3-0.3,0.5-0.6,0.6-1c0.1-0.4,0.1-0.8,0-1.2c-0.1-0.4-0.4-0.8-0.7-1.1C401.1,59.7,400.7,59.4,400.3,59.3z"/>
</g>
<line fill="none" stroke="#1C1C1C" stroke-miterlimit="10" x1="342.5" y1="119.7" x2="414.6" y2="119.7"/>
<circle fill="#363636" cx="343.9" cy="119.7" r="3.4"/>
<polyline fill="none" stroke="#363636" stroke-miterlimit="10" points="410.4,115.4 414.6,119.7 410.4,123.9 "/>
<path fill="#323232" d="M446.9,101.1c0.4-2.4,0.8-4.8,1.3-7.2c0.3-1.5,1.5-2.5,2.9-2.5c1.5,0,2.7,1,3,2.5c0.4,2.4,0.8,4.8,1.3,7.2
	c0.2,0,0.5,0,0.7,0c0.4,0,0.5-0.1,0.7-0.4c1-2.6,2.8-4.2,5.5-4.8c0.4-0.1,0.8-0.1,1.2-0.2c0.7-0.1,1.2,0.2,1.6,0.8
	c1.9,2.6,1.9,6.2,0,9c-0.3,0.4-0.2,0.6-0.1,1c0.3,1.3,1.4,1.9,2.1,2.8c1.8,2.2,2.6,4.8,2.6,7.6c0,2.7,0,5.3,0,8c0,2,1.2,3.3,3.1,3.4
	c0.8,0.1,1.1,0.4,1.1,1.3c0,4.9-3.7,9.5-8.4,10.5c-0.8,0.2-1.6,0.2-2.3,0.2c-4.9,0-9.9,0-14.8,0c-4.6,0-8.2-3-9.2-7.6
	c-0.3-1.2-0.4-2.5,0.3-3.6c0.1-0.1,0.1-0.3,0-0.4c-0.8-4.6-1.7-9.2-2.5-13.8c-0.3-1.6-0.7-3.1-0.5-4.7c0.1-1.3,0.4-2.5,1-3.7
	c0.2-0.4,0.2-0.7-0.1-1.1c-1.9-2.8-1.9-6.4,0.1-9c0.3-0.5,0.7-0.7,1.3-0.7c3.1,0.1,5.4,1.7,6.7,4.6
	C445.8,101.3,445.8,101.3,446.9,101.1L446.9,101.1z M460.9,127.8c0.1-0.3,0.1-0.6,0.2-0.8c0.9-4.7,1.7-9.4,2.6-14.1
	c0.5-2.8,0-5.2-2-7.3c-1.6-1.7-3.6-2.3-5.9-2.3c0.1,0.5,0.2,1,0.3,1.5c0.1,0.5,0.2,1,0.2,1.5c0.1,1.2-0.7,2.3-1.8,2.3
	c-2.2,0.1-4.4,0.1-6.6,0c-1.2,0-2.1-1.3-1.8-2.5c0.2-0.9,0.3-1.9,0.5-2.8c-0.1,0-0.1,0-0.2-0.1c-4.8-0.3-8.6,4.2-7.8,9
	c0.7,3.9,1.4,7.7,2.1,11.6c0.2,1.3,0.5,2.5,0.7,3.9C447.9,125.5,454.3,125.5,460.9,127.8L460.9,127.8z M451,138.3L451,138.3
	c1-0.1,1.9,0,2.9-0.1c0.6,0,1.2,0,1.8-0.2c3-0.8,5-3.1,5.4-6.2c0.2-1.3,0-1.5-1.2-2c-3.5-1.2-7-1.8-10.7-1.5c-2.6,0.2-5,0.7-7.5,1.6
	c-0.7,0.3-0.9,0.5-0.9,1.3c0,3.3,2.6,6.4,5.8,6.8C448.2,138.3,449.6,138.2,451,138.3z M465.9,111.6c0,0.3,0,0.5-0.1,0.7
	c-0.9,4.8-1.8,9.7-2.6,14.5c-0.2,1.1-0.6,2.3,0.1,3.4c0,0,0,0.1,0,0.2c0.3,2.3-0.4,4.3-1.7,6.1c-0.4,0.6-0.9,1.1-1.3,1.6
	c1.4,0,2.8,0.1,4.2,0c3.8-0.5,6.8-3.7,7.1-7.6c-0.1,0-0.2-0.1-0.2-0.1c-2.6-0.9-3.9-2.8-3.9-5.5c0-2.7,0-5.4,0-8
	C467.4,115,467,113.3,465.9,111.6L465.9,111.6z M453.2,101.2H449c-0.3,1.8-0.6,3.6-0.9,5.4h6C453.8,104.8,453.5,103,453.2,101.2z
	 M443.5,101.5c-0.6-1.8-2.4-3.3-4.3-3.5c-0.1,0-0.3,0.1-0.3,0.2c-1.1,1.6-1,4.4,0.2,6C440.2,102.9,441.7,102,443.5,101.5
	L443.5,101.5z M463.2,104.2c1.2-1.7,1.3-4.2,0.3-5.9c-0.1-0.1-0.4-0.3-0.5-0.3c-0.6,0.1-1.1,0.3-1.7,0.5c-1.2,0.6-2.1,1.6-2.6,2.9
	C460.5,102,461.9,102.8,463.2,104.2z M452.7,99c-0.1-0.6-0.2-1.2-0.3-1.7c-0.2-1-0.3-2-0.5-2.9c-0.1-0.4-0.4-0.7-0.8-0.7
	c-0.5,0-0.7,0.3-0.8,0.7c-0.1,0.2-0.1,0.5-0.1,0.7c-0.2,1.3-0.5,2.6-0.7,4H452.7L452.7,99z"/>
<path fill="#323232" d="M455.9,117.3c-0.5,0.5-0.8,0.9-1.2,1.3c-0.5,0.6-1.2,0.6-1.6,0.1c-0.4-0.4-0.4-1.1,0.1-1.6
	c0.6-0.6,1.2-1.3,1.9-1.9c0.5-0.5,1.2-0.5,1.7,0c0.7,0.7,1.3,1.3,2,2c0.5,0.5,0.5,1.2,0.1,1.7c-0.4,0.4-1.1,0.4-1.6-0.1
	C456.8,118.4,456.4,117.9,455.9,117.3L455.9,117.3z"/>
<path fill="#323232" d="M446.3,117.4c-0.5,0.5-0.8,0.9-1.2,1.3c-0.6,0.6-1.2,0.6-1.6,0.1c-0.4-0.5-0.4-1.1,0.1-1.7
	c0.6-0.6,1.2-1.2,1.8-1.9c0.5-0.5,1.1-0.6,1.6-0.1c0.7,0.7,1.5,1.4,2.1,2.2c0.5,0.5,0.4,1.1,0,1.5c-0.5,0.5-1,0.4-1.5-0.1
	C447.2,118.4,446.8,117.9,446.3,117.4L446.3,117.4z"/>
<path fill="#323232" d="M448.4,133.8c-0.6,0-1-0.5-1-1.1c0-0.6,0.5-1.1,1.1-1.1c0.6,0,1.1,0.5,1.1,1.1
	C449.5,133.4,449,133.9,448.4,133.8L448.4,133.8z"/>
<path fill="#323232" d="M454.8,132.8c0,0.6-0.4,1.1-1.1,1.1c-0.6,0-1.1-0.5-1.1-1.1c0-0.6,0.5-1.1,1.1-1.1
	C454.4,131.7,454.8,132.2,454.8,132.8z"/>
</svg>
