<?xml version="1.0" encoding="utf-8"?>
<!-- Generator: Adobe Illustrator 26.2.1, SVG Export Plug-In . SVG Version: 6.00 Build 0)  -->
<svg version="1.1" baseProfile="tiny" id="Layer_1" xmlns="http://www.w3.org/2000/svg" xmlns:xlink="http://www.w3.org/1999/xlink"
	 x="0px" y="0px" width="48px" height="48px" viewBox="0 0 48 48" overflow="visible" xml:space="preserve">
<g id="BG3fUw_00000160173873125151658780000001584624923084745380_">
	<g>
		<g >
			<path fill="#3a405d" d="M-48.9,35c1.3-0.4,2.6-0.8,3.9-1.2c1-0.3,1.9-0.5,2.9-0.3c1.8,0.4,2.5,2.1,1.4,3.6c-0.3,0.4-0.7,0.8-1.2,1.1
				c-5.3,3.1-10.7,6-16.5,8.1c-1.8,0.7-3.5,0.5-5.3,0.3c-5.6-0.6-11.1-1.9-16.6-3.4c-0.2-0.1-0.4-0.1-0.5-0.2
				c-0.4-0.2-0.5-0.5-0.4-0.9c0.1-0.4,0.4-0.6,0.8-0.6c0.2,0,0.4,0.1,0.6,0.1c4.8,1.3,9.5,2.5,14.4,3.2c1.7,0.2,3.5,0.4,5.2,0.2
				c1.3-0.1,2.6-0.8,3.9-1.3c4.4-1.9,8.7-4,12.8-6.5c0.5-0.3,1-0.7,1.4-1.1c0.5-0.5,0.3-1-0.4-1.1c-0.5-0.1-1-0.1-1.4,0.1
				c-3.5,1-6.9,2.1-10.4,3.2c-0.1,0-0.3,0.2-0.3,0.4c-0.2,1.2-0.8,1.9-2,2.3c-1.3,0.4-2.7,0.3-4,0.1c-1.7-0.3-3.3-0.6-5-1
				c-0.8-0.2-1.1-0.5-0.9-1.1c0.1-0.5,0.6-0.7,1.4-0.5c2.2,0.6,4.4,1,6.7,1c0.5,0,1-0.1,1.5-0.2c0.8-0.2,1-0.8,0.5-1.4
				c-0.3-0.3-0.6-0.7-1-0.8c-1.7-0.4-3.4-0.7-5-1.2c-1-0.3-2.1-0.5-2.9-1.1c-4-3-8.2-2.9-12.7-1.3c-0.6,0.2-1.2,0.5-1.8,0.7
				c-0.6,0.3-1.1,0.2-1.3-0.3c-0.2-0.5,0-0.9,0.6-1.2c1.6-0.6,3.2-1.1,4.9-1.6c0.3-0.1,0.5-0.2,0.5-0.5c0.1-0.8,0.3-1.5,0.5-2.3
				c0.1-0.3,0-0.6-0.3-0.8c-0.8-0.7-1.6-1.4-2.3-2.1c-1-0.9-1-2.1,0-3c0.7-0.7,1.4-1.4,2.1-2c0.4-0.3,0.5-0.6,0.3-1.1
				c-0.4-0.9-0.6-1.8-0.9-2.8c-0.4-1.3,0.1-2.4,1.5-2.7c1-0.2,2-0.5,3-0.7c0.4-0.1,0.6-0.2,0.6-0.6c0.2-1,0.4-2,0.6-3
				c0.3-1.4,1.3-2,2.7-1.6c1,0.3,2,0.6,3,0.9c0.3,0.1,0.5,0,0.7-0.2c0.7-0.8,1.4-1.6,2-2.3c1-1.1,2.1-1.1,3.1,0
				c0.7,0.7,1.4,1.4,2,2.2C-56.2,9-56,9.1-55.6,9c1-0.4,2-0.7,2.9-1c1.3-0.4,2.3,0.1,2.7,1.4c0.2,1,0.5,2,0.7,3
				c0.1,0.4,0.3,0.6,0.7,0.7c1,0.2,2,0.4,3,0.6c1.3,0.3,1.9,1.3,1.6,2.5c-0.3,1-0.6,2-0.9,3c-0.1,0.4-0.1,0.6,0.2,0.9
				c0.8,0.7,1.5,1.3,2.3,2c1.1,1,1.1,2.1,0,3.1c-0.7,0.7-1.4,1.3-2.1,2c-0.4,0.3-0.5,0.6-0.3,1.1c0.4,0.9,0.7,1.9,1,2.8
				c0.4,1.4-0.2,2.4-1.6,2.6c-0.9,0.2-1.8,0.4-2.7,0.6c-0.3,0.1-0.6,0.3-0.9,0.5C-49,34.8-49,34.9-48.9,35z M-43.2,23.5
				c-0.2-0.1-0.4-0.2-0.6-0.3c-0.8-0.6-1.5-1.3-2.2-2c-0.8-0.6-1-1.4-0.7-2.4c0.3-1,0.6-2,0.9-3c0.1-0.4,0.1-0.6-0.4-0.7
				c-1-0.2-2.1-0.4-3.1-0.6c-0.9-0.2-1.5-0.7-1.7-1.6c-0.2-1-0.5-2-0.7-3.1c-0.1-0.4-0.2-0.5-0.6-0.4c-1,0.4-2.1,0.7-3.1,1.1
				c-0.8,0.3-1.5,0.1-2.1-0.5c-0.7-0.8-1.5-1.6-2.2-2.4c-0.3-0.3-0.4-0.3-0.7,0c-0.7,0.8-1.4,1.6-2.1,2.4c-0.6,0.8-1.4,1-2.4,0.7
				c-1-0.3-2-0.6-3-0.9c-0.4-0.1-0.5-0.1-0.6,0.4c-0.2,1.1-0.4,2.1-0.6,3.2c-0.2,0.8-0.7,1.4-1.5,1.6c-1,0.3-2.1,0.5-3.1,0.8
				c-0.4,0.1-0.6,0.2-0.4,0.7c0.4,1,0.7,2,1,3c0.3,0.9,0.1,1.6-0.6,2.3c-0.8,0.7-1.6,1.5-2.3,2.2c-0.3,0.2-0.3,0.4,0,0.6
				c0.8,0.7,1.5,1.4,2.3,2c0.8,0.7,1.1,1.4,0.8,2.4c-0.2,0.6-0.3,1.3-0.5,2c0.2,0,0.2,0,0.3,0c3.1-0.2,5.9,0.6,8.5,2.5
				c0.6,0.4,1.4,0.7,2.2,0.9c1,0.3,2,0.3,3,0.6c1.5,0.3,3.1,0.6,4.2,1.9c0.1,0.1,0.3,0.1,0.5,0c1.2-0.4,2.4-0.7,3.6-1.1
				c0.3-0.1,0.4-0.2,0.4-0.6c0.1-1.2,0.8-2.1,2-2.4c1-0.2,1.9-0.4,2.9-0.6c0.4-0.1,0.5-0.2,0.3-0.6c-0.4-1-0.7-2.1-1-3.1
				c-0.3-0.9-0.1-1.7,0.6-2.3C-45,25.3-44.2,24.5-43.2,23.5z"/>
			<path  fill="#3a405d" d="M-50.2,7.6c-0.7,0-1.1-0.5-0.9-0.9c0.4-0.9,0.9-1.7,1.4-2.5c0.1-0.2,0.7-0.2,1-0.1c0.4,0.1,0.5,0.6,0.3,1
				c-0.4,0.8-0.8,1.5-1.3,2.3C-49.8,7.5-50.1,7.5-50.2,7.6z"/>
			<path fill="#3a405d" d="M-76,14.2c0,0.8-0.6,1.1-1.1,0.9c-0.8-0.4-1.5-0.8-2.2-1.2c-0.4-0.2-0.5-0.6-0.3-1c0.2-0.4,0.6-0.5,1-0.3
				c0.8,0.4,1.5,0.8,2.3,1.3C-76.1,13.9-76.1,14.1-76,14.2z"/>
			<path fill="#3a405d" d="M-70.9,4.3c0.1,0.1,0.4,0.2,0.5,0.4c0.4,0.7,0.8,1.4,1.2,2.1c0.2,0.4,0.2,0.8-0.2,1.1C-69.8,8-70.2,8-70.5,7.5
				c-0.4-0.7-0.9-1.4-1.2-2.1C-72,4.9-71.6,4.2-70.9,4.3z"/>
			<path fill="#3a405d" d="M-40.2,12.8c-0.1,0.1-0.2,0.4-0.4,0.5c-0.7,0.4-1.3,0.8-2,1.2c-0.4,0.2-0.8,0.2-1.1-0.3c-0.3-0.4-0.2-0.8,0.2-1.1
				c0.7-0.4,1.4-0.9,2.2-1.2C-40.8,11.6-40.2,12-40.2,12.8z"/>
			<path fill="#3a405d" d="M-76.1,27.8c0.2,0.2,0.6,0.4,0.6,0.7c0.1,0.2-0.1,0.8-0.3,0.8c-0.9,0.3-1.9,0.6-2.8,0.8c-0.2,0-0.6-0.4-0.7-0.6
				c-0.1-0.2,0.1-0.7,0.3-0.8C-78,28.4-77.1,28.1-76.1,27.8z"/>
			<path fill="#3a405d" d="M-43.3,20c-0.7,0-1-0.2-1.1-0.6c-0.1-0.5,0.1-0.8,0.6-1c0.7-0.2,1.4-0.4,2.2-0.6c0.5-0.1,0.9,0.2,1,0.6
				c0.1,0.5-0.1,0.9-0.6,1C-42,19.6-42.7,19.8-43.3,20z"/>
			<path fill="#3a405d" d="M-76.1,20.6c-1-0.3-1.8-0.5-2.6-0.8c-0.2-0.1-0.4-0.6-0.4-0.9c0-0.4,0.3-0.7,0.7-0.6c0.9,0.2,1.7,0.4,2.6,0.7
				c0.3,0.1,0.6,0.5,0.3,0.9C-75.6,20.2-75.9,20.4-76.1,20.6z"/>
			<path fill="#3a405d" d="M-59.3,3.2c0,0.4,0,0.8,0,1.2c0,0.5-0.3,0.7-0.8,0.8c-0.5,0-0.8-0.3-0.8-0.7c0-0.9,0-1.7,0-2.6c0-0.4,0.4-0.7,0.8-0.7
				c0.5,0,0.8,0.3,0.8,0.8C-59.3,2.4-59.3,2.8-59.3,3.2C-59.3,3.2-59.3,3.2-59.3,3.2z"/>
			<path fill="#3a405d" d="M-80.5,24.9c-0.4,0-0.8,0-1.1,0c-0.5,0-0.8-0.3-0.8-0.8c0-0.5,0.3-0.8,0.8-0.8c0.8,0,1.6,0,2.4,0c0.5,0,0.8,0.3,0.8,0.8
				c0,0.5-0.3,0.8-0.8,0.8C-79.7,24.9-80.1,24.9-80.5,24.9z"/>
			<path fill="#3a405d" d="M-39.1,22.7c0.4,0,0.7,0,1.1,0c0.5,0,0.8,0.3,0.8,0.8c0,0.5-0.3,0.8-0.8,0.8c-0.8,0-1.7,0-2.5,0c-0.5,0-0.7-0.4-0.7-0.8
				c0-0.4,0.3-0.8,0.8-0.8C-40,22.7-39.5,22.7-39.1,22.7C-39.1,22.7-39.1,22.7-39.1,22.7z"/>
			<path fill="#3a405d" d="M-71.2,12.2c-0.1,0.2-0.3,0.5-0.5,0.6c-0.2,0.1-0.7,0.1-0.8-0.1c-0.6-0.5-1.2-1.1-1.7-1.7c-0.2-0.2-0.1-0.7,0-0.9
				c0.2-0.4,0.6-0.5,0.9-0.3c0.7,0.6,1.3,1.3,2,2C-71.2,11.9-71.2,12-71.2,12.2z"/>
			<path fill="#3a405d" d="M-63.6,7.7c-0.2,0.2-0.4,0.5-0.7,0.6c-0.4,0.2-0.8-0.1-0.9-0.5c-0.2-0.8-0.4-1.5-0.6-2.3c-0.1-0.4,0.2-0.7,0.6-0.8
				c0.4-0.1,0.8,0,0.9,0.4C-64.1,5.9-63.9,6.7-63.6,7.7z"/>
			<path fill="#3a405d" d="M-54.3,5.4c-0.2,0.8-0.4,1.5-0.6,2.3c-0.1,0.4-0.5,0.6-0.9,0.5c-0.4-0.1-0.7-0.4-0.6-0.8c0.2-0.8,0.3-1.6,0.6-2.3
				c0.1-0.2,0.6-0.4,0.9-0.4C-54.6,4.5-54.4,4.9-54.3,5.4z"/>
			<path fill="#3a405d" d="M-45.7,10.2c0,0.1,0,0.2-0.1,0.3c-0.6,0.6-1.2,1.3-1.9,1.8c-0.2,0.1-0.7,0-0.9-0.2c-0.2-0.2-0.3-0.7-0.1-0.9
				c0.6-0.7,1.2-1.3,1.8-1.9C-46.4,9-45.7,9.5-45.7,10.2z"/>
			<path fill="#3a405d" d="M-41.4,29.3c-0.8-0.2-1.5-0.4-2.3-0.7c-0.4-0.1-0.6-0.5-0.4-0.9c0.1-0.4,0.5-0.6,1-0.5c0.7,0.2,1.4,0.3,2,0.5
				c0.4,0.1,0.7,0.4,0.6,0.9C-40.6,29-40.9,29.2-41.4,29.3z"/>
			<path fill="#3a405d" d="M-65.7,29.8c0.2-1.2,0.3-2.5,0.7-3.7c0.3-1.2,0-1.9-0.9-2.6c-0.9-0.7-1.8-1.7-2.6-2.5c-0.2-0.2-0.3-0.6-0.3-0.8
				c0.1-0.3,0.5-0.5,0.7-0.6c1.5-0.3,3.1-0.5,4.6-0.7c0.4-0.1,0.6-0.2,0.8-0.6c0.6-1.3,1.3-2.7,1.9-4c0.2-0.4,0.4-0.7,0.9-0.7
				c0.5,0,0.7,0.4,0.9,0.8c0.7,1.4,1.3,2.7,2,4.1c0.1,0.2,0.4,0.4,0.6,0.4c1.5,0.2,3.1,0.5,4.6,0.7c0.4,0.1,0.9,0.2,0.9,0.6
				c0,0.3-0.2,0.7-0.4,1c-1.1,1.1-2.1,2.1-3.2,3.2c-0.2,0.2-0.3,0.5-0.3,0.8c0.3,1.5,0.5,2.9,0.8,4.4c0.1,0.4,0.1,0.8-0.3,1.1
				c-0.4,0.3-0.8,0.1-1.2-0.1c-1.4-0.7-2.7-1.4-4.1-2.1c-0.2-0.1-0.4-0.1-0.6,0c-1.4,0.7-2.8,1.4-4.1,2.2
				C-65,31-65.7,30.7-65.7,29.8z M-53.5,20.9c-1.2-0.2-2.4-0.4-3.7-0.5c-0.5-0.1-0.8-0.3-1-0.7c-0.2-0.4-0.4-0.9-0.7-1.3
				c-0.3-0.7-0.7-1.3-1.1-2.1c-0.2,0.3-0.3,0.5-0.4,0.7c-0.4,0.9-0.9,1.7-1.3,2.6c-0.2,0.4-0.5,0.7-1,0.7c-0.5,0-0.9,0.1-1.4,0.2
				c-0.8,0.1-1.6,0.2-2.3,0.4c0.7,0.7,1.3,1.5,2,2c1,0.8,1.1,1.6,0.8,2.8c-0.2,0.8-0.3,1.7-0.5,2.8c1-0.5,1.9-0.9,2.7-1.4
				c1-0.7,1.8-0.5,2.7,0.1c0.8,0.5,1.6,0.9,2.5,1.4c-0.2-1.3-0.4-2.4-0.6-3.5c-0.1-0.6,0-1.1,0.5-1.5
				C-55.1,22.6-54.3,21.8-53.5,20.9z"/>
		</g>
	</g>
</g>
<g id="Nv3aVa_00000134966135588318510580000014876269690314853769_">
	<g>
		<g>
			<path fill="#3a405d" d="M16.8,14c-2.6-4.4-1-8.9,1.9-11.3c3.1-2.5,7.5-2.5,10.7,0.1c2.9,2.3,4.4,6.9,1.8,11.2c0.7,0.1,1.3,0.2,1.9,0.3
				c1.3,0.3,2.5,0.6,3.8,1c0.3,0.1,0.7,0.3,1,0.5c0.7,0.4,1.1,1,1,1.9c0,1.2,0,2.4,0,3.5c0,0.2,0.1,0.4,0.2,0.4
				c1.6,0.5,2.8,2.5,2.6,4.5c-0.2,1.7-0.9,3.1-2.7,3.7c-0.1,0-0.2,0.2-0.3,0.4c-0.4,3.4-1.8,6.3-4.2,8.8c-2.2,2.3-4.9,3.7-8.1,4.2
				c-4.4,0.7-8.3-0.3-11.8-3.1c-3.1-2.5-4.9-5.8-5.5-9.8c0-0.2-0.1-0.4-0.3-0.5c-1.8-0.5-2.9-2.6-2.6-4.7c0.2-1.6,1-2.9,2.6-3.5
				c0.1,0,0.2-0.3,0.2-0.4c0-1.1,0.1-2.3,0-3.4c0-1,0.4-1.6,1.2-2.1c1.3-0.7,2.6-1,4-1.2C15.1,14.2,16,14.1,16.8,14z M10.6,18.9
				c0,0.2,0,0.4,0,0.6c0,3.1,0,6.2,0,9.2c0,0.4,0,0.9,0.1,1.3c0.9,7.7,7.9,13,15.6,11.8c6.5-1.1,11.3-6.7,11.3-13.2c0-3,0-6.1,0-9.1
				c0-0.2,0-0.4,0-0.6c-0.4,0.1-0.7,0.3-1,0.4c-2.4,0.8-4.9,1-7.3,1.2c-3.5,0.3-6.9,0.3-10.4,0C16,20.3,13.2,20,10.6,18.9z
				 M37.5,17.2c0-0.1,0-0.1,0-0.2c-0.4-0.2-0.8-0.4-1.2-0.6c-1.9-0.7-3.9-0.9-5.9-1.1c-0.2,0-0.4,0.1-0.5,0.2c-3.3,3-8,3.1-11.4,0.2
				c-0.4-0.3-0.7-0.5-1.2-0.4c-0.6,0.1-1.1,0.1-1.7,0.2c-1.4,0.3-2.8,0.7-4.2,1.1c-0.3,0.1-0.5,0.3-0.8,0.5c0.3,0.2,0.4,0.3,0.6,0.4
				c0.5,0.2,0.9,0.4,1.4,0.5c3.9,1,7.9,1.2,11.9,1.2c2.3,0,4.7-0.2,7-0.4c1.8-0.2,3.5-0.5,5.2-1.1C36.9,17.6,37.2,17.4,37.5,17.2z
				 M26.4,12.3c0.1-0.7,0.3-1.4,0.4-2.2c-1.9,0-3.8,0-5.7,0c0.2,0.8,0.3,1.6,0.4,2.2C23.2,12.3,24.8,12.3,26.4,12.3z M21.2,8.6
				c1.9,0,3.8,0,5.7,0c-0.2-0.8-0.3-1.5-0.4-2.2c-1.7,0-3.2,0-4.9,0C21.4,7.1,21.3,7.9,21.2,8.6z M17,10.1c0.1,1.4,0.6,2.5,1.4,3.6
				c0.6-0.3,1.3-0.6,1.8-0.9c-0.2-0.9-0.3-1.8-0.5-2.7C18.8,10.1,17.9,10.1,17,10.1z M29.6,13.7c0.8-1.1,1.3-2.2,1.4-3.6
				c-1,0-1.9,0-2.7,0c-0.2,0.9-0.3,1.8-0.5,2.7C28.4,13.1,29,13.4,29.6,13.7z M18.4,5.1c-0.8,1.1-1.3,2.2-1.4,3.6c1,0,1.9,0,2.8,0
				c0.1-0.5,0.1-0.9,0.2-1.4C20,6.8,20.2,6.4,20.2,6C19.6,5.7,19,5.4,18.4,5.1z M31,8.7c0-1.2-0.7-2.9-1.4-3.5
				c-0.6,0.3-1.2,0.6-1.8,0.8c0.2,0.9,0.3,1.8,0.5,2.7C29.2,8.7,30.1,8.7,31,8.7z M9.1,28.3c0-1.8,0-3.5,0-5.3
				c-0.9,0.7-1.3,1.5-1.4,2.6C7.7,26.7,8.1,27.6,9.1,28.3z M38.9,28.3c1-0.7,1.4-1.6,1.4-2.7c0-1.1-0.4-1.9-1.4-2.6
				C38.9,24.8,38.9,26.5,38.9,28.3z M25.9,13.8c-1.3-0.3-2.4-0.3-3.7,0c0.6,0.8,1.2,1.6,1.9,2.4C24.7,15.4,25.2,14.7,25.9,13.8z
				 M24.1,2.6c-0.8,0.8-1.4,1.5-1.8,2.4c1.2,0.2,2.3,0.2,3.6,0C25.2,4.1,24.7,3.4,24.1,2.6z M20.8,4.6c0.4-0.7,0.8-1.3,1.2-1.9
				c0,0,0-0.1-0.1-0.1c-0.8,0.4-1.6,0.9-2.5,1.3c0,0.1,0,0.1,0,0.2C19.9,4.2,20.3,4.4,20.8,4.6z M28.5,4.1c0-0.1,0-0.1,0.1-0.2
				c-0.8-0.4-1.6-0.9-2.5-1.3c0,0,0,0.1-0.1,0.1c0.4,0.6,0.8,1.3,1.2,1.9C27.7,4.4,28.1,4.2,28.5,4.1z M20.8,14.2
				c-0.4,0.2-0.8,0.4-1.3,0.6c0.8,0.7,1.6,1.1,2.6,1.4C21.6,15.5,21.2,14.8,20.8,14.2z M27.2,14.2c-0.4,0.7-0.8,1.3-1.2,1.9
				c0,0,0.1,0.1,0.1,0.1c0.8-0.4,1.6-0.9,2.4-1.3c0-0.1,0-0.1,0-0.2C28.1,14.5,27.7,14.4,27.2,14.2z"/>
			<path fill="#3a405d" d="M17.6,29.2c-1.3,0-2.2-0.7-2.9-1.8c-0.3-0.4-0.5-0.9-0.6-1.4c-0.2-0.5,0.1-0.9,0.5-1c0.4-0.1,0.7,0.1,0.9,0.6
				c0.3,0.7,0.5,1.4,1.1,1.8c0.7,0.5,1.5,0.5,2.1-0.1c0.4-0.5,0.7-1.1,0.9-1.6c0.2-0.5,0.6-0.8,1-0.6c0.4,0.1,0.6,0.6,0.4,1.1
				c-0.5,1.3-1.1,2.4-2.5,3c-0.2,0.1-0.3,0.1-0.5,0.1C17.9,29.2,17.8,29.2,17.6,29.2z"/>
			<path fill="#3a405d" d="M30.3,29.2c-1.4,0-2.2-0.9-2.9-2.1c-0.2-0.4-0.4-0.8-0.5-1.2c-0.1-0.4,0.1-0.8,0.4-1c0.4-0.1,0.7,0,0.9,0.5
				c0.2,0.7,0.5,1.3,1,1.8C30,28,31,28,31.6,27.2c0.3-0.5,0.6-1,0.9-1.5c0.1-0.2,0.3-0.5,0.5-0.6c0.4-0.2,0.9,0.2,0.9,0.7
				C33.9,27.3,32,29.2,30.3,29.2z"/>
			<path fill="#3a405d" d="M23.6,31.8c0.6-0.1,1-0.3,1.5-0.4c0.5-0.1,0.9,0.1,1,0.5c0.1,0.4-0.1,0.8-0.6,0.9c-0.8,0.2-1.7,0.4-2.5,0.6
				c-0.8,0.2-1.2-0.3-1-1c0.4-1.8,0.9-3.5,1.3-5.3c0.1-0.5,0.5-0.8,0.9-0.7c0.5,0.1,0.6,0.5,0.5,1.1c-0.3,1.3-0.6,2.6-1,3.8
				C23.7,31.4,23.6,31.6,23.6,31.8z"/>
		</g>
	</g>
</g>
</svg>
