<?xml version="1.0" encoding="utf-8"?>
<!-- Generator: Adobe Illustrator 26.3.1, SVG Export Plug-In . SVG Version: 6.00 Build 0)  -->
<svg version="1.1" baseProfile="tiny" id="Layer_1" xmlns="http://www.w3.org/2000/svg" xmlns:xlink="http://www.w3.org/1999/xlink"
	 x="0px" y="0px" width="514.7px" height="173.2px" viewBox="0 0 514.7 173.2" overflow="visible" xml:space="preserve">
<path fill="#F2EDED" d="M498.6,173.2H15.9C7.1,173.2,0,166,0,157.1v-141C0,7.2,7.1,0,15.9,0h482.8c8.8,0,15.9,7.2,15.9,16.1v141.1
	C514.6,166,507.4,173.2,498.6,173.2z"/>
<g>
	<path fill="#363636" d="M233.1,114v1.4h-2.2v7h-1.7v-7H227V114H233.1z"/>
	<path fill="#363636" d="M239.4,116c0.4,0.2,0.7,0.5,0.9,1c0.2,0.4,0.3,0.9,0.3,1.5v3.9H239v-3.7c0-0.5-0.1-0.9-0.4-1.2
		c-0.3-0.3-0.6-0.4-1.1-0.4c-0.5,0-0.8,0.1-1.1,0.4c-0.3,0.3-0.4,0.7-0.4,1.2v3.7h-1.7v-8.9h1.7v3.1c0.2-0.3,0.5-0.5,0.9-0.7
		s0.8-0.2,1.2-0.2C238.6,115.7,239.1,115.8,239.4,116z"/>
	<path fill="#363636" d="M248.4,119.6h-4.9c0,0.5,0.2,0.9,0.5,1.1c0.3,0.3,0.7,0.4,1.1,0.4c0.6,0,1.1-0.3,1.3-0.8h1.8
		c-0.2,0.6-0.6,1.2-1.1,1.6s-1.2,0.6-2,0.6c-0.6,0-1.2-0.1-1.7-0.4c-0.5-0.3-0.9-0.7-1.2-1.2c-0.3-0.5-0.4-1.1-0.4-1.8
		c0-0.7,0.1-1.3,0.4-1.8c0.3-0.5,0.7-0.9,1.2-1.2c0.5-0.3,1.1-0.4,1.7-0.4c0.6,0,1.2,0.1,1.7,0.4c0.5,0.3,0.9,0.7,1.2,1.2
		c0.3,0.5,0.4,1.1,0.4,1.7C248.5,119.2,248.5,119.4,248.4,119.6z M246.7,118.5c0-0.4-0.2-0.8-0.5-1c-0.3-0.3-0.7-0.4-1.1-0.4
		c-0.4,0-0.8,0.1-1.1,0.4c-0.3,0.3-0.5,0.6-0.5,1H246.7z"/>
	<path fill="#363636" d="M260.1,114l-3.1,8.4h-2l-3.1-8.4h1.8l2.3,6.7l2.3-6.7H260.1z"/>
	<path fill="#363636" d="M267.2,119.6h-4.9c0,0.5,0.2,0.9,0.5,1.1c0.3,0.3,0.7,0.4,1.1,0.4c0.6,0,1.1-0.3,1.3-0.8h1.8
		c-0.2,0.6-0.6,1.2-1.1,1.6s-1.2,0.6-2,0.6c-0.6,0-1.2-0.1-1.7-0.4c-0.5-0.3-0.9-0.7-1.2-1.2c-0.3-0.5-0.4-1.1-0.4-1.8
		c0-0.7,0.1-1.3,0.4-1.8c0.3-0.5,0.7-0.9,1.2-1.2c0.5-0.3,1.1-0.4,1.7-0.4c0.6,0,1.2,0.1,1.7,0.4c0.5,0.3,0.9,0.7,1.2,1.2
		c0.3,0.5,0.4,1.1,0.4,1.7C267.3,119.2,267.2,119.4,267.2,119.6z M265.5,118.5c0-0.4-0.2-0.8-0.5-1c-0.3-0.3-0.7-0.4-1.1-0.4
		c-0.4,0-0.8,0.1-1,0.4s-0.5,0.6-0.5,1H265.5z"/>
	<path fill="#363636" d="M271,116c0.3-0.2,0.7-0.3,1.2-0.3v1.8h-0.4c-0.5,0-0.9,0.1-1.2,0.4c-0.3,0.2-0.4,0.7-0.4,1.3v3.3h-1.7v-6.6
		h1.7v1C270.4,116.4,270.7,116.2,271,116z"/>
	<path fill="#363636" d="M277.2,115.9c0.4,0.2,0.7,0.5,0.9,0.8v-0.9h1.7v6.7c0,0.6-0.1,1.2-0.4,1.7c-0.2,0.5-0.6,0.9-1.1,1.2
		c-0.5,0.3-1.1,0.4-1.8,0.4c-0.9,0-1.7-0.2-2.3-0.7c-0.6-0.4-0.9-1-1-1.8h1.7c0.1,0.3,0.3,0.5,0.6,0.7s0.6,0.3,1.1,0.3
		c0.5,0,0.9-0.1,1.2-0.4c0.3-0.3,0.5-0.7,0.5-1.3v-1c-0.2,0.3-0.5,0.6-0.9,0.8s-0.8,0.3-1.3,0.3c-0.6,0-1.1-0.1-1.5-0.4
		s-0.8-0.7-1.1-1.2c-0.3-0.5-0.4-1.1-0.4-1.8c0-0.7,0.1-1.3,0.4-1.8c0.3-0.5,0.6-0.9,1.1-1.2s1-0.4,1.5-0.4
		C276.4,115.7,276.9,115.8,277.2,115.9z M277.9,118c-0.2-0.3-0.4-0.5-0.6-0.7c-0.3-0.2-0.6-0.2-0.9-0.2c-0.3,0-0.6,0.1-0.9,0.2
		c-0.3,0.2-0.5,0.4-0.6,0.7s-0.2,0.6-0.2,1c0,0.4,0.1,0.8,0.2,1s0.4,0.5,0.6,0.7c0.3,0.2,0.6,0.2,0.9,0.2c0.3,0,0.6-0.1,0.9-0.2
		c0.3-0.2,0.5-0.4,0.6-0.7c0.2-0.3,0.2-0.6,0.2-1S278.1,118.3,277.9,118z"/>
	<path fill="#363636" d="M287.6,119.6h-4.9c0,0.5,0.2,0.9,0.5,1.1c0.3,0.3,0.7,0.4,1.1,0.4c0.6,0,1.1-0.3,1.3-0.8h1.8
		c-0.2,0.6-0.6,1.2-1.1,1.6s-1.2,0.6-2,0.6c-0.6,0-1.2-0.1-1.7-0.4c-0.5-0.3-0.9-0.7-1.2-1.2c-0.3-0.5-0.4-1.1-0.4-1.8
		c0-0.7,0.1-1.3,0.4-1.8c0.3-0.5,0.7-0.9,1.2-1.2c0.5-0.3,1.1-0.4,1.7-0.4c0.6,0,1.2,0.1,1.7,0.4c0.5,0.3,0.9,0.7,1.2,1.2
		c0.3,0.5,0.4,1.1,0.4,1.7C287.6,119.2,287.6,119.4,287.6,119.6z M285.9,118.5c0-0.4-0.2-0.8-0.5-1c-0.3-0.3-0.7-0.4-1.1-0.4
		c-0.4,0-0.8,0.1-1,0.4s-0.5,0.6-0.5,1H285.9z"/>
</g>
<g>
	<path fill="#363636" d="M320.9,115.4v2.1h2.8v1.3h-2.8v2.2h3.2v1.4h-4.9V114h4.9v1.4H320.9z"/>
	<path fill="#363636" d="M331.2,116.4c0.5,0.5,0.7,1.2,0.7,2.1v3.9h-1.7v-3.7c0-0.5-0.1-0.9-0.4-1.2s-0.6-0.4-1.1-0.4
		c-0.5,0-0.8,0.1-1.1,0.4c-0.3,0.3-0.4,0.7-0.4,1.2v3.7h-1.7v-6.6h1.7v0.8c0.2-0.3,0.5-0.5,0.9-0.7c0.3-0.2,0.7-0.2,1.1-0.2
		C330.1,115.7,330.7,115.9,331.2,116.4z"/>
	<path fill="#363636" d="M337.4,115.9c0.4,0.2,0.7,0.5,0.9,0.8v-0.9h1.7v6.7c0,0.6-0.1,1.2-0.4,1.7c-0.2,0.5-0.6,0.9-1.1,1.2
		c-0.5,0.3-1.1,0.4-1.8,0.4c-0.9,0-1.7-0.2-2.3-0.7c-0.6-0.4-0.9-1-1-1.8h1.7c0.1,0.3,0.3,0.5,0.6,0.7s0.6,0.3,1.1,0.3
		c0.5,0,0.9-0.1,1.2-0.4c0.3-0.3,0.5-0.7,0.5-1.3v-1c-0.2,0.3-0.5,0.6-0.9,0.8s-0.8,0.3-1.3,0.3c-0.6,0-1.1-0.1-1.5-0.4
		s-0.8-0.7-1.1-1.2c-0.3-0.5-0.4-1.1-0.4-1.8c0-0.7,0.1-1.3,0.4-1.8c0.3-0.5,0.6-0.9,1.1-1.2c0.5-0.3,1-0.4,1.5-0.4
		C336.6,115.7,337.1,115.8,337.4,115.9z M338.1,118c-0.2-0.3-0.4-0.5-0.6-0.7c-0.3-0.2-0.6-0.2-0.9-0.2c-0.3,0-0.6,0.1-0.9,0.2
		c-0.3,0.2-0.5,0.4-0.6,0.7s-0.2,0.6-0.2,1c0,0.4,0.1,0.8,0.2,1s0.4,0.5,0.6,0.7c0.3,0.2,0.6,0.2,0.9,0.2c0.3,0,0.6-0.1,0.9-0.2
		c0.3-0.2,0.5-0.4,0.6-0.7c0.2-0.3,0.2-0.6,0.2-1S338.2,118.3,338.1,118z"/>
	<path fill="#363636" d="M341.6,117.3c0.3-0.5,0.6-0.9,1.1-1.2c0.5-0.3,1-0.4,1.5-0.4c0.5,0,0.9,0.1,1.3,0.3s0.7,0.5,0.9,0.8v-0.9
		h1.7v6.6h-1.7v-1c-0.2,0.3-0.5,0.6-0.9,0.8s-0.8,0.3-1.3,0.3c-0.6,0-1.1-0.1-1.5-0.4c-0.5-0.3-0.8-0.7-1.1-1.2
		c-0.3-0.5-0.4-1.1-0.4-1.8C341.2,118.4,341.4,117.8,341.6,117.3z M346.2,118c-0.2-0.3-0.4-0.5-0.6-0.7c-0.3-0.2-0.6-0.2-0.9-0.2
		c-0.3,0-0.6,0.1-0.9,0.2c-0.3,0.2-0.5,0.4-0.6,0.7s-0.2,0.6-0.2,1c0,0.4,0.1,0.8,0.2,1s0.4,0.5,0.6,0.7c0.3,0.2,0.6,0.2,0.9,0.2
		c0.3,0,0.6-0.1,0.9-0.2c0.3-0.2,0.5-0.4,0.6-0.7c0.2-0.3,0.2-0.6,0.2-1S346.4,118.3,346.2,118z"/>
	<path fill="#363636" d="M353.7,115.9c0.4,0.2,0.7,0.5,0.9,0.8v-0.9h1.7v6.7c0,0.6-0.1,1.2-0.4,1.7c-0.2,0.5-0.6,0.9-1.1,1.2
		c-0.5,0.3-1.1,0.4-1.8,0.4c-0.9,0-1.7-0.2-2.3-0.7c-0.6-0.4-0.9-1-1-1.8h1.7c0.1,0.3,0.3,0.5,0.6,0.7s0.6,0.3,1.1,0.3
		c0.5,0,0.9-0.1,1.2-0.4c0.3-0.3,0.5-0.7,0.5-1.3v-1c-0.2,0.3-0.5,0.6-0.9,0.8s-0.8,0.3-1.3,0.3c-0.6,0-1.1-0.1-1.5-0.4
		s-0.8-0.7-1.1-1.2c-0.3-0.5-0.4-1.1-0.4-1.8c0-0.7,0.1-1.3,0.4-1.8c0.3-0.5,0.6-0.9,1.1-1.2s1-0.4,1.5-0.4
		C352.9,115.7,353.3,115.8,353.7,115.9z M354.4,118c-0.2-0.3-0.4-0.5-0.6-0.7c-0.3-0.2-0.6-0.2-0.9-0.2c-0.3,0-0.6,0.1-0.9,0.2
		c-0.3,0.2-0.5,0.4-0.6,0.7s-0.2,0.6-0.2,1c0,0.4,0.1,0.8,0.2,1s0.4,0.5,0.6,0.7c0.3,0.2,0.6,0.2,0.9,0.2c0.3,0,0.6-0.1,0.9-0.2
		c0.3-0.2,0.5-0.4,0.6-0.7c0.2-0.3,0.2-0.6,0.2-1S354.5,118.3,354.4,118z"/>
	<path fill="#363636" d="M364.1,119.6h-4.9c0,0.5,0.2,0.9,0.5,1.1c0.3,0.3,0.7,0.4,1.1,0.4c0.6,0,1.1-0.3,1.3-0.8h1.8
		c-0.2,0.6-0.6,1.2-1.1,1.6s-1.2,0.6-2,0.6c-0.6,0-1.2-0.1-1.7-0.4c-0.5-0.3-0.9-0.7-1.2-1.2c-0.3-0.5-0.4-1.1-0.4-1.8
		c0-0.7,0.1-1.3,0.4-1.8c0.3-0.5,0.7-0.9,1.2-1.2c0.5-0.3,1.1-0.4,1.7-0.4c0.6,0,1.2,0.1,1.7,0.4c0.5,0.3,0.9,0.7,1.2,1.2
		c0.3,0.5,0.4,1.1,0.4,1.7C364.1,119.2,364.1,119.4,364.1,119.6z M362.4,118.5c0-0.4-0.2-0.8-0.5-1c-0.3-0.3-0.7-0.4-1.1-0.4
		c-0.4,0-0.8,0.1-1,0.4s-0.5,0.6-0.5,1H362.4z"/>
	<path fill="#363636" d="M367.3,117.1v3.2c0,0.2,0.1,0.4,0.2,0.5c0.1,0.1,0.3,0.2,0.5,0.2h0.8v1.4h-1.1c-1.4,0-2.1-0.7-2.1-2.1v-3.2
		h-0.8v-1.4h0.8v-1.6h1.7v1.6h1.5v1.4H367.3z"/>
</g>
<g>
	<path fill="#363636" d="M408.2,114v1.4H406v7h-1.7v-7h-2.2V114H408.2z"/>
	<path fill="#363636" d="M415.6,119.6h-4.9c0,0.5,0.2,0.9,0.5,1.1c0.3,0.3,0.7,0.4,1.1,0.4c0.6,0,1.1-0.3,1.3-0.8h1.8
		c-0.2,0.6-0.6,1.2-1.1,1.6s-1.2,0.6-2,0.6c-0.6,0-1.2-0.1-1.7-0.4c-0.5-0.3-0.9-0.7-1.2-1.2c-0.3-0.5-0.4-1.1-0.4-1.8
		c0-0.7,0.1-1.3,0.4-1.8c0.3-0.5,0.7-0.9,1.2-1.2s1.1-0.4,1.7-0.4c0.6,0,1.2,0.1,1.7,0.4c0.5,0.3,0.9,0.7,1.2,1.2
		c0.3,0.5,0.4,1.1,0.4,1.7C415.6,119.2,415.6,119.4,415.6,119.6z M413.9,118.5c0-0.4-0.2-0.8-0.5-1c-0.3-0.3-0.7-0.4-1.1-0.4
		c-0.4,0-0.8,0.1-1.1,0.4c-0.3,0.3-0.5,0.6-0.5,1H413.9z"/>
	<path fill="#363636" d="M416.8,117.3c0.3-0.5,0.7-0.9,1.2-1.2s1.1-0.4,1.7-0.4c0.8,0,1.5,0.2,2,0.6s0.9,1,1.1,1.7H421
		c-0.1-0.3-0.3-0.5-0.5-0.7c-0.2-0.2-0.5-0.2-0.8-0.2c-0.5,0-0.9,0.2-1.1,0.5c-0.3,0.3-0.4,0.8-0.4,1.5c0,0.6,0.1,1.1,0.4,1.5
		c0.3,0.3,0.7,0.5,1.1,0.5c0.7,0,1.1-0.3,1.3-0.9h1.8c-0.2,0.7-0.5,1.3-1.1,1.7c-0.5,0.4-1.2,0.6-2,0.6c-0.6,0-1.2-0.1-1.7-0.4
		c-0.5-0.3-0.9-0.7-1.2-1.2c-0.3-0.5-0.4-1.1-0.4-1.8C416.4,118.4,416.5,117.8,416.8,117.3z"/>
	<path fill="#363636" d="M429.1,116c0.4,0.2,0.7,0.5,0.9,1c0.2,0.4,0.3,0.9,0.3,1.5v3.9h-1.7v-3.7c0-0.5-0.1-0.9-0.4-1.2
		c-0.3-0.3-0.6-0.4-1.1-0.4c-0.5,0-0.8,0.1-1.1,0.4s-0.4,0.7-0.4,1.2v3.7H424v-8.9h1.7v3.1c0.2-0.3,0.5-0.5,0.9-0.7
		c0.4-0.2,0.8-0.2,1.2-0.2C428.3,115.7,428.7,115.8,429.1,116z"/>
	<path fill="#363636" d="M432.1,116c0.4-0.7,0.9-1.2,1.5-1.5c0.6-0.4,1.4-0.5,2.2-0.5c0.9,0,1.8,0.2,2.5,0.7c0.7,0.5,1.2,1.1,1.5,2
		h-1.9c-0.2-0.4-0.5-0.7-0.8-0.9c-0.3-0.2-0.8-0.3-1.2-0.3c-0.5,0-0.9,0.1-1.3,0.3c-0.4,0.2-0.7,0.5-0.9,1s-0.3,0.9-0.3,1.5
		c0,0.6,0.1,1,0.3,1.5s0.5,0.7,0.9,1c0.4,0.2,0.8,0.3,1.3,0.3c0.5,0,0.9-0.1,1.2-0.3c0.3-0.2,0.6-0.5,0.8-0.9h1.9
		c-0.3,0.9-0.8,1.5-1.5,2c-0.7,0.5-1.5,0.7-2.5,0.7c-0.8,0-1.5-0.2-2.2-0.5c-0.6-0.4-1.2-0.9-1.5-1.5c-0.4-0.6-0.6-1.4-0.6-2.2
		C431.6,117.4,431.8,116.6,432.1,116z"/>
	<path fill="#363636" d="M443.7,116c0.3-0.2,0.7-0.3,1.2-0.3v1.8h-0.4c-0.5,0-0.9,0.1-1.2,0.4c-0.3,0.2-0.4,0.7-0.4,1.3v3.3h-1.7
		v-6.6h1.7v1C443.1,116.4,443.4,116.2,443.7,116z"/>
	<path fill="#363636" d="M452.3,115.8v6.6h-1.7v-0.8c-0.2,0.3-0.5,0.5-0.8,0.7c-0.3,0.2-0.7,0.2-1.1,0.2c-0.5,0-1-0.1-1.4-0.3
		c-0.4-0.2-0.7-0.5-0.9-1c-0.2-0.4-0.3-0.9-0.3-1.5v-3.9h1.7v3.7c0,0.5,0.1,0.9,0.4,1.2c0.3,0.3,0.6,0.4,1.1,0.4
		c0.5,0,0.8-0.1,1.1-0.4c0.3-0.3,0.4-0.7,0.4-1.2v-3.7H452.3z"/>
	<path fill="#363636" d="M459.6,116.4c0.5,0.5,0.7,1.2,0.7,2.1v3.9h-1.7v-3.7c0-0.5-0.1-0.9-0.4-1.2c-0.3-0.3-0.6-0.4-1.1-0.4
		c-0.5,0-0.8,0.1-1.1,0.4s-0.4,0.7-0.4,1.2v3.7H454v-6.6h1.7v0.8c0.2-0.3,0.5-0.5,0.9-0.7s0.7-0.2,1.1-0.2
		C458.5,115.7,459.1,115.9,459.6,116.4z"/>
	<path fill="#363636" d="M461.9,117.3c0.3-0.5,0.7-0.9,1.2-1.2s1.1-0.4,1.7-0.4c0.8,0,1.5,0.2,2,0.6s0.9,1,1.1,1.7h-1.8
		c-0.1-0.3-0.3-0.5-0.5-0.7c-0.2-0.2-0.5-0.2-0.8-0.2c-0.5,0-0.9,0.2-1.1,0.5c-0.3,0.3-0.4,0.8-0.4,1.5c0,0.6,0.1,1.1,0.4,1.5
		c0.3,0.3,0.7,0.5,1.1,0.5c0.7,0,1.1-0.3,1.3-0.9h1.8c-0.2,0.7-0.5,1.3-1.1,1.7c-0.5,0.4-1.2,0.6-2,0.6c-0.6,0-1.2-0.1-1.7-0.4
		c-0.5-0.3-0.9-0.7-1.2-1.2c-0.3-0.5-0.4-1.1-0.4-1.8C461.5,118.4,461.6,117.8,461.9,117.3z"/>
	<path fill="#363636" d="M474.2,116c0.4,0.2,0.7,0.5,0.9,1c0.2,0.4,0.3,0.9,0.3,1.5v3.9h-1.7v-3.7c0-0.5-0.1-0.9-0.4-1.2
		s-0.6-0.4-1.1-0.4c-0.5,0-0.8,0.1-1.1,0.4c-0.3,0.3-0.4,0.7-0.4,1.2v3.7h-1.7v-8.9h1.7v3.1c0.2-0.3,0.5-0.5,0.9-0.7
		c0.4-0.2,0.8-0.2,1.2-0.2C473.4,115.7,473.8,115.8,474.2,116z"/>
</g>
<g id="_x34_dFBPo_00000121984891112886039860000003521891501484091813_">
	<path fill="#363636" d="M402.4,64.7c0-4.1,0-8.1,0-12.2c0.1,0,0.3,0,0.4,0c11.9,0,23.8,0,35.6,0c0.1,0,0.3,0,0.4,0
		c0,0.2,0,0.3,0,0.4c0,3.4,0,6.8,0,10.2c0,0.5,0,1,0,1.5l0,0c-0.1,0-0.1,0-0.2,0c-3.9,0-7.8,0-11.8,0c-0.1,0-0.2,0-0.3,0
		c0,0.1,0,0.3,0,0.4c0,7.9,0,15.7,0,23.6c0,0.1,0,0.2,0,0.4c-4.1,0-8.1,0-12.2,0c0-0.1,0-0.2,0-0.2c0-7.9,0-15.9,0-23.8
		c0-0.1,0-0.2,0-0.3c-0.1,0-0.2,0-0.3,0c-3.9,0-7.8,0-11.6,0C402.6,64.6,402.5,64.7,402.4,64.7z"/>
	<path fill="#363636" d="M475.5,89c-12.2,0-24.3,0-36.5,0c0-0.1,0-0.2,0-0.3c0-7.9,0-15.8,0-23.7c0-0.1,0-0.2,0-0.3l0,0
		c0,0,0.1,0,0.1,0c4,0,8,0,12.1,0l0,0c0,4,0,8.1,0,12.2c8.1,0,16.2,0,24.3,0c0,0.2,0,0.3,0,0.4c0,3.8,0,7.6,0,11.3
		C475.5,88.7,475.5,88.9,475.5,89z"/>
	<path fill="#363636" d="M451.1,64.7c0-0.1,0-0.3,0-0.4c0-3.8,0-7.6,0-11.4c0-0.1,0-0.2,0-0.4c8.1,0,16.2,0,24.3,0c0,4,0,8,0,12.1
		c-0.1,0-0.3,0-0.4,0c-7.8,0-15.7,0-23.5,0C451.4,64.6,451.3,64.7,451.1,64.7C451.1,64.7,451.1,64.7,451.1,64.7z"/>
</g>
<g id="LhqFgq_00000026860080580896364510000016105453103375623858_">
	<g>
		<path fill="#363636" d="M365.7,55.7c0,5.3,0,10.6,0,15.9c0,0-0.1,0.1-0.1,0.1c-1.1,4.2-4.1,6.4-8.4,6.4c-9,0-18.1,0-27.1,0
			c-0.3,0-0.6,0-0.9,0c0,2.4,0,4.7,0,7.1c9.7,0,19.4,0,29.1,0c0,2.5,0,4.9,0,7.3c-0.2,0-0.3,0-0.5,0c-9.6,0-19.2,0-28.8,0
			c-4,0-7.1-3.1-7.2-7.2c0-9.6-0.1-19.3,0-28.9c0-3.3,1.7-5.8,4.7-7.2c0.6-0.3,1.2-0.4,1.8-0.6c10,0,20.1,0,30.1,0
			c0.1,0,0.2,0.1,0.3,0.1c2.9,0.5,4.9,2.1,6.2,4.6C365.3,54.2,365.5,55,365.7,55.7z M358.3,56.2c-9.7,0-19.4,0-29.1,0
			c0,5,0,9.9,0,14.8c9.7,0,19.4,0,29.1,0C358.3,66.1,358.3,61.2,358.3,56.2z"/>
	</g>
</g>
<path fill="#363636" d="M282,54.1c-0.8-1.4-1.6-2.8-2.4-4.3c-0.2-0.3-0.4-0.4-0.7-0.4c-7.1,0-14.3,0-21.4,0c-7.1,0-14.1,0-21.2,0
	c-0.6,0-0.9,0.2-1.2,0.7c-0.8,1.4-1.7,2.9-2.5,4.3c0,0.1,0,0.2,0,0.3c0.1,0.2,0.3,0.4,0.4,0.6c7.1,12.2,14.2,24.4,21.3,36.6
	c0.1,0.2,0.3,0.3,0.6,0.3c1.7,0,3.5,0,5.2,0c0.3,0,0.5-0.1,0.7-0.4c3.6-6.3,7.2-12.5,10.8-18.8c3.5-6,6.9-12.1,10.4-18.1
	C282.1,54.6,282.2,54.3,282,54.1z M274.8,50.7c0.8,0.1,1.7,0,2.5,0c0,0,0.1,0,0.1,0c-6.7,11.6-13.3,23.3-20,35
	c-5-8.7-10-17.2-15-25.9c0.1,0,0.2,0,0.3,0c1.1,0,2.2,0,3.3,0c0.3,0,0.5,0.1,0.6,0.3c3.3,5.6,6.5,11.3,9.8,16.9c0.3,0.5,0.7,1,1,1.6
	c0.2-0.3,0.3-0.5,0.5-0.7c5-8.8,10.1-17.5,15.1-26.3C273.5,50.9,273.9,50.6,274.8,50.7z M247.9,59.8c4.7,0,9.3,0,14,0
	c-2.4,4-4.7,8-7.1,12C252.5,67.8,250.2,63.9,247.9,59.8z M234.5,53.5c0.5-0.8,0.9-1.6,1.4-2.4c0.2-0.3,0.4-0.4,0.7-0.4
	c11.3,0,22.6,0,33.8,0c0.6,0,1.1,0,1.8,0c-4.9,8.6-9.8,17.1-14.7,25.6c-0.1-0.1-0.1-0.2-0.2-0.3c-0.5-0.8-1-1.7-1.5-2.5
	c-0.2-0.3-0.2-0.5,0-0.7c2.3-3.8,4.5-7.7,6.8-11.5c1.4-2.3,2.7-4.6,4.1-6.9c0.1-0.1,0.1-0.2,0.2-0.4c-10.9,0-21.7,0-32.5,0
	C234.4,53.7,234.5,53.6,234.5,53.5z M280.6,54.8c-4,7-8,14-12.1,20.9c-2.8,4.9-5.6,9.8-8.4,14.7c-0.2,0.3-0.4,0.4-0.7,0.4
	c-1.2,0-2.4,0-3.7,0c-0.4,0-0.6-0.1-0.8-0.4c-4.2-7.2-8.4-14.5-12.6-21.7c-2.5-4.4-5.1-8.7-7.6-13.1c-0.1-0.1-0.1-0.2-0.2-0.4
	c10.1,0,20.1,0,30.1,0c0,0.1,0,0.1,0,0.2c-0.6,1-1.1,2-1.7,2.9c-0.1,0.1-0.3,0.2-0.5,0.2c-1.6,0-3.3,0-4.9,0c-5.6,0-11.2,0-16.8,0
	c-0.1,0-0.2,0-0.4,0c5.7,9.8,11.4,19.6,17.1,29.4c0,0,0.1,0,0.1,0c2.5-4,4.7-8.2,7.1-12.3c2.4-4.1,4.7-8.2,7-12.3
	c2.4-4.1,4.7-8.2,7.1-12.4c0.1,0.1,0.2,0.2,0.2,0.4c0.5,0.9,1.1,1.9,1.6,2.8C280.7,54.4,280.7,54.5,280.6,54.8z"/>
<g>
	<g>
		<path fill="#363636" d="M44.2,117.9c-0.2,0.4-0.5,0.7-1,0.9c-0.5,0.2-1,0.4-1.7,0.4h-1.4v3.2h-1.7V114h3.1c0.6,0,1.2,0.1,1.7,0.3
			s0.8,0.5,1,0.9c0.2,0.4,0.3,0.8,0.3,1.3C44.5,117.1,44.4,117.5,44.2,117.9z M42.5,117.5c0.2-0.2,0.3-0.5,0.3-0.9
			c0-0.8-0.5-1.2-1.4-1.2h-1.3v2.4h1.3C41.9,117.8,42.3,117.7,42.5,117.5z"/>
		<path fill="#363636" d="M48.3,116c0.3-0.2,0.7-0.3,1.2-0.3v1.8H49c-0.5,0-0.9,0.1-1.2,0.4c-0.3,0.2-0.4,0.7-0.4,1.3v3.3h-1.7v-6.6
			h1.7v1C47.6,116.4,47.9,116.2,48.3,116z"/>
		<path fill="#363636" d="M51.8,122.1c-0.5-0.3-0.9-0.7-1.2-1.2c-0.3-0.5-0.4-1.1-0.4-1.8c0-0.7,0.1-1.3,0.4-1.8
			c0.3-0.5,0.7-0.9,1.2-1.2s1.1-0.4,1.7-0.4c0.6,0,1.2,0.1,1.7,0.4s0.9,0.7,1.2,1.2c0.3,0.5,0.5,1.1,0.5,1.8c0,0.7-0.2,1.3-0.5,1.8
			c-0.3,0.5-0.7,0.9-1.2,1.2c-0.5,0.3-1.1,0.4-1.8,0.4C52.9,122.5,52.3,122.4,51.8,122.1z M54.4,120.8c0.3-0.1,0.5-0.4,0.6-0.7
			c0.2-0.3,0.2-0.7,0.2-1.1c0-0.6-0.2-1.1-0.5-1.5c-0.3-0.3-0.7-0.5-1.2-0.5s-0.9,0.2-1.2,0.5c-0.3,0.3-0.5,0.8-0.5,1.5
			s0.2,1.1,0.5,1.5c0.3,0.3,0.7,0.5,1.2,0.5C53.8,121.1,54.1,121,54.4,120.8z"/>
		<path fill="#363636" d="M58.2,117.3c0.3-0.5,0.6-0.9,1.1-1.2s1-0.4,1.5-0.4c0.4,0,0.8,0.1,1.2,0.3c0.4,0.2,0.7,0.4,0.9,0.8v-3.2
			h1.7v8.9H63v-1c-0.2,0.3-0.5,0.6-0.9,0.8c-0.4,0.2-0.8,0.3-1.3,0.3c-0.6,0-1.1-0.1-1.5-0.4s-0.8-0.7-1.1-1.2
			c-0.3-0.5-0.4-1.1-0.4-1.8C57.8,118.4,57.9,117.8,58.2,117.3z M62.8,118c-0.2-0.3-0.4-0.5-0.6-0.7c-0.3-0.2-0.6-0.2-0.9-0.2
			s-0.6,0.1-0.9,0.2c-0.3,0.2-0.5,0.4-0.6,0.7s-0.2,0.6-0.2,1c0,0.4,0.1,0.8,0.2,1s0.4,0.5,0.6,0.7c0.3,0.2,0.6,0.2,0.9,0.2
			c0.3,0,0.6-0.1,0.9-0.2c0.3-0.2,0.5-0.4,0.6-0.7c0.2-0.3,0.2-0.6,0.2-1S63,118.3,62.8,118z"/>
		<path fill="#363636" d="M72.6,115.8v6.6H71v-0.8c-0.2,0.3-0.5,0.5-0.8,0.7s-0.7,0.2-1.1,0.2c-0.5,0-1-0.1-1.4-0.3
			c-0.4-0.2-0.7-0.5-0.9-1s-0.3-0.9-0.3-1.5v-3.9H68v3.7c0,0.5,0.1,0.9,0.4,1.2c0.3,0.3,0.6,0.4,1.1,0.4c0.5,0,0.8-0.1,1.1-0.4
			c0.3-0.3,0.4-0.7,0.4-1.2v-3.7H72.6z"/>
		<path fill="#363636" d="M74.3,117.3c0.3-0.5,0.7-0.9,1.2-1.2s1.1-0.4,1.7-0.4c0.8,0,1.5,0.2,2,0.6s0.9,1,1.1,1.7h-1.8
			c-0.1-0.3-0.3-0.5-0.5-0.7s-0.5-0.2-0.8-0.2c-0.5,0-0.9,0.2-1.1,0.5c-0.3,0.3-0.4,0.8-0.4,1.5c0,0.6,0.1,1.1,0.4,1.5
			c0.3,0.3,0.7,0.5,1.1,0.5c0.7,0,1.1-0.3,1.3-0.9h1.8c-0.2,0.7-0.5,1.3-1.1,1.7c-0.5,0.4-1.2,0.6-2,0.6c-0.6,0-1.2-0.1-1.7-0.4
			c-0.5-0.3-0.9-0.7-1.2-1.2c-0.3-0.5-0.4-1.1-0.4-1.8C73.9,118.4,74,117.8,74.3,117.3z"/>
		<path fill="#363636" d="M83.5,117.1v3.2c0,0.2,0.1,0.4,0.2,0.5c0.1,0.1,0.3,0.2,0.5,0.2H85v1.4h-1.1c-1.4,0-2.1-0.7-2.1-2.1v-3.2
			H81v-1.4h0.8v-1.6h1.7v1.6H85v1.4H83.5z"/>
		<path fill="#363636" d="M96,114v8.4h-1.7v-3.6h-3.6v3.6H89V114h1.7v3.4h3.6V114H96z"/>
		<path fill="#363636" d="M103.9,115.8v6.6h-1.7v-0.8c-0.2,0.3-0.5,0.5-0.8,0.7s-0.7,0.2-1.1,0.2c-0.5,0-1-0.1-1.4-0.3
			c-0.4-0.2-0.7-0.5-0.9-1s-0.3-0.9-0.3-1.5v-3.9h1.7v3.7c0,0.5,0.1,0.9,0.4,1.2c0.3,0.3,0.6,0.4,1.1,0.4c0.5,0,0.8-0.1,1.1-0.4
			c0.3-0.3,0.4-0.7,0.4-1.2v-3.7H103.9z"/>
		<path fill="#363636" d="M111.2,116.4c0.5,0.5,0.7,1.2,0.7,2.1v3.9h-1.7v-3.7c0-0.5-0.1-0.9-0.4-1.2c-0.3-0.3-0.6-0.4-1.1-0.4
			c-0.5,0-0.8,0.1-1.1,0.4c-0.3,0.3-0.4,0.7-0.4,1.2v3.7h-1.7v-6.6h1.7v0.8c0.2-0.3,0.5-0.5,0.9-0.7c0.3-0.2,0.7-0.2,1.1-0.2
			C110,115.7,110.7,115.9,111.2,116.4z"/>
		<path fill="#363636" d="M115.5,117.1v3.2c0,0.2,0.1,0.4,0.2,0.5c0.1,0.1,0.3,0.2,0.5,0.2h0.8v1.4h-1.1c-1.4,0-2.1-0.7-2.1-2.1
			v-3.2H113v-1.4h0.8v-1.6h1.7v1.6h1.5v1.4H115.5z"/>
	</g>
	<g id="uD2cic_00000096046611677893177350000002862299025822145673_">
		<g>
			<path fill="#363636" d="M75.6,46.6c1.2,0,2.4,0,3.7,0c0.2,0.1,0.4,0.1,0.6,0.2c10,1.1,18,7.7,20.9,17.4c0.5,1.6,0.7,3.3,1,4.9
				c0,1.2,0,2.4,0,3.7c-0.1,0.3-0.1,0.5-0.2,0.8c-1.4,10.3-7.1,17.1-16.8,20.5c-1.7,0.6-3.6,0.8-5.4,1.2c-1.2,0-2.4,0-3.7,0
				c-0.2-0.1-0.5-0.1-0.7-0.2c-9.6-1-17.8-7.7-20.6-17c-0.5-1.7-0.8-3.6-1.1-5.3c0-1.2,0-2.4,0-3.7c0.1-0.3,0.1-0.5,0.2-0.8
				c1.5-10.3,7.2-17.2,17.1-20.6C72.1,47.1,73.9,47,75.6,46.6z M69.2,58.8c0,8.1,0,16.2,0,24.3c1.7,0,3.2,0,4.9,0c0-2.4,0-4.8,0-7.2
				c2.3,0,4.5,0,6.8,0c4.8,0,8.5-3.5,8.8-8.2c0.2-4.5-3.2-8.5-7.9-8.8C77.6,58.6,73.4,58.8,69.2,58.8z"/>
			<path fill="#363636" d="M74.1,70.8c0-2.5,0-4.8,0-7.1c2.6,0,5.2-0.2,7.7,0.1c1.8,0.1,3,2.1,2.8,3.8c-0.2,1.8-1.6,3.3-3.5,3.3
				C78.9,70.9,76.5,70.8,74.1,70.8z"/>
		</g>
	</g>
</g>
<g>
	<g>
		<path fill="#363636" d="M154.3,114.5c0.7,0.3,1.2,0.8,1.5,1.5c0.4,0.6,0.5,1.4,0.5,2.2s-0.2,1.6-0.5,2.2c-0.4,0.6-0.9,1.1-1.5,1.5
			c-0.7,0.3-1.4,0.5-2.3,0.5H149V114h2.9C152.8,114,153.6,114.2,154.3,114.5z M153.9,120.3c0.5-0.5,0.7-1.2,0.7-2s-0.2-1.6-0.7-2
			c-0.5-0.5-1.2-0.7-2-0.7h-1.2v5.5h1.2C152.8,121,153.5,120.7,153.9,120.3z"/>
		<path fill="#363636" d="M160.2,116c0.3-0.2,0.7-0.3,1.2-0.3v1.8h-0.4c-0.5,0-0.9,0.1-1.2,0.4c-0.3,0.2-0.4,0.7-0.4,1.3v3.3h-1.7
			v-6.6h1.7v1C159.5,116.4,159.8,116.2,160.2,116z"/>
		<path fill="#363636" d="M162.6,114.7c-0.2-0.2-0.3-0.4-0.3-0.7s0.1-0.5,0.3-0.7c0.2-0.2,0.4-0.3,0.7-0.3c0.3,0,0.5,0.1,0.7,0.3
			c0.2,0.2,0.3,0.4,0.3,0.7s-0.1,0.5-0.3,0.7c-0.2,0.2-0.4,0.3-0.7,0.3C163,115,162.8,114.9,162.6,114.7z M164.2,115.8v6.6h-1.7
			v-6.6H164.2z"/>
		<path fill="#363636" d="M168.4,116c0.4-0.2,0.8-0.3,1.3-0.3c0.6,0,1.1,0.1,1.5,0.4c0.5,0.3,0.8,0.7,1.1,1.2
			c0.3,0.5,0.4,1.1,0.4,1.8c0,0.7-0.1,1.3-0.4,1.8c-0.3,0.5-0.6,0.9-1.1,1.2c-0.5,0.3-1,0.4-1.5,0.4c-0.5,0-0.9-0.1-1.3-0.3
			c-0.4-0.2-0.7-0.5-0.9-0.8v0.9h-1.7v-8.9h1.7v3.2C167.7,116.4,168,116.2,168.4,116z M170.8,118c-0.2-0.3-0.4-0.5-0.6-0.7
			c-0.3-0.2-0.6-0.2-0.9-0.2c-0.3,0-0.6,0.1-0.9,0.2s-0.5,0.4-0.6,0.7s-0.2,0.6-0.2,1c0,0.4,0.1,0.7,0.2,1s0.4,0.5,0.6,0.7
			c0.3,0.2,0.6,0.2,0.9,0.2c0.3,0,0.6-0.1,0.9-0.2c0.3-0.2,0.5-0.4,0.6-0.7s0.2-0.6,0.2-1.1C171,118.7,170.9,118.3,170.8,118z"/>
		<path fill="#363636" d="M176.5,116c0.4-0.2,0.8-0.3,1.3-0.3c0.6,0,1.1,0.1,1.5,0.4c0.5,0.3,0.8,0.7,1.1,1.2
			c0.3,0.5,0.4,1.1,0.4,1.8c0,0.7-0.1,1.3-0.4,1.8c-0.3,0.5-0.6,0.9-1.1,1.2c-0.5,0.3-1,0.4-1.5,0.4c-0.5,0-0.9-0.1-1.3-0.3
			c-0.4-0.2-0.7-0.5-0.9-0.8v0.9h-1.7v-8.9h1.7v3.2C175.8,116.4,176.1,116.2,176.5,116z M178.9,118c-0.2-0.3-0.4-0.5-0.6-0.7
			c-0.3-0.2-0.6-0.2-0.9-0.2c-0.3,0-0.6,0.1-0.9,0.2s-0.5,0.4-0.6,0.7s-0.2,0.6-0.2,1c0,0.4,0.1,0.7,0.2,1s0.4,0.5,0.6,0.7
			c0.3,0.2,0.6,0.2,0.9,0.2c0.3,0,0.6-0.1,0.9-0.2c0.3-0.2,0.5-0.4,0.6-0.7s0.2-0.6,0.2-1.1C179.1,118.7,179.1,118.3,178.9,118z"/>
		<path fill="#363636" d="M184.7,116c0.4-0.2,0.8-0.3,1.3-0.3c0.6,0,1.1,0.1,1.5,0.4c0.5,0.3,0.8,0.7,1.1,1.2
			c0.3,0.5,0.4,1.1,0.4,1.8c0,0.7-0.1,1.3-0.4,1.8c-0.3,0.5-0.6,0.9-1.1,1.2c-0.5,0.3-1,0.4-1.5,0.4c-0.5,0-0.9-0.1-1.3-0.3
			c-0.4-0.2-0.7-0.5-0.9-0.8v0.9h-1.7v-8.9h1.7v3.2C184,116.4,184.3,116.2,184.7,116z M187,118c-0.2-0.3-0.4-0.5-0.6-0.7
			c-0.3-0.2-0.6-0.2-0.9-0.2c-0.3,0-0.6,0.1-0.9,0.2s-0.5,0.4-0.6,0.7s-0.2,0.6-0.2,1c0,0.4,0.1,0.7,0.2,1s0.4,0.5,0.6,0.7
			c0.3,0.2,0.6,0.2,0.9,0.2c0.3,0,0.6-0.1,0.9-0.2c0.3-0.2,0.5-0.4,0.6-0.7s0.2-0.6,0.2-1.1C187.3,118.7,187.2,118.3,187,118z"/>
		<path fill="#363636" d="M191.9,113.5v8.9h-1.7v-8.9H191.9z"/>
		<path fill="#363636" d="M199.7,119.6h-4.9c0,0.5,0.2,0.9,0.5,1.1c0.3,0.3,0.7,0.4,1.1,0.4c0.6,0,1.1-0.3,1.3-0.8h1.8
			c-0.2,0.6-0.6,1.2-1.1,1.6s-1.2,0.6-2,0.6c-0.6,0-1.2-0.1-1.7-0.4c-0.5-0.3-0.9-0.7-1.2-1.2c-0.3-0.5-0.4-1.1-0.4-1.8
			c0-0.7,0.1-1.3,0.4-1.8c0.3-0.5,0.7-0.9,1.2-1.2c0.5-0.3,1.1-0.4,1.7-0.4c0.6,0,1.2,0.1,1.7,0.4c0.5,0.3,0.9,0.7,1.2,1.2
			c0.3,0.5,0.4,1.1,0.4,1.7C199.7,119.2,199.7,119.4,199.7,119.6z M198,118.5c0-0.4-0.2-0.8-0.5-1c-0.3-0.3-0.7-0.4-1.1-0.4
			c-0.4,0-0.8,0.1-1.1,0.4c-0.3,0.3-0.5,0.6-0.5,1H198z"/>
	</g>
	<g id="P6mJIi_00000112601836412928575790000011344540219740657077_">
		<g>
			<path fill="#363636" d="M172.3,47.7c1.2,0,2.4,0,3.7,0c0.2,0.1,0.5,0.1,0.7,0.2c10.1,1.4,16.8,6.9,20.3,16.3
				c0.7,1.8,0.9,3.9,1.3,5.8c0,1.2,0,2.4,0,3.7c-0.1,0.2-0.2,0.5-0.2,0.7c-1.1,10.1-8.1,18.3-18,20.8c-1.4,0.4-2.8,0.5-4.2,0.8
				c-1.3,0-2.6,0-3.9,0c-0.2-0.1-0.4-0.2-0.6-0.2c-10-1.4-16.7-6.8-20.2-16.2c-0.7-1.9-0.9-3.9-1.3-5.9c0-1.2,0-2.4,0-3.7
				c0.1-0.3,0.1-0.5,0.2-0.8c1.4-10,6.9-16.8,16.3-20.2C168.4,48.3,170.4,48.1,172.3,47.7z M158,82.5c5.7-3.4,11.7-6.2,18.1-8.1
				c-0.5-1.4-0.9-2.8-1.3-4.1c-6.7,1.5-13.3,1.5-20,0.8C154.7,75.3,155.8,79,158,82.5z M177.3,79.1c-4.3,1.1-13.3,5.1-16,7.1
				c4.4,4.5,12.5,6.1,17.7,4.2c-0.4-2.8-0.7-5.6-1.1-8.4C177.8,81.1,177.5,80.1,177.3,79.1z M166.3,54.3c-4.5,1.5-10.5,8.4-10.4,12
				c5.7,0.6,11.4,0.6,17.1-0.6C171.1,61.6,169,57.8,166.3,54.3z M171.4,52.7c2.2,3.9,4.3,7.7,6.4,11.6c3.6-1.4,6.8-3.5,9.2-6.8
				C182.5,53.6,177.3,52,171.4,52.7z M190.3,61.2c-3,3.6-6.7,5.9-10.9,7.6c0.5,1.5,0.9,3,1.4,4.4c4.2-0.9,8.4-0.9,12.7-0.4
				C193.6,68.6,192.6,64.8,190.3,61.2z M192.6,77.7c-3.2-0.6-8.7-0.4-10.5,0.3c0.5,3.5,1.1,7,1.6,10.6C188,86.1,191,82.5,192.6,77.7
				z"/>
		</g>
	</g>
</g>
</svg>
