<?xml version="1.0" encoding="utf-8"?>
<!-- Generator: Adobe Illustrator 26.3.1, SVG Export Plug-In . SVG Version: 6.00 Build 0)  -->
<svg version="1.1" baseProfile="tiny" id="Layer_1" xmlns="http://www.w3.org/2000/svg" xmlns:xlink="http://www.w3.org/1999/xlink"
	 x="0px" y="0px" width="514.7px" height="173.2px" viewBox="0 0 514.7 173.2" overflow="visible" xml:space="preserve">
<path fill="#F2EDED" d="M498.6,173.2H15.9C7.1,173.2,0,166,0,157.1v-141C0,7.2,7.1,0,15.9,0h482.8c8.8,0,15.9,7.2,15.9,16.1v141.1
	C514.6,166,507.4,173.2,498.6,173.2z"/>
<g>
	<path fill="#363636" d="M220,114v1.4h-2.2v7h-1.7v-7h-2.2V114H220z"/>
	<path fill="#363636" d="M227.3,119.6h-4.9c0,0.5,0.2,0.9,0.5,1.1c0.3,0.3,0.7,0.4,1.1,0.4c0.6,0,1.1-0.3,1.3-0.8h1.8
		c-0.2,0.6-0.6,1.2-1.1,1.6s-1.2,0.6-2,0.6c-0.6,0-1.2-0.1-1.7-0.4c-0.5-0.3-0.9-0.7-1.2-1.2c-0.3-0.5-0.4-1.1-0.4-1.8
		c0-0.7,0.1-1.3,0.4-1.8c0.3-0.5,0.7-0.9,1.2-1.2c0.5-0.3,1.1-0.4,1.7-0.4c0.6,0,1.2,0.1,1.7,0.4c0.5,0.3,0.9,0.7,1.2,1.2
		c0.3,0.5,0.4,1.1,0.4,1.7C227.4,119.2,227.4,119.4,227.3,119.6z M225.6,118.5c0-0.4-0.2-0.8-0.5-1c-0.3-0.3-0.7-0.4-1.1-0.4
		c-0.4,0-0.8,0.1-1.1,0.4c-0.3,0.3-0.5,0.6-0.5,1H225.6z"/>
	<path fill="#363636" d="M228.6,117.3c0.3-0.5,0.6-0.9,1.1-1.2c0.5-0.3,1-0.4,1.5-0.4c0.5,0,0.9,0.1,1.3,0.3s0.7,0.5,0.9,0.8v-0.9
		h1.7v6.6h-1.7v-1c-0.2,0.3-0.5,0.6-0.9,0.8s-0.8,0.3-1.3,0.3c-0.6,0-1.1-0.1-1.5-0.4c-0.5-0.3-0.8-0.7-1.1-1.2
		c-0.3-0.5-0.4-1.1-0.4-1.8C228.2,118.4,228.3,117.8,228.6,117.3z M233.2,118c-0.2-0.3-0.4-0.5-0.6-0.7c-0.3-0.2-0.6-0.2-0.9-0.2
		s-0.6,0.1-0.9,0.2c-0.3,0.2-0.5,0.4-0.6,0.7s-0.2,0.6-0.2,1c0,0.4,0.1,0.8,0.2,1s0.4,0.5,0.6,0.7c0.3,0.2,0.6,0.2,0.9,0.2
		c0.3,0,0.6-0.1,0.9-0.2c0.3-0.2,0.5-0.4,0.6-0.7c0.2-0.3,0.2-0.6,0.2-1S233.3,118.3,233.2,118z"/>
	<path fill="#363636" d="M247,116.4c0.5,0.5,0.8,1.2,0.8,2.1v3.9H246v-3.7c0-0.5-0.1-0.9-0.4-1.2c-0.3-0.3-0.6-0.4-1.1-0.4
		s-0.8,0.1-1.1,0.4c-0.3,0.3-0.4,0.7-0.4,1.2v3.7h-1.7v-3.7c0-0.5-0.1-0.9-0.4-1.2c-0.3-0.3-0.6-0.4-1.1-0.4c-0.5,0-0.8,0.1-1.1,0.4
		c-0.3,0.3-0.4,0.7-0.4,1.2v3.7h-1.7v-6.6h1.7v0.8c0.2-0.3,0.5-0.5,0.8-0.7c0.3-0.2,0.7-0.2,1.1-0.2c0.5,0,1,0.1,1.4,0.3
		c0.4,0.2,0.7,0.5,0.9,0.9c0.2-0.4,0.5-0.7,0.9-0.9c0.4-0.2,0.9-0.3,1.3-0.3C245.8,115.7,246.5,115.9,247,116.4z"/>
	<path fill="#363636" d="M258.1,118.8c0.3,0.4,0.5,0.8,0.5,1.3c0,0.4-0.1,0.8-0.3,1.2c-0.2,0.3-0.5,0.6-1,0.8s-0.9,0.3-1.5,0.3h-3.6
		V114h3.5c0.6,0,1.1,0.1,1.5,0.3c0.4,0.2,0.7,0.4,0.9,0.8c0.2,0.3,0.3,0.7,0.3,1.1c0,0.5-0.1,0.9-0.4,1.2c-0.3,0.3-0.6,0.6-1,0.7
		C257.4,118.2,257.8,118.4,258.1,118.8z M253.9,117.5h1.5c0.4,0,0.7-0.1,0.9-0.3c0.2-0.2,0.3-0.4,0.3-0.8s-0.1-0.6-0.3-0.8
		c-0.2-0.2-0.5-0.3-0.9-0.3h-1.5V117.5z M256.5,120.8c0.2-0.2,0.3-0.5,0.3-0.8c0-0.4-0.1-0.6-0.4-0.8c-0.2-0.2-0.6-0.3-1-0.3h-1.7
		v2.3h1.7C256,121,256.3,120.9,256.5,120.8z"/>
	<path fill="#363636" d="M266.2,115.8v6.6h-1.7v-0.8c-0.2,0.3-0.5,0.5-0.8,0.7c-0.3,0.2-0.7,0.2-1.1,0.2c-0.5,0-1-0.1-1.4-0.3
		c-0.4-0.2-0.7-0.5-0.9-1c-0.2-0.4-0.3-0.9-0.3-1.5v-3.9h1.7v3.7c0,0.5,0.1,0.9,0.4,1.2c0.3,0.3,0.6,0.4,1.1,0.4
		c0.5,0,0.8-0.1,1.1-0.4c0.3-0.3,0.4-0.7,0.4-1.2v-3.7H266.2z"/>
	<path fill="#363636" d="M267.9,114.7c-0.2-0.2-0.3-0.4-0.3-0.7s0.1-0.5,0.3-0.7c0.2-0.2,0.4-0.3,0.7-0.3s0.5,0.1,0.7,0.3
		c0.2,0.2,0.3,0.4,0.3,0.7s-0.1,0.5-0.3,0.7c-0.2,0.2-0.4,0.3-0.7,0.3S268.1,114.9,267.9,114.7z M269.5,115.8v6.6h-1.7v-6.6H269.5z"
		/>
	<path fill="#363636" d="M272.8,113.5v8.9h-1.7v-8.9H272.8z"/>
	<path fill="#363636" d="M274.5,117.3c0.3-0.5,0.6-0.9,1.1-1.2s1-0.4,1.5-0.4c0.4,0,0.8,0.1,1.2,0.3c0.4,0.2,0.7,0.4,0.9,0.8v-3.2
		h1.7v8.9h-1.7v-1c-0.2,0.3-0.5,0.6-0.9,0.8c-0.4,0.2-0.8,0.3-1.3,0.3c-0.6,0-1.1-0.1-1.5-0.4s-0.8-0.7-1.1-1.2
		c-0.3-0.5-0.4-1.1-0.4-1.8C274.1,118.4,274.2,117.8,274.5,117.3z M279.1,118c-0.2-0.3-0.4-0.5-0.6-0.7c-0.3-0.2-0.6-0.2-0.9-0.2
		c-0.3,0-0.6,0.1-0.9,0.2c-0.3,0.2-0.5,0.4-0.6,0.7s-0.2,0.6-0.2,1c0,0.4,0.1,0.8,0.2,1s0.4,0.5,0.6,0.7c0.3,0.2,0.6,0.2,0.9,0.2
		c0.3,0,0.6-0.1,0.9-0.2c0.3-0.2,0.5-0.4,0.6-0.7c0.2-0.3,0.2-0.6,0.2-1S279.2,118.3,279.1,118z"/>
	<path fill="#363636" d="M282.7,114.7c-0.2-0.2-0.3-0.4-0.3-0.7s0.1-0.5,0.3-0.7c0.2-0.2,0.4-0.3,0.7-0.3s0.5,0.1,0.7,0.3
		c0.2,0.2,0.3,0.4,0.3,0.7s-0.1,0.5-0.3,0.7c-0.2,0.2-0.4,0.3-0.7,0.3S282.9,114.9,282.7,114.7z M284.3,115.8v6.6h-1.7v-6.6H284.3z"
		/>
	<path fill="#363636" d="M291.6,116.4c0.5,0.5,0.7,1.2,0.7,2.1v3.9h-1.7v-3.7c0-0.5-0.1-0.9-0.4-1.2s-0.6-0.4-1.1-0.4
		c-0.5,0-0.8,0.1-1.1,0.4c-0.3,0.3-0.4,0.7-0.4,1.2v3.7H286v-6.6h1.7v0.8c0.2-0.3,0.5-0.5,0.9-0.7c0.3-0.2,0.7-0.2,1.1-0.2
		C290.4,115.7,291.1,115.9,291.6,116.4z"/>
	<path fill="#363636" d="M297.8,115.9c0.4,0.2,0.7,0.5,0.9,0.8v-0.9h1.7v6.7c0,0.6-0.1,1.2-0.4,1.7c-0.2,0.5-0.6,0.9-1.1,1.2
		c-0.5,0.3-1.1,0.4-1.8,0.4c-0.9,0-1.7-0.2-2.3-0.7c-0.6-0.4-0.9-1-1-1.8h1.7c0.1,0.3,0.3,0.5,0.6,0.7s0.6,0.3,1.1,0.3
		c0.5,0,0.9-0.1,1.2-0.4c0.3-0.3,0.5-0.7,0.5-1.3v-1c-0.2,0.3-0.5,0.6-0.9,0.8s-0.8,0.3-1.3,0.3c-0.6,0-1.1-0.1-1.5-0.4
		s-0.8-0.7-1.1-1.2c-0.3-0.5-0.4-1.1-0.4-1.8c0-0.7,0.1-1.3,0.4-1.8c0.3-0.5,0.6-0.9,1.1-1.2c0.5-0.3,1-0.4,1.5-0.4
		C297,115.7,297.4,115.8,297.8,115.9z M298.5,118c-0.2-0.3-0.4-0.5-0.6-0.7c-0.3-0.2-0.6-0.2-0.9-0.2c-0.3,0-0.6,0.1-0.9,0.2
		c-0.3,0.2-0.5,0.4-0.6,0.7s-0.2,0.6-0.2,1c0,0.4,0.1,0.8,0.2,1s0.4,0.5,0.6,0.7c0.3,0.2,0.6,0.2,0.9,0.2c0.3,0,0.6-0.1,0.9-0.2
		c0.3-0.2,0.5-0.4,0.6-0.7c0.2-0.3,0.2-0.6,0.2-1S298.6,118.3,298.5,118z"/>
</g>
<g>
	<path fill="#363636" d="M379.4,118.8c0.3,0.4,0.5,0.8,0.5,1.3c0,0.4-0.1,0.8-0.3,1.2s-0.5,0.6-1,0.8s-0.9,0.3-1.5,0.3h-3.6V114h3.5
		c0.6,0,1.1,0.1,1.5,0.3c0.4,0.2,0.7,0.4,0.9,0.8s0.3,0.7,0.3,1.1c0,0.5-0.1,0.9-0.4,1.2s-0.6,0.6-1,0.7
		C378.7,118.2,379.1,118.4,379.4,118.8z M375.1,117.5h1.5c0.4,0,0.7-0.1,0.9-0.3c0.2-0.2,0.3-0.4,0.3-0.8s-0.1-0.6-0.3-0.8
		c-0.2-0.2-0.5-0.3-0.9-0.3h-1.5V117.5z M377.8,120.8c0.2-0.2,0.3-0.5,0.3-0.8c0-0.4-0.1-0.6-0.4-0.8c-0.2-0.2-0.6-0.3-1-0.3h-1.7
		v2.3h1.7C377.2,121,377.6,120.9,377.8,120.8z"/>
	<path fill="#363636" d="M381.3,114.7c-0.2-0.2-0.3-0.4-0.3-0.7s0.1-0.5,0.3-0.7c0.2-0.2,0.4-0.3,0.7-0.3c0.3,0,0.5,0.1,0.7,0.3
		c0.2,0.2,0.3,0.4,0.3,0.7s-0.1,0.5-0.3,0.7c-0.2,0.2-0.4,0.3-0.7,0.3C381.7,115,381.5,114.9,381.3,114.7z M382.9,115.8v6.6h-1.7
		v-6.6H382.9z"/>
	<path fill="#363636" d="M388.4,115.9c0.4,0.2,0.7,0.5,0.9,0.8v-0.9h1.7v6.7c0,0.6-0.1,1.2-0.4,1.7c-0.2,0.5-0.6,0.9-1.1,1.2
		c-0.5,0.3-1.1,0.4-1.8,0.4c-0.9,0-1.7-0.2-2.3-0.7c-0.6-0.4-0.9-1-1-1.8h1.7c0.1,0.3,0.3,0.5,0.6,0.7s0.6,0.3,1.1,0.3
		c0.5,0,0.9-0.1,1.2-0.4c0.3-0.3,0.5-0.7,0.5-1.3v-1c-0.2,0.3-0.5,0.6-0.9,0.8s-0.8,0.3-1.3,0.3c-0.6,0-1.1-0.1-1.5-0.4
		s-0.8-0.7-1.1-1.2c-0.3-0.5-0.4-1.1-0.4-1.8c0-0.7,0.1-1.3,0.4-1.8c0.3-0.5,0.6-0.9,1.1-1.2c0.5-0.3,1-0.4,1.5-0.4
		C387.6,115.7,388,115.8,388.4,115.9z M389.1,118c-0.2-0.3-0.4-0.5-0.6-0.7c-0.3-0.2-0.6-0.2-0.9-0.2c-0.3,0-0.6,0.1-0.9,0.2
		c-0.3,0.2-0.5,0.4-0.6,0.7s-0.2,0.6-0.2,1c0,0.4,0.1,0.8,0.2,1s0.4,0.5,0.6,0.7c0.3,0.2,0.6,0.2,0.9,0.2c0.3,0,0.6-0.1,0.9-0.2
		c0.3-0.2,0.5-0.4,0.6-0.7c0.2-0.3,0.2-0.6,0.2-1S389.2,118.3,389.1,118z"/>
	<path fill="#363636" d="M402.4,114v8.4h-1.7v-3.6h-3.6v3.6h-1.7V114h1.7v3.4h3.6V114H402.4z"/>
	<path fill="#363636" d="M405.3,122.1c-0.5-0.3-0.9-0.7-1.2-1.2c-0.3-0.5-0.4-1.1-0.4-1.8c0-0.7,0.2-1.3,0.5-1.8
		c0.3-0.5,0.7-0.9,1.2-1.2c0.5-0.3,1.1-0.4,1.7-0.4s1.2,0.1,1.7,0.4c0.5,0.3,0.9,0.7,1.2,1.2c0.3,0.5,0.5,1.1,0.5,1.8
		c0,0.7-0.2,1.3-0.5,1.8c-0.3,0.5-0.7,0.9-1.2,1.2c-0.5,0.3-1.1,0.4-1.8,0.4C406.4,122.5,405.8,122.4,405.3,122.1z M407.9,120.8
		c0.3-0.1,0.5-0.4,0.6-0.7s0.2-0.7,0.2-1.1c0-0.6-0.2-1.1-0.5-1.5c-0.3-0.3-0.7-0.5-1.2-0.5c-0.5,0-0.9,0.2-1.2,0.5
		c-0.3,0.3-0.5,0.8-0.5,1.5s0.2,1.1,0.5,1.5c0.3,0.3,0.7,0.5,1.2,0.5C407.4,121.1,407.6,121,407.9,120.8z"/>
	<path fill="#363636" d="M413.4,113.5v8.9h-1.7v-8.9H413.4z"/>
	<path fill="#363636" d="M415.2,114.7c-0.2-0.2-0.3-0.4-0.3-0.7s0.1-0.5,0.3-0.7c0.2-0.2,0.4-0.3,0.7-0.3c0.3,0,0.5,0.1,0.7,0.3
		c0.2,0.2,0.3,0.4,0.3,0.7s-0.1,0.5-0.3,0.7c-0.2,0.2-0.4,0.3-0.7,0.3C415.7,115,415.4,114.9,415.2,114.7z M416.8,115.8v6.6h-1.7
		v-6.6H416.8z"/>
	<path fill="#363636" d="M418.4,117.3c0.3-0.5,0.6-0.9,1.1-1.2s1-0.4,1.5-0.4c0.4,0,0.8,0.1,1.2,0.3c0.4,0.2,0.7,0.4,0.9,0.8v-3.2
		h1.7v8.9h-1.7v-1c-0.2,0.3-0.5,0.6-0.9,0.8c-0.4,0.2-0.8,0.3-1.3,0.3c-0.6,0-1.1-0.1-1.5-0.4s-0.8-0.7-1.1-1.2
		c-0.3-0.5-0.4-1.1-0.4-1.8C418,118.4,418.1,117.8,418.4,117.3z M423,118c-0.2-0.3-0.4-0.5-0.6-0.7c-0.3-0.2-0.6-0.2-0.9-0.2
		c-0.3,0-0.6,0.1-0.9,0.2c-0.3,0.2-0.5,0.4-0.6,0.7s-0.2,0.6-0.2,1c0,0.4,0.1,0.8,0.2,1s0.4,0.5,0.6,0.7c0.3,0.2,0.6,0.2,0.9,0.2
		c0.3,0,0.6-0.1,0.9-0.2c0.3-0.2,0.5-0.4,0.6-0.7c0.2-0.3,0.2-0.6,0.2-1S423.2,118.3,423,118z"/>
	<path fill="#363636" d="M426.5,117.3c0.3-0.5,0.6-0.9,1.1-1.2c0.5-0.3,1-0.4,1.5-0.4c0.5,0,0.9,0.1,1.3,0.3s0.7,0.5,0.9,0.8v-0.9
		h1.7v6.6h-1.7v-1c-0.2,0.3-0.5,0.6-0.9,0.8s-0.8,0.3-1.3,0.3c-0.6,0-1.1-0.1-1.5-0.4c-0.5-0.3-0.8-0.7-1.1-1.2
		c-0.3-0.5-0.4-1.1-0.4-1.8C426.1,118.4,426.3,117.8,426.5,117.3z M431.1,118c-0.2-0.3-0.4-0.5-0.6-0.7c-0.3-0.2-0.6-0.2-0.9-0.2
		c-0.3,0-0.6,0.1-0.9,0.2c-0.3,0.2-0.5,0.4-0.6,0.7s-0.2,0.6-0.2,1c0,0.4,0.1,0.8,0.2,1s0.4,0.5,0.6,0.7c0.3,0.2,0.6,0.2,0.9,0.2
		c0.3,0,0.6-0.1,0.9-0.2c0.3-0.2,0.5-0.4,0.6-0.7c0.2-0.3,0.2-0.6,0.2-1S431.3,118.3,431.1,118z"/>
	<path fill="#363636" d="M441.1,115.8l-4.1,9.8h-1.8l1.4-3.3l-2.7-6.5h1.9l1.7,4.6l1.7-4.6H441.1z"/>
	<path fill="#363636" d="M443,122.2c-0.4-0.2-0.8-0.5-1-0.8s-0.4-0.7-0.4-1.1h1.7c0,0.3,0.2,0.5,0.4,0.6c0.2,0.2,0.5,0.3,0.8,0.3
		c0.3,0,0.6-0.1,0.8-0.2c0.2-0.1,0.3-0.3,0.3-0.5c0-0.2-0.1-0.4-0.3-0.5c-0.2-0.1-0.6-0.2-1-0.4c-0.5-0.1-0.9-0.2-1.2-0.4
		c-0.3-0.1-0.6-0.3-0.8-0.6c-0.2-0.3-0.3-0.6-0.3-1.1c0-0.4,0.1-0.7,0.3-1c0.2-0.3,0.5-0.5,0.9-0.7c0.4-0.2,0.9-0.3,1.4-0.3
		c0.8,0,1.4,0.2,1.9,0.6c0.5,0.4,0.7,0.9,0.8,1.6h-1.6c0-0.3-0.1-0.5-0.3-0.6c-0.2-0.2-0.5-0.2-0.8-0.2c-0.3,0-0.5,0.1-0.7,0.2
		s-0.2,0.3-0.2,0.5c0,0.2,0.1,0.4,0.3,0.5c0.2,0.1,0.6,0.2,1,0.4c0.5,0.1,0.9,0.2,1.2,0.4c0.3,0.1,0.6,0.3,0.8,0.6
		c0.2,0.3,0.3,0.6,0.4,1.1c0,0.4-0.1,0.7-0.3,1c-0.2,0.3-0.5,0.5-0.9,0.7c-0.4,0.2-0.9,0.3-1.4,0.3C444,122.5,443.5,122.4,443,122.2
		z"/>
</g>
<g>
	<path fill="#363636" d="M78.6,114v8.4h-1.7V117l-2.2,5.4h-1.3l-2.3-5.4v5.4h-1.7V114h1.9l2.7,6.2l2.7-6.2H78.6z"/>
	<path fill="#363636" d="M80.2,117.3c0.3-0.5,0.6-0.9,1.1-1.2c0.5-0.3,1-0.4,1.5-0.4c0.5,0,0.9,0.1,1.3,0.3s0.7,0.5,0.9,0.8v-0.9
		h1.7v6.6H85v-1c-0.2,0.3-0.5,0.6-0.9,0.8s-0.8,0.3-1.3,0.3c-0.6,0-1.1-0.1-1.5-0.4c-0.5-0.3-0.8-0.7-1.1-1.2
		c-0.3-0.5-0.4-1.1-0.4-1.8C79.8,118.4,79.9,117.8,80.2,117.3z M84.8,118c-0.2-0.3-0.4-0.5-0.6-0.7c-0.3-0.2-0.6-0.2-0.9-0.2
		s-0.6,0.1-0.9,0.2c-0.3,0.2-0.5,0.4-0.6,0.7s-0.2,0.6-0.2,1c0,0.4,0.1,0.8,0.2,1s0.4,0.5,0.6,0.7c0.3,0.2,0.6,0.2,0.9,0.2
		c0.3,0,0.6-0.1,0.9-0.2c0.3-0.2,0.5-0.4,0.6-0.7c0.2-0.3,0.2-0.6,0.2-1S84.9,118.3,84.8,118z"/>
	<path fill="#363636" d="M90,123.5c0,0.7-0.2,1.3-0.5,1.6c-0.4,0.3-0.9,0.5-1.6,0.5h-0.7v-1.4h0.5c0.3,0,0.4-0.1,0.5-0.2
		s0.2-0.3,0.2-0.5v-7.8H90V123.5z M88.5,114.7c-0.2-0.2-0.3-0.4-0.3-0.7s0.1-0.5,0.3-0.7c0.2-0.2,0.4-0.3,0.8-0.3
		c0.3,0,0.5,0.1,0.7,0.3c0.2,0.2,0.3,0.4,0.3,0.7s-0.1,0.5-0.3,0.7c-0.2,0.2-0.4,0.3-0.7,0.3C88.9,115,88.7,114.9,88.5,114.7z"/>
	<path fill="#363636" d="M92.9,122.1c-0.5-0.3-0.9-0.7-1.2-1.2c-0.3-0.5-0.4-1.1-0.4-1.8c0-0.7,0.1-1.3,0.4-1.8
		c0.3-0.5,0.7-0.9,1.2-1.2s1.1-0.4,1.7-0.4c0.6,0,1.2,0.1,1.7,0.4s0.9,0.7,1.2,1.2c0.3,0.5,0.5,1.1,0.5,1.8c0,0.7-0.2,1.3-0.5,1.8
		c-0.3,0.5-0.7,0.9-1.2,1.2c-0.5,0.3-1.1,0.4-1.8,0.4C94,122.5,93.4,122.4,92.9,122.1z M95.5,120.8c0.3-0.1,0.5-0.4,0.6-0.7
		c0.2-0.3,0.2-0.7,0.2-1.1c0-0.6-0.2-1.1-0.5-1.5c-0.3-0.3-0.7-0.5-1.2-0.5s-0.9,0.2-1.2,0.5c-0.3,0.3-0.5,0.8-0.5,1.5
		s0.2,1.1,0.5,1.5c0.3,0.3,0.7,0.5,1.2,0.5C95,121.1,95.2,121,95.5,120.8z"/>
	<path fill="#363636" d="M101.9,116c0.3-0.2,0.7-0.3,1.2-0.3v1.8h-0.4c-0.5,0-0.9,0.1-1.2,0.4c-0.3,0.2-0.4,0.7-0.4,1.3v3.3h-1.7
		v-6.6h1.7v1C101.2,116.4,101.5,116.2,101.9,116z"/>
	<path fill="#363636" d="M118.3,114l-2.3,8.4h-2l-1.6-6l-1.6,6l-2,0l-2.3-8.4h1.8l1.5,6.5l1.7-6.5h1.9l1.6,6.5l1.5-6.5H118.3z"/>
	<path fill="#363636" d="M119.5,114.7c-0.2-0.2-0.3-0.4-0.3-0.7s0.1-0.5,0.3-0.7c0.2-0.2,0.4-0.3,0.7-0.3c0.3,0,0.5,0.1,0.7,0.3
		c0.2,0.2,0.3,0.4,0.3,0.7s-0.1,0.5-0.3,0.7c-0.2,0.2-0.4,0.3-0.7,0.3C119.9,115,119.7,114.9,119.5,114.7z M121,115.8v6.6h-1.7v-6.6
		H121z"/>
	<path fill="#363636" d="M128.3,116.4c0.5,0.5,0.7,1.2,0.7,2.1v3.9h-1.7v-3.7c0-0.5-0.1-0.9-0.4-1.2c-0.3-0.3-0.6-0.4-1.1-0.4
		c-0.5,0-0.8,0.1-1.1,0.4c-0.3,0.3-0.4,0.7-0.4,1.2v3.7h-1.7v-6.6h1.7v0.8c0.2-0.3,0.5-0.5,0.9-0.7c0.3-0.2,0.7-0.2,1.1-0.2
		C127.2,115.7,127.8,115.9,128.3,116.4z"/>
	<path fill="#363636" d="M131.7,122.2c-0.4-0.2-0.8-0.5-1-0.8s-0.4-0.7-0.4-1.1h1.7c0,0.3,0.2,0.5,0.4,0.6c0.2,0.2,0.5,0.3,0.8,0.3
		c0.3,0,0.6-0.1,0.8-0.2c0.2-0.1,0.3-0.3,0.3-0.5c0-0.2-0.1-0.4-0.3-0.5c-0.2-0.1-0.6-0.2-1-0.4c-0.5-0.1-0.9-0.2-1.2-0.4
		c-0.3-0.1-0.6-0.3-0.8-0.6c-0.2-0.3-0.3-0.6-0.3-1.1c0-0.4,0.1-0.7,0.3-1c0.2-0.3,0.5-0.5,0.9-0.7s0.9-0.3,1.4-0.3
		c0.8,0,1.4,0.2,1.9,0.6c0.5,0.4,0.7,0.9,0.8,1.6h-1.6c0-0.3-0.1-0.5-0.3-0.6c-0.2-0.2-0.5-0.2-0.8-0.2c-0.3,0-0.5,0.1-0.7,0.2
		s-0.2,0.3-0.2,0.5c0,0.2,0.1,0.4,0.3,0.5c0.2,0.1,0.6,0.2,1,0.4c0.5,0.1,0.9,0.2,1.2,0.4s0.6,0.3,0.8,0.6c0.2,0.3,0.3,0.6,0.4,1.1
		c0,0.4-0.1,0.7-0.3,1c-0.2,0.3-0.5,0.5-0.9,0.7s-0.9,0.3-1.4,0.3C132.6,122.5,132.1,122.4,131.7,122.2z"/>
</g>
<g id="FuK9Pt_00000121263912302060290720000012451335485806963903_">
	<path fill="#363636" d="M102.1,57.9c0.6-1.1,1.3-2.2,1.9-3.4c1.3-2.6,2.1-5.3,2.5-8.2c0.1-1,0.1-2,0.2-3c0-0.4,0.1-0.9,0.6-1
		c0.4-0.1,0.8,0,1,0.3c0.1,0.2,0.2,0.5,0.2,0.8c-0.1,3.5-0.7,6.8-2,10.1c-0.8,2-1.8,3.8-3.1,5.5c0.3,0.2,0.5,0.5,0.8,0.7
		c2.8,2.4,5.3,5,7.7,7.8c0.2,0.3,0.4,0.3,0.8,0.2c1.7-0.8,3.6-1.3,5.5-1.6c0.5-0.1,1,0.2,1.1,0.7c0.1,0.5-0.1,0.9-0.7,1.1
		c-1.2,0.3-2.5,0.6-3.8,0.9c-0.5,0.1-0.9,0.3-1.3,0.5c0.7,1.2,1.4,2.3,2.1,3.4c0.5,1,0.8,2,0.8,3.1c0,1-0.2,1.3-1.1,1.7
		c-10.9,4.3-21.8,8.6-32.7,13c-0.1,0.1-0.3,0.1-0.4,0.2c-0.4,0.2-0.8,0.2-1.1-0.2c-0.3-0.3-0.3-0.7-0.1-1.1c1-2.5,2-4.9,2.9-7.4
		c3.4-8.6,6.9-17.3,10.3-26c0.3-0.7,0.8-0.8,1.4-0.9c1.2,0,2.3,0.3,3.3,0.9C99.9,56.5,100.9,57.2,102.1,57.9z M94.8,83.7
		c0.4-0.2,0.8-0.4,1.3-0.5c0.5-0.2,0.8-0.4,1.1-0.9c2.4-3.8,3.3-8,2.9-12.5c-0.4-4.3-2.6-7.8-5-11.3c-0.5,1.2-0.9,2.3-1.4,3.5
		c0,0.1,0.1,0.4,0.2,0.5c1.2,1.3,2.2,2.8,3,4.3c0.3,0.6,0.2,1.1-0.2,1.4c-0.5,0.3-1,0.1-1.3-0.5c-0.5-0.8-0.9-1.6-1.5-2.4
		c-0.3-0.4-0.6-0.8-1-1.3c-0.5,1.3-1,2.4-1.4,3.6c0,0.1,0,0.3,0.1,0.4c1.1,1.3,2,2.8,2.7,4.4c1.1,2.7,1.5,5.5,1.1,8.4
		C95.2,81.8,94.9,82.7,94.8,83.7z M110.6,68.7c-2.6-3-5.3-5.7-8.3-8.2c-0.6,0.5-1,0.6-1.3,0.3c-0.5-0.4-0.4-0.9-0.1-1.4
		c-1.3-1.1-3.5-2.3-4.4-2.4c2.5,5.9,13.2,16.2,18.1,18c-0.5-1.8-1.6-3.3-2.8-4.8c-0.4,0.2-0.7,0.5-1.1,0.7c-0.5,0.3-1.1,0.2-1.3-0.2
		c-0.3-0.4-0.2-1,0.4-1.3C110,69.1,110.3,68.9,110.6,68.7z M89.2,85.9c0.8-0.3,1.4-0.6,2.1-0.8c0.8-0.2,1.3-0.7,1.5-1.5
		c0-0.1,0-0.1,0.1-0.2c1.1-3.6,1-7.1-0.5-10.5c-0.5-1.1-1-2.1-1.8-3c-0.9,2.3-1.8,4.5-2.7,6.8c-0.1,0.1,0,0.3,0.1,0.5
		c0.4,0.9,0.8,1.8,1.1,2.7C89.7,81.8,89.7,83.8,89.2,85.9z M99.7,81.7c1-0.4,1.9-0.9,2.9-1.1c1.6-0.4,2.6-1.4,3.1-2.9
		c0.6-1.7,1.1-3.3,1.3-5.1c0-0.2-0.1-0.5-0.2-0.6c-1.5-1.4-2.9-2.8-4.4-4.1c-0.3-0.3-0.6-0.6-0.9-1c0,0-0.1,0-0.1,0.1
		C102.5,72.1,101.9,77,99.7,81.7z M83.3,88.2c1.3-0.5,2.5-1,3.6-1.4c0.1-0.1,0.3-0.3,0.3-0.4c0.6-1.6,0.7-3.2,0.5-4.9
		c-0.1-0.8-0.4-1.6-0.6-2.4c-0.1,0-0.1,0-0.2,0C85.7,82.1,84.5,85.1,83.3,88.2z M107.3,78.7c1.9-0.7,3.8-1.5,5.7-2.3
		c-1.4-0.9-2.9-1.9-4.2-2.7C108.3,75.3,107.8,77,107.3,78.7z"/>
	<path fill="#363636" d="M98.9,51.5c-1.5,0-2.9-1.3-3-2.8c0-1.6,1.2-3,2.8-3c1.6-0.1,3,1.2,3,2.9C101.8,50.1,100.5,51.4,98.9,51.5z
		 M99.9,48.6c0-0.6-0.5-1.1-1.1-1.1c-0.6,0-1.1,0.5-1.1,1.1c0,0.6,0.5,1.1,1.1,1.2C99.4,49.7,99.9,49.2,99.9,48.6z"/>
	<path fill="#363636" d="M123.5,64.5c-1.6-0.1-2.9-1.4-2.8-3c0.1-1.7,1.4-2.9,3-2.9c1.6,0.1,2.9,1.4,2.8,3
		C126.4,63.3,125.1,64.6,123.5,64.5z M124.7,61.7c0-0.6-0.5-1.1-1.1-1.1c-0.6,0-1.1,0.5-1.1,1c0,0.6,0.5,1.2,1.1,1.2
		C124.1,62.8,124.7,62.2,124.7,61.7z"/>
	<path fill="#363636" d="M117.4,42.1c1.7,0.1,2.9,1.5,2.8,3c-0.1,1.7-1.5,2.9-3.1,2.8c-1.6-0.1-2.9-1.5-2.8-3
		C114.4,43.2,115.8,42,117.4,42.1z M117.3,43.9c-0.6,0-1.1,0.5-1.1,1.1c0,0.6,0.5,1.1,1.1,1.1c0.6,0,1.1-0.5,1.1-1.1
		C118.4,44.3,117.9,43.9,117.3,43.9z"/>
	<path fill="#363636" d="M125,51.7c0.5,0,0.9,0.3,0.9,0.8c0.1,0.5-0.2,0.9-0.7,1c-1,0.2-2,0.4-3,0.7c-1.7,0.5-3.3,1.3-4.8,2.3
		c-0.3,0.2-0.6,0.4-1,0.2c-0.6-0.3-0.7-1.1-0.2-1.5c2.6-1.8,5.5-2.9,8.6-3.3C125,51.7,125,51.7,125,51.7z"/>
	<path fill="#363636" d="M112.1,57.8c0.7,0.1,1.7-0.1,1.7,1c0,0.6-0.4,0.8-1.8,0.9c0,0.2,0,0.5,0,0.7c0,0.6-0.4,1-0.9,1
		c-0.5,0-0.9-0.4-0.9-1c0-0.2,0-0.4,0-0.7c-0.7-0.1-1.8,0.2-1.7-1c0-1,1-0.8,1.7-0.9c0.1-0.7-0.2-1.7,0.9-1.7
		C112.3,56,112.1,57,112.1,57.8z"/>
	<path fill="#363636" d="M122,82.5c1.4,0.1,1.8,0.3,1.8,1c0,0.6-0.3,0.8-1.8,0.9c0,0.2,0,0.4,0,0.6c0,0.7-0.4,1.1-0.9,1.1
		c-0.5,0-0.9-0.4-0.9-1.1c0-0.2,0-0.4,0-0.6c-0.7-0.1-1.8,0.1-1.8-1c0-1.1,1-0.9,1.8-0.9c0-0.3,0-0.6,0-0.8c0-0.6,0.4-0.9,0.9-0.9
		c0.5,0,0.9,0.4,0.9,1C122,82,122,82.2,122,82.5z"/>
	<path fill="#363636" d="M89.6,48.3c0.7,0.1,1.7-0.2,1.7,0.9c0,1.1-1,0.8-1.7,0.9c-0.1,0.7,0.2,1.8-0.9,1.7c-1.1,0-0.8-1-0.9-1.7
		c-0.7-0.1-1.8,0.2-1.7-1c0-1.1,1-0.8,1.7-0.9c0.1-0.7-0.2-1.7,0.9-1.7C89.8,46.6,89.5,47.6,89.6,48.3z"/>
	<path fill="#363636" d="M93.2,43.4c0.5,0,0.9,0.4,0.9,0.9c0,0.5-0.4,0.9-0.9,0.9c-0.5,0-0.9-0.4-0.9-0.9
		C92.3,43.8,92.7,43.4,93.2,43.4z"/>
	<path fill="#363636" d="M112.1,49.7c0.5,0,0.9,0.4,0.9,0.9c0,0.5-0.4,0.9-0.9,0.9c-0.5,0-0.9-0.4-0.9-0.9
		C111.2,50.1,111.7,49.7,112.1,49.7z"/>
	<path fill="#363636" d="M126.1,78.1c0,0.5-0.5,0.9-0.9,0.8c-0.5,0-0.9-0.5-0.8-0.9c0-0.5,0.5-0.9,0.9-0.8
		C125.7,77.2,126.1,77.6,126.1,78.1z"/>
	<path fill="#363636" d="M129.2,52.9c0,0.5-0.4,0.9-0.9,0.9c-0.5,0-0.9-0.5-0.9-0.9c0-0.5,0.4-0.9,0.9-0.9
		C128.8,52,129.2,52.4,129.2,52.9z"/>
	<path fill="#363636" d="M122,70c0.5,0,0.9,0.4,0.9,0.9c0,0.4-0.5,0.9-0.9,0.9c-0.5,0-0.9-0.4-0.9-0.9C121.1,70.4,121.5,70,122,70z"
		/>
	<path fill="#363636" d="M98.1,70.6c0,0.5-0.5,0.9-0.9,0.9c-0.5,0-0.9-0.5-0.9-0.9c0-0.5,0.4-0.9,0.9-0.9
		C97.7,69.7,98.2,70.2,98.1,70.6z"/>
</g>
<g id="TiFBKh_00000154393695168156034780000008407548120215966623_">
	<g>
		<path fill="#363636" d="M238.8,46.8c0-0.4,0.1-0.6,0.1-0.9c0.3-1.9,1.5-3,3.4-3c1.8,0,3.6,0,5.4,0c0.3,0,0.5,0,0.9,0
			c0-1.1,0-2.1,0-3.2c0-0.4,0-0.8,0-1.2c0.1-0.6,0.5-1.1,1.1-1.1c0.6,0,1,0.4,1,1.1c0,1.2,0,2.4,0,3.6c0,0.2,0,0.4,0,0.7
			c4.3,0,8.6,0,13,0c0-1.1,0-2.1,0-3.2c0-0.4,0-0.7,0-1.1c0.1-0.7,0.5-1.1,1.1-1.1c0.6,0,1,0.4,1.1,1.1c0,1.1,0,2.2,0,3.4
			c0,0.3,0,0.6,0,0.9c1.2,0,2.3,0,3.5,0c0.8,0,1.5,0,2.3,0c2.7,0,3.7,1,4.1,3.7c0.2-0.1,0.3-0.2,0.4-0.4c0.8-0.8,1.5-1.5,2.3-2.3
			c1.2-1.2,2.8-1.3,4.3-1c1,0.2,1.6,1,1.6,2.1c0,7.6,0,15.1,0,22.7c0,1.3-0.9,2.1-2.2,2.2c-1.7,0.1-3.2-0.3-4.3-1.7
			c-0.6-0.7-1.3-1.4-2-2.1c-0.3,0.8-0.4,1.6-0.8,2.2c-0.6,1.1-1.7,1.5-3,1.5c-5.5,0-11.1,0-16.6,0c-4.2,0-8.4,0-12.6,0
			c-2.8,0-3.8-0.9-4.1-3.7c-0.2,0.1-0.3,0.2-0.4,0.4c-0.7,0.7-1.5,1.5-2.2,2.2c-1.2,1.3-2.8,1.3-4.3,1c-1.1-0.2-1.6-1.1-1.6-2.3
			c0-6,0-12,0-18c0-1.4,0-2.8,0-4.2c0-1.5,0.9-2.3,2.4-2.4c1.7-0.1,3,0.4,4.1,1.7C237.3,45.3,238,46,238.8,46.8z M257.3,67.8
			c4.9,0,9.8,0,14.7,0c1.2,0,1.6-0.3,1.6-1.6c0-6.5,0-13.1,0-19.6c0-1.2-0.3-1.6-1.6-1.6c-9.8,0-19.6,0-29.3,0
			c-1.3,0-1.6,0.3-1.6,1.6c0,6.5,0,13,0,19.5c0,1.3,0.3,1.6,1.6,1.6C247.6,67.8,252.4,67.8,257.3,67.8z M232.5,45.2
			c0,7.6,0,15.1,0,22.6c1.5,0.2,1.6,0.2,2.6-0.8c1.2-1.2,2.3-2.3,3.5-3.5c0.2-0.2,0.4-0.6,0.4-0.9c0-4,0-8,0-12.1
			c0-0.3-0.2-0.7-0.4-1c-1.1-1.2-2.3-2.3-3.4-3.4C234.3,45.2,233.5,44.9,232.5,45.2z M282.2,45.1c-1.6-0.1-1.6-0.1-2.7,0.9
			c-1.1,1.1-2.3,2.2-3.3,3.4c-0.2,0.2-0.4,0.6-0.4,0.9c0,4,0,8.1,0,12.1c0,0.3,0.2,0.7,0.4,0.9c1.1,1.2,2.4,2.3,3.5,3.5
			c0.7,0.8,1.5,0.9,2.5,0.7C282.2,60.2,282.2,52.7,282.2,45.1z"/>
		<path fill="#363636" d="M239.9,82.3c2.7-2.1,5.9-2.1,8.7-0.1c2.9-2,6.4-2,8.7,0.1c1.2-1.3,2.7-1.5,4.3-1.5c1.6,0,3.1,0.2,4.3,1.4
			c3-2,5.9-2,8.9,0c1.8-1.8,4.2-1.6,6.5-1.1c2,0.4,3.1,2.1,3.2,4.1c0,1.7,0,3.4,0,5.1c0,1-0.4,1.4-1.4,1.4c-2.6,0-5.3,0-7.9,0
			c-14.4,0-28.7,0-43.1,0c-1.5,0-1.8-0.3-1.8-1.8c0-1.5,0-3,0-4.5c0-2.6,1.9-4.5,4.5-4.5c0.2,0,0.4,0,0.7,0
			C237.1,80.7,238.7,80.9,239.9,82.3z M282.2,89.4c0-1.6,0-3.1,0-4.6c0-0.9-0.9-1.7-1.9-1.8c-0.8,0-1.7,0-2.6,0
			c-0.9,0-1.8,0.7-1.9,1.6c-0.1,1.6,0,3.2,0,4.8C277.9,89.4,280,89.4,282.2,89.4z M238.9,89.4c0-1.5,0-3,0-4.5c0-1.1-0.9-1.9-2-2
			c-0.8,0-1.7,0-2.6,0c-0.9,0.1-1.8,0.8-1.9,1.7c-0.1,1.5,0,3.1,0,4.7C234.6,89.4,236.7,89.4,238.9,89.4z M273.5,89.4
			c0-1.5,0-3,0-4.4c0-1.1-0.9-1.9-2-2c-0.8,0-1.6,0-2.4,0c-1,0-1.9,0.7-1.9,1.7c-0.1,1.6,0,3.1,0,4.8
			C269.3,89.4,271.4,89.4,273.5,89.4z M247.5,89.4c0-1.6,0.1-3.2,0-4.8c-0.1-0.9-0.9-1.6-1.9-1.7c-0.8,0-1.7-0.1-2.6,0
			c-1,0.1-1.9,0.8-1.9,1.8c-0.1,1.5,0,3.1,0,4.6C243.3,89.4,245.4,89.4,247.5,89.4z M249.8,89.4c2.2,0,4.3,0,6.4,0c0-1.5,0-3,0-4.4
			c0-1.1-0.8-1.9-2-1.9c-0.8,0-1.6,0-2.4,0c-1.1,0.1-1.9,0.8-2,1.9C249.7,86.4,249.8,87.9,249.8,89.4z M258.4,89.4
			c2.2,0,4.3,0,6.5,0c0-1.5,0.1-3,0-4.5c-0.1-1.1-0.9-1.9-2-1.9c-0.8,0-1.7,0-2.5,0c-1,0.1-1.9,0.9-1.9,1.9
			C258.4,86.4,258.4,87.9,258.4,89.4z"/>
		<path fill="#363636" d="M244.3,80.3c-2.1,0-3.8-1.8-3.7-3.9c0.1-2.1,1.8-3.7,3.8-3.7c2.1,0,3.8,1.8,3.7,3.9
			C248.1,78.6,246.4,80.3,244.3,80.3z M244.3,78.1c0.9,0,1.6-0.7,1.6-1.6c0-0.8-0.8-1.6-1.6-1.6c-0.8,0-1.6,0.8-1.6,1.6
			C242.7,77.4,243.5,78.1,244.3,78.1z"/>
		<path fill="#363636" d="M235.7,80.3c-2.1,0-3.8-1.7-3.8-3.7c0-2.1,1.7-3.8,3.9-3.8c2,0,3.7,1.7,3.7,3.7
			C239.5,78.5,237.8,80.2,235.7,80.3z M235.6,78.1c0.9,0,1.6-0.7,1.6-1.6c0-0.8-0.7-1.6-1.6-1.6c-0.9,0-1.6,0.7-1.6,1.6
			C234.1,77.3,234.8,78.1,235.6,78.1z"/>
		<path fill="#363636" d="M279,80.3c-2.1,0-3.8-1.7-3.8-3.7c0-2.1,1.7-3.8,3.8-3.9c2,0,3.7,1.7,3.8,3.7
			C282.8,78.5,281.1,80.2,279,80.3z M278.9,78.1c0.9,0,1.6-0.7,1.6-1.6c0-0.8-0.7-1.6-1.6-1.6c-0.9,0-1.6,0.7-1.6,1.6
			C277.4,77.3,278.1,78.1,278.9,78.1z"/>
		<path fill="#363636" d="M270.2,80.3c-2.1-0.1-3.7-1.8-3.7-3.9c0-2,1.8-3.7,3.9-3.7c2.1,0.1,3.8,1.8,3.7,3.8
			C274.1,78.6,272.3,80.3,270.2,80.3z M268.7,76.5c0,0.9,0.7,1.6,1.6,1.6c0.9,0,1.6-0.7,1.6-1.6c0-0.8-0.7-1.6-1.6-1.6
			C269.5,74.9,268.7,75.6,268.7,76.5z"/>
		<path fill="#363636" d="M256.8,76.5c0,2.1-1.7,3.8-3.7,3.8c-2.1,0-3.8-1.7-3.8-3.8c0-2.1,1.7-3.8,3.8-3.8
			C255.1,72.7,256.8,74.4,256.8,76.5z M254.6,76.5c0-0.9-0.7-1.6-1.6-1.6c-0.9,0-1.7,0.7-1.7,1.6c0,0.8,0.8,1.6,1.6,1.6
			C253.8,78.1,254.6,77.4,254.6,76.5z"/>
		<path fill="#363636" d="M261.6,80.3c-2.1,0-3.8-1.7-3.8-3.7c0-2.1,1.7-3.8,3.8-3.8c2.1,0,3.8,1.7,3.8,3.8
			C265.5,78.6,263.7,80.3,261.6,80.3z M263.2,76.5c0-0.9-0.7-1.6-1.5-1.6c-0.8,0-1.7,0.8-1.6,1.6c0,0.9,0.7,1.6,1.6,1.6
			C262.6,78.1,263.2,77.4,263.2,76.5z"/>
		<path fill="#363636" d="M257.3,46.2c4.5,0,9,0,13.5,0c1.3,0,1.6,0.3,1.6,1.6c0,5.8,0,11.5,0,17.3c0,1.5-0.2,1.7-1.7,1.7
			c-9,0-18,0-26.9,0c-1.4,0-1.7-0.3-1.7-1.7c0-5.7,0-11.5,0-17.2c0-1.5,0.2-1.7,1.7-1.7C248.4,46.2,252.8,46.2,257.3,46.2z
			 M270.3,64.5c0-5.4,0-10.8,0-16.1c-8.7,0-17.3,0-25.9,0c0,5.4,0,10.8,0,16.1C253,64.5,261.6,64.5,270.3,64.5z"/>
		<path fill="#363636" d="M235.7,54.3c0,1.6,0,3.1,0,4.7c0,0.8-0.5,1.3-1.1,1.3c-0.6,0-1-0.5-1.1-1.2c0-3.2,0-6.3,0-9.5
			c0-0.7,0.5-1.2,1.1-1.2c0.6,0,1,0.5,1,1.3C235.7,51.2,235.7,52.7,235.7,54.3z"/>
		<path fill="#363636" d="M235.7,63.5c0,0.5-0.5,1.1-1.1,1.1c-0.5,0-1.1-0.5-1.1-1.1c0-0.6,0.5-1.1,1.1-1.1
			C235.1,62.4,235.6,62.9,235.7,63.5z"/>
		<path fill="#363636" d="M279,54.3c0-1.5,0-3,0-4.5c0-0.9,0.4-1.4,1.1-1.4c0.7,0,1.1,0.5,1.1,1.4c0,3,0,6,0,9.1
			c0,0.4-0.2,0.9-0.5,1.2c-0.2,0.2-0.8,0.3-1.1,0.1c-0.3-0.2-0.6-0.7-0.6-1.1C278.9,57.4,279,55.9,279,54.3z"/>
		<path fill="#363636" d="M281.2,63.5c0,0.5-0.5,1.1-1.1,1.1c-0.5,0-1.1-0.5-1.1-1.1c0-0.5,0.6-1.1,1.1-1.1
			C280.6,62.4,281.2,62.9,281.2,63.5z"/>
		<path fill="#363636" d="M253.5,55.9c0,2-1.7,3.8-3.8,3.8c-2.1,0-3.8-1.8-3.8-3.8c0-2,1.7-3.8,3.8-3.8
			C251.8,52.1,253.5,53.8,253.5,55.9z M251.3,56c0-0.9-0.7-1.6-1.6-1.6c-0.9,0-1.6,0.7-1.6,1.6c0,0.8,0.8,1.6,1.6,1.6
			C250.6,57.5,251.3,56.8,251.3,56z"/>
		<path fill="#363636" d="M263.8,54.5c0.5-0.6,0.9-1,1.3-1.4c0.6-0.5,1.2-0.5,1.6-0.1c0.4,0.5,0.4,1.1-0.1,1.6
			c-0.2,0.2-0.4,0.4-0.6,0.6c-0.2,0.2-0.5,0.4-0.8,0.7c0.5,0.5,1,0.9,1.4,1.3c0.5,0.5,0.6,1.2,0.2,1.6c-0.5,0.5-1.1,0.5-1.7-0.1
			c-0.4-0.4-0.8-0.9-1.3-1.4c-0.5,0.6-0.8,1-1.3,1.4c-0.5,0.5-1.2,0.6-1.6,0.1c-0.5-0.5-0.5-1,0.1-1.6c0.4-0.4,0.9-0.8,1.5-1.3
			c-0.6-0.5-1-0.9-1.4-1.2c-0.6-0.6-0.7-1.3-0.1-1.8c0.4-0.4,1.1-0.3,1.7,0.3C263,53.6,263.4,54,263.8,54.5z"/>
		<path fill="#363636" d="M264.9,51.6c-1,0-2,0-3,0c-0.8,0-1.3-0.5-1.3-1.1c0-0.7,0.5-1.1,1.3-1.1c2,0,4.1,0,6.1,0
			c0.8,0,1.2,0.4,1.2,1.1c0,0.7-0.4,1.1-1.2,1.1C267,51.6,265.9,51.6,264.9,51.6C264.9,51.6,264.9,51.6,264.9,51.6z"/>
		<path fill="#363636" d="M250.8,62.4c-1,0-2,0-3,0c-0.8,0-1.3-0.4-1.3-1.1c0-0.6,0.5-1.1,1.2-1.1c2.1,0,4.1,0,6.2,0
			c0.7,0,1.2,0.5,1.2,1.1c0,0.6-0.5,1-1.2,1.1C252.9,62.4,251.8,62.4,250.8,62.4z"/>
		<path fill="#363636" d="M258.4,50.5c0,0.6-0.5,1.1-1,1.1c-0.6,0-1.1-0.5-1.1-1.1c0-0.6,0.5-1.1,1-1.1
			C257.9,49.4,258.4,49.9,258.4,50.5z"/>
		<path fill="#363636" d="M258.4,62.4c-0.6,0-1.1-0.5-1.1-1c0-0.6,0.5-1.1,1-1.1c0.6,0,1.1,0.5,1.1,1
			C259.5,61.8,259,62.4,258.4,62.4z"/>
	</g>
</g>
<g id="_x39_1os2T_00000156551985635508530430000008537936655663827846_">
	<path fill="#363636" d="M392.7,42c0.4-3,1.1-3.7,3.8-3.6c1.7,0.1,2.5,1.1,2.6,3.5c2.4,0,4.8,0,7.2,0c0-1.1,0-2.1,1-2.9
		c0.8-0.7,1.8-0.6,2.7-0.6c1.7,0.1,2.5,1.1,2.7,3.5c2.7,0,5.3,0,8.1,0c-0.1-1.1,0.1-2.2,1.1-3c0.8-0.6,1.8-0.5,2.8-0.5
		c1.6,0.1,2.3,1.2,2.5,3.6c0.2,0,0.4,0,0.6,0c1.6,0,3.2,0,4.7,0c2.5,0,4.5,2,4.5,4.5c0,13.8,0,27.7,0,41.5c0,2.5-2,4.4-4.4,4.4
		c-15.1,0-30.1,0-45.2,0c-2.5,0-4.5-2-4.5-4.5c0-13.8,0-27.6,0-41.5c0-2.5,2-4.5,4.5-4.5C389.1,41.9,390.9,42,392.7,42z M435.1,55.6
		c-16.8,0-33.6,0-50.4,0c0,0.2,0,0.3,0,0.4c0,9.4,0,18.7,0,28.1c0,1.9,1.1,2.9,3,2.9c11.4,0,22.7,0,34.1,0c0.2,0,0.5,0,0.8,0
		c0-0.3,0-0.6,0-0.8c0-2.3,0-4.6,0-6.9c0-3,1.9-4.8,4.8-4.8c2.3,0,4.7,0,7,0c0.2,0,0.5,0,0.8,0C435.1,68.1,435.1,61.8,435.1,55.6z
		 M408.1,43.8c0,0.9,0,1.8,0,2.6c0,0.6,0.4,0.9,0.9,0.9c0.3,0,0.7-0.1,1,0.1c0.3,0.2,0.7,0.5,0.7,0.8c0,0.3-0.3,0.8-0.6,0.9
		c-2.2,0.4-3.9-0.6-3.9-2.7c0-0.8,0-1.7,0-2.5c-4,0-7.8,0-11.7,0c0,0.9,0,1.8,0,2.7c0,0.5,0.3,0.8,0.9,0.9c0.3,0,0.7,0,1,0
		c0.5,0.1,0.8,0.4,0.8,0.9c0,0.5-0.3,0.8-0.8,0.9c-2.7,0.3-3.9-1.2-3.7-3.2c0-0.7,0-1.4,0-2.2c-1.9,0-3.8,0-5.6,0
		c-1.4,0-2.5,1.2-2.5,2.6c0,2.3,0,4.7,0,7c0,0.1,0,0.2,0.1,0.2c16.8,0,33.6,0,50.4,0c0-2.4,0-4.7,0-7c0-1.8-1.2-2.8-2.9-2.8
		c-3,0-6,0-9,0c-0.2,0-0.4,0-0.7,0c0,0.9,0,1.8,0,2.6c0,0.6,0.4,0.9,0.9,0.9c0.3,0,0.7-0.1,1,0.1c0.3,0.2,0.7,0.5,0.7,0.8
		c0,0.3-0.3,0.8-0.6,0.8c-2.3,0.4-3.9-0.8-3.9-2.8c0-0.8,0-1.6,0-2.5C416.5,43.8,412.3,43.8,408.1,43.8z M384.7,88
		c0,1.7,1.2,2.7,3.1,2.7c14.7,0,29.5,0,44.2,0c2.2,0,3.2-1,3.2-3.2c0-3,0-6.1,0-9.1c0-0.2,0-0.4,0-0.8c-0.3,0.2-0.4,0.4-0.6,0.6
		c-3.4,3.4-6.7,6.7-10.1,10.1c-0.4,0.4-0.9,0.6-1.5,0.6c-11.6,0-23.2,0-34.8,0C386.9,88.8,385.8,88.7,384.7,88z M433.7,76.2
		c-2.1,0-4.2,0-6.3,0c-1.9,0-3,1.1-3,3c0,1.9,0,3.8,0,5.8c0,0.2,0,0.4,0,0.5C427.5,82.4,430.5,79.3,433.7,76.2z M397.3,41.9
		c0-0.6,0.2-1.3-0.5-1.6c-0.5-0.2-1.3-0.2-1.8,0c-0.6,0.2-0.4,1-0.4,1.6C395.5,41.9,396.4,41.9,397.3,41.9z M425.2,41.9
		c0-0.6,0.2-1.3-0.4-1.6c-0.6-0.2-1.3-0.2-1.9,0c-0.6,0.2-0.4,1-0.4,1.5C423.4,41.9,424.3,41.9,425.2,41.9z M410.8,41.9
		c0-0.6,0.3-1.3-0.4-1.6c-0.5-0.2-1.3-0.2-1.8,0c-0.7,0.2-0.4,1-0.4,1.6C409,41.9,409.8,41.9,410.8,41.9z"/>
	<path fill="#363636" d="M415.3,79.9c0,0.8,0,1.5,0,2.2c0,0.9-0.3,1.3-0.9,1.3c-0.6,0-0.9-0.4-0.9-1.4c0-0.7,0-1.3,0-2
		c0,0,0-0.1-0.1-0.2c-0.8,0-1.7,0-2.6,0c0,1.2,0,2.4,0,3.5c0,0.3,0,0.5,0,0.8c0,0.7-0.4,1.1-0.9,1.1c-0.5,0-0.9-0.4-0.9-1.1
		c0-1.1,0-2.1,0-3.2c0-0.2,0.1-0.5,0-0.7c-0.1-0.2-0.3-0.4-0.4-0.4c-0.7,0-1.4,0-2.2,0c0,0.7,0,1.3,0,1.9c0,0.3,0,0.6-0.1,1
		c-0.1,0.5-0.4,0.7-0.9,0.7c-0.5,0-0.8-0.3-0.8-0.8c0-0.7-0.1-1.5,0-2.2c0-0.5-0.1-0.6-0.6-0.6c-0.9,0-1.2-0.3-1.2-1.2
		c0.1-1.6,0.1-3.2-1.5-4.2c-3.1-3.8-2.7-8.8,1.1-11.9c0.2-0.2,0.4-0.6,0.4-0.8c0.1-0.8,0-1.6,0-2.4c0-0.8,0.3-1.1,1-1.1
		c4.1,0,8.3,0,12.4,0c0.6,0,1,0.3,1,1c0,0.8,0,1.7,0,2.5c0,0.3,0.2,0.7,0.4,0.8c4.2,3.3,4.3,9.5,0.1,12.8c-0.4,0.3-0.6,0.7-0.6,1.2
		c0,0.7,0,1.3,0,2c0,1-0.2,1.2-1.2,1.3C415.7,79.8,415.6,79.8,415.3,79.9z M410.8,63.6c0,0.4,0,0.6,0,0.9c0,2.8,0,5.6,0,8.3
		c0,1.6,0,1.6,1.6,1.5c0.3,0,0.6-0.2,0.7-0.4c1.8-3.3,1.8-6.7,0-10c-0.1-0.2-0.4-0.4-0.6-0.4C412,63.6,411.5,63.6,410.8,63.6z
		 M409,74.4c0-3.6,0-7.2,0-10.8c-0.4,0-0.8,0.1-1.2,0c-0.7-0.1-1.1,0.2-1.4,0.9c-1.3,3.2-1.4,6.4,0.3,9.5c0.1,0.2,0.3,0.4,0.5,0.4
		C407.7,74.4,408.3,74.4,409,74.4z M415.1,74.6c0.5-0.2,1-0.2,1.3-0.4c3.5-2.6,3.5-7.6,0.1-10.2c-0.3-0.2-0.8-0.3-1.3-0.5
		C416.6,68.8,416.6,70,415.1,74.6z M404.8,63.5c-0.5,0.1-0.9,0.1-1.2,0.3c-3.6,2.9-3.5,7.7,0,10.3c0.3,0.2,0.7,0.2,1.1,0.3
		c0-0.1,0.1-0.1,0.1-0.2C403.1,70.8,403.3,67.2,404.8,63.5z M415.3,60.1c-3.6,0-7.2,0-10.8,0c0,0.3,0,0.6,0,0.9
		c-0.1,0.7,0.1,0.9,0.8,0.9c3.1,0,6.1,0,9.2,0c0.2,0,0.5,0,0.8,0C415.3,61.2,415.3,60.6,415.3,60.1z M404.5,78c3.6,0,7.1,0,10.7,0
		c0-0.6,0-1.1,0-1.7c-3.6,0-7.2,0-10.7,0C404.5,76.9,404.5,77.4,404.5,78z"/>
</g>
</svg>
