<?xml version="1.0" encoding="utf-8"?>
<!-- Generator: Adobe Illustrator 26.3.1, SVG Export Plug-In . SVG Version: 6.00 Build 0)  -->
<svg version="1.1" baseProfile="tiny" id="Layer_1" xmlns="http://www.w3.org/2000/svg" xmlns:xlink="http://www.w3.org/1999/xlink"
	 x="0px" y="0px" width="260px" height="258.2px" viewBox="0 0 260 258.2" overflow="visible" xml:space="preserve">
<path fill="#F2EDED" d="M243.3,258.2H16.7c-9.2,0-16.7-7.5-16.7-16.7V16.7C0,7.5,7.5,0,16.7,0h226.5c9.2,0,16.7,7.5,16.7,16.7v224.8
	C260,250.7,252.5,258.2,243.3,258.2z"/>
<g>
	<path fill="#363636" d="M41.5,193.4v0.9h-2.3v7.5h-1.1v-7.5h-2.3v-0.9H41.5z"/>
	<path fill="#363636" d="M47.4,195.4c0.4,0.2,0.7,0.5,0.9,1s0.3,0.9,0.3,1.5v3.9h-1.1v-3.7c0-0.7-0.2-1.2-0.5-1.5
		c-0.3-0.3-0.8-0.5-1.3-0.5c-0.6,0-1,0.2-1.4,0.5s-0.5,0.9-0.5,1.6v3.6h-1.1v-8.9h1.1v3.2c0.2-0.3,0.5-0.6,0.9-0.8
		c0.4-0.2,0.8-0.3,1.3-0.3C46.6,195.1,47,195.2,47.4,195.4z"/>
	<path fill="#363636" d="M56.5,198.9h-5.3c0,0.6,0.3,1.2,0.7,1.5c0.4,0.4,0.9,0.5,1.5,0.5c0.5,0,0.9-0.1,1.2-0.3
		c0.3-0.2,0.5-0.5,0.7-0.9h1.2c-0.2,0.6-0.5,1.1-1.1,1.5c-0.5,0.4-1.2,0.6-2,0.6c-0.6,0-1.2-0.1-1.7-0.4c-0.5-0.3-0.9-0.7-1.2-1.2
		c-0.3-0.5-0.4-1.1-0.4-1.8s0.1-1.3,0.4-1.8s0.7-0.9,1.1-1.2c0.5-0.3,1.1-0.4,1.7-0.4c0.6,0,1.2,0.1,1.7,0.4
		c0.5,0.3,0.9,0.6,1.1,1.1c0.3,0.5,0.4,1,0.4,1.6C56.5,198.5,56.5,198.7,56.5,198.9z M55.1,197c-0.2-0.3-0.4-0.5-0.8-0.7
		c-0.3-0.2-0.7-0.2-1-0.2c-0.6,0-1,0.2-1.4,0.5c-0.4,0.4-0.6,0.8-0.7,1.5h4.2C55.4,197.6,55.3,197.3,55.1,197z"/>
	<path fill="#363636" d="M63,195.4c0.4-0.2,0.8-0.3,1.3-0.3v1.1h-0.3c-1.2,0-1.8,0.7-1.8,2v3.6h-1.1v-6.6h1.1v1.1
		C62.4,195.9,62.7,195.6,63,195.4z"/>
	<path fill="#363636" d="M71.6,198.9h-5.3c0,0.6,0.3,1.2,0.7,1.5c0.4,0.4,0.9,0.5,1.5,0.5c0.5,0,0.9-0.1,1.2-0.3
		c0.3-0.2,0.5-0.5,0.7-0.9h1.2c-0.2,0.6-0.5,1.1-1.1,1.5c-0.5,0.4-1.2,0.6-2,0.6c-0.6,0-1.2-0.1-1.7-0.4c-0.5-0.3-0.9-0.7-1.2-1.2
		c-0.3-0.5-0.4-1.1-0.4-1.8s0.1-1.3,0.4-1.8s0.7-0.9,1.1-1.2c0.5-0.3,1.1-0.4,1.7-0.4c0.6,0,1.2,0.1,1.7,0.4
		c0.5,0.3,0.9,0.6,1.1,1.1c0.3,0.5,0.4,1,0.4,1.6C71.6,198.5,71.6,198.7,71.6,198.9z M70.2,197c-0.2-0.3-0.4-0.5-0.8-0.7
		c-0.3-0.2-0.7-0.2-1-0.2c-0.6,0-1,0.2-1.4,0.5c-0.4,0.4-0.6,0.8-0.7,1.5h4.2C70.5,197.6,70.4,197.3,70.2,197z"/>
	<path fill="#363636" d="M73,196.7c0.3-0.5,0.6-0.9,1.1-1.2s1-0.4,1.6-0.4c0.5,0,1,0.1,1.4,0.4c0.4,0.2,0.8,0.5,1,0.9v-3.5h1.1v8.9
		h-1.1v-1.2c-0.2,0.4-0.5,0.7-1,1c-0.4,0.3-0.9,0.4-1.5,0.4c-0.6,0-1.1-0.1-1.6-0.4s-0.9-0.7-1.1-1.2c-0.3-0.5-0.4-1.1-0.4-1.8
		C72.6,197.8,72.8,197.2,73,196.7z M77.9,197.2c-0.2-0.4-0.5-0.7-0.8-0.8c-0.3-0.2-0.7-0.3-1.1-0.3c-0.4,0-0.8,0.1-1.1,0.3
		c-0.3,0.2-0.6,0.5-0.8,0.8c-0.2,0.4-0.3,0.8-0.3,1.3c0,0.5,0.1,0.9,0.3,1.3c0.2,0.4,0.5,0.7,0.8,0.9c0.3,0.2,0.7,0.3,1.1,0.3
		c0.4,0,0.8-0.1,1.1-0.3c0.3-0.2,0.6-0.5,0.8-0.9c0.2-0.4,0.3-0.8,0.3-1.3S78.1,197.6,77.9,197.2z"/>
	<path fill="#363636" d="M87.1,198.9h-5.3c0,0.6,0.3,1.2,0.7,1.5c0.4,0.4,0.9,0.5,1.5,0.5c0.5,0,0.9-0.1,1.2-0.3
		c0.3-0.2,0.5-0.5,0.7-0.9H87c-0.2,0.6-0.5,1.1-1.1,1.5c-0.5,0.4-1.2,0.6-2,0.6c-0.6,0-1.2-0.1-1.7-0.4c-0.5-0.3-0.9-0.7-1.2-1.2
		c-0.3-0.5-0.4-1.1-0.4-1.8s0.1-1.3,0.4-1.8s0.7-0.9,1.1-1.2c0.5-0.3,1.1-0.4,1.7-0.4c0.6,0,1.2,0.1,1.7,0.4
		c0.5,0.3,0.9,0.6,1.1,1.1c0.3,0.5,0.4,1,0.4,1.6C87.2,198.5,87.1,198.7,87.1,198.9z M85.8,197c-0.2-0.3-0.4-0.5-0.8-0.7
		c-0.3-0.2-0.7-0.2-1-0.2c-0.6,0-1,0.2-1.4,0.5c-0.4,0.4-0.6,0.8-0.7,1.5H86C86,197.6,85.9,197.3,85.8,197z"/>
	<path fill="#363636" d="M89.6,201.7c-0.4-0.2-0.7-0.4-0.9-0.7c-0.2-0.3-0.4-0.7-0.4-1.1h1.1c0,0.3,0.2,0.6,0.5,0.8
		c0.3,0.2,0.6,0.3,1.1,0.3c0.4,0,0.7-0.1,1-0.3c0.2-0.2,0.4-0.4,0.4-0.7c0-0.3-0.1-0.5-0.4-0.6c-0.3-0.1-0.7-0.3-1.2-0.4
		c-0.5-0.1-0.9-0.3-1.2-0.4c-0.3-0.1-0.6-0.3-0.8-0.6c-0.2-0.3-0.3-0.6-0.3-1c0-0.3,0.1-0.6,0.3-0.9c0.2-0.3,0.5-0.5,0.9-0.7
		c0.4-0.2,0.8-0.2,1.3-0.2c0.7,0,1.3,0.2,1.8,0.6c0.4,0.4,0.7,0.9,0.7,1.5h-1.1c0-0.3-0.2-0.6-0.4-0.8s-0.6-0.3-1-0.3
		c-0.4,0-0.7,0.1-0.9,0.3c-0.2,0.2-0.3,0.4-0.3,0.7c0,0.2,0.1,0.4,0.2,0.5c0.1,0.1,0.3,0.3,0.5,0.3s0.5,0.2,0.9,0.3
		c0.5,0.1,0.9,0.3,1.2,0.4s0.5,0.3,0.8,0.6s0.3,0.6,0.3,1c0,0.4-0.1,0.7-0.3,1c-0.2,0.3-0.5,0.5-0.8,0.7c-0.4,0.2-0.8,0.2-1.3,0.2
		C90.4,201.9,90,201.8,89.6,201.7z"/>
	<path fill="#363636" d="M94.9,193.9c-0.1-0.1-0.2-0.3-0.2-0.5s0.1-0.4,0.2-0.5s0.3-0.2,0.5-0.2c0.2,0,0.4,0.1,0.5,0.2
		c0.1,0.1,0.2,0.3,0.2,0.5s-0.1,0.4-0.2,0.5c-0.1,0.1-0.3,0.2-0.5,0.2C95.2,194.2,95,194.1,94.9,193.9z M96,195.2v6.6h-1.1v-6.6H96z
		"/>
	<path fill="#363636" d="M102,195.5c0.4,0.2,0.7,0.6,1,0.9v-1.2h1.1v6.7c0,0.6-0.1,1.1-0.4,1.6c-0.3,0.5-0.6,0.8-1.1,1.1
		c-0.5,0.3-1,0.4-1.7,0.4c-0.9,0-1.6-0.2-2.2-0.6c-0.6-0.4-0.9-1-1-1.7h1.1c0.1,0.4,0.4,0.7,0.7,1s0.8,0.4,1.4,0.4
		c0.6,0,1.1-0.2,1.5-0.6c0.4-0.4,0.6-0.9,0.6-1.6v-1.4c-0.2,0.4-0.5,0.7-1,1c-0.4,0.3-0.9,0.4-1.5,0.4c-0.6,0-1.1-0.1-1.6-0.4
		s-0.9-0.7-1.1-1.2c-0.3-0.5-0.4-1.1-0.4-1.8c0-0.7,0.1-1.3,0.4-1.8s0.6-0.9,1.1-1.2s1-0.4,1.6-0.4
		C101.1,195.1,101.6,195.2,102,195.5z M102.7,197.2c-0.2-0.4-0.5-0.7-0.8-0.8c-0.3-0.2-0.7-0.3-1.1-0.3c-0.4,0-0.8,0.1-1.1,0.3
		c-0.3,0.2-0.6,0.5-0.8,0.8c-0.2,0.4-0.3,0.8-0.3,1.3c0,0.5,0.1,0.9,0.3,1.3c0.2,0.4,0.5,0.7,0.8,0.9c0.3,0.2,0.7,0.3,1.1,0.3
		c0.4,0,0.8-0.1,1.1-0.3c0.3-0.2,0.6-0.5,0.8-0.9c0.2-0.4,0.3-0.8,0.3-1.3S102.9,197.6,102.7,197.2z"/>
	<path fill="#363636" d="M111.1,195.8c0.5,0.5,0.7,1.2,0.7,2.1v3.9h-1.1v-3.7c0-0.7-0.2-1.2-0.5-1.5c-0.3-0.3-0.8-0.5-1.3-0.5
		c-0.6,0-1,0.2-1.4,0.5s-0.5,0.9-0.5,1.6v3.6h-1.1v-6.6h1.1v0.9c0.2-0.3,0.5-0.6,0.9-0.8s0.8-0.3,1.2-0.3
		C109.9,195.1,110.6,195.3,111.1,195.8z"/>
	<path fill="#363636" d="M119.6,198.9h-5.3c0,0.6,0.3,1.2,0.7,1.5c0.4,0.4,0.9,0.5,1.5,0.5c0.5,0,0.9-0.1,1.2-0.3
		c0.3-0.2,0.5-0.5,0.7-0.9h1.2c-0.2,0.6-0.5,1.1-1.1,1.5c-0.5,0.4-1.2,0.6-2,0.6c-0.6,0-1.2-0.1-1.7-0.4c-0.5-0.3-0.9-0.7-1.2-1.2
		c-0.3-0.5-0.4-1.1-0.4-1.8s0.1-1.3,0.4-1.8s0.7-0.9,1.1-1.2c0.5-0.3,1.1-0.4,1.7-0.4c0.6,0,1.2,0.1,1.7,0.4
		c0.5,0.3,0.9,0.6,1.1,1.1c0.3,0.5,0.4,1,0.4,1.6C119.6,198.5,119.6,198.7,119.6,198.9z M118.2,197c-0.2-0.3-0.4-0.5-0.8-0.7
		c-0.3-0.2-0.7-0.2-1-0.2c-0.6,0-1,0.2-1.4,0.5c-0.4,0.4-0.6,0.8-0.7,1.5h4.2C118.5,197.6,118.4,197.3,118.2,197z"/>
	<path fill="#363636" d="M121,196.7c0.3-0.5,0.6-0.9,1.1-1.2s1-0.4,1.6-0.4c0.5,0,1,0.1,1.4,0.4c0.4,0.2,0.8,0.5,1,0.9v-3.5h1.1v8.9
		h-1.1v-1.2c-0.2,0.4-0.5,0.7-1,1c-0.4,0.3-0.9,0.4-1.5,0.4c-0.6,0-1.1-0.1-1.6-0.4s-0.9-0.7-1.1-1.2c-0.3-0.5-0.4-1.1-0.4-1.8
		C120.6,197.8,120.8,197.2,121,196.7z M125.9,197.2c-0.2-0.4-0.5-0.7-0.8-0.8c-0.3-0.2-0.7-0.3-1.1-0.3c-0.4,0-0.8,0.1-1.1,0.3
		c-0.3,0.2-0.6,0.5-0.8,0.8c-0.2,0.4-0.3,0.8-0.3,1.3c0,0.5,0.1,0.9,0.3,1.3c0.2,0.4,0.5,0.7,0.8,0.9c0.3,0.2,0.7,0.3,1.1,0.3
		c0.4,0,0.8-0.1,1.1-0.3c0.3-0.2,0.6-0.5,0.8-0.9c0.2-0.4,0.3-0.8,0.3-1.3S126.1,197.6,125.9,197.2z"/>
	<path fill="#363636" d="M134.8,200.8l2-5.6h1.2l-2.6,6.6h-1.3l-2.6-6.6h1.2L134.8,200.8z"/>
	<path fill="#363636" d="M145.1,198.9h-5.3c0,0.6,0.3,1.2,0.7,1.5c0.4,0.4,0.9,0.5,1.5,0.5c0.5,0,0.9-0.1,1.2-0.3
		c0.3-0.2,0.5-0.5,0.7-0.9h1.2c-0.2,0.6-0.5,1.1-1.1,1.5c-0.5,0.4-1.2,0.6-2,0.6c-0.6,0-1.2-0.1-1.7-0.4c-0.5-0.3-0.9-0.7-1.2-1.2
		c-0.3-0.5-0.4-1.1-0.4-1.8s0.1-1.3,0.4-1.8c0.3-0.5,0.7-0.9,1.1-1.2c0.5-0.3,1.1-0.4,1.7-0.4c0.6,0,1.2,0.1,1.7,0.4
		c0.5,0.3,0.8,0.6,1.1,1.1c0.3,0.5,0.4,1,0.4,1.6C145.1,198.5,145.1,198.7,145.1,198.9z M143.7,197c-0.2-0.3-0.4-0.5-0.8-0.7
		c-0.3-0.2-0.7-0.2-1-0.2c-0.6,0-1,0.2-1.4,0.5c-0.4,0.4-0.6,0.8-0.7,1.5h4.2C144,197.6,143.9,197.3,143.7,197z"/>
	<path fill="#363636" d="M148.5,195.4c0.4-0.2,0.8-0.3,1.3-0.3v1.1h-0.3c-1.2,0-1.8,0.7-1.8,2v3.6h-1.1v-6.6h1.1v1.1
		C147.8,195.9,148.1,195.6,148.5,195.4z"/>
	<path fill="#363636" d="M152,201.7c-0.4-0.2-0.7-0.4-0.9-0.7c-0.2-0.3-0.4-0.7-0.4-1.1h1.1c0,0.3,0.2,0.6,0.5,0.8s0.6,0.3,1.1,0.3
		c0.4,0,0.7-0.1,1-0.3c0.2-0.2,0.4-0.4,0.4-0.7c0-0.3-0.1-0.5-0.4-0.6c-0.3-0.1-0.7-0.3-1.2-0.4c-0.5-0.1-0.9-0.3-1.2-0.4
		c-0.3-0.1-0.6-0.3-0.8-0.6c-0.2-0.3-0.3-0.6-0.3-1c0-0.3,0.1-0.6,0.3-0.9c0.2-0.3,0.5-0.5,0.9-0.7c0.4-0.2,0.8-0.2,1.3-0.2
		c0.7,0,1.3,0.2,1.8,0.6s0.7,0.9,0.7,1.5h-1.1c0-0.3-0.2-0.6-0.4-0.8s-0.6-0.3-1-0.3c-0.4,0-0.7,0.1-0.9,0.3
		c-0.2,0.2-0.3,0.4-0.3,0.7c0,0.2,0.1,0.4,0.2,0.5c0.1,0.1,0.3,0.3,0.5,0.3s0.5,0.2,0.9,0.3c0.5,0.1,0.9,0.3,1.2,0.4
		s0.5,0.3,0.8,0.6s0.3,0.6,0.3,1c0,0.4-0.1,0.7-0.3,1c-0.2,0.3-0.5,0.5-0.8,0.7c-0.4,0.2-0.8,0.2-1.3,0.2
		C152.8,201.9,152.4,201.8,152,201.7z"/>
	<path fill="#363636" d="M157.3,193.9c-0.1-0.1-0.2-0.3-0.2-0.5s0.1-0.4,0.2-0.5c0.1-0.1,0.3-0.2,0.5-0.2c0.2,0,0.4,0.1,0.5,0.2
		s0.2,0.3,0.2,0.5s-0.1,0.4-0.2,0.5c-0.1,0.1-0.3,0.2-0.5,0.2C157.6,194.2,157.5,194.1,157.3,193.9z M158.4,195.2v6.6h-1.1v-6.6
		H158.4z"/>
	<path fill="#363636" d="M161.4,201.5c-0.5-0.3-0.9-0.7-1.2-1.2c-0.3-0.5-0.4-1.1-0.4-1.8c0-0.7,0.1-1.3,0.4-1.8s0.7-0.9,1.2-1.2
		c0.5-0.3,1.1-0.4,1.7-0.4s1.2,0.1,1.7,0.4c0.5,0.3,0.9,0.7,1.2,1.2s0.4,1.1,0.4,1.8s-0.2,1.3-0.5,1.8c-0.3,0.5-0.7,0.9-1.2,1.2
		c-0.5,0.3-1.1,0.4-1.7,0.4C162.5,201.9,161.9,201.8,161.4,201.5z M164.2,200.7c0.3-0.2,0.6-0.5,0.8-0.8s0.3-0.8,0.3-1.3
		c0-0.5-0.1-1-0.3-1.3c-0.2-0.4-0.5-0.6-0.8-0.8c-0.3-0.2-0.7-0.3-1.1-0.3c-0.4,0-0.8,0.1-1.1,0.3c-0.3,0.2-0.6,0.5-0.8,0.8
		c-0.2,0.4-0.3,0.8-0.3,1.3c0,0.5,0.1,1,0.3,1.4c0.2,0.4,0.5,0.6,0.8,0.8s0.7,0.3,1.1,0.3C163.5,200.9,163.9,200.9,164.2,200.7z"/>
	<path fill="#363636" d="M173.1,195.8c0.5,0.5,0.7,1.2,0.7,2.1v3.9h-1.1v-3.7c0-0.7-0.2-1.2-0.5-1.5c-0.3-0.3-0.8-0.5-1.3-0.5
		c-0.6,0-1,0.2-1.4,0.5s-0.5,0.9-0.5,1.6v3.6h-1.1v-6.6h1.1v0.9c0.2-0.3,0.5-0.6,0.9-0.8s0.8-0.3,1.2-0.3
		C171.9,195.1,172.6,195.3,173.1,195.8z"/>
	<path fill="#363636" d="M178.3,194.1v-1h2.3v8.7h-1.1v-7.7H178.3z"/>
	<path fill="#363636" d="M184.7,198.9c0.6-0.5,1.1-1.1,1.5-1.6c0.4-0.6,0.6-1.1,0.6-1.7c0-0.5-0.1-0.9-0.4-1.2s-0.7-0.5-1.2-0.5
		c-0.5,0-1,0.2-1.3,0.5c-0.3,0.3-0.5,0.8-0.5,1.4h-1.1c0-0.9,0.3-1.6,0.8-2.1c0.5-0.5,1.2-0.7,2-0.7c0.8,0,1.5,0.2,2,0.7
		c0.5,0.5,0.7,1.1,0.7,1.9c0,0.7-0.2,1.3-0.6,1.9s-0.8,1.2-1.3,1.7s-1.1,1-1.9,1.7h4.1v0.9h-5.8v-0.8
		C183.3,200.1,184.1,199.4,184.7,198.9z"/>
	<path fill="#363636" d="M36.4,210.9c-0.1-0.1-0.2-0.3-0.2-0.5s0.1-0.4,0.2-0.5s0.3-0.2,0.5-0.2c0.2,0,0.4,0.1,0.5,0.2
		c0.1,0.1,0.2,0.3,0.2,0.5s-0.1,0.4-0.2,0.5c-0.1,0.1-0.3,0.2-0.5,0.2C36.7,211.2,36.5,211.1,36.4,210.9z M37.4,212.2v6.6h-1.1v-6.6
		H37.4z"/>
	<path fill="#363636" d="M44.4,212.8c0.5,0.5,0.7,1.2,0.7,2.1v3.9h-1.1v-3.7c0-0.7-0.2-1.2-0.5-1.5c-0.3-0.3-0.8-0.5-1.3-0.5
		c-0.6,0-1,0.2-1.4,0.5s-0.5,0.9-0.5,1.6v3.6h-1.1v-6.6h1.1v0.9c0.2-0.3,0.5-0.6,0.9-0.8s0.8-0.3,1.2-0.3
		C43.3,212.1,43.9,212.3,44.4,212.8z"/>
	<path fill="#363636" d="M46.9,213.7c0.3-0.5,0.6-0.9,1.1-1.2c0.5-0.3,1-0.4,1.7-0.4c0.8,0,1.5,0.2,2,0.6c0.5,0.4,0.9,0.9,1,1.6
		h-1.2c-0.1-0.4-0.3-0.7-0.7-0.9c-0.3-0.2-0.7-0.3-1.2-0.3c-0.6,0-1.1,0.2-1.5,0.6c-0.4,0.4-0.6,1-0.6,1.8c0,0.8,0.2,1.4,0.6,1.8
		c0.4,0.4,0.9,0.6,1.5,0.6c0.5,0,0.9-0.1,1.2-0.3c0.3-0.2,0.5-0.5,0.7-1h1.2c-0.2,0.7-0.5,1.2-1.1,1.6c-0.5,0.4-1.2,0.6-2,0.6
		c-0.6,0-1.2-0.1-1.7-0.4c-0.5-0.3-0.9-0.7-1.1-1.2s-0.4-1.1-0.4-1.8C46.5,214.8,46.7,214.2,46.9,213.7z"/>
	<path fill="#363636" d="M56.1,212.4c0.4-0.2,0.8-0.3,1.3-0.3v1.1h-0.3c-1.2,0-1.8,0.7-1.8,2v3.6h-1.1v-6.6h1.1v1.1
		C55.5,212.9,55.8,212.6,56.1,212.4z"/>
	<path fill="#363636" d="M64.7,215.9h-5.3c0,0.6,0.3,1.2,0.7,1.5c0.4,0.4,0.9,0.5,1.5,0.5c0.5,0,0.9-0.1,1.2-0.3
		c0.3-0.2,0.5-0.5,0.7-0.9h1.2c-0.2,0.6-0.5,1.1-1.1,1.5c-0.5,0.4-1.2,0.6-2,0.6c-0.6,0-1.2-0.1-1.7-0.4c-0.5-0.3-0.9-0.7-1.2-1.2
		c-0.3-0.5-0.4-1.1-0.4-1.8s0.1-1.3,0.4-1.8s0.7-0.9,1.1-1.2c0.5-0.3,1.1-0.4,1.7-0.4c0.6,0,1.2,0.1,1.7,0.4
		c0.5,0.3,0.9,0.6,1.1,1.1c0.3,0.5,0.4,1,0.4,1.6C64.7,215.5,64.7,215.7,64.7,215.9z M63.3,214c-0.2-0.3-0.4-0.5-0.8-0.7
		c-0.3-0.2-0.7-0.2-1-0.2c-0.6,0-1,0.2-1.4,0.5c-0.4,0.4-0.6,0.8-0.7,1.5h4.2C63.6,214.6,63.5,214.3,63.3,214z"/>
	<path fill="#363636" d="M66.1,213.7c0.3-0.5,0.6-0.9,1.1-1.2s1-0.4,1.6-0.4c0.6,0,1.1,0.1,1.5,0.4c0.4,0.2,0.7,0.6,0.9,0.9v-1.2
		h1.1v6.6h-1.1v-1.2c-0.2,0.4-0.5,0.7-1,1c-0.4,0.3-0.9,0.4-1.5,0.4c-0.6,0-1.1-0.1-1.6-0.4c-0.5-0.3-0.8-0.7-1.1-1.2
		c-0.3-0.5-0.4-1.1-0.4-1.8C65.7,214.8,65.9,214.2,66.1,213.7z M71,214.2c-0.2-0.4-0.5-0.7-0.8-0.8c-0.3-0.2-0.7-0.3-1.1-0.3
		c-0.4,0-0.8,0.1-1.1,0.3c-0.3,0.2-0.6,0.5-0.8,0.8c-0.2,0.4-0.3,0.8-0.3,1.3c0,0.5,0.1,0.9,0.3,1.3c0.2,0.4,0.5,0.7,0.8,0.9
		c0.3,0.2,0.7,0.3,1.1,0.3c0.4,0,0.8-0.1,1.1-0.3c0.3-0.2,0.6-0.5,0.8-0.9c0.2-0.4,0.3-0.8,0.3-1.3S71.2,214.6,71,214.2z"/>
	<path fill="#363636" d="M75.2,218.7c-0.4-0.2-0.7-0.4-0.9-0.7c-0.2-0.3-0.4-0.7-0.4-1.1H75c0,0.3,0.2,0.6,0.5,0.8
		c0.3,0.2,0.6,0.3,1.1,0.3c0.4,0,0.7-0.1,1-0.3c0.2-0.2,0.4-0.4,0.4-0.7c0-0.3-0.1-0.5-0.4-0.6c-0.3-0.1-0.7-0.3-1.2-0.4
		c-0.5-0.1-0.9-0.3-1.2-0.4c-0.3-0.1-0.6-0.3-0.8-0.6c-0.2-0.3-0.3-0.6-0.3-1c0-0.3,0.1-0.6,0.3-0.9c0.2-0.3,0.5-0.5,0.9-0.7
		c0.4-0.2,0.8-0.2,1.3-0.2c0.7,0,1.3,0.2,1.8,0.6c0.4,0.4,0.7,0.9,0.7,1.5h-1.1c0-0.3-0.2-0.6-0.4-0.8s-0.6-0.3-1-0.3
		c-0.4,0-0.7,0.1-0.9,0.3c-0.2,0.2-0.3,0.4-0.3,0.7c0,0.2,0.1,0.4,0.2,0.5c0.1,0.1,0.3,0.3,0.5,0.3s0.5,0.2,0.9,0.3
		c0.5,0.1,0.9,0.3,1.2,0.4s0.5,0.3,0.8,0.6s0.3,0.6,0.3,1c0,0.4-0.1,0.7-0.3,1c-0.2,0.3-0.5,0.5-0.8,0.7c-0.4,0.2-0.8,0.2-1.3,0.2
		C76.1,218.9,75.6,218.8,75.2,218.7z"/>
	<path fill="#363636" d="M86.5,215.9h-5.3c0,0.6,0.3,1.2,0.7,1.5c0.4,0.4,0.9,0.5,1.5,0.5c0.5,0,0.9-0.1,1.2-0.3
		c0.3-0.2,0.5-0.5,0.7-0.9h1.2c-0.2,0.6-0.5,1.1-1.1,1.5c-0.5,0.4-1.2,0.6-2,0.6c-0.6,0-1.2-0.1-1.7-0.4c-0.5-0.3-0.9-0.7-1.2-1.2
		c-0.3-0.5-0.4-1.1-0.4-1.8s0.1-1.3,0.4-1.8s0.7-0.9,1.1-1.2c0.5-0.3,1.1-0.4,1.7-0.4c0.6,0,1.2,0.1,1.7,0.4
		c0.5,0.3,0.9,0.6,1.1,1.1c0.3,0.5,0.4,1,0.4,1.6C86.5,215.5,86.5,215.7,86.5,215.9z M85.1,214c-0.2-0.3-0.4-0.5-0.8-0.7
		c-0.3-0.2-0.7-0.2-1-0.2c-0.6,0-1,0.2-1.4,0.5c-0.4,0.4-0.6,0.8-0.7,1.5h4.2C85.4,214.6,85.3,214.3,85.1,214z"/>
	<path fill="#363636" d="M88,213.7c0.3-0.5,0.6-0.9,1.1-1.2s1-0.4,1.6-0.4c0.5,0,1,0.1,1.4,0.4c0.4,0.2,0.8,0.5,1,0.9v-3.5h1.1v8.9
		h-1.1v-1.2c-0.2,0.4-0.5,0.7-1,1c-0.4,0.3-0.9,0.4-1.5,0.4c-0.6,0-1.1-0.1-1.6-0.4s-0.9-0.7-1.1-1.2c-0.3-0.5-0.4-1.1-0.4-1.8
		C87.6,214.8,87.7,214.2,88,213.7z M92.8,214.2c-0.2-0.4-0.5-0.7-0.8-0.8c-0.3-0.2-0.7-0.3-1.1-0.3c-0.4,0-0.8,0.1-1.1,0.3
		c-0.3,0.2-0.6,0.5-0.8,0.8c-0.2,0.4-0.3,0.8-0.3,1.3c0,0.5,0.1,0.9,0.3,1.3c0.2,0.4,0.5,0.7,0.8,0.9c0.3,0.2,0.7,0.3,1.1,0.3
		c0.4,0,0.8-0.1,1.1-0.3c0.3-0.2,0.6-0.5,0.8-0.9c0.2-0.4,0.3-0.8,0.3-1.3S93,214.6,92.8,214.2z"/>
	<path fill="#363636" d="M101.2,212.4c0.4-0.2,0.8-0.3,1.3-0.3v1.1h-0.3c-1.2,0-1.8,0.7-1.8,2v3.6h-1.1v-6.6h1.1v1.1
		C100.6,212.9,100.8,212.6,101.2,212.4z"/>
	<path fill="#363636" d="M109.7,215.9h-5.3c0,0.6,0.3,1.2,0.7,1.5c0.4,0.4,0.9,0.5,1.5,0.5c0.5,0,0.9-0.1,1.2-0.3
		c0.3-0.2,0.5-0.5,0.7-0.9h1.2c-0.2,0.6-0.5,1.1-1.1,1.5c-0.5,0.4-1.2,0.6-2,0.6c-0.6,0-1.2-0.1-1.7-0.4c-0.5-0.3-0.9-0.7-1.2-1.2
		c-0.3-0.5-0.4-1.1-0.4-1.8s0.1-1.3,0.4-1.8s0.7-0.9,1.1-1.2c0.5-0.3,1.1-0.4,1.7-0.4c0.6,0,1.2,0.1,1.7,0.4
		c0.5,0.3,0.9,0.6,1.1,1.1c0.3,0.5,0.4,1,0.4,1.6C109.8,215.5,109.7,215.7,109.7,215.9z M108.4,214c-0.2-0.3-0.4-0.5-0.8-0.7
		c-0.3-0.2-0.7-0.2-1-0.2c-0.6,0-1,0.2-1.4,0.5c-0.4,0.4-0.6,0.8-0.7,1.5h4.2C108.6,214.6,108.5,214.3,108.4,214z"/>
	<path fill="#363636" d="M113.6,217.8l2-5.6h1.2l-2.6,6.6H113l-2.6-6.6h1.2L113.6,217.8z"/>
	<path fill="#363636" d="M123.9,215.9h-5.3c0,0.6,0.3,1.2,0.7,1.5c0.4,0.4,0.9,0.5,1.5,0.5c0.5,0,0.9-0.1,1.2-0.3
		c0.3-0.2,0.5-0.5,0.7-0.9h1.2c-0.2,0.6-0.5,1.1-1.1,1.5c-0.5,0.4-1.2,0.6-2,0.6c-0.6,0-1.2-0.1-1.7-0.4c-0.5-0.3-0.9-0.7-1.2-1.2
		c-0.3-0.5-0.4-1.1-0.4-1.8s0.1-1.3,0.4-1.8s0.7-0.9,1.1-1.2c0.5-0.3,1.1-0.4,1.7-0.4c0.6,0,1.2,0.1,1.7,0.4
		c0.5,0.3,0.9,0.6,1.1,1.1c0.3,0.5,0.4,1,0.4,1.6C123.9,215.5,123.9,215.7,123.9,215.9z M122.5,214c-0.2-0.3-0.4-0.5-0.8-0.7
		c-0.3-0.2-0.7-0.2-1-0.2c-0.6,0-1,0.2-1.4,0.5c-0.4,0.4-0.6,0.8-0.7,1.5h4.2C122.8,214.6,122.7,214.3,122.5,214z"/>
	<path fill="#363636" d="M130.5,212.8c0.5,0.5,0.7,1.2,0.7,2.1v3.9h-1.1v-3.7c0-0.7-0.2-1.2-0.5-1.5c-0.3-0.3-0.8-0.5-1.3-0.5
		c-0.6,0-1,0.2-1.4,0.5s-0.5,0.9-0.5,1.6v3.6h-1.1v-6.6h1.1v0.9c0.2-0.3,0.5-0.6,0.9-0.8s0.8-0.3,1.2-0.3
		C129.4,212.1,130,212.3,130.5,212.8z"/>
	<path fill="#363636" d="M138.9,212.2v6.6h-1.1v-1c-0.2,0.3-0.5,0.6-0.9,0.8c-0.4,0.2-0.8,0.3-1.2,0.3c-0.5,0-1-0.1-1.4-0.3
		c-0.4-0.2-0.7-0.5-1-1c-0.2-0.4-0.4-0.9-0.4-1.5v-3.9h1.1v3.7c0,0.6,0.2,1.1,0.5,1.5s0.8,0.5,1.3,0.5c0.6,0,1-0.2,1.4-0.5
		c0.3-0.4,0.5-0.9,0.5-1.6v-3.6H138.9z"/>
	<path fill="#363636" d="M146.7,215.9h-5.3c0,0.6,0.3,1.2,0.7,1.5c0.4,0.4,0.9,0.5,1.5,0.5c0.5,0,0.9-0.1,1.2-0.3
		c0.3-0.2,0.5-0.5,0.7-0.9h1.2c-0.2,0.6-0.5,1.1-1.1,1.5c-0.5,0.4-1.2,0.6-2,0.6c-0.6,0-1.2-0.1-1.7-0.4c-0.5-0.3-0.9-0.7-1.2-1.2
		c-0.3-0.5-0.4-1.1-0.4-1.8s0.1-1.3,0.4-1.8c0.3-0.5,0.7-0.9,1.1-1.2c0.5-0.3,1.1-0.4,1.7-0.4c0.6,0,1.2,0.1,1.7,0.4
		c0.5,0.3,0.8,0.6,1.1,1.1c0.3,0.5,0.4,1,0.4,1.6C146.7,215.5,146.7,215.7,146.7,215.9z M145.3,214c-0.2-0.3-0.4-0.5-0.8-0.7
		c-0.3-0.2-0.7-0.2-1-0.2c-0.6,0-1,0.2-1.4,0.5c-0.4,0.4-0.6,0.8-0.7,1.5h4.2C145.6,214.6,145.5,214.3,145.3,214z"/>
	<path fill="#363636" d="M157.6,214.9h-2.6v2.6h-1v-2.6h-2.5V214h2.5v-2.6h1v2.6h2.6V214.9z"/>
	<path fill="#363636" d="M165.6,217.5c0.4-0.3,0.8-0.6,1-1.1h1.3c-0.3,0.8-0.8,1.4-1.5,1.9c-0.7,0.4-1.5,0.7-2.4,0.7
		c-0.9,0-1.8-0.3-2.5-0.8c-0.7-0.5-1.2-1.2-1.5-2.1h-1.2v-0.8h1c0-0.2,0-0.4,0-0.6c0-0.2,0-0.4,0-0.6h-1v-0.8h1.2
		c0.2-0.6,0.5-1.1,0.8-1.5c0.4-0.4,0.9-0.8,1.4-1c0.5-0.2,1.1-0.4,1.8-0.4c0.9,0,1.7,0.2,2.4,0.7c0.7,0.4,1.2,1.1,1.5,1.9h-1.3
		c-0.2-0.5-0.6-0.9-1-1.1s-1-0.4-1.6-0.4c-0.7,0-1.3,0.2-1.8,0.5s-0.9,0.8-1.1,1.4h2.8v0.8h-3c0,0.2,0,0.4,0,0.6c0,0.2,0,0.4,0,0.6
		h3v0.8h-2.8c0.2,0.6,0.6,1.1,1.1,1.4s1.1,0.5,1.7,0.5C164.7,217.9,165.2,217.8,165.6,217.5z"/>
	<path fill="#363636" d="M169.9,210.6c0.5-0.4,1.2-0.6,2-0.6c0.5,0,1,0.1,1.4,0.3c0.4,0.2,0.7,0.5,0.9,0.8s0.3,0.7,0.3,1.1
		c0,0.5-0.1,0.9-0.4,1.3s-0.7,0.6-1.1,0.7v0.1c0.5,0.1,0.9,0.4,1.2,0.8c0.3,0.4,0.5,0.9,0.5,1.5c0,0.5-0.1,0.9-0.3,1.2
		c-0.2,0.4-0.5,0.7-0.9,0.9s-0.9,0.3-1.5,0.3c-0.8,0-1.5-0.2-2.1-0.7c-0.5-0.4-0.8-1.1-0.9-1.9h1.1c0.1,0.5,0.3,0.9,0.6,1.2
		c0.3,0.3,0.8,0.5,1.3,0.5s1-0.1,1.3-0.4s0.4-0.7,0.4-1.1c0-0.6-0.2-1-0.6-1.3c-0.4-0.3-1-0.4-1.8-0.4H171v-0.9h0.3
		c0.7,0,1.3-0.1,1.7-0.4c0.4-0.2,0.6-0.6,0.6-1.1c0-0.4-0.1-0.8-0.4-1c-0.3-0.3-0.7-0.4-1.2-0.4c-0.5,0-0.9,0.1-1.2,0.4
		c-0.3,0.3-0.5,0.6-0.5,1h-1.1C169.2,211.6,169.4,211,169.9,210.6z"/>
	<path fill="#363636" d="M184.9,210.5v8.3h-1.1v-6.2l-2.8,6.2h-0.8l-2.8-6.2v6.2h-1.1v-8.3h1.2l3.1,6.9l3.1-6.9H184.9z"/>
</g>
<g>
	<path fill="#3C61ED" d="M140,77.1c0.4-0.2,0.6-0.5,0.8-0.9h1.1c-0.3,0.7-0.7,1.2-1.2,1.5c-0.6,0.4-1.2,0.5-2,0.5
		c-0.8,0-1.5-0.2-2.1-0.6c-0.6-0.4-1-1-1.2-1.7h-1v-0.6h0.8c0-0.2,0-0.3,0-0.5c0-0.2,0-0.3,0-0.5h-0.8v-0.6h1
		c0.1-0.5,0.4-0.9,0.7-1.3c0.3-0.4,0.7-0.7,1.2-0.9s0.9-0.3,1.5-0.3c0.8,0,1.4,0.2,2,0.5c0.6,0.4,1,0.9,1.2,1.6h-1.1
		c-0.2-0.4-0.5-0.7-0.8-1c-0.4-0.2-0.8-0.3-1.3-0.3c-0.6,0-1,0.1-1.5,0.4c-0.4,0.3-0.7,0.7-0.9,1.2h2.4v0.6h-2.5c0,0.2,0,0.3,0,0.5
		c0,0.2,0,0.4,0,0.5h2.5v0.6h-2.3c0.2,0.5,0.5,0.9,0.9,1.2c0.4,0.3,0.9,0.4,1.4,0.4C139.2,77.4,139.7,77.3,140,77.1z"/>
	<path fill="#3C61ED" d="M142.7,71.8v-0.8h1.9v7.2h-0.9v-6.4H142.7z"/>
	<path fill="#3C61ED" d="M153.3,71.2v6.9h-0.9V73l-2.3,5.2h-0.6l-2.3-5.2v5.2h-0.9v-6.9h1l2.6,5.7l2.6-5.7H153.3z"/>
</g>
<g>
	<path fill="#3C61ED" d="M71.8,104.7c0.5-0.4,0.9-0.9,1.2-1.4c0.3-0.5,0.5-0.9,0.5-1.4c0-0.4-0.1-0.8-0.3-1s-0.5-0.4-1-0.4
		c-0.5,0-0.8,0.1-1.1,0.4c-0.2,0.3-0.4,0.7-0.4,1.1h-0.9c0-0.7,0.3-1.3,0.7-1.7c0.4-0.4,1-0.6,1.6-0.6c0.7,0,1.2,0.2,1.6,0.6
		s0.6,0.9,0.6,1.6c0,0.6-0.2,1.1-0.5,1.6c-0.3,0.5-0.7,1-1.1,1.4c-0.4,0.4-1,0.9-1.6,1.4h3.4v0.8h-4.8v-0.7
		C70.6,105.7,71.3,105.1,71.8,104.7z"/>
	<path fill="#3C61ED" d="M75.4,105.5v-0.7l3.5-4.9H80v4.8h1v0.8h-1v1.6h-0.9v-1.6H75.4z M79.2,100.9l-2.7,3.8h2.7V100.9z"/>
	<path fill="#3C61ED" d="M91.8,100.2v6.9h-0.9v-5.2l-2.3,5.2H88l-2.3-5.2v5.2h-0.9v-6.9h1l2.6,5.7l2.6-5.7H91.8z"/>
	<path fill="#3C61ED" d="M94.4,106.8c-0.4-0.2-0.7-0.6-1-1c-0.2-0.4-0.4-0.9-0.4-1.5c0-0.6,0.1-1.1,0.4-1.5c0.2-0.4,0.6-0.8,1-1
		c0.4-0.2,0.9-0.3,1.4-0.3s1,0.1,1.4,0.3c0.4,0.2,0.8,0.6,1,1c0.2,0.4,0.4,0.9,0.4,1.5s-0.1,1.1-0.4,1.5s-0.6,0.8-1,1
		c-0.4,0.2-0.9,0.3-1.4,0.3C95.2,107.2,94.8,107.1,94.4,106.8z M96.7,106.2c0.3-0.2,0.5-0.4,0.7-0.7s0.3-0.7,0.3-1.1
		s-0.1-0.8-0.3-1.1s-0.4-0.5-0.7-0.7c-0.3-0.2-0.6-0.2-0.9-0.2c-0.3,0-0.6,0.1-0.9,0.2c-0.3,0.1-0.5,0.4-0.7,0.7s-0.2,0.7-0.2,1.1
		c0,0.4,0.1,0.8,0.2,1.1c0.2,0.3,0.4,0.5,0.7,0.7c0.3,0.1,0.6,0.2,0.9,0.2C96.1,106.4,96.4,106.3,96.7,106.2z"/>
	<path fill="#3C61ED" d="M104,102.1c0.4,0.4,0.6,1,0.6,1.7v3.2h-0.9V104c0-0.5-0.1-1-0.4-1.3c-0.3-0.3-0.6-0.4-1.1-0.4
		c-0.5,0-0.9,0.2-1.1,0.5s-0.4,0.7-0.4,1.3v3h-0.9v-5.5h0.9v0.8c0.2-0.3,0.4-0.5,0.7-0.6s0.7-0.2,1-0.2
		C103.1,101.5,103.6,101.7,104,102.1z"/>
	<path fill="#3C61ED" d="M107.3,102.4v3.2c0,0.3,0.1,0.5,0.2,0.6c0.1,0.1,0.3,0.2,0.6,0.2h0.7v0.8h-0.8c-0.5,0-0.9-0.1-1.1-0.3
		s-0.4-0.6-0.4-1.2v-3.2h-0.7v-0.8h0.7v-1.4h0.9v1.4h1.4v0.8H107.3z"/>
	<path fill="#3C61ED" d="M113.6,101.8c0.3,0.2,0.6,0.4,0.8,0.8c0.2,0.4,0.3,0.8,0.3,1.3v3.2h-0.9V104c0-0.5-0.1-1-0.4-1.3
		c-0.3-0.3-0.6-0.4-1.1-0.4c-0.5,0-0.9,0.2-1.1,0.5s-0.4,0.7-0.4,1.3v3h-0.9v-7.4h0.9v2.7c0.2-0.3,0.4-0.5,0.7-0.6
		c0.3-0.2,0.7-0.2,1.1-0.2C112.9,101.5,113.3,101.6,113.6,101.8z"/>
	<path fill="#3C61ED" d="M117,107c-0.3-0.1-0.6-0.3-0.8-0.6c-0.2-0.3-0.3-0.6-0.3-0.9h0.9c0,0.3,0.2,0.5,0.4,0.7
		c0.2,0.2,0.5,0.3,0.9,0.3c0.3,0,0.6-0.1,0.8-0.2s0.3-0.3,0.3-0.6c0-0.2-0.1-0.4-0.3-0.5c-0.2-0.1-0.5-0.2-1-0.3
		c-0.4-0.1-0.7-0.2-1-0.3c-0.3-0.1-0.5-0.3-0.7-0.5c-0.2-0.2-0.3-0.5-0.3-0.9c0-0.3,0.1-0.5,0.2-0.8c0.2-0.2,0.4-0.4,0.7-0.6
		s0.7-0.2,1-0.2c0.6,0,1.1,0.2,1.5,0.5c0.4,0.3,0.6,0.7,0.6,1.3h-0.9c0-0.3-0.1-0.5-0.3-0.7c-0.2-0.2-0.5-0.3-0.8-0.3
		c-0.3,0-0.6,0.1-0.8,0.2c-0.2,0.1-0.3,0.3-0.3,0.5c0,0.2,0.1,0.3,0.2,0.4c0.1,0.1,0.3,0.2,0.4,0.3c0.2,0.1,0.4,0.1,0.7,0.2
		c0.4,0.1,0.7,0.2,1,0.3s0.5,0.3,0.6,0.5c0.2,0.2,0.3,0.5,0.3,0.8c0,0.3-0.1,0.6-0.2,0.8c-0.2,0.2-0.4,0.4-0.7,0.6s-0.7,0.2-1,0.2
		C117.7,107.2,117.3,107.1,117,107z"/>
</g>
<g>
	<path fill="#3C61ED" d="M136.9,40.2c0.4-0.2,0.6-0.5,0.8-0.9h1.1c-0.3,0.7-0.7,1.2-1.2,1.5c-0.6,0.4-1.2,0.5-2,0.5
		c-0.8,0-1.5-0.2-2.1-0.6c-0.6-0.4-1-1-1.2-1.7h-1v-0.6h0.8c0-0.2,0-0.3,0-0.5c0-0.2,0-0.3,0-0.5h-0.8v-0.6h1
		c0.1-0.5,0.4-0.9,0.7-1.3c0.3-0.4,0.7-0.7,1.2-0.9s0.9-0.3,1.5-0.3c0.8,0,1.4,0.2,2,0.5c0.6,0.4,1,0.9,1.2,1.6h-1.1
		c-0.2-0.4-0.5-0.7-0.8-1c-0.4-0.2-0.8-0.3-1.3-0.3c-0.6,0-1,0.1-1.5,0.4c-0.4,0.3-0.7,0.7-0.9,1.2h2.4v0.6h-2.5c0,0.2,0,0.3,0,0.5
		c0,0.2,0,0.4,0,0.5h2.5V39h-2.3c0.2,0.5,0.5,0.9,0.9,1.2c0.4,0.3,0.9,0.4,1.4,0.4C136.1,40.6,136.6,40.4,136.9,40.2z"/>
	<path fill="#3C61ED" d="M139.6,39.7V39l3.5-4.9h1.1v4.8h1v0.8h-1v1.6h-0.9v-1.6H139.6z M143.3,35.1l-2.7,3.8h2.7V35.1z"/>
	<path fill="#3C61ED" d="M153.3,34.4v6.9h-0.9v-5.2l-2.3,5.2h-0.6l-2.3-5.2v5.2h-0.9v-6.9h1l2.6,5.7l2.6-5.7H153.3z"/>
</g>
<g>
	<path fill="#363636" d="M37.9,178c-0.5-0.2-1-0.6-1.3-1c-0.3-0.4-0.5-1-0.5-1.6h2.1c0,0.4,0.2,0.7,0.4,1c0.3,0.2,0.6,0.4,1.1,0.4
		c0.5,0,0.8-0.1,1.1-0.3c0.3-0.2,0.4-0.5,0.4-0.9c0-0.3-0.1-0.5-0.3-0.7s-0.4-0.3-0.7-0.4c-0.3-0.1-0.6-0.2-1.1-0.4
		c-0.6-0.2-1.2-0.4-1.5-0.6c-0.4-0.2-0.7-0.5-1-0.8c-0.3-0.4-0.4-0.9-0.4-1.5c0-0.6,0.1-1.1,0.4-1.5c0.3-0.4,0.7-0.8,1.2-1
		c0.5-0.2,1.1-0.3,1.8-0.3c1,0,1.8,0.2,2.5,0.7s1,1.2,1,2.1h-2.2c0-0.3-0.2-0.6-0.4-0.8c-0.3-0.2-0.6-0.3-1.1-0.3
		c-0.4,0-0.7,0.1-0.9,0.3s-0.3,0.5-0.3,0.9c0,0.3,0.1,0.5,0.3,0.7c0.2,0.2,0.4,0.3,0.6,0.4c0.3,0.1,0.6,0.2,1.1,0.4
		c0.6,0.2,1.2,0.4,1.6,0.6c0.4,0.2,0.7,0.5,1,0.8c0.3,0.4,0.4,0.9,0.4,1.5c0,0.5-0.1,1-0.4,1.5c-0.3,0.4-0.7,0.8-1.2,1.1
		c-0.5,0.3-1.1,0.4-1.9,0.4C39.1,178.4,38.4,178.2,37.9,178z"/>
	<path fill="#363636" d="M46.3,177.9c-0.6-0.3-1.1-0.8-1.4-1.4c-0.3-0.6-0.5-1.3-0.5-2.1s0.2-1.5,0.5-2.1c0.4-0.6,0.8-1.1,1.4-1.4
		c0.6-0.3,1.3-0.5,2-0.5s1.4,0.2,2,0.5c0.6,0.3,1.1,0.8,1.4,1.4c0.3,0.6,0.5,1.3,0.5,2.1s-0.2,1.5-0.5,2.1c-0.4,0.6-0.8,1.1-1.5,1.4
		s-1.3,0.5-2.1,0.5C47.6,178.4,46.9,178.2,46.3,177.9z M49.3,176.4c0.3-0.2,0.6-0.4,0.7-0.8c0.2-0.3,0.3-0.8,0.3-1.3
		c0-0.7-0.2-1.3-0.6-1.7s-0.9-0.6-1.4-0.6s-1,0.2-1.4,0.6c-0.4,0.4-0.6,1-0.6,1.7s0.2,1.3,0.6,1.7c0.4,0.4,0.8,0.6,1.4,0.6
		C48.7,176.7,49,176.6,49.3,176.4z"/>
	<path fill="#363636" d="M57.4,172.1H56v6.1h-2v-6.1h-0.9v-1.6H54v-0.4c0-1,0.3-1.7,0.8-2.1c0.5-0.4,1.4-0.7,2.5-0.6v1.7
		c-0.5,0-0.8,0.1-1,0.2s-0.3,0.5-0.3,0.9v0.3h1.4V172.1z"/>
	<path fill="#363636" d="M60.9,172.1v3.8c0,0.3,0.1,0.5,0.2,0.6c0.1,0.1,0.3,0.2,0.6,0.2h0.9v1.7h-1.2c-1.7,0-2.5-0.8-2.5-2.4v-3.7
		H58v-1.6H59v-1.9h2v1.9h1.7v1.6H60.9z"/>
	<path fill="#363636" d="M64.3,170.8c0.4-0.8,1-1.4,1.8-1.8s1.6-0.6,2.5-0.6c1.1,0,2,0.3,2.9,0.8c0.8,0.6,1.4,1.3,1.7,2.3h-2.3
		c-0.2-0.5-0.5-0.8-0.9-1c-0.4-0.2-0.9-0.3-1.4-0.3c-0.6,0-1.1,0.1-1.5,0.4c-0.4,0.3-0.8,0.6-1,1.1c-0.2,0.5-0.4,1.1-0.4,1.7
		c0,0.6,0.1,1.2,0.4,1.7c0.2,0.5,0.6,0.9,1,1.1c0.4,0.3,0.9,0.4,1.5,0.4c0.5,0,1-0.1,1.4-0.4c0.4-0.2,0.7-0.6,0.9-1.1h2.3
		c-0.3,1-0.9,1.8-1.7,2.3c-0.8,0.6-1.8,0.8-2.9,0.8c-0.9,0-1.8-0.2-2.5-0.6s-1.3-1-1.8-1.8s-0.7-1.6-0.7-2.6
		C63.6,172.4,63.8,171.5,64.3,170.8z"/>
	<path fill="#363636" d="M76.3,177.9c-0.6-0.3-1.1-0.8-1.4-1.4c-0.3-0.6-0.5-1.3-0.5-2.1s0.2-1.5,0.5-2.1c0.4-0.6,0.8-1.1,1.4-1.4
		c0.6-0.3,1.3-0.5,2-0.5s1.4,0.2,2,0.5c0.6,0.3,1.1,0.8,1.4,1.4c0.3,0.6,0.5,1.3,0.5,2.1s-0.2,1.5-0.5,2.1c-0.4,0.6-0.8,1.1-1.5,1.4
		s-1.3,0.5-2.1,0.5C77.5,178.4,76.9,178.2,76.3,177.9z M79.3,176.4c0.3-0.2,0.6-0.4,0.7-0.8c0.2-0.3,0.3-0.8,0.3-1.3
		c0-0.7-0.2-1.3-0.6-1.7s-0.9-0.6-1.4-0.6s-1,0.2-1.4,0.6c-0.4,0.4-0.6,1-0.6,1.7s0.2,1.3,0.6,1.7c0.4,0.4,0.8,0.6,1.4,0.6
		C78.6,176.7,79,176.6,79.3,176.4z"/>
	<path fill="#363636" d="M92.1,178.3l-2.2-3.8h-0.9v3.8h-2v-9.8h3.7c0.8,0,1.4,0.1,1.9,0.4c0.5,0.3,0.9,0.6,1.2,1.1
		c0.3,0.5,0.4,1,0.4,1.5c0,0.6-0.2,1.2-0.6,1.7c-0.4,0.5-0.9,0.9-1.7,1.1l2.3,4H92.1z M89.1,173h1.6c0.5,0,0.9-0.1,1.2-0.4
		s0.4-0.6,0.4-1.1c0-0.4-0.1-0.8-0.4-1c-0.3-0.2-0.7-0.4-1.2-0.4h-1.6V173z"/>
	<path fill="#363636" d="M103.2,175h-5.7c0,0.6,0.2,1,0.6,1.3c0.3,0.3,0.8,0.5,1.3,0.5c0.7,0,1.2-0.3,1.6-0.9h2.1
		c-0.2,0.7-0.7,1.4-1.3,1.8s-1.4,0.7-2.3,0.7c-0.7,0-1.4-0.2-2-0.5c-0.6-0.3-1.1-0.8-1.4-1.4c-0.3-0.6-0.5-1.3-0.5-2.1
		c0-0.8,0.2-1.5,0.5-2.1c0.3-0.6,0.8-1.1,1.4-1.4c0.6-0.3,1.3-0.5,2-0.5c0.7,0,1.4,0.2,2,0.5c0.6,0.3,1,0.8,1.4,1.4
		c0.3,0.6,0.5,1.3,0.5,2C103.3,174.5,103.3,174.7,103.2,175z M101.2,173.6c0-0.5-0.2-0.9-0.5-1.2c-0.4-0.3-0.8-0.5-1.3-0.5
		c-0.5,0-0.9,0.1-1.2,0.4c-0.3,0.3-0.5,0.7-0.6,1.2H101.2z"/>
	<path fill="#363636" d="M104.7,172.3c0.3-0.6,0.7-1.1,1.3-1.4c0.5-0.3,1.1-0.5,1.8-0.5c0.5,0,1,0.1,1.4,0.3
		c0.5,0.2,0.8,0.5,1.1,0.9v-3.7h2v10.4h-2v-1.1c-0.2,0.4-0.6,0.7-1,0.9c-0.4,0.2-0.9,0.3-1.5,0.3c-0.7,0-1.3-0.2-1.8-0.5
		s-1-0.8-1.3-1.4c-0.3-0.6-0.5-1.3-0.5-2.1C104.2,173.6,104.4,172.9,104.7,172.3z M110,173.2c-0.2-0.3-0.4-0.6-0.8-0.8
		c-0.3-0.2-0.7-0.3-1-0.3c-0.4,0-0.7,0.1-1,0.3c-0.3,0.2-0.6,0.4-0.7,0.8s-0.3,0.7-0.3,1.2s0.1,0.9,0.3,1.2c0.2,0.3,0.4,0.6,0.8,0.8
		c0.3,0.2,0.6,0.3,1,0.3c0.4,0,0.7-0.1,1-0.3c0.3-0.2,0.6-0.4,0.8-0.8c0.2-0.3,0.3-0.7,0.3-1.2S110.2,173.5,110,173.2z"/>
	<path fill="#363636" d="M121.4,175h-5.7c0,0.6,0.2,1,0.6,1.3c0.3,0.3,0.8,0.5,1.3,0.5c0.7,0,1.2-0.3,1.6-0.9h2.1
		c-0.2,0.7-0.7,1.4-1.3,1.8s-1.4,0.7-2.3,0.7c-0.7,0-1.4-0.2-2-0.5c-0.6-0.3-1.1-0.8-1.4-1.4c-0.3-0.6-0.5-1.3-0.5-2.1
		c0-0.8,0.2-1.5,0.5-2.1c0.3-0.6,0.8-1.1,1.4-1.4c0.6-0.3,1.3-0.5,2-0.5c0.7,0,1.4,0.2,2,0.5c0.6,0.3,1,0.8,1.4,1.4
		c0.3,0.6,0.5,1.3,0.5,2C121.4,174.5,121.4,174.7,121.4,175z M119.4,173.6c0-0.5-0.2-0.9-0.5-1.2c-0.4-0.3-0.8-0.5-1.3-0.5
		c-0.5,0-0.9,0.1-1.2,0.4c-0.3,0.3-0.5,0.7-0.6,1.2H119.4z"/>
	<path fill="#363636" d="M124.1,178c-0.5-0.2-0.9-0.5-1.2-0.9c-0.3-0.4-0.5-0.8-0.5-1.3h2c0,0.3,0.2,0.5,0.4,0.7s0.6,0.3,1,0.3
		c0.4,0,0.7-0.1,0.9-0.2s0.3-0.3,0.3-0.6c0-0.3-0.1-0.4-0.4-0.6c-0.3-0.1-0.7-0.3-1.2-0.4c-0.6-0.1-1.1-0.3-1.4-0.4
		c-0.4-0.1-0.7-0.4-1-0.7c-0.3-0.3-0.4-0.7-0.4-1.2c0-0.4,0.1-0.8,0.4-1.2c0.2-0.4,0.6-0.6,1.1-0.8c0.5-0.2,1-0.3,1.6-0.3
		c0.9,0,1.7,0.2,2.2,0.7c0.6,0.5,0.9,1.1,0.9,1.9h-1.9c0-0.3-0.2-0.6-0.4-0.7c-0.2-0.2-0.5-0.3-0.9-0.3c-0.4,0-0.6,0.1-0.8,0.2
		s-0.3,0.3-0.3,0.5c0,0.3,0.1,0.5,0.4,0.6c0.3,0.1,0.7,0.3,1.2,0.4c0.6,0.1,1,0.3,1.4,0.4c0.4,0.1,0.7,0.4,0.9,0.7
		c0.3,0.3,0.4,0.7,0.4,1.2c0,0.4-0.1,0.8-0.4,1.2c-0.2,0.4-0.6,0.6-1.1,0.8c-0.5,0.2-1,0.3-1.6,0.3
		C125.2,178.4,124.6,178.3,124.1,178z"/>
	<path fill="#363636" d="M130.6,169.2c-0.2-0.2-0.3-0.5-0.3-0.8c0-0.3,0.1-0.6,0.3-0.8c0.2-0.2,0.5-0.3,0.9-0.3
		c0.3,0,0.6,0.1,0.9,0.3c0.2,0.2,0.3,0.5,0.3,0.8c0,0.3-0.1,0.6-0.3,0.8c-0.2,0.2-0.5,0.3-0.9,0.3
		C131.1,169.6,130.8,169.5,130.6,169.2z M132.4,170.5v7.8h-2v-7.8H132.4z"/>
	<path fill="#363636" d="M138.9,170.7c0.4,0.2,0.8,0.5,1,0.9v-1.1h2v7.8c0,0.7-0.1,1.4-0.4,1.9c-0.3,0.6-0.7,1-1.3,1.3
		c-0.6,0.3-1.3,0.5-2.1,0.5c-1.1,0-2-0.3-2.7-0.8c-0.7-0.5-1.1-1.2-1.2-2.1h1.9c0.1,0.4,0.3,0.6,0.7,0.8s0.8,0.3,1.2,0.3
		c0.6,0,1-0.2,1.4-0.5s0.5-0.9,0.5-1.5v-1.2c-0.3,0.4-0.6,0.7-1,0.9c-0.4,0.2-1,0.4-1.5,0.4c-0.7,0-1.2-0.2-1.8-0.5
		c-0.5-0.3-1-0.8-1.3-1.4c-0.3-0.6-0.5-1.3-0.5-2.1c0-0.8,0.2-1.5,0.5-2.1c0.3-0.6,0.7-1.1,1.3-1.4c0.5-0.3,1.1-0.5,1.8-0.5
		C138,170.4,138.5,170.5,138.9,170.7z M139.7,173.2c-0.2-0.3-0.4-0.6-0.8-0.8c-0.3-0.2-0.7-0.3-1-0.3c-0.4,0-0.7,0.1-1,0.3
		c-0.3,0.2-0.6,0.4-0.7,0.8s-0.3,0.7-0.3,1.2s0.1,0.9,0.3,1.2c0.2,0.3,0.4,0.6,0.8,0.8c0.3,0.2,0.6,0.3,1,0.3c0.4,0,0.7-0.1,1-0.3
		c0.3-0.2,0.6-0.4,0.8-0.8c0.2-0.3,0.3-0.7,0.3-1.2S139.9,173.5,139.7,173.2z"/>
	<path fill="#363636" d="M150.4,171.3c0.6,0.6,0.9,1.4,0.9,2.4v4.5h-2V174c0-0.6-0.2-1.1-0.5-1.4c-0.3-0.3-0.7-0.5-1.3-0.5
		c-0.5,0-1,0.2-1.3,0.5s-0.5,0.8-0.5,1.4v4.3h-2v-7.8h2v1c0.3-0.3,0.6-0.6,1-0.8s0.9-0.3,1.3-0.3
		C149.1,170.4,149.8,170.7,150.4,171.3z"/>
</g>
<line fill="none" stroke="#3C61ED" stroke-width="1.5" stroke-miterlimit="10" x1="35.8" y1="89.8" x2="154.1" y2="89.8"/>
<path fill="none" stroke="#3C61ED" stroke-width="1.5" stroke-miterlimit="10" d="M36.1,76.5c0,0,61.9-9.9,84.7-39.7"/>
</svg>
