<?xml version="1.0" encoding="utf-8"?>
<!-- Generator: Adobe Illustrator 26.3.1, SVG Export Plug-In . SVG Version: 6.00 Build 0)  -->
<svg version="1.1" baseProfile="tiny" id="Layer_1" xmlns="http://www.w3.org/2000/svg" xmlns:xlink="http://www.w3.org/1999/xlink"
	 x="0px" y="0px" width="260px" height="258.2px" viewBox="0 0 260 258.2" overflow="visible" xml:space="preserve">
<path fill="#F2EDED" d="M243.3,258.2H16.7c-9.2,0-16.7-7.5-16.7-16.7V16.7C0,7.5,7.5,0,16.7,0h226.5c9.2,0,16.7,7.5,16.7,16.7v224.8
	C260,250.7,252.5,258.2,243.3,258.2z"/>
<g>
	<path fill="#363636" d="M41.5,193.4v0.9h-2.3v7.5h-1.1v-7.5h-2.3v-0.9H41.5z"/>
	<path fill="#363636" d="M47.4,195.4c0.4,0.2,0.7,0.5,0.9,1s0.3,0.9,0.3,1.5v3.9h-1.1v-3.7c0-0.7-0.2-1.2-0.5-1.5
		c-0.3-0.3-0.8-0.5-1.3-0.5c-0.6,0-1,0.2-1.4,0.5s-0.5,0.9-0.5,1.6v3.6h-1.1v-8.9h1.1v3.2c0.2-0.3,0.5-0.6,0.9-0.8
		c0.4-0.2,0.8-0.3,1.3-0.3C46.6,195.1,47,195.2,47.4,195.4z"/>
	<path fill="#363636" d="M52.4,195.4c0.4-0.2,0.8-0.3,1.3-0.3v1.1h-0.3c-1.2,0-1.8,0.7-1.8,2v3.6h-1.1v-6.6h1.1v1.1
		C51.8,195.9,52,195.6,52.4,195.4z"/>
	<path fill="#363636" d="M60.9,198.9h-5.3c0,0.6,0.3,1.2,0.7,1.5c0.4,0.4,0.9,0.5,1.5,0.5c0.5,0,0.9-0.1,1.2-0.3
		c0.3-0.2,0.5-0.5,0.7-0.9h1.2c-0.2,0.6-0.5,1.1-1.1,1.5c-0.5,0.4-1.2,0.6-2,0.6c-0.6,0-1.2-0.1-1.7-0.4c-0.5-0.3-0.9-0.7-1.2-1.2
		c-0.3-0.5-0.4-1.1-0.4-1.8s0.1-1.3,0.4-1.8s0.7-0.9,1.1-1.2c0.5-0.3,1.1-0.4,1.7-0.4c0.6,0,1.2,0.1,1.7,0.4
		c0.5,0.3,0.9,0.6,1.1,1.1c0.3,0.5,0.4,1,0.4,1.6C61,198.5,61,198.7,60.9,198.9z M59.6,197c-0.2-0.3-0.4-0.5-0.8-0.7
		c-0.3-0.2-0.7-0.2-1-0.2c-0.6,0-1,0.2-1.4,0.5c-0.4,0.4-0.6,0.8-0.7,1.5h4.2C59.8,197.6,59.7,197.3,59.6,197z"/>
	<path fill="#363636" d="M68.4,198.9h-5.3c0,0.6,0.3,1.2,0.7,1.5c0.4,0.4,0.9,0.5,1.5,0.5c0.5,0,0.9-0.1,1.2-0.3
		c0.3-0.2,0.5-0.5,0.7-0.9h1.2c-0.2,0.6-0.5,1.1-1.1,1.5c-0.5,0.4-1.2,0.6-2,0.6c-0.6,0-1.2-0.1-1.7-0.4c-0.5-0.3-0.9-0.7-1.2-1.2
		c-0.3-0.5-0.4-1.1-0.4-1.8s0.1-1.3,0.4-1.8s0.7-0.9,1.1-1.2c0.5-0.3,1.1-0.4,1.7-0.4c0.6,0,1.2,0.1,1.7,0.4
		c0.5,0.3,0.9,0.6,1.1,1.1c0.3,0.5,0.4,1,0.4,1.6C68.4,198.5,68.4,198.7,68.4,198.9z M67,197c-0.2-0.3-0.4-0.5-0.8-0.7
		c-0.3-0.2-0.7-0.2-1-0.2c-0.6,0-1,0.2-1.4,0.5c-0.4,0.4-0.6,0.8-0.7,1.5h4.2C67.3,197.6,67.2,197.3,67,197z"/>
	<path fill="#363636" d="M76.7,201.8l-2.6-2.9v2.9H73v-8.9h1.1v5.2l2.5-2.9h1.5l-3.1,3.3l3.1,3.3H76.7z"/>
	<path fill="#363636" d="M85.2,198.9h-5.3c0,0.6,0.3,1.2,0.7,1.5c0.4,0.4,0.9,0.5,1.5,0.5c0.5,0,0.9-0.1,1.2-0.3
		c0.3-0.2,0.5-0.5,0.7-0.9h1.2c-0.2,0.6-0.5,1.1-1.1,1.5c-0.5,0.4-1.2,0.6-2,0.6c-0.6,0-1.2-0.1-1.7-0.4c-0.5-0.3-0.9-0.7-1.2-1.2
		c-0.3-0.5-0.4-1.1-0.4-1.8s0.1-1.3,0.4-1.8s0.7-0.9,1.1-1.2c0.5-0.3,1.1-0.4,1.7-0.4c0.6,0,1.2,0.1,1.7,0.4
		c0.5,0.3,0.9,0.6,1.1,1.1c0.3,0.5,0.4,1,0.4,1.6C85.2,198.5,85.2,198.7,85.2,198.9z M83.8,197c-0.2-0.3-0.4-0.5-0.8-0.7
		c-0.3-0.2-0.7-0.2-1-0.2c-0.6,0-1,0.2-1.4,0.5c-0.4,0.4-0.6,0.8-0.7,1.5h4.2C84.1,197.6,84,197.3,83.8,197z"/>
	<path fill="#363636" d="M92.3,195.2l-4,9.7h-1.1l1.3-3.2l-2.7-6.5h1.2l2.1,5.3l2-5.3H92.3z"/>
	<path fill="#363636" d="M96.6,196.7c0.3-0.5,0.6-0.9,1.1-1.2s1-0.4,1.6-0.4c0.6,0,1.1,0.1,1.5,0.4c0.4,0.3,0.7,0.6,0.9,0.9v-1.2
		h1.1v9.7h-1.1v-4.3c-0.2,0.4-0.5,0.7-1,0.9c-0.4,0.3-0.9,0.4-1.5,0.4c-0.6,0-1.1-0.1-1.6-0.4c-0.5-0.3-0.8-0.7-1.1-1.2
		c-0.3-0.5-0.4-1.1-0.4-1.8C96.2,197.8,96.4,197.2,96.6,196.7z M101.5,197.2c-0.2-0.4-0.5-0.7-0.8-0.8c-0.3-0.2-0.7-0.3-1.1-0.3
		c-0.4,0-0.8,0.1-1.1,0.3c-0.3,0.2-0.6,0.5-0.8,0.8c-0.2,0.4-0.3,0.8-0.3,1.3c0,0.5,0.1,0.9,0.3,1.3c0.2,0.4,0.5,0.7,0.8,0.9
		c0.3,0.2,0.7,0.3,1.1,0.3c0.4,0,0.8-0.1,1.1-0.3c0.3-0.2,0.6-0.5,0.8-0.9c0.2-0.4,0.3-0.8,0.3-1.3S101.7,197.6,101.5,197.2z"/>
	<path fill="#363636" d="M110.6,195.2v6.6h-1.1v-1c-0.2,0.3-0.5,0.6-0.9,0.8c-0.4,0.2-0.8,0.3-1.2,0.3c-0.5,0-1-0.1-1.4-0.3
		c-0.4-0.2-0.7-0.5-1-1c-0.2-0.4-0.4-0.9-0.4-1.5v-3.9h1.1v3.7c0,0.6,0.2,1.1,0.5,1.5s0.8,0.5,1.3,0.5c0.6,0,1-0.2,1.4-0.5
		c0.3-0.4,0.5-0.9,0.5-1.6v-3.6H110.6z"/>
	<path fill="#363636" d="M118.4,198.9h-5.3c0,0.6,0.3,1.2,0.7,1.5c0.4,0.4,0.9,0.5,1.5,0.5c0.5,0,0.9-0.1,1.2-0.3
		c0.3-0.2,0.5-0.5,0.7-0.9h1.2c-0.2,0.6-0.5,1.1-1.1,1.5c-0.5,0.4-1.2,0.6-2,0.6c-0.6,0-1.2-0.1-1.7-0.4c-0.5-0.3-0.9-0.7-1.2-1.2
		c-0.3-0.5-0.4-1.1-0.4-1.8s0.1-1.3,0.4-1.8s0.7-0.9,1.1-1.2c0.5-0.3,1.1-0.4,1.7-0.4c0.6,0,1.2,0.1,1.7,0.4
		c0.5,0.3,0.9,0.6,1.1,1.1c0.3,0.5,0.4,1,0.4,1.6C118.4,198.5,118.4,198.7,118.4,198.9z M117,197c-0.2-0.3-0.4-0.5-0.8-0.7
		c-0.3-0.2-0.7-0.2-1-0.2c-0.6,0-1,0.2-1.4,0.5c-0.4,0.4-0.6,0.8-0.7,1.5h4.2C117.3,197.6,117.2,197.3,117,197z"/>
	<path fill="#363636" d="M120.8,201.7c-0.4-0.2-0.7-0.4-0.9-0.7c-0.2-0.3-0.4-0.7-0.4-1.1h1.1c0,0.3,0.2,0.6,0.5,0.8
		c0.3,0.2,0.6,0.3,1.1,0.3c0.4,0,0.7-0.1,1-0.3c0.2-0.2,0.4-0.4,0.4-0.7c0-0.3-0.1-0.5-0.4-0.6c-0.3-0.1-0.7-0.3-1.2-0.4
		c-0.5-0.1-0.9-0.3-1.2-0.4c-0.3-0.1-0.6-0.3-0.8-0.6c-0.2-0.3-0.3-0.6-0.3-1c0-0.3,0.1-0.6,0.3-0.9c0.2-0.3,0.5-0.5,0.9-0.7
		c0.4-0.2,0.8-0.2,1.3-0.2c0.7,0,1.3,0.2,1.8,0.6c0.4,0.4,0.7,0.9,0.7,1.5h-1.1c0-0.3-0.2-0.6-0.4-0.8s-0.6-0.3-1-0.3
		c-0.4,0-0.7,0.1-0.9,0.3c-0.2,0.2-0.3,0.4-0.3,0.7c0,0.2,0.1,0.4,0.2,0.5c0.1,0.1,0.3,0.3,0.5,0.3s0.5,0.2,0.9,0.3
		c0.5,0.1,0.9,0.3,1.2,0.4s0.5,0.3,0.8,0.6s0.3,0.6,0.3,1c0,0.4-0.1,0.7-0.3,1c-0.2,0.3-0.5,0.5-0.8,0.7c-0.4,0.2-0.8,0.2-1.3,0.2
		C121.7,201.9,121.2,201.8,120.8,201.7z"/>
	<path fill="#363636" d="M127.5,196.1v3.9c0,0.3,0.1,0.5,0.2,0.7c0.1,0.1,0.4,0.2,0.7,0.2h0.8v0.9h-1c-0.6,0-1.1-0.1-1.4-0.4
		c-0.3-0.3-0.5-0.7-0.5-1.4v-3.9h-0.9v-0.9h0.9v-1.7h1.1v1.7h1.7v0.9H127.5z"/>
	<path fill="#363636" d="M130.5,193.9c-0.1-0.1-0.2-0.3-0.2-0.5s0.1-0.4,0.2-0.5s0.3-0.2,0.5-0.2c0.2,0,0.4,0.1,0.5,0.2
		s0.2,0.3,0.2,0.5s-0.1,0.4-0.2,0.5c-0.1,0.1-0.3,0.2-0.5,0.2C130.8,194.2,130.7,194.1,130.5,193.9z M131.6,195.2v6.6h-1.1v-6.6
		H131.6z"/>
	<path fill="#363636" d="M134.6,201.5c-0.5-0.3-0.9-0.7-1.2-1.2c-0.3-0.5-0.4-1.1-0.4-1.8c0-0.7,0.1-1.3,0.4-1.8s0.7-0.9,1.2-1.2
		c0.5-0.3,1.1-0.4,1.7-0.4s1.2,0.1,1.7,0.4c0.5,0.3,0.9,0.7,1.2,1.2s0.4,1.1,0.4,1.8s-0.1,1.3-0.5,1.8c-0.3,0.5-0.7,0.9-1.2,1.2
		c-0.5,0.3-1.1,0.4-1.7,0.4C135.7,201.9,135.1,201.8,134.6,201.5z M137.4,200.7c0.3-0.2,0.6-0.5,0.8-0.8s0.3-0.8,0.3-1.3
		c0-0.5-0.1-1-0.3-1.3c-0.2-0.4-0.5-0.6-0.8-0.8c-0.3-0.2-0.7-0.3-1.1-0.3c-0.4,0-0.8,0.1-1.1,0.3c-0.3,0.2-0.6,0.5-0.8,0.8
		c-0.2,0.4-0.3,0.8-0.3,1.3c0,0.5,0.1,1,0.3,1.4c0.2,0.4,0.5,0.6,0.8,0.8s0.7,0.3,1.1,0.3C136.7,200.9,137.1,200.9,137.4,200.7z"/>
	<path fill="#363636" d="M146.3,195.8c0.5,0.5,0.7,1.2,0.7,2.1v3.9h-1.1v-3.7c0-0.7-0.2-1.2-0.5-1.5c-0.3-0.3-0.8-0.5-1.3-0.5
		c-0.6,0-1,0.2-1.4,0.5s-0.5,0.9-0.5,1.6v3.6h-1.1v-6.6h1.1v0.9c0.2-0.3,0.5-0.6,0.9-0.8s0.8-0.3,1.2-0.3
		C145.1,195.1,145.8,195.3,146.3,195.8z"/>
	<path fill="#363636" d="M149.8,201.7c-0.4-0.2-0.7-0.4-0.9-0.7c-0.2-0.3-0.4-0.7-0.4-1.1h1.1c0,0.3,0.2,0.6,0.5,0.8
		c0.3,0.2,0.6,0.3,1.1,0.3c0.4,0,0.7-0.1,1-0.3c0.2-0.2,0.4-0.4,0.4-0.7c0-0.3-0.1-0.5-0.4-0.6c-0.3-0.1-0.7-0.3-1.2-0.4
		c-0.5-0.1-0.9-0.3-1.2-0.4c-0.3-0.1-0.6-0.3-0.8-0.6c-0.2-0.3-0.3-0.6-0.3-1c0-0.3,0.1-0.6,0.3-0.9c0.2-0.3,0.5-0.5,0.9-0.7
		c0.4-0.2,0.8-0.2,1.3-0.2c0.7,0,1.3,0.2,1.8,0.6c0.4,0.4,0.7,0.9,0.7,1.5h-1.1c0-0.3-0.2-0.6-0.4-0.8s-0.6-0.3-1-0.3
		c-0.4,0-0.7,0.1-0.9,0.3s-0.3,0.4-0.3,0.7c0,0.2,0.1,0.4,0.2,0.5c0.1,0.1,0.3,0.3,0.5,0.3s0.5,0.2,0.9,0.3c0.5,0.1,0.9,0.3,1.2,0.4
		s0.5,0.3,0.8,0.6s0.3,0.6,0.3,1c0,0.4-0.1,0.7-0.3,1c-0.2,0.3-0.5,0.5-0.8,0.7c-0.4,0.2-0.8,0.2-1.3,0.2
		C150.6,201.9,150.2,201.8,149.8,201.7z"/>
	<path fill="#363636" d="M159.6,196.1v3.9c0,0.3,0.1,0.5,0.2,0.7c0.1,0.1,0.4,0.2,0.7,0.2h0.8v0.9h-1c-0.6,0-1.1-0.1-1.4-0.4
		c-0.3-0.3-0.5-0.7-0.5-1.4v-3.9h-0.9v-0.9h0.9v-1.7h1.1v1.7h1.7v0.9H159.6z"/>
	<path fill="#363636" d="M163.8,201.5c-0.5-0.3-0.9-0.7-1.2-1.2c-0.3-0.5-0.4-1.1-0.4-1.8c0-0.7,0.1-1.3,0.4-1.8s0.7-0.9,1.2-1.2
		c0.5-0.3,1.1-0.4,1.7-0.4s1.2,0.1,1.7,0.4c0.5,0.3,0.9,0.7,1.2,1.2s0.4,1.1,0.4,1.8s-0.2,1.3-0.5,1.8c-0.3,0.5-0.7,0.9-1.2,1.2
		c-0.5,0.3-1.1,0.4-1.7,0.4C164.9,201.9,164.3,201.8,163.8,201.5z M166.6,200.7c0.3-0.2,0.6-0.5,0.8-0.8s0.3-0.8,0.3-1.3
		c0-0.5-0.1-1-0.3-1.3c-0.2-0.4-0.5-0.6-0.8-0.8c-0.3-0.2-0.7-0.3-1.1-0.3c-0.4,0-0.8,0.1-1.1,0.3c-0.3,0.2-0.6,0.5-0.8,0.8
		c-0.2,0.4-0.3,0.8-0.3,1.3c0,0.5,0.1,1,0.3,1.4c0.2,0.4,0.5,0.6,0.8,0.8s0.7,0.3,1.1,0.3C165.9,200.9,166.3,200.9,166.6,200.7z"/>
	<path fill="#363636" d="M178.1,195.4c0.4,0.2,0.7,0.5,0.9,1c0.2,0.4,0.3,0.9,0.3,1.5v3.9h-1.1v-3.7c0-0.7-0.2-1.2-0.5-1.5
		c-0.3-0.3-0.8-0.5-1.3-0.5c-0.6,0-1,0.2-1.4,0.5s-0.5,0.9-0.5,1.6v3.6h-1.1v-8.9h1.1v3.2c0.2-0.3,0.5-0.6,0.9-0.8
		c0.4-0.2,0.8-0.3,1.3-0.3C177.3,195.1,177.7,195.2,178.1,195.4z"/>
	<path fill="#363636" d="M187.2,198.9h-5.3c0,0.6,0.3,1.2,0.7,1.5c0.4,0.4,0.9,0.5,1.5,0.5c0.5,0,0.9-0.1,1.2-0.3
		c0.3-0.2,0.5-0.5,0.7-0.9h1.2c-0.2,0.6-0.5,1.1-1.1,1.5c-0.5,0.4-1.2,0.6-2,0.6c-0.6,0-1.2-0.1-1.7-0.4c-0.5-0.3-0.9-0.7-1.2-1.2
		c-0.3-0.5-0.4-1.1-0.4-1.8s0.1-1.3,0.4-1.8c0.3-0.5,0.7-0.9,1.1-1.2c0.5-0.3,1.1-0.4,1.7-0.4c0.6,0,1.2,0.1,1.7,0.4
		c0.5,0.3,0.9,0.6,1.1,1.1c0.3,0.5,0.4,1,0.4,1.6C187.2,198.5,187.2,198.7,187.2,198.9z M185.8,197c-0.2-0.3-0.4-0.5-0.7-0.7
		c-0.3-0.2-0.7-0.2-1-0.2c-0.6,0-1,0.2-1.4,0.5c-0.4,0.4-0.6,0.8-0.7,1.5h4.2C186.1,197.6,186,197.3,185.8,197z"/>
	<path fill="#363636" d="M189.7,192.9v8.9h-1.1v-8.9H189.7z"/>
	<path fill="#363636" d="M193.7,195.5c0.4-0.3,0.9-0.4,1.5-0.4c0.6,0,1.1,0.1,1.6,0.4c0.5,0.3,0.8,0.7,1.1,1.2
		c0.3,0.5,0.4,1.1,0.4,1.8c0,0.7-0.1,1.3-0.4,1.8c-0.3,0.5-0.6,0.9-1.1,1.2c-0.5,0.3-1,0.4-1.6,0.4c-0.6,0-1.1-0.1-1.5-0.4
		c-0.4-0.3-0.8-0.6-1-0.9v4.3h-1.1v-9.7h1.1v1.2C192.9,196.1,193.2,195.7,193.7,195.5z M196.9,197.2c-0.2-0.4-0.5-0.6-0.8-0.8
		c-0.3-0.2-0.7-0.3-1.1-0.3c-0.4,0-0.8,0.1-1.1,0.3c-0.3,0.2-0.6,0.5-0.8,0.9s-0.3,0.8-0.3,1.3c0,0.5,0.1,0.9,0.3,1.3
		s0.5,0.7,0.8,0.9c0.3,0.2,0.7,0.3,1.1,0.3c0.4,0,0.8-0.1,1.1-0.3c0.3-0.2,0.6-0.5,0.8-0.9s0.3-0.8,0.3-1.3
		C197.2,198,197.1,197.6,196.9,197.2z"/>
	<path fill="#363636" d="M38.4,212.5c0.4-0.3,0.9-0.4,1.5-0.4c0.6,0,1.1,0.1,1.6,0.4s0.9,0.7,1.1,1.2s0.4,1.1,0.4,1.8
		c0,0.7-0.1,1.3-0.4,1.8c-0.3,0.5-0.6,0.9-1.1,1.2s-1,0.4-1.6,0.4c-0.6,0-1.1-0.1-1.5-0.4c-0.4-0.3-0.8-0.6-1-0.9v4.3h-1.1v-9.7h1.1
		v1.2C37.6,213.1,37.9,212.7,38.4,212.5z M41.6,214.2c-0.2-0.4-0.5-0.6-0.8-0.8c-0.3-0.2-0.7-0.3-1.1-0.3c-0.4,0-0.8,0.1-1.1,0.3
		c-0.3,0.2-0.6,0.5-0.8,0.9c-0.2,0.4-0.3,0.8-0.3,1.3c0,0.5,0.1,0.9,0.3,1.3c0.2,0.4,0.5,0.7,0.8,0.9c0.3,0.2,0.7,0.3,1.1,0.3
		c0.4,0,0.8-0.1,1.1-0.3c0.3-0.2,0.6-0.5,0.8-0.9c0.2-0.4,0.3-0.8,0.3-1.3C41.9,215,41.8,214.6,41.6,214.2z"/>
	<path fill="#363636" d="M44.5,210.9c-0.1-0.1-0.2-0.3-0.2-0.5s0.1-0.4,0.2-0.5s0.3-0.2,0.5-0.2c0.2,0,0.4,0.1,0.5,0.2
		c0.1,0.1,0.2,0.3,0.2,0.5s-0.1,0.4-0.2,0.5c-0.1,0.1-0.3,0.2-0.5,0.2C44.8,211.2,44.6,211.1,44.5,210.9z M45.5,212.2v6.6h-1.1v-6.6
		H45.5z"/>
	<path fill="#363636" d="M52.5,212.8c0.5,0.5,0.7,1.2,0.7,2.1v3.9h-1.1v-3.7c0-0.7-0.2-1.2-0.5-1.5c-0.3-0.3-0.8-0.5-1.3-0.5
		c-0.6,0-1,0.2-1.4,0.5s-0.5,0.9-0.5,1.6v3.6h-1.1v-6.6h1.1v0.9c0.2-0.3,0.5-0.6,0.9-0.8s0.8-0.3,1.2-0.3
		C51.4,212.1,52,212.3,52.5,212.8z"/>
	<path fill="#363636" d="M60.3,212.5c0.4-0.3,0.9-0.4,1.5-0.4c0.6,0,1.1,0.1,1.6,0.4s0.9,0.7,1.1,1.2s0.4,1.1,0.4,1.8
		c0,0.7-0.1,1.3-0.4,1.8c-0.3,0.5-0.6,0.9-1.1,1.2s-1,0.4-1.6,0.4c-0.6,0-1.1-0.1-1.5-0.4c-0.4-0.3-0.8-0.6-1-0.9v4.3h-1.1v-9.7h1.1
		v1.2C59.6,213.1,59.9,212.7,60.3,212.5z M63.5,214.2c-0.2-0.4-0.5-0.6-0.8-0.8c-0.3-0.2-0.7-0.3-1.1-0.3c-0.4,0-0.8,0.1-1.1,0.3
		c-0.3,0.2-0.6,0.5-0.8,0.9c-0.2,0.4-0.3,0.8-0.3,1.3c0,0.5,0.1,0.9,0.3,1.3c0.2,0.4,0.5,0.7,0.8,0.9c0.3,0.2,0.7,0.3,1.1,0.3
		c0.4,0,0.8-0.1,1.1-0.3c0.3-0.2,0.6-0.5,0.8-0.9c0.2-0.4,0.3-0.8,0.3-1.3C63.8,215,63.7,214.6,63.5,214.2z"/>
	<path fill="#363636" d="M67.6,218.5c-0.5-0.3-0.9-0.7-1.2-1.2c-0.3-0.5-0.4-1.1-0.4-1.8c0-0.7,0.1-1.3,0.4-1.8s0.7-0.9,1.2-1.2
		c0.5-0.3,1.1-0.4,1.7-0.4s1.2,0.1,1.7,0.4c0.5,0.3,0.9,0.7,1.2,1.2s0.4,1.1,0.4,1.8s-0.1,1.3-0.5,1.8c-0.3,0.5-0.7,0.9-1.2,1.2
		c-0.5,0.3-1.1,0.4-1.7,0.4C68.6,218.9,68.1,218.8,67.6,218.5z M70.3,217.7c0.3-0.2,0.6-0.5,0.8-0.8s0.3-0.8,0.3-1.3
		c0-0.5-0.1-1-0.3-1.3c-0.2-0.4-0.5-0.6-0.8-0.8c-0.3-0.2-0.7-0.3-1.1-0.3c-0.4,0-0.8,0.1-1.1,0.3c-0.3,0.2-0.6,0.5-0.8,0.8
		c-0.2,0.4-0.3,0.8-0.3,1.3c0,0.5,0.1,1,0.3,1.4c0.2,0.4,0.5,0.6,0.8,0.8s0.7,0.3,1.1,0.3S70,217.9,70.3,217.7z"/>
	<path fill="#363636" d="M74.1,210.9c-0.1-0.1-0.2-0.3-0.2-0.5s0.1-0.4,0.2-0.5s0.3-0.2,0.5-0.2c0.2,0,0.4,0.1,0.5,0.2
		c0.1,0.1,0.2,0.3,0.2,0.5s-0.1,0.4-0.2,0.5c-0.1,0.1-0.3,0.2-0.5,0.2C74.4,211.2,74.2,211.1,74.1,210.9z M75.1,212.2v6.6h-1.1v-6.6
		H75.1z"/>
	<path fill="#363636" d="M82.2,212.8c0.5,0.5,0.7,1.2,0.7,2.1v3.9h-1.1v-3.7c0-0.7-0.2-1.2-0.5-1.5c-0.3-0.3-0.8-0.5-1.3-0.5
		c-0.6,0-1,0.2-1.4,0.5s-0.5,0.9-0.5,1.6v3.6H77v-6.6h1.1v0.9c0.2-0.3,0.5-0.6,0.9-0.8s0.8-0.3,1.2-0.3
		C81,212.1,81.7,212.3,82.2,212.8z"/>
	<path fill="#363636" d="M86,213.1v3.9c0,0.3,0.1,0.5,0.2,0.7c0.1,0.1,0.4,0.2,0.7,0.2h0.8v0.9h-1c-0.6,0-1.1-0.1-1.4-0.4
		c-0.3-0.3-0.5-0.7-0.5-1.4v-3.9h-0.9v-0.9h0.9v-1.7H86v1.7h1.7v0.9H86z"/>
	<path fill="#363636" d="M92.3,213.7c0.3-0.5,0.6-0.9,1.1-1.2s1-0.4,1.6-0.4c0.6,0,1.1,0.1,1.5,0.4c0.4,0.2,0.7,0.6,0.9,0.9v-1.2
		h1.1v6.6h-1.1v-1.2c-0.2,0.4-0.5,0.7-1,1c-0.4,0.3-0.9,0.4-1.5,0.4c-0.6,0-1.1-0.1-1.6-0.4c-0.5-0.3-0.8-0.7-1.1-1.2
		c-0.3-0.5-0.4-1.1-0.4-1.8C91.9,214.8,92,214.2,92.3,213.7z M97.1,214.2c-0.2-0.4-0.5-0.7-0.8-0.8c-0.3-0.2-0.7-0.3-1.1-0.3
		c-0.4,0-0.8,0.1-1.1,0.3c-0.3,0.2-0.6,0.5-0.8,0.8c-0.2,0.4-0.3,0.8-0.3,1.3c0,0.5,0.1,0.9,0.3,1.3c0.2,0.4,0.5,0.7,0.8,0.9
		c0.3,0.2,0.7,0.3,1.1,0.3c0.4,0,0.8-0.1,1.1-0.3c0.3-0.2,0.6-0.5,0.8-0.9c0.2-0.4,0.3-0.8,0.3-1.3S97.3,214.6,97.1,214.2z"/>
	<path fill="#363636" d="M103.6,213.7c0.3-0.5,0.6-0.9,1.1-1.2s1-0.4,1.6-0.4c0.5,0,1,0.1,1.4,0.4c0.4,0.2,0.8,0.5,1,0.9v-3.5h1.1
		v8.9h-1.1v-1.2c-0.2,0.4-0.5,0.7-1,1c-0.4,0.3-0.9,0.4-1.5,0.4c-0.6,0-1.1-0.1-1.6-0.4s-0.9-0.7-1.1-1.2c-0.3-0.5-0.4-1.1-0.4-1.8
		C103.2,214.8,103.3,214.2,103.6,213.7z M108.4,214.2c-0.2-0.4-0.5-0.7-0.8-0.8c-0.3-0.2-0.7-0.3-1.1-0.3c-0.4,0-0.8,0.1-1.1,0.3
		c-0.3,0.2-0.6,0.5-0.8,0.8c-0.2,0.4-0.3,0.8-0.3,1.3c0,0.5,0.1,0.9,0.3,1.3c0.2,0.4,0.5,0.7,0.8,0.9c0.3,0.2,0.7,0.3,1.1,0.3
		c0.4,0,0.8-0.1,1.1-0.3c0.3-0.2,0.6-0.5,0.8-0.9c0.2-0.4,0.3-0.8,0.3-1.3S108.6,214.6,108.4,214.2z"/>
	<path fill="#363636" d="M117.7,215.9h-5.3c0,0.6,0.3,1.2,0.7,1.5c0.4,0.4,0.9,0.5,1.5,0.5c0.5,0,0.9-0.1,1.2-0.3
		c0.3-0.2,0.5-0.5,0.7-0.9h1.2c-0.2,0.6-0.5,1.1-1.1,1.5c-0.5,0.4-1.2,0.6-2,0.6c-0.6,0-1.2-0.1-1.7-0.4c-0.5-0.3-0.9-0.7-1.2-1.2
		c-0.3-0.5-0.4-1.1-0.4-1.8s0.1-1.3,0.4-1.8s0.7-0.9,1.1-1.2c0.5-0.3,1.1-0.4,1.7-0.4c0.6,0,1.2,0.1,1.7,0.4
		c0.5,0.3,0.9,0.6,1.1,1.1c0.3,0.5,0.4,1,0.4,1.6C117.7,215.5,117.7,215.7,117.7,215.9z M116.3,214c-0.2-0.3-0.4-0.5-0.8-0.7
		c-0.3-0.2-0.7-0.2-1-0.2c-0.6,0-1,0.2-1.4,0.5c-0.4,0.4-0.6,0.8-0.7,1.5h4.2C116.6,214.6,116.5,214.3,116.3,214z"/>
	<path fill="#363636" d="M120.1,218.7c-0.4-0.2-0.7-0.4-0.9-0.7c-0.2-0.3-0.4-0.7-0.4-1.1h1.1c0,0.3,0.2,0.6,0.5,0.8
		c0.3,0.2,0.6,0.3,1.1,0.3c0.4,0,0.7-0.1,1-0.3c0.2-0.2,0.4-0.4,0.4-0.7c0-0.3-0.1-0.5-0.4-0.6c-0.3-0.1-0.7-0.3-1.2-0.4
		c-0.5-0.1-0.9-0.3-1.2-0.4c-0.3-0.1-0.6-0.3-0.8-0.6c-0.2-0.3-0.3-0.6-0.3-1c0-0.3,0.1-0.6,0.3-0.9c0.2-0.3,0.5-0.5,0.9-0.7
		c0.4-0.2,0.8-0.2,1.3-0.2c0.7,0,1.3,0.2,1.8,0.6c0.4,0.4,0.7,0.9,0.7,1.5h-1.1c0-0.3-0.2-0.6-0.4-0.8s-0.6-0.3-1-0.3
		c-0.4,0-0.7,0.1-0.9,0.3c-0.2,0.2-0.3,0.4-0.3,0.7c0,0.2,0.1,0.4,0.2,0.5c0.1,0.1,0.3,0.3,0.5,0.3s0.5,0.2,0.9,0.3
		c0.5,0.1,0.9,0.3,1.2,0.4s0.5,0.3,0.8,0.6s0.3,0.6,0.3,1c0,0.4-0.1,0.7-0.3,1c-0.2,0.3-0.5,0.5-0.8,0.7c-0.4,0.2-0.8,0.2-1.3,0.2
		C121,218.9,120.5,218.8,120.1,218.7z"/>
	<path fill="#363636" d="M125.4,210.9c-0.1-0.1-0.2-0.3-0.2-0.5s0.1-0.4,0.2-0.5s0.3-0.2,0.5-0.2c0.2,0,0.4,0.1,0.5,0.2
		c0.1,0.1,0.2,0.3,0.2,0.5s-0.1,0.4-0.2,0.5c-0.1,0.1-0.3,0.2-0.5,0.2C125.7,211.2,125.6,211.1,125.4,210.9z M126.5,212.2v6.6h-1.1
		v-6.6H126.5z"/>
	<path fill="#363636" d="M132.6,212.5c0.4,0.2,0.7,0.6,1,0.9v-1.2h1.1v6.7c0,0.6-0.1,1.1-0.4,1.6s-0.6,0.8-1.1,1.1
		c-0.5,0.3-1,0.4-1.7,0.4c-0.9,0-1.6-0.2-2.2-0.6c-0.6-0.4-0.9-1-1-1.7h1.1c0.1,0.4,0.4,0.7,0.7,1s0.8,0.4,1.4,0.4
		c0.6,0,1.1-0.2,1.5-0.6s0.6-0.9,0.6-1.6v-1.4c-0.2,0.4-0.5,0.7-1,1c-0.4,0.3-0.9,0.4-1.5,0.4c-0.6,0-1.1-0.1-1.6-0.4
		s-0.9-0.7-1.1-1.2c-0.3-0.5-0.4-1.1-0.4-1.8c0-0.7,0.1-1.3,0.4-1.8s0.6-0.9,1.1-1.2s1-0.4,1.6-0.4
		C131.6,212.1,132.1,212.2,132.6,212.5z M133.2,214.2c-0.2-0.4-0.5-0.7-0.8-0.8c-0.3-0.2-0.7-0.3-1.1-0.3s-0.8,0.1-1.1,0.3
		c-0.3,0.2-0.6,0.5-0.8,0.8c-0.2,0.4-0.3,0.8-0.3,1.3c0,0.5,0.1,0.9,0.3,1.3c0.2,0.4,0.5,0.7,0.8,0.9c0.3,0.2,0.7,0.3,1.1,0.3
		s0.8-0.1,1.1-0.3c0.3-0.2,0.6-0.5,0.8-0.9c0.2-0.4,0.3-0.8,0.3-1.3S133.4,214.6,133.2,214.2z"/>
	<path fill="#363636" d="M141.6,212.8c0.5,0.5,0.7,1.2,0.7,2.1v3.9h-1.1v-3.7c0-0.7-0.2-1.2-0.5-1.5c-0.3-0.3-0.8-0.5-1.3-0.5
		c-0.6,0-1,0.2-1.4,0.5s-0.5,0.9-0.5,1.6v3.6h-1.1v-6.6h1.1v0.9c0.2-0.3,0.5-0.6,0.9-0.8s0.8-0.3,1.2-0.3
		C140.5,212.1,141.1,212.3,141.6,212.8z"/>
	<path fill="#363636" d="M147.3,213.7c0.3-0.5,0.6-0.9,1.1-1.2c0.5-0.3,1-0.4,1.6-0.4c0.5,0,1,0.1,1.4,0.4c0.4,0.2,0.8,0.5,1,0.9
		v-3.5h1.1v8.9h-1.1v-1.2c-0.2,0.4-0.5,0.7-1,1c-0.4,0.3-0.9,0.4-1.5,0.4c-0.6,0-1.1-0.1-1.6-0.4c-0.5-0.3-0.9-0.7-1.1-1.2
		c-0.3-0.5-0.4-1.1-0.4-1.8C146.9,214.8,147.1,214.2,147.3,213.7z M152.2,214.2c-0.2-0.4-0.5-0.7-0.8-0.8c-0.3-0.2-0.7-0.3-1.1-0.3
		s-0.8,0.1-1.1,0.3c-0.3,0.2-0.6,0.5-0.8,0.8c-0.2,0.4-0.3,0.8-0.3,1.3c0,0.5,0.1,0.9,0.3,1.3s0.5,0.7,0.8,0.9
		c0.3,0.2,0.7,0.3,1.1,0.3s0.8-0.1,1.1-0.3c0.3-0.2,0.6-0.5,0.8-0.9c0.2-0.4,0.3-0.8,0.3-1.3S152.4,214.6,152.2,214.2z"/>
	<path fill="#363636" d="M155.5,210.9c-0.1-0.1-0.2-0.3-0.2-0.5s0.1-0.4,0.2-0.5c0.1-0.1,0.3-0.2,0.5-0.2c0.2,0,0.4,0.1,0.5,0.2
		s0.2,0.3,0.2,0.5s-0.1,0.4-0.2,0.5c-0.1,0.1-0.3,0.2-0.5,0.2C155.8,211.2,155.6,211.1,155.5,210.9z M156.5,212.2v6.6h-1.1v-6.6
		H156.5z"/>
	<path fill="#363636" d="M160.3,212.4c0.4-0.2,0.8-0.3,1.3-0.3v1.1h-0.3c-1.2,0-1.8,0.7-1.8,2v3.6h-1.1v-6.6h1.1v1.1
		C159.7,212.9,160,212.6,160.3,212.4z"/>
	<path fill="#363636" d="M168.8,215.9h-5.3c0,0.6,0.3,1.2,0.7,1.5c0.4,0.4,0.9,0.5,1.5,0.5c0.5,0,0.9-0.1,1.2-0.3
		c0.3-0.2,0.5-0.5,0.7-0.9h1.2c-0.2,0.6-0.5,1.1-1.1,1.5c-0.5,0.4-1.2,0.6-2,0.6c-0.6,0-1.2-0.1-1.7-0.4c-0.5-0.3-0.9-0.7-1.2-1.2
		c-0.3-0.5-0.4-1.1-0.4-1.8s0.1-1.3,0.4-1.8c0.3-0.5,0.7-0.9,1.1-1.2c0.5-0.3,1.1-0.4,1.7-0.4c0.6,0,1.2,0.1,1.7,0.4
		c0.5,0.3,0.9,0.6,1.1,1.1c0.3,0.5,0.4,1,0.4,1.6C168.9,215.5,168.9,215.7,168.8,215.9z M167.5,214c-0.2-0.3-0.4-0.5-0.8-0.7
		c-0.3-0.2-0.7-0.2-1-0.2c-0.6,0-1,0.2-1.4,0.5c-0.4,0.4-0.6,0.8-0.7,1.5h4.2C167.8,214.6,167.7,214.3,167.5,214z"/>
	<path fill="#363636" d="M170.3,213.7c0.3-0.5,0.6-0.9,1.1-1.2s1-0.4,1.7-0.4c0.8,0,1.5,0.2,2,0.6c0.5,0.4,0.9,0.9,1,1.6H175
		c-0.1-0.4-0.3-0.7-0.7-0.9c-0.3-0.2-0.7-0.3-1.2-0.3c-0.6,0-1.1,0.2-1.5,0.6c-0.4,0.4-0.6,1-0.6,1.8c0,0.8,0.2,1.4,0.6,1.8
		c0.4,0.4,0.9,0.6,1.5,0.6c0.5,0,0.9-0.1,1.2-0.3c0.3-0.2,0.5-0.5,0.7-1h1.2c-0.2,0.7-0.5,1.2-1.1,1.6c-0.5,0.4-1.2,0.6-2,0.6
		c-0.6,0-1.2-0.1-1.7-0.4c-0.5-0.3-0.9-0.7-1.1-1.2c-0.3-0.5-0.4-1.1-0.4-1.8C169.9,214.8,170,214.2,170.3,213.7z"/>
	<path fill="#363636" d="M178.9,213.1v3.9c0,0.3,0.1,0.5,0.2,0.7s0.4,0.2,0.7,0.2h0.8v0.9h-1c-0.6,0-1.1-0.1-1.4-0.4
		s-0.5-0.7-0.5-1.4v-3.9H177v-0.9h0.9v-1.7h1.1v1.7h1.7v0.9H178.9z"/>
	<path fill="#363636" d="M182,210.9c-0.1-0.1-0.2-0.3-0.2-0.5s0.1-0.4,0.2-0.5c0.1-0.1,0.3-0.2,0.5-0.2c0.2,0,0.4,0.1,0.5,0.2
		s0.2,0.3,0.2,0.5s-0.1,0.4-0.2,0.5c-0.1,0.1-0.3,0.2-0.5,0.2C182.3,211.2,182.2,211.1,182,210.9z M183.1,212.2v6.6H182v-6.6H183.1z
		"/>
	<path fill="#363636" d="M186.1,218.5c-0.5-0.3-0.9-0.7-1.2-1.2c-0.3-0.5-0.4-1.1-0.4-1.8c0-0.7,0.1-1.3,0.4-1.8s0.7-0.9,1.2-1.2
		c0.5-0.3,1.1-0.4,1.7-0.4s1.2,0.1,1.7,0.4c0.5,0.3,0.9,0.7,1.2,1.2s0.4,1.1,0.4,1.8s-0.2,1.3-0.5,1.8c-0.3,0.5-0.7,0.9-1.2,1.2
		c-0.5,0.3-1.1,0.4-1.7,0.4C187.2,218.9,186.6,218.8,186.1,218.5z M188.9,217.7c0.3-0.2,0.6-0.5,0.8-0.8c0.2-0.4,0.3-0.8,0.3-1.3
		c0-0.5-0.1-1-0.3-1.3c-0.2-0.4-0.5-0.6-0.8-0.8c-0.3-0.2-0.7-0.3-1.1-0.3c-0.4,0-0.8,0.1-1.1,0.3c-0.3,0.2-0.6,0.5-0.8,0.8
		c-0.2,0.4-0.3,0.8-0.3,1.3c0,0.5,0.1,1,0.3,1.4c0.2,0.4,0.5,0.6,0.8,0.8s0.7,0.3,1.1,0.3S188.6,217.9,188.9,217.7z"/>
	<path fill="#363636" d="M197.8,212.8c0.5,0.5,0.7,1.2,0.7,2.1v3.9h-1.1v-3.7c0-0.7-0.2-1.2-0.5-1.5c-0.3-0.3-0.8-0.5-1.3-0.5
		c-0.6,0-1,0.2-1.4,0.5c-0.3,0.4-0.5,0.9-0.5,1.6v3.6h-1.1v-6.6h1.1v0.9c0.2-0.3,0.5-0.6,0.9-0.8c0.4-0.2,0.8-0.3,1.2-0.3
		C196.6,212.1,197.3,212.3,197.8,212.8z"/>
</g>
<g>
	<path fill="#363636" d="M41.4,178.3l-2.2-3.8h-0.9v3.8h-2v-9.8H40c0.8,0,1.4,0.1,1.9,0.4c0.5,0.3,0.9,0.6,1.2,1.1
		c0.3,0.5,0.4,1,0.4,1.5c0,0.6-0.2,1.2-0.6,1.7c-0.4,0.5-0.9,0.9-1.7,1.1l2.3,4H41.4z M38.3,173H40c0.5,0,0.9-0.1,1.2-0.4
		s0.4-0.6,0.4-1.1c0-0.4-0.1-0.8-0.4-1c-0.3-0.2-0.7-0.4-1.2-0.4h-1.6V173z"/>
	<path fill="#363636" d="M45.3,172.3c0.3-0.6,0.7-1.1,1.3-1.4c0.5-0.3,1.1-0.5,1.8-0.5c0.6,0,1.1,0.1,1.5,0.3s0.8,0.5,1,0.9v-1.1h2
		v7.8h-2v-1.1c-0.3,0.4-0.6,0.7-1,0.9c-0.4,0.2-1,0.4-1.5,0.4c-0.7,0-1.2-0.2-1.8-0.5c-0.5-0.3-1-0.8-1.3-1.4
		c-0.3-0.6-0.5-1.3-0.5-2.1C44.8,173.6,45,172.9,45.3,172.3z M50.7,173.2c-0.2-0.3-0.4-0.6-0.8-0.8c-0.3-0.2-0.7-0.3-1-0.3
		c-0.4,0-0.7,0.1-1,0.3c-0.3,0.2-0.6,0.4-0.7,0.8s-0.3,0.7-0.3,1.2s0.1,0.9,0.3,1.2c0.2,0.3,0.4,0.6,0.8,0.8c0.3,0.2,0.6,0.3,1,0.3
		c0.4,0,0.7-0.1,1-0.3c0.3-0.2,0.6-0.4,0.8-0.8c0.2-0.3,0.3-0.7,0.3-1.2S50.8,173.5,50.7,173.2z"/>
	<path fill="#363636" d="M54.8,172.3c0.3-0.6,0.7-1.1,1.3-1.4c0.5-0.3,1.1-0.5,1.8-0.5c0.5,0,1,0.1,1.4,0.3c0.5,0.2,0.8,0.5,1.1,0.9
		v-3.7h2v10.4h-2v-1.1c-0.2,0.4-0.6,0.7-1,0.9c-0.4,0.2-0.9,0.3-1.5,0.3c-0.7,0-1.3-0.2-1.8-0.5s-1-0.8-1.3-1.4
		c-0.3-0.6-0.5-1.3-0.5-2.1C54.3,173.6,54.5,172.9,54.8,172.3z M60.1,173.2c-0.2-0.3-0.4-0.6-0.8-0.8c-0.3-0.2-0.7-0.3-1-0.3
		c-0.4,0-0.7,0.1-1,0.3c-0.3,0.2-0.6,0.4-0.7,0.8s-0.3,0.7-0.3,1.2s0.1,0.9,0.3,1.2c0.2,0.3,0.4,0.6,0.8,0.8c0.3,0.2,0.6,0.3,1,0.3
		c0.4,0,0.7-0.1,1-0.3c0.3-0.2,0.6-0.4,0.8-0.8c0.2-0.3,0.3-0.7,0.3-1.2S60.3,173.5,60.1,173.2z"/>
	<path fill="#363636" d="M64.5,169.2c-0.2-0.2-0.3-0.5-0.3-0.8c0-0.3,0.1-0.6,0.3-0.8c0.2-0.2,0.5-0.3,0.9-0.3s0.6,0.1,0.9,0.3
		c0.2,0.2,0.3,0.5,0.3,0.8c0,0.3-0.1,0.6-0.3,0.8c-0.2,0.2-0.5,0.3-0.9,0.3S64.7,169.5,64.5,169.2z M66.3,170.5v7.8h-2v-7.8H66.3z"
		/>
	<path fill="#363636" d="M68.2,172.3c0.3-0.6,0.8-1.1,1.4-1.4c0.6-0.3,1.2-0.5,2-0.5c1,0,1.8,0.2,2.4,0.7s1.1,1.2,1.3,2h-2.1
		c-0.1-0.3-0.3-0.6-0.6-0.8s-0.6-0.3-1-0.3c-0.6,0-1,0.2-1.3,0.6c-0.3,0.4-0.5,1-0.5,1.7c0,0.7,0.2,1.3,0.5,1.7
		c0.3,0.4,0.8,0.6,1.3,0.6c0.8,0,1.3-0.4,1.6-1.1h2.1c-0.2,0.8-0.6,1.5-1.3,2c-0.6,0.5-1.4,0.7-2.4,0.7c-0.7,0-1.4-0.2-2-0.5
		c-0.6-0.3-1-0.8-1.4-1.4c-0.3-0.6-0.5-1.3-0.5-2.1S67.9,172.9,68.2,172.3z"/>
	<path fill="#363636" d="M76.6,172.3c0.3-0.6,0.7-1.1,1.3-1.4c0.5-0.3,1.1-0.5,1.8-0.5c0.6,0,1.1,0.1,1.5,0.3s0.8,0.5,1,0.9v-1.1h2
		v7.8h-2v-1.1c-0.3,0.4-0.6,0.7-1,0.9c-0.4,0.2-1,0.4-1.5,0.4c-0.7,0-1.2-0.2-1.8-0.5c-0.5-0.3-1-0.8-1.3-1.4
		c-0.3-0.6-0.5-1.3-0.5-2.1C76.1,173.6,76.3,172.9,76.6,172.3z M82,173.2c-0.2-0.3-0.4-0.6-0.8-0.8c-0.3-0.2-0.7-0.3-1-0.3
		c-0.4,0-0.7,0.1-1,0.3c-0.3,0.2-0.6,0.4-0.7,0.8s-0.3,0.7-0.3,1.2s0.1,0.9,0.3,1.2c0.2,0.3,0.4,0.6,0.8,0.8c0.3,0.2,0.6,0.3,1,0.3
		c0.4,0,0.7-0.1,1-0.3c0.3-0.2,0.6-0.4,0.8-0.8c0.2-0.3,0.3-0.7,0.3-1.2S82.1,173.5,82,173.2z"/>
	<path fill="#363636" d="M88.1,167.9v10.4h-2v-10.4H88.1z"/>
	<path fill="#363636" d="M95.3,168.5v9.8h-2v-9.8H95.3z"/>
	<path fill="#363636" d="M103.8,171.3c0.6,0.6,0.9,1.4,0.9,2.4v4.5h-2V174c0-0.6-0.2-1.1-0.5-1.4s-0.7-0.5-1.3-0.5
		c-0.5,0-1,0.2-1.3,0.5c-0.3,0.3-0.5,0.8-0.5,1.4v4.3h-2v-7.8h2v1c0.3-0.3,0.6-0.6,1-0.8c0.4-0.2,0.9-0.3,1.3-0.3
		C102.5,170.4,103.2,170.7,103.8,171.3z"/>
	<path fill="#363636" d="M107.8,178c-0.5-0.2-0.9-0.5-1.2-0.9c-0.3-0.4-0.5-0.8-0.5-1.3h2c0,0.3,0.2,0.5,0.4,0.7s0.6,0.3,1,0.3
		c0.4,0,0.7-0.1,0.9-0.2s0.3-0.3,0.3-0.6c0-0.3-0.1-0.4-0.4-0.6c-0.3-0.1-0.7-0.3-1.2-0.4c-0.6-0.1-1.1-0.3-1.4-0.4
		c-0.4-0.1-0.7-0.4-1-0.7c-0.3-0.3-0.4-0.7-0.4-1.2c0-0.4,0.1-0.8,0.4-1.2c0.2-0.4,0.6-0.6,1.1-0.8c0.5-0.2,1-0.3,1.6-0.3
		c0.9,0,1.7,0.2,2.2,0.7c0.6,0.5,0.9,1.1,0.9,1.9h-1.9c0-0.3-0.2-0.6-0.4-0.7c-0.2-0.2-0.5-0.3-0.9-0.3c-0.4,0-0.6,0.1-0.8,0.2
		s-0.3,0.3-0.3,0.5c0,0.3,0.1,0.5,0.4,0.6c0.3,0.1,0.7,0.3,1.2,0.4c0.6,0.1,1,0.3,1.4,0.4c0.4,0.1,0.7,0.4,0.9,0.7
		c0.3,0.3,0.4,0.7,0.4,1.2c0,0.4-0.1,0.8-0.4,1.2c-0.2,0.4-0.6,0.6-1.1,0.8c-0.5,0.2-1,0.3-1.6,0.3
		C108.8,178.4,108.3,178.3,107.8,178z"/>
	<path fill="#363636" d="M114.3,169.2c-0.2-0.2-0.3-0.5-0.3-0.8c0-0.3,0.1-0.6,0.3-0.8c0.2-0.2,0.5-0.3,0.9-0.3s0.6,0.1,0.9,0.3
		c0.2,0.2,0.3,0.5,0.3,0.8c0,0.3-0.1,0.6-0.3,0.8c-0.2,0.2-0.5,0.3-0.9,0.3S114.5,169.5,114.3,169.2z M116.1,170.5v7.8h-2v-7.8
		H116.1z"/>
	<path fill="#363636" d="M122.6,170.7c0.4,0.2,0.8,0.5,1,0.9v-1.1h2v7.8c0,0.7-0.1,1.4-0.4,1.9c-0.3,0.6-0.7,1-1.3,1.3
		c-0.6,0.3-1.3,0.5-2.1,0.5c-1.1,0-2-0.3-2.7-0.8c-0.7-0.5-1.1-1.2-1.2-2.1h1.9c0.1,0.4,0.3,0.6,0.7,0.8c0.3,0.2,0.8,0.3,1.2,0.3
		c0.6,0,1-0.2,1.4-0.5c0.4-0.3,0.5-0.9,0.5-1.5v-1.2c-0.3,0.4-0.6,0.7-1,0.9c-0.4,0.2-0.9,0.4-1.5,0.4c-0.7,0-1.3-0.2-1.8-0.5
		s-1-0.8-1.3-1.4c-0.3-0.6-0.5-1.3-0.5-2.1c0-0.8,0.2-1.5,0.5-2.1c0.3-0.6,0.7-1.1,1.3-1.4c0.5-0.3,1.1-0.5,1.8-0.5
		C121.6,170.4,122.1,170.5,122.6,170.7z M123.3,173.2c-0.2-0.3-0.4-0.6-0.8-0.8c-0.3-0.2-0.7-0.3-1-0.3c-0.4,0-0.7,0.1-1,0.3
		c-0.3,0.2-0.6,0.4-0.7,0.8s-0.3,0.7-0.3,1.2s0.1,0.9,0.3,1.2c0.2,0.3,0.4,0.6,0.8,0.8c0.3,0.2,0.6,0.3,1,0.3c0.4,0,0.7-0.1,1-0.3
		c0.3-0.2,0.6-0.4,0.8-0.8c0.2-0.3,0.3-0.7,0.3-1.2S123.5,173.5,123.3,173.2z"/>
	<path fill="#363636" d="M133.4,170.8c0.5,0.3,0.8,0.6,1.1,1.1c0.3,0.5,0.4,1.1,0.4,1.8v4.5h-2V174c0-0.6-0.2-1.1-0.5-1.4
		c-0.3-0.3-0.7-0.5-1.3-0.5c-0.5,0-1,0.2-1.3,0.5c-0.3,0.3-0.5,0.8-0.5,1.4v4.3h-2v-10.4h2v3.6c0.3-0.3,0.6-0.6,1-0.8
		s0.9-0.3,1.4-0.3C132.5,170.4,133,170.5,133.4,170.8z"/>
	<path fill="#363636" d="M139,172.1v3.8c0,0.3,0.1,0.5,0.2,0.6c0.1,0.1,0.3,0.2,0.6,0.2h0.9v1.7h-1.2c-1.7,0-2.5-0.8-2.5-2.4v-3.7
		h-0.9v-1.6h0.9v-1.9h2v1.9h1.7v1.6H139z"/>
</g>
<g>
	<line fill="none" stroke="#3C61ED" stroke-width="1.5" stroke-miterlimit="10" x1="73" y1="48.8" x2="47.4" y2="86.9"/>
	<line fill="none" stroke="#3C61ED" stroke-width="1.5" stroke-miterlimit="10" x1="73" y1="48.8" x2="95.4" y2="86.9"/>
	<line fill="none" stroke="#3C61ED" stroke-width="1.5" stroke-miterlimit="10" x1="47.4" y1="86.9" x2="95.4" y2="86.9"/>
	<g>
		<circle fill="#F2EDED" stroke="#3C61ED" stroke-width="1.5" stroke-miterlimit="10" cx="71.6" cy="48.8" r="11.6"/>
		<g>
			<path fill="none" stroke="#3C61ED" stroke-width="1.5" stroke-miterlimit="10" d="M67.9,45.3c0-2.1,1.7-3.8,3.8-3.8
				s3.8,1.7,3.8,3.8c0,3.3-3.8,3.4-3.8,5.8c0,2.4,0,2.5,0,2.5"/>
			<line fill="none" stroke="#3C61ED" stroke-width="1.5" stroke-miterlimit="10" x1="71.6" y1="54.8" x2="71.6" y2="56.1"/>
		</g>
	</g>
	<g>
		<g>
			<circle fill="#F2EDED" stroke="#3C61ED" stroke-width="1.5" stroke-miterlimit="10" cx="47.4" cy="86.9" r="11.6"/>
			<g>
				<path fill="none" stroke="#3C61ED" stroke-width="1.5" stroke-miterlimit="10" d="M43.6,83.4c0-2.1,1.7-3.8,3.8-3.8
					s3.8,1.7,3.8,3.8c0,3.3-3.8,3.4-3.8,5.8c0,2.4,0,2.5,0,2.5"/>
				<line fill="none" stroke="#3C61ED" stroke-width="1.5" stroke-miterlimit="10" x1="47.4" y1="92.9" x2="47.4" y2="94.2"/>
			</g>
		</g>
		<g>
			<circle fill="#F2EDED" stroke="#3C61ED" stroke-width="1.5" stroke-miterlimit="10" cx="95.4" cy="86.9" r="11.6"/>
			<g>
				<path fill="none" stroke="#3C61ED" stroke-width="1.5" stroke-miterlimit="10" d="M91.6,83.4c0-2.1,1.7-3.8,3.8-3.8
					s3.8,1.7,3.8,3.8c0,3.3-3.8,3.4-3.8,5.8c0,2.4,0,2.5,0,2.5"/>
				<line fill="none" stroke="#3C61ED" stroke-width="1.5" stroke-miterlimit="10" x1="95.4" y1="92.9" x2="95.4" y2="94.2"/>
			</g>
		</g>
	</g>
</g>
</svg>
