<?xml version="1.0" encoding="utf-8"?>
<!-- Generator: Adobe Illustrator 26.3.1, SVG Export Plug-In . SVG Version: 6.00 Build 0)  -->
<svg version="1.1" baseProfile="tiny" id="Layer_1" xmlns="http://www.w3.org/2000/svg" xmlns:xlink="http://www.w3.org/1999/xlink"
	 x="0px" y="0px" width="260px" height="258.2px" viewBox="0 0 260 258.2" overflow="visible" xml:space="preserve">
<path fill="#F2EDED" d="M243.3,258.2H16.7c-9.2,0-16.7-7.5-16.7-16.7V16.7C0,7.5,7.5,0,16.7,0h226.5c9.2,0,16.7,7.5,16.7,16.7v224.8
	C260,250.7,252.5,258.2,243.3,258.2z"/>
<g>
	<path fill="#363636" d="M42.7,195.9c-0.2-0.5-0.6-0.9-1-1.1c-0.4-0.3-1-0.4-1.5-0.4s-1.1,0.1-1.6,0.4c-0.5,0.3-0.8,0.7-1.1,1.2
		c-0.3,0.5-0.4,1.1-0.4,1.7c0,0.7,0.1,1.2,0.4,1.7c0.3,0.5,0.6,0.9,1.1,1.1c0.5,0.3,1,0.4,1.6,0.4c0.8,0,1.5-0.2,2-0.7
		c0.5-0.5,0.8-1.1,0.9-2h-3.3v-0.9h4.5v0.8c-0.1,0.7-0.3,1.3-0.6,1.9c-0.4,0.6-0.9,1-1.5,1.4c-0.6,0.3-1.3,0.5-2,0.5
		c-0.8,0-1.5-0.2-2.1-0.5c-0.6-0.4-1.1-0.9-1.5-1.5c-0.4-0.6-0.6-1.4-0.6-2.2c0-0.8,0.2-1.5,0.6-2.2c0.4-0.7,0.9-1.2,1.5-1.5
		s1.3-0.5,2.1-0.5c0.9,0,1.7,0.2,2.4,0.7c0.7,0.4,1.2,1.1,1.5,1.9H42.7z"/>
	<path fill="#363636" d="M47.6,195.4c0.4-0.2,0.8-0.3,1.3-0.3v1.1h-0.3c-1.2,0-1.8,0.7-1.8,2v3.6h-1.1v-6.6h1.1v1.1
		C46.9,195.9,47.2,195.6,47.6,195.4z"/>
	<path fill="#363636" d="M51.3,201.5c-0.5-0.3-0.9-0.7-1.2-1.2c-0.3-0.5-0.4-1.1-0.4-1.8c0-0.7,0.1-1.3,0.4-1.8s0.7-0.9,1.2-1.2
		c0.5-0.3,1.1-0.4,1.7-0.4s1.2,0.1,1.7,0.4c0.5,0.3,0.9,0.7,1.2,1.2s0.4,1.1,0.4,1.8s-0.1,1.3-0.5,1.8c-0.3,0.5-0.7,0.9-1.2,1.2
		c-0.5,0.3-1.1,0.4-1.7,0.4C52.4,201.9,51.8,201.8,51.3,201.5z M54.1,200.7c0.3-0.2,0.6-0.5,0.8-0.8s0.3-0.8,0.3-1.3
		c0-0.5-0.1-1-0.3-1.3c-0.2-0.4-0.5-0.6-0.8-0.8c-0.3-0.2-0.7-0.3-1.1-0.3c-0.4,0-0.8,0.1-1.1,0.3c-0.3,0.2-0.6,0.5-0.8,0.8
		c-0.2,0.4-0.3,0.8-0.3,1.3c0,0.5,0.1,1,0.3,1.4c0.2,0.4,0.5,0.6,0.8,0.8s0.7,0.3,1.1,0.3S53.8,200.9,54.1,200.7z"/>
	<path fill="#363636" d="M63.6,195.2v6.6h-1.1v-1c-0.2,0.3-0.5,0.6-0.9,0.8c-0.4,0.2-0.8,0.3-1.2,0.3c-0.5,0-1-0.1-1.4-0.3
		c-0.4-0.2-0.7-0.5-1-1c-0.2-0.4-0.4-0.9-0.4-1.5v-3.9h1.1v3.7c0,0.6,0.2,1.1,0.5,1.5s0.8,0.5,1.3,0.5c0.6,0,1-0.2,1.4-0.5
		c0.3-0.4,0.5-0.9,0.5-1.6v-3.6H63.6z"/>
	<path fill="#363636" d="M67.5,195.5c0.4-0.3,0.9-0.4,1.5-0.4c0.6,0,1.1,0.1,1.6,0.4s0.9,0.7,1.1,1.2s0.4,1.1,0.4,1.8
		c0,0.7-0.1,1.3-0.4,1.8c-0.3,0.5-0.6,0.9-1.1,1.2s-1,0.4-1.6,0.4c-0.6,0-1.1-0.1-1.5-0.4c-0.4-0.3-0.8-0.6-1-0.9v4.3h-1.1v-9.7h1.1
		v1.2C66.8,196.1,67.1,195.7,67.5,195.5z M70.7,197.2c-0.2-0.4-0.5-0.6-0.8-0.8c-0.3-0.2-0.7-0.3-1.1-0.3c-0.4,0-0.8,0.1-1.1,0.3
		c-0.3,0.2-0.6,0.5-0.8,0.9c-0.2,0.4-0.3,0.8-0.3,1.3c0,0.5,0.1,0.9,0.3,1.3c0.2,0.4,0.5,0.7,0.8,0.9c0.3,0.2,0.7,0.3,1.1,0.3
		c0.4,0,0.8-0.1,1.1-0.3c0.3-0.2,0.6-0.5,0.8-0.9c0.2-0.4,0.3-0.8,0.3-1.3C71,198,70.9,197.6,70.7,197.2z"/>
	<path fill="#363636" d="M77.9,192.9v8.9h-1.1v-8.9H77.9z"/>
	<path fill="#363636" d="M79.8,193.9c-0.1-0.1-0.2-0.3-0.2-0.5s0.1-0.4,0.2-0.5s0.3-0.2,0.5-0.2c0.2,0,0.4,0.1,0.5,0.2
		c0.1,0.1,0.2,0.3,0.2,0.5s-0.1,0.4-0.2,0.5c-0.1,0.1-0.3,0.2-0.5,0.2C80.1,194.2,79.9,194.1,79.8,193.9z M80.8,195.2v6.6h-1.1v-6.6
		H80.8z"/>
	<path fill="#363636" d="M85.2,200.8l2-5.6h1.2l-2.6,6.6h-1.3l-2.6-6.6h1.2L85.2,200.8z"/>
	<path fill="#363636" d="M95.4,198.9h-5.3c0,0.6,0.3,1.2,0.7,1.5c0.4,0.4,0.9,0.5,1.5,0.5c0.5,0,0.9-0.1,1.2-0.3
		c0.3-0.2,0.5-0.5,0.7-0.9h1.2c-0.2,0.6-0.5,1.1-1.1,1.5c-0.5,0.4-1.2,0.6-2,0.6c-0.6,0-1.2-0.1-1.7-0.4c-0.5-0.3-0.9-0.7-1.2-1.2
		c-0.3-0.5-0.4-1.1-0.4-1.8s0.1-1.3,0.4-1.8s0.7-0.9,1.1-1.2c0.5-0.3,1.1-0.4,1.7-0.4c0.6,0,1.2,0.1,1.7,0.4
		c0.5,0.3,0.9,0.6,1.1,1.1c0.3,0.5,0.4,1,0.4,1.6C95.4,198.5,95.4,198.7,95.4,198.9z M94,197c-0.2-0.3-0.4-0.5-0.8-0.7
		c-0.3-0.2-0.7-0.2-1-0.2c-0.6,0-1,0.2-1.4,0.5c-0.4,0.4-0.6,0.8-0.7,1.5h4.2C94.3,197.6,94.2,197.3,94,197z"/>
	<path fill="#363636" d="M101.2,193.4v5.3c0,0.7,0.2,1.3,0.5,1.7c0.4,0.4,0.9,0.5,1.5,0.5c0.6,0,1.1-0.2,1.5-0.5
		c0.4-0.4,0.5-0.9,0.5-1.7v-5.3h1.1v5.3c0,0.7-0.1,1.3-0.4,1.8c-0.3,0.5-0.7,0.8-1.1,1.1c-0.5,0.2-1,0.3-1.6,0.3
		c-0.6,0-1.1-0.1-1.6-0.3c-0.5-0.2-0.9-0.6-1.1-1.1c-0.3-0.5-0.4-1.1-0.4-1.8v-5.3H101.2z"/>
	<path fill="#363636" d="M111.6,197.6l2.6,4.2h-1.2l-2-3.3l-1.9,3.3h-1.2l2.6-4.2l-2.6-4.2h1.2l2,3.3l1.9-3.3h1.2L111.6,197.6z"/>
	<path fill="#363636" d="M119.7,190.5l-3.3,13.3h-1.1l3.3-13.3H119.7z"/>
	<path fill="#363636" d="M125.6,193.4v5.3c0,0.7,0.2,1.3,0.5,1.7c0.4,0.4,0.9,0.5,1.5,0.5c0.6,0,1.1-0.2,1.5-0.5
		c0.4-0.4,0.5-0.9,0.5-1.7v-5.3h1.1v5.3c0,0.7-0.1,1.3-0.4,1.8c-0.3,0.5-0.7,0.8-1.1,1.1c-0.5,0.2-1,0.3-1.6,0.3
		c-0.6,0-1.1-0.1-1.6-0.3c-0.5-0.2-0.9-0.6-1.1-1.1c-0.3-0.5-0.4-1.1-0.4-1.8v-5.3H125.6z"/>
	<path fill="#363636" d="M133.7,193.4v8.4h-1.1v-8.4H133.7z"/>
	<path fill="#363636" d="M138.8,196.7c0.3-0.5,0.6-0.9,1.1-1.2c0.5-0.3,1-0.4,1.6-0.4c0.5,0,1,0.1,1.4,0.4c0.4,0.2,0.8,0.5,1,0.9
		v-3.5h1.1v8.9H144v-1.2c-0.2,0.4-0.5,0.7-1,1c-0.4,0.3-0.9,0.4-1.5,0.4c-0.6,0-1.1-0.1-1.6-0.4c-0.5-0.3-0.9-0.7-1.1-1.2
		c-0.3-0.5-0.4-1.1-0.4-1.8C138.4,197.8,138.5,197.2,138.8,196.7z M143.7,197.2c-0.2-0.4-0.5-0.7-0.8-0.8c-0.3-0.2-0.7-0.3-1.1-0.3
		s-0.8,0.1-1.1,0.3c-0.3,0.2-0.6,0.5-0.8,0.8c-0.2,0.4-0.3,0.8-0.3,1.3c0,0.5,0.1,0.9,0.3,1.3s0.5,0.7,0.8,0.9
		c0.3,0.2,0.7,0.3,1.1,0.3s0.8-0.1,1.1-0.3c0.3-0.2,0.6-0.5,0.8-0.9c0.2-0.4,0.3-0.8,0.3-1.3S143.9,197.6,143.7,197.2z"/>
	<path fill="#363636" d="M152.9,198.9h-5.3c0,0.6,0.3,1.2,0.7,1.5c0.4,0.4,0.9,0.5,1.5,0.5c0.5,0,0.9-0.1,1.2-0.3
		c0.3-0.2,0.5-0.5,0.7-0.9h1.2c-0.2,0.6-0.5,1.1-1.1,1.5c-0.5,0.4-1.2,0.6-2,0.6c-0.6,0-1.2-0.1-1.7-0.4c-0.5-0.3-0.9-0.7-1.2-1.2
		c-0.3-0.5-0.4-1.1-0.4-1.8s0.1-1.3,0.4-1.8c0.3-0.5,0.7-0.9,1.1-1.2c0.5-0.3,1.1-0.4,1.7-0.4c0.6,0,1.2,0.1,1.7,0.4
		c0.5,0.3,0.9,0.6,1.1,1.1c0.3,0.5,0.4,1,0.4,1.6C152.9,198.5,152.9,198.7,152.9,198.9z M151.5,197c-0.2-0.3-0.4-0.5-0.8-0.7
		c-0.3-0.2-0.7-0.2-1-0.2c-0.6,0-1,0.2-1.4,0.5c-0.4,0.4-0.6,0.8-0.7,1.5h4.2C151.8,197.6,151.7,197.3,151.5,197z"/>
	<path fill="#363636" d="M155.3,201.7c-0.4-0.2-0.7-0.4-0.9-0.7c-0.2-0.3-0.4-0.7-0.4-1.1h1.1c0,0.3,0.2,0.6,0.5,0.8
		c0.3,0.2,0.6,0.3,1.1,0.3c0.4,0,0.7-0.1,1-0.3c0.2-0.2,0.4-0.4,0.4-0.7c0-0.3-0.1-0.5-0.4-0.6c-0.3-0.1-0.7-0.3-1.2-0.4
		c-0.5-0.1-0.9-0.3-1.2-0.4c-0.3-0.1-0.6-0.3-0.8-0.6c-0.2-0.3-0.3-0.6-0.3-1c0-0.3,0.1-0.6,0.3-0.9c0.2-0.3,0.5-0.5,0.9-0.7
		c0.4-0.2,0.8-0.2,1.3-0.2c0.7,0,1.3,0.2,1.8,0.6c0.4,0.4,0.7,0.9,0.7,1.5h-1.1c0-0.3-0.2-0.6-0.4-0.8s-0.6-0.3-1-0.3
		c-0.4,0-0.7,0.1-0.9,0.3s-0.3,0.4-0.3,0.7c0,0.2,0.1,0.4,0.2,0.5c0.1,0.1,0.3,0.3,0.5,0.3s0.5,0.2,0.9,0.3c0.5,0.1,0.9,0.3,1.2,0.4
		s0.5,0.3,0.8,0.6s0.3,0.6,0.3,1c0,0.4-0.1,0.7-0.3,1c-0.2,0.3-0.5,0.5-0.8,0.7c-0.4,0.2-0.8,0.2-1.3,0.2
		C156.2,201.9,155.7,201.8,155.3,201.7z"/>
	<path fill="#363636" d="M160.7,193.9c-0.1-0.1-0.2-0.3-0.2-0.5s0.1-0.4,0.2-0.5c0.1-0.1,0.3-0.2,0.5-0.2c0.2,0,0.4,0.1,0.5,0.2
		c0.1,0.1,0.2,0.3,0.2,0.5s-0.1,0.4-0.2,0.5c-0.1,0.1-0.3,0.2-0.5,0.2C161,194.2,160.8,194.1,160.7,193.9z M161.7,195.2v6.6h-1.1
		v-6.6H161.7z"/>
	<path fill="#363636" d="M167.8,195.5c0.4,0.2,0.7,0.6,1,0.9v-1.2h1.1v6.7c0,0.6-0.1,1.1-0.4,1.6c-0.3,0.5-0.6,0.8-1.1,1.1
		c-0.5,0.3-1,0.4-1.7,0.4c-0.9,0-1.6-0.2-2.2-0.6c-0.6-0.4-0.9-1-1-1.7h1.1c0.1,0.4,0.4,0.7,0.7,1s0.8,0.4,1.4,0.4
		c0.6,0,1.1-0.2,1.5-0.6c0.4-0.4,0.6-0.9,0.6-1.6v-1.4c-0.2,0.4-0.5,0.7-1,1c-0.4,0.3-0.9,0.4-1.5,0.4c-0.6,0-1.1-0.1-1.6-0.4
		c-0.5-0.3-0.8-0.7-1.1-1.2c-0.3-0.5-0.4-1.1-0.4-1.8c0-0.7,0.1-1.3,0.4-1.8c0.3-0.5,0.6-0.9,1.1-1.2c0.5-0.3,1-0.4,1.6-0.4
		C166.9,195.1,167.4,195.2,167.8,195.5z M168.4,197.2c-0.2-0.4-0.5-0.7-0.8-0.8c-0.3-0.2-0.7-0.3-1.1-0.3c-0.4,0-0.8,0.1-1.1,0.3
		c-0.3,0.2-0.6,0.5-0.8,0.8c-0.2,0.4-0.3,0.8-0.3,1.3c0,0.5,0.1,0.9,0.3,1.3c0.2,0.4,0.5,0.7,0.8,0.9c0.3,0.2,0.7,0.3,1.1,0.3
		c0.4,0,0.8-0.1,1.1-0.3c0.3-0.2,0.6-0.5,0.8-0.9s0.3-0.8,0.3-1.3S168.6,197.6,168.4,197.2z"/>
	<path fill="#363636" d="M176.8,195.8c0.5,0.5,0.7,1.2,0.7,2.1v3.9h-1.1v-3.7c0-0.7-0.2-1.2-0.5-1.5c-0.3-0.3-0.8-0.5-1.3-0.5
		c-0.6,0-1,0.2-1.4,0.5s-0.5,0.9-0.5,1.6v3.6h-1.1v-6.6h1.1v0.9c0.2-0.3,0.5-0.6,0.9-0.8s0.8-0.3,1.2-0.3
		C175.7,195.1,176.3,195.3,176.8,195.8z"/>
	<path fill="#363636" d="M182.6,196.7c0.3-0.5,0.6-0.9,1.1-1.2c0.5-0.3,1-0.4,1.6-0.4c0.6,0,1.1,0.1,1.5,0.4s0.7,0.6,0.9,0.9v-1.2
		h1.1v6.6h-1.1v-1.2c-0.2,0.4-0.5,0.7-1,1c-0.4,0.3-0.9,0.4-1.5,0.4c-0.6,0-1.1-0.1-1.6-0.4s-0.8-0.7-1.1-1.2
		c-0.3-0.5-0.4-1.1-0.4-1.8C182.2,197.8,182.3,197.2,182.6,196.7z M187.4,197.2c-0.2-0.4-0.5-0.7-0.8-0.8c-0.3-0.2-0.7-0.3-1.1-0.3
		c-0.4,0-0.8,0.1-1.1,0.3c-0.3,0.2-0.6,0.5-0.8,0.8c-0.2,0.4-0.3,0.8-0.3,1.3c0,0.5,0.1,0.9,0.3,1.3c0.2,0.4,0.5,0.7,0.8,0.9
		c0.3,0.2,0.7,0.3,1.1,0.3c0.4,0,0.8-0.1,1.1-0.3c0.3-0.2,0.6-0.5,0.8-0.9c0.2-0.4,0.3-0.8,0.3-1.3S187.6,197.6,187.4,197.2z"/>
	<path fill="#363636" d="M195.8,195.8c0.5,0.5,0.7,1.2,0.7,2.1v3.9h-1.1v-3.7c0-0.7-0.2-1.2-0.5-1.5c-0.3-0.3-0.8-0.5-1.3-0.5
		c-0.6,0-1,0.2-1.4,0.5c-0.3,0.4-0.5,0.9-0.5,1.6v3.6h-1.1v-6.6h1.1v0.9c0.2-0.3,0.5-0.6,0.9-0.8c0.4-0.2,0.8-0.3,1.2-0.3
		C194.7,195.1,195.3,195.3,195.8,195.8z"/>
	<path fill="#363636" d="M198.4,196.7c0.3-0.5,0.6-0.9,1.1-1.2s1-0.4,1.6-0.4c0.5,0,1,0.1,1.4,0.4c0.4,0.2,0.8,0.5,1,0.9v-3.5h1.1
		v8.9h-1.1v-1.2c-0.2,0.4-0.5,0.7-1,1c-0.4,0.3-0.9,0.4-1.5,0.4c-0.6,0-1.1-0.1-1.6-0.4s-0.8-0.7-1.1-1.2c-0.3-0.5-0.4-1.1-0.4-1.8
		C198,197.8,198.1,197.2,198.4,196.7z M203.2,197.2c-0.2-0.4-0.5-0.7-0.8-0.8c-0.3-0.2-0.7-0.3-1.1-0.3c-0.4,0-0.8,0.1-1.1,0.3
		c-0.3,0.2-0.6,0.5-0.8,0.8c-0.2,0.4-0.3,0.8-0.3,1.3c0,0.5,0.1,0.9,0.3,1.3c0.2,0.4,0.5,0.7,0.8,0.9c0.3,0.2,0.7,0.3,1.1,0.3
		c0.4,0,0.8-0.1,1.1-0.3c0.3-0.2,0.6-0.5,0.8-0.9c0.2-0.4,0.3-0.8,0.3-1.3S203.4,197.6,203.2,197.2z"/>
	<path fill="#363636" d="M45.6,212.4c0.4,0.2,0.7,0.5,0.9,1s0.3,0.9,0.3,1.5v3.9h-1.1v-3.7c0-0.7-0.2-1.2-0.5-1.5
		c-0.3-0.3-0.8-0.5-1.3-0.5c-0.6,0-1,0.2-1.4,0.5c-0.3,0.4-0.5,0.9-0.5,1.6v3.6h-1.1v-3.7c0-0.7-0.2-1.2-0.5-1.5
		c-0.3-0.3-0.8-0.5-1.3-0.5c-0.6,0-1,0.2-1.4,0.5s-0.5,0.9-0.5,1.6v3.6h-1.1v-6.6h1.1v0.9c0.2-0.3,0.5-0.6,0.9-0.8
		c0.4-0.2,0.8-0.3,1.2-0.3c0.6,0,1,0.1,1.5,0.4c0.4,0.2,0.7,0.6,0.9,1.1c0.2-0.5,0.5-0.8,0.9-1.1c0.4-0.3,0.9-0.4,1.4-0.4
		C44.7,212.1,45.2,212.2,45.6,212.4z"/>
	<path fill="#363636" d="M54.6,215.9h-5.3c0,0.6,0.3,1.2,0.7,1.5c0.4,0.4,0.9,0.5,1.5,0.5c0.5,0,0.9-0.1,1.2-0.3
		c0.3-0.2,0.5-0.5,0.7-0.9h1.2c-0.2,0.6-0.5,1.1-1.1,1.5c-0.5,0.4-1.2,0.6-2,0.6c-0.6,0-1.2-0.1-1.7-0.4c-0.5-0.3-0.9-0.7-1.2-1.2
		c-0.3-0.5-0.4-1.1-0.4-1.8s0.1-1.3,0.4-1.8s0.7-0.9,1.1-1.2c0.5-0.3,1.1-0.4,1.7-0.4c0.6,0,1.2,0.1,1.7,0.4
		c0.5,0.3,0.9,0.6,1.1,1.1c0.3,0.5,0.4,1,0.4,1.6C54.7,215.5,54.7,215.7,54.6,215.9z M53.3,214c-0.2-0.3-0.4-0.5-0.8-0.7
		c-0.3-0.2-0.7-0.2-1-0.2c-0.6,0-1,0.2-1.4,0.5c-0.4,0.4-0.6,0.8-0.7,1.5h4.2C53.5,214.6,53.5,214.3,53.3,214z"/>
	<path fill="#363636" d="M61.3,212.8c0.5,0.5,0.7,1.2,0.7,2.1v3.9h-1.1v-3.7c0-0.7-0.2-1.2-0.5-1.5c-0.3-0.3-0.8-0.5-1.3-0.5
		c-0.6,0-1,0.2-1.4,0.5s-0.5,0.9-0.5,1.6v3.6h-1.1v-6.6h1.1v0.9c0.2-0.3,0.5-0.6,0.9-0.8s0.8-0.3,1.2-0.3
		C60.1,212.1,60.8,212.3,61.3,212.8z"/>
	<path fill="#363636" d="M65.1,213.1v3.9c0,0.3,0.1,0.5,0.2,0.7c0.1,0.1,0.4,0.2,0.7,0.2h0.8v0.9h-1c-0.6,0-1.1-0.1-1.4-0.4
		c-0.3-0.3-0.5-0.7-0.5-1.4v-3.9h-0.9v-0.9H64v-1.7h1.1v1.7h1.7v0.9H65.1z"/>
	<path fill="#363636" d="M69.4,218.5c-0.5-0.3-0.9-0.7-1.2-1.2c-0.3-0.5-0.4-1.1-0.4-1.8c0-0.7,0.1-1.3,0.4-1.8s0.7-0.9,1.2-1.2
		c0.5-0.3,1.1-0.4,1.7-0.4s1.2,0.1,1.7,0.4c0.5,0.3,0.9,0.7,1.2,1.2s0.4,1.1,0.4,1.8s-0.1,1.3-0.5,1.8c-0.3,0.5-0.7,0.9-1.2,1.2
		c-0.5,0.3-1.1,0.4-1.7,0.4C70.4,218.9,69.9,218.8,69.4,218.5z M72.1,217.7c0.3-0.2,0.6-0.5,0.8-0.8s0.3-0.8,0.3-1.3
		c0-0.5-0.1-1-0.3-1.3c-0.2-0.4-0.5-0.6-0.8-0.8c-0.3-0.2-0.7-0.3-1.1-0.3c-0.4,0-0.8,0.1-1.1,0.3c-0.3,0.2-0.6,0.5-0.8,0.8
		c-0.2,0.4-0.3,0.8-0.3,1.3c0,0.5,0.1,1,0.3,1.4c0.2,0.4,0.5,0.6,0.8,0.8s0.7,0.3,1.1,0.3S71.8,217.9,72.1,217.7z"/>
	<path fill="#363636" d="M77.8,212.4c0.4-0.2,0.8-0.3,1.3-0.3v1.1h-0.3c-1.2,0-1.8,0.7-1.8,2v3.6h-1.1v-6.6h1.1v1.1
		C77.1,212.9,77.4,212.6,77.8,212.4z"/>
	<path fill="#363636" d="M80.4,210.9c-0.1-0.1-0.2-0.3-0.2-0.5s0.1-0.4,0.2-0.5s0.3-0.2,0.5-0.2c0.2,0,0.4,0.1,0.5,0.2
		c0.1,0.1,0.2,0.3,0.2,0.5s-0.1,0.4-0.2,0.5c-0.1,0.1-0.3,0.2-0.5,0.2C80.7,211.2,80.5,211.1,80.4,210.9z M81.4,212.2v6.6h-1.1v-6.6
		H81.4z"/>
	<path fill="#363636" d="M88.4,212.8c0.5,0.5,0.7,1.2,0.7,2.1v3.9h-1.1v-3.7c0-0.7-0.2-1.2-0.5-1.5c-0.3-0.3-0.8-0.5-1.3-0.5
		c-0.6,0-1,0.2-1.4,0.5s-0.5,0.9-0.5,1.6v3.6h-1.1v-6.6h1.1v0.9c0.2-0.3,0.5-0.6,0.9-0.8s0.8-0.3,1.2-0.3
		C87.3,212.1,87.9,212.3,88.4,212.8z"/>
	<path fill="#363636" d="M95.2,212.5c0.4,0.2,0.7,0.6,1,0.9v-1.2h1.1v6.7c0,0.6-0.1,1.1-0.4,1.6c-0.3,0.5-0.6,0.8-1.1,1.1
		c-0.5,0.3-1,0.4-1.7,0.4c-0.9,0-1.6-0.2-2.2-0.6c-0.6-0.4-0.9-1-1-1.7H92c0.1,0.4,0.4,0.7,0.7,1s0.8,0.4,1.4,0.4
		c0.6,0,1.1-0.2,1.5-0.6c0.4-0.4,0.6-0.9,0.6-1.6v-1.4c-0.2,0.4-0.5,0.7-1,1c-0.4,0.3-0.9,0.4-1.5,0.4c-0.6,0-1.1-0.1-1.6-0.4
		s-0.9-0.7-1.1-1.2c-0.3-0.5-0.4-1.1-0.4-1.8c0-0.7,0.1-1.3,0.4-1.8s0.6-0.9,1.1-1.2s1-0.4,1.6-0.4
		C94.2,212.1,94.7,212.2,95.2,212.5z M95.8,214.2c-0.2-0.4-0.5-0.7-0.8-0.8c-0.3-0.2-0.7-0.3-1.1-0.3c-0.4,0-0.8,0.1-1.1,0.3
		c-0.3,0.2-0.6,0.5-0.8,0.8c-0.2,0.4-0.3,0.8-0.3,1.3c0,0.5,0.1,0.9,0.3,1.3c0.2,0.4,0.5,0.7,0.8,0.9c0.3,0.2,0.7,0.3,1.1,0.3
		c0.4,0,0.8-0.1,1.1-0.3c0.3-0.2,0.6-0.5,0.8-0.9c0.2-0.4,0.3-0.8,0.3-1.3S96,214.6,95.8,214.2z"/>
	<path fill="#363636" d="M103.2,218.7c-0.4-0.2-0.7-0.4-0.9-0.7c-0.2-0.3-0.4-0.7-0.4-1.1h1.1c0,0.3,0.2,0.6,0.5,0.8
		c0.3,0.2,0.6,0.3,1.1,0.3c0.4,0,0.7-0.1,1-0.3c0.2-0.2,0.4-0.4,0.4-0.7c0-0.3-0.1-0.5-0.4-0.6c-0.3-0.1-0.7-0.3-1.2-0.4
		c-0.5-0.1-0.9-0.3-1.2-0.4c-0.3-0.1-0.6-0.3-0.8-0.6c-0.2-0.3-0.3-0.6-0.3-1c0-0.3,0.1-0.6,0.3-0.9c0.2-0.3,0.5-0.5,0.9-0.7
		c0.4-0.2,0.8-0.2,1.3-0.2c0.7,0,1.3,0.2,1.8,0.6c0.4,0.4,0.7,0.9,0.7,1.5h-1.1c0-0.3-0.2-0.6-0.4-0.8s-0.6-0.3-1-0.3
		c-0.4,0-0.7,0.1-0.9,0.3c-0.2,0.2-0.3,0.4-0.3,0.7c0,0.2,0.1,0.4,0.2,0.5c0.1,0.1,0.3,0.3,0.5,0.3s0.5,0.2,0.9,0.3
		c0.5,0.1,0.9,0.3,1.2,0.4s0.5,0.3,0.8,0.6s0.3,0.6,0.3,1c0,0.4-0.1,0.7-0.3,1c-0.2,0.3-0.5,0.5-0.8,0.7c-0.4,0.2-0.8,0.2-1.3,0.2
		C104.1,218.9,103.6,218.8,103.2,218.7z"/>
	<path fill="#363636" d="M114.5,215.9h-5.3c0,0.6,0.3,1.2,0.7,1.5c0.4,0.4,0.9,0.5,1.5,0.5c0.5,0,0.9-0.1,1.2-0.3
		c0.3-0.2,0.5-0.5,0.7-0.9h1.2c-0.2,0.6-0.5,1.1-1.1,1.5c-0.5,0.4-1.2,0.6-2,0.6c-0.6,0-1.2-0.1-1.7-0.4c-0.5-0.3-0.9-0.7-1.2-1.2
		c-0.3-0.5-0.4-1.1-0.4-1.8s0.1-1.3,0.4-1.8s0.7-0.9,1.1-1.2c0.5-0.3,1.1-0.4,1.7-0.4c0.6,0,1.2,0.1,1.7,0.4
		c0.5,0.3,0.9,0.6,1.1,1.1c0.3,0.5,0.4,1,0.4,1.6C114.5,215.5,114.5,215.7,114.5,215.9z M113.1,214c-0.2-0.3-0.4-0.5-0.8-0.7
		c-0.3-0.2-0.7-0.2-1-0.2c-0.6,0-1,0.2-1.4,0.5c-0.4,0.4-0.6,0.8-0.7,1.5h4.2C113.4,214.6,113.3,214.3,113.1,214z"/>
	<path fill="#363636" d="M116.9,218.7c-0.4-0.2-0.7-0.4-0.9-0.7c-0.2-0.3-0.4-0.7-0.4-1.1h1.1c0,0.3,0.2,0.6,0.5,0.8
		c0.3,0.2,0.6,0.3,1.1,0.3c0.4,0,0.7-0.1,1-0.3c0.2-0.2,0.4-0.4,0.4-0.7c0-0.3-0.1-0.5-0.4-0.6c-0.3-0.1-0.7-0.3-1.2-0.4
		c-0.5-0.1-0.9-0.3-1.2-0.4c-0.3-0.1-0.6-0.3-0.8-0.6c-0.2-0.3-0.3-0.6-0.3-1c0-0.3,0.1-0.6,0.3-0.9c0.2-0.3,0.5-0.5,0.9-0.7
		c0.4-0.2,0.8-0.2,1.3-0.2c0.7,0,1.3,0.2,1.8,0.6c0.4,0.4,0.7,0.9,0.7,1.5h-1.1c0-0.3-0.2-0.6-0.4-0.8s-0.6-0.3-1-0.3
		c-0.4,0-0.7,0.1-0.9,0.3c-0.2,0.2-0.3,0.4-0.3,0.7c0,0.2,0.1,0.4,0.2,0.5c0.1,0.1,0.3,0.3,0.5,0.3s0.5,0.2,0.9,0.3
		c0.5,0.1,0.9,0.3,1.2,0.4s0.5,0.3,0.8,0.6s0.3,0.6,0.3,1c0,0.4-0.1,0.7-0.3,1c-0.2,0.3-0.5,0.5-0.8,0.7c-0.4,0.2-0.8,0.2-1.3,0.2
		C117.8,218.9,117.3,218.8,116.9,218.7z"/>
	<path fill="#363636" d="M123.2,218.7c-0.4-0.2-0.7-0.4-0.9-0.7c-0.2-0.3-0.4-0.7-0.4-1.1h1.1c0,0.3,0.2,0.6,0.5,0.8
		c0.3,0.2,0.6,0.3,1.1,0.3c0.4,0,0.7-0.1,1-0.3c0.2-0.2,0.4-0.4,0.4-0.7c0-0.3-0.1-0.5-0.4-0.6c-0.3-0.1-0.7-0.3-1.2-0.4
		c-0.5-0.1-0.9-0.3-1.2-0.4c-0.3-0.1-0.6-0.3-0.8-0.6c-0.2-0.3-0.3-0.6-0.3-1c0-0.3,0.1-0.6,0.3-0.9c0.2-0.3,0.5-0.5,0.9-0.7
		c0.4-0.2,0.8-0.2,1.3-0.2c0.7,0,1.3,0.2,1.8,0.6c0.4,0.4,0.7,0.9,0.7,1.5h-1.1c0-0.3-0.2-0.6-0.4-0.8s-0.6-0.3-1-0.3
		c-0.4,0-0.7,0.1-0.9,0.3c-0.2,0.2-0.3,0.4-0.3,0.7c0,0.2,0.1,0.4,0.2,0.5c0.1,0.1,0.3,0.3,0.5,0.3s0.5,0.2,0.9,0.3
		c0.5,0.1,0.9,0.3,1.2,0.4s0.5,0.3,0.8,0.6s0.3,0.6,0.3,1c0,0.4-0.1,0.7-0.3,1c-0.2,0.3-0.5,0.5-0.8,0.7c-0.4,0.2-0.8,0.2-1.3,0.2
		C124.1,218.9,123.6,218.8,123.2,218.7z"/>
	<path fill="#363636" d="M128.5,210.9c-0.1-0.1-0.2-0.3-0.2-0.5s0.1-0.4,0.2-0.5s0.3-0.2,0.5-0.2c0.2,0,0.4,0.1,0.5,0.2
		c0.1,0.1,0.2,0.3,0.2,0.5s-0.1,0.4-0.2,0.5c-0.1,0.1-0.3,0.2-0.5,0.2C128.9,211.2,128.7,211.1,128.5,210.9z M129.6,212.2v6.6h-1.1
		v-6.6H129.6z"/>
	<path fill="#363636" d="M132.6,218.5c-0.5-0.3-0.9-0.7-1.2-1.2c-0.3-0.5-0.4-1.1-0.4-1.8c0-0.7,0.1-1.3,0.4-1.8s0.7-0.9,1.2-1.2
		c0.5-0.3,1.1-0.4,1.7-0.4s1.2,0.1,1.7,0.4c0.5,0.3,0.9,0.7,1.2,1.2s0.4,1.1,0.4,1.8s-0.2,1.3-0.5,1.8c-0.3,0.5-0.7,0.9-1.2,1.2
		c-0.5,0.3-1.1,0.4-1.7,0.4C133.7,218.9,133.1,218.8,132.6,218.5z M135.4,217.7c0.3-0.2,0.6-0.5,0.8-0.8s0.3-0.8,0.3-1.3
		c0-0.5-0.1-1-0.3-1.3c-0.2-0.4-0.5-0.6-0.8-0.8c-0.3-0.2-0.7-0.3-1.1-0.3c-0.4,0-0.8,0.1-1.1,0.3c-0.3,0.2-0.6,0.5-0.8,0.8
		c-0.2,0.4-0.3,0.8-0.3,1.3c0,0.5,0.1,1,0.3,1.4c0.2,0.4,0.5,0.6,0.8,0.8s0.7,0.3,1.1,0.3C134.7,217.9,135.1,217.9,135.4,217.7z"/>
	<path fill="#363636" d="M144.3,212.8c0.5,0.5,0.7,1.2,0.7,2.1v3.9h-1.1v-3.7c0-0.7-0.2-1.2-0.5-1.5c-0.3-0.3-0.8-0.5-1.3-0.5
		c-0.6,0-1,0.2-1.4,0.5s-0.5,0.9-0.5,1.6v3.6h-1.1v-6.6h1.1v0.9c0.2-0.3,0.5-0.6,0.9-0.8s0.8-0.3,1.2-0.3
		C143.1,212.1,143.8,212.3,144.3,212.8z"/>
	<path fill="#363636" d="M147.8,218.7c-0.4-0.2-0.7-0.4-0.9-0.7c-0.2-0.3-0.4-0.7-0.4-1.1h1.1c0,0.3,0.2,0.6,0.5,0.8
		c0.3,0.2,0.6,0.3,1.1,0.3c0.4,0,0.7-0.1,1-0.3c0.2-0.2,0.4-0.4,0.4-0.7c0-0.3-0.1-0.5-0.4-0.6c-0.3-0.1-0.7-0.3-1.2-0.4
		c-0.5-0.1-0.9-0.3-1.2-0.4c-0.3-0.1-0.6-0.3-0.8-0.6c-0.2-0.3-0.3-0.6-0.3-1c0-0.3,0.1-0.6,0.3-0.9c0.2-0.3,0.5-0.5,0.9-0.7
		c0.4-0.2,0.8-0.2,1.3-0.2c0.7,0,1.3,0.2,1.8,0.6c0.4,0.4,0.7,0.9,0.7,1.5h-1.1c0-0.3-0.2-0.6-0.4-0.8s-0.6-0.3-1-0.3
		c-0.4,0-0.7,0.1-0.9,0.3s-0.3,0.4-0.3,0.7c0,0.2,0.1,0.4,0.2,0.5c0.1,0.1,0.3,0.3,0.5,0.3s0.5,0.2,0.9,0.3c0.5,0.1,0.9,0.3,1.2,0.4
		s0.5,0.3,0.8,0.6s0.3,0.6,0.3,1c0,0.4-0.1,0.7-0.3,1c-0.2,0.3-0.5,0.5-0.8,0.7c-0.4,0.2-0.8,0.2-1.3,0.2
		C148.6,218.9,148.2,218.8,147.8,218.7z"/>
</g>
<g>
	<path fill="#363636" d="M42.5,169.1c0.8,0.4,1.4,1,1.8,1.7s0.6,1.6,0.6,2.6c0,1-0.2,1.8-0.6,2.6s-1,1.3-1.8,1.7s-1.7,0.6-2.7,0.6
		h-3.4v-9.8h3.4C40.8,168.5,41.7,168.7,42.5,169.1z M42.1,175.7c0.6-0.6,0.8-1.3,0.8-2.4s-0.3-1.8-0.8-2.4s-1.4-0.9-2.4-0.9h-1.4
		v6.5h1.4C40.7,176.6,41.5,176.3,42.1,175.7z"/>
	<path fill="#363636" d="M49.3,170.7c0.4-0.2,0.9-0.4,1.4-0.4v2.1h-0.5c-0.6,0-1.1,0.1-1.4,0.4c-0.3,0.3-0.5,0.8-0.5,1.5v3.9h-2
		v-7.8h2v1.2C48.6,171.3,48.9,171,49.3,170.7z"/>
	<path fill="#363636" d="M52.2,169.2c-0.2-0.2-0.3-0.5-0.3-0.8c0-0.3,0.1-0.6,0.3-0.8c0.2-0.2,0.5-0.3,0.9-0.3s0.6,0.1,0.9,0.3
		c0.2,0.2,0.3,0.5,0.3,0.8c0,0.3-0.1,0.6-0.3,0.8c-0.2,0.2-0.5,0.3-0.9,0.3S52.4,169.5,52.2,169.2z M54,170.5v7.8h-2v-7.8H54z"/>
	<path fill="#363636" d="M58.9,170.7c0.4-0.2,0.9-0.3,1.5-0.3c0.7,0,1.3,0.2,1.8,0.5c0.5,0.3,1,0.8,1.3,1.4c0.3,0.6,0.5,1.3,0.5,2.1
		c0,0.8-0.2,1.5-0.5,2.1c-0.3,0.6-0.7,1.1-1.3,1.4c-0.5,0.3-1.1,0.5-1.8,0.5c-0.6,0-1.1-0.1-1.5-0.3c-0.4-0.2-0.8-0.5-1-0.9v1.1h-2
		v-10.4h2v3.7C58.2,171.3,58.5,171,58.9,170.7z M61.7,173.1c-0.2-0.3-0.4-0.6-0.8-0.8c-0.3-0.2-0.7-0.3-1-0.3c-0.4,0-0.7,0.1-1,0.3
		c-0.3,0.2-0.6,0.4-0.8,0.8c-0.2,0.3-0.3,0.8-0.3,1.2s0.1,0.9,0.3,1.2c0.2,0.3,0.4,0.6,0.8,0.8c0.3,0.2,0.6,0.3,1,0.3
		c0.4,0,0.7-0.1,1-0.3s0.6-0.5,0.8-0.8c0.2-0.3,0.3-0.8,0.3-1.2C62,173.9,61.9,173.5,61.7,173.1z"/>
	<path fill="#363636" d="M68.4,170.7c0.4-0.2,0.9-0.3,1.5-0.3c0.7,0,1.3,0.2,1.8,0.5c0.5,0.3,1,0.8,1.3,1.4c0.3,0.6,0.5,1.3,0.5,2.1
		c0,0.8-0.2,1.5-0.5,2.1c-0.3,0.6-0.7,1.1-1.3,1.4c-0.5,0.3-1.1,0.5-1.8,0.5c-0.6,0-1.1-0.1-1.5-0.3c-0.4-0.2-0.8-0.5-1-0.9v1.1h-2
		v-10.4h2v3.7C67.6,171.3,68,171,68.4,170.7z M71.2,173.1c-0.2-0.3-0.4-0.6-0.8-0.8c-0.3-0.2-0.7-0.3-1-0.3c-0.4,0-0.7,0.1-1,0.3
		c-0.3,0.2-0.6,0.4-0.8,0.8c-0.2,0.3-0.3,0.8-0.3,1.2s0.1,0.9,0.3,1.2c0.2,0.3,0.4,0.6,0.8,0.8c0.3,0.2,0.6,0.3,1,0.3
		c0.4,0,0.7-0.1,1-0.3s0.6-0.5,0.8-0.8c0.2-0.3,0.3-0.8,0.3-1.2C71.5,173.9,71.4,173.5,71.2,173.1z"/>
	<path fill="#363636" d="M77.9,170.7c0.4-0.2,0.9-0.3,1.5-0.3c0.7,0,1.3,0.2,1.8,0.5c0.5,0.3,1,0.8,1.3,1.4c0.3,0.6,0.5,1.3,0.5,2.1
		c0,0.8-0.2,1.5-0.5,2.1c-0.3,0.6-0.7,1.1-1.3,1.4c-0.5,0.3-1.1,0.5-1.8,0.5c-0.6,0-1.1-0.1-1.5-0.3c-0.4-0.2-0.8-0.5-1-0.9v1.1h-2
		v-10.4h2v3.7C77.1,171.3,77.5,171,77.9,170.7z M80.7,173.1c-0.2-0.3-0.4-0.6-0.8-0.8c-0.3-0.2-0.7-0.3-1-0.3c-0.4,0-0.7,0.1-1,0.3
		c-0.3,0.2-0.6,0.4-0.8,0.8c-0.2,0.3-0.3,0.8-0.3,1.2s0.1,0.9,0.3,1.2c0.2,0.3,0.4,0.6,0.8,0.8c0.3,0.2,0.6,0.3,1,0.3
		c0.4,0,0.7-0.1,1-0.3s0.6-0.5,0.8-0.8c0.2-0.3,0.3-0.8,0.3-1.2C81,173.9,80.9,173.5,80.7,173.1z"/>
	<path fill="#363636" d="M86.4,167.9v10.4h-2v-10.4H86.4z"/>
	<path fill="#363636" d="M95.5,175h-5.7c0,0.6,0.2,1,0.6,1.3c0.3,0.3,0.8,0.5,1.3,0.5c0.7,0,1.2-0.3,1.6-0.9h2.1
		c-0.2,0.7-0.7,1.4-1.3,1.8s-1.4,0.7-2.3,0.7c-0.7,0-1.4-0.2-2-0.5c-0.6-0.3-1.1-0.8-1.4-1.4c-0.3-0.6-0.5-1.3-0.5-2.1
		c0-0.8,0.2-1.5,0.5-2.1c0.3-0.6,0.8-1.1,1.4-1.4c0.6-0.3,1.3-0.5,2-0.5c0.7,0,1.4,0.2,2,0.5c0.6,0.3,1,0.8,1.4,1.4
		c0.3,0.6,0.5,1.3,0.5,2C95.5,174.5,95.5,174.7,95.5,175z M93.5,173.6c0-0.5-0.2-0.9-0.5-1.2c-0.4-0.3-0.8-0.5-1.3-0.5
		c-0.5,0-0.9,0.1-1.2,0.4c-0.3,0.3-0.5,0.7-0.6,1.2H93.5z"/>
</g>
<rect x="36.3" y="36.8" fill="none" stroke="#3C61ED" stroke-width="1.5" stroke-miterlimit="10" width="101.4" height="60.2"/>
<g>
	<g>
		<path fill="#3C61ED" d="M124.7,89.8c0.5,0,1,0,1.4,0c0.6,0,1.3,0,1.9,0.1c1.7,0.4,2.8,1.8,2.8,3.5c0,0.9,0,1.9,0,2.8
			c0,0.6-0.3,0.9-0.9,0.9c-5.6,0-11.3,0-16.9,0c-0.6,0-0.9-0.3-0.9-0.9c0-1,0-2,0-3c0-1.8,1.6-3.4,3.4-3.4c0.8,0,1.6,0,2.3,0
			c0.1,0,0.2,0,0.4,0c0-0.6,0-1.1,0-1.6c0-0.1-0.1-0.1-0.2-0.2c-1.5-1-2.5-2.3-2.9-4.1c-0.1-0.5-0.2-1.1-0.2-1.6c0-1,0-1.9,0-2.9
			c0.1-2.5,1.2-4.3,3.4-5.5c0.2-0.1,0.3-0.2,0.3-0.5c0.2-1.2,1.2-1.9,2.5-2c1.8,0,3.4,0.4,4.8,1.5c2.1,1.5,3.1,3.6,3.2,6.2
			c0,1,0,2.1,0,3.1c0,0.5-0.1,0.6-0.6,0.6c-0.2,0-0.4,0-0.6,0c-0.1,0.8-0.3,1.6-0.6,2.3c-0.5,1.2-1.4,2.1-2.4,2.8
			c-0.1,0.1-0.2,0.2-0.2,0.4C124.7,88.8,124.7,89.3,124.7,89.8z M116.7,76.4c0.4,0,0.6,0.1,0.6,0.3c0,0.2,0,0.4-0.2,0.5
			c-0.1,0-0.3,0-0.4,0c-0.1-0.1-0.2-0.2-0.2-0.3c-0.4,0.7-0.7,1.5-0.7,2.3c0,1.2,0,2.4,0,3.6c0,1,0.3,2,0.9,2.9
			c0.1,0.1,0.2,0.2,0.2,0.3c0.1-0.3,0.1-0.6,0.1-0.8c0-1.4,0.9-2.2,2.2-2.2c0.3,0,0.6,0,0.9,0c0.5,0,1,0,1.3,0.3
			c0.4-0.1,0.7-0.3,1-0.3c0.5-0.1,1.1,0,1.6,0c1,0,1.8,0.9,1.9,1.9c0,0.4,0,0.7,0,1.1c0.1,0,0.1,0,0.1-0.1c0.6-0.9,1-1.8,1.1-2.9
			c0-1.3,0.1-2.6,0-3.9c-0.1-1.9-1.6-3.4-3.5-3.5c-1.1,0-2.1,0-3.2,0c-0.7,0-0.9,0.2-1.1,0.9c0,0.2-0.2,0.4-0.4,0.4
			c-0.2,0-0.4-0.2-0.4-0.4c0-0.1,0-0.2,0-0.3c0-0.4,0-0.9,0-1.3C117.8,75.1,117.2,75.7,116.7,76.4z M116.5,90.6c0,1.9,0,3.8,0,5.7
			c1.5,0,3,0,4.5,0c0-0.3,0-0.6-0.1-0.8c-0.8-1.6-1.7-3.1-2.5-4.7c0-0.1-0.1-0.2-0.2-0.2C117.7,90.6,117.1,90.6,116.5,90.6z
			 M126.3,96.3c0-1.9,0-3.8,0-5.7c-0.5,0-1,0-1.5,0c-0.2,0-0.3,0.1-0.4,0.2c-0.8,1.5-1.6,3-2.4,4.5c-0.2,0.3-0.1,0.6-0.1,1
			C123.3,96.3,124.8,96.3,126.3,96.3z M128.3,82.1c0-0.1,0-0.1,0-0.2c0-1,0-1.9,0-2.9c0-1.1-0.3-2.2-0.9-3.1
			c-1.5-2.5-3.7-3.7-6.6-3.6c-0.7,0-1.3,0.5-1.5,1.2c-0.1,0.5-0.1,0.9-0.1,1.4c0.3-0.1,0.6-0.1,0.9-0.1c1.1,0,2.1,0,3.2,0
			c2.4,0,4.3,1.9,4.4,4.3c0,0.9,0,1.8,0,2.7c0,0.1,0,0.2,0,0.3C128.1,82.1,128.2,82.1,128.3,82.1z M121.4,85.3
			c-0.3,0.3-0.7,0.4-1.2,0.4c-0.6,0-1.1,0-1.7,0c-0.3,0-0.6,0.2-0.7,0.5c-0.2,0.3-0.1,0.6,0.2,0.8c2,1.5,4.9,1.5,6.8-0.1
			c0.1-0.1,0.2-0.2,0.2-0.4c0-0.5-0.3-0.9-0.9-0.9c-0.5,0-1.1,0-1.6,0C122.2,85.8,121.8,85.7,121.4,85.3z M115.7,90.7
			c-0.1,0-0.1,0-0.2,0c-1.4,0.1-2.6,1.3-2.6,2.7c0,0.9,0,1.9,0,2.8c0,0.1,0,0.1,0,0.2c1,0,1.9,0,2.8,0
			C115.7,94.4,115.7,92.6,115.7,90.7z M127.1,96.3c1,0,1.9,0,2.8,0c0,0,0-0.1,0-0.1c0-0.9,0-1.8,0-2.6c0-1.1-0.5-2-1.5-2.6
			c-0.4-0.2-0.9-0.4-1.4-0.3C127.1,92.6,127.1,94.4,127.1,96.3z M121.4,94.7c0.7-1.3,1.4-2.6,2.1-3.9c-0.3,0.1-0.6,0.1-0.8,0.2
			c-0.4,0.1-0.7,0.1-1-0.1c-0.2-0.1-0.4-0.1-0.6,0c-0.3,0.2-0.6,0.2-1,0.1c-0.2-0.1-0.5-0.1-0.8-0.2C120,92.1,120.7,93.4,121.4,94.7
			z M119,88.5c0,0.4,0,0.8,0,1.2c0,0.1,0.1,0.1,0.2,0.1c0.3,0.1,0.7,0.1,1,0.2c0.3,0.1,0.5,0.1,0.7-0.1c0.4-0.3,0.7-0.2,1.1,0
			c0.1,0.1,0.3,0.2,0.5,0.1c0.4-0.1,0.9-0.2,1.3-0.3c0.1,0,0.2-0.1,0.2-0.1c0-0.4,0-0.8,0-1.2C122.2,89.2,120.6,89.2,119,88.5z
			 M117.8,85.1c0.5-0.3,1-0.2,1.5-0.2c0.3,0,0.7,0,1,0c0.4,0,0.6-0.3,0.6-0.6c0-0.3-0.2-0.6-0.6-0.6c-0.5,0-1.1,0-1.6,0
			C118.1,83.8,117.7,84.5,117.8,85.1z M125,85c0.1-0.6-0.4-1.2-1-1.3c-0.5,0-1.1,0-1.6,0c-0.4,0-0.6,0.3-0.6,0.6
			c0,0.3,0.3,0.6,0.7,0.6c0.4,0,0.9,0,1.3,0C124.2,84.9,124.6,85,125,85z"/>
		<path fill="#3C61ED" d="M117.8,75.6c0.2,0,0.4,0.2,0.4,0.4c0,0.2-0.2,0.4-0.4,0.4c-0.2,0-0.4-0.2-0.4-0.4
			C117.3,75.8,117.5,75.6,117.8,75.6z"/>
		<path fill="#3C61ED" d="M118.2,77.6c-0.2,0-0.4-0.2-0.4-0.4c0-0.2,0.2-0.4,0.4-0.4c0.2,0,0.4,0.2,0.4,0.4
			C118.6,77.4,118.4,77.6,118.2,77.6z"/>
		<path fill="#3C61ED" d="M121,91.8c0-0.2,0.2-0.4,0.4-0.4c0.2,0,0.4,0.2,0.4,0.4c0,0.2-0.2,0.4-0.4,0.4
			C121.2,92.2,121,92.1,121,91.8z"/>
	</g>
</g>
<rect x="36.3" y="36.8" fill="none" stroke="#3C61ED" stroke-width="1.5" stroke-miterlimit="10" width="33.8" height="30.1"/>
<rect x="36.3" y="66.9" fill="none" stroke="#3C61ED" stroke-width="1.5" stroke-miterlimit="10" width="33.8" height="30.1"/>
<rect x="70.1" y="36.8" fill="none" stroke="#3C61ED" stroke-width="1.5" stroke-miterlimit="10" width="33.8" height="30.1"/>
<rect x="70.1" y="66.9" fill="none" stroke="#3C61ED" stroke-width="1.5" stroke-miterlimit="10" width="33.8" height="30.1"/>
<rect x="104" y="36.8" fill="none" stroke="#3C61ED" stroke-width="1.5" stroke-miterlimit="10" width="33.8" height="30.1"/>
<rect x="104" y="66.9" fill="none" stroke="#3C61ED" stroke-width="1.5" stroke-miterlimit="10" width="33.8" height="30.1"/>
<g>
	<g>
		<path fill="#3C61ED" d="M93.6,88.1c-0.7,0-1.4,0-2.1,0c-0.2,0-0.4,0.1-0.4,0.4c0,0.4,0,0.8,0,1.2c0.1,0,0.2,0,0.3,0
			c0.9,0,1.8,0,2.8,0c1.4,0,2.7,1.3,2.7,2.7c0,1.3,0,2.6,0,3.9c0,0.6-0.3,0.9-1,0.9c-5.2,0-10.4,0-15.6,0c-0.6,0-1-0.3-1-0.9
			c0-1.3,0-2.6,0-4c0-1.4,1.3-2.6,2.7-2.6c0.9,0,1.8,0,2.8,0c0.1,0,0.2,0,0.4,0c0-0.5,0-1,0-1.4c0-0.1-0.2-0.2-0.3-0.2
			c-0.7,0-1.4,0-2.1,0c0,0.3,0,0.5,0,0.7c0,0.4-0.2,0.5-0.5,0.5c-1.1,0-2-0.9-2-2c0-2.8-0.1-5.5,0-8.3c0.1-3.9,3.2-7.2,7.1-7.6
			c4.1-0.4,7.7,2.2,8.6,6.3c0.1,0.5,0.2,0.9,0.2,1.4c0,2.7,0,5.5,0,8.2c0,1.1-0.9,2.1-2,2.1c-0.3,0-0.5-0.1-0.5-0.5
			C93.6,88.6,93.6,88.4,93.6,88.1z M81.9,88.4c0-0.1,0-0.2,0-0.3c0-2.8,0-5.7,0-8.5c0-0.5,0.1-0.6,0.6-0.6c0.1,0,0.1,0,0.2,0
			c0.1-0.3-0.1-0.8,0.4-0.8c0.5,0,0.4,0.5,0.4,0.8c0.3,0,0.5,0,0.8,0c0.1-0.3-0.1-0.8,0.4-0.8c0.5,0,0.4,0.5,0.4,0.8
			c0.3,0,0.5,0,0.8,0c0-0.3-0.1-0.8,0.4-0.8c0.5,0,0.4,0.5,0.4,0.8c0.3,0,0.5,0,0.8,0c0.1-0.3-0.1-0.8,0.4-0.8
			c0.6,0,0.4,0.5,0.5,0.8c0.3,0,0.5,0,0.8,0c0-0.3-0.1-0.8,0.4-0.8c0.6,0,0.4,0.5,0.5,0.8c0.3,0,0.5,0,0.8,0c0-0.3-0.1-0.8,0.4-0.8
			c0.6,0,0.4,0.5,0.5,0.8c0.3,0,0.5,0,0.8,0c0.1-0.3-0.1-0.8,0.4-0.8c0.6,0,0.4,0.5,0.5,0.8c0.1,0,0.1,0,0.1,0
			c0.6,0,0.7,0.1,0.7,0.7c0,2.8,0,5.7,0,8.5c0,0.1,0,0.2,0,0.3c0.6-0.2,0.8-0.6,0.8-1.3c0-2.2,0-4.4,0-6.6c0-0.6,0-1.2,0-1.8
			c-0.3-4-4.1-7-8.2-6.4c-3.5,0.6-6,3.5-6,7.1c0,1.1,0,2.3,0,3.4c0,1.5,0,2.9,0,4.4C81.1,87.8,81.4,88.2,81.9,88.4z M82.8,79.7
			c0,0.1,0,0.1,0,0.1c0,1.5,0,2.9,0,4.4c0,0.1,0,0.2,0.1,0.3c1.1,2.2,2.8,3.4,5.3,3.5c2.4,0,4.2-1.1,5.3-3.3
			c0.1-0.2,0.2-0.4,0.2-0.6c0-1.4,0-2.8,0-4.2c0-0.1,0-0.2,0-0.3C90,79.7,86.4,79.7,82.8,79.7z M92.8,90.6c0,0,0,0.1,0,0.1
			c-0.1,1.5-1.3,2.7-2.8,2.7c-1.7,0-3.4,0-5.1,0c-0.5,0-0.9,0.1-1.3,0.4c-0.8,0.6-0.9,1.5-0.8,2.5c4.4,0,8.9,0,13.3,0
			c0,0,0-0.1,0-0.1c0-1.3,0-2.5,0-3.8c0-0.9-0.7-1.8-1.6-1.9C93.9,90.6,93.4,90.6,92.8,90.6z M90.3,88.6c-1.4,0.5-2.8,0.4-4.2,0
			c0,0.5,0,0.9,0,1.4c0,0.5-0.1,0.6-0.6,0.6c-1,0-2.1,0-3.1,0c-1.2,0-2.1,0.9-2.1,2.1c0,1.1,0,2.3,0,3.4c0,0.1,0,0.2,0,0.3
			c0.6,0,1.1,0,1.6,0c0-0.3,0-0.5,0-0.8c0-1.7,1.3-3,3-3c1.6,0,3.2,0,4.7,0c0.6,0,1.2-0.1,1.6-0.6c0.4-0.4,0.7-0.9,0.7-1.5
			c-0.4,0-0.8,0-1.1,0c-0.4,0-0.5-0.2-0.5-0.6C90.3,89.5,90.3,89.1,90.3,88.6z M83.7,87.2c-0.3-0.4-0.6-0.7-0.9-1c0,0.4,0,0.7,0,1
			C83.1,87.2,83.4,87.2,83.7,87.2z M93.6,86.2c-0.3,0.4-0.6,0.7-0.9,1c0.3,0,0.6,0,0.9,0C93.6,86.9,93.6,86.5,93.6,86.2z"/>
	</g>
</g>
<g>
	<g>
		<path fill="#3C61ED" d="M56.6,89.8c0.8,0,1.6,0,2.3,0c0.9,0,1.7,0.2,2.4,0.7c1,0.7,1.5,1.6,1.6,2.8c0,1.1,0,2.1,0,3.2
			c0,0.4-0.3,0.8-0.8,0.8c-0.1,0-0.2,0-0.3,0c-5.7,0-11.4,0-17,0c-0.1,0-0.2,0-0.4,0c-0.4,0-0.7-0.3-0.7-0.7c0-1.3-0.2-2.7,0.1-4
			c0.3-1.5,1.7-2.7,3.3-2.8c0.8,0,1.6,0,2.5,0c0.1,0,0.2,0,0.4,0c0-0.6,0-1.1,0-1.6c0-0.1-0.1-0.1-0.2-0.2c-2.1-1.4-3.2-3.4-3.2-5.9
			c0-1,0-2.1,0-3.1c0.1-1.7,0.7-3.2,2-4.4c1.8-1.8,4.1-2.4,6.5-1.7c2.4,0.7,3.9,2.3,4.6,4.6c0.2,0.5,0.2,1.1,0.3,1.7
			c0,1.4,0.1,2.9-0.1,4.3c-0.4,1.9-1.4,3.4-3,4.4c-0.2,0.1-0.2,0.2-0.2,0.4C56.6,88.9,56.6,89.3,56.6,89.8z M47.8,77.1
			c-0.1,0.3-0.3,0.6-0.1,0.9c0.1,0.1,0,0.4-0.1,0.4c-0.3,0.1-0.2,0.4-0.3,0.6c0,1.1,0,2.2,0,3.3c0,1.4,0.5,2.6,1.3,3.7
			c2,2.4,5.6,2.8,8.1,0.9c1.2-0.9,2-2.2,2.2-3.7c0.1-1.5,0-3,0.1-4.5c0-0.1-0.1-0.2-0.2-0.2c-0.2-0.1-0.3-0.3-0.2-0.5
			c0.2-0.3,0-0.6-0.1-0.8c-0.4,0.2-0.6,0.2-0.7-0.1c0-0.1-0.1-0.2,0-0.3c0.1-0.1,0.2-0.3,0.4-0.4c-0.1-0.2-0.3-0.4-0.4-0.6
			c-0.3,0.3-0.6,0.3-0.7,0.1c-0.2-0.2-0.1-0.4,0.2-0.7c-0.3-0.3-0.4-0.3-0.8-0.4c-0.1,0-0.2-0.2-0.3-0.3c-0.1-0.1-0.2-0.2-0.3-0.3
			c-1.7-0.9-3.4-0.9-5.2-0.1c-0.2,0.1-0.5,0.2-0.5,0.5c0,0.1-0.2,0.2-0.3,0.2c-0.4-0.1-0.6,0.2-0.8,0.4c0.3,0.3,0.4,0.5,0.2,0.7
			c-0.2,0.2-0.5,0.2-0.7-0.1c-0.2,0.2-0.3,0.4-0.4,0.6c0.2,0.2,0.3,0.3,0.4,0.5c0,0.1-0.1,0.3-0.2,0.4C48.2,77.4,48,77.3,47.8,77.1z
			 M52.8,91.9c-0.1,0-0.1,0-0.1,0c-0.9-0.1-1.8-0.4-2.4-1.1c-0.1-0.1-0.2-0.1-0.2-0.1c-0.9,0-1.8,0-2.8,0c-1.5,0.1-2.6,1.2-2.7,2.7
			c-0.1,0.8,0,1.7,0,2.5c0,0.2,0,0.4,0,0.6c2.8,0,5.6,0,8.3,0C52.8,95,52.8,93.5,52.8,91.9z M53.7,93.9c0,0.9,0,1.8,0,2.6
			c2.8,0,5.5,0,8.3,0c0-1.1,0.1-2.2,0-3.2c-0.1-1.4-1.3-2.5-2.7-2.6c-0.9,0-1.9,0-2.8,0c-0.1,0-0.2,0.1-0.3,0.1
			c-0.3,0.2-0.6,0.5-1,0.6c-0.5,0.2-1,0.3-1.5,0.5c-0.1,0.3,0,0.7,0.3,1c0.1,0.1,0.3,0.2,0.4,0.4c0.1,0.1,0.1,0.4,0,0.5
			c-0.1,0.1-0.3,0.1-0.5,0.2C53.8,94,53.8,93.9,53.7,93.9z M55.7,88.5c-1.7,0.6-3.3,0.6-5,0c0,0.5,0,0.9,0,1.4
			c0,0.1,0.1,0.3,0.2,0.4c0.7,0.7,1.6,0.8,2.5,0.8c0.8,0,1.6-0.2,2.2-0.8c0.1-0.1,0.1-0.1,0.1-0.2C55.7,89.6,55.7,89.1,55.7,88.5z"
			/>
		<path fill="#3C61ED" d="M56.6,76.5c0.2,0,0.4,0.2,0.4,0.4c0,0.2-0.2,0.4-0.4,0.4c-0.2,0-0.4-0.2-0.4-0.4
			C56.2,76.7,56.3,76.5,56.6,76.5z"/>
		<path fill="#3C61ED" d="M51.6,74c0.2,0,0.4,0.2,0.4,0.4c0,0.2-0.2,0.4-0.4,0.4c-0.2,0-0.4-0.2-0.4-0.4C51.1,74.2,51.3,74,51.6,74z
			"/>
		<path fill="#3C61ED" d="M53.2,74.8c-0.2,0-0.4-0.2-0.4-0.4c0-0.2,0.2-0.4,0.4-0.4c0.2,0,0.4,0.2,0.4,0.4
			C53.6,74.6,53.5,74.8,53.2,74.8z"/>
		<path fill="#3C61ED" d="M54.9,74c0.2,0,0.4,0.2,0.4,0.4c0,0.2-0.2,0.4-0.4,0.4c-0.2,0-0.4-0.2-0.4-0.4C54.5,74.1,54.7,74,54.9,74z
			"/>
		<path fill="#3C61ED" d="M54.5,75.6c0,0.2-0.2,0.4-0.4,0.4c-0.2,0-0.4-0.2-0.4-0.4c0-0.2,0.2-0.4,0.4-0.4
			C54.3,75.2,54.5,75.4,54.5,75.6z"/>
		<path fill="#3C61ED" d="M53.6,76.9c0,0.2-0.2,0.4-0.4,0.4c-0.2,0-0.4-0.2-0.4-0.4c0-0.2,0.2-0.4,0.4-0.4
			C53.5,76.5,53.7,76.7,53.6,76.9z"/>
		<path fill="#3C61ED" d="M52.4,75.2c0.2,0,0.4,0.2,0.4,0.4c0,0.2-0.2,0.4-0.4,0.4c-0.2,0-0.4-0.2-0.4-0.4
			C52,75.4,52.2,75.2,52.4,75.2z"/>
		<path fill="#3C61ED" d="M55.3,76.9c0,0.2-0.2,0.4-0.4,0.4c-0.2,0-0.4-0.2-0.4-0.4c0-0.2,0.2-0.4,0.4-0.4
			C55.1,76.5,55.3,76.7,55.3,76.9z"/>
		<path fill="#3C61ED" d="M55.7,76c-0.2,0-0.4-0.2-0.4-0.4c0-0.2,0.2-0.4,0.4-0.4c0.2,0,0.4,0.2,0.4,0.4C56.2,75.9,56,76,55.7,76z"
			/>
		<path fill="#3C61ED" d="M52.8,78.1c0,0.2-0.2,0.4-0.4,0.4c-0.2,0-0.4-0.2-0.4-0.4c0-0.2,0.2-0.4,0.4-0.4
			C52.6,77.7,52.8,77.9,52.8,78.1z"/>
		<path fill="#3C61ED" d="M50.7,75.2c0.2,0,0.4,0.2,0.4,0.4c0,0.2-0.2,0.4-0.4,0.4c-0.2,0-0.4-0.2-0.4-0.4
			C50.3,75.4,50.5,75.2,50.7,75.2z"/>
		<path fill="#3C61ED" d="M50.3,76.9c0,0.2-0.2,0.4-0.4,0.4c-0.2,0-0.4-0.2-0.4-0.4c0-0.2,0.2-0.4,0.4-0.4
			C50.1,76.5,50.3,76.7,50.3,76.9z"/>
		<path fill="#3C61ED" d="M51.6,76.5c0.2,0,0.4,0.2,0.4,0.4c0,0.2-0.2,0.4-0.4,0.4c-0.2,0-0.4-0.2-0.4-0.4
			C51.1,76.7,51.3,76.5,51.6,76.5z"/>
		<path fill="#3C61ED" d="M54.1,77.7c0.2,0,0.4,0.2,0.4,0.4c0,0.2-0.2,0.4-0.4,0.4c-0.2,0-0.4-0.2-0.4-0.4
			C53.7,77.9,53.8,77.7,54.1,77.7z"/>
	</g>
</g>
<g>
	<g>
		<path fill="#3C61ED" d="M85.2,59.6c0-0.5,0-0.9,0-1.4c0-0.2-0.2-0.3-0.4-0.3c-0.8,0-1.5,0-2.3,0c-0.5,0-0.7-0.2-0.6-0.7
			c0.1-0.6,0.2-1.2,0.3-1.8c0-0.1,0-0.2-0.1-0.3c-0.5-1-0.7-2.1-0.7-3.2c0-1,0-2,0-3c0.1-3.2,2.6-6.2,5.8-6.7
			c3.9-0.6,7.4,1.7,8.2,5.5c0.2,0.7,0.1,1.4,0.2,2.1c0,0.4,0,0.8,0,1.3c0,0.5-0.2,0.6-0.7,0.5c0,0-0.1,0-0.1,0c0,0.2,0,0.4,0,0.6
			c0,1-0.3,1.9-0.7,2.8c-0.1,0.1-0.1,0.3-0.1,0.5c0.1,0.6,0.2,1.2,0.3,1.8c0.1,0.4-0.1,0.6-0.5,0.6c-0.8,0-1.5,0-2.3,0
			c-0.4,0-0.6,0.1-0.5,0.5c0,0.4,0,0.7,0,1.2c0.1,0,0.2,0,0.4,0c0.9,0,1.8,0,2.8,0c1.4,0.1,2.7,1.3,2.7,2.7c0,1.3,0,2.6,0,3.8
			c0,0.6-0.3,0.9-1,0.9c-5.2,0-10.4,0-15.6,0c-0.6,0-1-0.3-1-0.9c0-1.3,0-2.6,0-3.9c0-1.4,1.3-2.6,2.7-2.7c0.9,0,1.8,0,2.7,0
			C85,59.6,85.1,59.6,85.2,59.6z M94,52.1c0-0.2,0-0.4,0-0.5c0-0.2-0.1-0.2-0.2-0.3c-3.3-0.8-6.6-1.6-9.9-2.5c-0.1,0-0.3,0-0.3,0.1
			c-0.4,0.3-0.7,0.7-1.1,1.1c-0.1,0.1-0.2,0.3-0.2,0.4c0,0.5,0,1.1,0,1.6c0,1.7,0.6,3.2,1.9,4.3c1.8,1.7,4,2,6.3,1.1
			C92.8,56.5,93.9,54.6,94,52.1z M96.1,66.3c0,0,0-0.1,0-0.1c0-1.3,0-2.5,0-3.8c0-0.9-0.6-1.7-1.5-1.9c-0.4-0.1-0.8-0.1-1.3-0.1
			c-0.3,0-0.4,0.1-0.6,0.3c-1.4,1.6-2.8,3.3-4.1,4.9c-0.3,0.4-0.5,0.4-0.8,0c-1.3-1.5-2.5-3-3.8-4.5c-0.6-0.7-0.6-0.7-1.6-0.7
			c-1.4,0-2.2,1.2-2.2,2.3c0,1.1,0,2.1,0,3.2c0,0.1,0,0.2,0,0.3C85.5,66.3,90.8,66.3,96.1,66.3z M82.3,48.9
			C82.4,48.9,82.4,48.9,82.3,48.9c0.3-0.2,0.6-0.5,0.8-0.7c0.2-0.2,0.4-0.3,0.7-0.2c2.7,0.7,5.4,1.4,8.2,2c0.9,0.2,1.9,0.5,2.9,0.7
			c0-0.9,0-1.8-0.1-2.6c-0.4-2.5-2.3-4.5-4.8-5.1c-2.5-0.5-5,0.4-6.5,2.5C82.8,46.6,82.4,47.7,82.3,48.9z M91.9,60.4
			c-0.2,0-0.4,0-0.6,0c-0.3,0-0.6,0.1-0.9,0.3c-0.4,0.3-0.9,0.6-1.3,0.8c-0.3,0.1-0.6,0.3-0.5,0.7c0,0,0,0.1,0,0.1
			c-0.1,0.2-0.2,0.3-0.4,0.3c-0.2,0-0.3-0.1-0.4-0.3c0-0.1,0-0.3,0-0.4c0-0.1-0.1-0.2-0.2-0.2c-0.6-0.3-1.2-0.6-1.7-0.9
			c-0.4-0.3-0.8-0.2-1.4-0.2c1.3,1.5,2.5,2.9,3.7,4.3C89.4,63.3,90.6,61.9,91.9,60.4z M90.3,58.4c-1.4,0.5-2.8,0.4-4.2,0
			c0,0.4,0,0.8,0,1.2c0,0.1,0.1,0.2,0.1,0.2c0.5,0.3,1,0.6,1.5,0.9c0.3,0.1,0.6,0.2,0.8,0c0.5-0.3,1.1-0.6,1.6-0.9
			c0.1,0,0.1-0.1,0.1-0.2C90.3,59.3,90.3,58.9,90.3,58.4z M82.8,57.1c0.3,0,0.6,0,0.9,0c-0.2-0.2-0.5-0.5-0.7-0.7
			C82.9,56.6,82.9,56.8,82.8,57.1z M93.4,56.3c-0.3,0.3-0.5,0.5-0.7,0.8c0.3,0,0.6,0,0.9,0C93.5,56.8,93.4,56.6,93.4,56.3z"/>
	</g>
</g>
<g>
	<g>
		<path fill="#3C61ED" d="M53.2,66.9c-2.6,0-5.1,0-7.7,0c-0.8,0-1.1-0.3-1.1-1.1c0-1.1,0-2.2,0-3.3c0-0.8,0.2-1.5,0.7-2.1
			c0.1-0.1,0.1-0.3,0.1-0.4c0-3.6,0-7.2,0-10.8c0-1.6,0.4-3.1,1.2-4.4c1.3-2,3.1-3.2,5.4-3.6c2-0.3,3.9,0,5.6,1.2
			c2,1.3,3.2,3.1,3.5,5.5c0.1,0.5,0.1,1,0.1,1.5c0,3.5,0,7.1,0,10.6c0,0.2,0,0.4,0.2,0.6c0.5,0.6,0.6,1.2,0.6,1.9c0,1.1,0,2.3,0,3.4
			c0,0.7-0.3,1-1,1C58.4,66.9,55.8,66.9,53.2,66.9z M53.2,47c0,0-0.1,0.1-0.1,0.2c-0.7,1.1-1.7,1.7-3,1.8c-0.5,0-1.1,0-1.6,0
			c-0.6,0-1.1,0.5-1.1,1.1c0,0.3,0,0.7,0,1c0,0.7,0,1.3,0.1,2c0.7,3.3,4,5.4,7.3,4.4c2.1-0.6,3.5-2,4.1-4.2c0.3-1.1,0.2-2.2,0.2-3.3
			c0-0.5-0.5-1-1-1c-0.4,0-0.9,0-1.3,0c-0.9,0-1.7-0.2-2.4-0.8C53.9,47.9,53.6,47.4,53.2,47z M61.1,66.1c0-1.4,0-2.7,0-4.1
			c0-0.9-0.9-1.7-1.8-1.7c-0.5,0-1,0-1.5,0c-0.1,0-0.3,0.1-0.4,0.2c-1.2,1.2-2.5,2.5-3.7,3.7c-0.4,0.4-0.5,0.4-0.9,0
			c-1.2-1.2-2.5-2.5-3.7-3.7c-0.1-0.1-0.2-0.2-0.4-0.2c-0.5,0-1,0-1.5,0c-1,0.1-1.8,0.9-1.8,1.8c0,1.3,0,2.6,0,3.9c0,0,0,0.1,0,0.1
			C50.6,66.1,55.9,66.1,61.1,66.1z M50.3,59.4C50.3,59.4,50.3,59.3,50.3,59.4c0-0.4,0-0.8,0-1.2c0-0.2-0.1-0.4-0.3-0.5
			c-1.6-0.9-2.6-2.2-3.2-3.9c-0.4-1.2-0.3-2.4-0.3-3.6c0-1.1,0.9-2.2,2.2-2.1c0.4,0,0.8,0,1.1,0c1.6,0,2.9-1.2,2.9-2.8
			c0-1.1,0-2.2,0-3.3c0,0,0-0.1,0-0.1c-0.9,0-1.8,0.3-2.7,0.7c-2.6,1.4-4,3.6-4,6.5c0,3.4,0,6.8,0,10.3c0,0.1,0,0.2,0,0.3
			C47.5,59.2,48.9,59.5,50.3,59.4z M53.7,41.9c0,0.1,0,0.1,0,0.1c0,1.1,0,2.3,0,3.4c0.1,1.3,1.2,2.5,2.5,2.6c0.6,0.1,1.2,0,1.8,0.1
			c1,0.1,1.8,0.9,1.9,1.9c0,0.6,0,1.3,0,1.9c0,0.8-0.2,1.6-0.5,2.4c-0.6,1.5-1.6,2.6-3,3.4c-0.1,0.1-0.2,0.1-0.2,0.2
			c0,0.5,0,0.9,0,1.4c0.9,0,1.7,0,2.5,0c0.4,0,0.8,0.1,1.2,0.1c0.2,0,0.3,0.1,0.5,0.1c0-0.1,0-0.1,0-0.1c0-3.5,0-7,0-10.5
			c0-0.5-0.1-1.1-0.2-1.6c-0.4-1.9-1.5-3.4-3.2-4.5C55.9,42.3,54.8,42,53.7,41.9z M53.2,63.4c1-1,2-2.1,3.1-3.1c-0.1,0-0.2,0-0.4,0
			c-0.4,0-0.6-0.1-0.6-0.6c0-0.5,0-0.9,0-1.4c-1.4,0.5-2.8,0.5-4.1,0c0,0,0,0.1,0,0.1c0,0.5,0,0.9,0,1.4c0,0.4-0.2,0.5-0.5,0.5
			c-0.2,0-0.3,0-0.5,0C51.2,61.3,52.2,62.4,53.2,63.4z"/>
		<path fill="#3C61ED" d="M53.6,61.1c0,0.2-0.2,0.4-0.4,0.4c-0.2,0-0.4-0.2-0.4-0.4c0-0.2,0.2-0.4,0.4-0.4
			C53.5,60.7,53.6,60.9,53.6,61.1z"/>
		<path fill="#3C61ED" d="M52,61.1c-0.2,0-0.4-0.2-0.4-0.4c0-0.2,0.2-0.4,0.4-0.4c0.2,0,0.4,0.2,0.4,0.4
			C52.4,60.9,52.2,61.1,52,61.1z"/>
		<path fill="#3C61ED" d="M54.5,60.3c0.2,0,0.4,0.2,0.4,0.4c0,0.2-0.2,0.4-0.4,0.4c-0.2,0-0.4-0.2-0.4-0.4
			C54.1,60.5,54.3,60.3,54.5,60.3z"/>
	</g>
</g>
<g>
	<g>
		<path fill="#3C61ED" d="M124.7,59.4c0.8,0,1.5,0,2.3,0c1,0,1.9,0.3,2.7,0.9c0.8,0.7,1.3,1.7,1.3,2.8c0,0.9,0,1.9,0,2.9
			c0,0.6-0.3,1-1,1c-2.4,0-4.8,0-7.2,0c-3.3,0-6.7,0-10,0c-0.8,0-1.1-0.3-1.1-1.1c0-1,0-2.1,0-3.1c0.1-1.8,1.7-3.3,3.5-3.3
			c0.9,0,1.8,0,2.7,0c0-0.4,0-0.7,0-1.1c0.1-0.5-0.1-0.7-0.5-1c-1.9-1.3-2.8-3.2-2.8-5.5c0-0.9,0-1.9,0-2.8c0-0.2,0-0.3-0.2-0.5
			c-0.3-0.3-0.3-0.4-0.1-0.7c0.2-0.4,0.3-0.8,0.2-1.2c-0.1-0.2,0-0.5,0.2-0.6c0.3-0.3,0.5-0.6,0.4-1.1c0-0.3,0.1-0.5,0.4-0.6
			c0.4-0.2,0.6-0.5,0.7-0.9c0.1-0.3,0.2-0.5,0.5-0.5c0.4-0.1,0.7-0.3,0.9-0.7c0.1-0.2,0.3-0.4,0.6-0.4c0.4,0,0.8-0.1,1.1-0.5
			c0.2-0.2,0.4-0.3,0.6-0.2c0.4,0.2,0.8,0.1,1.1-0.2c0.2-0.2,0.5-0.2,0.7,0c0.4,0.3,0.8,0.3,1.2,0.1c0.2-0.1,0.5,0,0.6,0.2
			c0.3,0.4,0.7,0.5,1.1,0.5c0.2,0,0.4,0.1,0.5,0.3c0.2,0.4,0.5,0.7,1,0.8c0.2,0,0.4,0.2,0.4,0.4c0.1,0.5,0.3,0.8,0.8,1
			c0.2,0.1,0.3,0.3,0.3,0.6c0,0.4,0.1,0.7,0.4,1c0.2,0.2,0.3,0.4,0.2,0.7c-0.1,0.4-0.1,0.7,0.1,1.1c0.2,0.4,0.2,0.5-0.1,0.8
			c-0.1,0.1-0.1,0.3-0.2,0.4c0,1.1,0,2.1,0,3.2c-0.1,2.3-1.2,4.1-3.1,5.4c-0.2,0.1-0.3,0.2-0.2,0.4
			C124.8,58.4,124.7,58.9,124.7,59.4z M115.6,49.4c0,0.8,0,1.6,0,2.4c0,0.4,0,0.8,0.1,1.2c0.5,2.6,2.8,4.6,5.5,4.7
			c2.7,0.1,5.2-1.8,5.9-4.4c0.3-1.3,0.1-2.6,0.2-3.9c-0.2-0.1-0.3-0.1-0.4-0.2c-0.3-0.2-0.6-0.2-0.9,0c-0.3,0.2-0.5,0.2-0.8,0
			c-0.3-0.2-0.6-0.2-0.9,0c-0.3,0.2-0.6,0.2-0.8,0c-0.3-0.2-0.5-0.2-0.8,0c-0.3,0.2-0.6,0.2-0.9,0c-0.3-0.2-0.5-0.2-0.8,0
			c-0.3,0.2-0.5,0.2-0.8,0c-0.3-0.2-0.6-0.2-0.9,0c-0.3,0.2-0.5,0.2-0.8,0c-0.3-0.2-0.6-0.2-0.9,0c-0.1,0.1-0.4,0.2-0.5,0.1
			c-0.5-0.3-1-0.3-1.4,0C115.6,49.4,115.6,49.4,115.6,49.4z M112.7,66.1c1.7,0,3.3,0,5,0c0.4-2.2,2-3.2,3.4-3.3
			c0.8-0.1,1.6,0.1,2.3,0.6c1,0.6,1.6,1.6,1.7,2.7c1.7,0,3.3,0,5,0c0-1.1,0.1-2.1,0-3.2c-0.1-1.4-1.3-2.5-2.7-2.6
			c-0.9-0.1-1.8,0-2.7,0c-0.1,0-0.2,0.1-0.2,0.1c-0.2,0.5-0.6,0.8-1.1,1.1c-1.4,0.6-2.8,0.6-4.2,0c-0.5-0.2-0.9-0.5-1.1-1
			c-0.1-0.2-0.2-0.2-0.4-0.2c-0.8,0-1.5,0-2.3,0c-1.3,0-2.5,0.9-2.8,2.2c0,0.1-0.1,0.3-0.1,0.4C112.7,63.9,112.7,65,112.7,66.1z
			 M127.6,48c-0.3-0.4-0.4-0.8-0.2-1.3c0.1-0.2,0-0.3-0.1-0.4c-0.4-0.3-0.5-0.7-0.5-1.1c0-0.1-0.1-0.3-0.2-0.3
			c-0.4-0.2-0.6-0.5-0.7-1c0-0.1-0.2-0.2-0.3-0.3c-0.4-0.1-0.8-0.3-1-0.7c-0.1-0.1-0.2-0.2-0.4-0.2c-0.4,0-0.8-0.1-1.1-0.4
			c-0.1-0.1-0.3-0.1-0.4-0.1c-0.4,0.1-0.8,0.1-1.1-0.2c-0.2-0.1-0.3-0.1-0.4,0c-0.3,0.2-0.7,0.3-1.1,0.2c-0.2-0.1-0.3,0-0.5,0.1
			c-0.3,0.3-0.6,0.5-1,0.4c-0.2,0-0.3,0-0.4,0.2c-0.2,0.4-0.5,0.6-0.9,0.7c-0.1,0-0.3,0.2-0.3,0.3c-0.1,0.4-0.3,0.7-0.7,1
			c-0.1,0.1-0.2,0.2-0.2,0.4c0,0.4-0.1,0.8-0.4,1c-0.2,0.2-0.2,0.3-0.1,0.5c0.1,0.3,0.1,0.7-0.1,1c-0.1,0.2-0.1,0.3,0.1,0.5
			c0.2,0.2,0.3,0.2,0.5,0.1c0.3-0.2,0.6-0.3,0.9,0c0.3,0.2,0.5,0.2,0.8,0c0.3-0.2,0.6-0.2,0.8,0c0.3,0.2,0.5,0.2,0.8,0
			c0.3-0.2,0.6-0.2,0.9,0c0.3,0.2,0.6,0.2,0.8,0c0.3-0.2,0.5-0.2,0.8,0c0.3,0.2,0.6,0.2,0.8,0c0.3-0.2,0.6-0.2,0.8,0
			c0.3,0.2,0.6,0.2,0.8,0c0.3-0.2,0.5-0.2,0.8,0c0.3,0.2,0.6,0.2,0.9,0c0.2-0.2,0.5-0.2,0.7,0C127.2,48.5,127.2,48.5,127.6,48
			C127.5,48.1,127.5,48.1,127.6,48z M118.9,58.1c0,0.5,0,1,0,1.5c0,0.5,0.2,0.8,0.6,1c0.6,0.3,1.2,0.5,1.8,0.5c0.7,0,1.4-0.1,2-0.4
			c0.3-0.2,0.6-0.4,0.7-0.7c0-0.6,0-1.2,0-1.8C122.2,58.7,120.6,58.7,118.9,58.1z M124.3,66.1c-0.2-1.5-1.6-2.6-3.2-2.5
			c-1.3,0.1-2.6,1.4-2.5,2.5c0.1,0,0.3,0,0.4,0c0.3,0,0.4-0.1,0.5-0.3c0.3-0.8,0.9-1.3,1.8-1.3c0.9-0.1,1.6,0.3,2,1.1
			C123.4,66.1,123.7,66.2,124.3,66.1C124.2,66.1,124.2,66.1,124.3,66.1z M122.5,66.1c-0.2-0.5-0.7-0.9-1.2-0.8c-0.5,0-1,0.4-1,0.8
			C121,66.1,121.8,66.1,122.5,66.1z"/>
	</g>
</g>
</svg>
