<?xml version="1.0" encoding="utf-8"?>
<!-- Generator: Adobe Illustrator 26.3.1, SVG Export Plug-In . SVG Version: 6.00 Build 0)  -->
<svg version="1.1" baseProfile="tiny" id="Layer_1" xmlns="http://www.w3.org/2000/svg" xmlns:xlink="http://www.w3.org/1999/xlink"
	 x="0px" y="0px" width="514.7px" height="162.5px" viewBox="0 0 514.7 162.5" overflow="visible" xml:space="preserve">
<path fill="#F2EDED" d="M498.6,162.5H15.9c-8.8,0-15.9-7.2-15.9-16.1V16.1C0,7.2,7.1,0,15.9,0h482.8c8.8,0,15.9,7.2,15.9,16.1v130.4
	C514.6,155.3,507.4,162.5,498.6,162.5z"/>
<g>
	<g>
		<path fill="#3C61ED" d="M220.2,70.6v6.2H219v-6.2H220.2z"/>
		<path fill="#3C61ED" d="M223.3,72c0.3-0.1,0.6-0.2,0.9-0.2v1.3h-0.3c-0.4,0-0.7,0.1-0.9,0.3c-0.2,0.2-0.3,0.5-0.3,1v2.5h-1.2v-4.9
			h1.2v0.8C222.9,72.4,223.1,72.2,223.3,72z"/>
		<path fill="#3C61ED" d="M225.1,71.1c-0.1-0.1-0.2-0.3-0.2-0.5s0.1-0.4,0.2-0.5c0.1-0.1,0.3-0.2,0.5-0.2c0.2,0,0.4,0.1,0.5,0.2
			s0.2,0.3,0.2,0.5s-0.1,0.4-0.2,0.5s-0.3,0.2-0.5,0.2C225.5,71.3,225.3,71.2,225.1,71.1z M226.3,71.9v4.9h-1.2v-4.9H226.3z"/>
		<path fill="#3C61ED" d="M228.3,76.7c-0.3-0.1-0.6-0.3-0.8-0.6c-0.2-0.2-0.3-0.5-0.3-0.8h1.3c0,0.2,0.1,0.3,0.3,0.5
			s0.4,0.2,0.6,0.2c0.2,0,0.4,0,0.6-0.1s0.2-0.2,0.2-0.4c0-0.2-0.1-0.3-0.2-0.4c-0.2-0.1-0.4-0.2-0.8-0.3c-0.4-0.1-0.7-0.2-0.9-0.3
			c-0.2-0.1-0.4-0.2-0.6-0.4c-0.2-0.2-0.3-0.5-0.3-0.8c0-0.3,0.1-0.5,0.2-0.7c0.2-0.2,0.4-0.4,0.7-0.5c0.3-0.1,0.6-0.2,1-0.2
			c0.6,0,1.1,0.1,1.4,0.4c0.3,0.3,0.5,0.7,0.6,1.2h-1.2c0-0.2-0.1-0.4-0.2-0.5c-0.1-0.1-0.3-0.2-0.6-0.2c-0.2,0-0.4,0-0.5,0.1
			c-0.1,0.1-0.2,0.2-0.2,0.3c0,0.2,0.1,0.3,0.2,0.4s0.4,0.2,0.8,0.3c0.4,0.1,0.6,0.2,0.9,0.3s0.4,0.2,0.6,0.4
			c0.2,0.2,0.3,0.5,0.3,0.8c0,0.3-0.1,0.5-0.2,0.8c-0.2,0.2-0.4,0.4-0.7,0.5c-0.3,0.1-0.6,0.2-1,0.2C229,76.9,228.7,76.8,228.3,76.7
			z"/>
		<path fill="#3C61ED" d="M236.1,72c0.3,0.2,0.5,0.4,0.7,0.7c0.2,0.3,0.2,0.7,0.2,1.1v2.9h-1.2v-2.7c0-0.4-0.1-0.7-0.3-0.9
			c-0.2-0.2-0.5-0.3-0.8-0.3c-0.3,0-0.6,0.1-0.8,0.3c-0.2,0.2-0.3,0.5-0.3,0.9v2.7h-1.2v-6.6h1.2v2.3c0.2-0.2,0.4-0.4,0.6-0.5
			c0.3-0.1,0.6-0.2,0.9-0.2C235.5,71.8,235.9,71.9,236.1,72z"/>
		<path fill="#3C61ED" d="M248.7,70.6l-1.7,6.2h-1.5l-1.2-4.4l-1.2,4.4l-1.5,0l-1.7-6.2h1.3l1.1,4.8l1.3-4.8h1.4l1.2,4.8l1.1-4.8
			H248.7z"/>
		<path fill="#3C61ED" d="M254,74.7h-3.6c0,0.4,0.2,0.6,0.4,0.8c0.2,0.2,0.5,0.3,0.8,0.3c0.5,0,0.8-0.2,1-0.6h1.3
			c-0.1,0.5-0.4,0.9-0.8,1.2c-0.4,0.3-0.9,0.5-1.5,0.5c-0.5,0-0.9-0.1-1.3-0.3s-0.7-0.5-0.9-0.9s-0.3-0.8-0.3-1.3
			c0-0.5,0.1-1,0.3-1.3s0.5-0.7,0.9-0.9c0.4-0.2,0.8-0.3,1.3-0.3c0.5,0,0.9,0.1,1.3,0.3c0.4,0.2,0.7,0.5,0.9,0.9
			c0.2,0.4,0.3,0.8,0.3,1.3C254,74.4,254,74.6,254,74.7z M252.8,73.9c0-0.3-0.1-0.6-0.3-0.8c-0.2-0.2-0.5-0.3-0.8-0.3
			c-0.3,0-0.6,0.1-0.8,0.3c-0.2,0.2-0.3,0.4-0.4,0.8H252.8z"/>
		<path fill="#3C61ED" d="M256.9,72c0.3-0.1,0.6-0.2,1-0.2c0.4,0,0.8,0.1,1.1,0.3c0.3,0.2,0.6,0.5,0.8,0.9c0.2,0.4,0.3,0.8,0.3,1.3
			c0,0.5-0.1,0.9-0.3,1.3c-0.2,0.4-0.5,0.7-0.8,0.9c-0.3,0.2-0.7,0.3-1.1,0.3c-0.4,0-0.7-0.1-1-0.2s-0.5-0.3-0.7-0.6v0.7H255v-6.6
			h1.2v2.4C256.4,72.4,256.6,72.2,256.9,72z M258.6,73.5c-0.1-0.2-0.3-0.4-0.5-0.5c-0.2-0.1-0.4-0.2-0.6-0.2c-0.2,0-0.4,0.1-0.6,0.2
			c-0.2,0.1-0.4,0.3-0.5,0.5c-0.1,0.2-0.2,0.5-0.2,0.8c0,0.3,0.1,0.6,0.2,0.8c0.1,0.2,0.3,0.4,0.5,0.5c0.2,0.1,0.4,0.2,0.6,0.2
			c0.2,0,0.4-0.1,0.6-0.2c0.2-0.1,0.4-0.3,0.5-0.5s0.2-0.5,0.2-0.8C258.8,74,258.7,73.8,258.6,73.5z"/>
		<path fill="#3C61ED" d="M266.9,75.6h-2.5l-0.4,1.2h-1.3l2.2-6.2h1.4l2.2,6.2h-1.3L266.9,75.6z M266.6,74.6l-0.9-2.6l-0.9,2.6
			H266.6z"/>
		<path fill="#3C61ED" d="M276.3,71.9l-1.4,4.9h-1.3l-0.9-3.4l-0.9,3.4h-1.4l-1.4-4.9h1.3l0.9,3.8l0.9-3.8h1.3l0.9,3.7l0.9-3.7
			H276.3z"/>
		<path fill="#3C61ED" d="M276.9,73c0.2-0.4,0.5-0.7,0.8-0.9c0.3-0.2,0.7-0.3,1.1-0.3c0.4,0,0.7,0.1,1,0.2c0.3,0.1,0.5,0.3,0.7,0.6
			v-0.7h1.3v4.9h-1.3v-0.7c-0.2,0.2-0.4,0.4-0.7,0.6c-0.3,0.2-0.6,0.2-1,0.2c-0.4,0-0.8-0.1-1.1-0.3c-0.3-0.2-0.6-0.5-0.8-0.9
			c-0.2-0.4-0.3-0.8-0.3-1.3C276.6,73.8,276.7,73.4,276.9,73z M280.3,73.6c-0.1-0.2-0.3-0.4-0.5-0.5c-0.2-0.1-0.4-0.2-0.6-0.2
			s-0.4,0.1-0.6,0.2c-0.2,0.1-0.4,0.3-0.5,0.5c-0.1,0.2-0.2,0.5-0.2,0.8s0.1,0.6,0.2,0.8c0.1,0.2,0.3,0.4,0.5,0.5s0.4,0.2,0.6,0.2
			c0.2,0,0.4-0.1,0.6-0.2c0.2-0.1,0.4-0.3,0.5-0.5c0.1-0.2,0.2-0.5,0.2-0.8C280.5,74,280.5,73.8,280.3,73.6z"/>
		<path fill="#3C61ED" d="M284.9,72c0.3-0.1,0.6-0.2,0.9-0.2v1.3h-0.3c-0.4,0-0.7,0.1-0.9,0.3s-0.3,0.5-0.3,1v2.5H283v-4.9h1.2v0.8
			C284.4,72.4,284.6,72.2,284.9,72z"/>
		<path fill="#3C61ED" d="M286.6,73c0.2-0.4,0.5-0.7,0.8-0.9c0.3-0.2,0.7-0.3,1.1-0.3c0.3,0,0.6,0.1,0.9,0.2
			c0.3,0.1,0.5,0.3,0.7,0.6v-2.3h1.3v6.6h-1.3v-0.7c-0.2,0.2-0.4,0.4-0.6,0.6s-0.6,0.2-1,0.2c-0.4,0-0.8-0.1-1.1-0.3
			c-0.3-0.2-0.6-0.5-0.8-0.9c-0.2-0.4-0.3-0.8-0.3-1.3C286.3,73.8,286.4,73.4,286.6,73z M290,73.6c-0.1-0.2-0.3-0.4-0.5-0.5
			c-0.2-0.1-0.4-0.2-0.6-0.2s-0.4,0.1-0.6,0.2c-0.2,0.1-0.4,0.3-0.5,0.5c-0.1,0.2-0.2,0.5-0.2,0.8s0.1,0.6,0.2,0.8
			c0.1,0.2,0.3,0.4,0.5,0.5s0.4,0.2,0.6,0.2c0.2,0,0.4-0.1,0.6-0.2c0.2-0.1,0.4-0.3,0.5-0.5c0.1-0.2,0.2-0.5,0.2-0.8
			C290.1,74,290.1,73.8,290,73.6z"/>
		<path fill="#3C61ED" d="M293.4,76.7c-0.3-0.1-0.6-0.3-0.8-0.6c-0.2-0.2-0.3-0.5-0.3-0.8h1.3c0,0.2,0.1,0.3,0.3,0.5
			s0.4,0.2,0.6,0.2c0.2,0,0.4,0,0.6-0.1c0.1-0.1,0.2-0.2,0.2-0.4c0-0.2-0.1-0.3-0.2-0.4c-0.2-0.1-0.4-0.2-0.8-0.3
			c-0.4-0.1-0.7-0.2-0.9-0.3c-0.2-0.1-0.4-0.2-0.6-0.4c-0.2-0.2-0.3-0.5-0.3-0.8c0-0.3,0.1-0.5,0.2-0.7c0.2-0.2,0.4-0.4,0.7-0.5
			c0.3-0.1,0.6-0.2,1-0.2c0.6,0,1.1,0.1,1.4,0.4s0.5,0.7,0.6,1.2h-1.2c0-0.2-0.1-0.4-0.2-0.5c-0.1-0.1-0.3-0.2-0.6-0.2
			c-0.2,0-0.4,0-0.5,0.1c-0.1,0.1-0.2,0.2-0.2,0.3c0,0.2,0.1,0.3,0.2,0.4s0.4,0.2,0.8,0.3c0.4,0.1,0.6,0.2,0.9,0.3s0.4,0.2,0.6,0.4
			c0.2,0.2,0.3,0.5,0.3,0.8c0,0.3-0.1,0.5-0.2,0.8c-0.2,0.2-0.4,0.4-0.7,0.5c-0.3,0.1-0.6,0.2-1,0.2
			C294.1,76.9,293.7,76.8,293.4,76.7z"/>
		<path fill="#3C61ED" d="M227.7,84c0.2,0.3,0.3,0.6,0.3,0.9c0,0.3-0.1,0.5-0.2,0.8c-0.1,0.2-0.4,0.4-0.6,0.5
			c-0.3,0.1-0.6,0.2-1,0.2H224v-5.6h2.1c0.4,0,0.7,0.1,1,0.2s0.5,0.3,0.6,0.5s0.2,0.5,0.2,0.7c0,0.3-0.1,0.6-0.3,0.8
			c-0.2,0.2-0.4,0.4-0.7,0.5C227.3,83.6,227.5,83.7,227.7,84z M224.9,83.2h1.1c0.3,0,0.5-0.1,0.7-0.2c0.2-0.1,0.3-0.3,0.3-0.6
			c0-0.3-0.1-0.4-0.3-0.6c-0.2-0.1-0.4-0.2-0.7-0.2h-1.1V83.2z M226.9,85.4c0.2-0.1,0.3-0.4,0.3-0.6c0-0.3-0.1-0.5-0.3-0.6
			c-0.2-0.2-0.4-0.2-0.7-0.2h-1.2v1.7h1.2C226.4,85.6,226.7,85.6,226.9,85.4z"/>
		<path fill="#3C61ED" d="M233,84.5h-3.4c0,0.4,0.2,0.6,0.4,0.8c0.2,0.2,0.5,0.3,0.9,0.3c0.5,0,0.8-0.2,1-0.6h1
			c-0.1,0.4-0.4,0.7-0.7,1s-0.8,0.4-1.3,0.4c-0.4,0-0.8-0.1-1.1-0.3c-0.3-0.2-0.6-0.5-0.8-0.8c-0.2-0.3-0.3-0.7-0.3-1.2
			c0-0.5,0.1-0.9,0.3-1.2c0.2-0.3,0.4-0.6,0.8-0.8c0.3-0.2,0.7-0.3,1.1-0.3c0.4,0,0.8,0.1,1.1,0.3s0.6,0.4,0.8,0.8
			c0.2,0.3,0.3,0.7,0.3,1.1C233.1,84.2,233.1,84.4,233,84.5z M232.1,83.8c0-0.3-0.1-0.6-0.4-0.8c-0.2-0.2-0.5-0.3-0.9-0.3
			c-0.3,0-0.6,0.1-0.8,0.3c-0.2,0.2-0.4,0.5-0.4,0.8H232.1z"/>
		<path fill="#3C61ED" d="M234.6,86.3c-0.3-0.1-0.5-0.3-0.7-0.5c-0.2-0.2-0.2-0.5-0.3-0.7h0.9c0,0.2,0.1,0.3,0.3,0.5
			c0.2,0.1,0.4,0.2,0.6,0.2c0.3,0,0.5,0,0.6-0.1c0.1-0.1,0.2-0.2,0.2-0.4c0-0.2-0.1-0.3-0.2-0.4c-0.2-0.1-0.4-0.2-0.7-0.3
			c-0.3-0.1-0.6-0.2-0.8-0.3c-0.2-0.1-0.4-0.2-0.5-0.4c-0.2-0.2-0.2-0.4-0.2-0.7c0-0.2,0.1-0.4,0.2-0.6c0.1-0.2,0.3-0.3,0.6-0.5
			s0.6-0.2,0.9-0.2c0.5,0,0.9,0.1,1.2,0.4c0.3,0.3,0.5,0.6,0.5,1h-0.9c0-0.2-0.1-0.4-0.2-0.5c-0.1-0.1-0.3-0.2-0.6-0.2
			c-0.2,0-0.4,0-0.6,0.1c-0.1,0.1-0.2,0.2-0.2,0.4c0,0.1,0,0.2,0.1,0.3s0.2,0.1,0.3,0.2s0.3,0.1,0.5,0.2c0.3,0.1,0.6,0.2,0.8,0.3
			c0.2,0.1,0.4,0.2,0.5,0.4c0.1,0.2,0.2,0.4,0.2,0.7c0,0.3-0.1,0.5-0.2,0.7c-0.1,0.2-0.3,0.4-0.6,0.5c-0.3,0.1-0.6,0.2-0.9,0.2
			C235.2,86.5,234.9,86.4,234.6,86.3z"/>
		<path fill="#3C61ED" d="M239.3,82.7v2.4c0,0.2,0,0.3,0.1,0.4c0.1,0.1,0.2,0.1,0.4,0.1h0.6v0.8h-0.7c-0.4,0-0.7-0.1-0.9-0.3
			s-0.3-0.5-0.3-0.9v-2.4h-0.5V82h0.5v-1.1h0.9V82h1.1v0.7H239.3z"/>
		<path fill="#3C61ED" d="M244.1,86.3c-0.3-0.1-0.5-0.3-0.7-0.6c-0.2-0.2-0.3-0.5-0.3-0.8h1c0,0.2,0.1,0.4,0.3,0.6s0.4,0.2,0.7,0.2
			c0.3,0,0.6-0.1,0.7-0.2c0.2-0.2,0.3-0.3,0.3-0.6c0-0.2-0.1-0.3-0.2-0.5s-0.2-0.2-0.4-0.3s-0.4-0.1-0.7-0.2
			c-0.4-0.1-0.7-0.2-0.9-0.3c-0.2-0.1-0.4-0.3-0.6-0.5c-0.2-0.2-0.2-0.5-0.2-0.8c0-0.3,0.1-0.6,0.2-0.8c0.2-0.2,0.4-0.4,0.7-0.6
			s0.6-0.2,1-0.2c0.5,0,1,0.1,1.3,0.4c0.3,0.3,0.5,0.6,0.6,1.1h-1c0-0.2-0.1-0.4-0.3-0.5c-0.2-0.1-0.4-0.2-0.7-0.2
			c-0.3,0-0.5,0.1-0.6,0.2c-0.2,0.1-0.2,0.3-0.2,0.6c0,0.2,0.1,0.3,0.2,0.4c0.1,0.1,0.2,0.2,0.4,0.3s0.4,0.1,0.7,0.2
			c0.4,0.1,0.7,0.2,0.9,0.3c0.2,0.1,0.4,0.3,0.6,0.5c0.2,0.2,0.2,0.5,0.2,0.8c0,0.3-0.1,0.5-0.2,0.8c-0.2,0.3-0.4,0.5-0.7,0.6
			c-0.3,0.2-0.6,0.2-1,0.2C244.8,86.4,244.4,86.4,244.1,86.3z"/>
		<path fill="#3C61ED" d="M249.2,82.7v2.4c0,0.2,0,0.3,0.1,0.4c0.1,0.1,0.2,0.1,0.4,0.1h0.6v0.8h-0.7c-0.4,0-0.7-0.1-0.9-0.3
			s-0.3-0.5-0.3-0.9v-2.4h-0.5V82h0.5v-1.1h0.9V82h1.1v0.7H249.2z"/>
		<path fill="#3C61ED" d="M251.1,83c0.2-0.3,0.4-0.6,0.8-0.8c0.3-0.2,0.7-0.3,1.1-0.3c0.3,0,0.6,0.1,0.9,0.2
			c0.3,0.1,0.5,0.3,0.6,0.5V82h0.9v4.4h-0.9v-0.7c-0.2,0.2-0.4,0.4-0.6,0.5c-0.3,0.1-0.6,0.2-0.9,0.2c-0.4,0-0.7-0.1-1-0.3
			c-0.3-0.2-0.6-0.5-0.7-0.8c-0.2-0.3-0.3-0.7-0.3-1.2C250.8,83.7,250.9,83.3,251.1,83z M254.2,83.4c-0.1-0.2-0.3-0.4-0.5-0.5
			c-0.2-0.1-0.4-0.2-0.7-0.2s-0.5,0.1-0.7,0.2s-0.4,0.3-0.5,0.5c-0.1,0.2-0.2,0.5-0.2,0.8c0,0.3,0.1,0.6,0.2,0.8
			c0.1,0.2,0.3,0.4,0.5,0.5c0.2,0.1,0.4,0.2,0.7,0.2c0.2,0,0.5-0.1,0.7-0.2s0.4-0.3,0.5-0.5c0.1-0.2,0.2-0.5,0.2-0.8
			S254.3,83.6,254.2,83.4z"/>
		<path fill="#3C61ED" d="M258,82.1c0.2-0.1,0.5-0.2,0.8-0.2v0.9h-0.2c-0.4,0-0.6,0.1-0.8,0.3c-0.2,0.2-0.3,0.5-0.3,0.9v2.3h-0.9V82
			h0.9v0.6C257.6,82.4,257.8,82.2,258,82.1z"/>
		<path fill="#3C61ED" d="M260.7,82.7v2.4c0,0.2,0,0.3,0.1,0.4c0.1,0.1,0.2,0.1,0.4,0.1h0.6v0.8H261c-0.4,0-0.7-0.1-0.9-0.3
			s-0.3-0.5-0.3-0.9v-2.4h-0.5V82h0.5v-1.1h0.9V82h1.1v0.7H260.7z"/>
		<path fill="#3C61ED" d="M266.6,82v4.4h-0.9v-0.5c-0.1,0.2-0.3,0.3-0.6,0.4c-0.2,0.1-0.5,0.2-0.7,0.2c-0.3,0-0.7-0.1-0.9-0.2
			c-0.3-0.1-0.5-0.4-0.6-0.6s-0.2-0.6-0.2-1V82h0.9v2.5c0,0.4,0.1,0.7,0.3,0.9c0.2,0.2,0.5,0.3,0.8,0.3c0.3,0,0.6-0.1,0.8-0.3
			c0.2-0.2,0.3-0.5,0.3-0.9V82H266.6z"/>
		<path fill="#3C61ED" d="M269.3,82.1c0.3-0.1,0.6-0.2,0.9-0.2c0.4,0,0.7,0.1,1.1,0.3c0.3,0.2,0.6,0.5,0.7,0.8
			c0.2,0.3,0.3,0.7,0.3,1.2c0,0.4-0.1,0.8-0.3,1.2c-0.2,0.3-0.4,0.6-0.7,0.8c-0.3,0.2-0.7,0.3-1.1,0.3c-0.3,0-0.6-0.1-0.9-0.2
			c-0.3-0.1-0.5-0.3-0.6-0.5v2.7h-0.9V82h0.9v0.6C268.8,82.4,269,82.3,269.3,82.1z M271.2,83.4c-0.1-0.2-0.3-0.4-0.5-0.5
			s-0.4-0.2-0.7-0.2c-0.2,0-0.4,0.1-0.7,0.2c-0.2,0.1-0.4,0.3-0.5,0.5c-0.1,0.2-0.2,0.5-0.2,0.8s0.1,0.6,0.2,0.8
			c0.1,0.2,0.3,0.4,0.5,0.5c0.2,0.1,0.4,0.2,0.7,0.2c0.2,0,0.5-0.1,0.7-0.2s0.4-0.3,0.5-0.5c0.1-0.2,0.2-0.5,0.2-0.8
			C271.4,83.9,271.3,83.6,271.2,83.4z"/>
		<path fill="#3C61ED" d="M275.7,85.2c0.5-0.4,0.9-0.8,1.2-1.1c0.3-0.3,0.5-0.6,0.7-0.9c0.2-0.3,0.3-0.6,0.3-0.9
			c0-0.3-0.1-0.6-0.2-0.8c-0.2-0.2-0.4-0.3-0.7-0.3c-0.3,0-0.6,0.1-0.7,0.3c-0.2,0.2-0.3,0.5-0.3,0.8h-0.9c0-0.6,0.2-1.1,0.5-1.4
			c0.3-0.3,0.8-0.5,1.3-0.5c0.6,0,1,0.2,1.4,0.5c0.3,0.3,0.5,0.7,0.5,1.3c0,0.4-0.1,0.8-0.3,1.1c-0.2,0.4-0.4,0.7-0.7,1
			c-0.3,0.3-0.6,0.6-1,1l-0.4,0.3h2.5v0.8h-3.9v-0.7L275.7,85.2z"/>
		<path fill="#3C61ED" d="M280.2,81.2c0.3-0.5,0.8-0.8,1.6-0.8s1.3,0.3,1.6,0.8c0.3,0.5,0.5,1.2,0.5,2.2c0,0.9-0.2,1.7-0.5,2.2
			c-0.3,0.5-0.8,0.8-1.6,0.8s-1.3-0.3-1.6-0.8c-0.3-0.5-0.5-1.3-0.5-2.2C279.8,82.5,279.9,81.8,280.2,81.2z M282.9,82.3
			c-0.1-0.3-0.2-0.5-0.3-0.7c-0.2-0.2-0.4-0.3-0.8-0.3c-0.3,0-0.6,0.1-0.8,0.3c-0.2,0.2-0.3,0.4-0.3,0.7s-0.1,0.7-0.1,1.1
			c0,0.4,0,0.8,0.1,1.1c0.1,0.3,0.2,0.5,0.3,0.7c0.2,0.2,0.4,0.3,0.8,0.3c0.3,0,0.6-0.1,0.8-0.3c0.2-0.2,0.3-0.4,0.3-0.7
			c0.1-0.3,0.1-0.7,0.1-1.1C283,83,283,82.6,282.9,82.3z"/>
		<path fill="#3C61ED" d="M284.8,81.4v-0.8h1.7v5.8h-0.9v-5H284.8z"/>
		<path fill="#3C61ED" d="M288.2,85.2c0.5-0.4,0.9-0.8,1.2-1.1c0.3-0.3,0.5-0.6,0.7-0.9c0.2-0.3,0.3-0.6,0.3-0.9
			c0-0.3-0.1-0.6-0.2-0.8c-0.2-0.2-0.4-0.3-0.7-0.3c-0.3,0-0.6,0.1-0.7,0.3c-0.2,0.2-0.3,0.5-0.3,0.8h-0.9c0-0.6,0.2-1.1,0.5-1.4
			c0.3-0.3,0.8-0.5,1.3-0.5c0.6,0,1,0.2,1.4,0.5c0.3,0.3,0.5,0.7,0.5,1.3c0,0.4-0.1,0.8-0.3,1.1c-0.2,0.4-0.4,0.7-0.7,1
			c-0.3,0.3-0.6,0.6-1,1l-0.4,0.3h2.5v0.8h-3.9v-0.7L288.2,85.2z"/>
	</g>
	<g id="eJzvWk.tif">
		<g>
			<path fill="#3C61ED" d="M196.4,59.7c0.6,1.6,1.1,3.2,1,4.9c0,1.9-1,3.4-2.6,4.4c-1.1-1.4-1.4-2.9-1-4.6c0.3-1.4,1.1-2.6,1.9-3.8
				C195.9,60.4,196.1,60.1,196.4,59.7z"/>
			<path fill="#3C61ED" d="M199.2,103.3c1.7-0.7,3.4-1.3,5.3-1.2c1.8,0.1,3.1,1,4.1,2.4c-0.5,0.4-1.1,0.8-1.7,1
				c-1.2,0.4-2.4,0.3-3.5,0C202.3,105.3,200.1,104.1,199.2,103.3z"/>
			<path fill="#3C61ED" d="M202.9,60.6c0.3-1.4,1-2.5,2.1-3.3c1-0.7,2.1-1.1,3.3-1.2c0.8-0.1,1.7-0.2,2.5-0.3c0.1,0,0.1,0,0.2,0
				c-0.8,1.3-1.5,2.5-2.6,3.6c-0.6,0.6-1.3,1-2.2,1.3C205.1,61,204,60.9,202.9,60.6z"/>
			<path fill="#3C61ED" d="M207.6,61.7c-1,1.4-2.1,2.7-3.5,3.6c-1.6,1-3.3,1.1-5.1,0.3c0.1-0.3,0.2-0.5,0.3-0.8
				c0.7-1.5,1.9-2.4,3.4-2.8C204.3,61.6,205.9,61.6,207.6,61.7z"/>
			<path fill="#3C61ED" d="M186.6,78.7c2,0.8,3.9,1.5,5.2,3.3c0.9,1.2,1.1,2.5,0.9,3.9c-0.9,0-1.7-0.2-2.4-0.6
				c-1.1-0.6-1.8-1.5-2.4-2.5C187.2,81.6,186.9,80.2,186.6,78.7z"/>
			<path fill="#3C61ED" d="M203.3,100.5c-1.8,1.2-3.6,1.3-5.5,0.5c-1.3-0.6-2.6-1.5-3.7-2.5c0.1,0,0.2-0.1,0.3-0.1
				c1.3-0.4,2.7-0.7,4.1-0.7C200.6,97.7,202.2,98.6,203.3,100.5z"/>
			<path fill="#3C61ED" d="M199.7,83.5c0.3,2.1,0.6,4.2-0.2,6.2c-0.5,1.2-1.8,2.3-3,2.7c-0.6-1.2-0.8-2.4-0.5-3.7
				c0.4-1.5,1.3-2.7,2.3-3.8C198.8,84.4,199.2,84,199.7,83.5z"/>
			<path fill="#3C61ED" d="M192.8,75.4c-1.2-0.7-2-1.7-2.4-3.1c-0.4-1.4-0.2-2.7,0.1-4.1c0.1-0.7,0.3-1.4,0.5-2.1
				c0.3,0.3,0.5,0.6,0.7,0.9c0.8,1,1.6,2.1,2,3.4C194.3,72.1,194,73.8,192.8,75.4z"/>
			<path fill="#3C61ED" d="M201.5,88.1c0.4,1,0.8,1.9,1.2,2.9c0.3,0.9,0.5,1.9,0.4,2.9c-0.1,1.5-0.8,2.7-2,3.6
				c-0.1-0.1-0.2-0.2-0.3-0.3c-1.3-1.5-1.6-3.2-1.2-5.1c0.3-1.4,1-2.7,1.7-4C201.4,88.2,201.4,88.2,201.5,88.1z"/>
			<path fill="#3C61ED" d="M195.1,91.5c-1.6,0.2-3.1-0.1-4.3-1.2c-1.1-1-1.9-2.2-2.5-3.6c-0.2-0.4-0.4-0.7-0.6-1.1
				c0,0,0.1-0.1,0.1-0.1c0.4,0.1,0.8,0.2,1.2,0.2c1.4,0.3,2.8,0.7,4,1.6C194.4,88.4,195,89.8,195.1,91.5z"/>
			<path fill="#3C61ED" d="M194.6,72.7c0.1-1.7,0.7-3,2-4c1.2-0.9,2.6-1.4,4-1.8c0.4-0.1,0.8-0.2,1.2-0.3c-0.5,1.1-0.9,2.2-1.5,3.2
				c-0.5,0.8-1.1,1.5-1.8,2C197.4,72.7,196.1,72.9,194.6,72.7z"/>
			<path fill="#3C61ED" d="M198.7,96.5c-1.6,0.5-3.2,0.4-4.6-0.4c-1.6-1-2.7-2.5-3.8-4c1.7,0,3.4,0,5,0.6
				C197.1,93.3,198.2,94.7,198.7,96.5z"/>
			<path fill="#3C61ED" d="M187.5,72.9c1.6,0.8,3.1,1.6,4.2,2.9c1.3,1.4,1.5,3.1,1.1,5c-1.4-0.2-2.5-0.8-3.4-1.9
				c-0.7-0.9-1.1-1.9-1.4-3C187.8,74.8,187.7,73.8,187.5,72.9z"/>
			<path fill="#3C61ED" d="M199,63.1c-0.8-1.7-0.8-3.3,0-4.9c0.8-1.6,2-2.7,3.4-3.9c0.1,0.4,0.1,0.8,0.1,1.1
				c0.1,1.3,0.2,2.5-0.1,3.8C202.1,61.2,200.9,62.4,199,63.1z"/>
			<path fill="#3C61ED" d="M204,94c0.8,0.5,1.6,1.1,2.3,1.7c0.9,0.7,1.6,1.5,2.1,2.5c0.6,1.3,0.6,2.7,0.1,4
				c-0.9-0.2-1.7-0.6-2.4-1.2c-0.7-0.6-1.1-1.4-1.5-2.2C204,97.3,203.9,95.7,204,94C203.9,94.1,203.9,94.1,204,94z"/>
			<path fill="#3C61ED" d="M198.5,78.8c-0.1,1.7-0.2,3.3-0.8,4.9c-0.7,1.8-2.1,2.9-4.1,3.3c-0.3-0.8-0.3-1.6-0.2-2.5
				c0.2-1,0.7-1.9,1.3-2.7C195.8,80.5,197.1,79.6,198.5,78.8z"/>
			<path fill="#3C61ED" d="M193.8,79.8c-0.3-1.9,0.2-3.4,1.4-4.7c1.2-1.2,2.7-2,4.2-2.7c0,0,0,0,0.1,0c-0.3,1.9-0.6,3.7-1.7,5.3
				C196.8,79,195.4,79.7,193.8,79.8z"/>
		</g>
		<g>
			<path fill="#3C61ED" d="M318.3,59.7c-0.6,1.6-1.1,3.2-1,4.9c0,1.9,1,3.4,2.6,4.4c1.1-1.4,1.4-2.9,1-4.6c-0.3-1.4-1.1-2.6-1.9-3.8
				C318.8,60.4,318.5,60.1,318.3,59.7z"/>
			<path fill="#3C61ED" d="M315.4,103.3c-1.7-0.7-3.4-1.3-5.3-1.2c-1.8,0.1-3.1,1-4.1,2.4c0.5,0.4,1.1,0.8,1.7,1
				c1.2,0.4,2.4,0.3,3.5,0C312.4,105.3,314.6,104.1,315.4,103.3z"/>
			<path fill="#3C61ED" d="M311.8,60.6c-0.3-1.4-1-2.5-2.1-3.3c-1-0.7-2.1-1.1-3.3-1.2c-0.8-0.1-1.7-0.2-2.5-0.3c-0.1,0-0.1,0-0.2,0
				c0.8,1.3,1.5,2.5,2.6,3.6c0.6,0.6,1.3,1,2.2,1.3C309.6,61,310.7,60.9,311.8,60.6z"/>
			<path fill="#3C61ED" d="M307.1,61.7c1,1.4,2.1,2.7,3.5,3.6c1.6,1,3.3,1.1,5.1,0.3c-0.1-0.3-0.2-0.5-0.3-0.8
				c-0.7-1.5-1.9-2.4-3.4-2.8C310.4,61.6,308.7,61.6,307.1,61.7z"/>
			<path fill="#3C61ED" d="M328.1,78.7c-2,0.8-3.9,1.5-5.2,3.3c-0.9,1.2-1.1,2.5-0.9,3.9c0.9,0,1.7-0.2,2.4-0.6
				c1.1-0.6,1.8-1.5,2.4-2.5C327.4,81.6,327.8,80.2,328.1,78.7z"/>
			<path fill="#3C61ED" d="M311.3,100.5c1.8,1.2,3.6,1.3,5.5,0.5c1.3-0.6,2.6-1.5,3.7-2.5c-0.1,0-0.2-0.1-0.3-0.1
				c-1.3-0.4-2.7-0.7-4.1-0.7C314,97.7,312.4,98.6,311.3,100.5z"/>
			<path fill="#3C61ED" d="M314.9,83.5c-0.3,2.1-0.6,4.2,0.2,6.2c0.5,1.2,1.8,2.3,3,2.7c0.6-1.2,0.8-2.4,0.5-3.7
				c-0.4-1.5-1.3-2.7-2.3-3.8C315.9,84.4,315.4,84,314.9,83.5z"/>
			<path fill="#3C61ED" d="M321.9,75.4c1.2-0.7,2-1.7,2.4-3.1c0.4-1.4,0.2-2.7-0.1-4.1c-0.1-0.7-0.3-1.4-0.5-2.1
				c-0.3,0.3-0.5,0.6-0.7,0.9c-0.8,1-1.6,2.1-2,3.4C320.3,72.1,320.7,73.8,321.9,75.4z"/>
			<path fill="#3C61ED" d="M313.2,88.1c-0.4,1-0.8,1.9-1.2,2.9c-0.3,0.9-0.5,1.9-0.4,2.9c0.1,1.5,0.8,2.7,2,3.6
				c0.1-0.1,0.2-0.2,0.3-0.3c1.3-1.5,1.6-3.2,1.2-5.1c-0.3-1.4-1-2.7-1.7-4C313.3,88.2,313.2,88.2,313.2,88.1z"/>
			<path fill="#3C61ED" d="M319.6,91.5c1.6,0.2,3.1-0.1,4.3-1.2c1.1-1,1.9-2.2,2.5-3.6c0.2-0.4,0.4-0.7,0.6-1.1c0,0-0.1-0.1-0.1-0.1
				c-0.4,0.1-0.8,0.2-1.2,0.2c-1.4,0.3-2.8,0.7-4,1.6C320.3,88.4,319.7,89.8,319.6,91.5z"/>
			<path fill="#3C61ED" d="M320,72.7c-0.1-1.7-0.7-3-2-4c-1.2-0.9-2.6-1.4-4-1.8c-0.4-0.1-0.8-0.2-1.2-0.3c0.5,1.1,0.9,2.2,1.5,3.2
				c0.5,0.8,1.1,1.5,1.8,2C317.3,72.7,318.6,72.9,320,72.7z"/>
			<path fill="#3C61ED" d="M316,96.5c1.6,0.5,3.2,0.4,4.6-0.4c1.6-1,2.7-2.5,3.8-4c-1.7,0-3.4,0-5,0.6
				C317.5,93.3,316.5,94.7,316,96.5z"/>
			<path fill="#3C61ED" d="M327.1,72.9c-1.6,0.8-3.1,1.6-4.2,2.9c-1.3,1.4-1.5,3.1-1.1,5c1.4-0.2,2.5-0.8,3.4-1.9
				c0.7-0.9,1.1-1.9,1.4-3C326.8,74.8,327,73.8,327.1,72.9z"/>
			<path fill="#3C61ED" d="M315.6,63.1c0.8-1.7,0.8-3.3,0-4.9c-0.8-1.6-2-2.7-3.4-3.9c-0.1,0.4-0.1,0.8-0.1,1.1
				c-0.1,1.3-0.2,2.5,0.1,3.8C312.6,61.2,313.8,62.4,315.6,63.1z"/>
			<path fill="#3C61ED" d="M310.7,94c-0.8,0.5-1.6,1.1-2.3,1.7c-0.9,0.7-1.6,1.5-2.1,2.5c-0.6,1.3-0.6,2.7-0.1,4
				c0.9-0.2,1.7-0.6,2.4-1.2c0.7-0.6,1.1-1.4,1.5-2.2C310.6,97.3,310.7,95.7,310.7,94C310.8,94.1,310.7,94.1,310.7,94z"/>
			<path fill="#3C61ED" d="M316.2,78.8c0.1,1.7,0.2,3.3,0.8,4.9c0.7,1.8,2.1,2.9,4.1,3.3c0.3-0.8,0.3-1.6,0.2-2.5
				c-0.2-1-0.7-1.9-1.3-2.7C318.9,80.5,317.6,79.6,316.2,78.8z"/>
			<path fill="#3C61ED" d="M320.9,79.8c0.3-1.9-0.2-3.4-1.4-4.7c-1.2-1.2-2.7-2-4.2-2.7c0,0,0,0-0.1,0c0.3,1.9,0.6,3.7,1.7,5.3
				C317.8,79,319.2,79.7,320.9,79.8z"/>
		</g>
	</g>
</g>
<g>
	<g>
		<path fill="#3C61ED" d="M373.8,67.8V74h-1.2v-6.2H373.8z"/>
		<path fill="#3C61ED" d="M376.9,69.2c0.3-0.1,0.6-0.2,0.9-0.2v1.3h-0.3c-0.4,0-0.7,0.1-0.9,0.3s-0.3,0.5-0.3,1V74H375v-4.9h1.2v0.8
			C376.4,69.6,376.6,69.4,376.9,69.2z"/>
		<path fill="#3C61ED" d="M378.7,68.3c-0.1-0.1-0.2-0.3-0.2-0.5s0.1-0.4,0.2-0.5c0.1-0.1,0.3-0.2,0.5-0.2c0.2,0,0.4,0.1,0.5,0.2
			s0.2,0.3,0.2,0.5s-0.1,0.4-0.2,0.5s-0.3,0.2-0.5,0.2C379,68.5,378.8,68.4,378.7,68.3z M379.8,69.1V74h-1.2v-4.9H379.8z"/>
		<path fill="#3C61ED" d="M381.8,73.8c-0.3-0.1-0.6-0.3-0.8-0.6c-0.2-0.2-0.3-0.5-0.3-0.8h1.3c0,0.2,0.1,0.3,0.3,0.5
			s0.4,0.2,0.6,0.2c0.2,0,0.4,0,0.6-0.1c0.1-0.1,0.2-0.2,0.2-0.4c0-0.2-0.1-0.3-0.2-0.4c-0.2-0.1-0.4-0.2-0.8-0.3
			c-0.4-0.1-0.7-0.2-0.9-0.3c-0.2-0.1-0.4-0.2-0.6-0.4c-0.2-0.2-0.3-0.5-0.3-0.8c0-0.3,0.1-0.5,0.2-0.7c0.2-0.2,0.4-0.4,0.7-0.5
			c0.3-0.1,0.6-0.2,1-0.2c0.6,0,1.1,0.1,1.4,0.4s0.5,0.7,0.6,1.2h-1.2c0-0.2-0.1-0.4-0.2-0.5c-0.1-0.1-0.3-0.2-0.6-0.2
			c-0.2,0-0.4,0-0.5,0.1c-0.1,0.1-0.2,0.2-0.2,0.3c0,0.2,0.1,0.3,0.2,0.4s0.4,0.2,0.8,0.3c0.4,0.1,0.6,0.2,0.9,0.3s0.4,0.2,0.6,0.4
			c0.2,0.2,0.3,0.5,0.3,0.8c0,0.3-0.1,0.5-0.2,0.8c-0.2,0.2-0.4,0.4-0.7,0.5c-0.3,0.1-0.6,0.2-1,0.2C382.5,74.1,382.2,74,381.8,73.8
			z"/>
		<path fill="#3C61ED" d="M389.7,69.2c0.3,0.2,0.5,0.4,0.7,0.7c0.2,0.3,0.2,0.7,0.2,1.1V74h-1.2v-2.7c0-0.4-0.1-0.7-0.3-0.9
			c-0.2-0.2-0.5-0.3-0.8-0.3c-0.3,0-0.6,0.1-0.8,0.3s-0.3,0.5-0.3,0.9V74h-1.2v-6.6h1.2v2.3c0.2-0.2,0.4-0.4,0.6-0.5
			c0.3-0.1,0.6-0.2,0.9-0.2C389,69,389.4,69.1,389.7,69.2z"/>
		<path fill="#3C61ED" d="M402.2,67.8l-1.7,6.2H399l-1.2-4.4l-1.2,4.4l-1.5,0l-1.7-6.2h1.3l1.1,4.8l1.3-4.8h1.4l1.2,4.8l1.1-4.8
			H402.2z"/>
		<path fill="#3C61ED" d="M407.5,71.9h-3.6c0,0.4,0.2,0.6,0.4,0.8c0.2,0.2,0.5,0.3,0.8,0.3c0.5,0,0.8-0.2,1-0.6h1.3
			c-0.1,0.5-0.4,0.9-0.8,1.2c-0.4,0.3-0.9,0.5-1.5,0.5c-0.5,0-0.9-0.1-1.3-0.3c-0.4-0.2-0.7-0.5-0.9-0.9c-0.2-0.4-0.3-0.8-0.3-1.3
			c0-0.5,0.1-1,0.3-1.3c0.2-0.4,0.5-0.7,0.9-0.9c0.4-0.2,0.8-0.3,1.3-0.3c0.5,0,0.9,0.1,1.3,0.3c0.4,0.2,0.7,0.5,0.9,0.9
			c0.2,0.4,0.3,0.8,0.3,1.3C407.6,71.6,407.6,71.8,407.5,71.9z M406.3,71.1c0-0.3-0.1-0.6-0.3-0.8c-0.2-0.2-0.5-0.3-0.8-0.3
			c-0.3,0-0.6,0.1-0.8,0.3c-0.2,0.2-0.3,0.4-0.4,0.8H406.3z"/>
		<path fill="#3C61ED" d="M410.4,69.2c0.3-0.1,0.6-0.2,1-0.2c0.4,0,0.8,0.1,1.1,0.3c0.3,0.2,0.6,0.5,0.8,0.9
			c0.2,0.4,0.3,0.8,0.3,1.3c0,0.5-0.1,0.9-0.3,1.3s-0.5,0.7-0.8,0.9c-0.3,0.2-0.7,0.3-1.1,0.3c-0.4,0-0.7-0.1-1-0.2
			c-0.3-0.1-0.5-0.3-0.7-0.6V74h-1.2v-6.6h1.2v2.4C409.9,69.5,410.1,69.4,410.4,69.2z M412.1,70.7c-0.1-0.2-0.3-0.4-0.5-0.5
			c-0.2-0.1-0.4-0.2-0.6-0.2c-0.2,0-0.4,0.1-0.6,0.2c-0.2,0.1-0.4,0.3-0.5,0.5c-0.1,0.2-0.2,0.5-0.2,0.8c0,0.3,0.1,0.6,0.2,0.8
			c0.1,0.2,0.3,0.4,0.5,0.5c0.2,0.1,0.4,0.2,0.6,0.2c0.2,0,0.4-0.1,0.6-0.2s0.4-0.3,0.5-0.5c0.1-0.2,0.2-0.5,0.2-0.8
			C412.3,71.2,412.3,71,412.1,70.7z"/>
		<path fill="#3C61ED" d="M420.4,72.8h-2.5l-0.4,1.2h-1.3l2.2-6.2h1.4l2.2,6.2h-1.3L420.4,72.8z M420.1,71.8l-0.9-2.6l-0.9,2.6
			H420.1z"/>
		<path fill="#3C61ED" d="M429.8,69.1l-1.4,4.9H427l-0.9-3.4l-0.9,3.4h-1.4l-1.4-4.9h1.3l0.9,3.8l0.9-3.8h1.3l0.9,3.7l0.9-3.7H429.8
			z"/>
		<path fill="#3C61ED" d="M430.5,70.2c0.2-0.4,0.5-0.7,0.8-0.9c0.3-0.2,0.7-0.3,1.1-0.3c0.4,0,0.7,0.1,1,0.2
			c0.3,0.1,0.5,0.3,0.7,0.6v-0.7h1.3V74H434v-0.7c-0.2,0.2-0.4,0.4-0.7,0.6c-0.3,0.2-0.6,0.2-1,0.2c-0.4,0-0.8-0.1-1.1-0.3
			c-0.3-0.2-0.6-0.5-0.8-0.9c-0.2-0.4-0.3-0.8-0.3-1.3C430.2,71,430.3,70.6,430.5,70.2z M433.9,70.7c-0.1-0.2-0.3-0.4-0.5-0.5
			c-0.2-0.1-0.4-0.2-0.6-0.2s-0.4,0.1-0.6,0.2c-0.2,0.1-0.4,0.3-0.5,0.5c-0.1,0.2-0.2,0.5-0.2,0.8s0.1,0.6,0.2,0.8
			c0.1,0.2,0.3,0.4,0.5,0.5s0.4,0.2,0.6,0.2c0.2,0,0.4-0.1,0.6-0.2c0.2-0.1,0.4-0.3,0.5-0.5c0.1-0.2,0.2-0.5,0.2-0.8
			C434,71.2,434,71,433.9,70.7z"/>
		<path fill="#3C61ED" d="M438.4,69.2c0.3-0.1,0.6-0.2,0.9-0.2v1.3h-0.3c-0.4,0-0.7,0.1-0.9,0.3s-0.3,0.5-0.3,1V74h-1.2v-4.9h1.2
			v0.8C437.9,69.6,438.1,69.4,438.4,69.2z"/>
		<path fill="#3C61ED" d="M440.1,70.2c0.2-0.4,0.5-0.7,0.8-0.9c0.3-0.2,0.7-0.3,1.1-0.3c0.3,0,0.6,0.1,0.9,0.2
			c0.3,0.1,0.5,0.3,0.7,0.6v-2.3h1.3V74h-1.3v-0.7c-0.2,0.2-0.4,0.4-0.6,0.6s-0.6,0.2-1,0.2c-0.4,0-0.8-0.1-1.1-0.3
			c-0.3-0.2-0.6-0.5-0.8-0.9c-0.2-0.4-0.3-0.8-0.3-1.3C439.8,71,439.9,70.6,440.1,70.2z M443.5,70.7c-0.1-0.2-0.3-0.4-0.5-0.5
			c-0.2-0.1-0.4-0.2-0.6-0.2s-0.4,0.1-0.6,0.2c-0.2,0.1-0.4,0.3-0.5,0.5c-0.1,0.2-0.2,0.5-0.2,0.8s0.1,0.6,0.2,0.8
			c0.1,0.2,0.3,0.4,0.5,0.5s0.4,0.2,0.6,0.2c0.2,0,0.4-0.1,0.6-0.2c0.2-0.1,0.4-0.3,0.5-0.5c0.1-0.2,0.2-0.5,0.2-0.8
			C443.7,71.2,443.6,71,443.5,70.7z"/>
		<path fill="#3C61ED" d="M446.9,73.8c-0.3-0.1-0.6-0.3-0.8-0.6c-0.2-0.2-0.3-0.5-0.3-0.8h1.3c0,0.2,0.1,0.3,0.3,0.5
			s0.4,0.2,0.6,0.2c0.2,0,0.4,0,0.6-0.1c0.1-0.1,0.2-0.2,0.2-0.4c0-0.2-0.1-0.3-0.2-0.4c-0.2-0.1-0.4-0.2-0.8-0.3
			c-0.4-0.1-0.7-0.2-0.9-0.3c-0.2-0.1-0.4-0.2-0.6-0.4c-0.2-0.2-0.3-0.5-0.3-0.8c0-0.3,0.1-0.5,0.2-0.7c0.2-0.2,0.4-0.4,0.7-0.5
			c0.3-0.1,0.6-0.2,1-0.2c0.6,0,1.1,0.1,1.4,0.4s0.5,0.7,0.6,1.2h-1.2c0-0.2-0.1-0.4-0.2-0.5c-0.1-0.1-0.3-0.2-0.6-0.2
			c-0.2,0-0.4,0-0.5,0.1c-0.1,0.1-0.2,0.2-0.2,0.3c0,0.2,0.1,0.3,0.2,0.4s0.4,0.2,0.8,0.3c0.4,0.1,0.6,0.2,0.9,0.3s0.4,0.2,0.6,0.4
			c0.2,0.2,0.3,0.5,0.3,0.8c0,0.3-0.1,0.5-0.2,0.8c-0.2,0.2-0.4,0.4-0.7,0.5c-0.3,0.1-0.6,0.2-1,0.2C447.6,74.1,447.2,74,446.9,73.8
			z"/>
		<path fill="#3C61ED" d="M380.8,81.2c0.2,0.3,0.3,0.6,0.3,0.9c0,0.3-0.1,0.5-0.2,0.8s-0.4,0.4-0.6,0.5c-0.3,0.1-0.6,0.2-1,0.2h-2.2
			V78h2.1c0.4,0,0.7,0.1,1,0.2c0.3,0.1,0.5,0.3,0.6,0.5s0.2,0.5,0.2,0.7c0,0.3-0.1,0.6-0.3,0.8c-0.2,0.2-0.4,0.4-0.7,0.5
			C380.3,80.8,380.6,80.9,380.8,81.2z M378,80.4h1.1c0.3,0,0.5-0.1,0.7-0.2c0.2-0.1,0.3-0.3,0.3-0.6c0-0.3-0.1-0.4-0.3-0.6
			c-0.2-0.1-0.4-0.2-0.7-0.2H378V80.4z M379.9,82.6c0.2-0.1,0.3-0.4,0.3-0.6c0-0.3-0.1-0.5-0.3-0.6c-0.2-0.2-0.4-0.2-0.7-0.2H378
			v1.7h1.2C379.5,82.8,379.8,82.8,379.9,82.6z"/>
		<path fill="#3C61ED" d="M386.1,81.7h-3.4c0,0.4,0.2,0.6,0.4,0.8s0.5,0.3,0.9,0.3c0.5,0,0.8-0.2,1-0.6h1c-0.1,0.4-0.4,0.7-0.7,1
			s-0.8,0.4-1.3,0.4c-0.4,0-0.8-0.1-1.1-0.3c-0.3-0.2-0.6-0.5-0.8-0.8c-0.2-0.3-0.3-0.7-0.3-1.2c0-0.5,0.1-0.9,0.3-1.2
			c0.2-0.3,0.4-0.6,0.8-0.8c0.3-0.2,0.7-0.3,1.1-0.3c0.4,0,0.8,0.1,1.1,0.3c0.3,0.2,0.6,0.4,0.8,0.8c0.2,0.3,0.3,0.7,0.3,1.1
			C386.1,81.4,386.1,81.6,386.1,81.7z M385.2,81c0-0.3-0.1-0.6-0.4-0.8c-0.2-0.2-0.5-0.3-0.9-0.3c-0.3,0-0.6,0.1-0.8,0.3
			c-0.2,0.2-0.4,0.5-0.4,0.8H385.2z"/>
		<path fill="#3C61ED" d="M387.7,83.5c-0.3-0.1-0.5-0.3-0.7-0.5c-0.2-0.2-0.2-0.5-0.3-0.7h0.9c0,0.2,0.1,0.3,0.3,0.5
			c0.2,0.1,0.4,0.2,0.6,0.2c0.3,0,0.5,0,0.6-0.1c0.1-0.1,0.2-0.2,0.2-0.4c0-0.2-0.1-0.3-0.2-0.4c-0.2-0.1-0.4-0.2-0.7-0.3
			c-0.3-0.1-0.6-0.2-0.8-0.3c-0.2-0.1-0.4-0.2-0.5-0.4c-0.2-0.2-0.2-0.4-0.2-0.7c0-0.2,0.1-0.4,0.2-0.6c0.1-0.2,0.3-0.3,0.6-0.5
			c0.3-0.1,0.6-0.2,0.9-0.2c0.5,0,0.9,0.1,1.2,0.4c0.3,0.3,0.5,0.6,0.5,1h-0.9c0-0.2-0.1-0.4-0.2-0.5c-0.1-0.1-0.3-0.2-0.6-0.2
			c-0.2,0-0.4,0-0.6,0.1c-0.1,0.1-0.2,0.2-0.2,0.4c0,0.1,0,0.2,0.1,0.3c0.1,0.1,0.2,0.1,0.3,0.2s0.3,0.1,0.5,0.2
			c0.3,0.1,0.6,0.2,0.8,0.3c0.2,0.1,0.4,0.2,0.5,0.4c0.1,0.2,0.2,0.4,0.2,0.7c0,0.3-0.1,0.5-0.2,0.7s-0.3,0.4-0.6,0.5
			c-0.3,0.1-0.6,0.2-0.9,0.2C388.3,83.7,388,83.6,387.7,83.5z"/>
		<path fill="#3C61ED" d="M392.4,79.9v2.4c0,0.2,0,0.3,0.1,0.4c0.1,0.1,0.2,0.1,0.4,0.1h0.6v0.8h-0.7c-0.4,0-0.7-0.1-0.9-0.3
			s-0.3-0.5-0.3-0.9v-2.4h-0.5v-0.7h0.5v-1.1h0.9v1.1h1.1v0.7H392.4z"/>
		<path fill="#3C61ED" d="M397.3,78.8v1.6h1.9v0.7h-1.9v1.7h2.2v0.7h-3.1V78h3.1v0.7H397.3z"/>
		<path fill="#3C61ED" d="M400.5,80.2c0.2-0.3,0.4-0.6,0.8-0.8c0.3-0.2,0.7-0.3,1.1-0.3c0.3,0,0.6,0.1,0.9,0.2
			c0.3,0.1,0.5,0.3,0.7,0.5v-2.1h0.9v5.9h-0.9v-0.7c-0.1,0.2-0.4,0.4-0.6,0.5c-0.3,0.1-0.6,0.2-0.9,0.2c-0.4,0-0.7-0.1-1.1-0.3
			c-0.3-0.2-0.6-0.5-0.8-0.8c-0.2-0.3-0.3-0.7-0.3-1.2C400.3,80.9,400.3,80.5,400.5,80.2z M403.7,80.6c-0.1-0.2-0.3-0.4-0.5-0.5
			c-0.2-0.1-0.4-0.2-0.7-0.2c-0.2,0-0.5,0.1-0.7,0.2c-0.2,0.1-0.4,0.3-0.5,0.5c-0.1,0.2-0.2,0.5-0.2,0.8c0,0.3,0.1,0.6,0.2,0.8
			c0.1,0.2,0.3,0.4,0.5,0.5s0.4,0.2,0.7,0.2c0.2,0,0.5-0.1,0.7-0.2c0.2-0.1,0.4-0.3,0.5-0.5c0.1-0.2,0.2-0.5,0.2-0.8
			S403.8,80.8,403.7,80.6z"/>
		<path fill="#3C61ED" d="M410,79.2v4.4h-0.9v-0.5c-0.1,0.2-0.3,0.3-0.6,0.4c-0.2,0.1-0.5,0.2-0.7,0.2c-0.3,0-0.7-0.1-0.9-0.2
			c-0.3-0.1-0.5-0.4-0.6-0.6s-0.2-0.6-0.2-1v-2.6h0.9v2.5c0,0.4,0.1,0.7,0.3,0.9c0.2,0.2,0.5,0.3,0.8,0.3c0.3,0,0.6-0.1,0.8-0.3
			c0.2-0.2,0.3-0.5,0.3-0.9v-2.5H410z"/>
		<path fill="#3C61ED" d="M411.1,80.2c0.2-0.3,0.4-0.6,0.8-0.8c0.3-0.2,0.7-0.3,1.1-0.3c0.5,0,1,0.1,1.3,0.4
			c0.3,0.3,0.6,0.6,0.7,1.1h-1c-0.1-0.2-0.2-0.4-0.4-0.5s-0.4-0.2-0.7-0.2c-0.4,0-0.7,0.1-0.9,0.4c-0.2,0.3-0.3,0.6-0.3,1.1
			s0.1,0.8,0.3,1.1c0.2,0.3,0.5,0.4,0.9,0.4c0.5,0,0.9-0.2,1-0.7h1c-0.1,0.4-0.4,0.8-0.7,1.1c-0.4,0.3-0.8,0.4-1.3,0.4
			c-0.4,0-0.8-0.1-1.1-0.3s-0.6-0.5-0.8-0.8c-0.2-0.3-0.3-0.7-0.3-1.2C410.9,80.9,411,80.5,411.1,80.2z"/>
		<path fill="#3C61ED" d="M415.9,80.2c0.2-0.3,0.4-0.6,0.8-0.8c0.3-0.2,0.7-0.3,1.1-0.3c0.3,0,0.6,0.1,0.9,0.2
			c0.3,0.1,0.5,0.3,0.6,0.5v-0.6h0.9v4.4h-0.9v-0.7c-0.2,0.2-0.4,0.4-0.6,0.5c-0.3,0.1-0.6,0.2-0.9,0.2c-0.4,0-0.7-0.1-1-0.3
			c-0.3-0.2-0.6-0.5-0.7-0.8c-0.2-0.3-0.3-0.7-0.3-1.2C415.7,80.9,415.8,80.5,415.9,80.2z M419.1,80.6c-0.1-0.2-0.3-0.4-0.5-0.5
			c-0.2-0.1-0.4-0.2-0.7-0.2c-0.2,0-0.5,0.1-0.7,0.2c-0.2,0.1-0.4,0.3-0.5,0.5c-0.1,0.2-0.2,0.5-0.2,0.8c0,0.3,0.1,0.6,0.2,0.8
			c0.1,0.2,0.3,0.4,0.5,0.5s0.4,0.2,0.7,0.2c0.2,0,0.5-0.1,0.7-0.2c0.2-0.1,0.4-0.3,0.5-0.5c0.1-0.2,0.2-0.5,0.2-0.8
			S419.2,80.8,419.1,80.6z"/>
		<path fill="#3C61ED" d="M422.5,79.9v2.4c0,0.2,0,0.3,0.1,0.4c0.1,0.1,0.2,0.1,0.4,0.1h0.6v0.8h-0.7c-0.4,0-0.7-0.1-0.9-0.3
			s-0.3-0.5-0.3-0.9v-2.4H421v-0.7h0.5v-1.1h0.9v1.1h1.1v0.7H422.5z"/>
		<path fill="#3C61ED" d="M424.4,78.4c-0.1-0.1-0.2-0.3-0.2-0.4c0-0.2,0.1-0.3,0.2-0.4c0.1-0.1,0.2-0.2,0.4-0.2
			c0.2,0,0.3,0.1,0.4,0.2c0.1,0.1,0.2,0.3,0.2,0.4c0,0.2-0.1,0.3-0.2,0.4c-0.1,0.1-0.2,0.2-0.4,0.2
			C424.7,78.6,424.5,78.5,424.4,78.4z M425.3,79.2v4.4h-0.9v-4.4H425.3z"/>
		<path fill="#3C61ED" d="M427.3,83.4c-0.3-0.2-0.6-0.5-0.8-0.8c-0.2-0.3-0.3-0.7-0.3-1.2c0-0.4,0.1-0.8,0.3-1.2s0.5-0.6,0.8-0.8
			c0.3-0.2,0.7-0.3,1.1-0.3c0.4,0,0.8,0.1,1.1,0.3c0.3,0.2,0.6,0.5,0.8,0.8s0.3,0.7,0.3,1.2c0,0.4-0.1,0.8-0.3,1.2
			c-0.2,0.3-0.5,0.6-0.8,0.8s-0.7,0.3-1.2,0.3C428,83.7,427.6,83.6,427.3,83.4z M429.1,82.7c0.2-0.1,0.4-0.3,0.5-0.5
			s0.2-0.5,0.2-0.8s-0.1-0.6-0.2-0.8c-0.1-0.2-0.3-0.4-0.5-0.5c-0.2-0.1-0.4-0.2-0.7-0.2c-0.2,0-0.5,0.1-0.7,0.2s-0.4,0.3-0.5,0.5
			s-0.2,0.5-0.2,0.8c0,0.5,0.1,0.8,0.4,1.1c0.2,0.3,0.5,0.4,0.9,0.4C428.6,82.9,428.9,82.8,429.1,82.7z"/>
		<path fill="#3C61ED" d="M434.7,79.3c0.3,0.1,0.5,0.4,0.6,0.6c0.2,0.3,0.2,0.6,0.2,1v2.6h-0.9v-2.5c0-0.4-0.1-0.7-0.3-0.9
			c-0.2-0.2-0.5-0.3-0.8-0.3c-0.3,0-0.6,0.1-0.8,0.3c-0.2,0.2-0.3,0.5-0.3,0.9v2.5h-0.9v-4.4h0.9v0.5c0.1-0.2,0.3-0.3,0.6-0.4
			c0.2-0.1,0.5-0.2,0.7-0.2C434.2,79.1,434.5,79.2,434.7,79.3z"/>
		<path fill="#3C61ED" d="M436.8,80.2c0.2-0.3,0.4-0.6,0.8-0.8c0.3-0.2,0.7-0.3,1.1-0.3c0.3,0,0.6,0.1,0.9,0.2
			c0.3,0.1,0.5,0.3,0.6,0.5v-0.6h0.9v4.4h-0.9v-0.7c-0.2,0.2-0.4,0.4-0.6,0.5c-0.3,0.1-0.6,0.2-0.9,0.2c-0.4,0-0.7-0.1-1-0.3
			c-0.3-0.2-0.6-0.5-0.7-0.8c-0.2-0.3-0.3-0.7-0.3-1.2C436.5,80.9,436.6,80.5,436.8,80.2z M439.9,80.6c-0.1-0.2-0.3-0.4-0.5-0.5
			c-0.2-0.1-0.4-0.2-0.7-0.2c-0.2,0-0.5,0.1-0.7,0.2c-0.2,0.1-0.4,0.3-0.5,0.5c-0.1,0.2-0.2,0.5-0.2,0.8c0,0.3,0.1,0.6,0.2,0.8
			c0.1,0.2,0.3,0.4,0.5,0.5s0.4,0.2,0.7,0.2c0.2,0,0.5-0.1,0.7-0.2c0.2-0.1,0.4-0.3,0.5-0.5c0.1-0.2,0.2-0.5,0.2-0.8
			S440,80.8,439.9,80.6z"/>
		<path fill="#3C61ED" d="M443.1,77.7v5.9h-0.9v-5.9H443.1z"/>
		<path fill="#3C61ED" d="M390.1,90.1c-0.1,0.3-0.3,0.5-0.6,0.6c-0.3,0.2-0.7,0.2-1.1,0.2h-1v2.3h-0.9v-5.6h1.9
			c0.4,0,0.8,0.1,1.1,0.2c0.3,0.1,0.5,0.3,0.7,0.6c0.1,0.3,0.2,0.5,0.2,0.8C390.3,89.6,390.3,89.8,390.1,90.1z M389.1,90
			c0.2-0.2,0.3-0.4,0.3-0.7c0-0.6-0.3-0.9-1-0.9h-1v1.8h1C388.7,90.2,389,90.1,389.1,90z"/>
		<path fill="#3C61ED" d="M392.6,88.9c0.2-0.1,0.5-0.2,0.8-0.2v0.9h-0.2c-0.4,0-0.6,0.1-0.8,0.3c-0.2,0.2-0.3,0.5-0.3,0.9v2.3h-0.9
			v-4.4h0.9v0.6C392.3,89.2,392.4,89,392.6,88.9z"/>
		<path fill="#3C61ED" d="M395.1,93c-0.3-0.2-0.6-0.5-0.8-0.8c-0.2-0.3-0.3-0.7-0.3-1.2c0-0.4,0.1-0.8,0.3-1.2s0.5-0.6,0.8-0.8
			c0.3-0.2,0.7-0.3,1.1-0.3c0.4,0,0.8,0.1,1.1,0.3c0.3,0.2,0.6,0.5,0.8,0.8s0.3,0.7,0.3,1.2c0,0.4-0.1,0.8-0.3,1.2
			c-0.2,0.3-0.5,0.6-0.8,0.8s-0.7,0.3-1.2,0.3C395.8,93.3,395.4,93.2,395.1,93z M396.8,92.3c0.2-0.1,0.4-0.3,0.5-0.5
			s0.2-0.5,0.2-0.8s-0.1-0.6-0.2-0.8c-0.1-0.2-0.3-0.4-0.5-0.5c-0.2-0.1-0.4-0.2-0.7-0.2c-0.2,0-0.5,0.1-0.7,0.2s-0.4,0.3-0.5,0.5
			s-0.2,0.5-0.2,0.8c0,0.5,0.1,0.8,0.4,1.1c0.2,0.3,0.5,0.4,0.9,0.4C396.4,92.5,396.6,92.4,396.8,92.3z"/>
		<path fill="#3C61ED" d="M399.4,89.8c0.2-0.3,0.4-0.6,0.8-0.8c0.3-0.2,0.7-0.3,1.1-0.3c0.3,0,0.6,0.1,0.9,0.2
			c0.3,0.1,0.5,0.3,0.7,0.5v-2.1h0.9v5.9h-0.9v-0.7c-0.1,0.2-0.4,0.4-0.6,0.5c-0.3,0.1-0.6,0.2-0.9,0.2c-0.4,0-0.7-0.1-1.1-0.3
			c-0.3-0.2-0.6-0.5-0.8-0.8c-0.2-0.3-0.3-0.7-0.3-1.2C399.1,90.5,399.2,90.1,399.4,89.8z M402.5,90.2c-0.1-0.2-0.3-0.4-0.5-0.5
			c-0.2-0.1-0.4-0.2-0.7-0.2c-0.2,0-0.5,0.1-0.7,0.2c-0.2,0.1-0.4,0.3-0.5,0.5c-0.1,0.2-0.2,0.5-0.2,0.8c0,0.3,0.1,0.6,0.2,0.8
			c0.1,0.2,0.3,0.4,0.5,0.5s0.4,0.2,0.7,0.2c0.2,0,0.5-0.1,0.7-0.2c0.2-0.1,0.4-0.3,0.5-0.5c0.1-0.2,0.2-0.5,0.2-0.8
			S402.6,90.4,402.5,90.2z"/>
		<path fill="#3C61ED" d="M408.8,88.8v4.4h-0.9v-0.5c-0.1,0.2-0.3,0.3-0.6,0.4c-0.2,0.1-0.5,0.2-0.7,0.2c-0.3,0-0.7-0.1-0.9-0.2
			c-0.3-0.1-0.5-0.4-0.6-0.6s-0.2-0.6-0.2-1v-2.6h0.9v2.5c0,0.4,0.1,0.7,0.3,0.9c0.2,0.2,0.5,0.3,0.8,0.3c0.3,0,0.6-0.1,0.8-0.3
			c0.2-0.2,0.3-0.5,0.3-0.9v-2.5H408.8z"/>
		<path fill="#3C61ED" d="M410,89.8c0.2-0.3,0.4-0.6,0.8-0.8c0.3-0.2,0.7-0.3,1.1-0.3c0.5,0,1,0.1,1.3,0.4c0.3,0.3,0.6,0.6,0.7,1.1
			h-1c-0.1-0.2-0.2-0.4-0.4-0.5s-0.4-0.2-0.7-0.2c-0.4,0-0.7,0.1-0.9,0.4c-0.2,0.3-0.3,0.6-0.3,1.1s0.1,0.8,0.3,1.1
			c0.2,0.3,0.5,0.4,0.9,0.4c0.5,0,0.9-0.2,1-0.7h1c-0.1,0.4-0.4,0.8-0.7,1.1c-0.4,0.3-0.8,0.4-1.3,0.4c-0.4,0-0.8-0.1-1.1-0.3
			s-0.6-0.5-0.8-0.8c-0.2-0.3-0.3-0.7-0.3-1.2C409.7,90.5,409.8,90.1,410,89.8z"/>
		<path fill="#3C61ED" d="M415.9,89.5V92c0,0.2,0,0.3,0.1,0.4c0.1,0.1,0.2,0.1,0.4,0.1h0.6v0.8h-0.7c-0.4,0-0.7-0.1-0.9-0.3
			s-0.3-0.5-0.3-0.9v-2.4h-0.5v-0.7h0.5v-1.1h0.9v1.1h1.1v0.7H415.9z"/>
		<path fill="#3C61ED" d="M420.2,91.9c0.5-0.4,0.9-0.8,1.2-1.1c0.3-0.3,0.5-0.6,0.7-0.9c0.2-0.3,0.3-0.6,0.3-0.9
			c0-0.3-0.1-0.6-0.2-0.8c-0.2-0.2-0.4-0.3-0.7-0.3c-0.3,0-0.6,0.1-0.7,0.3c-0.2,0.2-0.3,0.5-0.3,0.8h-0.9c0-0.6,0.2-1.1,0.5-1.4
			c0.3-0.3,0.8-0.5,1.3-0.5c0.6,0,1,0.2,1.4,0.5c0.3,0.3,0.5,0.7,0.5,1.3c0,0.4-0.1,0.8-0.3,1.1c-0.2,0.4-0.4,0.7-0.7,1
			c-0.3,0.3-0.6,0.6-1,1l-0.4,0.3h2.5v0.8h-3.9v-0.7L420.2,91.9z"/>
		<path fill="#3C61ED" d="M424.8,88c0.3-0.5,0.8-0.8,1.6-0.8s1.3,0.3,1.6,0.8c0.3,0.5,0.5,1.2,0.5,2.2c0,0.9-0.2,1.7-0.5,2.2
			c-0.3,0.5-0.8,0.8-1.6,0.8s-1.3-0.3-1.6-0.8c-0.3-0.5-0.5-1.3-0.5-2.2C424.3,89.3,424.5,88.6,424.8,88z M427.5,89.1
			c-0.1-0.3-0.2-0.5-0.3-0.7c-0.2-0.2-0.4-0.3-0.8-0.3c-0.3,0-0.6,0.1-0.8,0.3c-0.2,0.2-0.3,0.4-0.3,0.7s-0.1,0.7-0.1,1.1
			c0,0.4,0,0.8,0.1,1.1c0.1,0.3,0.2,0.5,0.3,0.7c0.2,0.2,0.4,0.3,0.8,0.3c0.3,0,0.6-0.1,0.8-0.3c0.2-0.2,0.3-0.4,0.3-0.7
			c0.1-0.3,0.1-0.7,0.1-1.1C427.6,89.8,427.6,89.4,427.5,89.1z"/>
		<path fill="#3C61ED" d="M429.4,88.2v-0.8h1.7v5.8h-0.9v-5H429.4z"/>
		<path fill="#3C61ED" d="M432.8,91.9c0.5-0.4,0.9-0.8,1.2-1.1c0.3-0.3,0.5-0.6,0.7-0.9c0.2-0.3,0.3-0.6,0.3-0.9
			c0-0.3-0.1-0.6-0.2-0.8c-0.2-0.2-0.4-0.3-0.7-0.3c-0.3,0-0.6,0.1-0.7,0.3c-0.2,0.2-0.3,0.5-0.3,0.8h-0.9c0-0.6,0.2-1.1,0.5-1.4
			c0.3-0.3,0.8-0.5,1.3-0.5c0.6,0,1,0.2,1.4,0.5c0.3,0.3,0.5,0.7,0.5,1.3c0,0.4-0.1,0.8-0.3,1.1c-0.2,0.4-0.4,0.7-0.7,1
			c-0.3,0.3-0.6,0.6-1,1l-0.4,0.3h2.5v0.8h-3.9v-0.7L432.8,91.9z"/>
	</g>
	<g id="eJzvWk.tif_00000026148794698547547070000015232598721003465639_">
		<g>
			<path fill="#3C61ED" d="M349.9,59.7c0.6,1.6,1.1,3.2,1,4.9c0,1.9-1,3.4-2.6,4.4c-1.1-1.4-1.4-2.9-1-4.6c0.3-1.4,1.1-2.6,1.9-3.8
				C349.4,60.4,349.6,60.1,349.9,59.7z"/>
			<path fill="#3C61ED" d="M352.8,103.3c1.7-0.7,3.4-1.3,5.3-1.2c1.8,0.1,3.1,1,4.1,2.4c-0.5,0.4-1.1,0.8-1.7,1
				c-1.2,0.4-2.4,0.3-3.5,0C355.8,105.3,353.6,104.1,352.8,103.3z"/>
			<path fill="#3C61ED" d="M356.4,60.6c0.3-1.4,1-2.5,2.1-3.3c1-0.7,2.1-1.1,3.3-1.2c0.8-0.1,1.7-0.2,2.5-0.3c0.1,0,0.1,0,0.2,0
				c-0.8,1.3-1.5,2.5-2.6,3.6c-0.6,0.6-1.3,1-2.2,1.3C358.6,61,357.5,60.9,356.4,60.6z"/>
			<path fill="#3C61ED" d="M361.1,61.7c-1,1.4-2.1,2.7-3.5,3.6c-1.6,1-3.3,1.1-5.1,0.3c0.1-0.3,0.2-0.5,0.3-0.8
				c0.7-1.5,1.9-2.4,3.4-2.8C357.8,61.6,359.4,61.6,361.1,61.7z"/>
			<path fill="#3C61ED" d="M340.1,78.7c2,0.8,3.9,1.5,5.2,3.3c0.9,1.2,1.1,2.5,0.9,3.9c-0.9,0-1.7-0.2-2.4-0.6
				c-1.1-0.6-1.8-1.5-2.4-2.5C340.8,81.6,340.4,80.2,340.1,78.7z"/>
			<path fill="#3C61ED" d="M356.9,100.5c-1.8,1.2-3.6,1.3-5.5,0.5c-1.3-0.6-2.6-1.5-3.7-2.5c0.1,0,0.2-0.1,0.3-0.1
				c1.3-0.4,2.7-0.7,4.1-0.7C354.2,97.7,355.8,98.6,356.9,100.5z"/>
			<path fill="#3C61ED" d="M353.2,83.5c0.3,2.1,0.6,4.2-0.2,6.2c-0.5,1.2-1.8,2.3-3,2.7c-0.6-1.2-0.8-2.4-0.5-3.7
				c0.4-1.5,1.3-2.7,2.3-3.8C352.3,84.4,352.7,84,353.2,83.5z"/>
			<path fill="#3C61ED" d="M346.3,75.4c-1.2-0.7-2-1.7-2.4-3.1c-0.4-1.4-0.2-2.7,0.1-4.1c0.1-0.7,0.3-1.4,0.5-2.1
				c0.3,0.3,0.5,0.6,0.7,0.9c0.8,1,1.6,2.1,2,3.4C347.8,72.1,347.5,73.8,346.3,75.4z"/>
			<path fill="#3C61ED" d="M355,88.1c0.4,1,0.8,1.9,1.2,2.9c0.3,0.9,0.5,1.9,0.4,2.9c-0.1,1.5-0.8,2.7-2,3.6
				c-0.1-0.1-0.2-0.2-0.3-0.3c-1.3-1.5-1.6-3.2-1.2-5.1c0.3-1.4,1-2.7,1.7-4C354.9,88.2,354.9,88.2,355,88.1z"/>
			<path fill="#3C61ED" d="M348.6,91.5c-1.6,0.2-3.1-0.1-4.3-1.2c-1.1-1-1.9-2.2-2.5-3.6c-0.2-0.4-0.4-0.7-0.6-1.1
				c0,0,0.1-0.1,0.1-0.1c0.4,0.1,0.8,0.2,1.2,0.2c1.4,0.3,2.8,0.7,4,1.6C347.9,88.4,348.5,89.8,348.6,91.5z"/>
			<path fill="#3C61ED" d="M348.2,72.7c0.1-1.7,0.7-3,2-4c1.2-0.9,2.6-1.4,4-1.8c0.4-0.1,0.8-0.2,1.2-0.3c-0.5,1.1-0.9,2.2-1.5,3.2
				c-0.5,0.8-1.1,1.5-1.8,2C350.9,72.7,349.6,72.9,348.2,72.7z"/>
			<path fill="#3C61ED" d="M352.2,96.5c-1.6,0.5-3.2,0.4-4.6-0.4c-1.6-1-2.7-2.5-3.8-4c1.7,0,3.4,0,5,0.6
				C350.7,93.3,351.7,94.7,352.2,96.5z"/>
			<path fill="#3C61ED" d="M341,72.9c1.6,0.8,3.1,1.6,4.2,2.9c1.3,1.4,1.5,3.1,1.1,5c-1.4-0.2-2.5-0.8-3.4-1.9
				c-0.7-0.9-1.1-1.9-1.4-3C341.3,74.8,341.2,73.8,341,72.9z"/>
			<path fill="#3C61ED" d="M352.5,63.1c-0.8-1.7-0.8-3.3,0-4.9c0.8-1.6,2-2.7,3.4-3.9c0.1,0.4,0.1,0.8,0.1,1.1
				c0.1,1.3,0.2,2.5-0.1,3.8C355.6,61.2,354.4,62.4,352.5,63.1z"/>
			<path fill="#3C61ED" d="M357.5,94c0.8,0.5,1.6,1.1,2.3,1.7c0.9,0.7,1.6,1.5,2.1,2.5c0.6,1.3,0.6,2.7,0.1,4
				c-0.9-0.2-1.7-0.6-2.4-1.2c-0.7-0.6-1.1-1.4-1.5-2.2C357.5,97.3,357.4,95.7,357.5,94C357.4,94.1,357.4,94.1,357.5,94z"/>
			<path fill="#3C61ED" d="M352,78.8c-0.1,1.7-0.2,3.3-0.8,4.9c-0.7,1.8-2.1,2.9-4.1,3.3c-0.3-0.8-0.3-1.6-0.2-2.5
				c0.2-1,0.7-1.9,1.3-2.7C349.3,80.5,350.6,79.6,352,78.8z"/>
			<path fill="#3C61ED" d="M347.3,79.8c-0.3-1.9,0.2-3.4,1.4-4.7c1.2-1.2,2.7-2,4.2-2.7c0,0,0,0,0.1,0c-0.3,1.9-0.6,3.7-1.7,5.3
				C350.3,79,348.9,79.7,347.3,79.8z"/>
		</g>
		<g>
			<path fill="#3C61ED" d="M471.8,59.7c-0.6,1.6-1.1,3.2-1,4.9c0,1.9,1,3.4,2.6,4.4c1.1-1.4,1.4-2.9,1-4.6c-0.3-1.4-1.1-2.6-1.9-3.8
				C472.3,60.4,472.1,60.1,471.8,59.7z"/>
			<path fill="#3C61ED" d="M468.9,103.3c-1.7-0.7-3.4-1.3-5.3-1.2c-1.8,0.1-3.1,1-4.1,2.4c0.5,0.4,1.1,0.8,1.7,1
				c1.2,0.4,2.4,0.3,3.5,0C465.9,105.3,468.1,104.1,468.9,103.3z"/>
			<path fill="#3C61ED" d="M465.3,60.6c-0.3-1.4-1-2.5-2.1-3.3c-1-0.7-2.1-1.1-3.3-1.2c-0.8-0.1-1.7-0.2-2.5-0.3c-0.1,0-0.1,0-0.2,0
				c0.8,1.3,1.5,2.5,2.6,3.6c0.6,0.6,1.3,1,2.2,1.3C463.1,61,464.2,60.9,465.3,60.6z"/>
			<path fill="#3C61ED" d="M460.6,61.7c1,1.4,2.1,2.7,3.5,3.6c1.6,1,3.3,1.1,5.1,0.3c-0.1-0.3-0.2-0.5-0.3-0.8
				c-0.7-1.5-1.9-2.4-3.4-2.8C463.9,61.6,462.3,61.6,460.6,61.7z"/>
			<path fill="#3C61ED" d="M481.6,78.7c-2,0.8-3.9,1.5-5.2,3.3c-0.9,1.2-1.1,2.5-0.9,3.9c0.9,0,1.7-0.2,2.4-0.6
				c1.1-0.6,1.8-1.5,2.4-2.5C480.9,81.6,481.3,80.2,481.6,78.7z"/>
			<path fill="#3C61ED" d="M464.8,100.5c1.8,1.2,3.6,1.3,5.5,0.5c1.3-0.6,2.6-1.5,3.7-2.5c-0.1,0-0.2-0.1-0.3-0.1
				c-1.3-0.4-2.7-0.7-4.1-0.7C467.5,97.7,465.9,98.6,464.8,100.5z"/>
			<path fill="#3C61ED" d="M468.4,83.5c-0.3,2.1-0.6,4.2,0.2,6.2c0.5,1.2,1.8,2.3,3,2.7c0.6-1.2,0.8-2.4,0.5-3.7
				c-0.4-1.5-1.3-2.7-2.3-3.8C469.4,84.4,468.9,84,468.4,83.5z"/>
			<path fill="#3C61ED" d="M475.4,75.4c1.2-0.7,2-1.7,2.4-3.1c0.4-1.4,0.2-2.7-0.1-4.1c-0.1-0.7-0.3-1.4-0.5-2.1
				c-0.3,0.3-0.5,0.6-0.7,0.9c-0.8,1-1.6,2.1-2,3.4C473.8,72.1,474.2,73.8,475.4,75.4z"/>
			<path fill="#3C61ED" d="M466.7,88.1c-0.4,1-0.8,1.9-1.2,2.9c-0.3,0.9-0.5,1.9-0.4,2.9c0.1,1.5,0.8,2.7,2,3.6
				c0.1-0.1,0.2-0.2,0.3-0.3c1.3-1.5,1.6-3.2,1.2-5.1c-0.3-1.4-1-2.7-1.7-4C466.8,88.2,466.8,88.2,466.7,88.1z"/>
			<path fill="#3C61ED" d="M473.1,91.5c1.6,0.2,3.1-0.1,4.3-1.2c1.1-1,1.9-2.2,2.5-3.6c0.2-0.4,0.4-0.7,0.6-1.1c0,0-0.1-0.1-0.1-0.1
				c-0.4,0.1-0.8,0.2-1.2,0.2c-1.4,0.3-2.8,0.7-4,1.6C473.8,88.4,473.2,89.8,473.1,91.5z"/>
			<path fill="#3C61ED" d="M473.5,72.7c-0.1-1.7-0.7-3-2-4c-1.2-0.9-2.6-1.4-4-1.8c-0.4-0.1-0.8-0.2-1.2-0.3
				c0.5,1.1,0.9,2.2,1.5,3.2c0.5,0.8,1.1,1.5,1.8,2C470.8,72.7,472.1,72.9,473.5,72.7z"/>
			<path fill="#3C61ED" d="M469.5,96.5c1.6,0.5,3.2,0.4,4.6-0.4c1.6-1,2.7-2.5,3.8-4c-1.7,0-3.4,0-5,0.6
				C471,93.3,470,94.7,469.5,96.5z"/>
			<path fill="#3C61ED" d="M480.7,72.9c-1.6,0.8-3.1,1.6-4.2,2.9c-1.3,1.4-1.5,3.1-1.1,5c1.4-0.2,2.5-0.8,3.4-1.9
				c0.7-0.9,1.1-1.9,1.4-3C480.4,74.8,480.5,73.8,480.7,72.9z"/>
			<path fill="#3C61ED" d="M469.1,63.1c0.8-1.7,0.8-3.3,0-4.9c-0.8-1.6-2-2.7-3.4-3.9c-0.1,0.4-0.1,0.8-0.1,1.1
				c-0.1,1.3-0.2,2.5,0.1,3.8C466.1,61.2,467.3,62.4,469.1,63.1z"/>
			<path fill="#3C61ED" d="M464.2,94c-0.8,0.5-1.6,1.1-2.3,1.7c-0.9,0.7-1.6,1.5-2.1,2.5c-0.6,1.3-0.6,2.7-0.1,4
				c0.9-0.2,1.7-0.6,2.4-1.2c0.7-0.6,1.1-1.4,1.5-2.2C464.1,97.3,464.3,95.7,464.2,94C464.3,94.1,464.2,94.1,464.2,94z"/>
			<path fill="#3C61ED" d="M469.7,78.8c0.1,1.7,0.2,3.3,0.8,4.9c0.7,1.8,2.1,2.9,4.1,3.3c0.3-0.8,0.3-1.6,0.2-2.5
				c-0.2-1-0.7-1.9-1.3-2.7C472.4,80.5,471.1,79.6,469.7,78.8z"/>
			<path fill="#3C61ED" d="M474.4,79.8c0.3-1.9-0.2-3.4-1.4-4.7c-1.2-1.2-2.7-2-4.2-2.7c0,0,0,0-0.1,0c0.3,1.9,0.6,3.7,1.7,5.3
				C471.4,79,472.7,79.7,474.4,79.8z"/>
		</g>
	</g>
</g>
<g>
	<g>
		<path fill="#3C61ED" d="M65,73.9l-2.1-2.4v2.4H62v-5.4h0.9V71l2.1-2.5h1.1l-2.3,2.7l2.4,2.7H65z"/>
		<path fill="#3C61ED" d="M66.9,70.6c0.2-0.3,0.4-0.6,0.7-0.8c0.3-0.2,0.6-0.3,1-0.3c0.3,0,0.6,0.1,0.9,0.2c0.3,0.1,0.5,0.3,0.6,0.5
			v-0.6H71v4.3h-0.9v-0.6c-0.2,0.2-0.4,0.4-0.6,0.5S68.9,74,68.6,74c-0.4,0-0.7-0.1-1-0.3c-0.3-0.2-0.5-0.5-0.7-0.8
			c-0.2-0.3-0.3-0.7-0.3-1.2S66.7,70.9,66.9,70.6z M69.9,71c-0.1-0.2-0.3-0.4-0.5-0.5c-0.2-0.1-0.4-0.2-0.6-0.2s-0.4,0.1-0.6,0.2
			c-0.2,0.1-0.4,0.3-0.5,0.5c-0.1,0.2-0.2,0.5-0.2,0.8s0.1,0.6,0.2,0.8c0.1,0.2,0.3,0.4,0.5,0.5s0.4,0.2,0.6,0.2
			c0.2,0,0.4-0.1,0.6-0.2c0.2-0.1,0.4-0.3,0.5-0.5c0.1-0.2,0.2-0.5,0.2-0.8C70.1,71.5,70.1,71.2,69.9,71z"/>
		<path fill="#3C61ED" d="M76.1,69.6v4.3h-0.9v-0.5c-0.1,0.2-0.3,0.3-0.5,0.4S74.2,74,73.9,74c-0.3,0-0.6-0.1-0.9-0.2
			c-0.3-0.1-0.5-0.3-0.6-0.6s-0.2-0.6-0.2-1v-2.5H73V72c0,0.4,0.1,0.7,0.3,0.9c0.2,0.2,0.5,0.3,0.8,0.3s0.6-0.1,0.8-0.3
			c0.2-0.2,0.3-0.5,0.3-0.9v-2.4H76.1z"/>
		<path fill="#3C61ED" d="M79,70.4h-0.8v3.6h-0.9v-3.6h-0.5v-0.7h0.5v-0.3c0-0.5,0.1-0.9,0.4-1.1s0.7-0.3,1.2-0.3v0.7
			c-0.3,0-0.5,0.1-0.6,0.2s-0.2,0.3-0.2,0.5v0.3H79V70.4z"/>
		<path fill="#3C61ED" d="M81.6,70.4h-0.8v3.6h-0.9v-3.6h-0.5v-0.7h0.5v-0.3c0-0.5,0.1-0.9,0.4-1.1s0.7-0.3,1.2-0.3v0.7
			c-0.3,0-0.5,0.1-0.6,0.2s-0.2,0.3-0.2,0.5v0.3h0.8V70.4z"/>
		<path fill="#3C61ED" d="M88.5,69.8c0.3,0.1,0.5,0.3,0.6,0.6c0.2,0.3,0.2,0.6,0.2,1v2.5h-0.9v-2.4c0-0.4-0.1-0.7-0.3-0.9
			c-0.2-0.2-0.5-0.3-0.8-0.3c-0.3,0-0.6,0.1-0.8,0.3c-0.2,0.2-0.3,0.5-0.3,0.9v2.4h-0.9v-2.4c0-0.4-0.1-0.7-0.3-0.9
			c-0.2-0.2-0.5-0.3-0.8-0.3c-0.3,0-0.6,0.1-0.8,0.3c-0.2,0.2-0.3,0.5-0.3,0.9v2.4h-0.9v-4.3h0.9v0.5c0.1-0.2,0.3-0.3,0.6-0.4
			c0.2-0.1,0.5-0.1,0.7-0.1c0.3,0,0.6,0.1,0.9,0.2s0.5,0.4,0.6,0.6c0.1-0.3,0.3-0.5,0.6-0.6s0.6-0.2,0.9-0.2
			C87.9,69.6,88.2,69.6,88.5,69.8z"/>
		<path fill="#3C61ED" d="M90.4,70.6c0.2-0.3,0.4-0.6,0.7-0.8c0.3-0.2,0.6-0.3,1-0.3c0.3,0,0.6,0.1,0.9,0.2c0.3,0.1,0.5,0.3,0.6,0.5
			v-0.6h0.9v4.3h-0.9v-0.6c-0.2,0.2-0.4,0.4-0.6,0.5S92.5,74,92.2,74c-0.4,0-0.7-0.1-1-0.3c-0.3-0.2-0.5-0.5-0.7-0.8
			c-0.2-0.3-0.3-0.7-0.3-1.2S90.3,70.9,90.4,70.6z M93.5,71c-0.1-0.2-0.3-0.4-0.5-0.5c-0.2-0.1-0.4-0.2-0.6-0.2s-0.4,0.1-0.6,0.2
			c-0.2,0.1-0.4,0.3-0.5,0.5c-0.1,0.2-0.2,0.5-0.2,0.8s0.1,0.6,0.2,0.8c0.1,0.2,0.3,0.4,0.5,0.5s0.4,0.2,0.6,0.2
			c0.2,0,0.4-0.1,0.6-0.2c0.2-0.1,0.4-0.3,0.5-0.5c0.1-0.2,0.2-0.5,0.2-0.8C93.7,71.5,93.6,71.2,93.5,71z"/>
		<path fill="#3C61ED" d="M98.8,69.8c0.3,0.1,0.5,0.3,0.6,0.6c0.2,0.3,0.2,0.6,0.2,1v2.5h-0.9v-2.4c0-0.4-0.1-0.7-0.3-0.9
			c-0.2-0.2-0.5-0.3-0.8-0.3c-0.3,0-0.6,0.1-0.8,0.3c-0.2,0.2-0.3,0.5-0.3,0.9v2.4h-0.9v-4.3h0.9v0.5c0.1-0.2,0.3-0.3,0.6-0.4
			c0.2-0.1,0.5-0.1,0.7-0.1C98.2,69.6,98.5,69.6,98.8,69.8z"/>
		<path fill="#3C61ED" d="M106,68.5v0.7h-2.3v1.6h1.8v0.7h-1.8v2.4h-0.9v-5.4H106z"/>
		<path fill="#3C61ED" d="M107.6,73.7c-0.3-0.2-0.6-0.4-0.8-0.8c-0.2-0.3-0.3-0.7-0.3-1.2c0-0.4,0.1-0.8,0.3-1.2
			c0.2-0.3,0.5-0.6,0.8-0.8c0.3-0.2,0.7-0.3,1.1-0.3s0.8,0.1,1.1,0.3c0.3,0.2,0.6,0.4,0.8,0.8c0.2,0.3,0.3,0.7,0.3,1.2
			s-0.1,0.8-0.3,1.2c-0.2,0.3-0.5,0.6-0.8,0.8c-0.3,0.2-0.7,0.3-1.1,0.3C108.3,74,107.9,73.9,107.6,73.7z M109.3,73.1
			c0.2-0.1,0.4-0.3,0.5-0.5s0.2-0.5,0.2-0.8s-0.1-0.6-0.2-0.8s-0.3-0.4-0.5-0.5c-0.2-0.1-0.4-0.2-0.6-0.2c-0.2,0-0.4,0.1-0.6,0.2
			s-0.3,0.3-0.5,0.5c-0.1,0.2-0.2,0.5-0.2,0.8c0,0.5,0.1,0.8,0.4,1.1c0.2,0.3,0.5,0.4,0.9,0.4C108.9,73.2,109.1,73.2,109.3,73.1z"/>
		<path fill="#3C61ED" d="M115.7,69.6v4.3h-0.9v-0.5c-0.1,0.2-0.3,0.3-0.5,0.4s-0.5,0.2-0.7,0.2c-0.3,0-0.6-0.1-0.9-0.2
			c-0.3-0.1-0.5-0.3-0.6-0.6s-0.2-0.6-0.2-1v-2.5h0.9V72c0,0.4,0.1,0.7,0.3,0.9c0.2,0.2,0.5,0.3,0.8,0.3s0.6-0.1,0.8-0.3
			c0.2-0.2,0.3-0.5,0.3-0.9v-2.4H115.7z"/>
		<path fill="#3C61ED" d="M119.9,69.8c0.3,0.1,0.5,0.3,0.6,0.6c0.2,0.3,0.2,0.6,0.2,1v2.5h-0.9v-2.4c0-0.4-0.1-0.7-0.3-0.9
			c-0.2-0.2-0.5-0.3-0.8-0.3c-0.3,0-0.6,0.1-0.8,0.3c-0.2,0.2-0.3,0.5-0.3,0.9v2.4h-0.9v-4.3h0.9v0.5c0.1-0.2,0.3-0.3,0.6-0.4
			c0.2-0.1,0.5-0.1,0.7-0.1C119.3,69.6,119.6,69.6,119.9,69.8z"/>
		<path fill="#3C61ED" d="M121.8,70.6c0.2-0.3,0.4-0.6,0.7-0.8c0.3-0.2,0.7-0.3,1-0.3c0.3,0,0.6,0.1,0.8,0.2
			c0.3,0.1,0.5,0.3,0.6,0.5v-2.1h0.9v5.8h-0.9v-0.6c-0.1,0.2-0.3,0.4-0.6,0.5c-0.3,0.1-0.6,0.2-0.9,0.2c-0.4,0-0.7-0.1-1-0.3
			s-0.6-0.5-0.7-0.8c-0.2-0.3-0.3-0.7-0.3-1.2S121.7,70.9,121.8,70.6z M124.9,71c-0.1-0.2-0.3-0.4-0.5-0.5c-0.2-0.1-0.4-0.2-0.6-0.2
			s-0.4,0.1-0.6,0.2c-0.2,0.1-0.4,0.3-0.5,0.5c-0.1,0.2-0.2,0.5-0.2,0.8s0.1,0.6,0.2,0.8c0.1,0.2,0.3,0.4,0.5,0.5s0.4,0.2,0.6,0.2
			c0.2,0,0.4-0.1,0.6-0.2c0.2-0.1,0.4-0.3,0.5-0.5c0.1-0.2,0.2-0.5,0.2-0.8C125.1,71.5,125,71.2,124.9,71z"/>
		<path fill="#3C61ED" d="M127.1,70.6c0.2-0.3,0.4-0.6,0.7-0.8c0.3-0.2,0.6-0.3,1-0.3c0.3,0,0.6,0.1,0.9,0.2
			c0.3,0.1,0.5,0.3,0.6,0.5v-0.6h0.9v4.3h-0.9v-0.6c-0.2,0.2-0.4,0.4-0.6,0.5s-0.6,0.2-0.9,0.2c-0.4,0-0.7-0.1-1-0.3
			c-0.3-0.2-0.5-0.5-0.7-0.8c-0.2-0.3-0.3-0.7-0.3-1.2S126.9,70.9,127.1,70.6z M130.2,71c-0.1-0.2-0.3-0.4-0.5-0.5
			c-0.2-0.1-0.4-0.2-0.6-0.2s-0.4,0.1-0.6,0.2c-0.2,0.1-0.4,0.3-0.5,0.5c-0.1,0.2-0.2,0.5-0.2,0.8s0.1,0.6,0.2,0.8
			c0.1,0.2,0.3,0.4,0.5,0.5s0.4,0.2,0.6,0.2c0.2,0,0.4-0.1,0.6-0.2c0.2-0.1,0.4-0.3,0.5-0.5c0.1-0.2,0.2-0.5,0.2-0.8
			C130.4,71.5,130.3,71.2,130.2,71z"/>
		<path fill="#3C61ED" d="M133.5,70.4v2.4c0,0.2,0,0.3,0.1,0.3c0.1,0.1,0.2,0.1,0.4,0.1h0.5v0.7h-0.7c-0.4,0-0.7-0.1-0.9-0.3
			c-0.2-0.2-0.3-0.5-0.3-0.9v-2.4h-0.5v-0.7h0.5v-1.1h0.9v1.1h1v0.7H133.5z"/>
		<path fill="#3C61ED" d="M135.4,68.9c-0.1-0.1-0.2-0.2-0.2-0.4s0.1-0.3,0.2-0.4s0.2-0.2,0.4-0.2c0.2,0,0.3,0.1,0.4,0.2
			s0.2,0.2,0.2,0.4s-0.1,0.3-0.2,0.4s-0.2,0.2-0.4,0.2C135.6,69.1,135.5,69,135.4,68.9z M136.2,69.6v4.3h-0.9v-4.3H136.2z"/>
		<path fill="#3C61ED" d="M138.1,73.7c-0.3-0.2-0.6-0.4-0.8-0.8c-0.2-0.3-0.3-0.7-0.3-1.2c0-0.4,0.1-0.8,0.3-1.2
			c0.2-0.3,0.5-0.6,0.8-0.8c0.3-0.2,0.7-0.3,1.1-0.3s0.8,0.1,1.1,0.3c0.3,0.2,0.6,0.4,0.8,0.8c0.2,0.3,0.3,0.7,0.3,1.2
			s-0.1,0.8-0.3,1.2c-0.2,0.3-0.5,0.6-0.8,0.8c-0.3,0.2-0.7,0.3-1.1,0.3C138.8,74,138.5,73.9,138.1,73.7z M139.9,73.1
			c0.2-0.1,0.4-0.3,0.5-0.5s0.2-0.5,0.2-0.8s-0.1-0.6-0.2-0.8s-0.3-0.4-0.5-0.5c-0.2-0.1-0.4-0.2-0.6-0.2c-0.2,0-0.4,0.1-0.6,0.2
			s-0.3,0.3-0.5,0.5c-0.1,0.2-0.2,0.5-0.2,0.8c0,0.5,0.1,0.8,0.4,1.1c0.2,0.3,0.5,0.4,0.9,0.4C139.5,73.2,139.7,73.2,139.9,73.1z"/>
		<path fill="#3C61ED" d="M145.4,69.8c0.3,0.1,0.5,0.3,0.6,0.6c0.2,0.3,0.2,0.6,0.2,1v2.5h-0.9v-2.4c0-0.4-0.1-0.7-0.3-0.9
			c-0.2-0.2-0.5-0.3-0.8-0.3c-0.3,0-0.6,0.1-0.8,0.3c-0.2,0.2-0.3,0.5-0.3,0.9v2.4h-0.9v-4.3h0.9v0.5c0.1-0.2,0.3-0.3,0.6-0.4
			c0.2-0.1,0.5-0.1,0.7-0.1C144.8,69.6,145.1,69.6,145.4,69.8z"/>
		<path fill="#3C61ED" d="M58.4,78.6v1.6h1.9v0.7h-1.9v1.7h2.1v0.7h-3v-5.4h3v0.7H58.4z"/>
		<path fill="#3C61ED" d="M65.4,79v4.3h-0.9v-0.5c-0.1,0.2-0.3,0.3-0.5,0.4s-0.5,0.2-0.7,0.2c-0.3,0-0.6-0.1-0.9-0.2
			c-0.3-0.1-0.5-0.3-0.6-0.6s-0.2-0.6-0.2-1V79h0.9v2.4c0,0.4,0.1,0.7,0.3,0.9c0.2,0.2,0.5,0.3,0.8,0.3s0.6-0.1,0.8-0.3
			c0.2-0.2,0.3-0.5,0.3-0.9V79H65.4z"/>
		<path fill="#3C61ED" d="M68,79.1c0.2-0.1,0.5-0.2,0.8-0.2v0.9h-0.2c-0.3,0-0.6,0.1-0.8,0.3s-0.3,0.5-0.3,0.9v2.3h-0.9V79h0.9v0.6
			C67.6,79.4,67.8,79.2,68,79.1z"/>
		<path fill="#3C61ED" d="M70.4,83c-0.3-0.2-0.6-0.4-0.8-0.8c-0.2-0.3-0.3-0.7-0.3-1.2c0-0.4,0.1-0.8,0.3-1.2
			c0.2-0.3,0.5-0.6,0.8-0.8c0.3-0.2,0.7-0.3,1.1-0.3s0.8,0.1,1.1,0.3c0.3,0.2,0.6,0.4,0.8,0.8c0.2,0.3,0.3,0.7,0.3,1.2
			s-0.1,0.8-0.3,1.2c-0.2,0.3-0.5,0.6-0.8,0.8c-0.3,0.2-0.7,0.3-1.1,0.3C71.1,83.3,70.7,83.2,70.4,83z M72.1,82.4
			c0.2-0.1,0.4-0.3,0.5-0.5s0.2-0.5,0.2-0.8s-0.1-0.6-0.2-0.8s-0.3-0.4-0.5-0.5c-0.2-0.1-0.4-0.2-0.6-0.2c-0.2,0-0.4,0.1-0.6,0.2
			s-0.3,0.3-0.5,0.5c-0.1,0.2-0.2,0.5-0.2,0.8c0,0.5,0.1,0.8,0.4,1.1c0.2,0.3,0.5,0.4,0.9,0.4C71.7,82.5,71.9,82.5,72.1,82.4z"/>
		<path fill="#3C61ED" d="M76.1,79.1c0.3-0.1,0.6-0.2,0.9-0.2c0.4,0,0.7,0.1,1,0.3c0.3,0.2,0.6,0.4,0.7,0.8c0.2,0.3,0.3,0.7,0.3,1.1
			s-0.1,0.8-0.3,1.2c-0.2,0.3-0.4,0.6-0.7,0.8s-0.6,0.3-1,0.3c-0.3,0-0.6-0.1-0.9-0.2c-0.3-0.1-0.5-0.3-0.6-0.5v2.7h-0.9V79h0.9v0.6
			C75.6,79.4,75.8,79.2,76.1,79.1z M77.9,80.3c-0.1-0.2-0.3-0.4-0.5-0.5c-0.2-0.1-0.4-0.2-0.6-0.2c-0.2,0-0.4,0.1-0.6,0.2
			c-0.2,0.1-0.4,0.3-0.5,0.5c-0.1,0.2-0.2,0.5-0.2,0.8c0,0.3,0.1,0.6,0.2,0.8c0.1,0.2,0.3,0.4,0.5,0.5c0.2,0.1,0.4,0.2,0.6,0.2
			c0.2,0,0.4-0.1,0.6-0.2c0.2-0.1,0.4-0.3,0.5-0.5c0.1-0.2,0.2-0.5,0.2-0.8S78,80.5,77.9,80.3z"/>
		<path fill="#3C61ED" d="M83.7,81.4h-3.3c0,0.3,0.2,0.6,0.4,0.8c0.2,0.2,0.5,0.3,0.8,0.3c0.5,0,0.8-0.2,1-0.6h1
			c-0.1,0.4-0.4,0.7-0.7,1c-0.3,0.3-0.8,0.4-1.3,0.4c-0.4,0-0.8-0.1-1.1-0.3c-0.3-0.2-0.6-0.4-0.8-0.8s-0.3-0.7-0.3-1.2
			c0-0.4,0.1-0.8,0.3-1.2s0.4-0.6,0.8-0.8c0.3-0.2,0.7-0.3,1.1-0.3c0.4,0,0.8,0.1,1.1,0.3c0.3,0.2,0.6,0.4,0.7,0.7s0.3,0.7,0.3,1.1
			C83.8,81.2,83.7,81.3,83.7,81.4z M82.8,80.7c0-0.3-0.1-0.6-0.4-0.8c-0.2-0.2-0.5-0.3-0.8-0.3c-0.3,0-0.6,0.1-0.8,0.3
			c-0.2,0.2-0.3,0.5-0.4,0.8H82.8z"/>
		<path fill="#3C61ED" d="M84.6,79.9c0.2-0.3,0.4-0.6,0.7-0.8c0.3-0.2,0.6-0.3,1-0.3c0.3,0,0.6,0.1,0.9,0.2c0.3,0.1,0.5,0.3,0.6,0.5
			V79h0.9v4.3h-0.9v-0.6c-0.2,0.2-0.4,0.4-0.6,0.5s-0.6,0.2-0.9,0.2c-0.4,0-0.7-0.1-1-0.3c-0.3-0.2-0.5-0.5-0.7-0.8
			c-0.2-0.3-0.3-0.7-0.3-1.2S84.4,80.3,84.6,79.9z M87.7,80.3c-0.1-0.2-0.3-0.4-0.5-0.5c-0.2-0.1-0.4-0.2-0.6-0.2s-0.4,0.1-0.6,0.2
			c-0.2,0.1-0.4,0.3-0.5,0.5c-0.1,0.2-0.2,0.5-0.2,0.8s0.1,0.6,0.2,0.8c0.1,0.2,0.3,0.4,0.5,0.5s0.4,0.2,0.6,0.2
			c0.2,0,0.4-0.1,0.6-0.2c0.2-0.1,0.4-0.3,0.5-0.5c0.1-0.2,0.2-0.5,0.2-0.8C87.8,80.8,87.8,80.6,87.7,80.3z"/>
		<path fill="#3C61ED" d="M93,79.1c0.3,0.1,0.5,0.3,0.6,0.6c0.2,0.3,0.2,0.6,0.2,1v2.5h-0.9v-2.4c0-0.4-0.1-0.7-0.3-0.9
			c-0.2-0.2-0.5-0.3-0.8-0.3c-0.3,0-0.6,0.1-0.8,0.3c-0.2,0.2-0.3,0.5-0.3,0.9v2.4h-0.9V79h0.9v0.5c0.1-0.2,0.3-0.3,0.6-0.4
			c0.2-0.1,0.5-0.1,0.7-0.1C92.4,78.9,92.7,79,93,79.1z"/>
		<path fill="#3C61ED" d="M97.9,78.6v1.6h1.9v0.7h-1.9v1.7h2.1v0.7h-3v-5.4h3v0.7H97.9z"/>
		<path fill="#3C61ED" d="M104.1,79.1c0.3,0.1,0.5,0.3,0.6,0.6c0.2,0.3,0.2,0.6,0.2,1v2.5h-0.9v-2.4c0-0.4-0.1-0.7-0.3-0.9
			c-0.2-0.2-0.5-0.3-0.8-0.3c-0.3,0-0.6,0.1-0.8,0.3c-0.2,0.2-0.3,0.5-0.3,0.9v2.4H101V79h0.9v0.5c0.1-0.2,0.3-0.3,0.6-0.4
			c0.2-0.1,0.5-0.1,0.7-0.1C103.5,78.9,103.8,79,104.1,79.1z"/>
		<path fill="#3C61ED" d="M107.1,79.7v2.4c0,0.2,0,0.3,0.1,0.3c0.1,0.1,0.2,0.1,0.4,0.1h0.5v0.7h-0.7c-0.4,0-0.7-0.1-0.9-0.3
			c-0.2-0.2-0.3-0.5-0.3-0.9v-2.4h-0.5V79h0.5v-1.1h0.9V79h1v0.7H107.1z"/>
		<path fill="#3C61ED" d="M110.4,79.1c0.2-0.1,0.5-0.2,0.8-0.2v0.9h-0.2c-0.3,0-0.6,0.1-0.8,0.3s-0.3,0.5-0.3,0.9v2.3H109V79h0.9
			v0.6C110,79.4,110.2,79.2,110.4,79.1z"/>
		<path fill="#3C61ED" d="M115.9,81.4h-3.3c0,0.3,0.2,0.6,0.4,0.8c0.2,0.2,0.5,0.3,0.8,0.3c0.5,0,0.8-0.2,1-0.6h1
			c-0.1,0.4-0.4,0.7-0.7,1c-0.3,0.3-0.8,0.4-1.3,0.4c-0.4,0-0.8-0.1-1.1-0.3c-0.3-0.2-0.6-0.4-0.8-0.8s-0.3-0.7-0.3-1.2
			c0-0.4,0.1-0.8,0.3-1.2s0.4-0.6,0.8-0.8c0.3-0.2,0.7-0.3,1.1-0.3c0.4,0,0.8,0.1,1.1,0.3c0.3,0.2,0.6,0.4,0.7,0.7s0.3,0.7,0.3,1.1
			C115.9,81.2,115.9,81.3,115.9,81.4z M115,80.7c0-0.3-0.1-0.6-0.4-0.8c-0.2-0.2-0.5-0.3-0.8-0.3c-0.3,0-0.6,0.1-0.8,0.3
			c-0.2,0.2-0.3,0.5-0.4,0.8H115z"/>
		<path fill="#3C61ED" d="M118.3,79.1c0.3-0.1,0.6-0.2,0.9-0.2c0.4,0,0.7,0.1,1,0.3c0.3,0.2,0.6,0.4,0.7,0.8
			c0.2,0.3,0.3,0.7,0.3,1.1s-0.1,0.8-0.3,1.2c-0.2,0.3-0.4,0.6-0.7,0.8s-0.6,0.3-1,0.3c-0.3,0-0.6-0.1-0.9-0.2
			c-0.3-0.1-0.5-0.3-0.6-0.5v2.7h-0.9V79h0.9v0.6C117.8,79.4,118,79.2,118.3,79.1z M120.1,80.3c-0.1-0.2-0.3-0.4-0.5-0.5
			c-0.2-0.1-0.4-0.2-0.6-0.2c-0.2,0-0.4,0.1-0.6,0.2c-0.2,0.1-0.4,0.3-0.5,0.5c-0.1,0.2-0.2,0.5-0.2,0.8c0,0.3,0.1,0.6,0.2,0.8
			c0.1,0.2,0.3,0.4,0.5,0.5c0.2,0.1,0.4,0.2,0.6,0.2c0.2,0,0.4-0.1,0.6-0.2c0.2-0.1,0.4-0.3,0.5-0.5c0.1-0.2,0.2-0.5,0.2-0.8
			S120.2,80.5,120.1,80.3z"/>
		<path fill="#3C61ED" d="M123.4,79.1c0.2-0.1,0.5-0.2,0.8-0.2v0.9H124c-0.3,0-0.6,0.1-0.8,0.3s-0.3,0.5-0.3,0.9v2.3H122V79h0.9v0.6
			C123.1,79.4,123.2,79.2,123.4,79.1z"/>
		<path fill="#3C61ED" d="M128.9,81.4h-3.3c0,0.3,0.2,0.6,0.4,0.8c0.2,0.2,0.5,0.3,0.8,0.3c0.5,0,0.8-0.2,1-0.6h1
			c-0.1,0.4-0.4,0.7-0.7,1c-0.3,0.3-0.8,0.4-1.3,0.4c-0.4,0-0.8-0.1-1.1-0.3c-0.3-0.2-0.6-0.4-0.8-0.8s-0.3-0.7-0.3-1.2
			c0-0.4,0.1-0.8,0.3-1.2s0.4-0.6,0.8-0.8c0.3-0.2,0.7-0.3,1.1-0.3c0.4,0,0.8,0.1,1.1,0.3c0.3,0.2,0.6,0.4,0.7,0.7s0.3,0.7,0.3,1.1
			C129,81.2,128.9,81.3,128.9,81.4z M128,80.7c0-0.3-0.1-0.6-0.4-0.8c-0.2-0.2-0.5-0.3-0.8-0.3c-0.3,0-0.6,0.1-0.8,0.3
			c-0.2,0.2-0.3,0.5-0.4,0.8H128z"/>
		<path fill="#3C61ED" d="M132.9,79.1c0.3,0.1,0.5,0.3,0.6,0.6c0.2,0.3,0.2,0.6,0.2,1v2.5h-0.9v-2.4c0-0.4-0.1-0.7-0.3-0.9
			c-0.2-0.2-0.5-0.3-0.8-0.3c-0.3,0-0.6,0.1-0.8,0.3c-0.2,0.2-0.3,0.5-0.3,0.9v2.4h-0.9V79h0.9v0.5c0.1-0.2,0.3-0.3,0.6-0.4
			c0.2-0.1,0.5-0.1,0.7-0.1C132.3,78.9,132.6,79,132.9,79.1z"/>
		<path fill="#3C61ED" d="M138.8,81.4h-3.3c0,0.3,0.2,0.6,0.4,0.8c0.2,0.2,0.5,0.3,0.8,0.3c0.5,0,0.8-0.2,1-0.6h1
			c-0.1,0.4-0.4,0.7-0.7,1c-0.3,0.3-0.8,0.4-1.3,0.4c-0.4,0-0.8-0.1-1.1-0.3c-0.3-0.2-0.6-0.4-0.8-0.8s-0.3-0.7-0.3-1.2
			c0-0.4,0.1-0.8,0.3-1.2s0.4-0.6,0.8-0.8c0.3-0.2,0.7-0.3,1.1-0.3c0.4,0,0.8,0.1,1.1,0.3c0.3,0.2,0.6,0.4,0.7,0.7s0.3,0.7,0.3,1.1
			C138.8,81.2,138.8,81.3,138.8,81.4z M137.9,80.7c0-0.3-0.1-0.6-0.4-0.8c-0.2-0.2-0.5-0.3-0.8-0.3c-0.3,0-0.6,0.1-0.8,0.3
			c-0.2,0.2-0.3,0.5-0.4,0.8H137.9z"/>
		<path fill="#3C61ED" d="M143.6,79v4.3h-0.9v-0.5c-0.1,0.2-0.3,0.3-0.5,0.4s-0.5,0.2-0.7,0.2c-0.3,0-0.6-0.1-0.9-0.2
			c-0.3-0.1-0.5-0.3-0.6-0.6s-0.2-0.6-0.2-1V79h0.9v2.4c0,0.4,0.1,0.7,0.3,0.9c0.2,0.2,0.5,0.3,0.8,0.3s0.6-0.1,0.8-0.3
			c0.2-0.2,0.3-0.5,0.3-0.9V79H143.6z"/>
		<path fill="#3C61ED" d="M146.1,79.1c0.2-0.1,0.5-0.2,0.8-0.2v0.9h-0.2c-0.3,0-0.6,0.1-0.8,0.3s-0.3,0.5-0.3,0.9v2.3h-0.9V79h0.9
			v0.6C145.7,79.4,145.9,79.2,146.1,79.1z"/>
		<path fill="#3C61ED" d="M148.4,83.1c-0.3-0.1-0.5-0.3-0.6-0.5c-0.2-0.2-0.2-0.4-0.2-0.7h0.9c0,0.2,0.1,0.3,0.3,0.5
			c0.2,0.1,0.4,0.2,0.6,0.2c0.2,0,0.4,0,0.6-0.1c0.1-0.1,0.2-0.2,0.2-0.4c0-0.2-0.1-0.3-0.2-0.4c-0.2-0.1-0.4-0.2-0.7-0.3
			c-0.3-0.1-0.6-0.2-0.8-0.3s-0.4-0.2-0.5-0.4c-0.1-0.2-0.2-0.4-0.2-0.7c0-0.2,0.1-0.4,0.2-0.6c0.1-0.2,0.3-0.3,0.6-0.4
			s0.5-0.2,0.9-0.2c0.5,0,0.9,0.1,1.2,0.4c0.3,0.2,0.5,0.6,0.5,1H150c0-0.2-0.1-0.3-0.2-0.5c-0.1-0.1-0.3-0.2-0.6-0.2
			c-0.2,0-0.4,0-0.5,0.1s-0.2,0.2-0.2,0.4c0,0.1,0,0.2,0.1,0.3s0.2,0.1,0.3,0.2c0.1,0,0.3,0.1,0.5,0.2c0.3,0.1,0.6,0.2,0.8,0.3
			c0.2,0.1,0.4,0.2,0.5,0.4c0.1,0.2,0.2,0.4,0.2,0.7c0,0.2-0.1,0.5-0.2,0.7s-0.3,0.3-0.6,0.5c-0.2,0.1-0.5,0.2-0.9,0.2
			C148.9,83.3,148.6,83.3,148.4,83.1z"/>
		<path fill="#3C61ED" d="M95.3,91.5H93l-0.4,1.1h-0.9l1.9-5.4h1l1.9,5.4h-0.9L95.3,91.5z M95,90.8l-0.9-2.5l-0.9,2.5H95z"/>
		<path fill="#3C61ED" d="M103.2,88.3l-1.3,4.3h-0.9l-0.9-3.2l-0.9,3.2h-0.9l-1.3-4.3h0.9l0.9,3.4l0.9-3.4h0.9l0.9,3.4l0.9-3.4
			H103.2z"/>
		<path fill="#3C61ED" d="M103.8,89.3c0.2-0.3,0.4-0.6,0.7-0.8c0.3-0.2,0.6-0.3,1-0.3c0.3,0,0.6,0.1,0.9,0.2
			c0.3,0.1,0.5,0.3,0.6,0.5v-0.6h0.9v4.3H107v-0.6c-0.2,0.2-0.4,0.4-0.6,0.5s-0.6,0.2-0.9,0.2c-0.4,0-0.7-0.1-1-0.3
			c-0.3-0.2-0.5-0.5-0.7-0.8c-0.2-0.3-0.3-0.7-0.3-1.2S103.6,89.6,103.8,89.3z M106.9,89.7c-0.1-0.2-0.3-0.4-0.5-0.5
			c-0.2-0.1-0.4-0.2-0.6-0.2s-0.4,0.1-0.6,0.2c-0.2,0.1-0.4,0.3-0.5,0.5c-0.1,0.2-0.2,0.5-0.2,0.8s0.1,0.6,0.2,0.8
			c0.1,0.2,0.3,0.4,0.5,0.5s0.4,0.2,0.6,0.2c0.2,0,0.4-0.1,0.6-0.2c0.2-0.1,0.4-0.3,0.5-0.5c0.1-0.2,0.2-0.5,0.2-0.8
			C107,90.1,107,89.9,106.9,89.7z"/>
		<path fill="#3C61ED" d="M110.5,88.4c0.2-0.1,0.5-0.2,0.8-0.2v0.9H111c-0.3,0-0.6,0.1-0.8,0.3s-0.3,0.5-0.3,0.9v2.3h-0.9v-4.3h0.9
			v0.6C110.1,88.7,110.3,88.5,110.5,88.4z"/>
		<path fill="#3C61ED" d="M112.1,89.3c0.2-0.3,0.4-0.6,0.7-0.8c0.3-0.2,0.7-0.3,1-0.3c0.3,0,0.6,0.1,0.8,0.2
			c0.3,0.1,0.5,0.3,0.6,0.5v-2.1h0.9v5.8h-0.9v-0.6c-0.1,0.2-0.3,0.4-0.6,0.5c-0.3,0.1-0.6,0.2-0.9,0.2c-0.4,0-0.7-0.1-1-0.3
			s-0.6-0.5-0.7-0.8c-0.2-0.3-0.3-0.7-0.3-1.2S111.9,89.6,112.1,89.3z M115.1,89.7c-0.1-0.2-0.3-0.4-0.5-0.5
			c-0.2-0.1-0.4-0.2-0.6-0.2s-0.4,0.1-0.6,0.2c-0.2,0.1-0.4,0.3-0.5,0.5c-0.1,0.2-0.2,0.5-0.2,0.8s0.1,0.6,0.2,0.8
			c0.1,0.2,0.3,0.4,0.5,0.5s0.4,0.2,0.6,0.2c0.2,0,0.4-0.1,0.6-0.2c0.2-0.1,0.4-0.3,0.5-0.5c0.1-0.2,0.2-0.5,0.2-0.8
			C115.3,90.1,115.2,89.9,115.1,89.7z"/>
	</g>
	<g id="eJzvWk.tif_1_">
		<g>
			<path fill="#3C61ED" d="M42.9,59.7c0.6,1.6,1.1,3.2,1,4.9c0,1.9-1,3.4-2.6,4.4c-1.1-1.4-1.4-2.9-1-4.6c0.3-1.4,1.1-2.6,1.9-3.8
				C42.4,60.4,42.6,60.1,42.9,59.7z"/>
			<path fill="#3C61ED" d="M45.7,103.3c1.7-0.7,3.4-1.3,5.3-1.2c1.8,0.1,3.1,1,4.1,2.4c-0.5,0.4-1.1,0.8-1.7,1
				c-1.2,0.4-2.4,0.3-3.5,0C48.8,105.3,46.6,104.1,45.7,103.3z"/>
			<path fill="#3C61ED" d="M49.4,60.6c0.3-1.4,1-2.5,2.1-3.3c1-0.7,2.1-1.1,3.3-1.2c0.8-0.1,1.7-0.2,2.5-0.3c0.1,0,0.1,0,0.2,0
				c-0.8,1.3-1.5,2.5-2.6,3.6c-0.6,0.6-1.3,1-2.2,1.3C51.6,61,50.5,60.9,49.4,60.6z"/>
			<path fill="#3C61ED" d="M54.1,61.7c-1,1.4-2.1,2.7-3.5,3.6c-1.6,1-3.3,1.1-5.1,0.3c0.1-0.3,0.2-0.5,0.3-0.8
				c0.7-1.5,1.9-2.4,3.4-2.8C50.8,61.6,52.4,61.6,54.1,61.7z"/>
			<path fill="#3C61ED" d="M33,78.7c2,0.8,3.9,1.5,5.2,3.3c0.9,1.2,1.1,2.5,0.9,3.9c-0.9,0-1.7-0.2-2.4-0.6
				c-1.1-0.6-1.8-1.5-2.4-2.5C33.7,81.6,33.4,80.2,33,78.7z"/>
			<path fill="#3C61ED" d="M49.8,100.5c-1.8,1.2-3.6,1.3-5.5,0.5c-1.3-0.6-2.6-1.5-3.7-2.5c0.1,0,0.2-0.1,0.3-0.1
				c1.3-0.4,2.7-0.7,4.1-0.7C47.1,97.7,48.7,98.6,49.8,100.5z"/>
			<path fill="#3C61ED" d="M46.2,83.5c0.3,2.1,0.6,4.2-0.2,6.2c-0.5,1.2-1.8,2.3-3,2.7c-0.6-1.2-0.8-2.4-0.5-3.7
				c0.4-1.5,1.3-2.7,2.3-3.8C45.2,84.4,45.7,84,46.2,83.5z"/>
			<path fill="#3C61ED" d="M39.3,75.4c-1.2-0.7-2-1.7-2.4-3.1c-0.4-1.4-0.2-2.7,0.1-4.1c0.1-0.7,0.3-1.4,0.5-2.1
				c0.3,0.3,0.5,0.6,0.7,0.9c0.8,1,1.6,2.1,2,3.4C40.8,72.1,40.5,73.8,39.3,75.4z"/>
			<path fill="#3C61ED" d="M47.9,88.1c0.4,1,0.8,1.9,1.2,2.9c0.3,0.9,0.5,1.9,0.4,2.9c-0.1,1.5-0.8,2.7-2,3.6
				c-0.1-0.1-0.2-0.2-0.3-0.3c-1.3-1.5-1.6-3.2-1.2-5.1c0.3-1.4,1-2.7,1.7-4C47.9,88.2,47.9,88.2,47.9,88.1z"/>
			<path fill="#3C61ED" d="M41.5,91.5c-1.6,0.2-3.1-0.1-4.3-1.2c-1.1-1-1.9-2.2-2.5-3.6c-0.2-0.4-0.4-0.7-0.6-1.1
				c0,0,0.1-0.1,0.1-0.1c0.4,0.1,0.8,0.2,1.2,0.2c1.4,0.3,2.8,0.7,4,1.6C40.8,88.4,41.4,89.8,41.5,91.5z"/>
			<path fill="#3C61ED" d="M41.1,72.7c0.1-1.7,0.7-3,2-4c1.2-0.9,2.6-1.4,4-1.8c0.4-0.1,0.8-0.2,1.2-0.3c-0.5,1.1-0.9,2.2-1.5,3.2
				c-0.5,0.8-1.1,1.5-1.8,2C43.9,72.7,42.6,72.9,41.1,72.7z"/>
			<path fill="#3C61ED" d="M45.1,96.5c-1.6,0.5-3.2,0.4-4.6-0.4c-1.6-1-2.7-2.5-3.8-4c1.7,0,3.4,0,5,0.6
				C43.6,93.3,44.7,94.7,45.1,96.5z"/>
			<path fill="#3C61ED" d="M34,72.9c1.6,0.8,3.1,1.6,4.2,2.9c1.3,1.4,1.5,3.1,1.1,5c-1.4-0.2-2.5-0.8-3.4-1.9
				c-0.7-0.9-1.1-1.9-1.4-3C34.3,74.8,34.2,73.8,34,72.9z"/>
			<path fill="#3C61ED" d="M45.5,63.1c-0.8-1.7-0.8-3.3,0-4.9c0.8-1.6,2-2.7,3.4-3.9c0.1,0.4,0.1,0.8,0.1,1.1
				c0.1,1.3,0.2,2.5-0.1,3.8C48.6,61.2,47.4,62.4,45.5,63.1z"/>
			<path fill="#3C61ED" d="M50.4,94c0.8,0.5,1.6,1.1,2.3,1.7c0.9,0.7,1.6,1.5,2.1,2.5c0.6,1.3,0.6,2.7,0.1,4
				c-0.9-0.2-1.7-0.6-2.4-1.2c-0.7-0.6-1.1-1.4-1.5-2.2C50.5,97.3,50.4,95.7,50.4,94C50.4,94.1,50.4,94.1,50.4,94z"/>
			<path fill="#3C61ED" d="M45,78.8c-0.1,1.7-0.2,3.3-0.8,4.9c-0.7,1.8-2.1,2.9-4.1,3.3c-0.3-0.8-0.3-1.6-0.2-2.5
				c0.2-1,0.7-1.9,1.3-2.7C42.3,80.5,43.6,79.6,45,78.8z"/>
			<path fill="#3C61ED" d="M40.2,79.8c-0.3-1.9,0.2-3.4,1.4-4.7c1.2-1.2,2.7-2,4.2-2.7c0,0,0,0,0.1,0c-0.3,1.9-0.6,3.7-1.7,5.3
				C43.3,79,41.9,79.7,40.2,79.8z"/>
		</g>
		<g>
			<path fill="#3C61ED" d="M164.8,59.7c-0.6,1.6-1.1,3.2-1,4.9c0,1.9,1,3.4,2.6,4.4c1.1-1.4,1.4-2.9,1-4.6c-0.3-1.4-1.1-2.6-1.9-3.8
				C165.3,60.4,165,60.1,164.8,59.7z"/>
			<path fill="#3C61ED" d="M161.9,103.3c-1.7-0.7-3.4-1.3-5.3-1.2c-1.8,0.1-3.1,1-4.1,2.4c0.5,0.4,1.1,0.8,1.7,1
				c1.2,0.4,2.4,0.3,3.5,0C158.8,105.3,161.1,104.1,161.9,103.3z"/>
			<path fill="#3C61ED" d="M158.3,60.6c-0.3-1.4-1-2.5-2.1-3.3c-1-0.7-2.1-1.1-3.3-1.2c-0.8-0.1-1.7-0.2-2.5-0.3c-0.1,0-0.1,0-0.2,0
				c0.8,1.3,1.5,2.5,2.6,3.6c0.6,0.6,1.3,1,2.2,1.3C156,61,157.1,60.9,158.3,60.6z"/>
			<path fill="#3C61ED" d="M153.5,61.7c1,1.4,2.1,2.7,3.5,3.6c1.6,1,3.3,1.1,5.1,0.3c-0.1-0.3-0.2-0.5-0.3-0.8
				c-0.7-1.5-1.9-2.4-3.4-2.8C156.8,61.6,155.2,61.6,153.5,61.7z"/>
			<path fill="#3C61ED" d="M174.6,78.7c-2,0.8-3.9,1.5-5.2,3.3c-0.9,1.2-1.1,2.5-0.9,3.9c0.9,0,1.7-0.2,2.4-0.6
				c1.1-0.6,1.8-1.5,2.4-2.5C173.9,81.6,174.3,80.2,174.6,78.7z"/>
			<path fill="#3C61ED" d="M157.8,100.5c1.8,1.2,3.6,1.3,5.5,0.5c1.3-0.6,2.6-1.5,3.7-2.5c-0.1,0-0.2-0.1-0.3-0.1
				c-1.3-0.4-2.7-0.7-4.1-0.7C160.5,97.7,158.9,98.6,157.8,100.5z"/>
			<path fill="#3C61ED" d="M161.4,83.5c-0.3,2.1-0.6,4.2,0.2,6.2c0.5,1.2,1.8,2.3,3,2.7c0.6-1.2,0.8-2.4,0.5-3.7
				c-0.4-1.5-1.3-2.7-2.3-3.8C162.4,84.4,161.9,84,161.4,83.5z"/>
			<path fill="#3C61ED" d="M168.3,75.4c1.2-0.7,2-1.7,2.4-3.1c0.4-1.4,0.2-2.7-0.1-4.1c-0.1-0.7-0.3-1.4-0.5-2.1
				c-0.3,0.3-0.5,0.6-0.7,0.9c-0.8,1-1.6,2.1-2,3.4C166.8,72.1,167.2,73.8,168.3,75.4z"/>
			<path fill="#3C61ED" d="M159.7,88.1c-0.4,1-0.8,1.9-1.2,2.9c-0.3,0.9-0.5,1.9-0.4,2.9c0.1,1.5,0.8,2.7,2,3.6
				c0.1-0.1,0.2-0.2,0.3-0.3c1.3-1.5,1.6-3.2,1.2-5.1c-0.3-1.4-1-2.7-1.7-4C159.8,88.2,159.7,88.2,159.7,88.1z"/>
			<path fill="#3C61ED" d="M166.1,91.5c1.6,0.2,3.1-0.1,4.3-1.2c1.1-1,1.9-2.2,2.5-3.6c0.2-0.4,0.4-0.7,0.6-1.1c0,0-0.1-0.1-0.1-0.1
				c-0.4,0.1-0.8,0.2-1.2,0.2c-1.4,0.3-2.8,0.7-4,1.6C166.8,88.4,166.2,89.8,166.1,91.5z"/>
			<path fill="#3C61ED" d="M166.5,72.7c-0.1-1.7-0.7-3-2-4c-1.2-0.9-2.6-1.4-4-1.8c-0.4-0.1-0.8-0.2-1.2-0.3
				c0.5,1.1,0.9,2.2,1.5,3.2c0.5,0.8,1.1,1.5,1.8,2C163.7,72.7,165.1,72.9,166.5,72.7z"/>
			<path fill="#3C61ED" d="M162.5,96.5c1.6,0.5,3.2,0.4,4.6-0.4c1.6-1,2.7-2.5,3.8-4c-1.7,0-3.4,0-5,0.6
				C164,93.3,162.9,94.7,162.5,96.5z"/>
			<path fill="#3C61ED" d="M173.6,72.9c-1.6,0.8-3.1,1.6-4.2,2.9c-1.3,1.4-1.5,3.1-1.1,5c1.4-0.2,2.5-0.8,3.4-1.9
				c0.7-0.9,1.1-1.9,1.4-3C173.3,74.8,173.5,73.8,173.6,72.9z"/>
			<path fill="#3C61ED" d="M162.1,63.1c0.8-1.7,0.8-3.3,0-4.9c-0.8-1.6-2-2.7-3.4-3.9c-0.1,0.4-0.1,0.8-0.1,1.1
				c-0.1,1.3-0.2,2.5,0.1,3.8C159.1,61.2,160.3,62.4,162.1,63.1z"/>
			<path fill="#3C61ED" d="M157.2,94c-0.8,0.5-1.6,1.1-2.3,1.7c-0.9,0.7-1.6,1.5-2.1,2.5c-0.6,1.3-0.6,2.7-0.1,4
				c0.9-0.2,1.7-0.6,2.4-1.2c0.7-0.6,1.1-1.4,1.5-2.2C157.1,97.3,157.2,95.7,157.2,94C157.2,94.1,157.2,94.1,157.2,94z"/>
			<path fill="#3C61ED" d="M162.7,78.8c0.1,1.7,0.2,3.3,0.8,4.9c0.7,1.8,2.1,2.9,4.1,3.3c0.3-0.8,0.3-1.6,0.2-2.5
				c-0.2-1-0.7-1.9-1.3-2.7C165.3,80.5,164.1,79.6,162.7,78.8z"/>
			<path fill="#3C61ED" d="M167.4,79.8c0.3-1.9-0.2-3.4-1.4-4.7c-1.2-1.2-2.7-2-4.2-2.7c0,0,0,0-0.1,0c0.3,1.9,0.6,3.7,1.7,5.3
				C164.3,79,165.7,79.7,167.4,79.8z"/>
		</g>
	</g>
</g>
</svg>
