<?xml version="1.0" encoding="utf-8"?>
<!-- Generator: Adobe Illustrator 26.3.1, SVG Export Plug-In . SVG Version: 6.00 Build 0)  -->
<svg version="1.1" baseProfile="tiny" id="Layer_1" xmlns="http://www.w3.org/2000/svg" xmlns:xlink="http://www.w3.org/1999/xlink"
	 x="0px" y="0px" width="514.7px" height="157.6px" viewBox="0 0 514.7 157.6" overflow="visible" xml:space="preserve">
<path fill="#F2EDED" d="M498.6,157.6H16c-8.8,0-16-7.2-16-16V16C0,7.2,7.2,0,16,0h482.6c8.8,0,16,7.2,16,16v125.6
	C514.7,150.4,507.5,157.6,498.6,157.6z"/>
<g>
	<path fill="#363636" d="M59.9,96.7c0.3-0.6,0.8-1.1,1.4-1.4s1.3-0.5,2-0.5c0.9,0,1.6,0.2,2.3,0.7c0.6,0.4,1.1,1,1.4,1.8h-1.8
		c-0.2-0.4-0.4-0.6-0.7-0.8c-0.3-0.2-0.7-0.3-1.1-0.3c-0.4,0-0.8,0.1-1.2,0.3c-0.3,0.2-0.6,0.5-0.8,0.9c-0.2,0.4-0.3,0.8-0.3,1.3
		c0,0.5,0.1,1,0.3,1.3c0.2,0.4,0.5,0.7,0.8,0.9c0.3,0.2,0.7,0.3,1.2,0.3c0.4,0,0.8-0.1,1.1-0.3c0.3-0.2,0.6-0.5,0.7-0.8h1.8
		c-0.3,0.8-0.7,1.4-1.3,1.8c-0.6,0.4-1.4,0.7-2.3,0.7c-0.7,0-1.4-0.2-2-0.5s-1.1-0.8-1.4-1.4s-0.5-1.3-0.5-2
		C59.4,98,59.6,97.3,59.9,96.7z"/>
	<path fill="#363636" d="M69.4,102.3c-0.5-0.3-0.8-0.6-1.1-1.1c-0.3-0.5-0.4-1-0.4-1.6s0.1-1.2,0.4-1.7s0.7-0.8,1.1-1.1
		c0.5-0.3,1-0.4,1.6-0.4c0.6,0,1.1,0.1,1.6,0.4c0.5,0.3,0.9,0.6,1.1,1.1s0.4,1,0.4,1.7s-0.1,1.2-0.4,1.6c-0.3,0.5-0.7,0.8-1.1,1.1
		c-0.5,0.3-1,0.4-1.6,0.4C70.4,102.7,69.8,102.5,69.4,102.3z M71.7,101.1c0.2-0.1,0.4-0.3,0.6-0.6c0.1-0.3,0.2-0.6,0.2-1
		c0-0.6-0.2-1-0.5-1.3c-0.3-0.3-0.7-0.5-1.1-0.5s-0.8,0.2-1.1,0.5c-0.3,0.3-0.4,0.8-0.4,1.3s0.1,1,0.4,1.3c0.3,0.3,0.7,0.5,1.1,0.5
		C71.2,101.3,71.5,101.2,71.7,101.1z"/>
	<path fill="#363636" d="M84.6,97.1c0.5,0.5,0.7,1.1,0.7,1.9v3.6h-1.5v-3.4c0-0.5-0.1-0.8-0.4-1.1c-0.2-0.3-0.6-0.4-1-0.4
		s-0.8,0.1-1,0.4c-0.2,0.3-0.4,0.6-0.4,1.1v3.4h-1.5v-3.4c0-0.5-0.1-0.8-0.4-1.1c-0.2-0.3-0.6-0.4-1-0.4c-0.4,0-0.8,0.1-1,0.4
		c-0.2,0.3-0.4,0.6-0.4,1.1v3.4h-1.5v-6.1h1.5v0.7c0.2-0.3,0.5-0.5,0.8-0.6s0.7-0.2,1-0.2c0.5,0,0.9,0.1,1.3,0.3
		c0.4,0.2,0.7,0.5,0.9,0.9c0.2-0.4,0.5-0.6,0.9-0.8c0.4-0.2,0.8-0.3,1.2-0.3C83.6,96.4,84.2,96.6,84.6,97.1z"/>
	<path fill="#363636" d="M96.2,97.1c0.5,0.5,0.7,1.1,0.7,1.9v3.6h-1.5v-3.4c0-0.5-0.1-0.8-0.4-1.1c-0.2-0.3-0.6-0.4-1-0.4
		s-0.8,0.1-1,0.4c-0.2,0.3-0.4,0.6-0.4,1.1v3.4H91v-3.4c0-0.5-0.1-0.8-0.4-1.1c-0.2-0.3-0.6-0.4-1-0.4c-0.4,0-0.8,0.1-1,0.4
		c-0.2,0.3-0.4,0.6-0.4,1.1v3.4h-1.5v-6.1h1.5v0.7c0.2-0.3,0.5-0.5,0.8-0.6s0.7-0.2,1-0.2c0.5,0,0.9,0.1,1.3,0.3
		c0.4,0.2,0.7,0.5,0.9,0.9c0.2-0.4,0.5-0.6,0.9-0.8c0.4-0.2,0.8-0.3,1.2-0.3C95.1,96.4,95.7,96.6,96.2,97.1z"/>
	<path fill="#363636" d="M104.1,96.5v6.1h-1.6v-0.8c-0.2,0.3-0.5,0.5-0.8,0.6s-0.7,0.2-1,0.2c-0.5,0-0.9-0.1-1.3-0.3
		c-0.4-0.2-0.7-0.5-0.9-0.9s-0.3-0.9-0.3-1.4v-3.6h1.5v3.4c0,0.5,0.1,0.9,0.4,1.1c0.2,0.3,0.6,0.4,1,0.4c0.4,0,0.8-0.1,1-0.4
		c0.2-0.3,0.4-0.6,0.4-1.1v-3.4H104.1z"/>
	<path fill="#363636" d="M110.7,97.1c0.4,0.5,0.7,1.1,0.7,1.9v3.6h-1.5v-3.4c0-0.5-0.1-0.9-0.4-1.1c-0.2-0.3-0.6-0.4-1-0.4
		c-0.4,0-0.8,0.1-1,0.4s-0.4,0.6-0.4,1.1v3.4h-1.5v-6.1h1.5v0.8c0.2-0.3,0.5-0.5,0.8-0.6s0.7-0.2,1.1-0.2
		C109.7,96.4,110.3,96.6,110.7,97.1z"/>
	<path fill="#363636" d="M113,95.5c-0.2-0.2-0.3-0.4-0.3-0.6s0.1-0.5,0.3-0.6c0.2-0.2,0.4-0.3,0.7-0.3c0.3,0,0.5,0.1,0.7,0.3
		c0.2,0.2,0.3,0.4,0.3,0.6s-0.1,0.5-0.3,0.6c-0.2,0.2-0.4,0.3-0.7,0.3C113.4,95.7,113.1,95.6,113,95.5z M114.4,96.5v6.1h-1.5v-6.1
		H114.4z"/>
	<path fill="#363636" d="M115.9,97.9c0.3-0.5,0.6-0.8,1.1-1.1c0.5-0.3,1-0.4,1.6-0.4c0.8,0,1.4,0.2,1.9,0.6c0.5,0.4,0.8,0.9,1,1.6
		h-1.7c-0.1-0.3-0.2-0.5-0.4-0.6s-0.5-0.2-0.8-0.2c-0.4,0-0.8,0.2-1,0.5c-0.3,0.3-0.4,0.8-0.4,1.4c0,0.6,0.1,1,0.4,1.3
		c0.3,0.3,0.6,0.5,1,0.5c0.6,0,1-0.3,1.2-0.8h1.7c-0.2,0.7-0.5,1.2-1,1.6c-0.5,0.4-1.1,0.6-1.9,0.6c-0.6,0-1.1-0.1-1.6-0.4
		c-0.5-0.3-0.8-0.6-1.1-1.1c-0.3-0.5-0.4-1-0.4-1.7S115.6,98.3,115.9,97.9z"/>
	<path fill="#363636" d="M122.5,97.8c0.2-0.5,0.6-0.8,1-1.1s0.9-0.4,1.4-0.4c0.5,0,0.9,0.1,1.2,0.3c0.3,0.2,0.6,0.4,0.8,0.7v-0.9
		h1.6v6.1h-1.6v-0.9c-0.2,0.3-0.5,0.5-0.8,0.7c-0.3,0.2-0.7,0.3-1.2,0.3c-0.5,0-1-0.1-1.4-0.4s-0.8-0.6-1-1.1
		c-0.2-0.5-0.4-1-0.4-1.7C122.1,98.9,122.3,98.3,122.5,97.8z M126.7,98.5c-0.1-0.3-0.3-0.5-0.6-0.6c-0.2-0.1-0.5-0.2-0.8-0.2
		s-0.5,0.1-0.8,0.2s-0.4,0.3-0.6,0.6c-0.2,0.3-0.2,0.6-0.2,1c0,0.4,0.1,0.7,0.2,1c0.1,0.3,0.3,0.5,0.6,0.6c0.2,0.1,0.5,0.2,0.8,0.2
		c0.3,0,0.6-0.1,0.8-0.2c0.2-0.1,0.4-0.3,0.6-0.6c0.1-0.3,0.2-0.6,0.2-1S126.9,98.8,126.7,98.5z"/>
	<path fill="#363636" d="M131.8,97.7v2.9c0,0.2,0,0.4,0.1,0.4c0.1,0.1,0.3,0.1,0.5,0.1h0.7v1.3h-1c-1.3,0-1.9-0.6-1.9-1.9v-2.9h-0.7
		v-1.3h0.7V95h1.6v1.5h1.4v1.3H131.8z"/>
	<path fill="#363636" d="M134.4,95.5c-0.2-0.2-0.3-0.4-0.3-0.6s0.1-0.5,0.3-0.6c0.2-0.2,0.4-0.3,0.7-0.3c0.3,0,0.5,0.1,0.7,0.3
		c0.2,0.2,0.3,0.4,0.3,0.6s-0.1,0.5-0.3,0.6c-0.2,0.2-0.4,0.3-0.7,0.3C134.8,95.7,134.5,95.6,134.4,95.5z M135.8,96.5v6.1h-1.5v-6.1
		H135.8z"/>
	<path fill="#363636" d="M138.4,102.3c-0.5-0.3-0.8-0.6-1.1-1.1c-0.3-0.5-0.4-1-0.4-1.6s0.1-1.2,0.4-1.7s0.7-0.8,1.1-1.1
		c0.5-0.3,1-0.4,1.6-0.4c0.6,0,1.1,0.1,1.6,0.4c0.5,0.3,0.9,0.6,1.1,1.1s0.4,1,0.4,1.7s-0.1,1.2-0.4,1.6c-0.3,0.5-0.7,0.8-1.1,1.1
		c-0.5,0.3-1,0.4-1.6,0.4C139.4,102.7,138.9,102.5,138.4,102.3z M140.8,101.1c0.2-0.1,0.4-0.3,0.6-0.6c0.1-0.3,0.2-0.6,0.2-1
		c0-0.6-0.2-1-0.5-1.3c-0.3-0.3-0.7-0.5-1.1-0.5s-0.8,0.2-1.1,0.5c-0.3,0.3-0.4,0.8-0.4,1.3s0.1,1,0.4,1.3c0.3,0.3,0.7,0.5,1.1,0.5
		C140.3,101.3,140.6,101.2,140.8,101.1z"/>
	<path fill="#363636" d="M149.5,97.1c0.4,0.5,0.7,1.1,0.7,1.9v3.6h-1.5v-3.4c0-0.5-0.1-0.9-0.4-1.1c-0.2-0.3-0.6-0.4-1-0.4
		c-0.4,0-0.8,0.1-1,0.4s-0.4,0.6-0.4,1.1v3.4h-1.5v-6.1h1.5v0.8c0.2-0.3,0.5-0.5,0.8-0.6s0.7-0.2,1.1-0.2
		C148.4,96.4,149,96.6,149.5,97.1z"/>
</g>
<g>
	<path fill="#363636" d="M217.9,36c0.2,0.2,0.4,0.4,0.5,0.7s0.2,0.6,0.2,0.9c0,0.4-0.1,0.7-0.3,1c-0.2,0.3-0.5,0.6-0.9,0.7
		c-0.4,0.2-0.8,0.3-1.3,0.3h-2.9V32h2.8c0.5,0,1,0.1,1.3,0.3c0.4,0.2,0.6,0.4,0.8,0.7s0.3,0.6,0.3,1c0,0.5-0.1,0.8-0.4,1.1
		c-0.2,0.3-0.6,0.5-1,0.6C217.4,35.7,217.6,35.9,217.9,36z M214.2,35.3h1.7c0.5,0,0.8-0.1,1.1-0.3c0.3-0.2,0.4-0.5,0.4-0.9
		s-0.1-0.7-0.4-0.9c-0.3-0.2-0.6-0.3-1.1-0.3h-1.7V35.3z M217.2,38.5c0.3-0.2,0.4-0.6,0.4-1c0-0.4-0.1-0.8-0.4-1
		c-0.3-0.2-0.7-0.4-1.2-0.4h-1.7v2.7h1.8C216.5,38.8,216.9,38.7,217.2,38.5z"/>
	<path fill="#363636" d="M225.5,37h-4.8c0,0.6,0.2,1.1,0.6,1.4c0.4,0.3,0.8,0.5,1.3,0.5c0.4,0,0.8-0.1,1.1-0.3
		c0.3-0.2,0.5-0.5,0.6-0.8h1.1c-0.2,0.6-0.5,1.1-1,1.4c-0.5,0.4-1.1,0.5-1.8,0.5c-0.6,0-1.1-0.1-1.5-0.4s-0.8-0.6-1.1-1.1
		c-0.3-0.5-0.4-1-0.4-1.6c0-0.6,0.1-1.2,0.4-1.6c0.2-0.5,0.6-0.8,1.1-1.1c0.5-0.3,1-0.4,1.6-0.4c0.6,0,1.1,0.1,1.5,0.4s0.8,0.6,1,1
		s0.4,0.9,0.4,1.5C225.5,36.6,225.5,36.8,225.5,37z M224.2,35.2c-0.2-0.3-0.4-0.5-0.7-0.6c-0.3-0.1-0.6-0.2-1-0.2
		c-0.5,0-0.9,0.2-1.3,0.5c-0.4,0.3-0.6,0.8-0.6,1.3h3.8C224.5,35.8,224.4,35.5,224.2,35.2z"/>
	<path fill="#363636" d="M226.8,35c0.2-0.5,0.6-0.8,1-1.1c0.4-0.3,1-0.4,1.5-0.4c0.7,0,1.4,0.2,1.8,0.5c0.5,0.4,0.8,0.9,1,1.5h-1.1
		c-0.1-0.4-0.3-0.7-0.6-0.9c-0.3-0.2-0.7-0.3-1.1-0.3c-0.6,0-1,0.2-1.4,0.6s-0.5,0.9-0.5,1.7c0,0.7,0.2,1.3,0.5,1.7
		c0.4,0.4,0.8,0.6,1.4,0.6c0.4,0,0.8-0.1,1.1-0.3c0.3-0.2,0.5-0.5,0.6-0.9h1.1c-0.2,0.6-0.5,1.1-1,1.5c-0.5,0.4-1.1,0.6-1.8,0.6
		c-0.6,0-1.1-0.1-1.5-0.4c-0.4-0.3-0.8-0.6-1-1.1c-0.2-0.5-0.4-1-0.4-1.7C226.4,36,226.6,35.5,226.8,35z"/>
	<path fill="#363636" d="M234.6,39.4c-0.5-0.3-0.8-0.6-1.1-1.1c-0.3-0.5-0.4-1-0.4-1.6c0-0.6,0.1-1.2,0.4-1.6
		c0.3-0.5,0.6-0.8,1.1-1.1c0.5-0.3,1-0.4,1.6-0.4s1.1,0.1,1.6,0.4c0.5,0.3,0.8,0.6,1.1,1.1c0.3,0.5,0.4,1,0.4,1.6
		c0,0.6-0.1,1.2-0.4,1.6c-0.3,0.5-0.6,0.8-1.1,1.1s-1,0.4-1.6,0.4C235.5,39.7,235,39.6,234.6,39.4z M237.1,38.6
		c0.3-0.2,0.6-0.4,0.8-0.8s0.3-0.7,0.3-1.2c0-0.5-0.1-0.9-0.3-1.2c-0.2-0.3-0.4-0.6-0.7-0.8c-0.3-0.2-0.6-0.2-1-0.2
		c-0.4,0-0.7,0.1-1,0.2s-0.5,0.4-0.7,0.8c-0.2,0.3-0.3,0.7-0.3,1.2c0,0.5,0.1,0.9,0.3,1.2c0.2,0.3,0.4,0.6,0.7,0.8s0.6,0.2,1,0.2
		S236.8,38.8,237.1,38.6z"/>
	<path fill="#363636" d="M249,33.8c0.4,0.2,0.7,0.5,0.9,0.9c0.2,0.4,0.3,0.9,0.3,1.4v3.6h-1v-3.4c0-0.6-0.1-1.1-0.4-1.4
		c-0.3-0.3-0.7-0.5-1.2-0.5c-0.5,0-0.9,0.2-1.2,0.5c-0.3,0.3-0.5,0.8-0.5,1.4v3.3h-1v-3.4c0-0.6-0.1-1.1-0.4-1.4
		c-0.3-0.3-0.7-0.5-1.2-0.5c-0.5,0-0.9,0.2-1.2,0.5s-0.5,0.8-0.5,1.4v3.3h-1v-6h1v0.9c0.2-0.3,0.5-0.6,0.8-0.7
		c0.3-0.2,0.7-0.3,1.1-0.3c0.5,0,1,0.1,1.3,0.3s0.7,0.6,0.9,1c0.2-0.4,0.4-0.8,0.8-1c0.4-0.2,0.8-0.4,1.3-0.4
		C248.2,33.5,248.7,33.6,249,33.8z"/>
	<path fill="#363636" d="M257.3,37h-4.8c0,0.6,0.2,1.1,0.6,1.4c0.4,0.3,0.8,0.5,1.3,0.5c0.4,0,0.8-0.1,1.1-0.3
		c0.3-0.2,0.5-0.5,0.6-0.8h1.1c-0.2,0.6-0.5,1.1-1,1.4c-0.5,0.4-1.1,0.5-1.8,0.5c-0.6,0-1.1-0.1-1.5-0.4s-0.8-0.6-1.1-1.1
		c-0.3-0.5-0.4-1-0.4-1.6c0-0.6,0.1-1.2,0.4-1.6c0.2-0.5,0.6-0.8,1.1-1.1c0.5-0.3,1-0.4,1.6-0.4c0.6,0,1.1,0.1,1.5,0.4s0.8,0.6,1,1
		s0.4,0.9,0.4,1.5C257.4,36.6,257.3,36.8,257.3,37z M256.1,35.2c-0.2-0.3-0.4-0.5-0.7-0.6c-0.3-0.1-0.6-0.2-1-0.2
		c-0.5,0-0.9,0.2-1.3,0.5c-0.4,0.3-0.6,0.8-0.6,1.3h3.8C256.3,35.8,256.2,35.5,256.1,35.2z"/>
	<path fill="#363636" d="M269.4,32v7.6h-1V34l-2.5,5.7h-0.7l-2.5-5.7v5.7h-1V32h1.1l2.8,6.3l2.8-6.3H269.4z"/>
	<path fill="#363636" d="M272.2,39.4c-0.5-0.3-0.8-0.6-1.1-1.1c-0.3-0.5-0.4-1-0.4-1.6c0-0.6,0.1-1.2,0.4-1.6
		c0.3-0.5,0.6-0.8,1.1-1.1c0.5-0.3,1-0.4,1.6-0.4c0.6,0,1.1,0.1,1.6,0.4c0.5,0.3,0.8,0.6,1.1,1.1c0.3,0.5,0.4,1,0.4,1.6
		c0,0.6-0.1,1.2-0.4,1.6c-0.3,0.5-0.6,0.8-1.1,1.1c-0.5,0.3-1,0.4-1.6,0.4C273.1,39.7,272.6,39.6,272.2,39.4z M274.7,38.6
		c0.3-0.2,0.6-0.4,0.8-0.8s0.3-0.7,0.3-1.2c0-0.5-0.1-0.9-0.3-1.2s-0.4-0.6-0.7-0.8s-0.6-0.2-1-0.2c-0.4,0-0.7,0.1-1,0.2
		c-0.3,0.2-0.5,0.4-0.7,0.8s-0.3,0.7-0.3,1.2c0,0.5,0.1,0.9,0.3,1.2c0.2,0.3,0.4,0.6,0.7,0.8s0.6,0.2,1,0.2S274.4,38.8,274.7,38.6z"
		/>
	<path fill="#363636" d="M279.9,33.8c0.3-0.2,0.7-0.3,1.2-0.3v1h-0.3c-1.1,0-1.7,0.6-1.7,1.8v3.3h-1v-6h1v1
		C279.3,34.3,279.6,34,279.9,33.8z"/>
	<path fill="#363636" d="M287.7,37h-4.8c0,0.6,0.2,1.1,0.6,1.4c0.4,0.3,0.8,0.5,1.3,0.5c0.4,0,0.8-0.1,1.1-0.3
		c0.3-0.2,0.5-0.5,0.6-0.8h1.1c-0.2,0.6-0.5,1.1-1,1.4c-0.5,0.4-1.1,0.5-1.8,0.5c-0.6,0-1.1-0.1-1.5-0.4s-0.8-0.6-1.1-1.1
		c-0.3-0.5-0.4-1-0.4-1.6c0-0.6,0.1-1.2,0.4-1.6c0.2-0.5,0.6-0.8,1-1.1c0.5-0.3,1-0.4,1.6-0.4c0.6,0,1.1,0.1,1.5,0.4
		c0.4,0.2,0.8,0.6,1,1s0.4,0.9,0.4,1.5C287.7,36.6,287.7,36.8,287.7,37z M286.4,35.2c-0.2-0.3-0.4-0.5-0.7-0.6
		c-0.3-0.1-0.6-0.2-1-0.2c-0.5,0-0.9,0.2-1.3,0.5c-0.4,0.3-0.6,0.8-0.6,1.3h3.8C286.7,35.8,286.6,35.5,286.4,35.2z"/>
	<path fill="#363636" d="M292.1,33.8c0.3-0.6,0.8-1.1,1.4-1.4c0.6-0.3,1.2-0.5,1.9-0.5c0.8,0,1.6,0.2,2.2,0.6s1.1,1,1.4,1.7h-1.2
		c-0.2-0.5-0.5-0.8-0.9-1.1c-0.4-0.2-0.9-0.4-1.4-0.4c-0.5,0-1,0.1-1.4,0.4c-0.4,0.2-0.8,0.6-1,1.1c-0.2,0.5-0.4,1-0.4,1.6
		c0,0.6,0.1,1.1,0.4,1.6s0.6,0.8,1,1.1c0.4,0.2,0.9,0.4,1.4,0.4c0.6,0,1-0.1,1.4-0.4c0.4-0.2,0.7-0.6,0.9-1.1h1.2
		c-0.3,0.7-0.7,1.3-1.4,1.7c-0.6,0.4-1.4,0.6-2.2,0.6c-0.7,0-1.4-0.2-1.9-0.5s-1-0.8-1.4-1.4c-0.3-0.6-0.5-1.3-0.5-2
		S291.8,34.4,292.1,33.8z"/>
	<path fill="#363636" d="M301.5,31.5v8.1h-1v-8.1H301.5z"/>
	<path fill="#363636" d="M308.6,37h-4.8c0,0.6,0.2,1.1,0.6,1.4c0.4,0.3,0.8,0.5,1.3,0.5c0.4,0,0.8-0.1,1.1-0.3
		c0.3-0.2,0.5-0.5,0.6-0.8h1.1c-0.2,0.6-0.5,1.1-1,1.4s-1.1,0.5-1.8,0.5c-0.6,0-1.1-0.1-1.5-0.4s-0.8-0.6-1.1-1.1
		c-0.3-0.5-0.4-1-0.4-1.6c0-0.6,0.1-1.2,0.4-1.6c0.2-0.5,0.6-0.8,1.1-1.1c0.5-0.3,1-0.4,1.6-0.4c0.6,0,1.1,0.1,1.5,0.4
		c0.4,0.2,0.8,0.6,1,1s0.4,0.9,0.4,1.5C308.7,36.6,308.7,36.8,308.6,37z M307.4,35.2c-0.2-0.3-0.4-0.5-0.7-0.6
		c-0.3-0.1-0.6-0.2-1-0.2c-0.5,0-0.9,0.2-1.3,0.5s-0.6,0.8-0.6,1.3h3.8C307.6,35.8,307.6,35.5,307.4,35.2z"/>
	<path fill="#363636" d="M310,35c0.2-0.5,0.6-0.8,1-1.1c0.4-0.3,0.9-0.4,1.5-0.4c0.5,0,1,0.1,1.4,0.3s0.7,0.5,0.9,0.9v-1.1h1v6h-1
		v-1.1c-0.2,0.4-0.5,0.6-0.9,0.9c-0.4,0.2-0.8,0.3-1.4,0.3c-0.5,0-1-0.1-1.5-0.4s-0.8-0.6-1-1.1c-0.2-0.5-0.4-1-0.4-1.6
		C309.6,36,309.8,35.5,310,35z M314.5,35.4c-0.2-0.3-0.4-0.6-0.7-0.8s-0.7-0.3-1-0.3s-0.7,0.1-1,0.3c-0.3,0.2-0.6,0.4-0.7,0.8
		c-0.2,0.3-0.3,0.7-0.3,1.2c0,0.5,0.1,0.9,0.3,1.2c0.2,0.3,0.4,0.6,0.7,0.8c0.3,0.2,0.6,0.3,1,0.3s0.7-0.1,1-0.3s0.6-0.4,0.7-0.8
		c0.2-0.3,0.3-0.7,0.3-1.2C314.7,36.2,314.6,35.8,314.5,35.4z"/>
	<path fill="#363636" d="M319.2,33.8c0.3-0.2,0.7-0.3,1.2-0.3v1h-0.3c-1.1,0-1.7,0.6-1.7,1.8v3.3h-1v-6h1v1
		C318.6,34.3,318.9,34,319.2,33.8z"/>
	<path fill="#363636" d="M322.6,38.3l-1.2,3h-0.7l0.8-3H322.6z"/>
	<path fill="#363636" d="M326.8,33.8c0.3-0.6,0.8-1.1,1.4-1.4c0.6-0.3,1.2-0.5,1.9-0.5c0.8,0,1.6,0.2,2.2,0.6c0.6,0.4,1.1,1,1.4,1.7
		h-1.2c-0.2-0.5-0.5-0.8-0.9-1.1s-0.9-0.4-1.4-0.4c-0.5,0-1,0.1-1.4,0.4c-0.4,0.2-0.8,0.6-1,1.1c-0.2,0.5-0.4,1-0.4,1.6
		c0,0.6,0.1,1.1,0.4,1.6c0.2,0.5,0.6,0.8,1,1.1c0.4,0.2,0.9,0.4,1.4,0.4c0.6,0,1-0.1,1.4-0.4c0.4-0.2,0.7-0.6,0.9-1.1h1.2
		c-0.3,0.7-0.7,1.3-1.4,1.7c-0.6,0.4-1.4,0.6-2.2,0.6c-0.7,0-1.4-0.2-1.9-0.5s-1-0.8-1.4-1.4c-0.3-0.6-0.5-1.3-0.5-2
		S326.4,34.4,326.8,33.8z"/>
	<path fill="#363636" d="M336.2,39.4c-0.5-0.3-0.8-0.6-1.1-1.1c-0.3-0.5-0.4-1-0.4-1.6c0-0.6,0.1-1.2,0.4-1.6
		c0.3-0.5,0.6-0.8,1.1-1.1c0.5-0.3,1-0.4,1.6-0.4c0.6,0,1.1,0.1,1.6,0.4c0.5,0.3,0.8,0.6,1.1,1.1c0.3,0.5,0.4,1,0.4,1.6
		c0,0.6-0.1,1.2-0.4,1.6c-0.3,0.5-0.6,0.8-1.1,1.1c-0.5,0.3-1,0.4-1.6,0.4C337.2,39.7,336.7,39.6,336.2,39.4z M338.8,38.6
		c0.3-0.2,0.6-0.4,0.8-0.8s0.3-0.7,0.3-1.2c0-0.5-0.1-0.9-0.3-1.2c-0.2-0.3-0.4-0.6-0.7-0.8c-0.3-0.2-0.6-0.2-1-0.2
		c-0.4,0-0.7,0.1-1,0.2c-0.3,0.2-0.5,0.4-0.7,0.8c-0.2,0.3-0.3,0.7-0.3,1.2c0,0.5,0.1,0.9,0.3,1.2c0.2,0.3,0.4,0.6,0.7,0.8
		s0.6,0.2,1,0.2S338.5,38.8,338.8,38.6z"/>
	<path fill="#363636" d="M346.9,34.2c0.5,0.4,0.7,1.1,0.7,1.9v3.6h-1v-3.4c0-0.6-0.2-1.1-0.5-1.4c-0.3-0.3-0.7-0.5-1.2-0.5
		c-0.5,0-0.9,0.2-1.3,0.5c-0.3,0.3-0.5,0.8-0.5,1.4v3.3h-1v-6h1v0.9c0.2-0.3,0.5-0.5,0.8-0.7c0.3-0.2,0.7-0.3,1.1-0.3
		C345.9,33.5,346.5,33.7,346.9,34.2z"/>
	<path fill="#363636" d="M349.2,35c0.2-0.5,0.6-0.8,1-1.1s1-0.4,1.5-0.4c0.7,0,1.4,0.2,1.8,0.5c0.5,0.4,0.8,0.9,1,1.5h-1.1
		c-0.1-0.4-0.3-0.7-0.6-0.9s-0.7-0.3-1.1-0.3c-0.6,0-1,0.2-1.4,0.6c-0.4,0.4-0.5,0.9-0.5,1.7c0,0.7,0.2,1.3,0.5,1.7
		c0.4,0.4,0.8,0.6,1.4,0.6c0.4,0,0.8-0.1,1.1-0.3c0.3-0.2,0.5-0.5,0.6-0.9h1.1c-0.2,0.6-0.5,1.1-1,1.5c-0.5,0.4-1.1,0.6-1.8,0.6
		c-0.6,0-1.1-0.1-1.5-0.4s-0.8-0.6-1-1.1c-0.2-0.5-0.4-1-0.4-1.7C348.9,36,349,35.5,349.2,35z"/>
	<path fill="#363636" d="M355.9,32.4c-0.1-0.1-0.2-0.3-0.2-0.5c0-0.2,0.1-0.4,0.2-0.5c0.1-0.1,0.3-0.2,0.5-0.2
		c0.2,0,0.3,0.1,0.5,0.2c0.1,0.1,0.2,0.3,0.2,0.5c0,0.2-0.1,0.4-0.2,0.5c-0.1,0.1-0.3,0.2-0.5,0.2C356.2,32.6,356.1,32.6,355.9,32.4
		z M356.9,33.6v6h-1v-6H356.9z"/>
	<path fill="#363636" d="M359.5,39.5c-0.4-0.2-0.7-0.4-0.9-0.7c-0.2-0.3-0.3-0.6-0.4-1h1c0,0.3,0.2,0.5,0.4,0.7
		c0.3,0.2,0.6,0.3,1,0.3c0.4,0,0.7-0.1,0.9-0.3s0.3-0.4,0.3-0.6c0-0.3-0.1-0.5-0.4-0.6c-0.2-0.1-0.6-0.3-1.1-0.4
		c-0.4-0.1-0.8-0.2-1.1-0.4s-0.5-0.3-0.7-0.5c-0.2-0.2-0.3-0.6-0.3-0.9c0-0.3,0.1-0.6,0.3-0.8s0.4-0.5,0.8-0.6
		c0.3-0.2,0.7-0.2,1.2-0.2c0.7,0,1.2,0.2,1.6,0.5c0.4,0.3,0.6,0.8,0.7,1.4h-1c0-0.3-0.1-0.6-0.4-0.8c-0.2-0.2-0.5-0.3-0.9-0.3
		c-0.4,0-0.6,0.1-0.9,0.2s-0.3,0.4-0.3,0.6c0,0.2,0.1,0.4,0.2,0.5c0.1,0.1,0.3,0.2,0.5,0.3s0.5,0.2,0.8,0.3c0.4,0.1,0.8,0.2,1.1,0.3
		c0.3,0.1,0.5,0.3,0.7,0.5c0.2,0.2,0.3,0.5,0.3,0.9c0,0.3-0.1,0.6-0.3,0.9s-0.4,0.5-0.8,0.6c-0.3,0.2-0.7,0.2-1.1,0.2
		C360.3,39.7,359.9,39.7,359.5,39.5z"/>
	<path fill="#363636" d="M369.8,37H365c0,0.6,0.2,1.1,0.6,1.4c0.4,0.3,0.8,0.5,1.3,0.5c0.4,0,0.8-0.1,1.1-0.3
		c0.3-0.2,0.5-0.5,0.6-0.8h1.1c-0.2,0.6-0.5,1.1-1,1.4s-1.1,0.5-1.8,0.5c-0.6,0-1.1-0.1-1.5-0.4s-0.8-0.6-1.1-1.1
		c-0.3-0.5-0.4-1-0.4-1.6c0-0.6,0.1-1.2,0.4-1.6c0.2-0.5,0.6-0.8,1.1-1.1c0.5-0.3,1-0.4,1.6-0.4c0.6,0,1.1,0.1,1.5,0.4
		c0.4,0.2,0.8,0.6,1,1s0.4,0.9,0.4,1.5C369.9,36.6,369.8,36.8,369.8,37z M368.6,35.2c-0.2-0.3-0.4-0.5-0.7-0.6
		c-0.3-0.1-0.6-0.2-1-0.2c-0.5,0-0.9,0.2-1.3,0.5s-0.6,0.8-0.6,1.3h3.8C368.8,35.8,368.7,35.5,368.6,35.2z"/>
	<path fill="#363636" d="M372.2,38.3l-1.2,3h-0.7l0.8-3H372.2z"/>
	<path fill="#363636" d="M382.2,39.6l-1-1c-0.4,0.4-0.8,0.7-1.2,0.9c-0.4,0.2-0.9,0.3-1.4,0.3c-0.5,0-1-0.1-1.4-0.3
		c-0.4-0.2-0.7-0.5-0.9-0.8c-0.2-0.4-0.3-0.8-0.3-1.2c0-0.5,0.2-1,0.5-1.4s0.8-0.7,1.3-1c-0.2-0.3-0.4-0.5-0.5-0.8
		c-0.1-0.2-0.2-0.5-0.2-0.8c0-0.3,0.1-0.6,0.2-0.9c0.2-0.3,0.4-0.5,0.7-0.6c0.3-0.1,0.7-0.2,1.1-0.2c0.4,0,0.7,0.1,1,0.2
		c0.3,0.2,0.5,0.4,0.7,0.6c0.1,0.3,0.2,0.6,0.2,0.9h-1c0-0.3-0.1-0.5-0.3-0.7c-0.2-0.2-0.4-0.3-0.7-0.3c-0.3,0-0.5,0.1-0.7,0.2
		c-0.2,0.2-0.3,0.4-0.3,0.6c0,0.2,0.1,0.4,0.2,0.6c0.1,0.2,0.3,0.5,0.6,0.8l2.3,2.3l0.2-0.3l0.7-1.3h1.1l-0.9,1.6
		c-0.1,0.2-0.3,0.5-0.4,0.7l1.7,1.7H382.2z M379.6,38.7c0.3-0.2,0.6-0.4,0.9-0.7l-2.3-2.3c-0.9,0.4-1.4,0.9-1.4,1.7
		c0,0.4,0.2,0.8,0.5,1.1s0.7,0.4,1.2,0.4C378.9,38.9,379.3,38.8,379.6,38.7z"/>
	<path fill="#363636" d="M387.5,33.8c0.3-0.6,0.8-1.1,1.4-1.4c0.6-0.3,1.2-0.5,1.9-0.5c0.8,0,1.6,0.2,2.2,0.6c0.6,0.4,1.1,1,1.4,1.7
		h-1.2c-0.2-0.5-0.5-0.8-0.9-1.1s-0.9-0.4-1.4-0.4c-0.5,0-1,0.1-1.4,0.4c-0.4,0.2-0.8,0.6-1,1.1c-0.2,0.5-0.4,1-0.4,1.6
		c0,0.6,0.1,1.1,0.4,1.6c0.2,0.5,0.6,0.8,1,1.1c0.4,0.2,0.9,0.4,1.4,0.4c0.6,0,1-0.1,1.4-0.4c0.4-0.2,0.7-0.6,0.9-1.1h1.2
		c-0.3,0.7-0.7,1.3-1.4,1.7c-0.6,0.4-1.4,0.6-2.2,0.6c-0.7,0-1.4-0.2-1.9-0.5s-1-0.8-1.4-1.4c-0.3-0.6-0.5-1.3-0.5-2
		S387.1,34.4,387.5,33.8z"/>
	<path fill="#363636" d="M396.9,39.4c-0.5-0.3-0.8-0.6-1.1-1.1c-0.3-0.5-0.4-1-0.4-1.6c0-0.6,0.1-1.2,0.4-1.6
		c0.3-0.5,0.6-0.8,1.1-1.1c0.5-0.3,1-0.4,1.6-0.4c0.6,0,1.1,0.1,1.6,0.4c0.5,0.3,0.8,0.6,1.1,1.1c0.3,0.5,0.4,1,0.4,1.6
		c0,0.6-0.1,1.2-0.4,1.6c-0.3,0.5-0.6,0.8-1.1,1.1c-0.5,0.3-1,0.4-1.6,0.4C397.9,39.7,397.4,39.6,396.9,39.4z M399.5,38.6
		c0.3-0.2,0.6-0.4,0.8-0.8c0.2-0.3,0.3-0.7,0.3-1.2c0-0.5-0.1-0.9-0.3-1.2s-0.4-0.6-0.7-0.8c-0.3-0.2-0.6-0.2-1-0.2
		c-0.4,0-0.7,0.1-1,0.2c-0.3,0.2-0.5,0.4-0.7,0.8c-0.2,0.3-0.3,0.7-0.3,1.2c0,0.5,0.1,0.9,0.3,1.2c0.2,0.3,0.4,0.6,0.7,0.8
		c0.3,0.2,0.6,0.2,1,0.2S399.2,38.8,399.5,38.6z"/>
	<path fill="#363636" d="M407.6,34.2c0.5,0.4,0.7,1.1,0.7,1.9v3.6h-1v-3.4c0-0.6-0.2-1.1-0.5-1.4c-0.3-0.3-0.7-0.5-1.2-0.5
		c-0.5,0-0.9,0.2-1.3,0.5c-0.3,0.3-0.5,0.8-0.5,1.4v3.3h-1v-6h1v0.9c0.2-0.3,0.5-0.5,0.8-0.7s0.7-0.3,1.1-0.3
		C406.6,33.5,407.1,33.7,407.6,34.2z"/>
	<path fill="#363636" d="M412.4,34.4h-1.3v5.2h-1v-5.2h-0.8v-0.8h0.8v-0.4c0-0.7,0.2-1.2,0.5-1.5c0.3-0.3,0.9-0.5,1.7-0.5v0.8
		c-0.4,0-0.8,0.1-0.9,0.3c-0.2,0.2-0.3,0.5-0.3,0.9v0.4h1.3V34.4z"/>
	<path fill="#363636" d="M413.6,32.4c-0.1-0.1-0.2-0.3-0.2-0.5c0-0.2,0.1-0.4,0.2-0.5s0.3-0.2,0.5-0.2c0.2,0,0.3,0.1,0.5,0.2
		c0.1,0.1,0.2,0.3,0.2,0.5c0,0.2-0.1,0.4-0.2,0.5c-0.1,0.1-0.3,0.2-0.5,0.2C413.9,32.6,413.7,32.6,413.6,32.4z M414.5,33.6v6h-1v-6
		H414.5z"/>
	<path fill="#363636" d="M416.2,35c0.2-0.5,0.6-0.8,1-1.1c0.4-0.3,0.9-0.4,1.5-0.4c0.5,0,0.9,0.1,1.3,0.3c0.4,0.2,0.7,0.5,0.9,0.9
		v-3.2h1v8.1h-1v-1.1c-0.2,0.4-0.5,0.7-0.9,0.9c-0.4,0.2-0.8,0.3-1.4,0.3c-0.5,0-1-0.1-1.5-0.4c-0.4-0.3-0.8-0.6-1-1.1
		c-0.2-0.5-0.4-1-0.4-1.6C415.9,36,416,35.5,416.2,35z M420.7,35.4c-0.2-0.3-0.4-0.6-0.7-0.8s-0.7-0.3-1-0.3s-0.7,0.1-1,0.3
		c-0.3,0.2-0.6,0.4-0.7,0.8c-0.2,0.3-0.3,0.7-0.3,1.2c0,0.5,0.1,0.9,0.3,1.2c0.2,0.3,0.4,0.6,0.7,0.8c0.3,0.2,0.6,0.3,1,0.3
		s0.7-0.1,1-0.3s0.6-0.4,0.7-0.8c0.2-0.3,0.3-0.7,0.3-1.2C421,36.2,420.9,35.8,420.7,35.4z"/>
	<path fill="#363636" d="M429.2,37h-4.8c0,0.6,0.2,1.1,0.6,1.4c0.4,0.3,0.8,0.5,1.3,0.5c0.4,0,0.8-0.1,1.1-0.3
		c0.3-0.2,0.5-0.5,0.6-0.8h1.1c-0.2,0.6-0.5,1.1-1,1.4c-0.5,0.4-1.1,0.5-1.8,0.5c-0.6,0-1.1-0.1-1.5-0.4c-0.5-0.3-0.8-0.6-1.1-1.1
		c-0.3-0.5-0.4-1-0.4-1.6c0-0.6,0.1-1.2,0.4-1.6c0.2-0.5,0.6-0.8,1.1-1.1c0.5-0.3,1-0.4,1.6-0.4c0.6,0,1.1,0.1,1.5,0.4
		c0.4,0.2,0.8,0.6,1,1s0.4,0.9,0.4,1.5C429.2,36.6,429.2,36.8,429.2,37z M427.9,35.2c-0.2-0.3-0.4-0.5-0.7-0.6
		c-0.3-0.1-0.6-0.2-1-0.2c-0.5,0-0.9,0.2-1.3,0.5s-0.6,0.8-0.6,1.3h3.8C428.2,35.8,428.1,35.5,427.9,35.2z"/>
	<path fill="#363636" d="M435.2,34.2c0.5,0.4,0.7,1.1,0.7,1.9v3.6h-1v-3.4c0-0.6-0.2-1.1-0.5-1.4c-0.3-0.3-0.7-0.5-1.2-0.5
		c-0.5,0-0.9,0.2-1.3,0.5c-0.3,0.3-0.5,0.8-0.5,1.4v3.3h-1v-6h1v0.9c0.2-0.3,0.5-0.5,0.8-0.7s0.7-0.3,1.1-0.3
		C434.2,33.5,434.8,33.7,435.2,34.2z"/>
	<path fill="#363636" d="M438.8,34.4V38c0,0.3,0.1,0.5,0.2,0.6s0.3,0.2,0.6,0.2h0.7v0.8h-0.9c-0.6,0-1-0.1-1.3-0.4
		c-0.3-0.3-0.4-0.7-0.4-1.3v-3.6H437v-0.8h0.8v-1.5h1v1.5h1.6v0.8H438.8z"/>
</g>
<g>
	<path fill="#363636" d="M216.9,54.5h-2.5l-0.4,1.2h-1.3l2.3-6.3h1.5l2.3,6.3h-1.3L216.9,54.5z M216.5,53.5l-0.9-2.6l-0.9,2.6H216.5
		z"/>
	<path fill="#363636" d="M220.7,49v6.7h-1.3V49H220.7z"/>
	<path fill="#363636" d="M226.6,53.5h-3.6c0,0.4,0.2,0.6,0.4,0.8c0.2,0.2,0.5,0.3,0.8,0.3c0.5,0,0.8-0.2,1-0.6h1.4
		c-0.1,0.5-0.4,0.9-0.8,1.2c-0.4,0.3-0.9,0.5-1.5,0.5c-0.5,0-0.9-0.1-1.3-0.3c-0.4-0.2-0.7-0.5-0.9-0.9c-0.2-0.4-0.3-0.8-0.3-1.4
		c0-0.5,0.1-1,0.3-1.4c0.2-0.4,0.5-0.7,0.9-0.9s0.8-0.3,1.3-0.3c0.5,0,0.9,0.1,1.3,0.3s0.7,0.5,0.9,0.9s0.3,0.8,0.3,1.3
		C226.6,53.2,226.6,53.4,226.6,53.5z M225.3,52.7c0-0.3-0.1-0.6-0.4-0.8c-0.2-0.2-0.5-0.3-0.8-0.3c-0.3,0-0.6,0.1-0.8,0.3
		c-0.2,0.2-0.3,0.5-0.4,0.8H225.3z"/>
	<path fill="#363636" d="M230.3,55.7l-1-1.5l-0.9,1.5H227l1.6-2.5l-1.6-2.5h1.4l1,1.5l0.9-1.5h1.3l-1.6,2.5l1.7,2.5H230.3z"/>
	<path fill="#363636" d="M235.8,54.7h2.1v1h-3.3v-6.3h1.3V54.7z"/>
	<path fill="#363636" d="M243.4,50.7l-3.1,7.3H239l1.1-2.5l-2-4.9h1.4l1.3,3.5l1.3-3.5H243.4z"/>
	<path fill="#363636" d="M245,55.4c-0.4-0.2-0.7-0.5-0.9-0.9c-0.2-0.4-0.3-0.8-0.3-1.4s0.1-1,0.3-1.3c0.2-0.4,0.5-0.7,0.9-0.9
		s0.8-0.3,1.3-0.3s0.9,0.1,1.3,0.3c0.4,0.2,0.7,0.5,0.9,0.9c0.2,0.4,0.3,0.8,0.3,1.3s-0.1,1-0.3,1.4c-0.2,0.4-0.5,0.7-0.9,0.9
		s-0.8,0.3-1.3,0.3C245.8,55.7,245.4,55.6,245,55.4z M247,54.5c0.2-0.1,0.4-0.3,0.5-0.5c0.1-0.2,0.2-0.5,0.2-0.8
		c0-0.5-0.1-0.8-0.4-1.1c-0.2-0.3-0.6-0.4-0.9-0.4s-0.7,0.1-0.9,0.4c-0.2,0.3-0.4,0.6-0.4,1.1c0,0.5,0.1,0.8,0.4,1.1
		s0.5,0.4,0.9,0.4C246.5,54.6,246.8,54.6,247,54.5z"/>
	<path fill="#363636" d="M254,51.2c0.4,0.4,0.5,0.9,0.5,1.6v2.9h-1.3v-2.8c0-0.4-0.1-0.7-0.3-0.9c-0.2-0.2-0.5-0.3-0.8-0.3
		c-0.3,0-0.6,0.1-0.8,0.3c-0.2,0.2-0.3,0.5-0.3,0.9v2.8h-1.3v-5h1.3v0.6c0.2-0.2,0.4-0.4,0.6-0.5c0.3-0.1,0.5-0.2,0.9-0.2
		C253.2,50.6,253.7,50.8,254,51.2z"/>
	<path fill="#363636" d="M257.2,54.3l-1.1,2.5h-0.8l0.6-2.5H257.2z"/>
	<path fill="#363636" d="M261.2,55.5c-0.4-0.1-0.6-0.4-0.8-0.6c-0.2-0.3-0.3-0.6-0.3-1h1.4c0,0.3,0.1,0.5,0.3,0.6
		c0.2,0.2,0.4,0.2,0.7,0.2c0.3,0,0.5-0.1,0.7-0.2c0.2-0.1,0.3-0.3,0.3-0.6c0-0.2-0.1-0.3-0.2-0.5s-0.3-0.2-0.4-0.3S262.3,53,262,53
		c-0.4-0.1-0.7-0.2-1-0.4c-0.3-0.1-0.5-0.3-0.7-0.5c-0.2-0.2-0.3-0.6-0.3-0.9c0-0.4,0.1-0.7,0.3-1c0.2-0.3,0.4-0.5,0.8-0.6
		c0.3-0.1,0.7-0.2,1.2-0.2c0.6,0,1.2,0.2,1.6,0.5c0.4,0.3,0.6,0.8,0.7,1.3h-1.4c0-0.2-0.1-0.4-0.3-0.5c-0.2-0.1-0.4-0.2-0.7-0.2
		c-0.2,0-0.4,0.1-0.6,0.2s-0.2,0.3-0.2,0.5c0,0.2,0.1,0.3,0.2,0.4c0.1,0.1,0.2,0.2,0.4,0.3s0.4,0.1,0.7,0.2c0.4,0.1,0.7,0.2,1,0.4
		s0.5,0.3,0.7,0.5c0.2,0.2,0.3,0.6,0.3,0.9c0,0.3-0.1,0.6-0.3,0.9s-0.4,0.5-0.8,0.7s-0.7,0.3-1.2,0.3
		C261.9,55.7,261.6,55.7,261.2,55.5z"/>
	<path fill="#363636" d="M268.6,55.7l-1.7-2.1v2.1h-1.3V49h1.3v3.8l1.7-2.1h1.6l-2.2,2.5l2.2,2.5H268.6z"/>
	<path fill="#363636" d="M271,49.9c-0.1-0.1-0.2-0.3-0.2-0.5c0-0.2,0.1-0.4,0.2-0.5c0.1-0.1,0.3-0.2,0.6-0.2s0.4,0.1,0.6,0.2
		c0.1,0.1,0.2,0.3,0.2,0.5c0,0.2-0.1,0.4-0.2,0.5c-0.1,0.1-0.3,0.2-0.6,0.2S271.2,50,271,49.9z M272.2,50.7v5H271v-5H272.2z"/>
	<path fill="#363636" d="M274.7,49v6.7h-1.3V49H274.7z"/>
	<path fill="#363636" d="M277.2,49v6.7H276V49H277.2z"/>
	<path fill="#363636" d="M279.3,55.5c-0.3-0.1-0.6-0.3-0.8-0.6c-0.2-0.3-0.3-0.5-0.3-0.8h1.3c0,0.2,0.1,0.4,0.3,0.5s0.4,0.2,0.6,0.2
		c0.2,0,0.4,0,0.6-0.1s0.2-0.2,0.2-0.4c0-0.2-0.1-0.3-0.2-0.4s-0.4-0.2-0.8-0.3c-0.4-0.1-0.7-0.2-0.9-0.3c-0.2-0.1-0.4-0.2-0.6-0.4
		c-0.2-0.2-0.3-0.5-0.3-0.8c0-0.3,0.1-0.5,0.2-0.8c0.2-0.2,0.4-0.4,0.7-0.5c0.3-0.1,0.6-0.2,1-0.2c0.6,0,1.1,0.1,1.4,0.4
		c0.4,0.3,0.5,0.7,0.6,1.2h-1.2c0-0.2-0.1-0.4-0.2-0.5s-0.3-0.2-0.6-0.2c-0.2,0-0.4,0-0.5,0.1c-0.1,0.1-0.2,0.2-0.2,0.4
		c0,0.2,0.1,0.3,0.3,0.4c0.2,0.1,0.4,0.2,0.8,0.3c0.4,0.1,0.7,0.2,0.9,0.3c0.2,0.1,0.4,0.2,0.6,0.4s0.3,0.5,0.3,0.8
		c0,0.3-0.1,0.5-0.2,0.8c-0.2,0.2-0.4,0.4-0.7,0.5s-0.6,0.2-1,0.2C280,55.7,279.6,55.7,279.3,55.5z"/>
	<path fill="#363636" d="M287.2,50.9c0.3,0.2,0.5,0.4,0.7,0.7c0.2,0.3,0.2,0.7,0.2,1.2v2.9h-1.3v-2.8c0-0.4-0.1-0.7-0.3-0.9
		c-0.2-0.2-0.5-0.3-0.8-0.3c-0.3,0-0.6,0.1-0.8,0.3c-0.2,0.2-0.3,0.5-0.3,0.9v2.8h-1.3V49h1.3v2.3c0.2-0.2,0.4-0.4,0.6-0.5
		c0.3-0.1,0.6-0.2,0.9-0.2C286.5,50.6,286.9,50.7,287.2,50.9z"/>
	<path fill="#363636" d="M289.3,51.8c0.2-0.4,0.5-0.7,0.8-0.9c0.3-0.2,0.7-0.3,1.2-0.3c0.4,0,0.7,0.1,1,0.2c0.3,0.1,0.5,0.3,0.7,0.6
		v-0.7h1.3v5h-1.3v-0.7c-0.2,0.2-0.4,0.4-0.7,0.6c-0.3,0.2-0.6,0.2-1,0.2c-0.4,0-0.8-0.1-1.1-0.3c-0.3-0.2-0.6-0.5-0.8-0.9
		c-0.2-0.4-0.3-0.8-0.3-1.4C289,52.6,289.1,52.2,289.3,51.8z M292.7,52.4c-0.1-0.2-0.3-0.4-0.5-0.5c-0.2-0.1-0.4-0.2-0.7-0.2
		c-0.2,0-0.4,0.1-0.6,0.2s-0.4,0.3-0.5,0.5c-0.1,0.2-0.2,0.5-0.2,0.8s0.1,0.6,0.2,0.8c0.1,0.2,0.3,0.4,0.5,0.5s0.4,0.2,0.6,0.2
		c0.2,0,0.5-0.1,0.7-0.2c0.2-0.1,0.4-0.3,0.5-0.5c0.1-0.2,0.2-0.5,0.2-0.8C292.9,52.9,292.9,52.6,292.7,52.4z"/>
	<path fill="#363636" d="M297.3,50.8c0.3-0.1,0.6-0.2,0.9-0.2v1.3h-0.3c-0.4,0-0.7,0.1-0.9,0.3c-0.2,0.2-0.3,0.5-0.3,1v2.5h-1.3v-5
		h1.3v0.8C296.8,51.2,297,51,297.3,50.8z"/>
	<path fill="#363636" d="M303.6,53.5H300c0,0.4,0.2,0.6,0.4,0.8c0.2,0.2,0.5,0.3,0.8,0.3c0.5,0,0.8-0.2,1-0.6h1.4
		c-0.1,0.5-0.4,0.9-0.8,1.2c-0.4,0.3-0.9,0.5-1.5,0.5c-0.5,0-0.9-0.1-1.3-0.3s-0.7-0.5-0.9-0.9c-0.2-0.4-0.3-0.8-0.3-1.4
		c0-0.5,0.1-1,0.3-1.4c0.2-0.4,0.5-0.7,0.9-0.9s0.8-0.3,1.3-0.3c0.5,0,0.9,0.1,1.3,0.3s0.7,0.5,0.9,0.9s0.3,0.8,0.3,1.3
		C303.7,53.2,303.7,53.4,303.6,53.5z M302.4,52.7c0-0.3-0.1-0.6-0.4-0.8c-0.2-0.2-0.5-0.3-0.8-0.3c-0.3,0-0.6,0.1-0.8,0.3
		c-0.2,0.2-0.3,0.5-0.4,0.8H302.4z"/>
</g>
<g>
	<path fill="#363636" d="M213.4,87.6c0.3-0.6,0.8-1.1,1.4-1.4c0.6-0.3,1.2-0.5,1.9-0.5c0.8,0,1.6,0.2,2.2,0.6c0.6,0.4,1.1,1,1.4,1.7
		h-1.2c-0.2-0.5-0.5-0.8-0.9-1.1c-0.4-0.2-0.9-0.4-1.4-0.4c-0.5,0-1,0.1-1.4,0.4s-0.8,0.6-1,1.1c-0.2,0.5-0.4,1-0.4,1.6
		c0,0.6,0.1,1.1,0.4,1.6c0.2,0.5,0.6,0.8,1,1.1s0.9,0.4,1.4,0.4c0.6,0,1-0.1,1.4-0.4c0.4-0.2,0.7-0.6,0.9-1.1h1.2
		c-0.3,0.7-0.7,1.3-1.4,1.7c-0.6,0.4-1.4,0.6-2.2,0.6c-0.7,0-1.4-0.2-1.9-0.5s-1-0.8-1.4-1.4s-0.5-1.3-0.5-2S213,88.2,213.4,87.6z"
		/>
	<path fill="#363636" d="M223.5,87.6c0.3-0.2,0.7-0.3,1.2-0.3v1h-0.3c-1.1,0-1.7,0.6-1.7,1.8v3.3h-1v-6h1v1
		C222.9,88.1,223.2,87.8,223.5,87.6z"/>
	<path fill="#363636" d="M231.3,90.9h-4.8c0,0.6,0.2,1.1,0.6,1.4c0.4,0.3,0.8,0.5,1.3,0.5c0.4,0,0.8-0.1,1.1-0.3
		c0.3-0.2,0.5-0.5,0.6-0.8h1.1c-0.2,0.6-0.5,1.1-1,1.4c-0.5,0.4-1.1,0.5-1.8,0.5c-0.6,0-1.1-0.1-1.5-0.4s-0.8-0.6-1.1-1.1
		c-0.3-0.5-0.4-1-0.4-1.6c0-0.6,0.1-1.2,0.4-1.6c0.2-0.5,0.6-0.8,1.1-1.1c0.5-0.3,1-0.4,1.6-0.4c0.6,0,1.1,0.1,1.5,0.4s0.8,0.6,1,1
		s0.4,0.9,0.4,1.5C231.3,90.4,231.3,90.6,231.3,90.9z M230.1,89.1c-0.2-0.3-0.4-0.5-0.7-0.6c-0.3-0.1-0.6-0.2-1-0.2
		c-0.5,0-0.9,0.2-1.3,0.5c-0.4,0.3-0.6,0.8-0.6,1.3h3.8C230.3,89.7,230.2,89.3,230.1,89.1z"/>
	<path fill="#363636" d="M232.7,88.8c0.2-0.5,0.6-0.8,1-1.1c0.4-0.3,0.9-0.4,1.5-0.4c0.5,0,1,0.1,1.4,0.3s0.7,0.5,0.9,0.9v-1.1h1v6
		h-1v-1.1c-0.2,0.4-0.5,0.6-0.9,0.9c-0.4,0.2-0.8,0.3-1.4,0.3c-0.5,0-1-0.1-1.5-0.4c-0.4-0.3-0.8-0.6-1-1.1c-0.2-0.5-0.4-1-0.4-1.6
		C232.3,89.8,232.4,89.3,232.7,88.8z M237.1,89.3c-0.2-0.3-0.4-0.6-0.7-0.8c-0.3-0.2-0.7-0.3-1-0.3c-0.4,0-0.7,0.1-1,0.3
		c-0.3,0.2-0.6,0.4-0.7,0.8c-0.2,0.3-0.3,0.7-0.3,1.2c0,0.5,0.1,0.9,0.3,1.2c0.2,0.3,0.4,0.6,0.7,0.8c0.3,0.2,0.6,0.3,1,0.3
		c0.4,0,0.7-0.1,1-0.3c0.3-0.2,0.6-0.4,0.7-0.8c0.2-0.3,0.3-0.7,0.3-1.2C237.4,90,237.3,89.6,237.1,89.3z"/>
	<path fill="#363636" d="M241.3,88.3v3.6c0,0.3,0.1,0.5,0.2,0.6s0.3,0.2,0.6,0.2h0.7v0.8H242c-0.6,0-1-0.1-1.3-0.4s-0.4-0.7-0.4-1.3
		v-3.6h-0.8v-0.8h0.8v-1.5h1v1.5h1.6v0.8H241.3z"/>
	<path fill="#363636" d="M244.1,86.3c-0.1-0.1-0.2-0.3-0.2-0.5c0-0.2,0.1-0.4,0.2-0.5c0.1-0.1,0.3-0.2,0.5-0.2
		c0.2,0,0.3,0.1,0.5,0.2s0.2,0.3,0.2,0.5c0,0.2-0.1,0.4-0.2,0.5s-0.3,0.2-0.5,0.2C244.4,86.5,244.3,86.4,244.1,86.3z M245.1,87.5v6
		h-1v-6H245.1z"/>
	<path fill="#363636" d="M251.5,88c0.5,0.4,0.7,1.1,0.7,1.9v3.6h-1v-3.4c0-0.6-0.2-1.1-0.5-1.4c-0.3-0.3-0.7-0.5-1.2-0.5
		c-0.5,0-0.9,0.2-1.3,0.5c-0.3,0.3-0.5,0.8-0.5,1.4v3.3h-1v-6h1v0.9c0.2-0.3,0.5-0.5,0.8-0.7c0.3-0.2,0.7-0.3,1.1-0.3
		C250.5,87.4,251.1,87.6,251.5,88z"/>
	<path fill="#363636" d="M257.7,87.7c0.4,0.2,0.7,0.5,0.9,0.9v-1.1h1v6.2c0,0.5-0.1,1-0.4,1.5c-0.2,0.4-0.6,0.8-1,1
		c-0.4,0.2-0.9,0.4-1.5,0.4c-0.8,0-1.5-0.2-2-0.6s-0.8-0.9-0.9-1.5h1c0.1,0.4,0.3,0.7,0.7,0.9s0.8,0.3,1.2,0.3c0.5,0,1-0.2,1.3-0.5
		c0.3-0.3,0.5-0.8,0.5-1.5v-1.3c-0.2,0.4-0.5,0.6-0.9,0.9c-0.4,0.2-0.8,0.4-1.4,0.4c-0.5,0-1-0.1-1.5-0.4c-0.4-0.3-0.8-0.6-1-1.1
		c-0.2-0.5-0.4-1-0.4-1.6c0-0.6,0.1-1.2,0.4-1.6c0.2-0.5,0.6-0.8,1-1.1c0.4-0.3,0.9-0.4,1.5-0.4C256.9,87.4,257.3,87.5,257.7,87.7z
		 M258.3,89.3c-0.2-0.3-0.4-0.6-0.7-0.8c-0.3-0.2-0.7-0.3-1-0.3c-0.4,0-0.7,0.1-1,0.3c-0.3,0.2-0.6,0.4-0.7,0.8
		c-0.2,0.3-0.3,0.7-0.3,1.2c0,0.5,0.1,0.9,0.3,1.2c0.2,0.3,0.4,0.6,0.7,0.8c0.3,0.2,0.6,0.3,1,0.3c0.4,0,0.7-0.1,1-0.3
		c0.3-0.2,0.6-0.4,0.7-0.8c0.2-0.3,0.3-0.7,0.3-1.2C258.6,90,258.5,89.6,258.3,89.3z"/>
	<path fill="#363636" d="M265.2,85.8v7.7h-1v-7.7H265.2z"/>
	<path fill="#363636" d="M271.6,88c0.5,0.4,0.7,1.1,0.7,1.9v3.6h-1v-3.4c0-0.6-0.2-1.1-0.5-1.4c-0.3-0.3-0.7-0.5-1.2-0.5
		c-0.5,0-0.9,0.2-1.3,0.5c-0.3,0.3-0.5,0.8-0.5,1.4v3.3h-1v-6h1v0.9c0.2-0.3,0.5-0.5,0.8-0.7s0.7-0.3,1.1-0.3
		C270.6,87.4,271.2,87.6,271.6,88z"/>
	<path fill="#363636" d="M274,88.8c0.2-0.5,0.6-0.8,1-1.1c0.4-0.3,1-0.4,1.5-0.4c0.7,0,1.4,0.2,1.8,0.5s0.8,0.9,1,1.5h-1.1
		c-0.1-0.4-0.3-0.7-0.6-0.9c-0.3-0.2-0.7-0.3-1.1-0.3c-0.6,0-1,0.2-1.4,0.6c-0.4,0.4-0.5,0.9-0.5,1.7c0,0.7,0.2,1.3,0.5,1.7
		c0.4,0.4,0.8,0.6,1.4,0.6c0.4,0,0.8-0.1,1.1-0.3s0.5-0.5,0.6-0.9h1.1c-0.2,0.6-0.5,1.1-1,1.5c-0.5,0.4-1.1,0.6-1.8,0.6
		c-0.6,0-1.1-0.1-1.5-0.4c-0.4-0.3-0.8-0.6-1-1.1c-0.2-0.5-0.4-1-0.4-1.7C273.6,89.8,273.7,89.3,274,88.8z"/>
	<path fill="#363636" d="M281.6,85.4v8.1h-1v-8.1H281.6z"/>
	<path fill="#363636" d="M288.7,87.5v6h-1v-0.9c-0.2,0.3-0.5,0.5-0.8,0.7c-0.3,0.2-0.7,0.3-1.1,0.3c-0.5,0-0.9-0.1-1.3-0.3
		s-0.7-0.5-0.9-0.9c-0.2-0.4-0.3-0.9-0.3-1.4v-3.5h1v3.4c0,0.6,0.1,1.1,0.5,1.4c0.3,0.3,0.7,0.5,1.2,0.5c0.5,0,1-0.2,1.3-0.5
		c0.3-0.3,0.5-0.8,0.5-1.4v-3.3H288.7z"/>
	<path fill="#363636" d="M291.3,93.4c-0.4-0.2-0.7-0.4-0.9-0.7c-0.2-0.3-0.3-0.6-0.4-1h1c0,0.3,0.2,0.5,0.4,0.7
		c0.3,0.2,0.6,0.3,1,0.3c0.4,0,0.7-0.1,0.9-0.3c0.2-0.2,0.3-0.4,0.3-0.6c0-0.3-0.1-0.5-0.4-0.6c-0.2-0.1-0.6-0.3-1.1-0.4
		c-0.4-0.1-0.8-0.2-1.1-0.4s-0.5-0.3-0.7-0.5c-0.2-0.2-0.3-0.6-0.3-0.9c0-0.3,0.1-0.6,0.3-0.8c0.2-0.3,0.4-0.5,0.8-0.6
		c0.3-0.2,0.7-0.2,1.2-0.2c0.7,0,1.2,0.2,1.6,0.5c0.4,0.3,0.6,0.8,0.7,1.4h-1c0-0.3-0.1-0.6-0.4-0.8c-0.2-0.2-0.5-0.3-0.9-0.3
		c-0.4,0-0.6,0.1-0.9,0.2c-0.2,0.2-0.3,0.4-0.3,0.6c0,0.2,0.1,0.4,0.2,0.5c0.1,0.1,0.3,0.2,0.5,0.3s0.5,0.2,0.8,0.3
		c0.4,0.1,0.8,0.2,1.1,0.3c0.3,0.1,0.5,0.3,0.7,0.5c0.2,0.2,0.3,0.5,0.3,0.9c0,0.3-0.1,0.6-0.3,0.9c-0.2,0.3-0.4,0.5-0.8,0.6
		c-0.3,0.2-0.7,0.2-1.1,0.2C292.1,93.6,291.6,93.5,291.3,93.4z"/>
	<path fill="#363636" d="M296.2,86.3c-0.1-0.1-0.2-0.3-0.2-0.5c0-0.2,0.1-0.4,0.2-0.5c0.1-0.1,0.3-0.2,0.5-0.2
		c0.2,0,0.3,0.1,0.5,0.2c0.1,0.1,0.2,0.3,0.2,0.5c0,0.2-0.1,0.4-0.2,0.5c-0.1,0.1-0.3,0.2-0.5,0.2C296.5,86.5,296.3,86.4,296.2,86.3
		z M297.1,87.5v6h-1v-6H297.1z"/>
	<path fill="#363636" d="M301.1,92.6l1.9-5.1h1.1l-2.4,6h-1.2l-2.4-6h1.1L301.1,92.6z"/>
	<path fill="#363636" d="M310.5,90.9h-4.8c0,0.6,0.2,1.1,0.6,1.4c0.4,0.3,0.8,0.5,1.3,0.5c0.4,0,0.8-0.1,1.1-0.3
		c0.3-0.2,0.5-0.5,0.6-0.8h1.1c-0.2,0.6-0.5,1.1-1,1.4c-0.5,0.4-1.1,0.5-1.8,0.5c-0.6,0-1.1-0.1-1.5-0.4s-0.8-0.6-1.1-1.1
		c-0.3-0.5-0.4-1-0.4-1.6c0-0.6,0.1-1.2,0.4-1.6c0.2-0.5,0.6-0.8,1-1.1c0.5-0.3,1-0.4,1.6-0.4c0.6,0,1.1,0.1,1.5,0.4
		c0.4,0.2,0.8,0.6,1,1s0.4,0.9,0.4,1.5C310.5,90.4,310.5,90.6,310.5,90.9z M309.2,89.1c-0.2-0.3-0.4-0.5-0.7-0.6
		c-0.3-0.1-0.6-0.2-1-0.2c-0.5,0-0.9,0.2-1.3,0.5c-0.4,0.3-0.6,0.8-0.6,1.3h3.8C309.5,89.7,309.4,89.3,309.2,89.1z"/>
	<path fill="#363636" d="M314.9,87.6c0.3-0.6,0.8-1.1,1.4-1.4c0.6-0.3,1.2-0.5,1.9-0.5c0.8,0,1.6,0.2,2.2,0.6s1.1,1,1.4,1.7h-1.2
		c-0.2-0.5-0.5-0.8-0.9-1.1c-0.4-0.2-0.9-0.4-1.4-0.4c-0.5,0-1,0.1-1.4,0.4c-0.4,0.2-0.8,0.6-1,1.1c-0.2,0.5-0.4,1-0.4,1.6
		c0,0.6,0.1,1.1,0.4,1.6s0.6,0.8,1,1.1c0.4,0.2,0.9,0.4,1.4,0.4c0.6,0,1-0.1,1.4-0.4c0.4-0.2,0.7-0.6,0.9-1.1h1.2
		c-0.3,0.7-0.7,1.3-1.4,1.7c-0.6,0.4-1.4,0.6-2.2,0.6c-0.7,0-1.4-0.2-1.9-0.5s-1-0.8-1.4-1.4c-0.3-0.6-0.5-1.3-0.5-2
		S314.6,88.2,314.9,87.6z"/>
	<path fill="#363636" d="M324.4,93.2c-0.5-0.3-0.8-0.6-1.1-1.1c-0.3-0.5-0.4-1-0.4-1.6c0-0.6,0.1-1.2,0.4-1.6
		c0.3-0.5,0.6-0.8,1.1-1.1c0.5-0.3,1-0.4,1.6-0.4c0.6,0,1.1,0.1,1.6,0.4c0.5,0.3,0.8,0.6,1.1,1.1c0.3,0.5,0.4,1,0.4,1.6
		c0,0.6-0.1,1.2-0.4,1.6c-0.3,0.5-0.6,0.8-1.1,1.1c-0.5,0.3-1,0.4-1.6,0.4C325.3,93.6,324.8,93.5,324.4,93.2z M326.9,92.5
		c0.3-0.2,0.6-0.4,0.8-0.8s0.3-0.7,0.3-1.2c0-0.5-0.1-0.9-0.3-1.2s-0.4-0.6-0.7-0.8s-0.6-0.2-1-0.2c-0.4,0-0.7,0.1-1,0.2
		c-0.3,0.2-0.5,0.4-0.7,0.8s-0.3,0.7-0.3,1.2c0,0.5,0.1,0.9,0.3,1.2c0.2,0.3,0.4,0.6,0.7,0.8s0.6,0.2,1,0.2S326.6,92.6,326.9,92.5z"
		/>
	<path fill="#363636" d="M338.8,87.6c0.4,0.2,0.7,0.5,0.9,0.9s0.3,0.9,0.3,1.4v3.6h-1v-3.4c0-0.6-0.1-1.1-0.4-1.4
		c-0.3-0.3-0.7-0.5-1.2-0.5c-0.5,0-0.9,0.2-1.2,0.5c-0.3,0.3-0.5,0.8-0.5,1.4v3.3h-1v-3.4c0-0.6-0.1-1.1-0.4-1.4
		c-0.3-0.3-0.7-0.5-1.2-0.5c-0.5,0-0.9,0.2-1.2,0.5c-0.3,0.3-0.5,0.8-0.5,1.4v3.3h-1v-6h1v0.9c0.2-0.3,0.5-0.6,0.8-0.7
		c0.3-0.2,0.7-0.3,1.1-0.3c0.5,0,1,0.1,1.3,0.3s0.7,0.6,0.9,1c0.2-0.4,0.4-0.8,0.8-1c0.4-0.2,0.8-0.4,1.3-0.4
		C338,87.4,338.4,87.5,338.8,87.6z"/>
	<path fill="#363636" d="M343.5,87.7c0.4-0.2,0.8-0.3,1.4-0.3c0.5,0,1,0.1,1.5,0.4c0.4,0.3,0.8,0.6,1,1.1s0.4,1,0.4,1.6
		c0,0.6-0.1,1.2-0.4,1.6s-0.6,0.8-1,1.1c-0.4,0.3-0.9,0.4-1.5,0.4c-0.5,0-1-0.1-1.4-0.3c-0.4-0.2-0.7-0.5-0.9-0.9v4h-1v-8.9h1v1.1
		C342.8,88.2,343.1,87.9,343.5,87.7z M346.4,89.3c-0.2-0.3-0.4-0.6-0.7-0.8s-0.7-0.3-1-0.3c-0.4,0-0.7,0.1-1,0.3s-0.6,0.4-0.7,0.8
		c-0.2,0.3-0.3,0.7-0.3,1.2c0,0.5,0.1,0.9,0.3,1.2c0.2,0.3,0.4,0.6,0.7,0.8s0.7,0.3,1,0.3c0.4,0,0.7-0.1,1-0.3s0.6-0.4,0.7-0.8
		c0.2-0.3,0.3-0.7,0.3-1.2C346.7,90,346.6,89.6,346.4,89.3z"/>
	<path fill="#363636" d="M349.1,88.8c0.2-0.5,0.6-0.8,1-1.1c0.4-0.3,0.9-0.4,1.5-0.4c0.5,0,1,0.1,1.4,0.3s0.7,0.5,0.9,0.9v-1.1h1v6
		h-1v-1.1c-0.2,0.4-0.5,0.6-0.9,0.9c-0.4,0.2-0.8,0.3-1.4,0.3c-0.5,0-1-0.1-1.5-0.4s-0.8-0.6-1-1.1c-0.2-0.5-0.4-1-0.4-1.6
		C348.7,89.8,348.8,89.3,349.1,88.8z M353.5,89.3c-0.2-0.3-0.4-0.6-0.7-0.8s-0.7-0.3-1-0.3s-0.7,0.1-1,0.3c-0.3,0.2-0.6,0.4-0.7,0.8
		c-0.2,0.3-0.3,0.7-0.3,1.2c0,0.5,0.1,0.9,0.3,1.2c0.2,0.3,0.4,0.6,0.7,0.8c0.3,0.2,0.6,0.3,1,0.3s0.7-0.1,1-0.3s0.6-0.4,0.7-0.8
		c0.2-0.3,0.3-0.7,0.3-1.2C353.8,90,353.7,89.6,353.5,89.3z"/>
	<path fill="#363636" d="M361.2,88c0.5,0.4,0.7,1.1,0.7,1.9v3.6h-1v-3.4c0-0.6-0.2-1.1-0.5-1.4c-0.3-0.3-0.7-0.5-1.2-0.5
		c-0.5,0-0.9,0.2-1.3,0.5c-0.3,0.3-0.5,0.8-0.5,1.4v3.3h-1v-6h1v0.9c0.2-0.3,0.5-0.5,0.8-0.7s0.7-0.3,1.1-0.3
		C360.2,87.4,360.8,87.6,361.2,88z"/>
	<path fill="#363636" d="M368.7,87.5l-3.6,8.9h-1l1.2-2.9l-2.4-6h1.1l1.9,4.9l1.9-4.9H368.7z"/>
	<path fill="#363636" d="M372.8,87.6c0.3-0.6,0.8-1.1,1.4-1.4c0.6-0.3,1.2-0.5,1.9-0.5c0.8,0,1.6,0.2,2.2,0.6c0.6,0.4,1.1,1,1.4,1.7
		h-1.2c-0.2-0.5-0.5-0.8-0.9-1.1c-0.4-0.2-0.9-0.4-1.4-0.4c-0.5,0-1,0.1-1.4,0.4c-0.4,0.2-0.8,0.6-1,1.1c-0.2,0.5-0.4,1-0.4,1.6
		c0,0.6,0.1,1.1,0.4,1.6c0.2,0.5,0.6,0.8,1,1.1c0.4,0.2,0.9,0.4,1.4,0.4c0.6,0,1-0.1,1.4-0.4c0.4-0.2,0.7-0.6,0.9-1.1h1.2
		c-0.3,0.7-0.7,1.3-1.4,1.7c-0.6,0.4-1.4,0.6-2.2,0.6c-0.7,0-1.4-0.2-1.9-0.5s-1-0.8-1.4-1.4c-0.3-0.6-0.5-1.3-0.5-2
		S372.5,88.2,372.8,87.6z"/>
	<path fill="#363636" d="M386.5,87.5v6h-1v-0.9c-0.2,0.3-0.5,0.5-0.8,0.7c-0.3,0.2-0.7,0.3-1.1,0.3c-0.5,0-0.9-0.1-1.3-0.3
		s-0.7-0.5-0.9-0.9c-0.2-0.4-0.3-0.9-0.3-1.4v-3.5h1v3.4c0,0.6,0.2,1.1,0.5,1.4c0.3,0.3,0.7,0.5,1.2,0.5c0.5,0,1-0.2,1.3-0.5
		c0.3-0.3,0.5-0.8,0.5-1.4v-3.3H386.5z"/>
	<path fill="#363636" d="M389.2,85.4v8.1h-1v-8.1H389.2z"/>
	<path fill="#363636" d="M392.1,88.3v3.6c0,0.3,0.1,0.5,0.2,0.6s0.3,0.2,0.6,0.2h0.7v0.8h-0.9c-0.6,0-1-0.1-1.3-0.4
		c-0.3-0.3-0.4-0.7-0.4-1.3v-3.6h-0.8v-0.8h0.8v-1.5h1v1.5h1.6v0.8H392.1z"/>
	<path fill="#363636" d="M400.3,87.5v6h-1v-0.9c-0.2,0.3-0.5,0.5-0.8,0.7c-0.3,0.2-0.7,0.3-1.1,0.3c-0.5,0-0.9-0.1-1.3-0.3
		s-0.7-0.5-0.9-0.9c-0.2-0.4-0.3-0.9-0.3-1.4v-3.5h1v3.4c0,0.6,0.2,1.1,0.5,1.4c0.3,0.3,0.7,0.5,1.2,0.5c0.5,0,1-0.2,1.3-0.5
		c0.3-0.3,0.5-0.8,0.5-1.4v-3.3H400.3z"/>
	<path fill="#363636" d="M403.7,87.6c0.3-0.2,0.7-0.3,1.2-0.3v1h-0.3c-1.1,0-1.7,0.6-1.7,1.8v3.3h-1v-6h1v1
		C403.1,88.1,403.4,87.8,403.7,87.6z"/>
	<path fill="#363636" d="M411.5,90.9h-4.8c0,0.6,0.2,1.1,0.6,1.4c0.4,0.3,0.8,0.5,1.3,0.5c0.4,0,0.8-0.1,1.1-0.3
		c0.3-0.2,0.5-0.5,0.6-0.8h1.1c-0.2,0.6-0.5,1.1-1,1.4c-0.5,0.4-1.1,0.5-1.8,0.5c-0.6,0-1.1-0.1-1.5-0.4c-0.5-0.3-0.8-0.6-1.1-1.1
		c-0.3-0.5-0.4-1-0.4-1.6c0-0.6,0.1-1.2,0.4-1.6c0.2-0.5,0.6-0.8,1.1-1.1c0.5-0.3,1-0.4,1.6-0.4c0.6,0,1.1,0.1,1.5,0.4
		c0.4,0.2,0.8,0.6,1,1s0.4,0.9,0.4,1.5C411.6,90.4,411.5,90.6,411.5,90.9z M410.3,89.1c-0.2-0.3-0.4-0.5-0.7-0.6
		c-0.3-0.1-0.6-0.2-1-0.2c-0.5,0-0.9,0.2-1.3,0.5s-0.6,0.8-0.6,1.3h3.8C410.5,89.7,410.4,89.3,410.3,89.1z"/>
	<path fill="#363636" d="M413.8,93.4c-0.4-0.2-0.7-0.4-0.9-0.7c-0.2-0.3-0.3-0.6-0.4-1h1c0,0.3,0.2,0.5,0.4,0.7
		c0.3,0.2,0.6,0.3,1,0.3c0.4,0,0.7-0.1,0.9-0.3s0.3-0.4,0.3-0.6c0-0.3-0.1-0.5-0.4-0.6c-0.2-0.1-0.6-0.3-1.1-0.4
		c-0.4-0.1-0.8-0.2-1.1-0.4s-0.5-0.3-0.7-0.5c-0.2-0.2-0.3-0.6-0.3-0.9c0-0.3,0.1-0.6,0.3-0.8s0.4-0.5,0.8-0.6
		c0.3-0.2,0.7-0.2,1.2-0.2c0.7,0,1.2,0.2,1.6,0.5c0.4,0.3,0.6,0.8,0.7,1.4h-1c0-0.3-0.1-0.6-0.4-0.8c-0.2-0.2-0.5-0.3-0.9-0.3
		c-0.4,0-0.6,0.1-0.9,0.2s-0.3,0.4-0.3,0.6c0,0.2,0.1,0.4,0.2,0.5c0.1,0.1,0.3,0.2,0.5,0.3s0.5,0.2,0.8,0.3c0.4,0.1,0.8,0.2,1.1,0.3
		c0.3,0.1,0.5,0.3,0.7,0.5c0.2,0.2,0.3,0.5,0.3,0.9c0,0.3-0.1,0.6-0.3,0.9c-0.2,0.3-0.4,0.5-0.8,0.6c-0.3,0.2-0.7,0.2-1.1,0.2
		C414.5,93.6,414.1,93.5,413.8,93.4z"/>
	<path fill="#363636" d="M431.2,85.8l-2.2,7.7h-1.1l-1.8-6.2l-1.8,6.2l-1.1,0l-2.1-7.7h1.1l1.7,6.5l1.8-6.5h1.1l1.8,6.5l1.7-6.5
		H431.2z"/>
	<path fill="#363636" d="M436.5,87.6c0.4,0.2,0.7,0.5,0.9,0.9s0.3,0.9,0.3,1.4v3.6h-1v-3.4c0-0.6-0.2-1.1-0.5-1.4
		c-0.3-0.3-0.7-0.5-1.2-0.5c-0.5,0-0.9,0.2-1.3,0.5c-0.3,0.3-0.5,0.8-0.5,1.4v3.3h-1v-8.1h1v3c0.2-0.3,0.5-0.5,0.8-0.7
		c0.3-0.2,0.7-0.3,1.2-0.3C435.7,87.4,436.1,87.5,436.5,87.6z"/>
	<path fill="#363636" d="M444.8,90.9H440c0,0.6,0.2,1.1,0.6,1.4c0.4,0.3,0.8,0.5,1.3,0.5c0.4,0,0.8-0.1,1.1-0.3
		c0.3-0.2,0.5-0.5,0.6-0.8h1.1c-0.2,0.6-0.5,1.1-1,1.4c-0.5,0.4-1.1,0.5-1.8,0.5c-0.6,0-1.1-0.1-1.5-0.4c-0.5-0.3-0.8-0.6-1.1-1.1
		c-0.3-0.5-0.4-1-0.4-1.6c0-0.6,0.1-1.2,0.4-1.6c0.2-0.5,0.6-0.8,1.1-1.1c0.5-0.3,1-0.4,1.6-0.4c0.6,0,1.1,0.1,1.5,0.4
		c0.4,0.2,0.8,0.6,1,1s0.4,0.9,0.4,1.5C444.8,90.4,444.8,90.6,444.8,90.9z M443.5,89.1c-0.2-0.3-0.4-0.5-0.7-0.6
		c-0.3-0.1-0.6-0.2-1-0.2c-0.5,0-0.9,0.2-1.3,0.5S440,89.5,440,90h3.8C443.8,89.7,443.7,89.3,443.5,89.1z"/>
	<path fill="#363636" d="M447.9,87.6c0.3-0.2,0.7-0.3,1.2-0.3v1h-0.3c-1.1,0-1.7,0.6-1.7,1.8v3.3h-1v-6h1v1
		C447.3,88.1,447.6,87.8,447.9,87.6z"/>
	<path fill="#363636" d="M455.7,90.9h-4.8c0,0.6,0.2,1.1,0.6,1.4c0.4,0.3,0.8,0.5,1.3,0.5c0.4,0,0.8-0.1,1.1-0.3
		c0.3-0.2,0.5-0.5,0.6-0.8h1.1c-0.2,0.6-0.5,1.1-1,1.4c-0.5,0.4-1.1,0.5-1.8,0.5c-0.6,0-1.1-0.1-1.5-0.4c-0.5-0.3-0.8-0.6-1.1-1.1
		c-0.3-0.5-0.4-1-0.4-1.6c0-0.6,0.1-1.2,0.4-1.6c0.2-0.5,0.6-0.8,1.1-1.1c0.5-0.3,1-0.4,1.6-0.4c0.6,0,1.1,0.1,1.5,0.4
		c0.4,0.2,0.8,0.6,1,1s0.4,0.9,0.4,1.5C455.8,90.4,455.7,90.6,455.7,90.9z M454.5,89.1c-0.2-0.3-0.4-0.5-0.7-0.6
		c-0.3-0.1-0.6-0.2-1-0.2c-0.5,0-0.9,0.2-1.3,0.5s-0.6,0.8-0.6,1.3h3.8C454.7,89.7,454.6,89.3,454.5,89.1z"/>
	<path fill="#363636" d="M214.2,103.6v2.6h2.8v0.8h-2.8v2.6h3.1v0.8h-4.1v-7.7h4.1v0.8H214.2z"/>
	<path fill="#363636" d="M221.1,109.6l1.9-5.1h1.1l-2.4,6h-1.2l-2.4-6h1.1L221.1,109.6z"/>
	<path fill="#363636" d="M230.5,107.9h-4.8c0,0.6,0.2,1.1,0.6,1.4c0.4,0.3,0.8,0.5,1.3,0.5c0.4,0,0.8-0.1,1.1-0.3
		c0.3-0.2,0.5-0.5,0.6-0.8h1.1c-0.2,0.6-0.5,1.1-1,1.4c-0.5,0.4-1.1,0.5-1.8,0.5c-0.6,0-1.1-0.1-1.5-0.4s-0.8-0.6-1.1-1.1
		c-0.3-0.5-0.4-1-0.4-1.6c0-0.6,0.1-1.2,0.4-1.6c0.2-0.5,0.6-0.8,1.1-1.1c0.5-0.3,1-0.4,1.6-0.4c0.6,0,1.1,0.1,1.5,0.4s0.8,0.6,1,1
		s0.4,0.9,0.4,1.5C230.6,107.4,230.5,107.6,230.5,107.9z M229.3,106.1c-0.2-0.3-0.4-0.5-0.7-0.6c-0.3-0.1-0.6-0.2-1-0.2
		c-0.5,0-0.9,0.2-1.3,0.5c-0.4,0.3-0.6,0.8-0.6,1.3h3.8C229.5,106.7,229.4,106.3,229.3,106.1z"/>
	<path fill="#363636" d="M233.6,104.6c0.3-0.2,0.7-0.3,1.2-0.3v1h-0.3c-1.1,0-1.7,0.6-1.7,1.8v3.3h-1v-6h1v1
		C233.1,105.1,233.3,104.8,233.6,104.6z"/>
	<path fill="#363636" d="M241.2,104.5l-3.6,8.9h-1l1.2-2.9l-2.4-6h1.1l1.9,4.9l1.9-4.9H241.2z"/>
	<path fill="#363636" d="M243.3,110.2c-0.5-0.3-0.8-0.6-1.1-1.1c-0.3-0.5-0.4-1-0.4-1.6c0-0.6,0.1-1.2,0.4-1.6
		c0.3-0.5,0.6-0.8,1.1-1.1c0.5-0.3,1-0.4,1.6-0.4s1.1,0.1,1.6,0.4c0.5,0.3,0.8,0.6,1.1,1.1c0.3,0.5,0.4,1,0.4,1.6
		c0,0.6-0.1,1.2-0.4,1.6c-0.3,0.5-0.6,0.8-1.1,1.1s-1,0.4-1.6,0.4C244.2,110.6,243.7,110.5,243.3,110.2z M245.8,109.5
		c0.3-0.2,0.6-0.4,0.8-0.8s0.3-0.7,0.3-1.2c0-0.5-0.1-0.9-0.3-1.2c-0.2-0.3-0.4-0.6-0.7-0.8c-0.3-0.2-0.6-0.2-1-0.2
		c-0.4,0-0.7,0.1-1,0.2s-0.5,0.4-0.7,0.8c-0.2,0.3-0.3,0.7-0.3,1.2c0,0.5,0.1,0.9,0.3,1.2c0.2,0.3,0.4,0.6,0.7,0.8s0.6,0.2,1,0.2
		S245.5,109.6,245.8,109.5z"/>
	<path fill="#363636" d="M253.9,105c0.5,0.4,0.7,1.1,0.7,1.9v3.6h-1v-3.4c0-0.6-0.2-1.1-0.5-1.4c-0.3-0.3-0.7-0.5-1.2-0.5
		c-0.5,0-0.9,0.2-1.3,0.5c-0.3,0.3-0.5,0.8-0.5,1.4v3.3h-1v-6h1v0.9c0.2-0.3,0.5-0.5,0.8-0.7c0.3-0.2,0.7-0.3,1.1-0.3
		C252.9,104.4,253.5,104.6,253.9,105z"/>
	<path fill="#363636" d="M261.7,107.9h-4.8c0,0.6,0.2,1.1,0.6,1.4c0.4,0.3,0.8,0.5,1.3,0.5c0.4,0,0.8-0.1,1.1-0.3
		c0.3-0.2,0.5-0.5,0.6-0.8h1.1c-0.2,0.6-0.5,1.1-1,1.4s-1.1,0.5-1.8,0.5c-0.6,0-1.1-0.1-1.5-0.4s-0.8-0.6-1.1-1.1
		c-0.3-0.5-0.4-1-0.4-1.6c0-0.6,0.1-1.2,0.4-1.6c0.2-0.5,0.6-0.8,1.1-1.1c0.5-0.3,1-0.4,1.6-0.4c0.6,0,1.1,0.1,1.5,0.4
		c0.4,0.2,0.8,0.6,1,1s0.4,0.9,0.4,1.5C261.8,107.4,261.7,107.6,261.7,107.9z M260.5,106.1c-0.2-0.3-0.4-0.5-0.7-0.6
		c-0.3-0.1-0.6-0.2-1-0.2c-0.5,0-0.9,0.2-1.3,0.5c-0.4,0.3-0.6,0.8-0.6,1.3h3.8C260.7,106.7,260.6,106.3,260.5,106.1z"/>
	<path fill="#363636" d="M270.7,102.8v0.8h-2.1v6.9h-1v-6.9h-2.1v-0.8H270.7z"/>
	<path fill="#363636" d="M276.2,104.6c0.4,0.2,0.7,0.5,0.9,0.9s0.3,0.9,0.3,1.4v3.6h-1v-3.4c0-0.6-0.2-1.1-0.5-1.4
		c-0.3-0.3-0.7-0.5-1.2-0.5c-0.5,0-0.9,0.2-1.3,0.5c-0.3,0.3-0.5,0.8-0.5,1.4v3.3h-1v-8.1h1v3c0.2-0.3,0.5-0.5,0.8-0.7
		c0.3-0.2,0.7-0.3,1.2-0.3C275.4,104.4,275.8,104.5,276.2,104.6z"/>
	<path fill="#363636" d="M280.8,104.6c0.3-0.2,0.7-0.3,1.2-0.3v1h-0.3c-1.1,0-1.7,0.6-1.7,1.8v3.3h-1v-6h1v1
		C280.2,105.1,280.4,104.8,280.8,104.6z"/>
	<path fill="#363636" d="M283.1,103.3c-0.1-0.1-0.2-0.3-0.2-0.5c0-0.2,0.1-0.4,0.2-0.5s0.3-0.2,0.5-0.2c0.2,0,0.3,0.1,0.5,0.2
		c0.1,0.1,0.2,0.3,0.2,0.5c0,0.2-0.1,0.4-0.2,0.5c-0.1,0.1-0.3,0.2-0.5,0.2C283.4,103.5,283.3,103.4,283.1,103.3z M284.1,104.5v6h-1
		v-6H284.1z"/>
	<path fill="#363636" d="M288.1,109.6l1.9-5.1h1.1l-2.4,6h-1.2l-2.4-6h1.1L288.1,109.6z"/>
	<path fill="#363636" d="M297.5,107.9h-4.8c0,0.6,0.2,1.1,0.6,1.4c0.4,0.3,0.8,0.5,1.3,0.5c0.4,0,0.8-0.1,1.1-0.3
		c0.3-0.2,0.5-0.5,0.6-0.8h1.1c-0.2,0.6-0.5,1.1-1,1.4s-1.1,0.5-1.8,0.5c-0.6,0-1.1-0.1-1.5-0.4s-0.8-0.6-1.1-1.1
		c-0.3-0.5-0.4-1-0.4-1.6c0-0.6,0.1-1.2,0.4-1.6c0.2-0.5,0.6-0.8,1.1-1.1c0.5-0.3,1-0.4,1.6-0.4c0.6,0,1.1,0.1,1.5,0.4
		c0.4,0.2,0.8,0.6,1,1s0.4,0.9,0.4,1.5C297.5,107.4,297.5,107.6,297.5,107.9z M296.2,106.1c-0.2-0.3-0.4-0.5-0.7-0.6
		c-0.3-0.1-0.6-0.2-1-0.2c-0.5,0-0.9,0.2-1.3,0.5s-0.6,0.8-0.6,1.3h3.8C296.4,106.7,296.4,106.3,296.2,106.1z"/>
	<path fill="#363636" d="M299.7,110.4c-0.4-0.2-0.7-0.4-0.9-0.7c-0.2-0.3-0.3-0.6-0.4-1h1c0,0.3,0.2,0.5,0.4,0.7
		c0.3,0.2,0.6,0.3,1,0.3c0.4,0,0.7-0.1,0.9-0.3s0.3-0.4,0.3-0.6c0-0.3-0.1-0.5-0.4-0.6c-0.2-0.1-0.6-0.3-1.1-0.4
		c-0.4-0.1-0.8-0.2-1.1-0.4s-0.5-0.3-0.7-0.5c-0.2-0.2-0.3-0.6-0.3-0.9c0-0.3,0.1-0.6,0.3-0.8s0.4-0.5,0.8-0.6
		c0.3-0.2,0.7-0.2,1.2-0.2c0.7,0,1.2,0.2,1.6,0.5c0.4,0.3,0.6,0.8,0.7,1.4h-1c0-0.3-0.1-0.6-0.4-0.8c-0.2-0.2-0.5-0.3-0.9-0.3
		c-0.4,0-0.6,0.1-0.9,0.2s-0.3,0.4-0.3,0.6c0,0.2,0.1,0.4,0.2,0.5c0.1,0.1,0.3,0.2,0.5,0.3s0.5,0.2,0.8,0.3c0.4,0.1,0.8,0.2,1.1,0.3
		c0.3,0.1,0.5,0.3,0.7,0.5c0.2,0.2,0.3,0.5,0.3,0.9c0,0.3-0.1,0.6-0.3,0.9s-0.4,0.5-0.8,0.6c-0.3,0.2-0.7,0.2-1.1,0.2
		C300.5,110.6,300.1,110.5,299.7,110.4z"/>
</g>
<g>
	<path fill="#363636" d="M218,121.7l-2.1,4.1v2.2h-1.3v-2.2l-2.1-4.1h1.4l1.4,2.9l1.3-2.9H218z"/>
	<path fill="#363636" d="M219.7,127.8c-0.4-0.2-0.7-0.5-0.9-0.9c-0.2-0.4-0.3-0.8-0.3-1.4s0.1-1,0.3-1.3c0.2-0.4,0.5-0.7,0.9-0.9
		s0.8-0.3,1.3-0.3s0.9,0.1,1.3,0.3c0.4,0.2,0.7,0.5,0.9,0.9c0.2,0.4,0.3,0.8,0.3,1.3s-0.1,1-0.3,1.4c-0.2,0.4-0.5,0.7-0.9,0.9
		s-0.8,0.3-1.3,0.3C220.5,128.1,220,128,219.7,127.8z M221.6,126.8c0.2-0.1,0.4-0.3,0.5-0.5c0.1-0.2,0.2-0.5,0.2-0.8
		c0-0.5-0.1-0.8-0.4-1.1c-0.2-0.3-0.6-0.4-0.9-0.4s-0.7,0.1-0.9,0.4c-0.2,0.3-0.4,0.6-0.4,1.1c0,0.5,0.1,0.8,0.4,1.1
		s0.5,0.4,0.9,0.4C221.2,127,221.4,126.9,221.6,126.8z"/>
	<path fill="#363636" d="M232.2,123.5c0.4,0.4,0.6,0.9,0.6,1.6v2.9h-1.3v-2.8c0-0.4-0.1-0.7-0.3-0.9c-0.2-0.2-0.5-0.3-0.8-0.3
		c-0.3,0-0.6,0.1-0.8,0.3c-0.2,0.2-0.3,0.5-0.3,0.9v2.8H228v-2.8c0-0.4-0.1-0.7-0.3-0.9c-0.2-0.2-0.5-0.3-0.8-0.3
		c-0.3,0-0.6,0.1-0.8,0.3c-0.2,0.2-0.3,0.5-0.3,0.9v2.8h-1.3v-5h1.3v0.6c0.2-0.2,0.4-0.4,0.6-0.5s0.5-0.2,0.8-0.2
		c0.4,0,0.7,0.1,1,0.2s0.5,0.4,0.7,0.7c0.2-0.3,0.4-0.5,0.7-0.7s0.6-0.3,1-0.3C231.3,123,231.8,123.1,232.2,123.5z"/>
	<path fill="#363636" d="M234,122.2c-0.1-0.1-0.2-0.3-0.2-0.5c0-0.2,0.1-0.4,0.2-0.5c0.1-0.1,0.3-0.2,0.6-0.2c0.2,0,0.4,0.1,0.6,0.2
		c0.1,0.1,0.2,0.3,0.2,0.5c0,0.2-0.1,0.4-0.2,0.5c-0.1,0.1-0.3,0.2-0.6,0.2C234.3,122.4,234.2,122.4,234,122.2z M235.2,123v5h-1.3
		v-5H235.2z"/>
	<path fill="#363636" d="M242.4,126.8h-2.5l-0.4,1.2h-1.3l2.3-6.3h1.5l2.3,6.3h-1.3L242.4,126.8z M242.1,125.8l-0.9-2.6l-0.9,2.6
		H242.1z"/>
	<path fill="#363636" d="M246.9,123.2c0.3-0.2,0.6-0.2,1-0.2c0.4,0,0.8,0.1,1.2,0.3c0.3,0.2,0.6,0.5,0.8,0.9s0.3,0.8,0.3,1.3
		s-0.1,1-0.3,1.4c-0.2,0.4-0.5,0.7-0.8,0.9c-0.3,0.2-0.7,0.3-1.2,0.3c-0.4,0-0.7-0.1-1-0.2c-0.3-0.1-0.5-0.3-0.7-0.6v0.7H245v-6.7
		h1.3v2.4C246.4,123.5,246.7,123.3,246.9,123.2z M248.7,124.7c-0.1-0.2-0.3-0.4-0.5-0.5c-0.2-0.1-0.4-0.2-0.7-0.2
		c-0.2,0-0.4,0.1-0.6,0.2c-0.2,0.1-0.4,0.3-0.5,0.5c-0.1,0.2-0.2,0.5-0.2,0.8s0.1,0.6,0.2,0.8s0.3,0.4,0.5,0.5
		c0.2,0.1,0.4,0.2,0.6,0.2c0.2,0,0.5-0.1,0.7-0.2c0.2-0.1,0.4-0.3,0.5-0.5s0.2-0.5,0.2-0.8C248.9,125.2,248.8,124.9,248.7,124.7z"/>
	<path fill="#363636" d="M251.2,122.2c-0.1-0.1-0.2-0.3-0.2-0.5c0-0.2,0.1-0.4,0.2-0.5c0.1-0.1,0.3-0.2,0.6-0.2
		c0.2,0,0.4,0.1,0.6,0.2c0.1,0.1,0.2,0.3,0.2,0.5c0,0.2-0.1,0.4-0.2,0.5c-0.1,0.1-0.3,0.2-0.6,0.2
		C251.5,122.4,251.3,122.4,251.2,122.2z M252.4,123v5h-1.3v-5H252.4z"/>
	<path fill="#363636" d="M254.5,127.8c-0.4-0.2-0.7-0.5-0.9-0.9c-0.2-0.4-0.3-0.8-0.3-1.4s0.1-1,0.3-1.3c0.2-0.4,0.5-0.7,0.9-0.9
		s0.8-0.3,1.3-0.3s0.9,0.1,1.3,0.3c0.4,0.2,0.7,0.5,0.9,0.9c0.2,0.4,0.3,0.8,0.3,1.3s-0.1,1-0.3,1.4c-0.2,0.4-0.5,0.7-0.9,0.9
		s-0.8,0.3-1.3,0.3C255.3,128.1,254.9,128,254.5,127.8z M256.5,126.8c0.2-0.1,0.4-0.3,0.5-0.5c0.1-0.2,0.2-0.5,0.2-0.8
		c0-0.5-0.1-0.8-0.4-1.1c-0.2-0.3-0.6-0.4-0.9-0.4s-0.7,0.1-0.9,0.4c-0.2,0.3-0.4,0.6-0.4,1.1c0,0.5,0.1,0.8,0.4,1.1
		s0.5,0.4,0.9,0.4C256.1,127,256.3,126.9,256.5,126.8z"/>
	<path fill="#363636" d="M260.6,121.4v6.7h-1.3v-6.7H260.6z"/>
	<path fill="#363636" d="M261.8,124.2c0.2-0.4,0.5-0.7,0.8-0.9c0.3-0.2,0.7-0.3,1.2-0.3c0.4,0,0.7,0.1,1,0.2
		c0.3,0.1,0.5,0.3,0.7,0.6V123h1.3v5h-1.3v-0.7c-0.2,0.2-0.4,0.4-0.7,0.6s-0.6,0.2-1,0.2c-0.4,0-0.8-0.1-1.1-0.3
		c-0.3-0.2-0.6-0.5-0.8-0.9c-0.2-0.4-0.3-0.8-0.3-1.4C261.5,125,261.6,124.6,261.8,124.2z M265.3,124.7c-0.1-0.2-0.3-0.4-0.5-0.5
		c-0.2-0.1-0.4-0.2-0.7-0.2c-0.2,0-0.5,0.1-0.6,0.2s-0.4,0.3-0.5,0.5c-0.1,0.2-0.2,0.5-0.2,0.8s0.1,0.6,0.2,0.8
		c0.1,0.2,0.3,0.4,0.5,0.5s0.4,0.2,0.6,0.2c0.2,0,0.5-0.1,0.7-0.2c0.2-0.1,0.4-0.3,0.5-0.5c0.1-0.2,0.2-0.5,0.2-0.8
		C265.5,125.2,265.4,125,265.3,124.7z"/>
	<path fill="#363636" d="M269.3,126.7l-1.1,2.5h-0.8l0.6-2.5H269.3z"/>
	<path fill="#363636" d="M273.4,127.9c-0.4-0.1-0.6-0.4-0.8-0.6c-0.2-0.3-0.3-0.6-0.3-1h1.4c0,0.3,0.1,0.5,0.3,0.6
		c0.2,0.2,0.4,0.2,0.7,0.2c0.3,0,0.5-0.1,0.7-0.2c0.2-0.1,0.3-0.3,0.3-0.6c0-0.2-0.1-0.3-0.2-0.5s-0.3-0.2-0.4-0.3s-0.4-0.1-0.7-0.2
		c-0.4-0.1-0.7-0.2-1-0.4c-0.3-0.1-0.5-0.3-0.7-0.5c-0.2-0.2-0.3-0.6-0.3-0.9c0-0.4,0.1-0.7,0.3-1c0.2-0.3,0.4-0.5,0.8-0.6
		c0.3-0.1,0.7-0.2,1.2-0.2c0.6,0,1.2,0.2,1.6,0.5c0.4,0.3,0.6,0.8,0.7,1.3h-1.4c0-0.2-0.1-0.4-0.3-0.5c-0.2-0.1-0.4-0.2-0.7-0.2
		c-0.2,0-0.4,0.1-0.6,0.2s-0.2,0.3-0.2,0.5c0,0.2,0.1,0.3,0.2,0.4c0.1,0.1,0.2,0.2,0.4,0.3s0.4,0.1,0.7,0.2c0.4,0.1,0.7,0.2,1,0.4
		s0.5,0.3,0.7,0.5c0.2,0.2,0.3,0.6,0.3,0.9c0,0.3-0.1,0.6-0.3,0.9s-0.4,0.5-0.8,0.7s-0.7,0.3-1.2,0.3
		C274.1,128.1,273.7,128,273.4,127.9z"/>
	<path fill="#363636" d="M280.8,128l-1.7-2.1v2.1h-1.3v-6.7h1.3v3.8l1.7-2.1h1.6l-2.2,2.5l2.2,2.5H280.8z"/>
	<path fill="#363636" d="M283.2,122.2c-0.1-0.1-0.2-0.3-0.2-0.5c0-0.2,0.1-0.4,0.2-0.5c0.1-0.1,0.3-0.2,0.6-0.2s0.4,0.1,0.6,0.2
		c0.1,0.1,0.2,0.3,0.2,0.5c0,0.2-0.1,0.4-0.2,0.5c-0.1,0.1-0.3,0.2-0.6,0.2S283.4,122.4,283.2,122.2z M284.4,123v5h-1.3v-5H284.4z"
		/>
	<path fill="#363636" d="M286.9,121.4v6.7h-1.3v-6.7H286.9z"/>
	<path fill="#363636" d="M289.4,121.4v6.7h-1.3v-6.7H289.4z"/>
	<path fill="#363636" d="M291.4,127.9c-0.3-0.1-0.6-0.3-0.8-0.6c-0.2-0.3-0.3-0.5-0.3-0.8h1.3c0,0.2,0.1,0.4,0.3,0.5
		s0.4,0.2,0.6,0.2c0.2,0,0.4,0,0.6-0.1s0.2-0.2,0.2-0.4c0-0.2-0.1-0.3-0.2-0.4s-0.4-0.2-0.8-0.3c-0.4-0.1-0.7-0.2-0.9-0.3
		c-0.2-0.1-0.4-0.2-0.6-0.4c-0.2-0.2-0.3-0.5-0.3-0.8c0-0.3,0.1-0.5,0.2-0.8c0.2-0.2,0.4-0.4,0.7-0.5c0.3-0.1,0.6-0.2,1-0.2
		c0.6,0,1.1,0.1,1.4,0.4c0.4,0.3,0.5,0.7,0.6,1.2h-1.2c0-0.2-0.1-0.4-0.2-0.5s-0.3-0.2-0.6-0.2c-0.2,0-0.4,0-0.5,0.1
		c-0.1,0.1-0.2,0.2-0.2,0.4c0,0.2,0.1,0.3,0.3,0.4c0.2,0.1,0.4,0.2,0.8,0.3c0.4,0.1,0.7,0.2,0.9,0.3c0.2,0.1,0.4,0.2,0.6,0.4
		s0.3,0.5,0.3,0.8c0,0.3-0.1,0.5-0.2,0.8c-0.2,0.2-0.4,0.4-0.7,0.5s-0.6,0.2-1,0.2C292.1,128.1,291.8,128,291.4,127.9z"/>
	<path fill="#363636" d="M299.3,123.2c0.3,0.2,0.5,0.4,0.7,0.7c0.2,0.3,0.2,0.7,0.2,1.2v2.9H299v-2.8c0-0.4-0.1-0.7-0.3-0.9
		c-0.2-0.2-0.5-0.3-0.8-0.3c-0.3,0-0.6,0.1-0.8,0.3c-0.2,0.2-0.3,0.5-0.3,0.9v2.8h-1.3v-6.7h1.3v2.3c0.2-0.2,0.4-0.4,0.6-0.5
		c0.3-0.1,0.6-0.2,0.9-0.2C298.7,123,299.1,123,299.3,123.2z"/>
	<path fill="#363636" d="M301.5,124.2c0.2-0.4,0.5-0.7,0.8-0.9c0.3-0.2,0.7-0.3,1.2-0.3c0.4,0,0.7,0.1,1,0.2
		c0.3,0.1,0.5,0.3,0.7,0.6V123h1.3v5h-1.3v-0.7c-0.2,0.2-0.4,0.4-0.7,0.6c-0.3,0.2-0.6,0.2-1,0.2c-0.4,0-0.8-0.1-1.1-0.3
		c-0.3-0.2-0.6-0.5-0.8-0.9c-0.2-0.4-0.3-0.8-0.3-1.4C301.2,125,301.3,124.6,301.5,124.2z M304.9,124.7c-0.1-0.2-0.3-0.4-0.5-0.5
		c-0.2-0.1-0.4-0.2-0.7-0.2c-0.2,0-0.4,0.1-0.6,0.2s-0.4,0.3-0.5,0.5c-0.1,0.2-0.2,0.5-0.2,0.8s0.1,0.6,0.2,0.8
		c0.1,0.2,0.3,0.4,0.5,0.5s0.4,0.2,0.6,0.2c0.2,0,0.5-0.1,0.7-0.2c0.2-0.1,0.4-0.3,0.5-0.5c0.1-0.2,0.2-0.5,0.2-0.8
		C305.1,125.2,305,125,304.9,124.7z"/>
	<path fill="#363636" d="M309.5,123.2c0.3-0.1,0.6-0.2,0.9-0.2v1.3H310c-0.4,0-0.7,0.1-0.9,0.3c-0.2,0.2-0.3,0.5-0.3,1v2.5h-1.3v-5
		h1.3v0.8C309,123.5,309.2,123.3,309.5,123.2z"/>
	<path fill="#363636" d="M315.8,125.9h-3.6c0,0.4,0.2,0.6,0.4,0.8c0.2,0.2,0.5,0.3,0.8,0.3c0.5,0,0.8-0.2,1-0.6h1.4
		c-0.1,0.5-0.4,0.9-0.8,1.2c-0.4,0.3-0.9,0.5-1.5,0.5c-0.5,0-0.9-0.1-1.3-0.3s-0.7-0.5-0.9-0.9c-0.2-0.4-0.3-0.8-0.3-1.4
		c0-0.5,0.1-1,0.3-1.4c0.2-0.4,0.5-0.7,0.9-0.9s0.8-0.3,1.3-0.3c0.5,0,0.9,0.1,1.3,0.3s0.7,0.5,0.9,0.9s0.3,0.8,0.3,1.3
		C315.9,125.6,315.8,125.8,315.8,125.9z M314.5,125.1c0-0.3-0.1-0.6-0.4-0.8c-0.2-0.2-0.5-0.3-0.8-0.3c-0.3,0-0.6,0.1-0.8,0.3
		c-0.2,0.2-0.3,0.5-0.4,0.8H314.5z"/>
</g>
<path fill="#FFA300" d="M113.1,120.6c-0.2-0.6-0.7-1.1-1.3-1.1L108,119l-1.6-3.4c-0.3-0.6-0.9-0.9-1.5-0.9c-0.7,0-1.2,0.3-1.5,0.9
	l-1.6,3.4l-3.7,0.5c-0.6,0.1-1.1,0.5-1.3,1.1c-0.2,0.6,0,1.3,0.4,1.7l2.7,2.6l-0.6,3.7c-0.1,0.6,0.1,1.3,0.7,1.7
	c0.5,0.4,1.2,0.4,1.7,0.1l3.3-1.7l3.3,1.7c0.3,0.1,0.5,0.2,0.8,0.2c0.3,0,0.7-0.1,1-0.3c0.5-0.4,0.8-1,0.7-1.7l-0.6-3.7l2.7-2.6
	C113.1,121.9,113.3,121.2,113.1,120.6z"/>
<path fill="#FFA300" d="M92.9,120.6c-0.2-0.6-0.7-1.1-1.3-1.1l-3.7-0.5l-1.6-3.4c-0.3-0.6-0.9-0.9-1.5-0.9c-0.7,0-1.2,0.3-1.5,0.9
	l-1.6,3.4l-3.7,0.5c-0.6,0.1-1.1,0.5-1.3,1.1c-0.2,0.6,0,1.3,0.4,1.7l2.7,2.6l-0.6,3.7c-0.1,0.6,0.1,1.3,0.7,1.7
	c0.5,0.4,1.2,0.4,1.7,0.1l3.3-1.7l3.3,1.7c0.3,0.1,0.5,0.2,0.8,0.2c0.3,0,0.7-0.1,1-0.3c0.5-0.4,0.8-1,0.7-1.7L90,125l2.7-2.6
	C92.9,121.9,93.1,121.2,92.9,120.6z"/>
<path fill="#FFA300" d="M133.3,120.6c-0.2-0.6-0.7-1.1-1.3-1.1l-3.7-0.5l-1.6-3.4c-0.3-0.6-0.9-0.9-1.5-0.9s-1.2,0.3-1.5,0.9
	l-1.6,3.4l-3.7,0.5c-0.6,0.1-1.1,0.5-1.3,1.1c-0.2,0.6,0,1.3,0.4,1.7l2.7,2.6l-0.6,3.7c-0.1,0.6,0.1,1.3,0.7,1.7
	c0.5,0.4,1.2,0.4,1.7,0.1l3.3-1.7l3.3,1.7c0.3,0.1,0.5,0.2,0.8,0.2c0.3,0,0.7-0.1,1-0.3c0.5-0.4,0.8-1,0.7-1.7l-0.6-3.7l2.7-2.6
	C133.3,121.9,133.5,121.2,133.3,120.6z"/>
<g id="L3v0c2_00000160872650370099146550000004604523762305998524_">
	<path fill="#363636" d="M126.5,43.1c1.3,0,2.5,0,3.6,0c1.7,0,2.4,0.6,2.4,2.4c0,4.3,0,8.5,0,12.8c0,1.6-0.6,2.2-2.2,2.2
		c-1.3,0-2.7,0-4,0c-0.5,0-0.8,0.2-1.1,0.5c-0.8,1-1.7,2-2.6,3.1c-0.3,0.3-0.5,0.8-1,0.6c-0.5-0.2-0.4-0.7-0.4-1.1c0-1,0-2,0-3.1
		c-0.8,0-1.6,0-2.3,0c-0.4,0-0.8,0-1.2,0c-1.1,0-1.8-0.7-1.8-1.8c0-1.2,0-2.3,0-3.5c-0.8,0-1.6,0-2.4,0c0,0.1,0,0.3,0,0.4
		c0,1,0,1.9,0,2.9c0,1.3-0.7,2-1.9,2c-1.8,0-3.6,0-5.5,0c-0.4,0-0.6,0.1-0.7,0.5c-0.3,1-0.5,2-0.9,3c-0.1,0.3-0.4,0.6-0.6,0.7
		c-0.2,0-0.5-0.3-0.7-0.5c-0.7-1.1-1.2-2.2-1.9-3.3c-0.1-0.2-0.4-0.4-0.6-0.4c-1.5,0-3,0-4.4,0c-1.2,0-1.9-0.7-2-2
		c0-1.1,0-2.1,0-3.2c0,0,0-0.1-0.1-0.1c-0.7,0-1.5,0-2.3,0c0,1.1,0,2.2,0,3.3c0,0.3,0,0.7,0,1c-0.1,1-0.8,1.6-1.7,1.6
		c-0.7,0-1.5,0-2.3,0c0.2,1.1,0.3,2.1,0.4,3.2c0.1,0.4,0.1,0.9-0.3,1c-0.3,0.1-0.7-0.2-0.9-0.4c-1-1.1-1.9-2.2-2.9-3.3
		c-0.2-0.2-0.6-0.4-0.9-0.4c-1.3,0-2.6,0-3.8,0c-1.2,0-2-0.7-2-2c0-3.5,0-7,0-10.5c0-1.2,0.7-1.9,1.9-2c1.1,0,2.2,0,3.3,0
		c0.2,0,0.4,0,0.7,0c0-0.3,0-0.6,0-0.8c0-5.6,0-11.2,0-16.8c0-1.5,0.7-2.2,2.2-2.2c12.9,0,25.9,0,38.8,0c1.6,0,2.2,0.7,2.2,2.2
		c0,4.4,0,8.8,0,13.2C126.5,42.6,126.5,42.8,126.5,43.1z M125.4,43.1c0-0.3,0-0.4,0-0.6c0-4.5,0-8.9,0-13.4c0-0.8-0.2-1-1-1
		c-13,0-25.9,0-38.9,0c-0.8,0-1,0.1-1,1c0,5.6,0,11.3,0,16.9c0,0.2,0,0.4,0,0.7c0.3,0,0.5,0,0.7,0c1.5,0,3,0,4.5,0
		c1.2,0,1.9,0.7,2,1.9c0,1.1,0,2.2,0,3.3c0,0.6,0,1.3,0,1.9c0.8,0,1.6,0,2.4,0c0-0.3,0-0.5,0-0.7c0-3.2,0-6.5,0-9.7
		c0-1.4,0.7-2.1,2.1-2.1c5,0,10.1,0,15.1,0c1.4,0,2.1,0.7,2.1,2.1c0,3.3,0,6.6,0,9.9c0,0.2,0,0.4,0,0.6c0.8,0,1.6,0,2.4,0
		c0-0.3,0-0.5,0-0.7c0-2.7,0-5.4,0-8c0-1.3,0.7-2,2-2c0.2,0,0.5,0,0.7,0C120.8,43.1,123,43.1,125.4,43.1z M103.5,62.6
		c0.3-0.9,0.5-1.7,0.7-2.5c0.1-0.6,0.5-0.8,1-0.8c1.9,0,3.9,0,5.8,0c0.9,0,1-0.1,1-1c0-5,0-9.9,0-14.9c0-0.8-0.2-1-1-1
		c-4.9,0-9.9,0-14.8,0c-0.8,0-1,0.2-1,1c0,4.9,0,9.9,0,14.8c0,0.8,0.1,1,1,1c1.6,0,3.1,0,4.7,0c0.5,0,0.8,0.2,1,0.6
		C102.5,60.8,103,61.6,103.5,62.6z M122.3,62.5c0.8-1,1.6-1.8,2.3-2.7c0.3-0.4,0.7-0.5,1.2-0.5c1.5,0,3.1,0,4.6,0c0.8,0,1-0.2,1-1
		c0-4.4,0-8.7,0-13.1c0-0.8-0.2-0.9-0.9-0.9c-4.2,0-8.3,0-12.5,0c-0.8,0-0.9,0.1-0.9,0.9c0,4.4,0,8.8,0,13.2c0,0.8,0.1,0.9,0.9,0.9
		c1.2,0,2.4,0,3.6,0c0.6,0,0.8,0.2,0.8,0.8C122.3,60.8,122.3,61.6,122.3,62.5z M86.5,62.5c0,0,0.1,0,0.1-0.1
		c-0.1-0.5-0.1-1.1-0.2-1.6c-0.1-0.7,0.1-0.9,0.8-0.9c0.8,0,1.5,0,2.3,0c0.9,0,1-0.1,1-1c0-3.3,0-6.7,0-10c0-0.8-0.1-1-0.9-1
		c-3.4,0-6.7,0-10.1,0c-0.8,0-0.9,0.1-0.9,0.9c0,3.4,0,6.7,0,10.1c0,0.8,0.1,1,1,1c1.3,0,2.6,0,3.9,0c0.6,0,1,0.1,1.4,0.6
		C85.3,61.2,85.9,61.9,86.5,62.5z"/>
	<path fill="#363636" d="M98.4,82.1c-0.4,0-0.8,0-1.2,0c-0.4-2.7-0.1-4.8,1-6.4c0,0,0-0.1-0.1-0.1c-1.7,0-3.4-0.1-5,0
		c-1.3,0.1-2.4,1.3-2.5,2.5c-0.1,1.1-0.1,2.1-0.1,3.2c0,0.2,0,0.5,0,0.8c-0.4,0-0.8,0-1.2,0c0.2-2.2-0.6-4.5,1.2-6.6
		c-0.9,0-1.6,0-2.4,0c-0.8,0-1.6,0-2.4,0c-1.8,0-3.1,1.2-3.1,3.1c0,1,0,1.9,0,2.9c0,0.2,0,0.4,0,0.6c-0.4,0-0.8,0-1.1,0
		c0-1.5-0.2-3,0-4.4c0.3-1.8,1.5-2.9,3.3-3.2c0.2,0,0.3-0.1,0.5-0.1c0,0,0,0,0,0c-2-2.8-1.9-5.5,0.3-7.3c1.7-1.4,4.8-1.7,6.9,0.9
		c1-1.2,2.2-2,3.9-2c1.6,0,2.9,0.7,3.9,2c1-1.2,2.3-2,3.9-2c1.6,0,2.9,0.7,3.9,2c1-1.2,2.3-2,3.9-2c1.6,0,2.9,0.7,3.9,2
		c1.1-1.3,2.4-2,4.1-2c1.2,0,2.2,0.5,3,1.2c2,1.7,2,4.3,0.1,7.2c1,0.2,1.9,0.5,2.6,1.2c0.7,0.7,1.2,1.6,1.2,2.6c0,1.3,0,2.6,0,4
		c-0.4,0-0.7,0-1.1,0c0-0.7,0-1.3,0-2c0-0.7,0-1.4-0.1-2.1c-0.1-1.2-1.3-2.4-2.5-2.4c-1.7-0.1-3.4,0-5.2,0c1.8,2,1,4.3,1.2,6.5
		c-0.4,0-0.8,0-1.2,0c0-1.2,0-2.3,0-3.4c0-1.5-0.8-2.6-2.1-3c-0.2,0-0.3-0.1-0.5-0.1c-1.7,0-3.4,0-5.2,0c0.8,0.9,1.2,2,1.2,3.1
		c0,1.1,0,2.2,0,3.4c-0.4,0-0.7,0-1.2,0c0-1,0-2,0-3c0-0.5,0-1-0.2-1.4c-0.4-1.3-1.5-2.1-2.8-2.1c-2,0-4.1,0-6.1,0
		c-1.7,0-2.9,1.3-2.9,2.9C98.3,79.6,98.4,80.8,98.4,82.1z M104.3,67.1c-2,0-3.6,1.7-3.5,3.6c0.1,2.1,1.6,3.6,3.6,3.6
		c1.9,0,3.6-1.7,3.6-3.7C107.9,68.7,106.3,67.1,104.3,67.1z M112,67.1c-1.2,0-2.2,0.5-2.9,1.7c-0.1,0.2-0.2,0.6-0.2,0.8
		c0,0.7,0,1.5,0,2.2c0,0.3,0,0.7,0.2,0.9c0.9,1.5,2.8,2,4.4,1.3c1.5-0.6,2.4-2.4,2-4C115.3,68.3,113.8,67.1,112,67.1z M92.9,70.7
		c0,1.5,1,3,2.5,3.5c1.6,0.5,3.3-0.1,4.1-1.5c0.1-0.2,0.1-0.6,0.2-0.9c0-0.7,0-1.4,0-2.1c0-0.3,0-0.7-0.2-1
		c-0.8-1.3-2.4-1.8-3.9-1.4C94,67.7,93,69,92.9,70.7z M119.6,67.1c-0.8,0-1.7,0.5-2.5,1.4c-0.3,0.3-0.4,0.7-0.3,1.2
		c0.1,0.7,0,1.4,0,2c0,0.3,0,0.7,0.1,0.9c0.8,1.4,2.7,2,4.3,1.4c1.5-0.5,2.5-2.3,2.2-3.9C123.2,68.4,121.7,67.1,119.6,67.1z
		 M88.7,74.3c1.1,0,2.5-0.7,3-1.7c0.1-0.2,0.1-0.5,0.1-0.8c0-0.7,0-1.4,0-2.2c0-0.3,0-0.7-0.2-0.9c-0.3-0.4-0.8-0.9-1.2-1.1
		c-1.3-0.8-2.9-0.5-4.1,0.5c-1.1,0.9-1.5,2.5-1,3.9C85.9,73.3,87.2,74.3,88.7,74.3z M92.6,73.5c-0.2,0.3-0.4,0.5-0.6,0.8
		c0.4,0,0.8,0,1.2,0C93,74,92.9,73.8,92.6,73.5z M108.2,73.5c-0.2,0.3-0.4,0.5-0.6,0.8c0.4,0,0.8,0,1.2,0
		C108.6,74,108.5,73.8,108.2,73.5z M115.4,74.3c0.5,0,0.8,0,1.3,0c-0.2-0.3-0.4-0.5-0.6-0.7C115.8,73.8,115.6,74,115.4,74.3z
		 M101.1,74.3c-0.3-0.3-0.4-0.5-0.7-0.8c-0.2,0.3-0.4,0.5-0.6,0.8C100.3,74.3,100.6,74.3,101.1,74.3z"/>
	<path fill="#363636" d="M118.7,37.1c-0.4,0-0.8,0-1.1,0c0-0.1-0.1-0.1-0.1-0.2c0-2.3,0-4.5,0-6.8c0-0.6,0.3-0.8,0.9-0.8
		c1.4,0,2.8,0,4.3,0c0.7,0,0.9,0.2,0.9,0.9c0,1,0,2.1,0,3.1c0,0.6-0.2,0.8-0.8,0.8c-1.1,0-2.3,0-3.4,0c-0.4,0-0.6,0.1-0.6,0.5
		C118.8,35.4,118.7,36.2,118.7,37.1z M122.3,32.9c0-0.8,0-1.6,0-2.3c-1.2,0-2.3,0-3.5,0c0,0.8,0,1.6,0,2.3
		C120,32.9,121.1,32.9,122.3,32.9z"/>
	<path fill="#363636" d="M86.3,36.5c0-1.3,1-2.4,2.4-2.4c1.3,0,2.4,1.1,2.4,2.4c0,1.3-1.1,2.4-2.4,2.4
		C87.4,38.9,86.4,37.8,86.3,36.5z M88.7,37.7c0.7,0,1.2-0.5,1.2-1.2c0-0.7-0.5-1.2-1.2-1.2c-0.6,0-1.2,0.5-1.2,1.2
		C87.5,37.1,88.1,37.7,88.7,37.7z"/>
	<path fill="#363636" d="M100.5,35.1c0.1-0.3,0.2-0.5,0.3-0.8c0-0.1,0.1-0.1,0.1-0.2c0.4,0.2,0.7,0.3,1.1,0.5
		C101.5,35.8,101.5,35.8,100.5,35.1z"/>
	<path fill="#363636" d="M106.4,36.4c-0.1,0.3-0.2,0.6-0.2,0.9c0,0.1-0.1,0.1-0.1,0.2c-0.3-0.1-0.7-0.2-1-0.3
		C105.1,36,105.2,35.9,106.4,36.4z"/>
	<path fill="#363636" d="M103.6,36.7c-0.3-0.2-0.6-0.3-1-0.5c0.2-0.4,0.3-0.7,0.5-1C104.3,35.5,104.4,35.6,103.6,36.7z"/>
	<path fill="#363636" d="M93.6,33.2c0.4-0.1,0.8-0.1,1.2-0.2c0.1,0.4,0.1,0.7,0.2,1.2c-0.4,0.1-0.7,0.1-1.1,0.2
		C93.8,34,93.7,33.7,93.6,33.2z"/>
	<path fill="#363636" d="M96.1,34.1c0-0.4,0-0.7,0-1.2c0.4,0,0.8,0.1,1.2,0.1c-0.1,0.4-0.1,0.8-0.2,1.2
		C96.8,34.1,96.5,34.1,96.1,34.1z"/>
	<path fill="#363636" d="M98.3,34.4c0.1-0.4,0.2-0.7,0.3-1.1c0.4,0.1,0.7,0.2,1.2,0.3c-0.1,0.4-0.2,0.7-0.4,1.1
		C99,34.6,98.7,34.5,98.3,34.4z"/>
	<path fill="#363636" d="M108.6,38c-0.4-0.1-0.8-0.1-1.2-0.1c0.1-0.4,0.1-0.8,0.2-1.2c0.4,0,0.7,0.1,1.1,0.1
		C108.6,37.2,108.6,37.5,108.6,38z"/>
	<path fill="#363636" d="M110.9,36.6c0.1,0.4,0.1,0.8,0.2,1.2c-0.4,0.1-0.8,0.1-1.2,0.2c0-0.4,0-0.8-0.1-1.2
		C110.1,36.7,110.5,36.7,110.9,36.6z"/>
	<path fill="#363636" d="M91.8,35.2c-0.2-0.4-0.4-0.7-0.5-1.1c0.4-0.2,0.7-0.3,1.2-0.5c0.1,0.4,0.3,0.7,0.4,1.1
		C92.4,34.9,92.1,35,91.8,35.2z"/>
	<path fill="#363636" d="M113,36c0.2,0.4,0.3,0.7,0.4,1.1c-0.4,0.1-0.7,0.3-1.2,0.4c-0.1-0.4-0.2-0.7-0.3-1.1
		C112.3,36.3,112.7,36.1,113,36z"/>
	<path fill="#363636" d="M114.7,36.6c-0.2-0.4-0.3-0.7-0.5-1.1c0.3-0.2,0.6-0.3,1-0.5c0.2,0.3,0.4,0.6,0.6,1
		C115.4,36.2,115.1,36.4,114.7,36.6z"/>
	<path fill="#363636" d="M103.5,54.7c0.9,1,0.9,1.5,0.3,2.2c-0.8,0.9-1.2,0.9-2.8-0.3c-0.7,0.4-1.3,0.9-1.9,0.9
		c-0.5,0-1.1-0.7-1.6-1.1c-0.7-0.6-0.5-1,0.6-2.4c-0.4-0.7-0.8-1.3-1-1.9c-0.1-0.2,0.3-0.7,0.5-1c0.7-0.8,1.3-0.7,2.3,0.2
		c1.6-1.9,3.2-3.7,4.8-5.6c0.2-0.2,0.5-0.4,0.8-0.5c1.3-0.3,2.6-0.5,3.9-0.8c0.6-0.1,1,0.2,0.8,0.8c-0.2,1.3-0.5,2.7-0.8,4
		c-0.1,0.3-0.3,0.5-0.5,0.7C107.2,51.5,105.4,53.1,103.5,54.7z M109,45.7c-1,0.2-1.8,0.3-2.7,0.5c-0.3,0.1-0.6,0.2-0.7,0.4
		c-1,1.1-1.9,2.2-2.9,3.3c-0.6,0.7-1.2,1.4-1.9,2.2c0.2,0.2,0.3,0.3,0.5,0.5c1.7-1.7,3.4-3.4,5-5c0.3,0.2,0.6,0.5,0.9,0.8
		c-1.7,1.7-3.4,3.4-5.1,5.1c0.1,0.1,0.3,0.3,0.4,0.4c1.9-1.7,3.8-3.3,5.6-4.9c0.1-0.1,0.2-0.2,0.2-0.3
		C108.6,47.7,108.8,46.8,109,45.7z M102.9,56.1c-1.5-1.5-2.9-2.9-4.3-4.3c-0.1,0.1-0.2,0.2-0.2,0.3c1.4,1.4,2.8,2.8,4.3,4.3
		C102.8,56.2,102.9,56.1,102.9,56.1z M99.9,55.6c-0.3-0.3-0.5-0.6-0.7-0.9c-0.3,0.3-0.6,0.6-0.8,0.7c0.3,0.3,0.5,0.6,0.7,0.8
		C99.5,56,99.7,55.8,99.9,55.6z"/>
	<path fill="#363636" d="M118.8,49.7c-0.1-0.5,0.1-0.8,0.6-0.9c1.6-0.5,3-1.2,4.2-2.4c0.3-0.3,0.6-0.4,1,0c1.1,1.1,2.5,1.8,3.9,2.3
		c1,0.4,1,0.4,0.9,1.5c-0.2,2.1-0.8,4.1-2.3,5.7c-0.8,0.8-1.7,1.5-2.6,2.1c-0.2,0.1-0.6,0.1-0.9,0C120.5,56.1,119,53.3,118.8,49.7z
		 M128.3,49.8c-1.4-0.5-2.8-1.1-3.9-2.1c-0.1-0.1-0.3,0-0.4,0c-0.8,0.5-1.6,1-2.4,1.5c-0.4,0.3-1,0.4-1.5,0.6
		c0.2,2.8,1.3,5.1,3.6,6.7c0.4,0.3,0.6,0.2,1,0C127,54.9,128.1,52.6,128.3,49.8z"/>
	<path fill="#363636" d="M82.7,55.7c-0.6,0-1.1,0-1.6,0c-0.5,0-0.8-0.2-0.8-0.8c0-0.7,0-1.4,0-2.1c0-0.5,0.3-0.8,0.8-0.8
		c0.5,0,1,0,1.6,0c0-0.5,0-1,0-1.5c0-0.7,0.2-0.8,0.8-0.9c0.7,0,1.3,0,2,0c0.5,0,0.8,0.2,0.8,0.8c0,0.5,0,1,0,1.6c0.5,0,1,0,1.5,0
		c0.7,0,0.9,0.2,0.9,0.9c0,0.6,0,1.3,0,1.9c0,0.5-0.2,0.8-0.7,0.8c-0.5,0-1.1,0-1.7,0c0,0.6,0,1.1,0,1.6c0,0.5-0.2,0.8-0.7,0.8
		c-0.7,0-1.4,0-2.1,0c-0.5,0-0.7-0.3-0.7-0.8C82.7,56.8,82.7,56.3,82.7,55.7z M85,56.9c0-0.1,0.1-0.1,0.1-0.1c0-0.4,0-0.8,0-1.2
		c0-0.9,0.1-1,1.1-1c0.4,0,0.9,0,1.3,0c0-0.4,0-0.8,0-1.1c-0.1,0-0.1-0.1-0.1-0.1c-0.4,0-0.9,0-1.3,0c-0.7,0-0.9-0.2-0.9-0.9
		c0-0.5,0-1,0-1.4c-0.4,0-0.8,0-1.2,0c0,0.6,0,1.1,0,1.6c0,0.5-0.2,0.7-0.7,0.7c-0.5,0-1.1,0-1.6,0c0,0.4,0,0.8,0,1.2
		c0.5,0,1,0,1.5,0c0.6,0,0.8,0.2,0.8,0.8c0,0.5,0,1,0,1.6C84.4,56.9,84.7,56.9,85,56.9z"/>
	<path fill="#363636" d="M102.7,69.4c0.1,0.2,0.4,0.5,0.4,0.7c0,0.2-0.3,0.5-0.6,0.5c-0.4,0.1-0.6-0.3-0.5-0.6
		c0-0.2,0.3-0.4,0.5-0.6C102.5,69.4,102.6,69.4,102.7,69.4z"/>
	<path fill="#363636" d="M106.8,70.3c-0.2,0.1-0.5,0.4-0.7,0.4c-0.2,0-0.5-0.4-0.5-0.6c-0.1-0.4,0.3-0.6,0.6-0.5
		c0.2,0.1,0.4,0.3,0.6,0.5C106.8,70.1,106.8,70.2,106.8,70.3z"/>
	<path fill="#363636" d="M114,69.4c0.2,0.2,0.5,0.5,0.5,0.7c0,0.2-0.3,0.5-0.5,0.6c-0.4,0.1-0.6-0.2-0.6-0.6c0-0.2,0.3-0.4,0.4-0.7
		C113.9,69.4,114,69.4,114,69.4z"/>
	<path fill="#363636" d="M110.5,69.4c0.1,0.2,0.4,0.4,0.4,0.7c0.1,0.4-0.2,0.7-0.6,0.5c-0.2-0.1-0.5-0.4-0.5-0.6
		c0-0.2,0.3-0.4,0.4-0.7C110.3,69.4,110.4,69.4,110.5,69.4z"/>
	<path fill="#363636" d="M95.4,70.2c-0.2,0.2-0.4,0.4-0.6,0.5c-0.4,0.1-0.7-0.2-0.6-0.5c0-0.2,0.3-0.5,0.5-0.6
		c0.2,0,0.5,0.2,0.7,0.4C95.4,70,95.4,70.1,95.4,70.2z"/>
	<path fill="#363636" d="M98.3,71c-0.3-0.4-0.5-0.6-0.5-0.9c-0.1-0.4,0.2-0.7,0.6-0.6c0.2,0.1,0.5,0.4,0.5,0.6
		C98.9,70.3,98.6,70.6,98.3,71z"/>
	<path fill="#363636" d="M122.4,70.3c-0.2,0.1-0.5,0.4-0.7,0.4c-0.2,0-0.5-0.4-0.5-0.6c0-0.2,0.4-0.5,0.6-0.5c0.2,0,0.5,0.3,0.7,0.4
		C122.4,70.1,122.4,70.2,122.4,70.3z"/>
	<path fill="#363636" d="M118.8,70.2c-0.2,0.2-0.4,0.4-0.6,0.4c-0.2,0-0.5-0.3-0.6-0.5c-0.1-0.4,0.2-0.6,0.6-0.6
		c0.2,0,0.4,0.3,0.7,0.4C118.8,70.1,118.8,70.2,118.8,70.2z"/>
	<path fill="#363636" d="M86.9,69.3c0.3,0.4,0.5,0.6,0.6,0.8c0.1,0.3-0.2,0.6-0.6,0.6c-0.4,0-0.6-0.2-0.6-0.6
		C86.4,69.9,86.6,69.6,86.9,69.3z"/>
	<path fill="#363636" d="M91.2,70.3c-0.2,0.1-0.4,0.4-0.7,0.4c-0.4,0-0.6-0.2-0.5-0.6c0.1-0.2,0.4-0.5,0.6-0.5
		c0.2,0,0.4,0.3,0.6,0.5C91.2,70.1,91.2,70.2,91.2,70.3z"/>
	<path fill="#363636" d="M126.9,50.9c-0.2,1.8-0.8,3.1-2.2,4c-0.4,0.2-0.7,0.3-1.1,0c-1.4-0.9-2.1-2.2-2.2-3.9
		c0-0.2,0.3-0.5,0.5-0.7c0.6-0.4,1.2-0.7,1.8-1c0.2-0.1,0.6-0.1,0.8,0c0.7,0.3,1.3,0.7,1.9,1C126.7,50.5,126.8,50.8,126.9,50.9z
		 M124.2,50.6c-0.4,0.2-0.8,0.4-1.2,0.6c-0.3,0.1-0.4,0.3-0.3,0.6c0.2,0.7,0.5,1.3,1.1,1.8c0.1,0.1,0.5,0.1,0.6,0
		c0.4-0.4,0.8-0.9,1-1.4c0.4-0.8,0.3-0.8-0.5-1.1C124.7,50.9,124.4,50.7,124.2,50.6z"/>
</g>
</svg>
