<?xml version="1.0" encoding="utf-8"?>
<!-- Generator: Adobe Illustrator 26.3.1, SVG Export Plug-In . SVG Version: 6.00 Build 0)  -->
<svg version="1.1" baseProfile="tiny" id="Layer_1" xmlns="http://www.w3.org/2000/svg" xmlns:xlink="http://www.w3.org/1999/xlink"
	 x="0px" y="0px" width="514.7px" height="157.6px" viewBox="0 0 514.7 157.6" overflow="visible" xml:space="preserve">
<path fill="#F2EDED" d="M498.6,157.6H16c-8.8,0-16-7.2-16-16V16C0,7.2,7.2,0,16,0h482.6c8.8,0,16,7.2,16,16v125.6
	C514.7,150.4,507.5,157.6,498.6,157.6z"/>
<g>
	<path fill="#363636" d="M70.3,102.6l-1.7-3h-0.7v3h-1.5v-7.7h2.9c0.6,0,1.1,0.1,1.5,0.3s0.7,0.5,0.9,0.8s0.3,0.8,0.3,1.2
		c0,0.5-0.1,1-0.4,1.4c-0.3,0.4-0.7,0.7-1.3,0.8l1.8,3.1H70.3z M67.9,98.4h1.3c0.4,0,0.7-0.1,0.9-0.3c0.2-0.2,0.3-0.5,0.3-0.8
		c0-0.4-0.1-0.6-0.3-0.8c-0.2-0.2-0.5-0.3-0.9-0.3h-1.3V98.4z"/>
	<path fill="#363636" d="M79,100h-4.5c0,0.4,0.2,0.8,0.5,1c0.3,0.2,0.6,0.4,1,0.4c0.6,0,1-0.2,1.2-0.7h1.7c-0.2,0.6-0.5,1.1-1,1.4
		c-0.5,0.4-1.1,0.6-1.8,0.6c-0.6,0-1.1-0.1-1.6-0.4c-0.5-0.3-0.8-0.6-1.1-1.1c-0.3-0.5-0.4-1-0.4-1.6c0-0.6,0.1-1.2,0.4-1.7
		c0.3-0.5,0.6-0.8,1.1-1.1c0.5-0.3,1-0.4,1.6-0.4c0.6,0,1.1,0.1,1.6,0.4c0.5,0.2,0.8,0.6,1.1,1.1c0.3,0.5,0.4,1,0.4,1.6
		C79.1,99.6,79,99.8,79,100z M77.5,98.9c0-0.4-0.2-0.7-0.4-1s-0.6-0.4-1-0.4c-0.4,0-0.7,0.1-1,0.3c-0.3,0.2-0.4,0.6-0.5,1H77.5z"/>
	<path fill="#363636" d="M80.2,97.8c0.2-0.5,0.6-0.8,1-1.1s0.9-0.4,1.4-0.4c0.5,0,0.9,0.1,1.2,0.3c0.3,0.2,0.6,0.4,0.8,0.7v-0.9h1.6
		v6.1h-1.6v-0.9c-0.2,0.3-0.5,0.5-0.8,0.7c-0.3,0.2-0.7,0.3-1.2,0.3c-0.5,0-1-0.1-1.4-0.4s-0.8-0.6-1-1.1c-0.2-0.5-0.4-1-0.4-1.7
		C79.8,98.9,79.9,98.3,80.2,97.8z M84.4,98.5c-0.1-0.3-0.3-0.5-0.6-0.6c-0.2-0.1-0.5-0.2-0.8-0.2s-0.5,0.1-0.8,0.2s-0.4,0.3-0.6,0.6
		c-0.2,0.3-0.2,0.6-0.2,1c0,0.4,0.1,0.7,0.2,1c0.1,0.3,0.3,0.5,0.6,0.6c0.2,0.1,0.5,0.2,0.8,0.2c0.3,0,0.6-0.1,0.8-0.2
		c0.2-0.1,0.4-0.3,0.6-0.6c0.1-0.3,0.2-0.6,0.2-1S84.5,98.8,84.4,98.5z"/>
	<path fill="#363636" d="M87.6,97.9c0.3-0.5,0.6-0.8,1.1-1.1c0.5-0.3,1-0.4,1.6-0.4c0.8,0,1.4,0.2,1.9,0.6c0.5,0.4,0.8,0.9,1,1.6
		h-1.7c-0.1-0.3-0.2-0.5-0.4-0.6s-0.5-0.2-0.8-0.2c-0.4,0-0.8,0.2-1,0.5c-0.3,0.3-0.4,0.8-0.4,1.4c0,0.6,0.1,1,0.4,1.3
		c0.3,0.3,0.6,0.5,1,0.5c0.6,0,1-0.3,1.2-0.8h1.7c-0.2,0.7-0.5,1.2-1,1.6c-0.5,0.4-1.1,0.6-1.9,0.6c-0.6,0-1.1-0.1-1.6-0.4
		c-0.5-0.3-0.8-0.6-1.1-1.1c-0.3-0.5-0.4-1-0.4-1.7S87.4,98.3,87.6,97.9z"/>
	<path fill="#363636" d="M96.1,97.7v2.9c0,0.2,0,0.4,0.1,0.4c0.1,0.1,0.3,0.1,0.5,0.1h0.7v1.3h-1c-1.3,0-1.9-0.6-1.9-1.9v-2.9h-0.7
		v-1.3h0.7V95h1.6v1.5h1.4v1.3H96.1z"/>
	<path fill="#363636" d="M105.3,92.1l-3,12.4h-1.5l3-12.4H105.3z"/>
	<path fill="#363636" d="M113.9,94.9v1.2h-3.2v2h2.5v1.2h-2.5v3.2h-1.5v-7.7H113.9z"/>
	<path fill="#363636" d="M116.5,94.4v8.1h-1.5v-8.1H116.5z"/>
	<path fill="#363636" d="M123.8,96.5v6.1h-1.6v-0.8c-0.2,0.3-0.5,0.5-0.8,0.6s-0.7,0.2-1,0.2c-0.5,0-0.9-0.1-1.3-0.3
		c-0.4-0.2-0.7-0.5-0.9-0.9s-0.3-0.9-0.3-1.4v-3.6h1.5v3.4c0,0.5,0.1,0.9,0.4,1.1c0.2,0.3,0.6,0.4,1,0.4c0.4,0,0.8-0.1,1-0.4
		c0.2-0.3,0.4-0.6,0.4-1.1v-3.4H123.8z"/>
	<path fill="#363636" d="M127.1,97.7v2.9c0,0.2,0,0.4,0.1,0.4c0.1,0.1,0.3,0.1,0.5,0.1h0.7v1.3h-1c-1.3,0-1.9-0.6-1.9-1.9v-2.9h-0.7
		v-1.3h0.7V95h1.6v1.5h1.4v1.3H127.1z"/>
	<path fill="#363636" d="M131.3,97.7v2.9c0,0.2,0,0.4,0.1,0.4c0.1,0.1,0.3,0.1,0.5,0.1h0.7v1.3h-1c-1.3,0-1.9-0.6-1.9-1.9v-2.9h-0.7
		v-1.3h0.7V95h1.6v1.5h1.4v1.3H131.3z"/>
	<path fill="#363636" d="M139.4,100H135c0,0.4,0.2,0.8,0.5,1c0.3,0.2,0.6,0.4,1,0.4c0.6,0,1-0.2,1.2-0.7h1.7c-0.2,0.6-0.5,1.1-1,1.4
		c-0.5,0.4-1.1,0.6-1.8,0.6c-0.6,0-1.1-0.1-1.6-0.4c-0.5-0.3-0.8-0.6-1.1-1.1c-0.3-0.5-0.4-1-0.4-1.6c0-0.6,0.1-1.2,0.4-1.7
		c0.3-0.5,0.6-0.8,1.1-1.1c0.5-0.3,1-0.4,1.6-0.4c0.6,0,1.1,0.1,1.6,0.4c0.5,0.2,0.8,0.6,1.1,1.1c0.3,0.5,0.4,1,0.4,1.6
		C139.5,99.6,139.5,99.8,139.4,100z M137.9,98.9c0-0.4-0.2-0.7-0.4-1s-0.6-0.4-1-0.4c-0.4,0-0.7,0.1-1,0.3c-0.3,0.2-0.4,0.6-0.5,1
		H137.9z"/>
	<path fill="#363636" d="M142.9,96.6c0.3-0.2,0.7-0.3,1.1-0.3V98h-0.4c-0.5,0-0.8,0.1-1.1,0.3c-0.2,0.2-0.4,0.6-0.4,1.2v3h-1.5v-6.1
		h1.5v0.9C142.3,97.1,142.6,96.8,142.9,96.6z"/>
</g>
<g>
	<path fill="#363636" d="M217.3,39.6l-1.8-3.1h-1.2v3.1h-1V32h2.5c0.6,0,1.1,0.1,1.5,0.3c0.4,0.2,0.7,0.5,0.9,0.8
		c0.2,0.3,0.3,0.7,0.3,1.2c0,0.5-0.2,1-0.5,1.4s-0.8,0.7-1.4,0.8l1.9,3.2H217.3z M214.2,35.7h1.5c0.5,0,0.9-0.1,1.2-0.4
		c0.3-0.3,0.4-0.6,0.4-1.1c0-0.5-0.1-0.8-0.4-1.1s-0.7-0.4-1.2-0.4h-1.5V35.7z"/>
	<path fill="#363636" d="M225.4,37h-4.8c0,0.6,0.2,1.1,0.6,1.4c0.4,0.3,0.8,0.5,1.3,0.5c0.4,0,0.8-0.1,1.1-0.3
		c0.3-0.2,0.5-0.5,0.6-0.8h1.1c-0.2,0.6-0.5,1.1-1,1.4c-0.5,0.4-1.1,0.5-1.8,0.5c-0.6,0-1.1-0.1-1.5-0.4s-0.8-0.6-1.1-1.1
		c-0.3-0.5-0.4-1-0.4-1.6c0-0.6,0.1-1.2,0.4-1.6c0.2-0.5,0.6-0.8,1.1-1.1c0.5-0.3,1-0.4,1.6-0.4c0.6,0,1.1,0.1,1.5,0.4s0.8,0.6,1,1
		s0.4,0.9,0.4,1.5C225.4,36.6,225.4,36.8,225.4,37z M224.1,35.2c-0.2-0.3-0.4-0.5-0.7-0.6c-0.3-0.1-0.6-0.2-1-0.2
		c-0.5,0-0.9,0.2-1.3,0.5c-0.4,0.3-0.6,0.8-0.6,1.3h3.8C224.4,35.8,224.3,35.5,224.1,35.2z"/>
	<path fill="#363636" d="M226.8,35c0.2-0.5,0.6-0.8,1-1.1c0.4-0.3,0.9-0.4,1.5-0.4c0.5,0,1,0.1,1.4,0.3s0.7,0.5,0.9,0.9v-1.1h1v6h-1
		v-1.1c-0.2,0.4-0.5,0.6-0.9,0.9c-0.4,0.2-0.8,0.3-1.4,0.3c-0.5,0-1-0.1-1.5-0.4c-0.4-0.3-0.8-0.6-1-1.1c-0.2-0.5-0.4-1-0.4-1.6
		C226.4,36,226.5,35.5,226.8,35z M231.2,35.4c-0.2-0.3-0.4-0.6-0.7-0.8c-0.3-0.2-0.7-0.3-1-0.3c-0.4,0-0.7,0.1-1,0.3
		c-0.3,0.2-0.6,0.4-0.7,0.8c-0.2,0.3-0.3,0.7-0.3,1.2c0,0.5,0.1,0.9,0.3,1.2c0.2,0.3,0.4,0.6,0.7,0.8c0.3,0.2,0.6,0.3,1,0.3
		c0.4,0,0.7-0.1,1-0.3c0.3-0.2,0.6-0.4,0.7-0.8c0.2-0.3,0.3-0.7,0.3-1.2C231.5,36.2,231.4,35.8,231.2,35.4z"/>
	<path fill="#363636" d="M234.2,35c0.2-0.5,0.6-0.8,1-1.1c0.4-0.3,1-0.4,1.5-0.4c0.7,0,1.4,0.2,1.8,0.5c0.5,0.4,0.8,0.9,1,1.5h-1.1
		c-0.1-0.4-0.3-0.7-0.6-0.9c-0.3-0.2-0.7-0.3-1.1-0.3c-0.6,0-1,0.2-1.4,0.6s-0.5,0.9-0.5,1.7c0,0.7,0.2,1.3,0.5,1.7
		c0.4,0.4,0.8,0.6,1.4,0.6c0.4,0,0.8-0.1,1.1-0.3c0.3-0.2,0.5-0.5,0.6-0.9h1.1c-0.2,0.6-0.5,1.1-1,1.5c-0.5,0.4-1.1,0.6-1.8,0.6
		c-0.6,0-1.1-0.1-1.5-0.4c-0.4-0.3-0.8-0.6-1-1.1c-0.2-0.5-0.4-1-0.4-1.7C233.8,36,233.9,35.5,234.2,35z"/>
	<path fill="#363636" d="M242.1,34.4V38c0,0.3,0.1,0.5,0.2,0.6s0.3,0.2,0.6,0.2h0.7v0.8h-0.9c-0.6,0-1-0.1-1.3-0.4s-0.4-0.7-0.4-1.3
		v-3.6h-0.8v-0.8h0.8v-1.5h1v1.5h1.6v0.8H242.1z"/>
	<path fill="#363636" d="M253.8,39.6h-1l-4-6.1v6.1h-1V32h1l4,6.1V32h1V39.6z"/>
	<path fill="#363636" d="M255.5,35c0.2-0.5,0.6-0.8,1-1.1c0.4-0.3,0.9-0.4,1.5-0.4c0.5,0,1,0.1,1.4,0.3s0.7,0.5,0.9,0.9v-1.1h1v6h-1
		v-1.1c-0.2,0.4-0.5,0.6-0.9,0.9c-0.4,0.2-0.8,0.3-1.4,0.3c-0.5,0-1-0.1-1.5-0.4c-0.4-0.3-0.8-0.6-1-1.1c-0.2-0.5-0.4-1-0.4-1.6
		C255.2,36,255.3,35.5,255.5,35z M260,35.4c-0.2-0.3-0.4-0.6-0.7-0.8s-0.7-0.3-1-0.3c-0.4,0-0.7,0.1-1,0.3c-0.3,0.2-0.6,0.4-0.7,0.8
		c-0.2,0.3-0.3,0.7-0.3,1.2c0,0.5,0.1,0.9,0.3,1.2c0.2,0.3,0.4,0.6,0.7,0.8c0.3,0.2,0.6,0.3,1,0.3c0.4,0,0.7-0.1,1-0.3
		s0.6-0.4,0.7-0.8c0.2-0.3,0.3-0.7,0.3-1.2C260.3,36.2,260.2,35.8,260,35.4z"/>
	<path fill="#363636" d="M264.2,34.4V38c0,0.3,0.1,0.5,0.2,0.6c0.1,0.1,0.3,0.2,0.6,0.2h0.7v0.8h-0.9c-0.6,0-1-0.1-1.3-0.4
		c-0.3-0.3-0.4-0.7-0.4-1.3v-3.6h-0.8v-0.8h0.8v-1.5h1v1.5h1.6v0.8H264.2z"/>
	<path fill="#363636" d="M267,32.4c-0.1-0.1-0.2-0.3-0.2-0.5c0-0.2,0.1-0.4,0.2-0.5s0.3-0.2,0.5-0.2c0.2,0,0.3,0.1,0.5,0.2
		c0.1,0.1,0.2,0.3,0.2,0.5c0,0.2-0.1,0.4-0.2,0.5c-0.1,0.1-0.3,0.2-0.5,0.2C267.3,32.6,267.1,32.6,267,32.4z M268,33.6v6h-1v-6H268z
		"/>
	<path fill="#363636" d="M271.9,38.7l1.9-5.1h1.1l-2.4,6h-1.2l-2.4-6h1.1L271.9,38.7z"/>
	<path fill="#363636" d="M281.3,37h-4.8c0,0.6,0.2,1.1,0.6,1.4c0.4,0.3,0.8,0.5,1.3,0.5c0.4,0,0.8-0.1,1.1-0.3
		c0.3-0.2,0.5-0.5,0.6-0.8h1.1c-0.2,0.6-0.5,1.1-1,1.4s-1.1,0.5-1.8,0.5c-0.6,0-1.1-0.1-1.5-0.4s-0.8-0.6-1.1-1.1
		c-0.3-0.5-0.4-1-0.4-1.6c0-0.6,0.1-1.2,0.4-1.6c0.2-0.5,0.6-0.8,1.1-1.1c0.5-0.3,1-0.4,1.6-0.4c0.6,0,1.1,0.1,1.5,0.4
		c0.4,0.2,0.8,0.6,1,1s0.4,0.9,0.4,1.5C281.4,36.6,281.3,36.8,281.3,37z M280.1,35.2c-0.2-0.3-0.4-0.5-0.7-0.6
		c-0.3-0.1-0.6-0.2-1-0.2c-0.5,0-0.9,0.2-1.3,0.5s-0.6,0.8-0.6,1.3h3.8C280.3,35.8,280.2,35.5,280.1,35.2z"/>
	<path fill="#363636" d="M289.8,35.2V36h-4.4v-0.8H289.8z"/>
	<path fill="#363636" d="M299.3,32v0.8h-2.1v6.9h-1v-6.9h-2.1V32H299.3z"/>
	<path fill="#363636" d="M304.8,33.8c0.4,0.2,0.7,0.5,0.9,0.9s0.3,0.9,0.3,1.4v3.6h-1v-3.4c0-0.6-0.2-1.1-0.5-1.4
		c-0.3-0.3-0.7-0.5-1.2-0.5c-0.5,0-0.9,0.2-1.3,0.5c-0.3,0.3-0.5,0.8-0.5,1.4v3.3h-1v-8.1h1v3c0.2-0.3,0.5-0.5,0.8-0.7
		c0.3-0.2,0.7-0.3,1.2-0.3C304,33.5,304.4,33.6,304.8,33.8z"/>
	<path fill="#363636" d="M313.1,37h-4.8c0,0.6,0.2,1.1,0.6,1.4c0.4,0.3,0.8,0.5,1.3,0.5c0.4,0,0.8-0.1,1.1-0.3
		c0.3-0.2,0.5-0.5,0.6-0.8h1.1c-0.2,0.6-0.5,1.1-1,1.4c-0.5,0.4-1.1,0.5-1.8,0.5c-0.6,0-1.1-0.1-1.5-0.4s-0.8-0.6-1.1-1.1
		c-0.3-0.5-0.4-1-0.4-1.6c0-0.6,0.1-1.2,0.4-1.6c0.2-0.5,0.6-0.8,1-1.1c0.5-0.3,1-0.4,1.6-0.4c0.6,0,1.1,0.1,1.5,0.4
		c0.4,0.2,0.8,0.6,1,1s0.4,0.9,0.4,1.5C313.1,36.6,313.1,36.8,313.1,37z M311.8,35.2c-0.2-0.3-0.4-0.5-0.7-0.6
		c-0.3-0.1-0.6-0.2-1-0.2c-0.5,0-0.9,0.2-1.3,0.5c-0.4,0.3-0.6,0.8-0.6,1.3h3.8C312.1,35.8,312,35.5,311.8,35.2z"/>
	<path fill="#363636" d="M321.8,35.8c-0.4,0.4-1.1,0.6-2,0.6h-1.5v3.2h-1V32h2.5c0.9,0,1.5,0.2,2,0.6s0.7,1,0.7,1.6
		C322.5,34.9,322.3,35.4,321.8,35.8z M321.1,35.3c0.3-0.2,0.4-0.6,0.4-1c0-0.9-0.5-1.4-1.6-1.4h-1.5v2.8h1.5
		C320.4,35.6,320.8,35.5,321.1,35.3z"/>
	<path fill="#363636" d="M325.5,33.8c0.3-0.2,0.7-0.3,1.2-0.3v1h-0.3c-1.1,0-1.7,0.6-1.7,1.8v3.3h-1v-6h1v1
		C324.9,34.3,325.2,34,325.5,33.8z"/>
	<path fill="#363636" d="M327.8,35c0.2-0.5,0.6-0.8,1-1.1s0.9-0.4,1.5-0.4c0.5,0,1,0.1,1.4,0.3s0.7,0.5,0.9,0.9v-1.1h1v6h-1v-1.1
		c-0.2,0.4-0.5,0.6-0.9,0.9c-0.4,0.2-0.8,0.3-1.4,0.3c-0.5,0-1-0.1-1.5-0.4c-0.4-0.3-0.8-0.6-1-1.1s-0.4-1-0.4-1.6
		C327.5,36,327.6,35.5,327.8,35z M332.3,35.4c-0.2-0.3-0.4-0.6-0.7-0.8c-0.3-0.2-0.7-0.3-1-0.3c-0.4,0-0.7,0.1-1,0.3
		s-0.6,0.4-0.7,0.8c-0.2,0.3-0.3,0.7-0.3,1.2c0,0.5,0.1,0.9,0.3,1.2c0.2,0.3,0.4,0.6,0.7,0.8s0.6,0.3,1,0.3c0.4,0,0.7-0.1,1-0.3
		c0.3-0.2,0.6-0.4,0.7-0.8c0.2-0.3,0.3-0.7,0.3-1.2C332.6,36.2,332.5,35.8,332.3,35.4z"/>
	<path fill="#363636" d="M335.3,35c0.2-0.5,0.6-0.8,1-1.1s1-0.4,1.5-0.4c0.7,0,1.4,0.2,1.8,0.5c0.5,0.4,0.8,0.9,1,1.5h-1.1
		c-0.1-0.4-0.3-0.7-0.6-0.9s-0.7-0.3-1.1-0.3c-0.6,0-1,0.2-1.4,0.6c-0.4,0.4-0.5,0.9-0.5,1.7c0,0.7,0.2,1.3,0.5,1.7
		c0.4,0.4,0.8,0.6,1.4,0.6c0.4,0,0.8-0.1,1.1-0.3c0.3-0.2,0.5-0.5,0.6-0.9h1.1c-0.2,0.6-0.5,1.1-1,1.5c-0.5,0.4-1.1,0.6-1.8,0.6
		c-0.6,0-1.1-0.1-1.5-0.4s-0.8-0.6-1-1.1c-0.2-0.5-0.4-1-0.4-1.7C334.9,36,335,35.5,335.3,35z"/>
	<path fill="#363636" d="M343.2,34.4V38c0,0.3,0.1,0.5,0.2,0.6c0.1,0.1,0.3,0.2,0.6,0.2h0.7v0.8h-0.9c-0.6,0-1-0.1-1.3-0.4
		c-0.3-0.3-0.4-0.7-0.4-1.3v-3.6h-0.8v-0.8h0.8v-1.5h1v1.5h1.6v0.8H343.2z"/>
	<path fill="#363636" d="M346,32.4c-0.1-0.1-0.2-0.3-0.2-0.5c0-0.2,0.1-0.4,0.2-0.5c0.1-0.1,0.3-0.2,0.5-0.2c0.2,0,0.3,0.1,0.5,0.2
		c0.1,0.1,0.2,0.3,0.2,0.5c0,0.2-0.1,0.4-0.2,0.5c-0.1,0.1-0.3,0.2-0.5,0.2C346.3,32.6,346.1,32.6,346,32.4z M347,33.6v6h-1v-6H347z
		"/>
	<path fill="#363636" d="M348.7,35c0.2-0.5,0.6-0.8,1-1.1s1-0.4,1.5-0.4c0.7,0,1.4,0.2,1.8,0.5c0.5,0.4,0.8,0.9,1,1.5h-1.1
		c-0.1-0.4-0.3-0.7-0.6-0.9s-0.7-0.3-1.1-0.3c-0.6,0-1,0.2-1.4,0.6c-0.4,0.4-0.5,0.9-0.5,1.7c0,0.7,0.2,1.3,0.5,1.7
		c0.4,0.4,0.8,0.6,1.4,0.6c0.4,0,0.8-0.1,1.1-0.3c0.3-0.2,0.5-0.5,0.6-0.9h1.1c-0.2,0.6-0.5,1.1-1,1.5c-0.5,0.4-1.1,0.6-1.8,0.6
		c-0.6,0-1.1-0.1-1.5-0.4s-0.8-0.6-1-1.1c-0.2-0.5-0.4-1-0.4-1.7C348.3,36,348.4,35.5,348.7,35z"/>
	<path fill="#363636" d="M355.3,35c0.2-0.5,0.6-0.8,1-1.1c0.4-0.3,0.9-0.4,1.5-0.4c0.5,0,1,0.1,1.4,0.3s0.7,0.5,0.9,0.9v-1.1h1v6h-1
		v-1.1c-0.2,0.4-0.5,0.6-0.9,0.9c-0.4,0.2-0.8,0.3-1.4,0.3c-0.5,0-1-0.1-1.5-0.4s-0.8-0.6-1-1.1c-0.2-0.5-0.4-1-0.4-1.6
		C355,36,355.1,35.5,355.3,35z M359.8,35.4c-0.2-0.3-0.4-0.6-0.7-0.8s-0.7-0.3-1-0.3s-0.7,0.1-1,0.3c-0.3,0.2-0.6,0.4-0.7,0.8
		c-0.2,0.3-0.3,0.7-0.3,1.2c0,0.5,0.1,0.9,0.3,1.2c0.2,0.3,0.4,0.6,0.7,0.8c0.3,0.2,0.6,0.3,1,0.3s0.7-0.1,1-0.3s0.6-0.4,0.7-0.8
		c0.2-0.3,0.3-0.7,0.3-1.2C360.1,36.2,360,35.8,359.8,35.4z"/>
	<path fill="#363636" d="M363.8,31.5v8.1h-1v-8.1H363.8z"/>
	<path fill="#363636" d="M374.2,34.2c-0.2-0.4-0.5-0.8-0.9-1s-0.9-0.4-1.4-0.4s-1,0.1-1.4,0.4c-0.4,0.2-0.8,0.6-1,1.1
		c-0.2,0.5-0.4,1-0.4,1.6s0.1,1.1,0.4,1.6c0.2,0.5,0.6,0.8,1,1.1c0.4,0.2,0.9,0.4,1.4,0.4c0.7,0,1.4-0.2,1.8-0.7
		c0.5-0.4,0.8-1.1,0.8-1.8h-3.1v-0.8h4.1v0.8c-0.1,0.6-0.3,1.2-0.6,1.7s-0.8,0.9-1.3,1.2c-0.5,0.3-1.2,0.5-1.8,0.5
		c-0.7,0-1.4-0.2-1.9-0.5s-1-0.8-1.4-1.4c-0.3-0.6-0.5-1.3-0.5-2s0.2-1.4,0.5-2c0.3-0.6,0.8-1.1,1.4-1.4c0.6-0.3,1.2-0.5,1.9-0.5
		c0.8,0,1.5,0.2,2.2,0.6c0.6,0.4,1.1,1,1.4,1.7H374.2z"/>
	<path fill="#363636" d="M382.3,33.6v6h-1v-0.9c-0.2,0.3-0.5,0.5-0.8,0.7c-0.3,0.2-0.7,0.3-1.1,0.3c-0.5,0-0.9-0.1-1.3-0.3
		s-0.7-0.5-0.9-0.9c-0.2-0.4-0.3-0.9-0.3-1.4v-3.5h1V37c0,0.6,0.2,1.1,0.5,1.4c0.3,0.3,0.7,0.5,1.2,0.5c0.5,0,1-0.2,1.3-0.5
		c0.3-0.3,0.5-0.8,0.5-1.4v-3.3H382.3z"/>
	<path fill="#363636" d="M384,32.4c-0.1-0.1-0.2-0.3-0.2-0.5c0-0.2,0.1-0.4,0.2-0.5s0.3-0.2,0.5-0.2c0.2,0,0.3,0.1,0.5,0.2
		c0.1,0.1,0.2,0.3,0.2,0.5c0,0.2-0.1,0.4-0.2,0.5c-0.1,0.1-0.3,0.2-0.5,0.2C384.3,32.6,384.2,32.6,384,32.4z M385,33.6v6h-1v-6H385z
		"/>
	<path fill="#363636" d="M386.7,35c0.2-0.5,0.6-0.8,1-1.1c0.4-0.3,0.9-0.4,1.5-0.4c0.5,0,0.9,0.1,1.3,0.3c0.4,0.2,0.7,0.5,0.9,0.9
		v-3.2h1v8.1h-1v-1.1c-0.2,0.4-0.5,0.7-0.9,0.9c-0.4,0.2-0.8,0.3-1.4,0.3c-0.5,0-1-0.1-1.5-0.4c-0.4-0.3-0.8-0.6-1-1.1
		c-0.2-0.5-0.4-1-0.4-1.6C386.3,36,386.5,35.5,386.7,35z M391.2,35.4c-0.2-0.3-0.4-0.6-0.7-0.8s-0.7-0.3-1-0.3s-0.7,0.1-1,0.3
		c-0.3,0.2-0.6,0.4-0.7,0.8c-0.2,0.3-0.3,0.7-0.3,1.2c0,0.5,0.1,0.9,0.3,1.2c0.2,0.3,0.4,0.6,0.7,0.8c0.3,0.2,0.6,0.3,1,0.3
		s0.7-0.1,1-0.3s0.6-0.4,0.7-0.8c0.2-0.3,0.3-0.7,0.3-1.2C391.4,36.2,391.4,35.8,391.2,35.4z"/>
	<path fill="#363636" d="M399.6,37h-4.8c0,0.6,0.2,1.1,0.6,1.4c0.4,0.3,0.8,0.5,1.3,0.5c0.4,0,0.8-0.1,1.1-0.3
		c0.3-0.2,0.5-0.5,0.6-0.8h1.1c-0.2,0.6-0.5,1.1-1,1.4c-0.5,0.4-1.1,0.5-1.8,0.5c-0.6,0-1.1-0.1-1.5-0.4c-0.5-0.3-0.8-0.6-1.1-1.1
		c-0.3-0.5-0.4-1-0.4-1.6c0-0.6,0.1-1.2,0.4-1.6c0.2-0.5,0.6-0.8,1.1-1.1c0.5-0.3,1-0.4,1.6-0.4c0.6,0,1.1,0.1,1.5,0.4
		c0.4,0.2,0.8,0.6,1,1s0.4,0.9,0.4,1.5C399.6,36.6,399.6,36.8,399.6,37z M398.4,35.2c-0.2-0.3-0.4-0.5-0.7-0.6
		c-0.3-0.1-0.6-0.2-1-0.2c-0.5,0-0.9,0.2-1.3,0.5s-0.6,0.8-0.6,1.3h3.8C398.6,35.8,398.5,35.5,398.4,35.2z"/>
</g>
<g>
	<path fill="#363636" d="M219.9,49.4v6.3h-1.3v-4.1l-1.7,4.1h-1l-1.7-4.1v4.1H213v-6.3h1.4l2,4.7l2-4.7H219.9z"/>
	<path fill="#363636" d="M221.1,51.8c0.2-0.4,0.5-0.7,0.8-0.9s0.7-0.3,1.2-0.3c0.4,0,0.7,0.1,1,0.2c0.3,0.1,0.5,0.3,0.7,0.6v-0.7
		h1.3v5h-1.3v-0.7c-0.2,0.2-0.4,0.4-0.7,0.6c-0.3,0.2-0.6,0.2-1,0.2c-0.4,0-0.8-0.1-1.1-0.3s-0.6-0.5-0.8-0.9
		c-0.2-0.4-0.3-0.8-0.3-1.4C220.8,52.6,220.9,52.2,221.1,51.8z M224.5,52.4c-0.1-0.2-0.3-0.4-0.5-0.5c-0.2-0.1-0.4-0.2-0.7-0.2
		s-0.4,0.1-0.6,0.2s-0.4,0.3-0.5,0.5c-0.1,0.2-0.2,0.5-0.2,0.8s0.1,0.6,0.2,0.8c0.1,0.2,0.3,0.4,0.5,0.5s0.4,0.2,0.6,0.2
		c0.2,0,0.5-0.1,0.7-0.2c0.2-0.1,0.4-0.3,0.5-0.5c0.1-0.2,0.2-0.5,0.2-0.8C224.7,52.9,224.7,52.6,224.5,52.4z"/>
	<path fill="#363636" d="M230,55.7l-1-1.5l-0.9,1.5h-1.4l1.6-2.5l-1.6-2.5h1.4l1,1.5l0.9-1.5h1.3l-1.6,2.5l1.7,2.5H230z"/>
	<path fill="#363636" d="M232.2,49.9c-0.1-0.1-0.2-0.3-0.2-0.5c0-0.2,0.1-0.4,0.2-0.5c0.1-0.1,0.3-0.2,0.6-0.2
		c0.2,0,0.4,0.1,0.6,0.2c0.1,0.1,0.2,0.3,0.2,0.5c0,0.2-0.1,0.4-0.2,0.5c-0.1,0.1-0.3,0.2-0.6,0.2C232.5,50.1,232.3,50,232.2,49.9z
		 M233.3,50.7v5h-1.3v-5H233.3z"/>
	<path fill="#363636" d="M242.2,51.2c0.4,0.4,0.6,0.9,0.6,1.6v2.9h-1.3v-2.8c0-0.4-0.1-0.7-0.3-0.9c-0.2-0.2-0.5-0.3-0.8-0.3
		c-0.3,0-0.6,0.1-0.8,0.3c-0.2,0.2-0.3,0.5-0.3,0.9v2.8h-1.3v-2.8c0-0.4-0.1-0.7-0.3-0.9c-0.2-0.2-0.5-0.3-0.8-0.3
		c-0.3,0-0.6,0.1-0.8,0.3c-0.2,0.2-0.3,0.5-0.3,0.9v2.8h-1.3v-5h1.3v0.6c0.2-0.2,0.4-0.4,0.6-0.5s0.5-0.2,0.8-0.2
		c0.4,0,0.7,0.1,1,0.2s0.5,0.4,0.7,0.7c0.2-0.3,0.4-0.5,0.7-0.7s0.6-0.3,1-0.3C241.4,50.6,241.9,50.8,242.2,51.2z"/>
	<path fill="#363636" d="M244.1,49.9c-0.1-0.1-0.2-0.3-0.2-0.5c0-0.2,0.1-0.4,0.2-0.5c0.1-0.1,0.3-0.2,0.6-0.2
		c0.2,0,0.4,0.1,0.6,0.2c0.1,0.1,0.2,0.3,0.2,0.5c0,0.2-0.1,0.4-0.2,0.5c-0.1,0.1-0.3,0.2-0.6,0.2C244.4,50.1,244.2,50,244.1,49.9z
		 M245.3,50.7v5H244v-5H245.3z"/>
	<path fill="#363636" d="M247.8,49v6.7h-1.3V49H247.8z"/>
	<path fill="#363636" d="M249.1,49.9c-0.1-0.1-0.2-0.3-0.2-0.5c0-0.2,0.1-0.4,0.2-0.5c0.1-0.1,0.3-0.2,0.6-0.2
		c0.2,0,0.4,0.1,0.6,0.2c0.1,0.1,0.2,0.3,0.2,0.5c0,0.2-0.1,0.4-0.2,0.5c-0.1,0.1-0.3,0.2-0.6,0.2C249.4,50.1,249.2,50,249.1,49.9z
		 M250.3,50.7v5H249v-5H250.3z"/>
	<path fill="#363636" d="M251.5,51.8c0.2-0.4,0.5-0.7,0.8-0.9s0.7-0.3,1.2-0.3c0.4,0,0.7,0.1,1,0.2c0.3,0.1,0.5,0.3,0.7,0.6v-0.7
		h1.3v5h-1.3v-0.7c-0.2,0.2-0.4,0.4-0.7,0.6c-0.3,0.2-0.6,0.2-1,0.2c-0.4,0-0.8-0.1-1.1-0.3s-0.6-0.5-0.8-0.9
		c-0.2-0.4-0.3-0.8-0.3-1.4C251.2,52.6,251.3,52.2,251.5,51.8z M254.9,52.4c-0.1-0.2-0.3-0.4-0.5-0.5c-0.2-0.1-0.4-0.2-0.7-0.2
		s-0.4,0.1-0.6,0.2s-0.4,0.3-0.5,0.5c-0.1,0.2-0.2,0.5-0.2,0.8s0.1,0.6,0.2,0.8c0.1,0.2,0.3,0.4,0.5,0.5s0.4,0.2,0.6,0.2
		c0.2,0,0.5-0.1,0.7-0.2c0.2-0.1,0.4-0.3,0.5-0.5c0.1-0.2,0.2-0.5,0.2-0.8C255.1,52.9,255.1,52.6,254.9,52.4z"/>
	<path fill="#363636" d="M261.8,51.2c0.4,0.4,0.5,0.9,0.5,1.6v2.9h-1.3v-2.8c0-0.4-0.1-0.7-0.3-0.9c-0.2-0.2-0.5-0.3-0.8-0.3
		c-0.3,0-0.6,0.1-0.8,0.3c-0.2,0.2-0.3,0.5-0.3,0.9v2.8h-1.3v-5h1.3v0.6c0.2-0.2,0.4-0.4,0.6-0.5s0.5-0.2,0.9-0.2
		C261,50.6,261.5,50.8,261.8,51.2z"/>
	<path fill="#363636" d="M266.7,55.5c-0.4-0.1-0.6-0.4-0.8-0.6c-0.2-0.3-0.3-0.6-0.3-1h1.3c0,0.3,0.1,0.5,0.3,0.6
		c0.2,0.2,0.4,0.2,0.7,0.2c0.3,0,0.5-0.1,0.7-0.2c0.2-0.1,0.3-0.3,0.3-0.6c0-0.2-0.1-0.3-0.2-0.5c-0.1-0.1-0.3-0.2-0.4-0.3
		s-0.4-0.1-0.7-0.2c-0.4-0.1-0.7-0.2-1-0.4s-0.5-0.3-0.7-0.5c-0.2-0.2-0.3-0.6-0.3-0.9c0-0.4,0.1-0.7,0.3-1c0.2-0.3,0.4-0.5,0.8-0.6
		c0.3-0.1,0.7-0.2,1.2-0.2c0.6,0,1.2,0.2,1.6,0.5c0.4,0.3,0.6,0.8,0.7,1.3h-1.4c0-0.2-0.1-0.4-0.3-0.5c-0.2-0.1-0.4-0.2-0.7-0.2
		c-0.2,0-0.4,0.1-0.6,0.2c-0.1,0.1-0.2,0.3-0.2,0.5c0,0.2,0.1,0.3,0.2,0.4c0.1,0.1,0.2,0.2,0.4,0.3s0.4,0.1,0.7,0.2
		c0.4,0.1,0.7,0.2,1,0.4s0.5,0.3,0.7,0.5c0.2,0.2,0.3,0.6,0.3,0.9c0,0.3-0.1,0.6-0.3,0.9s-0.4,0.5-0.8,0.7s-0.7,0.3-1.2,0.3
		C267.4,55.7,267,55.7,266.7,55.5z"/>
	<path fill="#363636" d="M271.2,51.8c0.2-0.4,0.5-0.7,0.9-0.9s0.8-0.3,1.3-0.3c0.6,0,1.1,0.2,1.5,0.5c0.4,0.3,0.7,0.7,0.8,1.3h-1.4
		c-0.1-0.2-0.2-0.4-0.4-0.5s-0.4-0.2-0.6-0.2c-0.4,0-0.6,0.1-0.9,0.4s-0.3,0.6-0.3,1.1c0,0.5,0.1,0.8,0.3,1.1s0.5,0.4,0.9,0.4
		c0.5,0,0.8-0.2,1-0.7h1.4c-0.1,0.5-0.4,1-0.8,1.3c-0.4,0.3-0.9,0.5-1.5,0.5c-0.5,0-0.9-0.1-1.3-0.3s-0.7-0.5-0.9-0.9
		s-0.3-0.8-0.3-1.4C270.9,52.7,271,52.2,271.2,51.8z"/>
	<path fill="#363636" d="M280.4,50.9c0.3,0.2,0.5,0.4,0.7,0.7c0.2,0.3,0.2,0.7,0.2,1.2v2.9h-1.3v-2.8c0-0.4-0.1-0.7-0.3-0.9
		c-0.2-0.2-0.5-0.3-0.8-0.3c-0.3,0-0.6,0.1-0.8,0.3c-0.2,0.2-0.3,0.5-0.3,0.9v2.8h-1.3V49h1.3v2.3c0.2-0.2,0.4-0.4,0.6-0.5
		c0.3-0.1,0.6-0.2,0.9-0.2C279.8,50.6,280.1,50.7,280.4,50.9z"/>
	<path fill="#363636" d="M289.5,50.7l-1.5,5h-1.4l-0.9-3.5l-0.9,3.5h-1.4l-1.5-5h1.3l0.9,3.8l1-3.8h1.3l0.9,3.8l0.9-3.8H289.5z"/>
	<path fill="#363636" d="M290.1,51.8c0.2-0.4,0.5-0.7,0.8-0.9c0.3-0.2,0.7-0.3,1.2-0.3c0.4,0,0.7,0.1,1,0.2c0.3,0.1,0.5,0.3,0.7,0.6
		v-0.7h1.3v5h-1.3v-0.7c-0.2,0.2-0.4,0.4-0.7,0.6s-0.6,0.2-1,0.2c-0.4,0-0.8-0.1-1.1-0.3c-0.3-0.2-0.6-0.5-0.8-0.9
		c-0.2-0.4-0.3-0.8-0.3-1.4C289.8,52.6,289.9,52.2,290.1,51.8z M293.6,52.4c-0.1-0.2-0.3-0.4-0.5-0.5c-0.2-0.1-0.4-0.2-0.7-0.2
		c-0.2,0-0.5,0.1-0.6,0.2s-0.4,0.3-0.5,0.5c-0.1,0.2-0.2,0.5-0.2,0.8s0.1,0.6,0.2,0.8c0.1,0.2,0.3,0.4,0.5,0.5s0.4,0.2,0.6,0.2
		c0.2,0,0.5-0.1,0.7-0.2c0.2-0.1,0.4-0.3,0.5-0.5c0.1-0.2,0.2-0.5,0.2-0.8C293.8,52.9,293.7,52.6,293.6,52.4z"/>
	<path fill="#363636" d="M298.1,50.8c0.3-0.1,0.6-0.2,0.9-0.2v1.3h-0.3c-0.4,0-0.7,0.1-0.9,0.3c-0.2,0.2-0.3,0.5-0.3,1v2.5h-1.3v-5
		h1.3v0.8C297.7,51.2,297.9,51,298.1,50.8z"/>
	<path fill="#363636" d="M301,54.6h2.2v1h-3.7v-1l2.2-2.9h-2.2v-1h3.6v1L301,54.6z"/>
	<path fill="#363636" d="M311.9,51.2c0.4,0.4,0.6,0.9,0.6,1.6v2.9h-1.3v-2.8c0-0.4-0.1-0.7-0.3-0.9s-0.5-0.3-0.8-0.3
		c-0.3,0-0.6,0.1-0.8,0.3c-0.2,0.2-0.3,0.5-0.3,0.9v2.8h-1.3v-2.8c0-0.4-0.1-0.7-0.3-0.9c-0.2-0.2-0.5-0.3-0.8-0.3
		c-0.3,0-0.6,0.1-0.8,0.3c-0.2,0.2-0.3,0.5-0.3,0.9v2.8h-1.3v-5h1.3v0.6c0.2-0.2,0.4-0.4,0.6-0.5s0.5-0.2,0.8-0.2
		c0.4,0,0.7,0.1,1,0.2c0.3,0.2,0.5,0.4,0.7,0.7c0.2-0.3,0.4-0.5,0.7-0.7c0.3-0.2,0.6-0.3,1-0.3C311,50.6,311.5,50.8,311.9,51.2z"/>
	<path fill="#363636" d="M318.4,50.7v5h-1.3V55c-0.2,0.2-0.4,0.4-0.6,0.5c-0.3,0.1-0.5,0.2-0.9,0.2c-0.4,0-0.7-0.1-1-0.2
		s-0.5-0.4-0.7-0.7c-0.2-0.3-0.3-0.7-0.3-1.1v-2.9h1.3v2.7c0,0.4,0.1,0.7,0.3,0.9c0.2,0.2,0.5,0.3,0.8,0.3c0.3,0,0.6-0.1,0.8-0.3
		c0.2-0.2,0.3-0.5,0.3-0.9v-2.7H318.4z M314.8,49.9c-0.1-0.1-0.2-0.3-0.2-0.4s0.1-0.3,0.2-0.4c0.1-0.1,0.3-0.2,0.4-0.2
		s0.3,0.1,0.4,0.2c0.1,0.1,0.2,0.3,0.2,0.4s-0.1,0.3-0.2,0.4c-0.1,0.1-0.3,0.2-0.4,0.2S314.9,50,314.8,49.9z M316.4,49.9
		c-0.1-0.1-0.2-0.3-0.2-0.4s0.1-0.3,0.2-0.4c0.1-0.1,0.3-0.2,0.4-0.2s0.3,0.1,0.4,0.2c0.1,0.1,0.2,0.3,0.2,0.4s-0.1,0.3-0.2,0.4
		c-0.1,0.1-0.3,0.2-0.4,0.2S316.5,50,316.4,49.9z"/>
	<path fill="#363636" d="M320.9,49v6.7h-1.3V49H320.9z"/>
	<path fill="#363636" d="M323.4,49v6.7h-1.3V49H323.4z"/>
	<path fill="#363636" d="M329.2,53.5h-3.6c0,0.4,0.2,0.6,0.4,0.8c0.2,0.2,0.5,0.3,0.8,0.3c0.5,0,0.8-0.2,1-0.6h1.4
		c-0.1,0.5-0.4,0.9-0.8,1.2c-0.4,0.3-0.9,0.5-1.5,0.5c-0.5,0-0.9-0.1-1.3-0.3c-0.4-0.2-0.7-0.5-0.9-0.9c-0.2-0.4-0.3-0.8-0.3-1.4
		c0-0.5,0.1-1,0.3-1.4c0.2-0.4,0.5-0.7,0.9-0.9s0.8-0.3,1.3-0.3c0.5,0,0.9,0.1,1.3,0.3s0.7,0.5,0.9,0.9s0.3,0.8,0.3,1.3
		C329.3,53.2,329.2,53.4,329.2,53.5z M327.9,52.7c0-0.3-0.1-0.6-0.4-0.8c-0.2-0.2-0.5-0.3-0.8-0.3c-0.3,0-0.6,0.1-0.8,0.3
		c-0.2,0.2-0.3,0.5-0.4,0.8H327.9z"/>
	<path fill="#363636" d="M332.1,50.8c0.3-0.1,0.6-0.2,0.9-0.2v1.3h-0.3c-0.4,0-0.7,0.1-0.9,0.3c-0.2,0.2-0.3,0.5-0.3,1v2.5h-1.3v-5
		h1.3v0.8C331.6,51.2,331.8,51,332.1,50.8z"/>
	<path fill="#363636" d="M335.2,54.3l-1.1,2.5h-0.8l0.6-2.5H335.2z"/>
	<path fill="#363636" d="M341.6,49.4v3.9c0,0.4,0.1,0.8,0.3,1c0.2,0.2,0.5,0.3,0.9,0.3c0.4,0,0.7-0.1,0.9-0.3c0.2-0.2,0.3-0.5,0.3-1
		v-3.9h1.3v3.9c0,0.5-0.1,1-0.3,1.4c-0.2,0.4-0.5,0.6-0.9,0.8c-0.4,0.2-0.8,0.3-1.3,0.3c-0.5,0-0.9-0.1-1.3-0.3
		c-0.4-0.2-0.7-0.5-0.9-0.8s-0.3-0.8-0.3-1.4v-3.9H341.6z"/>
	<path fill="#363636" d="M346.6,51.8c0.2-0.4,0.5-0.7,0.8-0.9c0.3-0.2,0.7-0.3,1.2-0.3c0.3,0,0.6,0.1,0.9,0.2s0.5,0.3,0.7,0.6V49
		h1.3v6.7h-1.3v-0.7c-0.2,0.2-0.4,0.4-0.7,0.6c-0.3,0.1-0.6,0.2-1,0.2c-0.4,0-0.8-0.1-1.2-0.3c-0.3-0.2-0.6-0.5-0.8-0.9
		c-0.2-0.4-0.3-0.8-0.3-1.4C346.3,52.6,346.4,52.2,346.6,51.8z M350.1,52.4c-0.1-0.2-0.3-0.4-0.5-0.5c-0.2-0.1-0.4-0.2-0.7-0.2
		c-0.2,0-0.5,0.1-0.6,0.2s-0.4,0.3-0.5,0.5c-0.1,0.2-0.2,0.5-0.2,0.8s0.1,0.6,0.2,0.8c0.1,0.2,0.3,0.4,0.5,0.5s0.4,0.2,0.6,0.2
		c0.2,0,0.5-0.1,0.7-0.2c0.2-0.1,0.4-0.3,0.5-0.5c0.1-0.2,0.2-0.5,0.2-0.8C350.3,52.9,350.2,52.6,350.1,52.4z"/>
	<path fill="#363636" d="M357.4,53.5h-3.6c0,0.4,0.2,0.6,0.4,0.8c0.2,0.2,0.5,0.3,0.8,0.3c0.5,0,0.8-0.2,1-0.6h1.4
		c-0.1,0.5-0.4,0.9-0.8,1.2c-0.4,0.3-0.9,0.5-1.5,0.5c-0.5,0-0.9-0.1-1.3-0.3c-0.4-0.2-0.7-0.5-0.9-0.9c-0.2-0.4-0.3-0.8-0.3-1.4
		c0-0.5,0.1-1,0.3-1.4c0.2-0.4,0.5-0.7,0.9-0.9s0.8-0.3,1.3-0.3c0.5,0,0.9,0.1,1.3,0.3s0.7,0.5,0.9,0.9s0.3,0.8,0.3,1.3
		C357.4,53.2,357.4,53.4,357.4,53.5z M356.1,52.7c0-0.3-0.1-0.6-0.4-0.8c-0.2-0.2-0.5-0.3-0.8-0.3c-0.3,0-0.6,0.1-0.8,0.3
		c-0.2,0.2-0.3,0.5-0.4,0.8H356.1z"/>
	<path fill="#363636" d="M366,51.2c0.4,0.4,0.6,0.9,0.6,1.6v2.9h-1.3v-2.8c0-0.4-0.1-0.7-0.3-0.9s-0.5-0.3-0.8-0.3
		c-0.3,0-0.6,0.1-0.8,0.3c-0.2,0.2-0.3,0.5-0.3,0.9v2.8h-1.3v-2.8c0-0.4-0.1-0.7-0.3-0.9c-0.2-0.2-0.5-0.3-0.8-0.3
		c-0.3,0-0.6,0.1-0.8,0.3c-0.2,0.2-0.3,0.5-0.3,0.9v2.8h-1.3v-5h1.3v0.6c0.2-0.2,0.4-0.4,0.6-0.5s0.5-0.2,0.8-0.2
		c0.4,0,0.7,0.1,1,0.2c0.3,0.2,0.5,0.4,0.7,0.7c0.2-0.3,0.4-0.5,0.7-0.7c0.3-0.2,0.6-0.3,1-0.3C365.1,50.6,365.6,50.8,366,51.2z"/>
	<path fill="#363636" d="M372.5,50.7l-3.1,7.3h-1.3l1.1-2.5l-2-4.9h1.4l1.3,3.5l1.3-3.5H372.5z"/>
</g>
<g>
	<path fill="#363636" d="M218,85.8v0.8h-2.1v6.9h-1v-6.9h-2.1v-0.8H218z"/>
	<path fill="#363636" d="M223.4,87.6c0.4,0.2,0.7,0.5,0.9,0.9s0.3,0.9,0.3,1.4v3.6h-1v-3.4c0-0.6-0.2-1.1-0.5-1.4
		c-0.3-0.3-0.7-0.5-1.2-0.5c-0.5,0-0.9,0.2-1.3,0.5c-0.3,0.3-0.5,0.8-0.5,1.4v3.3h-1v-8.1h1v3c0.2-0.3,0.5-0.5,0.8-0.7
		s0.7-0.3,1.2-0.3C222.6,87.4,223.1,87.5,223.4,87.6z"/>
	<path fill="#363636" d="M231.7,90.9h-4.8c0,0.6,0.2,1.1,0.6,1.4c0.4,0.3,0.8,0.5,1.3,0.5c0.4,0,0.8-0.1,1.1-0.3
		c0.3-0.2,0.5-0.5,0.6-0.8h1.1c-0.2,0.6-0.5,1.1-1,1.4c-0.5,0.4-1.1,0.5-1.8,0.5c-0.6,0-1.1-0.1-1.5-0.4s-0.8-0.6-1.1-1.1
		c-0.3-0.5-0.4-1-0.4-1.6c0-0.6,0.1-1.2,0.4-1.6c0.2-0.5,0.6-0.8,1.1-1.1c0.5-0.3,1-0.4,1.6-0.4c0.6,0,1.1,0.1,1.5,0.4s0.8,0.6,1,1
		s0.4,0.9,0.4,1.5C231.7,90.4,231.7,90.6,231.7,90.9z M230.5,89.1c-0.2-0.3-0.4-0.5-0.7-0.6c-0.3-0.1-0.6-0.2-1-0.2
		c-0.5,0-0.9,0.2-1.3,0.5c-0.4,0.3-0.6,0.8-0.6,1.3h3.8C230.7,89.7,230.6,89.3,230.5,89.1z"/>
	<path fill="#363636" d="M236.1,87.6c0.3-0.6,0.8-1.1,1.4-1.4c0.6-0.3,1.2-0.5,1.9-0.5c0.8,0,1.6,0.2,2.2,0.6c0.6,0.4,1.1,1,1.4,1.7
		h-1.2c-0.2-0.5-0.5-0.8-0.9-1.1c-0.4-0.2-0.9-0.4-1.4-0.4c-0.5,0-1,0.1-1.4,0.4s-0.8,0.6-1,1.1c-0.2,0.5-0.4,1-0.4,1.6
		c0,0.6,0.1,1.1,0.4,1.6c0.2,0.5,0.6,0.8,1,1.1s0.9,0.4,1.4,0.4c0.6,0,1-0.1,1.4-0.4c0.4-0.2,0.7-0.6,0.9-1.1h1.2
		c-0.3,0.7-0.7,1.3-1.4,1.7c-0.6,0.4-1.4,0.6-2.2,0.6c-0.7,0-1.4-0.2-1.9-0.5s-1-0.8-1.4-1.4s-0.5-1.3-0.5-2S235.8,88.2,236.1,87.6z
		"/>
	<path fill="#363636" d="M245.6,93.2c-0.5-0.3-0.8-0.6-1.1-1.1c-0.3-0.5-0.4-1-0.4-1.6c0-0.6,0.1-1.2,0.4-1.6
		c0.3-0.5,0.6-0.8,1.1-1.1c0.5-0.3,1-0.4,1.6-0.4s1.1,0.1,1.6,0.4c0.5,0.3,0.8,0.6,1.1,1.1c0.3,0.5,0.4,1,0.4,1.6
		c0,0.6-0.1,1.2-0.4,1.6c-0.3,0.5-0.6,0.8-1.1,1.1s-1,0.4-1.6,0.4C246.5,93.6,246,93.5,245.6,93.2z M248.1,92.5
		c0.3-0.2,0.6-0.4,0.8-0.8s0.3-0.7,0.3-1.2c0-0.5-0.1-0.9-0.3-1.2c-0.2-0.3-0.4-0.6-0.7-0.8c-0.3-0.2-0.6-0.2-1-0.2
		c-0.4,0-0.7,0.1-1,0.2s-0.5,0.4-0.7,0.8c-0.2,0.3-0.3,0.7-0.3,1.2c0,0.5,0.1,0.9,0.3,1.2c0.2,0.3,0.4,0.6,0.7,0.8s0.6,0.2,1,0.2
		S247.8,92.6,248.1,92.5z"/>
	<path fill="#363636" d="M260,87.6c0.4,0.2,0.7,0.5,0.9,0.9s0.3,0.9,0.3,1.4v3.6h-1v-3.4c0-0.6-0.1-1.1-0.4-1.4
		c-0.3-0.3-0.7-0.5-1.2-0.5c-0.5,0-0.9,0.2-1.2,0.5c-0.3,0.3-0.5,0.8-0.5,1.4v3.3h-1v-3.4c0-0.6-0.1-1.1-0.4-1.4
		c-0.3-0.3-0.7-0.5-1.2-0.5c-0.5,0-0.9,0.2-1.2,0.5s-0.5,0.8-0.5,1.4v3.3h-1v-6h1v0.9c0.2-0.3,0.5-0.6,0.8-0.7
		c0.3-0.2,0.7-0.3,1.1-0.3c0.5,0,1,0.1,1.3,0.3s0.7,0.6,0.9,1c0.2-0.4,0.4-0.8,0.8-1c0.4-0.2,0.8-0.4,1.3-0.4
		C259.2,87.4,259.7,87.5,260,87.6z"/>
	<path fill="#363636" d="M264.7,87.7c0.4-0.2,0.8-0.3,1.4-0.3c0.5,0,1,0.1,1.5,0.4c0.4,0.3,0.8,0.6,1,1.1s0.4,1,0.4,1.6
		c0,0.6-0.1,1.2-0.4,1.6s-0.6,0.8-1,1.1c-0.4,0.3-0.9,0.4-1.5,0.4c-0.5,0-1-0.1-1.4-0.3c-0.4-0.2-0.7-0.5-0.9-0.9v4h-1v-8.9h1v1.1
		C264.1,88.2,264.3,87.9,264.7,87.7z M267.7,89.3c-0.2-0.3-0.4-0.6-0.7-0.8s-0.7-0.3-1-0.3c-0.4,0-0.7,0.1-1,0.3s-0.6,0.4-0.7,0.8
		c-0.2,0.3-0.3,0.7-0.3,1.2c0,0.5,0.1,0.9,0.3,1.2c0.2,0.3,0.4,0.6,0.7,0.8s0.7,0.3,1,0.3c0.4,0,0.7-0.1,1-0.3s0.6-0.4,0.7-0.8
		c0.2-0.3,0.3-0.7,0.3-1.2C267.9,90,267.9,89.6,267.7,89.3z"/>
	<path fill="#363636" d="M271.3,85.4v8.1h-1v-8.1H271.3z"/>
	<path fill="#363636" d="M278.5,90.9h-4.8c0,0.6,0.2,1.1,0.6,1.4c0.4,0.3,0.8,0.5,1.3,0.5c0.4,0,0.8-0.1,1.1-0.3
		c0.3-0.2,0.5-0.5,0.6-0.8h1.1c-0.2,0.6-0.5,1.1-1,1.4c-0.5,0.4-1.1,0.5-1.8,0.5c-0.6,0-1.1-0.1-1.5-0.4s-0.8-0.6-1.1-1.1
		c-0.3-0.5-0.4-1-0.4-1.6c0-0.6,0.1-1.2,0.4-1.6c0.2-0.5,0.6-0.8,1-1.1c0.5-0.3,1-0.4,1.6-0.4c0.6,0,1.1,0.1,1.5,0.4
		c0.4,0.2,0.8,0.6,1,1s0.4,0.9,0.4,1.5C278.5,90.4,278.5,90.6,278.5,90.9z M277.2,89.1c-0.2-0.3-0.4-0.5-0.7-0.6
		c-0.3-0.1-0.6-0.2-1-0.2c-0.5,0-0.9,0.2-1.3,0.5c-0.4,0.3-0.6,0.8-0.6,1.3h3.8C277.5,89.7,277.4,89.3,277.2,89.1z"/>
	<path fill="#363636" d="M281,88.3v3.6c0,0.3,0.1,0.5,0.2,0.6c0.1,0.1,0.3,0.2,0.6,0.2h0.7v0.8h-0.9c-0.6,0-1-0.1-1.3-0.4
		c-0.3-0.3-0.4-0.7-0.4-1.3v-3.6h-0.8v-0.8h0.8v-1.5h1v1.5h1.6v0.8H281z"/>
	<path fill="#363636" d="M289.3,90.9h-4.8c0,0.6,0.2,1.1,0.6,1.4c0.4,0.3,0.8,0.5,1.3,0.5c0.4,0,0.8-0.1,1.1-0.3
		c0.3-0.2,0.5-0.5,0.6-0.8h1.1c-0.2,0.6-0.5,1.1-1,1.4s-1.1,0.5-1.8,0.5c-0.6,0-1.1-0.1-1.5-0.4s-0.8-0.6-1.1-1.1
		c-0.3-0.5-0.4-1-0.4-1.6c0-0.6,0.1-1.2,0.4-1.6c0.2-0.5,0.6-0.8,1.1-1.1c0.5-0.3,1-0.4,1.6-0.4c0.6,0,1.1,0.1,1.5,0.4
		c0.4,0.2,0.8,0.6,1,1s0.4,0.9,0.4,1.5C289.3,90.4,289.3,90.6,289.3,90.9z M288,89.1c-0.2-0.3-0.4-0.5-0.7-0.6
		c-0.3-0.1-0.6-0.2-1-0.2c-0.5,0-0.9,0.2-1.3,0.5s-0.6,0.8-0.6,1.3h3.8C288.3,89.7,288.2,89.3,288,89.1z"/>
	<path fill="#363636" d="M295.5,90.8c0.5-0.5,1-1,1.3-1.5c0.4-0.5,0.5-1,0.5-1.5c0-0.5-0.1-0.9-0.3-1.1c-0.2-0.3-0.6-0.4-1.1-0.4
		c-0.5,0-0.9,0.2-1.2,0.5c-0.3,0.3-0.4,0.7-0.4,1.2h-1c0-0.8,0.3-1.5,0.7-1.9c0.5-0.4,1.1-0.7,1.8-0.7c0.8,0,1.4,0.2,1.8,0.6
		s0.7,1,0.7,1.7c0,0.6-0.2,1.2-0.5,1.8c-0.4,0.6-0.8,1.1-1.2,1.5s-1.1,0.9-1.8,1.5h3.8v0.8h-5.3v-0.7
		C294.2,91.9,295,91.3,295.5,90.8z"/>
	<path fill="#363636" d="M300.4,86.5c0.4-0.7,1.1-1.1,2.2-1.1c1,0,1.7,0.4,2.1,1.1c0.4,0.7,0.6,1.7,0.6,3c0,1.3-0.2,2.3-0.6,3
		c-0.4,0.7-1.1,1.1-2.1,1.1c-1,0-1.7-0.4-2.2-1.1c-0.4-0.7-0.6-1.7-0.6-3C299.7,88.2,299.9,87.2,300.4,86.5z M304.2,87.8
		c-0.1-0.4-0.3-0.8-0.5-1.1c-0.3-0.3-0.6-0.4-1.1-0.4c-0.5,0-0.9,0.1-1.1,0.4c-0.3,0.3-0.4,0.6-0.5,1.1c-0.1,0.4-0.1,1-0.1,1.6
		c0,0.7,0,1.2,0.1,1.7c0.1,0.4,0.3,0.8,0.5,1.1c0.3,0.3,0.6,0.4,1.1,0.4c0.5,0,0.9-0.1,1.1-0.4c0.3-0.3,0.4-0.6,0.5-1.1
		c0.1-0.4,0.1-1,0.1-1.7C304.3,88.8,304.2,88.3,304.2,87.8z"/>
	<path fill="#363636" d="M308.7,90.8c0.5-0.5,1-1,1.3-1.5s0.5-1,0.5-1.5c0-0.5-0.1-0.9-0.3-1.1c-0.2-0.3-0.6-0.4-1.1-0.4
		c-0.5,0-0.9,0.2-1.2,0.5s-0.4,0.7-0.4,1.2h-1c0-0.8,0.3-1.5,0.7-1.9c0.5-0.4,1.1-0.7,1.8-0.7c0.8,0,1.4,0.2,1.8,0.6
		c0.4,0.4,0.7,1,0.7,1.7c0,0.6-0.2,1.2-0.5,1.8c-0.4,0.6-0.8,1.1-1.2,1.5s-1.1,0.9-1.8,1.5h3.8v0.8h-5.3v-0.7
		C307.5,91.9,308.2,91.3,308.7,90.8z"/>
	<path fill="#363636" d="M312.7,86.5v-0.9h2.1v8h-1v-7H312.7z"/>
	<path fill="#363636" d="M323.9,85.8v0.8h-3.3v2.6h2.7V90h-2.7v3.5h-1v-7.7H323.9z"/>
	<path fill="#363636" d="M326.1,85.4v8.1h-1v-8.1H326.1z"/>
	<path fill="#363636" d="M333.2,87.5v6h-1v-0.9c-0.2,0.3-0.5,0.5-0.8,0.7c-0.3,0.2-0.7,0.3-1.1,0.3c-0.5,0-0.9-0.1-1.3-0.3
		s-0.7-0.5-0.9-0.9c-0.2-0.4-0.3-0.9-0.3-1.4v-3.5h1v3.4c0,0.6,0.2,1.1,0.5,1.4c0.3,0.3,0.7,0.5,1.2,0.5c0.5,0,1-0.2,1.3-0.5
		c0.3-0.3,0.5-0.8,0.5-1.4v-3.3H333.2z"/>
	<path fill="#363636" d="M336.1,88.3v3.6c0,0.3,0.1,0.5,0.2,0.6c0.1,0.1,0.3,0.2,0.6,0.2h0.7v0.8h-0.9c-0.6,0-1-0.1-1.3-0.4
		c-0.3-0.3-0.4-0.7-0.4-1.3v-3.6h-0.8v-0.8h0.8v-1.5h1v1.5h1.6v0.8H336.1z"/>
	<path fill="#363636" d="M340.1,88.3v3.6c0,0.3,0.1,0.5,0.2,0.6c0.1,0.1,0.3,0.2,0.6,0.2h0.7v0.8h-0.9c-0.6,0-1-0.1-1.3-0.4
		c-0.3-0.3-0.4-0.7-0.4-1.3v-3.6h-0.8v-0.8h0.8v-1.5h1v1.5h1.6v0.8H340.1z"/>
	<path fill="#363636" d="M348.4,90.9h-4.8c0,0.6,0.2,1.1,0.6,1.4c0.4,0.3,0.8,0.5,1.3,0.5c0.4,0,0.8-0.1,1.1-0.3
		c0.3-0.2,0.5-0.5,0.6-0.8h1.1c-0.2,0.6-0.5,1.1-1,1.4c-0.5,0.4-1.1,0.5-1.8,0.5c-0.6,0-1.1-0.1-1.5-0.4s-0.8-0.6-1.1-1.1
		c-0.3-0.5-0.4-1-0.4-1.6c0-0.6,0.1-1.2,0.4-1.6c0.2-0.5,0.6-0.8,1-1.1c0.5-0.3,1-0.4,1.6-0.4c0.6,0,1.1,0.1,1.5,0.4
		c0.4,0.2,0.8,0.6,1,1s0.4,0.9,0.4,1.5C348.4,90.4,348.4,90.6,348.4,90.9z M347.1,89.1c-0.2-0.3-0.4-0.5-0.7-0.6
		c-0.3-0.1-0.6-0.2-1-0.2c-0.5,0-0.9,0.2-1.3,0.5c-0.4,0.3-0.6,0.8-0.6,1.3h3.8C347.4,89.7,347.3,89.3,347.1,89.1z"/>
	<path fill="#363636" d="M351.5,87.6c0.3-0.2,0.7-0.3,1.2-0.3v1h-0.3c-1.1,0-1.7,0.6-1.7,1.8v3.3h-1v-6h1v1
		C350.9,88.1,351.1,87.8,351.5,87.6z"/>
	<path fill="#363636" d="M361.3,86.3c0.6,0.3,1.1,0.8,1.4,1.3c0.3,0.6,0.5,1.3,0.5,2c0,0.8-0.2,1.5-0.5,2c-0.3,0.6-0.8,1-1.4,1.3
		c-0.6,0.3-1.3,0.5-2.2,0.5h-2.4v-7.7h2.4C360,85.8,360.7,86,361.3,86.3z M361.4,91.9c0.5-0.5,0.8-1.3,0.8-2.2c0-1-0.3-1.7-0.8-2.2
		s-1.3-0.8-2.3-0.8h-1.4v6h1.4C360.1,92.7,360.9,92.4,361.4,91.9z"/>
	<path fill="#363636" d="M370,90.9h-4.8c0,0.6,0.2,1.1,0.6,1.4c0.4,0.3,0.8,0.5,1.3,0.5c0.4,0,0.8-0.1,1.1-0.3
		c0.3-0.2,0.5-0.5,0.6-0.8h1.1c-0.2,0.6-0.5,1.1-1,1.4c-0.5,0.4-1.1,0.5-1.8,0.5c-0.6,0-1.1-0.1-1.5-0.4s-0.8-0.6-1.1-1.1
		c-0.3-0.5-0.4-1-0.4-1.6c0-0.6,0.1-1.2,0.4-1.6c0.2-0.5,0.6-0.8,1-1.1c0.5-0.3,1-0.4,1.6-0.4c0.6,0,1.1,0.1,1.5,0.4
		c0.4,0.2,0.8,0.6,1,1s0.4,0.9,0.4,1.5C370,90.4,370,90.6,370,90.9z M368.7,89.1c-0.2-0.3-0.4-0.5-0.7-0.6c-0.3-0.1-0.6-0.2-1-0.2
		c-0.5,0-0.9,0.2-1.3,0.5c-0.4,0.3-0.6,0.8-0.6,1.3h3.8C369,89.7,368.9,89.3,368.7,89.1z"/>
	<path fill="#363636" d="M373.6,92.6l1.9-5.1h1.1l-2.4,6H373l-2.4-6h1.1L373.6,92.6z"/>
	<path fill="#363636" d="M383,90.9h-4.8c0,0.6,0.2,1.1,0.6,1.4c0.4,0.3,0.8,0.5,1.3,0.5c0.4,0,0.8-0.1,1.1-0.3
		c0.3-0.2,0.5-0.5,0.6-0.8h1.1c-0.2,0.6-0.5,1.1-1,1.4c-0.5,0.4-1.1,0.5-1.8,0.5c-0.6,0-1.1-0.1-1.5-0.4c-0.5-0.3-0.8-0.6-1.1-1.1
		c-0.3-0.5-0.4-1-0.4-1.6c0-0.6,0.1-1.2,0.4-1.6c0.2-0.5,0.6-0.8,1.1-1.1c0.5-0.3,1-0.4,1.6-0.4c0.6,0,1.1,0.1,1.5,0.4
		c0.4,0.2,0.8,0.6,1,1s0.4,0.9,0.4,1.5C383,90.4,383,90.6,383,90.9z M381.7,89.1c-0.2-0.3-0.4-0.5-0.7-0.6c-0.3-0.1-0.6-0.2-1-0.2
		c-0.5,0-0.9,0.2-1.3,0.5s-0.6,0.8-0.6,1.3h3.8C382,89.7,381.9,89.3,381.7,89.1z"/>
	<path fill="#363636" d="M385.3,85.4v8.1h-1v-8.1H385.3z"/>
	<path fill="#363636" d="M388.1,93.2c-0.5-0.3-0.8-0.6-1.1-1.1c-0.3-0.5-0.4-1-0.4-1.6c0-0.6,0.1-1.2,0.4-1.6
		c0.3-0.5,0.6-0.8,1.1-1.1c0.5-0.3,1-0.4,1.6-0.4c0.6,0,1.1,0.1,1.6,0.4c0.5,0.3,0.8,0.6,1.1,1.1c0.3,0.5,0.4,1,0.4,1.6
		c0,0.6-0.1,1.2-0.4,1.6c-0.3,0.5-0.6,0.8-1.1,1.1c-0.5,0.3-1,0.4-1.6,0.4C389.1,93.6,388.6,93.5,388.1,93.2z M390.7,92.5
		c0.3-0.2,0.6-0.4,0.8-0.8c0.2-0.3,0.3-0.7,0.3-1.2c0-0.5-0.1-0.9-0.3-1.2s-0.4-0.6-0.7-0.8c-0.3-0.2-0.6-0.2-1-0.2
		c-0.4,0-0.7,0.1-1,0.2c-0.3,0.2-0.5,0.4-0.7,0.8c-0.2,0.3-0.3,0.7-0.3,1.2c0,0.5,0.1,0.9,0.3,1.2c0.2,0.3,0.4,0.6,0.7,0.8
		c0.3,0.2,0.6,0.2,1,0.2S390.4,92.6,390.7,92.5z"/>
	<path fill="#363636" d="M396,87.7c0.4-0.2,0.8-0.3,1.4-0.3c0.5,0,1,0.1,1.5,0.4s0.8,0.6,1,1.1s0.4,1,0.4,1.6c0,0.6-0.1,1.2-0.4,1.6
		s-0.6,0.8-1,1.1s-0.9,0.4-1.5,0.4c-0.5,0-1-0.1-1.4-0.3c-0.4-0.2-0.7-0.5-0.9-0.9v4h-1v-8.9h1v1.1C395.3,88.2,395.6,87.9,396,87.7z
		 M398.9,89.3c-0.2-0.3-0.4-0.6-0.7-0.8c-0.3-0.2-0.7-0.3-1-0.3c-0.4,0-0.7,0.1-1,0.3c-0.3,0.2-0.6,0.4-0.7,0.8
		c-0.2,0.3-0.3,0.7-0.3,1.2c0,0.5,0.1,0.9,0.3,1.2c0.2,0.3,0.4,0.6,0.7,0.8c0.3,0.2,0.7,0.3,1,0.3c0.4,0,0.7-0.1,1-0.3
		c0.3-0.2,0.6-0.4,0.7-0.8c0.2-0.3,0.3-0.7,0.3-1.2C399.2,90,399.1,89.6,398.9,89.3z"/>
	<path fill="#363636" d="M410,87.6c0.4,0.2,0.7,0.5,0.9,0.9s0.3,0.9,0.3,1.4v3.6h-1v-3.4c0-0.6-0.1-1.1-0.4-1.4
		c-0.3-0.3-0.7-0.5-1.2-0.5c-0.5,0-0.9,0.2-1.2,0.5c-0.3,0.3-0.5,0.8-0.5,1.4v3.3h-1v-3.4c0-0.6-0.1-1.1-0.4-1.4
		c-0.3-0.3-0.7-0.5-1.2-0.5c-0.5,0-0.9,0.2-1.2,0.5c-0.3,0.3-0.5,0.8-0.5,1.4v3.3h-1v-6h1v0.9c0.2-0.3,0.5-0.6,0.8-0.7
		s0.7-0.3,1.1-0.3c0.5,0,1,0.1,1.3,0.3s0.7,0.6,0.9,1c0.2-0.4,0.4-0.8,0.8-1c0.4-0.2,0.8-0.4,1.3-0.4
		C409.2,87.4,409.7,87.5,410,87.6z"/>
	<path fill="#363636" d="M418.3,90.9h-4.8c0,0.6,0.2,1.1,0.6,1.4c0.4,0.3,0.8,0.5,1.3,0.5c0.4,0,0.8-0.1,1.1-0.3
		c0.3-0.2,0.5-0.5,0.6-0.8h1.1c-0.2,0.6-0.5,1.1-1,1.4c-0.5,0.4-1.1,0.5-1.8,0.5c-0.6,0-1.1-0.1-1.5-0.4c-0.5-0.3-0.8-0.6-1.1-1.1
		c-0.3-0.5-0.4-1-0.4-1.6c0-0.6,0.1-1.2,0.4-1.6c0.2-0.5,0.6-0.8,1.1-1.1c0.5-0.3,1-0.4,1.6-0.4c0.6,0,1.1,0.1,1.5,0.4
		c0.4,0.2,0.8,0.6,1,1s0.4,0.9,0.4,1.5C418.3,90.4,418.3,90.6,418.3,90.9z M417.1,89.1c-0.2-0.3-0.4-0.5-0.7-0.6
		c-0.3-0.1-0.6-0.2-1-0.2c-0.5,0-0.9,0.2-1.3,0.5s-0.6,0.8-0.6,1.3h3.8C417.3,89.7,417.2,89.3,417.1,89.1z"/>
	<path fill="#363636" d="M424.4,88c0.5,0.4,0.7,1.1,0.7,1.9v3.6h-1v-3.4c0-0.6-0.2-1.1-0.5-1.4c-0.3-0.3-0.7-0.5-1.2-0.5
		c-0.5,0-0.9,0.2-1.3,0.5c-0.3,0.3-0.5,0.8-0.5,1.4v3.3h-1v-6h1v0.9c0.2-0.3,0.5-0.5,0.8-0.7s0.7-0.3,1.1-0.3
		C423.3,87.4,423.9,87.6,424.4,88z"/>
	<path fill="#363636" d="M427.9,88.3v3.6c0,0.3,0.1,0.5,0.2,0.6s0.3,0.2,0.6,0.2h0.7v0.8h-0.9c-0.6,0-1-0.1-1.3-0.4
		c-0.3-0.3-0.4-0.7-0.4-1.3v-3.6h-0.8v-0.8h0.8v-1.5h1v1.5h1.6v0.8H427.9z"/>
	<path fill="#363636" d="M217.9,106.9c0.2,0.2,0.4,0.4,0.5,0.7s0.2,0.6,0.2,0.9c0,0.4-0.1,0.7-0.3,1c-0.2,0.3-0.5,0.6-0.9,0.7
		c-0.4,0.2-0.8,0.3-1.3,0.3h-2.9v-7.7h2.8c0.5,0,1,0.1,1.3,0.3c0.4,0.2,0.6,0.4,0.8,0.7s0.3,0.6,0.3,1c0,0.5-0.1,0.8-0.4,1.1
		c-0.2,0.3-0.6,0.5-1,0.6C217.4,106.6,217.6,106.7,217.9,106.9z M214.2,106.1h1.7c0.5,0,0.8-0.1,1.1-0.3c0.3-0.2,0.4-0.5,0.4-0.9
		s-0.1-0.7-0.4-0.9c-0.3-0.2-0.6-0.3-1.1-0.3h-1.7V106.1z M217.2,109.3c0.3-0.2,0.4-0.6,0.4-1c0-0.4-0.1-0.8-0.4-1
		c-0.3-0.2-0.7-0.4-1.2-0.4h-1.7v2.7h1.8C216.5,109.7,216.9,109.6,217.2,109.3z"/>
	<path fill="#363636" d="M221.1,110.2c-0.5-0.3-0.8-0.6-1.1-1.1c-0.3-0.5-0.4-1-0.4-1.6c0-0.6,0.1-1.2,0.4-1.6
		c0.3-0.5,0.6-0.8,1.1-1.1c0.5-0.3,1-0.4,1.6-0.4s1.1,0.1,1.6,0.4c0.5,0.3,0.8,0.6,1.1,1.1c0.3,0.5,0.4,1,0.4,1.6
		c0,0.6-0.1,1.2-0.4,1.6c-0.3,0.5-0.6,0.8-1.1,1.1s-1,0.4-1.6,0.4C222.1,110.6,221.5,110.5,221.1,110.2z M223.6,109.5
		c0.3-0.2,0.6-0.4,0.8-0.8s0.3-0.7,0.3-1.2c0-0.5-0.1-0.9-0.3-1.2c-0.2-0.3-0.4-0.6-0.7-0.8c-0.3-0.2-0.6-0.2-1-0.2
		c-0.4,0-0.7,0.1-1,0.2s-0.5,0.4-0.7,0.8c-0.2,0.3-0.3,0.7-0.3,1.2c0,0.5,0.1,0.9,0.3,1.2c0.2,0.3,0.4,0.6,0.7,0.8s0.6,0.2,1,0.2
		S223.3,109.6,223.6,109.5z"/>
	<path fill="#363636" d="M228.1,110.2c-0.5-0.3-0.8-0.6-1.1-1.1c-0.3-0.5-0.4-1-0.4-1.6c0-0.6,0.1-1.2,0.4-1.6
		c0.3-0.5,0.6-0.8,1.1-1.1c0.5-0.3,1-0.4,1.6-0.4s1.1,0.1,1.6,0.4c0.5,0.3,0.8,0.6,1.1,1.1c0.3,0.5,0.4,1,0.4,1.6
		c0,0.6-0.1,1.2-0.4,1.6c-0.3,0.5-0.6,0.8-1.1,1.1s-1,0.4-1.6,0.4C229.1,110.6,228.6,110.5,228.1,110.2z M230.7,109.5
		c0.3-0.2,0.6-0.4,0.8-0.8s0.3-0.7,0.3-1.2c0-0.5-0.1-0.9-0.3-1.2c-0.2-0.3-0.4-0.6-0.7-0.8c-0.3-0.2-0.6-0.2-1-0.2
		c-0.4,0-0.7,0.1-1,0.2s-0.5,0.4-0.7,0.8c-0.2,0.3-0.3,0.7-0.3,1.2c0,0.5,0.1,0.9,0.3,1.2c0.2,0.3,0.4,0.6,0.7,0.8s0.6,0.2,1,0.2
		S230.4,109.6,230.7,109.5z"/>
	<path fill="#363636" d="M235.3,105.3v3.6c0,0.3,0.1,0.5,0.2,0.6s0.3,0.2,0.6,0.2h0.7v0.8H236c-0.6,0-1-0.1-1.3-0.4
		s-0.4-0.7-0.4-1.3v-3.6h-0.8v-0.8h0.8v-1.5h1v1.5h1.6v0.8H235.3z"/>
	<path fill="#363636" d="M238.1,105.8c0.2-0.5,0.6-0.8,1-1.1c0.4-0.3,1-0.4,1.5-0.4c0.7,0,1.4,0.2,1.8,0.5c0.5,0.4,0.8,0.9,1,1.5
		h-1.1c-0.1-0.4-0.3-0.7-0.6-0.9c-0.3-0.2-0.7-0.3-1.1-0.3c-0.6,0-1,0.2-1.4,0.6s-0.5,0.9-0.5,1.7c0,0.7,0.2,1.3,0.5,1.7
		c0.4,0.4,0.8,0.6,1.4,0.6c0.4,0,0.8-0.1,1.1-0.3c0.3-0.2,0.5-0.5,0.6-0.9h1.1c-0.2,0.6-0.5,1.1-1,1.5c-0.5,0.4-1.1,0.6-1.8,0.6
		c-0.6,0-1.1-0.1-1.5-0.4c-0.4-0.3-0.8-0.6-1-1.1c-0.2-0.5-0.4-1-0.4-1.7C237.7,106.8,237.8,106.3,238.1,105.8z"/>
	<path fill="#363636" d="M244.8,105.8c0.2-0.5,0.6-0.8,1-1.1c0.4-0.3,0.9-0.4,1.5-0.4c0.5,0,1,0.1,1.4,0.3s0.7,0.5,0.9,0.9v-1.1h1v6
		h-1v-1.1c-0.2,0.4-0.5,0.6-0.9,0.9c-0.4,0.2-0.8,0.3-1.4,0.3c-0.5,0-1-0.1-1.5-0.4c-0.4-0.3-0.8-0.6-1-1.1c-0.2-0.5-0.4-1-0.4-1.6
		C244.4,106.8,244.5,106.3,244.8,105.8z M249.2,106.3c-0.2-0.3-0.4-0.6-0.7-0.8c-0.3-0.2-0.7-0.3-1-0.3c-0.4,0-0.7,0.1-1,0.3
		c-0.3,0.2-0.6,0.4-0.7,0.8c-0.2,0.3-0.3,0.7-0.3,1.2c0,0.5,0.1,0.9,0.3,1.2c0.2,0.3,0.4,0.6,0.7,0.8c0.3,0.2,0.6,0.3,1,0.3
		c0.4,0,0.7-0.1,1-0.3c0.3-0.2,0.6-0.4,0.7-0.8c0.2-0.3,0.3-0.7,0.3-1.2C249.5,107,249.4,106.6,249.2,106.3z"/>
	<path fill="#363636" d="M260.7,104.6c0.4,0.2,0.7,0.5,0.9,0.9s0.3,0.9,0.3,1.4v3.6h-1v-3.4c0-0.6-0.1-1.1-0.4-1.4
		c-0.3-0.3-0.7-0.5-1.2-0.5c-0.5,0-0.9,0.2-1.2,0.5c-0.3,0.3-0.5,0.8-0.5,1.4v3.3h-1v-3.4c0-0.6-0.1-1.1-0.4-1.4
		c-0.3-0.3-0.7-0.5-1.2-0.5c-0.5,0-0.9,0.2-1.2,0.5s-0.5,0.8-0.5,1.4v3.3h-1v-6h1v0.9c0.2-0.3,0.5-0.6,0.8-0.7
		c0.3-0.2,0.7-0.3,1.1-0.3c0.5,0,1,0.1,1.3,0.3s0.7,0.6,0.9,1c0.2-0.4,0.4-0.8,0.8-1c0.4-0.2,0.8-0.4,1.3-0.4
		C259.9,104.4,260.3,104.5,260.7,104.6z"/>
	<path fill="#363636" d="M265.4,104.7c0.4-0.2,0.8-0.3,1.4-0.3c0.5,0,1,0.1,1.5,0.4c0.4,0.3,0.8,0.6,1,1.1s0.4,1,0.4,1.6
		c0,0.6-0.1,1.2-0.4,1.6s-0.6,0.8-1,1.1c-0.4,0.3-0.9,0.4-1.5,0.4c-0.5,0-1-0.1-1.4-0.3c-0.4-0.2-0.7-0.5-0.9-0.9v4h-1v-8.9h1v1.1
		C264.7,105.2,265,104.9,265.4,104.7z M268.3,106.3c-0.2-0.3-0.4-0.6-0.7-0.8s-0.7-0.3-1-0.3c-0.4,0-0.7,0.1-1,0.3s-0.6,0.4-0.7,0.8
		c-0.2,0.3-0.3,0.7-0.3,1.2c0,0.5,0.1,0.9,0.3,1.2c0.2,0.3,0.4,0.6,0.7,0.8s0.7,0.3,1,0.3c0.4,0,0.7-0.1,1-0.3s0.6-0.4,0.7-0.8
		c0.2-0.3,0.3-0.7,0.3-1.2C268.6,107,268.5,106.6,268.3,106.3z"/>
	<path fill="#363636" d="M281.9,104.5l-1.9,6h-1l-1.5-4.8l-1.5,4.8h-1l-1.9-6h1l1.4,5.1l1.5-5.1h1l1.5,5.1l1.4-5.1H281.9z"/>
	<path fill="#363636" d="M282.9,103.3c-0.1-0.1-0.2-0.3-0.2-0.5c0-0.2,0.1-0.4,0.2-0.5c0.1-0.1,0.3-0.2,0.5-0.2
		c0.2,0,0.3,0.1,0.5,0.2c0.1,0.1,0.2,0.3,0.2,0.5c0,0.2-0.1,0.4-0.2,0.5c-0.1,0.1-0.3,0.2-0.5,0.2
		C283.2,103.5,283.1,103.4,282.9,103.3z M283.9,104.5v6h-1v-6H283.9z"/>
	<path fill="#363636" d="M286.8,105.3v3.6c0,0.3,0.1,0.5,0.2,0.6c0.1,0.1,0.3,0.2,0.6,0.2h0.7v0.8h-0.9c-0.6,0-1-0.1-1.3-0.4
		c-0.3-0.3-0.4-0.7-0.4-1.3v-3.6h-0.8v-0.8h0.8v-1.5h1v1.5h1.6v0.8H286.8z"/>
	<path fill="#363636" d="M293.8,104.6c0.4,0.2,0.7,0.5,0.9,0.9s0.3,0.9,0.3,1.4v3.6h-1v-3.4c0-0.6-0.2-1.1-0.5-1.4
		c-0.3-0.3-0.7-0.5-1.2-0.5c-0.5,0-0.9,0.2-1.3,0.5c-0.3,0.3-0.5,0.8-0.5,1.4v3.3h-1v-8.1h1v3c0.2-0.3,0.5-0.5,0.8-0.7
		c0.3-0.2,0.7-0.3,1.2-0.3C293.1,104.4,293.5,104.5,293.8,104.6z"/>
	<path fill="#363636" d="M304.2,103.3c0.6,0.3,1.1,0.8,1.4,1.3c0.3,0.6,0.5,1.3,0.5,2c0,0.8-0.2,1.5-0.5,2c-0.3,0.6-0.8,1-1.4,1.3
		c-0.6,0.3-1.3,0.5-2.2,0.5h-2.4v-7.7h2.4C302.8,102.8,303.5,103,304.2,103.3z M304.2,108.9c0.5-0.5,0.8-1.3,0.8-2.2
		c0-1-0.3-1.7-0.8-2.2s-1.3-0.8-2.3-0.8h-1.4v6h1.4C303,109.7,303.7,109.4,304.2,108.9z"/>
	<path fill="#363636" d="M307.4,105.8c0.2-0.5,0.6-0.8,1-1.1c0.4-0.3,0.9-0.4,1.5-0.4c0.5,0,1,0.1,1.4,0.3s0.7,0.5,0.9,0.9v-1.1h1v6
		h-1v-1.1c-0.2,0.4-0.5,0.6-0.9,0.9c-0.4,0.2-0.8,0.3-1.4,0.3c-0.5,0-1-0.1-1.5-0.4s-0.8-0.6-1-1.1c-0.2-0.5-0.4-1-0.4-1.6
		C307,106.8,307.1,106.3,307.4,105.8z M311.8,106.3c-0.2-0.3-0.4-0.6-0.7-0.8s-0.7-0.3-1-0.3s-0.7,0.1-1,0.3
		c-0.3,0.2-0.6,0.4-0.7,0.8c-0.2,0.3-0.3,0.7-0.3,1.2c0,0.5,0.1,0.9,0.3,1.2c0.2,0.3,0.4,0.6,0.7,0.8c0.3,0.2,0.6,0.3,1,0.3
		s0.7-0.1,1-0.3s0.6-0.4,0.7-0.8c0.2-0.3,0.3-0.7,0.3-1.2C312.1,107,312,106.6,311.8,106.3z"/>
	<path fill="#363636" d="M316.6,104.6c0.3-0.2,0.7-0.3,1.2-0.3v1h-0.3c-1.1,0-1.7,0.6-1.7,1.8v3.3h-1v-6h1v1
		C316,105.1,316.2,104.8,316.6,104.6z"/>
	<path fill="#363636" d="M320.1,105.3v3.6c0,0.3,0.1,0.5,0.2,0.6c0.1,0.1,0.3,0.2,0.6,0.2h0.7v0.8h-0.9c-0.6,0-1-0.1-1.3-0.4
		c-0.3-0.3-0.4-0.7-0.4-1.3v-3.6h-0.8v-0.8h0.8v-1.5h1v1.5h1.6v0.8H320.1z"/>
</g>
<g>
	<path fill="#363636" d="M217,122.1c0.5,0.3,0.9,0.6,1.2,1.1c0.3,0.5,0.4,1,0.4,1.7s-0.1,1.2-0.4,1.7c-0.3,0.5-0.7,0.8-1.2,1.1
		s-1.1,0.4-1.7,0.4H213v-6.3h2.2C215.9,121.7,216.5,121.9,217,122.1z M216.7,126.4c0.4-0.4,0.5-0.9,0.5-1.5s-0.2-1.2-0.5-1.5
		c-0.4-0.4-0.9-0.6-1.5-0.6h-0.9v4.1h0.9C215.8,126.9,216.3,126.8,216.7,126.4z"/>
	<path fill="#363636" d="M221.4,123.2c0.3-0.1,0.6-0.2,0.9-0.2v1.3h-0.3c-0.4,0-0.7,0.1-0.9,0.3c-0.2,0.2-0.3,0.5-0.3,1v2.5h-1.3v-5
		h1.3v0.8C220.9,123.5,221.1,123.3,221.4,123.2z"/>
	<path fill="#363636" d="M223.1,127.9c-0.1-0.1-0.2-0.3-0.2-0.5s0.1-0.4,0.2-0.5c0.1-0.1,0.3-0.2,0.6-0.2c0.2,0,0.4,0.1,0.5,0.2
		c0.1,0.1,0.2,0.3,0.2,0.5s-0.1,0.4-0.2,0.5s-0.3,0.2-0.5,0.2C223.4,128.1,223.3,128,223.1,127.9z"/>
	<path fill="#363636" d="M231.4,126.8h-2.5l-0.4,1.2h-1.3l2.3-6.3h1.5l2.3,6.3h-1.3L231.4,126.8z M231.1,125.8l-0.9-2.6l-0.9,2.6
		H231.1z"/>
	<path fill="#363636" d="M238.2,123.5c0.4,0.4,0.5,0.9,0.5,1.6v2.9h-1.3v-2.8c0-0.4-0.1-0.7-0.3-0.9c-0.2-0.2-0.5-0.3-0.8-0.3
		c-0.3,0-0.6,0.1-0.8,0.3c-0.2,0.2-0.3,0.5-0.3,0.9v2.8H234v-5h1.3v0.6c0.2-0.2,0.4-0.4,0.6-0.5c0.3-0.1,0.5-0.2,0.9-0.2
		C237.4,123,237.9,123.1,238.2,123.5z"/>
	<path fill="#363636" d="M242.9,123.2c0.3,0.1,0.5,0.3,0.7,0.6V123h1.3v5c0,0.5-0.1,0.9-0.3,1.2s-0.5,0.7-0.8,0.9s-0.8,0.3-1.4,0.3
		c-0.7,0-1.3-0.2-1.7-0.5c-0.5-0.3-0.7-0.8-0.8-1.3h1.3c0.1,0.2,0.2,0.4,0.4,0.5s0.5,0.2,0.8,0.2c0.4,0,0.7-0.1,0.9-0.3
		s0.3-0.6,0.3-1v-0.8c-0.2,0.2-0.4,0.4-0.7,0.6c-0.3,0.2-0.6,0.2-1,0.2c-0.4,0-0.8-0.1-1.2-0.3s-0.6-0.5-0.8-0.9
		c-0.2-0.4-0.3-0.8-0.3-1.4c0-0.5,0.1-1,0.3-1.3c0.2-0.4,0.5-0.7,0.8-0.9s0.7-0.3,1.2-0.3C242.3,122.9,242.6,123,242.9,123.2z
		 M243.4,124.7c-0.1-0.2-0.3-0.4-0.5-0.5c-0.2-0.1-0.4-0.2-0.7-0.2s-0.4,0.1-0.6,0.2s-0.4,0.3-0.5,0.5c-0.1,0.2-0.2,0.5-0.2,0.8
		s0.1,0.6,0.2,0.8c0.1,0.2,0.3,0.4,0.5,0.5s0.4,0.2,0.6,0.2c0.2,0,0.5-0.1,0.7-0.2c0.2-0.1,0.4-0.3,0.5-0.5c0.1-0.2,0.2-0.5,0.2-0.8
		C243.6,125.2,243.5,125,243.4,124.7z"/>
	<path fill="#363636" d="M250.7,125.9H247c0,0.4,0.2,0.6,0.4,0.8c0.2,0.2,0.5,0.3,0.8,0.3c0.5,0,0.8-0.2,1-0.6h1.4
		c-0.1,0.5-0.4,0.9-0.8,1.2c-0.4,0.3-0.9,0.5-1.5,0.5c-0.5,0-0.9-0.1-1.3-0.3c-0.4-0.2-0.7-0.5-0.9-0.9c-0.2-0.4-0.3-0.8-0.3-1.4
		c0-0.5,0.1-1,0.3-1.4c0.2-0.4,0.5-0.7,0.9-0.9s0.8-0.3,1.3-0.3c0.5,0,0.9,0.1,1.3,0.3s0.7,0.5,0.9,0.9s0.3,0.8,0.3,1.3
		C250.7,125.6,250.7,125.8,250.7,125.9z M249.4,125.1c0-0.3-0.1-0.6-0.4-0.8c-0.2-0.2-0.5-0.3-0.8-0.3c-0.3,0-0.6,0.1-0.8,0.3
		c-0.2,0.2-0.3,0.5-0.4,0.8H249.4z"/>
	<path fill="#363636" d="M252.9,121.4v6.7h-1.3v-6.7H252.9z"/>
	<path fill="#363636" d="M254.1,124.2c0.2-0.4,0.5-0.7,0.8-0.9s0.7-0.3,1.2-0.3c0.4,0,0.7,0.1,1,0.2c0.3,0.1,0.5,0.3,0.7,0.6V123
		h1.3v5h-1.3v-0.7c-0.2,0.2-0.4,0.4-0.7,0.6c-0.3,0.2-0.6,0.2-1,0.2c-0.4,0-0.8-0.1-1.1-0.3s-0.6-0.5-0.8-0.9
		c-0.2-0.4-0.3-0.8-0.3-1.4C253.8,125,253.9,124.6,254.1,124.2z M257.6,124.7c-0.1-0.2-0.3-0.4-0.5-0.5c-0.2-0.1-0.4-0.2-0.7-0.2
		s-0.4,0.1-0.6,0.2s-0.4,0.3-0.5,0.5c-0.1,0.2-0.2,0.5-0.2,0.8s0.1,0.6,0.2,0.8c0.1,0.2,0.3,0.4,0.5,0.5s0.4,0.2,0.6,0.2
		c0.2,0,0.5-0.1,0.7-0.2c0.2-0.1,0.4-0.3,0.5-0.5c0.1-0.2,0.2-0.5,0.2-0.8C257.7,125.2,257.7,125,257.6,124.7z"/>
	<path fill="#363636" d="M267.4,121.7l-2.1,4.1v2.2H264v-2.2l-2.1-4.1h1.4l1.4,2.9l1.3-2.9H267.4z"/>
	<path fill="#363636" d="M272.8,123v5h-1.3v-0.6c-0.2,0.2-0.4,0.4-0.6,0.5c-0.3,0.1-0.5,0.2-0.9,0.2c-0.4,0-0.7-0.1-1-0.2
		s-0.5-0.4-0.7-0.7c-0.2-0.3-0.3-0.7-0.3-1.1V123h1.3v2.7c0,0.4,0.1,0.7,0.3,0.9c0.2,0.2,0.5,0.3,0.8,0.3c0.3,0,0.6-0.1,0.8-0.3
		c0.2-0.2,0.3-0.5,0.3-0.9V123H272.8z"/>
	<path fill="#363636" d="M275.4,126.7l-1.1,2.5h-0.8l0.6-2.5H275.4z"/>
	<path fill="#363636" d="M279.7,121.7v3.9c0,0.4,0.1,0.8,0.3,1c0.2,0.2,0.5,0.3,0.9,0.3c0.4,0,0.7-0.1,0.9-0.3
		c0.2-0.2,0.3-0.5,0.3-1v-3.9h1.3v3.9c0,0.5-0.1,1-0.3,1.4c-0.2,0.4-0.5,0.6-0.9,0.8c-0.4,0.2-0.8,0.3-1.3,0.3
		c-0.5,0-0.9-0.1-1.3-0.3c-0.4-0.2-0.7-0.5-0.9-0.8c-0.2-0.4-0.3-0.8-0.3-1.4v-3.9H279.7z"/>
	<path fill="#363636" d="M284.7,124.2c0.2-0.4,0.5-0.7,0.8-0.9c0.3-0.2,0.7-0.3,1.2-0.3c0.3,0,0.6,0.1,0.9,0.2s0.5,0.3,0.7,0.6v-2.4
		h1.3v6.7h-1.3v-0.7c-0.2,0.2-0.4,0.4-0.7,0.6c-0.3,0.1-0.6,0.2-1,0.2c-0.4,0-0.8-0.1-1.2-0.3c-0.3-0.2-0.6-0.5-0.8-0.9
		c-0.2-0.4-0.3-0.8-0.3-1.4C284.4,125,284.5,124.6,284.7,124.2z M288.2,124.7c-0.1-0.2-0.3-0.4-0.5-0.5c-0.2-0.1-0.4-0.2-0.7-0.2
		c-0.2,0-0.4,0.1-0.6,0.2s-0.4,0.3-0.5,0.5c-0.1,0.2-0.2,0.5-0.2,0.8s0.1,0.6,0.2,0.8c0.1,0.2,0.3,0.4,0.5,0.5s0.4,0.2,0.6,0.2
		c0.2,0,0.5-0.1,0.7-0.2c0.2-0.1,0.4-0.3,0.5-0.5c0.1-0.2,0.2-0.5,0.2-0.8C288.4,125.2,288.3,125,288.2,124.7z"/>
	<path fill="#363636" d="M295.5,125.9h-3.6c0,0.4,0.2,0.6,0.4,0.8c0.2,0.2,0.5,0.3,0.8,0.3c0.5,0,0.8-0.2,1-0.6h1.4
		c-0.1,0.5-0.4,0.9-0.8,1.2c-0.4,0.3-0.9,0.5-1.5,0.5c-0.5,0-0.9-0.1-1.3-0.3s-0.7-0.5-0.9-0.9c-0.2-0.4-0.3-0.8-0.3-1.4
		c0-0.5,0.1-1,0.3-1.4c0.2-0.4,0.5-0.7,0.9-0.9s0.8-0.3,1.3-0.3c0.5,0,0.9,0.1,1.3,0.3s0.7,0.5,0.9,0.9s0.3,0.8,0.3,1.3
		C295.5,125.6,295.5,125.8,295.5,125.9z M294.2,125.1c0-0.3-0.1-0.6-0.4-0.8c-0.2-0.2-0.5-0.3-0.8-0.3c-0.3,0-0.6,0.1-0.8,0.3
		c-0.2,0.2-0.3,0.5-0.4,0.8H294.2z"/>
	<path fill="#363636" d="M304.1,123.5c0.4,0.4,0.6,0.9,0.6,1.6v2.9h-1.3v-2.8c0-0.4-0.1-0.7-0.3-0.9c-0.2-0.2-0.5-0.3-0.8-0.3
		s-0.6,0.1-0.8,0.3s-0.3,0.5-0.3,0.9v2.8h-1.3v-2.8c0-0.4-0.1-0.7-0.3-0.9s-0.5-0.3-0.8-0.3c-0.3,0-0.6,0.1-0.8,0.3
		s-0.3,0.5-0.3,0.9v2.8h-1.3v-5h1.3v0.6c0.2-0.2,0.4-0.4,0.6-0.5s0.5-0.2,0.8-0.2c0.4,0,0.7,0.1,1,0.2c0.3,0.2,0.5,0.4,0.7,0.7
		c0.2-0.3,0.4-0.5,0.7-0.7c0.3-0.2,0.6-0.3,1-0.3C303.2,123,303.7,123.1,304.1,123.5z"/>
	<path fill="#363636" d="M310.6,123l-3.1,7.3h-1.3l1.1-2.5l-2-4.9h1.4l1.3,3.5l1.3-3.5H310.6z"/>
</g>
<path fill="#FFA300" d="M113.1,120.6c-0.2-0.6-0.7-1.1-1.3-1.1L108,119l-1.6-3.4c-0.3-0.6-0.9-0.9-1.5-0.9c-0.7,0-1.2,0.3-1.5,0.9
	l-1.6,3.4l-3.7,0.5c-0.6,0.1-1.1,0.5-1.3,1.1c-0.2,0.6,0,1.3,0.4,1.7l2.7,2.6l-0.6,3.7c-0.1,0.6,0.1,1.3,0.7,1.7
	c0.5,0.4,1.2,0.4,1.7,0.1l3.3-1.7l3.3,1.7c0.3,0.1,0.5,0.2,0.8,0.2c0.3,0,0.7-0.1,1-0.3c0.5-0.4,0.8-1,0.7-1.7l-0.6-3.7l2.7-2.6
	C113.1,121.9,113.3,121.2,113.1,120.6z"/>
<path fill="#FFA300" d="M92.9,120.6c-0.2-0.6-0.7-1.1-1.3-1.1l-3.7-0.5l-1.6-3.4c-0.3-0.6-0.9-0.9-1.5-0.9c-0.7,0-1.2,0.3-1.5,0.9
	l-1.6,3.4l-3.7,0.5c-0.6,0.1-1.1,0.5-1.3,1.1c-0.2,0.6,0,1.3,0.4,1.7l2.7,2.6l-0.6,3.7c-0.1,0.6,0.1,1.3,0.7,1.7
	c0.5,0.4,1.2,0.4,1.7,0.1l3.3-1.7l3.3,1.7c0.3,0.1,0.5,0.2,0.8,0.2c0.3,0,0.7-0.1,1-0.3c0.5-0.4,0.8-1,0.7-1.7L90,125l2.7-2.6
	C92.9,121.9,93.1,121.2,92.9,120.6z"/>
<path fill="#D4D4D4" d="M133.3,120.6c-0.2-0.6-0.7-1.1-1.3-1.1l-3.7-0.5l-1.6-3.4c-0.3-0.6-0.9-0.9-1.5-0.9s-1.2,0.3-1.5,0.9
	l-1.6,3.4l-3.7,0.5c-0.6,0.1-1.1,0.5-1.3,1.1c-0.2,0.6,0,1.3,0.4,1.7l2.7,2.6l-0.6,3.7c-0.1,0.6,0.1,1.3,0.7,1.7
	c0.5,0.4,1.2,0.4,1.7,0.1l3.3-1.7l3.3,1.7c0.3,0.1,0.5,0.2,0.8,0.2c0.3,0,0.7-0.1,1-0.3c0.5-0.4,0.8-1,0.7-1.7l-0.6-3.7l2.7-2.6
	C133.3,121.9,133.5,121.2,133.3,120.6z"/>
<g id="_x30_N4swW_00000109725031407930276340000014024252357424931468_">
	<path fill="#363636" d="M128.3,36.9c0-0.6,0-1.1,0-1.7c1.7-0.1,3.3,1.4,3.5,3.1c0,0.3,0,0.5,0,0.8c0,9.8,0,19.6,0,29.4
		c0,2.5-1.4,4-4,4c-5.4,0-10.9,0-16.3,0c-0.2,0-0.5,0-0.8,0c0.5,1.8,1,3.5,1.6,5.2c0.2,0.6,0.2,1.4,0.6,1.7c0.4,0.3,1.2,0.1,1.8,0.2
		c0,0,0.1,0,0.2,0c0,0.6,0,1.1,0,1.7c-6.5,0-13,0-19.5,0c0-0.6,0-1.1,0-1.8c0.5,0,1.1,0,1.6,0c0.2,0,0.4-0.1,0.4-0.3
		c0.7-2.2,1.4-4.5,2.1-6.8c-0.3,0-0.5,0-0.8,0c-5.4,0-10.9,0-16.3,0c-2.5,0-4-1.5-4-4c0-9.9,0-19.7,0-29.6c0-2.1,1.3-3.6,3.3-3.8
		c0.1,0,0.2,0,0.3,0c0,0.6,0,1.1,0,1.7c-1.4,0.5-1.7,0.9-1.7,2.4c0,8.5,0,16.9,0,25.4c0,0.2,0,0.5,0,0.7c16.6,0,33.2,0,49.8,0
		c0-0.3,0-0.5,0-0.7c0-8.5,0-16.9,0-25.4C130.1,37.7,129.7,37.3,128.3,36.9z M80.3,67.2c0,0.7,0,1.4,0,2.1c0,0.3,0.2,0.5,0.3,0.7
		c0.4,0.6,1,0.7,1.7,0.7c15.2,0,30.4,0,45.5,0c0.1,0,0.3,0,0.4,0c0.8,0,1.6-0.6,1.7-1.4c0.1-0.7,0-1.4,0-2.1
		C113.4,67.2,96.9,67.2,80.3,67.2z M99.3,79.6c4,0,7.9,0,11.8,0c-0.7-2.4-1.4-4.7-2.1-7c-2.6,0-5.1,0-7.6,0
		C100.7,74.9,100,77.2,99.3,79.6z"/>
	<path fill="#363636" d="M105.2,63.6c-5.8,0-11.7,0-17.5,0c-1.8,0-3.2-1-3.6-2.6c-0.1-0.4-0.1-0.9-0.1-1.3c0-9.2,0-18.5,0-27.7
		c0-2.5,1.5-3.9,4-3.9c11.6,0,23.2,0,34.8,0c1.9,0,3.2,0.9,3.7,2.6c0.1,0.4,0.1,0.9,0.1,1.3c0,9.3,0,18.5,0,27.8
		c0,2.5-1.4,3.9-3.9,3.9C116.8,63.6,111,63.6,105.2,63.6z M105.1,61.8c5.8,0,11.6,0,17.4,0c1.6,0,2.3-1,2.3-2.3c0-9.2,0-18.3,0-27.5
		c0-1.6-0.6-2.2-2.2-2.2c-11.6,0-23.1,0-34.7,0c-1.6,0-2.2,0.6-2.2,2.2c0,9.2,0,18.3,0,27.5c0,1.3,0.7,2.3,2.3,2.3
		C93.6,61.8,99.4,61.8,105.1,61.8z"/>
	<path fill="#363636" d="M102.5,41.7c0-0.6,0-1.3,0-1.9c0-0.8,0.3-1.1,1.1-1.1c1.1,0,2.1,0,3.2,0c0.8,0,1,0.3,1.1,1.1
		c0,0.6,0,1.1,0,1.7c0,0.2,0.2,0.5,0.3,0.5c0.2,0.1,0.5,0,0.7-0.1c0.4-0.4,0.8-0.8,1.2-1.2c0.5-0.5,1-0.5,1.5,0
		c0.8,0.8,1.5,1.5,2.3,2.3c0.4,0.5,0.5,1,0,1.4c-0.4,0.4-0.8,0.8-1.2,1.2c-0.2,0.2-0.2,0.4-0.1,0.7c0.1,0.3,0.3,0.4,0.6,0.4
		c0.6,0,1.1,0,1.7,0c0.7,0,1,0.3,1,1c0,1.1,0,2.2,0,3.3c0,0.7-0.4,1-1,1c-0.6,0-1.2,0-1.7,0c-0.2,0-0.4,0.2-0.5,0.4
		c-0.1,0.2,0,0.5,0.1,0.6c0.3,0.4,0.8,0.8,1.1,1.2c0.6,0.6,0.6,1.1,0,1.7c-0.7,0.8-1.5,1.5-2.3,2.2c-0.4,0.4-0.9,0.4-1.4,0
		c-0.4-0.4-0.8-0.9-1.3-1.3c-0.1-0.1-0.5-0.1-0.7-0.1c-0.2,0-0.3,0.3-0.3,0.5c0,0.6,0,1.1,0,1.7c0,0.8-0.3,1.1-1.1,1.1
		c-1.1,0-2.1,0-3.2,0c-0.7,0-1-0.3-1.1-1.1c0-0.5,0-1,0-1.6c0-0.4-0.1-0.5-0.4-0.7c-0.4-0.2-0.5,0-0.7,0.2c-0.4,0.4-0.7,0.7-1.1,1.1
		c-0.6,0.5-1,0.5-1.5,0c-0.8-0.7-1.5-1.5-2.3-2.3c-0.5-0.5-0.5-1,0-1.6c0.3-0.3,0.6-0.6,0.9-0.9c0.5-0.4,0.6-0.7,0.2-1.3
		c-0.6,0-1.3,0-1.9,0c-0.9,0-1.2-0.3-1.2-1.2c0-1,0-2,0-3.1c0-0.8,0.3-1.1,1.1-1.1c0.5,0,1,0,1.4,0c0.4,0,0.7,0,0.8-0.4
		c0-0.2-0.1-0.5-0.3-0.7c-0.3-0.4-0.7-0.7-1-1.1c-0.4-0.5-0.5-1,0-1.4c0.8-0.8,1.6-1.6,2.4-2.4c0.5-0.5,0.9-0.4,1.4,0
		c0.3,0.3,0.7,0.6,1,1C101.6,42.1,102,42.2,102.5,41.7z M98.2,43.8c0.4,0.4,0.8,0.8,1.2,1.1c0.5,0.4,0.5,0.9,0.3,1.5
		c-0.2,0.4-0.4,0.8-0.5,1.2c-0.2,0.6-0.5,0.9-1.2,0.9c-0.6,0-1.1,0-1.7,0c0,0.7,0,1.2,0,1.8c0.6,0,1.2,0,1.8,0c0.5,0,0.8,0.2,1,0.7
		c0.2,0.6,0.5,1.1,0.7,1.7c0.2,0.4,0.1,0.8-0.2,1.1c-0.5,0.4-0.9,0.8-1.3,1.3c0.5,0.5,0.9,0.9,1.3,1.3c0.4-0.4,0.8-0.8,1.1-1.2
		c0.4-0.5,0.9-0.6,1.5-0.3c0.4,0.2,0.8,0.4,1.3,0.5c0.6,0.2,0.8,0.5,0.8,1.1c0,0.6,0,1.1,0,1.8c0.6,0,1.2,0,1.8,0c0-0.6,0-1.2,0-1.8
		c0-0.5,0.3-0.9,0.7-1c0.5-0.2,1-0.4,1.4-0.6c0.5-0.2,0.9-0.2,1.3,0.2c0.4,0.4,0.8,0.9,1.2,1.3c0.6-0.5,1-0.9,1.4-1.4
		c-0.5-0.4-0.9-0.8-1.3-1.2c-0.5-0.4-0.5-0.9-0.2-1.5c0.2-0.4,0.4-0.8,0.5-1.2c0.2-0.6,0.6-0.9,1.2-0.9c0.6,0,1.1,0,1.7,0
		c0-0.6,0-1.2,0-1.8c-0.6,0-1.2,0-1.8,0c-0.6,0-0.9-0.2-1.1-0.8c-0.1-0.5-0.3-0.9-0.5-1.3c-0.3-0.5-0.2-1,0.2-1.4
		c0.4-0.4,0.9-0.8,1.2-1.1c-0.5-0.5-0.9-0.9-1.4-1.4c-0.4,0.4-0.8,0.8-1.2,1.3c-0.4,0.4-0.8,0.5-1.3,0.2c-0.4-0.2-0.8-0.4-1.3-0.5
		c-0.7-0.2-0.9-0.6-0.9-1.2c0-0.6,0-1.1,0-1.7c-0.6,0-1.2,0-1.8,0c0,0.6,0,1.2,0,1.8c0,0.5-0.2,0.9-0.7,1c-0.5,0.2-0.9,0.4-1.4,0.6
		c-0.5,0.3-1,0.2-1.4-0.2c-0.4-0.4-0.8-0.8-1.2-1.3C99.1,42.9,98.7,43.3,98.2,43.8z"/>
	<path fill="#363636" d="M87.4,36.9c0-0.6,0-1.2,0-1.7c11.8,0,23.6,0,35.5,0c0,0.6,0,1.1,0,1.7C111.1,36.9,99.3,36.9,87.4,36.9z"/>
	<path fill="#363636" d="M95.4,39.6c0,0.6,0,1.1,0,1.7c-2.7,0-5.3,0-8,0c0-0.6,0-1.1,0-1.7C90,39.6,92.7,39.6,95.4,39.6z"/>
	<path fill="#363636" d="M122.9,39.6c0,0.6,0,1.1,0,1.7c-2.7,0-5.3,0-8,0c0-0.6,0-1.1,0-1.7C117.6,39.6,120.3,39.6,122.9,39.6z"/>
	<path fill="#363636" d="M95.4,57.4c0,0.6,0,1.1,0,1.7c-2.7,0-5.3,0-8,0c0-0.6,0-1.1,0-1.7C90,57.4,92.7,57.4,95.4,57.4z"/>
	<path fill="#363636" d="M115,57.4c2.6,0,5.3,0,7.9,0c0,0.6,0,1.1,0,1.7c-2.6,0-5.3,0-7.9,0C115,58.6,115,58,115,57.4z"/>
	<path fill="#363636" d="M87.4,44.9c0-0.6,0-1.1,0-1.7c2.1,0,4.1,0,6.2,0c0,0.6,0,1.1,0,1.7C91.6,44.9,89.5,44.9,87.4,44.9z"/>
	<path fill="#363636" d="M116.8,43.2c2.1,0,4.1,0,6.2,0c0,0.6,0,1.1,0,1.7c-2,0-4.1,0-6.2,0C116.8,44.3,116.8,43.8,116.8,43.2z"/>
	<path fill="#363636" d="M92.7,48.4c-1.8,0-3.5,0-5.3,0c0-0.6,0-1.1,0-1.7c1.7,0,3.5,0,5.3,0C92.7,47.3,92.7,47.9,92.7,48.4z"/>
	<path fill="#363636" d="M117.7,48.4c0-0.6,0-1.1,0-1.7c1.8,0,3.5,0,5.3,0c0,0.6,0,1.1,0,1.7C121.2,48.4,119.4,48.4,117.7,48.4z"/>
	<path fill="#363636" d="M92.7,52c-1.8,0-3.5,0-5.2,0c0-0.6,0-1.1,0-1.7c1.7,0,3.5,0,5.2,0C92.7,50.9,92.7,51.4,92.7,52z"/>
	<path fill="#363636" d="M122.9,52c-1.8,0-3.5,0-5.3,0c0-0.6,0-1.1,0-1.7c1.7,0,3.5,0,5.3,0C122.9,50.8,122.9,51.4,122.9,52z"/>
	<path fill="#363636" d="M92.7,53.9c0,0.6,0,1.1,0,1.7c-1.8,0-3.5,0-5.3,0c0-0.5,0-1.1,0-1.7C89.2,53.9,90.9,53.9,92.7,53.9z"/>
	<path fill="#363636" d="M122.9,53.9c0,0.6,0,1.1,0,1.7c-1.7,0-3.5,0-5.3,0c0-0.5,0-1.1,0-1.7C119.4,53.9,121.1,53.9,122.9,53.9z"/>
	<path fill="#363636" d="M89.1,33.3c-0.6,0-1.1,0-1.7,0c0-0.6,0-1.1,0-1.7c0.6,0,1.1,0,1.7,0C89.1,32.2,89.1,32.7,89.1,33.3z"/>
	<path fill="#363636" d="M96.2,33.3c-0.6,0-1.1,0-1.7,0c0-0.6,0-1.1,0-1.7c0.6,0,1.1,0,1.7,0C96.2,32.2,96.2,32.8,96.2,33.3z"/>
	<path fill="#363636" d="M92.7,31.6c0,0.6,0,1.1,0,1.7c-0.6,0-1.1,0-1.7,0c0-0.6,0-1.1,0-1.7C91.6,31.6,92.1,31.6,92.7,31.6z"/>
	<path fill="#363636" d="M105.2,44.9c2.4,0,4.4,2.1,4.4,4.5c0,2.5-2,4.4-4.5,4.4c-2.4,0-4.4-2.1-4.4-4.5
		C100.8,46.9,102.8,44.9,105.2,44.9z M107.8,49.4c0-1.5-1.2-2.6-2.6-2.6c-1.5,0-2.7,1.2-2.7,2.6c0,1.5,1.2,2.7,2.7,2.7
		C106.6,52,107.8,50.8,107.8,49.4z"/>
</g>
</svg>
