<?xml version="1.0" encoding="utf-8"?>
<!-- Generator: Adobe Illustrator 26.3.1, SVG Export Plug-In . SVG Version: 6.00 Build 0)  -->
<svg version="1.1" baseProfile="tiny" id="Layer_1" xmlns="http://www.w3.org/2000/svg" xmlns:xlink="http://www.w3.org/1999/xlink"
	 x="0px" y="0px" width="514.7px" height="181.2px" viewBox="0 0 514.7 181.2" overflow="visible" xml:space="preserve">
<path fill="#F2EDED" d="M498.6,157.6H16c-8.8,0-16-7.2-16-16V16C0,7.2,7.2,0,16,0h482.6c8.8,0,16,7.2,16,16v125.6
	C514.7,150.4,507.5,157.6,498.6,157.6z"/>
<g>
	<path fill="#363636" d="M64.2,94.9v7.7h-1.5v-5l-2.1,5h-1.2l-2.1-5v5h-1.5v-7.7h1.7l2.4,5.7l2.4-5.7H64.2z"/>
	<path fill="#363636" d="M65.7,97.8c0.2-0.5,0.6-0.8,1-1.1s0.9-0.4,1.4-0.4c0.5,0,0.9,0.1,1.2,0.3c0.3,0.2,0.6,0.4,0.8,0.7v-0.9h1.6
		v6.1h-1.6v-0.9c-0.2,0.3-0.5,0.5-0.8,0.7c-0.3,0.2-0.7,0.3-1.2,0.3c-0.5,0-1-0.1-1.4-0.4s-0.8-0.6-1-1.1c-0.2-0.5-0.4-1-0.4-1.7
		C65.3,98.9,65.4,98.3,65.7,97.8z M69.9,98.5c-0.1-0.3-0.3-0.5-0.6-0.6c-0.2-0.1-0.5-0.2-0.8-0.2s-0.5,0.1-0.8,0.2s-0.4,0.3-0.6,0.6
		c-0.2,0.3-0.2,0.6-0.2,1c0,0.4,0.1,0.7,0.2,1c0.1,0.3,0.3,0.5,0.6,0.6c0.2,0.1,0.5,0.2,0.8,0.2c0.3,0,0.6-0.1,0.8-0.2
		c0.2-0.1,0.4-0.3,0.6-0.6c0.1-0.3,0.2-0.6,0.2-1S70,98.8,69.9,98.5z"/>
	<path fill="#363636" d="M73.1,97.9c0.3-0.5,0.6-0.8,1.1-1.1c0.5-0.3,1-0.4,1.6-0.4c0.8,0,1.4,0.2,1.9,0.6c0.5,0.4,0.8,0.9,1,1.6H77
		c-0.1-0.3-0.2-0.5-0.4-0.6s-0.5-0.2-0.8-0.2c-0.4,0-0.8,0.2-1,0.5c-0.3,0.3-0.4,0.8-0.4,1.4c0,0.6,0.1,1,0.4,1.3
		c0.3,0.3,0.6,0.5,1,0.5c0.6,0,1-0.3,1.2-0.8h1.7c-0.2,0.7-0.5,1.2-1,1.6c-0.5,0.4-1.1,0.6-1.9,0.6c-0.6,0-1.1-0.1-1.6-0.4
		c-0.5-0.3-0.8-0.6-1.1-1.1c-0.3-0.5-0.4-1-0.4-1.7S72.9,98.3,73.1,97.9z"/>
	<path fill="#363636" d="M84.4,96.7c0.4,0.2,0.6,0.5,0.8,0.9c0.2,0.4,0.3,0.9,0.3,1.4v3.6H84v-3.4c0-0.5-0.1-0.9-0.4-1.1
		c-0.2-0.3-0.6-0.4-1-0.4c-0.4,0-0.8,0.1-1,0.4s-0.4,0.6-0.4,1.1v3.4h-1.5v-8.1h1.5v2.8c0.2-0.3,0.5-0.5,0.8-0.6
		c0.3-0.2,0.7-0.2,1.1-0.2C83.7,96.4,84.1,96.5,84.4,96.7z"/>
	<path fill="#363636" d="M87.2,95.5c-0.2-0.2-0.3-0.4-0.3-0.6s0.1-0.5,0.3-0.6c0.2-0.2,0.4-0.3,0.7-0.3c0.3,0,0.5,0.1,0.7,0.3
		c0.2,0.2,0.3,0.4,0.3,0.6s-0.1,0.5-0.3,0.6c-0.2,0.2-0.4,0.3-0.7,0.3C87.6,95.7,87.3,95.6,87.2,95.5z M88.6,96.5v6.1H87v-6.1H88.6z
		"/>
	<path fill="#363636" d="M95.2,97.1c0.4,0.5,0.7,1.1,0.7,1.9v3.6h-1.5v-3.4c0-0.5-0.1-0.9-0.4-1.1c-0.2-0.3-0.6-0.4-1-0.4
		c-0.4,0-0.8,0.1-1,0.4s-0.4,0.6-0.4,1.1v3.4h-1.5v-6.1h1.5v0.8c0.2-0.3,0.5-0.5,0.8-0.6s0.7-0.2,1.1-0.2
		C94.2,96.4,94.8,96.6,95.2,97.1z"/>
	<path fill="#363636" d="M103,100h-4.5c0,0.4,0.2,0.8,0.5,1c0.3,0.2,0.6,0.4,1,0.4c0.6,0,1-0.2,1.2-0.7h1.7c-0.2,0.6-0.5,1.1-1,1.4
		c-0.5,0.4-1.1,0.6-1.8,0.6c-0.6,0-1.1-0.1-1.6-0.4c-0.5-0.3-0.8-0.6-1.1-1.1c-0.3-0.5-0.4-1-0.4-1.6c0-0.6,0.1-1.2,0.4-1.7
		c0.3-0.5,0.6-0.8,1.1-1.1c0.5-0.3,1-0.4,1.6-0.4c0.6,0,1.1,0.1,1.6,0.4c0.5,0.2,0.8,0.6,1.1,1.1c0.3,0.5,0.4,1,0.4,1.6
		C103,99.6,103,99.8,103,100z M101.4,98.9c0-0.4-0.2-0.7-0.4-1s-0.6-0.4-1-0.4c-0.4,0-0.7,0.1-1,0.3c-0.3,0.2-0.4,0.6-0.5,1H101.4z"
		/>
	<path fill="#363636" d="M108.3,101.3h2.5v1.2h-4.1v-7.7h1.5V101.3z"/>
	<path fill="#363636" d="M117.5,100H113c0,0.4,0.2,0.8,0.5,1c0.3,0.2,0.6,0.4,1,0.4c0.6,0,1-0.2,1.2-0.7h1.7c-0.2,0.6-0.5,1.1-1,1.4
		c-0.5,0.4-1.1,0.6-1.8,0.6c-0.6,0-1.1-0.1-1.6-0.4c-0.5-0.3-0.8-0.6-1.1-1.1c-0.3-0.5-0.4-1-0.4-1.6c0-0.6,0.1-1.2,0.4-1.7
		c0.3-0.5,0.6-0.8,1.1-1.1c0.5-0.3,1-0.4,1.6-0.4c0.6,0,1.1,0.1,1.6,0.4c0.5,0.2,0.8,0.6,1.1,1.1c0.3,0.5,0.4,1,0.4,1.6
		C117.5,99.6,117.5,99.8,117.5,100z M115.9,98.9c0-0.4-0.2-0.7-0.4-1s-0.6-0.4-1-0.4c-0.4,0-0.7,0.1-1,0.3c-0.3,0.2-0.4,0.6-0.5,1
		H115.9z"/>
	<path fill="#363636" d="M118.6,97.8c0.2-0.5,0.6-0.8,1-1.1s0.9-0.4,1.4-0.4c0.5,0,0.9,0.1,1.2,0.3c0.3,0.2,0.6,0.4,0.8,0.7v-0.9
		h1.6v6.1H123v-0.9c-0.2,0.3-0.5,0.5-0.8,0.7c-0.3,0.2-0.7,0.3-1.2,0.3c-0.5,0-1-0.1-1.4-0.4s-0.8-0.6-1-1.1c-0.2-0.5-0.4-1-0.4-1.7
		C118.2,98.9,118.3,98.3,118.6,97.8z M122.8,98.5c-0.1-0.3-0.3-0.5-0.6-0.6c-0.2-0.1-0.5-0.2-0.8-0.2s-0.5,0.1-0.8,0.2
		s-0.4,0.3-0.6,0.6c-0.2,0.3-0.2,0.6-0.2,1c0,0.4,0.1,0.7,0.2,1c0.1,0.3,0.3,0.5,0.6,0.6c0.2,0.1,0.5,0.2,0.8,0.2
		c0.3,0,0.6-0.1,0.8-0.2c0.2-0.1,0.4-0.3,0.6-0.6c0.1-0.3,0.2-0.6,0.2-1S122.9,98.8,122.8,98.5z"/>
	<path fill="#363636" d="M128.4,96.6c0.3-0.2,0.7-0.3,1.1-0.3V98h-0.4c-0.5,0-0.8,0.1-1.1,0.3c-0.2,0.2-0.4,0.6-0.4,1.2v3h-1.5v-6.1
		h1.5v0.9C127.8,97.1,128.1,96.8,128.4,96.6z"/>
	<path fill="#363636" d="M135.7,97.1c0.4,0.5,0.7,1.1,0.7,1.9v3.6h-1.5v-3.4c0-0.5-0.1-0.9-0.4-1.1c-0.2-0.3-0.6-0.4-1-0.4
		c-0.4,0-0.8,0.1-1,0.4s-0.4,0.6-0.4,1.1v3.4h-1.5v-6.1h1.5v0.8c0.2-0.3,0.5-0.5,0.8-0.6s0.7-0.2,1.1-0.2
		C134.6,96.4,135.2,96.6,135.7,97.1z"/>
	<path fill="#363636" d="M137.9,95.5c-0.2-0.2-0.3-0.4-0.3-0.6s0.1-0.5,0.3-0.6c0.2-0.2,0.4-0.3,0.7-0.3c0.3,0,0.5,0.1,0.7,0.3
		c0.2,0.2,0.3,0.4,0.3,0.6s-0.1,0.5-0.3,0.6c-0.2,0.2-0.4,0.3-0.7,0.3C138.3,95.7,138.1,95.6,137.9,95.5z M139.3,96.5v6.1h-1.5v-6.1
		H139.3z"/>
	<path fill="#363636" d="M146,97.1c0.4,0.5,0.7,1.1,0.7,1.9v3.6h-1.5v-3.4c0-0.5-0.1-0.9-0.4-1.1c-0.2-0.3-0.6-0.4-1-0.4
		c-0.4,0-0.8,0.1-1,0.4s-0.4,0.6-0.4,1.1v3.4h-1.5v-6.1h1.5v0.8c0.2-0.3,0.5-0.5,0.8-0.6s0.7-0.2,1.1-0.2
		C145,96.4,145.5,96.6,146,97.1z"/>
	<path fill="#363636" d="M151.7,96.6c0.3,0.2,0.6,0.4,0.8,0.7v-0.9h1.6v6.1c0,0.6-0.1,1.1-0.3,1.5c-0.2,0.4-0.6,0.8-1,1.1
		c-0.5,0.3-1,0.4-1.7,0.4c-0.9,0-1.6-0.2-2.1-0.6c-0.6-0.4-0.9-1-0.9-1.7h1.5c0.1,0.3,0.3,0.5,0.5,0.7c0.3,0.2,0.6,0.2,1,0.2
		c0.4,0,0.8-0.1,1.1-0.4c0.3-0.3,0.4-0.7,0.4-1.2v-0.9c-0.2,0.3-0.5,0.5-0.8,0.7c-0.3,0.2-0.7,0.3-1.2,0.3c-0.5,0-1-0.1-1.4-0.4
		s-0.8-0.6-1-1.1c-0.2-0.5-0.4-1-0.4-1.7c0-0.6,0.1-1.2,0.4-1.6s0.6-0.8,1-1.1s0.9-0.4,1.4-0.4C151,96.4,151.4,96.5,151.7,96.6z
		 M152.3,98.5c-0.1-0.3-0.3-0.5-0.6-0.6c-0.2-0.1-0.5-0.2-0.8-0.2s-0.5,0.1-0.8,0.2s-0.4,0.3-0.6,0.6c-0.2,0.3-0.2,0.6-0.2,1
		c0,0.4,0.1,0.7,0.2,1c0.1,0.3,0.3,0.5,0.6,0.6c0.2,0.1,0.5,0.2,0.8,0.2c0.3,0,0.6-0.1,0.8-0.2c0.2-0.1,0.4-0.3,0.6-0.6
		c0.1-0.3,0.2-0.6,0.2-1S152.4,98.8,152.3,98.5z"/>
</g>
<g>
	<path fill="#363636" d="M214.2,42.5h2.7v0.8h-3.7v-7.7h1V42.5z"/>
	<path fill="#363636" d="M223.5,40.6h-4.8c0,0.6,0.2,1.1,0.6,1.4c0.4,0.3,0.8,0.5,1.3,0.5c0.4,0,0.8-0.1,1.1-0.3
		c0.3-0.2,0.5-0.5,0.6-0.8h1.1c-0.2,0.6-0.5,1.1-1,1.4c-0.5,0.4-1.1,0.5-1.8,0.5c-0.6,0-1.1-0.1-1.5-0.4s-0.8-0.6-1.1-1.1
		c-0.3-0.5-0.4-1-0.4-1.6c0-0.6,0.1-1.2,0.4-1.6c0.2-0.5,0.6-0.8,1.1-1.1c0.5-0.3,1-0.4,1.6-0.4c0.6,0,1.1,0.1,1.5,0.4s0.8,0.6,1,1
		s0.4,0.9,0.4,1.5C223.5,40.2,223.5,40.4,223.5,40.6z M222.2,38.8c-0.2-0.3-0.4-0.5-0.7-0.6c-0.3-0.1-0.6-0.2-1-0.2
		c-0.5,0-0.9,0.2-1.3,0.5c-0.4,0.3-0.6,0.8-0.6,1.3h3.8C222.5,39.4,222.4,39.1,222.2,38.8z"/>
	<path fill="#363636" d="M224.8,38.6c0.2-0.5,0.6-0.8,1-1.1c0.4-0.3,0.9-0.4,1.5-0.4c0.5,0,1,0.1,1.4,0.3s0.7,0.5,0.9,0.9v-1.1h1v6
		h-1v-1.1c-0.2,0.4-0.5,0.6-0.9,0.9c-0.4,0.2-0.8,0.3-1.4,0.3c-0.5,0-1-0.1-1.5-0.4c-0.4-0.3-0.8-0.6-1-1.1c-0.2-0.5-0.4-1-0.4-1.6
		C224.4,39.6,224.6,39.1,224.8,38.6z M229.3,39.1c-0.2-0.3-0.4-0.6-0.7-0.8c-0.3-0.2-0.7-0.3-1-0.3c-0.4,0-0.7,0.1-1,0.3
		c-0.3,0.2-0.6,0.4-0.7,0.8c-0.2,0.3-0.3,0.7-0.3,1.2c0,0.5,0.1,0.9,0.3,1.2c0.2,0.3,0.4,0.6,0.7,0.8c0.3,0.2,0.6,0.3,1,0.3
		c0.4,0,0.7-0.1,1-0.3c0.3-0.2,0.6-0.4,0.7-0.8c0.2-0.3,0.3-0.7,0.3-1.2C229.5,39.8,229.5,39.4,229.3,39.1z"/>
	<path fill="#363636" d="M234,37.4c0.3-0.2,0.7-0.3,1.2-0.3v1h-0.3c-1.1,0-1.7,0.6-1.7,1.8v3.3h-1v-6h1v1
		C233.4,37.9,233.7,37.6,234,37.4z"/>
	<path fill="#363636" d="M241.1,37.8c0.5,0.4,0.7,1.1,0.7,1.9v3.6h-1v-3.4c0-0.6-0.2-1.1-0.5-1.4c-0.3-0.3-0.7-0.5-1.2-0.5
		c-0.5,0-0.9,0.2-1.3,0.5c-0.3,0.3-0.5,0.8-0.5,1.4v3.3h-1v-6h1v0.9c0.2-0.3,0.5-0.5,0.8-0.7c0.3-0.2,0.7-0.3,1.1-0.3
		C240,37.1,240.6,37.4,241.1,37.8z"/>
	<path fill="#363636" d="M247.6,38.1v3.6c0,0.3,0.1,0.5,0.2,0.6s0.3,0.2,0.6,0.2h0.7v0.8h-0.9c-0.6,0-1-0.1-1.3-0.4
		s-0.4-0.7-0.4-1.3v-3.6h-0.8v-0.8h0.8v-1.5h1v1.5h1.6v0.8H247.6z"/>
	<path fill="#363636" d="M251.4,43c-0.5-0.3-0.8-0.6-1.1-1.1c-0.3-0.5-0.4-1-0.4-1.6c0-0.6,0.1-1.2,0.4-1.6c0.3-0.5,0.6-0.8,1.1-1.1
		c0.5-0.3,1-0.4,1.6-0.4s1.1,0.1,1.6,0.4c0.5,0.3,0.8,0.6,1.1,1.1c0.3,0.5,0.4,1,0.4,1.6c0,0.6-0.1,1.2-0.4,1.6
		c-0.3,0.5-0.6,0.8-1.1,1.1s-1,0.4-1.6,0.4C252.4,43.4,251.9,43.2,251.4,43z M254,42.2c0.3-0.2,0.6-0.4,0.8-0.8s0.3-0.7,0.3-1.2
		c0-0.5-0.1-0.9-0.3-1.2c-0.2-0.3-0.4-0.6-0.7-0.8c-0.3-0.2-0.6-0.2-1-0.2c-0.4,0-0.7,0.1-1,0.2s-0.5,0.4-0.7,0.8
		c-0.2,0.3-0.3,0.7-0.3,1.2c0,0.5,0.1,0.9,0.3,1.2c0.2,0.3,0.4,0.6,0.7,0.8s0.6,0.2,1,0.2S253.7,42.4,254,42.2z"/>
	<path fill="#363636" d="M260.4,37.4c0.3-0.6,0.8-1.1,1.4-1.4c0.6-0.3,1.2-0.5,1.9-0.5c0.8,0,1.6,0.2,2.2,0.6s1.1,1,1.4,1.7h-1.2
		c-0.2-0.5-0.5-0.8-0.9-1.1c-0.4-0.2-0.9-0.4-1.4-0.4c-0.5,0-1,0.1-1.4,0.4c-0.4,0.2-0.8,0.6-1,1.1c-0.2,0.5-0.4,1-0.4,1.6
		c0,0.6,0.1,1.1,0.4,1.6s0.6,0.8,1,1.1c0.4,0.2,0.9,0.4,1.4,0.4c0.6,0,1-0.1,1.4-0.4c0.4-0.2,0.7-0.6,0.9-1.1h1.2
		c-0.3,0.7-0.7,1.3-1.4,1.7c-0.6,0.4-1.4,0.6-2.2,0.6c-0.7,0-1.4-0.2-1.9-0.5s-1-0.8-1.4-1.4c-0.3-0.6-0.5-1.3-0.5-2
		S260.1,38,260.4,37.4z"/>
	<path fill="#363636" d="M269.9,43c-0.5-0.3-0.8-0.6-1.1-1.1c-0.3-0.5-0.4-1-0.4-1.6c0-0.6,0.1-1.2,0.4-1.6c0.3-0.5,0.6-0.8,1.1-1.1
		c0.5-0.3,1-0.4,1.6-0.4c0.6,0,1.1,0.1,1.6,0.4c0.5,0.3,0.8,0.6,1.1,1.1c0.3,0.5,0.4,1,0.4,1.6c0,0.6-0.1,1.2-0.4,1.6
		c-0.3,0.5-0.6,0.8-1.1,1.1c-0.5,0.3-1,0.4-1.6,0.4C270.9,43.4,270.4,43.2,269.9,43z M272.4,42.2c0.3-0.2,0.6-0.4,0.8-0.8
		s0.3-0.7,0.3-1.2c0-0.5-0.1-0.9-0.3-1.2s-0.4-0.6-0.7-0.8s-0.6-0.2-1-0.2c-0.4,0-0.7,0.1-1,0.2c-0.3,0.2-0.5,0.4-0.7,0.8
		s-0.3,0.7-0.3,1.2c0,0.5,0.1,0.9,0.3,1.2c0.2,0.3,0.4,0.6,0.7,0.8s0.6,0.2,1,0.2S272.1,42.4,272.4,42.2z"/>
	<path fill="#363636" d="M275.8,38.6c0.2-0.5,0.6-0.8,1-1.1s0.9-0.4,1.5-0.4c0.5,0,0.9,0.1,1.3,0.3c0.4,0.2,0.7,0.5,0.9,0.9v-3.2h1
		v8.1h-1v-1.1c-0.2,0.4-0.5,0.7-0.9,0.9c-0.4,0.2-0.8,0.3-1.4,0.3c-0.5,0-1-0.1-1.5-0.4s-0.8-0.6-1-1.1s-0.4-1-0.4-1.6
		C275.5,39.6,275.6,39.1,275.8,38.6z M280.3,39.1c-0.2-0.3-0.4-0.6-0.7-0.8c-0.3-0.2-0.7-0.3-1-0.3c-0.4,0-0.7,0.1-1,0.3
		s-0.6,0.4-0.7,0.8c-0.2,0.3-0.3,0.7-0.3,1.2c0,0.5,0.1,0.9,0.3,1.2c0.2,0.3,0.4,0.6,0.7,0.8s0.6,0.3,1,0.3c0.4,0,0.7-0.1,1-0.3
		c0.3-0.2,0.6-0.4,0.7-0.8c0.2-0.3,0.3-0.7,0.3-1.2C280.6,39.8,280.5,39.4,280.3,39.1z"/>
	<path fill="#363636" d="M288.8,40.6h-4.8c0,0.6,0.2,1.1,0.6,1.4c0.4,0.3,0.8,0.5,1.3,0.5c0.4,0,0.8-0.1,1.1-0.3
		c0.3-0.2,0.5-0.5,0.6-0.8h1.1c-0.2,0.6-0.5,1.1-1,1.4c-0.5,0.4-1.1,0.5-1.8,0.5c-0.6,0-1.1-0.1-1.5-0.4s-0.8-0.6-1.1-1.1
		c-0.3-0.5-0.4-1-0.4-1.6c0-0.6,0.1-1.2,0.4-1.6c0.2-0.5,0.6-0.8,1-1.1c0.5-0.3,1-0.4,1.6-0.4c0.6,0,1.1,0.1,1.5,0.4
		c0.4,0.2,0.8,0.6,1,1s0.4,0.9,0.4,1.5C288.8,40.2,288.8,40.4,288.8,40.6z M287.5,38.8c-0.2-0.3-0.4-0.5-0.7-0.6
		c-0.3-0.1-0.6-0.2-1-0.2c-0.5,0-0.9,0.2-1.3,0.5c-0.4,0.3-0.6,0.8-0.6,1.3h3.8C287.7,39.4,287.7,39.1,287.5,38.8z"/>
	<path fill="#363636" d="M301.1,37.2l-1.9,6h-1l-1.5-4.8l-1.5,4.8h-1l-1.9-6h1l1.4,5.1l1.5-5.1h1l1.5,5.1l1.4-5.1H301.1z"/>
	<path fill="#363636" d="M302.1,36.1c-0.1-0.1-0.2-0.3-0.2-0.5c0-0.2,0.1-0.4,0.2-0.5s0.3-0.2,0.5-0.2c0.2,0,0.3,0.1,0.5,0.2
		c0.1,0.1,0.2,0.3,0.2,0.5c0,0.2-0.1,0.4-0.2,0.5c-0.1,0.1-0.3,0.2-0.5,0.2C302.4,36.3,302.2,36.2,302.1,36.1z M303.1,37.2v6h-1v-6
		H303.1z"/>
	<path fill="#363636" d="M306,38.1v3.6c0,0.3,0.1,0.5,0.2,0.6c0.1,0.1,0.3,0.2,0.6,0.2h0.7v0.8h-0.9c-0.6,0-1-0.1-1.3-0.4
		c-0.3-0.3-0.4-0.7-0.4-1.3v-3.6h-0.8v-0.8h0.8v-1.5h1v1.5h1.6v0.8H306z"/>
	<path fill="#363636" d="M313,37.4c0.4,0.2,0.7,0.5,0.9,0.9s0.3,0.9,0.3,1.4v3.6h-1v-3.4c0-0.6-0.2-1.1-0.5-1.4
		c-0.3-0.3-0.7-0.5-1.2-0.5c-0.5,0-0.9,0.2-1.3,0.5c-0.3,0.3-0.5,0.8-0.5,1.4v3.3h-1v-8.1h1v3c0.2-0.3,0.5-0.5,0.8-0.7
		c0.3-0.2,0.7-0.3,1.2-0.3C312.2,37.1,312.6,37.2,313,37.4z"/>
	<path fill="#363636" d="M323.2,39.4c-0.4,0.4-1.1,0.6-2,0.6h-1.5v3.2h-1v-7.7h2.5c0.9,0,1.5,0.2,2,0.6s0.7,1,0.7,1.6
		C323.9,38.5,323.7,39,323.2,39.4z M322.5,38.9c0.3-0.2,0.4-0.6,0.4-1c0-0.9-0.5-1.4-1.6-1.4h-1.5v2.8h1.5
		C321.8,39.2,322.2,39.1,322.5,38.9z"/>
	<path fill="#363636" d="M330.3,37.2l-3.6,8.9h-1l1.2-2.9l-2.4-6h1.1l1.9,4.9l1.9-4.9H330.3z"/>
	<path fill="#363636" d="M332.5,38.1v3.6c0,0.3,0.1,0.5,0.2,0.6c0.1,0.1,0.3,0.2,0.6,0.2h0.7v0.8h-0.9c-0.6,0-1-0.1-1.3-0.4
		c-0.3-0.3-0.4-0.7-0.4-1.3v-3.6h-0.8v-0.8h0.8v-1.5h1v1.5h1.6v0.8H332.5z"/>
	<path fill="#363636" d="M339.5,37.4c0.4,0.2,0.7,0.5,0.9,0.9s0.3,0.9,0.3,1.4v3.6h-1v-3.4c0-0.6-0.2-1.1-0.5-1.4
		c-0.3-0.3-0.7-0.5-1.2-0.5c-0.5,0-0.9,0.2-1.3,0.5c-0.3,0.3-0.5,0.8-0.5,1.4v3.3h-1v-8.1h1v3c0.2-0.3,0.5-0.5,0.8-0.7
		c0.3-0.2,0.7-0.3,1.2-0.3C338.8,37.1,339.2,37.2,339.5,37.4z"/>
	<path fill="#363636" d="M343.4,43c-0.5-0.3-0.8-0.6-1.1-1.1c-0.3-0.5-0.4-1-0.4-1.6c0-0.6,0.1-1.2,0.4-1.6c0.3-0.5,0.6-0.8,1.1-1.1
		c0.5-0.3,1-0.4,1.6-0.4c0.6,0,1.1,0.1,1.6,0.4c0.5,0.3,0.8,0.6,1.1,1.1c0.3,0.5,0.4,1,0.4,1.6c0,0.6-0.1,1.2-0.4,1.6
		c-0.3,0.5-0.6,0.8-1.1,1.1c-0.5,0.3-1,0.4-1.6,0.4C344.4,43.4,343.9,43.2,343.4,43z M346,42.2c0.3-0.2,0.6-0.4,0.8-0.8
		s0.3-0.7,0.3-1.2c0-0.5-0.1-0.9-0.3-1.2s-0.4-0.6-0.7-0.8s-0.6-0.2-1-0.2c-0.4,0-0.7,0.1-1,0.2c-0.3,0.2-0.5,0.4-0.7,0.8
		s-0.3,0.7-0.3,1.2c0,0.5,0.1,0.9,0.3,1.2c0.2,0.3,0.4,0.6,0.7,0.8s0.6,0.2,1,0.2S345.7,42.4,346,42.2z"/>
	<path fill="#363636" d="M354.1,37.8c0.5,0.4,0.7,1.1,0.7,1.9v3.6h-1v-3.4c0-0.6-0.2-1.1-0.5-1.4c-0.3-0.3-0.7-0.5-1.2-0.5
		c-0.5,0-0.9,0.2-1.3,0.5c-0.3,0.3-0.5,0.8-0.5,1.4v3.3h-1v-6h1v0.9c0.2-0.3,0.5-0.5,0.8-0.7s0.7-0.3,1.1-0.3
		C353.1,37.1,353.7,37.4,354.1,37.8z"/>
	<path fill="#363636" d="M360,35.7c0.5-0.4,1.1-0.6,1.8-0.6c0.5,0,0.9,0.1,1.3,0.3s0.6,0.4,0.8,0.7c0.2,0.3,0.3,0.7,0.3,1
		c0,0.5-0.1,0.8-0.4,1.2c-0.3,0.3-0.6,0.5-1,0.6v0.1c0.5,0.1,0.9,0.3,1.1,0.7c0.3,0.3,0.4,0.8,0.4,1.4c0,0.4-0.1,0.8-0.3,1.1
		c-0.2,0.3-0.5,0.6-0.9,0.8c-0.4,0.2-0.8,0.3-1.4,0.3c-0.8,0-1.4-0.2-1.9-0.6s-0.8-1-0.8-1.7h1c0.1,0.4,0.2,0.8,0.5,1.1
		c0.3,0.3,0.7,0.4,1.2,0.4c0.5,0,0.9-0.1,1.2-0.4c0.3-0.3,0.4-0.6,0.4-1c0-0.5-0.2-0.9-0.6-1.2c-0.4-0.2-0.9-0.4-1.7-0.4h-0.3v-0.8
		h0.3c0.7,0,1.2-0.1,1.5-0.3c0.3-0.2,0.5-0.6,0.5-1c0-0.4-0.1-0.7-0.4-0.9c-0.3-0.2-0.6-0.4-1.1-0.4c-0.5,0-0.8,0.1-1.1,0.4
		c-0.3,0.2-0.4,0.6-0.5,0.9h-1C359.2,36.6,359.5,36.1,360,35.7z"/>
	<path fill="#363636" d="M366.2,43.1c-0.1-0.1-0.2-0.3-0.2-0.5c0-0.2,0.1-0.4,0.2-0.5c0.1-0.1,0.3-0.2,0.5-0.2
		c0.2,0,0.3,0.1,0.5,0.2c0.1,0.1,0.2,0.3,0.2,0.5c0,0.2-0.1,0.4-0.2,0.5s-0.3,0.2-0.5,0.2C366.5,43.3,366.3,43.3,366.2,43.1z
		 M367.1,35.6l-0.1,5.5h-0.8l-0.1-5.5H367.1z"/>
</g>
<g>
	<path fill="#363636" d="M79.6,172v5.6h-0.9V172H79.6z"/>
	<path fill="#363636" d="M84.6,175.4l2,2.2h-1.2l-1.6-1.9v1.9h-0.9v-5.9h0.9v3.4l1.6-1.9h1.3L84.6,175.4z"/>
	<path fill="#363636" d="M90.5,173.3c0.3,0.1,0.5,0.4,0.6,0.6c0.2,0.3,0.2,0.6,0.2,1v2.6h-0.9v-2.5c0-0.4-0.1-0.7-0.3-0.9
		s-0.5-0.3-0.8-0.3s-0.6,0.1-0.8,0.3s-0.3,0.5-0.3,0.9v2.5h-0.9v-4.4h0.9v0.5c0.1-0.2,0.3-0.3,0.6-0.4s0.5-0.2,0.7-0.2
		C89.9,173.1,90.2,173.2,90.5,173.3z"/>
	<path fill="#363636" d="M93.3,177.4c-0.3-0.2-0.6-0.5-0.8-0.8c-0.2-0.3-0.3-0.7-0.3-1.2c0-0.4,0.1-0.8,0.3-1.2s0.5-0.6,0.8-0.8
		c0.3-0.2,0.7-0.3,1.1-0.3c0.4,0,0.8,0.1,1.1,0.3s0.6,0.5,0.8,0.8s0.3,0.7,0.3,1.2s-0.1,0.8-0.3,1.2s-0.5,0.6-0.8,0.8
		s-0.7,0.3-1.2,0.3C94,177.6,93.6,177.5,93.3,177.4z M95.1,176.7c0.2-0.1,0.4-0.3,0.5-0.5c0.1-0.2,0.2-0.5,0.2-0.8s-0.1-0.6-0.2-0.8
		c-0.1-0.2-0.3-0.4-0.5-0.5c-0.2-0.1-0.4-0.2-0.7-0.2c-0.2,0-0.5,0.1-0.7,0.2c-0.2,0.1-0.4,0.3-0.5,0.5c-0.1,0.2-0.2,0.5-0.2,0.8
		c0,0.5,0.1,0.8,0.4,1.1c0.2,0.3,0.5,0.4,0.9,0.4C94.7,176.8,94.9,176.8,95.1,176.7z"/>
	<path fill="#363636" d="M103.5,173.2l-1.4,4.4h-1l-0.9-3.3l-0.9,3.3h-1l-1.4-4.4H98l0.9,3.5l0.9-3.5h1l0.9,3.5l0.9-3.5H103.5z"/>
	<path fill="#363636" d="M112.2,173.2l-1.4,4.4h-1l-0.9-3.3l-0.9,3.3h-1l-1.4-4.4h0.9l0.9,3.5l0.9-3.5h1l0.9,3.5l0.9-3.5H112.2z"/>
	<path fill="#363636" d="M116.1,173.3c0.3,0.1,0.5,0.4,0.6,0.6c0.2,0.3,0.2,0.6,0.2,1v2.6H116v-2.5c0-0.4-0.1-0.7-0.3-0.9
		s-0.5-0.3-0.8-0.3s-0.6,0.1-0.8,0.3s-0.3,0.5-0.3,0.9v2.5h-0.9v-5.9h0.9v2c0.2-0.2,0.4-0.3,0.6-0.4s0.5-0.2,0.8-0.2
		C115.5,173.1,115.8,173.2,116.1,173.3z"/>
	<path fill="#363636" d="M118.1,174.2c0.2-0.3,0.4-0.6,0.8-0.8c0.3-0.2,0.7-0.3,1.1-0.3c0.3,0,0.6,0.1,0.9,0.2
		c0.3,0.1,0.5,0.3,0.6,0.5v-0.6h0.9v4.4h-0.9v-0.7c-0.2,0.2-0.4,0.4-0.6,0.5s-0.6,0.2-0.9,0.2c-0.4,0-0.7-0.1-1-0.3
		c-0.3-0.2-0.6-0.5-0.7-0.8c-0.2-0.3-0.3-0.7-0.3-1.2C117.8,174.9,117.9,174.5,118.1,174.2z M121.2,174.6c-0.1-0.2-0.3-0.4-0.5-0.5
		s-0.4-0.2-0.7-0.2s-0.5,0.1-0.7,0.2c-0.2,0.1-0.4,0.3-0.5,0.5c-0.1,0.2-0.2,0.5-0.2,0.8c0,0.3,0.1,0.6,0.2,0.8s0.3,0.4,0.5,0.5
		c0.2,0.1,0.4,0.2,0.7,0.2c0.2,0,0.5-0.1,0.7-0.2c0.2-0.1,0.4-0.3,0.5-0.5c0.1-0.2,0.2-0.5,0.2-0.8S121.3,174.8,121.2,174.6z"/>
	<path fill="#363636" d="M124.6,173.9v2.4c0,0.2,0,0.3,0.1,0.4c0.1,0.1,0.2,0.1,0.4,0.1h0.6v0.8h-0.7c-0.4,0-0.7-0.1-0.9-0.3
		s-0.3-0.5-0.3-0.9v-2.4h-0.5v-0.7h0.5v-1.1h0.9v1.1h1.1v0.7H124.6z"/>
	<path fill="#363636" d="M126.6,172h1l-0.8,1.9h-0.6L126.6,172z"/>
	<path fill="#363636" d="M129.1,177.4c-0.3-0.1-0.5-0.3-0.7-0.5c-0.2-0.2-0.2-0.5-0.3-0.7h0.9c0,0.2,0.1,0.3,0.3,0.5
		c0.2,0.1,0.4,0.2,0.6,0.2c0.3,0,0.5,0,0.6-0.1c0.1-0.1,0.2-0.2,0.2-0.4c0-0.2-0.1-0.3-0.2-0.4s-0.4-0.2-0.7-0.3
		c-0.3-0.1-0.6-0.2-0.8-0.3c-0.2-0.1-0.4-0.2-0.5-0.4c-0.2-0.2-0.2-0.4-0.2-0.7c0-0.2,0.1-0.4,0.2-0.6c0.1-0.2,0.3-0.3,0.6-0.5
		c0.3-0.1,0.6-0.2,0.9-0.2c0.5,0,0.9,0.1,1.2,0.4c0.3,0.3,0.5,0.6,0.5,1h-0.9c0-0.2-0.1-0.4-0.2-0.5s-0.3-0.2-0.6-0.2
		c-0.2,0-0.4,0-0.6,0.1s-0.2,0.2-0.2,0.4c0,0.1,0,0.2,0.1,0.3s0.2,0.1,0.3,0.2c0.1,0,0.3,0.1,0.5,0.2c0.3,0.1,0.6,0.2,0.8,0.3
		c0.2,0.1,0.4,0.2,0.5,0.4c0.1,0.2,0.2,0.4,0.2,0.7c0,0.3-0.1,0.5-0.2,0.7c-0.1,0.2-0.3,0.4-0.6,0.5c-0.3,0.1-0.6,0.2-0.9,0.2
		C129.7,177.6,129.4,177.6,129.1,177.4z"/>
	<path fill="#363636" d="M137.5,173.3c0.3,0.1,0.5,0.3,0.6,0.5v-0.6h0.9v4.5c0,0.4-0.1,0.8-0.3,1.1c-0.2,0.3-0.4,0.6-0.7,0.7
		c-0.3,0.2-0.7,0.3-1.2,0.3c-0.6,0-1.1-0.1-1.5-0.4c-0.4-0.3-0.6-0.7-0.7-1.1h0.9c0.1,0.2,0.2,0.4,0.4,0.6s0.5,0.2,0.8,0.2
		c0.4,0,0.7-0.1,0.9-0.3c0.2-0.2,0.3-0.5,0.3-1v-0.7c-0.2,0.2-0.4,0.4-0.6,0.5c-0.3,0.1-0.6,0.2-0.9,0.2c-0.4,0-0.7-0.1-1.1-0.3
		c-0.3-0.2-0.6-0.5-0.8-0.8c-0.2-0.3-0.3-0.7-0.3-1.2c0-0.4,0.1-0.8,0.3-1.2c0.2-0.3,0.4-0.6,0.8-0.8c0.3-0.2,0.7-0.3,1.1-0.3
		C136.9,173.1,137.2,173.2,137.5,173.3z M137.9,174.6c-0.1-0.2-0.3-0.4-0.5-0.5s-0.4-0.2-0.7-0.2s-0.5,0.1-0.7,0.2
		c-0.2,0.1-0.4,0.3-0.5,0.5c-0.1,0.2-0.2,0.5-0.2,0.8c0,0.3,0.1,0.6,0.2,0.8s0.3,0.4,0.5,0.5c0.2,0.1,0.4,0.2,0.7,0.2
		c0.2,0,0.5-0.1,0.7-0.2c0.2-0.1,0.4-0.3,0.5-0.5c0.1-0.2,0.2-0.5,0.2-0.8S138,174.8,137.9,174.6z"/>
	<path fill="#363636" d="M141,177.4c-0.3-0.2-0.6-0.5-0.8-0.8c-0.2-0.3-0.3-0.7-0.3-1.2c0-0.4,0.1-0.8,0.3-1.2s0.5-0.6,0.8-0.8
		c0.3-0.2,0.7-0.3,1.1-0.3c0.4,0,0.8,0.1,1.1,0.3s0.6,0.5,0.8,0.8s0.3,0.7,0.3,1.2s-0.1,0.8-0.3,1.2s-0.5,0.6-0.8,0.8
		s-0.7,0.3-1.2,0.3C141.7,177.6,141.3,177.5,141,177.4z M142.8,176.7c0.2-0.1,0.4-0.3,0.5-0.5c0.1-0.2,0.2-0.5,0.2-0.8
		s-0.1-0.6-0.2-0.8c-0.1-0.2-0.3-0.4-0.5-0.5c-0.2-0.1-0.4-0.2-0.7-0.2c-0.2,0-0.5,0.1-0.7,0.2c-0.2,0.1-0.4,0.3-0.5,0.5
		c-0.1,0.2-0.2,0.5-0.2,0.8c0,0.5,0.1,0.8,0.4,1.1c0.2,0.3,0.5,0.4,0.9,0.4C142.4,176.8,142.6,176.8,142.8,176.7z"/>
	<path fill="#363636" d="M145.4,172.4c-0.1-0.1-0.2-0.2-0.2-0.4c0-0.2,0.1-0.3,0.2-0.4c0.1-0.1,0.3-0.2,0.4-0.2
		c0.2,0,0.3,0.1,0.4,0.2c0.1,0.1,0.2,0.3,0.2,0.4c0,0.2-0.1,0.3-0.2,0.4c-0.1,0.1-0.2,0.2-0.4,0.2
		C145.6,172.6,145.5,172.5,145.4,172.4z M146.2,173.2v4.4h-0.9v-4.4H146.2z"/>
	<path fill="#363636" d="M150.6,173.3c0.3,0.1,0.5,0.4,0.6,0.6c0.2,0.3,0.2,0.6,0.2,1v2.6h-0.9v-2.5c0-0.4-0.1-0.7-0.3-0.9
		s-0.5-0.3-0.8-0.3s-0.6,0.1-0.8,0.3s-0.3,0.5-0.3,0.9v2.5h-0.9v-4.4h0.9v0.5c0.1-0.2,0.3-0.3,0.6-0.4s0.5-0.2,0.7-0.2
		C150,173.1,150.3,173.2,150.6,173.3z"/>
	<path fill="#363636" d="M155.3,173.3c0.3,0.1,0.5,0.3,0.6,0.5v-0.6h0.9v4.5c0,0.4-0.1,0.8-0.3,1.1c-0.2,0.3-0.4,0.6-0.7,0.7
		c-0.3,0.2-0.7,0.3-1.2,0.3c-0.6,0-1.1-0.1-1.5-0.4c-0.4-0.3-0.6-0.7-0.7-1.1h0.9c0.1,0.2,0.2,0.4,0.4,0.6s0.5,0.2,0.8,0.2
		c0.4,0,0.7-0.1,0.9-0.3c0.2-0.2,0.3-0.5,0.3-1v-0.7c-0.2,0.2-0.4,0.4-0.6,0.5c-0.3,0.1-0.6,0.2-0.9,0.2c-0.4,0-0.7-0.1-1.1-0.3
		c-0.3-0.2-0.6-0.5-0.8-0.8c-0.2-0.3-0.3-0.7-0.3-1.2c0-0.4,0.1-0.8,0.3-1.2c0.2-0.3,0.4-0.6,0.8-0.8c0.3-0.2,0.7-0.3,1.1-0.3
		C154.7,173.1,155,173.2,155.3,173.3z M155.7,174.6c-0.1-0.2-0.3-0.4-0.5-0.5s-0.4-0.2-0.7-0.2s-0.5,0.1-0.7,0.2
		c-0.2,0.1-0.4,0.3-0.5,0.5c-0.1,0.2-0.2,0.5-0.2,0.8c0,0.3,0.1,0.6,0.2,0.8s0.3,0.4,0.5,0.5c0.2,0.1,0.4,0.2,0.7,0.2
		c0.2,0,0.5-0.1,0.7-0.2c0.2-0.1,0.4-0.3,0.5-0.5c0.1-0.2,0.2-0.5,0.2-0.8S155.9,174.8,155.7,174.6z"/>
	<path fill="#363636" d="M160.9,177.4c-0.3-0.2-0.6-0.5-0.8-0.8c-0.2-0.3-0.3-0.7-0.3-1.2c0-0.4,0.1-0.8,0.3-1.2s0.5-0.6,0.8-0.8
		c0.3-0.2,0.7-0.3,1.1-0.3c0.4,0,0.8,0.1,1.1,0.3s0.6,0.5,0.8,0.8s0.3,0.7,0.3,1.2s-0.1,0.8-0.3,1.2s-0.5,0.6-0.8,0.8
		s-0.7,0.3-1.2,0.3C161.6,177.6,161.2,177.5,160.9,177.4z M162.7,176.7c0.2-0.1,0.4-0.3,0.5-0.5c0.1-0.2,0.2-0.5,0.2-0.8
		s-0.1-0.6-0.2-0.8c-0.1-0.2-0.3-0.4-0.5-0.5c-0.2-0.1-0.4-0.2-0.7-0.2c-0.2,0-0.5,0.1-0.7,0.2c-0.2,0.1-0.4,0.3-0.5,0.5
		c-0.1,0.2-0.2,0.5-0.2,0.8c0,0.5,0.1,0.8,0.4,1.1c0.2,0.3,0.5,0.4,0.9,0.4C162.3,176.8,162.5,176.8,162.7,176.7z"/>
	<path fill="#363636" d="M168.4,173.3c0.3,0.1,0.5,0.4,0.6,0.6c0.2,0.3,0.2,0.6,0.2,1v2.6h-0.9v-2.5c0-0.4-0.1-0.7-0.3-0.9
		s-0.5-0.3-0.8-0.3s-0.6,0.1-0.8,0.3s-0.3,0.5-0.3,0.9v2.5h-0.9v-4.4h0.9v0.5c0.1-0.2,0.3-0.3,0.6-0.4s0.5-0.2,0.7-0.2
		C167.8,173.1,168.1,173.2,168.4,173.3z"/>
</g>
<g>
	<path fill="#363636" d="M216.7,53v4.4c0,0.6-0.2,1.1-0.5,1.4s-0.8,0.5-1.4,0.5c-0.6,0-1.1-0.2-1.5-0.5s-0.6-0.8-0.6-1.5h1.3
		c0,0.3,0.1,0.5,0.2,0.6c0.1,0.2,0.3,0.2,0.5,0.2c0.2,0,0.4-0.1,0.5-0.2c0.1-0.1,0.2-0.3,0.2-0.6V53H216.7z"/>
	<path fill="#363636" d="M219.1,59.1c-0.4-0.2-0.7-0.5-0.9-0.9c-0.2-0.4-0.3-0.8-0.3-1.4s0.1-1,0.3-1.3c0.2-0.4,0.5-0.7,0.9-0.9
		s0.8-0.3,1.3-0.3s0.9,0.1,1.3,0.3c0.4,0.2,0.7,0.5,0.9,0.9c0.2,0.4,0.3,0.8,0.3,1.3s-0.1,1-0.3,1.4c-0.2,0.4-0.5,0.7-0.9,0.9
		s-0.8,0.3-1.3,0.3C219.9,59.4,219.5,59.3,219.1,59.1z M221,58.1c0.2-0.1,0.4-0.3,0.5-0.5c0.1-0.2,0.2-0.5,0.2-0.8
		c0-0.5-0.1-0.8-0.4-1.1c-0.2-0.3-0.6-0.4-0.9-0.4s-0.7,0.1-0.9,0.4c-0.2,0.3-0.4,0.6-0.4,1.1c0,0.5,0.1,0.8,0.4,1.1
		s0.5,0.4,0.9,0.4C220.6,58.3,220.8,58.2,221,58.1z"/>
	<path fill="#363636" d="M224.7,59.2c-0.3-0.1-0.6-0.3-0.8-0.6s-0.3-0.5-0.3-0.8h1.3c0,0.2,0.1,0.4,0.3,0.5s0.4,0.2,0.6,0.2
		c0.2,0,0.4,0,0.6-0.1c0.1-0.1,0.2-0.2,0.2-0.4c0-0.2-0.1-0.3-0.2-0.4s-0.4-0.2-0.8-0.3c-0.4-0.1-0.7-0.2-0.9-0.3s-0.4-0.2-0.6-0.4
		c-0.2-0.2-0.3-0.5-0.3-0.8c0-0.3,0.1-0.5,0.2-0.8c0.2-0.2,0.4-0.4,0.7-0.5c0.3-0.1,0.6-0.2,1-0.2c0.6,0,1.1,0.1,1.4,0.4
		c0.4,0.3,0.5,0.7,0.6,1.2h-1.2c0-0.2-0.1-0.4-0.2-0.5c-0.1-0.1-0.3-0.2-0.6-0.2c-0.2,0-0.4,0-0.5,0.1c-0.1,0.1-0.2,0.2-0.2,0.4
		c0,0.2,0.1,0.3,0.3,0.4c0.2,0.1,0.4,0.2,0.8,0.3c0.4,0.1,0.7,0.2,0.9,0.3c0.2,0.1,0.4,0.2,0.6,0.4s0.3,0.5,0.3,0.8
		c0,0.3-0.1,0.5-0.2,0.8c-0.2,0.2-0.4,0.4-0.7,0.5c-0.3,0.1-0.6,0.2-1,0.2C225.4,59.4,225,59.3,224.7,59.2z"/>
	<path fill="#363636" d="M233.4,57.2h-3.6c0,0.4,0.2,0.6,0.4,0.8c0.2,0.2,0.5,0.3,0.8,0.3c0.5,0,0.8-0.2,1-0.6h1.4
		c-0.1,0.5-0.4,0.9-0.8,1.2c-0.4,0.3-0.9,0.5-1.5,0.5c-0.5,0-0.9-0.1-1.3-0.3c-0.4-0.2-0.7-0.5-0.9-0.9c-0.2-0.4-0.3-0.8-0.3-1.4
		c0-0.5,0.1-1,0.3-1.4c0.2-0.4,0.5-0.7,0.9-0.9s0.8-0.3,1.3-0.3c0.5,0,0.9,0.1,1.3,0.3s0.7,0.5,0.9,0.9s0.3,0.8,0.3,1.3
		C233.4,56.9,233.4,57,233.4,57.2z M232.1,56.3c0-0.3-0.1-0.6-0.4-0.8c-0.2-0.2-0.5-0.3-0.8-0.3c-0.3,0-0.6,0.1-0.8,0.3
		c-0.2,0.2-0.3,0.5-0.4,0.8H232.1z"/>
	<path fill="#363636" d="M236.3,54.5c0.3-0.2,0.6-0.2,1-0.2c0.4,0,0.8,0.1,1.2,0.3c0.3,0.2,0.6,0.5,0.8,0.9s0.3,0.8,0.3,1.3
		s-0.1,1-0.3,1.4c-0.2,0.4-0.5,0.7-0.8,0.9c-0.3,0.2-0.7,0.3-1.2,0.3c-0.4,0-0.7-0.1-1-0.2c-0.3-0.2-0.5-0.3-0.7-0.6v3.1h-1.3v-7.4
		h1.3V55C235.8,54.8,236,54.6,236.3,54.5z M238.1,56c-0.1-0.2-0.3-0.4-0.5-0.5c-0.2-0.1-0.4-0.2-0.7-0.2c-0.2,0-0.4,0.1-0.6,0.2
		c-0.2,0.1-0.4,0.3-0.5,0.5c-0.1,0.2-0.2,0.5-0.2,0.8s0.1,0.6,0.2,0.8s0.3,0.4,0.5,0.5c0.2,0.1,0.4,0.2,0.6,0.2
		c0.2,0,0.5-0.1,0.7-0.2c0.2-0.1,0.4-0.3,0.5-0.5s0.2-0.5,0.2-0.8C238.2,56.5,238.2,56.2,238.1,56z"/>
	<path fill="#363636" d="M244.3,54.5c0.3,0.2,0.5,0.4,0.7,0.7c0.2,0.3,0.2,0.7,0.2,1.2v2.9h-1.3v-2.8c0-0.4-0.1-0.7-0.3-0.9
		c-0.2-0.2-0.5-0.3-0.8-0.3c-0.3,0-0.6,0.1-0.8,0.3c-0.2,0.2-0.3,0.5-0.3,0.9v2.8h-1.3v-6.7h1.3v2.3c0.2-0.2,0.4-0.4,0.6-0.5
		s0.6-0.2,0.9-0.2C243.6,54.2,244,54.3,244.3,54.5z"/>
	<path fill="#363636" d="M252.5,53.4c0.5,0.3,0.9,0.6,1.2,1.1c0.3,0.5,0.4,1,0.4,1.7s-0.1,1.2-0.4,1.7c-0.3,0.5-0.7,0.8-1.2,1.1
		s-1.1,0.4-1.7,0.4h-2.2V53h2.2C251.4,53,252,53.1,252.5,53.4z M252.2,57.7c0.4-0.4,0.5-0.9,0.5-1.5s-0.2-1.2-0.5-1.5
		c-0.4-0.4-0.9-0.6-1.5-0.6h-0.9v4.1h0.9C251.4,58.2,251.9,58,252.2,57.7z"/>
	<path fill="#363636" d="M259.6,57.2h-3.6c0,0.4,0.2,0.6,0.4,0.8c0.2,0.2,0.5,0.3,0.8,0.3c0.5,0,0.8-0.2,1-0.6h1.4
		c-0.1,0.5-0.4,0.9-0.8,1.2c-0.4,0.3-0.9,0.5-1.5,0.5c-0.5,0-0.9-0.1-1.3-0.3c-0.4-0.2-0.7-0.5-0.9-0.9c-0.2-0.4-0.3-0.8-0.3-1.4
		c0-0.5,0.1-1,0.3-1.4c0.2-0.4,0.5-0.7,0.9-0.9s0.8-0.3,1.3-0.3c0.5,0,0.9,0.1,1.3,0.3s0.7,0.5,0.9,0.9s0.3,0.8,0.3,1.3
		C259.6,56.9,259.6,57,259.6,57.2z M258.3,56.3c0-0.3-0.1-0.6-0.4-0.8c-0.2-0.2-0.5-0.3-0.8-0.3c-0.3,0-0.6,0.1-0.8,0.3
		c-0.2,0.2-0.3,0.5-0.4,0.8H258.3z"/>
	<path fill="#363636" d="M261.8,52.6v6.7h-1.3v-6.7H261.8z"/>
	<path fill="#363636" d="M266,54.4c0.3,0.1,0.5,0.3,0.7,0.6v-0.7h1.3v5c0,0.5-0.1,0.9-0.3,1.2c-0.2,0.4-0.5,0.7-0.8,0.9
		s-0.8,0.3-1.3,0.3c-0.7,0-1.3-0.2-1.7-0.5c-0.5-0.3-0.7-0.8-0.8-1.3h1.3c0.1,0.2,0.2,0.4,0.4,0.5c0.2,0.1,0.5,0.2,0.8,0.2
		c0.4,0,0.7-0.1,0.9-0.3c0.2-0.2,0.3-0.6,0.3-1v-0.8c-0.2,0.2-0.4,0.4-0.7,0.6c-0.3,0.2-0.6,0.2-1,0.2c-0.4,0-0.8-0.1-1.2-0.3
		c-0.3-0.2-0.6-0.5-0.8-0.9c-0.2-0.4-0.3-0.8-0.3-1.4c0-0.5,0.1-1,0.3-1.3c0.2-0.4,0.5-0.7,0.8-0.9c0.3-0.2,0.7-0.3,1.2-0.3
		C265.4,54.2,265.7,54.3,266,54.4z M266.5,56c-0.1-0.2-0.3-0.4-0.5-0.5c-0.2-0.1-0.4-0.2-0.7-0.2c-0.2,0-0.5,0.1-0.6,0.2
		s-0.4,0.3-0.5,0.5c-0.1,0.2-0.2,0.5-0.2,0.8s0.1,0.6,0.2,0.8c0.1,0.2,0.3,0.4,0.5,0.5s0.4,0.2,0.6,0.2c0.2,0,0.5-0.1,0.7-0.2
		c0.2-0.1,0.4-0.3,0.5-0.5c0.1-0.2,0.2-0.5,0.2-0.8C266.7,56.5,266.6,56.2,266.5,56z"/>
	<path fill="#363636" d="M269.1,55.4c0.2-0.4,0.5-0.7,0.8-0.9c0.3-0.2,0.7-0.3,1.2-0.3c0.4,0,0.7,0.1,1,0.2c0.3,0.1,0.5,0.3,0.7,0.6
		v-0.7h1.3v5h-1.3v-0.7c-0.2,0.2-0.4,0.4-0.7,0.6c-0.3,0.2-0.6,0.2-1,0.2c-0.4,0-0.8-0.1-1.1-0.3c-0.3-0.2-0.6-0.5-0.8-0.9
		c-0.2-0.4-0.3-0.8-0.3-1.4C268.8,56.3,268.9,55.8,269.1,55.4z M272.6,56c-0.1-0.2-0.3-0.4-0.5-0.5c-0.2-0.1-0.4-0.2-0.7-0.2
		c-0.2,0-0.4,0.1-0.6,0.2s-0.4,0.3-0.5,0.5c-0.1,0.2-0.2,0.5-0.2,0.8s0.1,0.6,0.2,0.8c0.1,0.2,0.3,0.4,0.5,0.5s0.4,0.2,0.6,0.2
		c0.2,0,0.5-0.1,0.7-0.2c0.2-0.1,0.4-0.3,0.5-0.5c0.1-0.2,0.2-0.5,0.2-0.8C272.8,56.5,272.7,56.2,272.6,56z"/>
	<path fill="#363636" d="M275.2,55.4c0.2-0.4,0.5-0.7,0.8-0.9c0.3-0.2,0.7-0.3,1.2-0.3c0.3,0,0.6,0.1,0.9,0.2s0.5,0.3,0.7,0.6v-2.4
		h1.3v6.7h-1.3v-0.7c-0.2,0.2-0.4,0.4-0.7,0.6c-0.3,0.1-0.6,0.2-1,0.2c-0.4,0-0.8-0.1-1.2-0.3c-0.3-0.2-0.6-0.5-0.8-0.9
		c-0.2-0.4-0.3-0.8-0.3-1.4C274.9,56.3,275,55.8,275.2,55.4z M278.7,56c-0.1-0.2-0.3-0.4-0.5-0.5c-0.2-0.1-0.4-0.2-0.7-0.2
		c-0.2,0-0.5,0.1-0.6,0.2s-0.4,0.3-0.5,0.5c-0.1,0.2-0.2,0.5-0.2,0.8s0.1,0.6,0.2,0.8c0.1,0.2,0.3,0.4,0.5,0.5s0.4,0.2,0.6,0.2
		c0.2,0,0.5-0.1,0.7-0.2c0.2-0.1,0.4-0.3,0.5-0.5c0.1-0.2,0.2-0.5,0.2-0.8C278.9,56.5,278.8,56.2,278.7,56z"/>
	<path fill="#363636" d="M281.4,53.5c-0.1-0.1-0.2-0.3-0.2-0.5c0-0.2,0.1-0.4,0.2-0.5c0.1-0.1,0.3-0.2,0.6-0.2s0.4,0.1,0.6,0.2
		c0.1,0.1,0.2,0.3,0.2,0.5c0,0.2-0.1,0.4-0.2,0.5c-0.1,0.1-0.3,0.2-0.6,0.2S281.6,53.6,281.4,53.5z M282.6,54.3v5h-1.3v-5H282.6z"/>
	<path fill="#363636" d="M285.1,52.6v6.7h-1.3v-6.7H285.1z"/>
	<path fill="#363636" d="M287.6,52.6v6.7h-1.3v-6.7H287.6z"/>
	<path fill="#363636" d="M289.8,59.1c-0.4-0.2-0.7-0.5-0.9-0.9c-0.2-0.4-0.3-0.8-0.3-1.4s0.1-1,0.3-1.3c0.2-0.4,0.5-0.7,0.9-0.9
		c0.4-0.2,0.8-0.3,1.3-0.3c0.5,0,0.9,0.1,1.3,0.3s0.7,0.5,0.9,0.9c0.2,0.4,0.3,0.8,0.3,1.3s-0.1,1-0.3,1.4c-0.2,0.4-0.5,0.7-0.9,0.9
		c-0.4,0.2-0.8,0.3-1.3,0.3C290.6,59.4,290.2,59.3,289.8,59.1z M291.7,58.1c0.2-0.1,0.4-0.3,0.5-0.5c0.1-0.2,0.2-0.5,0.2-0.8
		c0-0.5-0.1-0.8-0.4-1.1c-0.2-0.3-0.6-0.4-0.9-0.4c-0.4,0-0.7,0.1-0.9,0.4c-0.2,0.3-0.4,0.6-0.4,1.1c0,0.5,0.1,0.8,0.4,1.1
		c0.2,0.3,0.5,0.4,0.9,0.4C291.3,58.3,291.5,58.2,291.7,58.1z"/>
	<path fill="#363636" d="M296,58l-1.1,2.5h-0.8l0.6-2.5H296z"/>
	<path fill="#363636" d="M302.4,53v3.9c0,0.4,0.1,0.8,0.3,1c0.2,0.2,0.5,0.3,0.9,0.3c0.4,0,0.7-0.1,0.9-0.3c0.2-0.2,0.3-0.5,0.3-1
		V53h1.3v3.9c0,0.5-0.1,1-0.3,1.4c-0.2,0.4-0.5,0.6-0.9,0.8c-0.4,0.2-0.8,0.3-1.3,0.3c-0.5,0-0.9-0.1-1.3-0.3
		c-0.4-0.2-0.7-0.5-0.9-0.8c-0.2-0.4-0.3-0.8-0.3-1.4V53H302.4z"/>
	<path fill="#363636" d="M307.4,55.4c0.2-0.4,0.5-0.7,0.8-0.9c0.3-0.2,0.7-0.3,1.2-0.3c0.3,0,0.6,0.1,0.9,0.2s0.5,0.3,0.7,0.6v-2.4
		h1.3v6.7H311v-0.7c-0.2,0.2-0.4,0.4-0.7,0.6c-0.3,0.1-0.6,0.2-1,0.2c-0.4,0-0.8-0.1-1.2-0.3c-0.3-0.2-0.6-0.5-0.8-0.9
		c-0.2-0.4-0.3-0.8-0.3-1.4C307.1,56.3,307.2,55.8,307.4,55.4z M310.9,56c-0.1-0.2-0.3-0.4-0.5-0.5c-0.2-0.1-0.4-0.2-0.7-0.2
		c-0.2,0-0.4,0.1-0.6,0.2s-0.4,0.3-0.5,0.5c-0.1,0.2-0.2,0.5-0.2,0.8s0.1,0.6,0.2,0.8c0.1,0.2,0.3,0.4,0.5,0.5s0.4,0.2,0.6,0.2
		c0.2,0,0.5-0.1,0.7-0.2c0.2-0.1,0.4-0.3,0.5-0.5c0.1-0.2,0.2-0.5,0.2-0.8C311,56.5,311,56.2,310.9,56z"/>
	<path fill="#363636" d="M318.1,57.2h-3.6c0,0.4,0.2,0.6,0.4,0.8c0.2,0.2,0.5,0.3,0.8,0.3c0.5,0,0.8-0.2,1-0.6h1.4
		c-0.1,0.5-0.4,0.9-0.8,1.2c-0.4,0.3-0.9,0.5-1.5,0.5c-0.5,0-0.9-0.1-1.3-0.3s-0.7-0.5-0.9-0.9c-0.2-0.4-0.3-0.8-0.3-1.4
		c0-0.5,0.1-1,0.3-1.4c0.2-0.4,0.5-0.7,0.9-0.9s0.8-0.3,1.3-0.3c0.5,0,0.9,0.1,1.3,0.3s0.7,0.5,0.9,0.9s0.3,0.8,0.3,1.3
		C318.2,56.9,318.2,57,318.1,57.2z M316.9,56.3c0-0.3-0.1-0.6-0.4-0.8c-0.2-0.2-0.5-0.3-0.8-0.3c-0.3,0-0.6,0.1-0.8,0.3
		c-0.2,0.2-0.3,0.5-0.4,0.8H316.9z"/>
	<path fill="#363636" d="M326.8,54.8c0.4,0.4,0.6,0.9,0.6,1.6v2.9h-1.3v-2.8c0-0.4-0.1-0.7-0.3-0.9c-0.2-0.2-0.5-0.3-0.8-0.3
		s-0.6,0.1-0.8,0.3s-0.3,0.5-0.3,0.9v2.8h-1.3v-2.8c0-0.4-0.1-0.7-0.3-0.9s-0.5-0.3-0.8-0.3c-0.3,0-0.6,0.1-0.8,0.3
		s-0.3,0.5-0.3,0.9v2.8h-1.3v-5h1.3v0.6c0.2-0.2,0.4-0.4,0.6-0.5s0.5-0.2,0.8-0.2c0.4,0,0.7,0.1,1,0.2c0.3,0.2,0.5,0.4,0.7,0.7
		c0.2-0.3,0.4-0.5,0.7-0.7c0.3-0.2,0.6-0.3,1-0.3C325.9,54.2,326.4,54.4,326.8,54.8z"/>
	<path fill="#363636" d="M333.3,54.3l-3.1,7.3h-1.3l1.1-2.5l-2-4.9h1.4l1.3,3.5l1.3-3.5H333.3z"/>
</g>
<g>
	<path fill="#363636" d="M218,90.3v0.8h-2.1v6.9h-1v-6.9h-2.1v-0.8H218z"/>
	<path fill="#363636" d="M224.7,95.3h-4.8c0,0.6,0.2,1.1,0.6,1.4c0.4,0.3,0.8,0.5,1.3,0.5c0.4,0,0.8-0.1,1.1-0.3
		c0.3-0.2,0.5-0.5,0.6-0.8h1.1c-0.2,0.6-0.5,1.1-1,1.4c-0.5,0.4-1.1,0.5-1.8,0.5c-0.6,0-1.1-0.1-1.5-0.4s-0.8-0.6-1.1-1.1
		c-0.3-0.5-0.4-1-0.4-1.6c0-0.6,0.1-1.2,0.4-1.6c0.2-0.5,0.6-0.8,1.1-1.1c0.5-0.3,1-0.4,1.6-0.4c0.6,0,1.1,0.1,1.5,0.4s0.8,0.6,1,1
		s0.4,0.9,0.4,1.5C224.7,94.9,224.7,95.1,224.7,95.3z M223.4,93.5c-0.2-0.3-0.4-0.5-0.7-0.6c-0.3-0.1-0.6-0.2-1-0.2
		c-0.5,0-0.9,0.2-1.3,0.5c-0.4,0.3-0.6,0.8-0.6,1.3h3.8C223.7,94.1,223.6,93.8,223.4,93.5z"/>
	<path fill="#363636" d="M230.7,92.4c0.5,0.4,0.7,1.1,0.7,1.9v3.6h-1v-3.4c0-0.6-0.2-1.1-0.5-1.4c-0.3-0.3-0.7-0.5-1.2-0.5
		c-0.5,0-0.9,0.2-1.3,0.5c-0.3,0.3-0.5,0.8-0.5,1.4v3.3h-1v-6h1v0.9c0.2-0.3,0.5-0.5,0.8-0.7c0.3-0.2,0.7-0.3,1.1-0.3
		C229.7,91.8,230.3,92,230.7,92.4z"/>
	<path fill="#363636" d="M233.9,97.8c-0.4-0.2-0.7-0.4-0.9-0.7c-0.2-0.3-0.3-0.6-0.4-1h1c0,0.3,0.2,0.5,0.4,0.7
		c0.3,0.2,0.6,0.3,1,0.3c0.4,0,0.7-0.1,0.9-0.3c0.2-0.2,0.3-0.4,0.3-0.6c0-0.3-0.1-0.5-0.4-0.6c-0.2-0.1-0.6-0.3-1.1-0.4
		c-0.4-0.1-0.8-0.2-1.1-0.4s-0.5-0.3-0.7-0.5c-0.2-0.2-0.3-0.6-0.3-0.9c0-0.3,0.1-0.6,0.3-0.8c0.2-0.3,0.4-0.5,0.8-0.6
		s0.7-0.2,1.2-0.2c0.7,0,1.2,0.2,1.6,0.5c0.4,0.3,0.6,0.8,0.7,1.4h-1c0-0.3-0.1-0.6-0.4-0.8c-0.2-0.2-0.5-0.3-0.9-0.3
		c-0.4,0-0.6,0.1-0.9,0.2c-0.2,0.2-0.3,0.4-0.3,0.6c0,0.2,0.1,0.4,0.2,0.5c0.1,0.1,0.3,0.2,0.5,0.3s0.5,0.2,0.8,0.3
		c0.4,0.1,0.8,0.2,1.1,0.3c0.3,0.1,0.5,0.3,0.7,0.5c0.2,0.2,0.3,0.5,0.3,0.9c0,0.3-0.1,0.6-0.3,0.9c-0.2,0.3-0.4,0.5-0.8,0.6
		c-0.3,0.2-0.7,0.2-1.1,0.2C234.7,98,234.3,97.9,233.9,97.8z"/>
	<path fill="#363636" d="M239.9,97.6c-0.5-0.3-0.8-0.6-1.1-1.1c-0.3-0.5-0.4-1-0.4-1.6c0-0.6,0.1-1.2,0.4-1.6
		c0.3-0.5,0.6-0.8,1.1-1.1c0.5-0.3,1-0.4,1.6-0.4s1.1,0.1,1.6,0.4c0.5,0.3,0.8,0.6,1.1,1.1c0.3,0.5,0.4,1,0.4,1.6
		c0,0.6-0.1,1.2-0.4,1.6c-0.3,0.5-0.6,0.8-1.1,1.1s-1,0.4-1.6,0.4C240.9,98,240.4,97.9,239.9,97.6z M242.4,96.9
		c0.3-0.2,0.6-0.4,0.8-0.8s0.3-0.7,0.3-1.2c0-0.5-0.1-0.9-0.3-1.2c-0.2-0.3-0.4-0.6-0.7-0.8c-0.3-0.2-0.6-0.2-1-0.2
		c-0.4,0-0.7,0.1-1,0.2s-0.5,0.4-0.7,0.8c-0.2,0.3-0.3,0.7-0.3,1.2c0,0.5,0.1,0.9,0.3,1.2c0.2,0.3,0.4,0.6,0.7,0.8s0.6,0.2,1,0.2
		S242.1,97.1,242.4,96.9z"/>
	<path fill="#363636" d="M247.6,92.1c0.3-0.2,0.7-0.3,1.2-0.3v1h-0.3c-1.1,0-1.7,0.6-1.7,1.8v3.3h-1v-6h1v1
		C247,92.5,247.3,92.3,247.6,92.1z"/>
	<path fill="#363636" d="M254.3,90.3v0.8h-3.3v2.6h2.7v0.8h-2.7v3.5h-1v-7.7H254.3z"/>
	<path fill="#363636" d="M256.5,89.8v8.1h-1v-8.1H256.5z"/>
	<path fill="#363636" d="M259.3,97.6c-0.5-0.3-0.8-0.6-1.1-1.1c-0.3-0.5-0.4-1-0.4-1.6c0-0.6,0.1-1.2,0.4-1.6
		c0.3-0.5,0.6-0.8,1.1-1.1c0.5-0.3,1-0.4,1.6-0.4c0.6,0,1.1,0.1,1.6,0.4c0.5,0.3,0.8,0.6,1.1,1.1c0.3,0.5,0.4,1,0.4,1.6
		c0,0.6-0.1,1.2-0.4,1.6c-0.3,0.5-0.6,0.8-1.1,1.1c-0.5,0.3-1,0.4-1.6,0.4C260.3,98,259.7,97.9,259.3,97.6z M261.8,96.9
		c0.3-0.2,0.6-0.4,0.8-0.8s0.3-0.7,0.3-1.2c0-0.5-0.1-0.9-0.3-1.2s-0.4-0.6-0.7-0.8s-0.6-0.2-1-0.2c-0.4,0-0.7,0.1-1,0.2
		c-0.3,0.2-0.5,0.4-0.7,0.8s-0.3,0.7-0.3,1.2c0,0.5,0.1,0.9,0.3,1.2c0.2,0.3,0.4,0.6,0.7,0.8s0.6,0.2,1,0.2S261.5,97.1,261.8,96.9z"
		/>
	<path fill="#363636" d="M273.3,91.9l-1.9,6h-1l-1.5-4.8l-1.5,4.8h-1l-1.9-6h1l1.4,5.1l1.5-5.1h1l1.5,5.1l1.4-5.1H273.3z"/>
	<path fill="#363636" d="M279.1,95.3c0.5-0.5,1-1,1.3-1.5c0.4-0.5,0.5-1,0.5-1.5c0-0.5-0.1-0.9-0.3-1.1c-0.2-0.3-0.6-0.4-1.1-0.4
		c-0.5,0-0.9,0.2-1.2,0.5c-0.3,0.3-0.4,0.7-0.4,1.2h-1c0-0.8,0.3-1.5,0.7-1.9c0.5-0.4,1.1-0.7,1.8-0.7c0.8,0,1.4,0.2,1.8,0.6
		s0.7,1,0.7,1.7c0,0.6-0.2,1.2-0.5,1.8c-0.4,0.6-0.8,1.1-1.2,1.5s-1.1,0.9-1.8,1.5h3.8v0.8h-5.3v-0.7
		C277.8,96.4,278.6,95.8,279.1,95.3z"/>
	<path fill="#363636" d="M283.3,97.8c-0.1-0.1-0.2-0.3-0.2-0.5c0-0.2,0.1-0.4,0.2-0.5c0.1-0.1,0.3-0.2,0.5-0.2
		c0.2,0,0.3,0.1,0.5,0.2c0.1,0.1,0.2,0.3,0.2,0.5c0,0.2-0.1,0.4-0.2,0.5c-0.1,0.1-0.3,0.2-0.5,0.2C283.6,98,283.5,97.9,283.3,97.8z"
		/>
	<path fill="#363636" d="M286.3,90.9c0.4-0.7,1.1-1.1,2.2-1.1c1,0,1.7,0.4,2.1,1.1c0.4,0.7,0.6,1.7,0.6,3c0,1.3-0.2,2.3-0.6,3
		c-0.4,0.7-1.1,1.1-2.1,1.1c-1,0-1.7-0.4-2.2-1.1c-0.4-0.7-0.6-1.7-0.6-3C285.7,92.6,285.9,91.6,286.3,90.9z M290.1,92.2
		c-0.1-0.4-0.3-0.8-0.5-1.1c-0.3-0.3-0.6-0.4-1.1-0.4c-0.5,0-0.9,0.1-1.1,0.4c-0.3,0.3-0.4,0.6-0.5,1.1c-0.1,0.4-0.1,1-0.1,1.6
		c0,0.7,0,1.2,0.1,1.7c0.1,0.4,0.3,0.8,0.5,1.1c0.3,0.3,0.6,0.4,1.1,0.4c0.5,0,0.9-0.1,1.1-0.4c0.3-0.3,0.4-0.6,0.5-1.1
		c0.1-0.4,0.1-1,0.1-1.7C290.2,93.2,290.2,92.7,290.1,92.2z"/>
	<path fill="#363636" d="M300.1,94.1c-0.4,0.4-1.1,0.6-2,0.6h-1.5v3.2h-1v-7.7h2.5c0.9,0,1.5,0.2,2,0.6s0.7,1,0.7,1.6
		C300.8,93.1,300.6,93.7,300.1,94.1z M299.4,93.5c0.3-0.2,0.4-0.6,0.4-1c0-0.9-0.5-1.4-1.6-1.4h-1.5v2.8h1.5
		C298.7,93.9,299.1,93.8,299.4,93.5z"/>
	<path fill="#363636" d="M303.8,92.1c0.3-0.2,0.7-0.3,1.2-0.3v1h-0.3c-1.1,0-1.7,0.6-1.7,1.8v3.3h-1v-6h1v1
		C303.2,92.5,303.5,92.3,303.8,92.1z"/>
	<path fill="#363636" d="M306.1,93.3c0.2-0.5,0.6-0.8,1-1.1s0.9-0.4,1.5-0.4c0.5,0,1,0.1,1.4,0.3s0.7,0.5,0.9,0.9v-1.1h1v6h-1v-1.1
		c-0.2,0.4-0.5,0.6-0.9,0.9c-0.4,0.2-0.8,0.3-1.4,0.3c-0.5,0-1-0.1-1.5-0.4c-0.4-0.3-0.8-0.6-1-1.1s-0.4-1-0.4-1.6
		C305.8,94.3,305.9,93.7,306.1,93.3z M310.6,93.7c-0.2-0.3-0.4-0.6-0.7-0.8c-0.3-0.2-0.7-0.3-1-0.3c-0.4,0-0.7,0.1-1,0.3
		s-0.6,0.4-0.7,0.8c-0.2,0.3-0.3,0.7-0.3,1.2c0,0.5,0.1,0.9,0.3,1.2c0.2,0.3,0.4,0.6,0.7,0.8s0.6,0.3,1,0.3c0.4,0,0.7-0.1,1-0.3
		c0.3-0.2,0.6-0.4,0.7-0.8c0.2-0.3,0.3-0.7,0.3-1.2C310.9,94.4,310.8,94,310.6,93.7z"/>
	<path fill="#363636" d="M313.6,93.3c0.2-0.5,0.6-0.8,1-1.1s1-0.4,1.5-0.4c0.7,0,1.4,0.2,1.8,0.5c0.5,0.4,0.8,0.9,1,1.5h-1.1
		c-0.1-0.4-0.3-0.7-0.6-0.9s-0.7-0.3-1.1-0.3c-0.6,0-1,0.2-1.4,0.6c-0.4,0.4-0.5,0.9-0.5,1.7c0,0.7,0.2,1.3,0.5,1.7
		c0.4,0.4,0.8,0.6,1.4,0.6c0.4,0,0.8-0.1,1.1-0.3c0.3-0.2,0.5-0.5,0.6-0.9h1.1c-0.2,0.6-0.5,1.1-1,1.5c-0.5,0.4-1.1,0.6-1.8,0.6
		c-0.6,0-1.1-0.1-1.5-0.4s-0.8-0.6-1-1.1c-0.2-0.5-0.4-1-0.4-1.7C313.2,94.3,313.3,93.7,313.6,93.3z"/>
	<path fill="#363636" d="M321.5,92.7v3.6c0,0.3,0.1,0.5,0.2,0.6c0.1,0.1,0.3,0.2,0.6,0.2h0.7v0.8h-0.9c-0.6,0-1-0.1-1.3-0.4
		c-0.3-0.3-0.4-0.7-0.4-1.3v-3.6h-0.8v-0.8h0.8v-1.5h1v1.5h1.6v0.8H321.5z"/>
	<path fill="#363636" d="M324.3,90.7c-0.1-0.1-0.2-0.3-0.2-0.5c0-0.2,0.1-0.4,0.2-0.5c0.1-0.1,0.3-0.2,0.5-0.2
		c0.2,0,0.3,0.1,0.5,0.2c0.1,0.1,0.2,0.3,0.2,0.5c0,0.2-0.1,0.4-0.2,0.5c-0.1,0.1-0.3,0.2-0.5,0.2C324.6,90.9,324.4,90.8,324.3,90.7
		z M325.3,91.9v6h-1v-6H325.3z"/>
	<path fill="#363636" d="M327,93.3c0.2-0.5,0.6-0.8,1-1.1s1-0.4,1.5-0.4c0.7,0,1.4,0.2,1.8,0.5c0.5,0.4,0.8,0.9,1,1.5h-1.1
		c-0.1-0.4-0.3-0.7-0.6-0.9s-0.7-0.3-1.1-0.3c-0.6,0-1,0.2-1.4,0.6c-0.4,0.4-0.5,0.9-0.5,1.7c0,0.7,0.2,1.3,0.5,1.7
		c0.4,0.4,0.8,0.6,1.4,0.6c0.4,0,0.8-0.1,1.1-0.3c0.3-0.2,0.5-0.5,0.6-0.9h1.1c-0.2,0.6-0.5,1.1-1,1.5c-0.5,0.4-1.1,0.6-1.8,0.6
		c-0.6,0-1.1-0.1-1.5-0.4s-0.8-0.6-1-1.1c-0.2-0.5-0.4-1-0.4-1.7C326.6,94.3,326.7,93.7,327,93.3z"/>
	<path fill="#363636" d="M333.6,93.3c0.2-0.5,0.6-0.8,1-1.1c0.4-0.3,0.9-0.4,1.5-0.4c0.5,0,1,0.1,1.4,0.3s0.7,0.5,0.9,0.9v-1.1h1v6
		h-1v-1.1c-0.2,0.4-0.5,0.6-0.9,0.9c-0.4,0.2-0.8,0.3-1.4,0.3c-0.5,0-1-0.1-1.5-0.4s-0.8-0.6-1-1.1c-0.2-0.5-0.4-1-0.4-1.6
		C333.3,94.3,333.4,93.7,333.6,93.3z M338.1,93.7c-0.2-0.3-0.4-0.6-0.7-0.8s-0.7-0.3-1-0.3s-0.7,0.1-1,0.3c-0.3,0.2-0.6,0.4-0.7,0.8
		c-0.2,0.3-0.3,0.7-0.3,1.2c0,0.5,0.1,0.9,0.3,1.2c0.2,0.3,0.4,0.6,0.7,0.8c0.3,0.2,0.6,0.3,1,0.3s0.7-0.1,1-0.3s0.6-0.4,0.7-0.8
		c0.2-0.3,0.3-0.7,0.3-1.2C338.4,94.4,338.3,94,338.1,93.7z"/>
	<path fill="#363636" d="M342.1,89.8v8.1h-1v-8.1H342.1z"/>
</g>
<g>
	<path fill="#363636" d="M217,108c0.5,0.3,0.9,0.6,1.2,1.1c0.3,0.5,0.4,1,0.4,1.7s-0.1,1.2-0.4,1.7c-0.3,0.5-0.7,0.8-1.2,1.1
		s-1.1,0.4-1.7,0.4H213v-6.3h2.2C215.9,107.7,216.5,107.8,217,108z M216.7,112.3c0.4-0.4,0.5-0.9,0.5-1.5s-0.2-1.2-0.5-1.5
		c-0.4-0.4-0.9-0.6-1.5-0.6h-0.9v4.1h0.9C215.8,112.9,216.3,112.7,216.7,112.3z"/>
	<path fill="#363636" d="M221.4,109.1c0.3-0.1,0.6-0.2,0.9-0.2v1.3h-0.3c-0.4,0-0.7,0.1-0.9,0.3c-0.2,0.2-0.3,0.5-0.3,1v2.5h-1.3v-5
		h1.3v0.8C220.9,109.5,221.1,109.3,221.4,109.1z"/>
	<path fill="#363636" d="M223.1,113.8c-0.1-0.1-0.2-0.3-0.2-0.5s0.1-0.4,0.2-0.5c0.1-0.1,0.3-0.2,0.6-0.2c0.2,0,0.4,0.1,0.5,0.2
		c0.1,0.1,0.2,0.3,0.2,0.5s-0.1,0.4-0.2,0.5s-0.3,0.2-0.5,0.2C223.4,114,223.3,113.9,223.1,113.8z"/>
	<path fill="#363636" d="M230.8,113.9l-1.4-2.4h-0.6v2.4h-1.3v-6.3h2.4c0.5,0,0.9,0.1,1.2,0.3c0.3,0.2,0.6,0.4,0.8,0.7
		c0.2,0.3,0.3,0.6,0.3,1c0,0.4-0.1,0.8-0.4,1.1c-0.2,0.3-0.6,0.6-1.1,0.7l1.5,2.5H230.8z M228.9,110.5h1.1c0.3,0,0.6-0.1,0.8-0.2
		c0.2-0.2,0.3-0.4,0.3-0.7c0-0.3-0.1-0.5-0.3-0.7c-0.2-0.2-0.4-0.2-0.8-0.2h-1.1V110.5z"/>
	<path fill="#363636" d="M238.1,109l-3.1,7.3h-1.3l1.1-2.5l-2-4.9h1.4l1.3,3.5l1.3-3.5H238.1z"/>
	<path fill="#363636" d="M238.8,110.1c0.2-0.4,0.5-0.7,0.8-0.9s0.7-0.3,1.2-0.3c0.4,0,0.7,0.1,1,0.2c0.3,0.1,0.5,0.3,0.7,0.6V109
		h1.3v5h-1.3v-0.7c-0.2,0.2-0.4,0.4-0.7,0.6c-0.3,0.2-0.6,0.2-1,0.2c-0.4,0-0.8-0.1-1.1-0.3s-0.6-0.5-0.8-0.9
		c-0.2-0.4-0.3-0.8-0.3-1.4C238.5,110.9,238.6,110.5,238.8,110.1z M242.2,110.7c-0.1-0.2-0.3-0.4-0.5-0.5c-0.2-0.1-0.4-0.2-0.7-0.2
		s-0.4,0.1-0.6,0.2s-0.4,0.3-0.5,0.5c-0.1,0.2-0.2,0.5-0.2,0.8s0.1,0.6,0.2,0.8c0.1,0.2,0.3,0.4,0.5,0.5s0.4,0.2,0.6,0.2
		c0.2,0,0.5-0.1,0.7-0.2c0.2-0.1,0.4-0.3,0.5-0.5c0.1-0.2,0.2-0.5,0.2-0.8C242.4,111.1,242.3,110.9,242.2,110.7z"/>
	<path fill="#363636" d="M249.1,109.4c0.4,0.4,0.5,0.9,0.5,1.6v2.9h-1.3v-2.8c0-0.4-0.1-0.7-0.3-0.9c-0.2-0.2-0.5-0.3-0.8-0.3
		c-0.3,0-0.6,0.1-0.8,0.3c-0.2,0.2-0.3,0.5-0.3,0.9v2.8h-1.3v-5h1.3v0.6c0.2-0.2,0.4-0.4,0.6-0.5c0.3-0.1,0.5-0.2,0.9-0.2
		C248.3,108.9,248.7,109.1,249.1,109.4z"/>
	<path fill="#363636" d="M256.9,112.7h-2.5l-0.4,1.2h-1.3l2.3-6.3h1.5l2.3,6.3h-1.3L256.9,112.7z M256.5,111.7l-0.9-2.6l-0.9,2.6
		H256.5z"/>
	<path fill="#363636" d="M263.3,109.1c0.3,0.2,0.5,0.4,0.7,0.7c0.2,0.3,0.2,0.7,0.2,1.2v2.9h-1.3v-2.8c0-0.4-0.1-0.7-0.3-0.9
		c-0.2-0.2-0.5-0.3-0.8-0.3c-0.3,0-0.6,0.1-0.8,0.3c-0.2,0.2-0.3,0.5-0.3,0.9v2.8h-1.3v-6.7h1.3v2.3c0.2-0.2,0.4-0.4,0.6-0.5
		c0.3-0.1,0.6-0.2,0.9-0.2C262.6,108.9,263,109,263.3,109.1z"/>
	<path fill="#363636" d="M273.1,109.4c0.4,0.4,0.6,0.9,0.6,1.6v2.9h-1.3v-2.8c0-0.4-0.1-0.7-0.3-0.9s-0.5-0.3-0.8-0.3
		c-0.3,0-0.6,0.1-0.8,0.3c-0.2,0.2-0.3,0.5-0.3,0.9v2.8h-1.3v-2.8c0-0.4-0.1-0.7-0.3-0.9c-0.2-0.2-0.5-0.3-0.8-0.3
		c-0.3,0-0.6,0.1-0.8,0.3c-0.2,0.2-0.3,0.5-0.3,0.9v2.8h-1.3v-5h1.3v0.6c0.2-0.2,0.4-0.4,0.6-0.5s0.5-0.2,0.8-0.2
		c0.4,0,0.7,0.1,1,0.2c0.3,0.2,0.5,0.4,0.7,0.7c0.2-0.3,0.4-0.5,0.7-0.7c0.3-0.2,0.6-0.3,1-0.3C272.2,108.9,272.7,109.1,273.1,109.4
		z"/>
	<path fill="#363636" d="M279.4,111.8h-3.6c0,0.4,0.2,0.6,0.4,0.8c0.2,0.2,0.5,0.3,0.8,0.3c0.5,0,0.8-0.2,1-0.6h1.4
		c-0.1,0.5-0.4,0.9-0.8,1.2c-0.4,0.3-0.9,0.5-1.5,0.5c-0.5,0-0.9-0.1-1.3-0.3s-0.7-0.5-0.9-0.9c-0.2-0.4-0.3-0.8-0.3-1.4
		c0-0.5,0.1-1,0.3-1.4c0.2-0.4,0.5-0.7,0.9-0.9s0.8-0.3,1.3-0.3c0.5,0,0.9,0.1,1.3,0.3s0.7,0.5,0.9,0.9s0.3,0.8,0.3,1.3
		C279.5,111.5,279.4,111.7,279.4,111.8z M278.2,111c0-0.3-0.1-0.6-0.4-0.8c-0.2-0.2-0.5-0.3-0.8-0.3c-0.3,0-0.6,0.1-0.8,0.3
		c-0.2,0.2-0.3,0.5-0.4,0.8H278.2z"/>
	<path fill="#363636" d="M280.4,110.1c0.2-0.4,0.5-0.7,0.8-0.9c0.3-0.2,0.7-0.3,1.2-0.3c0.3,0,0.6,0.1,0.9,0.2s0.5,0.3,0.7,0.6v-2.4
		h1.3v6.7H284v-0.7c-0.2,0.2-0.4,0.4-0.7,0.6c-0.3,0.1-0.6,0.2-1,0.2c-0.4,0-0.8-0.1-1.2-0.3c-0.3-0.2-0.6-0.5-0.8-0.9
		c-0.2-0.4-0.3-0.8-0.3-1.4C280.1,110.9,280.2,110.5,280.4,110.1z M283.8,110.7c-0.1-0.2-0.3-0.4-0.5-0.5c-0.2-0.1-0.4-0.2-0.7-0.2
		c-0.2,0-0.5,0.1-0.6,0.2s-0.4,0.3-0.5,0.5c-0.1,0.2-0.2,0.5-0.2,0.8s0.1,0.6,0.2,0.8c0.1,0.2,0.3,0.4,0.5,0.5s0.4,0.2,0.6,0.2
		c0.2,0,0.5-0.1,0.7-0.2c0.2-0.1,0.4-0.3,0.5-0.5c0.1-0.2,0.2-0.5,0.2-0.8C284,111.1,283.9,110.9,283.8,110.7z"/>
	<path fill="#363636" d="M287.9,112.6l-1.1,2.5H286l0.6-2.5H287.9z"/>
	<path fill="#363636" d="M295.2,110.5c-0.2,0.3-0.4,0.5-0.7,0.7c-0.3,0.2-0.8,0.3-1.3,0.3h-1.1v2.4h-1.3v-6.3h2.3
		c0.5,0,0.9,0.1,1.2,0.3c0.3,0.2,0.6,0.4,0.8,0.7c0.2,0.3,0.3,0.6,0.3,1C295.5,109.9,295.4,110.3,295.2,110.5z M293.9,110.3
		c0.2-0.2,0.3-0.4,0.3-0.7c0-0.6-0.3-0.9-1-0.9h-1v1.8h1C293.5,110.5,293.8,110.4,293.9,110.3z"/>
	<path fill="#363636" d="M300.2,109.1c0.3,0.2,0.5,0.4,0.7,0.7c0.2,0.3,0.2,0.7,0.2,1.2v2.9h-1.3v-2.8c0-0.4-0.1-0.7-0.3-0.9
		c-0.2-0.2-0.5-0.3-0.8-0.3c-0.3,0-0.6,0.1-0.8,0.3c-0.2,0.2-0.3,0.5-0.3,0.9v2.8h-1.3v-6.7h1.3v2.3c0.2-0.2,0.4-0.4,0.6-0.5
		c0.3-0.1,0.6-0.2,0.9-0.2C299.6,108.9,299.9,109,300.2,109.1z"/>
	<path fill="#363636" d="M302.3,113.8c-0.1-0.1-0.2-0.3-0.2-0.5s0.1-0.4,0.2-0.5c0.1-0.1,0.3-0.2,0.6-0.2c0.2,0,0.4,0.1,0.5,0.2
		c0.1,0.1,0.2,0.3,0.2,0.5s-0.1,0.4-0.2,0.5c-0.1,0.1-0.3,0.2-0.5,0.2C302.7,114,302.5,113.9,302.3,113.8z"/>
	<path fill="#363636" d="M308.6,108c0.5,0.3,0.9,0.6,1.2,1.1c0.3,0.5,0.4,1,0.4,1.7s-0.1,1.2-0.4,1.7c-0.3,0.5-0.7,0.8-1.2,1.1
		s-1.1,0.4-1.7,0.4h-2.2v-6.3h2.2C307.5,107.7,308.1,107.8,308.6,108z M308.3,112.3c0.4-0.4,0.5-0.9,0.5-1.5s-0.2-1.2-0.5-1.5
		c-0.4-0.4-0.9-0.6-1.5-0.6h-0.9v4.1h0.9C307.5,112.9,308,112.7,308.3,112.3z"/>
	<path fill="#363636" d="M311.1,113.8c-0.1-0.1-0.2-0.3-0.2-0.5s0.1-0.4,0.2-0.5c0.1-0.1,0.3-0.2,0.6-0.2c0.2,0,0.4,0.1,0.5,0.2
		c0.1,0.1,0.2,0.3,0.2,0.5s-0.1,0.4-0.2,0.5c-0.1,0.1-0.3,0.2-0.5,0.2C311.4,114,311.3,113.9,311.1,113.8z"/>
	<path fill="#363636" d="M314.8,112.6l-1.1,2.5H313l0.6-2.5H314.8z"/>
	<path fill="#363636" d="M324.7,107.7v6.3h-1.3v-4.1l-1.7,4.1h-1l-1.7-4.1v4.1h-1.3v-6.3h1.4l2,4.7l2-4.7H324.7z"/>
	<path fill="#363636" d="M330.4,111.2c0.2,0.3,0.3,0.6,0.3,1c0,0.3-0.1,0.6-0.2,0.9s-0.4,0.5-0.7,0.6c-0.3,0.1-0.7,0.2-1.1,0.2H326
		v-6.3h2.6c0.4,0,0.8,0.1,1.1,0.2c0.3,0.1,0.5,0.3,0.7,0.6s0.2,0.5,0.2,0.8c0,0.4-0.1,0.7-0.3,0.9c-0.2,0.2-0.5,0.4-0.8,0.5
		C329.9,110.8,330.2,111,330.4,111.2z M327.2,110.2h1.2c0.3,0,0.5-0.1,0.7-0.2s0.2-0.3,0.2-0.6s-0.1-0.4-0.2-0.6
		c-0.2-0.1-0.4-0.2-0.7-0.2h-1.2V110.2z M329.2,112.7c0.2-0.1,0.3-0.3,0.3-0.6c0-0.3-0.1-0.5-0.3-0.6c-0.2-0.2-0.4-0.2-0.7-0.2h-1.2
		v1.7h1.3C328.8,112.9,329.1,112.8,329.2,112.7z"/>
	<path fill="#363636" d="M335.6,112.7h-2.5l-0.4,1.2h-1.3l2.3-6.3h1.5l2.3,6.3H336L335.6,112.7z M335.3,111.7l-0.9-2.6l-0.9,2.6
		H335.3z"/>
	<path fill="#363636" d="M339.6,112.6l-1.1,2.5h-0.8l0.6-2.5H339.6z"/>
	<path fill="#363636" d="M346,107.7v3.9c0,0.4,0.1,0.8,0.3,1c0.2,0.2,0.5,0.3,0.9,0.3c0.4,0,0.7-0.1,0.9-0.3c0.2-0.2,0.3-0.5,0.3-1
		v-3.9h1.3v3.9c0,0.5-0.1,1-0.3,1.4c-0.2,0.4-0.5,0.6-0.9,0.8c-0.4,0.2-0.8,0.3-1.3,0.3c-0.5,0-0.9-0.1-1.3-0.3
		c-0.4-0.2-0.7-0.5-0.9-0.8s-0.3-0.8-0.3-1.4v-3.9H346z"/>
	<path fill="#363636" d="M351,110.1c0.2-0.4,0.5-0.7,0.8-0.9c0.3-0.2,0.7-0.3,1.2-0.3c0.3,0,0.6,0.1,0.9,0.2s0.5,0.3,0.7,0.6v-2.4
		h1.3v6.7h-1.3v-0.7c-0.2,0.2-0.4,0.4-0.7,0.6c-0.3,0.1-0.6,0.2-1,0.2c-0.4,0-0.8-0.1-1.2-0.3c-0.3-0.2-0.6-0.5-0.8-0.9
		c-0.2-0.4-0.3-0.8-0.3-1.4C350.7,110.9,350.8,110.5,351,110.1z M354.5,110.7c-0.1-0.2-0.3-0.4-0.5-0.5c-0.2-0.1-0.4-0.2-0.7-0.2
		c-0.2,0-0.5,0.1-0.6,0.2s-0.4,0.3-0.5,0.5c-0.1,0.2-0.2,0.5-0.2,0.8s0.1,0.6,0.2,0.8c0.1,0.2,0.3,0.4,0.5,0.5s0.4,0.2,0.6,0.2
		c0.2,0,0.5-0.1,0.7-0.2c0.2-0.1,0.4-0.3,0.5-0.5c0.1-0.2,0.2-0.5,0.2-0.8C354.7,111.1,354.6,110.9,354.5,110.7z"/>
	<path fill="#363636" d="M361.8,111.8h-3.6c0,0.4,0.2,0.6,0.4,0.8c0.2,0.2,0.5,0.3,0.8,0.3c0.5,0,0.8-0.2,1-0.6h1.4
		c-0.1,0.5-0.4,0.9-0.8,1.2c-0.4,0.3-0.9,0.5-1.5,0.5c-0.5,0-0.9-0.1-1.3-0.3c-0.4-0.2-0.7-0.5-0.9-0.9c-0.2-0.4-0.3-0.8-0.3-1.4
		c0-0.5,0.1-1,0.3-1.4c0.2-0.4,0.5-0.7,0.9-0.9s0.8-0.3,1.3-0.3c0.5,0,0.9,0.1,1.3,0.3s0.7,0.5,0.9,0.9s0.3,0.8,0.3,1.3
		C361.8,111.5,361.8,111.7,361.8,111.8z M360.5,111c0-0.3-0.1-0.6-0.4-0.8c-0.2-0.2-0.5-0.3-0.8-0.3c-0.3,0-0.6,0.1-0.8,0.3
		c-0.2,0.2-0.3,0.5-0.4,0.8H360.5z"/>
	<path fill="#363636" d="M370.4,109.4c0.4,0.4,0.6,0.9,0.6,1.6v2.9h-1.3v-2.8c0-0.4-0.1-0.7-0.3-0.9s-0.5-0.3-0.8-0.3
		c-0.3,0-0.6,0.1-0.8,0.3c-0.2,0.2-0.3,0.5-0.3,0.9v2.8h-1.3v-2.8c0-0.4-0.1-0.7-0.3-0.9c-0.2-0.2-0.5-0.3-0.8-0.3
		c-0.3,0-0.6,0.1-0.8,0.3c-0.2,0.2-0.3,0.5-0.3,0.9v2.8h-1.3v-5h1.3v0.6c0.2-0.2,0.4-0.4,0.6-0.5s0.5-0.2,0.8-0.2
		c0.4,0,0.7,0.1,1,0.2c0.3,0.2,0.5,0.4,0.7,0.7c0.2-0.3,0.4-0.5,0.7-0.7c0.3-0.2,0.6-0.3,1-0.3C369.5,108.9,370,109.1,370.4,109.4z"
		/>
	<path fill="#363636" d="M376.9,109l-3.1,7.3h-1.3l1.1-2.5l-2-4.9h1.4l1.3,3.5l1.3-3.5H376.9z"/>
</g>
<path fill="#D4D4D4" d="M113.1,120.6c-0.2-0.6-0.7-1.1-1.3-1.1L108,119l-1.6-3.4c-0.3-0.6-0.9-0.9-1.5-0.9c-0.7,0-1.2,0.3-1.5,0.9
	l-1.6,3.4l-3.7,0.5c-0.6,0.1-1.1,0.5-1.3,1.1c-0.2,0.6,0,1.3,0.4,1.7l2.7,2.6l-0.6,3.7c-0.1,0.6,0.1,1.3,0.7,1.7
	c0.5,0.4,1.2,0.4,1.7,0.1l3.3-1.7l3.3,1.7c0.3,0.1,0.5,0.2,0.8,0.2c0.3,0,0.7-0.1,1-0.3c0.5-0.4,0.8-1,0.7-1.7l-0.6-3.7l2.7-2.6
	C113.1,121.9,113.3,121.2,113.1,120.6z"/>
<path fill="#FFA300" d="M92.9,120.6c-0.2-0.6-0.7-1.1-1.3-1.1l-3.7-0.5l-1.6-3.4c-0.3-0.6-0.9-0.9-1.5-0.9c-0.7,0-1.2,0.3-1.5,0.9
	l-1.6,3.4l-3.7,0.5c-0.6,0.1-1.1,0.5-1.3,1.1c-0.2,0.6,0,1.3,0.4,1.7l2.7,2.6l-0.6,3.7c-0.1,0.6,0.1,1.3,0.7,1.7
	c0.5,0.4,1.2,0.4,1.7,0.1l3.3-1.7l3.3,1.7c0.3,0.1,0.5,0.2,0.8,0.2c0.3,0,0.7-0.1,1-0.3c0.5-0.4,0.8-1,0.7-1.7L90,125l2.7-2.6
	C92.9,121.9,93.1,121.2,92.9,120.6z"/>
<path fill="#FFA300" d="M70.3,172.7c-0.1-0.4-0.5-0.8-0.9-0.8l-2.6-0.4l-1.1-2.3c-0.2-0.4-0.6-0.7-1-0.7c-0.5,0-0.8,0.2-1,0.7
	l-1.1,2.3l-2.6,0.4c-0.4,0-0.8,0.4-0.9,0.8c-0.1,0.4,0,0.9,0.3,1.2l1.9,1.8l-0.4,2.6c-0.1,0.4,0.1,0.9,0.5,1.2
	c0.4,0.3,0.8,0.3,1.2,0.1l2.3-1.2l2.3,1.2c0.2,0.1,0.4,0.1,0.6,0.1c0.2,0,0.5-0.1,0.7-0.2c0.4-0.3,0.6-0.7,0.5-1.2l-0.4-2.6l1.9-1.8
	C70.3,173.6,70.4,173.2,70.3,172.7z"/>
<g>
	<path fill="#363636" d="M233.8,172v5.6h-0.9V172H233.8z"/>
	<path fill="#363636" d="M237,174.2c0.2-0.3,0.4-0.6,0.8-0.8s0.7-0.3,1.1-0.3c0.5,0,1,0.1,1.3,0.4c0.3,0.3,0.6,0.6,0.7,1.1h-1
		c-0.1-0.2-0.2-0.4-0.4-0.5c-0.2-0.1-0.4-0.2-0.7-0.2c-0.4,0-0.7,0.1-0.9,0.4c-0.2,0.3-0.3,0.6-0.3,1.1s0.1,0.8,0.3,1.1
		s0.5,0.4,0.9,0.4c0.5,0,0.9-0.2,1-0.7h1c-0.1,0.4-0.4,0.8-0.7,1.1c-0.4,0.3-0.8,0.4-1.3,0.4c-0.4,0-0.8-0.1-1.1-0.3
		s-0.6-0.5-0.8-0.8c-0.2-0.3-0.3-0.7-0.3-1.2S236.9,174.5,237,174.2z"/>
	<path fill="#363636" d="M241.8,174.2c0.2-0.3,0.4-0.6,0.8-0.8c0.3-0.2,0.7-0.3,1.1-0.3c0.3,0,0.6,0.1,0.9,0.2
		c0.3,0.1,0.5,0.3,0.6,0.5v-0.6h0.9v4.4h-0.9v-0.7c-0.2,0.2-0.4,0.4-0.6,0.5s-0.6,0.2-0.9,0.2c-0.4,0-0.7-0.1-1-0.3
		c-0.3-0.2-0.6-0.5-0.7-0.8c-0.2-0.3-0.3-0.7-0.3-1.2C241.6,174.9,241.7,174.5,241.8,174.2z M245,174.6c-0.1-0.2-0.3-0.4-0.5-0.5
		s-0.4-0.2-0.7-0.2s-0.5,0.1-0.7,0.2c-0.2,0.1-0.4,0.3-0.5,0.5c-0.1,0.2-0.2,0.5-0.2,0.8c0,0.3,0.1,0.6,0.2,0.8s0.3,0.4,0.5,0.5
		c0.2,0.1,0.4,0.2,0.7,0.2c0.2,0,0.5-0.1,0.7-0.2c0.2-0.1,0.4-0.3,0.5-0.5c0.1-0.2,0.2-0.5,0.2-0.8S245.1,174.8,245,174.6z"/>
	<path fill="#363636" d="M250.4,173.3c0.3,0.1,0.5,0.4,0.6,0.6c0.2,0.3,0.2,0.6,0.2,1v2.6h-0.9v-2.5c0-0.4-0.1-0.7-0.3-0.9
		s-0.5-0.3-0.8-0.3s-0.6,0.1-0.8,0.3s-0.3,0.5-0.3,0.9v2.5h-0.9v-4.4h0.9v0.5c0.1-0.2,0.3-0.3,0.6-0.4s0.5-0.2,0.7-0.2
		C249.9,173.1,250.2,173.2,250.4,173.3z"/>
	<path fill="#363636" d="M256.1,173.3c0.3-0.1,0.6-0.2,0.9-0.2c0.4,0,0.7,0.1,1.1,0.3s0.6,0.5,0.7,0.8c0.2,0.3,0.3,0.7,0.3,1.2
		c0,0.4-0.1,0.8-0.3,1.2c-0.2,0.3-0.4,0.6-0.7,0.8c-0.3,0.2-0.7,0.3-1.1,0.3c-0.3,0-0.6-0.1-0.9-0.2c-0.3-0.1-0.5-0.3-0.6-0.5v0.6
		h-0.9v-5.9h0.9v2.2C255.6,173.6,255.8,173.4,256.1,173.3z M258,174.6c-0.1-0.2-0.3-0.4-0.5-0.5c-0.2-0.1-0.4-0.2-0.7-0.2
		c-0.2,0-0.4,0.1-0.7,0.2c-0.2,0.1-0.4,0.3-0.5,0.5c-0.1,0.2-0.2,0.5-0.2,0.8s0.1,0.6,0.2,0.8c0.1,0.2,0.3,0.4,0.5,0.5
		c0.2,0.1,0.4,0.2,0.7,0.2c0.2,0,0.5-0.1,0.7-0.2c0.2-0.1,0.4-0.3,0.5-0.5c0.1-0.2,0.2-0.5,0.2-0.8C258.2,175,258.1,174.8,258,174.6
		z"/>
	<path fill="#363636" d="M264,173.2v4.4h-0.9V177c-0.1,0.2-0.3,0.3-0.6,0.4c-0.2,0.1-0.5,0.2-0.7,0.2c-0.3,0-0.7-0.1-0.9-0.2
		c-0.3-0.1-0.5-0.4-0.6-0.6c-0.2-0.3-0.2-0.6-0.2-1v-2.6h0.9v2.5c0,0.4,0.1,0.7,0.3,0.9s0.5,0.3,0.8,0.3c0.3,0,0.6-0.1,0.8-0.3
		s0.3-0.5,0.3-0.9v-2.5H264z"/>
	<path fill="#363636" d="M265.2,172.4c-0.1-0.1-0.2-0.2-0.2-0.4c0-0.2,0.1-0.3,0.2-0.4c0.1-0.1,0.2-0.2,0.4-0.2
		c0.2,0,0.3,0.1,0.4,0.2c0.1,0.1,0.2,0.3,0.2,0.4c0,0.2-0.1,0.3-0.2,0.4c-0.1,0.1-0.2,0.2-0.4,0.2
		C265.5,172.6,265.3,172.5,265.2,172.4z M266.1,173.2v4.4h-0.9v-4.4H266.1z"/>
	<path fill="#363636" d="M268.2,171.6v5.9h-0.9v-5.9H268.2z"/>
	<path fill="#363636" d="M269.4,174.2c0.2-0.3,0.4-0.6,0.8-0.8c0.3-0.2,0.7-0.3,1.1-0.3c0.3,0,0.6,0.1,0.9,0.2s0.5,0.3,0.7,0.5v-2.1
		h0.9v5.9h-0.9v-0.7c-0.1,0.2-0.4,0.4-0.6,0.5s-0.6,0.2-0.9,0.2c-0.4,0-0.7-0.1-1.1-0.3c-0.3-0.2-0.6-0.5-0.8-0.8
		c-0.2-0.3-0.3-0.7-0.3-1.2C269.1,174.9,269.2,174.5,269.4,174.2z M272.5,174.6c-0.1-0.2-0.3-0.4-0.5-0.5c-0.2-0.1-0.4-0.2-0.7-0.2
		c-0.2,0-0.5,0.1-0.7,0.2c-0.2,0.1-0.4,0.3-0.5,0.5c-0.1,0.2-0.2,0.5-0.2,0.8c0,0.3,0.1,0.6,0.2,0.8c0.1,0.2,0.3,0.4,0.5,0.5
		c0.2,0.1,0.4,0.2,0.7,0.2c0.2,0,0.5-0.1,0.7-0.2c0.2-0.1,0.4-0.3,0.5-0.5c0.1-0.2,0.2-0.5,0.2-0.8S272.6,174.8,272.5,174.6z"/>
	<path fill="#363636" d="M277.6,177.4c-0.3-0.1-0.5-0.3-0.7-0.5s-0.2-0.5-0.3-0.7h0.9c0,0.2,0.1,0.3,0.3,0.5s0.4,0.2,0.6,0.2
		c0.3,0,0.5,0,0.6-0.1s0.2-0.2,0.2-0.4c0-0.2-0.1-0.3-0.2-0.4s-0.4-0.2-0.7-0.3c-0.3-0.1-0.6-0.2-0.8-0.3c-0.2-0.1-0.4-0.2-0.5-0.4
		c-0.2-0.2-0.2-0.4-0.2-0.7c0-0.2,0.1-0.4,0.2-0.6c0.1-0.2,0.3-0.3,0.6-0.5c0.3-0.1,0.6-0.2,0.9-0.2c0.5,0,0.9,0.1,1.2,0.4
		c0.3,0.3,0.5,0.6,0.5,1h-0.9c0-0.2-0.1-0.4-0.2-0.5c-0.1-0.1-0.3-0.2-0.6-0.2c-0.2,0-0.4,0-0.6,0.1s-0.2,0.2-0.2,0.4
		c0,0.1,0,0.2,0.1,0.3c0.1,0.1,0.2,0.1,0.3,0.2c0.1,0,0.3,0.1,0.5,0.2c0.3,0.1,0.6,0.2,0.8,0.3s0.4,0.2,0.5,0.4s0.2,0.4,0.2,0.7
		c0,0.3-0.1,0.5-0.2,0.7c-0.1,0.2-0.3,0.4-0.6,0.5c-0.3,0.1-0.6,0.2-0.9,0.2C278.2,177.6,277.8,177.6,277.6,177.4z"/>
	<path fill="#363636" d="M282,177.4c-0.3-0.2-0.6-0.5-0.8-0.8c-0.2-0.3-0.3-0.7-0.3-1.2c0-0.4,0.1-0.8,0.3-1.2s0.5-0.6,0.8-0.8
		c0.3-0.2,0.7-0.3,1.1-0.3s0.8,0.1,1.1,0.3c0.3,0.2,0.6,0.5,0.8,0.8s0.3,0.7,0.3,1.2s-0.1,0.8-0.3,1.2c-0.2,0.3-0.5,0.6-0.8,0.8
		c-0.3,0.2-0.7,0.3-1.2,0.3C282.7,177.6,282.3,177.5,282,177.4z M283.7,176.7c0.2-0.1,0.4-0.3,0.5-0.5c0.1-0.2,0.2-0.5,0.2-0.8
		s-0.1-0.6-0.2-0.8c-0.1-0.2-0.3-0.4-0.5-0.5c-0.2-0.1-0.4-0.2-0.7-0.2c-0.2,0-0.5,0.1-0.7,0.2c-0.2,0.1-0.4,0.3-0.5,0.5
		c-0.1,0.2-0.2,0.5-0.2,0.8c0,0.5,0.1,0.8,0.4,1.1c0.2,0.3,0.5,0.4,0.9,0.4C283.3,176.8,283.5,176.8,283.7,176.7z"/>
	<path fill="#363636" d="M292.5,173.3c0.3,0.1,0.5,0.4,0.6,0.6c0.2,0.3,0.2,0.6,0.2,1v2.6h-0.9v-2.5c0-0.4-0.1-0.7-0.3-0.9
		s-0.5-0.3-0.8-0.3c-0.3,0-0.6,0.1-0.8,0.3c-0.2,0.2-0.3,0.5-0.3,0.9v2.5h-0.9v-2.5c0-0.4-0.1-0.7-0.3-0.9s-0.5-0.3-0.8-0.3
		c-0.3,0-0.6,0.1-0.8,0.3s-0.3,0.5-0.3,0.9v2.5h-0.9v-4.4h0.9v0.5c0.1-0.2,0.3-0.3,0.6-0.4s0.5-0.2,0.7-0.2c0.4,0,0.7,0.1,0.9,0.2
		s0.5,0.4,0.6,0.6c0.1-0.3,0.3-0.5,0.6-0.6c0.3-0.2,0.6-0.2,0.9-0.2C292,173.1,292.3,173.2,292.5,173.3z"/>
	<path fill="#363636" d="M298.6,175.7h-3.4c0,0.4,0.2,0.6,0.4,0.8c0.2,0.2,0.5,0.3,0.9,0.3c0.5,0,0.8-0.2,1-0.6h1
		c-0.1,0.4-0.4,0.7-0.7,1c-0.3,0.3-0.8,0.4-1.3,0.4c-0.4,0-0.8-0.1-1.1-0.3c-0.3-0.2-0.6-0.5-0.8-0.8c-0.2-0.3-0.3-0.7-0.3-1.2
		s0.1-0.9,0.3-1.2c0.2-0.3,0.4-0.6,0.8-0.8s0.7-0.3,1.1-0.3c0.4,0,0.8,0.1,1.1,0.3s0.6,0.4,0.8,0.8c0.2,0.3,0.3,0.7,0.3,1.1
		C298.6,175.4,298.6,175.6,298.6,175.7z M297.7,175c0-0.3-0.1-0.6-0.4-0.8c-0.2-0.2-0.5-0.3-0.9-0.3c-0.3,0-0.6,0.1-0.8,0.3
		c-0.2,0.2-0.4,0.5-0.4,0.8H297.7z"/>
	<path fill="#363636" d="M302.7,173.9v2.4c0,0.2,0,0.3,0.1,0.4s0.2,0.1,0.4,0.1h0.6v0.8H303c-0.4,0-0.7-0.1-0.9-0.3
		s-0.3-0.5-0.3-0.9v-2.4h-0.5v-0.7h0.5v-1.1h0.9v1.1h1.1v0.7H302.7z"/>
	<path fill="#363636" d="M307.8,173.3c0.3,0.1,0.5,0.4,0.6,0.6c0.2,0.3,0.2,0.6,0.2,1v2.6h-0.9v-2.5c0-0.4-0.1-0.7-0.3-0.9
		s-0.5-0.3-0.8-0.3c-0.3,0-0.6,0.1-0.8,0.3s-0.3,0.5-0.3,0.9v2.5h-0.9v-5.9h0.9v2c0.2-0.2,0.4-0.3,0.6-0.4s0.5-0.2,0.8-0.2
		C307.2,173.1,307.5,173.2,307.8,173.3z"/>
	<path fill="#363636" d="M309.8,172.4c-0.1-0.1-0.2-0.2-0.2-0.4c0-0.2,0.1-0.3,0.2-0.4c0.1-0.1,0.2-0.2,0.4-0.2
		c0.2,0,0.3,0.1,0.4,0.2c0.1,0.1,0.2,0.3,0.2,0.4c0,0.2-0.1,0.3-0.2,0.4c-0.1,0.1-0.2,0.2-0.4,0.2
		C310.1,172.6,309.9,172.5,309.8,172.4z M310.7,173.2v4.4h-0.9v-4.4H310.7z"/>
	<path fill="#363636" d="M315,173.3c0.3,0.1,0.5,0.4,0.6,0.6c0.2,0.3,0.2,0.6,0.2,1v2.6H315v-2.5c0-0.4-0.1-0.7-0.3-0.9
		s-0.5-0.3-0.8-0.3c-0.3,0-0.6,0.1-0.8,0.3s-0.3,0.5-0.3,0.9v2.5h-0.9v-4.4h0.9v0.5c0.1-0.2,0.3-0.3,0.6-0.4
		c0.2-0.1,0.5-0.2,0.7-0.2C314.5,173.1,314.8,173.2,315,173.3z"/>
	<path fill="#363636" d="M319.8,173.3c0.3,0.1,0.5,0.3,0.6,0.5v-0.6h0.9v4.5c0,0.4-0.1,0.8-0.3,1.1s-0.4,0.6-0.7,0.7
		c-0.3,0.2-0.7,0.3-1.2,0.3c-0.6,0-1.1-0.1-1.5-0.4c-0.4-0.3-0.6-0.7-0.7-1.1h0.9c0.1,0.2,0.2,0.4,0.4,0.6s0.5,0.2,0.8,0.2
		c0.4,0,0.7-0.1,0.9-0.3c0.2-0.2,0.3-0.5,0.3-1v-0.7c-0.2,0.2-0.4,0.4-0.6,0.5c-0.3,0.1-0.6,0.2-0.9,0.2c-0.4,0-0.7-0.1-1.1-0.3
		c-0.3-0.2-0.6-0.5-0.8-0.8c-0.2-0.3-0.3-0.7-0.3-1.2c0-0.4,0.1-0.8,0.3-1.2c0.2-0.3,0.4-0.6,0.8-0.8c0.3-0.2,0.7-0.3,1.1-0.3
		C319.2,173.1,319.5,173.2,319.8,173.3z M320.2,174.6c-0.1-0.2-0.3-0.4-0.5-0.5c-0.2-0.1-0.4-0.2-0.7-0.2c-0.2,0-0.5,0.1-0.7,0.2
		c-0.2,0.1-0.4,0.3-0.5,0.5c-0.1,0.2-0.2,0.5-0.2,0.8c0,0.3,0.1,0.6,0.2,0.8c0.1,0.2,0.3,0.4,0.5,0.5c0.2,0.1,0.4,0.2,0.7,0.2
		c0.2,0,0.5-0.1,0.7-0.2c0.2-0.1,0.4-0.3,0.5-0.5c0.1-0.2,0.2-0.5,0.2-0.8S320.3,174.8,320.2,174.6z"/>
	<path fill="#363636" d="M323.2,177.4c-0.3-0.1-0.5-0.3-0.7-0.5s-0.2-0.5-0.3-0.7h0.9c0,0.2,0.1,0.3,0.3,0.5s0.4,0.2,0.6,0.2
		c0.3,0,0.5,0,0.6-0.1s0.2-0.2,0.2-0.4c0-0.2-0.1-0.3-0.2-0.4s-0.4-0.2-0.7-0.3c-0.3-0.1-0.6-0.2-0.8-0.3c-0.2-0.1-0.4-0.2-0.5-0.4
		c-0.2-0.2-0.2-0.4-0.2-0.7c0-0.2,0.1-0.4,0.2-0.6c0.1-0.2,0.3-0.3,0.6-0.5c0.3-0.1,0.6-0.2,0.9-0.2c0.5,0,0.9,0.1,1.2,0.4
		c0.3,0.3,0.5,0.6,0.5,1h-0.9c0-0.2-0.1-0.4-0.2-0.5c-0.1-0.1-0.3-0.2-0.6-0.2c-0.2,0-0.4,0-0.6,0.1s-0.2,0.2-0.2,0.4
		c0,0.1,0,0.2,0.1,0.3c0.1,0.1,0.2,0.1,0.3,0.2c0.1,0,0.3,0.1,0.5,0.2c0.3,0.1,0.6,0.2,0.8,0.3s0.4,0.2,0.5,0.4s0.2,0.4,0.2,0.7
		c0,0.3-0.1,0.5-0.2,0.7c-0.1,0.2-0.3,0.4-0.6,0.5c-0.3,0.1-0.6,0.2-0.9,0.2C323.8,177.6,323.4,177.6,323.2,177.4z"/>
</g>
<path fill="#FFA300" d="M224.6,172.7c-0.1-0.4-0.5-0.8-0.9-0.8l-2.6-0.4l-1.1-2.3c-0.2-0.4-0.6-0.7-1-0.7c-0.5,0-0.8,0.2-1,0.7
	l-1.1,2.3l-2.6,0.4c-0.4,0-0.8,0.4-0.9,0.8c-0.1,0.4,0,0.9,0.3,1.2l1.9,1.8l-0.4,2.6c-0.1,0.4,0.1,0.9,0.5,1.2
	c0.4,0.3,0.8,0.3,1.2,0.1l2.3-1.2l2.3,1.2c0.2,0.1,0.4,0.1,0.6,0.1c0.2,0,0.5-0.1,0.7-0.2c0.4-0.3,0.6-0.7,0.5-1.2l-0.4-2.6l1.9-1.8
	C224.6,173.6,224.8,173.2,224.6,172.7z"/>
<path fill="#FFA300" d="M210.2,172.7c-0.1-0.4-0.5-0.8-0.9-0.8l-2.6-0.4l-1.1-2.3c-0.2-0.4-0.6-0.7-1-0.7c-0.5,0-0.8,0.2-1,0.7
	l-1.1,2.3l-2.6,0.4c-0.4,0-0.8,0.4-0.9,0.8c-0.1,0.4,0,0.9,0.3,1.2l1.9,1.8l-0.4,2.6c-0.1,0.4,0.1,0.9,0.5,1.2
	c0.4,0.3,0.8,0.3,1.2,0.1l2.3-1.2l2.3,1.2c0.2,0.1,0.4,0.1,0.6,0.1c0.2,0,0.5-0.1,0.7-0.2c0.4-0.3,0.6-0.7,0.5-1.2l-0.4-2.6l1.9-1.8
	C210.2,173.6,210.3,173.2,210.2,172.7z"/>
<g>
	<path fill="#363636" d="M404.7,172v5.6h-0.9V172H404.7z"/>
	<path fill="#363636" d="M406.1,172h1l-0.8,1.9h-0.6L406.1,172z"/>
	<path fill="#363636" d="M414.1,173.3c0.3,0.1,0.5,0.4,0.6,0.6c0.2,0.3,0.2,0.6,0.2,1v2.6h-0.9v-2.5c0-0.4-0.1-0.7-0.3-0.9
		s-0.5-0.3-0.8-0.3c-0.3,0-0.6,0.1-0.8,0.3c-0.2,0.2-0.3,0.5-0.3,0.9v2.5H411v-2.5c0-0.4-0.1-0.7-0.3-0.9s-0.5-0.3-0.8-0.3
		c-0.3,0-0.6,0.1-0.8,0.3s-0.3,0.5-0.3,0.9v2.5h-0.9v-4.4h0.9v0.5c0.1-0.2,0.3-0.3,0.6-0.4s0.5-0.2,0.7-0.2c0.4,0,0.7,0.1,0.9,0.2
		s0.5,0.4,0.6,0.6c0.1-0.3,0.3-0.5,0.6-0.6c0.3-0.2,0.6-0.2,0.9-0.2C413.6,173.1,413.9,173.2,414.1,173.3z"/>
	<path fill="#363636" d="M421,173.3c0.3,0.1,0.5,0.3,0.6,0.5v-0.6h0.9v4.5c0,0.4-0.1,0.8-0.3,1.1c-0.2,0.3-0.4,0.6-0.7,0.7
		c-0.3,0.2-0.7,0.3-1.2,0.3c-0.6,0-1.1-0.1-1.5-0.4s-0.6-0.7-0.7-1.1h0.9c0.1,0.2,0.2,0.4,0.4,0.6s0.5,0.2,0.8,0.2
		c0.4,0,0.7-0.1,0.9-0.3c0.2-0.2,0.3-0.5,0.3-1v-0.7c-0.2,0.2-0.4,0.4-0.6,0.5c-0.3,0.1-0.6,0.2-0.9,0.2c-0.4,0-0.7-0.1-1.1-0.3
		c-0.3-0.2-0.6-0.5-0.8-0.8c-0.2-0.3-0.3-0.7-0.3-1.2c0-0.4,0.1-0.8,0.3-1.2c0.2-0.3,0.4-0.6,0.8-0.8c0.3-0.2,0.7-0.3,1.1-0.3
		C420.4,173.1,420.7,173.2,421,173.3z M421.4,174.6c-0.1-0.2-0.3-0.4-0.5-0.5c-0.2-0.1-0.4-0.2-0.7-0.2c-0.2,0-0.5,0.1-0.7,0.2
		c-0.2,0.1-0.4,0.3-0.5,0.5c-0.1,0.2-0.2,0.5-0.2,0.8c0,0.3,0.1,0.6,0.2,0.8c0.1,0.2,0.3,0.4,0.5,0.5c0.2,0.1,0.4,0.2,0.7,0.2
		c0.2,0,0.5-0.1,0.7-0.2c0.2-0.1,0.4-0.3,0.5-0.5s0.2-0.5,0.2-0.8S421.5,174.8,421.4,174.6z"/>
	<path fill="#363636" d="M424.5,177.4c-0.3-0.2-0.6-0.5-0.8-0.8c-0.2-0.3-0.3-0.7-0.3-1.2c0-0.4,0.1-0.8,0.3-1.2s0.5-0.6,0.8-0.8
		c0.3-0.2,0.7-0.3,1.1-0.3s0.8,0.1,1.1,0.3c0.3,0.2,0.6,0.5,0.8,0.8s0.3,0.7,0.3,1.2s-0.1,0.8-0.3,1.2c-0.2,0.3-0.5,0.6-0.8,0.8
		c-0.3,0.2-0.7,0.3-1.2,0.3C425.2,177.6,424.8,177.5,424.5,177.4z M426.3,176.7c0.2-0.1,0.4-0.3,0.5-0.5c0.1-0.2,0.2-0.5,0.2-0.8
		s-0.1-0.6-0.2-0.8c-0.1-0.2-0.3-0.4-0.5-0.5c-0.2-0.1-0.4-0.2-0.7-0.2c-0.2,0-0.5,0.1-0.7,0.2c-0.2,0.1-0.4,0.3-0.5,0.5
		c-0.1,0.2-0.2,0.5-0.2,0.8c0,0.5,0.1,0.8,0.4,1.1c0.2,0.3,0.5,0.4,0.9,0.4C425.8,176.8,426.1,176.8,426.3,176.7z"/>
	<path fill="#363636" d="M429.6,177.4c-0.3-0.2-0.6-0.5-0.8-0.8c-0.2-0.3-0.3-0.7-0.3-1.2c0-0.4,0.1-0.8,0.3-1.2s0.5-0.6,0.8-0.8
		c0.3-0.2,0.7-0.3,1.1-0.3c0.4,0,0.8,0.1,1.1,0.3c0.3,0.2,0.6,0.5,0.8,0.8s0.3,0.7,0.3,1.2s-0.1,0.8-0.3,1.2
		c-0.2,0.3-0.5,0.6-0.8,0.8c-0.3,0.2-0.7,0.3-1.2,0.3C430.3,177.6,429.9,177.5,429.6,177.4z M431.4,176.7c0.2-0.1,0.4-0.3,0.5-0.5
		c0.1-0.2,0.2-0.5,0.2-0.8s-0.1-0.6-0.2-0.8c-0.1-0.2-0.3-0.4-0.5-0.5c-0.2-0.1-0.4-0.2-0.7-0.2s-0.5,0.1-0.7,0.2
		c-0.2,0.1-0.4,0.3-0.5,0.5c-0.1,0.2-0.2,0.5-0.2,0.8c0,0.5,0.1,0.8,0.4,1.1c0.2,0.3,0.5,0.4,0.9,0.4
		C430.9,176.8,431.2,176.8,431.4,176.7z"/>
	<path fill="#363636" d="M433.9,174.2c0.2-0.3,0.4-0.6,0.8-0.8c0.3-0.2,0.7-0.3,1.1-0.3c0.3,0,0.6,0.1,0.9,0.2
		c0.3,0.1,0.5,0.3,0.7,0.5v-2.1h0.9v5.9h-0.9v-0.7c-0.1,0.2-0.4,0.4-0.6,0.5c-0.3,0.1-0.6,0.2-0.9,0.2c-0.4,0-0.7-0.1-1.1-0.3
		c-0.3-0.2-0.6-0.5-0.8-0.8c-0.2-0.3-0.3-0.7-0.3-1.2C433.6,174.9,433.7,174.5,433.9,174.2z M437,174.6c-0.1-0.2-0.3-0.4-0.5-0.5
		c-0.2-0.1-0.4-0.2-0.7-0.2c-0.2,0-0.5,0.1-0.7,0.2c-0.2,0.1-0.4,0.3-0.5,0.5c-0.1,0.2-0.2,0.5-0.2,0.8c0,0.3,0.1,0.6,0.2,0.8
		c0.1,0.2,0.3,0.4,0.5,0.5c0.2,0.1,0.4,0.2,0.7,0.2c0.2,0,0.5-0.1,0.7-0.2c0.2-0.1,0.4-0.3,0.5-0.5s0.2-0.5,0.2-0.8
		S437.1,174.8,437,174.6z"/>
	<path fill="#363636" d="M441.4,174.2c0.2-0.3,0.4-0.6,0.8-0.8c0.3-0.2,0.7-0.3,1.1-0.3c0.3,0,0.6,0.1,0.9,0.2
		c0.3,0.1,0.5,0.3,0.6,0.5v-0.6h0.9v4.4h-0.9v-0.7c-0.2,0.2-0.4,0.4-0.6,0.5s-0.6,0.2-0.9,0.2c-0.4,0-0.7-0.1-1-0.3
		c-0.3-0.2-0.6-0.5-0.7-0.8c-0.2-0.3-0.3-0.7-0.3-1.2C441.1,174.9,441.2,174.5,441.4,174.2z M444.5,174.6c-0.1-0.2-0.3-0.4-0.5-0.5
		c-0.2-0.1-0.4-0.2-0.7-0.2c-0.2,0-0.5,0.1-0.7,0.2c-0.2,0.1-0.4,0.3-0.5,0.5c-0.1,0.2-0.2,0.5-0.2,0.8c0,0.3,0.1,0.6,0.2,0.8
		c0.1,0.2,0.3,0.4,0.5,0.5c0.2,0.1,0.4,0.2,0.7,0.2c0.2,0,0.5-0.1,0.7-0.2c0.2-0.1,0.4-0.3,0.5-0.5s0.2-0.5,0.2-0.8
		S444.6,174.8,444.5,174.6z"/>
	<path fill="#363636" d="M447.9,173.9v2.4c0,0.2,0,0.3,0.1,0.4c0.1,0.1,0.2,0.1,0.4,0.1h0.6v0.8h-0.7c-0.4,0-0.7-0.1-0.9-0.3
		s-0.3-0.5-0.3-0.9v-2.4h-0.5v-0.7h0.5v-1.1h0.9v1.1h1.1v0.7H447.9z"/>
	<path fill="#363636" d="M451.9,172.4c-0.1-0.1-0.2-0.2-0.2-0.4c0-0.2,0.1-0.3,0.2-0.4c0.1-0.1,0.2-0.2,0.4-0.2
		c0.2,0,0.3,0.1,0.4,0.2c0.1,0.1,0.2,0.3,0.2,0.4c0,0.2-0.1,0.3-0.2,0.4c-0.1,0.1-0.2,0.2-0.4,0.2
		C452.2,172.6,452,172.5,451.9,172.4z M452.8,173.2v4.4h-0.9v-4.4H452.8z"/>
	<path fill="#363636" d="M455.1,173.9v2.4c0,0.2,0,0.3,0.1,0.4c0.1,0.1,0.2,0.1,0.4,0.1h0.6v0.8h-0.7c-0.4,0-0.7-0.1-0.9-0.3
		s-0.3-0.5-0.3-0.9v-2.4h-0.5v-0.7h0.5v-1.1h0.9v1.1h1.1v0.7H455.1z"/>
</g>
<path fill="#FFA300" d="M395.6,172.7c-0.1-0.4-0.5-0.8-0.9-0.8l-2.6-0.4l-1.1-2.3c-0.2-0.4-0.6-0.7-1-0.7c-0.5,0-0.8,0.2-1,0.7
	l-1.1,2.3l-2.6,0.4c-0.4,0-0.8,0.4-0.9,0.8c-0.1,0.4,0,0.9,0.3,1.2l1.9,1.8l-0.4,2.6c-0.1,0.4,0.1,0.9,0.5,1.2
	c0.4,0.3,0.8,0.3,1.2,0.1l2.3-1.2l2.3,1.2c0.2,0.1,0.4,0.1,0.6,0.1c0.2,0,0.5-0.1,0.7-0.2c0.4-0.3,0.6-0.7,0.5-1.2l-0.4-2.6l1.9-1.8
	C395.6,173.6,395.7,173.2,395.6,172.7z"/>
<path fill="#FFA300" d="M381.2,172.7c-0.1-0.4-0.5-0.8-0.9-0.8l-2.6-0.4l-1.1-2.3c-0.2-0.4-0.6-0.7-1-0.7c-0.5,0-0.8,0.2-1,0.7
	l-1.1,2.3l-2.6,0.4c-0.4,0-0.8,0.4-0.9,0.8c-0.1,0.4,0,0.9,0.3,1.2l1.9,1.8l-0.4,2.6c-0.1,0.4,0.1,0.9,0.5,1.2
	c0.4,0.3,0.8,0.3,1.2,0.1l2.3-1.2l2.3,1.2c0.2,0.1,0.4,0.1,0.6,0.1c0.2,0,0.5-0.1,0.7-0.2c0.4-0.3,0.6-0.7,0.5-1.2l-0.4-2.6l1.9-1.8
	C381.2,173.6,381.3,173.2,381.2,172.7z"/>
<path fill="#FFA300" d="M366.8,172.7c-0.1-0.4-0.5-0.8-0.9-0.8l-2.6-0.4l-1.1-2.3c-0.2-0.4-0.6-0.7-1-0.7c-0.5,0-0.8,0.2-1,0.7
	l-1.1,2.3l-2.6,0.4c-0.4,0-0.8,0.4-0.9,0.8c-0.1,0.4,0,0.9,0.3,1.2l1.9,1.8l-0.4,2.6c-0.1,0.4,0.1,0.9,0.5,1.2
	c0.4,0.3,0.8,0.3,1.2,0.1l2.3-1.2l2.3,1.2c0.2,0.1,0.4,0.1,0.6,0.1c0.2,0,0.5-0.1,0.7-0.2c0.4-0.3,0.6-0.7,0.5-1.2l-0.4-2.6l1.9-1.8
	C366.8,173.6,367,173.2,366.8,172.7z"/>
<path fill="#D4D4D4" d="M133.3,120.6c-0.2-0.6-0.7-1.1-1.3-1.1l-3.7-0.5l-1.6-3.4c-0.3-0.6-0.9-0.9-1.5-0.9s-1.2,0.3-1.5,0.9
	l-1.6,3.4l-3.7,0.5c-0.6,0.1-1.1,0.5-1.3,1.1c-0.2,0.6,0,1.3,0.4,1.7l2.7,2.6l-0.6,3.7c-0.1,0.6,0.1,1.3,0.7,1.7
	c0.5,0.4,1.2,0.4,1.7,0.1l3.3-1.7l3.3,1.7c0.3,0.1,0.5,0.2,0.8,0.2c0.3,0,0.7-0.1,1-0.3c0.5-0.4,0.8-1,0.7-1.7l-0.6-3.7l2.7-2.6
	C133.3,121.9,133.5,121.2,133.3,120.6z"/>
<g id="qMxfD1_00000155142050871910448490000000944193981173361795_">
	<path fill="#363636" d="M115.8,36.3c0.4,0,0.9,0,1.2,0.1c1.2,0.2,2,1.2,2,2.4c0,2.2,0,4.4,0,6.6c0,1.4-1.1,2.4-2.5,2.4
		c-2.2,0-4.4,0-6.6,0c-0.2,0-0.4,0-0.6,0c0,0.5,0,1,0,1.6c0.2,0,0.4,0,0.6,0c1.7,0,3.5,0,5.2,0c1.5,0,2.6,0.8,3.3,2
		c0.2,0.3,0.3,0.4,0.7,0.3c0.6-0.2,1.2-0.4,1.8-0.5c1-0.3,1.4,0,1.4,1c0,0.5,0,1.1,0,1.7c0.4-0.1,0.8-0.2,1.1-0.3
		c0.9-0.3,1.3,0,1.3,1c0,1.5,0,3,0,4.6c0.2,0,0.4,0,0.6,0c0.7,0,1.3,0,2,0c1.3,0,2.3,1.1,2.4,2.4c0,2.2,0,4.4,0,6.7
		c0,1.3-1.1,2.3-2.4,2.4c-0.8,0-1.6,0-2.5,0c0,0.8,0,1.5,0,2.2c0,0.7-0.1,0.9-0.8,1.1c-5.3,1.6-10.5,3.2-15.8,4.7
		c-0.3,0.1-0.5,0.1-0.8,0.1c-3.2,0.3-6.2-0.3-9.2-1.3c-3.8-1.3-7.8-2.4-11.6-3.5c-0.8-0.2-0.9-0.4-0.9-1.2c0-0.7,0-1.4,0-2.1
		c-0.8,0-1.5,0-2.2,0c-1.7,0-2.7-1-2.7-2.7c0-2,0-4.1,0-6.1c0-1.6,1-2.6,2.6-2.6c0.7,0,1.5,0,2.3,0c0-0.2,0-0.4,0-0.6
		c0-1.3,0-2.7,0-4c0-0.9,0.4-1.2,1.3-1c0.3,0.1,0.7,0.2,1.1,0.3c0-0.6,0-1.1,0-1.6c0-1.1,0.4-1.4,1.5-1.1c0.6,0.2,1.2,0.4,1.8,0.5
		c0.1,0,0.4,0,0.5-0.2c0.9-1.6,2.3-2.2,4.1-2.2c1.5,0,3.1,0,4.6,0c0.2,0,0.4,0,0.6,0c0-0.6,0-1,0-1.6c-0.2,0-0.4,0-0.6,0
		c-2.2,0-4.3,0-6.5,0c-1.7,0-2.7-1-2.7-2.7c0-2,0-4,0-6c0-1.7,1-2.7,2.7-2.7c0.2,0,0.3,0,0.4,0c0.2-0.8,0.3-1.5,0.5-2.2
		c0.9-2.5,3.2-4.2,5.9-4.3c2.9-0.1,5.7-0.1,8.6,0c3.4,0.1,6.1,2.8,6.3,6.2C115.8,36.1,115.8,36.2,115.8,36.3z M87.3,55.4
		c0,2.4,0,4.7,0,7c0.2,0,0.4,0,0.6,0c1.5,0,2.6,1,2.6,2.6c0,1,0,2,0,3c0,1.5-1.1,2.6-2.6,2.6c-0.2,0-0.4,0-0.7,0c0,0.5,0,0.9,0,1.3
		c0,0.4,0.1,0.6,0.5,0.7c4.5,1.3,9,2.7,13.5,4.1c0.2,0.1,0.4,0.1,0.6,0.2c0-0.2,0-0.4,0-0.5c0-5.3,0-10.7,0-16
		c0-0.4-0.1-0.6-0.5-0.7c-3.4-1-6.8-2-10.2-3C89.9,56.2,88.6,55.8,87.3,55.4z M123.1,55.5c-0.2,0-0.3,0.1-0.4,0.1
		c-4.6,1.4-9.2,2.8-13.8,4.1c-0.4,0.1-0.5,0.4-0.5,0.7c0,5.3,0,10.5,0,15.8c0,0.2,0,0.4,0,0.6c0.2,0,0.3-0.1,0.4-0.1
		c1.5-0.5,3-0.9,4.5-1.4c3.1-0.9,6.2-1.8,9.2-2.8c0.2-0.1,0.4-0.2,0.5-0.4c0.1-0.5,0-1.1,0-1.6c-0.3,0-0.5,0-0.7,0
		c-1.6,0-2.6-1-2.6-2.6c0-1,0-2.1,0-3.1c0-1.4,1.1-2.5,2.5-2.5c0.2,0,0.5,0,0.8,0C123.1,60.1,123.1,57.8,123.1,55.5z M114.1,46.1
		c0-0.1,0-0.2,0-0.2c0-3.3,0-6.6,0-9.9c-0.1-2.3-2.2-4.4-4.5-4.5c-2.9-0.1-5.9-0.1-8.8,0c-2.4,0-4.5,2.1-4.5,4.5
		c-0.1,3.3,0,6.6,0,9.9c0,0.1,0,0.2,0,0.2c0.5,0,1,0,1.6,0c0-0.3,0-0.5,0-0.7c0-2.7,0-5.4,0-8c0-1.6,1-2.6,2.6-2.6
		c3.1,0,6.2,0,9.4,0c1.7,0,2.7,1,2.7,2.7c0,2.7,0,5.4,0,8c0,0.2,0,0.4,0,0.7C113.1,46.1,113.6,46.1,114.1,46.1z M99.5,38.4
		c1.9-0.6,3.2-0.3,4.2,0.9c0.8,1.1,1,2.6,0.2,3.7c-1.1,1.6-2.6,1.9-4.4,1.2c0,0.7,0,1.3,0,2c3.8,0,7.6,0,11.4,0c0-0.7,0-1.3,0-2
		c-1.6,0.7-3.1,0.5-4.2-0.9c-0.9-1.1-1-2.4-0.3-3.6c1-1.8,2.6-2.1,4.5-1.3c0-0.3,0-0.5,0-0.8c0-1-0.2-1.2-1.2-1.2
		c-2.8,0-5.6,0-8.4,0c-1.9,0-1.8,0.4-1.8,1.9C99.5,38.3,99.5,38.3,99.5,38.4z M103.6,60.1c0,5.7,0,11.4,0,17.1c1.1,0,2.1,0,3.2,0
		c0-5.7,0-11.4,0-17.1C105.7,60.1,104.7,60.1,103.6,60.1z M105.2,56.8c0.8-1.2,2.1-1.5,3.4-1.9c1.7-0.5,3.4-1,5.2-1.6
		c0.2,0,0.4-0.2,0.4-0.3c0-0.6,0-1.2,0-1.9c-6,0-12,0-18,0c0,0.6,0,1.1,0,1.6c0,0.4,0.1,0.5,0.5,0.6c1.8,0.5,3.5,1.1,5.3,1.6
		C103.2,55.3,104.3,55.6,105.2,56.8z M82.3,64.1c0,1.4,0,2.7,0,4.1c0,0.5,0.3,0.8,0.8,0.8c1.6,0,3.2,0,4.8,0c0.5,0,0.8-0.3,0.8-0.8
		c0-1.1,0-2.1,0-3.2c0-0.5-0.3-0.8-0.8-0.8C86.2,64.1,84.3,64.1,82.3,64.1z M128,64.1c-2,0-3.9,0-5.8,0c-0.5,0-0.7,0.4-0.7,0.8
		c0,1.1,0,2.1,0,3.2c0,0.5,0.3,0.8,0.8,0.8c1.6,0,3.2,0,4.8,0c0.5,0,0.8-0.3,0.8-0.8C128,66.8,128,65.5,128,64.1z M104.2,58.5
		c-0.4-0.9-0.9-1.4-1.7-1.7c-2.7-0.8-5.3-1.6-8-2.4c-1.6-0.5-3.2-0.9-4.8-1.4c0,0.2,0,0.4,0,0.5c0,0.9,0,0.9,0.9,1.2
		c3.9,1.2,7.8,2.3,11.6,3.5C102.8,58.4,103.5,58.4,104.2,58.5z M106.1,58.4c0.6,0,1.1,0,1.5-0.1c4.2-1.2,8.4-2.5,12.6-3.8
		c0.1,0,0.3-0.2,0.3-0.3c0-0.4,0-0.8,0-1.2c-4.4,1.3-8.7,2.6-13.1,3.9C106.9,57.1,106.4,57.6,106.1,58.4z M94.5,38.1
		c-1.3-0.2-1.6,0.1-1.6,1.3c0,1.8,0,3.7,0,5.5c0,1,0.4,1.5,1.6,1.2C94.5,43.4,94.5,40.8,94.5,38.1z M115.8,46.1
		c1.3,0.2,1.6-0.1,1.6-1.3c0-1.8,0-3.7,0-5.5c0-1-0.3-1.5-1.6-1.2C115.8,40.7,115.8,43.4,115.8,46.1z M101.1,42.9
		c0.9,0,1.6-0.7,1.6-1.6c0-0.9-0.7-1.6-1.6-1.6c-0.9,0-1.6,0.7-1.6,1.6C99.5,42.2,100.2,42.9,101.1,42.9z M109.2,42.9
		c0.9,0,1.6-0.7,1.7-1.6c0-0.9-0.7-1.7-1.6-1.7c-0.9,0-1.6,0.7-1.6,1.6C107.6,42.1,108.3,42.9,109.2,42.9z M107.6,47.8
		c-1.6,0-3.2,0-4.8,0c0,0.5,0,1,0,1.5c1.6,0,3.2,0,4.8,0C107.6,48.8,107.6,48.4,107.6,47.8z M85.6,60.8c-0.7,0-1.3,0-1.9,0
		c-1.1-0.1-1.5,0.4-1.2,1.6c1.1,0,2.1,0,3.2,0C85.6,61.9,85.6,61.4,85.6,60.8z M128,62.5c0-0.3,0-0.5,0-0.8c0-0.4-0.3-0.8-0.7-0.8
		c-0.8,0-1.7,0-2.5,0c0,0.6,0,1.1,0,1.6C125.9,62.5,126.9,62.5,128,62.5z M94.5,51.3c0,0-0.1-0.1-0.1-0.1c-0.4,0.3-0.8,0.7-1.3,1.1
		c0.6,0.2,1,0.3,1.4,0.4C94.5,52.2,94.5,51.7,94.5,51.3z M115.8,52.7c0.4-0.1,0.8-0.3,1.4-0.4c-0.5-0.4-0.9-0.8-1.4-1.2
		C115.8,51.7,115.8,52.2,115.8,52.7z"/>
	<path fill="#363636" d="M102.7,52.7c0,0.5,0,1,0,1.6c-0.5,0-1,0-1.6,0c0-0.5,0-1,0-1.6C101.6,52.7,102.1,52.7,102.7,52.7z"/>
	<path fill="#363636" d="M109.2,52.7c0,0.5,0,1,0,1.6c-0.5,0-1,0-1.6,0c0-0.5,0-1,0-1.6C108.1,52.7,108.7,52.7,109.2,52.7z"/>
	<path fill="#363636" d="M105.9,54.3c-0.5,0-1,0-1.5,0c0-0.5,0-1,0-1.6c0.5,0,1,0,1.5,0C105.9,53.2,105.9,53.7,105.9,54.3z"/>
</g>
</svg>
