<?xml version="1.0" encoding="utf-8"?>
<!-- Generator: Adobe Illustrator 26.3.1, SVG Export Plug-In . SVG Version: 6.00 Build 0)  -->
<svg version="1.1" baseProfile="tiny" id="Layer_1" xmlns="http://www.w3.org/2000/svg" xmlns:xlink="http://www.w3.org/1999/xlink"
	 x="0px" y="0px" width="514.7px" height="157.6px" viewBox="0 0 514.7 157.6" overflow="visible" xml:space="preserve">
<path fill="#F2EDED" d="M498.6,157.6H16c-8.8,0-16-7.2-16-16V16C0,7.2,7.2,0,16,0h482.6c8.8,0,16,7.2,16,16v125.6
	C514.7,150.4,507.5,157.6,498.6,157.6z"/>
<g>
	<path fill="#363636" d="M81.3,94.9v7.7h-1.5v-3.3h-3.3v3.3h-1.5v-7.7h1.5V98h3.3v-3.2H81.3z"/>
	<path fill="#363636" d="M88,94.9v1.2h-2v6.4h-1.5v-6.4h-2v-1.2H88z"/>
	<path fill="#363636" d="M97.5,94.9v7.7H96v-5l-2.1,5h-1.2l-2.1-5v5h-1.5v-7.7h1.7l2.4,5.7l2.4-5.7H97.5z"/>
	<path fill="#363636" d="M100.6,101.3h2.5v1.2H99v-7.7h1.5V101.3z"/>
	<path fill="#363636" d="M110.8,92.1l-3,12.4h-1.5l3-12.4H110.8z"/>
	<path fill="#363636" d="M114.8,96.7c0.3-0.6,0.8-1.1,1.4-1.4s1.3-0.5,2-0.5c0.9,0,1.6,0.2,2.3,0.7c0.6,0.4,1.1,1,1.4,1.8H120
		c-0.2-0.4-0.4-0.6-0.7-0.8c-0.3-0.2-0.7-0.3-1.1-0.3c-0.4,0-0.8,0.1-1.2,0.3c-0.3,0.2-0.6,0.5-0.8,0.9c-0.2,0.4-0.3,0.8-0.3,1.3
		c0,0.5,0.1,1,0.3,1.3c0.2,0.4,0.5,0.7,0.8,0.9c0.3,0.2,0.7,0.3,1.2,0.3c0.4,0,0.8-0.1,1.1-0.3c0.3-0.2,0.6-0.5,0.7-0.8h1.8
		c-0.3,0.8-0.7,1.4-1.3,1.8c-0.6,0.4-1.4,0.7-2.3,0.7c-0.7,0-1.4-0.2-2-0.5s-1.1-0.8-1.4-1.4s-0.5-1.3-0.5-2
		C114.3,98,114.4,97.3,114.8,96.7z"/>
	<path fill="#363636" d="M124.3,102.4c-0.4-0.2-0.8-0.4-1-0.8c-0.2-0.3-0.4-0.8-0.4-1.2h1.6c0,0.3,0.1,0.6,0.3,0.7s0.5,0.3,0.8,0.3
		c0.4,0,0.6-0.1,0.8-0.3c0.2-0.2,0.3-0.4,0.3-0.7c0-0.2-0.1-0.4-0.2-0.6c-0.1-0.1-0.3-0.3-0.5-0.3s-0.5-0.2-0.9-0.3
		c-0.5-0.1-0.9-0.3-1.2-0.4c-0.3-0.1-0.6-0.4-0.8-0.6s-0.3-0.7-0.3-1.2c0-0.5,0.1-0.9,0.3-1.2c0.2-0.3,0.5-0.6,1-0.8
		s0.9-0.3,1.4-0.3c0.8,0,1.4,0.2,1.9,0.6c0.5,0.4,0.8,0.9,0.8,1.6h-1.7c0-0.3-0.1-0.5-0.3-0.7c-0.2-0.2-0.5-0.3-0.8-0.3
		c-0.3,0-0.5,0.1-0.7,0.2c-0.2,0.2-0.3,0.4-0.3,0.7c0,0.2,0.1,0.4,0.2,0.5s0.3,0.2,0.5,0.3s0.5,0.2,0.9,0.3c0.5,0.1,0.9,0.3,1.2,0.4
		c0.3,0.1,0.6,0.4,0.8,0.7c0.2,0.3,0.3,0.7,0.3,1.2c0,0.4-0.1,0.8-0.3,1.1c-0.2,0.4-0.5,0.6-0.9,0.8s-0.9,0.3-1.5,0.3
		C125.2,102.6,124.7,102.5,124.3,102.4z"/>
	<path fill="#363636" d="M131,102.4c-0.4-0.2-0.8-0.4-1-0.8c-0.2-0.3-0.4-0.8-0.4-1.2h1.6c0,0.3,0.1,0.6,0.3,0.7s0.5,0.3,0.8,0.3
		c0.4,0,0.6-0.1,0.8-0.3c0.2-0.2,0.3-0.4,0.3-0.7c0-0.2-0.1-0.4-0.2-0.6c-0.1-0.1-0.3-0.3-0.5-0.3s-0.5-0.2-0.9-0.3
		c-0.5-0.1-0.9-0.3-1.2-0.4c-0.3-0.1-0.6-0.4-0.8-0.6s-0.3-0.7-0.3-1.2c0-0.5,0.1-0.9,0.3-1.2c0.2-0.3,0.5-0.6,1-0.8
		s0.9-0.3,1.4-0.3c0.8,0,1.4,0.2,1.9,0.6c0.5,0.4,0.8,0.9,0.8,1.6h-1.7c0-0.3-0.1-0.5-0.3-0.7c-0.2-0.2-0.5-0.3-0.8-0.3
		c-0.3,0-0.5,0.1-0.7,0.2c-0.2,0.2-0.3,0.4-0.3,0.7c0,0.2,0.1,0.4,0.2,0.5s0.3,0.2,0.5,0.3s0.5,0.2,0.9,0.3c0.5,0.1,0.9,0.3,1.2,0.4
		c0.3,0.1,0.6,0.4,0.8,0.7c0.2,0.3,0.3,0.7,0.3,1.2c0,0.4-0.1,0.8-0.3,1.1c-0.2,0.4-0.5,0.6-0.9,0.8s-0.9,0.3-1.5,0.3
		C131.9,102.6,131.4,102.5,131,102.4z"/>
</g>
<g>
	<path fill="#363636" d="M217.8,64.9h-3.3l-0.6,1.7h-1.1l2.8-7.6h1.2l2.8,7.6h-1.1L217.8,64.9z M217.5,64.1l-1.4-3.9l-1.4,3.9H217.5
		z"/>
	<path fill="#363636" d="M220.7,62c0.2-0.5,0.6-0.8,1-1.1c0.4-0.3,0.9-0.4,1.5-0.4c0.5,0,0.9,0.1,1.3,0.3c0.4,0.2,0.7,0.5,0.9,0.9
		v-3.2h1v8.1h-1v-1.1c-0.2,0.4-0.5,0.7-0.9,0.9c-0.4,0.2-0.8,0.3-1.4,0.3c-0.5,0-1-0.1-1.5-0.4c-0.4-0.3-0.8-0.6-1-1.1
		c-0.2-0.5-0.4-1-0.4-1.6C220.3,63,220.4,62.4,220.7,62z M225.1,62.4c-0.2-0.3-0.4-0.6-0.7-0.8c-0.3-0.2-0.7-0.3-1-0.3
		c-0.4,0-0.7,0.1-1,0.3c-0.3,0.2-0.6,0.4-0.7,0.8c-0.2,0.3-0.3,0.7-0.3,1.2c0,0.5,0.1,0.9,0.3,1.2c0.2,0.3,0.4,0.6,0.7,0.8
		c0.3,0.2,0.6,0.3,1,0.3c0.4,0,0.7-0.1,1-0.3c0.3-0.2,0.6-0.4,0.7-0.8c0.2-0.3,0.3-0.7,0.3-1.2C225.4,63.2,225.3,62.8,225.1,62.4z"
		/>
	<path fill="#363636" d="M230.3,65.7l1.9-5.1h1.1l-2.4,6h-1.2l-2.4-6h1.1L230.3,65.7z"/>
	<path fill="#363636" d="M234.3,62c0.2-0.5,0.6-0.8,1-1.1c0.4-0.3,0.9-0.4,1.5-0.4c0.5,0,1,0.1,1.4,0.3s0.7,0.5,0.9,0.9v-1.1h1v6h-1
		v-1.1c-0.2,0.4-0.5,0.6-0.9,0.9c-0.4,0.2-0.8,0.3-1.4,0.3c-0.5,0-1-0.1-1.5-0.4c-0.4-0.3-0.8-0.6-1-1.1c-0.2-0.5-0.4-1-0.4-1.6
		C233.9,63,234,62.4,234.3,62z M238.7,62.4c-0.2-0.3-0.4-0.6-0.7-0.8c-0.3-0.2-0.7-0.3-1-0.3c-0.4,0-0.7,0.1-1,0.3
		c-0.3,0.2-0.6,0.4-0.7,0.8c-0.2,0.3-0.3,0.7-0.3,1.2c0,0.5,0.1,0.9,0.3,1.2c0.2,0.3,0.4,0.6,0.7,0.8c0.3,0.2,0.6,0.3,1,0.3
		c0.4,0,0.7-0.1,1-0.3c0.3-0.2,0.6-0.4,0.7-0.8c0.2-0.3,0.3-0.7,0.3-1.2C239,63.2,238.9,62.8,238.7,62.4z"/>
	<path fill="#363636" d="M246.4,61.2c0.5,0.4,0.7,1.1,0.7,1.9v3.6h-1v-3.4c0-0.6-0.2-1.1-0.5-1.4c-0.3-0.3-0.7-0.5-1.2-0.5
		c-0.5,0-0.9,0.2-1.3,0.5c-0.3,0.3-0.5,0.8-0.5,1.4v3.3h-1v-6h1v0.9c0.2-0.3,0.5-0.5,0.8-0.7c0.3-0.2,0.7-0.3,1.1-0.3
		C245.4,60.5,246,60.7,246.4,61.2z"/>
	<path fill="#363636" d="M248.7,62c0.2-0.5,0.6-0.8,1-1.1c0.4-0.3,1-0.4,1.5-0.4c0.7,0,1.4,0.2,1.8,0.5c0.5,0.4,0.8,0.9,1,1.5H253
		c-0.1-0.4-0.3-0.7-0.6-0.9c-0.3-0.2-0.7-0.3-1.1-0.3c-0.6,0-1,0.2-1.4,0.6s-0.5,0.9-0.5,1.7c0,0.7,0.2,1.3,0.5,1.7
		c0.4,0.4,0.8,0.6,1.4,0.6c0.4,0,0.8-0.1,1.1-0.3c0.3-0.2,0.5-0.5,0.6-0.9h1.1c-0.2,0.6-0.5,1.1-1,1.5c-0.5,0.4-1.1,0.6-1.8,0.6
		c-0.6,0-1.1-0.1-1.5-0.4c-0.4-0.3-0.8-0.6-1-1.1c-0.2-0.5-0.4-1-0.4-1.7C248.4,63,248.5,62.4,248.7,62z"/>
	<path fill="#363636" d="M260.9,64h-4.8c0,0.6,0.2,1.1,0.6,1.4c0.4,0.3,0.8,0.5,1.3,0.5c0.4,0,0.8-0.1,1.1-0.3
		c0.3-0.2,0.5-0.5,0.6-0.8h1.1c-0.2,0.6-0.5,1.1-1,1.4s-1.1,0.5-1.8,0.5c-0.6,0-1.1-0.1-1.5-0.4s-0.8-0.6-1.1-1.1
		c-0.3-0.5-0.4-1-0.4-1.6c0-0.6,0.1-1.2,0.4-1.6c0.2-0.5,0.6-0.8,1.1-1.1c0.5-0.3,1-0.4,1.6-0.4c0.6,0,1.1,0.1,1.5,0.4
		c0.4,0.2,0.8,0.6,1,1s0.4,0.9,0.4,1.5C260.9,63.6,260.9,63.8,260.9,64z M259.6,62.2c-0.2-0.3-0.4-0.5-0.7-0.6
		c-0.3-0.1-0.6-0.2-1-0.2c-0.5,0-0.9,0.2-1.3,0.5c-0.4,0.3-0.6,0.8-0.6,1.3h3.8C259.9,62.8,259.8,62.5,259.6,62.2z"/>
	<path fill="#363636" d="M262.2,62c0.2-0.5,0.6-0.8,1-1.1c0.4-0.3,0.9-0.4,1.5-0.4c0.5,0,0.9,0.1,1.3,0.3c0.4,0.2,0.7,0.5,0.9,0.9
		v-3.2h1v8.1h-1v-1.1c-0.2,0.4-0.5,0.7-0.9,0.9c-0.4,0.2-0.8,0.3-1.4,0.3c-0.5,0-1-0.1-1.5-0.4c-0.4-0.3-0.8-0.6-1-1.1
		c-0.2-0.5-0.4-1-0.4-1.6C261.9,63,262,62.4,262.2,62z M266.7,62.4c-0.2-0.3-0.4-0.6-0.7-0.8s-0.7-0.3-1-0.3s-0.7,0.1-1,0.3
		c-0.3,0.2-0.6,0.4-0.7,0.8c-0.2,0.3-0.3,0.7-0.3,1.2c0,0.5,0.1,0.9,0.3,1.2c0.2,0.3,0.4,0.6,0.7,0.8c0.3,0.2,0.6,0.3,1,0.3
		s0.7-0.1,1-0.3s0.6-0.4,0.7-0.8c0.2-0.3,0.3-0.7,0.3-1.2C267,63.2,266.9,62.8,266.7,62.4z"/>
	<path fill="#363636" d="M272.7,60.8c0.3-0.6,0.8-1.1,1.4-1.4c0.6-0.3,1.2-0.5,1.9-0.5c0.8,0,1.6,0.2,2.2,0.6s1.1,1,1.4,1.7h-1.2
		c-0.2-0.5-0.5-0.8-0.9-1.1c-0.4-0.2-0.9-0.4-1.4-0.4c-0.5,0-1,0.1-1.4,0.4c-0.4,0.2-0.8,0.6-1,1.1c-0.2,0.5-0.4,1-0.4,1.6
		c0,0.6,0.1,1.1,0.4,1.6s0.6,0.8,1,1.1c0.4,0.2,0.9,0.4,1.4,0.4c0.6,0,1-0.1,1.4-0.4c0.4-0.2,0.7-0.6,0.9-1.1h1.2
		c-0.3,0.7-0.7,1.3-1.4,1.7c-0.6,0.4-1.4,0.6-2.2,0.6c-0.7,0-1.4-0.2-1.9-0.5s-1-0.8-1.4-1.4c-0.3-0.6-0.5-1.3-0.5-2
		S272.4,61.4,272.7,60.8z"/>
	<path fill="#363636" d="M282.2,66.4c-0.4-0.2-0.7-0.4-0.9-0.7s-0.3-0.7-0.4-1.1h1.1c0,0.4,0.2,0.7,0.4,0.9c0.3,0.2,0.6,0.4,1.1,0.4
		c0.5,0,0.9-0.1,1.1-0.4c0.3-0.2,0.4-0.5,0.4-0.9c0-0.3-0.1-0.5-0.2-0.7c-0.2-0.2-0.4-0.3-0.6-0.4c-0.2-0.1-0.6-0.2-1-0.3
		c-0.5-0.1-0.9-0.3-1.2-0.4c-0.3-0.1-0.6-0.3-0.8-0.6c-0.2-0.3-0.3-0.7-0.3-1.1c0-0.4,0.1-0.8,0.3-1.1c0.2-0.3,0.5-0.6,0.9-0.7
		c0.4-0.2,0.8-0.3,1.3-0.3c0.7,0,1.3,0.2,1.8,0.5c0.5,0.4,0.7,0.8,0.8,1.4h-1.1c0-0.3-0.2-0.6-0.5-0.8s-0.6-0.3-1.1-0.3
		c-0.4,0-0.8,0.1-1,0.3c-0.3,0.2-0.4,0.5-0.4,0.9c0,0.3,0.1,0.5,0.2,0.7c0.2,0.2,0.4,0.3,0.6,0.4c0.2,0.1,0.6,0.2,1,0.3
		c0.5,0.1,0.9,0.3,1.2,0.4c0.3,0.1,0.6,0.3,0.8,0.6c0.2,0.3,0.3,0.7,0.3,1.1c0,0.4-0.1,0.7-0.3,1.1c-0.2,0.3-0.5,0.6-0.9,0.8
		c-0.4,0.2-0.8,0.3-1.4,0.3C283,66.7,282.6,66.6,282.2,66.4z"/>
	<path fill="#363636" d="M288.6,66.4c-0.4-0.2-0.7-0.4-0.9-0.7s-0.3-0.7-0.4-1.1h1.1c0,0.4,0.2,0.7,0.4,0.9c0.3,0.2,0.6,0.4,1.1,0.4
		c0.5,0,0.9-0.1,1.1-0.4c0.3-0.2,0.4-0.5,0.4-0.9c0-0.3-0.1-0.5-0.2-0.7c-0.2-0.2-0.4-0.3-0.6-0.4c-0.2-0.1-0.6-0.2-1-0.3
		c-0.5-0.1-0.9-0.3-1.2-0.4c-0.3-0.1-0.6-0.3-0.8-0.6c-0.2-0.3-0.3-0.7-0.3-1.1c0-0.4,0.1-0.8,0.3-1.1c0.2-0.3,0.5-0.6,0.9-0.7
		c0.4-0.2,0.8-0.3,1.3-0.3c0.7,0,1.3,0.2,1.8,0.5c0.5,0.4,0.7,0.8,0.8,1.4h-1.1c0-0.3-0.2-0.6-0.5-0.8s-0.6-0.3-1.1-0.3
		c-0.4,0-0.8,0.1-1,0.3c-0.3,0.2-0.4,0.5-0.4,0.9c0,0.3,0.1,0.5,0.2,0.7c0.2,0.2,0.4,0.3,0.6,0.4c0.2,0.1,0.6,0.2,1,0.3
		c0.5,0.1,0.9,0.3,1.2,0.4c0.3,0.1,0.6,0.3,0.8,0.6c0.2,0.3,0.3,0.7,0.3,1.1c0,0.4-0.1,0.7-0.3,1.1c-0.2,0.3-0.5,0.6-0.9,0.8
		c-0.4,0.2-0.8,0.3-1.4,0.3C289.5,66.7,289,66.6,288.6,66.4z"/>
	<path fill="#363636" d="M297,62c0.2-0.5,0.6-0.8,1-1.1c0.4-0.3,0.9-0.4,1.5-0.4c0.5,0,1,0.1,1.4,0.3s0.7,0.5,0.9,0.9v-1.1h1v6h-1
		v-1.1c-0.2,0.4-0.5,0.6-0.9,0.9c-0.4,0.2-0.8,0.3-1.4,0.3c-0.5,0-1-0.1-1.5-0.4s-0.8-0.6-1-1.1c-0.2-0.5-0.4-1-0.4-1.6
		C296.6,63,296.7,62.4,297,62z M301.4,62.4c-0.2-0.3-0.4-0.6-0.7-0.8s-0.7-0.3-1-0.3s-0.7,0.1-1,0.3c-0.3,0.2-0.6,0.4-0.7,0.8
		c-0.2,0.3-0.3,0.7-0.3,1.2c0,0.5,0.1,0.9,0.3,1.2c0.2,0.3,0.4,0.6,0.7,0.8c0.3,0.2,0.6,0.3,1,0.3s0.7-0.1,1-0.3s0.6-0.4,0.7-0.8
		c0.2-0.3,0.3-0.7,0.3-1.2C301.7,63.2,301.6,62.8,301.4,62.4z"/>
	<path fill="#363636" d="M309.1,61.2c0.5,0.4,0.7,1.1,0.7,1.9v3.6h-1v-3.4c0-0.6-0.2-1.1-0.5-1.4c-0.3-0.3-0.7-0.5-1.2-0.5
		c-0.5,0-0.9,0.2-1.3,0.5c-0.3,0.3-0.5,0.8-0.5,1.4v3.3h-1v-6h1v0.9c0.2-0.3,0.5-0.5,0.8-0.7s0.7-0.3,1.1-0.3
		C308.1,60.5,308.7,60.7,309.1,61.2z"/>
	<path fill="#363636" d="M311.4,62c0.2-0.5,0.6-0.8,1-1.1s0.9-0.4,1.5-0.4c0.5,0,0.9,0.1,1.3,0.3c0.4,0.2,0.7,0.5,0.9,0.9v-3.2h1
		v8.1h-1v-1.1c-0.2,0.4-0.5,0.7-0.9,0.9c-0.4,0.2-0.8,0.3-1.4,0.3c-0.5,0-1-0.1-1.5-0.4s-0.8-0.6-1-1.1s-0.4-1-0.4-1.6
		C311.1,63,311.2,62.4,311.4,62z M315.9,62.4c-0.2-0.3-0.4-0.6-0.7-0.8c-0.3-0.2-0.7-0.3-1-0.3c-0.4,0-0.7,0.1-1,0.3
		s-0.6,0.4-0.7,0.8c-0.2,0.3-0.3,0.7-0.3,1.2c0,0.5,0.1,0.9,0.3,1.2c0.2,0.3,0.4,0.6,0.7,0.8s0.6,0.3,1,0.3c0.4,0,0.7-0.1,1-0.3
		c0.3-0.2,0.6-0.4,0.7-0.8c0.2-0.3,0.3-0.7,0.3-1.2C316.2,63.2,316.1,62.8,315.9,62.4z"/>
	<path fill="#363636" d="M322.9,66.4c-0.4-0.2-0.7-0.4-0.9-0.7s-0.3-0.7-0.4-1.1h1.1c0,0.4,0.2,0.7,0.4,0.9c0.3,0.2,0.6,0.4,1.1,0.4
		c0.5,0,0.9-0.1,1.1-0.4c0.3-0.2,0.4-0.5,0.4-0.9c0-0.3-0.1-0.5-0.2-0.7c-0.2-0.2-0.4-0.3-0.6-0.4c-0.2-0.1-0.6-0.2-1-0.3
		c-0.5-0.1-0.9-0.3-1.2-0.4c-0.3-0.1-0.6-0.3-0.8-0.6c-0.2-0.3-0.3-0.7-0.3-1.1c0-0.4,0.1-0.8,0.3-1.1c0.2-0.3,0.5-0.6,0.9-0.7
		c0.4-0.2,0.8-0.3,1.3-0.3c0.7,0,1.3,0.2,1.8,0.5c0.5,0.4,0.7,0.8,0.8,1.4h-1.1c0-0.3-0.2-0.6-0.5-0.8s-0.6-0.3-1.1-0.3
		c-0.4,0-0.8,0.1-1,0.3c-0.3,0.2-0.4,0.5-0.4,0.9c0,0.3,0.1,0.5,0.2,0.7c0.2,0.2,0.4,0.3,0.6,0.4c0.2,0.1,0.6,0.2,1,0.3
		c0.5,0.1,0.9,0.3,1.2,0.4c0.3,0.1,0.6,0.3,0.8,0.6c0.2,0.3,0.3,0.7,0.3,1.1c0,0.4-0.1,0.7-0.3,1.1c-0.2,0.3-0.5,0.6-0.9,0.8
		c-0.4,0.2-0.8,0.3-1.4,0.3C323.7,66.7,323.3,66.6,322.9,66.4z"/>
	<path fill="#363636" d="M328.3,62c0.2-0.5,0.6-0.8,1-1.1s0.9-0.4,1.5-0.4c0.5,0,1,0.1,1.4,0.3s0.7,0.5,0.9,0.9v-1.1h1v6h-1v-1.1
		c-0.2,0.4-0.5,0.6-0.9,0.9c-0.4,0.2-0.8,0.3-1.4,0.3c-0.5,0-1-0.1-1.5-0.4c-0.4-0.3-0.8-0.6-1-1.1s-0.4-1-0.4-1.6
		C327.9,63,328,62.4,328.3,62z M332.7,62.4c-0.2-0.3-0.4-0.6-0.7-0.8c-0.3-0.2-0.7-0.3-1-0.3c-0.4,0-0.7,0.1-1,0.3s-0.6,0.4-0.7,0.8
		c-0.2,0.3-0.3,0.7-0.3,1.2c0,0.5,0.1,0.9,0.3,1.2c0.2,0.3,0.4,0.6,0.7,0.8s0.6,0.3,1,0.3c0.4,0,0.7-0.1,1-0.3
		c0.3-0.2,0.6-0.4,0.7-0.8c0.2-0.3,0.3-0.7,0.3-1.2C333,63.2,332.9,62.8,332.7,62.4z"/>
	<path fill="#363636" d="M336.6,66.5c-0.4-0.2-0.7-0.4-0.9-0.7c-0.2-0.3-0.3-0.6-0.4-1h1c0,0.3,0.2,0.5,0.4,0.7
		c0.3,0.2,0.6,0.3,1,0.3c0.4,0,0.7-0.1,0.9-0.3s0.3-0.4,0.3-0.6c0-0.3-0.1-0.5-0.4-0.6c-0.2-0.1-0.6-0.3-1.1-0.4
		c-0.4-0.1-0.8-0.2-1.1-0.4s-0.5-0.3-0.7-0.5c-0.2-0.2-0.3-0.6-0.3-0.9c0-0.3,0.1-0.6,0.3-0.8s0.4-0.5,0.8-0.6
		c0.3-0.2,0.7-0.2,1.2-0.2c0.7,0,1.2,0.2,1.6,0.5c0.4,0.3,0.6,0.8,0.7,1.4h-1c0-0.3-0.1-0.6-0.4-0.8c-0.2-0.2-0.5-0.3-0.9-0.3
		c-0.4,0-0.6,0.1-0.9,0.2s-0.3,0.4-0.3,0.6c0,0.2,0.1,0.4,0.2,0.5c0.1,0.1,0.3,0.2,0.5,0.3s0.5,0.2,0.8,0.3c0.4,0.1,0.8,0.2,1.1,0.3
		c0.3,0.1,0.5,0.3,0.7,0.5c0.2,0.2,0.3,0.5,0.3,0.9c0,0.3-0.1,0.6-0.3,0.9s-0.4,0.5-0.8,0.6c-0.3,0.2-0.7,0.2-1.1,0.2
		C337.4,66.7,337,66.7,336.6,66.5z"/>
	<path fill="#363636" d="M342.3,66.5c-0.4-0.2-0.7-0.4-0.9-0.7c-0.2-0.3-0.3-0.6-0.4-1h1c0,0.3,0.2,0.5,0.4,0.7
		c0.3,0.2,0.6,0.3,1,0.3c0.4,0,0.7-0.1,0.9-0.3c0.2-0.2,0.3-0.4,0.3-0.6c0-0.3-0.1-0.5-0.4-0.6c-0.2-0.1-0.6-0.3-1.1-0.4
		c-0.4-0.1-0.8-0.2-1.1-0.4s-0.5-0.3-0.7-0.5c-0.2-0.2-0.3-0.6-0.3-0.9c0-0.3,0.1-0.6,0.3-0.8c0.2-0.3,0.4-0.5,0.8-0.6
		c0.3-0.2,0.7-0.2,1.2-0.2c0.7,0,1.2,0.2,1.6,0.5c0.4,0.3,0.6,0.8,0.7,1.4h-1c0-0.3-0.1-0.6-0.4-0.8c-0.2-0.2-0.5-0.3-0.9-0.3
		c-0.4,0-0.6,0.1-0.9,0.2c-0.2,0.2-0.3,0.4-0.3,0.6c0,0.2,0.1,0.4,0.2,0.5c0.1,0.1,0.3,0.2,0.5,0.3s0.5,0.2,0.8,0.3
		c0.4,0.1,0.8,0.2,1.1,0.3c0.3,0.1,0.5,0.3,0.7,0.5c0.2,0.2,0.3,0.5,0.3,0.9c0,0.3-0.1,0.6-0.3,0.9c-0.2,0.3-0.4,0.5-0.8,0.6
		c-0.3,0.2-0.7,0.2-1.1,0.2C343.1,66.7,342.7,66.7,342.3,66.5z"/>
	<path fill="#363636" d="M347,61.8c-0.1-0.1-0.2-0.3-0.2-0.5c0-0.2,0.1-0.4,0.2-0.5c0.1-0.1,0.3-0.2,0.5-0.2c0.2,0,0.3,0.1,0.5,0.2
		c0.1,0.1,0.2,0.3,0.2,0.5c0,0.2-0.1,0.4-0.2,0.5c-0.1,0.1-0.3,0.2-0.5,0.2C347.3,62,347.1,61.9,347,61.8z M347,66.5
		c-0.1-0.1-0.2-0.3-0.2-0.5c0-0.2,0.1-0.4,0.2-0.5c0.1-0.1,0.3-0.2,0.5-0.2c0.2,0,0.3,0.1,0.5,0.2c0.1,0.1,0.2,0.3,0.2,0.5
		c0,0.2-0.1,0.4-0.2,0.5c-0.1,0.1-0.3,0.2-0.5,0.2C347.3,66.7,347.1,66.6,347,66.5z"/>
	<path fill="#363636" d="M356.8,59v0.8h-3.3v2.6h2.7v0.8h-2.7v3.5h-1V59H356.8z"/>
	<path fill="#363636" d="M359,58.5v8.1h-1v-8.1H359z"/>
	<path fill="#363636" d="M366.2,64h-4.8c0,0.6,0.2,1.1,0.6,1.4c0.4,0.3,0.8,0.5,1.3,0.5c0.4,0,0.8-0.1,1.1-0.3
		c0.3-0.2,0.5-0.5,0.6-0.8h1.1c-0.2,0.6-0.5,1.1-1,1.4s-1.1,0.5-1.8,0.5c-0.6,0-1.1-0.1-1.5-0.4s-0.8-0.6-1.1-1.1
		c-0.3-0.5-0.4-1-0.4-1.6c0-0.6,0.1-1.2,0.4-1.6c0.2-0.5,0.6-0.8,1.1-1.1c0.5-0.3,1-0.4,1.6-0.4c0.6,0,1.1,0.1,1.5,0.4
		c0.4,0.2,0.8,0.6,1,1s0.4,0.9,0.4,1.5C366.2,63.6,366.2,63.8,366.2,64z M364.9,62.2c-0.2-0.3-0.4-0.5-0.7-0.6
		c-0.3-0.1-0.6-0.2-1-0.2c-0.5,0-0.9,0.2-1.3,0.5s-0.6,0.8-0.6,1.3h3.8C365.2,62.8,365.1,62.5,364.9,62.2z"/>
	<path fill="#363636" d="M370.7,66.6l-1.4-2.2l-1.4,2.2h-1l1.9-3l-1.9-3h1.1l1.4,2.2l1.4-2.2h1l-1.9,3l1.9,3H370.7z"/>
	<path fill="#363636" d="M374.7,60.9c0.4-0.2,0.8-0.3,1.4-0.3c0.5,0,1,0.1,1.5,0.4s0.8,0.6,1,1.1c0.2,0.5,0.4,1,0.4,1.6
		c0,0.6-0.1,1.2-0.4,1.6c-0.2,0.5-0.6,0.8-1,1.1c-0.4,0.3-0.9,0.4-1.5,0.4c-0.5,0-1-0.1-1.4-0.3c-0.4-0.2-0.7-0.5-0.9-0.9v1.1h-1
		v-8.1h1v3.2C374,61.4,374.3,61.1,374.7,60.9z M377.6,62.4c-0.2-0.3-0.4-0.6-0.7-0.8s-0.7-0.3-1-0.3c-0.4,0-0.7,0.1-1,0.3
		s-0.6,0.4-0.7,0.8c-0.2,0.3-0.3,0.7-0.3,1.2c0,0.5,0.1,0.9,0.3,1.2c0.2,0.3,0.4,0.6,0.7,0.8s0.7,0.3,1,0.3c0.4,0,0.7-0.1,1-0.3
		s0.6-0.4,0.7-0.8c0.2-0.3,0.3-0.7,0.3-1.2C377.9,63.1,377.8,62.8,377.6,62.4z"/>
	<path fill="#363636" d="M381.3,66.4c-0.5-0.3-0.8-0.6-1.1-1.1c-0.3-0.5-0.4-1-0.4-1.6c0-0.6,0.1-1.2,0.4-1.6
		c0.3-0.5,0.6-0.8,1.1-1.1c0.5-0.3,1-0.4,1.6-0.4c0.6,0,1.1,0.1,1.6,0.4c0.5,0.3,0.8,0.6,1.1,1.1c0.3,0.5,0.4,1,0.4,1.6
		c0,0.6-0.1,1.2-0.4,1.6c-0.3,0.5-0.6,0.8-1.1,1.1c-0.5,0.3-1,0.4-1.6,0.4C382.3,66.7,381.8,66.6,381.3,66.4z M383.9,65.6
		c0.3-0.2,0.6-0.4,0.8-0.8c0.2-0.3,0.3-0.7,0.3-1.2c0-0.5-0.1-0.9-0.3-1.2s-0.4-0.6-0.7-0.8c-0.3-0.2-0.6-0.2-1-0.2
		c-0.4,0-0.7,0.1-1,0.2c-0.3,0.2-0.5,0.4-0.7,0.8c-0.2,0.3-0.3,0.7-0.3,1.2c0,0.5,0.1,0.9,0.3,1.2c0.2,0.3,0.4,0.6,0.7,0.8
		c0.3,0.2,0.6,0.2,1,0.2S383.6,65.8,383.9,65.6z"/>
	<path fill="#363636" d="M390.4,66.6l-1.4-2.2l-1.4,2.2h-1l1.9-3l-1.9-3h1.1l1.4,2.2l1.4-2.2h1l-1.9,3l1.9,3H390.4z"/>
	<path fill="#363636" d="M393.6,65.3l-1.2,3h-0.7l0.8-3H393.6z"/>
	<path fill="#363636" d="M403.5,61.2c-0.2-0.4-0.5-0.8-0.9-1c-0.4-0.2-0.9-0.4-1.4-0.4s-1,0.1-1.4,0.4c-0.4,0.2-0.8,0.6-1,1.1
		c-0.2,0.5-0.4,1-0.4,1.6s0.1,1.1,0.4,1.6c0.2,0.5,0.6,0.8,1,1.1c0.4,0.2,0.9,0.4,1.4,0.4c0.7,0,1.4-0.2,1.8-0.7s0.8-1.1,0.8-1.8
		h-3.1v-0.8h4.1v0.8c-0.1,0.6-0.3,1.2-0.6,1.7c-0.3,0.5-0.8,0.9-1.3,1.2c-0.5,0.3-1.2,0.5-1.8,0.5c-0.7,0-1.4-0.2-1.9-0.5
		s-1.1-0.8-1.4-1.4s-0.5-1.3-0.5-2s0.2-1.4,0.5-2s0.8-1.1,1.4-1.4c0.6-0.3,1.2-0.5,1.9-0.5c0.8,0,1.5,0.2,2.2,0.6
		c0.6,0.4,1.1,1,1.4,1.7H403.5z"/>
	<path fill="#363636" d="M408,60.8c0.3-0.2,0.7-0.3,1.2-0.3v1h-0.3c-1.1,0-1.7,0.6-1.7,1.8v3.3h-1v-6h1v1
		C407.4,61.2,407.6,61,408,60.8z"/>
	<path fill="#363636" d="M410.4,59.4c-0.1-0.1-0.2-0.3-0.2-0.5c0-0.2,0.1-0.4,0.2-0.5s0.3-0.2,0.5-0.2c0.2,0,0.3,0.1,0.5,0.2
		c0.1,0.1,0.2,0.3,0.2,0.5c0,0.2-0.1,0.4-0.2,0.5c-0.1,0.1-0.3,0.2-0.5,0.2C410.6,59.6,410.5,59.6,410.4,59.4z M411.3,60.6v6h-1v-6
		H411.3z"/>
	<path fill="#363636" d="M413,62c0.2-0.5,0.6-0.8,1-1.1c0.4-0.3,0.9-0.4,1.5-0.4c0.5,0,0.9,0.1,1.3,0.3c0.4,0.2,0.7,0.5,0.9,0.9
		v-3.2h1v8.1h-1v-1.1c-0.2,0.4-0.5,0.7-0.9,0.9c-0.4,0.2-0.8,0.3-1.4,0.3c-0.5,0-1-0.1-1.5-0.4c-0.4-0.3-0.8-0.6-1-1.1
		c-0.2-0.5-0.4-1-0.4-1.6C412.7,63,412.8,62.4,413,62z M417.5,62.4c-0.2-0.3-0.4-0.6-0.7-0.8s-0.7-0.3-1-0.3s-0.7,0.1-1,0.3
		c-0.3,0.2-0.6,0.4-0.7,0.8c-0.2,0.3-0.3,0.7-0.3,1.2c0,0.5,0.1,0.9,0.3,1.2c0.2,0.3,0.4,0.6,0.7,0.8c0.3,0.2,0.6,0.3,1,0.3
		s0.7-0.1,1-0.3s0.6-0.4,0.7-0.8c0.2-0.3,0.3-0.7,0.3-1.2C417.8,63.2,417.7,62.8,417.5,62.4z"/>
	<path fill="#363636" d="M421.5,65.3l-1.2,3h-0.7l0.8-3H421.5z"/>
	<path fill="#363636" d="M430.1,64.9h-3.3l-0.6,1.7h-1.1l2.8-7.6h1.2l2.8,7.6h-1.1L430.1,64.9z M429.8,64.1l-1.4-3.9l-1.4,3.9H429.8
		z"/>
	<path fill="#363636" d="M437.7,61.2c0.5,0.4,0.7,1.1,0.7,1.9v3.6h-1v-3.4c0-0.6-0.2-1.1-0.5-1.4c-0.3-0.3-0.7-0.5-1.2-0.5
		c-0.5,0-0.9,0.2-1.3,0.5c-0.3,0.3-0.5,0.8-0.5,1.4v3.3h-1v-6h1v0.9c0.2-0.3,0.5-0.5,0.8-0.7s0.7-0.3,1.1-0.3
		C436.7,60.5,437.3,60.7,437.7,61.2z"/>
	<path fill="#363636" d="M440.1,59.4c-0.1-0.1-0.2-0.3-0.2-0.5c0-0.2,0.1-0.4,0.2-0.5s0.3-0.2,0.5-0.2c0.2,0,0.3,0.1,0.5,0.2
		c0.1,0.1,0.2,0.3,0.2,0.5c0,0.2-0.1,0.4-0.2,0.5c-0.1,0.1-0.3,0.2-0.5,0.2C440.4,59.6,440.2,59.6,440.1,59.4z M441,60.6v6h-1v-6
		H441z"/>
	<path fill="#363636" d="M451.2,60.8c0.4,0.2,0.7,0.5,0.9,0.9s0.3,0.9,0.3,1.4v3.6h-1v-3.4c0-0.6-0.1-1.1-0.4-1.4
		c-0.3-0.3-0.7-0.5-1.2-0.5c-0.5,0-0.9,0.2-1.2,0.5c-0.3,0.3-0.5,0.8-0.5,1.4v3.3h-1v-3.4c0-0.6-0.1-1.1-0.4-1.4
		c-0.3-0.3-0.7-0.5-1.2-0.5c-0.5,0-0.9,0.2-1.2,0.5c-0.3,0.3-0.5,0.8-0.5,1.4v3.3h-1v-6h1v0.9c0.2-0.3,0.5-0.6,0.8-0.7
		s0.7-0.3,1.1-0.3c0.5,0,1,0.1,1.3,0.3s0.7,0.6,0.9,1c0.2-0.4,0.4-0.8,0.8-1c0.4-0.2,0.8-0.4,1.3-0.4
		C450.5,60.5,450.9,60.6,451.2,60.8z"/>
	<path fill="#363636" d="M454.1,62c0.2-0.5,0.6-0.8,1-1.1c0.4-0.3,0.9-0.4,1.5-0.4c0.5,0,1,0.1,1.4,0.3s0.7,0.5,0.9,0.9v-1.1h1v6h-1
		v-1.1c-0.2,0.4-0.5,0.6-0.9,0.9c-0.4,0.2-0.8,0.3-1.4,0.3c-0.5,0-1-0.1-1.5-0.4s-0.8-0.6-1-1.1c-0.2-0.5-0.4-1-0.4-1.6
		C453.7,63,453.8,62.4,454.1,62z M458.5,62.4c-0.2-0.3-0.4-0.6-0.7-0.8s-0.7-0.3-1-0.3s-0.7,0.1-1,0.3c-0.3,0.2-0.6,0.4-0.7,0.8
		c-0.2,0.3-0.3,0.7-0.3,1.2c0,0.5,0.1,0.9,0.3,1.2c0.2,0.3,0.4,0.6,0.7,0.8c0.3,0.2,0.6,0.3,1,0.3s0.7-0.1,1-0.3s0.6-0.4,0.7-0.8
		c0.2-0.3,0.3-0.7,0.3-1.2C458.8,63.2,458.7,62.8,458.5,62.4z"/>
	<path fill="#363636" d="M462.7,61.4V65c0,0.3,0.1,0.5,0.2,0.6s0.3,0.2,0.6,0.2h0.7v0.8h-0.9c-0.6,0-1-0.1-1.3-0.4
		c-0.3-0.3-0.4-0.7-0.4-1.3v-3.6h-0.8v-0.8h0.8v-1.5h1v1.5h1.6v0.8H462.7z"/>
	<path fill="#363636" d="M465.5,59.4c-0.1-0.1-0.2-0.3-0.2-0.5c0-0.2,0.1-0.4,0.2-0.5s0.3-0.2,0.5-0.2c0.2,0,0.3,0.1,0.5,0.2
		c0.1,0.1,0.2,0.3,0.2,0.5c0,0.2-0.1,0.4-0.2,0.5c-0.1,0.1-0.3,0.2-0.5,0.2C465.8,59.6,465.7,59.6,465.5,59.4z M466.5,60.6v6h-1v-6
		H466.5z"/>
	<path fill="#363636" d="M469.3,66.4c-0.5-0.3-0.8-0.6-1.1-1.1c-0.3-0.5-0.4-1-0.4-1.6c0-0.6,0.1-1.2,0.4-1.6
		c0.3-0.5,0.6-0.8,1.1-1.1c0.5-0.3,1-0.4,1.6-0.4c0.6,0,1.1,0.1,1.6,0.4c0.5,0.3,0.8,0.6,1.1,1.1c0.3,0.5,0.4,1,0.4,1.6
		c0,0.6-0.1,1.2-0.4,1.6c-0.3,0.5-0.6,0.8-1.1,1.1c-0.5,0.3-1,0.4-1.6,0.4C470.3,66.7,469.8,66.6,469.3,66.4z M471.9,65.6
		c0.3-0.2,0.6-0.4,0.8-0.8c0.2-0.3,0.3-0.7,0.3-1.2c0-0.5-0.1-0.9-0.3-1.2s-0.4-0.6-0.7-0.8c-0.3-0.2-0.6-0.2-1-0.2
		c-0.4,0-0.7,0.1-1,0.2c-0.3,0.2-0.5,0.4-0.7,0.8c-0.2,0.3-0.3,0.7-0.3,1.2c0,0.5,0.1,0.9,0.3,1.2c0.2,0.3,0.4,0.6,0.7,0.8
		c0.3,0.2,0.6,0.2,1,0.2S471.5,65.8,471.9,65.6z"/>
	<path fill="#363636" d="M480,61.2c0.5,0.4,0.7,1.1,0.7,1.9v3.6h-1v-3.4c0-0.6-0.2-1.1-0.5-1.4c-0.3-0.3-0.7-0.5-1.2-0.5
		c-0.5,0-0.9,0.2-1.3,0.5c-0.3,0.3-0.5,0.8-0.5,1.4v3.3h-1v-6h1v0.9c0.2-0.3,0.5-0.5,0.8-0.7s0.7-0.3,1.1-0.3
		C478.9,60.5,479.5,60.7,480,61.2z"/>
	<path fill="#363636" d="M483.2,66.5c-0.4-0.2-0.7-0.4-0.9-0.7c-0.2-0.3-0.3-0.6-0.4-1h1c0,0.3,0.2,0.5,0.4,0.7
		c0.3,0.2,0.6,0.3,1,0.3c0.4,0,0.7-0.1,0.9-0.3s0.3-0.4,0.3-0.6c0-0.3-0.1-0.5-0.4-0.6c-0.2-0.1-0.6-0.3-1.1-0.4
		c-0.4-0.1-0.8-0.2-1.1-0.4s-0.5-0.3-0.7-0.5c-0.2-0.2-0.3-0.6-0.3-0.9c0-0.3,0.1-0.6,0.3-0.8s0.4-0.5,0.8-0.6
		c0.3-0.2,0.7-0.2,1.2-0.2c0.7,0,1.2,0.2,1.6,0.5c0.4,0.3,0.6,0.8,0.7,1.4h-1c0-0.3-0.1-0.6-0.4-0.8c-0.2-0.2-0.5-0.3-0.9-0.3
		c-0.4,0-0.6,0.1-0.9,0.2s-0.3,0.4-0.3,0.6c0,0.2,0.1,0.4,0.2,0.5c0.1,0.1,0.3,0.2,0.5,0.3s0.5,0.2,0.8,0.3c0.4,0.1,0.8,0.2,1.1,0.3
		c0.3,0.1,0.5,0.3,0.7,0.5c0.2,0.2,0.3,0.5,0.3,0.9c0,0.3-0.1,0.6-0.3,0.9c-0.2,0.3-0.4,0.5-0.8,0.6c-0.3,0.2-0.7,0.2-1.1,0.2
		C484,66.7,483.5,66.7,483.2,66.5z"/>
	<path fill="#363636" d="M213.2,79c0.2-0.5,0.6-0.8,1-1.1c0.4-0.3,0.9-0.4,1.5-0.4c0.5,0,1,0.1,1.4,0.3s0.7,0.5,0.9,0.9v-1.1h1v6h-1
		v-1.1c-0.2,0.4-0.5,0.6-0.9,0.9c-0.4,0.2-0.8,0.3-1.4,0.3c-0.5,0-1-0.1-1.5-0.4c-0.4-0.3-0.8-0.6-1-1.1c-0.2-0.5-0.4-1-0.4-1.6
		C212.9,80,213,79.4,213.2,79z M217.7,79.4c-0.2-0.3-0.4-0.6-0.7-0.8c-0.3-0.2-0.7-0.3-1-0.3c-0.4,0-0.7,0.1-1,0.3
		c-0.3,0.2-0.6,0.4-0.7,0.8c-0.2,0.3-0.3,0.7-0.3,1.2c0,0.5,0.1,0.9,0.3,1.2c0.2,0.3,0.4,0.6,0.7,0.8c0.3,0.2,0.6,0.3,1,0.3
		c0.4,0,0.7-0.1,1-0.3c0.3-0.2,0.6-0.4,0.7-0.8c0.2-0.3,0.3-0.7,0.3-1.2C218,80.2,217.9,79.8,217.7,79.4z"/>
	<path fill="#363636" d="M225.4,78.2c0.5,0.4,0.7,1.1,0.7,1.9v3.6h-1v-3.4c0-0.6-0.2-1.1-0.5-1.4c-0.3-0.3-0.7-0.5-1.2-0.5
		c-0.5,0-0.9,0.2-1.3,0.5c-0.3,0.3-0.5,0.8-0.5,1.4v3.3h-1v-6h1v0.9c0.2-0.3,0.5-0.5,0.8-0.7c0.3-0.2,0.7-0.3,1.1-0.3
		C224.4,77.5,224.9,77.7,225.4,78.2z"/>
	<path fill="#363636" d="M227.7,79c0.2-0.5,0.6-0.8,1-1.1c0.4-0.3,0.9-0.4,1.5-0.4c0.5,0,0.9,0.1,1.3,0.3c0.4,0.2,0.7,0.5,0.9,0.9
		v-3.2h1v8.1h-1v-1.1c-0.2,0.4-0.5,0.7-0.9,0.9c-0.4,0.2-0.8,0.3-1.4,0.3c-0.5,0-1-0.1-1.5-0.4c-0.4-0.3-0.8-0.6-1-1.1
		c-0.2-0.5-0.4-1-0.4-1.6C227.3,80,227.5,79.4,227.7,79z M232.2,79.4c-0.2-0.3-0.4-0.6-0.7-0.8c-0.3-0.2-0.7-0.3-1-0.3
		c-0.4,0-0.7,0.1-1,0.3c-0.3,0.2-0.6,0.4-0.7,0.8c-0.2,0.3-0.3,0.7-0.3,1.2c0,0.5,0.1,0.9,0.3,1.2c0.2,0.3,0.4,0.6,0.7,0.8
		c0.3,0.2,0.6,0.3,1,0.3c0.4,0,0.7-0.1,1-0.3c0.3-0.2,0.6-0.4,0.7-0.8c0.2-0.3,0.3-0.7,0.3-1.2C232.5,80.2,232.4,79.8,232.2,79.4z"
		/>
	<path fill="#363636" d="M245.9,76v7.6h-1V78l-2.5,5.7h-0.7l-2.5-5.7v5.7h-1V76h1.1l2.8,6.3l2.8-6.3H245.9z"/>
	<path fill="#363636" d="M248.7,83.4c-0.5-0.3-0.8-0.6-1.1-1.1c-0.3-0.5-0.4-1-0.4-1.6c0-0.6,0.1-1.2,0.4-1.6
		c0.3-0.5,0.6-0.8,1.1-1.1c0.5-0.3,1-0.4,1.6-0.4s1.1,0.1,1.6,0.4c0.5,0.3,0.8,0.6,1.1,1.1c0.3,0.5,0.4,1,0.4,1.6
		c0,0.6-0.1,1.2-0.4,1.6c-0.3,0.5-0.6,0.8-1.1,1.1s-1,0.4-1.6,0.4C249.6,83.7,249.1,83.6,248.7,83.4z M251.2,82.6
		c0.3-0.2,0.6-0.4,0.8-0.8s0.3-0.7,0.3-1.2c0-0.5-0.1-0.9-0.3-1.2c-0.2-0.3-0.4-0.6-0.7-0.8c-0.3-0.2-0.6-0.2-1-0.2
		c-0.4,0-0.7,0.1-1,0.2s-0.5,0.4-0.7,0.8c-0.2,0.3-0.3,0.7-0.3,1.2c0,0.5,0.1,0.9,0.3,1.2c0.2,0.3,0.4,0.6,0.7,0.8s0.6,0.2,1,0.2
		S250.9,82.8,251.2,82.6z"/>
	<path fill="#363636" d="M256.4,77.8c0.3-0.2,0.7-0.3,1.2-0.3v1h-0.3c-1.1,0-1.7,0.6-1.7,1.8v3.3h-1v-6h1v1
		C255.8,78.2,256,78,256.4,77.8z"/>
	<path fill="#363636" d="M264.2,81h-4.8c0,0.6,0.2,1.1,0.6,1.4c0.4,0.3,0.8,0.5,1.3,0.5c0.4,0,0.8-0.1,1.1-0.3
		c0.3-0.2,0.5-0.5,0.6-0.8h1.1c-0.2,0.6-0.5,1.1-1,1.4s-1.1,0.5-1.8,0.5c-0.6,0-1.1-0.1-1.5-0.4s-0.8-0.6-1.1-1.1
		c-0.3-0.5-0.4-1-0.4-1.6c0-0.6,0.1-1.2,0.4-1.6c0.2-0.5,0.6-0.8,1.1-1.1c0.5-0.3,1-0.4,1.6-0.4c0.6,0,1.1,0.1,1.5,0.4
		c0.4,0.2,0.8,0.6,1,1s0.4,0.9,0.4,1.5C264.2,80.6,264.2,80.8,264.2,81z M262.9,79.2c-0.2-0.3-0.4-0.5-0.7-0.6
		c-0.3-0.1-0.6-0.2-1-0.2c-0.5,0-0.9,0.2-1.3,0.5s-0.6,0.8-0.6,1.3h3.8C263.2,79.8,263.1,79.5,262.9,79.2z"/>
	<path fill="#363636" d="M265.8,83.5c-0.1-0.1-0.2-0.3-0.2-0.5c0-0.2,0.1-0.4,0.2-0.5c0.1-0.1,0.3-0.2,0.5-0.2
		c0.2,0,0.3,0.1,0.5,0.2c0.1,0.1,0.2,0.3,0.2,0.5c0,0.2-0.1,0.4-0.2,0.5c-0.1,0.1-0.3,0.2-0.5,0.2C266.1,83.7,266,83.6,265.8,83.5z
		 M266.8,76l-0.1,5.5h-0.8l-0.1-5.5H266.8z"/>
</g>
<g>
	<path fill="#363636" d="M216.7,94.9v4.4c0,0.6-0.2,1.1-0.5,1.4s-0.8,0.5-1.4,0.5c-0.6,0-1.1-0.2-1.5-0.5s-0.6-0.8-0.6-1.5h1.3
		c0,0.3,0.1,0.5,0.2,0.6c0.1,0.2,0.3,0.2,0.5,0.2c0.2,0,0.4-0.1,0.5-0.2c0.1-0.1,0.2-0.3,0.2-0.6v-4.4H216.7z"/>
	<path fill="#363636" d="M219.1,100.9c-0.4-0.2-0.7-0.5-0.9-0.9c-0.2-0.4-0.3-0.8-0.3-1.4s0.1-1,0.3-1.3c0.2-0.4,0.5-0.7,0.9-0.9
		s0.8-0.3,1.3-0.3s0.9,0.1,1.3,0.3c0.4,0.2,0.7,0.5,0.9,0.9c0.2,0.4,0.3,0.8,0.3,1.3s-0.1,1-0.3,1.4c-0.2,0.4-0.5,0.7-0.9,0.9
		s-0.8,0.3-1.3,0.3C219.9,101.2,219.5,101.1,219.1,100.9z M221,100c0.2-0.1,0.4-0.3,0.5-0.5c0.1-0.2,0.2-0.5,0.2-0.8
		c0-0.5-0.1-0.8-0.4-1.1c-0.2-0.3-0.6-0.4-0.9-0.4s-0.7,0.1-0.9,0.4c-0.2,0.3-0.4,0.6-0.4,1.1c0,0.5,0.1,0.8,0.4,1.1
		s0.5,0.4,0.9,0.4C220.6,100.1,220.8,100.1,221,100z"/>
	<path fill="#363636" d="M228.1,96.7c0.4,0.4,0.5,0.9,0.5,1.6v2.9h-1.3v-2.8c0-0.4-0.1-0.7-0.3-0.9c-0.2-0.2-0.5-0.3-0.8-0.3
		c-0.3,0-0.6,0.1-0.8,0.3c-0.2,0.2-0.3,0.5-0.3,0.9v2.8h-1.3v-5h1.3v0.6c0.2-0.2,0.4-0.4,0.6-0.5c0.3-0.1,0.5-0.2,0.9-0.2
		C227.2,96.1,227.7,96.3,228.1,96.7z"/>
	<path fill="#363636" d="M229.8,97.3c0.2-0.4,0.5-0.7,0.8-0.9s0.7-0.3,1.2-0.3c0.4,0,0.7,0.1,1,0.2c0.3,0.1,0.5,0.3,0.7,0.6v-0.7
		h1.3v5h-1.3v-0.7c-0.2,0.2-0.4,0.4-0.7,0.6c-0.3,0.2-0.6,0.2-1,0.2c-0.4,0-0.8-0.1-1.1-0.3s-0.6-0.5-0.8-0.9
		c-0.2-0.4-0.3-0.8-0.3-1.4C229.5,98.1,229.6,97.7,229.8,97.3z M233.3,97.9c-0.1-0.2-0.3-0.4-0.5-0.5c-0.2-0.1-0.4-0.2-0.7-0.2
		s-0.4,0.1-0.6,0.2s-0.4,0.3-0.5,0.5c-0.1,0.2-0.2,0.5-0.2,0.8s0.1,0.6,0.2,0.8c0.1,0.2,0.3,0.4,0.5,0.5s0.4,0.2,0.6,0.2
		c0.2,0,0.5-0.1,0.7-0.2c0.2-0.1,0.4-0.3,0.5-0.5c0.1-0.2,0.2-0.5,0.2-0.8C233.4,98.4,233.4,98.1,233.3,97.9z"/>
	<path fill="#363636" d="M236.8,101c-0.3-0.1-0.6-0.3-0.8-0.6s-0.3-0.5-0.3-0.8h1.3c0,0.2,0.1,0.4,0.3,0.5s0.4,0.2,0.6,0.2
		c0.2,0,0.4,0,0.6-0.1c0.1-0.1,0.2-0.2,0.2-0.4c0-0.2-0.1-0.3-0.2-0.4s-0.4-0.2-0.8-0.3c-0.4-0.1-0.7-0.2-0.9-0.3s-0.4-0.2-0.6-0.4
		c-0.2-0.2-0.3-0.5-0.3-0.8c0-0.3,0.1-0.5,0.2-0.8c0.2-0.2,0.4-0.4,0.7-0.5c0.3-0.1,0.6-0.2,1-0.2c0.6,0,1.1,0.1,1.4,0.4
		c0.4,0.3,0.5,0.7,0.6,1.2h-1.2c0-0.2-0.1-0.4-0.2-0.5c-0.1-0.1-0.3-0.2-0.6-0.2c-0.2,0-0.4,0-0.5,0.1c-0.1,0.1-0.2,0.2-0.2,0.4
		c0,0.2,0.1,0.3,0.3,0.4c0.2,0.1,0.4,0.2,0.8,0.3c0.4,0.1,0.7,0.2,0.9,0.3c0.2,0.1,0.4,0.2,0.6,0.4s0.3,0.5,0.3,0.8
		c0,0.3-0.1,0.5-0.2,0.8c-0.2,0.2-0.4,0.4-0.7,0.5c-0.3,0.1-0.6,0.2-1,0.2C237.4,101.2,237.1,101.2,236.8,101z"/>
	<path fill="#363636" d="M244,101c-0.4-0.1-0.6-0.4-0.8-0.6c-0.2-0.3-0.3-0.6-0.3-1h1.4c0,0.3,0.1,0.5,0.3,0.6
		c0.2,0.2,0.4,0.2,0.7,0.2c0.3,0,0.5-0.1,0.7-0.2c0.2-0.1,0.3-0.3,0.3-0.6c0-0.2-0.1-0.3-0.2-0.5c-0.1-0.1-0.3-0.2-0.4-0.3
		s-0.4-0.1-0.7-0.2c-0.4-0.1-0.7-0.2-1-0.4c-0.3-0.1-0.5-0.3-0.7-0.5c-0.2-0.2-0.3-0.6-0.3-0.9c0-0.4,0.1-0.7,0.3-1
		c0.2-0.3,0.4-0.5,0.8-0.6c0.3-0.1,0.7-0.2,1.2-0.2c0.6,0,1.2,0.2,1.6,0.5c0.4,0.3,0.6,0.8,0.7,1.3h-1.4c0-0.2-0.1-0.4-0.3-0.5
		c-0.2-0.1-0.4-0.2-0.7-0.2c-0.2,0-0.4,0.1-0.6,0.2c-0.1,0.1-0.2,0.3-0.2,0.5c0,0.2,0.1,0.3,0.2,0.4c0.1,0.1,0.2,0.2,0.4,0.3
		s0.4,0.1,0.7,0.2c0.4,0.1,0.7,0.2,1,0.4s0.5,0.3,0.7,0.5c0.2,0.2,0.3,0.6,0.3,0.9c0,0.3-0.1,0.6-0.3,0.9s-0.4,0.5-0.8,0.7
		s-0.7,0.3-1.2,0.3C244.7,101.2,244.3,101.1,244,101z"/>
	<path fill="#363636" d="M252.3,96.3c0.3,0.2,0.5,0.4,0.7,0.7c0.2,0.3,0.2,0.7,0.2,1.2v2.9H252v-2.8c0-0.4-0.1-0.7-0.3-0.9
		c-0.2-0.2-0.5-0.3-0.8-0.3c-0.3,0-0.6,0.1-0.8,0.3c-0.2,0.2-0.3,0.5-0.3,0.9v2.8h-1.3v-6.7h1.3v2.3c0.2-0.2,0.4-0.4,0.6-0.5
		s0.6-0.2,0.9-0.2C251.7,96.1,252,96.2,252.3,96.3z"/>
	<path fill="#363636" d="M259,99h-3.6c0,0.4,0.2,0.6,0.4,0.8c0.2,0.2,0.5,0.3,0.8,0.3c0.5,0,0.8-0.2,1-0.6h1.4
		c-0.1,0.5-0.4,0.9-0.8,1.2c-0.4,0.3-0.9,0.5-1.5,0.5c-0.5,0-0.9-0.1-1.3-0.3c-0.4-0.2-0.7-0.5-0.9-0.9c-0.2-0.4-0.3-0.8-0.3-1.4
		c0-0.5,0.1-1,0.3-1.4c0.2-0.4,0.5-0.7,0.9-0.9s0.8-0.3,1.3-0.3c0.5,0,0.9,0.1,1.3,0.3c0.4,0.2,0.7,0.5,0.9,0.9s0.3,0.8,0.3,1.3
		C259.1,98.7,259,98.9,259,99z M257.7,98.2c0-0.3-0.1-0.6-0.4-0.8c-0.2-0.2-0.5-0.3-0.8-0.3c-0.3,0-0.6,0.1-0.8,0.3
		c-0.2,0.2-0.3,0.5-0.4,0.8H257.7z"/>
	<path fill="#363636" d="M259.9,97.3c0.2-0.4,0.5-0.7,0.8-0.9c0.3-0.2,0.7-0.3,1.2-0.3c0.3,0,0.6,0.1,0.9,0.2s0.5,0.3,0.7,0.6v-2.4
		h1.3v6.7h-1.3v-0.7c-0.2,0.2-0.4,0.4-0.7,0.6c-0.3,0.1-0.6,0.2-1,0.2c-0.4,0-0.8-0.1-1.2-0.3c-0.3-0.2-0.6-0.5-0.8-0.9
		c-0.2-0.4-0.3-0.8-0.3-1.4C259.6,98.1,259.7,97.7,259.9,97.3z M263.4,97.9c-0.1-0.2-0.3-0.4-0.5-0.5c-0.2-0.1-0.4-0.2-0.7-0.2
		c-0.2,0-0.5,0.1-0.6,0.2s-0.4,0.3-0.5,0.5c-0.1,0.2-0.2,0.5-0.2,0.8s0.1,0.6,0.2,0.8c0.1,0.2,0.3,0.4,0.5,0.5s0.4,0.2,0.6,0.2
		c0.2,0,0.5-0.1,0.7-0.2c0.2-0.1,0.4-0.3,0.5-0.5c0.1-0.2,0.2-0.5,0.2-0.8C263.6,98.4,263.5,98.1,263.4,97.9z"/>
	<path fill="#363636" d="M267.5,97.2v2.4c0,0.2,0,0.3,0.1,0.4c0.1,0.1,0.2,0.1,0.4,0.1h0.6v1.1h-0.8c-1.1,0-1.6-0.5-1.6-1.5v-2.4
		h-0.6v-1h0.6v-1.2h1.3v1.2h1.1v1H267.5z"/>
	<path fill="#363636" d="M277.2,96.7c0.4,0.4,0.6,0.9,0.6,1.6v2.9h-1.3v-2.8c0-0.4-0.1-0.7-0.3-0.9c-0.2-0.2-0.5-0.3-0.8-0.3
		s-0.6,0.1-0.8,0.3s-0.3,0.5-0.3,0.9v2.8h-1.3v-2.8c0-0.4-0.1-0.7-0.3-0.9s-0.5-0.3-0.8-0.3c-0.3,0-0.6,0.1-0.8,0.3
		s-0.3,0.5-0.3,0.9v2.8h-1.3v-5h1.3v0.6c0.2-0.2,0.4-0.4,0.6-0.5s0.5-0.2,0.8-0.2c0.4,0,0.7,0.1,1,0.2c0.3,0.2,0.5,0.4,0.7,0.7
		c0.2-0.3,0.4-0.5,0.7-0.7c0.3-0.2,0.6-0.3,1-0.3C276.4,96.1,276.9,96.3,277.2,96.7z"/>
	<path fill="#363636" d="M279,97.3c0.2-0.4,0.5-0.7,0.8-0.9c0.3-0.2,0.7-0.3,1.2-0.3c0.4,0,0.7,0.1,1,0.2c0.3,0.1,0.5,0.3,0.7,0.6
		v-0.7h1.3v5h-1.3v-0.7c-0.2,0.2-0.4,0.4-0.7,0.6c-0.3,0.2-0.6,0.2-1,0.2c-0.4,0-0.8-0.1-1.1-0.3c-0.3-0.2-0.6-0.5-0.8-0.9
		c-0.2-0.4-0.3-0.8-0.3-1.4C278.7,98.1,278.8,97.7,279,97.3z M282.4,97.9c-0.1-0.2-0.3-0.4-0.5-0.5c-0.2-0.1-0.4-0.2-0.7-0.2
		c-0.2,0-0.4,0.1-0.6,0.2s-0.4,0.3-0.5,0.5c-0.1,0.2-0.2,0.5-0.2,0.8s0.1,0.6,0.2,0.8c0.1,0.2,0.3,0.4,0.5,0.5s0.4,0.2,0.6,0.2
		c0.2,0,0.5-0.1,0.7-0.2c0.2-0.1,0.4-0.3,0.5-0.5c0.1-0.2,0.2-0.5,0.2-0.8C282.6,98.4,282.5,98.1,282.4,97.9z"/>
	<path fill="#363636" d="M289.3,96.7c0.4,0.4,0.5,0.9,0.5,1.6v2.9h-1.3v-2.8c0-0.4-0.1-0.7-0.3-0.9c-0.2-0.2-0.5-0.3-0.8-0.3
		c-0.3,0-0.6,0.1-0.8,0.3c-0.2,0.2-0.3,0.5-0.3,0.9v2.8h-1.3v-5h1.3v0.6c0.2-0.2,0.4-0.4,0.6-0.5c0.3-0.1,0.5-0.2,0.9-0.2
		C288.5,96.1,288.9,96.3,289.3,96.7z"/>
	<path fill="#363636" d="M292.4,99.8l-1.1,2.5h-0.8l0.6-2.5H292.4z"/>
	<path fill="#363636" d="M296.7,94.9v3.9c0,0.4,0.1,0.8,0.3,1c0.2,0.2,0.5,0.3,0.9,0.3c0.4,0,0.7-0.1,0.9-0.3c0.2-0.2,0.3-0.5,0.3-1
		v-3.9h1.3v3.9c0,0.5-0.1,1-0.3,1.4c-0.2,0.4-0.5,0.6-0.9,0.8c-0.4,0.2-0.8,0.3-1.3,0.3c-0.5,0-0.9-0.1-1.3-0.3
		c-0.4-0.2-0.7-0.5-0.9-0.8c-0.2-0.4-0.3-0.8-0.3-1.4v-3.9H296.7z"/>
	<path fill="#363636" d="M301.7,97.3c0.2-0.4,0.5-0.7,0.8-0.9c0.3-0.2,0.7-0.3,1.2-0.3c0.3,0,0.6,0.1,0.9,0.2s0.5,0.3,0.7,0.6v-2.4
		h1.3v6.7h-1.3v-0.7c-0.2,0.2-0.4,0.4-0.7,0.6c-0.3,0.1-0.6,0.2-1,0.2c-0.4,0-0.8-0.1-1.2-0.3c-0.3-0.2-0.6-0.5-0.8-0.9
		c-0.2-0.4-0.3-0.8-0.3-1.4C301.4,98.1,301.5,97.7,301.7,97.3z M305.2,97.9c-0.1-0.2-0.3-0.4-0.5-0.5c-0.2-0.1-0.4-0.2-0.7-0.2
		c-0.2,0-0.4,0.1-0.6,0.2s-0.4,0.3-0.5,0.5c-0.1,0.2-0.2,0.5-0.2,0.8s0.1,0.6,0.2,0.8c0.1,0.2,0.3,0.4,0.5,0.5s0.4,0.2,0.6,0.2
		c0.2,0,0.5-0.1,0.7-0.2c0.2-0.1,0.4-0.3,0.5-0.5c0.1-0.2,0.2-0.5,0.2-0.8C305.3,98.4,305.3,98.1,305.2,97.9z"/>
	<path fill="#363636" d="M312.5,99h-3.6c0,0.4,0.2,0.6,0.4,0.8c0.2,0.2,0.5,0.3,0.8,0.3c0.5,0,0.8-0.2,1-0.6h1.4
		c-0.1,0.5-0.4,0.9-0.8,1.2c-0.4,0.3-0.9,0.5-1.5,0.5c-0.5,0-0.9-0.1-1.3-0.3s-0.7-0.5-0.9-0.9c-0.2-0.4-0.3-0.8-0.3-1.4
		c0-0.5,0.1-1,0.3-1.4c0.2-0.4,0.5-0.7,0.9-0.9s0.8-0.3,1.3-0.3c0.5,0,0.9,0.1,1.3,0.3s0.7,0.5,0.9,0.9s0.3,0.8,0.3,1.3
		C312.5,98.7,312.5,98.9,312.5,99z M311.2,98.2c0-0.3-0.1-0.6-0.4-0.8c-0.2-0.2-0.5-0.3-0.8-0.3c-0.3,0-0.6,0.1-0.8,0.3
		c-0.2,0.2-0.3,0.5-0.4,0.8H311.2z"/>
	<path fill="#363636" d="M321.1,96.7c0.4,0.4,0.6,0.9,0.6,1.6v2.9h-1.3v-2.8c0-0.4-0.1-0.7-0.3-0.9c-0.2-0.2-0.5-0.3-0.8-0.3
		s-0.6,0.1-0.8,0.3s-0.3,0.5-0.3,0.9v2.8h-1.3v-2.8c0-0.4-0.1-0.7-0.3-0.9s-0.5-0.3-0.8-0.3c-0.3,0-0.6,0.1-0.8,0.3
		s-0.3,0.5-0.3,0.9v2.8h-1.3v-5h1.3v0.6c0.2-0.2,0.4-0.4,0.6-0.5s0.5-0.2,0.8-0.2c0.4,0,0.7,0.1,1,0.2c0.3,0.2,0.5,0.4,0.7,0.7
		c0.2-0.3,0.4-0.5,0.7-0.7c0.3-0.2,0.6-0.3,1-0.3C320.2,96.1,320.7,96.3,321.1,96.7z"/>
	<path fill="#363636" d="M327.6,96.2l-3.1,7.3h-1.3l1.1-2.5l-2-4.9h1.4l1.3,3.5l1.3-3.5H327.6z"/>
</g>
<path fill="#FFA300" d="M113.1,120.6c-0.2-0.6-0.7-1.1-1.3-1.1L108,119l-1.6-3.4c-0.3-0.6-0.9-0.9-1.5-0.9c-0.7,0-1.2,0.3-1.5,0.9
	l-1.6,3.4l-3.7,0.5c-0.6,0.1-1.1,0.5-1.3,1.1c-0.2,0.6,0,1.3,0.4,1.7l2.7,2.6l-0.6,3.7c-0.1,0.6,0.1,1.3,0.7,1.7
	c0.5,0.4,1.2,0.4,1.7,0.1l3.3-1.7l3.3,1.7c0.3,0.1,0.5,0.2,0.8,0.2c0.3,0,0.7-0.1,1-0.3c0.5-0.4,0.8-1,0.7-1.7l-0.6-3.7l2.7-2.6
	C113.1,121.9,113.3,121.2,113.1,120.6z"/>
<path fill="#FFA300" d="M92.9,120.6c-0.2-0.6-0.7-1.1-1.3-1.1l-3.7-0.5l-1.6-3.4c-0.3-0.6-0.9-0.9-1.5-0.9c-0.7,0-1.2,0.3-1.5,0.9
	l-1.6,3.4l-3.7,0.5c-0.6,0.1-1.1,0.5-1.3,1.1c-0.2,0.6,0,1.3,0.4,1.7l2.7,2.6l-0.6,3.7c-0.1,0.6,0.1,1.3,0.7,1.7
	c0.5,0.4,1.2,0.4,1.7,0.1l3.3-1.7l3.3,1.7c0.3,0.1,0.5,0.2,0.8,0.2c0.3,0,0.7-0.1,1-0.3c0.5-0.4,0.8-1,0.7-1.7L90,125l2.7-2.6
	C92.9,121.9,93.1,121.2,92.9,120.6z"/>
<path fill="#D4D4D4" d="M133.3,120.6c-0.2-0.6-0.7-1.1-1.3-1.1l-3.7-0.5l-1.6-3.4c-0.3-0.6-0.9-0.9-1.5-0.9s-1.2,0.3-1.5,0.9
	l-1.6,3.4l-3.7,0.5c-0.6,0.1-1.1,0.5-1.3,1.1c-0.2,0.6,0,1.3,0.4,1.7l2.7,2.6l-0.6,3.7c-0.1,0.6,0.1,1.3,0.7,1.7
	c0.5,0.4,1.2,0.4,1.7,0.1l3.3-1.7l3.3,1.7c0.3,0.1,0.5,0.2,0.8,0.2c0.3,0,0.7-0.1,1-0.3c0.5-0.4,0.8-1,0.7-1.7l-0.6-3.7l2.7-2.6
	C133.3,121.9,133.5,121.2,133.3,120.6z"/>
<g id="DGlIVz_00000003792231116582920680000003244946945620166554_">
	
		<path fill="#363636" stroke="#363636" stroke-width="0.5" stroke-linecap="round" stroke-linejoin="round" stroke-miterlimit="10" d="
		M78.8,52.8c0-6.8,0-13.7,0-20.5c0-2,1-3.4,2.8-3.9c0.4-0.1,0.8-0.1,1.2-0.1c6.8,0,13.7,0,20.5,0c2.4,0,4,1.6,4,4c0,3.7,0,7.3,0,11
		c0,0.2,0,0.3-0.1,0.5c-0.1,0.1-0.3,0.3-0.4,0.3c-0.1,0-0.3-0.2-0.4-0.3c-0.1-0.2,0-0.4,0-0.6c0-3.5,0-7.1,0-10.6
		c0-1.1-0.2-2.1-1.2-2.7c-0.5-0.3-1.2-0.6-1.8-0.6c-6.9,0-13.7,0-20.6,0c-1.9,0-3.1,1.2-3.1,3.1c0,13.7,0,27.4,0,41.1
		c0,2,1.2,3.1,3.2,3.1c3.7,0,7.5,0,11.2,0c0.2,0,0.4,0,0.5,0c0.2,0.1,0.4,0.2,0.4,0.4c0,0.1-0.2,0.3-0.4,0.4c-0.1,0.1-0.3,0-0.5,0
		c-3.7,0-7.5,0-11.2,0c-2.5,0-4.1-1.6-4.1-4.1C78.8,66.5,78.8,59.7,78.8,52.8z"/>
	
		<path fill="#363636" stroke="#363636" stroke-width="0.5" stroke-linecap="round" stroke-linejoin="round" stroke-miterlimit="10" d="
		M114.3,77.6c-4.5,0-9,0-13.4,0c-0.8,0-0.8,0-0.8-0.8c0-6.4,0-12.9,0-19.3c0-0.8,0.1-0.8,0.8-0.8c9,0,17.9,0,26.9,0
		c0.7,0,0.8,0.1,0.8,0.8c0,6.5,0,12.9,0,19.4c0,0.8,0,0.8-0.8,0.8C123.2,77.6,118.8,77.6,114.3,77.6z M127.6,76.7
		c0-6.5,0-12.9,0-19.3c-8.9,0-17.8,0-26.7,0c0,6.4,0,12.8,0,19.3C109.8,76.7,118.7,76.7,127.6,76.7z"/>
	
		<path fill="#363636" stroke="#363636" stroke-width="0.5" stroke-linecap="round" stroke-linejoin="round" stroke-miterlimit="10" d="
		M81.3,52c0-5.4,0-10.9,0-16.3c0-1.4,0.4-1.8,1.8-1.8c6.6,0,13.2,0,19.8,0c0.3,0,0.5,0,0.8,0.1c0.6,0.1,0.9,0.4,1,1
		c0,0.1,0,0.3,0,0.4c0,2.7,0,5.4,0,8c0,0.1,0,0.3,0,0.3c-0.1,0.1-0.3,0.3-0.4,0.3c-0.1,0-0.3-0.2-0.4-0.3c-0.1-0.1,0-0.3,0-0.5
		c0-2.6,0-5.2,0-7.7c0-0.7-0.1-0.8-0.8-0.8c-6.7,0-13.5,0-20.2,0c-0.7,0-0.8,0.1-0.8,0.8c0,11,0,22.1,0,33.1c0,0.8,0,0.8,0.8,0.8
		c3.7,0,7.4,0,11.2,0c0.2,0,0.3,0,0.5,0c0.1,0.1,0.3,0.2,0.3,0.4c0,0.1-0.2,0.3-0.3,0.4c-0.2,0.1-0.4,0-0.6,0c-3.7,0-7.4,0-11.1,0
		c-1.3,0-1.8-0.4-1.8-1.7C81.3,63,81.3,57.5,81.3,52z"/>
	
		<path fill="#363636" stroke="#363636" stroke-width="0.5" stroke-linecap="round" stroke-linejoin="round" stroke-miterlimit="10" d="
		M114.2,54.1c-5.5,0-11,0-16.6,0c-1,0-1,0-1-1c0-1.2,0-2.4,0-3.7c0.1-2.2,1.6-3.7,3.8-3.7c2,0,4,0,5.9,0c7.1,0,14.2,0,21.3,0
		c2.3,0,4.2,1.7,4.1,4.1c0,1.1,0,2.3,0,3.4c0,0.8-0.1,0.8-0.8,0.8C125.4,54.1,119.8,54.1,114.2,54.1z M131,53.2c0-1.4,0.1-2.8,0-4.2
		c-0.1-1.5-1.4-2.4-3.1-2.4c-9,0-18.1,0-27.1,0c-0.2,0-0.4,0-0.6,0c-1.2,0.1-2.4,1-2.5,2.3c-0.1,1.4,0,2.9,0,4.3
		C108.7,53.2,119.8,53.2,131,53.2z"/>
	
		<path fill="#363636" stroke="#363636" stroke-width="0.5" stroke-linecap="round" stroke-linejoin="round" stroke-miterlimit="10" d="
		M114.2,80.9c-4.4,0-8.9,0-13.3,0c-2.7,0-4.2-1.5-4.2-4.2c0-6.7,0-13.4,0-20.1c0-0.2,0-0.3,0-0.5c0.1-0.2,0.3-0.3,0.4-0.4
		c0.1,0,0.3,0.2,0.4,0.3c0.1,0.2,0,0.4,0,0.6c0,6.7,0,13.3,0,20c0,2.2,1.1,3.4,3.3,3.4c8.9,0,17.9,0,26.8,0c2.2,0,3.3-1.2,3.3-3.3
		c0-6.7,0-13.3,0-20c0-0.4-0.2-1,0.5-0.9c0.6,0,0.4,0.6,0.4,0.9c0,6.7,0,13.4,0,20.1c0,1.6-0.6,2.9-2.1,3.6c-0.6,0.3-1.3,0.4-2,0.4
		C123.2,80.9,118.7,80.9,114.2,80.9z"/>
	
		<path fill="#363636" stroke="#363636" stroke-width="0.5" stroke-linecap="round" stroke-linejoin="round" stroke-miterlimit="10" d="
		M92.8,75.5c-1.1,0-2.1-1-2.1-2.1c0-1.2,0.9-2.1,2.1-2.1c1.2,0,2.1,0.9,2.1,2.1C94.8,74.6,93.9,75.5,92.8,75.5z M92.8,72.2
		c-0.7,0-1.2,0.6-1.2,1.2c0,0.7,0.6,1.3,1.2,1.3c0.6,0,1.2-0.6,1.2-1.2C94,72.7,93.5,72.2,92.8,72.2z"/>
	
		<path fill="#363636" stroke="#363636" stroke-width="0.5" stroke-linecap="round" stroke-linejoin="round" stroke-miterlimit="10" d="
		M89.9,45.6c-0.5-0.2-0.5-0.4-0.4-0.8c0.8-2,1.6-4.1,2.4-6.1c0.2-0.4,0.3-0.8,0.5-1.2c0.1-0.2,0.3-0.2,0.5-0.3
		c0.1,0.2,0.3,0.5,0.2,0.6c-0.9,2.4-1.9,4.9-2.9,7.3C90.2,45.4,90,45.5,89.9,45.6z"/>
	
		<path fill="#363636" stroke="#363636" stroke-width="0.5" stroke-linecap="round" stroke-linejoin="round" stroke-miterlimit="10" d="
		M97.2,41.4c-0.8-0.5-1.4-0.9-2.1-1.3c-0.1-0.1-0.3-0.2-0.4-0.3c-0.1-0.2-0.1-0.4-0.2-0.6c0.2,0,0.5-0.2,0.6-0.1
		c1.1,0.6,2.1,1.3,3.2,1.9c0.3,0.2,0.3,0.5,0,0.8c-1,0.6-2,1.3-3.1,1.9c-0.2,0.1-0.4,0-0.7,0c0.1-0.2,0.1-0.5,0.3-0.6
		C95.5,42.5,96.3,42,97.2,41.4z"/>
	
		<path fill="#363636" stroke="#363636" stroke-width="0.5" stroke-linecap="round" stroke-linejoin="round" stroke-miterlimit="10" d="
		M85.5,41.4c0.8,0.5,1.6,1,2.3,1.5c0.2,0.2,0.6,0.3,0.4,0.7c-0.2,0.4-0.5,0.2-0.8,0c-0.9-0.6-1.8-1.1-2.7-1.7c-0.6-0.3-0.6-0.6,0-1
		c1-0.6,1.9-1.2,2.9-1.8c0.2-0.1,0.4,0,0.7,0c-0.1,0.2-0.1,0.5-0.3,0.7C87.2,40.4,86.3,40.9,85.5,41.4z"/>
	
		<path fill="#363636" stroke="#363636" stroke-width="0.5" stroke-linecap="round" stroke-linejoin="round" stroke-miterlimit="10" d="
		M93.1,31.1c0.9,0,1.9,0,2.8,0c0.3,0,0.7,0,0.6,0.4c0,0.2-0.4,0.4-0.6,0.4c-1.9,0-3.8,0-5.7,0c-0.2,0-0.5-0.2-0.6-0.4
		c-0.1-0.3,0.2-0.4,0.5-0.4C91.1,31.1,92.1,31.1,93.1,31.1z"/>
	
		<path fill="#363636" stroke="#363636" stroke-width="0.5" stroke-linecap="round" stroke-linejoin="round" stroke-miterlimit="10" d="
		M105.5,60c0.3,0.2,0.5,0.3,0.8,0.4c0.4,0.2,0.6,0.1,0.8-0.3c0.4-1,0.4-1,1.5-1c0.2,0,0.3,0,0.5,0c1.4,0,1.2-0.1,1.5,1
		c0.1,0.4,0.4,0.5,0.8,0.3c0.9-0.5,0.9-0.5,1.6,0.2c0.2,0.2,0.4,0.4,0.7,0.7c0.6,0.6,0.6,0.7,0.2,1.5c-0.3,0.5-0.2,0.7,0.4,0.9
		c0.9,0.2,0.9,0.2,0.9,1.2c0,0.4,0,0.8,0,1.2c0,0.5-0.1,0.8-0.7,0.9c-0.1,0-0.2,0.1-0.3,0.1c-0.5,0.1-0.6,0.4-0.3,0.8
		c0.5,0.9,0.5,0.9-0.2,1.6c-0.2,0.2-0.3,0.3-0.5,0.5c-1,1-0.8,0.9-1.9,0.3c-0.4-0.2-0.6,0-0.7,0.3c-0.4,1.1-0.4,1.1-1.5,1.1
		c-0.2,0-0.3,0-0.5,0c-1.1,0-1.1,0-1.4-1c-0.1-0.4-0.4-0.5-0.8-0.3c-0.9,0.5-0.9,0.5-1.7-0.3c-0.1-0.1-0.2-0.2-0.3-0.3
		c-0.9-0.9-0.8-0.9-0.3-2c0.1-0.1-0.1-0.4-0.2-0.6c-0.1-0.1-0.4-0.1-0.5-0.2c-0.5-0.1-0.7-0.3-0.6-0.8c0-0.6,0-1.1,0-1.7
		c0-0.4,0.2-0.7,0.6-0.7c0.2,0,0.3-0.1,0.5-0.1c0.4-0.1,0.6-0.3,0.3-0.8c-0.5-0.9-0.5-1,0.3-1.7c0.3-0.3,0.6-0.6,0.9-0.9
		C105.1,60.2,105.3,60.1,105.5,60z M105.6,69.8c0.5-0.3,0.9-0.6,1.6-0.3c0.7,0.3,0.6,0.9,0.9,1.4c0.5,0,1.1,0,1.6,0
		c0.1-1.6,1.4-1.8,2.5-0.9c0.2-0.2,0.3-0.4,0.5-0.6c0.2-0.2,0.5-0.3,0.7-0.4c-0.3-0.3-0.4-0.5-0.5-0.7c-0.4-0.7,0-1.6,0.8-1.8
		c0.9-0.1,0.5-0.8,0.6-1.2c0.1-0.5-0.2-0.6-0.6-0.7c-0.7-0.2-1.2-1.1-0.8-1.7c0.4-0.6,0.2-0.9-0.2-1.2c-0.1,0-0.1-0.1-0.2-0.2
		c-0.3-0.3-0.5-0.4-0.9-0.1c-0.3,0.3-0.6,0.2-1,0.1c-0.7-0.2-0.8-0.8-1-1.4c-0.2,0-0.4,0-0.6,0c-0.6-0.1-1.1,0-1.2,0.8
		c-0.1,0.5-1.1,0.9-1.5,0.6c-0.7-0.5-1.1-0.2-1.5,0.3c-0.1,0.1-0.3,0.3-0.4,0.4c0.1,0.2,0.3,0.4,0.4,0.7c0.3,0.5-0.1,1.5-0.7,1.6
		c-0.7,0.1-0.8,0.5-0.8,1.1c0,0.2,0,0.5,0,0.7c0.5,0.2,1.1,0.2,1.4,0.9c0.3,0.7-0.1,1.1-0.4,1.7c0.3,0.3,0.6,0.6,0.9,0.9
		C105.4,69.6,105.5,69.7,105.6,69.8z"/>
	
		<path fill="#363636" stroke="#363636" stroke-width="0.5" stroke-linecap="round" stroke-linejoin="round" stroke-miterlimit="10" d="
		M120,70.5c-1.4,0-2.9,0-4.3,0c-0.2,0-0.4,0-0.5,0c-0.1-0.1-0.3-0.3-0.3-0.4c0-0.1,0.2-0.3,0.3-0.4c0.1-0.1,0.3,0,0.4,0
		c3,0,5.9,0,8.9,0c0.1,0,0.1,0,0.2,0c0.2,0.1,0.4,0.3,0.5,0.4c-0.2,0.2-0.4,0.4-0.6,0.4c-0.9,0-1.8,0-2.7,0
		C121.2,70.5,120.6,70.5,120,70.5z"/>
	
		<path fill="#363636" stroke="#363636" stroke-width="0.5" stroke-linecap="round" stroke-linejoin="round" stroke-miterlimit="10" d="
		M120,72.7c1.5,0,3,0,4.5,0c0.3,0,0.7,0,0.6,0.4c0,0.2-0.4,0.4-0.6,0.4c-3,0-6.1,0-9.1,0c-0.2,0-0.5-0.2-0.5-0.4
		c-0.1-0.4,0.3-0.4,0.5-0.4C116.9,72.7,118.5,72.7,120,72.7z"/>
	
		<path fill="#363636" stroke="#363636" stroke-width="0.5" stroke-linecap="round" stroke-linejoin="round" stroke-miterlimit="10" d="
		M121.6,61.4c-0.9,0-1.9,0-2.8,0c-0.2,0-0.6-0.2-0.6-0.4c-0.1-0.4,0.3-0.4,0.6-0.4c1.9,0,3.9,0,5.8,0c0.2,0,0.4,0.3,0.6,0.4
		c-0.2,0.1-0.4,0.4-0.6,0.4C123.6,61.5,122.6,61.4,121.6,61.4z"/>
	
		<path fill="#363636" stroke="#363636" stroke-width="0.5" stroke-linecap="round" stroke-linejoin="round" stroke-miterlimit="10" d="
		M121.7,63.6c0.9,0,1.9,0,2.8,0c0.3,0,0.7,0,0.6,0.4c0,0.2-0.4,0.4-0.6,0.4c-1.9,0-3.8,0-5.7,0c-0.3,0-0.7,0-0.7-0.4
		c0-0.4,0.4-0.4,0.7-0.4C119.8,63.6,120.7,63.6,121.7,63.6z"/>
	
		<path fill="#363636" stroke="#363636" stroke-width="0.5" stroke-linecap="round" stroke-linejoin="round" stroke-miterlimit="10" d="
		M121.6,67.5c-0.9,0-1.9,0-2.8,0c-0.2,0-0.6-0.2-0.6-0.4c-0.1-0.4,0.3-0.5,0.6-0.5c1,0,2.1,0,3.1,0c0.9,0,1.8,0,2.7,0
		c0.3,0,0.6,0.1,0.5,0.4c0,0.2-0.3,0.4-0.5,0.4C123.6,67.5,122.6,67.5,121.6,67.5z"/>
	
		<path fill="#363636" stroke="#363636" stroke-width="0.5" stroke-linecap="round" stroke-linejoin="round" stroke-miterlimit="10" d="
		M104.2,50c0,1.2-1,2.1-2.1,2c-1.1,0-2.1-1-2-2.2c0-1.1,1-2,2.2-2C103.3,47.9,104.2,48.8,104.2,50z M102.1,51.1
		c0.7,0,1.3-0.5,1.3-1.2c0-0.7-0.5-1.2-1.2-1.2c-0.7,0-1.3,0.5-1.3,1.2C100.9,50.6,101.4,51.1,102.1,51.1z"/>
	
		<path fill="#363636" stroke="#363636" stroke-width="0.5" stroke-linecap="round" stroke-linejoin="round" stroke-miterlimit="10" d="
		M107.9,47.8c1.2,0,2.1,0.9,2.1,2.1c0,1.1-1,2.1-2.1,2.1c-1.1,0-2-0.9-2-2C105.9,48.7,106.7,47.8,107.9,47.8z M109.2,49.9
		c0-0.7-0.6-1.2-1.2-1.2c-0.7,0-1.2,0.6-1.2,1.3c0,0.7,0.6,1.2,1.3,1.2C108.7,51.1,109.2,50.6,109.2,49.9z"/>
	
		<path fill="#363636" stroke="#363636" stroke-width="0.5" stroke-linecap="round" stroke-linejoin="round" stroke-miterlimit="10" d="
		M113,47.8c1.2,0,2.1,0.9,2.1,2.1c0,1.1-1,2.1-2.2,2c-1.1,0-2-1-2-2.1C110.9,48.7,111.8,47.8,113,47.8z M114.2,49.9
		c0-0.7-0.5-1.2-1.2-1.2c-0.7,0-1.2,0.6-1.2,1.3c0,0.7,0.6,1.2,1.3,1.2C113.7,51.1,114.2,50.6,114.2,49.9z"/>
	
		<path fill="#363636" stroke="#363636" stroke-width="0.5" stroke-linecap="round" stroke-linejoin="round" stroke-miterlimit="10" d="
		M111.6,65.3c0.1,1.5-1.2,2.8-2.7,2.9c-1.6,0.1-3-1.2-3-2.8c0-1.6,1.2-2.9,2.7-3C110.3,62.4,111.6,63.6,111.6,65.3z M110.8,65.3
		c0-1.1-0.9-2-2.1-2c-1.1,0-2,1-2,2.1c0,1.1,1,2,2.1,2C109.9,67.4,110.8,66.5,110.8,65.3z"/>
</g>
</svg>
