<?xml version="1.0" encoding="utf-8"?>
<!-- Generator: Adobe Illustrator 26.2.1, SVG Export Plug-In . SVG Version: 6.00 Build 0)  -->
<svg version="1.1" baseProfile="tiny" id="Layer_1" xmlns="http://www.w3.org/2000/svg" xmlns:xlink="http://www.w3.org/1999/xlink"
	 x="0px" y="0px" width="260px" height="557px" viewBox="0 0 260 557" overflow="visible" xml:space="preserve">
<path fill="#F2EDED" d="M243.3,557H16.7C7.5,557,0,549.5,0,540.3V16.7C0,7.5,7.5,0,16.7,0h226.5c9.2,0,16.7,7.5,16.7,16.7v523.6
	C260,549.5,252.5,557,243.3,557z"/>
<g>
	<path fill="#F2BABA" d="M253,212H7c-3.8,0-7-3.1-7-6.9v-87.4c0-3.8,3.1-6.9,7-6.9h245.9c3.8,0,7,3.1,7,6.9v87.4
		C259.9,208.9,256.9,212,253,212z"/>
	<rect x="11.4" y="110.8" fill="none" width="237.1" height="101.2"/>
	<g>
		<path fill="#6D5252" d="M93.8,158.1v1.1h-2.2v7.2h-1.4v-7.2h-2.3v-1.1H93.8z"/>
		<path fill="#6D5252" d="M100,160.1c0.4,0.2,0.7,0.5,0.9,1c0.2,0.4,0.3,0.9,0.3,1.5v3.9h-1.4v-3.7c0-0.6-0.1-1-0.4-1.4
			c-0.3-0.3-0.7-0.5-1.2-0.5c-0.5,0-0.9,0.2-1.2,0.5c-0.3,0.3-0.5,0.8-0.5,1.4v3.7h-1.4v-8.9h1.4v3c0.2-0.3,0.5-0.5,0.9-0.6
			c0.4-0.2,0.8-0.2,1.2-0.2C99.2,159.8,99.6,159.9,100,160.1z"/>
		<path fill="#6D5252" d="M103.1,158.7c-0.2-0.2-0.3-0.4-0.3-0.6s0.1-0.5,0.3-0.6s0.4-0.3,0.6-0.3c0.2,0,0.4,0.1,0.6,0.3
			s0.3,0.4,0.3,0.6s-0.1,0.5-0.3,0.6s-0.4,0.3-0.6,0.3C103.5,159,103.3,158.9,103.1,158.7z M104.4,159.9v6.6h-1.4v-6.6H104.4z"/>
		<path fill="#6D5252" d="M111.1,160.1c0.4,0.2,0.7,0.5,1,1c0.2,0.4,0.4,0.9,0.4,1.5v3.9H111v-3.7c0-0.6-0.1-1-0.4-1.4
			c-0.3-0.3-0.7-0.5-1.2-0.5c-0.5,0-0.9,0.2-1.2,0.5c-0.3,0.3-0.5,0.8-0.5,1.4v3.7h-1.4v-6.6h1.4v0.8c0.2-0.3,0.5-0.5,0.9-0.6
			c0.4-0.2,0.7-0.2,1.1-0.2C110.2,159.8,110.6,159.9,111.1,160.1z"/>
		<path fill="#6D5252" d="M116.8,163.2l3.1,3.3H118l-2.5-2.8v2.8h-1.4v-8.9h1.4v5.2l2.4-2.9h1.9L116.8,163.2z"/>
		<path fill="#6D5252" d="M120.9,158.7c-0.2-0.2-0.3-0.4-0.3-0.6s0.1-0.5,0.3-0.6s0.4-0.3,0.6-0.3c0.2,0,0.4,0.1,0.6,0.3
			s0.3,0.4,0.3,0.6s-0.1,0.5-0.3,0.6s-0.4,0.3-0.6,0.3C121.3,159,121.1,158.9,120.9,158.7z M122.3,159.9v6.6h-1.4v-6.6H122.3z"/>
		<path fill="#6D5252" d="M128.9,160.1c0.4,0.2,0.7,0.5,1,1c0.2,0.4,0.4,0.9,0.4,1.5v3.9h-1.4v-3.7c0-0.6-0.1-1-0.4-1.4
			c-0.3-0.3-0.7-0.5-1.2-0.5c-0.5,0-0.9,0.2-1.2,0.5c-0.3,0.3-0.5,0.8-0.5,1.4v3.7h-1.4v-6.6h1.4v0.8c0.2-0.3,0.5-0.5,0.9-0.6
			c0.4-0.2,0.7-0.2,1.1-0.2C128,159.8,128.4,159.9,128.9,160.1z"/>
		<path fill="#6D5252" d="M136,160.1c0.4,0.2,0.7,0.5,0.9,0.8v-1h1.4v6.7c0,0.6-0.1,1.1-0.4,1.6c-0.3,0.5-0.6,0.8-1.1,1.1
			c-0.5,0.3-1.1,0.4-1.8,0.4c-0.9,0-1.7-0.2-2.3-0.6s-0.9-1-1-1.7h1.4c0.1,0.3,0.3,0.6,0.7,0.8s0.8,0.3,1.2,0.3c0.6,0,1-0.2,1.4-0.5
			s0.5-0.8,0.5-1.5v-1.1c-0.2,0.3-0.6,0.6-1,0.8c-0.4,0.2-0.9,0.3-1.4,0.3c-0.6,0-1.1-0.1-1.6-0.4c-0.5-0.3-0.9-0.7-1.1-1.2
			c-0.3-0.5-0.4-1.1-0.4-1.8s0.1-1.3,0.4-1.8c0.3-0.5,0.7-0.9,1.1-1.2c0.5-0.3,1-0.4,1.6-0.4C135.2,159.8,135.6,159.9,136,160.1z
			 M136.7,162c-0.2-0.3-0.4-0.6-0.7-0.8c-0.3-0.2-0.6-0.3-1-0.3s-0.7,0.1-1,0.3c-0.3,0.2-0.6,0.4-0.7,0.8c-0.2,0.3-0.3,0.7-0.3,1.2
			s0.1,0.9,0.3,1.2c0.2,0.3,0.4,0.6,0.8,0.8c0.3,0.2,0.6,0.3,1,0.3c0.4,0,0.7-0.1,1-0.3s0.6-0.4,0.7-0.8c0.2-0.3,0.3-0.7,0.3-1.2
			C137,162.7,136.9,162.3,136.7,162z"/>
		<path fill="#6D5252" d="M148.8,158.1v1.1h-2.2v7.2h-1.4v-7.2h-2.3v-1.1H148.8z"/>
		<path fill="#6D5252" d="M150.3,158.7c-0.2-0.2-0.3-0.4-0.3-0.6s0.1-0.5,0.3-0.6c0.2-0.2,0.4-0.3,0.6-0.3c0.2,0,0.4,0.1,0.6,0.3
			s0.3,0.4,0.3,0.6s-0.1,0.5-0.3,0.6s-0.4,0.3-0.6,0.3C150.6,159,150.4,158.9,150.3,158.7z M151.6,159.9v6.6h-1.4v-6.6H151.6z"/>
		<path fill="#6D5252" d="M162.9,160.1c0.4,0.2,0.7,0.5,1,1c0.2,0.4,0.4,0.9,0.4,1.5v3.9h-1.4v-3.7c0-0.6-0.1-1-0.4-1.4
			c-0.3-0.3-0.7-0.5-1.2-0.5s-0.9,0.2-1.2,0.5c-0.3,0.3-0.5,0.8-0.5,1.4v3.7h-1.4v-3.7c0-0.6-0.1-1-0.4-1.4
			c-0.3-0.3-0.7-0.5-1.2-0.5c-0.5,0-0.9,0.2-1.2,0.5c-0.3,0.3-0.5,0.8-0.5,1.4v3.7h-1.4v-6.6h1.4v0.8c0.2-0.3,0.5-0.5,0.9-0.6
			c0.3-0.2,0.7-0.2,1.1-0.2c0.5,0,1,0.1,1.4,0.3s0.7,0.5,1,1c0.2-0.4,0.5-0.7,0.9-1c0.4-0.2,0.9-0.4,1.4-0.4
			C162,159.8,162.5,159.9,162.9,160.1z"/>
		<path fill="#6D5252" d="M172.1,163.7H167c0,0.5,0.2,1,0.6,1.3c0.4,0.3,0.8,0.5,1.3,0.5c0.7,0,1.3-0.3,1.6-0.9h1.5
			c-0.2,0.6-0.6,1.1-1.1,1.5c-0.5,0.4-1.2,0.6-2,0.6c-0.6,0-1.2-0.1-1.7-0.4c-0.5-0.3-0.9-0.7-1.2-1.2c-0.3-0.5-0.4-1.1-0.4-1.8
			c0-0.7,0.1-1.3,0.4-1.8c0.3-0.5,0.7-0.9,1.2-1.2s1.1-0.4,1.7-0.4c0.6,0,1.2,0.1,1.7,0.4c0.5,0.3,0.9,0.7,1.2,1.1
			c0.3,0.5,0.4,1.1,0.4,1.7C172.1,163.3,172.1,163.5,172.1,163.7z M170.7,162.6c0-0.5-0.2-0.9-0.5-1.2c-0.4-0.3-0.8-0.5-1.3-0.5
			c-0.5,0-0.9,0.2-1.2,0.5s-0.5,0.7-0.6,1.2H170.7z"/>
	</g>
</g>
<g>
	<path fill="#F2BABA" d="M253.1,531.6H6.9c-3.8,0-6.9-3.1-6.9-6.9v-87.4c0-3.8,3.1-6.9,6.9-6.9h246.2c3.8,0,6.9,3.1,6.9,6.9v87.4
		C260,528.5,256.9,531.6,253.1,531.6z"/>
	<rect x="11.4" y="430.4" fill="none" width="237.1" height="101.2"/>
	<g>
		<path fill="#6D5252" d="M89.3,479.7c0.4-0.6,0.9-1.2,1.6-1.5c0.7-0.4,1.4-0.5,2.2-0.5c0.9,0,1.7,0.2,2.4,0.7
			c0.7,0.4,1.2,1.1,1.5,1.9h-1.7c-0.2-0.4-0.5-0.8-0.9-1c-0.4-0.2-0.8-0.3-1.3-0.3c-0.6,0-1.1,0.1-1.5,0.4s-0.8,0.6-1,1.1
			c-0.2,0.5-0.4,1-0.4,1.6c0,0.6,0.1,1.2,0.4,1.6c0.2,0.5,0.6,0.8,1,1.1s0.9,0.4,1.5,0.4c0.5,0,1-0.1,1.3-0.3c0.4-0.2,0.7-0.5,0.9-1
			H97c-0.3,0.8-0.8,1.4-1.5,1.8c-0.7,0.4-1.5,0.6-2.4,0.6c-0.8,0-1.5-0.2-2.2-0.5c-0.7-0.4-1.2-0.9-1.6-1.5
			c-0.4-0.6-0.6-1.4-0.6-2.2C88.7,481.1,88.9,480.3,89.3,479.7z"/>
		<path fill="#6D5252" d="M99.8,485.7c-0.5-0.3-0.9-0.7-1.2-1.2c-0.3-0.5-0.4-1.1-0.4-1.8c0-0.7,0.1-1.3,0.4-1.8
			c0.3-0.5,0.7-0.9,1.2-1.2c0.5-0.3,1.1-0.4,1.7-0.4s1.2,0.1,1.7,0.4c0.5,0.3,0.9,0.7,1.2,1.2c0.3,0.5,0.4,1.1,0.4,1.8
			c0,0.7-0.2,1.3-0.5,1.8c-0.3,0.5-0.7,0.9-1.3,1.2c-0.5,0.3-1.1,0.4-1.8,0.4C100.9,486.2,100.3,486,99.8,485.7z M102.5,484.7
			c0.3-0.2,0.6-0.4,0.8-0.8s0.3-0.7,0.3-1.2c0-0.5-0.1-0.9-0.3-1.2c-0.2-0.3-0.4-0.6-0.7-0.8c-0.3-0.2-0.6-0.3-1-0.3s-0.7,0.1-1,0.3
			c-0.3,0.2-0.5,0.4-0.7,0.8c-0.2,0.3-0.3,0.7-0.3,1.2c0,0.7,0.2,1.3,0.6,1.6c0.4,0.4,0.8,0.6,1.4,0.6
			C101.8,485,102.2,484.9,102.5,484.7z"/>
		<path fill="#6D5252" d="M112.4,479.4v6.6H111v-0.8c-0.2,0.3-0.5,0.5-0.9,0.6c-0.4,0.2-0.7,0.2-1.1,0.2c-0.5,0-1-0.1-1.4-0.3
			c-0.4-0.2-0.7-0.5-1-1c-0.2-0.4-0.4-0.9-0.4-1.5v-3.9h1.4v3.7c0,0.6,0.1,1,0.4,1.4c0.3,0.3,0.7,0.5,1.2,0.5c0.5,0,0.9-0.2,1.2-0.5
			c0.3-0.3,0.5-0.8,0.5-1.4v-3.7H112.4z"/>
		<path fill="#6D5252" d="M116.4,479.6c0.3-0.2,0.7-0.3,1.2-0.3v1.4h-0.4c-0.5,0-1,0.1-1.2,0.4c-0.3,0.3-0.4,0.7-0.4,1.4v3.5h-1.4
			v-6.6h1.4v1C115.8,480.1,116.1,479.8,116.4,479.6z"/>
		<path fill="#6D5252" d="M119.9,485.9c-0.4-0.2-0.7-0.4-1-0.8c-0.2-0.3-0.4-0.7-0.4-1.1h1.4c0,0.3,0.2,0.5,0.4,0.7
			c0.2,0.2,0.6,0.3,0.9,0.3c0.4,0,0.7-0.1,0.9-0.2c0.2-0.1,0.3-0.3,0.3-0.6c0-0.2-0.1-0.4-0.4-0.6s-0.6-0.3-1.1-0.4
			c-0.5-0.1-0.9-0.3-1.2-0.4c-0.3-0.1-0.6-0.3-0.8-0.6c-0.2-0.3-0.3-0.6-0.3-1c0-0.4,0.1-0.7,0.3-1s0.5-0.5,0.9-0.7s0.8-0.3,1.4-0.3
			c0.8,0,1.4,0.2,1.8,0.6c0.5,0.4,0.7,0.9,0.7,1.6h-1.4c0-0.3-0.1-0.5-0.4-0.7c-0.2-0.2-0.5-0.3-0.9-0.3c-0.4,0-0.6,0.1-0.8,0.2
			c-0.2,0.1-0.3,0.3-0.3,0.5c0,0.2,0.1,0.3,0.2,0.4s0.3,0.2,0.5,0.3c0.2,0.1,0.5,0.2,0.8,0.3c0.5,0.1,0.9,0.3,1.2,0.4
			s0.6,0.3,0.8,0.6s0.3,0.6,0.4,1c0,0.4-0.1,0.7-0.3,1s-0.5,0.5-0.9,0.7s-0.8,0.3-1.4,0.3C120.8,486.2,120.3,486.1,119.9,485.9z"/>
		<path fill="#6D5252" d="M131.4,483.3h-5.1c0,0.5,0.2,1,0.6,1.3c0.4,0.3,0.8,0.5,1.3,0.5c0.7,0,1.3-0.3,1.6-0.9h1.5
			c-0.2,0.6-0.6,1.1-1.1,1.5c-0.5,0.4-1.2,0.6-2,0.6c-0.6,0-1.2-0.1-1.7-0.4c-0.5-0.3-0.9-0.7-1.2-1.2c-0.3-0.5-0.4-1.1-0.4-1.8
			c0-0.7,0.1-1.3,0.4-1.8c0.3-0.5,0.7-0.9,1.2-1.2s1.1-0.4,1.7-0.4c0.6,0,1.2,0.1,1.7,0.4c0.5,0.3,0.9,0.7,1.2,1.1
			c0.3,0.5,0.4,1.1,0.4,1.7C131.5,482.8,131.5,483.1,131.4,483.3z M130,482.2c0-0.5-0.2-0.9-0.5-1.2c-0.4-0.3-0.8-0.5-1.3-0.5
			c-0.5,0-0.9,0.2-1.2,0.5s-0.5,0.7-0.6,1.2H130z"/>
		<path fill="#6D5252" d="M133.8,485.9c-0.4-0.2-0.7-0.4-1-0.8c-0.2-0.3-0.4-0.7-0.4-1.1h1.4c0,0.3,0.2,0.5,0.4,0.7
			c0.2,0.2,0.6,0.3,0.9,0.3c0.4,0,0.7-0.1,0.9-0.2c0.2-0.1,0.3-0.3,0.3-0.6c0-0.2-0.1-0.4-0.4-0.6s-0.6-0.3-1.1-0.4
			c-0.5-0.1-0.9-0.3-1.2-0.4c-0.3-0.1-0.6-0.3-0.8-0.6c-0.2-0.3-0.3-0.6-0.3-1c0-0.4,0.1-0.7,0.3-1c0.2-0.3,0.5-0.5,0.9-0.7
			s0.8-0.3,1.4-0.3c0.8,0,1.4,0.2,1.8,0.6c0.5,0.4,0.7,0.9,0.7,1.6h-1.4c0-0.3-0.1-0.5-0.4-0.7s-0.5-0.3-0.9-0.3
			c-0.4,0-0.6,0.1-0.8,0.2c-0.2,0.1-0.3,0.3-0.3,0.5c0,0.2,0.1,0.3,0.2,0.4c0.1,0.1,0.3,0.2,0.5,0.3c0.2,0.1,0.5,0.2,0.8,0.3
			c0.5,0.1,0.9,0.3,1.2,0.4c0.3,0.1,0.6,0.3,0.8,0.6s0.3,0.6,0.4,1c0,0.4-0.1,0.7-0.3,1c-0.2,0.3-0.5,0.5-0.9,0.7s-0.8,0.3-1.4,0.3
			C134.7,486.2,134.3,486.1,133.8,485.9z"/>
		<path fill="#6D5252" d="M147.9,477.7v1.1h-2.2v7.2h-1.4v-7.2H142v-1.1H147.9z"/>
		<path fill="#6D5252" d="M149.4,478.3c-0.2-0.2-0.3-0.4-0.3-0.6s0.1-0.5,0.3-0.6s0.4-0.3,0.6-0.3c0.2,0,0.4,0.1,0.6,0.3
			s0.3,0.4,0.3,0.6s-0.1,0.5-0.3,0.6s-0.4,0.3-0.6,0.3C149.8,478.6,149.6,478.5,149.4,478.3z M150.7,479.4v6.6h-1.4v-6.6H150.7z"/>
		<path fill="#6D5252" d="M162,479.7c0.4,0.2,0.7,0.5,1,1c0.2,0.4,0.4,0.9,0.4,1.5v3.9H162v-3.7c0-0.6-0.1-1-0.4-1.4
			c-0.3-0.3-0.7-0.5-1.2-0.5s-0.9,0.2-1.2,0.5c-0.3,0.3-0.5,0.8-0.5,1.4v3.7h-1.4v-3.7c0-0.6-0.1-1-0.4-1.4
			c-0.3-0.3-0.7-0.5-1.2-0.5c-0.5,0-0.9,0.2-1.2,0.5c-0.3,0.3-0.5,0.8-0.5,1.4v3.7h-1.4v-6.6h1.4v0.8c0.2-0.3,0.5-0.5,0.9-0.6
			c0.3-0.2,0.7-0.2,1.1-0.2c0.5,0,1,0.1,1.4,0.3s0.7,0.5,1,1c0.2-0.4,0.5-0.7,0.9-1c0.4-0.2,0.9-0.4,1.4-0.4
			C161.1,479.3,161.6,479.4,162,479.7z"/>
		<path fill="#6D5252" d="M171.2,483.3h-5.1c0,0.5,0.2,1,0.6,1.3c0.4,0.3,0.8,0.5,1.3,0.5c0.7,0,1.3-0.3,1.6-0.9h1.5
			c-0.2,0.6-0.6,1.1-1.1,1.5c-0.5,0.4-1.2,0.6-2,0.6c-0.6,0-1.2-0.1-1.7-0.4c-0.5-0.3-0.9-0.7-1.2-1.2c-0.3-0.5-0.4-1.1-0.4-1.8
			c0-0.7,0.1-1.3,0.4-1.8c0.3-0.5,0.7-0.9,1.2-1.2s1.1-0.4,1.7-0.4c0.6,0,1.2,0.1,1.7,0.4c0.5,0.3,0.9,0.7,1.2,1.1
			c0.3,0.5,0.4,1.1,0.4,1.7C171.3,482.8,171.2,483.1,171.2,483.3z M169.8,482.2c0-0.5-0.2-0.9-0.5-1.2c-0.4-0.3-0.8-0.5-1.3-0.5
			c-0.5,0-0.9,0.2-1.2,0.5s-0.5,0.7-0.6,1.2H169.8z"/>
	</g>
</g>
<g>
	<path fill="#F2DCBA" d="M253.1,335.3H6.9c-3.8,0-6.9-3.1-6.9-6.9v-61.5c0-3.8,3.1-6.9,6.9-6.9h246.2c3.8,0,6.9,3.1,6.9,6.9v61.5
		C260,332.2,256.9,335.3,253.1,335.3z"/>
	<rect x="11.4" y="260.1" fill="none" width="237.1" height="75.2"/>
	<g>
		<path fill="#6B6251" d="M104.4,295.6v2.4h2.9v1.1h-2.9v2.6h3.2v1.1h-4.6v-8.4h4.6v1.1H104.4z"/>
		<path fill="#6B6251" d="M112.2,299.4l2.1,3.3h-1.5l-1.4-2.2l-1.3,2.2h-1.4l2.1-3.3l-2.1-3.4h1.5l1.4,2.2l1.3-2.2h1.4L112.2,299.4z
			"/>
		<path fill="#6B6251" d="M115.3,297.7c0.3-0.5,0.7-0.9,1.1-1.2s1-0.4,1.7-0.4c0.8,0,1.5,0.2,2,0.6c0.5,0.4,0.9,0.9,1.1,1.6h-1.5
			c-0.1-0.3-0.3-0.6-0.6-0.8c-0.3-0.2-0.6-0.3-1-0.3c-0.6,0-1,0.2-1.3,0.6c-0.3,0.4-0.5,0.9-0.5,1.7c0,0.7,0.2,1.3,0.5,1.7
			c0.3,0.4,0.8,0.6,1.3,0.6c0.8,0,1.3-0.3,1.6-1h1.5c-0.2,0.7-0.6,1.2-1.1,1.6c-0.5,0.4-1.2,0.6-2,0.6c-0.6,0-1.2-0.1-1.7-0.4
			c-0.5-0.3-0.9-0.7-1.1-1.2c-0.3-0.5-0.4-1.1-0.4-1.8C114.9,298.8,115,298.2,115.3,297.7z"/>
		<path fill="#6B6251" d="M128.6,300h-5.1c0,0.5,0.2,1,0.6,1.3c0.4,0.3,0.8,0.5,1.3,0.5c0.7,0,1.3-0.3,1.6-0.9h1.5
			c-0.2,0.6-0.6,1.1-1.1,1.5c-0.5,0.4-1.2,0.6-1.9,0.6c-0.6,0-1.2-0.1-1.7-0.4c-0.5-0.3-0.9-0.7-1.2-1.2c-0.3-0.5-0.4-1.1-0.4-1.8
			c0-0.7,0.1-1.3,0.4-1.8c0.3-0.5,0.7-0.9,1.2-1.2s1.1-0.4,1.7-0.4c0.6,0,1.2,0.1,1.7,0.4c0.5,0.3,0.9,0.7,1.1,1.1s0.4,1.1,0.4,1.7
			C128.6,299.6,128.6,299.8,128.6,300z M127.2,298.9c0-0.5-0.2-0.9-0.5-1.2c-0.4-0.3-0.8-0.5-1.3-0.5c-0.5,0-0.9,0.2-1.2,0.5
			s-0.5,0.7-0.6,1.2H127.2z"/>
		<path fill="#6B6251" d="M132.1,296.4c0.3-0.2,0.7-0.3,1.2-0.3v1.4h-0.3c-0.5,0-0.9,0.1-1.2,0.4c-0.3,0.3-0.4,0.7-0.4,1.4v3.5h-1.4
			v-6.6h1.4v1C131.5,296.8,131.8,296.5,132.1,296.4z"/>
		<path fill="#6B6251" d="M134.5,297.7c0.3-0.5,0.7-0.9,1.1-1.2c0.5-0.3,1-0.4,1.7-0.4c0.8,0,1.5,0.2,2,0.6c0.5,0.4,0.9,0.9,1.1,1.6
			h-1.5c-0.1-0.3-0.3-0.6-0.6-0.8c-0.3-0.2-0.6-0.3-1-0.3c-0.6,0-1,0.2-1.3,0.6c-0.3,0.4-0.5,0.9-0.5,1.7c0,0.7,0.2,1.3,0.5,1.7
			c0.3,0.4,0.8,0.6,1.3,0.6c0.8,0,1.3-0.3,1.6-1h1.5c-0.2,0.7-0.6,1.2-1.1,1.6c-0.5,0.4-1.2,0.6-2,0.6c-0.6,0-1.2-0.1-1.7-0.4
			c-0.5-0.3-0.9-0.7-1.1-1.2c-0.3-0.5-0.4-1.1-0.4-1.8C134.1,298.8,134.2,298.2,134.5,297.7z"/>
		<path fill="#6B6251" d="M141.8,295.1c-0.2-0.2-0.3-0.4-0.3-0.6s0.1-0.5,0.3-0.6s0.4-0.3,0.6-0.3c0.2,0,0.4,0.1,0.6,0.3
			s0.3,0.4,0.3,0.6s-0.1,0.5-0.3,0.6s-0.4,0.3-0.6,0.3C142.2,295.3,142,295.2,141.8,295.1z M143.1,296.2v6.6h-1.4v-6.6H143.1z"/>
		<path fill="#6B6251" d="M145.9,302.6c-0.4-0.2-0.7-0.4-1-0.8c-0.2-0.3-0.4-0.7-0.4-1.1h1.4c0,0.3,0.2,0.5,0.4,0.7
			c0.2,0.2,0.5,0.3,0.9,0.3c0.4,0,0.7-0.1,0.9-0.2c0.2-0.1,0.3-0.3,0.3-0.6c0-0.2-0.1-0.4-0.4-0.6s-0.6-0.3-1.1-0.4
			c-0.5-0.1-0.9-0.3-1.2-0.4c-0.3-0.1-0.6-0.3-0.8-0.6c-0.2-0.3-0.3-0.6-0.3-1c0-0.4,0.1-0.7,0.3-1s0.5-0.5,0.9-0.7s0.8-0.3,1.3-0.3
			c0.8,0,1.4,0.2,1.8,0.6c0.5,0.4,0.7,0.9,0.7,1.6h-1.4c0-0.3-0.1-0.5-0.4-0.7s-0.5-0.3-0.9-0.3c-0.4,0-0.6,0.1-0.8,0.2
			c-0.2,0.1-0.3,0.3-0.3,0.5c0,0.2,0.1,0.3,0.2,0.4s0.3,0.2,0.5,0.3c0.2,0.1,0.5,0.2,0.8,0.3c0.5,0.1,0.9,0.3,1.2,0.4
			s0.6,0.3,0.8,0.6c0.2,0.3,0.3,0.6,0.3,1c0,0.4-0.1,0.7-0.3,1s-0.5,0.5-0.9,0.7s-0.8,0.3-1.3,0.3
			C146.8,302.9,146.3,302.8,145.9,302.6z"/>
		<path fill="#6B6251" d="M157.3,300h-5.1c0,0.5,0.2,1,0.6,1.3c0.4,0.3,0.8,0.5,1.3,0.5c0.7,0,1.3-0.3,1.6-0.9h1.5
			c-0.2,0.6-0.6,1.1-1.1,1.5c-0.5,0.4-1.2,0.6-1.9,0.6c-0.6,0-1.2-0.1-1.7-0.4c-0.5-0.3-0.9-0.7-1.2-1.2c-0.3-0.5-0.4-1.1-0.4-1.8
			c0-0.7,0.1-1.3,0.4-1.8c0.3-0.5,0.7-0.9,1.2-1.2s1.1-0.4,1.7-0.4c0.6,0,1.2,0.1,1.7,0.4c0.5,0.3,0.9,0.7,1.1,1.1
			c0.3,0.5,0.4,1.1,0.4,1.7C157.4,299.6,157.4,299.8,157.3,300z M156,298.9c0-0.5-0.2-0.9-0.5-1.2c-0.4-0.3-0.8-0.5-1.3-0.5
			c-0.5,0-0.9,0.2-1.2,0.5s-0.5,0.7-0.6,1.2H156z"/>
	</g>
</g>
<g>
	<path fill="#F2BABA" d="M253.1,427.4H6.9c-3.8,0-6.9-3.1-6.9-6.9v-9.4c0-3.8,3.1-6.9,6.9-6.9h246.2c3.8,0,6.9,3.1,6.9,6.9v9.4
		C260,424.3,256.9,427.4,253.1,427.4z"/>
	<rect x="11.4" y="404.2" fill="none" width="237.1" height="23.1"/>
	<g>
		<path fill="#695353" d="M98.6,419.8h2.8v1.1h-4.2v-8.3h1.4V419.8z"/>
		<path fill="#695353" d="M102.6,415.8c0.3-0.5,0.7-0.9,1.1-1.2s1-0.4,1.6-0.4c0.5,0,1,0.1,1.4,0.3c0.4,0.2,0.7,0.5,0.9,0.8v-1h1.4
			v6.6h-1.4v-1c-0.2,0.3-0.5,0.6-0.9,0.8c-0.4,0.2-0.9,0.3-1.4,0.3c-0.6,0-1.1-0.1-1.6-0.4s-0.8-0.7-1.1-1.2
			c-0.3-0.5-0.4-1.1-0.4-1.8S102.3,416.3,102.6,415.8z M107.3,416.4c-0.2-0.3-0.4-0.6-0.7-0.8c-0.3-0.2-0.6-0.3-1-0.3
			s-0.7,0.1-1,0.3c-0.3,0.2-0.6,0.4-0.7,0.8s-0.3,0.7-0.3,1.2s0.1,0.9,0.3,1.2s0.4,0.6,0.7,0.8c0.3,0.2,0.6,0.3,1,0.3
			c0.4,0,0.7-0.1,1-0.3s0.5-0.4,0.7-0.8c0.2-0.3,0.3-0.7,0.3-1.2C107.6,417.1,107.5,416.7,107.3,416.4z"/>
		<path fill="#695353" d="M115.5,414.5c0.4,0.2,0.7,0.5,1,1c0.2,0.4,0.3,0.9,0.3,1.5v3.9h-1.4v-3.7c0-0.6-0.1-1-0.4-1.4
			c-0.3-0.3-0.7-0.5-1.2-0.5c-0.5,0-0.9,0.2-1.2,0.5c-0.3,0.3-0.4,0.8-0.4,1.4v3.7h-1.4v-6.6h1.4v0.8c0.2-0.3,0.5-0.5,0.9-0.6
			c0.3-0.2,0.7-0.2,1.1-0.2C114.6,414.2,115.1,414.3,115.5,414.5z"/>
		<path fill="#695353" d="M122.5,414.5c0.4,0.2,0.7,0.5,0.9,0.8v-1h1.4v6.7c0,0.6-0.1,1.1-0.4,1.6c-0.3,0.5-0.6,0.8-1.1,1.1
			c-0.5,0.3-1.1,0.4-1.7,0.4c-0.9,0-1.6-0.2-2.2-0.6c-0.6-0.4-0.9-1-1-1.7h1.4c0.1,0.3,0.3,0.6,0.7,0.8c0.3,0.2,0.7,0.3,1.2,0.3
			c0.6,0,1-0.2,1.3-0.5c0.3-0.3,0.5-0.8,0.5-1.5v-1.1c-0.2,0.3-0.5,0.6-0.9,0.8s-0.8,0.3-1.4,0.3c-0.6,0-1.1-0.1-1.6-0.4
			s-0.9-0.7-1.1-1.2c-0.3-0.5-0.4-1.1-0.4-1.8s0.1-1.3,0.4-1.8c0.3-0.5,0.7-0.9,1.1-1.2s1-0.4,1.6-0.4
			C121.7,414.2,122.2,414.3,122.5,414.5z M123.2,416.4c-0.2-0.3-0.4-0.6-0.7-0.8c-0.3-0.2-0.6-0.3-1-0.3s-0.7,0.1-1,0.3
			c-0.3,0.2-0.6,0.4-0.7,0.8s-0.3,0.7-0.3,1.2s0.1,0.9,0.3,1.2s0.4,0.6,0.7,0.8c0.3,0.2,0.6,0.3,1,0.3c0.4,0,0.7-0.1,1-0.3
			s0.5-0.4,0.7-0.8c0.2-0.3,0.3-0.7,0.3-1.2C123.5,417.1,123.4,416.7,123.2,416.4z"/>
		<path fill="#695353" d="M132.6,414.3v6.6h-1.4v-0.8c-0.2,0.3-0.5,0.5-0.8,0.6c-0.3,0.2-0.7,0.2-1.1,0.2c-0.5,0-1-0.1-1.4-0.3
			c-0.4-0.2-0.7-0.5-1-1c-0.2-0.4-0.4-0.9-0.4-1.5v-3.9h1.4v3.7c0,0.6,0.1,1,0.4,1.4c0.3,0.3,0.7,0.5,1.2,0.5c0.5,0,0.9-0.2,1.2-0.5
			c0.3-0.3,0.5-0.8,0.5-1.4v-3.7H132.6z"/>
		<path fill="#695353" d="M134.4,415.8c0.3-0.5,0.7-0.9,1.1-1.2c0.5-0.3,1-0.4,1.6-0.4c0.5,0,1,0.1,1.4,0.3s0.7,0.5,0.9,0.8v-1h1.4
			v6.6h-1.4v-1c-0.2,0.3-0.5,0.6-0.9,0.8c-0.4,0.2-0.9,0.3-1.4,0.3c-0.6,0-1.1-0.1-1.6-0.4c-0.5-0.3-0.8-0.7-1.1-1.2
			c-0.3-0.5-0.4-1.1-0.4-1.8S134.1,416.3,134.4,415.8z M139.1,416.4c-0.2-0.3-0.4-0.6-0.7-0.8c-0.3-0.2-0.6-0.3-1-0.3
			c-0.4,0-0.7,0.1-1,0.3c-0.3,0.2-0.6,0.4-0.7,0.8c-0.2,0.3-0.3,0.7-0.3,1.2s0.1,0.9,0.3,1.2c0.2,0.3,0.4,0.6,0.7,0.8
			c0.3,0.2,0.6,0.3,1,0.3c0.4,0,0.7-0.1,1-0.3c0.3-0.2,0.5-0.4,0.7-0.8c0.2-0.3,0.3-0.7,0.3-1.2
			C139.4,417.1,139.3,416.7,139.1,416.4z"/>
		<path fill="#695353" d="M146.6,414.5c0.4,0.2,0.7,0.5,0.9,0.8v-1h1.4v6.7c0,0.6-0.1,1.1-0.4,1.6c-0.3,0.5-0.6,0.8-1.1,1.1
			c-0.5,0.3-1.1,0.4-1.7,0.4c-0.9,0-1.6-0.2-2.2-0.6s-0.9-1-1-1.7h1.4c0.1,0.3,0.3,0.6,0.7,0.8s0.7,0.3,1.2,0.3c0.6,0,1-0.2,1.3-0.5
			c0.3-0.3,0.5-0.8,0.5-1.5v-1.1c-0.2,0.3-0.5,0.6-0.9,0.8c-0.4,0.2-0.8,0.3-1.3,0.3c-0.6,0-1.1-0.1-1.6-0.4
			c-0.5-0.3-0.9-0.7-1.1-1.2c-0.3-0.5-0.4-1.1-0.4-1.8s0.1-1.3,0.4-1.8c0.3-0.5,0.7-0.9,1.1-1.2c0.5-0.3,1-0.4,1.6-0.4
			C145.8,414.2,146.2,414.3,146.6,414.5z M147.3,416.4c-0.2-0.3-0.4-0.6-0.7-0.8c-0.3-0.2-0.6-0.3-1-0.3c-0.4,0-0.7,0.1-1,0.3
			c-0.3,0.2-0.5,0.4-0.7,0.8c-0.2,0.3-0.3,0.7-0.3,1.2s0.1,0.9,0.3,1.2c0.2,0.3,0.4,0.6,0.7,0.8c0.3,0.2,0.6,0.3,1,0.3
			c0.4,0,0.7-0.1,1-0.3c0.3-0.2,0.5-0.4,0.7-0.8c0.2-0.3,0.3-0.7,0.3-1.2C147.5,417.1,147.4,416.7,147.3,416.4z"/>
		<path fill="#695353" d="M156.7,418.1h-5.1c0,0.5,0.2,1,0.6,1.3c0.4,0.3,0.8,0.5,1.3,0.5c0.7,0,1.3-0.3,1.6-0.9h1.5
			c-0.2,0.6-0.6,1.1-1.1,1.5c-0.5,0.4-1.2,0.6-2,0.6c-0.6,0-1.2-0.1-1.7-0.4c-0.5-0.3-0.9-0.7-1.2-1.2c-0.3-0.5-0.4-1.1-0.4-1.8
			c0-0.7,0.1-1.3,0.4-1.8c0.3-0.5,0.7-0.9,1.2-1.2s1.1-0.4,1.7-0.4c0.6,0,1.2,0.1,1.7,0.4c0.5,0.3,0.9,0.7,1.1,1.1
			c0.3,0.5,0.4,1.1,0.4,1.7C156.8,417.7,156.8,417.9,156.7,418.1z M155.3,417c0-0.5-0.2-0.9-0.5-1.2c-0.4-0.3-0.8-0.5-1.3-0.5
			c-0.5,0-0.9,0.2-1.2,0.5s-0.5,0.7-0.6,1.2H155.3z"/>
		<path fill="#695353" d="M159.1,420.7c-0.4-0.2-0.7-0.4-1-0.8c-0.2-0.3-0.4-0.7-0.4-1.1h1.4c0,0.3,0.2,0.5,0.4,0.7
			c0.2,0.2,0.5,0.3,0.9,0.3c0.4,0,0.7-0.1,0.9-0.2c0.2-0.1,0.3-0.3,0.3-0.6c0-0.2-0.1-0.4-0.4-0.6s-0.6-0.3-1.1-0.4
			c-0.5-0.1-0.9-0.3-1.2-0.4c-0.3-0.1-0.6-0.3-0.8-0.6c-0.2-0.3-0.3-0.6-0.3-1c0-0.4,0.1-0.7,0.3-1s0.5-0.5,0.9-0.7s0.8-0.3,1.3-0.3
			c0.8,0,1.4,0.2,1.8,0.6c0.5,0.4,0.7,0.9,0.7,1.6h-1.4c0-0.3-0.1-0.5-0.4-0.7s-0.5-0.3-0.9-0.3c-0.4,0-0.6,0.1-0.8,0.2
			c-0.2,0.1-0.3,0.3-0.3,0.5c0,0.2,0.1,0.3,0.2,0.4s0.3,0.2,0.5,0.3c0.2,0.1,0.5,0.2,0.8,0.3c0.5,0.1,0.9,0.3,1.2,0.4
			s0.6,0.3,0.8,0.6c0.2,0.3,0.3,0.6,0.3,1c0,0.4-0.1,0.7-0.3,1s-0.5,0.5-0.9,0.7s-0.8,0.3-1.3,0.3C160,421,159.5,420.9,159.1,420.7z
			"/>
	</g>
</g>
</svg>
