<?xml version="1.0" encoding="utf-8"?>
<!-- Generator: Adobe Illustrator 26.2.1, SVG Export Plug-In . SVG Version: 6.00 Build 0)  -->
<svg version="1.1" baseProfile="tiny" id="Layer_1" xmlns="http://www.w3.org/2000/svg" xmlns:xlink="http://www.w3.org/1999/xlink"
	 x="0px" y="0px" width="260px" height="557px" viewBox="0 0 260 557" overflow="visible" xml:space="preserve">
<path fill="#F2EDED" d="M243.3,557H16.7C7.5,557,0,549.5,0,540.3V16.7C0,7.5,7.5,0,16.7,0h226.5c9.2,0,16.7,7.5,16.7,16.7v523.6
	C260,549.5,252.5,557,243.3,557z"/>
<g>
	<path fill="#F2BABA" d="M253.1,41.2H6.9c-3.8,0-6.9-3.1-6.9-6.9v-9.4C0,21.1,3.1,18,6.9,18h246.2c3.8,0,6.9,3.1,6.9,6.9v9.4
		C260,38.1,256.9,41.2,253.1,41.2z"/>
	<rect x="11.4" y="18" fill="none" width="237.1" height="23.1"/>
	<text transform="matrix(1 0 0 1 96.3705 34.7068)" fill="#6D5252" font-family="'Poppins-Medium'" font-size="12px">Languages</text>
</g>
<g>
	<path fill="#F2BABA" d="M251.7,183.3H8.3c-3.8,0-6.9-3.1-6.9-6.9V167c0-3.8,3.1-6.9,6.9-6.9h243.3c3.8,0,6.9,3.1,6.9,6.9v9.4
		C258.5,180.2,255.5,183.3,251.7,183.3z"/>
	<rect y="160.1" fill="none" width="260" height="23.1"/>
	<text transform="matrix(1.0114 0 0 1 95.9873 176.8052)" fill="#6D5252" font-family="'Poppins-Medium'" font-size="12px">Languages</text>
</g>
<g>
	<path fill="#F2BABA" d="M251.7,540.9H8.3c-3.8,0-6.9-3.1-6.9-6.9v-9.4c0-3.8,3.1-6.9,6.9-6.9h243.3c3.8,0,6.9,3.1,6.9,6.9v9.4
		C258.5,537.9,255.5,540.9,251.7,540.9z"/>
	<rect y="517.8" fill="none" width="260" height="23.1"/>
	<text transform="matrix(1.0114 0 0 1 88.293 534.458)" fill="#6D5252" font-family="'Poppins-Medium'" font-size="12px">Courses Time</text>
</g>
<g>
	<path fill="#F2DCBA" d="M253.1,66.4H6.9c-3.8,0-6.9-3.1-6.9-6.9v-8.9c0-3.8,3.1-6.9,6.9-6.9h246.2c3.8,0,6.9,3.1,6.9,6.9v8.9
		C260,63.3,256.9,66.4,253.1,66.4z"/>
	<rect x="11.4" y="43.7" fill="none" width="237.1" height="23.3"/>
	<text transform="matrix(1 0 0 1 102.1664 60.4041)" fill="#6B6251" font-family="'Poppins-Medium'" font-size="12px">Excercise</text>
</g>
<g>
	<path fill="#B8E0CE" d="M253.1,301.8H6.9c-3.8,0-6.9-3.1-6.9-6.9v-62c0-3.8,3.1-6.9,6.9-6.9h246.2c3.8,0,6.9,3.1,6.9,6.9v62
		C260,298.7,256.9,301.8,253.1,301.8z"/>
	<rect x="11.4" y="226.1" fill="none" width="237.1" height="75.8"/>
	<text transform="matrix(1 0 0 1 90.0765 269.0256)" fill="#50685E" font-family="'Poppins-Medium'" font-size="12px">Focus Time +</text>
</g>
<g>
	<path fill="#B8E0CE" d="M253.1,436.6H6.9c-3.8,0-6.9-3.1-6.9-6.9v-62c0-3.8,3.1-6.9,6.9-6.9h246.2c3.8,0,6.9,3.1,6.9,6.9v62
		C260,433.5,256.9,436.6,253.1,436.6z"/>
	<rect x="11.4" y="360.8" fill="none" width="237.1" height="75.8"/>
	<text transform="matrix(1 0 0 1 95.9203 403.78)" fill="#50685E" font-family="'Poppins-Medium'" font-size="12px">Focus Time</text>
</g>
<g>
	<path fill="#B8E0CE" d="M253.1,157.9H6.9c-3.8,0-6.9-3.1-6.9-6.9V89c0-3.8,3.1-6.9,6.9-6.9h246.2c3.8,0,6.9,3.1,6.9,6.9v62
		C260,154.8,256.9,157.9,253.1,157.9z"/>
	<rect x="11.4" y="82.1" fill="none" width="237.1" height="75.8"/>
	<text transform="matrix(1 0 0 1 90.0765 125.0602)" fill="#50685E" font-family="'Poppins-Medium'" font-size="12px">Focus Time +</text>
</g>
<g>
	<path fill="#F2DCBA" d="M253.1,341H6.9c-3.8,0-6.9-3.1-6.9-6.9v-22.4c0-3.8,3.1-6.9,6.9-6.9h246.2c3.8,0,6.9,3.1,6.9,6.9v22.4
		C260,337.9,256.9,341,253.1,341z"/>
	<rect x="11.4" y="304.9" fill="none" width="237.1" height="36.1"/>
	<text transform="matrix(1 0 0 1 102.1664 328.0128)" fill="#6B6251" font-family="'Poppins-Medium'" font-size="12px">Excercise</text>
</g>
<g>
	<path fill="#F2DCBA" d="M253.1,514.8H6.9c-3.8,0-6.9-3.1-6.9-6.9v-61.4c0-3.8,3.1-6.9,6.9-6.9h246.2c3.8,0,6.9,3.1,6.9,6.9V508
		C260,511.7,256.9,514.8,253.1,514.8z"/>
	<rect x="11.4" y="439.6" fill="none" width="237.1" height="75.2"/>
	<text transform="matrix(1 0 0 1 102.1664 482.2739)" fill="#6B6251" font-family="'Poppins-Medium'" font-size="12px">Excercise</text>
</g>
<g id="lOOHDA_00000152253787235204476650000005493094116793767300_">
	<path fill="#50685E" d="M188.3,125.3c0.1,0,0.2,0,0.3,0c1.4,0,2.9,0,4.3,0c0.6,0,0.8,0.2,0.7,0.8c0,1.2-0.5,2.2-1.6,2.7
		c-0.4,0.2-1,0.3-1.4,0.3c-4.5,0-9,0-13.5,0c-0.8,0-1.6-0.2-2.2-0.8c-0.7-0.7-0.8-1.5-0.8-2.4c0-0.3,0.2-0.5,0.6-0.5
		c1.5,0,2.9,0,4.4,0c0.1,0,0.2,0,0.3,0c0,0,0,0,0-0.1c-0.1-0.1-0.2-0.1-0.3-0.2c-1.9-1.1-3.2-2.7-3.7-4.9c-0.1-0.5-0.2-1.1-0.2-1.6
		s0.2-0.7,0.6-0.7c1.9,0,3.9,0,5.8,0c4.2,0,8.3,0,12.5,0c0.5,0,1.1,0.1,1.6,0.2c1.4,0.3,1.9,1.1,1.6,2.5c-0.2,1.2-1,1.9-2.1,2.3
		c-0.9,0.4-2,0.6-3,0.7c-0.6,0.1-1.2,0.1-1.7,0.1c-0.1,0-0.2,0-0.3,0.1C189.7,124.3,189,124.8,188.3,125.3
		C188.4,125.3,188.4,125.3,188.3,125.3z M176.3,119c0,0.1,0,0.2,0,0.3c0.2,1.5,0.9,2.9,2,3.9c2.1,1.9,4.6,2.6,7.4,2
		c2.6-0.6,4.5-2.1,5.5-4.7c0.2-0.4,0.2-0.9,0.3-1.4C186.4,119,181.3,119,176.3,119z M192.5,126.4c-5.8,0-11.6,0-17.3,0
		c0,0.9,0.6,1.5,1.4,1.6c0.2,0,0.4,0,0.6,0c4.4,0,8.9,0,13.3,0c0.1,0,0.3,0,0.4,0C191.9,127.9,192.4,127.4,192.5,126.4z
		 M191.3,122.7c0.5-0.1,1-0.1,1.4-0.2c0.9-0.1,1.7-0.3,2.5-0.7c0.5-0.3,0.9-0.7,1.1-1.3c0.2-1,0-1.3-0.9-1.4
		c-0.4-0.1-0.8-0.1-1.3-0.1s-1,0-1.5,0C192.5,120.3,192,121.5,191.3,122.7z"/>
	<path fill="#50685E" d="M180.4,108.9c0.1,0.1,0.3,0.2,0.4,0.3c0.1,0.1,0,0.4,0,0.5s-0.2,0.2-0.2,0.3c-0.4,0.5-0.4,1.1-0.2,1.6
		s0.5,1.1,0.7,1.6c0.3,1.1,0.3,2.1-0.1,3.2c-0.1,0.3-0.4,0.5-0.7,0.4s-0.4-0.4-0.3-0.7c0-0.1,0.1-0.3,0.1-0.4c0.1-0.5,0.2-1,0.1-1.5
		c0-0.3-0.2-0.7-0.3-1c-0.2-0.5-0.5-1-0.6-1.5c-0.3-1,0.1-2,0.8-2.6C180.1,109,180.2,108.9,180.4,108.9z"/>
	<path fill="#50685E" d="M187.7,114.6c0-0.5-0.2-0.9-0.4-1.3c-0.2-0.5-0.5-1-0.6-1.5c-0.3-1,0-1.8,0.7-2.6c0.2-0.3,0.6-0.3,0.8-0.1
		s0.2,0.5,0,0.8c-0.1,0.1-0.1,0.1-0.2,0.2c-0.4,0.5-0.5,1.1-0.2,1.7c0.2,0.5,0.5,1.1,0.7,1.7c0.3,1,0.3,2.1-0.1,3.1
		c-0.2,0.4-0.4,0.5-0.7,0.4s-0.4-0.4-0.3-0.8C187.4,115.6,187.6,115.1,187.7,114.6z"/>
	<path fill="#50685E" d="M184,115.8c-0.3,0-0.5-0.3-0.4-0.6s0.2-0.6,0.2-0.9c0.2-0.7,0.1-1.4-0.2-2.1c-0.2-0.4-0.3-0.7-0.5-1.1
		c-0.5-1.1-0.2-2.1,0.5-3c0.2-0.3,0.6-0.3,0.8-0.1s0.2,0.5,0,0.8c0,0.1-0.1,0.1-0.1,0.2c-0.4,0.5-0.5,1.1-0.2,1.7
		c0.3,0.7,0.6,1.4,0.8,2.2c0.2,0.9,0.1,1.8-0.3,2.6C184.4,115.7,184.3,115.8,184,115.8z"/>
</g>
<g id="lOOHDA_00000033357022832710592600000017840068489051148722_">
	<path fill="#50685E" d="M188.3,269.3c0.1,0,0.2,0,0.3,0c1.4,0,2.9,0,4.3,0c0.6,0,0.8,0.2,0.7,0.8c0,1.2-0.5,2.2-1.6,2.7
		c-0.4,0.2-1,0.3-1.4,0.3c-4.5,0-9,0-13.5,0c-0.8,0-1.6-0.2-2.2-0.8c-0.7-0.7-0.8-1.5-0.8-2.4c0-0.3,0.2-0.5,0.6-0.5
		c1.5,0,2.9,0,4.4,0c0.1,0,0.2,0,0.3,0c0,0,0,0,0-0.1c-0.1-0.1-0.2-0.1-0.3-0.2c-1.9-1.1-3.2-2.7-3.7-4.9c-0.1-0.5-0.2-1.1-0.2-1.6
		s0.2-0.7,0.6-0.7c1.9,0,3.9,0,5.8,0c4.2,0,8.3,0,12.5,0c0.5,0,1.1,0.1,1.6,0.2c1.4,0.3,1.9,1.1,1.6,2.5c-0.2,1.2-1,1.9-2.1,2.3
		c-0.9,0.4-2,0.6-3,0.7c-0.6,0.1-1.2,0.1-1.7,0.1c-0.1,0-0.2,0-0.3,0.1C189.7,268.3,189,268.7,188.3,269.3
		C188.4,269.2,188.4,269.2,188.3,269.3z M176.3,263c0,0.1,0,0.2,0,0.3c0.2,1.5,0.9,2.9,2,3.9c2.1,1.9,4.6,2.6,7.4,2
		c2.6-0.6,4.5-2.1,5.5-4.7c0.2-0.4,0.2-0.9,0.3-1.4C186.4,263,181.3,263,176.3,263z M192.5,270.4c-5.8,0-11.6,0-17.3,0
		c0,0.9,0.6,1.5,1.4,1.6c0.2,0,0.4,0,0.6,0c4.4,0,8.9,0,13.3,0c0.1,0,0.3,0,0.4,0C191.9,271.9,192.4,271.4,192.5,270.4z
		 M191.3,266.6c0.5-0.1,1-0.1,1.4-0.2c0.9-0.1,1.7-0.3,2.5-0.7c0.5-0.3,0.9-0.7,1.1-1.3c0.2-1,0-1.3-0.9-1.4
		c-0.4-0.1-0.8-0.1-1.3-0.1s-1,0-1.5,0C192.5,264.3,192,265.5,191.3,266.6z"/>
	<path fill="#50685E" d="M180.4,252.8c0.1,0.1,0.3,0.2,0.4,0.3c0.1,0.1,0,0.4,0,0.5s-0.2,0.2-0.2,0.3c-0.4,0.5-0.4,1.1-0.2,1.6
		s0.5,1.1,0.7,1.6c0.3,1.1,0.3,2.1-0.1,3.2c-0.1,0.3-0.4,0.5-0.7,0.4s-0.4-0.4-0.3-0.7c0-0.1,0.1-0.3,0.1-0.4c0.1-0.5,0.2-1,0.1-1.5
		c0-0.3-0.2-0.7-0.3-1c-0.2-0.5-0.5-1-0.6-1.5c-0.3-1,0.1-2,0.8-2.6C180.1,252.9,180.2,252.9,180.4,252.8z"/>
	<path fill="#50685E" d="M187.7,258.5c0-0.5-0.2-0.9-0.4-1.3c-0.2-0.5-0.5-1-0.6-1.5c-0.3-1,0-1.8,0.7-2.6c0.2-0.3,0.6-0.3,0.8-0.1
		c0.2,0.2,0.2,0.5,0,0.8c-0.1,0.1-0.1,0.1-0.2,0.2c-0.4,0.5-0.5,1.1-0.2,1.7c0.2,0.5,0.5,1.1,0.7,1.7c0.3,1,0.3,2.1-0.1,3.1
		c-0.2,0.4-0.4,0.5-0.7,0.4s-0.4-0.4-0.3-0.8C187.4,259.5,187.6,259,187.7,258.5z"/>
	<path fill="#50685E" d="M184,259.8c-0.3,0-0.5-0.3-0.4-0.6c0.1-0.3,0.2-0.6,0.2-0.9c0.2-0.7,0.1-1.4-0.2-2.1
		c-0.2-0.4-0.3-0.7-0.5-1.1c-0.5-1.1-0.2-2.1,0.5-3c0.2-0.3,0.6-0.3,0.8-0.1c0.2,0.2,0.2,0.5,0,0.8c0,0.1-0.1,0.1-0.1,0.2
		c-0.4,0.5-0.5,1.1-0.2,1.7c0.3,0.7,0.6,1.4,0.8,2.2c0.2,0.9,0.1,1.8-0.3,2.6C184.4,259.6,184.3,259.8,184,259.8z"/>
</g>
</svg>
