<?xml version="1.0" encoding="utf-8"?>
<!-- Generator: Adobe Illustrator 26.2.1, SVG Export Plug-In . SVG Version: 6.00 Build 0)  -->
<svg version="1.1" baseProfile="tiny" id="Layer_1" xmlns="http://www.w3.org/2000/svg" xmlns:xlink="http://www.w3.org/1999/xlink"
	 x="0px" y="0px" width="48px" height="48px" viewBox="0 0 48 48" overflow="visible" xml:space="preserve">
<g id="UQal27_00000031200916655280471850000014323438492770855056_">
	<g>
		<g>
			<path d="M16.6,41.1c-0.8,0-1.1-0.2-1.1-1.1c0-3.7,0-7.5,0-11.2c0-0.3-0.1-0.6-0.3-0.8c-1.8-1.8-3.6-3.6-5.5-5.5
				c-1.8-1.8-1.8-4.4-0.1-6.2c1.2-1.3,2.6-2.6,3.8-3.9c0.2-0.2,0.3-0.4,0.3-0.6c0.4-2.4,0.9-4.8,1.3-7.2c0.3-1.6,1.2-2.6,2.8-3
				c1.5-0.4,2.8,0.1,3.8,1.3c0,0.1,0.1,0.1,0.2,0.2c2.2-2.3,5.7-1.7,6.8,1.2c2.1-1.4,4.9-0.6,5.8,2c0.7-0.4,1.5-0.6,2.3-0.4
				c1.9,0.3,3.1,2.1,2.8,4c-0.4,2.2-0.8,4.5-1.2,6.7c0,0.2-0.1,0.5-0.2,0.7c-0.3,0.4-0.3,0.9-0.2,1.4c0.7,3.8-0.4,7.1-3.1,9.9
				c-0.2,0.2-0.3,0.5-0.3,0.8c0,3.5,0,7,0,10.5c0,0.9-0.2,1.1-1.1,1.1c0,0-0.3-0.1-0.3-0.4c0-0.3,0-1.1,0-1.1c0-0.2,0-0.4,0-0.6
				c0-3.4,0-6.7,0-10.1c0-0.4,0.1-0.7,0.4-1c0.9-0.9,1.7-1.9,2.3-3.1c0.8-1.8,1.1-3.7,0.8-5.7c-1.9,0.7-3.5,0.2-4.6-1.5
				c-0.9,0.7-1.9,1-3,0.8c-1.1-0.2-2-0.8-2.6-1.8c-0.2,0.2-0.4,0.3-0.5,0.5c0.6,0.7,1.3,1.3,1.8,1.9c1,1.2,0.9,2.3-0.2,3.3
				c-0.4,0.3-0.8,0.6-1.2,0.9c0.4,1.3,0.6,2.7,0.4,4.1c-0.2,1.2-0.5,2.3-1.1,3.3c-0.3,0.5-0.7,0.6-1.1,0.3C24,30.9,24,30.4,24.2,30
				c0-0.1,0.1-0.2,0.1-0.2c1-1.9,1.1-3.9,0.5-5.9c-0.8-0.2-1.5-0.2-2.2-0.5c-2.2-0.8-4-2.3-5.9-3.7c-0.3-0.2-0.3-0.6-0.1-1
				c0.2-0.3,0.6-0.4,1-0.2c0.1,0.1,0.2,0.2,0.3,0.2c0.8,0.6,1.6,1.2,2.5,1.8c0.9,0.6,1.9,1.1,2.9,1.5c0.9,0.4,1.9,0.2,2.7-0.4
				c0.9-0.7,0.9-1.1,0.1-1.9c-2.2-2.2-4.5-4.5-6.7-6.7c-1.4-1.4-3-1.4-4.4,0c-1.4,1.4-2.8,2.8-4.1,4.1c-1.4,1.4-1.4,3.1,0,4.5
				c1.8,1.8,3.7,3.7,5.5,5.5c0.4,0.4,0.6,0.8,0.6,1.4c0,3.5,0,7,0,10.4c0,0.2,0,0.4,0,0.5C17.1,39.6,17.1,41.1,16.6,41.1z M24.7,16
				c0.7-0.4,1.1-1,1.2-1.8c0.4-2.3,0.8-4.6,1.2-6.9c0.1-0.6,0.3-1.2,0.2-1.8c-0.1-1.3-1.1-2.2-2.3-2.3c-1.3,0-2.4,0.8-2.6,2.1
				c-0.4,2.3-0.8,4.5-1.2,6.8c0,0.2,0,0.4,0.1,0.5C22.4,13.9,23.5,14.9,24.7,16z M33,7.7c0-1.4-0.8-2.3-2-2.5
				C30,5.1,28.9,5.9,28.7,7c-0.5,2.5-0.9,5-1.3,7.5c-0.2,1.3,0.6,2.4,1.8,2.5c1.2,0.2,2.3-0.6,2.5-1.8c0.3-1.4,0.5-2.8,0.8-4.2
				C32.6,9.8,32.9,8.7,33,7.7z M33.1,15.9c0,1.2,0.7,2,1.7,2.1c1,0.1,1.9-0.5,2.1-1.4c0.4-2.3,0.8-4.6,1.2-6.9
				c0.2-1.1-0.5-2-1.6-2.2c-1-0.2-2,0.5-2.2,1.6c-0.2,1.2-0.4,2.4-0.6,3.5C33.5,13.8,33.3,14.9,33.1,15.9z M19.9,11.3
				c0-0.2,0.1-0.3,0.1-0.4c0.3-1.7,0.6-3.3,0.9-5c0.1-0.3,0.1-0.7,0-1.1c-0.2-1-1.1-1.8-2.1-1.8c-1.1,0-1.9,0.7-2.2,1.7
				c-0.2,0.7-0.3,1.5-0.4,2.3C16,8.4,15.7,9.6,15.5,11C17.1,10.3,18.5,10.5,19.9,11.3z"/>
		</g>
	</g>
</g>
</svg>
