<?xml version="1.0" encoding="utf-8"?>
<!-- Generator: Adobe Illustrator 26.3.1, SVG Export Plug-In . SVG Version: 6.00 Build 0)  -->
<svg version="1.1" baseProfile="tiny" id="Layer_1" xmlns="http://www.w3.org/2000/svg" xmlns:xlink="http://www.w3.org/1999/xlink"
	 x="0px" y="0px" width="191px" height="268px" viewBox="0 0 191 268" overflow="visible" xml:space="preserve">
<rect fill="#F2ECEC" width="191" height="268"/>
<g>
	<path fill="#363636" d="M28,205.2c-0.6-0.3-1.1-0.7-1.5-1.2c-0.4-0.5-0.6-1.1-0.6-1.8h2.4c0,0.5,0.2,0.8,0.5,1.1
		c0.3,0.3,0.7,0.4,1.2,0.4c0.5,0,0.9-0.1,1.2-0.4s0.5-0.6,0.5-1c0-0.3-0.1-0.6-0.3-0.8c-0.2-0.2-0.5-0.4-0.8-0.5
		c-0.3-0.1-0.7-0.3-1.3-0.4c-0.7-0.2-1.3-0.4-1.8-0.6c-0.5-0.2-0.9-0.5-1.2-1c-0.3-0.4-0.5-1-0.5-1.7c0-0.7,0.2-1.3,0.5-1.7
		c0.3-0.5,0.8-0.9,1.4-1.1c0.6-0.3,1.3-0.4,2.1-0.4c1.2,0,2.1,0.3,2.8,0.8c0.7,0.6,1.1,1.4,1.2,2.4h-2.5c0-0.4-0.2-0.7-0.5-1
		c-0.3-0.3-0.7-0.4-1.2-0.4c-0.4,0-0.8,0.1-1.1,0.3c-0.3,0.2-0.4,0.6-0.4,1c0,0.3,0.1,0.6,0.3,0.8c0.2,0.2,0.4,0.4,0.7,0.5
		c0.3,0.1,0.7,0.3,1.3,0.4c0.7,0.2,1.3,0.4,1.8,0.6c0.5,0.2,0.9,0.5,1.2,1c0.3,0.4,0.5,1,0.5,1.7c0,0.6-0.2,1.2-0.5,1.7
		c-0.3,0.5-0.8,0.9-1.4,1.2c-0.6,0.3-1.3,0.5-2.2,0.5C29.4,205.6,28.7,205.4,28,205.2z"/>
	<path fill="#363636" d="M37.8,205c-0.7-0.4-1.2-0.9-1.6-1.6c-0.4-0.7-0.6-1.5-0.6-2.4s0.2-1.7,0.6-2.4c0.4-0.7,1-1.2,1.7-1.6
		c0.7-0.4,1.5-0.6,2.3-0.6s1.6,0.2,2.3,0.6c0.7,0.4,1.3,0.9,1.7,1.6c0.4,0.7,0.6,1.5,0.6,2.4s-0.2,1.7-0.6,2.4
		c-0.4,0.7-1,1.2-1.7,1.6c-0.7,0.4-1.5,0.6-2.4,0.6C39.2,205.6,38.5,205.4,37.8,205z M41.3,203.3c0.4-0.2,0.7-0.5,0.9-0.9
		c0.2-0.4,0.3-0.9,0.3-1.5c0-0.9-0.2-1.5-0.7-2c-0.4-0.5-1-0.7-1.6-0.7s-1.2,0.2-1.6,0.7c-0.4,0.5-0.7,1.1-0.7,2s0.2,1.5,0.6,2
		s1,0.7,1.6,0.7C40.5,203.6,40.9,203.5,41.3,203.3z"/>
	<path fill="#363636" d="M48.7,193.5v12h-2.3v-12H48.7z"/>
	<path fill="#363636" d="M54.7,203.4l2.3-6.9h2.4l-3.3,9h-2.8l-3.3-9h2.4L54.7,203.4z"/>
	<path fill="#363636" d="M68.9,201.7h-6.6c0.1,0.6,0.3,1.2,0.7,1.5c0.4,0.4,0.9,0.6,1.5,0.6c0.8,0,1.4-0.4,1.8-1.1h2.4
		c-0.3,0.9-0.8,1.6-1.5,2.1c-0.7,0.6-1.6,0.8-2.7,0.8c-0.9,0-1.6-0.2-2.3-0.6c-0.7-0.4-1.2-0.9-1.6-1.6s-0.6-1.5-0.6-2.4
		c0-0.9,0.2-1.7,0.6-2.4c0.4-0.7,0.9-1.2,1.6-1.6s1.5-0.6,2.3-0.6c0.9,0,1.6,0.2,2.3,0.5c0.7,0.4,1.2,0.9,1.6,1.6s0.6,1.4,0.6,2.3
		C69,201.1,69,201.4,68.9,201.7z M66.6,200.1c0-0.6-0.2-1-0.6-1.4c-0.4-0.4-0.9-0.5-1.5-0.5c-0.6,0-1,0.2-1.4,0.5
		c-0.4,0.3-0.6,0.8-0.7,1.4H66.6z"/>
	<path fill="#363636" d="M77.1,198.4v4.3c0,0.3,0.1,0.5,0.2,0.7c0.1,0.1,0.4,0.2,0.7,0.2h1.1v1.9h-1.4c-1.9,0-2.9-0.9-2.9-2.8v-4.3
		h-1.1v-1.9h1.1v-2.2h2.3v2.2h2v1.9H77.1z"/>
	<path fill="#363636" d="M87.7,196.8c0.5,0.3,0.9,0.7,1.2,1.3c0.3,0.6,0.4,1.3,0.4,2.1v5.3h-2.3v-5c0-0.7-0.2-1.3-0.5-1.6
		c-0.4-0.4-0.8-0.6-1.5-0.6c-0.6,0-1.1,0.2-1.5,0.6c-0.4,0.4-0.5,0.9-0.5,1.6v5h-2.3v-12h2.3v4.1c0.3-0.4,0.7-0.7,1.2-0.9
		c0.5-0.2,1-0.3,1.6-0.3C86.5,196.4,87.1,196.5,87.7,196.8z"/>
	<path fill="#363636" d="M99.8,201.7h-6.6c0.1,0.6,0.3,1.2,0.7,1.5c0.4,0.4,0.9,0.6,1.5,0.6c0.8,0,1.4-0.4,1.8-1.1h2.4
		c-0.3,0.9-0.8,1.6-1.5,2.1c-0.7,0.6-1.6,0.8-2.7,0.8c-0.9,0-1.6-0.2-2.3-0.6c-0.7-0.4-1.2-0.9-1.6-1.6s-0.6-1.5-0.6-2.4
		c0-0.9,0.2-1.7,0.6-2.4c0.4-0.7,0.9-1.2,1.6-1.6s1.5-0.6,2.3-0.6c0.9,0,1.6,0.2,2.3,0.5c0.7,0.4,1.2,0.9,1.6,1.6
		c0.4,0.7,0.6,1.4,0.6,2.3C99.8,201.1,99.8,201.4,99.8,201.7z M97.5,200.1c0-0.6-0.2-1-0.6-1.4s-0.9-0.5-1.5-0.5
		c-0.6,0-1,0.2-1.4,0.5c-0.4,0.3-0.6,0.8-0.7,1.4H97.5z"/>
	<path fill="#363636" d="M108.8,196.8c0.5-0.3,1.1-0.4,1.8-0.4c0.8,0,1.5,0.2,2.1,0.6c0.6,0.4,1.1,0.9,1.5,1.6
		c0.4,0.7,0.5,1.5,0.5,2.4s-0.2,1.7-0.5,2.4c-0.4,0.7-0.9,1.3-1.5,1.6c-0.6,0.4-1.3,0.6-2.1,0.6c-0.7,0-1.3-0.1-1.8-0.4
		s-0.9-0.6-1.2-1v1.3h-2.3v-12h2.3v4.3C107.9,197.4,108.3,197,108.8,196.8z M112,199.6c-0.2-0.4-0.5-0.7-0.9-0.9s-0.8-0.3-1.2-0.3
		c-0.4,0-0.8,0.1-1.2,0.3c-0.4,0.2-0.7,0.5-0.9,0.9c-0.2,0.4-0.3,0.9-0.3,1.4s0.1,1,0.3,1.4c0.2,0.4,0.5,0.7,0.9,0.9
		c0.4,0.2,0.7,0.3,1.2,0.3c0.4,0,0.8-0.1,1.2-0.3s0.7-0.5,0.9-0.9c0.2-0.4,0.3-0.9,0.3-1.4C112.4,200.4,112.2,199.9,112,199.6z"/>
	<path fill="#363636" d="M116.5,195c-0.3-0.3-0.4-0.6-0.4-0.9s0.1-0.7,0.4-0.9s0.6-0.4,1-0.4s0.7,0.1,1,0.4s0.4,0.6,0.4,0.9
		s-0.1,0.7-0.4,0.9c-0.3,0.3-0.6,0.4-1,0.4S116.7,195.3,116.5,195z M118.6,196.5v9h-2.3v-9H118.6z"/>
	<path fill="#363636" d="M126.1,196.7c0.5,0.3,0.9,0.6,1.2,1v-1.3h2.3v9c0,0.8-0.2,1.6-0.5,2.2c-0.3,0.7-0.8,1.2-1.5,1.6
		c-0.7,0.4-1.5,0.6-2.4,0.6c-1.3,0-2.3-0.3-3.1-0.9c-0.8-0.6-1.3-1.4-1.4-2.4h2.3c0.1,0.4,0.4,0.7,0.8,1c0.4,0.2,0.9,0.4,1.4,0.4
		c0.7,0,1.2-0.2,1.6-0.6c0.4-0.4,0.6-1,0.6-1.8v-1.4c-0.3,0.4-0.7,0.8-1.2,1.1s-1.1,0.4-1.8,0.4c-0.8,0-1.4-0.2-2.1-0.6
		c-0.6-0.4-1.1-0.9-1.5-1.6c-0.4-0.7-0.5-1.5-0.5-2.4c0-0.9,0.2-1.7,0.5-2.4c0.4-0.7,0.9-1.2,1.5-1.6s1.3-0.6,2.1-0.6
		C125,196.4,125.6,196.5,126.1,196.7z M127,199.6c-0.2-0.4-0.5-0.7-0.9-0.9s-0.8-0.3-1.2-0.3c-0.4,0-0.8,0.1-1.2,0.3
		s-0.6,0.5-0.9,0.9c-0.2,0.4-0.3,0.9-0.3,1.4s0.1,1,0.3,1.4c0.2,0.4,0.5,0.7,0.9,0.9c0.4,0.2,0.7,0.3,1.2,0.3c0.4,0,0.8-0.1,1.2-0.3
		c0.4-0.2,0.7-0.5,0.9-0.9c0.2-0.4,0.3-0.9,0.3-1.4S127.2,200,127,199.6z"/>
	<path fill="#363636" d="M137.1,196.7c0.5,0.3,0.9,0.6,1.2,1v-1.3h2.3v9c0,0.8-0.2,1.6-0.5,2.2c-0.3,0.7-0.8,1.2-1.5,1.6
		c-0.7,0.4-1.5,0.6-2.4,0.6c-1.3,0-2.3-0.3-3.1-0.9c-0.8-0.6-1.3-1.4-1.4-2.4h2.3c0.1,0.4,0.4,0.7,0.8,1c0.4,0.2,0.9,0.4,1.4,0.4
		c0.7,0,1.2-0.2,1.6-0.6c0.4-0.4,0.6-1,0.6-1.8v-1.4c-0.3,0.4-0.7,0.8-1.2,1.1s-1.1,0.4-1.8,0.4c-0.8,0-1.4-0.2-2.1-0.6
		c-0.6-0.4-1.1-0.9-1.5-1.6c-0.4-0.7-0.5-1.5-0.5-2.4c0-0.9,0.2-1.7,0.5-2.4c0.4-0.7,0.9-1.2,1.5-1.6s1.3-0.6,2.1-0.6
		C136,196.4,136.6,196.5,137.1,196.7z M138,199.6c-0.2-0.4-0.5-0.7-0.9-0.9s-0.8-0.3-1.2-0.3c-0.4,0-0.8,0.1-1.2,0.3
		s-0.6,0.5-0.9,0.9c-0.2,0.4-0.3,0.9-0.3,1.4s0.1,1,0.3,1.4c0.2,0.4,0.5,0.7,0.9,0.9c0.4,0.2,0.7,0.3,1.2,0.3c0.4,0,0.8-0.1,1.2-0.3
		c0.4-0.2,0.7-0.5,0.9-0.9c0.2-0.4,0.3-0.9,0.3-1.4S138.2,200,138,199.6z"/>
	<path fill="#363636" d="M151.1,201.7h-6.6c0.1,0.6,0.3,1.2,0.7,1.5c0.4,0.4,0.9,0.6,1.5,0.6c0.8,0,1.4-0.4,1.8-1.1h2.4
		c-0.3,0.9-0.8,1.6-1.5,2.1c-0.7,0.6-1.6,0.8-2.7,0.8c-0.9,0-1.6-0.2-2.3-0.6c-0.7-0.4-1.2-0.9-1.6-1.6c-0.4-0.7-0.6-1.5-0.6-2.4
		c0-0.9,0.2-1.7,0.6-2.4c0.4-0.7,0.9-1.2,1.6-1.6c0.7-0.4,1.5-0.6,2.3-0.6c0.9,0,1.6,0.2,2.3,0.5c0.7,0.4,1.2,0.9,1.6,1.6
		c0.4,0.7,0.6,1.4,0.6,2.3C151.1,201.1,151.1,201.4,151.1,201.7z M148.8,200.1c0-0.6-0.2-1-0.6-1.4s-0.9-0.5-1.5-0.5
		c-0.6,0-1,0.2-1.4,0.5c-0.4,0.3-0.6,0.8-0.7,1.4H148.8z"/>
	<path fill="#363636" d="M154.2,205.2c-0.6-0.3-1-0.6-1.4-1.1s-0.5-1-0.6-1.5h2.3c0,0.3,0.2,0.6,0.5,0.9c0.3,0.2,0.7,0.3,1.1,0.3
		c0.4,0,0.8-0.1,1-0.3c0.2-0.2,0.4-0.4,0.4-0.7c0-0.3-0.1-0.5-0.4-0.7c-0.3-0.1-0.8-0.3-1.4-0.5c-0.7-0.2-1.2-0.3-1.6-0.5
		c-0.4-0.2-0.8-0.4-1.1-0.8s-0.5-0.8-0.5-1.4c0-0.5,0.1-1,0.4-1.4c0.3-0.4,0.7-0.7,1.2-1c0.5-0.2,1.2-0.4,1.9-0.4
		c1.1,0,1.9,0.3,2.6,0.8c0.6,0.5,1,1.3,1.1,2.2h-2.2c0-0.4-0.2-0.6-0.4-0.9c-0.3-0.2-0.6-0.3-1.1-0.3c-0.4,0-0.7,0.1-0.9,0.2
		s-0.3,0.4-0.3,0.6c0,0.3,0.2,0.5,0.5,0.7c0.3,0.2,0.8,0.3,1.4,0.5c0.6,0.2,1.2,0.3,1.6,0.5s0.8,0.4,1.1,0.8
		c0.3,0.4,0.5,0.8,0.5,1.4c0,0.5-0.1,1-0.4,1.4c-0.3,0.4-0.7,0.7-1.2,1c-0.5,0.2-1.2,0.3-1.9,0.3
		C155.5,205.6,154.8,205.5,154.2,205.2z"/>
	<path fill="#363636" d="M164.2,198.4v4.3c0,0.3,0.1,0.5,0.2,0.7c0.1,0.1,0.4,0.2,0.7,0.2h1.1v1.9h-1.4c-1.9,0-2.9-0.9-2.9-2.8v-4.3
		h-1.1v-1.9h1.1v-2.2h2.3v2.2h2v1.9H164.2z"/>
	<path fill="#363636" d="M63.3,216.8c0.5-0.3,1.1-0.4,1.8-0.4c0.8,0,1.5,0.2,2.1,0.6s1.1,0.9,1.5,1.6c0.4,0.7,0.5,1.5,0.5,2.4
		s-0.2,1.7-0.5,2.4c-0.4,0.7-0.9,1.3-1.5,1.6s-1.3,0.6-2.1,0.6c-0.7,0-1.2-0.1-1.7-0.4c-0.5-0.3-0.9-0.6-1.2-1v5.6h-2.3v-13.2h2.3
		v1.3C62.4,217.4,62.8,217.1,63.3,216.8z M66.5,219.6c-0.2-0.4-0.5-0.7-0.9-0.9s-0.8-0.3-1.2-0.3c-0.4,0-0.8,0.1-1.2,0.3
		c-0.4,0.2-0.7,0.5-0.9,0.9c-0.2,0.4-0.3,0.9-0.3,1.4s0.1,1,0.3,1.4c0.2,0.4,0.5,0.7,0.9,0.9c0.4,0.2,0.7,0.3,1.2,0.3
		c0.4,0,0.8-0.1,1.2-0.3s0.7-0.5,0.9-0.9c0.2-0.4,0.3-0.9,0.3-1.4C66.8,220.4,66.7,220,66.5,219.6z"/>
	<path fill="#363636" d="M74.2,216.8c0.5-0.3,1-0.4,1.6-0.4v2.4h-0.6c-0.7,0-1.2,0.2-1.6,0.5c-0.4,0.3-0.5,0.9-0.5,1.7v4.5h-2.3v-9
		h2.3v1.4C73.4,217.4,73.7,217.1,74.2,216.8z"/>
	<path fill="#363636" d="M79,225.1c-0.7-0.4-1.2-0.9-1.6-1.6c-0.4-0.7-0.6-1.5-0.6-2.4s0.2-1.7,0.6-2.4c0.4-0.7,1-1.2,1.7-1.6
		c0.7-0.4,1.5-0.6,2.3-0.6s1.6,0.2,2.3,0.6c0.7,0.4,1.3,0.9,1.7,1.6c0.4,0.7,0.6,1.5,0.6,2.4s-0.2,1.7-0.6,2.4
		c-0.4,0.7-1,1.2-1.7,1.6c-0.7,0.4-1.5,0.6-2.4,0.6C80.5,225.6,79.7,225.5,79,225.1z M82.5,223.4c0.4-0.2,0.7-0.5,0.9-0.9
		c0.2-0.4,0.3-0.9,0.3-1.5c0-0.9-0.2-1.5-0.7-2c-0.4-0.5-1-0.7-1.6-0.7s-1.2,0.2-1.6,0.7c-0.4,0.5-0.7,1.1-0.7,2s0.2,1.5,0.6,2
		s1,0.7,1.6,0.7C81.7,223.7,82.1,223.6,82.5,223.4z"/>
	<path fill="#363636" d="M91.1,216.8c0.5-0.3,1.1-0.4,1.8-0.4c0.8,0,1.5,0.2,2.1,0.6s1.1,0.9,1.5,1.6s0.5,1.5,0.5,2.4
		s-0.2,1.7-0.5,2.4s-0.9,1.3-1.5,1.6s-1.3,0.6-2.1,0.6c-0.7,0-1.3-0.1-1.8-0.4s-0.9-0.6-1.2-1v1.3h-2.3v-12h2.3v4.3
		C90.2,217.4,90.6,217.1,91.1,216.8z M94.3,219.6c-0.2-0.4-0.5-0.7-0.9-0.9s-0.8-0.3-1.2-0.3c-0.4,0-0.8,0.1-1.2,0.3
		c-0.4,0.2-0.7,0.5-0.9,0.9c-0.2,0.4-0.3,0.9-0.3,1.4s0.1,1,0.3,1.4c0.2,0.4,0.5,0.7,0.9,0.9c0.4,0.2,0.7,0.3,1.2,0.3
		c0.4,0,0.8-0.1,1.2-0.3s0.7-0.5,0.9-0.9c0.2-0.4,0.3-0.9,0.3-1.4C94.7,220.4,94.6,220,94.3,219.6z"/>
	<path fill="#363636" d="M100.9,213.5v12h-2.3v-12H100.9z"/>
	<path fill="#363636" d="M111.4,221.7h-6.6c0.1,0.6,0.3,1.2,0.7,1.5c0.4,0.4,0.9,0.6,1.5,0.6c0.8,0,1.4-0.4,1.8-1.1h2.4
		c-0.3,0.9-0.8,1.6-1.5,2.1c-0.7,0.6-1.6,0.8-2.7,0.8c-0.9,0-1.6-0.2-2.3-0.6c-0.7-0.4-1.2-0.9-1.6-1.6c-0.4-0.7-0.6-1.5-0.6-2.4
		c0-0.9,0.2-1.7,0.6-2.4c0.4-0.7,0.9-1.2,1.6-1.6c0.7-0.4,1.5-0.6,2.3-0.6c0.9,0,1.6,0.2,2.3,0.5c0.7,0.4,1.2,0.9,1.6,1.6
		c0.4,0.7,0.6,1.4,0.6,2.3C111.5,221.1,111.5,221.4,111.4,221.7z M109.1,220.2c0-0.6-0.2-1-0.6-1.4s-0.9-0.5-1.5-0.5
		c-0.6,0-1,0.2-1.4,0.5c-0.4,0.3-0.6,0.8-0.7,1.4H109.1z"/>
	<path fill="#363636" d="M127,217.4c0.7,0.7,1,1.6,1,2.8v5.3h-2.3v-5c0-0.7-0.2-1.2-0.5-1.6c-0.4-0.4-0.8-0.6-1.5-0.6
		s-1.1,0.2-1.5,0.6c-0.4,0.4-0.5,0.9-0.5,1.6v5h-2.3v-5c0-0.7-0.2-1.2-0.5-1.6c-0.4-0.4-0.8-0.6-1.5-0.6c-0.6,0-1.1,0.2-1.5,0.6
		c-0.4,0.4-0.5,0.9-0.5,1.6v5h-2.3v-9h2.3v1.1c0.3-0.4,0.7-0.7,1.1-0.9s1-0.3,1.5-0.3c0.7,0,1.3,0.1,1.9,0.4c0.5,0.3,1,0.7,1.3,1.3
		c0.3-0.5,0.7-0.9,1.3-1.2c0.6-0.3,1.2-0.5,1.8-0.5C125.4,216.4,126.3,216.7,127,217.4z"/>
	<path fill="#363636" d="M130.1,225.2c-0.3-0.3-0.4-0.6-0.4-0.9s0.1-0.7,0.4-0.9s0.6-0.4,1-0.4c0.4,0,0.7,0.1,1,0.4
		c0.3,0.3,0.4,0.6,0.4,0.9s-0.1,0.7-0.4,0.9c-0.3,0.3-0.6,0.4-1,0.4C130.7,225.6,130.4,225.5,130.1,225.2z"/>
</g>
<g id="_x34_Xzzig_00000002359690335582858800000011634656928024068006_">
	<g>
		<path fill="#7500D4" stroke="#F2ECEC" stroke-miterlimit="10" d="M92.9,91.6c0.4-1.6,0.8-3.1,1.1-4.6c0.6-2.2,1.8-2.5,3.5-1
			c6.3,5.7,13,11,20.1,15.6c2.9,1.9,5.9,3.6,8.9,5.3c3.8,2.1,6.2,5.3,7.6,9.4c0.3,0.9-0.1,1.9-0.9,2.2c-0.9,0.3-1.8,0-2.2-1
			c-0.8-2.1-1.8-4-3.5-5.6c-2.3-2.2-5.2-3.1-8-4.2c-0.4-0.2-1.2,0.2-1.7,0.6c-0.5,0.3-0.8,1-1.2,1.4c-2.1,2.3-5.6,2.4-7.7,0
			c-0.9-1.1-1.8-2.2-2.7-3.3c-0.6-0.8-1.4-1-2.3-0.8c-0.7,0.2-1.3,0.3-2,0.4c-1.3,0.3-1.8,1.1-1.5,2.4c0.9,3.6,2.6,6.8,5.8,9
			c1.2,0.8,2.3,1.8,2.6,3.3c0.4,1.8,0,3.4-1.5,4.7c-1.5,1.3-3.3,1.6-5.1,0.9c-1.1-0.4-2.1-1-3.2-1.5c-1.3-0.6-2.4,0.1-2.4,1.5
			c0.1,4,0.9,7.2,6.2,8.9c0-0.7-0.1-1.4,0-2c0.1-0.3,0.5-0.6,0.9-0.8c0.8-0.3,1.7,0.1,2,1c0.4,1-0.1,1.7-1.6,2.4
			c2.7,1.8,9.4,4.2,11.6,4.2c-2.1-4.1-1.8-7.3,1-9.6c2.5-2.1,6-2.1,8.6-0.1c2.7,2.1,3.2,5.3,1.4,9.2c0.5-0.2,0.8-0.3,1.1-0.5
			c4.9-2.8,7.3-8.7,5.6-14.2c-0.1-0.3-0.2-0.7-0.3-1c-0.2-1.1,0.2-1.9,1.1-2.2c0.9-0.3,1.8,0.1,2.1,1.1c0.4,1.3,0.8,2.7,0.9,4.1
			c0.7,10.2-7.2,17.9-17.4,17.2c-5.5-0.4-10.6-1.9-15.5-4.3c-1.1-0.5-2.2-1.1-3.3-1.5c-5.4-2.1-7.8-6.1-8-11.7
			c-0.1-3.7,3.4-6.4,6.9-5c1,0.4,1.8,0.9,2.8,1.3c0.4,0.2,0.8,0.4,1.2,0.3c0.5-0.1,1.1-0.5,1.3-0.9c0.2-0.4-0.1-1.2-0.4-1.5
			c-0.7-0.8-1.6-1.4-2.5-2.1c-3.2-2.7-4.8-6.4-5.6-10.4c-0.5-2.6,1.3-4.9,3.8-5.7c4-1.3,7.2-0.5,9.4,3.3c0.3,0.5,0.7,0.9,1.1,1.3
			c0.9,1,2,1,2.8,0c0.3-0.4,0.6-0.9,1-1.3c0.3-0.4,0.7-0.7,0.9-0.9c-6.4-4.9-12.9-9.8-19.4-14.7c-0.3,1.2-0.6,2.6-1,4
			c-0.5,1.8-1.5,2.3-3.1,1.3c-3.7-2.3-7.3-4.5-11.3-7c0.3,0.6,0.4,0.8,0.6,1.1c4.4,6.9,8.9,13.8,13.3,20.7c0.5,0.7,0.9,1.4,0.4,2.3
			c-0.5,0.9-1.3,0.9-2.2,0.9c-1.2,0-2.4,0-4,0c0.5,0.6,0.7,0.9,1,1.2c0.7,0.9,1.5,1.8,2.2,2.7c0.7,0.9,0.6,1.8-0.1,2.5
			c-0.7,0.6-1.8,0.5-2.5-0.3c-1.4-1.6-2.8-3.3-4.1-4.9c-0.5-0.6-1.1-1-1.4-1.6c-0.3-0.5-0.5-1.3-0.3-1.9c0.2-0.5,0.9-0.9,1.5-1
			c1.2-0.2,2.5-0.1,3.8-0.1c0.4,0,0.9,0,1.6,0c-0.3-0.5-0.5-0.9-0.8-1.2c-5.2-8.1-10.4-16.1-15.6-24.2c0,0,0-0.1-0.1-0.1
			c-0.6-0.9-1-1.8-0.2-2.7c0.9-0.9,1.8-0.5,2.7,0c2.5,1.5,4.9,3,7.4,4.6c2.4,1.5,4.9,3,7.3,4.5C92.1,91.2,92.5,91.4,92.9,91.6z
			 M121.3,138.9c1.9,0,3.5-1.5,3.5-3.4c0-1.8-1.5-3.3-3.4-3.3c-1.8,0-3.4,1.5-3.4,3.3C118,137.3,119.5,138.9,121.3,138.9z"/>
		<path fill="#7500D4" stroke="#F2ECEC" stroke-miterlimit="10" d="M74.5,99.9c-2.3-3.8-4.4-7.4-6.6-11c-0.6-1.1-1.3-2.1-2-3.2
			c-0.7-1.2-0.6-2.3,0.4-2.8c0.9-0.5,1.8-0.2,2.5,0.9c3.3,5.5,6.5,11,9.7,16.6c1.1,1.8,0.3,3.1-1.8,3c-4.7-0.4-9.5-0.9-14.2-1.3
			c-0.3,0-0.5,0-0.9,0.1c0.3,0.2,0.5,0.4,0.8,0.6c10,7,18.6,15.5,25.7,25.5c2.7,3.8,5.2,7.7,7.8,11.6c6.9,10,19.7,13.3,30.3,9.3
			c1.4-0.5,2.8-1.3,4.1-1.9c1.2-0.6,2.1-0.4,2.6,0.5c0.5,0.9,0.2,1.8-1,2.5c-10.7,6.2-24.4,5.1-33.9-3c-3.4-2.9-5.9-6.5-8.3-10.3
			c-4.9-7.9-10.5-15.2-17.2-21.6c-6.3-5.9-13.2-11-20.7-15.2c-0.2-0.1-0.5-0.3-0.7-0.4c-0.7-0.5-1.1-1.2-0.7-2.1
			c0.3-0.9,1-1.2,1.9-1c2.3,0.4,4.5,1,6.8,1.3c4.7,0.7,9.4,1.3,14,1.9C73.5,99.9,73.9,99.9,74.5,99.9z"/>
		<path fill="#7500D4" stroke="#F2ECEC" stroke-miterlimit="10" d="M86,76.6c0.7-4.1,0.4-7.9-0.7-11.7c-0.3-1.1-0.6-2.1-1-3.2
			c-0.3-1-0.1-1.8,0.8-2.3c0.9-0.4,1.7-0.1,2.3,0.6c1.9,2.3,3.7,4.6,5.8,6.8c3.8,4,7.7,8,11.7,11.9c2.3,2.2,4.9,4.2,7.3,6.4
			c1.1,1,1.3,1.8,0.6,2.6c-0.7,0.9-1.7,0.9-2.8-0.1c-3.1-2.7-6.3-5.3-9.3-8.1c-3.6-3.5-7-7.2-10.5-10.8c-0.1-0.2-0.3-0.3-0.5-0.4
			c0,1.4,0.1,2.8,0,4.1c-0.2,2.3-0.4,4.5-0.8,6.8c-0.2,1.6-1.3,2.1-2.7,1.4c-3-1.6-6-3.2-8.8-4.9c-7.6-4.7-15.2-9.5-22.8-14.2
			c-0.1,0-0.1,0-0.4-0.1c0.3,0.5,0.5,0.8,0.7,1.2c3.3,4.9,6.6,9.8,9.9,14.7c0.9,1.3,0.3,2.8-1.1,2.8c-0.6,0-1.4-0.5-1.7-1
			c-2.7-4-5.4-8-8.1-12c-2.6-3.8-5.3-7.6-8-11.4c-0.8-1.1-0.8-2-0.1-2.7c0.8-0.8,1.7-0.4,2.5,0.1c2.6,1.8,5.2,3.6,7.9,5.3
			c5.2,3.4,10.4,6.7,15.6,9.9C76,71,80.4,73.5,84.7,76C85.1,76.2,85.4,76.4,86,76.6z"/>
		<path fill="#7500D4" stroke="#F2ECEC" stroke-miterlimit="10" d="M146.8,124.7c-0.1,7.7-2.8,14.4-8,20.1c-0.4,0.5-1.1,1-1.6,1.1
			c-0.5,0.1-1.3-0.4-1.7-0.8c-0.5-0.7-0.1-1.5,0.4-2.2c1.2-1.6,2.6-3.1,3.7-4.8c3.9-6.3,4.8-13,3-20.2c-1.6-6.5-5.4-11.6-11-15.3
			c-4.7-3.1-9.4-6.2-14.1-9.4c-0.5-0.4-1.1-0.7-1.6-1.2c-0.8-0.7-0.9-1.7-0.3-2.4c0.6-0.8,1.5-0.8,2.2-0.3c2.2,1.5,4.4,3,6.6,4.5
			c3.5,2.3,7,4.5,10.4,6.9c6.5,4.7,10.3,11.2,11.6,19.1c0.2,1.1,0.3,2.2,0.4,3.3C146.8,123.7,146.8,124.2,146.8,124.7z"/>
		<path fill="#7500D4" stroke="#F2ECEC" stroke-miterlimit="10" d="M51.9,111.6c0.7,0.4,1.2,0.6,1.6,1c4.9,4.9,9.8,9.7,14.6,14.6
			c0.9,0.9,1,1.9,0.3,2.6c-0.8,0.8-1.7,0.7-2.7-0.2c-4.9-4.9-9.8-9.8-14.6-14.6c-0.6-0.6-1.1-1.3-0.6-2.1
			C50.7,112.4,51.3,112.1,51.9,111.6z"/>
		<path fill="#7500D4" stroke="#F2ECEC" stroke-miterlimit="10" d="M126.8,52.6c0.1,0.1,0.5,0.1,0.7,0.3c3.4,2.2,6.8,4.2,9.4,7.4
			c1.7,2.1,3.1,4.4,4.6,6.6c0.6,0.9,0.2,1.8-0.6,2.4c-0.8,0.5-1.8,0.2-2.3-0.8c-1.6-2.8-3.3-5.5-5.8-7.6c-2.1-1.8-4.4-3.3-6.7-5
			c-0.7-0.5-1.4-1.1-1.1-2.1C125.1,53,125.6,52.6,126.8,52.6z"/>
		<path fill="#7500D4" stroke="#F2ECEC" stroke-miterlimit="10" d="M77.3,130.5c2.6-0.1,5.1,2.2,5.2,4.9c0.1,2.7-2.1,5.1-4.9,5.3
			c-2.7,0.1-5.1-2.1-5.3-5C72.1,132.9,74.4,130.6,77.3,130.5z M75.7,135.5c0,0.8,0.7,1.6,1.6,1.7c0.9,0.1,1.8-0.7,1.8-1.7
			c0-0.9-0.8-1.7-1.7-1.7C76.5,133.8,75.7,134.6,75.7,135.5z"/>
		<path fill="#7500D4" stroke="#F2ECEC" stroke-miterlimit="10" d="M118,71.1c-2.8,0-5.1-2.3-5.1-5.1c0-2.7,2.3-5,5-5
			c2.9,0,5.2,2.3,5.2,5.1C123.1,68.9,120.8,71.1,118,71.1z M118,67.7c1,0,1.6-0.7,1.6-1.7c0-0.9-0.7-1.7-1.7-1.6
			c-0.9,0-1.6,0.7-1.6,1.7C116.3,67,117.1,67.7,118,67.7z"/>
		<path fill="#7500D4" stroke="#F2ECEC" stroke-miterlimit="10" d="M133.3,76.2c0-2.8,2.3-5,5-5c2.9,0,5.2,2.3,5.1,5.1
			c0,2.8-2.3,5-5.1,5C135.5,81.3,133.3,79,133.3,76.2z M138.3,74.6c-0.9,0-1.6,0.7-1.6,1.6c0,1,0.7,1.8,1.6,1.8
			c0.9,0,1.6-0.7,1.6-1.6C140,75.3,139.3,74.6,138.3,74.6z"/>
		<path fill="#7500D4" stroke="#F2ECEC" stroke-miterlimit="10" d="M116.3,118.5c0-2.8,2.3-5,5-5c2.9,0,5.2,2.3,5.1,5.1
			c0,2.8-2.3,5-5.1,5C118.6,123.7,116.3,121.4,116.3,118.5z M121.4,120.3c0.9,0,1.6-0.8,1.6-1.7c0-1-0.8-1.7-1.7-1.6
			c-0.9,0-1.6,0.8-1.6,1.7C119.8,119.6,120.5,120.3,121.4,120.3z"/>
		<path fill="#7500D4" stroke="#F2ECEC" stroke-miterlimit="10" d="M65.6,138.9c-2.9-0.6-5.3-1.8-7.5-3.4c-2.9-2.1-4.8-5.1-6.7-8
			c-0.2-0.4-0.5-0.8-0.8-1.1c-0.6-0.9-0.5-1.8,0.4-2.4c0.7-0.6,1.8-0.4,2.4,0.5c1.1,1.6,2.2,3.3,3.3,4.9c2.2,3,5.1,5.1,8.7,6
			c1.7,0.5,2.3,1.9,1.2,2.9C66.3,138.7,65.8,138.8,65.6,138.9z"/>
		<path fill="#7500D4" stroke="#F2ECEC" stroke-miterlimit="10" d="M63.9,90c-0.4,0.4-0.8,1-1.3,1.3c-0.8,0.4-1.6,0-2.1-0.7
			c-0.9-1.3-1.8-2.6-2.6-4c-2.4-3.6-4.8-7.2-7.2-10.9c-0.7-1.1-0.7-1.9,0.3-2.6c0.8-0.6,1.8-0.3,2.5,0.7c3.3,4.9,6.6,9.8,9.8,14.7
			C63.6,88.9,63.7,89.4,63.9,90z"/>
		<path fill="#7500D4" stroke="#F2ECEC" stroke-miterlimit="10" d="M91,153.1c-4.9-0.1-8.7-0.8-12.4-2.4c-1.1-0.5-1.5-1.2-1.1-2.1
			c0.3-1,1.2-1.4,2.3-1c3.9,1.5,8,2.3,12.2,2c1-0.1,2-0.2,2.9-0.3c0.5-0.1,1.1-0.2,1.6,0c0.8,0.2,1.2,0.9,1.1,1.8
			c-0.1,1-0.9,1.4-1.7,1.5C93.9,152.8,92,152.9,91,153.1z"/>
		<path fill="#7500D4" stroke="#F2ECEC" stroke-miterlimit="10" d="M80.7,66.1c0,1.2-1.1,1.9-2.5,1.5c-3.3-0.9-6.4-2.3-9.1-4.4
			c-1.6-1.3-3.1-2.7-4.6-4.1c-0.9-0.9-1-1.9-0.2-2.6c0.8-0.8,1.7-0.7,2.7,0.2c2.6,2.7,5.5,5.1,9,6.5c1.1,0.5,2.3,0.8,3.4,1.2
			C80.2,64.7,80.7,65.2,80.7,66.1z"/>
		<path fill="#7500D4" stroke="#F2ECEC" stroke-miterlimit="10" d="M141.7,98.1c-0.1,0.9-0.5,1.7-1.5,1.8c-1,0.1-1.7-0.4-1.9-1.4
			c-0.9-4.2-2.8-7.8-5.9-10.7c-0.6-0.6-1.3-1.1-2-1.7c-0.7-0.7-0.8-1.4-0.3-2.2c0.6-0.8,1.6-1,2.4-0.3c4.7,3.6,7.7,8.4,9,14.2
			C141.6,97.8,141.6,97.9,141.7,98.1z"/>
		<path fill="#7500D4" stroke="#F2ECEC" stroke-miterlimit="10" d="M124.9,86.5c-0.5,0.5-0.8,1.1-1.2,1.3c-0.5,0.2-1.2,0.1-1.7-0.2
			c-0.9-0.6-1.7-1.4-2.6-2.1c-3-2.6-6-5.2-9-7.8c-1-0.9-1.1-1.8-0.5-2.6c0.7-0.8,1.6-0.9,2.6,0c3.8,3.2,7.6,6.5,11.4,9.8
			C124.4,85.3,124.6,85.9,124.9,86.5z"/>
		<path fill="#7500D4" stroke="#F2ECEC" stroke-miterlimit="10" d="M94.7,55.9c0.2,0.2,0.8,0.5,1.1,1c1.8,2.7,3.5,5.4,5.3,8.1
			c0.7,1.1,1.7,2,2.6,3c0.8,0.9,0.9,1.9,0.2,2.6c-0.7,0.6-1.9,0.6-2.6-0.3c-2-2.4-3.9-4.7-5.7-7.2c-1.1-1.5-1.9-3.1-2.7-4.7
			C92.2,57.2,93,55.9,94.7,55.9z"/>
		<path fill="#7500D4" stroke="#F2ECEC" stroke-miterlimit="10" d="M57.1,95.2c-1.9-0.8-3.6-1.4-5.1-2.3c-2.9-1.7-5-4.1-6.5-7.1
			c-0.4-0.7-0.6-1.6,0.2-2.2c0.5-0.3,1.2-0.5,1.8-0.4c0.4,0,0.8,0.6,1,1c1.6,3,3.8,5.3,7,6.6c0.7,0.3,1.5,0.5,2.2,0.8
			c0.8,0.4,1.3,1.1,0.9,1.9C58.3,94.2,57.7,94.6,57.1,95.2z"/>
		<path fill="#7500D4" stroke="#F2ECEC" stroke-miterlimit="10" d="M62.1,115.5c0-1.7,1.5-2.5,2.6-1.6c1.8,1.4,3.6,2.8,5.2,4.4
			c1.3,1.3,2.3,2.8,3.4,4.2c0.8,1,0.7,1.8-0.2,2.5c-0.8,0.6-1.8,0.5-2.5-0.5c-2.2-3-4.7-5.6-7.8-7.8
			C62.5,116.4,62.3,115.7,62.1,115.5z"/>
		<path fill="#7500D4" stroke="#F2ECEC" stroke-miterlimit="10" d="M72.2,52.6c3.7,0.7,7.3,1.6,9.5,5c0.2,0.3,0.4,0.7,0.5,1
			c0.4,0.9,0.1,1.8-0.7,2.2c-0.9,0.4-1.7,0.2-2.2-0.6c-1.3-2.3-3.3-3.4-5.8-3.9c-0.6-0.1-1.3-0.3-1.9-0.5c-0.8-0.3-1.2-1-1-1.8
			C70.8,53.1,71.4,52.6,72.2,52.6z"/>
		<path fill="#7500D4" stroke="#F2ECEC" stroke-miterlimit="10" d="M102.7,52.3c0.7,0.4,1.2,0.6,1.6,1c2.1,2,4.1,4.1,6.1,6.1
			c1,1,1,2,0.2,2.7c-0.7,0.7-1.7,0.6-2.6-0.3c-2.1-2.1-4.2-4.1-6.2-6.2c-0.6-0.6-1-1.3-0.5-2.1C101.6,53.1,102.2,52.8,102.7,52.3z"
			/>
		<path fill="#7500D4" stroke="#F2ECEC" stroke-miterlimit="10" d="M133.3,69.7c-0.2,0.3-0.5,1-0.9,1.1c-0.5,0.2-1.4,0.3-1.8,0
			c-1.4-1.1-2.6-2.4-3.8-3.7c-0.5-0.6-0.5-1.5,0.1-2c0.5-0.4,1.5-0.8,1.8-0.5c1.6,1.3,3,2.9,4.5,4.3C133.2,69,133.2,69.3,133.3,69.7
			z"/>
		<path fill="#7500D4" stroke="#F2ECEC" stroke-miterlimit="10" d="M84.1,140.3c1.7,0.9,3.3,1.7,4.7,2.7c0.3,0.2,0.3,1.5,0,1.9
			c-0.3,0.4-1.3,0.8-1.8,0.6c-1.3-0.4-2.6-1.2-3.8-1.9c-0.7-0.4-1-1.2-0.6-2C82.9,141.2,83.5,140.8,84.1,140.3z"/>
		<path fill="#7500D4" stroke="#F2ECEC" stroke-miterlimit="10" d="M109.6,118.6c-0.9,0-1.7-0.8-1.7-1.7c0-0.9,0.7-1.7,1.6-1.7
			c0.9,0,1.7,0.8,1.7,1.6C111.2,117.8,110.4,118.6,109.6,118.6z"/>
		<path fill="#7500D4" stroke="#F2ECEC" stroke-miterlimit="10" d="M112.9,128.8c0,0.9-0.8,1.6-1.7,1.6c-0.9,0-1.7-0.8-1.6-1.7
			c0-0.9,0.8-1.6,1.7-1.6C112.2,127.1,112.9,127.9,112.9,128.8z"/>
		<path fill="#7500D4" stroke="#F2ECEC" stroke-miterlimit="10" d="M131.5,127c0,0.9-0.7,1.7-1.6,1.7c-0.9,0-1.7-0.7-1.7-1.6
			c0-0.9,0.7-1.7,1.6-1.7C130.7,125.3,131.5,126.1,131.5,127z"/>
		<path fill="#7500D4" stroke="#F2ECEC" stroke-miterlimit="10" d="M73.9,149.1c-0.9,0-1.7-0.9-1.6-1.7c0-0.9,0.9-1.7,1.7-1.6
			c0.9,0,1.6,0.8,1.6,1.7C75.6,148.3,74.8,149.1,73.9,149.1z"/>
		<path fill="#7500D4" stroke="#F2ECEC" stroke-miterlimit="10" d="M128.2,79.7c0,0.9-0.9,1.7-1.7,1.7c-0.9,0-1.7-0.8-1.7-1.7
			c0-0.9,0.8-1.7,1.7-1.7C127.3,78,128.2,78.8,128.2,79.7z"/>
	</g>
</g>
</svg>
