<?xml version="1.0" encoding="utf-8"?>
<!-- Generator: Adobe Illustrator 26.3.1, SVG Export Plug-In . SVG Version: 6.00 Build 0)  -->
<svg version="1.1" baseProfile="tiny" id="Layer_1" xmlns="http://www.w3.org/2000/svg" xmlns:xlink="http://www.w3.org/1999/xlink"
	 x="0px" y="0px" width="191px" height="268px" viewBox="0 0 191 268" overflow="visible" xml:space="preserve">
<rect fill="#F2ECEC" width="191" height="268"/>
<g>
	<path fill="#363636" d="M38.4,194.2v11.4h-2.3v-11.4H38.4z"/>
	<path fill="#363636" d="M43.3,198.4v4.4c0,0.3,0.1,0.5,0.2,0.7c0.1,0.1,0.4,0.2,0.7,0.2h1.1v1.9h-1.4c-1.9,0-2.9-0.9-2.9-2.8v-4.4
		h-1.1v-1.9H41v-2.2h2.3v2.2h2v1.9H43.3z"/>
	<path fill="#363636" d="M47.4,194.2h2.4l-1.8,4.1h-1.6L47.4,194.2z"/>
	<path fill="#363636" d="M52.9,205.3c-0.6-0.3-1.1-0.6-1.4-1.1c-0.3-0.5-0.5-1-0.6-1.5h2.3c0,0.3,0.2,0.6,0.5,0.9
		c0.3,0.2,0.7,0.3,1.1,0.3c0.4,0,0.8-0.1,1-0.3s0.4-0.4,0.4-0.7c0-0.3-0.1-0.5-0.4-0.7s-0.8-0.3-1.4-0.5c-0.7-0.2-1.2-0.3-1.7-0.5
		c-0.4-0.2-0.8-0.4-1.1-0.8c-0.3-0.4-0.5-0.8-0.5-1.5c0-0.5,0.1-1,0.4-1.4c0.3-0.4,0.7-0.7,1.2-1c0.5-0.2,1.2-0.4,1.9-0.4
		c1.1,0,1.9,0.3,2.6,0.8s1,1.3,1.1,2.2h-2.2c0-0.4-0.2-0.6-0.4-0.9s-0.6-0.3-1.1-0.3c-0.4,0-0.7,0.1-1,0.2c-0.2,0.2-0.3,0.4-0.3,0.6
		c0,0.3,0.2,0.5,0.5,0.7c0.3,0.2,0.8,0.3,1.4,0.5c0.7,0.2,1.2,0.3,1.6,0.5c0.4,0.2,0.8,0.4,1.1,0.8s0.5,0.8,0.5,1.4
		c0,0.5-0.1,1-0.4,1.4s-0.7,0.7-1.2,1c-0.5,0.2-1.2,0.4-1.9,0.4C54.2,205.7,53.5,205.6,52.9,205.3z"/>
	<path fill="#363636" d="M66.9,198.4v4.4c0,0.3,0.1,0.5,0.2,0.7c0.1,0.1,0.4,0.2,0.7,0.2h1.1v1.9h-1.4c-1.9,0-2.9-0.9-2.9-2.8v-4.4
		h-1.1v-1.9h1.1v-2.2h2.3v2.2h2v1.9H66.9z"/>
	<path fill="#363636" d="M77.5,196.9c0.5,0.3,0.9,0.7,1.2,1.3c0.3,0.6,0.4,1.3,0.4,2.1v5.3h-2.3v-5c0-0.7-0.2-1.3-0.5-1.7
		c-0.4-0.4-0.8-0.6-1.5-0.6c-0.6,0-1.1,0.2-1.5,0.6s-0.5,0.9-0.5,1.7v5h-2.3v-12.1h2.3v4.2c0.3-0.4,0.7-0.7,1.2-0.9s1-0.3,1.6-0.3
		C76.3,196.4,77,196.6,77.5,196.9z"/>
	<path fill="#363636" d="M89.7,201.8h-6.6c0.1,0.7,0.3,1.2,0.7,1.5c0.4,0.4,0.9,0.6,1.5,0.6c0.8,0,1.5-0.4,1.8-1.1h2.5
		c-0.3,0.9-0.8,1.6-1.5,2.1c-0.7,0.6-1.6,0.8-2.7,0.8c-0.9,0-1.6-0.2-2.3-0.6c-0.7-0.4-1.2-0.9-1.6-1.6c-0.4-0.7-0.6-1.5-0.6-2.4
		c0-0.9,0.2-1.8,0.6-2.5c0.4-0.7,0.9-1.3,1.6-1.6c0.7-0.4,1.5-0.6,2.4-0.6c0.9,0,1.6,0.2,2.3,0.6s1.2,0.9,1.6,1.6
		c0.4,0.7,0.6,1.5,0.6,2.3C89.8,201.2,89.7,201.5,89.7,201.8z M87.4,200.2c0-0.6-0.2-1.1-0.6-1.4c-0.4-0.4-0.9-0.5-1.5-0.5
		c-0.6,0-1,0.2-1.4,0.5c-0.4,0.3-0.6,0.8-0.7,1.4H87.4z"/>
	<path fill="#363636" d="M98.8,196.8c0.5-0.3,1.1-0.4,1.8-0.4c0.8,0,1.5,0.2,2.1,0.6c0.6,0.4,1.1,0.9,1.5,1.6
		c0.4,0.7,0.5,1.5,0.5,2.4s-0.2,1.7-0.5,2.5c-0.4,0.7-0.9,1.3-1.5,1.7s-1.3,0.6-2.1,0.6c-0.7,0-1.2-0.1-1.8-0.4s-0.9-0.6-1.2-1v5.6
		h-2.3v-13.3h2.3v1.3C97.9,197.4,98.3,197.1,98.8,196.8z M102,199.6c-0.2-0.4-0.5-0.7-0.9-0.9c-0.4-0.2-0.8-0.3-1.2-0.3
		c-0.4,0-0.8,0.1-1.2,0.3c-0.4,0.2-0.7,0.5-0.9,0.9c-0.2,0.4-0.3,0.9-0.3,1.4c0,0.5,0.1,1,0.3,1.4s0.5,0.7,0.9,0.9
		c0.4,0.2,0.8,0.3,1.2,0.3c0.4,0,0.8-0.1,1.2-0.3c0.4-0.2,0.7-0.5,0.9-0.9c0.2-0.4,0.3-0.9,0.3-1.4C102.4,200.5,102.2,200,102,199.6
		z"/>
	<path fill="#363636" d="M114.7,201.8h-6.6c0.1,0.7,0.3,1.2,0.7,1.5c0.4,0.4,0.9,0.6,1.5,0.6c0.8,0,1.5-0.4,1.8-1.1h2.5
		c-0.3,0.9-0.8,1.6-1.5,2.1c-0.7,0.6-1.6,0.8-2.7,0.8c-0.9,0-1.7-0.2-2.3-0.6c-0.7-0.4-1.2-0.9-1.6-1.6c-0.4-0.7-0.6-1.5-0.6-2.4
		c0-0.9,0.2-1.8,0.6-2.5c0.4-0.7,0.9-1.3,1.6-1.6c0.7-0.4,1.5-0.6,2.4-0.6c0.9,0,1.6,0.2,2.3,0.6c0.7,0.4,1.2,0.9,1.6,1.6
		c0.4,0.7,0.6,1.5,0.6,2.3C114.8,201.2,114.7,201.5,114.7,201.8z M112.4,200.2c0-0.6-0.2-1.1-0.6-1.4c-0.4-0.4-0.9-0.5-1.5-0.5
		c-0.6,0-1,0.2-1.4,0.5c-0.4,0.3-0.6,0.8-0.7,1.4H112.4z"/>
	<path fill="#363636" d="M118.1,205.2c-0.7-0.4-1.2-0.9-1.6-1.6c-0.4-0.7-0.6-1.5-0.6-2.4c0-0.9,0.2-1.7,0.6-2.4
		c0.4-0.7,1-1.3,1.7-1.6c0.7-0.4,1.5-0.6,2.4-0.6s1.7,0.2,2.4,0.6c0.7,0.4,1.3,0.9,1.7,1.6c0.4,0.7,0.6,1.5,0.6,2.4
		c0,0.9-0.2,1.7-0.6,2.4c-0.4,0.7-1,1.3-1.7,1.6c-0.7,0.4-1.5,0.6-2.4,0.6C119.6,205.7,118.8,205.5,118.1,205.2z M121.6,203.4
		c0.4-0.2,0.7-0.5,0.9-0.9c0.2-0.4,0.3-0.9,0.3-1.5c0-0.9-0.2-1.5-0.7-2s-1-0.7-1.7-0.7s-1.2,0.2-1.6,0.7c-0.4,0.5-0.7,1.1-0.7,2
		c0,0.9,0.2,1.5,0.6,2c0.4,0.5,1,0.7,1.6,0.7C120.8,203.7,121.2,203.6,121.6,203.4z"/>
	<path fill="#363636" d="M130.3,196.8c0.5-0.3,1.1-0.4,1.8-0.4c0.8,0,1.5,0.2,2.1,0.6c0.6,0.4,1.1,0.9,1.5,1.6s0.5,1.5,0.5,2.4
		s-0.2,1.7-0.5,2.5s-0.9,1.3-1.5,1.7s-1.3,0.6-2.1,0.6c-0.7,0-1.2-0.1-1.8-0.4s-0.9-0.6-1.2-1v5.6h-2.3v-13.3h2.3v1.3
		C129.4,197.4,129.8,197.1,130.3,196.8z M133.5,199.6c-0.2-0.4-0.5-0.7-0.9-0.9c-0.4-0.2-0.8-0.3-1.2-0.3c-0.4,0-0.8,0.1-1.2,0.3
		s-0.7,0.5-0.9,0.9c-0.2,0.4-0.3,0.9-0.3,1.4c0,0.5,0.1,1,0.3,1.4c0.2,0.4,0.5,0.7,0.9,0.9c0.4,0.2,0.8,0.3,1.2,0.3
		c0.4,0,0.8-0.1,1.2-0.3c0.4-0.2,0.7-0.5,0.9-0.9c0.2-0.4,0.3-0.9,0.3-1.4C133.9,200.5,133.8,200,133.5,199.6z"/>
	<path fill="#363636" d="M140.2,193.5v12.1h-2.3v-12.1H140.2z"/>
	<path fill="#363636" d="M150.7,201.8h-6.6c0.1,0.7,0.3,1.2,0.7,1.5c0.4,0.4,0.9,0.6,1.5,0.6c0.8,0,1.5-0.4,1.8-1.1h2.5
		c-0.3,0.9-0.8,1.6-1.5,2.1c-0.7,0.6-1.6,0.8-2.7,0.8c-0.9,0-1.7-0.2-2.3-0.6c-0.7-0.4-1.2-0.9-1.6-1.6c-0.4-0.7-0.6-1.5-0.6-2.4
		c0-0.9,0.2-1.8,0.6-2.5c0.4-0.7,0.9-1.3,1.6-1.6c0.7-0.4,1.5-0.6,2.4-0.6c0.9,0,1.6,0.2,2.3,0.6c0.7,0.4,1.2,0.9,1.6,1.6
		c0.4,0.7,0.6,1.5,0.6,2.3C150.8,201.2,150.8,201.5,150.7,201.8z M148.4,200.2c0-0.6-0.2-1.1-0.6-1.4c-0.4-0.4-0.9-0.5-1.5-0.5
		c-0.6,0-1,0.2-1.4,0.5c-0.4,0.3-0.6,0.8-0.7,1.4H148.4z"/>
	<path fill="#363636" d="M152.5,205.3c-0.3-0.3-0.4-0.6-0.4-1c0-0.4,0.1-0.7,0.4-1c0.3-0.3,0.6-0.4,1-0.4c0.4,0,0.7,0.1,1,0.4
		c0.3,0.3,0.4,0.6,0.4,1c0,0.4-0.1,0.7-0.4,1c-0.3,0.3-0.6,0.4-1,0.4C153.1,205.7,152.7,205.6,152.5,205.3z"/>
</g>
<g id="vvIMgW_00000140730648895028377090000011150462823533829036_">
	<g>
		<path fill="#7500D4" d="M52.9,89.3c-2.5-2.1-3.6-5-4.8-7.7c-0.6-1.3-0.2-2.5,1-2.8c1-0.3,1.7,0.1,2.1,1c0.6,1.2,1.1,2.4,1.7,3.6
			c2.3,4.7,7.3,6.6,12,4.5c3.4-1.5,6.7-3.1,10-4.7c3.8-1.8,5.7-6.1,4.7-10c-0.9,0.4-1.8,0.7-2.6,1.2c-4.2,2.3-8.4,3-12.9,0.8
			c-1.1,1.6-2.5,2.7-4.4,3.1c-3.3,0.6-6.5-1.5-7.2-4.8c-0.8-3.2,1.1-6.5,4.3-7.4c0.8-0.2,1.2-0.6,1.5-1.3c0.5-1.4,1.6-2.2,2.9-2.8
			c3.3-1.5,6.6-3.1,9.9-4.6c0.3-0.2,0.6-0.3,0.9-0.5c-1.9-3.1-6.5-4.6-10.2-3c-3.8,1.6-7.5,3.3-11.1,5.2c-4,2.1-5.6,7-3.9,11.2
			c0.4,1.1,1,2.1,1.4,3.2c0.4,1,0,1.8-0.9,2.2C46.4,76,45.5,75.8,45,75c-2.3-4-3.5-8.1-1.8-12.6c1.2-3.2,3.4-5.5,6.4-7
			c3.3-1.6,6.6-3.1,9.9-4.6c6.5-2.8,13.5-0.3,16.7,6.1c0.4,0.8,0.8,1.7,1.4,3c0.2-0.5,0.3-0.8,0.5-1c2.8-2.9,7.1-3.2,9.9-0.4
			c4.2,4,8.4,8.1,12.3,12.4c3.7,4,3.5,10.1-0.2,14.2c-1.7,1.9-3.6,3.6-5.4,5.5c-0.3,0.3-0.4,0.6-0.5,1.2c2.1-2.1,4.4-3.6,7.5-3.2
			c3.1,0.5,5.1,2.4,6,5.2c2-0.2,3.9-0.6,5.8-0.5c7,0.2,12.2,3.4,15.6,9.5c1.3,2.3,2.3,4.8,3.4,7.2c0.6,1.2,0.3,2.2-0.7,2.7
			c-1,0.5-2,0.1-2.6-1.2c-1.1-2.3-2.2-4.7-3.3-7.1c-3.3,2-6.7,2.4-10.2,1c-3.5-1.5-5.6-4.2-6.5-7.9c-0.9,0.2-1.7,0.4-2.1,1.4
			c-0.3,0.8-0.9,1.5-1.5,2.1c-3.7,3.8-7.5,7.5-11.3,11.3c-4.2,4.1-10.6,4.3-14.9,0.3c-2.8-2.6-5.4-5.3-8-8c-0.3-0.3-0.5-0.5-0.7-0.9
			c-0.5-0.9-0.5-1.7,0.3-2.4c0.7-0.6,1.8-0.5,2.5,0.2c2.6,2.6,5.2,5.3,7.9,7.9c3.1,3.1,7.3,3.2,10.4,0.2c2.4-2.3,4.7-4.6,7-6.9
			c0.2-0.2,0.3-0.3,0.4-0.4c-1.7-1.7-3.3-3.4-5.1-5.1c-1.8,1.8-3.6,3.7-5.5,5.5c-1.6,1.6-2.2,1.5-3.8,0c-1.8-1.8-3.6-3.6-5.4-5.4
			c-1.6-1.6-3.2-1.8-5.1-0.5c-1.1,0.8-2.1,0.7-2.8-0.3c-0.6-0.8-0.4-1.8,0.6-2.7c2.7-2.3,6.9-2,9.5,0.5c1.7,1.6,3.3,3.3,5.1,5.1
			c1.5-1.5,3.1-3,4.5-4.6c0.3-0.3-0.1-1.1-0.2-1.9c-1.3,0.6-2.4,1.1-3.4,1.6c-2.8,1.3-5.6,0.6-7.1-1.8c-1.5-2.3-1.1-5.1,1.1-7.2
			c0.1-0.1,0.1-0.2,0.1-0.6c-1.3,0.3-2.8,0.4-4,1c-4.5,2-9.1,4.1-13.5,6.3c-4.1,2-5.9,7-4.2,11.3c0.6,1.5,1.4,3,2.1,4.5
			c0.6,1.3,0.3,2.3-0.6,2.7c-1,0.5-2,0.1-2.6-1.2c-0.3-0.6-0.6-1.2-0.8-1.6c-0.6,0.5-1.2,1.1-1.9,1.5c-2.1,1.1-4.2,2-6.4,3
			c-0.4,0.2-0.7,0.4-1.1,0.6c0.5,1.1,1,2.1,1.5,3.2c1-0.5,2-0.9,2.9-1.3c1.2-0.5,2.2-0.2,2.7,0.7c0.5,1,0.1,1.9-1.2,2.5
			c-0.9,0.5-1.9,0.9-2.9,1.4c1.3,2.8,2.6,5.6,3.9,8.3c0.4,0.8,1.1,1.1,2,0.8c3.2-1.4,6.5-2.9,9.9-4.5c-2.6-2.1-4.1-4.7-5.3-7.4
			c-0.5-1.3-0.3-2.2,0.7-2.7c1-0.5,1.9,0,2.6,1.1c1.1,1.8,2,3.9,3.4,5.4c3.8,3.9,8.5,4.8,13.5,2.8c5.9-2.4,11.5-5.3,17.3-8
			c3.6-1.7,7.2-3.4,10.8-5c3.2-1.4,6.1-0.4,7.6,2.8c1.2,2.5,2.3,5,3.5,7.5c0,0.1,0.1,0.1,0.2,0.3c0.3-0.1,0.6-0.2,0.9-0.4
			c3.3-1.5,6.6-3.1,9.9-4.6c5.3-2.4,10.3-0.6,12.7,4.7c0.4,0.8,0.7,1.5,1.1,2.3c0.7,1.5,0.4,2.3-1.1,3c-4.5,2.1-9.1,4.2-13.6,6.4
			c-1.7,0.8-3.4,1.6-5.1,2.4c-1.5,0.7-2.3,0.4-3-1.1c-2.8-6-5.6-11.9-8.4-17.9c-0.2-0.4-0.3-0.7-0.5-1.1c-0.6-1.1-1.4-1.4-2.5-0.9
			c-0.6,0.3-1.2,0.6-1.8,0.8c0.9,1.7,1.8,3.2,2.5,4.9c1.5,3.4,1.3,6.9,1,10.5c-0.4,3.4-0.6,6.8-0.9,10.1c1.1,0.6,2.1,1.1,3,1.8
			c2.2,1.7,3.4,4,3.4,6.8c0,1.4-0.2,2.7-0.3,4.1c-0.1,1.6-0.8,2.2-2.4,2.1c-5-0.4-9.9-0.9-14.9-1.3c-2-0.2-4-0.4-6-0.6
			c-1.3-0.1-2-0.9-1.9-1.9c0.1-1.1,1-1.7,2.3-1.6c6.1,0.5,12.2,1.1,18.3,1.6c0.3,0,0.6,0,1,0c1.3-3.4-0.7-7-4.3-7.5
			c-4.1-0.5-8.1-0.7-12.2-1.1c-0.2,0-0.3,0-0.6,0.1c-0.1,0.5-0.1,1-0.2,1.6c-0.1,1.4-0.8,2.2-1.9,2.1c-1.2-0.1-1.8-1-1.7-2.5
			c0.4-4.5,0.8-9,1.2-13.6c0.2-2-0.2-2.5-2.2-2.7c-2.9-0.3-5.8-0.6-8.7-0.8c-0.5,0-0.9,0.2-1.4,0.3c-3.8,1.4-7.6,1.4-11.4,0
			c-0.7-0.3-1.3-0.2-2.1,0.1c-3.4,1.6-6.7,3.2-10.1,4.7c-3.3,1.5-6.3,0.5-7.8-2.8c-4.2-8.9-8.3-17.8-12.5-26.7
			c-1.6-3.5-0.6-6.3,2.9-8c3-1.4,5.9-2.8,8.9-4.1C52.1,89.7,52.4,89.5,52.9,89.3z M91.7,123.2c0,0.1,0.1,0.2,0.1,0.2
			c1,0.1,2,0.2,3,0.3c2.9,0.3,5,2.6,4.9,5.5c0,0.8-0.1,1.6-0.2,2.4c-0.2,2.3-0.4,4.6-0.6,6.9c3.6,0.3,7.1,0.6,10.7,0.9
			c0.3-4,0.7-7.8,1-11.7c-5.1-1.1-8.1-4.2-9.2-9.2C98.1,120.1,94.9,121.6,91.7,123.2z M92.8,87.4c1.3-1.4,2.8-2.8,4.3-4.3
			c0.3-0.3,0.6-0.6,0.9-1c2-2.6,2.1-6.3-0.1-8.6c-2.6-2.8-5.6-5.4-8.3-8c-1.4,1.5-3.1,3.1-4.8,4.9c1.8,1.8,3.8,3.7,5.7,5.6
			c1.5,1.5,1.5,2.2,0,3.7c-1,1-2.1,1.9-2.9,2.7C89.3,84.1,91,85.7,92.8,87.4z M73.7,60c-3.9,1.8-7.7,3.6-11.4,5.4
			c-0.4,0.2-0.8,0.4-1.2,0.7c0.2,0.1,0.4,0.1,0.6,0.2c0.9,1.3,2.2,2.5,2.6,3.9c0.5,1.4,1.3,2.1,2.5,2.3c1.5,0.2,3.1,0.6,4.5,0.2
			c2.3-0.6,4.6-1.8,6.9-2.7C76.8,66.5,75.3,63.3,73.7,60z M142.8,123.1c-1.2-4.2-4.5-5.8-8.4-4c-2.9,1.3-5.7,2.7-8.6,4
			c-0.7,0.3-1.4,0.7-2.2,1.1c1,2.2,2,4.3,3,6.5C132,128.1,137.3,125.6,142.8,123.1z M59,92c-1.1-0.1-2-0.5-2.7-0.2
			c-4.2,1.8-8.3,3.8-12.4,5.7c-0.8,0.4-1.3,1.1-1,2c0.4,1.2,1,2.4,1.6,3.7c2.6-1.2,5-2.3,7.4-3.4c1.9-0.9,2.6-0.7,3.5,1.3
			c0.3,0.6,0.6,1.2,0.9,1.8C55.6,98.9,56.4,95.4,59,92z M123.9,101.1c-3-3-6.5-4.5-10.7-4.5C114.1,101.6,120,104,123.9,101.1z
			 M81.9,67.3c1.7-1.7,3.4-3.4,5-5c-1.9-2.4-4.3-2.8-6.1-1.1C79.1,63,79.5,65.2,81.9,67.3z M97.3,94.2c1.7,1.7,3.4,3.4,5,5
			c1.4-1.1,2.6-2.4,2.2-4.5c-0.3-1.4-1.2-2.4-2.7-2.7C99.7,91.6,98.5,92.8,97.3,94.2z M54,106.7c-0.6-1.2-1.1-2.2-1.6-3.2
			c-2.2,1-4.3,2-6.5,3c0.5,1.1,1,2.1,1.5,3.2C49.6,108.7,51.7,107.7,54,106.7z M107,116c-0.4,0.2-0.8,0.3-1.2,0.6
			c-0.3,0.2-0.7,0.6-0.7,0.9c0.1,3,2.5,5.7,5.4,6.4C110.7,121.7,109,118,107,116z M55.9,72.1c0,1.5,1.3,2.7,2.8,2.6
			c1.4,0,2.6-1.3,2.6-2.7c0-1.5-1.2-2.7-2.7-2.7C57,69.4,55.8,70.6,55.9,72.1z M89.6,89.7c-0.7-0.9-1.3-1.6-2-2.2
			c-0.3-0.2-0.9-0.3-1.2-0.2c-0.7,0.2-1.3,0.6-2,0.9c-0.9,0.5-1.2,1.6-0.7,2.4c0.5,0.9,1.3,1.2,2.3,0.8
			C87.1,90.8,88.3,90.3,89.6,89.7z M83.8,74.5c-0.5,2.2-1,4.5-1.5,7c0.3,0,1,0.1,1.4-0.2c1.3-1.1,2.4-2.3,3.5-3.4
			C85.9,76.6,84.8,75.5,83.8,74.5z"/>
		<path fill="#7500D4" d="M137,59.2c0.3,1,0.6,1.7,0.8,2.5c0.6,1.7,0.1,2.6-1.7,3c-1.7,0.4-3.4,0.7-5.1,1c-0.4,0.1-0.8,0.2-1.3,0.3
			c0.3,0.9,0.5,1.6,0.8,2.4c0.7,2.1,0.5,2.6-1.5,3.7c-0.2,0.1-0.5,0.3-0.7,0.4c0.9,1.5,2.1,2.9,2.4,4.5c0.3,1.6-0.2,3.3-0.5,5.3
			c1.3-0.4,2.4-0.8,3.5-1.2c0.6-0.2,1.2-0.6,1.8-0.7c1-0.3,1.8,0.1,2.1,1.1c0.4,0.9,0.1,1.7-0.8,2.2c-3.3,1.9-6.9,2.7-10.7,2.5
			c-5-0.3-9.3-2.1-12.8-5.7c-4.3-4.3-6.4-9.6-5.8-15.7c0.7-7.2,4.3-12.7,10.7-16c9.6-4.9,21.3-1.2,26.2,8.2c3.8,7.2,3.2,14.2-1.2,21
			c-0.6,0.9-1.3,1.5-2.4,1c-1.1-0.5-1.5-1.6-0.8-2.7c1.3-2,2.4-4,2.9-6.3c0.8-3.5,0.4-6.8-1-10.1c-0.1-0.3-0.5-0.6-0.8-0.6
			C139.9,59.2,138.5,59.2,137,59.2z M120.2,81.1c1.7,0.5,2.9,0.9,4.2,1.2c1.9,0.4,1.9,0.4,2.2-1.5c0.1-0.6,0.1-1.2,0.3-1.8
			c0.3-0.9,0.1-1.6-0.5-2.4c-0.8-1.1-1.6-2.3-2.3-3.4c-0.8-1.3-0.6-2.3,0.6-3.1c0.6-0.4,1.7-0.7,1.8-1.2c0.2-0.7-0.4-1.5-0.6-2.3
			c-0.1-0.2-0.1-0.4-0.2-0.6c-0.7-2.2-0.3-2.9,2-3.4c2-0.4,4-0.8,6-1.2c-0.3-1-0.6-1.8-0.9-2.7c-0.7-2.2,0-3.1,2.3-3.1
			c1.2,0,2.4,0,4,0c-0.8-0.7-1.2-1.2-1.7-1.6c-0.8-0.7-1.6-1-2.7-0.5c-1.6,0.7-3.2,1.2-4.9,1.9c-1.2,0.4-2,0.1-2.7-0.9
			c-0.8-1.1-1.5-2.3-2.3-3.4c-0.2-0.2-0.6-0.6-0.8-0.5c-0.9,0.2-1.8,0.4-2.8,0.7c1.3,1.1,2.5,2.1,3.5,3.1c1,1,0.5,2.7-0.8,2.8
			c-0.7,0.1-1.5-0.2-2.1-0.7c-1.4-1-2.7-2.2-4.1-3.4c-9.5,6.6-8.6,20.3-0.7,25.7c0.6-0.6,1.2-1.2,1.9-1.8c-1.2-1.2-2.4-2.4-3.6-3.6
			c-1.2-1.2-1.2-1.8-0.4-3.2c0.5-0.8,1-1.7,1.6-2.4c1-1.2,1.3-2.3,0.5-3.7c-0.4-0.7-0.6-1.6-0.8-2.4c-0.3-1.2,0.1-2.2,1.1-2.5
			c1-0.3,1.9,0.2,2.4,1.5c0.5,1.5,1,3.1,1.5,4.6c0.3,0.9,0.2,1.7-0.4,2.5c-0.8,1.2-1.6,2.4-2.5,3.7c1.3,1.3,2.7,2.6,4,4
			c1.2,1.2,1.2,2.1,0,3.3C122,79.6,121.3,80.2,120.2,81.1z M129.1,50.3c0.7,1.5,1,1.5,2.3,0.5C130.6,50.6,130,50.5,129.1,50.3z"/>
		<path fill="#7500D4" d="M138,102.5c-2.8-0.3-3.6-0.7-3.5-1.9c0.2-2.2,2.1-1.7,3.5-1.9c0.1-1.4-0.4-3.2,1.9-3.4
			c1.1-0.1,1.6,0.8,1.9,3.4c1.4,0.3,3.5-0.3,3.4,2c-0.1,2.1-2,1.6-3.4,1.8c-0.3,1.4,0.3,3.3-1.9,3.5
			C138.6,106,138.3,105.3,138,102.5z"/>
		<path fill="#7500D4" d="M60.8,145.6c-0.2,1.4,0.3,3.3-1.8,3.5c-1.2,0.1-1.7-0.8-1.9-3.5c-1.4-0.2-3.5,0.4-3.4-1.9
			c0-2.2,2-1.7,3.4-1.8c0.4-2.9,0.8-3.5,2.1-3.5c1.2,0,1.6,0.8,1.7,3.5c1.4,0.2,3.5-0.4,3.4,2C64.1,146,62.2,145.4,60.8,145.6z"/>
		<path fill="#7500D4" d="M73.3,133c0.9,0,1.8,0.9,1.8,1.8c0,0.9-0.9,1.8-1.8,1.8c-0.9,0-1.8-0.9-1.8-1.8
			C71.5,133.9,72.4,133,73.3,133z"/>
		<path fill="#7500D4" d="M102.1,50.2c0,0.9-0.9,1.7-1.8,1.7c-0.9,0-1.8-0.9-1.7-1.8c0-0.9,0.9-1.8,1.9-1.7
			C101.3,48.4,102.1,49.3,102.1,50.2z"/>
		<path fill="#7500D4" d="M145.3,86.2c0,0.9-0.9,1.8-1.8,1.7c-1,0-1.8-0.8-1.7-1.8c0-1,0.9-1.8,1.8-1.8
			C144.4,84.4,145.3,85.3,145.3,86.2z"/>
		<path fill="#7500D4" d="M112.9,89.8c-0.9,0-1.8-0.9-1.8-1.8c0-0.9,0.9-1.8,1.8-1.8c0.9,0,1.8,0.8,1.8,1.8
			C114.7,88.9,113.8,89.8,112.9,89.8z"/>
		<path fill="#7500D4" d="M46.3,134.8c0,0.9-0.9,1.8-1.8,1.8c-0.9,0-1.8-0.9-1.7-1.8c0-0.9,0.9-1.8,1.8-1.8
			C45.4,133,46.3,133.9,46.3,134.8z"/>
		<path fill="#7500D4" d="M44.5,151c0,1-0.9,1.8-1.8,1.7c-0.9,0-1.8-0.9-1.7-1.8c0-1,0.9-1.8,1.8-1.7C43.7,149.2,44.5,150,44.5,151z
			"/>
	</g>
</g>
</svg>
