<?xml version="1.0" encoding="utf-8"?>
<!-- Generator: Adobe Illustrator 26.3.1, SVG Export Plug-In . SVG Version: 6.00 Build 0)  -->
<svg version="1.1" baseProfile="tiny" id="Layer_1" xmlns="http://www.w3.org/2000/svg" xmlns:xlink="http://www.w3.org/1999/xlink"
	 x="0px" y="0px" width="191px" height="268px" viewBox="0 0 191 268" overflow="visible" xml:space="preserve">
<rect fill="#F2ECEC" width="191" height="268"/>
<g>
	<path fill="#363636" d="M65.1,200.6c0.4,0.5,0.6,1.1,0.6,1.8c0,0.6-0.1,1.1-0.4,1.6s-0.7,0.8-1.3,1.1s-1.2,0.4-2,0.4h-4.9v-11.3
		h4.7c0.8,0,1.4,0.1,2,0.4s1,0.6,1.3,1c0.3,0.4,0.4,0.9,0.4,1.5c0,0.7-0.2,1.2-0.5,1.7c-0.4,0.4-0.8,0.8-1.4,0.9
		C64.1,199.8,64.7,200.1,65.1,200.6z M59.4,198.8h2.1c0.5,0,1-0.1,1.2-0.4c0.3-0.2,0.4-0.6,0.4-1c0-0.5-0.1-0.8-0.4-1.1
		c-0.3-0.2-0.7-0.4-1.2-0.4h-2.1V198.8z M62.9,203.2c0.3-0.3,0.5-0.6,0.5-1.1c0-0.5-0.2-0.9-0.5-1.1s-0.8-0.4-1.3-0.4h-2.2v3h2.3
		C62.2,203.6,62.6,203.5,62.9,203.2z"/>
	<path fill="#363636" d="M75.8,201.7h-6.6c0.1,0.6,0.3,1.2,0.7,1.5c0.4,0.4,0.9,0.6,1.5,0.6c0.8,0,1.4-0.4,1.8-1.1h2.4
		c-0.3,0.9-0.8,1.6-1.5,2.1c-0.7,0.6-1.6,0.8-2.7,0.8c-0.9,0-1.6-0.2-2.3-0.6c-0.7-0.4-1.2-0.9-1.6-1.6s-0.6-1.5-0.6-2.4
		c0-0.9,0.2-1.7,0.6-2.4c0.4-0.7,0.9-1.2,1.6-1.6s1.5-0.6,2.3-0.6c0.9,0,1.6,0.2,2.3,0.5c0.7,0.4,1.2,0.9,1.6,1.6s0.6,1.4,0.6,2.3
		C75.9,201.1,75.8,201.4,75.8,201.7z M73.5,200.1c0-0.6-0.2-1-0.6-1.4c-0.4-0.4-0.9-0.5-1.5-0.5c-0.6,0-1,0.2-1.4,0.5
		c-0.4,0.3-0.6,0.8-0.7,1.4H73.5z"/>
	<path fill="#363636" d="M79,205.2c-0.6-0.3-1-0.6-1.4-1.1s-0.5-1-0.6-1.5h2.3c0,0.3,0.2,0.6,0.5,0.9c0.3,0.2,0.7,0.3,1.1,0.3
		c0.4,0,0.8-0.1,1-0.3c0.2-0.2,0.4-0.4,0.4-0.7c0-0.3-0.1-0.5-0.4-0.7s-0.8-0.3-1.4-0.5c-0.7-0.2-1.2-0.3-1.6-0.5
		c-0.4-0.2-0.8-0.4-1.1-0.8s-0.5-0.8-0.5-1.4c0-0.5,0.1-1,0.4-1.4c0.3-0.4,0.7-0.7,1.2-1c0.5-0.2,1.2-0.4,1.9-0.4
		c1.1,0,1.9,0.3,2.6,0.8c0.6,0.5,1,1.3,1.1,2.2h-2.2c0-0.4-0.2-0.6-0.4-0.9s-0.6-0.3-1.1-0.3c-0.4,0-0.7,0.1-0.9,0.2
		s-0.3,0.4-0.3,0.6c0,0.3,0.2,0.5,0.5,0.7c0.3,0.2,0.8,0.3,1.4,0.5c0.6,0.2,1.2,0.3,1.6,0.5c0.4,0.2,0.8,0.4,1.1,0.8
		c0.3,0.4,0.5,0.8,0.5,1.4c0,0.5-0.1,1-0.4,1.4s-0.7,0.7-1.2,1c-0.5,0.2-1.2,0.3-1.9,0.3C80.2,205.6,79.5,205.5,79,205.2z"/>
	<path fill="#363636" d="M89,198.4v4.3c0,0.3,0.1,0.5,0.2,0.7c0.1,0.1,0.4,0.2,0.7,0.2H91v1.9h-1.4c-1.9,0-2.9-0.9-2.9-2.8v-4.3
		h-1.1v-1.9h1.1v-2.2H89v2.2h2v1.9H89z"/>
	<path fill="#363636" d="M96.6,195c-0.3-0.3-0.4-0.6-0.4-0.9s0.1-0.7,0.4-0.9s0.6-0.4,1-0.4s0.7,0.1,1,0.4s0.4,0.6,0.4,0.9
		s-0.1,0.7-0.4,0.9c-0.3,0.3-0.6,0.4-1,0.4S96.9,195.3,96.6,195z M98.7,196.5v9h-2.3v-9H98.7z"/>
	<path fill="#363636" d="M100.9,198.5c0.4-0.7,0.9-1.2,1.5-1.6c0.6-0.4,1.3-0.6,2.1-0.6c0.6,0,1.1,0.1,1.7,0.4c0.5,0.3,1,0.6,1.3,1
		v-4.3h2.3v12h-2.3v-1.3c-0.3,0.4-0.7,0.8-1.2,1.1c-0.5,0.3-1.1,0.4-1.8,0.4c-0.8,0-1.4-0.2-2.1-0.6c-0.6-0.4-1.1-0.9-1.5-1.6
		c-0.4-0.7-0.5-1.5-0.5-2.4C100.4,200,100.6,199.2,100.9,198.5z M107.1,199.6c-0.2-0.4-0.5-0.7-0.9-0.9s-0.8-0.3-1.2-0.3
		c-0.4,0-0.8,0.1-1.2,0.3s-0.6,0.5-0.9,0.9c-0.2,0.4-0.3,0.9-0.3,1.4s0.1,1,0.3,1.4c0.2,0.4,0.5,0.7,0.9,0.9
		c0.4,0.2,0.7,0.3,1.2,0.3c0.4,0,0.8-0.1,1.2-0.3c0.4-0.2,0.7-0.5,0.9-0.9c0.2-0.4,0.3-0.9,0.3-1.4S107.3,200,107.1,199.6z"/>
	<path fill="#363636" d="M120.2,201.7h-6.6c0.1,0.6,0.3,1.2,0.7,1.5c0.4,0.4,0.9,0.6,1.5,0.6c0.8,0,1.4-0.4,1.8-1.1h2.4
		c-0.3,0.9-0.8,1.6-1.5,2.1c-0.7,0.6-1.6,0.8-2.7,0.8c-0.9,0-1.6-0.2-2.3-0.6c-0.7-0.4-1.2-0.9-1.6-1.6c-0.4-0.7-0.6-1.5-0.6-2.4
		c0-0.9,0.2-1.7,0.6-2.4c0.4-0.7,0.9-1.2,1.6-1.6c0.7-0.4,1.5-0.6,2.3-0.6c0.9,0,1.6,0.2,2.3,0.5c0.7,0.4,1.2,0.9,1.6,1.6
		c0.4,0.7,0.6,1.4,0.6,2.3C120.3,201.1,120.3,201.4,120.2,201.7z M117.9,200.1c0-0.6-0.2-1-0.6-1.4s-0.9-0.5-1.5-0.5
		c-0.6,0-1,0.2-1.4,0.5c-0.4,0.3-0.6,0.8-0.7,1.4H117.9z"/>
	<path fill="#363636" d="M121.9,198.5c0.4-0.7,0.9-1.2,1.5-1.6s1.3-0.6,2.1-0.6c0.7,0,1.3,0.1,1.8,0.4c0.5,0.3,0.9,0.6,1.2,1v-1.3
		h2.3v9h-2.3v-1.3c-0.3,0.4-0.7,0.8-1.2,1s-1.1,0.4-1.8,0.4c-0.8,0-1.4-0.2-2.1-0.6s-1.1-0.9-1.5-1.6c-0.4-0.7-0.5-1.5-0.5-2.4
		C121.4,200,121.5,199.2,121.9,198.5z M128.1,199.6c-0.2-0.4-0.5-0.7-0.9-0.9s-0.8-0.3-1.2-0.3c-0.4,0-0.8,0.1-1.2,0.3
		s-0.6,0.5-0.9,0.9c-0.2,0.4-0.3,0.9-0.3,1.4s0.1,1,0.3,1.4c0.2,0.4,0.5,0.7,0.9,0.9c0.4,0.2,0.7,0.3,1.2,0.3c0.4,0,0.8-0.1,1.2-0.3
		c0.4-0.2,0.7-0.5,0.9-0.9c0.2-0.4,0.3-0.9,0.3-1.4S128.3,200,128.1,199.6z"/>
	<path fill="#363636" d="M135.4,203.1l-1.9,4.6h-1.5l1.1-4.6H135.4z"/>
	<path fill="#363636" d="M42.6,217.4c0.7,0.7,1,1.6,1,2.8v5.3h-2.3v-5c0-0.7-0.2-1.3-0.5-1.6c-0.4-0.4-0.8-0.6-1.5-0.6
		c-0.6,0-1.1,0.2-1.5,0.6c-0.4,0.4-0.5,0.9-0.5,1.6v5H35v-9h2.3v1.1c0.3-0.4,0.7-0.7,1.2-0.9c0.5-0.2,1-0.3,1.5-0.3
		C41.1,216.4,41.9,216.7,42.6,217.4z"/>
	<path fill="#363636" d="M47.4,225.1c-0.7-0.4-1.2-0.9-1.6-1.6c-0.4-0.7-0.6-1.5-0.6-2.4s0.2-1.7,0.6-2.4c0.4-0.7,1-1.2,1.7-1.6
		c0.7-0.4,1.5-0.6,2.3-0.6s1.6,0.2,2.3,0.6c0.7,0.4,1.3,0.9,1.7,1.6c0.4,0.7,0.6,1.5,0.6,2.4s-0.2,1.7-0.6,2.4
		c-0.4,0.7-1,1.2-1.7,1.6c-0.7,0.4-1.5,0.6-2.4,0.6C48.9,225.6,48.1,225.5,47.4,225.1z M50.9,223.4c0.4-0.2,0.7-0.5,0.9-0.9
		c0.2-0.4,0.3-0.9,0.3-1.5c0-0.9-0.2-1.5-0.7-2c-0.4-0.5-1-0.7-1.6-0.7s-1.2,0.2-1.6,0.7c-0.4,0.5-0.7,1.1-0.7,2s0.2,1.5,0.6,2
		s1,0.7,1.6,0.7C50.1,223.7,50.5,223.6,50.9,223.4z"/>
	<path fill="#363636" d="M58.7,218.4v4.3c0,0.3,0.1,0.5,0.2,0.7c0.1,0.1,0.4,0.2,0.7,0.2h1.1v1.9h-1.4c-1.9,0-2.9-0.9-2.9-2.8v-4.3
		h-1.1v-1.9h1.1v-2.2h2.3v2.2h2v1.9H58.7z"/>
	<path fill="#363636" d="M66.2,218.6c0.4-0.7,0.9-1.2,1.6-1.6c0.7-0.4,1.4-0.6,2.3-0.6c1.1,0,2,0.3,2.8,0.8c0.7,0.6,1.2,1.3,1.5,2.3
		h-2.4c-0.1-0.4-0.3-0.7-0.7-0.9c-0.3-0.2-0.7-0.3-1.1-0.3c-0.6,0-1.2,0.2-1.5,0.7s-0.6,1.1-0.6,2c0,0.9,0.2,1.5,0.6,2
		s0.9,0.7,1.5,0.7c0.9,0,1.5-0.4,1.8-1.2h2.4c-0.2,1-0.7,1.7-1.5,2.3s-1.7,0.9-2.8,0.9c-0.9,0-1.6-0.2-2.3-0.6
		c-0.7-0.4-1.2-0.9-1.6-1.6c-0.4-0.7-0.6-1.5-0.6-2.4S65.8,219.3,66.2,218.6z"/>
	<path fill="#363636" d="M77.6,225.1c-0.7-0.4-1.2-0.9-1.6-1.6c-0.4-0.7-0.6-1.5-0.6-2.4s0.2-1.7,0.6-2.4c0.4-0.7,1-1.2,1.7-1.6
		c0.7-0.4,1.5-0.6,2.3-0.6s1.6,0.2,2.3,0.6c0.7,0.4,1.3,0.9,1.7,1.6c0.4,0.7,0.6,1.5,0.6,2.4s-0.2,1.7-0.6,2.4
		c-0.4,0.7-1,1.2-1.7,1.6c-0.7,0.4-1.5,0.6-2.4,0.6C79.1,225.6,78.3,225.5,77.6,225.1z M81.1,223.4c0.4-0.2,0.7-0.5,0.9-0.9
		c0.2-0.4,0.3-0.9,0.3-1.5c0-0.9-0.2-1.5-0.7-2c-0.4-0.5-1-0.7-1.6-0.7s-1.2,0.2-1.6,0.7c-0.4,0.5-0.7,1.1-0.7,2s0.2,1.5,0.6,2
		s1,0.7,1.6,0.7C80.4,223.7,80.7,223.6,81.1,223.4z"/>
	<path fill="#363636" d="M93.9,217.4c0.7,0.7,1,1.6,1,2.8v5.3h-2.3v-5c0-0.7-0.2-1.3-0.5-1.6c-0.4-0.4-0.8-0.6-1.5-0.6
		c-0.6,0-1.1,0.2-1.5,0.6c-0.4,0.4-0.5,0.9-0.5,1.6v5h-2.3v-9h2.3v1.1c0.3-0.4,0.7-0.7,1.2-0.9c0.5-0.2,1-0.3,1.5-0.3
		C92.3,216.4,93.2,216.7,93.9,217.4z"/>
	<path fill="#363636" d="M98.5,225.3c-0.6-0.3-1-0.6-1.4-1.1c-0.3-0.5-0.5-1-0.6-1.5h2.3c0,0.3,0.2,0.6,0.5,0.9
		c0.3,0.2,0.7,0.3,1.1,0.3c0.4,0,0.8-0.1,1-0.3c0.2-0.2,0.4-0.4,0.4-0.7c0-0.3-0.1-0.5-0.4-0.7c-0.3-0.1-0.8-0.3-1.4-0.5
		c-0.7-0.2-1.2-0.3-1.6-0.5c-0.4-0.2-0.8-0.4-1.1-0.8s-0.5-0.8-0.5-1.4c0-0.5,0.1-1,0.4-1.4c0.3-0.4,0.7-0.7,1.2-1
		c0.5-0.2,1.2-0.4,1.9-0.4c1.1,0,1.9,0.3,2.6,0.8c0.6,0.5,1,1.3,1.1,2.2h-2.2c0-0.4-0.2-0.6-0.4-0.9c-0.3-0.2-0.6-0.3-1.1-0.3
		c-0.4,0-0.7,0.1-0.9,0.2s-0.3,0.4-0.3,0.6c0,0.3,0.2,0.5,0.5,0.7c0.3,0.2,0.8,0.3,1.4,0.5c0.6,0.2,1.2,0.3,1.6,0.5s0.8,0.4,1.1,0.8
		c0.3,0.4,0.5,0.8,0.5,1.4c0,0.5-0.1,1-0.4,1.4c-0.3,0.4-0.7,0.7-1.2,1c-0.5,0.2-1.2,0.3-1.9,0.3C99.7,225.6,99,225.5,98.5,225.3z"
		/>
	<path fill="#363636" d="M114.1,221.7h-6.6c0.1,0.6,0.3,1.2,0.7,1.5c0.4,0.4,0.9,0.6,1.5,0.6c0.8,0,1.4-0.4,1.8-1.1h2.4
		c-0.3,0.9-0.8,1.6-1.5,2.1c-0.7,0.6-1.6,0.8-2.7,0.8c-0.9,0-1.6-0.2-2.3-0.6c-0.7-0.4-1.2-0.9-1.6-1.6c-0.4-0.7-0.6-1.5-0.6-2.4
		c0-0.9,0.2-1.7,0.6-2.4c0.4-0.7,0.9-1.2,1.6-1.6c0.7-0.4,1.5-0.6,2.3-0.6c0.9,0,1.6,0.2,2.3,0.5c0.7,0.4,1.2,0.9,1.6,1.6
		c0.4,0.7,0.6,1.4,0.6,2.3C114.2,221.1,114.2,221.4,114.1,221.7z M111.8,220.2c0-0.6-0.2-1-0.6-1.4s-0.9-0.5-1.5-0.5
		c-0.6,0-1,0.2-1.4,0.5c-0.4,0.3-0.6,0.8-0.7,1.4H111.8z"/>
	<path fill="#363636" d="M123.4,217.4c0.7,0.7,1,1.6,1,2.8v5.3h-2.3v-5c0-0.7-0.2-1.3-0.5-1.6c-0.4-0.4-0.8-0.6-1.5-0.6
		c-0.6,0-1.1,0.2-1.5,0.6c-0.4,0.4-0.5,0.9-0.5,1.6v5h-2.3v-9h2.3v1.1c0.3-0.4,0.7-0.7,1.2-0.9c0.5-0.2,1-0.3,1.5-0.3
		C121.9,216.4,122.7,216.7,123.4,217.4z"/>
	<path fill="#363636" d="M128,225.3c-0.6-0.3-1-0.6-1.4-1.1s-0.5-1-0.6-1.5h2.3c0,0.3,0.2,0.6,0.5,0.9c0.3,0.2,0.7,0.3,1.1,0.3
		c0.4,0,0.8-0.1,1-0.3c0.2-0.2,0.4-0.4,0.4-0.7c0-0.3-0.1-0.5-0.4-0.7c-0.3-0.1-0.8-0.3-1.4-0.5c-0.7-0.2-1.2-0.3-1.6-0.5
		c-0.4-0.2-0.8-0.4-1.1-0.8s-0.5-0.8-0.5-1.4c0-0.5,0.1-1,0.4-1.4c0.3-0.4,0.7-0.7,1.2-1c0.5-0.2,1.2-0.4,1.9-0.4
		c1.1,0,1.9,0.3,2.6,0.8c0.6,0.5,1,1.3,1.1,2.2h-2.2c0-0.4-0.2-0.6-0.4-0.9c-0.3-0.2-0.6-0.3-1.1-0.3c-0.4,0-0.7,0.1-0.9,0.2
		s-0.3,0.4-0.3,0.6c0,0.3,0.2,0.5,0.5,0.7c0.3,0.2,0.8,0.3,1.4,0.5c0.6,0.2,1.2,0.3,1.6,0.5s0.8,0.4,1.1,0.8
		c0.3,0.4,0.5,0.8,0.5,1.4c0,0.5-0.1,1-0.4,1.4c-0.3,0.4-0.7,0.7-1.2,1c-0.5,0.2-1.2,0.3-1.9,0.3C129.2,225.6,128.6,225.5,128,225.3
		z"/>
	<path fill="#363636" d="M143.8,216.5v9h-2.3v-1.1c-0.3,0.4-0.7,0.7-1.1,0.9c-0.5,0.2-1,0.3-1.5,0.3c-0.7,0-1.3-0.1-1.9-0.4
		s-1-0.7-1.3-1.3c-0.3-0.6-0.5-1.3-0.5-2.1v-5.3h2.3v4.9c0,0.7,0.2,1.3,0.5,1.6c0.4,0.4,0.8,0.6,1.5,0.6c0.6,0,1.1-0.2,1.5-0.6
		c0.4-0.4,0.5-0.9,0.5-1.6v-4.9H143.8z"/>
	<path fill="#363636" d="M147.5,225.3c-0.6-0.3-1-0.6-1.4-1.1s-0.5-1-0.6-1.5h2.3c0,0.3,0.2,0.6,0.5,0.9c0.3,0.2,0.7,0.3,1.1,0.3
		c0.4,0,0.8-0.1,1-0.3c0.2-0.2,0.4-0.4,0.4-0.7c0-0.3-0.1-0.5-0.4-0.7c-0.3-0.1-0.8-0.3-1.4-0.5c-0.7-0.2-1.2-0.3-1.6-0.5
		c-0.4-0.2-0.8-0.4-1.1-0.8s-0.5-0.8-0.5-1.4c0-0.5,0.1-1,0.4-1.4c0.3-0.4,0.7-0.7,1.2-1c0.5-0.2,1.2-0.4,1.9-0.4
		c1.1,0,1.9,0.3,2.6,0.8c0.6,0.5,1,1.3,1.1,2.2h-2.2c0-0.4-0.2-0.6-0.4-0.9c-0.3-0.2-0.6-0.3-1.1-0.3c-0.4,0-0.7,0.1-0.9,0.2
		s-0.3,0.4-0.3,0.6c0,0.3,0.2,0.5,0.5,0.7c0.3,0.2,0.8,0.3,1.4,0.5c0.6,0.2,1.2,0.3,1.6,0.5s0.8,0.4,1.1,0.8
		c0.3,0.4,0.5,0.8,0.5,1.4c0,0.5-0.1,1-0.4,1.4c-0.3,0.4-0.7,0.7-1.2,1c-0.5,0.2-1.2,0.3-1.9,0.3
		C148.8,225.6,148.1,225.5,147.5,225.3z"/>
	<path fill="#363636" d="M154.9,225.2c-0.3-0.3-0.4-0.6-0.4-0.9s0.1-0.7,0.4-0.9s0.6-0.4,1-0.4c0.4,0,0.7,0.1,1,0.4
		c0.3,0.3,0.4,0.6,0.4,0.9s-0.1,0.7-0.4,0.9c-0.3,0.3-0.6,0.4-1,0.4C155.5,225.6,155.1,225.5,154.9,225.2z"/>
</g>
<g id="wrVT3q_00000163795296604623033600000011066793732439695255_">
	<g>
		<path fill="#7500D4" stroke="#F2ECEC" stroke-miterlimit="10" d="M120,113.4c0,4.8,0,9.6,0,14.6c4.6-1.7,9.1-3.4,13.6-5
			c0-0.1,0-0.1,0-0.2c-0.7-0.1-1.3-0.2-2-0.3c-1.4-0.2-2-0.9-1.9-2c0.1-1,0.9-1.5,2.4-1.3c2.9,0.4,5.8,0.8,8.7,1.3
			c0.6,0.1,1.3,0.7,1.5,1.2c0.2,0.5-0.2,1.3-0.6,1.7c-1.8,1.9-3.8,3.7-5.7,5.6c-1.4,1.3-2.7,2.6-4,4c-0.3,0.3-0.5,0.9-0.4,1.3
			c0.7,4.2,1.4,8.3,2.1,12.5c0.1,0.4,0.2,0.8,0.2,1.1c-0.1,0.6-0.2,1.4-0.7,1.7c-0.5,0.3-1.4,0.3-1.9,0.1c-4-2-7.9-4.1-11.8-6.2
			c-0.7-0.4-1.3-0.4-2,0c-3.8,2.1-7.7,4.1-11.6,6.1c-0.7,0.4-1.5,0.6-2.2,0.1c-0.7-0.5-0.8-1.3-0.6-2.1c0.7-4.2,1.4-8.5,2.2-12.7
			c0.2-0.9,0-1.6-0.7-2.2c-3.1-3-6.2-6-9.2-9c-0.6-0.6-1.1-1.2-0.8-2.1c0.3-0.8,1-1.1,1.8-1.2c1.2-0.2,2.5-0.4,3.9-0.6
			c-0.9-1-1.7-1.9-2.6-2.8c-5-5-10.3-9.7-16.1-13.8c-1.2-0.8-1.4-1.7-0.8-2.6c0.6-0.8,1.5-0.9,2.6-0.1c7.4,5.2,14,11.1,20,17.9
			c0.6,0.7,1.1,0.8,1.9,0.7c1.4-0.2,2.8-0.4,4.2-0.7c0.5-0.1,0.9-0.5,1.2-0.9c1.4-1.8,1.2-3.4,0-5.5c-4.2-7.2-8.9-14.1-14.2-20.5
			c-0.2-0.3-0.4-0.5-0.6-0.8c-0.6-0.8-0.5-1.7,0.2-2.3c0.7-0.6,1.7-0.5,2.4,0.3c1.5,1.9,3.1,3.7,4.5,5.6c3.5,5.2,7,10.6,10.4,15.8
			c0.2,0.2,0.3,0.5,0.6,0.9c0.6-1.2,1.1-2.3,1.6-3.4c0.1-0.2-0.1-0.6-0.2-0.9c-12-20.4-28-36.9-47.9-49.6c-0.2-0.1-0.4-0.2-0.8-0.5
			c0.4,1.2,0.7,2.2,1,3.2c0.7,2.2,1.5,4.5,2.2,6.7c0.6,1.9-0.2,2.8-2.1,2.5c-4.6-0.7-9.2-1.4-13.8-2.1c-0.2,0-0.4,0-0.8-0.1
			c0.3,0.3,0.5,0.5,0.7,0.7c3.4,2.7,6.7,5.4,10.1,8.1c0.7,0.5,1.3,1,1.1,2c-0.2,1-1,1.2-1.7,1.5c-3.9,1.4-7.8,2.9-11.7,4.3
			c-0.3,0.1-0.7,0.3-1.3,0.5c1.2,0.4,2.1,0.8,3.1,1.1c8.3,2.8,16.1,6.5,23.5,11c1.1,0.7,1.4,1.5,0.9,2.4c-0.5,0.9-1.5,1.1-2.6,0.4
			c-9.1-5.7-19.1-9.6-29.2-12.9c-0.4-0.1-0.8-0.3-1.1-0.4c-0.8-0.3-1.3-0.8-1.3-1.6c0-0.8,0.5-1.3,1.3-1.6c3.4-1.2,6.8-2.5,10.2-3.7
			c1.6-0.6,3.1-1.1,4.8-1.7c-0.3-0.3-0.5-0.5-0.7-0.7c-4.2-3.4-8.4-6.8-12.7-10.1c-0.2-0.2-0.4-0.3-0.6-0.5
			c-0.7-0.6-0.9-1.3-0.5-2.1c0.4-0.8,1-1,1.9-0.9c2.6,0.4,5.3,0.8,7.9,1.2c3.5,0.5,6.9,1.1,10.6,1.6c-0.1-0.4-0.2-0.8-0.3-1.1
			c-1.2-3.5-2.3-7-3.5-10.5c-0.3-0.9-0.4-1.7,0.3-2.3c0.9-0.7,1.6-0.3,2.4,0.2c19,11.2,34.9,25.9,47.4,44.1c1.7,2.4,3.2,5,4.8,7.5
			c0.3,0.5,0.6,0.8,1.3,0.8c0.6,0,1.3,0.6,1.6,1.1c2.3,4.5,4.5,9,6.7,13.5c0.5,1.1,0.2,2-0.7,2.4c-0.9,0.4-1.7,0-2.2-1
			c-1.2-2.3-2.3-4.6-3.4-6.9C120.1,113.3,120.1,113.4,120,113.4z M116.6,113.5c-0.1,0-0.1,0-0.2-0.1c-1.1,2.1-2.2,4.3-3.1,6.4
			c-0.5,1.1-1.2,1.5-2.4,1.7c-2.6,0.3-5.2,0.8-7.8,1.1c0,0.1,0,0.1,0,0.2c4.5,1.7,9,3.3,13.6,5C116.6,123,116.6,118.2,116.6,113.5z
			 M129.2,141.8c0-0.6,0-0.9-0.1-1.1c-0.4-2.2-0.7-4.4-1.1-6.5c-0.3-1.3,0-2.2,0.9-3.1c1.6-1.5,3-3.1,4.5-4.7
			c-4.1,1.5-8.3,3.1-12.5,4.7C123.7,134.7,126.4,138.1,129.2,141.8z M107.3,141.6c0.1,0,0.1,0.1,0.2,0.1c2.7-3.5,5.4-7,8.1-10.6
			c-4.2-1.5-8.2-3-12.2-4.5c1.5,1.6,3,3.2,4.5,4.8c0.7,0.7,1,1.4,0.8,2.4C108.2,136.3,107.8,139,107.3,141.6z M125.7,143.1
			c0.1-0.1,0.1-0.1,0.2-0.2c-2.5-3.3-5-6.5-7.6-9.9c-2.6,3.4-5.1,6.6-7.6,9.9c2.2-0.9,4.2-2,6.3-3.1c0.9-0.5,1.8-0.5,2.7,0
			C121.7,141,123.7,142,125.7,143.1z"/>
		<path fill="#7500D4" stroke="#F2ECEC" stroke-miterlimit="10" d="M72.2,81.7c-1.5-2.4-3-4.7-4.4-7c-0.1-0.2-0.2-0.3-0.3-0.5
			c-0.5-0.8-0.7-1.6,0-2.3c0.7-0.7,1.5-0.6,2.3-0.2c1.3,0.6,2.7,1.3,4,1.9c0.5,0.2,1,0.4,1.6,0.7c-0.4-1.6-0.8-3.1-1.2-4.5
			c-0.2-0.8-0.2-1.6,0.6-2.1c0.8-0.5,1.6-0.3,2.2,0.2c2.4,2,4.9,4,7.2,6.1c3.1,2.9,6.1,5.9,9.1,8.8c1.2,1.2,1.4,2.2,0.6,3
			c-0.8,0.8-1.7,0.6-2.9-0.6c-3.7-3.5-7.4-7.1-11-10.6c-0.3-0.3-0.7-0.5-1.2-1c0.3,1.2,0.6,2.2,0.7,3.2c0.1,0.6,0,1.5-0.4,1.8
			c-0.5,0.3-1.4,0.4-2,0.2c-1.2-0.4-2.3-1.1-3.6-1.5c0.5,0.9,1.1,1.8,1.6,2.7c0.4,0.7,0.9,1.3,1.2,2c0.7,1.4,0.2,2.5-1.4,2.7
			c-0.7,0.1-1.3,0.1-2,0.2c-0.6,0.1-1.2,0.1-1.9,0.4c0.9,0.5,1.8,1,2.7,1.5c6.2,3.2,12,6.9,17.5,11.1c5.8,4.4,11.2,9.5,16.2,14.8
			c1,1.1,1.1,1.8,0.4,2.6c-0.7,0.8-1.5,0.9-2.3,0.1c-1.3-1.3-2.5-2.6-3.8-3.9c-3.2-2.9-6.3-5.9-9.6-8.7c-5.2-4.4-10.9-8.2-16.9-11.6
			c-3.3-1.9-6.8-3.4-10.2-5.1c-1.7-0.8-2.3-1.3-2.1-2.3c0.3-1.5,1.6-1.4,2.6-1.5C67.7,82.2,69.9,82,72.2,81.7z"/>
		<path fill="#7500D4" stroke="#F2ECEC" stroke-miterlimit="10" d="M120,96.1c-0.5,0.5-0.9,1.1-1.4,1.3c-0.8,0.3-1.4-0.1-1.9-0.8
			c-1.6-2.2-3.1-4.5-4.7-6.7c-6.2-8.5-13.3-16.2-21.1-23.2c-3.5-3.1-7.2-5.9-10.8-8.8c-1-0.8-1.2-1.7-0.7-2.5c0.6-0.9,1.6-1,2.6-0.2
			c4.4,3.6,8.8,7,13,10.8c8.4,7.6,15.8,16.1,22.2,25.5c0.7,1,1.4,2,2.1,3C119.6,95.1,119.7,95.5,120,96.1z"/>
		<path fill="#7500D4" stroke="#F2ECEC" stroke-miterlimit="10" d="M52.2,91.9c0.3,0.1,0.6,0.2,0.8,0.3c6.8,2.4,13.4,5.5,19.6,9.1
			c6.2,3.7,12,8,17.4,12.8c1,0.9,1.2,1.9,0.5,2.7c-0.7,0.8-1.7,0.7-2.7-0.2c-5.9-5.3-12.3-9.9-19.3-13.8c-5.2-2.9-10.7-5.4-16.3-7.4
			c-0.3-0.1-0.6-0.2-0.9-0.4c-0.8-0.4-1.1-1.1-0.8-1.9C50.8,92.3,51.4,91.8,52.2,91.9z"/>
		<path fill="#7500D4" stroke="#F2ECEC" stroke-miterlimit="10" d="M126.2,85.5c0.2-1,0.4-2,0.5-3.1c0-0.5-0.2-1.1-0.5-1.4
			c-0.6-0.8-1.4-1.4-2.1-2.1c-1.1-1.2-0.7-2.5,0.9-2.8c0.9-0.2,1.9-0.4,2.8-0.4c0.8,0,1.2-0.4,1.5-1.1c0.3-0.8,0.8-1.5,1.1-2.3
			c0.3-0.7,0.9-1.2,1.6-1.1c0.6,0.1,1.2,0.6,1.6,1.1c0.5,0.6,0.8,1.3,1.1,2.1c0.3,1,1,1.3,2,1.4c0.8,0.1,1.6,0.2,2.4,0.3
			c1.6,0.3,2,1.8,0.9,2.9c-0.6,0.7-1.3,1.3-2,1.9c-0.6,0.5-0.7,1-0.6,1.8c0.2,0.9,0.4,1.8,0.4,2.7c0,0.6-0.2,1.4-0.6,1.7
			c-0.4,0.3-1.3,0.3-1.8,0.1c-0.9-0.3-1.8-0.9-2.7-1.3c-0.4-0.2-1-0.2-1.4,0c-0.9,0.4-1.7,0.9-2.6,1.4
			C127.5,87.9,126.2,87.1,126.2,85.5z M128.6,78.8c1.6,1.1,1.9,2.4,1.5,3.9c1.3-1,2.6-0.9,4.1,0.2c-0.7-1.8-0.2-3,1.2-4
			c-1.8,0-2.9-0.8-3.4-2.6C131.6,78,130.6,78.9,128.6,78.8z"/>
		<path fill="#7500D4" stroke="#F2ECEC" stroke-miterlimit="10" d="M62.1,133.2c0.2-0.9,0.2-2,0.5-3c0.2-0.7,0-1.1-0.5-1.5
			c-0.7-0.6-1.5-1.3-2-2c-0.3-0.4-0.6-1.2-0.5-1.7c0.2-0.5,0.8-1,1.4-1.2c0.7-0.3,1.6-0.4,2.4-0.4c1.1,0,1.7-0.4,2-1.5
			c0.3-0.8,0.7-1.5,1.1-2.2c0.8-1.3,2.4-1.3,3.1,0.1c0.6,1.1,0.9,2.6,1.8,3.2c0.9,0.7,2.4,0.4,3.6,0.7c0.6,0.2,1.3,0.6,1.4,1.1
			c0.2,0.5-0.2,1.2-0.5,1.7c-0.4,0.6-0.9,1.1-1.5,1.5c-1.1,0.7-1.3,1.7-0.9,2.8c0.2,0.7,0.4,1.4,0.3,2.1c0,0.6-0.2,1.4-0.6,1.7
			c-0.4,0.3-1.2,0.1-1.9,0.1c0,0-0.1,0-0.1,0c-2.2-1.9-4.3-1.5-6.5-0.1C63.3,135.7,62.1,134.8,62.1,133.2z M70,130.3
			c-0.6-1.6,0-2.8,1.2-3.8c-1.8,0.1-2.6-0.9-3.2-2.5c-0.5,1.6-1.4,2.5-3.1,2.6c1.3,1,1.4,2.3,1.2,3.9
			C67.5,129.3,68.7,129.6,70,130.3z"/>
		<path fill="#7500D4" stroke="#F2ECEC" stroke-miterlimit="10" d="M80.3,115c-0.4,0.6-0.7,1.3-1.1,1.5c-0.5,0.2-1.4,0.2-1.8-0.1
			c-1.6-1-3.1-2.2-4.6-3.2c-7.1-4.9-14.8-8.7-22.9-11.6c-0.9-0.3-1.6-0.8-1.5-1.9c0.1-0.9,0.6-1.3,1.4-1.4c0.4,0,0.8,0.1,1.2,0.2
			c6,2.2,11.9,4.8,17.3,8c3.6,2.2,7.1,4.6,10.6,7C79.4,113.7,79.7,114.4,80.3,115z"/>
		<path fill="#7500D4" stroke="#F2ECEC" stroke-miterlimit="10" d="M118.4,83c0.6,0.5,1.2,0.8,1.6,1.3c2.9,4.2,5.8,8.5,8.5,12.8
			c1.7,2.6,3.1,5.5,4.6,8.2c0.7,1.2,0.5,2.1-0.4,2.7c-0.9,0.5-1.7,0.2-2.4-1c-3.1-5.1-6.1-10.3-9.2-15.4c-1.1-1.9-2.6-3.5-3.7-5.4
			c-0.3-0.5-0.4-1.4-0.3-2C117.1,83.7,117.8,83.4,118.4,83z"/>
		<path fill="#7500D4" stroke="#F2ECEC" stroke-miterlimit="10" d="M116.3,79.8c-0.5,0.5-0.8,1.2-1.3,1.3c-0.6,0.1-1.5-0.1-1.9-0.6
			c-1.2-1.2-2.2-2.7-3.4-4c-3.6-3.9-7.3-7.7-10.9-11.5c-0.4-0.4-0.8-0.7-1.1-1.1c-0.5-0.7-0.4-1.4,0.2-2c0.6-0.6,1.3-0.7,2-0.2
			c0.8,0.6,1.5,1.2,2.1,1.9c4.4,4.7,8.8,9.5,13.1,14.3C115.6,78.5,115.8,79.1,116.3,79.8z"/>
		<path fill="#7500D4" stroke="#F2ECEC" stroke-miterlimit="10" d="M55.9,141.8c-0.3,2.5-0.6,3.1-1.7,3.1c-1.1,0-1.5-0.6-1.7-3.1
			c-1.2-0.3-3.2,0.3-3.2-1.9c0.1-1.9,1.9-1.4,3.1-1.6c0.3-1.3-0.4-3.2,1.8-3.2c2,0.1,1.5,1.8,1.7,3.2c1.3,0.2,3.1-0.4,3.2,1.8
			C59.1,141.2,58.4,141.5,55.9,141.8z"/>
		<path fill="#7500D4" stroke="#F2ECEC" stroke-miterlimit="10" d="M121.1,57.9c-0.3,2.7-0.6,3.2-1.7,3.2c-1.2,0-1.5-0.5-1.8-3.2
			c-1.2-0.2-3.2,0.4-3.1-1.8c0-2,1.8-1.5,3.1-1.6c0.2-1.3-0.3-3.1,1.8-3.2c1.1-0.1,1.4,0.7,1.7,3.2c1.2,0.2,3.2-0.4,3.1,1.7
			C124.1,58.3,122.4,57.8,121.1,57.9z"/>
		<path fill="#7500D4" stroke="#F2ECEC" stroke-miterlimit="10" d="M129.3,69.3c-0.9,0-1.6-0.7-1.6-1.6c0-1,0.7-1.7,1.7-1.7
			c0.9,0,1.6,0.8,1.6,1.8C130.9,68.6,130.1,69.3,129.3,69.3z"/>
		<path fill="#7500D4" stroke="#F2ECEC" stroke-miterlimit="10" d="M107.8,56.2c0,0.9-0.8,1.6-1.6,1.6c-0.9,0-1.6-0.8-1.6-1.6
			c0-0.9,0.7-1.6,1.6-1.6C107,54.6,107.8,55.4,107.8,56.2z"/>
		<path fill="#7500D4" stroke="#F2ECEC" stroke-miterlimit="10" d="M139,57.9c0.9,0,1.6,0.7,1.6,1.6c0,0.9-0.7,1.6-1.6,1.6
			c-0.9,0-1.6-0.7-1.6-1.6C137.4,58.7,138.1,57.9,139,57.9z"/>
		<path fill="#7500D4" stroke="#F2ECEC" stroke-miterlimit="10" d="M47,113.8c-0.9,0-1.6-0.7-1.7-1.6c0-0.9,0.7-1.6,1.6-1.7
			c0.9,0,1.6,0.7,1.7,1.6C48.6,113,47.9,113.7,47,113.8z"/>
		<path fill="#7500D4" stroke="#F2ECEC" stroke-miterlimit="10" d="M89.7,131.9c0,0.9-0.8,1.6-1.6,1.6c-0.8,0-1.6-0.8-1.6-1.6
			c0-0.8,0.8-1.6,1.6-1.6C88.9,130.2,89.7,131,89.7,131.9z"/>
		<path fill="#7500D4" stroke="#F2ECEC" stroke-miterlimit="10" d="M81.5,146.7c0,0.9-0.8,1.6-1.6,1.6c-0.9,0-1.6-0.8-1.6-1.6
			c0-0.9,0.8-1.6,1.6-1.6C80.8,145.1,81.5,145.8,81.5,146.7z"/>
	</g>
</g>
</svg>
