<?xml version="1.0" encoding="utf-8"?>
<!-- Generator: Adobe Illustrator 26.3.1, SVG Export Plug-In . SVG Version: 6.00 Build 0)  -->
<svg version="1.1" baseProfile="tiny" id="Layer_1" xmlns="http://www.w3.org/2000/svg" xmlns:xlink="http://www.w3.org/1999/xlink"
	 x="0px" y="0px" width="191px" height="268px" viewBox="0 0 191 268" overflow="visible" xml:space="preserve">
<rect fill="#F2ECEC" width="191" height="268"/>
<g>
	<path fill="#363636" d="M29.1,200.6c0.4,0.5,0.6,1.1,0.6,1.8c0,0.6-0.1,1.1-0.4,1.6s-0.7,0.8-1.3,1.1s-1.2,0.4-2,0.4h-4.9v-11.3
		h4.7c0.8,0,1.4,0.1,2,0.4s1,0.6,1.3,1c0.3,0.4,0.4,0.9,0.4,1.5c0,0.7-0.2,1.2-0.5,1.7c-0.4,0.4-0.8,0.8-1.4,0.9
		C28.1,199.8,28.7,200.1,29.1,200.6z M23.3,198.8h2.1c0.5,0,1-0.1,1.2-0.4c0.3-0.2,0.4-0.6,0.4-1c0-0.5-0.1-0.8-0.4-1.1
		c-0.3-0.2-0.7-0.4-1.2-0.4h-2.1V198.8z M26.9,203.2c0.3-0.3,0.5-0.6,0.5-1.1c0-0.5-0.2-0.9-0.5-1.1s-0.8-0.4-1.3-0.4h-2.2v3h2.3
		C26.2,203.6,26.6,203.5,26.9,203.2z"/>
	<path fill="#363636" d="M39.8,201.7h-6.6c0.1,0.6,0.3,1.2,0.7,1.5c0.4,0.4,0.9,0.6,1.5,0.6c0.8,0,1.4-0.4,1.8-1.1h2.4
		c-0.3,0.9-0.8,1.6-1.5,2.1c-0.7,0.6-1.6,0.8-2.7,0.8c-0.9,0-1.6-0.2-2.3-0.6c-0.7-0.4-1.2-0.9-1.6-1.6s-0.6-1.5-0.6-2.4
		c0-0.9,0.2-1.7,0.6-2.4c0.4-0.7,0.9-1.2,1.6-1.6s1.5-0.6,2.3-0.6c0.9,0,1.6,0.2,2.3,0.5c0.7,0.4,1.2,0.9,1.6,1.6s0.6,1.4,0.6,2.3
		C39.8,201.1,39.8,201.4,39.8,201.7z M37.5,200.1c0-0.6-0.2-1-0.6-1.4c-0.4-0.4-0.9-0.5-1.5-0.5c-0.6,0-1,0.2-1.4,0.5
		c-0.4,0.3-0.6,0.8-0.7,1.4H37.5z"/>
	<path fill="#363636" d="M46.8,196.7c0.5,0.3,0.9,0.6,1.2,1v-1.3h2.3v9c0,0.8-0.2,1.6-0.5,2.2c-0.3,0.7-0.8,1.2-1.5,1.6
		c-0.7,0.4-1.5,0.6-2.4,0.6c-1.3,0-2.3-0.3-3.1-0.9c-0.8-0.6-1.3-1.4-1.4-2.4h2.3c0.1,0.4,0.4,0.7,0.8,1c0.4,0.2,0.9,0.4,1.4,0.4
		c0.7,0,1.2-0.2,1.6-0.6c0.4-0.4,0.6-1,0.6-1.8v-1.4c-0.3,0.4-0.7,0.8-1.2,1.1c-0.5,0.3-1.1,0.4-1.8,0.4c-0.8,0-1.4-0.2-2.1-0.6
		c-0.6-0.4-1.1-0.9-1.5-1.6c-0.4-0.7-0.5-1.5-0.5-2.4c0-0.9,0.2-1.7,0.5-2.4c0.4-0.7,0.9-1.2,1.5-1.6s1.3-0.6,2.1-0.6
		C45.7,196.4,46.3,196.5,46.8,196.7z M47.6,199.6c-0.2-0.4-0.5-0.7-0.9-0.9s-0.8-0.3-1.2-0.3c-0.4,0-0.8,0.1-1.2,0.3
		c-0.4,0.2-0.6,0.5-0.9,0.9c-0.2,0.4-0.3,0.9-0.3,1.4s0.1,1,0.3,1.4c0.2,0.4,0.5,0.7,0.9,0.9s0.7,0.3,1.2,0.3c0.4,0,0.8-0.1,1.2-0.3
		c0.4-0.2,0.7-0.5,0.9-0.9c0.2-0.4,0.3-0.9,0.3-1.4S47.9,200,47.6,199.6z"/>
	<path fill="#363636" d="M52.6,195c-0.3-0.3-0.4-0.6-0.4-0.9s0.1-0.7,0.4-0.9c0.3-0.3,0.6-0.4,1-0.4c0.4,0,0.7,0.1,1,0.4
		c0.3,0.3,0.4,0.6,0.4,0.9s-0.1,0.7-0.4,0.9c-0.3,0.3-0.6,0.4-1,0.4C53.2,195.4,52.9,195.3,52.6,195z M54.7,196.5v9h-2.3v-9H54.7z"
		/>
	<path fill="#363636" d="M64.5,197.4c0.7,0.7,1,1.6,1,2.8v5.3h-2.3v-5c0-0.7-0.2-1.3-0.5-1.6c-0.4-0.4-0.8-0.6-1.5-0.6
		c-0.6,0-1.1,0.2-1.5,0.6c-0.4,0.4-0.5,0.9-0.5,1.6v5H57v-9h2.3v1.1c0.3-0.4,0.7-0.7,1.2-0.9c0.5-0.2,1-0.3,1.5-0.3
		C63,196.4,63.9,196.7,64.5,197.4z"/>
	<path fill="#363636" d="M84,196.5l-2.6,9h-2.4l-1.6-6.3l-1.6,6.3h-2.5l-2.6-9h2.3l1.6,6.8l1.7-6.8h2.4l1.7,6.8l1.6-6.8H84z"/>
	<path fill="#363636" d="M85.4,195c-0.3-0.3-0.4-0.6-0.4-0.9s0.1-0.7,0.4-0.9c0.3-0.3,0.6-0.4,1-0.4c0.4,0,0.7,0.1,1,0.4
		c0.3,0.3,0.4,0.6,0.4,0.9s-0.1,0.7-0.4,0.9c-0.3,0.3-0.6,0.4-1,0.4C85.9,195.4,85.6,195.3,85.4,195z M87.5,196.5v9h-2.3v-9H87.5z"
		/>
	<path fill="#363636" d="M92.3,198.4v4.3c0,0.3,0.1,0.5,0.2,0.7c0.1,0.1,0.4,0.2,0.7,0.2h1.1v1.9h-1.4c-1.9,0-2.9-0.9-2.9-2.8v-4.3
		H89v-1.9h1.1v-2.2h2.3v2.2h2v1.9H92.3z"/>
	<path fill="#363636" d="M102.9,196.8c0.5,0.3,0.9,0.7,1.2,1.3c0.3,0.6,0.4,1.3,0.4,2.1v5.3h-2.3v-5c0-0.7-0.2-1.3-0.5-1.6
		c-0.4-0.4-0.8-0.6-1.5-0.6c-0.6,0-1.1,0.2-1.5,0.6c-0.4,0.4-0.5,0.9-0.5,1.6v5H96v-12h2.3v4.1c0.3-0.4,0.7-0.7,1.2-0.9
		c0.5-0.2,1-0.3,1.6-0.3C101.7,196.4,102.3,196.5,102.9,196.8z"/>
	<path fill="#363636" d="M113.2,198.4v4.3c0,0.3,0.1,0.5,0.2,0.7c0.1,0.1,0.4,0.2,0.7,0.2h1.1v1.9h-1.4c-1.9,0-2.9-0.9-2.9-2.8v-4.3
		h-1.1v-1.9h1.1v-2.2h2.3v2.2h2v1.9H113.2z"/>
	<path fill="#363636" d="M123.7,196.8c0.5,0.3,0.9,0.7,1.2,1.3c0.3,0.6,0.4,1.3,0.4,2.1v5.3h-2.3v-5c0-0.7-0.2-1.3-0.5-1.6
		c-0.4-0.4-0.8-0.6-1.5-0.6c-0.6,0-1.1,0.2-1.5,0.6c-0.4,0.4-0.5,0.9-0.5,1.6v5h-2.3v-12h2.3v4.1c0.3-0.4,0.7-0.7,1.2-0.9
		c0.5-0.2,1-0.3,1.6-0.3C122.6,196.4,123.2,196.5,123.7,196.8z"/>
	<path fill="#363636" d="M135.8,201.7h-6.6c0.1,0.6,0.3,1.2,0.7,1.5c0.4,0.4,0.9,0.6,1.5,0.6c0.8,0,1.4-0.4,1.8-1.1h2.4
		c-0.3,0.9-0.8,1.6-1.5,2.1c-0.7,0.6-1.6,0.8-2.7,0.8c-0.9,0-1.6-0.2-2.3-0.6c-0.7-0.4-1.2-0.9-1.6-1.6c-0.4-0.7-0.6-1.5-0.6-2.4
		c0-0.9,0.2-1.7,0.6-2.4c0.4-0.7,0.9-1.2,1.6-1.6c0.7-0.4,1.5-0.6,2.3-0.6c0.9,0,1.6,0.2,2.3,0.5c0.7,0.4,1.2,0.9,1.6,1.6
		c0.4,0.7,0.6,1.4,0.6,2.3C135.9,201.1,135.9,201.4,135.8,201.7z M133.5,200.1c0-0.6-0.2-1-0.6-1.4s-0.9-0.5-1.5-0.5
		c-0.6,0-1,0.2-1.4,0.5c-0.4,0.3-0.6,0.8-0.7,1.4H133.5z"/>
	<path fill="#363636" d="M149.7,201.7h-6.6c0.1,0.6,0.3,1.2,0.7,1.5c0.4,0.4,0.9,0.6,1.5,0.6c0.8,0,1.4-0.4,1.8-1.1h2.4
		c-0.3,0.9-0.8,1.6-1.5,2.1c-0.7,0.6-1.6,0.8-2.7,0.8c-0.9,0-1.6-0.2-2.3-0.6c-0.7-0.4-1.2-0.9-1.6-1.6c-0.4-0.7-0.6-1.5-0.6-2.4
		c0-0.9,0.2-1.7,0.6-2.4c0.4-0.7,0.9-1.2,1.6-1.6c0.7-0.4,1.5-0.6,2.3-0.6c0.9,0,1.6,0.2,2.3,0.5c0.7,0.4,1.2,0.9,1.6,1.6
		c0.4,0.7,0.6,1.4,0.6,2.3C149.7,201.1,149.7,201.4,149.7,201.7z M147.4,200.1c0-0.6-0.2-1-0.6-1.4s-0.9-0.5-1.5-0.5
		c-0.6,0-1,0.2-1.4,0.5c-0.4,0.3-0.6,0.8-0.7,1.4H147.4z"/>
	<path fill="#363636" d="M158.9,197.4c0.7,0.7,1,1.6,1,2.8v5.3h-2.3v-5c0-0.7-0.2-1.3-0.5-1.6c-0.4-0.4-0.8-0.6-1.5-0.6
		c-0.6,0-1.1,0.2-1.5,0.6c-0.4,0.4-0.5,0.9-0.5,1.6v5h-2.3v-9h2.3v1.1c0.3-0.4,0.7-0.7,1.2-0.9c0.5-0.2,1-0.3,1.5-0.3
		C157.4,196.4,158.3,196.7,158.9,197.4z"/>
	<path fill="#363636" d="M162,198.5c0.4-0.7,0.9-1.2,1.5-1.6c0.6-0.4,1.3-0.6,2.1-0.6c0.6,0,1.1,0.1,1.7,0.4c0.5,0.3,1,0.6,1.3,1
		v-4.3h2.3v12h-2.3v-1.3c-0.3,0.4-0.7,0.8-1.2,1.1c-0.5,0.3-1.1,0.4-1.8,0.4c-0.8,0-1.4-0.2-2.1-0.6c-0.6-0.4-1.1-0.9-1.5-1.6
		c-0.4-0.7-0.5-1.5-0.5-2.4C161.5,200,161.7,199.2,162,198.5z M168.2,199.6c-0.2-0.4-0.5-0.7-0.9-0.9s-0.8-0.3-1.2-0.3
		c-0.4,0-0.8,0.1-1.2,0.3s-0.6,0.5-0.9,0.9c-0.2,0.4-0.3,0.9-0.3,1.4s0.1,1,0.3,1.4c0.2,0.4,0.5,0.7,0.9,0.9
		c0.4,0.2,0.7,0.3,1.2,0.3c0.4,0,0.8-0.1,1.2-0.3c0.4-0.2,0.7-0.5,0.9-0.9c0.2-0.4,0.3-0.9,0.3-1.4S168.5,200,168.2,199.6z"/>
	<path fill="#363636" d="M64,215.1c-0.3-0.3-0.4-0.6-0.4-0.9s0.1-0.7,0.4-0.9c0.3-0.3,0.6-0.4,1-0.4c0.4,0,0.7,0.1,1,0.4
		c0.3,0.3,0.4,0.6,0.4,0.9s-0.1,0.7-0.4,0.9c-0.3,0.3-0.6,0.4-1,0.4C64.6,215.5,64.3,215.3,64,215.1z M66.1,216.5v9h-2.3v-9H66.1z"
		/>
	<path fill="#363636" d="M75.9,217.4c0.7,0.7,1,1.6,1,2.8v5.3h-2.3v-5c0-0.7-0.2-1.3-0.5-1.6c-0.4-0.4-0.8-0.6-1.5-0.6
		c-0.6,0-1.1,0.2-1.5,0.6c-0.4,0.4-0.5,0.9-0.5,1.6v5h-2.3v-9h2.3v1.1c0.3-0.4,0.7-0.7,1.2-0.9c0.5-0.2,1-0.3,1.5-0.3
		C74.4,216.4,75.3,216.7,75.9,217.4z"/>
	<path fill="#363636" d="M96.7,217.4c0.7,0.7,1,1.6,1,2.8v5.3h-2.3v-5c0-0.7-0.2-1.2-0.5-1.6c-0.4-0.4-0.8-0.6-1.5-0.6
		c-0.6,0-1.1,0.2-1.5,0.6c-0.4,0.4-0.5,0.9-0.5,1.6v5h-2.3v-5c0-0.7-0.2-1.2-0.5-1.6c-0.4-0.4-0.8-0.6-1.5-0.6
		c-0.6,0-1.1,0.2-1.5,0.6c-0.4,0.4-0.5,0.9-0.5,1.6v5h-2.3v-9h2.3v1.1c0.3-0.4,0.7-0.7,1.1-0.9s1-0.3,1.5-0.3c0.7,0,1.3,0.1,1.9,0.4
		s1,0.7,1.3,1.3c0.3-0.5,0.7-0.9,1.3-1.2c0.6-0.3,1.2-0.5,1.8-0.5C95.2,216.4,96,216.7,96.7,217.4z"/>
	<path fill="#363636" d="M100,215.1c-0.3-0.3-0.4-0.6-0.4-0.9s0.1-0.7,0.4-0.9s0.6-0.4,1-0.4s0.7,0.1,1,0.4s0.4,0.6,0.4,0.9
		s-0.1,0.7-0.4,0.9c-0.3,0.3-0.6,0.4-1,0.4S100.3,215.3,100,215.1z M102.2,216.5v9h-2.3v-9H102.2z"/>
	<path fill="#363636" d="M112,217.4c0.7,0.7,1,1.6,1,2.8v5.3h-2.3v-5c0-0.7-0.2-1.3-0.5-1.6c-0.4-0.4-0.8-0.6-1.5-0.6
		c-0.6,0-1.1,0.2-1.5,0.6c-0.4,0.4-0.5,0.9-0.5,1.6v5h-2.3v-9h2.3v1.1c0.3-0.4,0.7-0.7,1.2-0.9c0.5-0.2,1-0.3,1.5-0.3
		C110.4,216.4,111.3,216.7,112,217.4z"/>
	<path fill="#363636" d="M115.1,218.6c0.4-0.7,0.9-1.2,1.5-1.6c0.6-0.4,1.3-0.6,2.1-0.6c0.6,0,1.1,0.1,1.7,0.4c0.5,0.3,1,0.6,1.3,1
		v-4.3h2.3v12h-2.3v-1.3c-0.3,0.4-0.7,0.8-1.2,1.1c-0.5,0.3-1.1,0.4-1.8,0.4c-0.8,0-1.4-0.2-2.1-0.6c-0.6-0.4-1.1-0.9-1.5-1.6
		c-0.4-0.7-0.5-1.5-0.5-2.4C114.5,220.1,114.7,219.3,115.1,218.6z M121.3,219.6c-0.2-0.4-0.5-0.7-0.9-0.9s-0.8-0.3-1.2-0.3
		c-0.4,0-0.8,0.1-1.2,0.3s-0.6,0.5-0.9,0.9c-0.2,0.4-0.3,0.9-0.3,1.4s0.1,1,0.3,1.4c0.2,0.4,0.5,0.7,0.9,0.9
		c0.4,0.2,0.7,0.3,1.2,0.3c0.4,0,0.8-0.1,1.2-0.3c0.4-0.2,0.7-0.5,0.9-0.9c0.2-0.4,0.3-0.9,0.3-1.4S121.5,220,121.3,219.6z"/>
	<path fill="#363636" d="M126.1,225.2c-0.3-0.3-0.4-0.6-0.4-0.9s0.1-0.7,0.4-0.9s0.6-0.4,1-0.4c0.4,0,0.7,0.1,1,0.4
		c0.3,0.3,0.4,0.6,0.4,0.9s-0.1,0.7-0.4,0.9c-0.3,0.3-0.6,0.4-1,0.4C126.7,225.6,126.3,225.5,126.1,225.2z"/>
</g>
<g id="dESPpP_00000075875870800682383220000009106358281203739574_">
	<g>
		<path fill="#7500D4" stroke="#F2ECEC" stroke-linejoin="round" stroke-miterlimit="10" d="M108.7,68.7c-2.5,0-4.9,0-7.4,0
			c0,7.7,0,15.3,0,22.9c2.6,0.5,5.2,1,7.8,1.5c0.3,0.1,0.7,0.1,1,0.3c1.1,0.4,1.6,1.3,1.3,2.3c-0.3,1-1.1,1.5-2.2,1.4
			c-2.1-0.4-4.2-0.9-6.3-1.2c-2.6-0.3-5.2-0.5-7.8-0.5c-1.8,0-3.4,0.7-4.8,1.9c-4,3.7-8.7,4.7-13.9,3.2c-1.6-0.5-3.2-0.4-4.6,0.4
			c-2.7,1.5-5.4,3.1-8.3,4.8c0.7,0.6,1.1,0.9,1.5,1.2c0.8,0.7,1,1.8,0.4,2.6c-0.6,0.9-1.7,1.1-2.7,0.3c-1.9-1.4-3.7-2.8-5.5-4.2
			c-0.3-0.2-0.6-0.4-1.1-0.8c-2.2,4.2-5.1,7.6-9,10.4c1.7,2,3.4,4,5.1,6c0.4,0.5,0.8,0.9,1.2,1.4c0.7,1,0.7,2-0.2,2.7
			c-0.8,0.7-1.9,0.6-2.7-0.3c-2.1-2.4-4.2-4.9-6.3-7.3c-0.3-0.4-0.7-0.8-1-1.2c-1.3-1.5-1.1-2.5,0.5-3.6c3.1-1.9,5.8-4.4,7.7-7.6
			c0.8-1.3,1.4-2.6,2.1-4c0.8-1.6,1.9-1.9,3.3-0.9c1,0.7,2,1.5,3,2.3c0.6,0.5,1,0.5,1.7,0c2.6-1.7,5.3-3.5,8-5.1
			c2.6-1.5,5.5-1.8,8.4-0.9c3.5,1,6.5,0.3,9.5-1.9c2.1-1.5,2.6-3.1,2.5-5.5c-0.2-5.3-0.1-10.6-0.1-15.9c0-0.4,0-0.8,0-1.2
			c0.1-1.1,0.9-1.9,1.9-1.9c1,0,1.8,0.8,1.9,1.9c0,2.2,0,4.5,0,6.7c0,3.6,0,7.3,0,10.9c0,0.5,0,0.9,0,1.4c1.3,0,2.5,0,3.8,0
			c0-0.5,0.1-1,0.1-1.4c0-13.7,0-27.4,0-41.1c0-0.5,0-0.9-0.1-1.4c-0.1-1-0.8-1.6-1.8-1.7c-1,0-1.7,0.6-1.8,1.6
			c-0.1,0.5-0.1,1-0.1,1.5c0,5,0,9.9,0,14.9c0,0.4,0,0.8,0,1.2c-0.2,1-0.7,1.6-1.8,1.6c-1.1,0-1.8-0.6-1.9-1.7c-0.1-0.5,0-1.1,0-1.7
			c0-5.2,0-10.4,0-15.7c0-2.5,1.2-4.3,3.5-5.2c2.2-0.9,4.3-0.5,6.1,1.1c0.2,0.2,0.5,0.4,0.6,0.7c0.5,1.6,1.8,1.6,3.2,1.6
			c4.8-0.1,9.7,0,14.5,0c1.9,0,2.5,0.6,2.6,2.5c0,1.3,0,2.7,0,4c0,0.9,0.3,1.1,1.1,1.1c2.5,0,5.1,0,7.6,0c2.2,0,2.7,0.6,2.7,2.7
			c0,5.8,0,11.6,0,17.5c0,2.1-0.5,2.6-2.6,2.7c-5.9,0-11.7,0-17.6,0c-2.1,0-2.6-0.6-2.6-2.7c0-1.5,0-3,0-4.5
			C108.8,68.9,108.7,68.8,108.7,68.7z M101.3,55.2c5.1,0,10.1,0,15.1,0c0-1.9,0-3.7,0-5.5c-5.1,0-10.1,0-15.1,0
			C101.3,51.5,101.3,53.3,101.3,55.2z M101.3,64.7c5.1,0,10.1,0,15.1,0c0-1.9,0-3.7,0-5.5c-5.1,0-10.1,0-15.1,0
			C101.3,61.1,101.3,62.8,101.3,64.7z M127.8,66.7c-2.4,0-4.8,0-7.1,0c-0.2,0-0.4,0.2-0.5,0.3c-0.9,1.7-1.7,3.5-2.6,5.2
			c3.3,0,6.7,0,10.2,0C127.8,70.4,127.8,68.6,127.8,66.7z M120.3,57.2c0,1.9,0,3.7,0,5.5c2.5,0,5,0,7.5,0c0-1.7,0-3.3,0-4.8
			c0-0.2-0.3-0.6-0.5-0.7C125,57.2,122.7,57.2,120.3,57.2z M115.3,69.1c-0.1-0.1-0.3-0.3-0.4-0.4c-0.7,0-1.5,0-2.2,0
			c0,0.8,0,1.5,0,2.2c0.2,0.1,0.3,0.3,0.5,0.4C113.9,70.5,114.6,69.8,115.3,69.1z"/>
		<path fill="#7500D4" stroke="#F2ECEC" stroke-linejoin="round" stroke-miterlimit="10" d="M132.9,110.5c-0.6,1.1-1,1.9-1.5,2.6
			c-0.7,1-1.7,1.4-2.6,0.9c-1-0.5-1.2-1.6-0.6-2.8c1.2-2.3,2.5-4.5,3.8-7c-4.4-1.6-8.3-3.9-11.5-7.5c-1.2,1.4-2.4,2.7-3.6,4.1
			c-0.9,1-1.7,2-2.6,3c-1,1.1-2.2,1.2-3,0.3c-0.8-0.8-0.7-1.9,0.3-3c2.2-2.6,4.5-5.2,6.7-7.7c1.8-2,2.7-2,4.4,0
			c3.1,3.6,6.9,6,11.4,7.4c0.3,0.1,0.7,0.2,1,0.3c1.6,0.5,2.1,1.6,1.3,3.1c-0.5,1-1,1.9-1.5,2.8c1.7,2,3.5,4,5.2,6
			c3,3.5,4.3,7.5,3.5,12.1c-0.7,4.1,0.6,7.4,3.8,10c3.3,2.8,4.9,6.4,5.2,10.6c0.1,0.8,0.1,1.6,0,2.4c0,1.3-0.8,2.2-1.8,2.2
			c-1.1,0-1.9-0.8-2-2.1c-0.1-1.1-0.1-2.2-0.2-3.3c-0.2-2.9-1.6-5.2-3.8-7c-3.3-2.8-5.1-6.2-5.2-10.5c0-1,0.2-2,0.3-2.9
			c0.5-3.3-0.2-6.2-2.4-8.7C136,114,134.5,112.3,132.9,110.5z"/>
		<path fill="#7500D4" stroke="#F2ECEC" stroke-linejoin="round" stroke-miterlimit="10" d="M91.2,127.3c-0.2,4.2-1.9,6.8-4.3,9.1
			c-0.9,0.9-2.1,0.8-2.9,0c-0.7-0.8-0.5-1.9,0.3-2.9c0.7-0.8,1.4-1.6,2-2.5c2.1-2.8,0.4-9.5-3.7-10c-2.9-0.3-5.2,1-7.1,2.9
			c-0.9,0.9-1.6,2.1-2.2,3.2c-1.3,2.3-0.7,4.9,1.4,6.5c1.1,0.8,2.5,1.4,3.8,2c1.2,0.5,1.8,1.3,1.6,2.4c-0.2,1-1.2,1.6-2.4,1.3
			c-6.3-1.3-11.7-8.2-7-15.4c2.4-3.7,5.5-6,9.8-6.7c3.7-0.7,7.7,1.4,9.2,4.8C90.5,124.1,90.8,126.1,91.2,127.3z"/>
		<path fill="#7500D4" stroke="#F2ECEC" stroke-linejoin="round" stroke-miterlimit="10" d="M108.8,111.8c-0.2,4.7-3.6,7.6-8.7,7.6
			c-4.1,0-7.4-3.4-7.4-7.5c0-5,5.2-8.2,8.6-8.1C105.5,104,108.9,107.6,108.8,111.8z M105,111.5c0-2.1-1.8-3.9-3.9-3.8
			c-2.2,0.1-4.6,2.4-4.6,4.4c0.1,2,1.9,3.6,3.9,3.6C103.3,115.6,105,114,105,111.5z"/>
		<path fill="#7500D4" stroke="#F2ECEC" stroke-linejoin="round" stroke-miterlimit="10" d="M119.4,142.2c0-4,3.8-7.1,7.2-7.7
			c3.7-0.7,7.2,1.5,8.4,5.1c0.7,1.9,0.5,3.8-0.2,5.6c-0.4,1-1.2,1.4-2.3,1.1c-1.1-0.3-1.4-1.1-1.3-2.2c0.1-0.6,0.3-1.2,0.4-1.9
			c0.1-1.6-0.6-2.8-2-3.6c-1.3-0.7-2.6-0.6-3.9,0.2c-2.4,1.5-3.2,3.4-2,5.4c0.6,1.1,1.6,1.6,2.8,1.9c1.3,0.3,1.9,1.3,1.5,2.4
			c-0.3,1-1.3,1.5-2.4,1.3c-0.4-0.1-0.8-0.2-1.2-0.3C121.4,148.5,119.3,145.3,119.4,142.2z"/>
		<path fill="#7500D4" stroke="#F2ECEC" stroke-linejoin="round" stroke-miterlimit="10" d="M38.4,146.9c0.2-7.1,1.7-13.9,4.4-20.5
			c0.5-1.2,1.6-1.7,2.6-1.3c1,0.4,1.5,1.4,1,2.6c-1.6,4-2.9,8-3.5,12.3c-0.4,2.7-0.5,5.4-0.7,8.2c-0.1,1.4-0.8,2.2-2,2.2
			c-1.1,0-1.8-0.9-1.9-2.3C38.4,147.6,38.4,147.2,38.4,146.9z"/>
		<path fill="#7500D4" stroke="#F2ECEC" stroke-linejoin="round" stroke-miterlimit="10" d="M110.7,133.2c0,3.1-2.5,5.7-5.6,5.7
			c-3.2,0-5.8-2.5-5.8-5.7c0-3.2,2.5-5.6,5.7-5.7C108.1,127.5,110.7,130.1,110.7,133.2z M106.8,133.3c0-1.1-0.7-1.9-1.8-1.9
			c-1,0-1.9,0.8-1.9,1.8c0,1.1,0.8,2,1.8,1.9C106,135.1,106.8,134.3,106.8,133.3z"/>
		<path fill="#7500D4" stroke="#F2ECEC" stroke-linejoin="round" stroke-miterlimit="10" d="M55.5,142.7c-3.2,0-5.7-2.5-5.6-5.7
			c0-3,2.7-5.6,5.7-5.6c3.1,0,5.8,2.7,5.7,5.7C61.2,140.2,58.7,142.7,55.5,142.7z M57.4,137c0-1-0.9-1.9-1.9-1.8c-1,0-1.9,1-1.9,1.9
			c0,1,0.9,1.8,1.9,1.8C56.7,138.8,57.5,138,57.4,137z"/>
	</g>
</g>
</svg>
