<?xml version="1.0" encoding="utf-8"?>
<!-- Generator: Adobe Illustrator 26.3.1, SVG Export Plug-In . SVG Version: 6.00 Build 0)  -->
<svg version="1.1" baseProfile="tiny" id="Layer_1" xmlns="http://www.w3.org/2000/svg" xmlns:xlink="http://www.w3.org/1999/xlink"
	 x="0px" y="0px" width="191px" height="268px" viewBox="0 0 191 268" overflow="visible" xml:space="preserve">
<rect fill="#F2ECEC" width="191" height="268"/>
<g>
	<path fill="#363636" d="M28.9,194.2v7c0,0.8,0.2,1.4,0.6,1.8c0.4,0.4,1,0.6,1.7,0.6c0.7,0,1.3-0.2,1.7-0.6c0.4-0.4,0.6-1,0.6-1.8
		v-7h2.3v7c0,1-0.2,1.8-0.6,2.4s-1,1.2-1.7,1.5s-1.5,0.5-2.3,0.5c-0.8,0-1.6-0.2-2.3-0.5s-1.2-0.8-1.6-1.5c-0.4-0.7-0.6-1.5-0.6-2.4
		v-7H28.9z"/>
	<path fill="#363636" d="M45.5,197.4c0.7,0.7,1,1.6,1,2.8v5.3h-2.3v-5c0-0.7-0.2-1.3-0.5-1.6c-0.4-0.4-0.8-0.6-1.5-0.6
		c-0.6,0-1.1,0.2-1.5,0.6c-0.4,0.4-0.5,0.9-0.5,1.6v5h-2.3v-9h2.3v1.1c0.3-0.4,0.7-0.7,1.2-0.9c0.5-0.2,1-0.3,1.5-0.3
		C44,196.4,44.8,196.7,45.5,197.4z"/>
	<path fill="#363636" d="M48.6,198.5c0.4-0.7,0.9-1.2,1.5-1.6c0.6-0.4,1.3-0.6,2.1-0.6c0.6,0,1.1,0.1,1.7,0.4c0.5,0.3,1,0.6,1.3,1
		v-4.3h2.3v12h-2.3v-1.3c-0.3,0.4-0.7,0.8-1.2,1.1c-0.5,0.3-1.1,0.4-1.8,0.4c-0.8,0-1.4-0.2-2.1-0.6c-0.6-0.4-1.1-0.9-1.5-1.6
		c-0.4-0.7-0.5-1.5-0.5-2.4C48.1,200,48.2,199.2,48.6,198.5z M54.8,199.6c-0.2-0.4-0.5-0.7-0.9-0.9s-0.8-0.3-1.2-0.3
		c-0.4,0-0.8,0.1-1.2,0.3c-0.4,0.2-0.6,0.5-0.9,0.9c-0.2,0.4-0.3,0.9-0.3,1.4s0.1,1,0.3,1.4c0.2,0.4,0.5,0.7,0.9,0.9
		s0.7,0.3,1.2,0.3c0.4,0,0.8-0.1,1.2-0.3c0.4-0.2,0.7-0.5,0.9-0.9c0.2-0.4,0.3-0.9,0.3-1.4S55,200,54.8,199.6z"/>
	<path fill="#363636" d="M67.9,201.7h-6.6c0.1,0.6,0.3,1.2,0.7,1.5c0.4,0.4,0.9,0.6,1.5,0.6c0.8,0,1.4-0.4,1.8-1.1h2.4
		c-0.3,0.9-0.8,1.6-1.5,2.1c-0.7,0.6-1.6,0.8-2.7,0.8c-0.9,0-1.6-0.2-2.3-0.6c-0.7-0.4-1.2-0.9-1.6-1.6S59,201.9,59,201
		c0-0.9,0.2-1.7,0.6-2.4c0.4-0.7,0.9-1.2,1.6-1.6s1.5-0.6,2.3-0.6c0.9,0,1.6,0.2,2.3,0.5c0.7,0.4,1.2,0.9,1.6,1.6s0.6,1.4,0.6,2.3
		C68,201.1,67.9,201.4,67.9,201.7z M65.6,200.1c0-0.6-0.2-1-0.6-1.4c-0.4-0.4-0.9-0.5-1.5-0.5c-0.6,0-1,0.2-1.4,0.5
		c-0.4,0.3-0.6,0.8-0.7,1.4H65.6z"/>
	<path fill="#363636" d="M73,196.8c0.5-0.3,1-0.4,1.6-0.4v2.4H74c-0.7,0-1.2,0.2-1.6,0.5c-0.4,0.3-0.5,0.9-0.5,1.7v4.5h-2.3v-9h2.3
		v1.4C72.2,197.4,72.5,197,73,196.8z"/>
	<path fill="#363636" d="M77.6,205.2c-0.6-0.3-1-0.6-1.4-1.1s-0.5-1-0.6-1.5H78c0,0.3,0.2,0.6,0.5,0.9c0.3,0.2,0.7,0.3,1.1,0.3
		c0.4,0,0.8-0.1,1-0.3c0.2-0.2,0.4-0.4,0.4-0.7c0-0.3-0.1-0.5-0.4-0.7s-0.8-0.3-1.4-0.5c-0.7-0.2-1.2-0.3-1.6-0.5
		c-0.4-0.2-0.8-0.4-1.1-0.8s-0.5-0.8-0.5-1.4c0-0.5,0.1-1,0.4-1.4c0.3-0.4,0.7-0.7,1.2-1c0.5-0.2,1.2-0.4,1.9-0.4
		c1.1,0,1.9,0.3,2.6,0.8c0.6,0.5,1,1.3,1.1,2.2h-2.2c0-0.4-0.2-0.6-0.4-0.9s-0.6-0.3-1.1-0.3c-0.4,0-0.7,0.1-0.9,0.2
		s-0.3,0.4-0.3,0.6c0,0.3,0.2,0.5,0.5,0.7c0.3,0.2,0.8,0.3,1.4,0.5c0.6,0.2,1.2,0.3,1.6,0.5c0.4,0.2,0.8,0.4,1.1,0.8
		c0.3,0.4,0.5,0.8,0.5,1.4c0,0.5-0.1,1-0.4,1.4s-0.7,0.7-1.2,1c-0.5,0.2-1.2,0.3-1.9,0.3C78.9,205.6,78.2,205.5,77.6,205.2z"/>
	<path fill="#363636" d="M87.6,198.4v4.3c0,0.3,0.1,0.5,0.2,0.7c0.1,0.1,0.4,0.2,0.7,0.2h1.1v1.9h-1.4c-1.9,0-2.9-0.9-2.9-2.8v-4.3
		h-1.1v-1.9h1.1v-2.2h2.3v2.2h2v1.9H87.6z"/>
	<path fill="#363636" d="M91.2,198.5c0.4-0.7,0.9-1.2,1.5-1.6s1.3-0.6,2.1-0.6c0.7,0,1.3,0.1,1.8,0.4c0.5,0.3,0.9,0.6,1.2,1v-1.3
		h2.3v9h-2.3v-1.3c-0.3,0.4-0.7,0.8-1.2,1s-1.1,0.4-1.8,0.4c-0.8,0-1.4-0.2-2.1-0.6s-1.1-0.9-1.5-1.6c-0.4-0.7-0.5-1.5-0.5-2.4
		C90.7,200,90.9,199.2,91.2,198.5z M97.4,199.6c-0.2-0.4-0.5-0.7-0.9-0.9s-0.8-0.3-1.2-0.3c-0.4,0-0.8,0.1-1.2,0.3
		c-0.4,0.2-0.6,0.5-0.9,0.9c-0.2,0.4-0.3,0.9-0.3,1.4s0.1,1,0.3,1.4c0.2,0.4,0.5,0.7,0.9,0.9s0.7,0.3,1.2,0.3c0.4,0,0.8-0.1,1.2-0.3
		c0.4-0.2,0.7-0.5,0.9-0.9c0.2-0.4,0.3-0.9,0.3-1.4S97.6,200,97.4,199.6z"/>
	<path fill="#363636" d="M109.8,197.4c0.7,0.7,1,1.6,1,2.8v5.3h-2.3v-5c0-0.7-0.2-1.3-0.5-1.6c-0.4-0.4-0.8-0.6-1.5-0.6
		c-0.6,0-1.1,0.2-1.5,0.6c-0.4,0.4-0.5,0.9-0.5,1.6v5h-2.3v-9h2.3v1.1c0.3-0.4,0.7-0.7,1.2-0.9c0.5-0.2,1-0.3,1.5-0.3
		C108.3,196.4,109.2,196.7,109.8,197.4z"/>
	<path fill="#363636" d="M112.9,198.5c0.4-0.7,0.9-1.2,1.5-1.6c0.6-0.4,1.3-0.6,2.1-0.6c0.6,0,1.1,0.1,1.7,0.4c0.5,0.3,1,0.6,1.3,1
		v-4.3h2.3v12h-2.3v-1.3c-0.3,0.4-0.7,0.8-1.2,1.1c-0.5,0.3-1.1,0.4-1.8,0.4c-0.8,0-1.4-0.2-2.1-0.6c-0.6-0.4-1.1-0.9-1.5-1.6
		c-0.4-0.7-0.5-1.5-0.5-2.4C112.4,200,112.5,199.2,112.9,198.5z M119.1,199.6c-0.2-0.4-0.5-0.7-0.9-0.9s-0.8-0.3-1.2-0.3
		c-0.4,0-0.8,0.1-1.2,0.3s-0.6,0.5-0.9,0.9c-0.2,0.4-0.3,0.9-0.3,1.4s0.1,1,0.3,1.4c0.2,0.4,0.5,0.7,0.9,0.9
		c0.4,0.2,0.7,0.3,1.2,0.3c0.4,0,0.8-0.1,1.2-0.3c0.4-0.2,0.7-0.5,0.9-0.9c0.2-0.4,0.3-0.9,0.3-1.4S119.3,200,119.1,199.6z"/>
	<path fill="#363636" d="M131.9,198.4h-1.6v7.1H128v-7.1h-1v-1.9h1V196c0-1.1,0.3-1.9,0.9-2.4c0.6-0.5,1.6-0.8,2.8-0.7v1.9
		c-0.6,0-0.9,0.1-1.2,0.3s-0.3,0.5-0.3,1.1v0.4h1.6V198.4z"/>
	<path fill="#363636" d="M133.5,195c-0.3-0.3-0.4-0.6-0.4-0.9s0.1-0.7,0.4-0.9s0.6-0.4,1-0.4s0.7,0.1,1,0.4s0.4,0.6,0.4,0.9
		s-0.1,0.7-0.4,0.9c-0.3,0.3-0.6,0.4-1,0.4S133.8,195.3,133.5,195z M135.6,196.5v9h-2.3v-9H135.6z"/>
	<path fill="#363636" d="M141.3,196.8c0.5-0.3,1-0.4,1.6-0.4v2.4h-0.6c-0.7,0-1.2,0.2-1.6,0.5c-0.4,0.3-0.5,0.9-0.5,1.7v4.5h-2.3v-9
		h2.3v1.4C140.4,197.4,140.8,197,141.3,196.8z"/>
	<path fill="#363636" d="M145.9,205.2c-0.6-0.3-1-0.6-1.4-1.1s-0.5-1-0.6-1.5h2.3c0,0.3,0.2,0.6,0.5,0.9c0.3,0.2,0.7,0.3,1.1,0.3
		c0.4,0,0.8-0.1,1-0.3c0.2-0.2,0.4-0.4,0.4-0.7c0-0.3-0.1-0.5-0.4-0.7c-0.3-0.1-0.8-0.3-1.4-0.5c-0.7-0.2-1.2-0.3-1.6-0.5
		c-0.4-0.2-0.8-0.4-1.1-0.8s-0.5-0.8-0.5-1.4c0-0.5,0.1-1,0.4-1.4c0.3-0.4,0.7-0.7,1.2-1c0.5-0.2,1.2-0.4,1.9-0.4
		c1.1,0,1.9,0.3,2.6,0.8c0.6,0.5,1,1.3,1.1,2.2h-2.2c0-0.4-0.2-0.6-0.4-0.9c-0.3-0.2-0.6-0.3-1.1-0.3c-0.4,0-0.7,0.1-0.9,0.2
		s-0.3,0.4-0.3,0.6c0,0.3,0.2,0.5,0.5,0.7c0.3,0.2,0.8,0.3,1.4,0.5c0.6,0.2,1.2,0.3,1.6,0.5s0.8,0.4,1.1,0.8
		c0.3,0.4,0.5,0.8,0.5,1.4c0,0.5-0.1,1-0.4,1.4c-0.3,0.4-0.7,0.7-1.2,1c-0.5,0.2-1.2,0.3-1.9,0.3
		C147.1,205.6,146.5,205.5,145.9,205.2z"/>
	<path fill="#363636" d="M155.9,198.4v4.3c0,0.3,0.1,0.5,0.2,0.7c0.1,0.1,0.4,0.2,0.7,0.2h1.1v1.9h-1.4c-1.9,0-2.9-0.9-2.9-2.8v-4.3
		h-1.1v-1.9h1.1v-2.2h2.3v2.2h2v1.9H155.9z"/>
	<path fill="#363636" d="M165.9,203.1l-1.9,4.6h-1.5l1.1-4.6H165.9z"/>
	<path fill="#363636" d="M37.2,218.4v4.3c0,0.3,0.1,0.5,0.2,0.7c0.1,0.1,0.4,0.2,0.7,0.2h1.1v1.9h-1.4c-1.9,0-2.9-0.9-2.9-2.8v-4.3
		h-1.1v-1.9h1.1v-2.2h2.3v2.2h2v1.9H37.2z"/>
	<path fill="#363636" d="M47.7,216.8c0.5,0.3,0.9,0.7,1.2,1.3c0.3,0.6,0.4,1.3,0.4,2.1v5.3h-2.3v-5c0-0.7-0.2-1.3-0.5-1.6
		c-0.4-0.4-0.8-0.6-1.5-0.6c-0.6,0-1.1,0.2-1.5,0.6c-0.4,0.4-0.5,0.9-0.5,1.6v5h-2.3v-12h2.3v4.1c0.3-0.4,0.7-0.7,1.2-0.9
		c0.5-0.2,1-0.3,1.6-0.3C46.5,216.4,47.1,216.5,47.7,216.8z"/>
	<path fill="#363636" d="M59.8,221.7h-6.6c0.1,0.6,0.3,1.2,0.7,1.5c0.4,0.4,0.9,0.6,1.5,0.6c0.8,0,1.4-0.4,1.8-1.1h2.4
		c-0.3,0.9-0.8,1.6-1.5,2.1c-0.7,0.6-1.6,0.8-2.7,0.8c-0.9,0-1.6-0.2-2.3-0.6c-0.7-0.4-1.2-0.9-1.6-1.6s-0.6-1.5-0.6-2.4
		c0-0.9,0.2-1.7,0.6-2.4c0.4-0.7,0.9-1.2,1.6-1.6s1.5-0.6,2.3-0.6c0.9,0,1.6,0.2,2.3,0.5c0.7,0.4,1.2,0.9,1.6,1.6s0.6,1.4,0.6,2.3
		C59.8,221.1,59.8,221.4,59.8,221.7z M57.5,220.2c0-0.6-0.2-1-0.6-1.4c-0.4-0.4-0.9-0.5-1.5-0.5c-0.6,0-1,0.2-1.4,0.5
		c-0.4,0.3-0.6,0.8-0.7,1.4H57.5z"/>
	<path fill="#363636" d="M69.1,217.4c0.7,0.7,1,1.6,1,2.8v5.3h-2.3v-5c0-0.7-0.2-1.3-0.5-1.6c-0.4-0.4-0.8-0.6-1.5-0.6
		c-0.6,0-1.1,0.2-1.5,0.6c-0.4,0.4-0.5,0.9-0.5,1.6v5h-2.3v-9h2.3v1.1c0.3-0.4,0.7-0.7,1.2-0.9c0.5-0.2,1-0.3,1.5-0.3
		C67.5,216.4,68.4,216.7,69.1,217.4z"/>
	<path fill="#363636" d="M77.5,225.3c-0.6-0.3-1-0.6-1.4-1.1s-0.5-1-0.6-1.5h2.3c0,0.3,0.2,0.6,0.5,0.9c0.3,0.2,0.7,0.3,1.1,0.3
		c0.4,0,0.8-0.1,1-0.3c0.2-0.2,0.4-0.4,0.4-0.7c0-0.3-0.1-0.5-0.4-0.7s-0.8-0.3-1.4-0.5c-0.7-0.2-1.2-0.3-1.6-0.5
		c-0.4-0.2-0.8-0.4-1.1-0.8s-0.5-0.8-0.5-1.4c0-0.5,0.1-1,0.4-1.4c0.3-0.4,0.7-0.7,1.2-1c0.5-0.2,1.2-0.4,1.9-0.4
		c1.1,0,1.9,0.3,2.6,0.8c0.6,0.5,1,1.3,1.1,2.2h-2.2c0-0.4-0.2-0.6-0.4-0.9s-0.6-0.3-1.1-0.3c-0.4,0-0.7,0.1-0.9,0.2
		S78,218.8,78,219c0,0.3,0.2,0.5,0.5,0.7c0.3,0.2,0.8,0.3,1.4,0.5c0.6,0.2,1.2,0.3,1.6,0.5c0.4,0.2,0.8,0.4,1.1,0.8
		c0.3,0.4,0.5,0.8,0.5,1.4c0,0.5-0.1,1-0.4,1.4s-0.7,0.7-1.2,1c-0.5,0.2-1.2,0.3-1.9,0.3C78.8,225.6,78.1,225.5,77.5,225.3z"/>
	<path fill="#363636" d="M93.2,221.7h-6.6c0.1,0.6,0.3,1.2,0.7,1.5c0.4,0.4,0.9,0.6,1.5,0.6c0.8,0,1.4-0.4,1.8-1.1H93
		c-0.3,0.9-0.8,1.6-1.5,2.1c-0.7,0.6-1.6,0.8-2.7,0.8c-0.9,0-1.6-0.2-2.3-0.6c-0.7-0.4-1.2-0.9-1.6-1.6s-0.6-1.5-0.6-2.4
		c0-0.9,0.2-1.7,0.6-2.4c0.4-0.7,0.9-1.2,1.6-1.6s1.5-0.6,2.3-0.6c0.9,0,1.6,0.2,2.3,0.5c0.7,0.4,1.2,0.9,1.6,1.6s0.6,1.4,0.6,2.3
		C93.2,221.1,93.2,221.4,93.2,221.7z M90.9,220.2c0-0.6-0.2-1-0.6-1.4c-0.4-0.4-0.9-0.5-1.5-0.5c-0.6,0-1,0.2-1.4,0.5
		c-0.4,0.3-0.6,0.8-0.7,1.4H90.9z"/>
	<path fill="#363636" d="M103.2,221.7h-6.6c0.1,0.6,0.3,1.2,0.7,1.5c0.4,0.4,0.9,0.6,1.5,0.6c0.8,0,1.4-0.4,1.8-1.1h2.4
		c-0.3,0.9-0.8,1.6-1.5,2.1c-0.7,0.6-1.6,0.8-2.7,0.8c-0.9,0-1.6-0.2-2.3-0.6c-0.7-0.4-1.2-0.9-1.6-1.6s-0.6-1.5-0.6-2.4
		c0-0.9,0.2-1.7,0.6-2.4c0.4-0.7,0.9-1.2,1.6-1.6c0.7-0.4,1.5-0.6,2.3-0.6c0.9,0,1.6,0.2,2.3,0.5c0.7,0.4,1.2,0.9,1.6,1.6
		s0.6,1.4,0.6,2.3C103.2,221.1,103.2,221.4,103.2,221.7z M100.9,220.2c0-0.6-0.2-1-0.6-1.4s-0.9-0.5-1.5-0.5c-0.6,0-1,0.2-1.4,0.5
		c-0.4,0.3-0.6,0.8-0.7,1.4H100.9z"/>
	<path fill="#363636" d="M110.2,225.5l-3-3.8v3.8h-2.3v-12h2.3v6.8l3-3.8h2.9l-4,4.5l4,4.5H110.2z"/>
	<path fill="#363636" d="M120.8,218.4v4.3c0,0.3,0.1,0.5,0.2,0.7c0.1,0.1,0.4,0.2,0.7,0.2h1.1v1.9h-1.4c-1.9,0-2.9-0.9-2.9-2.8v-4.3
		h-1.1v-1.9h1.1v-2.2h2.3v2.2h2v1.9H120.8z"/>
	<path fill="#363636" d="M126.1,225.1c-0.7-0.4-1.2-0.9-1.6-1.6c-0.4-0.7-0.6-1.5-0.6-2.4s0.2-1.7,0.6-2.4c0.4-0.7,1-1.2,1.7-1.6
		c0.7-0.4,1.5-0.6,2.3-0.6c0.9,0,1.6,0.2,2.3,0.6c0.7,0.4,1.3,0.9,1.7,1.6c0.4,0.7,0.6,1.5,0.6,2.4s-0.2,1.7-0.6,2.4
		c-0.4,0.7-1,1.2-1.7,1.6c-0.7,0.4-1.5,0.6-2.4,0.6C127.6,225.6,126.8,225.5,126.1,225.1z M129.6,223.4c0.4-0.2,0.7-0.5,0.9-0.9
		c0.2-0.4,0.3-0.9,0.3-1.5c0-0.9-0.2-1.5-0.7-2s-1-0.7-1.6-0.7c-0.6,0-1.2,0.2-1.6,0.7c-0.4,0.5-0.7,1.1-0.7,2s0.2,1.5,0.6,2
		s1,0.7,1.6,0.7C128.9,223.7,129.2,223.6,129.6,223.4z"/>
	<path fill="#363636" d="M142.1,216.8c0.5-0.3,1.1-0.4,1.8-0.4c0.8,0,1.5,0.2,2.1,0.6c0.6,0.4,1.1,0.9,1.5,1.6
		c0.4,0.7,0.5,1.5,0.5,2.4s-0.2,1.7-0.5,2.4c-0.4,0.7-0.9,1.3-1.5,1.6c-0.6,0.4-1.3,0.6-2.1,0.6c-0.7,0-1.3-0.1-1.8-0.4
		s-0.9-0.6-1.2-1v1.3h-2.3v-12h2.3v4.3C141.2,217.4,141.6,217.1,142.1,216.8z M145.3,219.6c-0.2-0.4-0.5-0.7-0.9-0.9
		s-0.8-0.3-1.2-0.3c-0.4,0-0.8,0.1-1.2,0.3c-0.4,0.2-0.7,0.5-0.9,0.9c-0.2,0.4-0.3,0.9-0.3,1.4s0.1,1,0.3,1.4
		c0.2,0.4,0.5,0.7,0.9,0.9c0.4,0.2,0.7,0.3,1.2,0.3c0.4,0,0.8-0.1,1.2-0.3s0.7-0.5,0.9-0.9c0.2-0.4,0.3-0.9,0.3-1.4
		C145.7,220.4,145.6,220,145.3,219.6z"/>
	<path fill="#363636" d="M157.9,221.7h-6.6c0.1,0.6,0.3,1.2,0.7,1.5c0.4,0.4,0.9,0.6,1.5,0.6c0.8,0,1.4-0.4,1.8-1.1h2.4
		c-0.3,0.9-0.8,1.6-1.5,2.1c-0.7,0.6-1.6,0.8-2.7,0.8c-0.9,0-1.6-0.2-2.3-0.6c-0.7-0.4-1.2-0.9-1.6-1.6c-0.4-0.7-0.6-1.5-0.6-2.4
		c0-0.9,0.2-1.7,0.6-2.4c0.4-0.7,0.9-1.2,1.6-1.6c0.7-0.4,1.5-0.6,2.3-0.6c0.9,0,1.6,0.2,2.3,0.5c0.7,0.4,1.2,0.9,1.6,1.6
		c0.4,0.7,0.6,1.4,0.6,2.3C158,221.1,158,221.4,157.9,221.7z M155.6,220.2c0-0.6-0.2-1-0.6-1.4s-0.9-0.5-1.5-0.5
		c-0.6,0-1,0.2-1.4,0.5c-0.4,0.3-0.6,0.8-0.7,1.4H155.6z"/>
	<path fill="#363636" d="M55.6,236.6v9h-2.3v-1.1c-0.3,0.4-0.7,0.7-1.1,0.9c-0.5,0.2-1,0.3-1.5,0.3c-0.7,0-1.3-0.1-1.9-0.4
		s-1-0.7-1.3-1.3c-0.3-0.6-0.5-1.3-0.5-2.1v-5.3h2.3v4.9c0,0.7,0.2,1.3,0.5,1.6c0.4,0.4,0.8,0.6,1.5,0.6c0.6,0,1.1-0.2,1.5-0.6
		c0.4-0.4,0.5-0.9,0.5-1.6v-4.9H55.6z"/>
	<path fill="#363636" d="M65.4,237.4c0.7,0.7,1,1.6,1,2.8v5.3h-2.3v-5c0-0.7-0.2-1.3-0.5-1.6c-0.4-0.4-0.8-0.6-1.5-0.6
		c-0.6,0-1.1,0.2-1.5,0.6c-0.4,0.4-0.5,0.9-0.5,1.6v5h-2.3v-9h2.3v1.1c0.3-0.4,0.7-0.7,1.2-0.9c0.5-0.2,1-0.3,1.5-0.3
		C63.9,236.4,64.7,236.8,65.4,237.4z"/>
	<path fill="#363636" d="M68.5,238.6c0.4-0.7,0.9-1.2,1.5-1.6c0.6-0.4,1.3-0.6,2.1-0.6c0.6,0,1.1,0.1,1.7,0.4c0.5,0.3,1,0.6,1.3,1
		v-4.3h2.3v12H75v-1.3c-0.3,0.4-0.7,0.8-1.2,1.1c-0.5,0.3-1.1,0.4-1.8,0.4c-0.8,0-1.4-0.2-2.1-0.6c-0.6-0.4-1.1-0.9-1.5-1.6
		c-0.4-0.7-0.5-1.5-0.5-2.4C67.9,240.1,68.1,239.3,68.5,238.6z M74.7,239.6c-0.2-0.4-0.5-0.7-0.9-0.9s-0.8-0.3-1.2-0.3
		c-0.4,0-0.8,0.1-1.2,0.3c-0.4,0.2-0.6,0.5-0.9,0.9c-0.2,0.4-0.3,0.9-0.3,1.4s0.1,1,0.3,1.4c0.2,0.4,0.5,0.7,0.9,0.9
		s0.7,0.3,1.2,0.3c0.4,0,0.8-0.1,1.2-0.3c0.4-0.2,0.7-0.5,0.9-0.9c0.2-0.4,0.3-0.9,0.3-1.4S74.9,240,74.7,239.6z"/>
	<path fill="#363636" d="M87.8,241.7h-6.6c0.1,0.6,0.3,1.2,0.7,1.5c0.4,0.4,0.9,0.6,1.5,0.6c0.8,0,1.4-0.4,1.8-1.1h2.4
		c-0.3,0.9-0.8,1.6-1.5,2.1c-0.7,0.6-1.6,0.8-2.7,0.8c-0.9,0-1.6-0.2-2.3-0.6c-0.7-0.4-1.2-0.9-1.6-1.6s-0.6-1.5-0.6-2.4
		c0-0.9,0.2-1.7,0.6-2.4c0.4-0.7,0.9-1.2,1.6-1.6s1.5-0.6,2.3-0.6c0.9,0,1.6,0.2,2.3,0.5c0.7,0.4,1.2,0.9,1.6,1.6s0.6,1.4,0.6,2.3
		C87.9,241.2,87.8,241.5,87.8,241.7z M85.5,240.2c0-0.6-0.2-1-0.6-1.4c-0.4-0.4-0.9-0.5-1.5-0.5c-0.6,0-1,0.2-1.4,0.5
		c-0.4,0.3-0.6,0.8-0.7,1.4H85.5z"/>
	<path fill="#363636" d="M92.9,236.8c0.5-0.3,1-0.4,1.6-0.4v2.4h-0.6c-0.7,0-1.2,0.2-1.6,0.5c-0.4,0.3-0.5,0.9-0.5,1.7v4.5h-2.3v-9
		h2.3v1.4C92.1,237.5,92.4,237.1,92.9,236.8z"/>
	<path fill="#363636" d="M97.5,245.3c-0.6-0.3-1-0.6-1.4-1.1c-0.3-0.5-0.5-1-0.6-1.5h2.3c0,0.3,0.2,0.6,0.5,0.9
		c0.3,0.2,0.7,0.3,1.1,0.3c0.4,0,0.8-0.1,1-0.3c0.2-0.2,0.4-0.4,0.4-0.7c0-0.3-0.1-0.5-0.4-0.7s-0.8-0.3-1.4-0.5
		c-0.7-0.2-1.2-0.3-1.6-0.5c-0.4-0.2-0.8-0.4-1.1-0.8c-0.3-0.4-0.5-0.8-0.5-1.4c0-0.5,0.1-1,0.4-1.4c0.3-0.4,0.7-0.7,1.2-1
		c0.5-0.2,1.2-0.4,1.9-0.4c1.1,0,1.9,0.3,2.6,0.8c0.6,0.5,1,1.3,1.1,2.2h-2.2c0-0.4-0.2-0.6-0.4-0.9c-0.3-0.2-0.6-0.3-1.1-0.3
		c-0.4,0-0.7,0.1-0.9,0.2c-0.2,0.2-0.3,0.4-0.3,0.6c0,0.3,0.2,0.5,0.5,0.7c0.3,0.2,0.8,0.3,1.4,0.5c0.6,0.2,1.2,0.3,1.6,0.5
		c0.4,0.2,0.8,0.4,1.1,0.8c0.3,0.4,0.5,0.8,0.5,1.4c0,0.5-0.1,1-0.4,1.4c-0.3,0.4-0.7,0.7-1.2,1c-0.5,0.2-1.2,0.3-1.9,0.3
		C98.7,245.7,98.1,245.5,97.5,245.3z"/>
	<path fill="#363636" d="M107.5,238.4v4.3c0,0.3,0.1,0.5,0.2,0.7c0.1,0.1,0.4,0.2,0.7,0.2h1.1v1.9h-1.4c-1.9,0-2.9-0.9-2.9-2.8v-4.3
		h-1.1v-1.9h1.1v-2.2h2.3v2.2h2v1.9H107.5z"/>
	<path fill="#363636" d="M112.8,245.1c-0.7-0.4-1.2-0.9-1.6-1.6c-0.4-0.7-0.6-1.5-0.6-2.4s0.2-1.7,0.6-2.4c0.4-0.7,1-1.2,1.7-1.6
		c0.7-0.4,1.5-0.6,2.3-0.6c0.9,0,1.6,0.2,2.3,0.6c0.7,0.4,1.3,0.9,1.7,1.6c0.4,0.7,0.6,1.5,0.6,2.4s-0.2,1.7-0.6,2.4
		c-0.4,0.7-1,1.2-1.7,1.6c-0.7,0.4-1.5,0.6-2.4,0.6C114.3,245.7,113.5,245.5,112.8,245.1z M116.3,243.4c0.4-0.2,0.7-0.5,0.9-0.9
		c0.2-0.4,0.3-0.9,0.3-1.5c0-0.9-0.2-1.5-0.7-2s-1-0.7-1.6-0.7c-0.6,0-1.2,0.2-1.6,0.7c-0.4,0.5-0.7,1.1-0.7,2s0.2,1.5,0.6,2
		s1,0.7,1.6,0.7C115.6,243.7,115.9,243.6,116.3,243.4z"/>
	<path fill="#363636" d="M123.1,245.1c-0.7-0.4-1.2-0.9-1.6-1.6c-0.4-0.7-0.6-1.5-0.6-2.4s0.2-1.7,0.6-2.4c0.4-0.7,1-1.2,1.7-1.6
		c0.7-0.4,1.5-0.6,2.3-0.6c0.9,0,1.6,0.2,2.3,0.6c0.7,0.4,1.3,0.9,1.7,1.6c0.4,0.7,0.6,1.5,0.6,2.4s-0.2,1.7-0.6,2.4
		c-0.4,0.7-1,1.2-1.7,1.6c-0.7,0.4-1.5,0.6-2.4,0.6C124.6,245.7,123.8,245.5,123.1,245.1z M126.6,243.4c0.4-0.2,0.7-0.5,0.9-0.9
		c0.2-0.4,0.3-0.9,0.3-1.5c0-0.9-0.2-1.5-0.7-2s-1-0.7-1.6-0.7c-0.6,0-1.2,0.2-1.6,0.7c-0.4,0.5-0.7,1.1-0.7,2s0.2,1.5,0.6,2
		s1,0.7,1.6,0.7C125.9,243.7,126.3,243.6,126.6,243.4z"/>
	<path fill="#363636" d="M131.8,238.6c0.4-0.7,0.9-1.2,1.5-1.6c0.6-0.4,1.3-0.6,2.1-0.6c0.6,0,1.1,0.1,1.7,0.4c0.5,0.3,1,0.6,1.3,1
		v-4.3h2.3v12h-2.3v-1.3c-0.3,0.4-0.7,0.8-1.2,1.1c-0.5,0.3-1.1,0.4-1.8,0.4c-0.8,0-1.4-0.2-2.1-0.6c-0.6-0.4-1.1-0.9-1.5-1.6
		c-0.4-0.7-0.5-1.5-0.5-2.4C131.2,240.1,131.4,239.3,131.8,238.6z M138,239.6c-0.2-0.4-0.5-0.7-0.9-0.9s-0.8-0.3-1.2-0.3
		c-0.4,0-0.8,0.1-1.2,0.3s-0.6,0.5-0.9,0.9c-0.2,0.4-0.3,0.9-0.3,1.4s0.1,1,0.3,1.4c0.2,0.4,0.5,0.7,0.9,0.9
		c0.4,0.2,0.7,0.3,1.2,0.3c0.4,0,0.8-0.1,1.2-0.3c0.4-0.2,0.7-0.5,0.9-0.9c0.2-0.4,0.3-0.9,0.3-1.4S138.2,240,138,239.6z"/>
	<path fill="#363636" d="M142.8,245.3c-0.3-0.3-0.4-0.6-0.4-0.9s0.1-0.7,0.4-0.9s0.6-0.4,1-0.4c0.4,0,0.7,0.1,1,0.4
		c0.3,0.3,0.4,0.6,0.4,0.9s-0.1,0.7-0.4,0.9c-0.3,0.3-0.6,0.4-1,0.4C143.4,245.6,143.1,245.5,142.8,245.3z"/>
</g>
<g id="mO4KfF_00000065066956034899744910000002603804849918057150_">
	<g>
		<path fill="#7500D4" d="M110.1,136.1c0-1.5,0-3.1,0-4.8c-14.8,0-29.6,0-44.6,0c0,1.4,0,2.8,0,4.3c0,1.6-0.7,2.5-1.9,2.4
			c-1.2,0-1.8-0.9-1.8-2.4c0-1.9,0-3.9,0-5.8c0-1.7,0.6-2.5,2.3-2.3c1.6,0.1,2.3-0.5,3-1.9c3.5-7.5,7-15,10.6-22.5
			c0.2-0.4,0.3-0.8,0.4-0.9c-2-2.4-4.1-4.6-5.8-7c-2.5-3.5-3.8-7.5-4.3-11.7c-0.2-1.5,0.4-2.5,1.6-2.7c1.2-0.1,2,0.6,2.1,2.2
			c1.9,15.6,18.9,25.5,33.4,19.2c0.3-0.1,0.6-0.3,1-0.5C98,88,90,74.2,81.9,60.2c-2.8,1.9-5,4.2-6.8,7c-1.6,2.6-2.7,5.4-3.3,8.3
			c-0.3,1.5-1.7,2.1-2.8,1.4c-0.8-0.5-1-1.2-0.8-2.2c1.5-7,5.1-12.7,10.8-17c0.3-0.3,0.7-0.5,1.1-0.8c-0.1-0.4-0.1-0.7-0.2-1.1
			c-0.4-2.8,1-5.3,3.5-6.2c2.6-1,5.4,0,6.8,2.5c2.6,4.4,5.1,8.8,7.6,13.2c0.4,0.8,0.9,1.1,1.9,1c4.2-0.3,8.4-0.5,12.7-0.8
			c0.5-2.7,1.7-4.9,4.4-6.1c1.8-0.8,3.6-0.9,5.5-0.3c3.8,1.3,5.9,5.3,4.8,9.2c-1.2,4.2-5.1,6-10.4,4.7c-2.4,3.6-4.8,7.3-7.2,11
			c-0.2,0.3-0.1,0.9,0,1.2c0.6,1.2,1.3,2.3,2,3.5c0.8,1.5,0.7,2.5-0.4,3.2c-1.1,0.6-2,0.2-2.8-1.3c-6.2-10.8-12.4-21.5-18.7-32.3
			c-0.7-1.2-1.4-2.5-2.1-3.7c-0.9-1.5-1.8-2-2.9-1.4c-1.1,0.6-1.2,1.6-0.3,3.2c4.5,7.9,9.1,15.7,13.6,23.6
			c4.2,7.3,8.4,14.6,12.7,21.9c0.3,0.6,0.9,1.2,1.5,1.4c0.5,0.2,1.5-0.1,1.8-0.5c0.4-0.5,0.5-1.4,0.3-2c-0.4-1.1-1.1-2-1.6-3
			c-0.6-1.2-0.4-2.2,0.6-2.7c1-0.6,2-0.2,2.6,0.9c0.6,1,1.2,2,1.8,3.1c1.3,2.4,0.7,5.3-1.4,6.9c-2.1,1.7-5,1.7-7-0.1
			c-0.7-0.6-1.2-0.5-2-0.2c-2.1,0.8-4.3,1.5-6.6,2.2c1.4,2.9,2.8,5.9,4.2,8.9c1.5,3.3,3.1,6.5,4.6,9.8c0.3,0.7,0.7,1.1,1.5,1
			c0.3,0,0.7,0,1,0c1.7,0,2.4,0.6,2.4,2.3c0,2.4,0,4.8,0,7.3c2.1,0.5,3.7,1.8,4.9,3.5c0.3,0.4,0.7,0.6,1.1,0.8
			c2.3,0.9,4,2.6,5.6,4.4c0.9,1,1,2.1,0.2,2.9c-0.8,0.8-1.9,0.7-2.9-0.2c-1.6-1.6-3.2-3.1-5.2-4c-0.8-0.4-1.6-1.2-2.1-1.9
			c-0.8-1-1.7-1.5-2.9-1.8c-4.8-1.1-9.6-1.7-14.6-2c-1.2,0-2,0.3-2.7,1.3c-0.4,0.6-0.8,1.2-1.2,1.8c-0.3,0.4-0.5,0.7-0.9,1.1
			c-2.1,2.1-8.4,3.6-11.2,2.4c-1.2-0.5-2.1-0.4-3.2,0.3c-2.9,1.8-5.7,1.5-8.1-0.8c-1.1-1-2.1-1.2-3.5-0.7c-9,3.7-16.9,8.8-23.8,15.6
			c-0.2,0.2-0.5,0.5-0.7,0.7c-1,0.9-2.1,1-2.9,0.2c-0.7-0.8-0.7-2,0.4-2.9c3-2.7,6-5.4,9.2-7.8c5.1-3.9,10.7-6.9,16.6-9.2
			c2.7-1.1,5.1-0.7,7.2,1.3c1.4,1.4,2.3,1.4,4,0.4c1.9-1.2,3.9-1.3,6-0.6c0.8,0.3,1.7,0.2,2.5,0.2c0.5,0,1-0.3,1.5-0.3
			c2.3-0.3,3.9-1.4,5-3.5c1.3-2.3,3.5-3.3,6.1-3.1C102.2,135.4,106.1,135.7,110.1,136.1z M95.9,116.3c-2.7-1.1-5.3-2.2-7.8-3.3
			c-0.1-0.1-0.3-0.1-0.5-0.1c-2.4,1-4.9,2-7.6,3.2c3,1.1,5.7,2,8.4,3c0.2,0.1,0.6,0,0.8-0.1C91.4,118.2,93.5,117.3,95.9,116.3z
			 M79.3,127.2c0,0.1,0,0.1,0,0.2c6.9,0,13.8,0,20.8,0c-0.2-0.2-0.3-0.3-0.4-0.3c-3.5-1.2-6.9-2.4-10.4-3.6c-0.3-0.1-0.7-0.1-0.9,0
			C85.4,124.7,82.3,126,79.3,127.2z M74.6,118.3c-1.3,2.8-2.6,5.5-4,8.5c4.5-1.8,8.6-3.5,12.9-5.3C80.4,120.3,77.6,119.3,74.6,118.3
			z M123.5,66.1c0-2-1.6-3.7-3.6-3.7c-2.1,0-3.7,1.7-3.7,3.8c0,2,1.6,3.7,3.6,3.7C121.8,69.9,123.5,68.2,123.5,66.1z M94,121.1
			c3.4,1.2,6.5,2.3,10,3.5c-1.1-2.3-2.1-4.3-3-6.4C98.7,119.2,96.5,120.1,94,121.1z M111.9,73.2c-0.1-0.1-0.1-0.1-0.2-0.2
			c-2.3,1.3-4.7,2.7-7.1,4.1c0.7,1.3,1.4,2.5,2.2,3.8C108.6,78.2,110.2,75.7,111.9,73.2z M102.7,73.8c2.5-1.4,4.8-2.8,7.2-4.2
			c0-0.1-0.1-0.1-0.1-0.2c-3,0.2-6.1,0.4-9.3,0.6C101.3,71.4,102,72.5,102.7,73.8z M90.3,107.7c-3-1.1-6-2.3-9.1-3.4
			c-0.2,0.3-0.4,0.9-0.7,1.5c1.8,0.8,3.7,1.4,5.3,2.3C87.5,109,88.9,108.7,90.3,107.7z M78.9,109.2c-0.6,1.4-1.2,2.6-2,4.2
			c2.2-0.9,4-1.7,6-2.5C81.4,110.3,80.2,109.8,78.9,109.2z M98.7,113.4c-0.8-1.6-1.4-2.9-2-4.2c-1.4,0.6-2.6,1.1-4,1.7
			C94.8,111.8,96.6,112.5,98.7,113.4z"/>
		<path fill="#7500D4" d="M86.8,148.6c0.6,0.1,1.2,0.2,1.9,0.3c2.8,0.4,5.7,0.7,8.5,1.3c4.4,1.1,6.8,4.3,7.9,8.3
			c0.3,1.3-0.2,2.1-1.4,2.4c-1,0.3-1.8-0.2-2.2-1.5c-0.9-3-2.5-5.3-5.8-5.7c-2.7-0.3-5.5-0.6-8.2-1.2c-1.2-0.3-2.7,0.1-3.9,0.6
			c-2.6,1.3-5.3,2.2-8.2,2.4c-2.3,0.1-4,1.6-5.1,3.6c-0.1,0.3-0.3,0.5-0.4,0.8c-0.6,1-1.6,1.3-2.4,0.9c-0.9-0.5-1.3-1.5-0.9-2.6
			c1.7-3.7,4.6-6.1,8.7-6.5c2.3-0.2,4.4-0.9,6.4-1.9c1.6-0.7,3.3-1,4.9-1.5C86.7,148.5,86.8,148.6,86.8,148.6z"/>
		<path fill="#7500D4" d="M151,158.8c0,1.7-1.6,2.6-2.8,1.8c-0.8-0.5-1.4-1.2-2.1-1.8c-2-1.7-4-3.4-6-5.1c-1.1-1-2.5-0.8-3.8-0.7
			c-1.5,0.1-3.1,0.1-4.6,0.2c-0.3,0-0.6-0.1-0.8-0.2c-1.4-0.5-1.9-1.5-1.6-2.6c0.4-1.1,1.3-1.3,2.8-1.1c1.3,0.2,2.7,0.2,3.9-0.1
			c2.6-0.4,4.9,0.1,6.9,1.8c2.4,2.1,4.8,4.2,7.1,6.3C150.5,157.8,150.8,158.5,151,158.8z"/>
		<path fill="#7500D4" d="M134.3,49.6c0.3,0.1,0.8,0.3,1.2,0.7c3.3,3.2,5.4,7.2,6.3,11.7c0.2,1.1-0.4,2-1.4,2.3
			c-1,0.2-1.8-0.2-2.2-1.4c-0.7-2.7-1.6-5.3-3.3-7.5c-0.7-1-1.6-1.8-2.3-2.8C131.7,51.3,132.5,49.6,134.3,49.6z"/>
		<path fill="#7500D4" d="M134.5,64.3c-0.4,0.4-1,1.1-1.7,1.3c-1,0.3-1.7-0.3-2.1-1.3c-0.7-1.7-1.4-3.3-2.3-5
			c-0.3-0.6-0.8-1-1.2-1.6c-0.6-0.8-0.3-1.6,0.3-2.3c0.7-0.7,1.6-0.8,2.3-0.1C132.5,57.6,133.9,60.5,134.5,64.3z"/>
	</g>
</g>
</svg>
