<?xml version="1.0" encoding="utf-8"?>
<!-- Generator: Adobe Illustrator 26.3.1, SVG Export Plug-In . SVG Version: 6.00 Build 0)  -->
<svg version="1.1" baseProfile="tiny" id="Layer_1" xmlns="http://www.w3.org/2000/svg" xmlns:xlink="http://www.w3.org/1999/xlink"
	 x="0px" y="0px" width="191px" height="268px" viewBox="0 0 191 268" overflow="visible" xml:space="preserve">
<rect fill="#F2ECEC" width="191" height="268"/>
<g>
	<path fill="#363636" d="M44.3,194.9c0.9,0.5,1.6,1.1,2.1,2c0.5,0.9,0.7,1.9,0.7,3s-0.2,2.1-0.7,3c-0.5,0.8-1.2,1.5-2.1,2
		c-0.9,0.5-1.9,0.7-3.1,0.7h-4v-11.3h4C42.3,194.2,43.4,194.4,44.3,194.9z M43.8,202.6c0.6-0.6,1-1.6,1-2.7c0-1.2-0.3-2.1-1-2.8
		c-0.6-0.7-1.6-1-2.8-1h-1.6v7.5h1.6C42.2,203.5,43.2,203.2,43.8,202.6z"/>
	<path fill="#363636" d="M50.4,205c-0.7-0.4-1.2-0.9-1.6-1.6c-0.4-0.7-0.6-1.5-0.6-2.4s0.2-1.7,0.6-2.4c0.4-0.7,1-1.2,1.7-1.6
		c0.7-0.4,1.5-0.6,2.3-0.6s1.6,0.2,2.3,0.6c0.7,0.4,1.3,0.9,1.7,1.6c0.4,0.7,0.6,1.5,0.6,2.4s-0.2,1.7-0.6,2.4
		c-0.4,0.7-1,1.2-1.7,1.6c-0.7,0.4-1.5,0.6-2.4,0.6C51.9,205.6,51.1,205.4,50.4,205z M53.9,203.3c0.4-0.2,0.7-0.5,0.9-0.9
		c0.2-0.4,0.3-0.9,0.3-1.5c0-0.9-0.2-1.5-0.7-2c-0.4-0.5-1-0.7-1.6-0.7s-1.2,0.2-1.6,0.7c-0.4,0.5-0.7,1.1-0.7,2s0.2,1.5,0.6,2
		s1,0.7,1.6,0.7C53.2,203.6,53.6,203.5,53.9,203.3z"/>
	<path fill="#363636" d="M66.7,197.4c0.7,0.7,1,1.6,1,2.8v5.3h-2.3v-5c0-0.7-0.2-1.3-0.5-1.6c-0.4-0.4-0.8-0.6-1.5-0.6
		c-0.6,0-1.1,0.2-1.5,0.6c-0.4,0.4-0.5,0.9-0.5,1.6v5h-2.3v-9h2.3v1.1c0.3-0.4,0.7-0.7,1.2-0.9c0.5-0.2,1-0.3,1.5-0.3
		C65.2,196.4,66,196.7,66.7,197.4z"/>
	<path fill="#363636" d="M70.3,194.2h2.4l-1.7,4.1h-1.6L70.3,194.2z"/>
	<path fill="#363636" d="M76.9,198.4v4.3c0,0.3,0.1,0.5,0.2,0.7c0.1,0.1,0.4,0.2,0.7,0.2h1.1v1.9h-1.4c-1.9,0-2.9-0.9-2.9-2.8v-4.3
		h-1.1v-1.9h1.1v-2.2h2.3v2.2h2v1.9H76.9z"/>
	<path fill="#363636" d="M85.9,205.2c-0.6-0.3-1-0.6-1.4-1.1s-0.5-1-0.6-1.5h2.3c0,0.3,0.2,0.6,0.5,0.9c0.3,0.2,0.7,0.3,1.1,0.3
		c0.4,0,0.8-0.1,1-0.3c0.2-0.2,0.4-0.4,0.4-0.7c0-0.3-0.1-0.5-0.4-0.7s-0.8-0.3-1.4-0.5c-0.7-0.2-1.2-0.3-1.6-0.5
		c-0.4-0.2-0.8-0.4-1.1-0.8s-0.5-0.8-0.5-1.4c0-0.5,0.1-1,0.4-1.4c0.3-0.4,0.7-0.7,1.2-1c0.5-0.2,1.2-0.4,1.9-0.4
		c1.1,0,1.9,0.3,2.6,0.8c0.6,0.5,1,1.3,1.1,2.2h-2.2c0-0.4-0.2-0.6-0.4-0.9s-0.6-0.3-1.1-0.3c-0.4,0-0.7,0.1-0.9,0.2
		s-0.3,0.4-0.3,0.6c0,0.3,0.2,0.5,0.5,0.7c0.3,0.2,0.8,0.3,1.4,0.5c0.6,0.2,1.2,0.3,1.6,0.5c0.4,0.2,0.8,0.4,1.1,0.8
		c0.3,0.4,0.5,0.8,0.5,1.4c0,0.5-0.1,1-0.4,1.4s-0.7,0.7-1.2,1c-0.5,0.2-1.2,0.3-1.9,0.3C87.1,205.6,86.5,205.5,85.9,205.2z"/>
	<path fill="#363636" d="M95.9,198.4v4.3c0,0.3,0.1,0.5,0.2,0.7c0.1,0.1,0.4,0.2,0.7,0.2h1.1v1.9h-1.4c-1.9,0-2.9-0.9-2.9-2.8v-4.3
		h-1.1v-1.9h1.1v-2.2h2.3v2.2h2v1.9H95.9z"/>
	<path fill="#363636" d="M99.7,195c-0.3-0.3-0.4-0.6-0.4-0.9s0.1-0.7,0.4-0.9s0.6-0.4,1-0.4s0.7,0.1,1,0.4s0.4,0.6,0.4,0.9
		s-0.1,0.7-0.4,0.9c-0.3,0.3-0.6,0.4-1,0.4S100,195.3,99.7,195z M101.8,196.5v9h-2.3v-9H101.8z"/>
	<path fill="#363636" d="M104,198.5c0.4-0.7,0.9-1.2,1.6-1.6c0.7-0.4,1.4-0.6,2.3-0.6c1.1,0,2,0.3,2.8,0.8c0.7,0.6,1.2,1.3,1.5,2.3
		h-2.4c-0.1-0.4-0.3-0.7-0.7-0.9c-0.3-0.2-0.7-0.3-1.1-0.3c-0.6,0-1.2,0.2-1.5,0.7s-0.6,1.1-0.6,2c0,0.9,0.2,1.5,0.6,2
		s0.9,0.7,1.5,0.7c0.9,0,1.5-0.4,1.8-1.2h2.4c-0.2,1-0.7,1.7-1.5,2.3s-1.7,0.9-2.8,0.9c-0.9,0-1.6-0.2-2.3-0.6
		c-0.7-0.4-1.2-0.9-1.6-1.6s-0.6-1.5-0.6-2.4S103.6,199.2,104,198.5z"/>
	<path fill="#363636" d="M119.1,205.5l-3-3.8v3.8h-2.3v-12h2.3v6.8l3-3.8h2.9l-4,4.5l4,4.5H119.1z"/>
	<path fill="#363636" d="M127.3,195c-0.3-0.3-0.4-0.6-0.4-0.9s0.1-0.7,0.4-0.9s0.6-0.4,1-0.4s0.7,0.1,1,0.4s0.4,0.6,0.4,0.9
		s-0.1,0.7-0.4,0.9c-0.3,0.3-0.6,0.4-1,0.4S127.5,195.3,127.3,195z M129.4,196.5v9h-2.3v-9H129.4z"/>
	<path fill="#363636" d="M134.2,198.4v4.3c0,0.3,0.1,0.5,0.2,0.7c0.1,0.1,0.4,0.2,0.7,0.2h1.1v1.9h-1.4c-1.9,0-2.9-0.9-2.9-2.8v-4.3
		h-1.1v-1.9h1.1v-2.2h2.3v2.2h2v1.9H134.2z"/>
	<path fill="#363636" d="M141.9,195c-0.3-0.3-0.4-0.6-0.4-0.9s0.1-0.7,0.4-0.9s0.6-0.4,1-0.4s0.7,0.1,1,0.4s0.4,0.6,0.4,0.9
		s-0.1,0.7-0.4,0.9c-0.3,0.3-0.6,0.4-1,0.4S142.2,195.3,141.9,195z M144,196.5v9h-2.3v-9H144z"/>
	<path fill="#363636" d="M153.8,197.4c0.7,0.7,1,1.6,1,2.8v5.3h-2.3v-5c0-0.7-0.2-1.3-0.5-1.6c-0.4-0.4-0.8-0.6-1.5-0.6
		c-0.6,0-1.1,0.2-1.5,0.6c-0.4,0.4-0.5,0.9-0.5,1.6v5h-2.3v-9h2.3v1.1c0.3-0.4,0.7-0.7,1.2-0.9c0.5-0.2,1-0.3,1.5-0.3
		C152.3,196.4,153.2,196.7,153.8,197.4z"/>
	<path fill="#363636" d="M62.9,218.4v4.3c0,0.3,0.1,0.5,0.2,0.7c0.1,0.1,0.4,0.2,0.7,0.2h1.1v1.9h-1.4c-1.9,0-2.9-0.9-2.9-2.8v-4.3
		h-1.1v-1.9h1.1v-2.2h2.3v2.2h2v1.9H62.9z"/>
	<path fill="#363636" d="M73.4,216.8c0.5,0.3,0.9,0.7,1.2,1.3c0.3,0.6,0.4,1.3,0.4,2.1v5.3h-2.3v-5c0-0.7-0.2-1.3-0.5-1.6
		c-0.4-0.4-0.8-0.6-1.5-0.6c-0.6,0-1.1,0.2-1.5,0.6c-0.4,0.4-0.5,0.9-0.5,1.6v5h-2.3v-12h2.3v4.1c0.3-0.4,0.7-0.7,1.2-0.9
		c0.5-0.2,1-0.3,1.6-0.3C72.3,216.4,72.9,216.5,73.4,216.8z"/>
	<path fill="#363636" d="M85.5,221.7H79c0.1,0.6,0.3,1.2,0.7,1.5c0.4,0.4,0.9,0.6,1.5,0.6c0.8,0,1.4-0.4,1.8-1.1h2.4
		c-0.3,0.9-0.8,1.6-1.5,2.1c-0.7,0.6-1.6,0.8-2.7,0.8c-0.9,0-1.6-0.2-2.3-0.6c-0.7-0.4-1.2-0.9-1.6-1.6s-0.6-1.5-0.6-2.4
		c0-0.9,0.2-1.7,0.6-2.4c0.4-0.7,0.9-1.2,1.6-1.6s1.5-0.6,2.3-0.6c0.9,0,1.6,0.2,2.3,0.5c0.7,0.4,1.2,0.9,1.6,1.6s0.6,1.4,0.6,2.3
		C85.6,221.1,85.6,221.4,85.5,221.7z M83.2,220.2c0-0.6-0.2-1-0.6-1.4c-0.4-0.4-0.9-0.5-1.5-0.5c-0.6,0-1,0.2-1.4,0.5
		c-0.4,0.3-0.6,0.8-0.7,1.4H83.2z"/>
	<path fill="#363636" d="M87.4,215.1c-0.3-0.3-0.4-0.6-0.4-0.9s0.1-0.7,0.4-0.9c0.3-0.3,0.6-0.4,1-0.4c0.4,0,0.7,0.1,1,0.4
		c0.3,0.3,0.4,0.6,0.4,0.9s-0.1,0.7-0.4,0.9c-0.3,0.3-0.6,0.4-1,0.4C88,215.5,87.7,215.3,87.4,215.1z M89.5,216.5v9h-2.3v-9H89.5z"
		/>
	<path fill="#363636" d="M95.2,216.8c0.5-0.3,1-0.4,1.6-0.4v2.4h-0.6c-0.7,0-1.3,0.2-1.6,0.5c-0.4,0.3-0.5,0.9-0.5,1.7v4.5h-2.3v-9
		H94v1.4C94.3,217.4,94.7,217.1,95.2,216.8z"/>
	<path fill="#363636" d="M110.4,221.7h-6.6c0.1,0.6,0.3,1.2,0.7,1.5c0.4,0.4,0.9,0.6,1.5,0.6c0.8,0,1.4-0.4,1.8-1.1h2.4
		c-0.3,0.9-0.8,1.6-1.5,2.1c-0.7,0.6-1.6,0.8-2.7,0.8c-0.9,0-1.6-0.2-2.3-0.6c-0.7-0.4-1.2-0.9-1.6-1.6c-0.4-0.7-0.6-1.5-0.6-2.4
		c0-0.9,0.2-1.7,0.6-2.4c0.4-0.7,0.9-1.2,1.6-1.6c0.7-0.4,1.5-0.6,2.3-0.6c0.9,0,1.6,0.2,2.3,0.5c0.7,0.4,1.2,0.9,1.6,1.6
		c0.4,0.7,0.6,1.4,0.6,2.3C110.5,221.1,110.5,221.4,110.4,221.7z M108.1,220.2c0-0.6-0.2-1-0.6-1.4s-0.9-0.5-1.5-0.5
		c-0.6,0-1,0.2-1.4,0.5c-0.4,0.3-0.6,0.8-0.7,1.4H108.1z"/>
	<path fill="#363636" d="M112.1,218.6c0.4-0.7,0.9-1.2,1.5-1.6s1.3-0.6,2.1-0.6c0.7,0,1.3,0.1,1.8,0.4c0.5,0.3,0.9,0.6,1.2,1v-1.3
		h2.3v9h-2.3v-1.3c-0.3,0.4-0.7,0.8-1.2,1s-1.1,0.4-1.8,0.4c-0.8,0-1.4-0.2-2.1-0.6s-1.1-0.9-1.5-1.6c-0.4-0.7-0.5-1.5-0.5-2.4
		C111.6,220.1,111.7,219.3,112.1,218.6z M118.3,219.6c-0.2-0.4-0.5-0.7-0.9-0.9s-0.8-0.3-1.2-0.3c-0.4,0-0.8,0.1-1.2,0.3
		s-0.6,0.5-0.9,0.9c-0.2,0.4-0.3,0.9-0.3,1.4s0.1,1,0.3,1.4c0.2,0.4,0.5,0.7,0.9,0.9c0.4,0.2,0.7,0.3,1.2,0.3c0.4,0,0.8-0.1,1.2-0.3
		c0.4-0.2,0.7-0.5,0.9-0.9c0.2-0.4,0.3-0.9,0.3-1.4S118.5,220,118.3,219.6z"/>
	<path fill="#363636" d="M126.5,216.8c0.5-0.3,1-0.4,1.6-0.4v2.4h-0.6c-0.7,0-1.2,0.2-1.6,0.5c-0.4,0.3-0.5,0.9-0.5,1.7v4.5h-2.3v-9
		h2.3v1.4C125.7,217.4,126.1,217.1,126.5,216.8z"/>
	<path fill="#363636" d="M129.7,225.2c-0.3-0.3-0.4-0.6-0.4-0.9s0.1-0.7,0.4-0.9s0.6-0.4,1-0.4c0.4,0,0.7,0.1,1,0.4
		c0.3,0.3,0.4,0.6,0.4,0.9s-0.1,0.7-0.4,0.9c-0.3,0.3-0.6,0.4-1,0.4C130.3,225.6,129.9,225.5,129.7,225.2z"/>
</g>
<g id="LUqn1l_00000029010310378352459100000005839372164818346887_">
	<g>
		<path fill="#7500D4" d="M118.2,140c2.1,0,4.1-0.1,6.2,0c8.7,0.3,15.6,7.5,15.8,16.2c0,0.7,0,1.3,0,2c-0.1,1.2-0.8,2-1.8,2
			c-1,0-1.8-0.8-1.8-1.9c-0.1-1.6-0.1-3.3-0.5-4.9c-1.3-5.6-6.4-9.6-12.1-9.7c-1.2,0-2.4,0.1-3.6,0c-1.9-0.1-3.7-0.1-5,1.8
			c-0.5,0.7-1.5,1.1-2.3,1.3c-2.4,0.8-4.7,1.5-7.1,2.1c-1.4,0.4-2.4-0.2-2.6-1.3c-0.2-1.1,0.5-1.9,1.9-2.3c2.3-0.6,4.5-1.3,6.8-2
			c1.2-0.4,2-1.2,2.3-2.4c0.3-0.9,0.3-1.7-0.4-2.4c-0.7-0.7-1.5-0.6-2.3-0.3c-5.4,1.9-11.1,2.8-16.8,2.7c-4.8-0.1-9.4-1-13.9-2.5
			c-1.1-0.4-2-0.6-2.8,0.4c-0.8,1-0.5,2.1,0.2,3c0.5,0.7,1.3,1.3,2.1,1.6c5.4,2.2,11.1,3.1,16.9,3c1.6,0,2.6,0.8,2.3,2.1
			c-0.2,1.2-1.1,1.5-2.2,1.6c-4.5,0.1-9-0.4-13.4-1.6c-1.7-0.5-3.4-0.9-4.9-1.6c-1.2-0.5-2.3-1.3-3.2-2.2c-0.6-0.6-1.1-0.9-1.9-0.8
			c-2.8,0.1-5.6-0.1-8.3,0.4c-5.9,1.2-9.9,6.4-10,12.4c0,0.7,0,1.3,0,2c-0.1,1.1-0.8,1.7-1.8,1.7c-1,0-1.7-0.6-1.8-1.7
			c-0.7-8.5,4-15,10.7-17.4c2.2-0.8,4.6-0.9,6.9-1.2c1.4-0.2,2.8,0,4.3,0c0.3-2.5,1.4-4.4,3.8-5.4c0-4.3,0-8.5,0-12.7
			c0-0.4-0.2-0.8-0.5-1.1c-4.7-5.6-7.9-11.9-9.6-19c-0.1-0.4-0.6-1-1-1.1c-4.6-1.8-7.2-5.7-7.2-10.6c0-3.4,0-6.9,0-10.3
			c0-1.7,0.7-2.4,2.5-2.3c2.6,0.2,4.9,1.1,6.8,2.9c0.3,0.3,0.5,0.5,0.8,0.8c0,0,0.1,0,0,0c1.5-2.2,2.8-4.4,4.5-6.3
			c1.4-1.7,3.3-3,4.9-4.6c0.4-0.4,0.7-1.1,0.8-1.6c0.1-0.9,0-1.9-0.1-2.9c-0.2-2.2-1.5-3.6-3.4-4.5c-0.7-0.3-1.2-0.3-1.8,0.4
			c-3.5,4.4-10,3.6-12.4-1.4c-2.1-4.3,0.5-9.6,5.3-10.3c3.8-0.5,7.8-0.7,11.6,0.5c6.7,2.2,10.6,6.8,11.7,13.8c0,0.2,0.1,0.4,0.2,0.7
			c6.4-1.2,12.4-0.3,18.3,2.4c0.2-1.2,0.2-2.3,0.5-3.4c1-4.1,4.8-6.9,9-6.9c1.2,0,1.7,0.7,2.2,1.7c0.7,1.5,2.1,2.2,3.8,1.9
			c1.5-0.2,2.7-1.3,3-2.9c0.4-1.9-0.9-4.2-2.9-4.2c-3.2-0.1-6.4-0.2-9.5,0.4c-4,0.7-6.7,3.4-8.5,7c-0.2,0.5-0.5,1-0.9,1.3
			c-0.7,0.6-1.5,0.5-2.2-0.1c-0.7-0.6-0.9-1.4-0.5-2.2c1.1-2.6,2.7-4.8,4.9-6.6c2.9-2.3,6.2-3.5,9.9-3.6c2-0.1,4.1,0,6.1,0
			c3.5,0.1,6.4,2.4,7.2,5.7c0.8,3.5-0.8,6.8-4.1,8.4c-3.1,1.5-6.7,0.6-8.9-2.2c-0.5-0.7-1-0.7-1.7-0.4c-2,0.9-3.3,2.4-3.5,4.6
			c0,0.2,0,0.3,0,0.5c-0.3,2,0,3.6,2,5c1.7,1.2,3.2,2.9,4.5,4.6c1.3,1.6,2.4,3.5,3.6,5.3c0.2-0.2,0.5-0.5,0.8-0.7
			c2-1.9,4.3-2.8,7.1-3c1.5-0.1,2.3,0.6,2.3,2.1c0,3.7,0.1,7.5,0,11.2c-0.1,4.3-2.9,8.3-7.1,9.8c-0.8,0.3-1.1,0.7-1.3,1.5
			c-1.9,7.9-5.7,14.8-11.3,20.7c-0.3,0.3-0.6,0.8-0.6,1.3c-0.1,3.1,0,6.2,0,9.3c0,0.3,0.4,0.9,0.6,0.9
			C116.3,134.7,117.8,136.7,118.2,140z M105.3,69.8c-0.6,4.4-2.9,7-6.5,7.4c-1.8,0.2-3.7,0.2-5.6,0c-3.1-0.4-5.1-2.2-6.1-5.1
			c-0.2-0.7-0.3-1.4-0.5-2.2c-1,0.5-2,0.9-2.9,1.4c2.5,3.9,2.5,6.7,0,8.8c-2.4,2.1-5.2,1.7-8.4-1.2c-5.8,7-6.4,17.9-2.8,26.9
			c0.9-0.7,1.8-1.3,2.7-2c1.2-0.8,2.2-0.7,2.8,0.3c0.6,0.9,0.4,2-0.7,2.8c-1.1,0.8-2.3,1.7-3.5,2.5c0.6,1.1,1.2,2.1,1.8,3.2
			c1.5-1.1,2.8-2,4.2-3c0.8-0.6,1.6-0.6,2.4,0.1c0.9,0.8,0.8,2.1-0.3,3c-1.4,1-2.8,2-4.4,3.2c1.6,1.8,3,3.5,4.7,5
			c3.6,3.4,7.7,5.8,12.7,6.1c1.3,0.1,2.6-0.1,4-0.2c1.2-0.1,1.9,0.5,2.1,1.5c0.2,1.1-0.4,1.9-1.6,2.1c-0.4,0.1-0.9,0.2-1.4,0.2
			c-5.9,0.5-11-1.3-15.7-4.8c-0.3-0.2-0.6-0.5-1.1-0.9c0,3.2,0,6.2,0,9.1c0,0.2,0.5,0.6,0.8,0.7c2.7,0.7,5.4,1.5,8.2,1.9
			c6,0.9,11.9,0.3,17.7-1.4c0.3-0.1,0.8-0.5,0.8-0.7c0.1-2.6,0-5.3,0-8.1c-0.7,0.4-1.2,0.8-1.7,1.1c-1.1,0.6-2,0.4-2.6-0.5
			c-0.6-0.9-0.4-1.9,0.6-2.6c0.8-0.6,1.7-1.1,2.5-1.8c2.5-2,4.7-4.2,6.5-6.9c-1.4-1-2.6-1.9-3.9-2.8c-1.2-0.9-1.5-1.9-0.8-2.9
			c0.7-0.9,1.7-1,3-0.1c1.2,0.9,2.5,1.8,3.8,2.7c0.6-1.2,1.1-2.2,1.7-3.3c-1.2-0.9-2.3-1.7-3.5-2.5c-1.1-0.8-1.3-1.9-0.7-2.8
			c0.7-0.9,1.7-1,2.9-0.2c0.9,0.6,1.8,1.3,2.8,2c3.1-9,3.3-17.7-1.9-25.9c-3,1.9-5.5,1.9-7.6,0.1c-2.2-1.9-2.3-4.3-0.5-8
			C108.1,71.2,106.7,70.5,105.3,69.8z M83.1,67.3c1.1-0.4,2-0.9,2.9-1.2c0.7-0.2,0.8-0.6,0.7-1.2c-0.7-4.9-3.2-8.5-7.8-10.6
			c-3.7-1.6-7.6-1.1-11.4-0.9c-1.9,0.1-3.1,2.4-2.7,4.2c0.4,1.6,1.6,2.7,3,2.9c1.7,0.2,3.1-0.5,3.8-2c0.5-0.9,1-1.6,2.1-1.6
			c2.7,0,5,1,6.9,2.9C82.5,62,83.2,64.4,83.1,67.3z M96,73.6C96,73.6,96,73.6,96,73.6c0.6,0,1.2,0,1.7,0c2.3-0.1,3.9-1.8,3.7-4.2
			c0-0.3-0.4-0.7-0.6-0.8c-3.2-0.7-6.5-0.7-9.7,0c-0.3,0.1-0.6,0.4-0.6,0.7c-0.3,2.3,1.3,4.2,3.6,4.3C94.7,73.6,95.4,73.6,96,73.6z
			 M62.9,81.3c0,3.4-0.2,6.6,0.1,9.9c0.1,2.3,1.4,4.1,3.7,5.3c-0.2-3.7,0-7.1,0.9-10.4c0.1-0.3,0.1-0.7,0-1
			C66.6,83.2,65.1,81.9,62.9,81.3z M129,81.3c-1.6,0.4-2.9,1.3-3.9,2.6c-0.7,0.9-0.9,1.8-0.6,3c0.5,2.5,0.6,5,0.9,7.5
			c0.1,0.7,0,1.3,0,2.1c2.1-1.2,3.4-2.9,3.6-5.1C129.2,88,129,84.7,129,81.3z M77.7,75.6c0.8,0.9,1.3,2.2,2.7,1.9
			c0.6-0.1,1.3-0.7,1.4-1.3c0.4-1.3-0.7-2-1.4-3C79.5,74.1,78.6,74.9,77.7,75.6z M112.6,74.2c-1,1.3-1,2.4-0.2,3.1
			c0.9,0.7,1.8,0.5,2.6-0.6C114.3,75.9,113.5,75.1,112.6,74.2z"/>
		<path fill="#7500D4" d="M96.8,81c5.5,0.4,10.2,3.2,12.6,8.9c2.4,5.6,1.5,10.9-2.4,15.5c-4.9,5.7-13.1,6.7-19.5,2.3
			c-5.9-3.9-8-12.2-4.7-18.7c0.6-1.1,1.6-1.6,2.5-1.2c1.1,0.5,1.4,1.5,0.8,2.7c-2.3,4.9-1.2,9.9,2.2,13c3.3,3.1,7.2,3.9,11.4,2.4
			c4.2-1.5,6.7-4.6,7.2-9.1c0.5-4.6-1.3-8.3-5.3-10.7c-3.3-2-6.8-2.1-10.3-0.5c-0.7,0.3-1.6,0.4-2.2,0.2c-0.5-0.2-1-1-1-1.5
			c0-0.6,0.5-1.3,1-1.6C91.3,81.4,93.6,81,96.8,81z"/>
		<path fill="#7500D4" d="M103.3,95.7c0.1,3.9-3.1,7.2-7.3,7.4c-4,0.1-7.3-3.2-7.4-7.4c-0.1-3.9,3.2-7.2,7.3-7.3
			C99.9,88.2,103.2,91.5,103.3,95.7z M99.2,97.1c-1.1,0.5-2.1,0.7-2.9-0.4c-0.5-0.7-0.5-1.5,0.1-2.2c0.9-1,1.9-0.7,2.9,0
			c-0.8-1.8-2.4-2.8-4-2.4c-1.9,0.4-3.1,1.8-3.1,3.7c0,1.7,1.3,3.2,2.9,3.5C97,99.6,98.5,98.8,99.2,97.1z"/>
		<path fill="#7500D4" d="M97,120.2c-3.6,0.2-6.5-0.7-9.2-2.5c-1.1-0.7-1.4-1.7-0.8-2.6c0.6-1,1.4-1.1,2.7-0.5
			c1.5,0.6,2.9,1.4,4.4,1.8c2.6,0.6,5.1,0,7.3-1.4c0.2-0.1,0.4-0.3,0.6-0.4c1.1-0.6,2.1-0.5,2.7,0.5c0.6,0.9,0.3,1.9-0.7,2.7
			C101.8,119.2,99.4,120.1,97,120.2z"/>
	</g>
</g>
</svg>
