<?xml version="1.0" encoding="utf-8"?>
<!-- Generator: Adobe Illustrator 26.3.1, SVG Export Plug-In . SVG Version: 6.00 Build 0)  -->
<svg version="1.1" baseProfile="tiny" id="Layer_1" xmlns="http://www.w3.org/2000/svg" xmlns:xlink="http://www.w3.org/1999/xlink"
	 x="0px" y="0px" width="191px" height="268px" viewBox="0 0 191 268" overflow="visible" xml:space="preserve">
<rect fill="#F2ECEC" width="191" height="268"/>
<g>
	<path fill="#363636" d="M51.3,199.4c-0.3,0.5-0.7,1-1.3,1.3c-0.6,0.3-1.4,0.5-2.3,0.5h-1.9v4.3h-2.3v-11.3h4.2
		c0.9,0,1.6,0.2,2.2,0.5c0.6,0.3,1.1,0.7,1.4,1.2s0.5,1.1,0.5,1.8C51.7,198.3,51.5,198.8,51.3,199.4z M48.9,198.9
		c0.3-0.3,0.5-0.7,0.5-1.2c0-1.1-0.6-1.7-1.8-1.7h-1.8v3.3h1.8C48.1,199.3,48.6,199.2,48.9,198.9z"/>
	<path fill="#363636" d="M53.4,195c-0.3-0.3-0.4-0.6-0.4-0.9s0.1-0.7,0.4-0.9c0.3-0.3,0.6-0.4,1-0.4c0.4,0,0.7,0.1,1,0.4
		c0.3,0.3,0.4,0.6,0.4,0.9s-0.1,0.7-0.4,0.9c-0.3,0.3-0.6,0.4-1,0.4C54,195.4,53.7,195.3,53.4,195z M55.6,196.5v9h-2.3v-9H55.6z"/>
	<path fill="#363636" d="M57.8,198.5c0.4-0.7,0.9-1.2,1.6-1.6c0.7-0.4,1.4-0.6,2.3-0.6c1.1,0,2,0.3,2.8,0.8c0.7,0.6,1.2,1.3,1.5,2.3
		h-2.4c-0.1-0.4-0.3-0.7-0.7-0.9c-0.3-0.2-0.7-0.3-1.1-0.3c-0.6,0-1.2,0.2-1.5,0.7s-0.6,1.1-0.6,2c0,0.9,0.2,1.5,0.6,2
		s0.9,0.7,1.5,0.7c0.9,0,1.5-0.4,1.8-1.2h2.4c-0.2,1-0.7,1.7-1.5,2.3s-1.7,0.9-2.8,0.9c-0.9,0-1.6-0.2-2.3-0.6
		c-0.7-0.4-1.2-0.9-1.6-1.6c-0.4-0.7-0.6-1.5-0.6-2.4S57.4,199.2,57.8,198.5z"/>
	<path fill="#363636" d="M72.8,205.5l-3-3.8v3.8h-2.3v-12h2.3v6.8l3-3.8h2.9l-4,4.5l4,4.5H72.8z"/>
	<path fill="#363636" d="M83.5,198.4v4.3c0,0.3,0.1,0.5,0.2,0.7c0.1,0.1,0.4,0.2,0.7,0.2h1.1v1.9h-1.4c-1.9,0-2.9-0.9-2.9-2.8v-4.3
		h-1.1v-1.9h1.1v-2.2h2.3v2.2h2v1.9H83.5z"/>
	<path fill="#363636" d="M94,196.8c0.5,0.3,0.9,0.7,1.2,1.3c0.3,0.6,0.4,1.3,0.4,2.1v5.3h-2.3v-5c0-0.7-0.2-1.3-0.5-1.6
		c-0.4-0.4-0.8-0.6-1.5-0.6c-0.6,0-1.1,0.2-1.5,0.6c-0.4,0.4-0.5,0.9-0.5,1.6v5h-2.3v-12h2.3v4.1c0.3-0.4,0.7-0.7,1.2-0.9
		c0.5-0.2,1-0.3,1.6-0.3C92.9,196.4,93.5,196.5,94,196.8z"/>
	<path fill="#363636" d="M106.1,201.7h-6.6c0.1,0.6,0.3,1.2,0.7,1.5c0.4,0.4,0.9,0.6,1.5,0.6c0.8,0,1.4-0.4,1.8-1.1h2.4
		c-0.3,0.9-0.8,1.6-1.5,2.1c-0.7,0.6-1.6,0.8-2.7,0.8c-0.9,0-1.6-0.2-2.3-0.6c-0.7-0.4-1.2-0.9-1.6-1.6c-0.4-0.7-0.6-1.5-0.6-2.4
		c0-0.9,0.2-1.7,0.6-2.4c0.4-0.7,0.9-1.2,1.6-1.6c0.7-0.4,1.5-0.6,2.3-0.6c0.9,0,1.6,0.2,2.3,0.5c0.7,0.4,1.2,0.9,1.6,1.6
		c0.4,0.7,0.6,1.4,0.6,2.3C106.2,201.1,106.2,201.4,106.1,201.7z M103.8,200.1c0-0.6-0.2-1-0.6-1.4s-0.9-0.5-1.5-0.5
		c-0.6,0-1,0.2-1.4,0.5c-0.4,0.3-0.6,0.8-0.7,1.4H103.8z"/>
	<path fill="#363636" d="M115.1,196.8c0.5-0.3,1-0.4,1.6-0.4v2.4h-0.6c-0.7,0-1.2,0.2-1.6,0.5c-0.4,0.3-0.5,0.9-0.5,1.7v4.5h-2.3v-9
		h2.3v1.4C114.2,197.4,114.6,197,115.1,196.8z"/>
	<path fill="#363636" d="M118.4,195c-0.3-0.3-0.4-0.6-0.4-0.9s0.1-0.7,0.4-0.9s0.6-0.4,1-0.4s0.7,0.1,1,0.4s0.4,0.6,0.4,0.9
		s-0.1,0.7-0.4,0.9c-0.3,0.3-0.6,0.4-1,0.4S118.6,195.3,118.4,195z M120.5,196.5v9h-2.3v-9H120.5z"/>
	<path fill="#363636" d="M128,196.7c0.5,0.3,0.9,0.6,1.2,1v-1.3h2.3v9c0,0.8-0.2,1.6-0.5,2.2c-0.3,0.7-0.8,1.2-1.5,1.6
		c-0.7,0.4-1.5,0.6-2.4,0.6c-1.3,0-2.3-0.3-3.1-0.9c-0.8-0.6-1.3-1.4-1.4-2.4h2.3c0.1,0.4,0.4,0.7,0.8,1c0.4,0.2,0.9,0.4,1.4,0.4
		c0.7,0,1.2-0.2,1.6-0.6c0.4-0.4,0.6-1,0.6-1.8v-1.4c-0.3,0.4-0.7,0.8-1.2,1.1s-1.1,0.4-1.8,0.4c-0.8,0-1.4-0.2-2.1-0.6
		c-0.6-0.4-1.1-0.9-1.5-1.6c-0.4-0.7-0.5-1.5-0.5-2.4c0-0.9,0.2-1.7,0.5-2.4c0.4-0.7,0.9-1.2,1.5-1.6s1.3-0.6,2.1-0.6
		C126.9,196.4,127.5,196.5,128,196.7z M128.9,199.6c-0.2-0.4-0.5-0.7-0.9-0.9s-0.8-0.3-1.2-0.3c-0.4,0-0.8,0.1-1.2,0.3
		s-0.6,0.5-0.9,0.9c-0.2,0.4-0.3,0.9-0.3,1.4s0.1,1,0.3,1.4c0.2,0.4,0.5,0.7,0.9,0.9c0.4,0.2,0.7,0.3,1.2,0.3c0.4,0,0.8-0.1,1.2-0.3
		c0.4-0.2,0.7-0.5,0.9-0.9c0.2-0.4,0.3-0.9,0.3-1.4S129.1,200,128.9,199.6z"/>
	<path fill="#363636" d="M140.6,196.8c0.5,0.3,0.9,0.7,1.2,1.3c0.3,0.6,0.4,1.3,0.4,2.1v5.3H140v-5c0-0.7-0.2-1.3-0.5-1.6
		c-0.4-0.4-0.8-0.6-1.5-0.6c-0.6,0-1.1,0.2-1.5,0.6c-0.4,0.4-0.5,0.9-0.5,1.6v5h-2.3v-12h2.3v4.1c0.3-0.4,0.7-0.7,1.2-0.9
		c0.5-0.2,1-0.3,1.6-0.3C139.4,196.4,140.1,196.5,140.6,196.8z"/>
	<path fill="#363636" d="M147.1,198.4v4.3c0,0.3,0.1,0.5,0.2,0.7c0.1,0.1,0.4,0.2,0.7,0.2h1.1v1.9h-1.4c-1.9,0-2.9-0.9-2.9-2.8v-4.3
		h-1.1v-1.9h1.1v-2.2h2.3v2.2h2v1.9H147.1z"/>
	<path fill="#363636" d="M67.6,216.8c0.5-0.3,1.1-0.4,1.8-0.4c0.8,0,1.5,0.2,2.1,0.6s1.1,0.9,1.5,1.6c0.4,0.7,0.5,1.5,0.5,2.4
		s-0.2,1.7-0.5,2.4c-0.4,0.7-0.9,1.3-1.5,1.6s-1.3,0.6-2.1,0.6c-0.7,0-1.2-0.1-1.7-0.4c-0.5-0.3-0.9-0.6-1.2-1v5.6h-2.3v-13.2h2.3
		v1.3C66.7,217.4,67.1,217.1,67.6,216.8z M70.8,219.6c-0.2-0.4-0.5-0.7-0.9-0.9s-0.8-0.3-1.2-0.3c-0.4,0-0.8,0.1-1.2,0.3
		c-0.4,0.2-0.7,0.5-0.9,0.9c-0.2,0.4-0.3,0.9-0.3,1.4s0.1,1,0.3,1.4c0.2,0.4,0.5,0.7,0.9,0.9c0.4,0.2,0.7,0.3,1.2,0.3
		c0.4,0,0.8-0.1,1.2-0.3s0.7-0.5,0.9-0.9c0.2-0.4,0.3-0.9,0.3-1.4C71.2,220.4,71.1,220,70.8,219.6z"/>
	<path fill="#363636" d="M77.4,213.5v12h-2.3v-12H77.4z"/>
	<path fill="#363636" d="M79.6,218.6c0.4-0.7,0.9-1.2,1.5-1.6s1.3-0.6,2.1-0.6c0.7,0,1.3,0.1,1.8,0.4c0.5,0.3,0.9,0.6,1.2,1v-1.3
		h2.3v9h-2.3v-1.3c-0.3,0.4-0.7,0.8-1.2,1c-0.5,0.3-1.1,0.4-1.8,0.4c-0.8,0-1.4-0.2-2.1-0.6s-1.1-0.9-1.5-1.6
		c-0.4-0.7-0.5-1.5-0.5-2.4C79.1,220.1,79.2,219.3,79.6,218.6z M85.8,219.6c-0.2-0.4-0.5-0.7-0.9-0.9s-0.8-0.3-1.2-0.3
		c-0.4,0-0.8,0.1-1.2,0.3c-0.4,0.2-0.6,0.5-0.9,0.9c-0.2,0.4-0.3,0.9-0.3,1.4s0.1,1,0.3,1.4c0.2,0.4,0.5,0.7,0.9,0.9
		s0.7,0.3,1.2,0.3c0.4,0,0.8-0.1,1.2-0.3c0.4-0.2,0.7-0.5,0.9-0.9c0.2-0.4,0.3-0.9,0.3-1.4S86,220,85.8,219.6z"/>
	<path fill="#363636" d="M99.2,216.5l-5.6,13.2h-2.4l1.9-4.5l-3.6-8.7h2.5l2.3,6.3l2.3-6.3H99.2z"/>
	<path fill="#363636" d="M108.7,221.7h-6.6c0.1,0.6,0.3,1.2,0.7,1.5c0.4,0.4,0.9,0.6,1.5,0.6c0.8,0,1.4-0.4,1.8-1.1h2.4
		c-0.3,0.9-0.8,1.6-1.5,2.1c-0.7,0.6-1.6,0.8-2.7,0.8c-0.9,0-1.6-0.2-2.3-0.6c-0.7-0.4-1.2-0.9-1.6-1.6c-0.4-0.7-0.6-1.5-0.6-2.4
		c0-0.9,0.2-1.7,0.6-2.4c0.4-0.7,0.9-1.2,1.6-1.6c0.7-0.4,1.5-0.6,2.3-0.6c0.9,0,1.6,0.2,2.3,0.5c0.7,0.4,1.2,0.9,1.6,1.6
		c0.4,0.7,0.6,1.4,0.6,2.3C108.8,221.1,108.7,221.4,108.7,221.7z M106.4,220.2c0-0.6-0.2-1-0.6-1.4s-0.9-0.5-1.5-0.5
		c-0.6,0-1,0.2-1.4,0.5c-0.4,0.3-0.6,0.8-0.7,1.4H106.4z"/>
	<path fill="#363636" d="M113.8,216.8c0.5-0.3,1-0.4,1.6-0.4v2.4h-0.6c-0.7,0-1.2,0.2-1.6,0.5c-0.4,0.3-0.5,0.9-0.5,1.7v4.5h-2.3v-9
		h2.3v1.4C113,217.4,113.3,217.1,113.8,216.8z"/>
	<path fill="#363636" d="M118.4,225.3c-0.6-0.3-1-0.6-1.4-1.1s-0.5-1-0.6-1.5h2.3c0,0.3,0.2,0.6,0.5,0.9c0.3,0.2,0.7,0.3,1.1,0.3
		c0.4,0,0.8-0.1,1-0.3c0.2-0.2,0.4-0.4,0.4-0.7c0-0.3-0.1-0.5-0.4-0.7c-0.3-0.1-0.8-0.3-1.4-0.5c-0.7-0.2-1.2-0.3-1.6-0.5
		c-0.4-0.2-0.8-0.4-1.1-0.8s-0.5-0.8-0.5-1.4c0-0.5,0.1-1,0.4-1.4c0.3-0.4,0.7-0.7,1.2-1c0.5-0.2,1.2-0.4,1.9-0.4
		c1.1,0,1.9,0.3,2.6,0.8c0.6,0.5,1,1.3,1.1,2.2h-2.2c0-0.4-0.2-0.6-0.4-0.9c-0.3-0.2-0.6-0.3-1.1-0.3c-0.4,0-0.7,0.1-0.9,0.2
		s-0.3,0.4-0.3,0.6c0,0.3,0.2,0.5,0.5,0.7c0.3,0.2,0.8,0.3,1.4,0.5c0.6,0.2,1.2,0.3,1.6,0.5s0.8,0.4,1.1,0.8
		c0.3,0.4,0.5,0.8,0.5,1.4c0,0.5-0.1,1-0.4,1.4c-0.3,0.4-0.7,0.7-1.2,1c-0.5,0.2-1.2,0.3-1.9,0.3C119.6,225.6,119,225.5,118.4,225.3
		z"/>
	<path fill="#363636" d="M125.8,225.2c-0.3-0.3-0.4-0.6-0.4-0.9s0.1-0.7,0.4-0.9s0.6-0.4,1-0.4c0.4,0,0.7,0.1,1,0.4
		c0.3,0.3,0.4,0.6,0.4,0.9s-0.1,0.7-0.4,0.9c-0.3,0.3-0.6,0.4-1,0.4C126.4,225.6,126,225.5,125.8,225.2z"/>
</g>
<g id="rSH0aM_00000050647839438658456820000005248847898930558854_">
	<g>
		<path fill="#7500D4" d="M123.3,123.8c-0.3,3.8-2.3,6.1-5.9,6.7c-2.6,0.4-4.2,1.8-5.6,4c-3,4.5-6.3,8.9-9.5,13.4
			c-0.4,0.6-0.6,1.4-0.7,2.1c-0.1,2.4,0,4.8,0,7.1c0,1.5-0.7,2.4-1.9,2.4c-1.2,0-1.9-0.9-1.9-2.4c0-2.3,0-4.6,0-7
			c-1.3,0-2.4,0-3.8,0c0,1.6,0,3.2,0,4.8c0,0.8,0,1.5,0,2.3c0,1.4-0.7,2.3-1.8,2.3c-1.1,0-1.9-0.9-1.9-2.2c0-2.5,0-4.9,0-7.4
			c0-0.7-0.3-1.4-0.6-2c-3.7-5.2-7.4-10.4-11.1-15.5c-0.4-0.5-1.1-0.9-1.7-1.1c-1-0.4-2.1-0.6-3.2-0.9c-3-0.9-4.7-2.9-5-6
			c0-0.1,0-0.2-0.1-0.4c0,0,0-0.1-0.1-0.1c-1.9-0.3-2.7,0.3-2.7,2.1c0,2.9,0,5.9,0,8.8c0,1-0.4,1.8-1.4,2c-0.9,0.2-1.6-0.1-2.1-0.9
			c-0.2-0.3-0.3-0.7-0.3-1.1c0-3.2-0.1-6.4,0-9.6c0.1-2.6,2-4.8,4.4-5.2c0.8-0.2,1.8,0,2.5-0.4c0.7-0.4,1.1-1.3,1.6-2.1
			c-0.7-0.9-1.7-1.4-3-1.4c-5.2,0-9.3,4.2-9.3,9.6c0,10.3,0,20.5,0,30.8c0,2-0.6,2.9-1.9,2.9c-1.3,0-1.9-0.9-1.9-2.9
			c0-1.1,0-2.2,0-3.4c-0.7,0.1-1.3,0.3-1.9,0.4c-0.5,0.1-1.1,0.2-1.9,0.3c0,1.3,0.1,2.6,0,3.8c-0.1,1.1-0.8,1.7-1.9,1.7
			c-1,0-1.6-0.6-1.8-1.7c0-0.2-0.1-0.3-0.1-0.5c0-1.8-0.1-3.6,0-5.3c0.1-1.6,1-2.1,2.6-2.1c1.4,0.1,2.7-0.2,4.1-0.5
			c0.4-0.1,0.7-0.7,0.9-1.2c-2.4,0.3-4.4,0-6.1-1.8c-1.1-1.2-1.6-2.7-1.5-4.3c0.2-3.5,3.2-5.5,7.3-5c0.4-0.7,0.1-1.3-0.6-1.4
			c-1.4-0.3-2.8-0.5-4.2-0.5c-1.7,0-2.5-0.5-2.5-2.1c0-3.9,0-7.7,0-11.6c0-2.3,1.2-4,3.3-4.9c2.2-0.9,4.3-0.7,6.2,0.9
			c0.1,0.1,0.3,0.2,0.4,0.3c0.8-0.8,1.6-1.7,2.3-2.5c-1.7-2.4-5.9-3.6-9.3-2.6c-4.2,1.3-6.7,4.8-6.7,9.4c0,11.4,0,22.8,0,34.3
			c0,0.3,0,0.7,0,1c-0.1,1.2-0.8,2-1.9,2c-1,0-1.8-0.8-1.9-2c0-0.3,0-0.5,0-0.8c0-11.5,0-23,0-34.5c0-7.4,4.9-12.9,12.3-13.6
			c4-0.4,7.4,1,10.3,3.8c0.6,0.6,1,0.7,1.9,0.5c2.5-0.8,5.1-1,7.6,0.3c0.1-0.1,0.2-0.3,0.2-0.4c-0.3-0.3-0.6-0.7-1-0.8
			c-5.5-2.5-8.9-6.6-10.1-12.5c-0.2-0.7-0.3-1.5-0.3-2.3c0-5.9-0.3-11.8,0.2-17.7C61.4,66,68.2,56,80.3,50c13.9-6.9,30.3-4,41.2,7.1
			c4.2,4.2,7.1,9.2,8.8,14.9c0.4,1.4,0,2.4-1.1,2.7c-1.1,0.4-2-0.2-2.6-1.6c-0.4-1.1-0.8-2.2-1.2-3.2c-0.1-0.2-0.2-0.5-0.4-0.8
			c-0.8,0.5-1.5,1-2.2,1.6c-0.7,0.5-1.4,1.1-1.9,1.4c1,3.2,2.4,6.2,2.7,9.4c0.5,4.9,0.5,9.9,0.2,14.8c-0.1,3.1-2.2,5.4-5,6.8
			c-9.1,4.5-18.8,6.2-28.9,5.1c-1.3-0.1-1.9-1-1.8-2.2c0.1-1.1,1-1.7,2.3-1.6c4.4,0.5,8.7,0.4,13.1-0.3c4.8-0.8,9.4-2.3,13.7-4.5
			c1.7-0.8,2.9-2.2,2.9-4.1c0.1-5.2,0.6-10.5-0.7-15.7c-2.4-9.7-11.2-17.2-21.2-18.1c-13.8-1.3-25.5,8.3-26.9,22
			c-0.4,3.8-0.2,7.6-0.1,11.5c0.1,2.1,1.3,3.7,3.2,4.5c2.6,1.1,5.3,2,7.9,3.1c0.6,0.3,1.4,0.7,1.6,1.2c0.2,0.5,0.1,1.4-0.2,1.8
			c-0.4,0.4-1.4,0.8-1.9,0.7c-3.5-1.3-7.1-2.5-10.4-4.2c-2.5-1.3-3.9-3.8-4-6.6c-0.2-5.4-0.7-10.8,0.7-16.1c0.6-2.5,1.7-4.9,2.6-7.5
			c-1.2-0.9-2.7-1.9-4.2-3.1c-1.4,2.9-2.5,5.9-2.6,9c-0.2,6.7-0.4,13.5-0.1,20.2c0.3,4.9,3.3,8.4,7.8,10.2
			c9.1,3.7,18.6,5.1,28.4,4.5c6.4-0.4,12.7-1.8,18.7-4.1c5.7-2.1,9-6.8,9-12.9c0-5.1-0.1-10.2-0.1-15.3c0-1.3,0.6-2.2,1.7-2.3
			c1.1-0.1,2,0.7,2,2.1c0.1,1.3,0.1,2.6,0.1,3.9c0,0.7,0.2,1.1,0.9,1.5c9.4,5.7,14.2,14.2,14.2,25.2c0,2.1-0.1,4.3-0.5,6.3
			c-0.7,3.3-2.7,5.8-5.4,7.7c1.5,1.5,3.1,2.8,4.4,4.3c4.7,5.3,7,11.5,7.1,18.5c0.1,3,0,6,0,9c0,1.6-0.7,2.5-1.9,2.5
			c-1.2,0-1.8-0.9-1.9-2.4c-0.1-4.2,0.1-8.4-0.4-12.6c-0.9-6.9-4.5-12.3-10.2-16.4c-0.2-0.1-0.3-0.2-0.7-0.4c0,1.9,0.1,3.6-0.1,5.3
			c-0.1,0.6-0.6,1.4-1.1,1.8c-0.4,0.3-1.3,0.2-1.7-0.2c-0.5-0.4-0.8-1.2-0.8-1.8c-0.1-2.5,0-4.9,0-7.4c-0.1-5.1-4.2-9.1-9.2-9.2
			c-1.3,0-2.3,0.4-3.1,1.4c0.5,0.7,0.9,1.3,1.5,1.9c0.2,0.2,0.6,0.4,1,0.4c3.9,0,6.2,2.8,6.1,6.7c-0.1,9.9,0,19.9,0,29.8
			c0,0.3,0,0.5,0,0.8c0,1.5-0.7,2.4-1.9,2.4c-1.2,0-1.9-0.9-1.9-2.4c0-10,0-20,0-29.9c0-0.4,0-0.9,0-1.3
			C126,124.1,125.3,123.5,123.3,123.8z M108.5,132.5c-0.4,0-0.7,0.1-0.9,0.1c-2.5,0.3-5.1,0.5-7.6,0.8c-1.2,0.1-2.2-0.7-2.2-1.8
			c-0.1-1,0.7-1.8,1.9-2c0.7-0.1,1.4-0.1,2.2-0.2c5.2-0.4,10.3-1.3,15.4-2.8c1.6-0.5,2.2-1.3,2.3-2.9c0-0.6,0-1.2,0-1.8
			c0-1-0.4-1.3-1.4-1c-3.9,0.9-7.8,1.8-11.8,2.4c-10.4,1.5-20.7,0.7-30.9-2c-3-0.8-3-1.4-3,2.4c0,1.6,0.7,2.4,2.2,2.8
			c1.2,0.4,2.4,0.8,3.7,1c4.6,0.7,9.1,1.4,13.7,2c0.9,0.1,1.7,0.4,1.9,1.4c0.4,1.4-0.6,2.5-2.2,2.4c-2.7-0.2-5.4-0.5-8.3-0.8
			c0.3,0.4,0.5,0.7,0.7,1c2.2,3.1,4.6,6,6.5,9.3c1.7,2.8,3.7,3.9,6.9,3.5c0.9-0.1,1.5-0.3,2-1c2.7-3.9,5.5-7.7,8.3-11.6
			C108,133.3,108.2,132.9,108.5,132.5z M109.2,53c-8.7-3.8-17.3-3.9-26.1-0.3c2.1,1.8,4,3.6,6,5.3c0.3,0.2,0.8,0.2,1.2,0.2
			c4.1-0.8,8.2-0.8,12.3,0.3c0.4,0.1,1,0,1.2-0.2C105.7,56.6,107.4,54.9,109.2,53z M116.6,113.7c-13.8,4.2-27.5,4.2-41.4,0
			c0,1,0.1,1.7,0,2.4c-0.1,1.1,0.4,1.4,1.3,1.7c12.4,3.2,24.8,3.3,37.3,0.4C117,117.4,117,117.2,116.6,113.7z M131.8,89.8
			c0,1.8-0.1,3.3,0,4.7c0,0.5,0.3,1.1,0.7,1.5c3.4,3.4,5.6,7.3,6.5,12c0.8,4.1,0.8,8-3.2,10.6c0.6,1.4,1.1,2.7,1.6,4.1
			c3-1.3,5-3.5,5.5-6.6c0.9-6.3,0.2-12.5-3.1-18.2C137.7,94.8,135.2,92.1,131.8,89.8z M120.4,112.9c4.7-1.1,8.3-0.5,11.7,2
			c1.2,0.9,1.7,0.9,2.5-0.3c0.4-0.7,0.8-1.5,0.8-2.3c0.1-2.7-0.5-5.2-1.6-7.6c-0.7-1.4-1.6-2.7-2.5-4.4c-1.7,5.9-5.1,9.8-10.4,11.9
			C120.7,112.3,120.6,112.7,120.4,112.9z M73.1,59.4c1.9,1.4,3.5,2.6,5.1,3.7c0.2,0.1,0.7,0.2,0.9,0.1c2-1.2,4-2.4,6-3.6
			c-1.8-1.6-3.6-3.2-5.7-5C77.4,56.2,75.3,57.7,73.1,59.4z M113.3,63.4c1.7-1.2,3.5-2.5,5.4-4c-2.1-1.7-4-3.2-5.8-4.5
			c-1.9,1.9-3.5,3.5-5.2,5.2C109.5,61.2,111.3,62.3,113.3,63.4z M68.6,65.5c1.6,1.2,3.2,2.3,4.7,3.4c0.9-1,1.7-1.9,2.5-2.9
			c-1.7-1.2-3.3-2.4-5-3.7C70,63.5,69.3,64.5,68.6,65.5z M116.1,66.1c0.9,1,1.7,1.9,2.5,2.9c1.6-1.2,3.1-2.3,4.7-3.4
			c-0.8-1.1-1.5-2.1-2.2-3.1C119.4,63.7,117.8,64.8,116.1,66.1z M50.7,125.4c1-0.6,1.6-1.2,2.4-1.5c1.3-0.5,1.5-1.4,1.3-2.6
			c-0.2-1.1-0.9-1.5-1.9-1.5c-1,0-1.8,0.4-1.8,1.5C50.7,122.7,50.7,123.9,50.7,125.4z M52.6,144.3c1,0,1.9-0.8,1.9-1.8
			c0-1-0.8-1.9-1.8-1.9c-1,0-1.9,0.8-1.9,1.8C50.7,143.4,51.5,144.3,52.6,144.3z M54.4,127.5c-1.4,1.3-3,1.8-3.7,3.6
			c1.3,0.2,2.5,0.4,3.7,0.6C54.4,130.3,54.4,129.1,54.4,127.5z"/>
		<path fill="#7500D4" d="M107.9,94.8c-4.1-0.5-8.2-0.7-12.2-1.5c-7.5-1.6-13.4-5.8-18-12c-1.2-1.6-1.2-2.9-0.3-4.6
			c5.1-10.3,17.7-14.5,27.8-9.1c7.3,3.9,11.2,10.1,11.4,18.5c0,1.6-0.6,2.4-1.8,2.4c-1.2,0-1.9-0.8-1.9-2.3
			c-0.1-4.6-1.7-8.6-4.9-11.8c-6.6-6.8-16.8-6.9-23.3-0.9c-1.4,1.3-2.4,3-3.6,4.5c-0.5,0.6-0.4,1.1,0.1,1.7
			c5.1,6.6,11.8,10.2,20.2,10.8c4.2,0.3,8.4,0.4,12.6,0.6c0.3,0,0.5,0,0.8,0.1c1.4,0.2,2.2,0.9,2.1,2.1c-0.1,1-1,1.7-2.3,1.7
			c-2.2-0.1-4.3-0.2-6.5-0.3C107.9,94.6,107.9,94.7,107.9,94.8z"/>
		<path fill="#7500D4" d="M115.7,151.9c-1.4,0-2.8,0-4.2,0c-1.7-0.1-2.4-0.7-2.4-2.4c0-1.1,0-2.1,0-3.2c0.1-3.3,2.3-5.6,5.6-5.7
			c1.8-0.1,3.6,0,5.5,0c1.4,0,2.1,0.7,2.1,2.2c0,2.3,0,4.6,0,6.9c0,1.6-0.7,2.2-2.3,2.3C118.6,152,117.2,151.9,115.7,151.9z
			 M113.1,148c1.8,0,3.6,0,5.4,0c0-1.2,0-2.4,0-3.6c-0.9,0-1.8,0-2.6,0C113.3,144.4,112.6,145.3,113.1,148z"/>
		<path fill="#7500D4" d="M75.2,151.8c-3.2,0-5.6-2.5-5.6-5.7c0-3,2.6-5.6,5.6-5.6c3.1,0,5.7,2.6,5.7,5.7
			C80.9,149.4,78.3,151.8,75.2,151.8z M77.1,146.2c0-1-0.9-1.8-1.9-1.8c-1,0-1.9,1-1.8,1.9c0,1,0.9,1.8,1.9,1.8
			C76.3,148,77.1,147.2,77.1,146.2z"/>
		<path fill="#7500D4" d="M90.8,100.7c-3.2-0.9-6.6-1.5-9.7-2.9c-4-1.8-5.8-5.5-5.9-9.9c0-1.1,0.8-1.9,1.8-1.9
			c1.1,0,1.8,0.6,1.9,1.7c0.2,2,0.7,3.9,2.1,5.4c1.6,1.7,3.6,2.3,5.8,2.7c1.6,0.3,3.2,0.6,4.7,0.9c1.1,0.2,1.5,1,1.4,2.1
			c-0.1,1-1,1.7-2.1,1.6C90.9,100.5,90.9,100.6,90.8,100.7z"/>
		<path fill="#7500D4" d="M137.4,149.1c0,2.6,0,5.3,0,7.9c0,1.5-0.7,2.4-1.8,2.4c-1.2,0-1.9-0.9-1.9-2.4c0-5.3,0-10.7,0-16
			c0-1.4,0.7-2.2,1.9-2.2c1.1,0,1.9,0.7,1.9,2.1C137.5,143.6,137.4,146.4,137.4,149.1C137.4,149.1,137.4,149.1,137.4,149.1z"/>
		<path fill="#7500D4" d="M96.6,72.7c4.6,0.2,9.8,3.8,11.4,8.2c0.5,1.3,0.8,2.6,1,3.9c0.2,1.1-0.4,1.9-1.5,2.1
			c-1.2,0.2-1.9-0.5-2.1-1.5c-0.4-2-1-3.9-2.4-5.5c-1.9-2.2-4.3-3.1-7.1-3.4c-0.6-0.1-1.4-0.8-1.6-1.4c-0.1-0.5,0.3-1.4,0.8-1.9
			C95.3,72.7,96,72.8,96.6,72.7z"/>
		<path fill="#7500D4" d="M65.7,150c0,2.5,0.1,4.9,0,7.4c-0.1,1.8-1.6,2.6-2.9,1.6c-0.4-0.3-0.8-1-0.8-1.6c-0.1-5-0.1-9.9,0-14.9
			c0-1.2,0.9-2,1.9-2c1,0,1.8,0.9,1.8,2C65.8,145.1,65.8,147.5,65.7,150C65.8,150,65.8,150,65.7,150z"/>
	</g>
</g>
</svg>
