<?xml version="1.0" encoding="utf-8"?>
<!-- Generator: Adobe Illustrator 26.3.1, SVG Export Plug-In . SVG Version: 6.00 Build 0)  -->
<svg version="1.1" baseProfile="tiny" id="Layer_1" xmlns="http://www.w3.org/2000/svg" xmlns:xlink="http://www.w3.org/1999/xlink"
	 x="0px" y="0px" width="514.7px" height="200.7px" viewBox="0 0 514.7 200.7" overflow="visible" xml:space="preserve">
<path fill="#F2EDED" d="M498.6,200.7H15.9c-8.8,0-15.9-7.2-15.9-16.1V16.1C0,7.2,7.1,0,15.9,0h482.8c8.8,0,15.9,7.2,15.9,16.1v168.6
	C514.6,193.5,507.4,200.7,498.6,200.7z"/>
<g>
	<path fill="#363636" d="M41.7,87.4v-3.3h7.4v28.6h-3.6V87.4H41.7z"/>
	<path fill="#363636" d="M57.5,87.5c1.5-2.5,4.1-3.8,7.7-3.8c3.7,0,6.2,1.3,7.7,3.8c1.5,2.5,2.2,6.1,2.2,10.6
		c0,4.6-0.7,8.2-2.2,10.8c-1.5,2.6-4,3.8-7.7,3.8c-3.7,0-6.3-1.3-7.7-3.8c-1.5-2.6-2.2-6.1-2.2-10.8C55.3,93.5,56,90,57.5,87.5z
		 M71.2,92.2c-0.3-1.6-0.9-2.9-1.9-3.9c-0.9-1-2.3-1.5-4.1-1.5c-1.8,0-3.2,0.5-4.1,1.5c-0.9,1-1.6,2.3-1.9,3.9
		c-0.3,1.6-0.5,3.5-0.5,5.8c0,2.4,0.2,4.4,0.5,6c0.3,1.6,0.9,2.9,1.9,3.9c0.9,1,2.3,1.5,4.1,1.5c1.8,0,3.1-0.5,4.1-1.5
		c0.9-1,1.6-2.3,1.9-3.9c0.3-1.6,0.5-3.6,0.5-6C71.6,95.8,71.5,93.8,71.2,92.2z"/>
	<path fill="#363636" d="M92,112.6l-5.1-8.1l-4.9,8.1h-3.8l7-10.8l-7-10.9h4.1l5.1,8l4.9-8H96l-7,10.7l7,10.9H92z"/>
</g>
<g>
	<path fill="#363636" d="M130.2,99.7h-8.4v8.5h-3.4v-8.5H110v-3h8.4v-8.6h3.4v8.6h8.4V99.7z"/>
</g>
<g>
	<path fill="#363636" d="M46.8,120.9c-0.2-0.4-0.5-0.8-0.9-1c-0.4-0.2-0.9-0.4-1.4-0.4s-1,0.1-1.4,0.4c-0.4,0.2-0.8,0.6-1,1.1
		c-0.2,0.5-0.4,1-0.4,1.6c0,0.6,0.1,1.1,0.4,1.6s0.6,0.8,1,1c0.4,0.2,0.9,0.4,1.4,0.4c0.7,0,1.4-0.2,1.8-0.7c0.5-0.4,0.8-1,0.8-1.8
		h-3.1v-0.8h4.1v0.8c-0.1,0.6-0.3,1.2-0.6,1.7c-0.3,0.5-0.8,0.9-1.3,1.2c-0.5,0.3-1.2,0.5-1.8,0.5c-0.7,0-1.4-0.2-1.9-0.5
		c-0.6-0.3-1-0.8-1.4-1.4c-0.3-0.6-0.5-1.3-0.5-2s0.2-1.4,0.5-2c0.3-0.6,0.8-1.1,1.4-1.4c0.6-0.3,1.2-0.5,1.9-0.5
		c0.8,0,1.5,0.2,2.2,0.6c0.6,0.4,1.1,1,1.4,1.7H46.8z"/>
	<path fill="#363636" d="M50.7,126c-0.5-0.3-0.8-0.6-1.1-1.1s-0.4-1-0.4-1.6c0-0.6,0.1-1.2,0.4-1.6c0.3-0.5,0.6-0.8,1.1-1.1
		c0.5-0.3,1-0.4,1.5-0.4c0.6,0,1.1,0.1,1.5,0.4c0.5,0.3,0.8,0.6,1.1,1.1c0.3,0.5,0.4,1,0.4,1.6s-0.1,1.2-0.4,1.6s-0.6,0.8-1.1,1.1
		c-0.5,0.3-1,0.4-1.6,0.4C51.6,126.4,51.1,126.3,50.7,126z M53.2,125.3c0.3-0.2,0.6-0.4,0.8-0.8c0.2-0.3,0.3-0.7,0.3-1.2
		s-0.1-0.9-0.3-1.2c-0.2-0.3-0.4-0.6-0.7-0.8c-0.3-0.2-0.6-0.2-1-0.2c-0.4,0-0.7,0.1-1,0.2s-0.5,0.4-0.7,0.8s-0.3,0.7-0.3,1.2
		c0,0.5,0.1,0.9,0.3,1.2c0.2,0.3,0.4,0.6,0.7,0.8s0.6,0.2,1,0.2S52.9,125.5,53.2,125.3z"/>
	<path fill="#363636" d="M56.6,121.7c0.2-0.5,0.6-0.8,1-1.1c0.4-0.3,0.9-0.4,1.5-0.4c0.5,0,1,0.1,1.4,0.3c0.4,0.2,0.7,0.5,0.9,0.9
		v-1.1h1v6h-1v-1.1c-0.2,0.4-0.5,0.6-0.9,0.9c-0.4,0.2-0.8,0.3-1.4,0.3c-0.5,0-1-0.1-1.4-0.4c-0.4-0.3-0.8-0.6-1-1.1
		c-0.2-0.5-0.4-1-0.4-1.6C56.2,122.7,56.4,122.1,56.6,121.7z M61,122.1c-0.2-0.3-0.4-0.6-0.7-0.8c-0.3-0.2-0.7-0.3-1-0.3
		s-0.7,0.1-1,0.3c-0.3,0.2-0.6,0.4-0.7,0.8c-0.2,0.3-0.3,0.7-0.3,1.2c0,0.5,0.1,0.9,0.3,1.2c0.2,0.3,0.4,0.6,0.7,0.8
		c0.3,0.2,0.6,0.3,1,0.3s0.7-0.1,1-0.3c0.3-0.2,0.6-0.4,0.7-0.8c0.2-0.3,0.3-0.7,0.3-1.2S61.2,122.5,61,122.1z"/>
	<path fill="#363636" d="M65,118.2v8.1h-1v-8.1H65z"/>
	<path fill="#363636" d="M67.6,126.2c-0.4-0.2-0.7-0.4-0.9-0.7s-0.3-0.6-0.4-1h1c0,0.3,0.2,0.5,0.4,0.7c0.3,0.2,0.6,0.3,1,0.3
		c0.4,0,0.7-0.1,0.9-0.3c0.2-0.2,0.3-0.4,0.3-0.6c0-0.3-0.1-0.5-0.4-0.6s-0.6-0.3-1.1-0.4c-0.4-0.1-0.8-0.2-1.1-0.4
		c-0.3-0.1-0.5-0.3-0.7-0.5c-0.2-0.2-0.3-0.6-0.3-0.9c0-0.3,0.1-0.6,0.3-0.8c0.2-0.3,0.4-0.5,0.8-0.6c0.3-0.1,0.7-0.2,1.2-0.2
		c0.7,0,1.2,0.2,1.6,0.5s0.6,0.8,0.7,1.4h-1c0-0.3-0.1-0.6-0.4-0.8s-0.5-0.3-0.9-0.3c-0.4,0-0.6,0.1-0.9,0.2
		c-0.2,0.2-0.3,0.4-0.3,0.6c0,0.2,0.1,0.4,0.2,0.5s0.3,0.2,0.5,0.3c0.2,0.1,0.5,0.2,0.8,0.3c0.4,0.1,0.8,0.2,1.1,0.3
		c0.3,0.1,0.5,0.3,0.7,0.5c0.2,0.2,0.3,0.5,0.3,0.9c0,0.3-0.1,0.6-0.3,0.9c-0.2,0.3-0.4,0.5-0.8,0.6c-0.3,0.1-0.7,0.2-1.1,0.2
		C68.4,126.4,68,126.3,67.6,126.2z"/>
</g>
<g>
	<path fill="#363636" d="M142.8,87.4v-3.3h7.4v28.6h-3.6V87.4H142.8z"/>
	<path fill="#363636" d="M158.6,87.5c1.5-2.5,4.1-3.8,7.7-3.8c3.7,0,6.2,1.3,7.7,3.8c1.5,2.5,2.2,6.1,2.2,10.6
		c0,4.6-0.7,8.2-2.2,10.8c-1.5,2.6-4,3.8-7.7,3.8c-3.7,0-6.3-1.3-7.7-3.8c-1.5-2.6-2.2-6.1-2.2-10.8C156.4,93.5,157.1,90,158.6,87.5
		z M172.2,92.2c-0.3-1.6-0.9-2.9-1.9-3.9c-0.9-1-2.3-1.5-4.1-1.5c-1.8,0-3.2,0.5-4.1,1.5c-0.9,1-1.6,2.3-1.9,3.9
		c-0.3,1.6-0.5,3.5-0.5,5.8c0,2.4,0.2,4.4,0.5,6c0.3,1.6,0.9,2.9,1.9,3.9c0.9,1,2.3,1.5,4.1,1.5c1.8,0,3.1-0.5,4.1-1.5
		c0.9-1,1.6-2.3,1.9-3.9c0.3-1.6,0.5-3.6,0.5-6C172.7,95.8,172.5,93.8,172.2,92.2z"/>
	<path fill="#363636" d="M193.1,112.6l-5.1-8.1l-4.9,8.1h-3.8l7-10.8l-7-10.9h4.1l5.1,8l4.9-8h3.8l-7,10.7l7,10.9H193.1z"/>
</g>
<g>
	<path fill="#363636" d="M263.2,86.8c2.2,1.1,3.9,2.7,5.1,4.8c1.2,2.1,1.8,4.5,1.8,7.4c0,2.8-0.6,5.3-1.8,7.3
		c-1.2,2.1-2.9,3.6-5.1,4.7c-2.2,1.1-4.8,1.6-7.8,1.6h-8.6V85.1h8.6C258.4,85.1,261,85.7,263.2,86.8z M263.6,106.9
		c1.9-1.9,2.8-4.5,2.8-7.9c0-3.4-0.9-6.1-2.8-8c-1.9-1.9-4.6-2.9-8.1-2.9h-5v21.7h5C259,109.7,261.7,108.7,263.6,106.9z"/>
	<path fill="#363636" d="M278.7,111.6c-1.6-0.9-2.9-2.2-3.9-3.9s-1.4-3.7-1.4-5.9c0-2.2,0.5-4.2,1.4-5.9c1-1.7,2.3-3,3.9-3.9
		s3.5-1.4,5.6-1.4s3.9,0.5,5.6,1.4s3,2.2,3.9,3.9c1,1.7,1.4,3.6,1.4,5.9c0,2.2-0.5,4.2-1.5,5.9c-1,1.7-2.3,3-4,3.9
		c-1.7,0.9-3.6,1.4-5.6,1.4C282.2,113,280.4,112.5,278.7,111.6z M287.9,108.9c1.1-0.6,2-1.5,2.7-2.7c0.7-1.2,1-2.7,1-4.4
		s-0.3-3.2-1-4.4c-0.7-1.2-1.6-2.1-2.7-2.7c-1.1-0.6-2.3-0.9-3.6-0.9c-1.3,0-2.5,0.3-3.6,0.9c-1.1,0.6-2,1.5-2.6,2.7
		c-0.7,1.2-1,2.7-1,4.4c0,1.8,0.3,3.3,1,4.5c0.6,1.2,1.5,2.1,2.6,2.7s2.3,0.9,3.6,0.9S286.7,109.5,287.9,108.9z"/>
	<path fill="#363636" d="M330.6,91.6c1.3,0.7,2.4,1.7,3.1,3.1c0.8,1.4,1.1,3.1,1.1,5.1v12.8h-3.6v-12.3c0-2.2-0.5-3.8-1.6-5
		c-1.1-1.1-2.5-1.7-4.3-1.7c-1.9,0-3.4,0.6-4.5,1.8c-1.1,1.2-1.7,2.9-1.7,5.2v11.9h-3.6v-12.3c0-2.2-0.5-3.8-1.6-5
		c-1.1-1.1-2.5-1.7-4.3-1.7c-1.9,0-3.4,0.6-4.5,1.8c-1.1,1.2-1.7,2.9-1.7,5.2v11.9h-3.6V91h3.6v3.1c0.7-1.1,1.7-2,2.9-2.6
		c1.2-0.6,2.5-0.9,4-0.9c1.8,0,3.4,0.4,4.8,1.2c1.4,0.8,2.4,2,3.1,3.6c0.6-1.5,1.6-2.7,3-3.6s3-1.3,4.7-1.3
		C327.8,90.6,329.3,90.9,330.6,91.6z"/>
	<path fill="#363636" d="M340.9,86.8c-0.5-0.5-0.7-1.1-0.7-1.7c0-0.7,0.2-1.3,0.7-1.7c0.5-0.5,1.1-0.7,1.7-0.7
		c0.7,0,1.2,0.2,1.7,0.7c0.5,0.5,0.7,1.1,0.7,1.7c0,0.7-0.2,1.3-0.7,1.7c-0.5,0.5-1,0.7-1.7,0.7C342,87.5,341.4,87.2,340.9,86.8z
		 M344.4,91v21.7h-3.6V91H344.4z"/>
	<path fill="#363636" d="M367.5,93c1.6,1.6,2.5,3.9,2.5,6.9v12.8h-3.6v-12.3c0-2.2-0.5-3.8-1.6-5c-1.1-1.1-2.6-1.7-4.4-1.7
		c-1.9,0-3.4,0.6-4.5,1.8c-1.1,1.2-1.7,2.9-1.7,5.2v12h-3.6V91h3.6v3.1c0.7-1.1,1.7-2,2.9-2.6c1.2-0.6,2.6-0.9,4.1-0.9
		C363.7,90.6,365.8,91.4,367.5,93z"/>
	<path fill="#363636" d="M375.8,95.9c0.9-1.7,2.1-3,3.7-3.9c1.6-0.9,3.3-1.4,5.2-1.4c1.9,0,3.5,0.4,4.9,1.2c1.4,0.8,2.4,1.8,3.1,3.1
		v-4h3.6v21.7h-3.6v-4c-0.7,1.3-1.8,2.3-3.2,3.1c-1.4,0.8-3,1.2-4.9,1.2c-1.9,0-3.7-0.5-5.2-1.4c-1.6-0.9-2.8-2.3-3.7-4
		c-0.9-1.7-1.3-3.7-1.3-5.8C374.5,99.5,374.9,97.6,375.8,95.9z M391.8,97.5c-0.7-1.2-1.5-2.1-2.7-2.8c-1.1-0.6-2.4-1-3.7-1
		s-2.6,0.3-3.7,0.9c-1.1,0.6-2,1.6-2.6,2.8c-0.7,1.2-1,2.6-1,4.3c0,1.7,0.3,3.1,1,4.3c0.7,1.2,1.5,2.2,2.6,2.8c1.1,0.6,2.3,1,3.7,1
		s2.6-0.3,3.7-1c1.1-0.6,2-1.6,2.7-2.8c0.7-1.2,1-2.7,1-4.3C392.8,100.1,392.5,98.7,391.8,97.5z"/>
	<path fill="#363636" d="M419.5,93c1.6,1.6,2.5,3.9,2.5,6.9v12.8h-3.6v-12.3c0-2.2-0.5-3.8-1.6-5c-1.1-1.1-2.6-1.7-4.4-1.7
		c-1.9,0-3.4,0.6-4.5,1.8c-1.1,1.2-1.7,2.9-1.7,5.2v12h-3.6V91h3.6v3.1c0.7-1.1,1.7-2,2.9-2.6c1.2-0.6,2.6-0.9,4.1-0.9
		C415.7,90.6,417.9,91.4,419.5,93z"/>
	<path fill="#363636" d="M427.8,95.9c0.9-1.7,2.1-3,3.7-3.9c1.6-0.9,3.4-1.4,5.5-1.4c2.7,0,4.9,0.6,6.6,1.9c1.7,1.3,2.9,3.1,3.4,5.4
		h-3.9c-0.4-1.3-1.1-2.4-2.2-3.1c-1.1-0.8-2.4-1.1-4-1.1c-2.1,0-3.7,0.7-5,2.1c-1.3,1.4-1.9,3.4-1.9,6c0,2.6,0.6,4.6,1.9,6
		c1.3,1.4,2.9,2.1,5,2.1c1.6,0,2.9-0.4,4-1.1c1.1-0.7,1.8-1.8,2.2-3.2h3.9c-0.6,2.2-1.7,4-3.5,5.3c-1.7,1.3-3.9,2-6.5,2
		c-2.1,0-3.9-0.5-5.5-1.4c-1.6-0.9-2.8-2.2-3.7-3.9c-0.9-1.7-1.3-3.7-1.3-5.9C426.5,99.5,426.9,97.6,427.8,95.9z"/>
	<path fill="#363636" d="M471.5,103.2h-17.3c0.1,2.1,0.9,3.8,2.2,5c1.3,1.2,2.9,1.8,4.8,1.8c1.6,0,2.9-0.4,3.9-1.1
		c1-0.7,1.8-1.7,2.2-2.9h3.9c-0.6,2.1-1.7,3.8-3.5,5.1c-1.7,1.3-3.9,2-6.5,2c-2.1,0-3.9-0.5-5.5-1.4c-1.6-0.9-2.9-2.2-3.8-3.9
		c-0.9-1.7-1.4-3.7-1.4-5.9c0-2.2,0.4-4.2,1.3-5.9c0.9-1.7,2.2-3,3.8-3.9c1.6-0.9,3.5-1.4,5.6-1.4c2.1,0,3.9,0.4,5.5,1.3
		c1.6,0.9,2.8,2.1,3.7,3.7c0.9,1.6,1.3,3.3,1.3,5.3C471.6,101.7,471.5,102.4,471.5,103.2z M467,96.7c-0.6-1-1.4-1.7-2.5-2.3
		c-1-0.5-2.2-0.8-3.5-0.8c-1.8,0-3.4,0.6-4.6,1.7c-1.3,1.2-2,2.8-2.2,4.8h13.7C467.9,98.9,467.6,97.7,467,96.7z"/>
</g>
<g>
	<path fill="#363636" d="M232.2,92.4v3h-20.6v-3H232.2z M232.2,100.9v3h-20.6v-3H232.2z"/>
</g>
<g>
	<path fill="#363636" d="M146.6,124.6h-3.3l-0.6,1.7h-1.1l2.8-7.6h1.2l2.8,7.6h-1.1L146.6,124.6z M146.3,123.8l-1.4-3.9l-1.4,3.9
		H146.3z"/>
	<path fill="#363636" d="M149.5,121.7c0.2-0.5,0.6-0.8,1-1.1c0.4-0.3,0.9-0.4,1.5-0.4c0.7,0,1.3,0.2,1.8,0.5
		c0.5,0.4,0.8,0.9,0.9,1.5h-1.1c-0.1-0.4-0.3-0.7-0.6-0.9c-0.3-0.2-0.7-0.3-1.1-0.3c-0.6,0-1,0.2-1.4,0.6c-0.4,0.4-0.5,0.9-0.5,1.7
		c0,0.7,0.2,1.3,0.5,1.7c0.4,0.4,0.8,0.6,1.4,0.6c0.4,0,0.8-0.1,1.1-0.3c0.3-0.2,0.5-0.5,0.6-0.9h1.1c-0.2,0.6-0.5,1.1-1,1.5
		c-0.5,0.4-1.1,0.6-1.8,0.6c-0.6,0-1.1-0.1-1.5-0.4c-0.4-0.3-0.8-0.6-1-1.1c-0.2-0.5-0.4-1-0.4-1.6
		C149.1,122.7,149.3,122.1,149.5,121.7z"/>
	<path fill="#363636" d="M157.4,121.1v3.5c0,0.3,0.1,0.5,0.2,0.6c0.1,0.1,0.3,0.2,0.6,0.2h0.7v0.8h-0.9c-0.6,0-1-0.1-1.3-0.4
		c-0.3-0.3-0.4-0.7-0.4-1.3v-3.5h-0.8v-0.8h0.8v-1.5h1v1.5h1.6v0.8H157.4z"/>
	<path fill="#363636" d="M160.2,119.1c-0.1-0.1-0.2-0.3-0.2-0.5s0.1-0.4,0.2-0.5c0.1-0.1,0.3-0.2,0.5-0.2c0.2,0,0.3,0.1,0.5,0.2
		c0.1,0.1,0.2,0.3,0.2,0.5s-0.1,0.4-0.2,0.5c-0.1,0.1-0.3,0.2-0.5,0.2C160.5,119.3,160.3,119.3,160.2,119.1z M161.2,120.3v6h-1v-6
		H161.2z"/>
	<path fill="#363636" d="M164,126c-0.5-0.3-0.8-0.6-1.1-1.1s-0.4-1-0.4-1.6c0-0.6,0.1-1.2,0.4-1.6c0.3-0.5,0.6-0.8,1.1-1.1
		c0.5-0.3,1-0.4,1.5-0.4c0.6,0,1.1,0.1,1.5,0.4c0.5,0.3,0.8,0.6,1.1,1.1c0.3,0.5,0.4,1,0.4,1.6s-0.1,1.2-0.4,1.6s-0.6,0.8-1.1,1.1
		c-0.5,0.3-1,0.4-1.6,0.4C164.9,126.4,164.4,126.3,164,126z M166.5,125.3c0.3-0.2,0.6-0.4,0.8-0.8c0.2-0.3,0.3-0.7,0.3-1.2
		s-0.1-0.9-0.3-1.2c-0.2-0.3-0.4-0.6-0.7-0.8c-0.3-0.2-0.6-0.2-1-0.2c-0.4,0-0.7,0.1-1,0.2s-0.5,0.4-0.7,0.8s-0.3,0.7-0.3,1.2
		c0,0.5,0.1,0.9,0.3,1.2c0.2,0.3,0.4,0.6,0.7,0.8s0.6,0.2,1,0.2S166.2,125.5,166.5,125.3z"/>
	<path fill="#363636" d="M174.6,120.9c0.5,0.4,0.7,1.1,0.7,1.9v3.5h-1v-3.4c0-0.6-0.2-1.1-0.5-1.4c-0.3-0.3-0.7-0.5-1.2-0.5
		c-0.5,0-0.9,0.2-1.3,0.5c-0.3,0.3-0.5,0.8-0.5,1.4v3.3h-1v-6h1v0.9c0.2-0.3,0.5-0.5,0.8-0.7s0.7-0.3,1.1-0.3
		C173.5,120.2,174.1,120.4,174.6,120.9z"/>
	<path fill="#363636" d="M177.8,126.2c-0.4-0.2-0.7-0.4-0.9-0.7s-0.3-0.6-0.4-1h1c0,0.3,0.2,0.5,0.4,0.7c0.3,0.2,0.6,0.3,1,0.3
		c0.4,0,0.7-0.1,0.9-0.3c0.2-0.2,0.3-0.4,0.3-0.6c0-0.3-0.1-0.5-0.4-0.6s-0.6-0.3-1.1-0.4c-0.4-0.1-0.8-0.2-1.1-0.4
		c-0.3-0.1-0.5-0.3-0.7-0.5c-0.2-0.2-0.3-0.6-0.3-0.9c0-0.3,0.1-0.6,0.3-0.8c0.2-0.3,0.4-0.5,0.8-0.6c0.3-0.1,0.7-0.2,1.2-0.2
		c0.7,0,1.2,0.2,1.6,0.5s0.6,0.8,0.7,1.4h-1c0-0.3-0.1-0.6-0.4-0.8s-0.5-0.3-0.9-0.3c-0.4,0-0.6,0.1-0.9,0.2
		c-0.2,0.2-0.3,0.4-0.3,0.6c0,0.2,0.1,0.4,0.2,0.5s0.3,0.2,0.5,0.3c0.2,0.1,0.5,0.2,0.8,0.3c0.4,0.1,0.8,0.2,1.1,0.3
		c0.3,0.1,0.5,0.3,0.7,0.5c0.2,0.2,0.3,0.5,0.3,0.9c0,0.3-0.1,0.6-0.3,0.9c-0.2,0.3-0.4,0.5-0.8,0.6c-0.3,0.1-0.7,0.2-1.1,0.2
		C178.6,126.4,178.2,126.3,177.8,126.2z"/>
</g>
</svg>
