<?xml version="1.0" encoding="utf-8"?>
<!-- Generator: Adobe Illustrator 26.3.1, SVG Export Plug-In . SVG Version: 6.00 Build 0)  -->
<svg version="1.1" baseProfile="tiny" id="Layer_1" xmlns="http://www.w3.org/2000/svg" xmlns:xlink="http://www.w3.org/1999/xlink"
	 x="0px" y="0px" width="514.7px" height="200.7px" viewBox="0 0 514.7 200.7" overflow="visible" xml:space="preserve">
<path fill="#F2EDED" d="M498.6,200.7H15.9c-8.8,0-15.9-7.2-15.9-16.1V16.1C0,7.2,7.1,0,15.9,0h482.8c8.8,0,15.9,7.2,15.9,16.1v168.6
	C514.6,193.5,507.4,200.7,498.6,200.7z"/>
<g>
	<path fill="#363636" d="M377.6,59.7l-2.6,7h-1l-2.6-7h1l2.2,6l2.2-6H377.6z"/>
	<path fill="#363636" d="M378.6,60.1c-0.1-0.1-0.2-0.3-0.2-0.4c0-0.2,0.1-0.3,0.2-0.4c0.1-0.1,0.3-0.2,0.4-0.2
		c0.2,0,0.3,0.1,0.4,0.2c0.1,0.1,0.2,0.3,0.2,0.4c0,0.2-0.1,0.3-0.2,0.4c-0.1,0.1-0.3,0.2-0.4,0.2C378.9,60.3,378.7,60.2,378.6,60.1
		z M379.5,61.2v5.5h-0.9v-5.5H379.5z"/>
	<path fill="#363636" d="M381.8,66.6c-0.3-0.1-0.6-0.3-0.8-0.6c-0.2-0.3-0.3-0.6-0.3-0.9h0.9c0,0.3,0.2,0.5,0.4,0.7
		c0.2,0.2,0.5,0.3,0.9,0.3c0.3,0,0.6-0.1,0.8-0.2s0.3-0.3,0.3-0.6c0-0.2-0.1-0.4-0.3-0.5c-0.2-0.1-0.5-0.2-1-0.3
		c-0.4-0.1-0.7-0.2-1-0.3c-0.3-0.1-0.5-0.3-0.7-0.5c-0.2-0.2-0.3-0.5-0.3-0.9c0-0.3,0.1-0.5,0.2-0.8s0.4-0.4,0.7-0.6s0.7-0.2,1-0.2
		c0.6,0,1.1,0.2,1.5,0.5c0.4,0.3,0.6,0.7,0.6,1.3H384c0-0.3-0.1-0.5-0.3-0.7c-0.2-0.2-0.5-0.3-0.8-0.3c-0.3,0-0.6,0.1-0.8,0.2
		c-0.2,0.1-0.3,0.3-0.3,0.5c0,0.2,0.1,0.3,0.2,0.4c0.1,0.1,0.3,0.2,0.4,0.3c0.2,0.1,0.4,0.1,0.7,0.2c0.4,0.1,0.7,0.2,1,0.3
		c0.2,0.1,0.5,0.3,0.6,0.5c0.2,0.2,0.3,0.5,0.3,0.8c0,0.3-0.1,0.6-0.2,0.8c-0.2,0.2-0.4,0.4-0.7,0.6c-0.3,0.1-0.7,0.2-1,0.2
		C382.5,66.8,382.2,66.7,381.8,66.6z"/>
	<path fill="#363636" d="M386.3,60.1c-0.1-0.1-0.2-0.3-0.2-0.4c0-0.2,0.1-0.3,0.2-0.4c0.1-0.1,0.3-0.2,0.4-0.2
		c0.2,0,0.3,0.1,0.4,0.2c0.1,0.1,0.2,0.3,0.2,0.4c0,0.2-0.1,0.3-0.2,0.4c-0.1,0.1-0.3,0.2-0.4,0.2C386.5,60.3,386.4,60.2,386.3,60.1
		z M387.1,61.2v5.5h-0.9v-5.5H387.1z"/>
	<path fill="#363636" d="M389.7,66.4c-0.4-0.2-0.7-0.6-1-1s-0.4-0.9-0.4-1.5c0-0.6,0.1-1.1,0.4-1.5c0.2-0.4,0.6-0.8,1-1
		c0.4-0.2,0.9-0.3,1.4-0.3c0.5,0,1,0.1,1.4,0.3c0.4,0.2,0.8,0.6,1,1c0.2,0.4,0.4,0.9,0.4,1.5s-0.1,1.1-0.4,1.5s-0.6,0.8-1,1
		s-0.9,0.3-1.4,0.3C390.6,66.8,390.1,66.7,389.7,66.4z M392,65.7c0.3-0.2,0.5-0.4,0.7-0.7s0.3-0.7,0.3-1.1s-0.1-0.8-0.3-1.1
		c-0.2-0.3-0.4-0.5-0.7-0.7c-0.3-0.2-0.6-0.2-0.9-0.2c-0.3,0-0.6,0.1-0.9,0.2c-0.3,0.1-0.5,0.4-0.7,0.7c-0.2,0.3-0.2,0.7-0.2,1.1
		c0,0.4,0.1,0.8,0.2,1.1c0.2,0.3,0.4,0.5,0.7,0.7c0.3,0.1,0.6,0.2,0.9,0.2S391.7,65.9,392,65.7z"/>
	<path fill="#363636" d="M399.4,61.7c0.4,0.4,0.6,1,0.6,1.7v3.2h-0.9v-3.1c0-0.5-0.1-1-0.4-1.3c-0.3-0.3-0.6-0.4-1.1-0.4
		c-0.5,0-0.9,0.2-1.1,0.5s-0.4,0.7-0.4,1.3v3h-0.9v-5.5h0.9V62c0.2-0.3,0.4-0.5,0.7-0.6c0.3-0.2,0.7-0.2,1-0.2
		C398.4,61.1,399,61.3,399.4,61.7z"/>
</g>
<g>
	<path fill="#363636" d="M248.5,143.7c-0.4-0.2-0.6-0.4-0.9-0.7c-0.2-0.3-0.3-0.6-0.3-1h1c0,0.3,0.2,0.6,0.4,0.8
		c0.2,0.2,0.6,0.3,1,0.3c0.4,0,0.8-0.1,1-0.3c0.2-0.2,0.4-0.5,0.4-0.8c0-0.3-0.1-0.5-0.2-0.6c-0.1-0.2-0.3-0.3-0.6-0.4
		c-0.2-0.1-0.5-0.2-0.9-0.3c-0.5-0.1-0.8-0.2-1.1-0.4c-0.3-0.1-0.5-0.3-0.7-0.6c-0.2-0.3-0.3-0.6-0.3-1c0-0.4,0.1-0.7,0.3-1
		c0.2-0.3,0.5-0.5,0.8-0.7c0.4-0.2,0.8-0.2,1.2-0.2c0.7,0,1.2,0.2,1.6,0.5c0.4,0.3,0.7,0.8,0.7,1.3h-1c0-0.3-0.2-0.5-0.4-0.7
		c-0.2-0.2-0.6-0.3-1-0.3c-0.4,0-0.7,0.1-0.9,0.3c-0.2,0.2-0.4,0.5-0.4,0.8c0,0.3,0.1,0.5,0.2,0.6s0.3,0.3,0.5,0.4s0.5,0.2,0.9,0.3
		c0.5,0.1,0.8,0.3,1.1,0.4c0.3,0.1,0.5,0.3,0.7,0.6c0.2,0.3,0.3,0.6,0.3,1c0,0.3-0.1,0.7-0.3,1c-0.2,0.3-0.4,0.5-0.8,0.7
		s-0.8,0.3-1.2,0.3C249.2,144,248.8,143.9,248.5,143.7z"/>
	<path fill="#363636" d="M254.5,139.2v3.2c0,0.3,0.1,0.5,0.2,0.6c0.1,0.1,0.3,0.2,0.6,0.2h0.7v0.8h-0.8c-0.5,0-0.9-0.1-1.1-0.3
		s-0.4-0.6-0.4-1.2v-3.2h-0.7v-0.8h0.7v-1.4h0.9v1.4h1.4v0.8H254.5z"/>
	<path fill="#363636" d="M258.6,138.6c0.3-0.2,0.7-0.3,1.1-0.3v0.9h-0.2c-1,0-1.5,0.6-1.5,1.7v3H257v-5.5h0.9v0.9
		C258.1,139,258.3,138.8,258.6,138.6z"/>
	<path fill="#363636" d="M260.7,139.7c0.2-0.4,0.5-0.8,0.9-1c0.4-0.2,0.8-0.4,1.3-0.4c0.5,0,0.9,0.1,1.2,0.3
		c0.4,0.2,0.6,0.5,0.8,0.8v-1h0.9v5.5H265v-1c-0.2,0.3-0.4,0.6-0.8,0.8s-0.8,0.3-1.2,0.3c-0.5,0-0.9-0.1-1.3-0.4
		c-0.4-0.2-0.7-0.6-0.9-1c-0.2-0.4-0.3-0.9-0.3-1.5C260.4,140.6,260.5,140.1,260.7,139.7z M264.8,140.1c-0.2-0.3-0.4-0.5-0.7-0.7
		c-0.3-0.2-0.6-0.2-0.9-0.2s-0.7,0.1-0.9,0.2c-0.3,0.2-0.5,0.4-0.7,0.7c-0.2,0.3-0.2,0.7-0.2,1.1c0,0.4,0.1,0.8,0.2,1.1
		c0.2,0.3,0.4,0.5,0.7,0.7c0.3,0.2,0.6,0.2,0.9,0.2s0.7-0.1,0.9-0.2s0.5-0.4,0.7-0.7c0.2-0.3,0.2-0.7,0.2-1.1
		S264.9,140.4,264.8,140.1z"/>
	<path fill="#363636" d="M268.6,139.2v3.2c0,0.3,0.1,0.5,0.2,0.6c0.1,0.1,0.3,0.2,0.6,0.2h0.7v0.8h-0.8c-0.5,0-0.9-0.1-1.1-0.3
		c-0.3-0.2-0.4-0.6-0.4-1.2v-3.2H267v-0.8h0.7v-1.4h0.9v1.4h1.4v0.8H268.6z"/>
	<path fill="#363636" d="M276.1,141.5h-4.4c0,0.5,0.2,1,0.6,1.3c0.3,0.3,0.7,0.5,1.2,0.5c0.4,0,0.7-0.1,1-0.3s0.4-0.4,0.6-0.7h1
		c-0.1,0.5-0.4,1-0.9,1.3s-1,0.5-1.6,0.5c-0.5,0-1-0.1-1.4-0.3s-0.7-0.6-1-1s-0.3-0.9-0.3-1.5s0.1-1.1,0.3-1.5s0.5-0.8,1-1
		c0.4-0.2,0.9-0.3,1.4-0.3c0.5,0,1,0.1,1.4,0.3c0.4,0.2,0.7,0.5,0.9,0.9s0.3,0.8,0.3,1.3C276.1,141.1,276.1,141.3,276.1,141.5z
		 M275,139.9c-0.2-0.2-0.4-0.4-0.6-0.6c-0.3-0.1-0.6-0.2-0.9-0.2c-0.5,0-0.9,0.1-1.2,0.4c-0.3,0.3-0.5,0.7-0.6,1.2h3.5
		C275.2,140.4,275.1,140.1,275,139.9z"/>
	<path fill="#363636" d="M280.8,138.7c0.4,0.2,0.6,0.5,0.8,0.8v-1h0.9v5.6c0,0.5-0.1,0.9-0.3,1.3c-0.2,0.4-0.5,0.7-0.9,0.9
		s-0.9,0.3-1.4,0.3c-0.7,0-1.3-0.2-1.8-0.5c-0.5-0.3-0.8-0.8-0.8-1.4h0.9c0.1,0.3,0.3,0.6,0.6,0.8c0.3,0.2,0.7,0.3,1.1,0.3
		c0.5,0,0.9-0.2,1.2-0.5c0.3-0.3,0.5-0.8,0.5-1.3v-1.2c-0.2,0.3-0.4,0.6-0.8,0.8c-0.4,0.2-0.8,0.3-1.2,0.3c-0.5,0-0.9-0.1-1.3-0.4
		c-0.4-0.2-0.7-0.6-0.9-1c-0.2-0.4-0.3-0.9-0.3-1.5c0-0.6,0.1-1.1,0.3-1.5c0.2-0.4,0.5-0.8,0.9-1s0.8-0.4,1.3-0.4
		C280.1,138.4,280.5,138.5,280.8,138.7z M281.4,140.1c-0.2-0.3-0.4-0.5-0.7-0.7c-0.3-0.2-0.6-0.2-0.9-0.2s-0.6,0.1-0.9,0.2
		s-0.5,0.4-0.7,0.7c-0.2,0.3-0.2,0.7-0.2,1.1c0,0.4,0.1,0.8,0.2,1.1c0.2,0.3,0.4,0.5,0.7,0.7s0.6,0.2,0.9,0.2s0.7-0.1,0.9-0.2
		c0.3-0.2,0.5-0.4,0.7-0.7c0.2-0.3,0.2-0.7,0.2-1.1S281.5,140.4,281.4,140.1z"/>
	<path fill="#363636" d="M288.8,138.4l-3.3,8.1h-0.9l1.1-2.6l-2.2-5.4h1l1.7,4.4l1.7-4.4H288.8z"/>
</g>
<g>
	<path fill="#363636" d="M109.4,88.8v6.9h-0.9v-5.2l-2.3,5.2h-0.6l-2.3-5.2v5.2h-0.9v-6.9h1l2.6,5.7l2.6-5.7H109.4z"/>
	<path fill="#363636" d="M111,89.2c-0.1-0.1-0.2-0.3-0.2-0.4c0-0.2,0.1-0.3,0.2-0.4c0.1-0.1,0.3-0.2,0.4-0.2c0.2,0,0.3,0.1,0.4,0.2
		s0.2,0.3,0.2,0.4c0,0.2-0.1,0.3-0.2,0.4s-0.3,0.2-0.4,0.2C111.2,89.4,111.1,89.3,111,89.2z M111.8,90.3v5.5h-0.9v-5.5H111.8z"/>
	<path fill="#363636" d="M114.2,95.6c-0.3-0.1-0.6-0.3-0.8-0.6c-0.2-0.3-0.3-0.6-0.3-0.9h0.9c0,0.3,0.2,0.5,0.4,0.7
		c0.2,0.2,0.5,0.3,0.9,0.3c0.3,0,0.6-0.1,0.8-0.2s0.3-0.3,0.3-0.6c0-0.2-0.1-0.4-0.3-0.5c-0.2-0.1-0.5-0.2-1-0.3
		c-0.4-0.1-0.7-0.2-1-0.3c-0.3-0.1-0.5-0.3-0.7-0.5c-0.2-0.2-0.3-0.5-0.3-0.9c0-0.3,0.1-0.5,0.2-0.8c0.2-0.2,0.4-0.4,0.7-0.6
		s0.7-0.2,1-0.2c0.6,0,1.1,0.2,1.5,0.5c0.4,0.3,0.6,0.7,0.6,1.3h-0.9c0-0.3-0.1-0.5-0.3-0.7c-0.2-0.2-0.5-0.3-0.8-0.3
		c-0.3,0-0.6,0.1-0.8,0.2c-0.2,0.1-0.3,0.3-0.3,0.5c0,0.2,0.1,0.3,0.2,0.4c0.1,0.1,0.3,0.2,0.4,0.3c0.2,0.1,0.4,0.1,0.7,0.2
		c0.4,0.1,0.7,0.2,1,0.3s0.5,0.3,0.6,0.5c0.2,0.2,0.3,0.5,0.3,0.8c0,0.3-0.1,0.6-0.2,0.8c-0.2,0.2-0.4,0.4-0.7,0.6s-0.7,0.2-1,0.2
		C114.9,95.8,114.5,95.8,114.2,95.6z"/>
	<path fill="#363636" d="M119.4,95.6c-0.3-0.1-0.6-0.3-0.8-0.6c-0.2-0.3-0.3-0.6-0.3-0.9h0.9c0,0.3,0.2,0.5,0.4,0.7
		c0.2,0.2,0.5,0.3,0.9,0.3c0.3,0,0.6-0.1,0.8-0.2s0.3-0.3,0.3-0.6c0-0.2-0.1-0.4-0.3-0.5c-0.2-0.1-0.5-0.2-1-0.3
		c-0.4-0.1-0.7-0.2-1-0.3c-0.3-0.1-0.5-0.3-0.7-0.5c-0.2-0.2-0.3-0.5-0.3-0.9c0-0.3,0.1-0.5,0.2-0.8c0.2-0.2,0.4-0.4,0.7-0.6
		s0.7-0.2,1-0.2c0.6,0,1.1,0.2,1.5,0.5c0.4,0.3,0.6,0.7,0.6,1.3h-0.9c0-0.3-0.1-0.5-0.3-0.7c-0.2-0.2-0.5-0.3-0.8-0.3
		c-0.3,0-0.6,0.1-0.8,0.2c-0.2,0.1-0.3,0.3-0.3,0.5c0,0.2,0.1,0.3,0.2,0.4c0.1,0.1,0.3,0.2,0.4,0.3c0.2,0.1,0.4,0.1,0.7,0.2
		c0.4,0.1,0.7,0.2,1,0.3s0.5,0.3,0.6,0.5c0.2,0.2,0.3,0.5,0.3,0.8c0,0.3-0.1,0.6-0.2,0.8c-0.2,0.2-0.4,0.4-0.7,0.6s-0.7,0.2-1,0.2
		C120.1,95.8,119.8,95.8,119.4,95.6z"/>
	<path fill="#363636" d="M123.9,89.2c-0.1-0.1-0.2-0.3-0.2-0.4c0-0.2,0.1-0.3,0.2-0.4c0.1-0.1,0.3-0.2,0.4-0.2
		c0.2,0,0.3,0.1,0.4,0.2s0.2,0.3,0.2,0.4c0,0.2-0.1,0.3-0.2,0.4s-0.3,0.2-0.4,0.2C124.1,89.4,124,89.3,123.9,89.2z M124.7,90.3v5.5
		h-0.9v-5.5H124.7z"/>
	<path fill="#363636" d="M127.3,95.5c-0.4-0.2-0.7-0.6-1-1c-0.2-0.4-0.4-0.9-0.4-1.5c0-0.6,0.1-1.1,0.4-1.5c0.2-0.4,0.6-0.8,1-1
		c0.4-0.2,0.9-0.3,1.4-0.3s1,0.1,1.4,0.3c0.4,0.2,0.8,0.6,1,1c0.2,0.4,0.4,0.9,0.4,1.5s-0.1,1.1-0.4,1.5s-0.6,0.8-1,1
		c-0.4,0.2-0.9,0.3-1.4,0.3C128.2,95.8,127.7,95.7,127.3,95.5z M129.6,94.8c0.3-0.2,0.5-0.4,0.7-0.7s0.3-0.7,0.3-1.1
		s-0.1-0.8-0.3-1.1s-0.4-0.5-0.7-0.7c-0.3-0.2-0.6-0.2-0.9-0.2c-0.3,0-0.6,0.1-0.9,0.2c-0.3,0.1-0.5,0.4-0.7,0.7s-0.2,0.7-0.2,1.1
		c0,0.4,0.1,0.8,0.2,1.1c0.2,0.3,0.4,0.5,0.7,0.7c0.3,0.1,0.6,0.2,0.9,0.2C129,95,129.3,95,129.6,94.8z"/>
	<path fill="#363636" d="M137,90.8c0.4,0.4,0.6,1,0.6,1.7v3.2h-0.9v-3.1c0-0.5-0.1-1-0.4-1.3c-0.3-0.3-0.6-0.4-1.1-0.4
		c-0.5,0-0.9,0.2-1.1,0.5s-0.4,0.7-0.4,1.3v3h-0.9v-5.5h0.9V91c0.2-0.3,0.4-0.5,0.7-0.6s0.7-0.2,1-0.2C136,90.2,136.6,90.4,137,90.8
		z"/>
</g>
<polyline fill="none" stroke="#C4B0D4" stroke-width="3" stroke-miterlimit="10" points="58.5,173.6 58.5,159.9 128.9,159.9 
	128.9,144.5 235.6,144.5 235.6,125.1 310,125.1 310,108.6 348.3,108.6 348.3,95.5 377.3,95.5 377.3,85.8 456.2,85.8 "/>
<g id="iNBvJd_00000099630986915673810100000016116898735460423352_">
	<g>
		<path fill="#C4B0D4" d="M78.9,105.3c-1.2,1.9-2.6,3.7-3.5,5.6c-1.2,2.4-2.1,4.8-3.1,7.3c-1,2.6-3.1,4.1-5.6,3.8
			c-3.4-0.4-5.5-3.5-4.5-6.8c3-9.6,8.1-17.7,16.6-23.5c2.9-2,6-1.5,8,1.4c3.1,4.6,6.6,8.7,11.3,11.7c1.2,0.8,2.5,1.4,3.7,2
			c2.1,1.1,3.4,3.2,3.2,5.3c-0.3,2.5-1.8,4.2-4.2,4.9c-1.3,0.3-2.5,0.1-3.6-0.4c-1.2-0.6-2.4-1.2-3.6-1.8c-1.1-0.6-2.2-1.4-3.4-2.2
			c-0.1,1.7-0.2,3.3-0.4,5c-0.6,6.2-2.3,12-5,17.6c-4.2,8.6-9.7,16.3-16.4,23.1c-1.5,1.5-3.3,2.3-5.4,1.6c-2-0.6-3.2-1.9-3.7-3.9
			c-0.4-2,0.3-3.6,1.7-5.1c6.3-6.7,11.8-14,15.4-22.5c3.1-7.1,4-14.5,3-22.2c0-0.3-0.1-0.5-0.2-0.8C79.1,105.4,79,105.4,78.9,105.3z
			"/>
		<path fill="#C4B0D4" d="M92.3,121.9c2.5,4.9,5,9.7,7.4,14.4c2.7,5.3,5.5,10.7,8.2,16c1.3,2.6,0.8,5.3-1.3,6.8
			c-2.5,1.7-5.9,0.9-7.3-2c-3.4-6.7-6.8-13.4-10.2-20.1c-0.7-1.4-0.9-2.5-0.2-4.1c1.6-3.3,2.5-6.8,3.2-10.4
			C92.1,122.5,92.2,122.3,92.3,121.9z"/>
		<path fill="#C4B0D4" d="M82.1,88.7c-4.5,0-8.2-3.7-8.2-8.2c0-4.5,3.8-8.2,8.2-8.2c4.5,0,8.2,3.8,8.2,8.2
			C90.3,84.9,86.6,88.7,82.1,88.7z"/>
	</g>
</g>
<g id="mKPC0o_00000147194902349432143110000003018123663454066850_">
	<path fill="#6A23CB" d="M87.3,97.4c0.3-0.3,0.5-0.5,0.8-0.8c1.1-1,2.7-1.2,4-0.5c1.1,0.6,1.7,1.5,1.9,2.7c0.2,1.3-0.2,2.4-1.1,3.3
		c-1.7,1.8-3.4,3.6-5.1,5.4c-0.3,0.3-0.6,0.3-0.9,0c-1.7-1.8-3.5-3.7-5.2-5.5c-1.6-1.7-1.3-4.3,0.5-5.6c1.1-0.8,2.9-0.9,4,0
		c0.3,0.3,0.6,0.6,0.9,0.9C87.2,97.3,87.2,97.4,87.3,97.4z"/>
</g>
<g id="_x34_nPTf3_00000014620858619504789920000004697951186458493830_">
	<g>
		<path fill="#6A23CB" d="M440.2,46.5c-1.4-0.2-1.4-0.2-1.4-1.5c0-0.7,0-1.3,0-2c0-0.7,0.2-0.9,0.9-0.9c0.4,0,0.7,0,1.1,0
			c0,0,0.1,0,0.1-0.1c0-0.4,0-0.8,0-1.1c0-0.1-0.1-0.2-0.2-0.3c-0.4-0.2-0.6-0.5-0.5-0.9c0.2-1.5,1-2.7,2.5-3.2
			c0.4-0.1,0.5-0.3,0.4-0.7c0-0.3,0-0.6,0-1c0.5,0,0.9,0,1.5,0c0,0.4,0,0.7,0,1.1c0,0.3,0.1,0.4,0.4,0.5c1.4,0.5,2.2,1.5,2.5,2.9
			c0.1,0.7,0,1-0.6,1.3c0,0.4,0,0.9,0,1.4c0.4,0,0.8,0,1.2,0c0.7,0,0.9,0.3,1,0.9c0,0.8,0,1.6,0,2.4c0,0.8-0.2,1-1,1
			c-0.1,0-0.2,0-0.4,0c0.2,1.7,0.4,3.3,0.6,5c1.1,0,2.1,0,3.2,0c0.5,0,0.9,0.1,1.3,0.5c1,0.8,2,1.6,3,2.4c0.3,0.3,0.5,0.6,0.5,1
			c0,1.2,0,2.4,0,3.6c0,0.1,0,0.3,0,0.5c-0.2,0-0.4,0-0.6,0c-3.8,0-7.6,0-11.3,0c-0.6,0-1.2,0.1-1.6,0.7c1.4,0,2.8,0,4.1,0
			c0,0.5,0,1,0,1.5c-0.2,0-0.4,0-0.5,0c-2.3,0-4.7,0-7,0c-1.3,0-1.8,0.5-1.8,1.8c0,1.9,0,3.7,0,5.6c0,0.2,0,0.3,0,0.5
			c-0.5,0-0.9,0-1.4,0c0-1.4,0-2.8,0-4.3c-1.9,0-3.8,0-5.8,0c0-0.5,0-1,0-1.4c0.2,0,0.4,0,0.5-0.1c0.1-1.7-1.8-4.9-5.5-5
			c-3.4-0.1-5.7,2.6-5.9,5c1.9,0,3.8,0,5.7,0c0,0.5,0,0.9,0,1.4c-4.1,0-8.1,0-12.2,0c0-0.4,0-0.9,0-1.4c1.6,0,3.3,0,5,0
			c0.3-2.4,1.4-4.3,3.5-5.5c1.4-0.9,3-1.2,4.6-1c3.1,0.4,5.7,2.6,6.3,6.4c1.2,0,2.4,0,3.6,0c0-0.9,0-1.8,0.6-2.5
			c0.6-0.7,1.3-1.1,2.3-1.1C439.3,55.6,439.8,51.1,440.2,46.5z M446.2,46.4c-1.5,0-2.8,0-4.2,0c-0.3,0-0.3,0.2-0.3,0.4
			c-0.3,3.6-0.7,7.2-1,10.8c-0.1,0.8-0.1,1.6-0.2,2.4c0.3,0,0.5,0,0.7,0c0,0-0.1-0.1-0.1-0.1c0.4-0.5,0.8-1,1.3-1.5
			c0.1-0.1,0.2-0.3,0.2-0.5c0-0.9,0-1.8,0-2.7c0-0.3,0.1-0.6,0.3-0.7c1.3-1.1,2.6-2.1,4-3.2C446.5,49.8,446.3,48.2,446.2,46.4z
			 M454.7,58c0-0.8,0-1.6,0-2.4c0-0.1-0.1-0.2-0.1-0.2c-0.9-0.7-1.8-1.5-2.8-2.2c-0.9,0.7-1.8,1.4-2.7,2.1c-0.1,0.1-0.2,0.2-0.2,0.3
			c0,0.8,0,1.6,0,2.4c0.7,0,1.4,0,2.2,0c0-0.7,0-1.4,0-2.1c0.5,0,1,0,1.4,0c0,0.7,0,1.4,0,2.1C453.3,58,454,58,454.7,58z
			 M440.3,43.6c0,0.5,0,0.9,0,1.4c2.4,0,4.8,0,7.1,0c0-0.5,0-0.9,0-1.4C445.1,43.6,442.7,43.6,440.3,43.6z M443.9,58
			c1.2,0,2.4,0,3.5,0c0-0.7,0-1.4,0-2.1c-1.2,0-2.4,0-3.5,0C443.9,56.6,443.9,57.3,443.9,58z M445.9,39.2c-0.2-0.8-1.1-1.4-2-1.4
			c-0.9,0-1.7,0.6-2,1.4C443.3,39.2,444.6,39.2,445.9,39.2z M449.7,53C449.7,53,449.6,53,449.7,53c-0.7-0.1-1.3,0-1.9-0.1
			c-1.2-0.1-1.6,0.9-2.4,1.4c0.8,0.1,1.6,0.1,2.4,0.1c0.1,0,0.2,0,0.3-0.1C448.6,53.9,449.2,53.5,449.7,53z M443.2,41.4
			c0.5,0,1,0,1.4,0c0,0.2,0,0.5,0.1,0.7c0.2,0,0.4,0,0.6,0c0-0.5,0-0.9,0-1.4c-1,0-1.9,0-2.8,0c0,0.5,0,0.9,0,1.4c0.2,0,0.4,0,0.7,0
			C443.2,41.8,443.2,41.6,443.2,41.4z"/>
		<path fill="#6A23CB" d="M439.6,69.5c0.5-0.4,0.8-0.8,0.7-1.4c-0.1-0.7,0-1.4,0-2.1c0.5,0,0.9,0,1.4,0c0,0.7,0,1.4,0,2.1
			c0.5,0,0.9,0,1.4,0c1.6,0,3.2,0,4.8,0c0.8,0,1-0.2,1.1-1.1c0-1,0-2,0.2-2.9c0.4-1.5,1.5-2.4,3.1-2.5c1.3-0.1,2.6,0,3.9,0
			c0,0.4,0,0.9,0,1.4c-0.3,0-0.6,0-0.8,0c-0.8,0-1.7,0-2.5,0c-1.5,0-2.3,0.9-2.4,2.4c0,0.6,0,1.2,0,1.8c0,1.4-0.9,2.3-2.3,2.3
			c-1.7,0-3.5,0-5.2,0c-1.7,0-2.6,0.9-2.6,2.6c0,0.5,0,0.9,0,1.4c0,0.2,0.1,0.4,0.3,0.4c1.7,0,3.5,0,5.2,0c0.1,0,0.3-0.2,0.4-0.3
			c0.5-1.8,2.2-2.7,3.9-2.6c0.3,0,0.6,0,1,0c0-1,0-1.9,0-2.9c0.5,0,1,0,1.5,0c0,0.9,0,1.9,0,2.8c0.3,0,0.5,0,0.7,0
			c0-1.4,0-2.8,0-4.3c0.5,0,0.9,0,1.5,0c0,1.4,0,2.8,0,4.3c0.5,0,1,0,1.4,0c0,0.5,0,0.9,0,1.5c-0.2,0-0.4,0-0.5,0
			c-1.9,0-3.8,0-5.7,0c-1.6,0-2.5,0.9-2.5,2.5c0,0.6,0,1.2,0,1.8c0.2,0,0.4,0,0.7,0c0-0.4,0-0.9,0-1.4c0.5,0,1,0,1.5,0
			c0,0.4,0,0.9,0,1.4c0.3,0,0.5,0,0.7,0c0-0.7,0-1.4,0-2.1c0.5,0,0.9,0,1.4,0c0,0.7,0,1.4,0,2.1c1.5,0,2.9,0,4.3,0c0,0.5,0,1,0,1.4
			c-5,0-10.1,0-15.1,0c0-0.5,0-0.9,0-1.4c1.7,0,3.3,0,5,0c0-0.5,0-0.9,0-1.4c-0.2,0-0.4,0-0.6,0c-1.7,0-3.4,0-5.1,0
			c-1.4,0-1.4,0-1.6-1.5c-1.9,0-3.8,0-5.7,0c0-0.5,0-0.9,0-1.4c1.9,0,3.8,0,5.8,0C438.8,71.4,439,70.4,439.6,69.5L439.6,69.5z"/>
		<path fill="#6A23CB" d="M420.1,69.5c0-0.5,0-0.9,0-1.4c3.4,0,6.7,0,10.1,0c0,0.5,0,0.9,0,1.4C426.8,69.5,423.4,69.5,420.1,69.5z"
			/>
		<path fill="#6A23CB" d="M425.8,44.2c-0.5,0-0.9,0-1.4,0c0-3.1,0-6.2,0-9.4c0.5,0,0.9,0,1.4,0C425.8,38,425.8,41.1,425.8,44.2z"/>
		<path fill="#6A23CB" d="M412.8,73.9c0-0.5,0-0.9,0-1.4c3.1,0,6.2,0,9.3,0c0,0.5,0,0.9,0,1.4C419.1,73.9,416,73.9,412.8,73.9z"/>
		<path fill="#6A23CB" d="M412.8,78.2c0-0.5,0-0.9,0-1.4c2.6,0,5.2,0,7.9,0c0,0.5,0,0.9,0,1.4C418.1,78.2,415.5,78.2,412.8,78.2z"/>
		<path fill="#6A23CB" d="M422.2,76.8c2.2,0,4.3,0,6.5,0c0,0.5,0,0.9,0,1.4c-2.1,0-4.3,0-6.5,0C422.2,77.8,422.2,77.3,422.2,76.8z"
			/>
		<path fill="#6A23CB" d="M430.2,78.2c0-0.5,0-0.9,0-1.4c2.2,0,4.3,0,6.4,0c0,0.5,0,0.9,0,1.4C434.5,78.2,432.4,78.2,430.2,78.2z"/>
		<path fill="#6A23CB" d="M425.8,55.8c-0.5,0-0.9,0-1.4,0c0-1.9,0-3.8,0-5.8c0.5,0,0.9,0,1.4,0C425.8,52,425.8,53.9,425.8,55.8z"/>
		<path fill="#6A23CB" d="M439.6,69.5c-0.5,0-1,0-1.5,0c0-1.9,0-3.8,0-5.7c0.5,0,0.9,0,1.5,0C439.6,65.7,439.6,67.6,439.6,69.5
			C439.6,69.5,439.6,69.5,439.6,69.5z"/>
		<path fill="#6A23CB" d="M431.7,51.6c0.4,0.3,0.8,0.5,1.3,0.7c-1,1.7-1.9,3.3-2.9,5c-0.4-0.2-0.8-0.5-1.3-0.7
			C429.8,55,430.7,53.3,431.7,51.6z"/>
		<path fill="#6A23CB" d="M437.3,56.7c0.2,0.4,0.5,0.8,0.7,1.3c-1.7,1-3.3,1.9-5,2.9c-0.3-0.4-0.5-0.8-0.7-1.3
			C433.9,58.6,435.6,57.6,437.3,56.7z"/>
		<path fill="#6A23CB" d="M421.4,56.6c-0.4,0.2-0.8,0.5-1.3,0.7c-1-1.7-1.9-3.3-2.9-5c0.4-0.2,0.8-0.5,1.3-0.7
			C419.5,53.3,420.4,55,421.4,56.6z"/>
		<path fill="#6A23CB" d="M412.2,57.9c0.3-0.4,0.5-0.8,0.7-1.3c1.7,1,3.3,1.9,5,2.9c-0.2,0.4-0.5,0.8-0.7,1.3
			C415.5,59.8,413.9,58.9,412.2,57.9z"/>
		<path fill="#6A23CB" d="M435.9,47.3c-0.4-0.3-0.8-0.5-1.3-0.7c0.9-1.6,1.9-3.2,2.8-4.9c0.4,0.2,0.8,0.5,1.3,0.7
			C437.7,44.1,436.8,45.7,435.9,47.3z"/>
		<path fill="#6A23CB" d="M426.6,73.9c0-0.5,0-0.9,0-1.4c1.7,0,3.3,0,5,0c0,0.5,0,0.9,0,1.4C429.9,73.9,428.3,73.9,426.6,73.9z"/>
		<path fill="#6A23CB" d="M414.4,47.4c-0.7-1.2-1.4-2.3-2.2-3.4c0.4-0.3,0.8-0.5,1.2-0.8c0.7,1.1,1.4,2.3,2.2,3.4
			C415.2,46.8,414.8,47.1,414.4,47.4z"/>
		<path fill="#6A23CB" d="M425.8,48.6c-0.5,0-0.9,0-1.4,0c0-0.9,0-1.9,0-2.8c0.4,0,0.9,0,1.4,0C425.8,46.7,425.8,47.6,425.8,48.6z"
			/>
		<path fill="#6A23CB" d="M412.8,69.5c0-0.5,0-0.9,0-1.4c1,0,1.9,0,2.9,0c0,0.5,0,0.9,0,1.4C414.7,69.5,413.8,69.5,412.8,69.5z"/>
		<path fill="#6A23CB" d="M431.6,68.1c1,0,1.9,0,2.8,0c0,0.5,0,0.9,0,1.4c-0.9,0-1.9,0-2.8,0C431.6,69.1,431.6,68.6,431.6,68.1z"/>
		<path fill="#6A23CB" d="M417.8,50.4c-0.4,0.2-0.8,0.5-1.3,0.7c-0.5-0.8-1-1.7-1.4-2.5c0.4-0.2,0.8-0.5,1.3-0.7
			C416.8,48.7,417.3,49.5,417.8,50.4z"/>
		<path fill="#6A23CB" d="M435.1,48.6c-0.5,0.9-1,1.7-1.4,2.5c-0.4-0.2-0.8-0.5-1.3-0.7c0.5-0.8,0.9-1.6,1.4-2.5
			C434.3,48.1,434.7,48.3,435.1,48.6z"/>
		<path fill="#6A23CB" d="M426.6,65.2c0-0.5,0-0.9,0-1.4c0.7,0,1.4,0,2.1,0c0,0.4,0,0.9,0,1.4C428,65.2,427.3,65.2,426.6,65.2z"/>
		<path fill="#6A23CB" d="M423.7,72.5c0.5,0,0.9,0,1.4,0c0,0.5,0,0.9,0,1.4c-0.5,0-0.9,0-1.4,0C423.7,73.4,423.7,73,423.7,72.5z"/>
		<path fill="#6A23CB" d="M417.2,68.1c0.5,0,0.9,0,1.4,0c0,0.5,0,0.9,0,1.4c-0.4,0-0.9,0-1.4,0C417.2,69.1,417.2,68.6,417.2,68.1z"
			/>
		<path fill="#6A23CB" d="M439.6,76.8c0,0.5,0,0.9,0,1.4c-0.5,0-0.9,0-1.4,0c0-0.4,0-0.9,0-1.4C438.6,76.8,439.1,76.8,439.6,76.8z"
			/>
		<path fill="#6A23CB" d="M445.3,51.5c-0.5,0-0.9,0-1.4,0c0-0.5,0-0.9,0-1.4c0.5,0,0.9,0,1.4,0C445.3,50.6,445.3,51,445.3,51.5z"/>
		<path fill="#6A23CB" d="M443.9,48.6c-0.5,0-0.9,0-1.4,0c0-0.5,0-0.9,0-1.4c0.5,0,0.9,0,1.4,0C443.9,47.6,443.9,48.1,443.9,48.6z"
			/>
		<path fill="#6A23CB" d="M443.2,52.3c0,0.5,0,0.9,0,1.4c-0.5,0-0.9,0-1.4,0c0-0.4,0-0.9,0-1.4C442.2,52.3,442.7,52.3,443.2,52.3z"
			/>
	</g>
</g>
</svg>
