<?xml version="1.0" encoding="utf-8"?>
<!-- Generator: Adobe Illustrator 26.3.1, SVG Export Plug-In . SVG Version: 6.00 Build 0)  -->
<svg version="1.1" baseProfile="tiny" id="Layer_1" xmlns="http://www.w3.org/2000/svg" xmlns:xlink="http://www.w3.org/1999/xlink"
	 x="0px" y="0px" width="514.7px" height="197.2px" viewBox="0 0 514.7 197.2" overflow="visible" xml:space="preserve">
<path fill="#F2EDED" d="M498.6,197.2H15.9c-8.8,0-15.9-4.4-15.9-9.8V9.8C0,4.4,7.1,0,15.9,0h482.8c8.8,0,15.9,4.4,15.9,9.8v177.7
	C514.6,192.8,507.4,197.2,498.6,197.2z"/>
<g>
	<path fill="#363636" d="M38.1,122.6h2.8v1.3h-4.4v-8.4h1.7V122.6z"/>
	<path fill="#363636" d="M48,121.1h-4.9c0,0.5,0.2,0.9,0.5,1.1c0.3,0.3,0.7,0.4,1.1,0.4c0.6,0,1.1-0.3,1.3-0.8h1.8
		c-0.2,0.6-0.6,1.2-1.1,1.6s-1.2,0.6-2,0.6c-0.6,0-1.2-0.1-1.7-0.4c-0.5-0.3-0.9-0.7-1.2-1.2c-0.3-0.5-0.4-1.1-0.4-1.8
		c0-0.7,0.1-1.3,0.4-1.8c0.3-0.5,0.7-0.9,1.2-1.2c0.5-0.3,1.1-0.4,1.7-0.4c0.6,0,1.2,0.1,1.7,0.4c0.5,0.3,0.9,0.7,1.2,1.2
		c0.3,0.5,0.4,1.1,0.4,1.7C48.1,120.7,48.1,120.9,48,121.1z M46.3,120c0-0.4-0.2-0.8-0.5-1c-0.3-0.3-0.7-0.4-1.1-0.4
		c-0.4,0-0.8,0.1-1.1,0.4c-0.3,0.3-0.5,0.6-0.5,1H46.3z"/>
	<path fill="#363636" d="M49.3,118.8c0.3-0.5,0.6-0.9,1.1-1.2c0.5-0.3,1-0.4,1.5-0.4c0.5,0,0.9,0.1,1.3,0.3s0.7,0.5,0.9,0.8v-0.9
		h1.7v6.6h-1.7v-1c-0.2,0.3-0.5,0.6-0.9,0.8s-0.8,0.3-1.3,0.3c-0.6,0-1.1-0.1-1.5-0.4c-0.5-0.3-0.8-0.7-1.1-1.2
		c-0.3-0.5-0.4-1.1-0.4-1.8C48.9,119.9,49,119.3,49.3,118.8z M53.9,119.5c-0.2-0.3-0.4-0.5-0.6-0.7c-0.3-0.2-0.6-0.2-0.9-0.2
		s-0.6,0.1-0.9,0.2c-0.3,0.2-0.5,0.4-0.6,0.7s-0.2,0.6-0.2,1c0,0.4,0.1,0.8,0.2,1s0.4,0.5,0.6,0.7c0.3,0.2,0.6,0.2,0.9,0.2
		c0.3,0,0.6-0.1,0.9-0.2c0.3-0.2,0.5-0.4,0.6-0.7c0.2-0.3,0.2-0.6,0.2-1S54,119.8,53.9,119.5z"/>
	<path fill="#363636" d="M57.4,118.8c0.3-0.5,0.6-0.9,1.1-1.2s1-0.4,1.5-0.4c0.4,0,0.8,0.1,1.2,0.3c0.4,0.2,0.7,0.4,0.9,0.8V115h1.7
		v8.9h-1.7v-1c-0.2,0.3-0.5,0.6-0.9,0.8c-0.4,0.2-0.8,0.3-1.3,0.3c-0.6,0-1.1-0.1-1.5-0.4s-0.8-0.7-1.1-1.2
		c-0.3-0.5-0.4-1.1-0.4-1.8C57,119.9,57.1,119.3,57.4,118.8z M62,119.5c-0.2-0.3-0.4-0.5-0.6-0.7c-0.3-0.2-0.6-0.2-0.9-0.2
		s-0.6,0.1-0.9,0.2c-0.3,0.2-0.5,0.4-0.6,0.7s-0.2,0.6-0.2,1c0,0.4,0.1,0.8,0.2,1s0.4,0.5,0.6,0.7c0.3,0.2,0.6,0.2,0.9,0.2
		c0.3,0,0.6-0.1,0.9-0.2c0.3-0.2,0.5-0.4,0.6-0.7c0.2-0.3,0.2-0.6,0.2-1S62.2,119.8,62,119.5z"/>
	<path fill="#363636" d="M71.7,121.1h-4.9c0,0.5,0.2,0.9,0.5,1.1c0.3,0.3,0.7,0.4,1.1,0.4c0.6,0,1.1-0.3,1.3-0.8h1.8
		c-0.2,0.6-0.6,1.2-1.1,1.6s-1.2,0.6-2,0.6c-0.6,0-1.2-0.1-1.7-0.4c-0.5-0.3-0.9-0.7-1.2-1.2c-0.3-0.5-0.4-1.1-0.4-1.8
		c0-0.7,0.1-1.3,0.4-1.8c0.3-0.5,0.7-0.9,1.2-1.2c0.5-0.3,1.1-0.4,1.7-0.4c0.6,0,1.2,0.1,1.7,0.4c0.5,0.3,0.9,0.7,1.2,1.2
		c0.3,0.5,0.4,1.1,0.4,1.7C71.7,120.7,71.7,120.9,71.7,121.1z M70,120c0-0.4-0.2-0.8-0.5-1c-0.3-0.3-0.7-0.4-1.1-0.4
		c-0.4,0-0.8,0.1-1.1,0.4c-0.3,0.3-0.5,0.6-0.5,1H70z"/>
	<path fill="#363636" d="M75.5,117.5c0.3-0.2,0.7-0.3,1.2-0.3v1.8h-0.4c-0.5,0-0.9,0.1-1.2,0.4c-0.3,0.2-0.4,0.7-0.4,1.3v3.3H73
		v-6.6h1.7v1C74.9,117.9,75.1,117.7,75.5,117.5z"/>
	<path fill="#363636" d="M78.9,123.7c-0.4-0.2-0.8-0.5-1-0.8s-0.4-0.7-0.4-1.1h1.7c0,0.3,0.2,0.5,0.4,0.6c0.2,0.2,0.5,0.3,0.8,0.3
		c0.3,0,0.6-0.1,0.8-0.2c0.2-0.1,0.3-0.3,0.3-0.5c0-0.2-0.1-0.4-0.3-0.5c-0.2-0.1-0.6-0.2-1-0.4c-0.5-0.1-0.9-0.2-1.2-0.4
		c-0.3-0.1-0.6-0.3-0.8-0.6c-0.2-0.3-0.3-0.6-0.3-1.1c0-0.4,0.1-0.7,0.3-1c0.2-0.3,0.5-0.5,0.9-0.7s0.9-0.3,1.4-0.3
		c0.8,0,1.4,0.2,1.9,0.6c0.5,0.4,0.7,0.9,0.8,1.6h-1.6c0-0.3-0.1-0.5-0.3-0.6c-0.2-0.2-0.5-0.2-0.8-0.2c-0.3,0-0.5,0.1-0.7,0.2
		s-0.2,0.3-0.2,0.5c0,0.2,0.1,0.4,0.3,0.5c0.2,0.1,0.6,0.2,1,0.4c0.5,0.1,0.9,0.2,1.2,0.4s0.6,0.3,0.8,0.6c0.2,0.3,0.3,0.6,0.4,1.1
		c0,0.4-0.1,0.7-0.3,1c-0.2,0.3-0.5,0.5-0.9,0.7s-0.9,0.3-1.4,0.3C79.8,124,79.3,123.9,78.9,123.7z"/>
	<path fill="#363636" d="M89.4,117.5c0.4,0.2,0.7,0.5,0.9,1c0.2,0.4,0.3,0.9,0.3,1.5v3.9H89v-3.7c0-0.5-0.1-0.9-0.4-1.2
		c-0.3-0.3-0.6-0.4-1.1-0.4c-0.5,0-0.8,0.1-1.1,0.4c-0.3,0.3-0.4,0.7-0.4,1.2v3.7h-1.7V115H86v3.1c0.2-0.3,0.5-0.5,0.9-0.7
		s0.8-0.2,1.2-0.2C88.6,117.2,89.1,117.3,89.4,117.5z"/>
	<path fill="#363636" d="M92.4,116.2c-0.2-0.2-0.3-0.4-0.3-0.7s0.1-0.5,0.3-0.7c0.2-0.2,0.4-0.3,0.7-0.3c0.3,0,0.5,0.1,0.7,0.3
		c0.2,0.2,0.3,0.4,0.3,0.7s-0.1,0.5-0.3,0.7c-0.2,0.2-0.4,0.3-0.7,0.3C92.8,116.5,92.6,116.4,92.4,116.2z M94,117.3v6.6h-1.7v-6.6
		H94z"/>
	<path fill="#363636" d="M98.2,117.5c0.4-0.2,0.8-0.3,1.3-0.3c0.6,0,1.1,0.1,1.5,0.4c0.5,0.3,0.8,0.7,1.1,1.2
		c0.3,0.5,0.4,1.1,0.4,1.8c0,0.7-0.1,1.3-0.4,1.8c-0.3,0.5-0.6,0.9-1.1,1.2c-0.5,0.3-1,0.4-1.5,0.4c-0.5,0-0.9-0.1-1.3-0.3
		c-0.4-0.2-0.7-0.5-0.9-0.8v4.1h-1.7v-9.8h1.7v1C97.5,117.9,97.8,117.7,98.2,117.5z M100.6,119.5c-0.2-0.3-0.4-0.5-0.6-0.7
		c-0.3-0.2-0.6-0.2-0.9-0.2c-0.3,0-0.6,0.1-0.9,0.2s-0.5,0.4-0.6,0.7s-0.2,0.6-0.2,1c0,0.4,0.1,0.7,0.2,1s0.4,0.5,0.6,0.7
		c0.3,0.2,0.6,0.2,0.9,0.2c0.3,0,0.6-0.1,0.9-0.2c0.3-0.2,0.5-0.4,0.6-0.7s0.2-0.6,0.2-1.1C100.8,120.2,100.7,119.8,100.6,119.5z"/>
</g>
<g>
	<path fill="#363636" d="M134.9,135.5c0.5-0.5,1-1,1.3-1.5c0.4-0.5,0.5-1,0.5-1.5c0-0.5-0.1-0.9-0.3-1.1c-0.2-0.3-0.6-0.4-1.1-0.4
		c-0.5,0-0.9,0.2-1.2,0.5c-0.3,0.3-0.4,0.7-0.4,1.2h-1c0-0.8,0.3-1.5,0.7-1.9s1.1-0.7,1.8-0.7c0.8,0,1.4,0.2,1.8,0.6
		c0.4,0.4,0.7,1,0.7,1.7c0,0.6-0.2,1.2-0.5,1.8c-0.4,0.6-0.8,1.1-1.2,1.5s-1.1,0.9-1.8,1.5h3.8v0.8h-5.3v-0.7
		C133.7,136.6,134.4,136,134.9,135.5z"/>
	<path fill="#363636" d="M139.8,131.1c0.4-0.7,1.1-1.1,2.2-1.1c1,0,1.7,0.4,2.1,1.1c0.4,0.7,0.6,1.7,0.6,3c0,1.3-0.2,2.3-0.6,3
		c-0.4,0.7-1.1,1.1-2.1,1.1c-1,0-1.7-0.4-2.2-1.1c-0.4-0.7-0.6-1.7-0.6-3C139.2,132.8,139.4,131.9,139.8,131.1z M143.6,132.5
		c-0.1-0.4-0.3-0.8-0.5-1.1s-0.6-0.4-1.1-0.4c-0.5,0-0.9,0.1-1.1,0.4s-0.4,0.6-0.5,1.1c-0.1,0.4-0.1,1-0.1,1.6c0,0.7,0,1.2,0.1,1.7
		c0.1,0.4,0.3,0.8,0.5,1.1c0.3,0.3,0.6,0.4,1.1,0.4c0.5,0,0.9-0.1,1.1-0.4c0.3-0.3,0.4-0.6,0.5-1.1c0.1-0.4,0.1-1,0.1-1.7
		C143.7,133.5,143.7,132.9,143.6,132.5z"/>
	<path fill="#363636" d="M146.7,131.1c0.4-0.7,1.1-1.1,2.2-1.1c1,0,1.7,0.4,2.1,1.1c0.4,0.7,0.6,1.7,0.6,3c0,1.3-0.2,2.3-0.6,3
		c-0.4,0.7-1.1,1.1-2.1,1.1c-1,0-1.7-0.4-2.2-1.1c-0.4-0.7-0.6-1.7-0.6-3C146.1,132.8,146.3,131.9,146.7,131.1z M150.5,132.5
		c-0.1-0.4-0.3-0.8-0.5-1.1s-0.6-0.4-1.1-0.4c-0.5,0-0.9,0.1-1.1,0.4s-0.4,0.6-0.5,1.1c-0.1,0.4-0.1,1-0.1,1.6c0,0.7,0,1.2,0.1,1.7
		c0.1,0.4,0.3,0.8,0.5,1.1c0.3,0.3,0.6,0.4,1.1,0.4c0.5,0,0.9-0.1,1.1-0.4c0.3-0.3,0.4-0.6,0.5-1.1c0.1-0.4,0.1-1,0.1-1.7
		C150.6,133.5,150.6,132.9,150.5,132.5z"/>
	<path fill="#363636" d="M154.8,137c0.3,0.2,0.6,0.3,1.1,0.3c0.6,0,1.1-0.2,1.3-0.7c0.3-0.5,0.4-1.3,0.4-2.4
		c-0.2,0.3-0.4,0.6-0.8,0.8c-0.4,0.2-0.8,0.3-1.2,0.3c-0.5,0-0.9-0.1-1.3-0.3c-0.4-0.2-0.7-0.5-0.9-0.9c-0.2-0.4-0.3-0.9-0.3-1.4
		c0-0.8,0.2-1.4,0.7-1.9s1.1-0.7,1.9-0.7c1,0,1.7,0.3,2.2,1c0.4,0.7,0.6,1.7,0.6,3c0,0.9-0.1,1.7-0.2,2.3s-0.4,1.1-0.8,1.4
		c-0.4,0.3-0.9,0.5-1.6,0.5c-0.7,0-1.3-0.2-1.7-0.6c-0.4-0.4-0.7-0.9-0.7-1.5h0.9C154.4,136.4,154.5,136.8,154.8,137z M157,134
		c0.3-0.3,0.5-0.7,0.5-1.2c0-0.6-0.2-1-0.5-1.3c-0.3-0.3-0.7-0.5-1.3-0.5c-0.5,0-0.9,0.2-1.2,0.5c-0.3,0.3-0.5,0.7-0.5,1.3
		c0,0.5,0.2,1,0.5,1.3c0.3,0.3,0.7,0.5,1.3,0.5C156.3,134.4,156.7,134.3,157,134z"/>
</g>
<g>
	<path fill="#363636" d="M143.1,105.6c-0.2-0.7-0.2-1.4,0-2.1c0.2-0.7,0.6-1.3,1.1-1.9c0.6-0.6,1.4-1.1,2.2-1.2
		c0.8-0.2,1.6-0.1,2.4,0.3l-0.9,0.9c-0.5-0.2-1-0.2-1.5-0.1c-0.5,0.1-1,0.4-1.4,0.8c-0.4,0.4-0.7,0.9-0.8,1.4
		c-0.1,0.5-0.1,1.1,0,1.6c0.2,0.5,0.5,1,1,1.5c0.5,0.5,1,0.8,1.5,1c0.5,0.2,1.1,0.2,1.6,0c0.5-0.1,1-0.4,1.4-0.8
		c0.4-0.4,0.7-0.9,0.8-1.4c0.1-0.5,0.1-1-0.1-1.5l0.9-0.9c0.3,0.8,0.4,1.6,0.3,2.4c-0.2,0.8-0.6,1.5-1.2,2.2
		c-0.5,0.5-1.2,0.9-1.9,1.1c-0.7,0.2-1.4,0.2-2.1,0c-0.7-0.2-1.4-0.6-1.9-1.2C143.7,107,143.3,106.3,143.1,105.6z"/>
	<path fill="#363636" d="M154.7,102.6c-0.6,0.2-1.1,0.2-1.7,0c-0.6-0.2-1.1-0.5-1.6-1c-0.5-0.5-0.8-1-1-1.6s-0.2-1.1,0-1.7
		c0.2-0.6,0.5-1,0.9-1.5c0.4-0.4,0.9-0.7,1.5-0.9c0.6-0.2,1.1-0.2,1.7,0c0.6,0.2,1.1,0.5,1.6,1c0.5,0.5,0.8,1,1,1.6
		c0.2,0.6,0.1,1.1,0,1.7c-0.2,0.6-0.5,1.1-0.9,1.5C155.8,102.2,155.3,102.5,154.7,102.6z M156.1,100.1c0.1-0.4,0.1-0.8,0-1.2
		c-0.1-0.4-0.4-0.8-0.7-1.2c-0.4-0.4-0.8-0.6-1.2-0.7s-0.8-0.1-1.2,0c-0.4,0.1-0.7,0.3-1,0.6c-0.3,0.3-0.5,0.6-0.6,1
		c-0.1,0.4-0.1,0.7,0,1.1s0.4,0.8,0.7,1.2c0.4,0.4,0.8,0.6,1.2,0.8c0.4,0.1,0.8,0.1,1.1,0c0.4-0.1,0.7-0.3,1-0.6
		C155.8,100.8,156,100.4,156.1,100.1z"/>
	<path fill="#363636" d="M159,90.4c0.7,0,1.4,0.3,2,1l2.7,2.7l-0.8,0.8l-2.6-2.6c-0.5-0.5-0.9-0.7-1.4-0.7c-0.5,0-0.9,0.2-1.3,0.6
		c-0.4,0.4-0.6,0.9-0.6,1.4c0,0.5,0.3,1,0.8,1.5l2.6,2.6l-0.8,0.8l-4.7-4.6l0.8-0.8l0.7,0.7c-0.1-0.4-0.1-0.8,0.1-1.2
		c0.1-0.4,0.4-0.7,0.7-1.1C157.6,90.7,158.3,90.4,159,90.4z"/>
	<path fill="#363636" d="M161.9,87.9l2.7,2.7c0.2,0.2,0.4,0.3,0.6,0.3c0.2,0,0.4-0.1,0.6-0.4l0.6-0.6l0.7,0.7l-0.7,0.7
		c-0.4,0.4-0.9,0.7-1.3,0.7c-0.4,0-0.8-0.2-1.3-0.7l-2.7-2.7l-0.6,0.6l-0.6-0.6l0.6-0.6l-1.2-1.2l0.8-0.8l1.2,1.2l1.2-1.2l0.6,0.6
		L161.9,87.9z"/>
	<path fill="#363636" d="M164.9,83.9c0.1-0.4,0.3-0.8,0.7-1.1l0.8,0.8l-0.2,0.2c-0.9,0.9-0.8,1.8,0.1,2.7l2.5,2.5l-0.8,0.8l-4.6-4.6
		l0.8-0.8l0.8,0.8C164.8,84.7,164.8,84.3,164.9,83.9z"/>
	<path fill="#363636" d="M165.7,81c-0.2,0-0.4-0.1-0.5-0.2c-0.1-0.1-0.2-0.3-0.2-0.5c0-0.2,0.1-0.4,0.2-0.5c0.1-0.1,0.3-0.2,0.5-0.2
		s0.4,0.1,0.5,0.2c0.1,0.1,0.2,0.3,0.2,0.5c0,0.2-0.1,0.4-0.2,0.5C166.1,80.9,165.9,81,165.7,81z M167.4,81.1l4.6,4.6l-0.8,0.8
		l-4.7-4.6L167.4,81.1z"/>
	<path fill="#363636" d="M170.3,78.5c0.1-0.5,0.4-0.9,0.8-1.3c0.4-0.4,0.9-0.7,1.4-0.8c0.5-0.1,1.1-0.1,1.6,0c0.6,0.2,1.1,0.5,1.5,1
		c0.5,0.5,0.8,1,1,1.5c0.2,0.6,0.2,1.1,0.1,1.7c-0.1,0.5-0.4,1-0.8,1.4c-0.4,0.4-0.8,0.7-1.3,0.8c-0.5,0.1-0.9,0.1-1.4,0l0.9,0.9
		l-0.8,0.8l-6.3-6.3l0.8-0.8l2.5,2.5C170.2,79.5,170.2,79,170.3,78.5z M173.8,77.5c-0.4-0.1-0.8-0.1-1.2,0c-0.4,0.1-0.7,0.3-1,0.6
		c-0.3,0.3-0.5,0.6-0.6,1c-0.1,0.4-0.1,0.8,0,1.2c0.1,0.4,0.4,0.8,0.7,1.1c0.3,0.4,0.7,0.6,1.1,0.7c0.4,0.1,0.8,0.1,1.2,0
		c0.4-0.1,0.7-0.3,1-0.6c0.3-0.3,0.5-0.6,0.6-1c0.1-0.4,0.1-0.8,0-1.2c-0.1-0.4-0.4-0.8-0.7-1.1C174.6,77.9,174.2,77.6,173.8,77.5z"
		/>
	<path fill="#363636" d="M178.5,70l4.7,4.6l-0.8,0.8l-0.7-0.7c0.1,0.4,0.1,0.8-0.1,1.2c-0.1,0.4-0.4,0.8-0.7,1.1
		c-0.4,0.4-0.8,0.6-1.2,0.8s-0.9,0.1-1.4,0c-0.5-0.1-0.9-0.4-1.3-0.8l-2.7-2.7l0.8-0.8l2.6,2.6c0.5,0.5,0.9,0.7,1.4,0.7
		c0.5,0,0.9-0.2,1.3-0.6c0.4-0.4,0.6-0.9,0.6-1.4c0-0.5-0.3-1-0.8-1.5l-2.6-2.6L178.5,70z"/>
	<path fill="#363636" d="M181.4,68.4l2.7,2.7c0.2,0.2,0.4,0.3,0.6,0.3c0.2,0,0.4-0.1,0.6-0.4l0.6-0.6l0.7,0.7l-0.7,0.7
		c-0.4,0.4-0.9,0.7-1.3,0.7c-0.4,0-0.8-0.2-1.3-0.7l-2.7-2.7l-0.6,0.6l-0.6-0.6l0.6-0.6l-1.2-1.2l0.8-0.8l1.2,1.2l1.2-1.2l0.6,0.6
		L181.4,68.4z"/>
	<path fill="#363636" d="M188.2,69.2c-0.6,0.2-1.1,0.2-1.7,0c-0.6-0.2-1.1-0.5-1.6-1c-0.5-0.5-0.8-1-1-1.6s-0.2-1.1,0-1.7
		c0.2-0.6,0.5-1,0.9-1.5s0.9-0.7,1.5-0.9c0.6-0.2,1.1-0.2,1.7,0c0.6,0.2,1.1,0.5,1.6,1c0.5,0.5,0.8,1,1,1.6c0.2,0.6,0.1,1.1,0,1.7
		c-0.2,0.6-0.5,1.1-0.9,1.5C189.2,68.7,188.7,69,188.2,69.2z M189.6,66.6c0.1-0.4,0.1-0.8,0-1.2s-0.4-0.8-0.7-1.2
		c-0.4-0.4-0.8-0.6-1.2-0.7c-0.4-0.1-0.8-0.1-1.2,0c-0.4,0.1-0.7,0.3-1,0.6c-0.3,0.3-0.5,0.6-0.6,1c-0.1,0.4-0.1,0.7,0,1.1
		c0.1,0.4,0.4,0.8,0.7,1.2c0.4,0.4,0.8,0.6,1.2,0.8c0.4,0.1,0.8,0.1,1.1,0c0.4-0.1,0.7-0.3,1-0.6C189.3,67.3,189.5,67,189.6,66.6z"
		/>
	<path fill="#363636" d="M189.8,58.9c0.1-0.4,0.3-0.8,0.7-1.1l0.8,0.8l-0.2,0.2c-0.9,0.9-0.8,1.8,0.1,2.7l2.5,2.5l-0.8,0.8l-4.7-4.6
		l0.8-0.8l0.8,0.8C189.8,59.7,189.7,59.3,189.8,58.9z"/>
</g>
<line fill="none" stroke="#1C1C1C" stroke-miterlimit="10" x1="134.1" y1="119.7" x2="219.5" y2="119.7"/>
<circle fill="#363636" cx="135.6" cy="119.7" r="3.4"/>
<polyline fill="none" stroke="#363636" stroke-miterlimit="10" points="215.3,115.4 219.5,119.7 215.3,123.9 "/>
<g>
	<path fill="#363636" d="M231.5,135.5c0.5-0.5,1-1,1.3-1.5c0.4-0.5,0.5-1,0.5-1.5c0-0.5-0.1-0.9-0.3-1.1c-0.2-0.3-0.6-0.4-1.1-0.4
		c-0.5,0-0.9,0.2-1.2,0.5c-0.3,0.3-0.4,0.7-0.4,1.2h-1c0-0.8,0.3-1.5,0.7-1.9s1.1-0.7,1.8-0.7c0.8,0,1.4,0.2,1.8,0.6
		c0.4,0.4,0.7,1,0.7,1.7c0,0.6-0.2,1.2-0.5,1.8c-0.4,0.6-0.8,1.1-1.2,1.5s-1.1,0.9-1.8,1.5h3.8v0.8h-5.3v-0.7
		C230.3,136.6,231,136,231.5,135.5z"/>
	<path fill="#363636" d="M236.4,131.1c0.4-0.7,1.1-1.1,2.2-1.1c1,0,1.7,0.4,2.1,1.1c0.4,0.7,0.6,1.7,0.6,3c0,1.3-0.2,2.3-0.6,3
		c-0.4,0.7-1.1,1.1-2.1,1.1c-1,0-1.7-0.4-2.2-1.1c-0.4-0.7-0.6-1.7-0.6-3C235.8,132.8,236,131.9,236.4,131.1z M240.2,132.5
		c-0.1-0.4-0.3-0.8-0.5-1.1s-0.6-0.4-1.1-0.4c-0.5,0-0.9,0.1-1.1,0.4s-0.4,0.6-0.5,1.1c-0.1,0.4-0.1,1-0.1,1.6c0,0.7,0,1.2,0.1,1.7
		c0.1,0.4,0.3,0.8,0.5,1.1c0.3,0.3,0.6,0.4,1.1,0.4c0.5,0,0.9-0.1,1.1-0.4c0.3-0.3,0.4-0.6,0.5-1.1c0.1-0.4,0.1-1,0.1-1.7
		C240.3,133.5,240.3,132.9,240.2,132.5z"/>
	<path fill="#363636" d="M242.4,131.1v-0.9h2.1v8h-1v-7H242.4z"/>
	<path fill="#363636" d="M246,136.4v-0.8l3.9-5.3h1.2v5.2h1.1v0.9H251v1.8h-1v-1.8H246z M250.1,131.3l-3,4.2h3V131.3z"/>
</g>
<g>
	<path fill="#363636" d="M244.3,98.4l5.9,5.9l-0.8,0.8l-4.4-4.4l2.4,6.3l-0.5,0.5l-6.3-2.4l4.4,4.4l-0.8,0.8l-5.9-5.9l0.8-0.8l7,2.7
		l-2.7-7L244.3,98.4z"/>
	<path fill="#363636" d="M253.7,96.7l-3.7,3.7c0.5,0.4,1,0.6,1.5,0.6s1-0.2,1.4-0.7c0.3-0.3,0.5-0.7,0.6-1.1c0.1-0.4,0-0.7-0.2-1.1
		l0.8-0.8c0.3,0.6,0.4,1.2,0.3,1.8c-0.1,0.7-0.4,1.3-1,1.8c-0.4,0.4-0.9,0.7-1.5,0.9c-0.5,0.1-1.1,0.1-1.7,0c-0.6-0.2-1.1-0.5-1.6-1
		c-0.5-0.5-0.8-1-1-1.6s-0.2-1.1,0-1.6c0.2-0.5,0.5-1,0.9-1.5c0.4-0.4,0.9-0.7,1.5-0.9c0.5-0.1,1.1-0.1,1.6,0c0.5,0.2,1,0.4,1.4,0.9
		C253.4,96.3,253.5,96.5,253.7,96.7z M251.3,96.2c-0.3-0.1-0.7-0.1-1,0c-0.3,0.1-0.6,0.3-0.9,0.6c-0.4,0.4-0.6,0.8-0.6,1.4
		c0,0.5,0.2,1,0.6,1.5l2.9-2.9C252,96.5,251.7,96.3,251.3,96.2z"/>
	<path fill="#363636" d="M256.2,89.8c0.7,0,1.4,0.3,2,1l2.7,2.7l-0.8,0.8l-2.6-2.6c-0.5-0.5-0.9-0.7-1.4-0.7c-0.5,0-0.9,0.2-1.3,0.6
		c-0.4,0.4-0.6,0.9-0.6,1.4c0,0.5,0.3,1,0.8,1.5l2.6,2.6l-0.8,0.8l-4.6-4.6l0.8-0.8l0.7,0.7c-0.1-0.4-0.1-0.8,0.1-1.2
		s0.4-0.7,0.7-1.1C254.8,90.1,255.5,89.8,256.2,89.8z"/>
	<path fill="#363636" d="M259.1,87.3l2.7,2.7c0.2,0.2,0.4,0.3,0.6,0.3c0.2,0,0.4-0.1,0.6-0.4l0.6-0.6l0.7,0.7l-0.7,0.7
		c-0.4,0.4-0.9,0.7-1.3,0.7c-0.4,0-0.8-0.2-1.3-0.7l-2.7-2.7l-0.6,0.6l-0.6-0.6l0.6-0.6l-1.2-1.2l0.8-0.8l1.2,1.2l1.2-1.2l0.6,0.6
		L259.1,87.3z"/>
	<path fill="#363636" d="M265.9,88.1c-0.6,0.2-1.1,0.2-1.7,0c-0.6-0.2-1.1-0.5-1.6-1c-0.5-0.5-0.8-1-1-1.6c-0.2-0.6-0.2-1.1,0-1.7
		c0.2-0.6,0.5-1,0.9-1.5c0.4-0.4,0.9-0.7,1.5-0.9c0.6-0.2,1.1-0.2,1.7,0s1.1,0.5,1.6,1c0.5,0.5,0.8,1,0.9,1.6c0.2,0.6,0.1,1.1,0,1.7
		s-0.5,1.1-0.9,1.5C266.9,87.6,266.4,87.9,265.9,88.1z M267.3,85.5c0.1-0.4,0.1-0.8,0-1.2c-0.1-0.4-0.4-0.8-0.7-1.2
		c-0.4-0.4-0.8-0.6-1.2-0.7c-0.4-0.1-0.8-0.1-1.2,0c-0.4,0.1-0.7,0.3-1,0.6c-0.3,0.3-0.5,0.6-0.6,1c-0.1,0.4-0.1,0.7,0,1.1
		s0.4,0.8,0.7,1.2c0.4,0.4,0.8,0.6,1.2,0.8c0.4,0.1,0.8,0.1,1.1,0c0.4-0.1,0.7-0.3,1-0.6S267.2,85.9,267.3,85.5z"/>
	<path fill="#363636" d="M267.5,77.8c0.1-0.4,0.3-0.8,0.7-1.1l0.8,0.8l-0.2,0.2c-0.9,0.9-0.8,1.8,0.1,2.7l2.5,2.5l-0.8,0.8l-4.7-4.6
		l0.8-0.8l0.8,0.8C267.4,78.6,267.4,78.2,267.5,77.8z"/>
</g>
<line fill="none" stroke="#1C1C1C" stroke-miterlimit="10" x1="230.8" y1="119.7" x2="316.1" y2="119.7"/>
<circle fill="#363636" cx="232.2" cy="119.7" r="3.4"/>
<polyline fill="none" stroke="#363636" stroke-miterlimit="10" points="311.9,115.4 316.1,119.7 311.9,123.9 "/>
<g>
	<path fill="#363636" d="M328.1,135.5c0.5-0.5,1-1,1.3-1.5c0.4-0.5,0.5-1,0.5-1.5c0-0.5-0.1-0.9-0.3-1.1c-0.2-0.3-0.6-0.4-1.1-0.4
		c-0.5,0-0.9,0.2-1.2,0.5c-0.3,0.3-0.4,0.7-0.4,1.2h-1c0-0.8,0.3-1.5,0.7-1.9c0.5-0.4,1.1-0.7,1.8-0.7c0.8,0,1.4,0.2,1.8,0.6
		s0.7,1,0.7,1.7c0,0.6-0.2,1.2-0.5,1.8c-0.4,0.6-0.8,1.1-1.2,1.5s-1.1,0.9-1.8,1.5h3.8v0.8H326v-0.7
		C326.9,136.6,327.6,136,328.1,135.5z"/>
	<path fill="#363636" d="M333,131.1c0.4-0.7,1.1-1.1,2.2-1.1c1,0,1.7,0.4,2.1,1.1c0.4,0.7,0.6,1.7,0.6,3c0,1.3-0.2,2.3-0.6,3
		c-0.4,0.7-1.1,1.1-2.1,1.1c-1,0-1.7-0.4-2.2-1.1c-0.4-0.7-0.6-1.7-0.6-3C332.4,132.8,332.6,131.9,333,131.1z M336.8,132.5
		c-0.1-0.4-0.3-0.8-0.5-1.1c-0.3-0.3-0.6-0.4-1.1-0.4c-0.5,0-0.9,0.1-1.1,0.4c-0.3,0.3-0.4,0.6-0.5,1.1c-0.1,0.4-0.1,1-0.1,1.6
		c0,0.7,0,1.2,0.1,1.7c0.1,0.4,0.3,0.8,0.5,1.1c0.3,0.3,0.6,0.4,1.1,0.4c0.5,0,0.9-0.1,1.1-0.4c0.3-0.3,0.4-0.6,0.5-1.1
		c0.1-0.4,0.1-1,0.1-1.7C336.9,133.5,336.9,132.9,336.8,132.5z"/>
	<path fill="#363636" d="M341.4,135.5c0.5-0.5,1-1,1.3-1.5s0.5-1,0.5-1.5c0-0.5-0.1-0.9-0.3-1.1c-0.2-0.3-0.6-0.4-1.1-0.4
		c-0.5,0-0.9,0.2-1.2,0.5s-0.4,0.7-0.4,1.2h-1c0-0.8,0.3-1.5,0.7-1.9c0.5-0.4,1.1-0.7,1.8-0.7c0.8,0,1.4,0.2,1.8,0.6
		c0.4,0.4,0.7,1,0.7,1.7c0,0.6-0.2,1.2-0.5,1.8c-0.4,0.6-0.8,1.1-1.2,1.5s-1.1,0.9-1.8,1.5h3.8v0.8h-5.3v-0.7
		C340.1,136.6,340.8,136,341.4,135.5z"/>
	<path fill="#363636" d="M346.2,131.1c0.4-0.7,1.1-1.1,2.2-1.1c1,0,1.7,0.4,2.1,1.1c0.4,0.7,0.6,1.7,0.6,3c0,1.3-0.2,2.3-0.6,3
		c-0.4,0.7-1.1,1.1-2.1,1.1c-1,0-1.7-0.4-2.2-1.1c-0.4-0.7-0.6-1.7-0.6-3C345.6,132.8,345.8,131.9,346.2,131.1z M350.1,132.5
		c-0.1-0.4-0.3-0.8-0.5-1.1c-0.3-0.3-0.6-0.4-1.1-0.4c-0.5,0-0.9,0.1-1.1,0.4c-0.3,0.3-0.4,0.6-0.5,1.1c-0.1,0.4-0.1,1-0.1,1.6
		c0,0.7,0,1.2,0.1,1.7c0.1,0.4,0.3,0.8,0.5,1.1c0.3,0.3,0.6,0.4,1.1,0.4c0.5,0,0.9-0.1,1.1-0.4c0.3-0.3,0.4-0.6,0.5-1.1
		c0.1-0.4,0.1-1,0.1-1.7C350.2,133.5,350.1,132.9,350.1,132.5z"/>
</g>
<g>
	<path fill="#363636" d="M338.5,100.7l0.6,0.6l-1.6,1.6l5.3,5.3L342,109l-5.3-5.3l-1.6,1.6l-0.6-0.6L338.5,100.7z"/>
	<path fill="#363636" d="M347.6,99.4l-3.7,3.7c0.5,0.4,1,0.6,1.5,0.6c0.5,0,1-0.2,1.4-0.7c0.3-0.3,0.5-0.7,0.6-1.1
		c0.1-0.4,0-0.7-0.2-1.1l0.8-0.8c0.3,0.6,0.4,1.2,0.3,1.8s-0.4,1.3-1,1.8c-0.4,0.4-0.9,0.7-1.5,0.9c-0.5,0.1-1.1,0.1-1.7,0
		c-0.6-0.2-1.1-0.5-1.6-1c-0.5-0.5-0.8-1-1-1.6c-0.2-0.6-0.2-1.1,0-1.6c0.2-0.5,0.5-1,0.9-1.5c0.4-0.4,0.9-0.7,1.5-0.9
		c0.5-0.1,1.1-0.1,1.6,0c0.5,0.2,1,0.4,1.4,0.9C347.3,99,347.4,99.2,347.6,99.4z M345.2,99c-0.3-0.1-0.7-0.1-1,0
		c-0.3,0.1-0.6,0.3-0.9,0.6c-0.4,0.4-0.6,0.8-0.6,1.4c0,0.5,0.2,1,0.6,1.5l2.9-2.9C345.9,99.2,345.5,99,345.2,99z"/>
	<path fill="#363636" d="M347,96.8c-0.2-0.6-0.2-1.1,0-1.6s0.4-1,0.8-1.4c0.4-0.4,0.8-0.7,1.3-0.8c0.5-0.1,0.9-0.1,1.3,0l-0.8-0.8
		l0.8-0.8l4.7,4.6l-0.8,0.8l-0.9-0.9c0.1,0.4,0.1,0.9,0,1.4s-0.4,0.9-0.8,1.3c-0.4,0.4-0.9,0.7-1.4,0.8s-1.1,0.1-1.6-0.1
		c-0.6-0.2-1.1-0.5-1.5-1C347.5,97.8,347.2,97.3,347,96.8z M350.8,93.7c-0.4-0.1-0.8-0.1-1.2,0c-0.4,0.1-0.7,0.3-1,0.6
		s-0.5,0.6-0.6,1c-0.1,0.4-0.1,0.8,0,1.2c0.1,0.4,0.4,0.8,0.7,1.1c0.4,0.4,0.7,0.6,1.1,0.7c0.4,0.1,0.8,0.1,1.2,0
		c0.4-0.1,0.7-0.3,1-0.6s0.5-0.6,0.6-1c0.1-0.4,0.1-0.8,0-1.2c-0.1-0.4-0.4-0.8-0.7-1.1C351.6,94,351.2,93.8,350.8,93.7z"/>
	<path fill="#363636" d="M358.4,83.6c0.4-0.1,0.9-0.1,1.3,0c0.5,0.1,0.9,0.4,1.3,0.8l2.7,2.7l-0.8,0.8l-2.6-2.6
		c-0.5-0.5-0.9-0.7-1.4-0.7c-0.5,0-0.9,0.2-1.3,0.6c-0.4,0.4-0.6,0.9-0.6,1.3c0,0.5,0.3,1,0.8,1.5l2.6,2.6l-0.8,0.8l-2.6-2.6
		c-0.5-0.5-0.9-0.7-1.4-0.7c-0.5,0-0.9,0.2-1.3,0.6c-0.4,0.4-0.6,0.8-0.6,1.3c0,0.5,0.3,1,0.8,1.5l2.6,2.6l-0.8,0.8l-4.6-4.6
		l0.8-0.8l0.7,0.7c-0.1-0.4-0.1-0.8,0.1-1.2c0.1-0.4,0.3-0.7,0.7-1c0.4-0.4,0.8-0.6,1.3-0.8c0.5-0.1,1-0.1,1.4,0.1
		c-0.2-0.5-0.2-0.9-0.1-1.4c0.1-0.5,0.4-0.9,0.7-1.3C357.6,84,358,83.7,358.4,83.6z"/>
	<path fill="#363636" d="M367.5,82.2l2.1-2.1l0.6,0.6l-2.8,2.8l-5.9-5.9l0.8-0.8L367.5,82.2z"/>
	<path fill="#363636" d="M373.2,73.7l-3.7,3.7c0.5,0.4,1,0.6,1.5,0.6c0.5,0,1-0.2,1.4-0.7c0.3-0.3,0.5-0.7,0.6-1.1
		c0.1-0.4,0-0.7-0.2-1.1l0.8-0.8c0.3,0.6,0.4,1.2,0.3,1.8s-0.4,1.3-1,1.8c-0.4,0.4-0.9,0.7-1.5,0.9c-0.5,0.1-1.1,0.1-1.7,0
		c-0.6-0.2-1.1-0.5-1.6-1c-0.5-0.5-0.8-1-1-1.6c-0.2-0.6-0.2-1.1,0-1.6c0.2-0.5,0.5-1,0.9-1.5c0.4-0.4,0.9-0.7,1.5-0.9
		c0.5-0.1,1.1-0.1,1.6,0c0.5,0.2,1,0.4,1.4,0.9C372.9,73.4,373.1,73.5,373.2,73.7z M370.9,73.3c-0.3-0.1-0.7-0.1-1,0
		c-0.3,0.1-0.6,0.3-0.9,0.6c-0.4,0.4-0.6,0.8-0.6,1.4c0,0.5,0.2,1,0.6,1.5l2.9-2.9C371.5,73.6,371.2,73.4,370.9,73.3z"/>
	<path fill="#363636" d="M372.7,71.1c-0.2-0.6-0.2-1.1,0-1.6s0.4-1,0.8-1.4c0.4-0.4,0.8-0.7,1.3-0.8c0.5-0.1,0.9-0.1,1.3,0l-0.8-0.8
		l0.8-0.8l4.7,4.6l-0.8,0.8l-0.9-0.9c0.1,0.4,0.1,0.9,0,1.4s-0.4,0.9-0.8,1.3c-0.4,0.4-0.9,0.7-1.4,0.8s-1.1,0.1-1.6-0.1
		c-0.6-0.2-1.1-0.5-1.5-1C373.2,72.2,372.9,71.7,372.7,71.1z M376.5,68c-0.4-0.1-0.8-0.1-1.2,0c-0.4,0.1-0.7,0.3-1,0.6
		s-0.5,0.6-0.6,1c-0.1,0.4-0.1,0.8,0,1.2c0.1,0.4,0.4,0.8,0.7,1.1c0.4,0.4,0.7,0.6,1.1,0.7c0.4,0.1,0.8,0.1,1.2,0
		c0.4-0.1,0.7-0.3,1-0.6s0.5-0.6,0.6-1c0.1-0.4,0.1-0.8,0-1.2c-0.1-0.4-0.4-0.8-0.7-1.1C377.3,68.4,376.9,68.1,376.5,68z"/>
	<path fill="#363636" d="M378.4,65.4c-0.2-0.6-0.2-1.1,0-1.6c0.1-0.5,0.4-1,0.8-1.4c0.4-0.4,0.8-0.6,1.3-0.8
		c0.5-0.1,0.9-0.2,1.4-0.1l-2.5-2.5l0.8-0.8l6.3,6.3l-0.8,0.8l-0.9-0.9c0.1,0.4,0.1,0.9,0,1.4c-0.1,0.5-0.4,0.9-0.8,1.3
		c-0.4,0.4-0.9,0.7-1.4,0.8s-1.1,0.1-1.7-0.1c-0.6-0.2-1.1-0.5-1.5-1C378.9,66.4,378.6,65.9,378.4,65.4z M382.2,62.3
		c-0.4-0.1-0.8-0.1-1.2,0c-0.4,0.1-0.7,0.3-1,0.6c-0.3,0.3-0.5,0.6-0.6,1c-0.1,0.4-0.1,0.8,0,1.2c0.1,0.4,0.4,0.8,0.7,1.1
		c0.4,0.4,0.7,0.6,1.1,0.7c0.4,0.1,0.8,0.1,1.2,0c0.4-0.1,0.7-0.3,1-0.6c0.3-0.3,0.5-0.6,0.6-1c0.1-0.4,0.1-0.8,0-1.2
		c-0.1-0.4-0.4-0.8-0.7-1.1C383,62.6,382.6,62.4,382.2,62.3z"/>
</g>
<line fill="none" stroke="#1C1C1C" stroke-miterlimit="10" x1="327.4" y1="119.7" x2="412.7" y2="119.7"/>
<circle fill="#363636" cx="328.8" cy="119.7" r="3.4"/>
<polyline fill="none" stroke="#363636" stroke-miterlimit="10" points="408.5,115.4 412.7,119.7 408.5,123.9 "/>
<g>
	<g>
		<path fill="#323232" stroke="#323232" stroke-width="0.5" stroke-miterlimit="10" d="M463.7,124.2c0,1.4-0.1,2.8,0,4.2
			c0.2,3.3-1.2,5.9-3.6,8c-2.6,2.4-5.7,4-9.2,5c-0.7,0.2-1.5,0.2-2.2,0c-3.7-1-7-2.8-9.8-5.5c-2-2-3.1-4.3-3-7.2c0.1-1.5,0-3,0-4.3
			c-0.7-0.5-1.4-0.9-1.9-1.4c-1.4-1.6-0.6-4.1,1.4-4.8c0.4-0.1,0.5-0.3,0.5-0.7c-0.1-1.9,0.1-3.8,1-5.5c0.4-0.7,0.8-1.4,1.3-2.1
			c0.2-0.3,0.2-0.4,0.1-0.7c-0.2-1-0.4-2-0.5-3c-0.1-0.6,0.2-0.9,0.8-0.7c1,0.2,2,0.4,3,0.6c0.1-0.7,0.2-1.4,0.4-2.2
			c0.2-0.7,0.4-0.8,1-0.6c1.3,0.4,2.5,1.1,3.6,2c0.1,0.1,0.2,0.2,0.3,0.2c0.7-0.9,1.4-1.8,2.2-2.6c0.5-0.5,0.7-0.5,1.2,0
			c0.8,0.9,1.5,1.7,2.1,2.6c0.9-0.5,1.9-1.2,2.9-1.7c0.4-0.2,0.8-0.3,1.2-0.4c0.6-0.2,0.8,0,0.9,0.5c0.1,0.4,0.2,0.8,0.2,1.1
			c0.1,0.4,0.1,0.8,0.2,1.2c0.4-0.1,0.8-0.3,1.2-0.4c0.6-0.1,1.2-0.3,1.8-0.3c0.5-0.1,0.8,0.2,0.7,0.7c-0.1,1-0.3,2-0.5,3
			c0,0.2-0.1,0.5,0.1,0.6c1.7,2.2,2.5,4.7,2.4,7.5c0,0.5,0.1,0.8,0.6,1c1.2,0.4,1.9,1.6,1.9,2.9c0,1.3-0.8,2.4-2,2.8
			C464.1,124,463.9,124.1,463.7,124.2z M439.1,110.7c-1.2,1.5-1.9,3.2-2,5.1c-0.1,3.5,0,7,0,10.6c0,0.2,0.2,0.5,0.4,0.6
			c1.3,0.5,2.6,1,3.9,1.5c1.4,0.5,2.7,0.4,4.1-0.1c0.8-0.3,1.5-0.5,2.3-0.8c1.4-0.6,2.9-0.6,4.3,0c0.8,0.3,1.7,0.6,2.5,0.9
			c0.9,0.3,1.7,0.5,2.7,0.3c1.8-0.3,3.5-1,5.2-1.8c0.1-0.1,0.3-0.3,0.3-0.5c0-3.6,0-7.3-0.1-10.9c0-1.8-0.8-3.4-1.9-4.8
			c-1,1-1.9,2-2.9,3c0.2,0.2,0.4,0.3,0.5,0.4c0.7,0.6,1.5,1.1,2.2,1.7c0.4,0.4,0.3,0.8-0.2,1c-1.9,0.8-3.8,0.8-5.6-0.1
			c-0.2-0.1-0.3-0.2-0.6-0.3c0.1,0.3,0.2,0.6,0.2,0.8c0.2,0.9,0,1.1-0.9,1.1c-1.5,0-2.8-0.5-3.6-1.9c-0.1,0.1-0.1,0.2-0.2,0.2
			c-0.9,1.3-2.2,1.8-3.7,1.7c-0.6,0-0.7-0.3-0.7-0.8c0.1-0.3,0.1-0.7,0.2-1c-0.2,0.1-0.3,0.2-0.5,0.2c-1.8,0.9-3.6,1-5.5,0.2
			c-0.7-0.3-0.8-0.7-0.2-1.2c0.8-0.7,1.7-1.3,2.6-2C441,112.7,440.1,111.7,439.1,110.7z M462.6,128c-1,0.4-1.9,0.8-2.9,1.1
			c-2.1,0.8-4.3,0.9-6.4,0c-0.6-0.2-1.2-0.4-1.8-0.6c-1.2-0.4-2.3-0.4-3.4,0c-0.7,0.3-1.4,0.5-2.1,0.8c-1.8,0.7-3.5,0.7-5.3,0.1
			c-0.9-0.3-1.8-0.6-2.6-1c-0.3-0.1-0.6-0.2-0.9-0.4c-0.3,2.6,0.5,4.8,2.2,6.6c2.7,2.9,6.1,4.7,9.9,5.8c0.4,0.1,0.8,0.1,1.1,0.1
			c3.7-1,7-2.7,9.7-5.5C462,133,462.9,130.8,462.6,128z M449.9,103.9c-1,1-1.8,2.2-2.3,3.6c-0.4,1.3-0.4,2.6,0.1,3.8
			c0.1,0.2,0.2,0.5,0.4,0.6c0.6,0.4,1.3,0.8,1.9,1.2c0.4-0.3,0.8-0.7,1.3-0.9c0.6-0.2,0.8-0.6,1-1.1
			C453,108.8,452.4,106.3,449.9,103.9z M453.2,111.8c0.4,0.1,0.8,0.1,1.1,0.3c0.4,0.1,0.6,0,0.9-0.3c2-2.1,2-4.6,1.4-7.3
			c-1.3,0.4-2.4,1.1-3.3,2c-0.1,0.1-0.1,0.3-0.1,0.4C453.8,108.5,453.8,110.1,453.2,111.8z M443.2,104.5c-0.1,0.7-0.2,1.4-0.3,2
			c-0.1,2,0.4,3.8,1.8,5.3c0.1,0.1,0.3,0.3,0.5,0.3c0.5-0.1,1-0.2,1.5-0.3c-0.7-1.7-0.6-3.3,0-4.9c0-0.1,0-0.3-0.1-0.4
			C445.6,105.6,444.5,104.9,443.2,104.5z M439.1,106.5c0.1,1.9,0.6,3.4,1.8,4.6c0.7,0.7,1.3,1.3,2,2c0.3-0.1,0.6-0.3,0.9-0.5
			c-1.3-1.4-2-3.1-2.1-5c0-0.1-0.1-0.3-0.2-0.3C440.8,107,440,106.8,439.1,106.5z M460.7,106.5c-0.8,0.2-1.5,0.5-2.2,0.7
			c-0.3,0.1-0.4,0.3-0.5,0.6c-0.1,1.2-0.4,2.3-1,3.3c-0.3,0.5-0.7,1-1,1.5c0.3,0.2,0.6,0.3,0.9,0.5c0.6-0.6,1.1-1.2,1.7-1.7
			C459.9,110.1,460.6,108.5,460.7,106.5z M451,113.9c1.3,0.1,2.4,0.7,3.4,1.3c0.5,0.3,0.9,0.5,1.4,0.7c1.1,0.4,2.1,0.5,3.3,0.1
			c-0.3-0.2-0.4-0.4-0.6-0.5c-1.5-1.2-3.1-2.2-5.1-2.6C452.3,112.8,451.5,113.1,451,113.9z M448.9,113.9c-0.7-1-1.6-1.1-2.6-0.9
			c-2,0.4-3.7,1.5-5.3,2.7c-0.1,0.1-0.2,0.1-0.4,0.2c1.5,0.5,2.7,0.4,4-0.3C446,114.9,447.3,114,448.9,113.9z M463.8,119.2
			c0,1.3,0,2.5,0,3.7c0.9-0.2,1.5-0.9,1.5-1.8C465.2,120.2,464.7,119.4,463.8,119.2z M436.1,119.2c-0.9,0.2-1.5,1-1.5,1.9
			c0,0.9,0.6,1.6,1.5,1.8C436.1,121.7,436.1,120.5,436.1,119.2z M446.6,117.1c1.3,0.2,2.4-0.8,2.5-2
			C447.8,115,446.8,115.9,446.6,117.1z M450.7,115.1c0.1,1.2,1.3,2.2,2.5,2C453,115.8,451.9,115,450.7,115.1z"/>
		<path fill="#323232" stroke="#323232" stroke-width="0.5" stroke-miterlimit="10" d="M449.9,97.3c0.9,0,1.7,0.8,1.8,1.7
			c0,0.9-0.8,1.7-1.7,1.8c-0.9,0-1.7-0.8-1.8-1.7C448.2,98.1,448.9,97.3,449.9,97.3z M449.3,99c0,0.4,0.2,0.6,0.7,0.6
			c0.4,0,0.6-0.2,0.6-0.7c0-0.4-0.2-0.6-0.6-0.6C449.5,98.3,449.3,98.6,449.3,99z"/>
		<path fill="#323232" stroke="#323232" stroke-width="0.5" stroke-miterlimit="10" d="M453.3,103.5c-1,0-1.7-0.7-1.7-1.7
			c0-0.9,0.8-1.7,1.7-1.7c0.9,0,1.8,0.8,1.7,1.8C455.1,102.8,454.3,103.5,453.3,103.5z M454.1,102c0-0.1,0-0.2,0-0.3
			c-0.2-0.2-0.5-0.4-0.7-0.5c-0.4-0.1-0.7,0.2-0.7,0.6c0,0.4,0.3,0.7,0.7,0.6C453.6,102.4,453.9,102.1,454.1,102z"/>
		<path fill="#323232" stroke="#323232" stroke-width="0.5" stroke-miterlimit="10" d="M446.5,103.5c-1,0-1.7-0.8-1.7-1.7
			c0-0.9,0.8-1.7,1.7-1.7c0.9,0,1.7,0.8,1.7,1.7C448.2,102.8,447.4,103.5,446.5,103.5z M445.8,101.8c0,0.4,0.3,0.7,0.7,0.6
			c0.4,0,0.6-0.3,0.6-0.7c0-0.4-0.3-0.6-0.6-0.6C446,101.2,445.8,101.4,445.8,101.8z"/>
		<path fill="#323232" stroke="#323232" stroke-width="0.5" stroke-miterlimit="10" d="M450.5,92.6c0,0.6,0,1.1,0,1.7
			c0,0.4-0.1,0.6-0.5,0.6c-0.4,0-0.6-0.3-0.6-0.6c0-1.1,0-2.3,0-3.4c0-0.4,0.2-0.6,0.6-0.6c0.4,0,0.5,0.3,0.5,0.6
			C450.5,91.5,450.5,92,450.5,92.6z"/>
		<path fill="#323232" stroke="#323232" stroke-width="0.5" stroke-miterlimit="10" d="M457.1,96.8c-0.5,0-0.7-0.4-0.6-0.7
			c0.6-1.1,1.2-2.1,1.8-3.2c0.1-0.1,0.5-0.2,0.6-0.2c0.2,0.1,0.3,0.5,0.2,0.7c-0.6,1.1-1.2,2.1-1.8,3.1
			C457.3,96.6,457.1,96.7,457.1,96.8z"/>
		<path fill="#323232" stroke="#323232" stroke-width="0.5" stroke-miterlimit="10" d="M441.2,92.6c0.1,0.1,0.3,0.2,0.4,0.4
			c0.6,1,1.1,2,1.7,3c0.2,0.3,0.2,0.6-0.2,0.8c-0.3,0.2-0.6,0-0.7-0.3c-0.6-1-1.2-2-1.7-3C440.4,93,440.6,92.6,441.2,92.6z"/>
		<path fill="#323232" stroke="#323232" stroke-width="0.5" stroke-miterlimit="10" d="M438.2,101.3c0,0.5-0.4,0.8-0.7,0.6
			c-1.1-0.6-2.1-1.2-3.1-1.8c-0.1-0.1-0.2-0.5-0.1-0.7c0.1-0.1,0.5-0.3,0.6-0.2c1.1,0.6,2.1,1.2,3.2,1.8
			C438.1,101,438.2,101.2,438.2,101.3z"/>
		<path fill="#323232" stroke="#323232" stroke-width="0.5" stroke-miterlimit="10" d="M462.1,102c-0.1-0.1-0.4-0.3-0.4-0.4
			c0-0.2,0.1-0.5,0.3-0.6c0.6-0.4,1.2-0.7,1.8-1.1c0.4-0.2,0.8-0.5,1.2-0.7c0.2-0.1,0.6,0,0.6,0.2c0.1,0.1,0,0.6-0.1,0.7
			c-1.1,0.7-2.1,1.3-3.2,1.9C462.3,101.9,462.2,101.9,462.1,102z"/>
		<path fill="#323232" stroke="#323232" stroke-width="0.5" stroke-miterlimit="10" d="M462.3,97.4c0,0.1,0,0.2,0,0.2
			c-0.6,0.6-1.1,1.1-1.7,1.6c-0.1,0.1-0.4-0.1-0.5-0.2c-0.1-0.1-0.1-0.5,0-0.6c0.4-0.5,0.9-1,1.4-1.4c0.1-0.1,0.4-0.1,0.6,0
			C462.2,97.1,462.2,97.3,462.3,97.4z"/>
		<path fill="#323232" stroke="#323232" stroke-width="0.5" stroke-miterlimit="10" d="M438.1,96.9c0.1,0,0.2,0,0.3,0.1
			c0.5,0.5,1,0.9,1.4,1.4c0.1,0.1,0,0.5-0.1,0.6c-0.1,0.1-0.5,0.2-0.6,0.1c-0.5-0.5-1-0.9-1.5-1.5C437.3,97.4,437.6,96.9,438.1,96.9
			z"/>
		<path fill="#323232" stroke="#323232" stroke-width="0.5" stroke-miterlimit="10" d="M435.5,106c-0.7-0.2-1.4-0.3-2-0.6
			c-0.2-0.1-0.3-0.4-0.3-0.6c0-0.2,0.4-0.4,0.5-0.4c0.6,0.1,1.3,0.3,1.9,0.5c0.2,0.1,0.3,0.4,0.3,0.6
			C435.9,105.8,435.6,105.9,435.5,106z"/>
		<path fill="#323232" stroke="#323232" stroke-width="0.5" stroke-miterlimit="10" d="M464.3,106c-0.1-0.1-0.4-0.3-0.4-0.5
			c0-0.2,0.1-0.5,0.3-0.6c0.6-0.2,1.2-0.4,1.8-0.5c0.2,0,0.6,0.2,0.6,0.3c0,0.2-0.1,0.6-0.3,0.6C465.7,105.7,465.1,105.8,464.3,106z
			"/>
		<path fill="#323232" stroke="#323232" stroke-width="0.5" stroke-miterlimit="10" d="M453.2,94.9c0.2-0.7,0.4-1.4,0.6-2
			c0.1-0.1,0.4-0.3,0.6-0.2c0.2,0.1,0.4,0.4,0.4,0.6c-0.1,0.6-0.3,1.2-0.5,1.8c-0.1,0.2-0.4,0.3-0.6,0.3
			C453.5,95.3,453.4,95.1,453.2,94.9z"/>
		<path fill="#323232" stroke="#323232" stroke-width="0.5" stroke-miterlimit="10" d="M445,93.1c0.1-0.1,0.3-0.4,0.5-0.4
			c0.2,0,0.5,0.2,0.6,0.3c0.2,0.6,0.4,1.2,0.5,1.8c0,0.2-0.2,0.5-0.3,0.5c-0.2,0-0.6-0.1-0.6-0.2C445.3,94.5,445.2,93.8,445,93.1z"
			/>
		<path fill="#323232" stroke="#323232" stroke-width="0.5" stroke-miterlimit="10" d="M444.8,123.8c-1.1,0-1.9-0.5-2.5-1.3
			c-0.2-0.3-0.2-0.6,0-0.8c0.3-0.2,0.5-0.1,0.8,0.1c0.2,0.2,0.5,0.5,0.7,0.7c0.7,0.4,1.5,0.3,2.2-0.3c0.1-0.1,0.3-0.4,0.4-0.4
			c0.2-0.1,0.6-0.2,0.7,0c0.1,0.1,0.2,0.5,0.1,0.7C446.6,123.2,445.8,123.7,444.8,123.8z"/>
		<path fill="#323232" stroke="#323232" stroke-width="0.5" stroke-miterlimit="10" d="M455.1,123.8c-1.1,0-1.9-0.5-2.5-1.4
			c-0.1-0.2-0.1-0.6,0-0.7c0.2-0.3,0.5-0.2,0.8,0c0.2,0.2,0.4,0.5,0.7,0.6c0.7,0.5,1.6,0.4,2.2-0.2c0.2-0.1,0.3-0.4,0.4-0.4
			c0.2-0.1,0.5-0.2,0.7-0.1c0.3,0.2,0.3,0.5,0.1,0.8C456.9,123.2,456.1,123.7,455.1,123.8z"/>
		<path fill="#323232" stroke="#323232" stroke-width="0.5" stroke-miterlimit="10" d="M449.9,134.2c-0.7-0.2-1.3-0.4-2-0.7
			c-0.3-0.1-0.5-0.4-0.3-0.8c0.2-0.3,0.5-0.3,0.8-0.2c1,0.5,2,0.5,3,0c0.3-0.2,0.6-0.1,0.8,0.2c0.2,0.3,0.1,0.6-0.3,0.7
			C451.3,133.8,450.6,134,449.9,134.2z"/>
	</g>
</g>
</svg>
