<?xml version="1.0" encoding="utf-8"?>
<!-- Generator: Adobe Illustrator 26.2.1, SVG Export Plug-In . SVG Version: 6.00 Build 0)  -->
<svg version="1.1" baseProfile="tiny" id="Layer_1" xmlns="http://www.w3.org/2000/svg" xmlns:xlink="http://www.w3.org/1999/xlink"
	 x="0px" y="0px" width="48px" height="48px" viewBox="0 0 48 48" overflow="visible" xml:space="preserve">
<g id="w3SWLQ_00000054264143376754760670000017167907024191439550_">
	<g>
		<g>
			<path fill="#FFFFFF" d="M8.1,24c0.1,5.2,2.1,9.4,6.2,12.6c2.1,1.6,4.4,2.6,7,3c3.7,0.6,7.1,0,10.3-1.9c3.1-1.8,5.3-4.3,6.7-7.6
				c0.1-0.2,0.2-0.5,0.3-0.7c0.3-0.5,0.9-0.7,1.4-0.4c0.5,0.2,0.7,0.8,0.5,1.3c-0.1,0.4-0.3,0.8-0.5,1.1c-2.5,5.2-6.6,8.6-12.2,9.9
				c-5,1.2-9.7,0.3-14-2.6c-3.9-2.6-6.4-6.3-7.5-10.9c-1-4.5-0.4-8.9,2-12.9c2.3-4,5.7-6.7,10-8.1c2.9-0.9,5.8-1.1,8.8-0.5
				c4,0.8,7.3,2.7,10.1,5.7c1.3,1.4,2.3,3,3,4.7c0.3,0.6,0.1,1.2-0.5,1.4c-0.5,0.3-1.1,0-1.4-0.6c-0.8-1.7-1.7-3.2-3-4.5
				c-3.2-3.3-7-5-11.6-5c-4.1,0-7.7,1.4-10.8,4.2c-2.7,2.5-4.3,5.6-4.9,9.2c0,0.3-0.1,0.7-0.1,1C8.1,23.1,8.1,23.6,8.1,24z"/>
			<path fill="#FFFFFF" d="M19.7,24.9c0.2,0.2,0.3,0.3,0.4,0.4c1.5,1.5,3,3,4.5,4.5c0.5,0.5,0.5,1.2,0.1,1.7
				c-0.5,0.5-1.1,0.4-1.6-0.1c-2.2-2.2-4.5-4.4-6.7-6.7c-0.7-0.7-0.6-1.2,0-1.9c2.2-2.2,4.4-4.4,6.6-6.6c0.6-0.6,1.4-0.6,1.9,0
				c0.4,0.5,0.3,1.1-0.3,1.6c-1.5,1.5-2.9,2.9-4.4,4.4c-0.1,0.1-0.2,0.2-0.4,0.4c0.3,0,0.4,0,0.6,0c6.2,0,12.5,0,18.7,0
				c0.5,0,1,0.1,1.2,0.7c0.3,0.7-0.2,1.5-0.9,1.6c-0.1,0-0.3,0-0.4,0c-6.2,0-12.4,0-18.7,0C20.1,24.9,20,24.9,19.7,24.9z"/>
		</g>
	</g>
</g>
</svg>
