<?xml version="1.0" encoding="utf-8"?>
<!-- Generator: Adobe Illustrator 26.3.1, SVG Export Plug-In . SVG Version: 6.00 Build 0)  -->
<svg version="1.1" baseProfile="tiny" id="Layer_1" xmlns="http://www.w3.org/2000/svg" xmlns:xlink="http://www.w3.org/1999/xlink"
	 x="0px" y="0px" width="514.7px" height="284.4px" viewBox="0 0 514.7 284.4" overflow="visible" xml:space="preserve">
<path fill="#F2EDED" d="M498.7,284.4H16c-8.8,0-16-7.1-16-16V16C0,7.1,7.1,0,16,0h482.7c8.8,0,16,7.1,16,16v252.5
	C514.7,277.2,507.5,284.4,498.7,284.4z"/>
<g>
	<path fill="#363636" d="M396.8,44.5l-3.2,8.4h-1.3l-3.2-8.4h1.2l2.6,7.2l2.6-7.2H396.8z"/>
	<path fill="#363636" d="M398,47.7c0.3-0.5,0.6-0.9,1.1-1.2c0.5-0.3,1-0.4,1.6-0.4c0.6,0,1.1,0.1,1.5,0.4s0.7,0.6,0.9,0.9v-1.2h1.1
		v6.6h-1.1v-1.2c-0.2,0.4-0.5,0.7-1,1c-0.4,0.3-0.9,0.4-1.5,0.4c-0.6,0-1.1-0.1-1.6-0.4c-0.5-0.3-0.8-0.7-1.1-1.2
		c-0.3-0.5-0.4-1.1-0.4-1.8C397.5,48.8,397.7,48.2,398,47.7z M402.8,48.2c-0.2-0.4-0.5-0.6-0.8-0.8s-0.7-0.3-1.1-0.3
		s-0.8,0.1-1.1,0.3c-0.3,0.2-0.6,0.5-0.8,0.8s-0.3,0.8-0.3,1.3c0,0.5,0.1,0.9,0.3,1.3s0.5,0.7,0.8,0.9c0.3,0.2,0.7,0.3,1.1,0.3
		s0.8-0.1,1.1-0.3c0.3-0.2,0.6-0.5,0.8-0.9c0.2-0.4,0.3-0.8,0.3-1.3S403,48.6,402.8,48.2z"/>
	<path fill="#363636" d="M407.2,43.9v8.9h-1.1v-8.9H407.2z"/>
	<path fill="#363636" d="M414.8,46.2v6.6h-1.1v-1c-0.2,0.3-0.5,0.6-0.9,0.8c-0.4,0.2-0.8,0.3-1.2,0.3c-0.5,0-1-0.1-1.4-0.3
		c-0.4-0.2-0.7-0.5-1-1c-0.2-0.4-0.4-0.9-0.4-1.5v-3.9h1.1V50c0,0.6,0.2,1.1,0.5,1.5s0.8,0.5,1.3,0.5c0.6,0,1-0.2,1.4-0.5
		c0.3-0.4,0.5-0.9,0.5-1.6v-3.6H414.8z"/>
	<path fill="#363636" d="M422.7,49.9h-5.3c0,0.6,0.3,1.2,0.7,1.5c0.4,0.4,0.9,0.5,1.5,0.5c0.5,0,0.9-0.1,1.2-0.3
		c0.3-0.2,0.5-0.5,0.7-0.9h1.2c-0.2,0.6-0.5,1.1-1.1,1.5c-0.5,0.4-1.2,0.6-2,0.6c-0.6,0-1.2-0.1-1.7-0.4c-0.5-0.3-0.9-0.7-1.2-1.2
		c-0.3-0.5-0.4-1.1-0.4-1.8s0.1-1.3,0.4-1.8c0.3-0.5,0.7-0.9,1.1-1.2s1.1-0.4,1.7-0.4c0.6,0,1.2,0.1,1.7,0.4
		c0.5,0.3,0.9,0.6,1.1,1.1s0.4,1,0.4,1.6C422.7,49.5,422.7,49.7,422.7,49.9z M421.3,48c-0.2-0.3-0.4-0.5-0.8-0.7
		c-0.3-0.2-0.7-0.2-1-0.2c-0.6,0-1,0.2-1.4,0.5c-0.4,0.4-0.6,0.8-0.7,1.5h4.2C421.6,48.6,421.5,48.3,421.3,48z"/>
	<path fill="#363636" d="M390.9,61.5v5.3c0,0.7,0.2,1.3,0.5,1.7s0.9,0.5,1.5,0.5c0.6,0,1.1-0.2,1.5-0.5c0.4-0.4,0.5-0.9,0.5-1.7
		v-5.3h1.1v5.3c0,0.7-0.1,1.3-0.4,1.8c-0.3,0.5-0.7,0.8-1.1,1.1c-0.5,0.2-1,0.3-1.6,0.3s-1.1-0.1-1.6-0.3c-0.5-0.2-0.9-0.6-1.1-1.1
		c-0.3-0.5-0.4-1.1-0.4-1.8v-5.3H390.9z"/>
	<path fill="#363636" d="M398.9,69.7c-0.4-0.2-0.7-0.4-0.9-0.7c-0.2-0.3-0.4-0.7-0.4-1.1h1.1c0,0.3,0.2,0.6,0.5,0.8s0.6,0.3,1.1,0.3
		c0.4,0,0.7-0.1,1-0.3c0.2-0.2,0.4-0.4,0.4-0.7c0-0.3-0.1-0.5-0.4-0.6c-0.3-0.1-0.7-0.3-1.2-0.4c-0.5-0.1-0.9-0.3-1.2-0.4
		c-0.3-0.1-0.6-0.3-0.8-0.6c-0.2-0.3-0.3-0.6-0.3-1c0-0.3,0.1-0.6,0.3-0.9c0.2-0.3,0.5-0.5,0.9-0.7c0.4-0.2,0.8-0.2,1.3-0.2
		c0.7,0,1.3,0.2,1.8,0.6s0.7,0.9,0.7,1.5h-1.1c0-0.3-0.2-0.6-0.4-0.8s-0.6-0.3-1-0.3c-0.4,0-0.7,0.1-0.9,0.3
		c-0.2,0.2-0.3,0.4-0.3,0.7c0,0.2,0.1,0.4,0.2,0.5c0.1,0.1,0.3,0.3,0.5,0.3s0.5,0.2,0.9,0.3c0.5,0.1,0.9,0.3,1.2,0.4
		s0.5,0.3,0.8,0.6s0.3,0.6,0.3,1c0,0.4-0.1,0.7-0.3,1c-0.2,0.3-0.5,0.5-0.8,0.7c-0.4,0.2-0.8,0.2-1.3,0.2
		C399.8,69.9,399.3,69.8,398.9,69.7z"/>
	<path fill="#363636" d="M404.2,64.7c0.3-0.5,0.6-0.9,1.1-1.2c0.5-0.3,1-0.4,1.6-0.4c0.6,0,1.1,0.1,1.5,0.4s0.7,0.6,0.9,0.9v-1.2
		h1.1v6.6h-1.1v-1.2c-0.2,0.4-0.5,0.7-1,1c-0.4,0.3-0.9,0.4-1.5,0.4c-0.6,0-1.1-0.1-1.6-0.4c-0.5-0.3-0.8-0.7-1.1-1.2
		c-0.3-0.5-0.4-1.1-0.4-1.8C403.8,65.8,403.9,65.2,404.2,64.7z M409.1,65.2c-0.2-0.4-0.5-0.7-0.8-0.8c-0.3-0.2-0.7-0.3-1.1-0.3
		s-0.8,0.1-1.1,0.3c-0.3,0.2-0.6,0.5-0.8,0.8c-0.2,0.4-0.3,0.8-0.3,1.3c0,0.5,0.1,0.9,0.3,1.3s0.5,0.7,0.8,0.9
		c0.3,0.2,0.7,0.3,1.1,0.3s0.8-0.1,1.1-0.3c0.3-0.2,0.6-0.5,0.8-0.9c0.2-0.4,0.3-0.8,0.3-1.3S409.3,65.6,409.1,65.2z"/>
	<path fill="#363636" d="M414.4,63.5c0.4-0.2,0.9-0.4,1.5-0.4c0.6,0,1.1,0.1,1.6,0.4s0.8,0.7,1.1,1.2c0.3,0.5,0.4,1.1,0.4,1.8
		c0,0.7-0.1,1.3-0.4,1.8c-0.3,0.5-0.6,0.9-1.1,1.2c-0.5,0.3-1,0.4-1.6,0.4c-0.6,0-1.1-0.1-1.5-0.4c-0.4-0.2-0.8-0.6-1-0.9v1.2h-1.1
		v-8.9h1.1v3.5C413.6,64.1,414,63.8,414.4,63.5z M417.6,65.2c-0.2-0.4-0.5-0.6-0.8-0.8c-0.3-0.2-0.7-0.3-1.1-0.3
		c-0.4,0-0.8,0.1-1.1,0.3c-0.3,0.2-0.6,0.5-0.8,0.9s-0.3,0.8-0.3,1.3c0,0.5,0.1,0.9,0.3,1.3s0.5,0.7,0.8,0.9
		c0.3,0.2,0.7,0.3,1.1,0.3c0.4,0,0.8-0.1,1.1-0.3c0.3-0.2,0.6-0.5,0.8-0.9c0.2-0.4,0.3-0.8,0.3-1.3C417.9,66,417.8,65.6,417.6,65.2z
		"/>
	<path fill="#363636" d="M420.5,62c-0.1-0.1-0.2-0.3-0.2-0.5s0.1-0.4,0.2-0.5c0.1-0.1,0.3-0.2,0.5-0.2c0.2,0,0.4,0.1,0.5,0.2
		c0.1,0.1,0.2,0.3,0.2,0.5s-0.1,0.4-0.2,0.5c-0.1,0.1-0.3,0.2-0.5,0.2C420.8,62.2,420.6,62.1,420.5,62z M421.5,63.2v6.6h-1.1v-6.6
		H421.5z"/>
	<path fill="#363636" d="M424.5,60.9v8.9h-1.1v-8.9H424.5z"/>
	<path fill="#363636" d="M426.4,62c-0.1-0.1-0.2-0.3-0.2-0.5s0.1-0.4,0.2-0.5c0.1-0.1,0.3-0.2,0.5-0.2c0.2,0,0.4,0.1,0.5,0.2
		s0.2,0.3,0.2,0.5s-0.1,0.4-0.2,0.5c-0.1,0.1-0.3,0.2-0.5,0.2C426.7,62.2,426.5,62.1,426.4,62z M427.4,63.2v6.6h-1.1v-6.6H427.4z"/>
	<path fill="#363636" d="M430.6,64.1V68c0,0.3,0.1,0.5,0.2,0.7s0.4,0.2,0.7,0.2h0.8v0.9h-1c-0.6,0-1.1-0.1-1.4-0.4s-0.5-0.7-0.5-1.4
		v-3.9h-0.9v-0.9h0.9v-1.7h1.1v1.7h1.7v0.9H430.6z"/>
	<path fill="#363636" d="M439.3,63.2l-4,9.7h-1.1l1.3-3.2l-2.7-6.5h1.2l2.1,5.3l2-5.3H439.3z"/>
	<path fill="#363636" d="M394.6,78.5v0.9h-3.6v2.8h3v0.9h-3v3.8h-1.1v-8.4H394.6z"/>
	<path fill="#363636" d="M401.9,83.9h-5.3c0,0.6,0.3,1.2,0.7,1.5c0.4,0.4,0.9,0.5,1.5,0.5c0.5,0,0.9-0.1,1.2-0.3
		c0.3-0.2,0.5-0.5,0.7-0.9h1.2c-0.2,0.6-0.5,1.1-1.1,1.5c-0.5,0.4-1.2,0.6-2,0.6c-0.6,0-1.2-0.1-1.7-0.4c-0.5-0.3-0.9-0.7-1.2-1.2
		c-0.3-0.5-0.4-1.1-0.4-1.8s0.1-1.3,0.4-1.8c0.3-0.5,0.7-0.9,1.1-1.2c0.5-0.3,1.1-0.4,1.7-0.4c0.6,0,1.2,0.1,1.7,0.4
		c0.5,0.3,0.9,0.6,1.1,1.1c0.3,0.5,0.4,1,0.4,1.6C401.9,83.5,401.9,83.7,401.9,83.9z M400.5,82c-0.2-0.3-0.4-0.5-0.8-0.7
		c-0.3-0.2-0.7-0.2-1-0.2c-0.6,0-1,0.2-1.4,0.5c-0.4,0.4-0.6,0.8-0.7,1.5h4.2C400.8,82.6,400.7,82.3,400.5,82z"/>
	<path fill="#363636" d="M403.3,81.7c0.3-0.5,0.6-0.9,1.1-1.2c0.5-0.3,1-0.4,1.6-0.4c0.6,0,1.1,0.1,1.5,0.4s0.7,0.6,0.9,0.9v-1.2
		h1.1v6.6h-1.1v-1.2c-0.2,0.4-0.5,0.7-1,1c-0.4,0.3-0.9,0.4-1.5,0.4c-0.6,0-1.1-0.1-1.6-0.4c-0.5-0.3-0.8-0.7-1.1-1.2
		c-0.3-0.5-0.4-1.1-0.4-1.8C402.9,82.8,403.1,82.2,403.3,81.7z M408.2,82.2c-0.2-0.4-0.5-0.7-0.8-0.8c-0.3-0.2-0.7-0.3-1.1-0.3
		s-0.8,0.1-1.1,0.3c-0.3,0.2-0.6,0.5-0.8,0.8c-0.2,0.4-0.3,0.8-0.3,1.3c0,0.5,0.1,0.9,0.3,1.3s0.5,0.7,0.8,0.9
		c0.3,0.2,0.7,0.3,1.1,0.3s0.8-0.1,1.1-0.3c0.3-0.2,0.6-0.5,0.8-0.9c0.2-0.4,0.3-0.8,0.3-1.3S408.4,82.6,408.2,82.2z"/>
	<path fill="#363636" d="M412.4,86.7c-0.4-0.2-0.7-0.4-0.9-0.7c-0.2-0.3-0.4-0.7-0.4-1.1h1.1c0,0.3,0.2,0.6,0.5,0.8s0.6,0.3,1.1,0.3
		c0.4,0,0.7-0.1,1-0.3c0.2-0.2,0.4-0.4,0.4-0.7c0-0.3-0.1-0.5-0.4-0.6c-0.3-0.1-0.7-0.3-1.2-0.4c-0.5-0.1-0.9-0.3-1.2-0.4
		c-0.3-0.1-0.6-0.3-0.8-0.6c-0.2-0.3-0.3-0.6-0.3-1c0-0.3,0.1-0.6,0.3-0.9c0.2-0.3,0.5-0.5,0.9-0.7c0.4-0.2,0.8-0.2,1.3-0.2
		c0.7,0,1.3,0.2,1.8,0.6s0.7,0.9,0.7,1.5H415c0-0.3-0.2-0.6-0.4-0.8s-0.6-0.3-1-0.3c-0.4,0-0.7,0.1-0.9,0.3
		c-0.2,0.2-0.3,0.4-0.3,0.7c0,0.2,0.1,0.4,0.2,0.5c0.1,0.1,0.3,0.3,0.5,0.3s0.5,0.2,0.9,0.3c0.5,0.1,0.9,0.3,1.2,0.4
		s0.5,0.3,0.8,0.6s0.3,0.6,0.3,1c0,0.4-0.1,0.7-0.3,1c-0.2,0.3-0.5,0.5-0.8,0.7c-0.4,0.2-0.8,0.2-1.3,0.2
		C413.3,86.9,412.8,86.8,412.4,86.7z"/>
	<path fill="#363636" d="M417.7,79c-0.1-0.1-0.2-0.3-0.2-0.5s0.1-0.4,0.2-0.5c0.1-0.1,0.3-0.2,0.5-0.2c0.2,0,0.4,0.1,0.5,0.2
		c0.1,0.1,0.2,0.3,0.2,0.5s-0.1,0.4-0.2,0.5c-0.1,0.1-0.3,0.2-0.5,0.2C418.1,79.2,417.9,79.1,417.7,79z M418.8,80.2v6.6h-1.1v-6.6
		H418.8z"/>
	<path fill="#363636" d="M422.7,80.5c0.4-0.2,0.9-0.4,1.5-0.4c0.6,0,1.1,0.1,1.6,0.4s0.8,0.7,1.1,1.2c0.3,0.5,0.4,1.1,0.4,1.8
		c0,0.7-0.1,1.3-0.4,1.8c-0.3,0.5-0.6,0.9-1.1,1.2c-0.5,0.3-1,0.4-1.6,0.4c-0.6,0-1.1-0.1-1.5-0.4c-0.4-0.2-0.8-0.6-1-0.9v1.2h-1.1
		v-8.9h1.1v3.5C422,81.1,422.3,80.8,422.7,80.5z M425.9,82.2c-0.2-0.4-0.5-0.6-0.8-0.8c-0.3-0.2-0.7-0.3-1.1-0.3
		c-0.4,0-0.8,0.1-1.1,0.3c-0.3,0.2-0.6,0.5-0.8,0.9s-0.3,0.8-0.3,1.3c0,0.5,0.1,0.9,0.3,1.3s0.5,0.7,0.8,0.9
		c0.3,0.2,0.7,0.3,1.1,0.3c0.4,0,0.8-0.1,1.1-0.3c0.3-0.2,0.6-0.5,0.8-0.9c0.2-0.4,0.3-0.8,0.3-1.3C426.2,83,426.1,82.6,425.9,82.2z
		"/>
	<path fill="#363636" d="M428.8,79c-0.1-0.1-0.2-0.3-0.2-0.5s0.1-0.4,0.2-0.5c0.1-0.1,0.3-0.2,0.5-0.2c0.2,0,0.4,0.1,0.5,0.2
		s0.2,0.3,0.2,0.5s-0.1,0.4-0.2,0.5c-0.1,0.1-0.3,0.2-0.5,0.2C429.1,79.2,429,79.1,428.8,79z M429.9,80.2v6.6h-1.1v-6.6H429.9z"/>
	<path fill="#363636" d="M432.8,77.9v8.9h-1.1v-8.9H432.8z"/>
	<path fill="#363636" d="M434.7,79c-0.1-0.1-0.2-0.3-0.2-0.5s0.1-0.4,0.2-0.5c0.1-0.1,0.3-0.2,0.5-0.2c0.2,0,0.4,0.1,0.5,0.2
		s0.2,0.3,0.2,0.5s-0.1,0.4-0.2,0.5c-0.1,0.1-0.3,0.2-0.5,0.2C435,79.2,434.9,79.1,434.7,79z M435.8,80.2v6.6h-1.1v-6.6H435.8z"/>
	<path fill="#363636" d="M439,81.1V85c0,0.3,0.1,0.5,0.2,0.7s0.4,0.2,0.7,0.2h0.8v0.9h-1c-0.6,0-1.1-0.1-1.4-0.4s-0.5-0.7-0.5-1.4
		v-3.9H437v-0.9h0.9v-1.7h1.1v1.7h1.7v0.9H439z"/>
	<path fill="#363636" d="M447.7,80.2l-4,9.7h-1.1l1.3-3.2l-2.7-6.5h1.2l2.1,5.3l2-5.3H447.7z"/>
	<path fill="#363636" d="M396.8,95.5l-3.2,8.4h-1.3l-3.2-8.4h1.2l2.6,7.2l2.6-7.2H396.8z"/>
	<path fill="#363636" d="M398,96c-0.1-0.1-0.2-0.3-0.2-0.5s0.1-0.4,0.2-0.5c0.1-0.1,0.3-0.2,0.5-0.2c0.2,0,0.4,0.1,0.5,0.2
		c0.1,0.1,0.2,0.3,0.2,0.5s-0.1,0.4-0.2,0.5c-0.1,0.1-0.3,0.2-0.5,0.2C398.3,96.2,398.1,96.1,398,96z M399,97.2v6.6H398v-6.6H399z"
		/>
	<path fill="#363636" d="M400.9,98.7c0.3-0.5,0.6-0.9,1.1-1.2c0.5-0.3,1-0.4,1.6-0.4c0.6,0,1.1,0.1,1.5,0.4s0.7,0.6,0.9,0.9v-1.2
		h1.1v6.6h-1.1v-1.2c-0.2,0.4-0.5,0.7-1,1c-0.4,0.3-0.9,0.4-1.5,0.4c-0.6,0-1.1-0.1-1.6-0.4c-0.5-0.3-0.8-0.7-1.1-1.2
		c-0.3-0.5-0.4-1.1-0.4-1.8C400.5,99.8,400.6,99.2,400.9,98.7z M405.8,99.2c-0.2-0.4-0.5-0.7-0.8-0.8c-0.3-0.2-0.7-0.3-1.1-0.3
		s-0.8,0.1-1.1,0.3c-0.3,0.2-0.6,0.5-0.8,0.8c-0.2,0.4-0.3,0.8-0.3,1.3c0,0.5,0.1,0.9,0.3,1.3s0.5,0.7,0.8,0.9
		c0.3,0.2,0.7,0.3,1.1,0.3s0.8-0.1,1.1-0.3c0.3-0.2,0.6-0.5,0.8-0.9c0.2-0.4,0.3-0.8,0.3-1.3S406,99.6,405.8,99.2z"/>
	<path fill="#363636" d="M411.1,97.5c0.4-0.2,0.9-0.4,1.5-0.4c0.6,0,1.1,0.1,1.6,0.4s0.8,0.7,1.1,1.2c0.3,0.5,0.4,1.1,0.4,1.8
		c0,0.7-0.1,1.3-0.4,1.8c-0.3,0.5-0.6,0.9-1.1,1.2c-0.5,0.3-1,0.4-1.6,0.4c-0.6,0-1.1-0.1-1.5-0.4c-0.4-0.2-0.8-0.6-1-0.9v1.2H409
		v-8.9h1.1v3.5C410.3,98.1,410.7,97.8,411.1,97.5z M414.3,99.2c-0.2-0.4-0.5-0.6-0.8-0.8c-0.3-0.2-0.7-0.3-1.1-0.3
		c-0.4,0-0.8,0.1-1.1,0.3c-0.3,0.2-0.6,0.5-0.8,0.9s-0.3,0.8-0.3,1.3c0,0.5,0.1,0.9,0.3,1.3s0.5,0.7,0.8,0.9
		c0.3,0.2,0.7,0.3,1.1,0.3c0.4,0,0.8-0.1,1.1-0.3c0.3-0.2,0.6-0.5,0.8-0.9c0.2-0.4,0.3-0.8,0.3-1.3C414.6,100,414.5,99.6,414.3,99.2
		z"/>
	<path fill="#363636" d="M417.2,96c-0.1-0.1-0.2-0.3-0.2-0.5s0.1-0.4,0.2-0.5c0.1-0.1,0.3-0.2,0.5-0.2c0.2,0,0.4,0.1,0.5,0.2
		c0.1,0.1,0.2,0.3,0.2,0.5s-0.1,0.4-0.2,0.5c-0.1,0.1-0.3,0.2-0.5,0.2C417.5,96.2,417.3,96.1,417.2,96z M418.2,97.2v6.6h-1.1v-6.6
		H418.2z"/>
	<path fill="#363636" d="M421.2,94.9v8.9h-1.1v-8.9H421.2z"/>
	<path fill="#363636" d="M423.1,96c-0.1-0.1-0.2-0.3-0.2-0.5s0.1-0.4,0.2-0.5c0.1-0.1,0.3-0.2,0.5-0.2c0.2,0,0.4,0.1,0.5,0.2
		s0.2,0.3,0.2,0.5s-0.1,0.4-0.2,0.5c-0.1,0.1-0.3,0.2-0.5,0.2C423.4,96.2,423.2,96.1,423.1,96z M424.1,97.2v6.6H423v-6.6H424.1z"/>
	<path fill="#363636" d="M427.3,98.1v3.9c0,0.3,0.1,0.5,0.2,0.7c0.1,0.1,0.4,0.2,0.7,0.2h0.8v0.9h-1c-0.6,0-1.1-0.1-1.4-0.4
		c-0.3-0.3-0.5-0.7-0.5-1.4v-3.9h-0.9v-0.9h0.9v-1.7h1.1v1.7h1.7v0.9H427.3z"/>
	<path fill="#363636" d="M436,97.2l-4,9.7h-1.1l1.3-3.2l-2.7-6.5h1.2l2.1,5.3l2-5.3H436z"/>
</g>
<g>
	<path fill="#363636" d="M61.4,112.3v-0.7h1.7v6.5h-0.8v-5.8H61.4z"/>
</g>
<g>
	<path fill="#363636" d="M104.8,208.9v-0.7h1.7v6.5h-0.8v-5.8H104.8z"/>
</g>
<g>
	<path fill="#363636" d="M160.4,212.5c0.4-0.4,0.8-0.8,1.1-1.2c0.3-0.4,0.4-0.9,0.4-1.3c0-0.4-0.1-0.7-0.3-0.9
		c-0.2-0.2-0.5-0.3-0.9-0.3c-0.4,0-0.7,0.1-0.9,0.4c-0.2,0.3-0.3,0.6-0.4,1h-0.8c0-0.7,0.2-1.2,0.6-1.6c0.4-0.4,0.9-0.5,1.5-0.5
		c0.6,0,1.1,0.2,1.5,0.5c0.4,0.3,0.5,0.8,0.5,1.4c0,0.5-0.1,1-0.4,1.5c-0.3,0.5-0.6,0.9-1,1.2c-0.4,0.4-0.9,0.8-1.4,1.2h3.1v0.7
		h-4.3V214C159.4,213.4,159.9,212.9,160.4,212.5z"/>
</g>
<g>
	<path fill="#363636" d="M236.1,208.5c0.4-0.3,0.9-0.5,1.5-0.5c0.4,0,0.8,0.1,1.1,0.2c0.3,0.1,0.5,0.3,0.7,0.6
		c0.2,0.3,0.2,0.5,0.2,0.9c0,0.4-0.1,0.7-0.3,1s-0.5,0.4-0.8,0.5v0c0.4,0.1,0.7,0.3,0.9,0.6c0.2,0.3,0.3,0.7,0.3,1.1
		c0,0.3-0.1,0.6-0.2,0.9c-0.2,0.3-0.4,0.5-0.7,0.6c-0.3,0.2-0.7,0.2-1.1,0.2c-0.6,0-1.2-0.2-1.6-0.5c-0.4-0.3-0.6-0.8-0.7-1.4h0.8
		c0,0.4,0.2,0.7,0.4,0.9c0.3,0.2,0.6,0.3,1,0.3c0.4,0,0.7-0.1,1-0.3c0.2-0.2,0.3-0.5,0.3-0.9c0-0.5-0.2-0.8-0.5-1
		c-0.3-0.2-0.8-0.3-1.4-0.3h-0.2v-0.7h0.2c0.6,0,1-0.1,1.3-0.3s0.4-0.5,0.4-0.8c0-0.3-0.1-0.6-0.3-0.8c-0.2-0.2-0.5-0.3-0.9-0.3
		c-0.4,0-0.7,0.1-0.9,0.3c-0.2,0.2-0.4,0.5-0.4,0.8h-0.8C235.5,209.3,235.7,208.8,236.1,208.5z"/>
</g>
<g>
	<path fill="#363636" d="M315,213.2v-0.6l3.2-4.4h1v4.3h0.9v0.7h-0.9v1.4h-0.8v-1.4H315z M318.4,209.1l-2.4,3.4h2.4V209.1z"/>
</g>
<g>
	<path fill="#363636" d="M110.3,115.9c0.4-0.4,0.8-0.8,1.1-1.2c0.3-0.4,0.4-0.9,0.4-1.3c0-0.4-0.1-0.7-0.3-0.9s-0.5-0.3-0.9-0.3
		c-0.4,0-0.7,0.1-0.9,0.4c-0.2,0.3-0.3,0.6-0.4,1h-0.8c0-0.7,0.2-1.2,0.6-1.6c0.4-0.4,0.9-0.5,1.5-0.5c0.6,0,1.1,0.2,1.5,0.5
		c0.4,0.3,0.5,0.8,0.5,1.4c0,0.5-0.1,1-0.4,1.5c-0.3,0.5-0.6,0.9-1,1.2c-0.4,0.4-0.9,0.8-1.4,1.2h3.1v0.7h-4.3v-0.6
		C109.3,116.8,109.9,116.3,110.3,115.9z"/>
</g>
<g>
	<path fill="#363636" d="M161.1,111.9c0.4-0.3,0.9-0.5,1.5-0.5c0.4,0,0.8,0.1,1.1,0.2s0.5,0.3,0.7,0.6c0.2,0.3,0.2,0.5,0.2,0.9
		c0,0.4-0.1,0.7-0.3,1c-0.2,0.3-0.5,0.4-0.8,0.5v0c0.4,0.1,0.7,0.3,0.9,0.6c0.2,0.3,0.3,0.7,0.3,1.1c0,0.3-0.1,0.6-0.2,0.9
		c-0.2,0.3-0.4,0.5-0.7,0.6c-0.3,0.2-0.7,0.2-1.1,0.2c-0.6,0-1.2-0.2-1.6-0.5c-0.4-0.3-0.6-0.8-0.7-1.4h0.8c0,0.4,0.2,0.7,0.4,0.9
		c0.3,0.2,0.6,0.3,1,0.3c0.4,0,0.7-0.1,1-0.3c0.2-0.2,0.3-0.5,0.3-0.9c0-0.5-0.2-0.8-0.5-1c-0.3-0.2-0.8-0.3-1.4-0.3h-0.2v-0.7h0.2
		c0.6,0,1-0.1,1.3-0.3s0.4-0.5,0.4-0.8c0-0.3-0.1-0.6-0.3-0.8c-0.2-0.2-0.5-0.3-0.9-0.3c-0.4,0-0.7,0.1-0.9,0.3
		c-0.2,0.2-0.4,0.5-0.4,0.8h-0.8C160.5,112.6,160.7,112.2,161.1,111.9z"/>
</g>
<g>
	<path fill="#363636" d="M218.5,116.6V116l3.2-4.4h1v4.3h0.9v0.7h-0.9v1.4h-0.8v-1.4H218.5z M221.9,112.4l-2.4,3.4h2.4V112.4z"/>
</g>
<g>
	<path fill="#363636" d="M290.8,112.2h-3.2v2.1c0.1-0.2,0.3-0.3,0.6-0.5c0.3-0.1,0.6-0.2,0.9-0.2c0.5,0,0.9,0.1,1.2,0.3
		c0.3,0.2,0.5,0.5,0.7,0.8c0.1,0.3,0.2,0.7,0.2,1c0,0.4-0.1,0.8-0.2,1.2s-0.4,0.6-0.7,0.8c-0.3,0.2-0.7,0.3-1.2,0.3
		c-0.6,0-1.1-0.2-1.5-0.5c-0.4-0.3-0.6-0.8-0.7-1.3h0.8c0.1,0.3,0.2,0.6,0.5,0.8s0.6,0.3,1,0.3c0.5,0,0.8-0.1,1.1-0.4
		s0.4-0.7,0.4-1.1c0-0.5-0.1-0.8-0.4-1.1s-0.6-0.4-1.1-0.4c-0.3,0-0.6,0.1-0.8,0.2c-0.2,0.2-0.4,0.4-0.5,0.6h-0.8v-3.7h3.9V112.2z"
		/>
</g>
<g>
	<path fill="#363636" d="M391,189.2c-0.4-0.2-0.8-0.5-1-0.8c-0.2-0.3-0.4-0.8-0.4-1.2h1.2c0,0.4,0.2,0.7,0.5,1
		c0.3,0.3,0.7,0.4,1.2,0.4c0.5,0,0.9-0.1,1.2-0.4c0.3-0.3,0.4-0.6,0.4-1c0-0.3-0.1-0.6-0.3-0.8s-0.4-0.4-0.7-0.5
		c-0.3-0.1-0.6-0.2-1.1-0.3c-0.6-0.1-1-0.3-1.3-0.4c-0.3-0.1-0.6-0.4-0.9-0.7c-0.2-0.3-0.4-0.7-0.4-1.2c0-0.5,0.1-0.9,0.3-1.2
		c0.2-0.4,0.6-0.6,1-0.8c0.4-0.2,0.9-0.3,1.4-0.3c0.8,0,1.4,0.2,1.9,0.6c0.5,0.4,0.8,0.9,0.8,1.6H394c0-0.3-0.2-0.6-0.5-0.8
		s-0.7-0.4-1.2-0.4c-0.5,0-0.8,0.1-1.1,0.4s-0.4,0.6-0.4,1c0,0.3,0.1,0.6,0.3,0.7c0.2,0.2,0.4,0.3,0.6,0.4c0.3,0.1,0.6,0.2,1.1,0.3
		c0.6,0.2,1,0.3,1.3,0.5c0.3,0.1,0.6,0.4,0.9,0.7c0.2,0.3,0.4,0.7,0.4,1.3c0,0.4-0.1,0.8-0.3,1.2s-0.5,0.7-1,0.9s-0.9,0.3-1.5,0.3
		C391.9,189.5,391.4,189.4,391,189.2z"/>
	<path fill="#363636" d="M396.9,184.3c0.3-0.5,0.7-0.9,1.1-1.2c0.5-0.3,1-0.4,1.7-0.4c0.8,0,1.5,0.2,2,0.6c0.5,0.4,0.9,0.9,1,1.6
		h-1.2c-0.1-0.4-0.3-0.7-0.7-0.9c-0.3-0.2-0.7-0.3-1.2-0.3c-0.6,0-1.1,0.2-1.5,0.6c-0.4,0.4-0.6,1-0.6,1.8c0,0.8,0.2,1.4,0.6,1.8
		c0.4,0.4,0.9,0.6,1.5,0.6c0.5,0,0.9-0.1,1.2-0.3c0.3-0.2,0.5-0.5,0.7-1h1.2c-0.2,0.7-0.5,1.2-1.1,1.6s-1.2,0.6-2,0.6
		c-0.6,0-1.2-0.1-1.7-0.4c-0.5-0.3-0.9-0.7-1.1-1.2c-0.3-0.5-0.4-1.1-0.4-1.8C396.5,185.4,396.6,184.8,396.9,184.3z"/>
	<path fill="#363636" d="M404.2,184.3c0.3-0.5,0.6-0.9,1.1-1.2c0.5-0.3,1-0.4,1.6-0.4c0.6,0,1.1,0.1,1.5,0.4s0.7,0.6,0.9,0.9v-1.2
		h1.1v6.6h-1.1v-1.2c-0.2,0.4-0.5,0.7-1,1c-0.4,0.3-0.9,0.4-1.5,0.4c-0.6,0-1.1-0.1-1.6-0.4c-0.5-0.3-0.8-0.7-1.1-1.2
		c-0.3-0.5-0.4-1.1-0.4-1.8C403.8,185.4,403.9,184.8,404.2,184.3z M409,184.8c-0.2-0.4-0.5-0.7-0.8-0.8c-0.3-0.2-0.7-0.3-1.1-0.3
		s-0.8,0.1-1.1,0.3c-0.3,0.2-0.6,0.5-0.8,0.8s-0.3,0.8-0.3,1.3c0,0.5,0.1,0.9,0.3,1.3s0.5,0.7,0.8,0.9c0.3,0.2,0.7,0.3,1.1,0.3
		s0.8-0.1,1.1-0.3c0.3-0.2,0.6-0.5,0.8-0.9c0.2-0.4,0.3-0.8,0.3-1.3S409.2,185.1,409,184.8z"/>
	<path fill="#363636" d="M413.4,180.5v8.9h-1.1v-8.9H413.4z"/>
	<path fill="#363636" d="M415.2,184.3c0.3-0.5,0.6-0.9,1.1-1.2c0.5-0.3,1-0.4,1.6-0.4c0.6,0,1.1,0.1,1.5,0.4
		c0.4,0.2,0.7,0.6,0.9,0.9v-1.2h1.1v6.6h-1.1v-1.2c-0.2,0.4-0.5,0.7-1,1c-0.4,0.3-0.9,0.4-1.5,0.4c-0.6,0-1.1-0.1-1.6-0.4
		s-0.8-0.7-1.1-1.2c-0.3-0.5-0.4-1.1-0.4-1.8C414.8,185.4,415,184.8,415.2,184.3z M420.1,184.8c-0.2-0.4-0.5-0.7-0.8-0.8
		c-0.3-0.2-0.7-0.3-1.1-0.3c-0.4,0-0.8,0.1-1.1,0.3c-0.3,0.2-0.6,0.5-0.8,0.8c-0.2,0.4-0.3,0.8-0.3,1.3c0,0.5,0.1,0.9,0.3,1.3
		c0.2,0.4,0.5,0.7,0.8,0.9c0.3,0.2,0.7,0.3,1.1,0.3c0.4,0,0.8-0.1,1.1-0.3c0.3-0.2,0.6-0.5,0.8-0.9s0.3-0.8,0.3-1.3
		S420.3,185.1,420.1,184.8z"/>
	<path fill="#363636" d="M425.4,183.1c0.4-0.2,0.9-0.4,1.5-0.4c0.6,0,1.1,0.1,1.6,0.4c0.5,0.3,0.8,0.7,1.1,1.2
		c0.3,0.5,0.4,1.1,0.4,1.8c0,0.7-0.1,1.3-0.4,1.8c-0.3,0.5-0.6,0.9-1.1,1.2c-0.5,0.3-1,0.4-1.6,0.4c-0.6,0-1.1-0.1-1.5-0.4
		s-0.8-0.6-1-0.9v1.2h-1.1v-8.9h1.1v3.5C424.7,183.6,425,183.3,425.4,183.1z M428.6,184.8c-0.2-0.4-0.5-0.6-0.8-0.8
		c-0.3-0.2-0.7-0.3-1.1-0.3c-0.4,0-0.8,0.1-1.1,0.3c-0.3,0.2-0.6,0.5-0.8,0.9c-0.2,0.4-0.3,0.8-0.3,1.3c0,0.5,0.1,0.9,0.3,1.3
		c0.2,0.4,0.5,0.7,0.8,0.9c0.3,0.2,0.7,0.3,1.1,0.3c0.4,0,0.8-0.1,1.1-0.3c0.3-0.2,0.6-0.5,0.8-0.9s0.3-0.8,0.3-1.3
		C428.9,185.6,428.8,185.1,428.6,184.8z"/>
	<path fill="#363636" d="M431.5,181.5c-0.1-0.1-0.2-0.3-0.2-0.5s0.1-0.4,0.2-0.5c0.1-0.1,0.3-0.2,0.5-0.2c0.2,0,0.4,0.1,0.5,0.2
		c0.1,0.1,0.2,0.3,0.2,0.5s-0.1,0.4-0.2,0.5c-0.1,0.1-0.3,0.2-0.5,0.2C431.8,181.7,431.6,181.7,431.5,181.5z M432.5,182.8v6.6h-1.1
		v-6.6H432.5z"/>
	<path fill="#363636" d="M435.5,180.5v8.9h-1.1v-8.9H435.5z"/>
	<path fill="#363636" d="M437.4,181.5c-0.1-0.1-0.2-0.3-0.2-0.5s0.1-0.4,0.2-0.5c0.1-0.1,0.3-0.2,0.5-0.2c0.2,0,0.4,0.1,0.5,0.2
		c0.1,0.1,0.2,0.3,0.2,0.5s-0.1,0.4-0.2,0.5c-0.1,0.1-0.3,0.2-0.5,0.2C437.7,181.7,437.5,181.7,437.4,181.5z M438.5,182.8v6.6h-1.1
		v-6.6H438.5z"/>
	<path fill="#363636" d="M441.6,183.7v3.9c0,0.3,0.1,0.5,0.2,0.7c0.1,0.1,0.4,0.2,0.7,0.2h0.8v0.9h-1c-0.6,0-1.1-0.1-1.4-0.4
		c-0.3-0.3-0.5-0.7-0.5-1.4v-3.9h-0.9v-0.9h0.9v-1.7h1.1v1.7h1.7v0.9H441.6z"/>
	<path fill="#363636" d="M450.3,182.8l-4,9.7h-1.1l1.3-3.2l-2.7-6.5h1.2l2.1,5.3l2-5.3H450.3z"/>
	<path fill="#363636" d="M394.2,206.4l-2-3.4h-1.3v3.4h-1.1V198h2.7c0.6,0,1.2,0.1,1.6,0.3c0.4,0.2,0.8,0.5,1,0.9s0.3,0.8,0.3,1.3
		c0,0.6-0.2,1.1-0.5,1.5s-0.8,0.7-1.5,0.9l2.1,3.5H394.2z M390.9,202.1h1.6c0.6,0,1-0.1,1.3-0.4c0.3-0.3,0.4-0.7,0.4-1.2
		c0-0.5-0.1-0.9-0.4-1.2c-0.3-0.3-0.7-0.4-1.3-0.4h-1.6V202.1z"/>
	<path fill="#363636" d="M403.1,203.5h-5.3c0,0.6,0.3,1.2,0.7,1.5c0.4,0.4,0.9,0.5,1.5,0.5c0.5,0,0.9-0.1,1.2-0.3
		c0.3-0.2,0.5-0.5,0.7-0.9h1.2c-0.2,0.6-0.5,1.1-1.1,1.5c-0.5,0.4-1.2,0.6-2,0.6c-0.6,0-1.2-0.1-1.7-0.4c-0.5-0.3-0.9-0.7-1.2-1.2
		c-0.3-0.5-0.4-1.1-0.4-1.8s0.1-1.3,0.4-1.8c0.3-0.5,0.7-0.9,1.1-1.2c0.5-0.3,1.1-0.4,1.7-0.4c0.6,0,1.2,0.1,1.7,0.4
		c0.5,0.3,0.9,0.6,1.1,1.1c0.3,0.5,0.4,1,0.4,1.6C403.1,203,403.1,203.3,403.1,203.5z M401.7,201.5c-0.2-0.3-0.4-0.5-0.8-0.7
		c-0.3-0.2-0.7-0.2-1-0.2c-0.6,0-1,0.2-1.4,0.5c-0.4,0.4-0.6,0.8-0.7,1.5h4.2C402,202.2,401.9,201.8,401.7,201.5z"/>
	<path fill="#363636" d="M405.7,197.5v8.9h-1.1v-8.9H405.7z"/>
	<path fill="#363636" d="M407.6,198.5c-0.1-0.1-0.2-0.3-0.2-0.5s0.1-0.4,0.2-0.5c0.1-0.1,0.3-0.2,0.5-0.2c0.2,0,0.4,0.1,0.5,0.2
		s0.2,0.3,0.2,0.5s-0.1,0.4-0.2,0.5c-0.1,0.1-0.3,0.2-0.5,0.2C407.9,198.7,407.7,198.7,407.6,198.5z M408.6,199.8v6.6h-1.1v-6.6
		H408.6z"/>
	<path fill="#363636" d="M410.5,201.3c0.3-0.5,0.6-0.9,1.1-1.2c0.5-0.3,1-0.4,1.6-0.4c0.6,0,1.1,0.1,1.5,0.4
		c0.4,0.2,0.7,0.6,0.9,0.9v-1.2h1.1v6.6h-1.1v-1.2c-0.2,0.4-0.5,0.7-1,1c-0.4,0.3-0.9,0.4-1.5,0.4c-0.6,0-1.1-0.1-1.6-0.4
		s-0.8-0.7-1.1-1.2c-0.3-0.5-0.4-1.1-0.4-1.8C410.1,202.4,410.2,201.8,410.5,201.3z M415.3,201.8c-0.2-0.4-0.5-0.7-0.8-0.8
		c-0.3-0.2-0.7-0.3-1.1-0.3c-0.4,0-0.8,0.1-1.1,0.3c-0.3,0.2-0.6,0.5-0.8,0.8c-0.2,0.4-0.3,0.8-0.3,1.3c0,0.5,0.1,0.9,0.3,1.3
		c0.2,0.4,0.5,0.7,0.8,0.9c0.3,0.2,0.7,0.3,1.1,0.3c0.4,0,0.8-0.1,1.1-0.3c0.3-0.2,0.6-0.5,0.8-0.9s0.3-0.8,0.3-1.3
		S415.5,202.1,415.3,201.8z"/>
	<path fill="#363636" d="M420.7,200.1c0.4-0.2,0.9-0.4,1.5-0.4c0.6,0,1.1,0.1,1.6,0.4c0.5,0.3,0.8,0.7,1.1,1.2
		c0.3,0.5,0.4,1.1,0.4,1.8c0,0.7-0.1,1.3-0.4,1.8c-0.3,0.5-0.6,0.9-1.1,1.2c-0.5,0.3-1,0.4-1.6,0.4c-0.6,0-1.1-0.1-1.5-0.4
		s-0.8-0.6-1-0.9v1.2h-1.1v-8.9h1.1v3.5C419.9,200.6,420.2,200.3,420.7,200.1z M423.8,201.8c-0.2-0.4-0.5-0.6-0.8-0.8
		c-0.3-0.2-0.7-0.3-1.1-0.3c-0.4,0-0.8,0.1-1.1,0.3c-0.3,0.2-0.6,0.5-0.8,0.9c-0.2,0.4-0.3,0.8-0.3,1.3c0,0.5,0.1,0.9,0.3,1.3
		c0.2,0.4,0.5,0.7,0.8,0.9c0.3,0.2,0.7,0.3,1.1,0.3c0.4,0,0.8-0.1,1.1-0.3c0.3-0.2,0.6-0.5,0.8-0.9s0.3-0.8,0.3-1.3
		C424.1,202.6,424,202.1,423.8,201.8z"/>
	<path fill="#363636" d="M426.7,198.5c-0.1-0.1-0.2-0.3-0.2-0.5s0.1-0.4,0.2-0.5c0.1-0.1,0.3-0.2,0.5-0.2c0.2,0,0.4,0.1,0.5,0.2
		s0.2,0.3,0.2,0.5s-0.1,0.4-0.2,0.5c-0.1,0.1-0.3,0.2-0.5,0.2C427.1,198.7,426.9,198.7,426.7,198.5z M427.8,199.8v6.6h-1.1v-6.6
		H427.8z"/>
	<path fill="#363636" d="M430.8,197.5v8.9h-1.1v-8.9H430.8z"/>
	<path fill="#363636" d="M432.6,198.5c-0.1-0.1-0.2-0.3-0.2-0.5s0.1-0.4,0.2-0.5c0.1-0.1,0.3-0.2,0.5-0.2c0.2,0,0.4,0.1,0.5,0.2
		c0.1,0.1,0.2,0.3,0.2,0.5s-0.1,0.4-0.2,0.5c-0.1,0.1-0.3,0.2-0.5,0.2C433,198.7,432.8,198.7,432.6,198.5z M433.7,199.8v6.6h-1.1
		v-6.6H433.7z"/>
	<path fill="#363636" d="M436.9,200.7v3.9c0,0.3,0.1,0.5,0.2,0.7s0.4,0.2,0.7,0.2h0.8v0.9h-1c-0.6,0-1.1-0.1-1.4-0.4
		s-0.5-0.7-0.5-1.4v-3.9h-0.9v-0.9h0.9v-1.7h1.1v1.7h1.7v0.9H436.9z"/>
	<path fill="#363636" d="M445.6,199.8l-4,9.7h-1.1l1.3-3.2l-2.7-6.5h1.2l2.1,5.3l2-5.3H445.6z"/>
	<path fill="#363636" d="M394.7,219.2c-0.5,0.5-1.2,0.7-2.2,0.7h-1.6v3.5h-1.1V215h2.7c0.9,0,1.7,0.2,2.2,0.7s0.7,1,0.7,1.8
		C395.4,218.2,395.2,218.7,394.7,219.2z M393.9,218.6c0.3-0.3,0.4-0.6,0.4-1.1c0-1-0.6-1.5-1.8-1.5h-1.6v3.1h1.6
		C393.2,219,393.6,218.8,393.9,218.6z"/>
	<path fill="#363636" d="M402.8,220.5h-5.3c0,0.6,0.3,1.2,0.7,1.5c0.4,0.4,0.9,0.5,1.5,0.5c0.5,0,0.9-0.1,1.2-0.3
		c0.3-0.2,0.5-0.5,0.7-0.9h1.2c-0.2,0.6-0.5,1.1-1.1,1.5c-0.5,0.4-1.2,0.6-2,0.6c-0.6,0-1.2-0.1-1.7-0.4c-0.5-0.3-0.9-0.7-1.2-1.2
		c-0.3-0.5-0.4-1.1-0.4-1.8s0.1-1.3,0.4-1.8c0.3-0.5,0.7-0.9,1.1-1.2c0.5-0.3,1.1-0.4,1.7-0.4c0.6,0,1.2,0.1,1.7,0.4
		c0.5,0.3,0.8,0.6,1.1,1.1c0.3,0.5,0.4,1,0.4,1.6C402.8,220,402.8,220.3,402.8,220.5z M401.4,218.5c-0.2-0.3-0.4-0.5-0.8-0.7
		c-0.3-0.2-0.7-0.2-1-0.2c-0.6,0-1,0.2-1.4,0.5c-0.4,0.4-0.6,0.8-0.7,1.5h4.2C401.7,219.2,401.6,218.8,401.4,218.5z"/>
	<path fill="#363636" d="M406.1,217c0.4-0.2,0.8-0.3,1.3-0.3v1.1h-0.3c-1.2,0-1.8,0.7-1.8,2v3.6h-1.1v-6.6h1.1v1.1
		C405.5,217.5,405.8,217.2,406.1,217z"/>
	<path fill="#363636" d="M411.4,217.7H410v5.7h-1.1v-5.7h-0.9v-0.9h0.9v-0.5c0-0.7,0.2-1.3,0.6-1.6c0.4-0.3,1-0.5,1.8-0.5v0.9
		c-0.5,0-0.8,0.1-1,0.3c-0.2,0.2-0.3,0.5-0.3,0.9v0.5h1.4V217.7z"/>
	<path fill="#363636" d="M413.8,223.1c-0.5-0.3-0.9-0.7-1.2-1.2c-0.3-0.5-0.4-1.1-0.4-1.8c0-0.7,0.1-1.3,0.4-1.8s0.7-0.9,1.2-1.2
		c0.5-0.3,1.1-0.4,1.7-0.4s1.2,0.1,1.7,0.4c0.5,0.3,0.9,0.7,1.2,1.2s0.4,1.1,0.4,1.8s-0.1,1.3-0.5,1.8c-0.3,0.5-0.7,0.9-1.2,1.2
		c-0.5,0.3-1.1,0.4-1.7,0.4C414.9,223.5,414.3,223.3,413.8,223.1z M416.6,222.2c0.3-0.2,0.6-0.5,0.8-0.8s0.3-0.8,0.3-1.3
		c0-0.5-0.1-1-0.3-1.3c-0.2-0.4-0.5-0.6-0.8-0.8c-0.3-0.2-0.7-0.3-1.1-0.3c-0.4,0-0.8,0.1-1.1,0.3c-0.3,0.2-0.6,0.5-0.8,0.8
		c-0.2,0.4-0.3,0.8-0.3,1.3c0,0.5,0.1,1,0.3,1.4c0.2,0.4,0.5,0.6,0.8,0.8s0.7,0.3,1.1,0.3C415.9,222.5,416.3,222.4,416.6,222.2z"/>
	<path fill="#363636" d="M422.2,217c0.4-0.2,0.8-0.3,1.3-0.3v1.1h-0.3c-1.2,0-1.8,0.7-1.8,2v3.6h-1.1v-6.6h1.1v1.1
		C421.6,217.5,421.9,217.2,422.2,217z"/>
	<path fill="#363636" d="M434.1,217c0.4,0.2,0.7,0.5,0.9,1c0.2,0.4,0.3,0.9,0.3,1.5v3.9h-1.1v-3.7c0-0.7-0.2-1.2-0.5-1.5
		c-0.3-0.3-0.8-0.5-1.3-0.5c-0.6,0-1,0.2-1.4,0.5s-0.5,0.9-0.5,1.6v3.6h-1.1v-3.7c0-0.7-0.2-1.2-0.5-1.5c-0.3-0.3-0.8-0.5-1.3-0.5
		c-0.6,0-1,0.2-1.4,0.5s-0.5,0.9-0.5,1.6v3.6h-1.1v-6.6h1.1v0.9c0.2-0.3,0.5-0.6,0.9-0.8s0.8-0.3,1.2-0.3c0.6,0,1,0.1,1.5,0.4
		s0.7,0.6,0.9,1.1c0.2-0.5,0.5-0.8,0.9-1.1c0.4-0.3,0.9-0.4,1.4-0.4C433.2,216.7,433.7,216.8,434.1,217z"/>
	<path fill="#363636" d="M437.2,218.3c0.3-0.5,0.6-0.9,1.1-1.2c0.5-0.3,1-0.4,1.6-0.4c0.6,0,1.1,0.1,1.5,0.4s0.7,0.6,0.9,0.9v-1.2
		h1.1v6.6h-1.1v-1.2c-0.2,0.4-0.5,0.7-1,1c-0.4,0.3-0.9,0.4-1.5,0.4c-0.6,0-1.1-0.1-1.6-0.4c-0.5-0.3-0.8-0.7-1.1-1.2
		c-0.3-0.5-0.4-1.1-0.4-1.8C436.8,219.4,436.9,218.8,437.2,218.3z M442,218.8c-0.2-0.4-0.5-0.7-0.8-0.8c-0.3-0.2-0.7-0.3-1.1-0.3
		s-0.8,0.1-1.1,0.3c-0.3,0.2-0.6,0.5-0.8,0.8c-0.2,0.4-0.3,0.8-0.3,1.3c0,0.5,0.1,0.9,0.3,1.3s0.5,0.7,0.8,0.9
		c0.3,0.2,0.7,0.3,1.1,0.3s0.8-0.1,1.1-0.3c0.3-0.2,0.6-0.5,0.8-0.9c0.2-0.4,0.3-0.8,0.3-1.3S442.2,219.1,442,218.8z"/>
	<path fill="#363636" d="M450.4,217.4c0.5,0.5,0.7,1.2,0.7,2.1v3.9h-1.1v-3.7c0-0.7-0.2-1.2-0.5-1.5c-0.3-0.3-0.8-0.5-1.3-0.5
		c-0.6,0-1,0.2-1.4,0.5s-0.5,0.9-0.5,1.6v3.6h-1.1v-6.6h1.1v0.9c0.2-0.3,0.5-0.6,0.9-0.8s0.8-0.3,1.2-0.3
		C449.3,216.7,449.9,216.9,450.4,217.4z"/>
	<path fill="#363636" d="M453,218.3c0.3-0.5,0.7-0.9,1.1-1.2c0.5-0.3,1-0.4,1.7-0.4c0.8,0,1.5,0.2,2,0.6c0.5,0.4,0.9,0.9,1,1.6h-1.2
		c-0.1-0.4-0.3-0.7-0.7-0.9c-0.3-0.2-0.7-0.3-1.2-0.3c-0.6,0-1.1,0.2-1.5,0.6c-0.4,0.4-0.6,1-0.6,1.8c0,0.8,0.2,1.4,0.6,1.8
		c0.4,0.4,0.9,0.6,1.5,0.6c0.5,0,0.9-0.1,1.2-0.3c0.3-0.2,0.5-0.5,0.7-1h1.2c-0.2,0.7-0.5,1.2-1.1,1.6s-1.2,0.6-2,0.6
		c-0.6,0-1.2-0.1-1.7-0.4c-0.5-0.3-0.9-0.7-1.1-1.2c-0.3-0.5-0.4-1.1-0.4-1.8C452.6,219.4,452.7,218.8,453,218.3z"/>
	<path fill="#363636" d="M466.2,220.5H461c0,0.6,0.3,1.2,0.7,1.5c0.4,0.4,0.9,0.5,1.5,0.5c0.5,0,0.9-0.1,1.2-0.3
		c0.3-0.2,0.5-0.5,0.7-0.9h1.2c-0.2,0.6-0.5,1.1-1.1,1.5c-0.5,0.4-1.2,0.6-2,0.6c-0.6,0-1.2-0.1-1.7-0.4c-0.5-0.3-0.9-0.7-1.2-1.2
		c-0.3-0.5-0.4-1.1-0.4-1.8s0.1-1.3,0.4-1.8c0.3-0.5,0.7-0.9,1.1-1.2c0.5-0.3,1.1-0.4,1.7-0.4c0.6,0,1.2,0.1,1.7,0.4
		c0.5,0.3,0.9,0.6,1.1,1.1c0.3,0.5,0.4,1,0.4,1.6C466.2,220,466.2,220.3,466.2,220.5z M464.8,218.5c-0.2-0.3-0.4-0.5-0.8-0.7
		c-0.3-0.2-0.7-0.2-1-0.2c-0.6,0-1,0.2-1.4,0.5c-0.4,0.4-0.6,0.8-0.7,1.5h4.2C465.1,219.2,465,218.8,464.8,218.5z"/>
	<path fill="#363636" d="M398.3,232.1v8.3h-1.1v-6.2l-2.8,6.2h-0.8l-2.8-6.2v6.2h-1.1v-8.3h1.2l3.1,6.9l3.1-6.9H398.3z"/>
	<path fill="#363636" d="M400.2,235.3c0.3-0.5,0.6-0.9,1.1-1.2c0.5-0.3,1-0.4,1.6-0.4c0.6,0,1.1,0.1,1.5,0.4
		c0.4,0.2,0.7,0.6,0.9,0.9v-1.2h1.1v6.6h-1.1v-1.2c-0.2,0.4-0.5,0.7-1,1c-0.4,0.3-0.9,0.4-1.5,0.4c-0.6,0-1.1-0.1-1.6-0.4
		s-0.8-0.7-1.1-1.2c-0.3-0.5-0.4-1.1-0.4-1.8C399.8,236.4,399.9,235.8,400.2,235.3z M405,235.8c-0.2-0.4-0.5-0.7-0.8-0.8
		c-0.3-0.2-0.7-0.3-1.1-0.3c-0.4,0-0.8,0.1-1.1,0.3c-0.3,0.2-0.6,0.5-0.8,0.8c-0.2,0.4-0.3,0.8-0.3,1.3c0,0.5,0.1,0.9,0.3,1.3
		c0.2,0.4,0.5,0.7,0.8,0.9c0.3,0.2,0.7,0.3,1.1,0.3c0.4,0,0.8-0.1,1.1-0.3c0.3-0.2,0.6-0.5,0.8-0.9s0.3-0.8,0.3-1.3
		S405.2,236.1,405,235.8z"/>
	<path fill="#363636" d="M408.3,232.5c-0.1-0.1-0.2-0.3-0.2-0.5s0.1-0.4,0.2-0.5c0.1-0.1,0.3-0.2,0.5-0.2c0.2,0,0.4,0.1,0.5,0.2
		c0.1,0.1,0.2,0.3,0.2,0.5s-0.1,0.4-0.2,0.5c-0.1,0.1-0.3,0.2-0.5,0.2C408.6,232.7,408.5,232.7,408.3,232.5z M409.4,233.8v6.6h-1.1
		v-6.6H409.4z"/>
	<path fill="#363636" d="M416.4,234.4c0.5,0.5,0.7,1.2,0.7,2.1v3.9H416v-3.7c0-0.7-0.2-1.2-0.5-1.5c-0.3-0.3-0.8-0.5-1.3-0.5
		c-0.6,0-1,0.2-1.4,0.5s-0.5,0.9-0.5,1.6v3.6h-1.1v-6.6h1.1v0.9c0.2-0.3,0.5-0.6,0.9-0.8s0.8-0.3,1.2-0.3
		C415.2,233.7,415.9,233.9,416.4,234.4z"/>
	<path fill="#363636" d="M420.2,234.7v3.9c0,0.3,0.1,0.5,0.2,0.7c0.1,0.1,0.4,0.2,0.7,0.2h0.8v0.9h-1c-0.6,0-1.1-0.1-1.4-0.4
		c-0.3-0.3-0.5-0.7-0.5-1.4v-3.9h-0.9v-0.9h0.9v-1.7h1.1v1.7h1.7v0.9H420.2z"/>
	<path fill="#363636" d="M423.3,235.3c0.3-0.5,0.6-0.9,1.1-1.2c0.5-0.3,1-0.4,1.6-0.4c0.6,0,1.1,0.1,1.5,0.4s0.7,0.6,0.9,0.9v-1.2
		h1.1v6.6h-1.1v-1.2c-0.2,0.4-0.5,0.7-1,1c-0.4,0.3-0.9,0.4-1.5,0.4c-0.6,0-1.1-0.1-1.6-0.4c-0.5-0.3-0.8-0.7-1.1-1.2
		c-0.3-0.5-0.4-1.1-0.4-1.8C422.9,236.4,423,235.8,423.3,235.3z M428.1,235.8c-0.2-0.4-0.5-0.7-0.8-0.8c-0.3-0.2-0.7-0.3-1.1-0.3
		s-0.8,0.1-1.1,0.3c-0.3,0.2-0.6,0.5-0.8,0.8c-0.2,0.4-0.3,0.8-0.3,1.3c0,0.5,0.1,0.9,0.3,1.3s0.5,0.7,0.8,0.9
		c0.3,0.2,0.7,0.3,1.1,0.3s0.8-0.1,1.1-0.3c0.3-0.2,0.6-0.5,0.8-0.9c0.2-0.4,0.3-0.8,0.3-1.3S428.3,236.1,428.1,235.8z"/>
	<path fill="#363636" d="M431.4,232.5c-0.1-0.1-0.2-0.3-0.2-0.5s0.1-0.4,0.2-0.5c0.1-0.1,0.3-0.2,0.5-0.2c0.2,0,0.4,0.1,0.5,0.2
		s0.2,0.3,0.2,0.5s-0.1,0.4-0.2,0.5c-0.1,0.1-0.3,0.2-0.5,0.2C431.8,232.7,431.6,232.7,431.4,232.5z M432.5,233.8v6.6h-1.1v-6.6
		H432.5z"/>
	<path fill="#363636" d="M439.5,234.4c0.5,0.5,0.7,1.2,0.7,2.1v3.9h-1.1v-3.7c0-0.7-0.2-1.2-0.5-1.5c-0.3-0.3-0.8-0.5-1.3-0.5
		c-0.6,0-1,0.2-1.4,0.5s-0.5,0.9-0.5,1.6v3.6h-1.1v-6.6h1.1v0.9c0.2-0.3,0.5-0.6,0.9-0.8s0.8-0.3,1.2-0.3
		C438.4,233.7,439,233.9,439.5,234.4z"/>
	<path fill="#363636" d="M442,235.3c0.3-0.5,0.6-0.9,1.1-1.2c0.5-0.3,1-0.4,1.6-0.4c0.6,0,1.1,0.1,1.5,0.4c0.4,0.2,0.7,0.6,0.9,0.9
		v-1.2h1.1v6.6h-1.1v-1.2c-0.2,0.4-0.5,0.7-1,1c-0.4,0.3-0.9,0.4-1.5,0.4c-0.6,0-1.1-0.1-1.6-0.4s-0.8-0.7-1.1-1.2
		c-0.3-0.5-0.4-1.1-0.4-1.8C441.6,236.4,441.8,235.8,442,235.3z M446.9,235.8c-0.2-0.4-0.5-0.7-0.8-0.8c-0.3-0.2-0.7-0.3-1.1-0.3
		c-0.4,0-0.8,0.1-1.1,0.3c-0.3,0.2-0.6,0.5-0.8,0.8c-0.2,0.4-0.3,0.8-0.3,1.3c0,0.5,0.1,0.9,0.3,1.3c0.2,0.4,0.5,0.7,0.8,0.9
		c0.3,0.2,0.7,0.3,1.1,0.3c0.4,0,0.8-0.1,1.1-0.3c0.3-0.2,0.6-0.5,0.8-0.9s0.3-0.8,0.3-1.3S447.1,236.1,446.9,235.8z"/>
	<path fill="#363636" d="M452.2,234.1c0.4-0.2,0.9-0.4,1.5-0.4c0.6,0,1.1,0.1,1.6,0.4c0.5,0.3,0.8,0.7,1.1,1.2
		c0.3,0.5,0.4,1.1,0.4,1.8c0,0.7-0.1,1.3-0.4,1.8c-0.3,0.5-0.6,0.9-1.1,1.2c-0.5,0.3-1,0.4-1.6,0.4c-0.6,0-1.1-0.1-1.5-0.4
		s-0.8-0.6-1-0.9v1.2h-1.1v-8.9h1.1v3.5C451.5,234.6,451.8,234.3,452.2,234.1z M455.4,235.8c-0.2-0.4-0.5-0.6-0.8-0.8
		c-0.3-0.2-0.7-0.3-1.1-0.3c-0.4,0-0.8,0.1-1.1,0.3c-0.3,0.2-0.6,0.5-0.8,0.9c-0.2,0.4-0.3,0.8-0.3,1.3c0,0.5,0.1,0.9,0.3,1.3
		c0.2,0.4,0.5,0.7,0.8,0.9c0.3,0.2,0.7,0.3,1.1,0.3c0.4,0,0.8-0.1,1.1-0.3c0.3-0.2,0.6-0.5,0.8-0.9s0.3-0.8,0.3-1.3
		C455.7,236.6,455.6,236.1,455.4,235.8z"/>
	<path fill="#363636" d="M458.3,232.5c-0.1-0.1-0.2-0.3-0.2-0.5s0.1-0.4,0.2-0.5c0.1-0.1,0.3-0.2,0.5-0.2c0.2,0,0.4,0.1,0.5,0.2
		s0.2,0.3,0.2,0.5s-0.1,0.4-0.2,0.5c-0.1,0.1-0.3,0.2-0.5,0.2C458.6,232.7,458.4,232.7,458.3,232.5z M459.3,233.8v6.6h-1.1v-6.6
		H459.3z"/>
	<path fill="#363636" d="M462.3,231.5v8.9h-1.1v-8.9H462.3z"/>
	<path fill="#363636" d="M464.2,232.5c-0.1-0.1-0.2-0.3-0.2-0.5s0.1-0.4,0.2-0.5c0.1-0.1,0.3-0.2,0.5-0.2c0.2,0,0.4,0.1,0.5,0.2
		c0.1,0.1,0.2,0.3,0.2,0.5s-0.1,0.4-0.2,0.5c-0.1,0.1-0.3,0.2-0.5,0.2C464.5,232.7,464.3,232.7,464.2,232.5z M465.2,233.8v6.6h-1.1
		v-6.6H465.2z"/>
	<path fill="#363636" d="M468.4,234.7v3.9c0,0.3,0.1,0.5,0.2,0.7s0.4,0.2,0.7,0.2h0.8v0.9h-1c-0.6,0-1.1-0.1-1.4-0.4
		s-0.5-0.7-0.5-1.4v-3.9h-0.9v-0.9h0.9v-1.7h1.1v1.7h1.7v0.9H468.4z"/>
	<path fill="#363636" d="M477.1,233.8l-4,9.7h-1.1l1.3-3.2l-2.7-6.5h1.2l2.1,5.3l2-5.3H477.1z"/>
</g>
<g>
	<line fill="none" stroke="#363636" stroke-miterlimit="10" x1="372.7" y1="128.7" x2="46.8" y2="128.7"/>
	<polyline fill="none" stroke="#363636" stroke-miterlimit="10" points="368.6,124.6 372.7,128.7 368.6,132.9 	"/>
</g>
<g>
	<path fill="#363636" d="M52.6,43.7c0.8,0.4,1.4,1,1.8,1.7S55,47,55,48c0,1-0.2,1.8-0.6,2.6s-1,1.3-1.8,1.7s-1.7,0.6-2.7,0.6h-3.4
		v-9.8h3.4C50.9,43.1,51.8,43.3,52.6,43.7z M52.2,50.3C52.8,49.8,53,49,53,48s-0.3-1.8-0.8-2.4s-1.4-0.9-2.4-0.9h-1.4v6.5h1.4
		C50.9,51.2,51.6,50.9,52.2,50.3z"/>
	<path fill="#363636" d="M56.6,43.8c-0.2-0.2-0.3-0.5-0.3-0.8c0-0.3,0.1-0.6,0.3-0.8c0.2-0.2,0.5-0.3,0.9-0.3s0.6,0.1,0.9,0.3
		c0.2,0.2,0.3,0.5,0.3,0.8c0,0.3-0.1,0.6-0.3,0.8c-0.2,0.2-0.5,0.3-0.9,0.3S56.9,44,56.6,43.8z M58.5,45.1v7.8h-2v-7.8H58.5z"/>
	<path fill="#363636" d="M61.7,52.6c-0.5-0.2-0.9-0.5-1.2-0.9c-0.3-0.4-0.5-0.8-0.5-1.3h2c0,0.3,0.2,0.5,0.4,0.7s0.6,0.3,1,0.3
		c0.4,0,0.7-0.1,0.9-0.2s0.3-0.3,0.3-0.6c0-0.3-0.1-0.4-0.4-0.6c-0.3-0.1-0.7-0.3-1.2-0.4c-0.6-0.1-1.1-0.3-1.4-0.4
		c-0.4-0.1-0.7-0.4-1-0.7c-0.3-0.3-0.4-0.7-0.4-1.2c0-0.4,0.1-0.8,0.4-1.2c0.2-0.4,0.6-0.6,1.1-0.8c0.5-0.2,1-0.3,1.6-0.3
		c0.9,0,1.7,0.2,2.2,0.7c0.6,0.5,0.9,1.1,0.9,1.9h-1.9c0-0.3-0.2-0.6-0.4-0.7c-0.2-0.2-0.5-0.3-0.9-0.3c-0.4,0-0.6,0.1-0.8,0.2
		s-0.3,0.3-0.3,0.5c0,0.3,0.1,0.5,0.4,0.6c0.3,0.1,0.7,0.3,1.2,0.4c0.6,0.1,1,0.3,1.4,0.4c0.4,0.1,0.7,0.4,0.9,0.7
		c0.3,0.3,0.4,0.7,0.4,1.2c0,0.4-0.1,0.8-0.4,1.2c-0.2,0.4-0.6,0.6-1.1,0.8c-0.5,0.2-1,0.3-1.6,0.3C62.7,52.9,62.2,52.8,61.7,52.6z"
		/>
	<path fill="#363636" d="M68,46.8c0.3-0.6,0.8-1.1,1.4-1.4c0.6-0.3,1.2-0.5,2-0.5c1,0,1.8,0.2,2.4,0.7s1.1,1.2,1.3,2h-2.1
		c-0.1-0.3-0.3-0.6-0.6-0.8s-0.6-0.3-1-0.3c-0.6,0-1,0.2-1.3,0.6c-0.3,0.4-0.5,1-0.5,1.7c0,0.7,0.2,1.3,0.5,1.7
		c0.3,0.4,0.8,0.6,1.3,0.6c0.8,0,1.3-0.4,1.6-1.1H75c-0.2,0.8-0.6,1.5-1.3,2c-0.6,0.5-1.4,0.7-2.4,0.7c-0.7,0-1.4-0.2-2-0.5
		c-0.6-0.3-1-0.8-1.4-1.4c-0.3-0.6-0.5-1.3-0.5-2.1S67.7,47.4,68,46.8z"/>
	<path fill="#363636" d="M77.9,52.5c-0.6-0.3-1.1-0.8-1.4-1.4c-0.3-0.6-0.5-1.3-0.5-2.1s0.2-1.5,0.5-2.1c0.4-0.6,0.8-1.1,1.4-1.4
		c0.6-0.3,1.3-0.5,2-0.5s1.4,0.2,2,0.5c0.6,0.3,1.1,0.8,1.4,1.4c0.3,0.6,0.5,1.3,0.5,2.1s-0.2,1.5-0.5,2.1c-0.4,0.6-0.8,1.1-1.5,1.4
		s-1.3,0.5-2.1,0.5C79.2,52.9,78.5,52.8,77.9,52.5z M80.9,51c0.3-0.2,0.6-0.4,0.7-0.8c0.2-0.3,0.3-0.8,0.3-1.3
		c0-0.7-0.2-1.3-0.6-1.7s-0.9-0.6-1.4-0.6s-1,0.2-1.4,0.6c-0.4,0.4-0.6,1-0.6,1.7s0.2,1.3,0.6,1.7c0.4,0.4,0.8,0.6,1.4,0.6
		C80.3,51.2,80.6,51.2,80.9,51z"/>
	<path fill="#363636" d="M88.6,51l2-6h2.1l-2.9,7.8h-2.4l-2.9-7.8h2.1L88.6,51z"/>
	<path fill="#363636" d="M100.9,49.5h-5.7c0,0.6,0.2,1,0.6,1.3c0.3,0.3,0.8,0.5,1.3,0.5c0.7,0,1.2-0.3,1.6-0.9h2.1
		c-0.2,0.7-0.7,1.4-1.3,1.8s-1.4,0.7-2.3,0.7c-0.7,0-1.4-0.2-2-0.5c-0.6-0.3-1.1-0.8-1.4-1.4c-0.3-0.6-0.5-1.3-0.5-2.1
		c0-0.8,0.2-1.5,0.5-2.1c0.3-0.6,0.8-1.1,1.4-1.4c0.6-0.3,1.3-0.5,2-0.5c0.7,0,1.4,0.2,2,0.5c0.6,0.3,1,0.8,1.4,1.4
		c0.3,0.6,0.5,1.3,0.5,2C101,49.1,101,49.3,100.9,49.5z M99,48.2c0-0.5-0.2-0.9-0.5-1.2c-0.4-0.3-0.8-0.5-1.3-0.5
		c-0.5,0-0.9,0.1-1.2,0.4c-0.3,0.3-0.5,0.7-0.6,1.2H99z"/>
	<path fill="#363636" d="M105.4,45.3c0.4-0.2,0.9-0.4,1.4-0.4V47h-0.5c-0.6,0-1.1,0.1-1.4,0.4c-0.3,0.3-0.5,0.8-0.5,1.5v3.9h-2v-7.8
		h2v1.2C104.6,45.9,105,45.5,105.4,45.3z"/>
	<path fill="#363636" d="M115.5,45.1l-4.8,11.4h-2.1l1.7-3.9l-3.1-7.6h2.2l2,5.4l2-5.4H115.5z"/>
</g>
<g>
	<path fill="#363636" d="M52.6,232.3c0.8,0.4,1.4,1,1.8,1.7s0.6,1.6,0.6,2.6c0,1-0.2,1.8-0.6,2.6s-1,1.3-1.8,1.7s-1.7,0.6-2.7,0.6
		h-3.4v-9.8h3.4C50.9,231.7,51.8,231.9,52.6,232.3z M52.2,239c0.6-0.6,0.8-1.3,0.8-2.4s-0.3-1.8-0.8-2.4s-1.4-0.9-2.4-0.9h-1.4v6.5
		h1.4C50.9,239.8,51.6,239.5,52.2,239z"/>
	<path fill="#363636" d="M63.7,238.2H58c0,0.6,0.2,1,0.6,1.3c0.3,0.3,0.8,0.5,1.3,0.5c0.7,0,1.2-0.3,1.6-0.9h2.1
		c-0.2,0.7-0.7,1.4-1.3,1.8s-1.4,0.7-2.3,0.7c-0.7,0-1.4-0.2-2-0.5c-0.6-0.3-1.1-0.8-1.4-1.4c-0.3-0.6-0.5-1.3-0.5-2.1
		c0-0.8,0.2-1.5,0.5-2.1c0.3-0.6,0.8-1.1,1.4-1.4c0.6-0.3,1.3-0.5,2-0.5c0.7,0,1.4,0.2,2,0.5c0.6,0.3,1,0.8,1.4,1.4
		c0.3,0.6,0.5,1.3,0.5,2C63.7,237.7,63.7,238,63.7,238.2z M61.7,236.9c0-0.5-0.2-0.9-0.5-1.2c-0.4-0.3-0.8-0.5-1.3-0.5
		c-0.5,0-0.9,0.1-1.2,0.4c-0.3,0.3-0.5,0.7-0.6,1.2H61.7z"/>
	<path fill="#363636" d="M67.1,231.1v10.4h-2v-10.4H67.1z"/>
	<path fill="#363636" d="M69.2,232.5c-0.2-0.2-0.3-0.5-0.3-0.8c0-0.3,0.1-0.6,0.3-0.8c0.2-0.2,0.5-0.3,0.9-0.3s0.6,0.1,0.9,0.3
		c0.2,0.2,0.3,0.5,0.3,0.8c0,0.3-0.1,0.6-0.3,0.8c-0.2,0.2-0.5,0.3-0.9,0.3S69.4,232.7,69.2,232.5z M71,233.7v7.8h-2v-7.8H71z"/>
	<path fill="#363636" d="M76.2,239.7l2-6h2.1l-2.9,7.8H75l-2.9-7.8h2.1L76.2,239.7z"/>
	<path fill="#363636" d="M88.5,238.2h-5.7c0,0.6,0.2,1,0.6,1.3c0.3,0.3,0.8,0.5,1.3,0.5c0.7,0,1.2-0.3,1.6-0.9h2.1
		c-0.2,0.7-0.7,1.4-1.3,1.8s-1.4,0.7-2.3,0.7c-0.7,0-1.4-0.2-2-0.5c-0.6-0.3-1.1-0.8-1.4-1.4c-0.3-0.6-0.5-1.3-0.5-2.1
		c0-0.8,0.2-1.5,0.5-2.1c0.3-0.6,0.8-1.1,1.4-1.4c0.6-0.3,1.3-0.5,2-0.5c0.7,0,1.4,0.2,2,0.5c0.6,0.3,1,0.8,1.4,1.4
		c0.3,0.6,0.5,1.3,0.5,2C88.5,237.7,88.5,238,88.5,238.2z M86.5,236.9c0-0.5-0.2-0.9-0.5-1.2c-0.4-0.3-0.8-0.5-1.3-0.5
		c-0.5,0-0.9,0.1-1.2,0.4c-0.3,0.3-0.5,0.7-0.6,1.2H86.5z"/>
	<path fill="#363636" d="M92.9,234c0.4-0.2,0.9-0.4,1.4-0.4v2.1h-0.5c-0.6,0-1.1,0.1-1.4,0.4c-0.3,0.3-0.5,0.8-0.5,1.5v3.9h-2v-7.8
		h2v1.2C92.2,234.5,92.5,234.2,92.9,234z"/>
	<path fill="#363636" d="M103,233.7l-4.8,11.4h-2.1l1.7-3.9l-3.1-7.6h2.2l2,5.4l2-5.4H103z"/>
</g>
<g>
	<polyline fill="none" stroke="#363636" stroke-miterlimit="10" points="152.7,151.3 148.5,155.4 144.4,151.3 	"/>
	<path fill="none" stroke="#363636" stroke-miterlimit="10" d="M121.8,128.7c14.7,0,26.7,12,26.7,26.7"/>
</g>
<g>
	<polyline fill="none" stroke="#363636" stroke-miterlimit="10" points="233.8,151.3 229.7,155.4 225.5,151.3 	"/>
	<path fill="none" stroke="#363636" stroke-miterlimit="10" d="M203,128.7c14.7,0,26.7,12,26.7,26.7"/>
</g>
<g>
	<polyline fill="none" stroke="#363636" stroke-miterlimit="10" points="314.9,151.3 310.8,155.4 306.7,151.3 	"/>
	<path fill="none" stroke="#363636" stroke-miterlimit="10" d="M284.1,128.7c14.7,0,26.7,12,26.7,26.7"/>
</g>
<g id="_x38_klGPX_00000181802271940812130650000004490667812945193621_">
	<path fill="#7500D4" d="M62.5,95.2c-2.6,0-5.2,0-7.9,0c-2.6-0.1-5.1-0.8-7.3-2.1c-0.5-0.3-0.6-0.7-0.4-1.2c0.2-0.4,0.7-0.5,1.2-0.3
		c1.6,0.9,3.3,1.5,5.2,1.8c0.6,0.1,1.2,0.1,1.8,0.1c5,0,10,0,15,0c2.4,0,4.6-0.6,6.7-1.8c0.1-0.1,0.2-0.1,0.4-0.2
		c0.5-0.2,0.9-0.1,1.1,0.3c0.2,0.4,0.1,0.9-0.3,1.1c-0.7,0.4-1.4,0.7-2.1,1c-2.1,0.9-4.3,1.2-6.5,1.2C67,95.2,64.7,95.2,62.5,95.2
		C62.5,95.2,62.5,95.2,62.5,95.2z"/>
	<path fill="#7500D4" d="M74.6,99.4c0,1.6-1.3,2.9-2.9,2.9c-1.6,0-2.9-1.4-2.9-2.9c0-1.5,1.4-2.8,2.9-2.8
		C73.3,96.5,74.6,97.8,74.6,99.4z M72.9,99.4c0-0.7-0.5-1.3-1.2-1.3c-0.7,0-1.2,0.6-1.2,1.2c0,0.6,0.5,1.2,1.2,1.2
		C72.4,100.6,72.9,100.1,72.9,99.4z"/>
	<path fill="#7500D4" d="M53.6,102.2c-1.4,0.1-2.9-1.1-3-2.5c-0.1-1.8,1-3.1,2.8-3.2c1.4-0.1,2.8,1,3,2.7
		C56.5,100.8,55.2,102.2,53.6,102.2z M54.7,99.4c0-0.7-0.6-1.3-1.2-1.3c-0.7,0-1.2,0.5-1.2,1.2c0,0.7,0.5,1.2,1.2,1.3
		C54.1,100.6,54.7,100,54.7,99.4z"/>
</g>
<g id="_x33_Rdq8D_00000031194397928474965270000011751578496160568730_">
	<g>
		<path fill="#7500D4" d="M151.3,88.6c1-1.7,2-3.3,3-5c0-0.1,0.1-0.2,0.1-0.3c0-1.3,0-2.6,0-3.9c-0.9,0-1.8,0-2.6,0
			c-0.7,0-1.1-0.4-1.1-1c0-0.5,0.2-0.9,0.7-1c0.2-0.1,0.4-0.1,0.7-0.1c2.6,0,5.3,0,7.9,0c0.3,0,0.5,0,0.8,0.1
			c0.4,0.1,0.7,0.7,0.6,1.2c-0.1,0.5-0.4,0.8-1,0.9c-1,0-2,0-3.1,0c-0.2,0-0.4,0-0.7,0c0,1.1,0,2.1,0,3.2c4.6,0,9.2,0,13.9,0
			c0-0.2,0-0.4,0-0.6c0-1.2,0-2.3,0-3.5c0-0.8,0.4-1.2,1.1-1.2c2,0,4,0,6.1,0.1c1.8,0.1,3.2,1.8,3.2,3.7c0,1.8-1.4,3.4-3.2,3.7
			c-0.3,0-0.6,0.1-0.8,0c-0.5-0.1-0.8-0.5-0.8-1.1c0-0.5,0.3-0.9,0.8-1c0.1,0,0.3,0,0.4-0.1c0.9-0.2,1.4-0.9,1.3-1.8
			c-0.1-0.8-0.7-1.4-1.6-1.4c-1.5,0-2.9,0-4.4,0c0,3.1-0.2,6.2,0.8,9.2c1.3-0.4,2.6-0.7,4-0.5c4.6,0.7,7.5,5.3,6.1,9.7
			c-1,3.3-4.2,5.4-7.4,5.2c-3.8-0.2-6.7-2.8-7.2-6.4c-0.4-2.5,0.4-4.7,2.2-6.5c0.2-0.2,0.3-0.4,0.2-0.7c-0.2-0.7-0.4-1.4-0.6-2.2
			c-0.3,0.5-0.5,0.9-0.8,1.3c-1.4,2.5-2.9,4.9-4.3,7.4c-0.3,0.6-0.8,0.8-1.4,0.8c-2.6,0-5.2,0-7.8,0c-0.4,0-0.6,0.1-0.7,0.5
			c-0.8,3.4-3.7,5.9-7.3,5.9c-3,0-5.3-1.4-6.6-4c-1.5-2.8-1.2-5.6,0.7-8.1c1.9-2.5,5-3.5,8.1-2.6C150.8,88.5,151,88.5,151.3,88.6z
			 M152,91.7c-0.1,0.2-0.2,0.3-0.3,0.5c-0.8,1.3-1.5,2.6-2.3,3.8c-0.2,0.3-0.5,0.7-0.8,0.7c-0.3,0-0.8-0.1-1.1-0.4
			c-0.3-0.3-0.3-0.8,0-1.3c0.8-1.3,1.6-2.6,2.3-3.9c0.1-0.2,0.2-0.3,0.3-0.5c-2.7-0.9-5.4,0.3-6.6,2.9c-1.1,2.4-0.1,5.5,2.2,6.8
			c2.4,1.4,5.5,0.7,7.2-1.6C154.4,96.5,154,93.4,152,91.7z M172.4,92c-1.9,2.1-1.9,5.2,0,7.2c1.8,2,5.1,2.2,7.2,0.6
			c2.2-1.8,2.7-4.9,1.2-7.3c-1.4-2.1-4.5-3-6.6-1.8c0.6,1.4,1.5,2.7,2.6,3.7c0.2,0.2,0.5,0.5,0.6,0.8c0.2,0.5,0,0.9-0.5,1.2
			c-0.4,0.3-1,0.1-1.4-0.3C174.2,95,173.2,93.7,172.4,92z M157.6,84.9c2.3,3,4.5,5.8,6.8,8.8c1.8-3,3.5-5.8,5.2-8.8
			C165.6,84.9,161.7,84.9,157.6,84.9z M162.3,94.5c-2.3-3-4.5-5.9-6.8-8.8c-0.8,1.4-1.6,2.7-2.4,4c1.5,1.3,2.4,2.8,2.7,4.8
			C158,94.5,160.1,94.5,162.3,94.5z"/>
	</g>
</g>
<g id="_x36_au3nq_00000043443737758714743620000010074589795023589800_">
	<g>
		<path fill="#7500D4" d="M122.9,95c-1.6,0.4-2.8,1.2-3.5,2.6c-0.4,0.7-0.6,1.5-0.6,2.3c0,0.7-0.4,1.1-1.1,1.1c-5.7,0-11.4,0-17,0
			c-0.1,0-0.3,0-0.4,0c-0.3,0.8-0.8,1.4-1.6,1.7c-2,0.9-4.1-0.5-4.3-2.5c-0.2-2.3,2-4,4.2-3.1c0.7,0.3,1.3,0.8,1.6,1.5
			c0.1,0.2,0.2,0.3,0.4,0.3c0.6,0,1.2,0,1.8,0c-0.3-1.3-1-2.4-2-3.1c-1.4-1-3-1.2-4.6-0.7c-0.6,0.2-1.2,0-1.4-0.6
			c-0.2-0.6,0.1-1.2,0.7-1.4c3.4-1.2,7.3,0.5,8.8,3.7c0.1,0.3,0.3,0.6,0.4,1c0.1,0.3,0.2,0.7,0.2,1c4.1,0,8.2,0,12.4,0
			c0.7-3.3,2.7-5.3,6.1-6.1c0-0.7,0-1.4,0-2.1c-0.3,0-0.6,0-0.9,0c-0.6,0-1.1-0.5-1.1-1c0-0.6,0.4-1,1.1-1c0.3,0,0.6,0,1,0
			c0-0.2,0-0.3,0-0.4c0-1.8,0-3.7,0-5.5c0-1.4-0.8-2.2-2.2-2.2c-1,0-1.9,0-2.9,0c-0.8,0-1.3-0.8-0.9-1.5c0.2-0.3,0.5-0.5,0.9-0.5
			c1.2,0,2.3,0,3.5,0c2,0.1,3.7,1.9,3.7,3.9c0,2.7,0,5.3,0,8c0,2.1,0,4.2,0,6.3c0,0.3,0.1,0.4,0.3,0.6c0.9,0.4,1.4,1.1,1.6,2
			c0.4,1.4-0.5,3.1-1.9,3.6c-1.3,0.5-2.7,0-3.5-0.9c-1.2-1.4-0.7-3.8,1-4.6c0.3-0.2,0.4-0.3,0.4-0.7C122.9,96.2,122.9,95.6,122.9,95
			z M98.4,100c0-0.6-0.4-1-1-1c-0.6,0-1,0.5-1,1c0,0.5,0.5,1,1,1C98,101.1,98.4,100.6,98.4,100z M124,99c-0.6,0-1,0.4-1,1
			c0,0.6,0.4,1,1,1c0.6,0,1-0.5,1-1C125,99.5,124.5,99,124,99z"/>
	</g>
</g>
<g id="rW6oU4_00000024687695465494136350000015547847592590340018_">
	<g>
		<path fill="#7500D4" d="M212.7,90.1c-0.5-0.9-1.1-1.7-1.5-2.6c-0.5-1-1.2-1.7-2.4-2.1c-1.1-0.3-2.2-1-3.3-1.5
			c-1.4-0.7-2.8-1.1-4.3-0.8c-0.7,0.1-1.2-0.3-1.3-0.9c-0.1-0.6,0.3-1.1,1-1.3c1.6-0.4,3.1-0.2,4.5,0.4c1,0.4,2,0.9,3,1.4
			c1.4,0.7,2.9,1.2,4.5,0.8c2.1-0.5,4.3-0.7,6.3-1.7c0.4-0.2,0.8-0.4,1.1-0.8c2.1-2.4,4.9-3.3,8-3.4c0.7,0,1.5-0.1,2.3-0.1
			c-0.2-0.6-0.4-1.1-0.5-1.7c-0.3-0.9-0.6-1.8-0.8-2.7c-0.1-0.4-0.3-0.5-0.7-0.5c-2.1,0-4.1,0-6.2,0c-0.8,0-1.3-0.3-1.4-0.9
			c-0.1-0.7,0.3-1.3,1-1.3c2.6,0,5.2,0,7.8,0c0.6,0,1,0.5,1.2,1c0.6,1.8,1.1,3.6,1.7,5.4c0,0.1,0.1,0.2,0.1,0.4
			c1.3-0.3,2.5-0.7,3.7-1c0.2-0.1,0.5-0.1,0.7-0.2c0.6-0.1,1.1,0.1,1.4,0.7c1.4,2.3,1.4,4.5,0,6.8c-0.4,0.6-0.8,0.8-1.5,0.7
			c-0.9-0.1-1.8-0.3-2.7-0.4c-0.4,1.1-0.8,2.1-1.2,3.1c-0.1,0.2-0.2,0.3-0.3,0.5c-0.7,1.2-0.7,1.2,0.1,2.2c1-0.1,1.9-0.3,2.8-0.2
			c3.2,0.2,5.8,2.7,6.2,5.8c0.3,3.3-1.6,6.3-4.8,7.2c-2.9,0.8-6-0.4-7.6-3c-1.5-2.6-1.1-5.9,1-8.1c0.5-0.6,0.5-0.6,0-1.2
			c-1,0.6-2,1.1-2.9,1.7c-0.1,0.1-0.2,0.3-0.3,0.5c-0.5,2.2-1.9,3.7-3.8,4.8c-0.2,0.1-0.4,0.1-0.7,0.1c-3.3,0-6.5,0-9.8,0
			c-0.3,0-0.8-0.2-1-0.4c-0.2-0.3-0.2-0.7-0.2-1.1c0.1-0.5,0.5-0.7,1-0.7c0.8,0,1.6,0,2.5,0c-0.6-0.9-1-1.8-1.6-2.6
			c-0.1-0.1-0.2-0.1-0.3-0.1c-1.3,0-2.6,0-3.8,0c0.3,0.9,0.7,1.9,0.9,2.8c0.6,3.5-1.8,6.9-5.3,7.5c-3.6,0.7-7.1-1.6-7.8-5.2
			c-0.5-2.6,0.2-4.9,2.3-6.6c2-1.6,4.3-1.9,6.7-1c0.2,0.1,0.5,0.2,0.7,0.2c1.6,0,3.2,0,4.8,0C212.4,90.2,212.5,90.2,212.7,90.1z
			 M212.8,86c0.7,1.2,1.5,2.5,2.2,3.7c0.2,0.3,0.4,0.5,0.8,0.5c3.3,0,6.6,0,10,0c0.2,0,0.4,0,0.6-0.1c3-1.2,5.1-3.2,5.8-6.5
			c0.2-1.2,0.1-2.2-0.4-3.3c-0.1-0.3-0.3-0.4-0.6-0.4c-1.4,0.1-2.9,0.1-4.3,0.3c-1.7,0.2-3.3,0.8-4.5,2.1c-0.3,0.3-0.6,0.6-0.9,0.8
			c-1.3,1.1-2.9,1.6-4.5,2C215.6,85.5,214.2,85.7,212.8,86z M208.7,96.2c0-2.5-2-4.5-4.5-4.5c-2.4,0-4.4,2-4.4,4.5
			c0,2.5,2,4.4,4.5,4.4C206.7,100.6,208.7,98.6,208.7,96.2z M232.3,93c-1.6,1.5-1.8,4-0.4,5.8c1.4,1.8,4,2.3,5.9,1.1
			c1.9-1.2,2.6-3.7,1.6-5.7c-1-1.9-3.3-3-5.1-2.3c0.1,0.2,0.2,0.3,0.3,0.5c0.6,1.1,1.2,2.1,1.8,3.2c0.3,0.5,0.2,0.9-0.1,1.3
			c-0.3,0.4-0.8,0.5-1.2,0.3c-0.3-0.1-0.5-0.4-0.7-0.6C233.7,95.4,233,94.3,232.3,93z M216.7,92.4c0.5,0.8,0.9,1.5,1.3,2.2
			c0.2,0.3,0.4,0.4,0.8,0.4c1.1,0,2.2-0.1,3.3,0c0.7,0,1.2-0.2,1.7-0.6c0.4-0.5,0.8-1,1.2-1.5c0.1-0.1,0.1-0.4,0.2-0.6
			C222.3,92.4,219.6,92.4,216.7,92.4z M237.1,78.6c-0.6,0.2-1.1,0.3-1.6,0.5c-0.5,0.1-1.1,0.3-1.6,0.4c0.2,0.7,0.2,1.6,0.6,2
			c0.4,0.4,1.3,0.3,2,0.5c0.1,0,0.2,0,0.2,0c0.1-0.1,0.4-0.1,0.4-0.2C237.7,80.7,237.7,79.7,237.1,78.6z"/>
		<path fill="#7500D4" d="M204.3,95.1c0.6,0,1.1,0.5,1.1,1.1c0,0.6-0.5,1.1-1.1,1.1c-0.6,0-1.1-0.5-1.1-1.1
			C203.2,95.6,203.7,95.1,204.3,95.1z"/>
	</g>
</g>
<g id="blB05Y_00000158726681805508169920000008405902126668227732_">
	<g>
		<path fill="#7500D4" d="M312.2,97c-0.9,3.2-3.3,5.2-6.4,5.3c-2.6,0.1-5.7-1.5-6.6-5.2c-7.1,0-14.2,0-21.4,0
			c-0.4,1.8-1.3,3.4-2.9,4.5c-1.3,0.9-2.7,1.2-4.3,1.1c-2.2-0.2-5.2-1.6-6-5.6c-0.7-0.1-1.5-0.1-2.2-0.2c-1.8-0.3-3.1-1.8-3.2-3.6
			c-0.1-2.8-0.1-5.6,0-8.4c0-2,1.6-3.7,3.6-3.7c3.8-0.1,7.5,0,11.3-0.1c0.3,0,0.6,0,0.9,0c0-0.9,0-1.7,0-2.5c0-1.3,0-2.5,0-3.8
			c0-1.2,0.5-1.7,1.7-1.7c1.5,0,3.1,0,4.6,0c1.1,0,1.4,0.3,1.8,1.3c0.7,2,1.3,4.1,2,6.1c0.1,0.3,0.2,0.6,0.7,0.6c3.7,0,7.5,0,11.2,0
			c0.1,0,0.3,0,0.5-0.1c-0.3-0.4-0.6-0.8-0.9-1.2c-1.7-2.2-3.4-4.5-5-6.7c-0.2-0.2-0.3-0.5-0.5-0.7c-0.3-0.6-0.2-1.2,0.3-1.6
			c0.5-0.4,1.2-0.4,1.7,0c0.2,0.2,0.4,0.4,0.6,0.6c2.3,3,4.6,6.1,6.8,9.1c0.3,0.4,0.6,0.5,1,0.5c2.4,0,4.9-0.1,7.3,0.1
			c4.7,0.2,8.5,4.2,8.6,9c0,0.9,0,1.8,0,2.7c0,2.5-1.7,4.1-4.2,4.2C313,97,312.6,97,312.2,97z M312.2,94.3c0.4,0,0.7,0,1.1,0
			c1,0,1.5-0.5,1.5-1.4c0-1,0-2,0-3c-0.2-2.4-1.4-4.2-3.5-5.3c-1.1-0.6-2.3-0.8-3.6-0.8c-7.9,0-15.9,0-23.8,0c-6.7,0-13.4,0-20.1,0
			c-1.4,0-1.9,0.4-1.9,1.9c0,2.3,0,4.6,0,6.8c0,0.2,0,0.4,0,0.5c0,0.8,0.5,1.2,1.2,1.3c1.4,0.2,1.6,0.1,1.9-0.8
			c0.1-0.3,0.3-0.6,0.4-0.9c2-4.1,7.8-4.8,10.7-1.3c0.7,0.9,1.2,1.9,1.9,3c6.9,0,14,0,21.1,0c1.5-3.7,3.5-5.3,6.8-5.2
			C308.4,89.2,311.2,90.6,312.2,94.3z M301.7,95.7c0,2.2,1.8,4,3.9,4c2.2,0,4-1.8,3.9-4c0-2.1-1.8-3.9-3.9-3.9
			C303.4,91.7,301.7,93.5,301.7,95.7z M275.2,95.7c0-2.2-1.8-4-3.9-4c-2.2,0-3.9,1.7-4,3.9c0,2.2,1.7,4,3.9,4
			C273.3,99.7,275.1,97.9,275.2,95.7z M277.8,81.1c1.6,0,3.1,0,4.7,0c-0.6-1.7-1.1-3.4-1.7-5c0-0.1-0.2-0.2-0.3-0.2
			c-0.9,0-1.8,0-2.7,0C277.8,77.6,277.8,79.3,277.8,81.1z"/>
	</g>
</g>
<g id="_x35_nAnuK_00000142855541383026464760000006769456410246068360_">
	<g>
		<path fill="#7500D4" d="M340.1,192c-0.6,1-1,2.1-1.8,3c-1.7,2-4,2.8-6.6,2.3c-2.7-0.5-4.5-2.2-5.3-4.9c-0.1-0.4-0.2-0.5-0.6-0.5
			c-5.4,0-10.8,0-16.1,0c-0.1,0-0.2,0-0.3,0c-0.3,1.9-1.3,3.6-2.9,4.7c-1.3,0.9-2.6,1.3-4.2,1.2c-3.2-0.1-5.3-1.9-6.7-5.9
			c-2.2,0-4.4,0-6.5,0c-1.4,0-1.9-0.5-1.9-1.9c0-3.5,0-6.9,0-10.4c0-2.7,1.7-4.4,4.4-4.5c1.2,0,2.5,0,3.7,0c0.5,0,0.8-0.1,1-0.6
			c1.3-2.6,2.6-5.2,3.9-7.9c0.9-1.8,2.2-2.6,4.2-2.6c5.2,0,10.5,0,15.7,0c1.4,0,2.6,0.5,3.6,1.6c3.1,3.1,6.3,6.2,9.5,9.2
			c0.2,0.2,0.6,0.3,0.9,0.3c1.9,0,3.8,0,5.6,0c4.1,0.1,7.3,2.5,8.3,6.4c0.1,0.5,0.2,1,0.2,1.5c0,2.4,0,4.7,0,7.1
			c0,1.1-0.5,1.6-1.7,1.6c-2,0-3.9,0-5.9,0c-0.3,0-0.5,0-0.8,0C340,191.9,340.1,192,340.1,192z M345.5,189.1c0-1.8,0-3.5,0-5.2
			c0-3.5-2.3-5.9-5.9-5.9c-16,0-32,0-47.9,0c-1.3,0-1.8,0.5-1.8,1.8c0,2.9,0,5.8,0,8.7c0,0.2,0,0.4,0,0.6c1.9,0,3.8,0,5.8,0
			c0.1-0.2,0.1-0.4,0.2-0.5c0.9-3,3.6-5,6.7-5c3.1,0,5.7,1.9,6.6,4.9c0.2,0.5,0.4,0.6,0.9,0.6c5.2,0,10.4,0,15.6,0
			c0.5,0,0.7-0.2,0.9-0.7c0.9-2.7,2.8-4.4,5.6-4.8c2.7-0.4,4.9,0.5,6.5,2.7c0.6,0.8,1,1.8,1.5,2.7
			C341.8,189.1,343.6,189.1,345.5,189.1z M299.1,175.1c0.2,0,0.3,0.1,0.4,0.1c4,0,8.1,0,12.1,0c0.5,0,0.5-0.3,0.5-0.6
			c0-2.2,0-4.4,0-6.6c0-0.4,0-0.7,0-1.1c-0.3,0-0.5,0-0.7,0c-2.3,0-4.6,0-6.8,0c-0.9,0-1.5,0.4-1.9,1.2c-1,2.2-2.1,4.3-3.2,6.4
			C299.3,174.7,299.2,174.9,299.1,175.1z M314.9,166.9c0,2.8,0,5.5,0,8.3c4.8,0,9.6,0,14.4,0c0.1-0.1,0.1-0.1,0.2-0.2
			c-0.2-0.1-0.4-0.3-0.6-0.4c-2.5-2.4-4.9-4.8-7.4-7.2c-0.3-0.2-0.7-0.5-1-0.5C318.7,166.8,316.8,166.9,314.9,166.9z M306.5,190.5
			c0-2.3-1.9-4.1-4.2-4.1c-2.3,0-4.1,1.9-4.1,4.2c0,2.3,1.9,4.1,4.1,4.1C304.6,194.7,306.6,192.8,306.5,190.5z M333,186.3
			c-2.3,0-4.2,1.9-4.1,4.2c0,2.3,1.9,4.2,4.2,4.2c2.3,0,4.1-1.9,4.1-4.2C337.1,188.2,335.3,186.3,333,186.3z"/>
	</g>
</g>
<g id="_x35_nAnuK_00000161612411598907622640000008832063276676536734_">
	<g>
		<path fill="#7500D4" d="M255.6,175.2c1.9,0,3.8,0,5.6,0c4.1,0.1,7.3,2.5,8.3,6.4c0.1,0.5,0.2,1,0.2,1.5c0,2.4,0,4.7,0,7.1
			c0,1.1-0.5,1.6-1.7,1.6c-2,0-3.9,0-5.9,0c-0.3,0-0.5,0-0.8,0c0,0,0.1,0.1,0.1,0.1c-0.6,1-1,2.1-1.8,3c-1.7,2-4,2.8-6.6,2.3
			c-2.7-0.5-4.5-2.2-5.3-4.9c-0.1-0.4-0.2-0.5-0.6-0.5c-5.4,0-10.8,0-16.1,0c-0.1,0-0.2,0-0.3,0c-0.3,1.9-1.3,3.6-2.9,4.7
			c-1.3,0.9-2.6,1.3-4.2,1.2c-3.2-0.1-5.3-1.9-6.7-5.9c-2.2,0-4.4,0-6.5,0c-1.4,0-1.9-0.5-1.9-1.9c0-3.5,0-6.9,0-10.4
			c0-2.7,1.7-4.4,4.4-4.5c1.2,0,2.5,0,3.7,0 M266.9,189.1c0-1.8,0-3.5,0-5.2c0-3.5-2.3-5.9-5.9-5.9c-16,0-32,0-47.9,0
			c-1.3,0-1.8,0.5-1.8,1.8c0,2.9,0,5.8,0,8.7c0,0.2,0,0.4,0,0.6c1.9,0,3.8,0,5.8,0c0.1-0.2,0.1-0.4,0.2-0.5c0.9-3,3.6-5,6.7-5
			c3.1,0,5.7,1.9,6.6,4.9c0.2,0.5,0.4,0.6,0.9,0.6c5.2,0,10.4,0,15.6,0c0.5,0,0.7-0.2,0.9-0.7c0.9-2.7,2.8-4.4,5.6-4.8
			c2.7-0.4,4.9,0.5,6.5,2.7c0.6,0.8,1,1.8,1.5,2.7C263.2,189.1,265,189.1,266.9,189.1z M228,190.5c0-2.3-1.9-4.1-4.2-4.1
			c-2.3,0-4.1,1.9-4.1,4.2c0,2.3,1.9,4.1,4.1,4.1C226.1,194.7,228,192.8,228,190.5z M254.4,186.3c-2.3,0-4.2,1.9-4.1,4.2
			c0,2.3,1.9,4.2,4.2,4.2c2.3,0,4.1-1.9,4.1-4.2C258.6,188.2,256.7,186.3,254.4,186.3z"/>
	</g>
</g>
<g id="_x35_nAnuK_00000143591665463533586650000013271269279566009988_">
	<g>
		<path fill="#7500D4" d="M132.9,189.1c1.9,0,3.8,0,5.8,0c0.1-0.2,0.1-0.4,0.2-0.5c0.9-3,3.6-5,6.7-5c3.1,0,5.7,1.9,6.6,4.9
			c0.2,0.5,0.4,0.6,0.9,0.6c5.2,0,10.4,0,15.6,0c0.5,0,0.7-0.2,0.9-0.7c0.9-2.7,2.8-4.4,5.6-4.8c2.7-0.4,4.9,0.5,6.5,2.7
			c0.6,0.8,1,1.8,1.5,2.7c1.7,0,3.5,0,5.4,0c3.7,0,2.8,1.2,2.8,1.2c0,1.1-0.5,1.6-1.7,1.6c-2,0-3.9,0-5.9,0c-0.3,0-0.5,0-0.8,0
			c0,0,0.1,0.1,0.1,0.1c-0.6,1-1,2.1-1.8,3c-1.7,2-4,2.8-6.6,2.3c-2.7-0.5-4.5-2.2-5.3-4.9c-0.1-0.4-0.2-0.5-0.6-0.5
			c-5.4,0-10.8,0-16.1,0c-0.1,0-0.2,0-0.3,0c-0.3,1.9-1.3,3.6-2.9,4.7c-1.3,0.9-2.6,1.3-4.2,1.2c-3.2-0.1-5.3-1.9-6.7-5.9
			c-2.2,0-4.4,0-6.5,0c-1.4,0-1.9-0.5-1.9-1.9C130.1,190,130.2,189.1,132.9,189.1z M149.5,190.5c0-2.3-1.9-4.1-4.2-4.1
			c-2.3,0-4.1,1.9-4.1,4.2c0,2.3,1.9,4.1,4.1,4.1C147.6,194.7,149.5,192.8,149.5,190.5z M176,186.3c-2.3,0-4.2,1.9-4.1,4.2
			c0,2.3,1.9,4.2,4.2,4.2c2.3,0,4.1-1.9,4.1-4.2C180.1,188.2,178.2,186.3,176,186.3z"/>
	</g>
</g>
<g id="_x35_nAnuK_00000009573072686744124900000008382692128271009470_">
	<g>
		<path fill="#7500D4" d="M102.3,184.8c0.2-0.1,0.3-0.2,0.5-0.2c2.8-1.5,6-1,8.2,1.2c2.2,2.2,2.3,6.7,1.2,8.2s-1.3,1.7-2.3,2.6
			c-1.6,1.1-3.4,1.6-5.4,1.2c-1.5-0.3-2.8-1-3.8-2.1c-2.2-2.3-2.4-5.1-0.5-8.9C100.5,185.8,102.3,184.8,102.3,184.8z M109,193.5
			c1.6-1.6,1.6-4.3-0.1-5.9c-1.7-1.6-4.3-1.6-5.9,0.1c-1.6,1.6-1.6,4.2,0,5.8C104.6,195.1,107.4,195.1,109,193.5z"/>
	</g>
</g>
</svg>
