<?xml version="1.0" encoding="utf-8"?>
<!-- Generator: Adobe Illustrator 26.3.1, SVG Export Plug-In . SVG Version: 6.00 Build 0)  -->
<svg version="1.1" baseProfile="tiny" id="Layer_1" xmlns="http://www.w3.org/2000/svg" xmlns:xlink="http://www.w3.org/1999/xlink"
	 x="0px" y="0px" width="514.7px" height="284.4px" viewBox="0 0 514.7 284.4" overflow="visible" xml:space="preserve">
<path fill="#F2EDED" d="M498.7,284.4H16c-8.8,0-16-7.1-16-16V16C0,7.1,7.1,0,16,0h482.7c8.8,0,16,7.1,16,16v252.5
	C514.7,277.2,507.5,284.4,498.7,284.4z"/>
<g>
	<path fill="#363636" d="M90,60.9v5.2c0,0.6,0.1,1,0.4,1.3c0.3,0.3,0.7,0.4,1.2,0.4c0.5,0,1-0.1,1.3-0.4c0.3-0.3,0.4-0.7,0.4-1.3
		v-5.2h1.7V66c0,0.7-0.2,1.3-0.5,1.8c-0.3,0.5-0.7,0.9-1.2,1.1s-1.1,0.4-1.7,0.4c-0.6,0-1.2-0.1-1.7-0.4c-0.5-0.2-0.9-0.6-1.2-1.1
		c-0.3-0.5-0.4-1.1-0.4-1.8v-5.2H90z"/>
	<path fill="#363636" d="M102.4,63.3c0.5,0.5,0.7,1.2,0.7,2.1v3.9h-1.7v-3.7c0-0.5-0.1-0.9-0.4-1.2c-0.3-0.3-0.6-0.4-1.1-0.4
		c-0.5,0-0.8,0.1-1.1,0.4c-0.3,0.3-0.4,0.7-0.4,1.2v3.7h-1.7v-6.6h1.7v0.8c0.2-0.3,0.5-0.5,0.9-0.7c0.3-0.2,0.7-0.2,1.1-0.2
		C101.2,62.5,101.9,62.8,102.4,63.3z"/>
	<path fill="#363636" d="M104.7,64.1c0.3-0.5,0.6-0.9,1.1-1.2s1-0.4,1.5-0.4c0.4,0,0.8,0.1,1.2,0.3c0.4,0.2,0.7,0.4,0.9,0.8v-3.2
		h1.7v8.9h-1.7v-1c-0.2,0.3-0.5,0.6-0.9,0.8c-0.4,0.2-0.8,0.3-1.3,0.3c-0.6,0-1.1-0.1-1.5-0.4s-0.8-0.7-1.1-1.2
		c-0.3-0.5-0.4-1.1-0.4-1.8C104.3,65.2,104.4,64.6,104.7,64.1z M109.2,64.9c-0.2-0.3-0.4-0.5-0.6-0.7c-0.3-0.2-0.6-0.2-0.9-0.2
		s-0.6,0.1-0.9,0.2c-0.3,0.2-0.5,0.4-0.6,0.7s-0.2,0.6-0.2,1c0,0.4,0.1,0.8,0.2,1s0.4,0.5,0.6,0.7c0.3,0.2,0.6,0.2,0.9,0.2
		c0.3,0,0.6-0.1,0.9-0.2c0.3-0.2,0.5-0.4,0.6-0.7c0.2-0.3,0.2-0.6,0.2-1S109.4,65.2,109.2,64.9z"/>
	<path fill="#363636" d="M119,66.4h-4.9c0,0.5,0.2,0.9,0.5,1.1c0.3,0.3,0.7,0.4,1.1,0.4c0.6,0,1.1-0.3,1.3-0.8h1.8
		c-0.2,0.6-0.6,1.2-1.1,1.6s-1.2,0.6-2,0.6c-0.6,0-1.2-0.1-1.7-0.4c-0.5-0.3-0.9-0.7-1.2-1.2c-0.3-0.5-0.4-1.1-0.4-1.8
		c0-0.7,0.1-1.3,0.4-1.8c0.3-0.5,0.7-0.9,1.2-1.2c0.5-0.3,1.1-0.4,1.7-0.4c0.6,0,1.2,0.1,1.7,0.4c0.5,0.3,0.9,0.7,1.2,1.2
		c0.3,0.5,0.4,1.1,0.4,1.7C119,66,119,66.2,119,66.4z M117.3,65.3c0-0.4-0.2-0.8-0.5-1c-0.3-0.3-0.7-0.4-1.1-0.4
		c-0.4,0-0.8,0.1-1.1,0.4c-0.3,0.3-0.5,0.6-0.5,1H117.3z"/>
	<path fill="#363636" d="M122.8,62.8c0.3-0.2,0.7-0.3,1.2-0.3v1.8h-0.4c-0.5,0-0.9,0.1-1.2,0.4c-0.3,0.2-0.4,0.7-0.4,1.3v3.3h-1.7
		v-6.6h1.7v1C122.1,63.3,122.4,63,122.8,62.8z"/>
	<path fill="#363636" d="M126.2,69.1c-0.4-0.2-0.8-0.5-1-0.8s-0.4-0.7-0.4-1.1h1.7c0,0.3,0.2,0.5,0.4,0.6c0.2,0.2,0.5,0.3,0.8,0.3
		c0.3,0,0.6-0.1,0.8-0.2c0.2-0.1,0.3-0.3,0.3-0.5c0-0.2-0.1-0.4-0.3-0.5c-0.2-0.1-0.6-0.2-1-0.4c-0.5-0.1-0.9-0.2-1.2-0.4
		c-0.3-0.1-0.6-0.3-0.8-0.6c-0.2-0.3-0.3-0.6-0.3-1.1c0-0.4,0.1-0.7,0.3-1c0.2-0.3,0.5-0.5,0.9-0.7s0.9-0.3,1.4-0.3
		c0.8,0,1.4,0.2,1.9,0.6c0.5,0.4,0.7,0.9,0.8,1.6h-1.6c0-0.3-0.1-0.5-0.3-0.6c-0.2-0.2-0.5-0.2-0.8-0.2c-0.3,0-0.5,0.1-0.7,0.2
		s-0.2,0.3-0.2,0.5c0,0.2,0.1,0.4,0.3,0.5c0.2,0.1,0.6,0.2,1,0.4c0.5,0.1,0.9,0.2,1.2,0.4s0.6,0.3,0.8,0.6c0.2,0.3,0.3,0.6,0.4,1.1
		c0,0.4-0.1,0.7-0.3,1c-0.2,0.3-0.5,0.5-0.9,0.7s-0.9,0.3-1.4,0.3C127.1,69.4,126.6,69.3,126.2,69.1z"/>
	<path fill="#363636" d="M133.6,64v3.2c0,0.2,0.1,0.4,0.2,0.5c0.1,0.1,0.3,0.2,0.5,0.2h0.8v1.4H134c-1.4,0-2.1-0.7-2.1-2.1V64h-0.8
		v-1.4h0.8V61h1.7v1.6h1.5V64H133.6z"/>
	<path fill="#363636" d="M136.2,64.1c0.3-0.5,0.6-0.9,1.1-1.2c0.5-0.3,1-0.4,1.5-0.4c0.5,0,0.9,0.1,1.3,0.3s0.7,0.5,0.9,0.8v-0.9
		h1.7v6.6h-1.7v-1c-0.2,0.3-0.5,0.6-0.9,0.8s-0.8,0.3-1.3,0.3c-0.6,0-1.1-0.1-1.5-0.4c-0.5-0.3-0.8-0.7-1.1-1.2
		c-0.3-0.5-0.4-1.1-0.4-1.8C135.8,65.2,136,64.6,136.2,64.1z M140.8,64.9c-0.2-0.3-0.4-0.5-0.6-0.7c-0.3-0.2-0.6-0.2-0.9-0.2
		s-0.6,0.1-0.9,0.2c-0.3,0.2-0.5,0.4-0.6,0.7s-0.2,0.6-0.2,1c0,0.4,0.1,0.8,0.2,1s0.4,0.5,0.6,0.7c0.3,0.2,0.6,0.2,0.9,0.2
		c0.3,0,0.6-0.1,0.9-0.2c0.3-0.2,0.5-0.4,0.6-0.7c0.2-0.3,0.2-0.6,0.2-1S141,65.2,140.8,64.9z"/>
	<path fill="#363636" d="M150,63.3c0.5,0.5,0.7,1.2,0.7,2.1v3.9h-1.7v-3.7c0-0.5-0.1-0.9-0.4-1.2c-0.3-0.3-0.6-0.4-1.1-0.4
		c-0.5,0-0.8,0.1-1.1,0.4c-0.3,0.3-0.4,0.7-0.4,1.2v3.7h-1.7v-6.6h1.7v0.8c0.2-0.3,0.5-0.5,0.9-0.7c0.3-0.2,0.7-0.2,1.1-0.2
		C148.9,62.5,149.5,62.8,150,63.3z"/>
	<path fill="#363636" d="M152.3,64.1c0.3-0.5,0.6-0.9,1.1-1.2s1-0.4,1.5-0.4c0.4,0,0.8,0.1,1.2,0.3c0.4,0.2,0.7,0.4,0.9,0.8v-3.2
		h1.7v8.9h-1.7v-1c-0.2,0.3-0.5,0.6-0.9,0.8c-0.4,0.2-0.8,0.3-1.3,0.3c-0.6,0-1.1-0.1-1.5-0.4s-0.8-0.7-1.1-1.2
		c-0.3-0.5-0.4-1.1-0.4-1.8C151.9,65.2,152,64.6,152.3,64.1z M156.9,64.9c-0.2-0.3-0.4-0.5-0.6-0.7c-0.3-0.2-0.6-0.2-0.9-0.2
		s-0.6,0.1-0.9,0.2c-0.3,0.2-0.5,0.4-0.6,0.7s-0.2,0.6-0.2,1c0,0.4,0.1,0.8,0.2,1s0.4,0.5,0.6,0.7c0.3,0.2,0.6,0.2,0.9,0.2
		c0.3,0,0.6-0.1,0.9-0.2c0.3-0.2,0.5-0.4,0.6-0.7c0.2-0.3,0.2-0.6,0.2-1S157.1,65.2,156.9,64.9z"/>
</g>
<g>
	<path fill="#363636" d="M237.5,37.4c0.4-0.7,0.9-1.2,1.5-1.5c0.6-0.4,1.4-0.5,2.2-0.5c0.9,0,1.8,0.2,2.5,0.7c0.7,0.5,1.2,1.1,1.5,2
		h-1.9c-0.2-0.4-0.5-0.7-0.8-0.9c-0.3-0.2-0.8-0.3-1.2-0.3c-0.5,0-0.9,0.1-1.3,0.3c-0.4,0.2-0.7,0.5-0.9,1s-0.3,0.9-0.3,1.5
		c0,0.6,0.1,1,0.3,1.5s0.5,0.7,0.9,1c0.4,0.2,0.8,0.3,1.3,0.3c0.5,0,0.9-0.1,1.2-0.3c0.3-0.2,0.6-0.5,0.8-0.9h1.9
		c-0.3,0.9-0.8,1.5-1.5,2c-0.7,0.5-1.5,0.7-2.5,0.7c-0.8,0-1.5-0.2-2.2-0.5c-0.6-0.4-1.2-0.9-1.5-1.5c-0.4-0.6-0.6-1.4-0.6-2.2
		C236.9,38.8,237.1,38,237.5,37.4z"/>
	<path fill="#363636" d="M249.1,37.3c0.3-0.2,0.7-0.3,1.2-0.3v1.8h-0.4c-0.5,0-0.9,0.1-1.2,0.4c-0.3,0.2-0.4,0.7-0.4,1.3v3.3h-1.7
		v-6.6h1.7v1C248.4,37.8,248.7,37.5,249.1,37.3z"/>
	<path fill="#363636" d="M257.5,41h-4.9c0,0.5,0.2,0.9,0.5,1.1c0.3,0.3,0.7,0.4,1.1,0.4c0.6,0,1.1-0.3,1.3-0.8h1.8
		c-0.2,0.6-0.6,1.2-1.1,1.6s-1.2,0.6-2,0.6c-0.6,0-1.2-0.1-1.7-0.4c-0.5-0.3-0.9-0.7-1.2-1.2c-0.3-0.5-0.4-1.1-0.4-1.8
		c0-0.7,0.1-1.3,0.4-1.8c0.3-0.5,0.7-0.9,1.2-1.2c0.5-0.3,1.1-0.4,1.7-0.4c0.6,0,1.2,0.1,1.7,0.4c0.5,0.3,0.9,0.7,1.2,1.2
		c0.3,0.5,0.4,1.1,0.4,1.7C257.6,40.6,257.6,40.8,257.5,41z M255.8,39.8c0-0.4-0.2-0.8-0.5-1c-0.3-0.3-0.7-0.4-1.1-0.4
		c-0.4,0-0.8,0.1-1.1,0.4c-0.3,0.3-0.5,0.6-0.5,1H255.8z"/>
	<path fill="#363636" d="M258.8,38.6c0.3-0.5,0.6-0.9,1.1-1.2s1-0.4,1.5-0.4c0.5,0,0.9,0.1,1.3,0.3s0.7,0.5,0.9,0.8v-0.9h1.7v6.6
		h-1.7v-1c-0.2,0.3-0.5,0.6-0.9,0.8s-0.8,0.3-1.3,0.3c-0.6,0-1.1-0.1-1.5-0.4s-0.8-0.7-1.1-1.2c-0.3-0.5-0.4-1.1-0.4-1.8
		C258.4,39.8,258.5,39.2,258.8,38.6z M263.4,39.4c-0.2-0.3-0.4-0.5-0.6-0.7c-0.3-0.2-0.6-0.2-0.9-0.2c-0.3,0-0.6,0.1-0.9,0.2
		c-0.3,0.2-0.5,0.4-0.6,0.7s-0.2,0.6-0.2,1c0,0.4,0.1,0.8,0.2,1s0.4,0.5,0.6,0.7c0.3,0.2,0.6,0.2,0.9,0.2c0.3,0,0.6-0.1,0.9-0.2
		c0.3-0.2,0.5-0.4,0.6-0.7c0.2-0.3,0.2-0.6,0.2-1S263.5,39.7,263.4,39.4z"/>
	<path fill="#363636" d="M268.9,38.5v3.2c0,0.2,0.1,0.4,0.2,0.5c0.1,0.1,0.3,0.2,0.5,0.2h0.8v1.4h-1.1c-1.4,0-2.1-0.7-2.1-2.1v-3.2
		h-0.8v-1.4h0.8v-1.6h1.7v1.6h1.5v1.4H268.9z"/>
	<path fill="#363636" d="M277.7,41h-4.9c0,0.5,0.2,0.9,0.5,1.1c0.3,0.3,0.7,0.4,1.1,0.4c0.6,0,1.1-0.3,1.3-0.8h1.8
		c-0.2,0.6-0.6,1.2-1.1,1.6s-1.2,0.6-2,0.6c-0.6,0-1.2-0.1-1.7-0.4c-0.5-0.3-0.9-0.7-1.2-1.2c-0.3-0.5-0.4-1.1-0.4-1.8
		c0-0.7,0.1-1.3,0.4-1.8c0.3-0.5,0.7-0.9,1.2-1.2s1.1-0.4,1.7-0.4c0.6,0,1.2,0.1,1.7,0.4c0.5,0.3,0.9,0.7,1.2,1.2
		c0.3,0.5,0.4,1.1,0.4,1.7C277.8,40.6,277.7,40.8,277.7,41z M276,39.8c0-0.4-0.2-0.8-0.5-1c-0.3-0.3-0.7-0.4-1.1-0.4
		c-0.4,0-0.8,0.1-1.1,0.4c-0.3,0.3-0.5,0.6-0.5,1H276z"/>
</g>
<g>
	<path fill="#363636" d="M376.1,61.4c0.7,0.3,1.2,0.8,1.5,1.5c0.4,0.6,0.5,1.4,0.5,2.2s-0.2,1.6-0.5,2.2s-0.9,1.1-1.5,1.5
		c-0.7,0.3-1.4,0.5-2.3,0.5h-2.9v-8.4h2.9C374.6,60.9,375.4,61,376.1,61.4z M375.7,67.1c0.5-0.5,0.7-1.2,0.7-2s-0.2-1.6-0.7-2
		c-0.5-0.5-1.2-0.7-2-0.7h-1.2v5.5h1.2C374.6,67.8,375.2,67.6,375.7,67.1z"/>
	<path fill="#363636" d="M385.6,66.4h-4.9c0,0.5,0.2,0.9,0.5,1.1c0.3,0.3,0.7,0.4,1.1,0.4c0.6,0,1.1-0.3,1.3-0.8h1.8
		c-0.2,0.6-0.6,1.2-1.1,1.6s-1.2,0.6-2,0.6c-0.6,0-1.2-0.1-1.7-0.4c-0.5-0.3-0.9-0.7-1.2-1.2c-0.3-0.5-0.4-1.1-0.4-1.8
		c0-0.7,0.1-1.3,0.4-1.8c0.3-0.5,0.7-0.9,1.2-1.2c0.5-0.3,1.1-0.4,1.7-0.4c0.6,0,1.2,0.1,1.7,0.4c0.5,0.3,0.9,0.7,1.2,1.2
		c0.3,0.5,0.4,1.1,0.4,1.7C385.6,66,385.6,66.2,385.6,66.4z M383.9,65.3c0-0.4-0.2-0.8-0.5-1c-0.3-0.3-0.7-0.4-1.1-0.4
		c-0.4,0-0.8,0.1-1,0.4s-0.5,0.6-0.5,1H383.9z"/>
	<path fill="#363636" d="M388.5,60.4v8.9h-1.7v-8.9H388.5z"/>
	<path fill="#363636" d="M390.3,61.5c-0.2-0.2-0.3-0.4-0.3-0.7s0.1-0.5,0.3-0.7c0.2-0.2,0.4-0.3,0.7-0.3c0.3,0,0.5,0.1,0.7,0.3
		c0.2,0.2,0.3,0.4,0.3,0.7s-0.1,0.5-0.3,0.7c-0.2,0.2-0.4,0.3-0.7,0.3C390.7,61.8,390.5,61.7,390.3,61.5z M391.8,62.6v6.6h-1.7v-6.6
		H391.8z"/>
	<path fill="#363636" d="M396.3,67.7l1.7-5.1h1.8l-2.5,6.6h-2l-2.4-6.6h1.8L396.3,67.7z"/>
	<path fill="#363636" d="M406.8,66.4H402c0,0.5,0.2,0.9,0.5,1.1c0.3,0.3,0.7,0.4,1.1,0.4c0.6,0,1.1-0.3,1.3-0.8h1.8
		c-0.2,0.6-0.6,1.2-1.1,1.6s-1.2,0.6-2,0.6c-0.6,0-1.2-0.1-1.7-0.4c-0.5-0.3-0.9-0.7-1.2-1.2c-0.3-0.5-0.4-1.1-0.4-1.8
		c0-0.7,0.1-1.3,0.4-1.8c0.3-0.5,0.7-0.9,1.2-1.2c0.5-0.3,1.1-0.4,1.7-0.4c0.6,0,1.2,0.1,1.7,0.4c0.5,0.3,0.9,0.7,1.2,1.2
		c0.3,0.5,0.4,1.1,0.4,1.7C406.9,66,406.8,66.2,406.8,66.4z M405.1,65.3c0-0.4-0.2-0.8-0.5-1c-0.3-0.3-0.7-0.4-1.1-0.4
		c-0.4,0-0.8,0.1-1,0.4s-0.5,0.6-0.5,1H405.1z"/>
	<path fill="#363636" d="M410.6,62.8c0.3-0.2,0.7-0.3,1.2-0.3v1.8h-0.4c-0.5,0-0.9,0.1-1.2,0.4c-0.3,0.2-0.4,0.7-0.4,1.3v3.3h-1.7
		v-6.6h1.7v1C410,63.3,410.3,63,410.6,62.8z"/>
</g>
<g>
	<path fill="#7500D4" d="M53.7,238.1v2.5h2.7v0.8h-2.7v2.6h3v0.8h-4v-7.5h4v0.8H53.7z"/>
	<path fill="#7500D4" d="M66.5,239.1c0.4,0.2,0.6,0.5,0.8,0.9c0.2,0.4,0.3,0.8,0.3,1.4v3.5h-1v-3.3c0-0.6-0.1-1-0.4-1.3
		c-0.3-0.3-0.7-0.5-1.2-0.5c-0.5,0-0.9,0.2-1.2,0.5c-0.3,0.3-0.4,0.8-0.4,1.4v3.2h-1v-3.3c0-0.6-0.1-1-0.4-1.3
		c-0.3-0.3-0.7-0.5-1.2-0.5c-0.5,0-0.9,0.2-1.2,0.5c-0.3,0.3-0.4,0.8-0.4,1.4v3.2h-1v-5.9h1v0.8c0.2-0.3,0.5-0.5,0.8-0.7
		c0.3-0.2,0.7-0.2,1.1-0.2c0.5,0,0.9,0.1,1.3,0.3c0.4,0.2,0.7,0.5,0.8,1c0.2-0.4,0.4-0.7,0.8-1c0.4-0.2,0.8-0.3,1.3-0.3
		C65.8,238.8,66.2,238.9,66.5,239.1z"/>
	<path fill="#7500D4" d="M71.1,239.2c0.4-0.2,0.8-0.3,1.3-0.3c0.5,0,1,0.1,1.4,0.4s0.8,0.6,1,1.1c0.2,0.5,0.4,1,0.4,1.6
		c0,0.6-0.1,1.1-0.4,1.6c-0.2,0.5-0.6,0.8-1,1.1s-0.9,0.4-1.4,0.4c-0.5,0-0.9-0.1-1.3-0.3c-0.4-0.2-0.7-0.5-0.9-0.8v3.9h-1v-8.6h1
		v1.1C70.4,239.7,70.7,239.4,71.1,239.2z M74,240.7c-0.2-0.3-0.4-0.6-0.7-0.7s-0.6-0.3-1-0.3c-0.4,0-0.7,0.1-1,0.3s-0.5,0.4-0.7,0.8
		c-0.2,0.3-0.3,0.7-0.3,1.2c0,0.4,0.1,0.8,0.3,1.2c0.2,0.3,0.4,0.6,0.7,0.8s0.6,0.3,1,0.3c0.4,0,0.7-0.1,1-0.3s0.5-0.4,0.7-0.8
		c0.2-0.3,0.3-0.7,0.3-1.2C74.2,241.4,74.1,241,74,240.7z"/>
	<path fill="#7500D4" d="M76.5,240.3c0.2-0.5,0.6-0.8,1-1.1c0.4-0.2,0.9-0.4,1.4-0.4c0.5,0,1,0.1,1.3,0.3c0.4,0.2,0.7,0.5,0.8,0.8
		v-1.1h1v5.9h-1v-1.1c-0.2,0.3-0.5,0.6-0.9,0.9c-0.4,0.2-0.8,0.3-1.3,0.3c-0.5,0-1-0.1-1.4-0.4c-0.4-0.3-0.8-0.6-1-1.1
		c-0.2-0.5-0.4-1-0.4-1.6C76.2,241.2,76.3,240.7,76.5,240.3z M80.8,240.7c-0.2-0.3-0.4-0.6-0.7-0.8s-0.6-0.3-1-0.3s-0.7,0.1-1,0.3
		c-0.3,0.2-0.5,0.4-0.7,0.7s-0.3,0.7-0.3,1.2c0,0.4,0.1,0.8,0.3,1.2c0.2,0.3,0.4,0.6,0.7,0.8c0.3,0.2,0.6,0.3,1,0.3s0.7-0.1,1-0.3
		s0.5-0.4,0.7-0.8c0.2-0.3,0.3-0.7,0.3-1.2S81,241,80.8,240.7z"/>
	<path fill="#7500D4" d="M84.9,239.7v3.5c0,0.3,0.1,0.5,0.2,0.6c0.1,0.1,0.3,0.2,0.6,0.2h0.7v0.8h-0.9c-0.5,0-0.9-0.1-1.2-0.4
		c-0.3-0.2-0.4-0.7-0.4-1.2v-3.5h-0.8v-0.8H84v-1.5h1v1.5h1.5v0.8H84.9z"/>
	<path fill="#7500D4" d="M87.7,237.8c-0.1-0.1-0.2-0.3-0.2-0.5s0.1-0.3,0.2-0.5c0.1-0.1,0.3-0.2,0.5-0.2c0.2,0,0.3,0.1,0.5,0.2
		c0.1,0.1,0.2,0.3,0.2,0.5s-0.1,0.3-0.2,0.5c-0.1,0.1-0.3,0.2-0.5,0.2C88,238,87.8,237.9,87.7,237.8z M88.6,238.9v5.9h-1v-5.9H88.6z
		"/>
	<path fill="#7500D4" d="M91,244h2.9v0.8h-4V244l2.8-4.3h-2.8v-0.8h3.9v0.8L91,244z"/>
	<path fill="#7500D4" d="M100.5,242.2h-4.7c0,0.6,0.2,1,0.6,1.4c0.4,0.3,0.8,0.5,1.3,0.5c0.4,0,0.8-0.1,1.1-0.3s0.5-0.5,0.6-0.8h1
		c-0.2,0.6-0.5,1-0.9,1.4c-0.5,0.4-1.1,0.5-1.8,0.5c-0.6,0-1.1-0.1-1.5-0.4c-0.4-0.2-0.8-0.6-1-1.1c-0.2-0.5-0.4-1-0.4-1.6
		s0.1-1.1,0.4-1.6c0.2-0.5,0.6-0.8,1-1.1c0.4-0.2,0.9-0.4,1.5-0.4c0.6,0,1,0.1,1.5,0.4c0.4,0.2,0.8,0.6,1,1c0.2,0.4,0.3,0.9,0.3,1.4
		C100.5,241.8,100.5,242,100.5,242.2z M99.2,240.5c-0.2-0.3-0.4-0.5-0.7-0.6c-0.3-0.1-0.6-0.2-0.9-0.2c-0.5,0-0.9,0.2-1.3,0.5
		c-0.3,0.3-0.5,0.7-0.6,1.3h3.7C99.5,241.1,99.4,240.7,99.2,240.5z"/>
</g>
<g>
	<path fill="#7500D4" d="M242.2,237.3v7.5h-1v-7.5H242.2z"/>
	<path fill="#7500D4" d="M243.8,240.3c0.2-0.5,0.6-0.8,1-1.1c0.4-0.2,0.9-0.4,1.4-0.4c0.5,0,0.9,0.1,1.3,0.3
		c0.4,0.2,0.7,0.5,0.9,0.8v-3.1h1v7.9h-1v-1.1c-0.2,0.3-0.5,0.6-0.9,0.9c-0.4,0.2-0.8,0.3-1.3,0.3c-0.5,0-1-0.1-1.4-0.4
		c-0.4-0.3-0.8-0.6-1-1.1c-0.2-0.5-0.4-1-0.4-1.6C243.5,241.2,243.6,240.7,243.8,240.3z M248.2,240.7c-0.2-0.3-0.4-0.6-0.7-0.8
		s-0.6-0.3-1-0.3s-0.7,0.1-1,0.3c-0.3,0.2-0.5,0.4-0.7,0.7s-0.3,0.7-0.3,1.2c0,0.4,0.1,0.8,0.3,1.2c0.2,0.3,0.4,0.6,0.7,0.8
		c0.3,0.2,0.6,0.3,1,0.3s0.7-0.1,1-0.3s0.5-0.4,0.7-0.8c0.2-0.3,0.3-0.7,0.3-1.2S248.3,241,248.2,240.7z"/>
	<path fill="#7500D4" d="M256.4,242.2h-4.7c0,0.6,0.2,1,0.6,1.4c0.4,0.3,0.8,0.5,1.3,0.5c0.4,0,0.8-0.1,1.1-0.3s0.5-0.5,0.6-0.8h1
		c-0.2,0.6-0.5,1-0.9,1.4c-0.5,0.4-1.1,0.5-1.8,0.5c-0.6,0-1.1-0.1-1.5-0.4c-0.4-0.2-0.8-0.6-1-1.1c-0.2-0.5-0.4-1-0.4-1.6
		s0.1-1.1,0.4-1.6c0.2-0.5,0.6-0.8,1-1.1c0.4-0.2,0.9-0.4,1.5-0.4c0.6,0,1,0.1,1.5,0.4c0.4,0.2,0.8,0.6,1,1c0.2,0.4,0.3,0.9,0.3,1.4
		C256.4,241.8,256.4,242,256.4,242.2z M255.2,240.5c-0.2-0.3-0.4-0.5-0.7-0.6c-0.3-0.1-0.6-0.2-0.9-0.2c-0.5,0-0.9,0.2-1.3,0.5
		c-0.3,0.3-0.5,0.7-0.6,1.3h3.7C255.4,241.1,255.3,240.7,255.2,240.5z"/>
	<path fill="#7500D4" d="M257.7,240.3c0.2-0.5,0.6-0.8,1-1.1c0.4-0.2,0.9-0.4,1.4-0.4c0.5,0,1,0.1,1.3,0.3s0.7,0.5,0.8,0.8v-1.1h1
		v5.9h-1v-1.1c-0.2,0.3-0.5,0.6-0.9,0.9c-0.4,0.2-0.8,0.3-1.3,0.3c-0.5,0-1-0.1-1.4-0.4s-0.8-0.6-1-1.1c-0.2-0.5-0.4-1-0.4-1.6
		C257.3,241.2,257.5,240.7,257.7,240.3z M262,240.7c-0.2-0.3-0.4-0.6-0.7-0.8c-0.3-0.2-0.6-0.3-1-0.3c-0.4,0-0.7,0.1-1,0.3
		c-0.3,0.2-0.5,0.4-0.7,0.7s-0.3,0.7-0.3,1.2c0,0.4,0.1,0.8,0.3,1.2c0.2,0.3,0.4,0.6,0.7,0.8c0.3,0.2,0.6,0.3,1,0.3
		c0.4,0,0.7-0.1,1-0.3c0.3-0.2,0.5-0.4,0.7-0.8c0.2-0.3,0.3-0.7,0.3-1.2S262.2,241,262,240.7z"/>
	<path fill="#7500D4" d="M266.1,239.7v3.5c0,0.3,0.1,0.5,0.2,0.6c0.1,0.1,0.3,0.2,0.6,0.2h0.7v0.8h-0.9c-0.5,0-0.9-0.1-1.2-0.4
		c-0.3-0.2-0.4-0.7-0.4-1.2v-3.5h-0.8v-0.8h0.8v-1.5h1v1.5h1.5v0.8H266.1z"/>
	<path fill="#7500D4" d="M274.1,242.2h-4.7c0,0.6,0.2,1,0.6,1.4c0.4,0.3,0.8,0.5,1.3,0.5c0.4,0,0.8-0.1,1.1-0.3s0.5-0.5,0.6-0.8h1
		c-0.2,0.6-0.5,1-0.9,1.4c-0.5,0.4-1.1,0.5-1.8,0.5c-0.6,0-1.1-0.1-1.5-0.4s-0.8-0.6-1-1.1c-0.2-0.5-0.4-1-0.4-1.6s0.1-1.1,0.4-1.6
		c0.2-0.5,0.6-0.8,1-1.1s0.9-0.4,1.5-0.4c0.6,0,1,0.1,1.5,0.4s0.8,0.6,1,1c0.2,0.4,0.3,0.9,0.3,1.4
		C274.2,241.8,274.2,242,274.1,242.2z M272.9,240.5c-0.2-0.3-0.4-0.5-0.7-0.6c-0.3-0.1-0.6-0.2-0.9-0.2c-0.5,0-0.9,0.2-1.3,0.5
		c-0.3,0.3-0.5,0.7-0.6,1.3h3.7C273.2,241.1,273.1,240.7,272.9,240.5z"/>
</g>
<g>
	<path fill="#7500D4" d="M430,237.3v0.8h-2v6.7h-1v-6.7h-2v-0.8H430z"/>
	<path fill="#7500D4" d="M436.5,242.2h-4.7c0,0.6,0.2,1,0.6,1.4c0.4,0.3,0.8,0.5,1.3,0.5c0.4,0,0.8-0.1,1.1-0.3s0.5-0.5,0.6-0.8h1
		c-0.2,0.6-0.5,1-0.9,1.4c-0.5,0.4-1.1,0.5-1.8,0.5c-0.6,0-1.1-0.1-1.5-0.4s-0.8-0.6-1-1.1c-0.2-0.5-0.4-1-0.4-1.6s0.1-1.1,0.4-1.6
		c0.2-0.5,0.6-0.8,1-1.1s0.9-0.4,1.5-0.4c0.6,0,1,0.1,1.5,0.4s0.8,0.6,1,1c0.2,0.4,0.3,0.9,0.3,1.4
		C436.6,241.8,436.6,242,436.5,242.2z M435.3,240.5c-0.2-0.3-0.4-0.5-0.7-0.6c-0.3-0.1-0.6-0.2-0.9-0.2c-0.5,0-0.9,0.2-1.3,0.5
		c-0.3,0.3-0.5,0.7-0.6,1.3h3.7C435.6,241.1,435.5,240.7,435.3,240.5z"/>
	<path fill="#7500D4" d="M438.7,244.7c-0.4-0.2-0.6-0.4-0.8-0.6c-0.2-0.3-0.3-0.6-0.3-0.9h1c0,0.3,0.2,0.5,0.4,0.7s0.6,0.3,1,0.3
		c0.4,0,0.7-0.1,0.9-0.2s0.3-0.4,0.3-0.6c0-0.3-0.1-0.4-0.3-0.6s-0.6-0.2-1.1-0.4c-0.4-0.1-0.8-0.2-1.1-0.3
		c-0.3-0.1-0.5-0.3-0.7-0.5s-0.3-0.5-0.3-0.9c0-0.3,0.1-0.6,0.3-0.8c0.2-0.2,0.4-0.4,0.8-0.6s0.7-0.2,1.1-0.2c0.6,0,1.2,0.2,1.6,0.5
		s0.6,0.8,0.6,1.3h-1c0-0.3-0.1-0.6-0.4-0.7s-0.5-0.3-0.9-0.3c-0.3,0-0.6,0.1-0.8,0.2c-0.2,0.2-0.3,0.3-0.3,0.6
		c0,0.2,0.1,0.4,0.2,0.5c0.1,0.1,0.3,0.2,0.5,0.3c0.2,0.1,0.5,0.2,0.8,0.3c0.4,0.1,0.8,0.2,1,0.3c0.3,0.1,0.5,0.3,0.7,0.5
		c0.2,0.2,0.3,0.5,0.3,0.9c0,0.3-0.1,0.6-0.3,0.9s-0.4,0.5-0.8,0.6c-0.3,0.1-0.7,0.2-1.1,0.2C439.5,244.9,439.1,244.8,438.7,244.7z"
		/>
	<path fill="#7500D4" d="M444.6,239.7v3.5c0,0.3,0.1,0.5,0.2,0.6c0.1,0.1,0.3,0.2,0.6,0.2h0.7v0.8h-0.9c-0.5,0-0.9-0.1-1.2-0.4
		c-0.3-0.2-0.4-0.7-0.4-1.2v-3.5h-0.8v-0.8h0.8v-1.5h1v1.5h1.5v0.8H444.6z"/>
</g>
<g>
	<path fill="#7500D4" d="M156.5,237.8c0.6,0.3,1.1,0.7,1.4,1.3c0.3,0.6,0.5,1.2,0.5,2c0,0.8-0.2,1.4-0.5,2c-0.3,0.6-0.8,1-1.4,1.3
		s-1.3,0.4-2.1,0.4H152v-7.5h2.3C155.2,237.3,155.9,237.5,156.5,237.8z M156.6,243.2c0.5-0.5,0.8-1.2,0.8-2.1c0-0.9-0.3-1.7-0.8-2.2
		c-0.5-0.5-1.2-0.8-2.2-0.8H153v5.9h1.3C155.3,244,156,243.7,156.6,243.2z"/>
	<path fill="#7500D4" d="M164.9,242.2h-4.7c0,0.6,0.2,1,0.6,1.4c0.4,0.3,0.8,0.5,1.3,0.5c0.4,0,0.8-0.1,1.1-0.3s0.5-0.5,0.6-0.8h1
		c-0.2,0.6-0.5,1-0.9,1.4c-0.5,0.4-1.1,0.5-1.8,0.5c-0.6,0-1.1-0.1-1.5-0.4c-0.4-0.2-0.8-0.6-1-1.1c-0.2-0.5-0.4-1-0.4-1.6
		s0.1-1.1,0.4-1.6c0.2-0.5,0.6-0.8,1-1.1c0.4-0.2,0.9-0.4,1.5-0.4c0.6,0,1,0.1,1.5,0.4c0.4,0.2,0.8,0.6,1,1c0.2,0.4,0.3,0.9,0.3,1.4
		C164.9,241.8,164.9,242,164.9,242.2z M163.7,240.5c-0.2-0.3-0.4-0.5-0.7-0.6s-0.6-0.2-0.9-0.2c-0.5,0-0.9,0.2-1.3,0.5
		c-0.3,0.3-0.5,0.7-0.6,1.3h3.7C163.9,241.1,163.9,240.7,163.7,240.5z"/>
	<path fill="#7500D4" d="M168.6,239.7h-1.2v5.1h-1v-5.1h-0.8v-0.8h0.8v-0.4c0-0.7,0.2-1.1,0.5-1.4c0.3-0.3,0.9-0.5,1.6-0.5v0.8
		c-0.4,0-0.7,0.1-0.9,0.3c-0.2,0.2-0.3,0.4-0.3,0.8v0.4h1.2V239.7z"/>
	<path fill="#7500D4" d="M169.8,237.8c-0.1-0.1-0.2-0.3-0.2-0.5s0.1-0.3,0.2-0.5c0.1-0.1,0.3-0.2,0.5-0.2c0.2,0,0.3,0.1,0.5,0.2
		c0.1,0.1,0.2,0.3,0.2,0.5s-0.1,0.3-0.2,0.5c-0.1,0.1-0.3,0.2-0.5,0.2C170.1,238,169.9,237.9,169.8,237.8z M170.7,238.9v5.9h-1v-5.9
		H170.7z"/>
	<path fill="#7500D4" d="M177,239.5c0.4,0.4,0.7,1.1,0.7,1.9v3.5h-1v-3.3c0-0.6-0.1-1-0.4-1.3s-0.7-0.5-1.2-0.5
		c-0.5,0-0.9,0.2-1.2,0.5c-0.3,0.3-0.5,0.8-0.5,1.4v3.2h-1v-5.9h1v0.8c0.2-0.3,0.5-0.5,0.8-0.7c0.3-0.2,0.7-0.2,1.1-0.2
		C175.9,238.8,176.5,239,177,239.5z"/>
	<path fill="#7500D4" d="M184.5,242.2h-4.7c0,0.6,0.2,1,0.6,1.4c0.4,0.3,0.8,0.5,1.3,0.5c0.4,0,0.8-0.1,1.1-0.3s0.5-0.5,0.6-0.8h1
		c-0.2,0.6-0.5,1-0.9,1.4c-0.5,0.4-1.1,0.5-1.8,0.5c-0.6,0-1.1-0.1-1.5-0.4c-0.4-0.2-0.8-0.6-1-1.1c-0.2-0.5-0.4-1-0.4-1.6
		s0.1-1.1,0.4-1.6c0.2-0.5,0.6-0.8,1-1.1c0.4-0.2,0.9-0.4,1.5-0.4c0.6,0,1,0.1,1.5,0.4c0.4,0.2,0.8,0.6,1,1c0.2,0.4,0.3,0.9,0.3,1.4
		C184.6,241.8,184.6,242,184.5,242.2z M183.3,240.5c-0.2-0.3-0.4-0.5-0.7-0.6s-0.6-0.2-0.9-0.2c-0.5,0-0.9,0.2-1.3,0.5
		c-0.3,0.3-0.5,0.7-0.6,1.3h3.7C183.6,241.1,183.5,240.7,183.3,240.5z"/>
</g>
<g>
	<path fill="#7500D4" d="M325.9,241.1c-0.4,0.4-1.1,0.6-1.9,0.6h-1.4v3.1h-1v-7.5h2.4c0.8,0,1.5,0.2,1.9,0.6s0.7,0.9,0.7,1.6
		C326.6,240.1,326.3,240.7,325.9,241.1z M325.2,240.5c0.3-0.2,0.4-0.6,0.4-1c0-0.9-0.5-1.4-1.6-1.4h-1.4v2.7h1.4
		C324.5,240.9,324.9,240.8,325.2,240.5z"/>
	<path fill="#7500D4" d="M329.5,239.1c0.3-0.2,0.7-0.3,1.2-0.3v1h-0.3c-1.1,0-1.6,0.6-1.6,1.8v3.2h-1v-5.9h1v1
		C328.9,239.5,329.2,239.3,329.5,239.1z"/>
	<path fill="#7500D4" d="M332.8,244.5c-0.4-0.2-0.8-0.6-1-1.1s-0.4-1-0.4-1.6c0-0.6,0.1-1.1,0.4-1.6c0.3-0.5,0.6-0.8,1.1-1.1
		c0.5-0.2,1-0.4,1.5-0.4c0.6,0,1.1,0.1,1.5,0.4c0.4,0.2,0.8,0.6,1.1,1.1c0.3,0.5,0.4,1,0.4,1.6s-0.1,1.1-0.4,1.6s-0.6,0.8-1.1,1.1
		c-0.5,0.2-1,0.4-1.5,0.4C333.8,244.9,333.3,244.8,332.8,244.5z M335.3,243.8c0.3-0.2,0.6-0.4,0.7-0.7c0.2-0.3,0.3-0.7,0.3-1.2
		c0-0.5-0.1-0.9-0.3-1.2s-0.4-0.6-0.7-0.7c-0.3-0.2-0.6-0.2-1-0.2c-0.4,0-0.7,0.1-1,0.2c-0.3,0.2-0.5,0.4-0.7,0.7
		c-0.2,0.3-0.3,0.7-0.3,1.2c0,0.5,0.1,0.9,0.3,1.2s0.4,0.6,0.7,0.7c0.3,0.2,0.6,0.2,1,0.2C334.7,244,335,244,335.3,243.8z"/>
	<path fill="#7500D4" d="M339.8,239.7v3.5c0,0.3,0.1,0.5,0.2,0.6c0.1,0.1,0.3,0.2,0.6,0.2h0.7v0.8h-0.9c-0.5,0-0.9-0.1-1.2-0.4
		c-0.3-0.2-0.4-0.7-0.4-1.2v-3.5h-0.8v-0.8h0.8v-1.5h1v1.5h1.5v0.8H339.8z"/>
	<path fill="#7500D4" d="M343.6,244.5c-0.4-0.2-0.8-0.6-1-1.1s-0.4-1-0.4-1.6c0-0.6,0.1-1.1,0.4-1.6c0.3-0.5,0.6-0.8,1.1-1.1
		c0.5-0.2,1-0.4,1.5-0.4c0.6,0,1.1,0.1,1.5,0.4c0.4,0.2,0.8,0.6,1.1,1.1c0.3,0.5,0.4,1,0.4,1.6s-0.1,1.1-0.4,1.6s-0.6,0.8-1.1,1.1
		c-0.5,0.2-1,0.4-1.5,0.4C344.5,244.9,344,244.8,343.6,244.5z M346,243.8c0.3-0.2,0.6-0.4,0.7-0.7c0.2-0.3,0.3-0.7,0.3-1.2
		c0-0.5-0.1-0.9-0.3-1.2s-0.4-0.6-0.7-0.7c-0.3-0.2-0.6-0.2-1-0.2c-0.4,0-0.7,0.1-1,0.2c-0.3,0.2-0.5,0.4-0.7,0.7
		c-0.2,0.3-0.3,0.7-0.3,1.2c0,0.5,0.1,0.9,0.3,1.2s0.4,0.6,0.7,0.7c0.3,0.2,0.6,0.2,1,0.2C345.4,244,345.7,244,346,243.8z"/>
	<path fill="#7500D4" d="M350.5,239.7v3.5c0,0.3,0.1,0.5,0.2,0.6c0.1,0.1,0.3,0.2,0.6,0.2h0.7v0.8h-0.9c-0.5,0-0.9-0.1-1.2-0.4
		c-0.3-0.2-0.4-0.7-0.4-1.2v-3.5h-0.8v-0.8h0.8v-1.5h1v1.5h1.5v0.8H350.5z"/>
	<path fill="#7500D4" d="M358.3,238.9l-3.5,8.6h-1l1.2-2.8l-2.4-5.8h1.1l1.8,4.8l1.8-4.8H358.3z"/>
	<path fill="#7500D4" d="M361.1,239.2c0.4-0.2,0.8-0.3,1.3-0.3c0.5,0,1,0.1,1.4,0.4s0.8,0.6,1,1.1c0.2,0.5,0.4,1,0.4,1.6
		c0,0.6-0.1,1.1-0.4,1.6c-0.2,0.5-0.6,0.8-1,1.1s-0.9,0.4-1.4,0.4c-0.5,0-0.9-0.1-1.3-0.3c-0.4-0.2-0.7-0.5-0.9-0.8v3.9h-1v-8.6h1
		v1.1C360.4,239.7,360.7,239.4,361.1,239.2z M364,240.7c-0.2-0.3-0.4-0.6-0.7-0.7c-0.3-0.2-0.6-0.3-1-0.3c-0.4,0-0.7,0.1-1,0.3
		c-0.3,0.2-0.5,0.4-0.7,0.8c-0.2,0.3-0.3,0.7-0.3,1.2c0,0.4,0.1,0.8,0.3,1.2c0.2,0.3,0.4,0.6,0.7,0.8c0.3,0.2,0.6,0.3,1,0.3
		c0.4,0,0.7-0.1,1-0.3c0.3-0.2,0.5-0.4,0.7-0.8c0.2-0.3,0.3-0.7,0.3-1.2C364.2,241.4,364.1,241,364,240.7z"/>
	<path fill="#7500D4" d="M371.8,242.2h-4.7c0,0.6,0.2,1,0.6,1.4c0.4,0.3,0.8,0.5,1.3,0.5c0.4,0,0.8-0.1,1.1-0.3s0.5-0.5,0.6-0.8h1
		c-0.2,0.6-0.5,1-0.9,1.4c-0.5,0.4-1.1,0.5-1.8,0.5c-0.6,0-1.1-0.1-1.5-0.4s-0.8-0.6-1-1.1c-0.2-0.5-0.4-1-0.4-1.6s0.1-1.1,0.4-1.6
		c0.2-0.5,0.6-0.8,1-1.1s0.9-0.4,1.5-0.4c0.6,0,1,0.1,1.5,0.4c0.4,0.2,0.8,0.6,1,1c0.2,0.4,0.3,0.9,0.3,1.4
		C371.9,241.8,371.8,242,371.8,242.2z M370.6,240.5c-0.2-0.3-0.4-0.5-0.7-0.6c-0.3-0.1-0.6-0.2-0.9-0.2c-0.5,0-0.9,0.2-1.3,0.5
		c-0.3,0.3-0.5,0.7-0.6,1.3h3.7C370.9,241.1,370.8,240.7,370.6,240.5z"/>
</g>
<g>
	<g>
		<line fill="none" stroke="#363636" stroke-miterlimit="10" x1="195.7" y1="65.3" x2="321.1" y2="65.3"/>
		<g>
			<rect x="195.2" y="62.1" fill="#363636" width="1" height="6.5"/>
		</g>
		<g>
			<rect x="320.6" y="62.1" fill="#363636" width="1" height="6.5"/>
		</g>
	</g>
</g>
<g>
	<line fill="none" stroke="#363636" stroke-miterlimit="10" x1="35.1" y1="91.2" x2="212.1" y2="91.2"/>
	<g>
		<rect x="34.6" y="87.9" fill="#363636" width="1" height="6.5"/>
	</g>
	<g>
		<rect x="211.6" y="87.9" fill="#363636" width="1" height="6.5"/>
	</g>
</g>
<g>
	<line fill="none" stroke="#363636" stroke-miterlimit="10" x1="302.5" y1="91.2" x2="479.6" y2="91.2"/>
	<g>
		<rect x="302" y="87.9" fill="#363636" width="1" height="6.5"/>
	</g>
	<g>
		<rect x="479.1" y="87.9" fill="#363636" width="1" height="6.5"/>
	</g>
</g>
<g>
	<path fill="#7500D4" d="M68.8,160.3L68.8,160.3c0.1-0.1,0.2-0.2,0.3-0.3c0.9-0.8,1.3-1.7,1.2-3.1c0-1.5,0-3.1,0-4.6
		c0-0.7,0-1.3,0-2c0-2.8-0.7-5.2-2.1-7.2c-1.9-2.9-4-5.1-6.5-6.8c-3.7-2.6-7.8-3.9-12.1-3.7c-0.9,0-1.5,0.5-1.5,1.3
		c0,0.7,0.6,1.3,1.4,1.4c0.2,0,0.3,0,0.5,0l0.2,0c1.8,0,3.7,0.3,5.5,1c3.7,1.3,6.8,3.8,9.6,7.5c1.6,2.1,2.3,4.4,2.3,7.1
		c0,1.6-0.1,3.4,0,5.3c0.1,1.2-0.2,2-0.9,2.6c-0.8,0.7-0.9,1.7-0.4,2.8c0.4,0.8,0.8,1.6,1.3,2.5l2.3,4.5c-0.2,0.1-0.4,0.2-0.5,0.3
		c-0.6,0.3-1.2,0.6-1.8,1c-0.4,0.3-0.9,0.7-0.9,1.2c-0.1,0.6,0,1.2,0,1.8c0,0.2,0,0.4,0,0.7c-0.1,0-0.1,0.1-0.2,0.1
		c-0.3,0.2-0.6,0.4-0.9,0.7c-0.3,0.3-0.7,1-0.5,1.4c0.5,0.8,0.6,1.6,0.2,2.4c-0.1,0.2-0.1,0.4,0,0.6c0,0.1,0,0.1,0,0.2l0,0.8
		c0,0.6,0,1.2,0,1.8c0,0.6-0.4,1.4-1.1,1.9c-0.5,0.5-1.2,0.8-1.6,0.7c-1.7-0.2-3.1-0.3-4.5-0.5c-1.7-0.2-2.1-0.1-2.7,1.5
		c-0.7,1.9-1.4,3.8-2,5.7L53,192c-0.3,0.8-0.5,1.6-0.7,2.3c-0.2,0.8,0.1,1.4,0.8,1.7c0.2,0.1,0.3,0.1,0.5,0.1c0.5,0,1-0.3,1.2-0.9
		c0.1-0.1,0.1-0.3,0.2-0.4l0.7-2.2c0.6-2,1.3-4,1.9-6c0.1-0.3,0.2-0.4,0.6-0.4l0.3,0c1.3,0.2,2.6,0.4,4,0.4c0.9,0,1.9-0.2,2.6-0.6
		c2.3-1.5,3.3-3.2,3-5.5c0-0.4,0-0.7,0-1.1l0-0.3c0-0.1,0-0.2,0-0.3c0-0.2,0-0.5,0.1-0.7c0.4-0.8,0.7-1.7,0.1-2.6l0.1-0.1
		c0.2-0.2,0.4-0.3,0.5-0.4c1.3-1,1.4-1.5,0.6-2.9c-0.1-0.2-0.1-0.2-0.1-0.2c0,0,0-0.1,0.2-0.2c0.7-0.4,1.3-0.7,1.8-1.1
		c1.5-1.1,1.7-1.9,0.8-3.6L68.8,160.3z"/>
	<path fill="#7500D4" d="M108.5,132.6c-3.6-0.1-7,0.7-10.1,2.5c-2.9,1.7-5.5,4-8,7.3c-1.8,2.4-2.6,5-2.6,8c0,0.6,0,1.2,0,1.8
		c0,1.6,0,3.2,0,4.8c0,1.3,0.4,2.2,1.2,2.9c0.3,0.3,0.4,0.5,0.1,1c-0.9,1.7-1.8,3.4-2.6,5.1l-0.6,1.2c-0.7,1.4-0.6,2.1,0.6,3
		c0.6,0.5,1.3,1,2,1.3c0.1,0.1,0.4,0.2,0.4,0.3c0,0,0,0.1-0.2,0.4c-0.7,1-0.6,1.8,0.4,2.6l0.8,0.6c0,0.2-0.1,0.3-0.1,0.5
		c-0.1,0.5-0.2,0.9,0,1.2c0.4,0.9,0.5,1.8,0.4,3c-0.2,2.2,0.6,4,2.6,5.5c0.8,0.6,1.7,0.9,2.6,0.9c1.4-0.1,2.7-0.2,3.9-0.4l0.1,0
		c0.9-0.1,1-0.1,1.3,0.8c0.5,1.6,1,3.2,1.6,4.7c0.3,1,0.7,2.1,1,3.1c0.1,0.4,0.4,0.8,0.7,0.9c0.2,0.1,0.4,0.2,0.6,0.2
		c0.2,0,0.3,0,0.5-0.1c0.7-0.2,1-0.9,0.8-1.8l-0.1-0.3c-0.2-0.7-0.4-1.3-0.6-2l-0.3-0.9c-0.7-2.1-1.5-4.4-2.3-6.5
		c-0.4-1.1-0.8-1.2-2-1.1l-1.2,0.1c-1.1,0.1-2.2,0.3-3.3,0.4c-0.9,0.1-1.7-0.2-2.3-0.7c-0.6-0.6-0.9-1.4-0.9-2.3l0-0.4
		c0-0.3,0-0.6,0-0.8c0-0.2,0-0.4,0-0.6c0-0.5,0-1.1-0.2-1.6c-0.2-0.5-0.1-0.9,0.1-1.4c0.5-0.9,0.4-1.4-0.4-2.1
		c-0.3-0.2-0.6-0.4-0.8-0.6l-0.1-0.1l0-0.6c0-0.5,0.1-1,0.1-1.5c0.1-0.8-0.3-1.3-1-1.6c-0.6-0.2-1.1-0.5-1.7-0.8
		c-0.2-0.1-0.4-0.2-0.6-0.3l3.1-6.2c1.1-2.1,1-2.5-0.5-4.2c-0.2-0.2-0.3-0.6-0.3-0.9c0-2.1,0-4.3,0-6.3l0-0.5c0-2.2,0.5-4,1.6-5.5
		c0.8-1.2,1.5-2.1,2.2-2.9c3.2-3.6,6.8-5.7,11-6.4c0.7-0.1,1.5-0.2,2.2-0.2c0.4,0,0.7,0,1.1-0.1c0.9-0.1,1.4-0.6,1.4-1.3
		C110,133.2,109.4,132.6,108.5,132.6z"/>
</g>
<path fill="#7500D4" d="M200.1,139.6c-0.3-0.4-0.8-0.7-1.3-0.7c-1.1,0-2.3,0-3.4,0c-0.4,0-0.8,0-1.3,0h-0.5l0-5.1
	c0-0.4,0-1.2-0.8-1.5c-0.8-0.3-1.3,0.2-1.6,0.5c-2,2-4,4-6,6c-0.5,0.4-0.7,0.9-0.7,1.6c0,2,0,3.7,0,5.4c0,0.2-0.1,0.4-0.2,0.6
	c0,0,0,0,0,0.1c-6.4-5.5-13.4-8-21.2-7.6c-8.1,0.5-15,3.9-20.3,10.1c-9.8,11.4-9.1,28.1,1.5,38.9c5.6,5.7,13,8.6,20.5,8.6
	c6.6,0,13.3-2.3,18.7-6.9c5.5-4.7,8.8-10.6,9.8-17.6c1.3-8.9-1.2-16.9-7.3-23.9c0,0,0.1,0,0.1,0c0.2-0.1,0.5-0.2,0.6-0.2
	c0.8,0,1.6,0,2.4,0c1,0,1.9,0,2.9,0c0.4,0,1.1-0.2,1.4-0.5c1.5-1.4,3-2.9,4.4-4.4c0.6-0.6,1.2-1.2,1.8-1.8
	C199.9,140.9,200.6,140.2,200.1,139.6z M177.3,179.7c-6.6,6.8-17.6,7-24.6,0.4c-6.7-6.4-7.3-16.9-1.3-23.9c3.1-3.7,7.4-5.9,12.1-6.2
	c0.4,0,0.8,0,1.2,0c4.2,0,8.2,1.5,11.5,4.3l-4.4,4.6c-2.9-2.2-6-2.9-9.4-2.2c-2.8,0.6-5,2.1-6.8,4.5c-3.1,4.3-2.5,10.8,1.4,14.3
	c4.4,4,10.6,4.2,15,0.5c5-4.3,4.7-11.1,1.5-15.4l4.5-4.5C183.9,162.8,183.7,173.1,177.3,179.7z M171.1,173.6
	c-1.6,1.7-3.9,2.6-6.2,2.6c0,0,0,0,0,0c-2.3,0-4.5-0.9-6-2.5c-1.7-1.7-2.6-4-2.6-6.4c0-2.3,1-4.5,2.7-6.1c1.7-1.6,3.9-2.4,6-2.4
	c1.9,0,3.7,0.6,5.2,1.8l-2.8,2.8c-1,1-2,2-2.9,2.9c-0.5,0.5-0.7,0.9-0.7,1.2c0,0.3,0.1,0.5,0.4,0.7c0.3,0.3,1,0.8,2.1-0.3
	c1.4-1.4,2.8-2.8,4.2-4.2l1.5-1.6C174.1,165.2,174.5,170.1,171.1,173.6z M177.9,152.5c-5.1-4.2-10.8-5.7-17-4.6
	c-4.8,0.9-8.8,3.3-11.8,7.1c-6.4,8.1-5.6,19.6,1.8,26.8c7.3,7.1,19.1,7.6,26.9,1c4.1-3.5,6.6-8.6,7-14c0.4-5.3-1.4-10.5-4.9-14.5
	l4.5-4.5c7.5,7.8,10.1,22.3,1.6,33.5c-4.5,5.9-11,9.6-18.2,10.4c-7.2,0.8-14.2-1.4-19.9-6.2c-5.5-4.7-8.9-11.2-9.4-18.3
	c-0.5-7.1,1.9-14.1,6.9-19.5c4.8-5.3,11.3-8.4,18.4-8.7c0.4,0,0.8,0,1.1,0c6.6,0,12.8,2.4,17.7,6.9L177.9,152.5z M191.2,136.3v0.3
	c0,0.9,0,1.9,0,2.8c0,0,0,0.1-0.1,0.2c-1.1,1.1-2.2,2.2-3.3,3.2l-0.6,0.6c-0.1,0.1-0.1,0.1-0.2,0.2l0-0.4c0-0.9,0-1.8,0-2.7
	c0-0.1,0.1-0.2,0.2-0.3C188.5,139,189.8,137.7,191.2,136.3L191.2,136.3z M189.2,144.9c0.6-0.6,1.3-1.2,1.8-1.8
	c1.2-1.6,2.6-2.2,4.4-1.8c0.2,0,0.4,0,0.6,0c-1.3,1.3-2.6,2.6-3.9,3.9c-0.2,0.2-0.3,0.2-0.3,0.2c-0.9,0-1.8,0-2.6,0l-0.6,0
	C188.8,145.2,189,145,189.2,144.9z"/>
<g>
	<path fill="#7500D4" d="M269.3,149.8c-3.2-3.6-7.2-5.4-12-5.4c0,0,0,0-0.1,0c-8.8,0-16,7.2-16,15.9c0,4.2,1.4,7.9,4.2,10.9
		c3,3.2,4.4,6.7,4.4,10.8c0,0.6,0.2,1,0.5,1.3c0.2,0.2,0.5,0.3,0.8,0.3c0.2,0,0.4,0,0.6-0.1c2.7-0.6,5.4-1.2,8-1.7l3.8-0.8
		c0.8-0.2,1.2-0.6,1.3-1.4c0.4-3,1.7-5.7,3.8-7.9c2.5-2.7,4-5.7,4.4-9C273.8,157.8,272.5,153.4,269.3,149.8z M270.7,161.7
		c-0.3,3-1.5,5.7-3.6,8c-2.4,2.5-3.8,5.2-4.4,8.3c-0.1,0.4-0.3,0.6-0.7,0.7c-2.1,0.4-4.2,0.9-6.3,1.3l-2.5,0.5
		c-0.2,0-0.4,0.1-0.5,0.1c-0.1-0.5-0.2-0.9-0.3-1.4c-0.3-1.2-0.5-2.3-0.9-3.5c-0.7-2.1-1.9-4.1-3.7-6.1c-5.2-5.5-5.1-13.7,0.3-19
		c2.5-2.4,5.9-3.8,9.3-3.8c1.7,0,3.4,0.3,5,1C267.9,150.3,271.2,155.7,270.7,161.7z"/>
	<path fill="#7500D4" d="M251.2,187.7c0.1,0,0.2,0,0.4,0c0.1,0,0.3,0,0.4-0.1l1.8-0.4c1.9-0.4,3.9-0.8,5.8-1.3
		c1.4-0.3,2.8-0.6,4.2-0.9c0.8-0.2,1.2-0.7,1.1-1.5c-0.1-0.7-0.6-1.1-1.4-1.1l-0.1,0c-0.1,0-0.1,0-0.2,0l-6,1.3
		c-2,0.4-4.1,0.9-6.1,1.3c-0.9,0.2-1.4,0.9-1.2,1.6C249.9,187.1,250.2,187.7,251.2,187.7z"/>
	<path fill="#7500D4" d="M264.6,187.1c-0.5-0.7-1.2-0.6-1.8-0.4c-2.1,0.4-4.2,0.9-6.3,1.3l-2.7,0.6c-0.9,0.2-1.8,0.4-2.7,0.6
		c-0.6,0.1-1,0.5-1.2,0.9c-0.1,0.4-0.1,0.8,0.2,1.2c0.3,0.4,0.7,0.6,1.1,0.6c0.2,0,0.4,0,0.6-0.1c1.6-0.3,3.1-0.7,4.7-1l4.7-1
		c0.8-0.2,1.6-0.4,2.5-0.5c0.5-0.1,1.3-0.4,1.3-1.5l0-0.1l-0.1-0.1C264.8,187.4,264.7,187.2,264.6,187.1z"/>
	<path fill="#7500D4" d="M261.4,190c-0.7-0.2-1.4,0.3-1.6,1.1c0,0.1,0,0.1,0,0.2c0,0.1,0,0.2-0.1,0.2c-0.2,0.7-0.7,1.2-1.4,1.5
		c-0.6,0.3-1.2,0.3-1.8,0c-0.4-0.2-0.8-0.5-1.2-0.9l-0.1-0.1c-0.7-0.7-1.3-0.7-1.9-0.3c-0.6,0.5-0.7,1.3-0.1,2
		c1.1,1.4,2.5,2.1,4.1,2.1c0,0,0.1,0,0.1,0c2.4,0,4.6-1.9,5-4.2C262.5,190.8,262.1,190.2,261.4,190z"/>
	<path fill="#7500D4" d="M284.1,158.6c-2,0-4.1,0-6.1,0c-0.9,0-1.6,0.6-1.6,1.3c0,0.8,0.6,1.3,1.6,1.3c0.4,0,0.8,0,1.2,0
		c0.3,0,0.6,0,0.9,0l0.9,0l0.2,0c0.2,0,0.5,0,0.7,0c0.7,0,1.5,0,2.3,0c0.9,0,1.4-0.5,1.4-1.3C285.6,159.1,285,158.6,284.1,158.6z"/>
	<path fill="#7500D4" d="M277.6,178.4c-0.1-0.2-0.2-0.3-0.3-0.4l-0.8-0.8c-1.2-1.2-2.5-2.5-3.7-3.7c-0.3-0.3-0.7-0.5-1.1-0.5
		c0,0,0,0,0,0c-0.3,0-0.6,0.1-0.8,0.4c-0.6,0.6-0.5,1.3,0.1,2c0.3,0.4,0.7,0.7,1.1,1.1l0.5,0.5c0.3,0.3,0.5,0.5,0.8,0.8
		c0.7,0.7,1.4,1.5,2.2,2.1c0.3,0.2,0.7,0.4,1.1,0.4c0.1,0,0.2,0,0.3,0c0.3-0.1,0.5-0.4,0.7-0.7c0.1-0.1,0.1-0.2,0.2-0.2l0.1-0.1
		l-0.1-0.4C277.7,178.6,277.6,178.5,277.6,178.4z"/>
	<path fill="#7500D4" d="M271.3,146.7c0.1,0.1,0.2,0.1,0.3,0.2l0.1,0.1l0.1-0.1c0.1-0.1,0.2-0.1,0.3-0.2c0.2-0.1,0.4-0.2,0.5-0.3
		c1.8-1.7,3.2-3.2,4.7-4.7c0.5-0.5,0.5-1.2,0-1.8c-0.2-0.3-0.5-0.4-0.9-0.4c-0.3,0-0.7,0.1-0.9,0.4c-1.4,1.4-3.1,3-4.8,4.8
		c-0.3,0.3-0.3,1-0.2,1.4C270.7,146.3,271,146.5,271.3,146.7z"/>
	<path fill="#7500D4" d="M243,173c-0.4,0-0.8,0.2-1.2,0.6c-0.7,0.7-1.4,1.4-2.1,2.1l-0.7,0.7c-0.2,0.2-0.3,0.3-0.5,0.5
		c-0.4,0.4-0.8,0.8-1.2,1.3c-0.3,0.3-0.4,1-0.2,1.4c0.1,0.3,0.4,0.5,0.6,0.7c0.1,0.1,0.2,0.1,0.3,0.2l0.1,0.1l0.2-0.1
		c0.1-0.1,0.2-0.2,0.4-0.2c0.2-0.1,0.5-0.3,0.6-0.4c1.5-1.4,2.9-2.9,4.3-4.3c0.7-0.7,0.8-1.4,0.2-2C243.6,173.2,243.3,173,243,173z"
		/>
	<path fill="#7500D4" d="M241.2,145.6l0.6,0.6c0.4,0.4,0.8,0.6,1.2,0.6c0,0,0,0,0,0c0.3,0,0.6-0.1,0.8-0.4c0.6-0.6,0.5-1.3-0.2-2.1
		c-1.5-1.6-3-3-4.3-4.3c-0.2-0.2-0.4-0.3-0.6-0.4c-0.1-0.1-0.2-0.1-0.4-0.2l-0.2-0.1l-0.1,0.1c-0.1,0.1-0.2,0.1-0.3,0.2
		c-0.3,0.2-0.6,0.4-0.6,0.7c-0.1,0.4,0,1.1,0.3,1.4C238.6,143.1,239.9,144.4,241.2,145.6z"/>
	<path fill="#7500D4" d="M256,139.5c0,0.4,0.2,0.8,0.4,1c0.2,0.2,0.5,0.3,0.8,0.3c0,0,0.1,0,0.1,0c0.8-0.1,1.2-0.5,1.2-1.3
		c0-2.4,0-4.6,0-6.5c0-0.8-0.5-1.4-1.3-1.4c0,0,0,0,0,0c-0.8,0-1.3,0.5-1.3,1.4c0,0.8,0,1.5,0,2.3l0,0.9c0,0.3,0,0.7,0,1
		C256,137.9,256,138.7,256,139.5z"/>
	<path fill="#7500D4" d="M238.2,159.9c0-0.8-0.6-1.3-1.6-1.3c-2,0-4,0-6.1,0c-0.5,0-0.9,0.2-1.2,0.4c-0.2,0.2-0.3,0.6-0.3,0.9
		c0,0.5,0.2,1.2,1.5,1.3c0.4,0,0.8,0,1.2,0c0.3,0,0.6,0,0.9,0l0.9,0l0.9,0c0.7,0,1.4,0,2.1,0C237.6,161.2,238.2,160.7,238.2,159.9z"
		/>
	<path fill="#7500D4" d="M254.3,158.5c-0.7-0.7-1.4-0.7-2-0.1c-0.6,0.6-0.5,1.3,0.2,2l0.5,0.5c0.9,0.9,1.8,1.8,2.6,2.6
		c0.3,0.3,0.4,0.6,0.4,1.1c0,2.8,0,5.7,0,8.5l0,2.8l0,0.3c0,0.3,0,0.6,0,0.9c0,0.4,0.2,0.8,0.5,1c0.2,0.2,0.5,0.3,0.8,0.3
		c0,0,0.1,0,0.1,0c0.8-0.1,1.2-0.5,1.3-1.3c0-0.1,0-0.3,0-0.4l0-0.2c0-1,0-2,0-3.1c0-2.6,0-5.3,0-7.9c0-1.1,0.3-1.9,1-2.5
		c1-0.9,1.9-1.8,2.7-2.7c0.3-0.3,0.5-0.9,0.4-1.4c-0.1-0.4-0.6-0.8-1.1-0.9c-0.4,0-1,0.2-1.3,0.5c-0.8,0.7-1.5,1.5-2.3,2.3
		c-0.2,0.2-0.5,0.5-0.7,0.7l-0.8-0.8C255.7,160,255,159.3,254.3,158.5z"/>
</g>
<g>
	<path fill="#7500D4" d="M377.9,139.8c-0.8-4.5-3.7-7.2-7.9-7.1c-5.5,0.1-11.1,0.1-16.5,0.1c-2.3,0-4.6,0-7,0l-5.3,0
		c-4.6,0-9.1,0-13.7,0c0,0,0,0,0,0c-2,0-3.7,0.8-5.1,2.4c-1.5,1.8-2.2,4-2.2,6.7l0,43.9c-0.2,0-0.3,0-0.5,0c-0.8,0-1.7,0-2.5,0.1
		c-1.2,0.1-2.1,1-2.2,2.1c0,0.6,0,1.2,0.2,2c1,3.7,3.7,5.9,7.4,5.9c0.1,0,0.1,0,0.2,0c5.4-0.1,10.8-0.1,16.1-0.1c2.2,0,4.5,0,6.7,0
		l4,0c3.2,0,6.3,0,9.5,0c0,0,0,0,0,0c2,0,3.6-0.8,4.9-2.3c1.5-1.8,2.3-4.1,2.3-6.9c0-10.8,0-21.7,0-32.5v-11.4l1.5,0
		c1.6,0,3.1,0,4.6,0l0.7,0c0.8,0,1.7,0,2.5-0.1c0.7-0.1,1.4-0.4,1.8-1C377.9,141.2,378,140.5,377.9,139.8z M364.2,180.9
		c0,2,0,3.9,0,5.9c0,1.7-0.4,3.1-1.1,4.4c-1,1.7-2.1,2.5-3.6,2.5c0,0,0,0,0,0c-2,0-3.1-1.4-3.7-2.6c-0.4-0.8-0.7-1.6-0.9-2.7
		c-0.4-1.8-1.3-2.5-3-2.5l-21.5,0h-7.8v-9.7c0-11.4,0-22.8,0-34.2c0-2.1,0.5-3.7,1.5-5.1c0.9-1.3,2.1-1.9,3.5-1.9l39,0
		c-1.6,1.8-2.4,3.9-2.4,6.3c0,9.1,0,18.2,0,27.3L364.2,180.9z M354.9,193.7h-1c-2.9,0-5.8,0-8.7,0c-7.2,0-14.7,0-22,0.1
		c-2.9,0-4.7-1.3-5.6-4.2c-0.1-0.3-0.3-1.1-0.2-1.3c0.1-0.2,0.9-0.2,1.3-0.2h11h21.9c0.9,0,0.9,0,1.1,1
		C353,190.9,353.7,192.4,354.9,193.7z M374.1,136.5c0.9,1.1,1.3,2.4,1.6,3.6c0,0.1,0,0.2,0,0.3c0,0-0.2,0.2-0.6,0.2
		c-1.5,0-3,0-4.4,0l-4.2,0c0.1-1.4,0.6-2.6,1.4-3.7c0.8-1.1,1.9-1.8,3-1.9C372,134.9,373.2,135.4,374.1,136.5z"/>
	<path fill="#7500D4" d="M333.8,165.4c2,1.2,3.9,2.3,5.9,3.4l1.4,0.8c0.8,0.5,1.6,0.7,2.5,0.7c0.8,0,1.6-0.2,2.4-0.7
		c2.4-1.4,4.7-2.7,7.1-4c1.7-1,2.6-2.5,2.5-4.5c0-0.9,0-1.7,0-2.6l0-1.2l0-0.4c0-0.3,0-0.7,0-1c0-1,0-2.1,0-3.1
		c-0.1-1.6-0.7-2.8-2-3.5c-1.7-1-3.4-2-5.1-2.9c-0.9-0.5-1.7-1-2.6-1.5c-1.6-0.9-3.2-0.9-4.8,0l-2.1,1.2c-1.7,1-3.5,2-5.3,3
		c-1.4,0.8-2.1,2-2.1,3.4c0,2.9,0,6,0,9.2C331.6,163.3,332.4,164.5,333.8,165.4z M351.6,151.4c-0.8,0.5-1.6,0.9-2.4,1.4l-1.7,1
		c-1.2,0.7-2.4,1.3-3.5,2c-0.3,0.2-0.4,0.2-0.7,0c-1.4-0.8-2.8-1.7-4.3-2.5l-4-2.3l0.2-0.1c0.6-0.4,1.2-0.7,1.8-1
		c0.6-0.3,1.1-0.6,1.7-1c1.1-0.6,2.2-1.3,3.3-1.9c1.1-0.7,2.2-0.7,3.3,0c1.6,0.9,3.2,1.9,4.8,2.8c0.7,0.4,1.5,0.9,2.2,1.3
		L351.6,151.4z M344.7,167.8v-1.4c0-2.8,0-5.6,0-8.3c0,0,0-0.1,0.1-0.2c2.5-1.4,5-2.9,7.5-4.3l1.1-0.6c0,0.1,0,0.1,0,0.2
		c0,1.7,0,3.5,0,5.2l0,2.9c0,1-0.4,1.8-1.3,2.3l-0.6,0.4c-2.2,1.3-4.4,2.5-6.6,3.8C344.7,167.7,344.7,167.8,344.7,167.8z
		 M342.1,157.7c0.2,0.1,0.3,0.3,0.3,0.4c0,2.8,0,5.6,0,8.4l0,1.3l-0.2-0.1c-0.5-0.3-0.9-0.5-1.4-0.8c-0.7-0.4-1.4-0.8-2-1.2
		c-1.2-0.7-2.3-1.3-3.5-2c-1.1-0.6-1.6-1.4-1.6-2.6c0-1.6,0-3.2,0-4.7l0-3.2c0-0.1,0-0.2,0-0.3l0.3,0.2c0.5,0.3,1,0.6,1.5,0.8
		l1.1,0.6C338.5,155.6,340.3,156.6,342.1,157.7z"/>
	<path fill="#7500D4" d="M357.6,173.2c-3.2,0-6.4,0-9.6,0l-3.7,0l-3.2,0c-3.4,0-6.8,0-10.1,0c-0.7,0-1.4,0.2-2,0.5
		c-0.9,0.5-1.7,1.1-2.5,1.6l-0.7,0.5c-0.6,0.4-1,1-1,1.6c0,0.6,0.3,1.2,0.9,1.6c0.5,0.3,0.9,0.6,1.4,0.9c0.5,0.3,1,0.7,1.5,1
		c0.8,0.5,1.6,0.8,2.6,0.8c0,0,0,0,0,0c6,0,12,0,18.1,0l8.2,0c0.4,0,0.7,0,1.1,0c1.3-0.1,2.4-0.8,3.1-1.8c0.7-1.1,0.9-2.4,0.5-3.6
		C361.5,174.3,359.9,173.2,357.6,173.2z M329,176.4v2.2l-1.7-1.1l0,0L329,176.4z M359.8,178.6c-0.5,0.7-1.1,1-2.2,1v-4.1
		c1.1-0.1,1.8,0.2,2.3,1C360.3,177.2,360.3,177.9,359.8,178.6z M355.3,175.4v3.2c0,0.4,0,0.8,0,0.8c-0.1,0-0.3,0-0.6,0v-4.1H355.3z
		 M352.2,179.5c-0.1,0-0.1,0-0.2,0h-20.8v-4h21.2l0,0.5c0,1.2,0,2.3,0,3.5c0,0-0.1,0-0.1,0.1C352.3,179.5,352.2,179.5,352.2,179.5z"
		/>
	<path fill="#7500D4" d="M361.1,136.6c-1.3,0-2.7,0-4,0l-1.5,0l-1.2,0c-1,0-2,0-3.1,0c-0.5,0-1,0.3-1.2,0.7c-0.2,0.3-0.1,0.7,0.1,1
		c0.3,0.3,0.8,0.5,1.2,0.5c0.8,0,1.5,0,2.3,0c0.4,0,0.8,0,1.2,0l1.2,0l4.8,0c0.3,0,1.3,0,1.4-1.1c0-0.4-0.1-0.6-0.2-0.8
		C362,136.8,361.6,136.6,361.1,136.6z"/>
	<path fill="#7500D4" d="M361.1,140.5c-1.9,0-3.9,0-5.8,0c-0.5,0-0.9,0.1-1.1,0.4c-0.2,0.2-0.3,0.5-0.2,0.8c0.1,0.5,0.3,1,1.4,1
		c0,0,0,0,0,0c0.7,0,1.4,0,2,0l1.7,0c0.7,0,1.4,0,2.1,0c1.1,0,1.3-0.6,1.3-1.1c0-0.3-0.1-0.6-0.3-0.8
		C361.9,140.6,361.6,140.5,361.1,140.5z"/>
</g>
<g id="lAtEUK_00000147220384126541767460000001318683177552454039_">
	<g>
		<g>
			<path fill="#7500D4" d="M427,140.6c0-1.1,0-2.1,0-3.1c-0.1-2.1,1.2-4.3,4-4.3c3,0,6-0.1,9,0c2.2,0.1,4,2,4.1,4.2c0,1,0,2.1,0,3.2
				c0.3,0,0.6,0,0.8,0c3.3,0,6.7,0,10,0c2.7,0,4.1,1.4,4.1,4.1c0,15.5,0,31,0,46.5c0,2.5-1.4,4-4,4c-13.1,0-26.2,0-39.2,0
				c-2.4,0-3.9-1.5-3.9-3.9c0-15.7,0-31.3,0-47c0-2.2,1.6-3.7,3.9-3.7c3.4,0,6.8,0,10.2,0C426.4,140.6,426.7,140.6,427,140.6z
				 M414.2,167.8c0,7.8,0,15.5,0,23.3c0,1.5,0.4,1.9,1.9,1.9c13,0,26,0,39,0c1.6,0,2-0.4,2-2c0-15.4,0-30.9,0-46.3c0-1.6-0.4-2-2-2
				c-13,0-25.9,0-38.9,0c-1.5,0-1.9,0.4-1.9,2C414.2,152.4,414.2,160.1,414.2,167.8z M442,140.5c0-1,0-1.9,0-2.8
				c0-1.9-0.6-2.5-2.5-2.5c-2.6,0-5.2,0-7.8,0c-0.4,0-0.8,0-1.1,0.1c-0.6,0.2-1.3,0.5-1.3,1.2c-0.1,1.3,0,2.6,0,4
				C433.5,140.5,437.7,140.5,442,140.5z"/>
		</g>
		<g>
			<path fill="#7500D4" d="M441.9,181.3c-3.4,0-6.8,0-10.2,0c-0.3,0-0.6,0-0.9-0.1c-0.5-0.1-0.8-0.5-0.8-1.1c0-0.5,0.3-0.9,0.9-1
				c0.2,0,0.5,0,0.7,0c6.8,0,13.6,0,20.4,0c1.2,0,1.6,0.3,1.7,1c0,0.8-0.5,1.1-1.7,1.1C448.7,181.3,445.3,181.3,441.9,181.3z"/>
		</g>
		<g>
			<path fill="#7500D4" d="M441.9,153.4c3.4,0,6.8,0,10.3,0c0.3,0,0.6-0.1,0.8,0.1c0.3,0.2,0.7,0.6,0.7,0.9c0,0.3-0.3,0.7-0.6,1
				c-0.2,0.2-0.6,0.1-0.9,0.1c-6.9,0-13.7,0-20.6,0c-0.1,0-0.2,0-0.4,0c-0.7,0-1.1-0.5-1.1-1.1c0-0.6,0.4-1,1.1-1c1.6,0,3.3,0,4.9,0
				C438,153.4,440,153.4,441.9,153.4z"/>
		</g>
		<g>
			<path fill="#7500D4" d="M441.9,168.4c-3.5,0-7,0-10.5,0c-0.6,0-1.1-0.1-1.3-0.7c-0.2-0.7,0.1-1.3,0.8-1.4c0.3,0,0.5,0,0.8,0
				c6.7,0,13.5,0,20.2,0c0.1,0,0.1,0,0.2,0c1,0,1.5,0.3,1.5,1.1c0,0.7-0.5,1.1-1.5,1.1C448.8,168.4,445.4,168.4,441.9,168.4z"/>
		</g>
		<g>
			<path fill="#7500D4" d="M428.1,182.9c0,2.6-2.2,4.8-4.9,4.7c-2.6,0-4.7-2.2-4.7-4.9c0-2.6,2.2-4.7,4.8-4.7
				C425.9,178,428.1,180.2,428.1,182.9z M425.9,182.9c0-1.5-1.1-2.7-2.6-2.7c-1.5,0-2.7,1.1-2.7,2.6c0,1.5,1.1,2.7,2.7,2.7
				C424.7,185.5,425.9,184.4,425.9,182.9z"/>
		</g>
		<g>
			<path fill="#7500D4" d="M443.7,157.7c2.8,0,5.5,0,8.3,0c0.3,0,0.6,0,0.9,0c0.6,0.1,0.8,0.5,0.8,1c0,0.5-0.2,0.9-0.8,1.1
				c-0.3,0.1-0.5,0.1-0.8,0.1c-5.6,0-11.3,0-16.9,0c-0.3,0-0.6,0-0.9-0.1c-0.5-0.2-0.7-0.5-0.7-1c0-0.5,0.3-0.9,0.8-1
				c0.3,0,0.6-0.1,0.9-0.1C438.1,157.7,440.9,157.7,443.7,157.7z"/>
		</g>
		<g>
			<path fill="#7500D4" d="M443.7,185.5c-2.9,0-5.8,0-8.7,0c-0.9,0-1.3-0.3-1.3-1c0-0.7,0.4-1.1,1.3-1.1c5.8,0,11.7,0,17.5,0
				c1.1,0,1.7,0.9,1.2,1.6c-0.2,0.3-0.7,0.5-1.1,0.5C449.6,185.5,446.6,185.5,443.7,185.5z"/>
		</g>
		<g>
			<path fill="#7500D4" d="M443.7,172.7c-2.8,0-5.6,0-8.4,0c-0.3,0-0.5,0-0.8,0c-0.5-0.1-0.8-0.5-0.8-1c0-0.5,0.2-0.9,0.7-1
				c0.3-0.1,0.6-0.1,0.9-0.1c5.6,0,11.2,0,16.8,0c0.3,0,0.5,0,0.8,0.1c0.6,0.1,0.8,0.5,0.8,1c0,0.5-0.3,0.9-0.8,1
				c-0.2,0-0.5,0-0.7,0C449.3,172.7,446.5,172.7,443.7,172.7z"/>
		</g>
		<g>
			<path fill="#7500D4" d="M435.6,148.1c-2.4,0-4.8,0-7.2,0c-0.9,0-1.3-0.4-1.4-1c0-0.7,0.5-1.1,1.4-1.1c4.8,0,9.6,0,14.4,0
				c0.4,0,0.9,0.1,1.1,0.4c0.2,0.3,0.3,0.8,0.1,1.1c-0.2,0.3-0.7,0.6-1,0.6C440.5,148.1,438.1,148.1,435.6,148.1z"/>
		</g>
		<g>
			<path fill="#7500D4" d="M422.7,169.1c1.6-1.6,3-3,4.5-4.5c0.6-0.6,1.2-0.6,1.7-0.2c0.5,0.5,0.4,1-0.1,1.7
				c-1.7,1.7-3.4,3.5-5.2,5.2c-0.6,0.6-1.1,0.5-1.7,0c-1-1-2.1-2-3.1-3.1c-0.5-0.5-0.6-1-0.1-1.5c0.5-0.5,1.1-0.5,1.6,0
				C421.1,167.4,421.8,168.2,422.7,169.1z"/>
		</g>
		<g>
			<path fill="#7500D4" d="M422.7,156.1c1.5-1.4,2.9-2.8,4.3-4.2c0.2-0.2,0.3-0.4,0.5-0.4c0.4-0.1,0.9-0.1,1.3,0
				c0.5,0.2,0.6,0.8,0.3,1.3c-0.1,0.2-0.3,0.4-0.5,0.6c-1.6,1.6-3.2,3.2-4.8,4.8c-0.8,0.8-1.2,0.8-2,0c-0.9-0.9-1.9-1.9-2.8-2.8
				c-0.6-0.6-0.6-1.2-0.1-1.7c0.5-0.5,1-0.4,1.6,0.2C421.2,154.6,421.9,155.4,422.7,156.1z"/>
		</g>
	</g>
</g>
</svg>
