<?xml version="1.0" encoding="utf-8"?>
<!-- Generator: Adobe Illustrator 26.3.1, SVG Export Plug-In . SVG Version: 6.00 Build 0)  -->
<svg version="1.1" baseProfile="tiny" id="Layer_1" xmlns="http://www.w3.org/2000/svg" xmlns:xlink="http://www.w3.org/1999/xlink"
	 x="0px" y="0px" viewBox="0 0 514.7 284.4" overflow="visible" xml:space="preserve">
<path fill="#F2EDED" d="M498.7,284.4H16c-8.8,0-16-7.1-16-16V16C0,7.1,7.1,0,16,0h482.7c8.8,0,16,7.1,16,16v252.5
	C514.7,277.2,507.5,284.4,498.7,284.4z"/>
<g>
	<path fill="#363636" d="M63.2,228.8l-2.4,8.4h-1.2l-1.9-6.7l-2,6.7l-1.2,0l-2.3-8.4h1.2l1.8,7.1l2-7.1h1.2l1.9,7.1l1.8-7.1H63.2z"
		/>
	<path fill="#363636" d="M69,230.8c0.4,0.2,0.7,0.5,0.9,1c0.2,0.4,0.3,0.9,0.3,1.5v3.9h-1.1v-3.7c0-0.7-0.2-1.2-0.5-1.5
		c-0.3-0.3-0.8-0.5-1.3-0.5c-0.6,0-1,0.2-1.4,0.5c-0.3,0.4-0.5,0.9-0.5,1.6v3.6h-1.1v-8.9h1.1v3.2c0.2-0.3,0.5-0.6,0.9-0.8
		c0.4-0.2,0.8-0.3,1.3-0.3C68.2,230.5,68.6,230.6,69,230.8z"/>
	<path fill="#363636" d="M72.2,229.3c-0.1-0.1-0.2-0.3-0.2-0.5c0-0.2,0.1-0.4,0.2-0.5c0.1-0.1,0.3-0.2,0.5-0.2
		c0.2,0,0.4,0.1,0.5,0.2c0.1,0.1,0.2,0.3,0.2,0.5c0,0.2-0.1,0.4-0.2,0.5c-0.1,0.1-0.3,0.2-0.5,0.2C72.5,229.5,72.3,229.5,72.2,229.3
		z M73.2,230.6v6.6h-1.1v-6.6H73.2z"/>
	<path fill="#363636" d="M76.4,231.5v3.9c0,0.3,0.1,0.5,0.2,0.7c0.1,0.1,0.4,0.2,0.7,0.2h0.8v0.9h-1c-0.6,0-1.1-0.1-1.4-0.4
		c-0.3-0.3-0.5-0.7-0.5-1.4v-3.9h-0.9v-0.9h0.9v-1.7h1.1v1.7h1.7v0.9H76.4z"/>
	<path fill="#363636" d="M85.4,234.3h-5.3c0,0.6,0.3,1.2,0.7,1.5c0.4,0.4,0.9,0.5,1.5,0.5c0.5,0,0.9-0.1,1.2-0.3
		c0.3-0.2,0.5-0.5,0.7-0.9h1.2c-0.2,0.6-0.5,1.1-1.1,1.5c-0.5,0.4-1.2,0.6-2,0.6c-0.6,0-1.2-0.1-1.7-0.4c-0.5-0.3-0.9-0.7-1.2-1.2
		c-0.3-0.5-0.4-1.1-0.4-1.8s0.1-1.3,0.4-1.8c0.3-0.5,0.7-0.9,1.1-1.2c0.5-0.3,1.1-0.4,1.7-0.4c0.6,0,1.2,0.1,1.7,0.4
		c0.5,0.3,0.9,0.6,1.1,1.1c0.3,0.5,0.4,1,0.4,1.6C85.4,233.8,85.4,234.1,85.4,234.3z M84,232.3c-0.2-0.3-0.4-0.5-0.8-0.7
		s-0.7-0.2-1-0.2c-0.6,0-1,0.2-1.4,0.5c-0.4,0.4-0.6,0.8-0.7,1.5h4.2C84.3,233,84.2,232.6,84,232.3z"/>
	<path fill="#363636" d="M89,230.9c0.4-0.2,0.9-0.4,1.5-0.4c0.6,0,1.1,0.1,1.6,0.4c0.5,0.3,0.8,0.7,1.1,1.2s0.4,1.1,0.4,1.8
		c0,0.7-0.1,1.3-0.4,1.8c-0.3,0.5-0.6,0.9-1.1,1.2s-1,0.4-1.6,0.4c-0.6,0-1.1-0.1-1.5-0.4c-0.4-0.2-0.8-0.6-1-0.9v1.2h-1.1v-8.9H88
		v3.5C88.2,231.4,88.5,231.1,89,230.9z M92.1,232.6c-0.2-0.4-0.5-0.6-0.8-0.8c-0.3-0.2-0.7-0.3-1.1-0.3c-0.4,0-0.8,0.1-1.1,0.3
		c-0.3,0.2-0.6,0.5-0.8,0.9c-0.2,0.4-0.3,0.8-0.3,1.3c0,0.5,0.1,0.9,0.3,1.3c0.2,0.4,0.5,0.7,0.8,0.9c0.3,0.2,0.7,0.3,1.1,0.3
		c0.4,0,0.8-0.1,1.1-0.3c0.3-0.2,0.6-0.5,0.8-0.9c0.2-0.4,0.3-0.8,0.3-1.3C92.4,233.4,92.3,232.9,92.1,232.6z"/>
	<path fill="#363636" d="M96.2,236.9c-0.5-0.3-0.9-0.7-1.2-1.2c-0.3-0.5-0.4-1.1-0.4-1.8c0-0.7,0.1-1.3,0.4-1.8
		c0.3-0.5,0.7-0.9,1.2-1.2c0.5-0.3,1.1-0.4,1.7-0.4s1.2,0.1,1.7,0.4c0.5,0.3,0.9,0.7,1.2,1.2c0.3,0.5,0.4,1.1,0.4,1.8
		s-0.1,1.3-0.5,1.8c-0.3,0.5-0.7,0.9-1.2,1.2c-0.5,0.3-1.1,0.4-1.7,0.4C97.2,237.3,96.7,237.1,96.2,236.9z M99,236
		c0.3-0.2,0.6-0.5,0.8-0.8s0.3-0.8,0.3-1.3c0-0.5-0.1-1-0.3-1.3c-0.2-0.4-0.5-0.6-0.8-0.8c-0.3-0.2-0.7-0.3-1.1-0.3
		c-0.4,0-0.8,0.1-1.1,0.3c-0.3,0.2-0.6,0.5-0.8,0.8c-0.2,0.4-0.3,0.8-0.3,1.3c0,0.5,0.1,1,0.3,1.4c0.2,0.4,0.5,0.6,0.8,0.8
		s0.7,0.3,1.1,0.3S98.6,236.2,99,236z"/>
	<path fill="#363636" d="M102.7,232.1c0.3-0.5,0.6-0.9,1.1-1.2c0.5-0.3,1-0.4,1.6-0.4c0.6,0,1.1,0.1,1.5,0.4
		c0.4,0.2,0.7,0.6,0.9,0.9v-1.2h1.1v6.6h-1.1v-1.2c-0.2,0.4-0.5,0.7-1,1c-0.4,0.3-0.9,0.4-1.5,0.4c-0.6,0-1.1-0.1-1.6-0.4
		c-0.5-0.3-0.8-0.7-1.1-1.2c-0.3-0.5-0.4-1.1-0.4-1.8C102.3,233.2,102.4,232.6,102.7,232.1z M107.5,232.6c-0.2-0.4-0.5-0.6-0.8-0.8
		c-0.3-0.2-0.7-0.3-1.1-0.3c-0.4,0-0.8,0.1-1.1,0.3s-0.6,0.5-0.8,0.8c-0.2,0.4-0.3,0.8-0.3,1.3c0,0.5,0.1,0.9,0.3,1.3
		c0.2,0.4,0.5,0.7,0.8,0.9c0.3,0.2,0.7,0.3,1.1,0.3c0.4,0,0.8-0.1,1.1-0.3c0.3-0.2,0.6-0.5,0.8-0.9c0.2-0.4,0.3-0.8,0.3-1.3
		S107.7,232.9,107.5,232.6z"/>
	<path fill="#363636" d="M112.7,230.8c0.4-0.2,0.8-0.3,1.3-0.3v1.1h-0.3c-1.2,0-1.8,0.7-1.8,2v3.6h-1.1v-6.6h1.1v1.1
		C112.1,231.3,112.3,231,112.7,230.8z"/>
	<path fill="#363636" d="M115.3,232.1c0.3-0.5,0.6-0.9,1.1-1.2c0.5-0.3,1-0.4,1.6-0.4c0.5,0,1,0.1,1.4,0.4c0.4,0.2,0.8,0.5,1,0.9
		v-3.5h1.1v8.9h-1.1v-1.2c-0.2,0.4-0.5,0.7-1,1c-0.4,0.3-0.9,0.4-1.5,0.4c-0.6,0-1.1-0.1-1.6-0.4s-0.9-0.7-1.1-1.2
		c-0.3-0.5-0.4-1.1-0.4-1.8C114.8,233.2,115,232.6,115.3,232.1z M120.1,232.6c-0.2-0.4-0.5-0.6-0.8-0.8c-0.3-0.2-0.7-0.3-1.1-0.3
		c-0.4,0-0.8,0.1-1.1,0.3s-0.6,0.5-0.8,0.8c-0.2,0.4-0.3,0.8-0.3,1.3c0,0.5,0.1,0.9,0.3,1.3c0.2,0.4,0.5,0.7,0.8,0.9
		c0.3,0.2,0.7,0.3,1.1,0.3c0.4,0,0.8-0.1,1.1-0.3c0.3-0.2,0.6-0.5,0.8-0.9c0.2-0.4,0.3-0.8,0.3-1.3S120.3,232.9,120.1,232.6z"/>
	<path fill="#363636" d="M124.3,237c-0.4-0.2-0.7-0.4-0.9-0.7c-0.2-0.3-0.4-0.7-0.4-1.1h1.1c0,0.3,0.2,0.6,0.5,0.8
		c0.3,0.2,0.6,0.3,1.1,0.3c0.4,0,0.7-0.1,1-0.3c0.2-0.2,0.4-0.4,0.4-0.7c0-0.3-0.1-0.5-0.4-0.6c-0.3-0.1-0.7-0.3-1.2-0.4
		c-0.5-0.1-0.9-0.3-1.2-0.4c-0.3-0.1-0.6-0.3-0.8-0.6c-0.2-0.3-0.3-0.6-0.3-1c0-0.3,0.1-0.6,0.3-0.9c0.2-0.3,0.5-0.5,0.9-0.7
		c0.4-0.2,0.8-0.2,1.3-0.2c0.7,0,1.3,0.2,1.8,0.6c0.4,0.4,0.7,0.9,0.7,1.5h-1.1c0-0.3-0.2-0.6-0.4-0.8s-0.6-0.3-1-0.3
		c-0.4,0-0.7,0.1-0.9,0.3c-0.2,0.2-0.3,0.4-0.3,0.7c0,0.2,0.1,0.4,0.2,0.5c0.1,0.1,0.3,0.3,0.5,0.3c0.2,0.1,0.5,0.2,0.9,0.3
		c0.5,0.1,0.9,0.3,1.2,0.4s0.5,0.3,0.8,0.6s0.3,0.6,0.3,1c0,0.4-0.1,0.7-0.3,1c-0.2,0.3-0.5,0.5-0.8,0.7c-0.4,0.2-0.8,0.2-1.3,0.2
		C125.2,237.3,124.7,237.2,124.3,237z"/>
</g>
<g>
	<path fill="#363636" d="M227.5,237.2l-2-3.4h-1.3v3.4h-1.1v-8.4h2.7c0.6,0,1.2,0.1,1.6,0.3s0.8,0.5,1,0.9c0.2,0.4,0.3,0.8,0.3,1.3
		c0,0.6-0.2,1.1-0.5,1.5s-0.8,0.7-1.5,0.9l2.1,3.5H227.5z M224.2,232.9h1.6c0.6,0,1-0.1,1.3-0.4s0.4-0.7,0.4-1.2
		c0-0.5-0.1-0.9-0.4-1.2c-0.3-0.3-0.7-0.4-1.3-0.4h-1.6V232.9z"/>
	<path fill="#363636" d="M236.4,234.3h-5.3c0,0.6,0.3,1.2,0.7,1.5c0.4,0.4,0.9,0.5,1.5,0.5c0.5,0,0.9-0.1,1.2-0.3
		c0.3-0.2,0.5-0.5,0.7-0.9h1.2c-0.2,0.6-0.5,1.1-1.1,1.5c-0.5,0.4-1.2,0.6-2,0.6c-0.6,0-1.2-0.1-1.7-0.4c-0.5-0.3-0.9-0.7-1.2-1.2
		c-0.3-0.5-0.4-1.1-0.4-1.8s0.1-1.3,0.4-1.8c0.3-0.5,0.7-0.9,1.1-1.2c0.5-0.3,1.1-0.4,1.7-0.4c0.6,0,1.2,0.1,1.7,0.4
		c0.5,0.3,0.9,0.6,1.1,1.1c0.3,0.5,0.4,1,0.4,1.6C236.4,233.8,236.4,234.1,236.4,234.3z M235,232.3c-0.2-0.3-0.4-0.5-0.8-0.7
		s-0.7-0.2-1-0.2c-0.6,0-1,0.2-1.4,0.5c-0.4,0.4-0.6,0.8-0.7,1.5h4.2C235.3,233,235.2,232.6,235,232.3z"/>
	<path fill="#363636" d="M247.1,230.8c0.4,0.2,0.7,0.5,0.9,1c0.2,0.4,0.3,0.9,0.3,1.5v3.9h-1.1v-3.7c0-0.7-0.2-1.2-0.5-1.5
		c-0.3-0.3-0.8-0.5-1.3-0.5c-0.6,0-1,0.2-1.4,0.5c-0.3,0.4-0.5,0.9-0.5,1.6v3.6h-1.1v-3.7c0-0.7-0.2-1.2-0.5-1.5
		c-0.3-0.3-0.8-0.5-1.3-0.5c-0.6,0-1,0.2-1.4,0.5s-0.5,0.9-0.5,1.6v3.6h-1.1v-6.6h1.1v0.9c0.2-0.3,0.5-0.6,0.9-0.8
		c0.4-0.2,0.8-0.3,1.2-0.3c0.6,0,1,0.1,1.5,0.4c0.4,0.2,0.7,0.6,0.9,1.1c0.2-0.5,0.5-0.8,0.9-1.1c0.4-0.3,0.9-0.4,1.4-0.4
		C246.3,230.5,246.7,230.6,247.1,230.8z"/>
	<path fill="#363636" d="M251.4,236.9c-0.5-0.3-0.9-0.7-1.2-1.2c-0.3-0.5-0.4-1.1-0.4-1.8c0-0.7,0.1-1.3,0.4-1.8
		c0.3-0.5,0.7-0.9,1.2-1.2c0.5-0.3,1.1-0.4,1.7-0.4s1.2,0.1,1.7,0.4c0.5,0.3,0.9,0.7,1.2,1.2c0.3,0.5,0.4,1.1,0.4,1.8
		s-0.1,1.3-0.5,1.8c-0.3,0.5-0.7,0.9-1.2,1.2c-0.5,0.3-1.1,0.4-1.7,0.4C252.5,237.3,251.9,237.1,251.4,236.9z M254.2,236
		c0.3-0.2,0.6-0.5,0.8-0.8s0.3-0.8,0.3-1.3c0-0.5-0.1-1-0.3-1.3c-0.2-0.4-0.5-0.6-0.8-0.8c-0.3-0.2-0.7-0.3-1.1-0.3
		c-0.4,0-0.8,0.1-1.1,0.3c-0.3,0.2-0.6,0.5-0.8,0.8c-0.2,0.4-0.3,0.8-0.3,1.3c0,0.5,0.1,1,0.3,1.4c0.2,0.4,0.5,0.6,0.8,0.8
		s0.7,0.3,1.1,0.3S253.9,236.2,254.2,236z"/>
	<path fill="#363636" d="M259.2,231.5v3.9c0,0.3,0.1,0.5,0.2,0.7c0.1,0.1,0.4,0.2,0.7,0.2h0.8v0.9h-1c-0.6,0-1.1-0.1-1.4-0.4
		c-0.3-0.3-0.5-0.7-0.5-1.4v-3.9h-0.9v-0.9h0.9v-1.7h1.1v1.7h1.7v0.9H259.2z"/>
	<path fill="#363636" d="M268.2,234.3H263c0,0.6,0.3,1.2,0.7,1.5c0.4,0.4,0.9,0.5,1.5,0.5c0.5,0,0.9-0.1,1.2-0.3
		c0.3-0.2,0.5-0.5,0.7-0.9h1.2c-0.2,0.6-0.5,1.1-1.1,1.5c-0.5,0.4-1.2,0.6-2,0.6c-0.6,0-1.2-0.1-1.7-0.4c-0.5-0.3-0.9-0.7-1.2-1.2
		c-0.3-0.5-0.4-1.1-0.4-1.8s0.1-1.3,0.4-1.8c0.3-0.5,0.7-0.9,1.1-1.2c0.5-0.3,1.1-0.4,1.7-0.4c0.6,0,1.2,0.1,1.7,0.4
		c0.5,0.3,0.9,0.6,1.1,1.1c0.3,0.5,0.4,1,0.4,1.6C268.3,233.8,268.3,234.1,268.2,234.3z M266.9,232.3c-0.2-0.3-0.4-0.5-0.8-0.7
		c-0.3-0.2-0.7-0.2-1-0.2c-0.6,0-1,0.2-1.4,0.5c-0.4,0.4-0.6,0.8-0.7,1.5h4.2C267.2,233,267.1,232.6,266.9,232.3z"/>
	<path fill="#363636" d="M273.1,230.8c0.4-0.7,0.9-1.2,1.5-1.5c0.6-0.4,1.3-0.6,2.1-0.6c0.9,0,1.7,0.2,2.4,0.7
		c0.7,0.4,1.2,1.1,1.5,1.9h-1.3c-0.2-0.5-0.6-0.9-1-1.2c-0.4-0.3-1-0.4-1.6-0.4c-0.6,0-1.1,0.1-1.6,0.4c-0.5,0.3-0.8,0.7-1.1,1.2
		c-0.3,0.5-0.4,1.1-0.4,1.8c0,0.7,0.1,1.2,0.4,1.7c0.3,0.5,0.6,0.9,1.1,1.2c0.5,0.3,1,0.4,1.6,0.4c0.6,0,1.1-0.1,1.6-0.4
		c0.4-0.3,0.8-0.7,1-1.2h1.3c-0.3,0.8-0.8,1.4-1.5,1.9c-0.7,0.4-1.5,0.7-2.4,0.7c-0.8,0-1.5-0.2-2.1-0.5c-0.6-0.4-1.1-0.9-1.5-1.5
		c-0.4-0.6-0.6-1.4-0.6-2.2C272.5,232.2,272.7,231.4,273.1,230.8z"/>
	<path fill="#363636" d="M282.2,232.1c0.3-0.5,0.6-0.9,1.1-1.2c0.5-0.3,1-0.4,1.6-0.4c0.6,0,1.1,0.1,1.5,0.4s0.7,0.6,0.9,0.9v-1.2
		h1.1v6.6h-1.1v-1.2c-0.2,0.4-0.5,0.7-1,1c-0.4,0.3-0.9,0.4-1.5,0.4c-0.6,0-1.1-0.1-1.6-0.4c-0.5-0.3-0.8-0.7-1.1-1.2
		c-0.3-0.5-0.4-1.1-0.4-1.8C281.8,233.2,281.9,232.6,282.2,232.1z M287,232.6c-0.2-0.4-0.5-0.6-0.8-0.8c-0.3-0.2-0.7-0.3-1.1-0.3
		s-0.8,0.1-1.1,0.3s-0.6,0.5-0.8,0.8s-0.3,0.8-0.3,1.3c0,0.5,0.1,0.9,0.3,1.3s0.5,0.7,0.8,0.9c0.3,0.2,0.7,0.3,1.1,0.3
		s0.8-0.1,1.1-0.3c0.3-0.2,0.6-0.5,0.8-0.9c0.2-0.4,0.3-0.8,0.3-1.3S287.2,232.9,287,232.6z"/>
	<path fill="#363636" d="M291.4,228.3v8.9h-1.1v-8.9H291.4z"/>
	<path fill="#363636" d="M294.3,228.3v8.9h-1.1v-8.9H294.3z"/>
</g>
<g>
	<path fill="#363636" d="M387,229.3c0.7,0.3,1.2,0.8,1.5,1.5c0.4,0.6,0.5,1.4,0.5,2.2s-0.2,1.6-0.5,2.2c-0.4,0.6-0.9,1.1-1.5,1.4
		s-1.5,0.5-2.4,0.5H382v-8.4h2.6C385.5,228.8,386.3,229,387,229.3z M387.1,235.4c0.6-0.6,0.9-1.4,0.9-2.4c0-1-0.3-1.9-0.9-2.4
		s-1.4-0.9-2.5-0.9h-1.5v6.6h1.5C385.7,236.3,386.5,236,387.1,235.4z"/>
	<path fill="#363636" d="M390.5,229.3c-0.1-0.1-0.2-0.3-0.2-0.5c0-0.2,0.1-0.4,0.2-0.5c0.1-0.1,0.3-0.2,0.5-0.2
		c0.2,0,0.4,0.1,0.5,0.2c0.1,0.1,0.2,0.3,0.2,0.5c0,0.2-0.1,0.4-0.2,0.5c-0.1,0.1-0.3,0.2-0.5,0.2
		C390.9,229.5,390.7,229.5,390.5,229.3z M391.6,230.6v6.6h-1.1v-6.6H391.6z"/>
	<path fill="#363636" d="M397.7,230.9c0.4,0.2,0.7,0.6,1,0.9v-1.2h1.1v6.7c0,0.6-0.1,1.1-0.4,1.6c-0.3,0.5-0.6,0.8-1.1,1.1
		c-0.5,0.3-1,0.4-1.7,0.4c-0.9,0-1.6-0.2-2.2-0.6c-0.6-0.4-0.9-1-1-1.7h1.1c0.1,0.4,0.4,0.7,0.7,1s0.8,0.4,1.4,0.4
		c0.6,0,1.1-0.2,1.5-0.6c0.4-0.4,0.6-0.9,0.6-1.6v-1.4c-0.2,0.4-0.5,0.7-1,1c-0.4,0.3-0.9,0.4-1.5,0.4c-0.6,0-1.1-0.1-1.6-0.4
		c-0.5-0.3-0.8-0.7-1.1-1.2c-0.3-0.5-0.4-1.1-0.4-1.8c0-0.7,0.1-1.3,0.4-1.8c0.3-0.5,0.6-0.9,1.1-1.2c0.5-0.3,1-0.4,1.6-0.4
		C396.7,230.5,397.2,230.6,397.7,230.9z M398.3,232.6c-0.2-0.4-0.5-0.6-0.8-0.8c-0.3-0.2-0.7-0.3-1.1-0.3c-0.4,0-0.8,0.1-1.1,0.3
		s-0.6,0.5-0.8,0.8c-0.2,0.4-0.3,0.8-0.3,1.3c0,0.5,0.1,0.9,0.3,1.3c0.2,0.4,0.5,0.7,0.8,0.9c0.3,0.2,0.7,0.3,1.1,0.3
		c0.4,0,0.8-0.1,1.1-0.3c0.3-0.2,0.6-0.5,0.8-0.9s0.3-0.8,0.3-1.3S398.5,232.9,398.3,232.6z"/>
	<path fill="#363636" d="M401.6,229.3c-0.1-0.1-0.2-0.3-0.2-0.5c0-0.2,0.1-0.4,0.2-0.5c0.1-0.1,0.3-0.2,0.5-0.2
		c0.2,0,0.4,0.1,0.5,0.2c0.1,0.1,0.2,0.3,0.2,0.5c0,0.2-0.1,0.4-0.2,0.5c-0.1,0.1-0.3,0.2-0.5,0.2
		C401.9,229.5,401.7,229.5,401.6,229.3z M402.7,230.6v6.6h-1.1v-6.6H402.7z"/>
	<path fill="#363636" d="M405.8,231.5v3.9c0,0.3,0.1,0.5,0.2,0.7c0.1,0.1,0.4,0.2,0.7,0.2h0.8v0.9h-1c-0.6,0-1.1-0.1-1.4-0.4
		c-0.3-0.3-0.5-0.7-0.5-1.4v-3.9h-0.9v-0.9h0.9v-1.7h1.1v1.7h1.7v0.9H405.8z"/>
	<path fill="#363636" d="M408.9,232.1c0.3-0.5,0.6-0.9,1.1-1.2c0.5-0.3,1-0.4,1.6-0.4c0.6,0,1.1,0.1,1.5,0.4
		c0.4,0.2,0.7,0.6,0.9,0.9v-1.2h1.1v6.6H414v-1.2c-0.2,0.4-0.5,0.7-1,1c-0.4,0.3-0.9,0.4-1.5,0.4c-0.6,0-1.1-0.1-1.6-0.4
		s-0.8-0.7-1.1-1.2c-0.3-0.5-0.4-1.1-0.4-1.8C408.5,233.2,408.6,232.6,408.9,232.1z M413.7,232.6c-0.2-0.4-0.5-0.6-0.8-0.8
		c-0.3-0.2-0.7-0.3-1.1-0.3c-0.4,0-0.8,0.1-1.1,0.3s-0.6,0.5-0.8,0.8c-0.2,0.4-0.3,0.8-0.3,1.3c0,0.5,0.1,0.9,0.3,1.3
		c0.2,0.4,0.5,0.7,0.8,0.9c0.3,0.2,0.7,0.3,1.1,0.3c0.4,0,0.8-0.1,1.1-0.3c0.3-0.2,0.6-0.5,0.8-0.9s0.3-0.8,0.3-1.3
		S413.9,232.9,413.7,232.6z"/>
	<path fill="#363636" d="M418.1,228.3v8.9H417v-8.9H418.1z"/>
	<path fill="#363636" d="M428.2,233.2c0.3,0.2,0.5,0.4,0.6,0.7c0.1,0.3,0.2,0.6,0.2,0.9c0,0.4-0.1,0.8-0.3,1.1
		c-0.2,0.3-0.5,0.6-0.9,0.8s-0.9,0.3-1.5,0.3h-3.1v-8.4h3c0.6,0,1.1,0.1,1.5,0.3c0.4,0.2,0.7,0.4,0.9,0.8c0.2,0.3,0.3,0.7,0.3,1.1
		c0,0.5-0.1,0.9-0.4,1.2c-0.3,0.3-0.6,0.6-1.1,0.7C427.6,232.9,427.9,233,428.2,233.2z M424.2,232.4h1.8c0.5,0,0.9-0.1,1.2-0.4
		c0.3-0.2,0.4-0.6,0.4-1s-0.1-0.8-0.4-1c-0.3-0.2-0.7-0.4-1.2-0.4h-1.8V232.4z M427.4,235.9c0.3-0.3,0.5-0.6,0.5-1.1
		c0-0.5-0.2-0.8-0.5-1.1c-0.3-0.3-0.7-0.4-1.3-0.4h-1.9v3h1.9C426.7,236.3,427.1,236.1,427.4,235.9z"/>
	<path fill="#363636" d="M431.7,236.9c-0.5-0.3-0.9-0.7-1.2-1.2c-0.3-0.5-0.4-1.1-0.4-1.8c0-0.7,0.1-1.3,0.4-1.8
		c0.3-0.5,0.7-0.9,1.2-1.2c0.5-0.3,1.1-0.4,1.7-0.4s1.2,0.1,1.7,0.4c0.5,0.3,0.9,0.7,1.2,1.2c0.3,0.5,0.4,1.1,0.4,1.8
		s-0.1,1.3-0.5,1.8c-0.3,0.5-0.7,0.9-1.2,1.2c-0.5,0.3-1.1,0.4-1.7,0.4C432.8,237.3,432.2,237.1,431.7,236.9z M434.5,236
		c0.3-0.2,0.6-0.5,0.8-0.8s0.3-0.8,0.3-1.3c0-0.5-0.1-1-0.3-1.3c-0.2-0.4-0.5-0.6-0.8-0.8c-0.3-0.2-0.7-0.3-1.1-0.3
		c-0.4,0-0.8,0.1-1.1,0.3c-0.3,0.2-0.6,0.5-0.8,0.8c-0.2,0.4-0.3,0.8-0.3,1.3c0,0.5,0.1,1,0.3,1.4c0.2,0.4,0.5,0.6,0.8,0.8
		s0.7,0.3,1.1,0.3C433.8,236.3,434.1,236.2,434.5,236z"/>
	<path fill="#363636" d="M438.2,232.1c0.3-0.5,0.6-0.9,1.1-1.2c0.5-0.3,1-0.4,1.6-0.4c0.6,0,1.1,0.1,1.5,0.4
		c0.4,0.2,0.7,0.6,0.9,0.9v-1.2h1.1v6.6h-1.1v-1.2c-0.2,0.4-0.5,0.7-1,1c-0.4,0.3-0.9,0.4-1.5,0.4c-0.6,0-1.1-0.1-1.6-0.4
		s-0.8-0.7-1.1-1.2c-0.3-0.5-0.4-1.1-0.4-1.8C437.8,233.2,437.9,232.6,438.2,232.1z M443,232.6c-0.2-0.4-0.5-0.6-0.8-0.8
		c-0.3-0.2-0.7-0.3-1.1-0.3c-0.4,0-0.8,0.1-1.1,0.3s-0.6,0.5-0.8,0.8c-0.2,0.4-0.3,0.8-0.3,1.3c0,0.5,0.1,0.9,0.3,1.3
		c0.2,0.4,0.5,0.7,0.8,0.9c0.3,0.2,0.7,0.3,1.1,0.3c0.4,0,0.8-0.1,1.1-0.3c0.3-0.2,0.6-0.5,0.8-0.9s0.3-0.8,0.3-1.3
		S443.2,232.9,443,232.6z"/>
	<path fill="#363636" d="M448.2,230.8c0.4-0.2,0.8-0.3,1.3-0.3v1.1h-0.3c-1.2,0-1.8,0.7-1.8,2v3.6h-1.1v-6.6h1.1v1.1
		C447.6,231.3,447.9,231,448.2,230.8z"/>
	<path fill="#363636" d="M450.8,232.1c0.3-0.5,0.6-0.9,1.1-1.2c0.5-0.3,1-0.4,1.6-0.4c0.5,0,1,0.1,1.4,0.4s0.8,0.5,1,0.9v-3.5h1.1
		v8.9h-1.1v-1.2c-0.2,0.4-0.5,0.7-1,1c-0.4,0.3-0.9,0.4-1.5,0.4c-0.6,0-1.1-0.1-1.6-0.4c-0.5-0.3-0.8-0.7-1.1-1.2
		c-0.3-0.5-0.4-1.1-0.4-1.8C450.4,233.2,450.5,232.6,450.8,232.1z M455.6,232.6c-0.2-0.4-0.5-0.6-0.8-0.8c-0.3-0.2-0.7-0.3-1.1-0.3
		c-0.4,0-0.8,0.1-1.1,0.3s-0.6,0.5-0.8,0.8c-0.2,0.4-0.3,0.8-0.3,1.3c0,0.5,0.1,0.9,0.3,1.3c0.2,0.4,0.5,0.7,0.8,0.9
		c0.3,0.2,0.7,0.3,1.1,0.3c0.4,0,0.8-0.1,1.1-0.3c0.3-0.2,0.6-0.5,0.8-0.9s0.3-0.8,0.3-1.3S455.8,232.9,455.6,232.6z"/>
	<path fill="#363636" d="M459.9,237c-0.4-0.2-0.7-0.4-0.9-0.7c-0.2-0.3-0.4-0.7-0.4-1.1h1.1c0,0.3,0.2,0.6,0.5,0.8
		c0.3,0.2,0.6,0.3,1.1,0.3c0.4,0,0.7-0.1,1-0.3c0.2-0.2,0.4-0.4,0.4-0.7c0-0.3-0.1-0.5-0.4-0.6c-0.3-0.1-0.7-0.3-1.2-0.4
		c-0.5-0.1-0.9-0.3-1.2-0.4c-0.3-0.1-0.6-0.3-0.8-0.6c-0.2-0.3-0.3-0.6-0.3-1c0-0.3,0.1-0.6,0.3-0.9c0.2-0.3,0.5-0.5,0.9-0.7
		s0.8-0.2,1.3-0.2c0.7,0,1.3,0.2,1.8,0.6c0.4,0.4,0.7,0.9,0.7,1.5h-1.1c0-0.3-0.2-0.6-0.4-0.8s-0.6-0.3-1-0.3
		c-0.4,0-0.7,0.1-0.9,0.3s-0.3,0.4-0.3,0.7c0,0.2,0.1,0.4,0.2,0.5c0.1,0.1,0.3,0.3,0.5,0.3c0.2,0.1,0.5,0.2,0.9,0.3
		c0.5,0.1,0.9,0.3,1.2,0.4s0.5,0.3,0.8,0.6s0.3,0.6,0.3,1c0,0.4-0.1,0.7-0.3,1c-0.2,0.3-0.5,0.5-0.8,0.7c-0.4,0.2-0.8,0.2-1.3,0.2
		C460.7,237.3,460.3,237.2,459.9,237z"/>
</g>
<g>
	<path fill="#363636" d="M150.1,55.7l-2.2-3.8H147v3.8h-2v-9.8h3.7c0.8,0,1.4,0.1,1.9,0.4c0.5,0.3,0.9,0.6,1.2,1.1
		c0.3,0.5,0.4,1,0.4,1.5c0,0.6-0.2,1.2-0.6,1.7c-0.4,0.5-0.9,0.9-1.7,1.1l2.3,4H150.1z M147,50.4h1.6c0.5,0,0.9-0.1,1.2-0.4
		s0.4-0.6,0.4-1.1c0-0.4-0.1-0.8-0.4-1c-0.3-0.2-0.7-0.4-1.2-0.4H147V50.4z"/>
	<path fill="#363636" d="M161.2,52.4h-5.7c0,0.6,0.2,1,0.6,1.3c0.3,0.3,0.8,0.5,1.3,0.5c0.7,0,1.2-0.3,1.6-0.9h2.1
		c-0.2,0.7-0.7,1.4-1.3,1.8s-1.4,0.7-2.3,0.7c-0.7,0-1.4-0.2-2-0.5c-0.6-0.3-1.1-0.8-1.4-1.4c-0.3-0.6-0.5-1.3-0.5-2.1
		c0-0.8,0.2-1.5,0.5-2.1c0.3-0.6,0.8-1.1,1.4-1.4c0.6-0.3,1.3-0.5,2-0.5c0.7,0,1.4,0.2,2,0.5c0.6,0.3,1,0.8,1.4,1.4
		c0.3,0.6,0.5,1.3,0.5,2C161.2,51.9,161.2,52.2,161.2,52.4z M159.2,51.1c0-0.5-0.2-0.9-0.5-1.2c-0.4-0.3-0.8-0.5-1.3-0.5
		c-0.5,0-0.9,0.1-1.2,0.4c-0.3,0.3-0.5,0.7-0.6,1.2H159.2z"/>
	<path fill="#363636" d="M174.6,48.7c0.6,0.6,0.9,1.4,0.9,2.4v4.5h-2v-4.3c0-0.6-0.2-1.1-0.5-1.4c-0.3-0.3-0.7-0.5-1.3-0.5
		c-0.5,0-1,0.2-1.3,0.5c-0.3,0.3-0.5,0.8-0.5,1.4v4.3h-2v-4.3c0-0.6-0.2-1.1-0.5-1.4c-0.3-0.3-0.7-0.5-1.3-0.5c-0.5,0-1,0.2-1.3,0.5
		c-0.3,0.3-0.5,0.8-0.5,1.4v4.3h-2v-7.8h2v0.9c0.3-0.3,0.6-0.6,1-0.8c0.4-0.2,0.8-0.3,1.3-0.3c0.6,0,1.1,0.1,1.6,0.4
		c0.5,0.3,0.8,0.6,1.1,1.1c0.3-0.4,0.6-0.8,1.1-1.1c0.5-0.3,1-0.4,1.6-0.4C173.3,47.8,174,48.1,174.6,48.7z"/>
	<path fill="#363636" d="M178.8,55.3c-0.6-0.3-1.1-0.8-1.4-1.4c-0.3-0.6-0.5-1.3-0.5-2.1s0.2-1.5,0.5-2.1c0.4-0.6,0.8-1.1,1.4-1.4
		c0.6-0.3,1.3-0.5,2-0.5s1.4,0.2,2,0.5c0.6,0.3,1.1,0.8,1.4,1.4c0.3,0.6,0.5,1.3,0.5,2.1s-0.2,1.5-0.5,2.1c-0.4,0.6-0.8,1.1-1.5,1.4
		s-1.3,0.5-2.1,0.5C180,55.8,179.4,55.6,178.8,55.3z M181.8,53.8c0.3-0.2,0.6-0.4,0.7-0.8c0.2-0.3,0.3-0.8,0.3-1.3
		c0-0.7-0.2-1.3-0.6-1.7s-0.9-0.6-1.4-0.6s-1,0.2-1.4,0.6c-0.4,0.4-0.6,1-0.6,1.7s0.2,1.3,0.6,1.7c0.4,0.4,0.8,0.6,1.4,0.6
		C181.1,54.1,181.5,54,181.8,53.8z"/>
	<path fill="#363636" d="M188.6,49.5v3.8c0,0.3,0.1,0.5,0.2,0.6c0.1,0.1,0.3,0.2,0.6,0.2h0.9v1.7h-1.2c-1.7,0-2.5-0.8-2.5-2.4v-3.7
		h-0.9v-1.6h0.9V46h2v1.9h1.7v1.6H188.6z"/>
	<path fill="#363636" d="M198.9,52.4h-5.7c0,0.6,0.2,1,0.6,1.3c0.3,0.3,0.8,0.5,1.3,0.5c0.7,0,1.2-0.3,1.6-0.9h2.1
		c-0.2,0.7-0.7,1.4-1.3,1.8s-1.4,0.7-2.3,0.7c-0.7,0-1.4-0.2-2-0.5c-0.6-0.3-1.1-0.8-1.4-1.4c-0.3-0.6-0.5-1.3-0.5-2.1
		c0-0.8,0.2-1.5,0.5-2.1c0.3-0.6,0.8-1.1,1.4-1.4c0.6-0.3,1.3-0.5,2-0.5c0.7,0,1.4,0.2,2,0.5c0.6,0.3,1,0.8,1.4,1.4
		c0.3,0.6,0.5,1.3,0.5,2C198.9,51.9,198.9,52.2,198.9,52.4z M196.9,51.1c0-0.5-0.2-0.9-0.5-1.2c-0.4-0.3-0.8-0.5-1.3-0.5
		c-0.5,0-0.9,0.1-1.2,0.4c-0.3,0.3-0.5,0.7-0.6,1.2H196.9z"/>
	<path fill="#363636" d="M210.6,51.5c0.4,0.4,0.5,1,0.5,1.5c0,0.5-0.1,1-0.4,1.4c-0.3,0.4-0.6,0.7-1.1,0.9s-1.1,0.3-1.7,0.3h-4.2
		v-9.8h4c0.7,0,1.2,0.1,1.7,0.3s0.8,0.5,1.1,0.9c0.2,0.4,0.4,0.8,0.4,1.3c0,0.6-0.2,1-0.5,1.4c-0.3,0.4-0.7,0.7-1.2,0.8
		C209.8,50.8,210.2,51,210.6,51.5z M205.6,49.9h1.8c0.5,0,0.8-0.1,1.1-0.3s0.4-0.5,0.4-0.9s-0.1-0.7-0.4-0.9s-0.6-0.3-1.1-0.3h-1.8
		V49.9z M208.7,53.7c0.3-0.2,0.4-0.5,0.4-1c0-0.4-0.1-0.7-0.4-1c-0.3-0.2-0.7-0.4-1.1-0.4h-1.9v2.6h2
		C208.1,54.1,208.5,54,208.7,53.7z"/>
	<path fill="#363636" d="M215.6,48.2c0.4-0.2,0.9-0.4,1.4-0.4v2.1h-0.5c-0.6,0-1.1,0.1-1.4,0.4c-0.3,0.3-0.5,0.8-0.5,1.5v3.9h-2
		v-7.8h2v1.2C214.9,48.7,215.2,48.4,215.6,48.2z"/>
	<path fill="#363636" d="M218.3,49.7c0.3-0.6,0.7-1.1,1.3-1.4c0.5-0.3,1.1-0.5,1.8-0.5c0.6,0,1.1,0.1,1.5,0.3s0.8,0.5,1,0.9v-1.1h2
		v7.8h-2v-1.1c-0.3,0.4-0.6,0.7-1,0.9c-0.4,0.2-1,0.4-1.5,0.4c-0.7,0-1.2-0.2-1.8-0.5c-0.5-0.3-1-0.8-1.3-1.4
		c-0.3-0.6-0.5-1.3-0.5-2.1C217.8,51,218,50.3,218.3,49.7z M223.7,50.6c-0.2-0.3-0.4-0.6-0.8-0.8c-0.3-0.2-0.7-0.3-1-0.3
		c-0.4,0-0.7,0.1-1,0.3c-0.3,0.2-0.6,0.4-0.7,0.8s-0.3,0.7-0.3,1.2s0.1,0.9,0.3,1.2c0.2,0.3,0.4,0.6,0.8,0.8c0.3,0.2,0.6,0.3,1,0.3
		c0.4,0,0.7-0.1,1-0.3c0.3-0.2,0.6-0.4,0.8-0.8c0.2-0.3,0.3-0.7,0.3-1.2S223.8,50.9,223.7,50.6z"/>
	<path fill="#363636" d="M228,46.7c-0.2-0.2-0.3-0.5-0.3-0.8c0-0.3,0.1-0.6,0.3-0.8c0.2-0.2,0.5-0.3,0.9-0.3s0.6,0.1,0.9,0.3
		c0.2,0.2,0.3,0.5,0.3,0.8c0,0.3-0.1,0.6-0.3,0.8c-0.2,0.2-0.5,0.3-0.9,0.3S228.2,46.9,228,46.7z M229.8,47.9v7.8h-2v-7.8H229.8z"/>
	<path fill="#363636" d="M238.3,48.7c0.6,0.6,0.9,1.4,0.9,2.4v4.5h-2v-4.3c0-0.6-0.2-1.1-0.5-1.4s-0.7-0.5-1.3-0.5
		c-0.5,0-1,0.2-1.3,0.5c-0.3,0.3-0.5,0.8-0.5,1.4v4.3h-2v-7.8h2v1c0.3-0.3,0.6-0.6,1-0.8c0.4-0.2,0.9-0.3,1.3-0.3
		C236.9,47.8,237.7,48.1,238.3,48.7z"/>
	<path fill="#363636" d="M242.2,55.5c-0.5-0.2-0.9-0.5-1.2-0.9c-0.3-0.4-0.5-0.8-0.5-1.3h2c0,0.3,0.2,0.5,0.4,0.7s0.6,0.3,1,0.3
		c0.4,0,0.7-0.1,0.9-0.2s0.3-0.3,0.3-0.6c0-0.3-0.1-0.4-0.4-0.6c-0.3-0.1-0.7-0.3-1.2-0.4c-0.6-0.1-1.1-0.3-1.4-0.4
		c-0.4-0.1-0.7-0.4-1-0.7c-0.3-0.3-0.4-0.7-0.4-1.2c0-0.4,0.1-0.8,0.4-1.2c0.2-0.4,0.6-0.6,1.1-0.8c0.5-0.2,1-0.3,1.6-0.3
		c0.9,0,1.7,0.2,2.2,0.7c0.6,0.5,0.9,1.1,0.9,1.9h-1.9c0-0.3-0.2-0.6-0.4-0.7c-0.2-0.2-0.5-0.3-0.9-0.3c-0.4,0-0.6,0.1-0.8,0.2
		s-0.3,0.3-0.3,0.5c0,0.3,0.1,0.5,0.4,0.6c0.3,0.1,0.7,0.3,1.2,0.4c0.6,0.1,1,0.3,1.4,0.4c0.4,0.1,0.7,0.4,0.9,0.7
		c0.3,0.3,0.4,0.7,0.4,1.2c0,0.4-0.1,0.8-0.4,1.2c-0.2,0.4-0.6,0.6-1.1,0.8c-0.5,0.2-1,0.3-1.6,0.3
		C243.3,55.8,242.7,55.7,242.2,55.5z"/>
	<path fill="#363636" d="M250.9,49.5v3.8c0,0.3,0.1,0.5,0.2,0.6c0.1,0.1,0.3,0.2,0.6,0.2h0.9v1.7h-1.2c-1.7,0-2.5-0.8-2.5-2.4v-3.7
		H248v-1.6h0.9V46h2v1.9h1.7v1.6H250.9z"/>
	<path fill="#363636" d="M255.5,55.3c-0.6-0.3-1.1-0.8-1.4-1.4c-0.3-0.6-0.5-1.3-0.5-2.1s0.2-1.5,0.5-2.1c0.4-0.6,0.8-1.1,1.4-1.4
		c0.6-0.3,1.3-0.5,2-0.5s1.4,0.2,2,0.5c0.6,0.3,1.1,0.8,1.4,1.4c0.3,0.6,0.5,1.3,0.5,2.1s-0.2,1.5-0.5,2.1c-0.4,0.6-0.8,1.1-1.5,1.4
		s-1.3,0.5-2.1,0.5C256.7,55.8,256.1,55.6,255.5,55.3z M258.5,53.8c0.3-0.2,0.6-0.4,0.8-0.8c0.2-0.3,0.3-0.8,0.3-1.3
		c0-0.7-0.2-1.3-0.6-1.7s-0.9-0.6-1.4-0.6c-0.6,0-1,0.2-1.4,0.6c-0.4,0.4-0.6,1-0.6,1.7s0.2,1.3,0.6,1.7c0.4,0.4,0.8,0.6,1.4,0.6
		C257.8,54.1,258.2,54,258.5,53.8z"/>
	<path fill="#363636" d="M265.9,48.2c0.4-0.2,0.9-0.4,1.4-0.4v2.1h-0.5c-0.6,0-1.1,0.1-1.4,0.4s-0.5,0.8-0.5,1.5v3.9h-2v-7.8h2v1.2
		C265.2,48.7,265.5,48.4,265.9,48.2z"/>
	<path fill="#363636" d="M280.6,48.7c0.6,0.6,0.9,1.4,0.9,2.4v4.5h-2v-4.3c0-0.6-0.2-1.1-0.5-1.4c-0.3-0.3-0.7-0.5-1.3-0.5
		c-0.5,0-1,0.2-1.3,0.5c-0.3,0.3-0.5,0.8-0.5,1.4v4.3h-2v-4.3c0-0.6-0.2-1.1-0.5-1.4c-0.3-0.3-0.7-0.5-1.3-0.5c-0.5,0-1,0.2-1.3,0.5
		c-0.3,0.3-0.5,0.8-0.5,1.4v4.3h-2v-7.8h2v0.9c0.3-0.3,0.6-0.6,1-0.8s0.8-0.3,1.3-0.3c0.6,0,1.1,0.1,1.6,0.4
		c0.5,0.3,0.8,0.6,1.1,1.1c0.3-0.4,0.6-0.8,1.1-1.1c0.5-0.3,1-0.4,1.6-0.4C279.2,47.8,280,48.1,280.6,48.7z"/>
	<path fill="#363636" d="M283.4,46.7c-0.2-0.2-0.3-0.5-0.3-0.8c0-0.3,0.1-0.6,0.3-0.8c0.2-0.2,0.5-0.3,0.9-0.3
		c0.3,0,0.6,0.1,0.9,0.3c0.2,0.2,0.3,0.5,0.3,0.8c0,0.3-0.1,0.6-0.3,0.8c-0.2,0.2-0.5,0.3-0.9,0.3C283.9,47,283.7,46.9,283.4,46.7z
		 M285.3,47.9v7.8h-2v-7.8H285.3z"/>
	<path fill="#363636" d="M293.7,48.7c0.6,0.6,0.9,1.4,0.9,2.4v4.5h-2v-4.3c0-0.6-0.2-1.1-0.5-1.4c-0.3-0.3-0.7-0.5-1.3-0.5
		c-0.5,0-1,0.2-1.3,0.5c-0.3,0.3-0.5,0.8-0.5,1.4v4.3h-2v-7.8h2v1c0.3-0.3,0.6-0.6,1-0.8s0.9-0.3,1.3-0.3
		C292.4,47.8,293.2,48.1,293.7,48.7z"/>
	<path fill="#363636" d="M301,48.1c0.4,0.2,0.8,0.5,1,0.9v-1.1h2v7.8c0,0.7-0.1,1.4-0.4,1.9c-0.3,0.6-0.7,1-1.3,1.3
		c-0.6,0.3-1.3,0.5-2.1,0.5c-1.1,0-2-0.3-2.7-0.8c-0.7-0.5-1.1-1.2-1.2-2.1h1.9c0.1,0.4,0.3,0.6,0.7,0.8c0.3,0.2,0.8,0.3,1.2,0.3
		c0.6,0,1-0.2,1.4-0.5c0.4-0.3,0.5-0.9,0.5-1.5v-1.2c-0.3,0.4-0.6,0.7-1,0.9c-0.4,0.2-0.9,0.4-1.5,0.4c-0.7,0-1.3-0.2-1.8-0.5
		s-1-0.8-1.3-1.4s-0.5-1.3-0.5-2.1c0-0.8,0.2-1.5,0.5-2.1c0.3-0.6,0.7-1.1,1.3-1.4c0.5-0.3,1.1-0.5,1.8-0.5
		C300.1,47.8,300.6,47.9,301,48.1z M301.8,50.6c-0.2-0.3-0.4-0.6-0.8-0.8c-0.3-0.2-0.7-0.3-1-0.3s-0.7,0.1-1,0.3
		c-0.3,0.2-0.6,0.4-0.7,0.8s-0.3,0.7-0.3,1.2s0.1,0.9,0.3,1.2c0.2,0.3,0.4,0.6,0.8,0.8s0.6,0.3,1,0.3c0.4,0,0.7-0.1,1-0.3
		c0.3-0.2,0.6-0.4,0.8-0.8c0.2-0.3,0.3-0.7,0.3-1.2S302,50.9,301.8,50.6z"/>
	<path fill="#363636" d="M310.8,55.4c-0.5-0.2-1-0.6-1.3-1c-0.3-0.4-0.5-1-0.5-1.6h2.1c0,0.4,0.2,0.7,0.4,1c0.3,0.2,0.6,0.4,1.1,0.4
		c0.5,0,0.8-0.1,1.1-0.3c0.3-0.2,0.4-0.5,0.4-0.9c0-0.3-0.1-0.5-0.3-0.7c-0.2-0.2-0.4-0.3-0.7-0.4c-0.3-0.1-0.6-0.2-1.1-0.4
		c-0.6-0.2-1.2-0.4-1.5-0.6c-0.4-0.2-0.7-0.5-1-0.8c-0.3-0.4-0.4-0.9-0.4-1.5c0-0.6,0.1-1.1,0.4-1.5c0.3-0.4,0.7-0.8,1.2-1
		c0.5-0.2,1.1-0.3,1.8-0.3c1,0,1.8,0.2,2.5,0.7s1,1.2,1,2.1h-2.2c0-0.3-0.2-0.6-0.4-0.8c-0.3-0.2-0.6-0.3-1.1-0.3
		c-0.4,0-0.7,0.1-0.9,0.3s-0.3,0.5-0.3,0.9c0,0.3,0.1,0.5,0.3,0.7c0.2,0.2,0.4,0.3,0.6,0.4c0.3,0.1,0.6,0.2,1.1,0.4
		c0.6,0.2,1.2,0.4,1.6,0.6c0.4,0.2,0.7,0.5,1,0.8c0.3,0.4,0.4,0.9,0.4,1.5c0,0.5-0.1,1-0.4,1.5c-0.3,0.4-0.7,0.8-1.2,1.1
		c-0.5,0.3-1.1,0.4-1.9,0.4C312,55.8,311.3,55.7,310.8,55.4z"/>
	<path fill="#363636" d="M324.9,52.4h-5.7c0,0.6,0.2,1,0.6,1.3s0.8,0.5,1.3,0.5c0.7,0,1.2-0.3,1.6-0.9h2.1c-0.2,0.7-0.7,1.4-1.3,1.8
		s-1.4,0.7-2.3,0.7c-0.7,0-1.4-0.2-2-0.5s-1.1-0.8-1.4-1.4c-0.3-0.6-0.5-1.3-0.5-2.1c0-0.8,0.2-1.5,0.5-2.1c0.3-0.6,0.8-1.1,1.4-1.4
		c0.6-0.3,1.3-0.5,2-0.5c0.7,0,1.4,0.2,2,0.5c0.6,0.3,1,0.8,1.4,1.4c0.3,0.6,0.5,1.3,0.5,2C325,51.9,325,52.2,324.9,52.4z M323,51.1
		c0-0.5-0.2-0.9-0.5-1.2c-0.4-0.3-0.8-0.5-1.3-0.5c-0.5,0-0.9,0.1-1.2,0.4c-0.3,0.3-0.5,0.7-0.6,1.2H323z"/>
	<path fill="#363636" d="M327.7,55.5c-0.5-0.2-0.9-0.5-1.2-0.9c-0.3-0.4-0.5-0.8-0.5-1.3h2c0,0.3,0.2,0.5,0.4,0.7s0.6,0.3,1,0.3
		c0.4,0,0.7-0.1,0.9-0.2s0.3-0.3,0.3-0.6c0-0.3-0.1-0.4-0.4-0.6c-0.3-0.1-0.7-0.3-1.2-0.4c-0.6-0.1-1.1-0.3-1.4-0.4
		c-0.4-0.1-0.7-0.4-1-0.7c-0.3-0.3-0.4-0.7-0.4-1.2c0-0.4,0.1-0.8,0.4-1.2c0.2-0.4,0.6-0.6,1.1-0.8c0.5-0.2,1-0.3,1.6-0.3
		c0.9,0,1.7,0.2,2.2,0.7c0.6,0.5,0.9,1.1,0.9,1.9h-1.9c0-0.3-0.2-0.6-0.4-0.7c-0.2-0.2-0.5-0.3-0.9-0.3c-0.4,0-0.6,0.1-0.8,0.2
		s-0.3,0.3-0.3,0.5c0,0.3,0.1,0.5,0.4,0.6c0.3,0.1,0.7,0.3,1.2,0.4c0.6,0.1,1,0.3,1.4,0.4s0.7,0.4,0.9,0.7c0.3,0.3,0.4,0.7,0.4,1.2
		c0,0.4-0.1,0.8-0.4,1.2c-0.2,0.4-0.6,0.6-1.1,0.8c-0.5,0.2-1,0.3-1.6,0.3C328.8,55.8,328.2,55.7,327.7,55.5z"/>
	<path fill="#363636" d="M335.3,55.5c-0.5-0.2-0.9-0.5-1.2-0.9c-0.3-0.4-0.5-0.8-0.5-1.3h2c0,0.3,0.2,0.5,0.4,0.7s0.6,0.3,1,0.3
		c0.4,0,0.7-0.1,0.9-0.2s0.3-0.3,0.3-0.6c0-0.3-0.1-0.4-0.4-0.6c-0.3-0.1-0.7-0.3-1.2-0.4c-0.6-0.1-1.1-0.3-1.4-0.4s-0.7-0.4-1-0.7
		c-0.3-0.3-0.4-0.7-0.4-1.2c0-0.4,0.1-0.8,0.4-1.2c0.2-0.4,0.6-0.6,1.1-0.8c0.5-0.2,1-0.3,1.6-0.3c0.9,0,1.7,0.2,2.2,0.7
		c0.6,0.5,0.9,1.1,0.9,1.9h-1.9c0-0.3-0.2-0.6-0.4-0.7c-0.2-0.2-0.5-0.3-0.9-0.3c-0.4,0-0.6,0.1-0.8,0.2s-0.3,0.3-0.3,0.5
		c0,0.3,0.1,0.5,0.4,0.6c0.3,0.1,0.7,0.3,1.2,0.4c0.6,0.1,1,0.3,1.4,0.4c0.4,0.1,0.7,0.4,0.9,0.7s0.4,0.7,0.4,1.2
		c0,0.4-0.1,0.8-0.4,1.2s-0.6,0.6-1.1,0.8c-0.5,0.2-1,0.3-1.6,0.3C336.4,55.8,335.8,55.7,335.3,55.5z"/>
	<path fill="#363636" d="M341.8,46.7c-0.2-0.2-0.3-0.5-0.3-0.8c0-0.3,0.1-0.6,0.3-0.8c0.2-0.2,0.5-0.3,0.9-0.3
		c0.3,0,0.6,0.1,0.9,0.3c0.2,0.2,0.3,0.5,0.3,0.8c0,0.3-0.1,0.6-0.3,0.8c-0.2,0.2-0.5,0.3-0.9,0.3C342.3,47,342.1,46.9,341.8,46.7z
		 M343.7,47.9v7.8h-2v-7.8H343.7z"/>
	<path fill="#363636" d="M347,55.3c-0.6-0.3-1.1-0.8-1.4-1.4c-0.3-0.6-0.5-1.3-0.5-2.1s0.2-1.5,0.5-2.1c0.4-0.6,0.8-1.1,1.4-1.4
		c0.6-0.3,1.3-0.5,2-0.5c0.7,0,1.4,0.2,2,0.5c0.6,0.3,1.1,0.8,1.4,1.4c0.3,0.6,0.5,1.3,0.5,2.1s-0.2,1.5-0.5,2.1
		c-0.4,0.6-0.8,1.1-1.5,1.4s-1.3,0.5-2.1,0.5C348.3,55.8,347.6,55.6,347,55.3z M350,53.8c0.3-0.2,0.6-0.4,0.8-0.8
		c0.2-0.3,0.3-0.8,0.3-1.3c0-0.7-0.2-1.3-0.6-1.7s-0.9-0.6-1.4-0.6s-1,0.2-1.4,0.6s-0.6,1-0.6,1.7s0.2,1.3,0.6,1.7
		c0.4,0.4,0.8,0.6,1.4,0.6C349.4,54.1,349.7,54,350,53.8z"/>
	<path fill="#363636" d="M361.1,48.7c0.6,0.6,0.9,1.4,0.9,2.4v4.5h-2v-4.3c0-0.6-0.2-1.1-0.5-1.4c-0.3-0.3-0.7-0.5-1.3-0.5
		c-0.5,0-1,0.2-1.3,0.5s-0.5,0.8-0.5,1.4v4.3h-2v-7.8h2v1c0.3-0.3,0.6-0.6,1-0.8c0.4-0.2,0.9-0.3,1.3-0.3
		C359.7,47.8,360.5,48.1,361.1,48.7z"/>
	<path fill="#363636" d="M365,55.5c-0.5-0.2-0.9-0.5-1.2-0.9c-0.3-0.4-0.5-0.8-0.5-1.3h2c0,0.3,0.2,0.5,0.4,0.7s0.6,0.3,1,0.3
		c0.4,0,0.7-0.1,0.9-0.2s0.3-0.3,0.3-0.6c0-0.3-0.1-0.4-0.4-0.6c-0.3-0.1-0.7-0.3-1.2-0.4c-0.6-0.1-1.1-0.3-1.4-0.4
		c-0.4-0.1-0.7-0.4-1-0.7c-0.3-0.3-0.4-0.7-0.4-1.2c0-0.4,0.1-0.8,0.4-1.2c0.2-0.4,0.6-0.6,1.1-0.8c0.5-0.2,1-0.3,1.6-0.3
		c0.9,0,1.7,0.2,2.2,0.7c0.6,0.5,0.9,1.1,0.9,1.9h-1.9c0-0.3-0.2-0.6-0.4-0.7c-0.2-0.2-0.5-0.3-0.9-0.3c-0.4,0-0.6,0.1-0.8,0.2
		s-0.3,0.3-0.3,0.5c0,0.3,0.1,0.5,0.4,0.6c0.3,0.1,0.7,0.3,1.2,0.4c0.6,0.1,1,0.3,1.4,0.4s0.7,0.4,0.9,0.7c0.3,0.3,0.4,0.7,0.4,1.2
		c0,0.4-0.1,0.8-0.4,1.2c-0.2,0.4-0.6,0.6-1.1,0.8c-0.5,0.2-1,0.3-1.6,0.3C366.1,55.8,365.5,55.7,365,55.5z"/>
</g>
<g id="R703qU_00000108990634353337346670000003868657401349511312_">
	<g>
		<path fill="#7500D4" d="M98,153.6c-5.2,0-10.3,0-15.5,0c-0.9,3.1-1.7,6.3-2.6,9.4c-1.4,5.1-2.8,10.3-4.3,15.4
			c-0.2,0.5-0.6,1.1-1.1,1.4c-0.3,0.2-1.2,0-1.4-0.3c-0.3-0.4-0.5-1.1-0.4-1.6c0.6-2.6,1.4-5.1,2.1-7.7c1.5-5.3,2.9-10.5,4.4-15.8
			c0.1-0.3,0.1-0.5,0.2-0.9c-0.4,0-0.8,0-1.1,0c-4.7,0-9.4,0-14.2,0c-2,0-4-0.1-6-0.1c-1.1,0-1.8-0.5-1.8-1.4c0-0.9,0.6-1.4,1.7-1.5
			c0.3,0,0.7,0,1.1,0c0-0.5,0.1-0.9,0.1-1.3c0-11,0-22,0-33c0-0.4,0-0.8,0.1-1.2c0.1-0.8,0.5-1.3,1.3-1.3c0.4,0,0.8-0.1,1.2-0.1
			c8.6,0,17.2,0,25.8,0c0.9,0,1.3-0.3,1.2-1.2c-0.1-0.6,0-1.2,0-1.8c0.1-0.9,0.7-1.5,1.5-1.4c0.8,0.1,1.4,0.6,1.4,1.4
			c0,0.9,0,1.8,0,2.9c0.5,0,0.9,0.1,1.3,0.1c8.6,0,17.2,0,25.7,0c2.1,0,2.5,0.4,2.5,2.5c0,11.1,0,22.2,0,33.3c0,0.8,0.1,1.2,1.1,1.2
			c1.2-0.1,1.9,0.5,1.9,1.4c0,0.9-0.7,1.4-1.9,1.5c-6.4,0-12.8,0.1-19.2,0.1c-0.6,0-1.2,0-2,0c0.4,1.4,0.7,2.6,1,3.9
			c1.9,6.7,3.7,13.4,5.6,20c0.1,0.2,0.1,0.4,0.2,0.6c0.2,1-0.2,1.6-1,1.9c-0.8,0.2-1.5-0.2-1.8-1.1c-0.5-1.6-0.9-3.3-1.4-5
			c-1.8-6.6-3.6-13.1-5.4-19.7C98.2,154.1,98.1,153.9,98,153.6z M102.1,150.4c0-0.4,0-0.8,0-1.1c0.1-2.9,1.9-4.6,4.7-4.6
			c1.4,0,2.7,0,4.1,0c2.6,0.1,4.4,1.9,4.5,4.5c0,0.4,0,0.8,0,1.2c1,0,1.9,0,2.9,0c0-11.3,0-22.5,0-33.7c-18.7,0-37.3,0-55.9,0
			c0,11.3,0,22.4,0,33.7C75.5,150.4,88.7,150.4,102.1,150.4z M112.2,150.4c0.5-1.9-0.1-2.8-2-2.8c-0.9,0-1.9,0-2.8,0
			c-2.2,0-2.7,0.6-2.4,2.8C107.5,150.4,109.9,150.4,112.2,150.4z"/>
	</g>
</g>
<g id="kCUYfs_00000074435690994570153530000013045870982233683876_">
	<g>
		<path fill="#7500D4" d="M441.9,169.8c0,2.3,0,4.5,0,6.8c1.8,0,3.5,0,5.3,0c0,1,0,1.8,0,2.7c-16.4,0-32.8,0-49.2,0
			c0-0.9,0-1.7,0-2.7c1.7,0,3.5,0,5.3,0c0-2.3,0-4.6,0-6.9c-0.4,0-0.7,0-1.1,0c-4.9,0-9.9,0-14.8,0c-3.7,0-6.4-2.1-7.1-5.4
			c-0.2-0.7-0.2-1.5-0.2-2.2c0-13.1,0.1-26.3-0.1-39.4c-0.1-4.6,3.1-7.9,7.9-7.8c10.4,0.1,20.8,0,31.2,0c2.1,0,2.1,0,2.1-2.1
			c0-1.4,0-2.7,0-4.1c0-0.5-0.1-0.8-0.7-1c-3.4-1.1-5.4-4.5-4.7-7.8c0.7-3.6,3.8-5.8,7.5-5.5c3.3,0.3,6,3.2,6,6.7
			c0.1,2.9-1.9,5.6-4.7,6.5c-0.6,0.2-0.8,0.5-0.8,1.1c0,1.6,0,3.1,0,4.7c0,1.2,0.2,1.4,1.4,1.4c10.7,0,21.5,0,32.2,0
			c2.5,0,4.5,0.7,6.1,2.7c1,1.3,1.4,2.7,1.4,4.3c0,13.6,0,27.3,0,40.9c0,4-3,6.8-7.2,6.8c-4.9,0-9.9,0-14.8,0
			C442.8,169.8,442.4,169.8,441.9,169.8z M382.9,157.5c26.6,0,53,0,79.5,0c0-3.1,0-6.2,0-9.2c0-8.6,0-17.2,0-25.7
			c0-3-1.6-4.7-4.6-4.7c-9.8,0-19.5,0-29.3,0c-0.3,0-0.6,0-1.2,0.1c0.8,0.8,1.4,1.3,2,1.9c0.5,0.6,1,0.8,1.8,0.8
			c5.1,0,10.1,0,15.2,0c0.3,0,0.7,0,1.1,0c0,3.3,0,6.4,0,9.6c1.9,0,3.6,0,5.4,0c0,3.7,0,7.3,0,11c-1.8,0-3.6,0-5.5,0
			c0,3.2,0,6.4,0,9.6c-0.4,0-0.8,0-1.1,0c-5.8,0-11.5,0-17.3,0c-0.6,0-0.9,0.1-1.2,0.8c-0.9,2.1-2.6,3.3-5,3.3c-2.4,0-4-1.2-5-3.3
			c-0.2-0.6-0.5-0.8-1.1-0.8c-5.8,0-11.7,0-17.5,0c-0.3,0-0.7,0-1.1,0c0-3.3,0-6.4,0-9.6c-1.9,0-3.6,0-5.4,0c0-3.7,0-7.2,0-10.9
			c1.8,0,3.6,0,5.5,0c0-3.2,0-6.4,0-9.6c0.5,0,0.8,0,1.1,0c5.1,0,10.2,0,15.3,0c0.3,0,0.7,0,1-0.2c0.8-0.7,1.6-1.5,2.4-2.3
			c0-0.1,0-0.1-0.1-0.2c-0.3,0-0.6,0-1,0c-9.8,0-19.5,0-29.3,0c-2.9,0-4.6,1.7-4.6,4.6c0,11.3,0,22.6,0,34
			C382.9,156.7,382.9,157.1,382.9,157.5z M422.8,130.8c-0.4-0.4-0.7-0.6-0.9-0.8c-2.1-2-4.1-4.1-6.2-6.1c-0.3-0.3-0.9-0.5-1.4-0.5
			c-4.2,0-8.5,0-12.7,0c-0.3,0-0.6,0-0.9,0c0,2.3,0,4.6,0,6.9c1.8,0,3.6,0,5.3,0c0,3.7,0,7.3,0,10.9c-1.8,0-3.5,0-5.3,0
			c0,2.3,0,4.5,0,6.8c0.2,0,0.3,0,0.4,0c5.2,0,10.3,0,15.5,0c0.5,0,0.7-0.2,0.9-0.7c1-2.2,2.7-3.4,5-3.4c2.3,0,4.1,1.2,5,3.3
			c0.3,0.6,0.6,0.8,1.2,0.8c4.9,0,9.9,0,14.8,0c0.3,0,0.6,0,0.8,0c0-2.4,0-4.6,0-6.9c-1.8,0-3.6,0-5.3,0c0-3.7,0-7.3,0-11
			c1.8,0,3.6,0,5.3,0c0-2.3,0-4.5,0-6.8c-0.4,0-0.7,0-1,0c-4.2,0-8.4,0-12.6,0c-0.6,0-1.1,0.2-1.5,0.7c-1.5,1.5-3,3-4.4,4.5
			C424.3,129.1,423.6,130,422.8,130.8z M462.4,160.3c-26.5,0-53,0-79.4,0c0,1.1-0.1,2.2,0,3.3c0.2,1.5,1,2.6,2.4,3.1
			c0.7,0.3,1.6,0.4,2.4,0.4c23.2,0,46.5,0,69.7,0c0.4,0,0.7,0,1.1-0.1c2.3-0.3,3.7-1.8,3.8-4.1C462.5,162.1,462.4,161.3,462.4,160.3
			z M439.1,169.9c-10.9,0-21.8,0-32.8,0c0,2.3,0,4.5,0,6.7c10.9,0,21.8,0,32.8,0C439.1,174.4,439.1,172.2,439.1,169.9z M418.6,101.3
			c0,2.3,1.8,4.1,4,4.2c2.2,0,4.2-1.9,4.1-4.1c0-2.3-1.8-4.1-4.1-4.1C420.4,97.3,418.6,99.1,418.6,101.3z M417.9,122
			c1.6,1.5,3.2,3.1,4.7,4.6c1.6-1.5,3.2-3.1,4.7-4.5c-1.5-1.6-3.1-3.2-4.6-4.7C421.1,118.8,419.5,120.4,417.9,122z M395.3,138.3
			c2.7,0,5.4,0,8.1,0c0-1.8,0-3.6,0-5.4c-2.7,0-5.4,0-8.1,0C395.3,134.7,395.3,136.5,395.3,138.3z M441.9,132.9c0,1.8,0,3.6,0,5.4
			c2.7,0,5.4,0,8.1,0c0-1.8,0-3.6,0-5.4C447.3,132.9,444.7,132.9,441.9,132.9z M422.7,146.6c-1.5,0-2.7,1.2-2.8,2.6
			c0,1.5,1.2,2.8,2.7,2.8c1.5,0,2.7-1.2,2.8-2.7C425.5,147.9,424.2,146.6,422.7,146.6z"/>
	</g>
</g>
<g>
	<path fill="#7500D4" d="M181.2,100.9v90.8l0,0.5l152.2,0v-91.3L181.2,100.9z M322.7,141c0-1.8-0.7-3.3-2.1-4.5
		c-1.2-1-2.6-1.5-4.3-1.5c-0.8,0-1.5,0-2.3,0l-0.5,0v-0.1c0-0.5,0-1,0-1.5c0-0.1,0-0.1,0.1-0.2c3-2,4.6-4.8,4.8-8.3c0-1,0-2,0-2.9
		c0-0.6,0-1.2,0-1.8c0-0.1,0-0.2,0.1-0.3c0.5-0.6,0.7-1,0.2-1.8c-0.3-0.4-0.3-0.8-0.2-1.2c0.2-0.6,0.1-1.2-0.4-1.6
		c-0.3-0.3-0.5-0.6-0.4-1.1c0.1-0.6-0.2-1.1-0.7-1.4c-0.5-0.2-0.7-0.6-0.8-1.1c-0.1-0.6-0.5-0.9-1-1c-0.5-0.1-0.8-0.3-1.1-0.8
		c-0.2-0.5-0.7-0.7-1.3-0.7c-0.6,0-0.9-0.1-1.2-0.5c-0.4-0.4-0.9-0.6-1.5-0.4c-0.5,0.2-0.9,0.1-1.3-0.1c-0.5-0.4-1.1-0.4-1.6,0
		c-0.4,0.3-0.8,0.3-1.2,0.2c-0.6-0.2-1.1-0.1-1.5,0.4c-0.3,0.4-0.7,0.5-1.2,0.5c-0.6,0-1.1,0.2-1.4,0.8c-0.2,0.4-0.5,0.6-0.9,0.7
		c-0.6,0.1-1.1,0.5-1.2,1.2c-0.1,0.4-0.3,0.7-0.7,0.9c-0.6,0.3-0.9,0.8-0.8,1.4c0,0.5-0.1,0.8-0.5,1.1c-0.5,0.4-0.6,0.9-0.4,1.5
		c0.2,0.4,0.1,0.8-0.2,1.3c-0.5,0.8-0.3,1.2,0.2,1.7c0.1,0.1,0.1,0.2,0.1,0.3c0,1.4,0,2.8,0,4.2c0,3.6,1.5,6.5,4.4,8.5
		c0.5,0.3,0.6,0.6,0.5,1c0,0.4,0,0.8,0,1.2c0,0,0,0,0,0l-0.8,0c-0.9,0-1.8,0-2.7,0c-2.9,0.1-5.5,2.5-5.7,5.4
		c-0.1,1.1-0.1,2.2-0.1,3.3c0,0.4,0,0.9,0,1.3c0,0.1,0,0.2,0,0.3h-9.8v-42h47.4v42h-8.2c0,0,0-0.1,0-0.1l0-1.1
		C322.7,143.1,322.7,142,322.7,141z M308.7,144.8h-1.4c0.2-0.1,0.4-0.2,0.6-0.2C308.2,144.6,308.5,144.7,308.7,144.8z M307.8,142.4
		c-1.5,0.1-2.6,0.9-3.1,2.3c-0.1,0.1-0.1,0.2-0.1,0.2c0,0,0,0-0.1,0c0,0-0.1,0-0.1,0c0.3-1.3,1.8-2.6,3.2-2.7c1.9-0.1,3.6,1,4.1,2.7
		c-0.2,0-0.3-0.2-0.5-0.5C310.6,143,309.4,142.3,307.8,142.4z M307.5,139.9c-2.2,0.2-4.7,1.8-5.4,4.9h-6.5v-0.6c0-1.2,0-2.4,0-3.7
		c0-0.1,0-0.3,0.1-0.4c0.4-1.7,1.9-2.8,3.7-2.8l1.3,0c0.7,0,1.4,0,2.1,0c0,0,0,0,0,0.1h0c0.3,0.7,1,1.3,1.9,1.7c2.2,1,4.4,1,6.6,0
		c0.9-0.4,1.5-1,1.9-1.7l0.9,0c1,0,2,0,2.9,0c1.8,0.1,3.3,1.6,3.5,3.4c0.1,1.1,0.1,2.1,0,3.2c0,0.3,0,0.7,0,1H314
		c-0.4-1.7-1.3-3-2.7-4C310.1,140.1,308.8,139.8,307.5,139.9z M303.2,111.2l0.5,0.2c0.7,0.1,1.4-0.2,1.9-0.8c0.1-0.1,0.1-0.1,0.1,0
		c0.7,0.3,1.4,0.2,2.2-0.3c0.6,0.4,1.3,0.5,2.1,0.3c0,0,0.1,0,0.1,0c0.6,0.6,1.2,0.8,1.9,0.8c0,0,0.1,0,0.1,0c0.4,0.7,1,1.2,1.8,1.4
		c0.2,0.8,0.6,1.4,1.4,1.8c0,0.6,0.1,1.4,0.9,2.1c-0.3,0.7-0.2,1.4,0.2,2c0,0-0.1,0.1-0.1,0.1c-0.1,0-0.2-0.1-0.3-0.1
		c-0.6-0.3-1.1-0.3-1.6,0.1c-0.3,0.2-0.4,0.2-0.7,0c-0.6-0.4-1.2-0.4-1.8,0c-0.3,0.2-0.4,0.2-0.7,0c-0.6-0.4-1.2-0.4-1.8,0
		c-0.2,0.2-0.4,0.2-0.7,0c-0.6-0.4-1.2-0.4-1.8,0c-0.3,0.2-0.4,0.2-0.7,0c-0.6-0.4-1.3-0.4-1.9,0c-0.2,0.2-0.4,0.2-0.6,0
		c-0.6-0.4-1.2-0.4-1.8,0c-0.3,0.2-0.4,0.1-0.6,0c-0.2-0.2-0.5-0.3-0.9-0.3c-0.3,0-0.6,0.1-1,0.4c0,0,0,0-0.1-0.1c0,0,0,0,0-0.1
		c0.4-0.5,0.5-1.2,0.2-1.8c-0.1-0.2,0-0.2,0-0.3c0.6-0.4,0.8-1.1,0.8-1.9c0,0,0-0.1,0-0.1c0,0,0,0,0,0c0.7-0.4,1.1-1,1.3-1.7
		c0,0,0.1-0.1,0.1-0.1c0.8-0.2,1.4-0.6,1.7-1.3L303.2,111.2C303.2,111.2,303.2,111.2,303.2,111.2z M299.9,121c0.5-0.3,1-0.4,1.5,0
		c0.4,0.3,1.1,0,1.3-0.1c0.4-0.2,0.6-0.2,0.8,0c0.5,0.4,1.2,0.4,1.7,0c0.3-0.2,0.4-0.2,0.7,0c0.6,0.4,1.2,0.4,1.8,0
		c0.3-0.2,0.4-0.2,0.6,0c0.6,0.4,1.3,0.4,1.9,0c0.2-0.1,0.3-0.2,0.6,0c0.6,0.4,1.3,0.4,1.8,0c0.2-0.2,0.4-0.2,0.7,0
		c0.6,0.4,1.2,0.4,1.7,0c0.3-0.2,0.4-0.2,0.7,0c0.1,0.1,0.3,0.1,0.4,0.2c0,0.6,0,1.1,0,1.7c0,1.3,0,2.5-0.3,3.7
		c-0.9,3.7-4.4,6.2-8.2,6.1c-3.7-0.1-7-3-7.7-6.6c-0.1-0.5-0.1-1.1-0.2-1.7c0-0.8,0-1.6,0-2.5L299.9,121z M304.8,135.8
		c0-0.5,0-1,0-1.5c2.1,0.7,4.2,0.7,6.4,0c0,0,0,0.1,0,0.1c0,0.6,0,1.2,0,1.8c0,0.3-0.3,0.4-0.7,0.7c-0.7,0.4-1.6,0.6-2.6,0.5
		c-1,0-1.8-0.2-2.4-0.6C305,136.5,304.8,136.2,304.8,135.8z M320.7,189.8L320.7,189.8L320.7,189.8L320.7,189.8
		C320.7,189.8,320.7,189.8,320.7,189.8z M317,182.1c0.4,0,0.8,0.2,1.3,0.4c1.3,0.7,1.9,1.8,1.9,3.4c0,0.9,0,1.9,0,2.8l0,0.8H317
		V182.1z M299.1,182.1v7.3h-3.2l0-0.9c0-1,0-2,0-3C296,183.9,297.4,182.4,299.1,182.1z M322.4,185.7c-0.1-2.8-1.9-5.1-4.5-5.7
		c-0.7-0.2-1.5-0.2-2.2-0.2c-0.2,0-0.5,0-0.7,0c-0.5,0-0.9,0-1.4,0l-0.2,0v-0.1c0-0.5,0-1,0-1.6c0,0,0,0,0.1-0.1
		c1.7-1.1,2.9-2.5,3.8-4.3c0.4-0.9,0.7-2,0.9-3.1h0.5c1,0,1.4-0.4,1.4-1.4l0-1.4c0-1.1,0-2.1,0-3.2c-0.1-4-1.7-7.2-4.9-9.5
		c-2.1-1.6-4.6-2.3-7.4-2.3c-2.2,0-3.9,1.3-4.2,3.3c0,0.2-0.1,0.3-0.3,0.4c-3.3,1.9-5,4.8-5.2,8.6c-0.1,1.3-0.1,2.7,0,4.3
		c0,1,0.1,1.8,0.3,2.5c0.6,2.7,2.1,4.8,4.5,6.4c0,0.5,0,1.1,0,1.6v0.1l-1.1,0c-0.8,0-1.6,0-2.4,0c-2.9,0.1-5.4,2.7-5.5,5.6
		c0,1.3,0,2.6,0,3.9l0,0.4h-10.2v-42h47.4v42h-8.6l0-0.4C322.4,188.1,322.4,186.9,322.4,185.7z M308.1,182.3c-0.1,0-0.2,0-0.3,0.1
		c0,0,0.1,0,0.1-0.1C308,182.2,308.1,182.2,308.1,182.3c0.1,0,0.2,0,0.2,0C308.2,182.3,308.2,182.3,308.1,182.3z M309.6,172.6
		c-0.2,0-0.5-0.1-0.5-0.4c0-0.1,0-0.2,0.1-0.3c0.1-0.1,0.2-0.1,0.3-0.1c0.7,0,1.5,0,2.3,0c0.3,0,0.6,0.2,0.8,0.4
		c0.1,0.1,0.2,0.3,0.2,0.4h0c-0.4,0-0.9-0.1-1.3-0.1c-0.2,0-0.5,0-0.7,0c-0.2,0-0.3,0-0.5,0C310.2,172.6,309.9,172.7,309.6,172.6z
		 M304.2,171.9c0.4,0,0.8,0,1.2,0c0.4,0,0.7,0,1.1,0c0.3,0,0.4,0.2,0.4,0.4c0,0.2-0.2,0.4-0.4,0.4c-0.3,0-0.5,0-0.8,0
		c-0.2,0-0.5,0-0.7,0c-0.2,0-0.3,0-0.5,0c-0.4,0-0.8,0-1.2,0.1c0-0.1,0.1-0.3,0.2-0.4C303.6,172.1,303.9,171.9,304.2,171.9z
		 M305.5,157.7c0-0.4,0-0.9,0.1-1.3c0.1-0.8,0.9-1.4,1.7-1.4c4.1-0.1,7.2,1.6,9.2,5c0.1,0.2,0.2,0.4,0.3,0.5c-1.3-1.8-3.3-3-5.8-3
		c-0.7,0-1.5,0-2.2,0c-0.8,0-1.7,0-2.5,0C306.1,157.6,305.8,157.7,305.5,157.7z M303.3,159.1C303.3,159.1,303.3,159.1,303.3,159.1
		c0-0.1,0-0.1,0-0.1L303.3,159.1z M302.7,161.7L302.7,161.7L302.7,161.7L302.7,161.7z M300.9,173c-0.5-1-0.8-2.1-0.8-3.2
		c0-2.2,0-3.8,0-5.3c0-0.8,0.2-1.6,0.7-2.5c0,0,0,0,0,0c0.3,0.2,0.7,0.2,1,0.1c0.1,0,0.3-0.1,0.4-0.2c0.1,0.5,0.5,0.9,1,0.9
		c0,0,0,0,0,0c0.6,0,1.1-0.5,1.1-1.1c0,0,0-0.1,0-0.1c0,0,0,0,0.1,0c0.6,0,1-0.3,1.1-0.9c0.2-0.8,0.3-0.9,1-0.9c0,0,0,0,0,0l1.3,0
		c1.1,0,2.3,0,3.4,0c2.6,0.1,4.6,2.1,4.7,4.7c0,1.9,0,3.8,0,5.7c0,1-0.3,1.9-0.8,2.8c0-0.1,0-0.1,0-0.2c-0.1-1.7-1.5-3.2-3.3-3.2
		c-0.4,0-0.9,0-1.3,0c-0.4,0-0.8,0-1.1,0c-0.4,0-0.8,0.2-1.1,0.3c-0.1,0-0.2,0.1-0.2,0.1c-0.5-0.3-1.1-0.5-2-0.4c-0.3,0-0.6,0-0.9,0
		l-0.4,0C302.5,169.6,301.1,170.9,300.9,173z M303.2,175.3c0.2-0.4,0.4-0.4,0.6-0.4c0.8,0,1.7,0,2.5,0c0.5,0,1.2,0,1.8-0.5
		c0.5,0.3,1.1,0.5,1.8,0.5c0.8,0,1.6,0,2.3,0c0.2,0,0.5,0,0.6,0.2c0.1,0.1,0.2,0.3,0.2,0.6c0,0-0.1,0.1-0.1,0.2
		c-2.7,2.2-6.7,2.2-9.5,0.1C303.1,175.7,303.1,175.6,303.2,175.3z M311.1,180.1c-0.6,0.1-1.1,0.2-1.7,0.3c-0.1,0-0.2,0-0.3-0.1
		c-0.9-0.6-1.7-0.3-2.1,0c-0.2,0.1-0.4,0.2-0.7,0.1c-0.3-0.1-0.6-0.1-0.9-0.2c-0.2,0-0.3-0.1-0.5-0.1c0-0.3,0-0.6,0-0.9
		c2.1,0.7,4.1,0.7,6.2,0C311.2,179.5,311.1,179.8,311.1,180.1L311.1,180.1z M304.8,180L304.8,180C304.8,180,304.8,180,304.8,180
		C304.8,180,304.8,180,304.8,180z M301.3,182.1L301.3,182.1c0.7,0,1.2,0,1.8,0l0.5,0.9c1.1,2,2.1,4,3.2,5.9c0.1,0.1,0.1,0.3,0.1,0.5
		h-5.6V182.1z M306,182.5L306,182.5c0.5,0.2,0.9,0.1,1.4,0c0,0-0.1,0-0.1,0.1c-0.2,0.2-0.3,0.5-0.4,0.8c0,0.6,0.5,1.1,1.1,1.1
		c0,0,0,0,0.1,0c0.3,0,0.5-0.1,0.7-0.3c0.2-0.2,0.3-0.5,0.4-0.8c0-0.3-0.2-0.6-0.4-0.8c0.4,0.1,0.9,0.1,1.3,0c0,0,0.1,0,0.1,0
		l-2.1,4l-2.1-4C306,182.5,306,182.5,306,182.5z M309.3,188.8L309.3,188.8c1.2-2.2,2.4-4.4,3.6-6.6c0-0.1,0.1-0.1,0.1-0.1
		c0.5,0,1.1,0,1.6,0h0.2v7.4h-5.6C309.2,189.2,309.2,189,309.3,188.8z M272.4,139.8c-0.1-2.4-2.1-4.4-4.5-4.5c-0.9,0-1.9,0-2.8,0
		l-1.3,0c0,0,0,0,0,0c0-0.4,0-0.8,0-1.2c0-0.1,0-0.2,0-0.2c0,0,0.1,0,0.3,0c0.6,0,1.3,0,1.9,0l1.5,0c0.5,0,0.8-0.1,1-0.4
		c0.2-0.3,0.3-0.6,0.2-1.1l-0.1-0.7c-0.1-0.6-0.2-1.3-0.3-1.9c0-0.1,0-0.3,0-0.4c0.7-1.5,1.1-2.9,1.1-4.4c0-0.1,0-0.3,0-0.4
		c0.3,0,0.6,0,0.8-0.2c0.4-0.3,0.4-0.8,0.4-1.1l0-0.5c0-0.5,0-0.9,0-1.4c0-0.3,0-0.5,0-0.8c0-0.8-0.1-1.6-0.2-2.4
		c-1.3-5.9-6.7-9.5-12.7-8.5c-4.9,0.8-8.9,5.4-9,10.4c0,1.2,0,2.4,0,3.5l0,0.9c0,1.8,0.4,3.5,1.1,5c0,0,0,0.1,0,0.2
		c-0.1,0.7-0.2,1.3-0.4,2l-0.1,0.6c-0.1,0.4-0.1,0.8,0.2,1.2c0.3,0.4,0.8,0.4,1.2,0.4l1,0c0.8,0,1.6,0,2.3,0c0.1,0,0.1,0,0.2,0
		c0,0.4,0,0.9,0,1.3l0,0.1l-1.4,0c-0.9,0-1.9,0-2.8,0c-2.3,0.1-4.4,2.1-4.4,4.4c-0.1,1.8,0,3.7,0,5.5l0,0.1h-12v-42H281v42h-8.6
		C272.4,143.5,272.4,141.6,272.4,139.8z M270.6,145.5L270.6,145.5L270.6,145.5L270.6,145.5C270.6,145.5,270.6,145.5,270.6,145.5z
		 M247.7,140.3c0-0.7,0.2-1.5,0.7-2c0.5-0.5,1.2-0.8,2.1-0.9c1.1,0,1.1,0,1.8,0.8c1.7,2,3.3,3.9,5,5.9l0.7,0.8
		c0,0.1,0.1,0.1,0.1,0.2h-10.4v0c0-0.5,0-1,0-1.4C247.8,142.6,247.8,141.4,247.7,140.3z M252.2,118c-0.4,0-0.8,0.2-1.1,0.5
		c-0.1,0.1-0.1,0.1-0.2,0.2c0.2-1.2,0.7-2.4,1.4-3.4c2-2.9,5.6-4.3,9-3.5c3.5,0.8,6.2,3.6,6.7,7.1c0.1,0.8,0.1,1.7,0.2,2.5
		c0,0.2,0,0.4,0,0.6l-5.8-1.5c-3.3-0.8-6.6-1.6-9.9-2.5C252.5,118,252.4,118,252.2,118z M250.8,122.2c0-0.1,0.1-0.2,0.1-0.3
		c0.5-0.5,1-1,1.6-1.6c2.8,0.7,5.7,1.4,8.5,2.1l6.1,1.5c0,0.2,0,0.3,0,0.5l0,0.2c-0.2,3.6-1.8,6.1-4.9,7.4c-3.2,1.4-6.1,0.9-8.7-1.5
		c-1.7-1.6-2.6-3.6-2.6-6l0-0.7C250.8,123.3,250.8,122.7,250.8,122.2z M259.3,137c-0.3,0.2-0.6,0.1-0.8,0c-0.7-0.4-1.4-0.8-2.2-1.2
		c0-0.4,0-0.7,0-1.1c1.8,0.4,3.5,0.4,5.2,0c0,0.4,0,0.7,0,1.1C260.8,136.2,260.1,136.6,259.3,137z M258.1,138.7l-0.2,0.5
		c0,0,0,0.1,0,0.2c0,0.1,0,0.2,0,0.4c0.1,0.5,0.5,0.8,1.1,0.8c0,0,0,0,0,0c0.5,0,0.9-0.3,1.1-0.9l0-0.2l0-0.1c0-0.2,0-0.2,0.5-0.5
		c0.6-0.3,1.3-0.7,2.1-1.2c0.3-0.2,0.5-0.3,0.7-0.3l-4.4,5.2l-4.4-5.1c0.2,0,0.4,0.1,0.6,0.2c0.5,0.4,1.1,0.7,1.7,0.9
		c0.3,0.2,0.6,0.3,0.9,0.5L258.1,138.7L258.1,138.7z M260,144.9l0.9-1.1c1.7-2,3.4-4.1,5.2-6.1c0.2-0.3,0.3-0.3,0.5-0.3
		c0.3,0,0.5,0,0.8,0.1c0.4,0,0.7,0,1,0.1c1,0.3,1.8,1.2,1.8,2.3c0,1.3,0,2.6,0,3.9l0,1.3h-10.4C259.9,145.1,259.9,145,260,144.9z
		 M272.4,184.3c-0.1-2.1-1.6-3.8-3.5-4.3c1.3-0.5,2.3-1.8,2.3-3.3c0-4,0-8.1,0-12.1c0-0.7-0.1-1.4-0.2-2.2
		c-1.4-6.2-6.9-10.2-13.2-9.6c-6,0.6-10.8,5.7-10.9,11.7c-0.1,3.3,0,6.7,0,9.9l0,2.4c0,1.5,1,2.8,2.3,3.2c-1.9,0.5-3.4,2.2-3.5,4.2
		c-0.1,1.9-0.1,3.8,0,5.6h-12v-42H281v42h-8.6C272.4,188,272.5,186.1,272.4,184.3z M265.8,181.7L265.8,181.7L265.8,181.7
		L265.8,181.7L265.8,181.7z M267.5,163.7c0-0.4-0.1-1.3-1.1-1.2c-0.9,0-1.1,0.8-1.1,1.2H265c0-0.4-0.1-1.2-1.1-1.2c0,0,0,0,0,0
		c-0.9,0-1.1,0.8-1.1,1.2h-0.2c0-0.3-0.1-0.7-0.3-0.9c-0.2-0.2-0.5-0.3-0.9-0.3c-0.9,0.1-1,0.7-1,1.2h-0.2c0-0.4-0.2-1.2-1.2-1.2
		c-0.9,0-1.1,0.8-1.1,1.2h-0.2c0-0.4-0.2-1.2-1.1-1.2c0,0,0,0,0,0c-1,0-1.1,0.7-1.1,1.2h-0.2c0-0.4-0.1-1.2-1.1-1.2
		c-1,0-1.1,0.8-1.1,1.2h-0.2c0-0.4-0.1-1.2-1.1-1.2c0,0,0,0,0,0c-1,0-1.1,0.8-1.1,1.2c-0.9,0.1-1.2,0.5-1.2,1.4v12.1
		c-0.2-0.3-0.2-0.6-0.2-0.9l0-11.5c0-5,3.6-9.2,8.5-10c0.5-0.1,1-0.1,1.5-0.1c2.2,0,4.4,0.8,6.1,2.2c2.2,1.7,3.6,4.3,3.8,7
		c0.1,0.8,0.1,1.5,0.1,2.3v0.4c0,2.9,0,5.9,0,8.8l0,1c0,0.4-0.1,0.7-0.2,0.9v-12C268.7,164.2,268.5,163.8,267.5,163.7z M267.2,164.2
		C267.2,164.2,267.2,164.2,267.2,164.2L267.2,164.2L267.2,164.2L267.2,164.2z M266.5,167.3c0,1.6,0,3.1,0,4.7c0,0.2-0.1,0.4-0.2,0.7
		c-1.6,3.1-4.1,4.6-7.4,4.6c-3.3,0-5.8-1.7-7.4-4.8h0c0-0.1-0.1-0.2-0.1-0.3c0-1.8,0-3.7,0-5.5l0-0.7h15L266.5,167.3z M251.5,178.9
		c0-0.2,0-0.4,0-0.6l0.3,0c0.8,0,1.6,0,2.3,0c0,0,0,0,0.1,0c0,0.4,0,0.9,0,1.4l0,0.1l-1.3,0c-0.6,0-1.1,0-1.7,0
		C251.4,179.5,251.5,179.3,251.5,178.9z M263.8,179.6c0-0.4,0-0.9,0-1.3c0.7,0,1.5,0,2.3,0l0.4,0c0,0.2,0,0.4,0,0.7
		c0,0.3,0.1,0.6,0.3,0.8C265.8,179.7,264.8,179.8,263.8,179.6L263.8,179.6L263.8,179.6z M247.8,184.6c0-1.5,1.1-2.6,2.6-2.6l4.6,0
		c1,0,1.4-0.4,1.4-1.4v-1.4c1.7,0.4,3.4,0.4,5.2,0l0,1.5c0,0.9,0.4,1.3,1.3,1.3c0.4,0,0.7,0,1.1,0c-0.1,0.5-0.3,1-0.8,1.4
		c-0.5,0.5-1.1,0.7-2.1,0.7c0,0,0,0,0,0c-2,0-4,0-6,0l-1,0c-2.8,0-4.9,2.1-4.9,4.9l0,0.6h-1.5l0-0.4
		C247.8,187.7,247.8,186.2,247.8,184.6z M252.5,186.8c0.5-0.4,1-0.5,1.6-0.5c0.8,0,1.6,0,2.4,0c1.7,0,3.4,0,5.2,0
		c2.4,0,4.3-1.8,4.6-4.2c0.1,0,0.2,0,0.4,0c0.6,0,1.1,0,1.6,0c1.1,0.2,2,1.2,2,2.3c0,1.3,0,2.6,0,3.9l0,1.3h-18.7
		C251.4,188.4,251.6,187.5,252.5,186.8z M219.7,136.8c-0.1-0.2-0.2-0.3-0.2-0.5c0-5.2,0-10.5,0-15.7c0-0.6,0-1.5-0.1-2.3
		c-0.5-3.6-2.4-6.4-5.4-8.5c-2.6-1.7-5.5-2.3-8.6-1.8c-3.5,0.6-6.4,2.5-8.4,5.6c-1.3,2-1.9,4.2-1.9,6.8c0,5.3,0,10.6,0,16
		c0,0.2,0,0.3,0,0.3c0,0,0,0,0,0c-0.8,0.9-1.2,2.1-1.2,3.5l0,4.9c0,0.1,0,0.2,0,0.3h-10.3v-42h47.5v42h-10.3c0-0.1,0-0.2,0-0.2
		c0-1.7,0-3.4,0-5.1C220.8,138.7,220.5,137.7,219.7,136.8z M206.1,137.3L206.1,137.3L206.1,137.3L206.1,137.3z M205.5,138.4
		C205.5,138.4,205.5,138.4,205.5,138.4c0.3,0,0.6-0.1,0.8-0.3c0.1,0.5,0.5,0.9,1.1,0.9c0,0,0,0,0,0c0.6,0,1-0.4,1.1-0.9
		c0.2,0.2,0.5,0.3,0.8,0.3c0,0,0,0,0,0c0.1,0,0.2,0,0.3-0.1l-2.2,2.2l-2.2-2.2C205.3,138.4,205.4,138.4,205.5,138.4z M209.2,136.2
		c-0.3,0-0.6,0.1-0.8,0.4c-0.2,0.2-0.2,0.4-0.3,0.6c-0.2-0.2-0.5-0.3-0.8-0.3c0,0,0,0,0,0c-0.3,0-0.6,0.1-0.8,0.3
		c-0.1-0.5-0.5-0.9-1.1-0.9c0,0,0,0,0,0c-0.6,0-1.1,0.5-1.1,1.1c0,0.1,0,0.3,0.1,0.4l-0.6-0.6c0.5-0.1,0.8-0.6,0.8-1.2l0-1.5
		c1.7,0.4,3.4,0.4,5.2,0l0,1.5c0,0.7,0.3,1.1,0.8,1.3l-0.4,0.4c0-0.1,0.1-0.2,0.1-0.3C210.3,136.7,209.8,136.2,209.2,136.2z
		 M214.4,118.4c-0.4,0-0.8,0-1.2,0c-0.5,0-1,0-1.5-0.1c-1.7-0.2-3.2-1.7-3.2-3.4c0-1.2,0-2.4,0-3.5c0-0.4,0-0.8,0-1.2
		c1.4,0.2,2.8,0.6,4,1.4c2.4,1.5,3.9,3.6,4.5,6.3c0.2,0.7,0.3,1.5,0.3,2.3c0,0.1,0,0.1,0,0.2C216.8,119.2,215.7,118.4,214.4,118.4z
		 M212.5,120.6c0.6,0,1.2,0,1.9,0c0.5,0,1.1,0.5,1.1,1l0,0.7c0.1,1.4,0.1,2.8-0.2,4.1c-0.8,3-2.7,5-5.7,5.8
		c-2.2,0.6-4.4,0.3-6.4-0.8c-1.9-1.2-3.3-3.1-3.7-5.3c-0.1-0.6-0.1-1.3-0.2-2c0-0.3,0-0.5,0-0.8c0-0.5,0-1,0-1.4
		c0.1-0.7,0.5-1.2,1.2-1.2c0.4,0,0.8,0,1.2,0c0.4,0,0.7,0,1.1,0c1.9-0.1,3.5-1,4.6-2.6c0,0,0.1,0.1,0.1,0.1c0.4,0.4,0.8,0.9,1.2,1.2
		C209.7,120.2,211,120.6,212.5,120.6z M206.2,114.6L206.2,114.6c-0.1,2.1-1.6,3.7-3.8,3.7c-0.5,0-1.1,0-1.6,0c-1,0-2,0.3-2.7,1
		c-0.3,0.3-0.5,0.6-0.7,1c0,0,0,0,0,0c0-4.1,1.9-7.2,5.6-9.2c1-0.5,2.1-0.8,3.2-0.9c0,0.4,0,0.7,0,1.1
		C206.2,112.4,206.3,113.5,206.2,114.6z M197.5,127.5c0.9,2.6,2.5,4.7,4.9,6c0.2,0.1,0.2,0.1,0.1,0.2c0,0.4,0,0.8,0,1.1v0.1
		c-0.6,0-1.2,0-1.8,0c-1.1,0-2.2-0.1-3.4,0.2l0-4.2c0-1.3,0-2.6,0-3.8C197.4,127.2,197.4,127.4,197.5,127.5z M212.2,135L212.2,135
		c0-0.5,0-1,0-1.4c0,0,0.1,0,0.1-0.1c2.2-1.2,3.8-3,4.7-5.3c0.1-0.3,0.2-0.7,0.3-1c0,1.6,0,3.2,0,4.7l0,3.3c0,0-0.1,0-0.1,0l-0.2,0
		c-0.5-0.1-1.1-0.1-1.7-0.2c-0.5,0-1,0-1.5,0c-0.4,0-0.7,0-1.1,0L212.2,135z M196.2,143.5c0-1.3,0-2.7,0-4c0-1.1,1.1-2.1,2.2-2.2h0
		c0.6,0,1.4-0.1,2.2,0c0,0,0.1,0,0.2,0.1c1.4,1.4,2.8,2.8,4.3,4.2l1.2,1.2c0.7,0.7,1.3,0.7,2,0l1.3-1.3c1.4-1.4,2.8-2.8,4.2-4.2
		c0.1-0.1,0.2-0.1,0.3-0.1c0.8,0,1.5,0,2.2,0c1.1,0.1,2.1,1,2.1,2c0.1,1.4,0,2.7,0,4.2c0,0.4,0,0.9,0,1.3h-22.3L196.2,143.5z
		 M222,185.6c-0.1-1.9-0.9-3.4-2.5-4.5c-1.1-0.8-2.3-1.1-3.8-1.1c0,0,0,0,0,0l-2.9,0l0-0.2c0-0.5,0-1,0-1.5c0-0.1,0-0.1,0.1-0.2
		c2.5-1.7,4.1-3.9,4.6-6.8c0.3-1.7,0.3-3.4,0.2-5.1c0-0.4,0-0.9,0-1.3c0-0.9-0.2-1.8-0.4-2.6c-1.1-3.7-3.5-6.1-7.1-7.1
		c-3.7-1.1-7.2-0.2-10.1,2.6c-1.9,1.8-2.9,4.1-3.1,6.8c-0.1,1.5-0.1,2.9,0,4.3l0,0.3c0,3.9,1.7,6.9,4.9,9.1c0,0.6,0,1.1,0,1.7l0,0.1
		h-0.1c-0.4,0-0.7,0-1.1,0c-0.8,0-1.7,0-2.5,0c-2.5,0.1-4.8,2.1-5.3,4.5c-0.3,1.5-0.3,3-0.2,4.5c0,0.3,0,0.5,0,0.8h-9.1v-42h47.5v42
		H222l0-0.4C222.1,188.1,222.1,186.8,222,185.6z M206.8,157.6L206.8,157.6L206.8,157.6L206.8,157.6z M199.3,164.4
		c0-0.3,0-0.3,0.1-0.4c0.3-0.1,0.4-0.5,0.4-0.7c0.1-0.3,0-0.5-0.1-0.7l0,0c-0.1-0.1-0.1-0.1,0-0.3c0.5,0.1,0.8-0.1,1-0.2
		c0.2-0.2,0.5-0.7,0.4-1.1c-0.1-0.2-0.2-0.4-0.4-0.6l0.1-0.1c0.2,0.1,0.5,0.2,0.6,0.2c0.3,0,0.6-0.1,0.8-0.4
		c0.2-0.2,0.3-0.5,0.3-0.8c0-0.2-0.1-0.4-0.2-0.6c0.1-0.1,0.2-0.2,0.4-0.1c0.4,0.1,0.9-0.3,1-0.7c0-0.1,0.1-0.1,0.4-0.3l0,0
		c0.1,0.5,0.5,1,1.1,1c0,0,0,0,0,0c0.3,0,0.6-0.1,0.8-0.3c0.2-0.2,0.3-0.5,0.3-0.8c0-0.2-0.1-0.4-0.2-0.5c0.2,0,0.5-0.1,0.7-0.1
		c-0.2,0.2-0.3,0.4-0.3,0.6c0,0.3,0.1,0.6,0.3,0.8c0.2,0.2,0.5,0.3,0.8,0.3c0,0,0,0,0,0h0c0.3,0,0.6-0.1,0.8-0.3
		c0.2-0.2,0.3-0.5,0.3-0.8c0-0.3-0.1-0.5-0.2-0.7c0.2,0,0.4,0.1,0.7,0.1c-0.1,0.2-0.2,0.3-0.2,0.5c0,0.6,0.5,1.1,1.1,1.1h0
		c0,0,0,0,0,0c0.3,0,0.6-0.1,0.8-0.3c0.2-0.2,0.3-0.4,0.3-0.7c0.1,0,0.1,0,0.2,0.1c0,0,0.1,0.1,0.1,0.1c0.1,0.1,0.1,0.2,0.2,0.3
		l0.1,0.1c0.2,0.2,0.4,0.4,0.7,0.4c0.2,0.1,0.4,0.1,0.5,0.2c-0.1,0.2-0.2,0.4-0.2,0.5c0,0.3,0.1,0.5,0.3,0.8
		c0.2,0.2,0.5,0.4,0.8,0.4c0.2,0,0.4,0,0.6-0.1l0.1,0.1c-0.1,0.1-0.2,0.2-0.3,0.4c-0.2,0.4,0,0.9,0,0.9c0.1,0.3,0.3,0.4,0.6,0.5
		c0.2,0.1,0.4,0.1,0.7,0c0.1,0.2,0.1,0.2,0,0.3c-0.3,0.5-0.1,1,0.4,1.4c0,0.6,0,1.2,0,1.7c0,1.6,0,3.2-0.1,4.7c-0.2,2-1.2,3.7-3,5.1
		c-3.5,2.7-8.4,2.2-11.2-1.2c-1.2-1.5-1.9-3.2-1.9-5.2C199.2,167.7,199.2,166.1,199.3,164.4z M194.9,189.3c0-0.4,0-0.8,0-1.1
		c0-0.8,0-1.7,0-2.5c0.1-1.9,1.6-3.4,3.5-3.5c1,0,2.1,0,3.1,0l1,0c1,0.9,2.1,1.5,3.7,1.7v5.8h-11.3L194.9,189.3z M210.6,179.2
		c0,0.5,0,1,0,1.5c0,0,0,0,0,0c-0.7,0.7-1.7,1.1-3,1.1h0c-1.4,0-2.5-0.3-3.3-1.1c0,0-0.1-0.1-0.1-0.2c0-0.4,0-0.9,0-1.3
		C206.3,179.8,208.4,179.8,210.6,179.2z M208.5,187C208.5,187,208.5,187,208.5,187c0.3,0,0.7-0.1,1-0.4c0.3-0.4,0.2-0.9,0-1.2
		c-0.2-0.4-0.5-0.6-0.7-0.8c-0.2-0.1-0.3-0.3-0.3-0.6c0.1,0,0.3-0.1,0.4-0.1c0.5-0.2,1.1-0.3,1.6-0.5c0.4-0.2,0.7-0.4,1.1-0.7
		c0.2-0.1,0.3-0.2,0.5-0.4c0.1,0,0.1-0.1,0.1-0.1l0.7,0c1.1,0,2.3,0,3.4,0c1.8,0.1,3.4,1.6,3.5,3.4c0.1,1.1,0.1,2.1,0,3.2
		c0,0.3,0,0.7,0,1h-11.3V187z"/>
	<path fill="#7500D4" d="M211.2,161.3c0,0.3,0.1,0.6,0.3,0.8c0.2,0.2,0.5,0.3,0.8,0.3c0,0,0,0,0,0c0.3,0,0.6-0.1,0.8-0.3
		c0.2-0.2,0.3-0.5,0.3-0.8c0-0.6-0.5-1.1-1.1-1.1c0,0,0,0,0,0C211.7,160.2,211.2,160.7,211.2,161.3z"/>
	<path fill="#7500D4" d="M208.6,160.5C208.6,160.5,208.6,160.5,208.6,160.5c0.6,0,1.1-0.5,1.1-1.1c0-0.6-0.5-1.1-1.1-1.1
		c-0.6,0-1.1,0.5-1.1,1.1c0,0.3,0.1,0.6,0.3,0.8C208,160.4,208.3,160.5,208.6,160.5z"/>
	<path fill="#7500D4" d="M206.3,161.2c0,0.3,0.1,0.6,0.3,0.8c0.2,0.2,0.5,0.3,0.8,0.4c0,0,0,0,0,0c0.6,0,1.1-0.5,1.1-1.1
		c0-0.3-0.1-0.6-0.3-0.8c-0.2-0.2-0.5-0.3-0.8-0.4h0c0,0,0,0,0,0C206.8,160.2,206.3,160.6,206.3,161.2z M207.3,161.9L207.3,161.9
		L207.3,161.9L207.3,161.9z M207.4,160.7L207.4,160.7L207.4,160.7L207.4,160.7z"/>
	<path fill="#7500D4" d="M206.2,160.5C206.2,160.5,206.2,160.5,206.2,160.5L206.2,160.5c0.6,0,1.1-0.5,1.1-1.1
		c0-0.3-0.1-0.6-0.3-0.8c-0.2-0.2-0.5-0.3-0.8-0.3c0,0,0,0,0,0c-0.6,0-1.1,0.5-1.1,1.1c0,0.3,0.1,0.6,0.3,0.8
		C205.6,160.4,205.8,160.5,206.2,160.5z"/>
	<path fill="#7500D4" d="M208.7,161.3c0,0.3,0.1,0.6,0.3,0.8c0.2,0.2,0.5,0.3,0.8,0.3c0,0,0,0,0,0c0.6,0,1.1-0.5,1.1-1.1
		c0-0.3-0.1-0.6-0.3-0.8c-0.2-0.2-0.5-0.3-0.8-0.3C209.2,160.2,208.7,160.7,208.7,161.3z M209.8,161.9
		C209.8,161.9,209.8,161.9,209.8,161.9L209.8,161.9L209.8,161.9z"/>
	<path fill="#7500D4" d="M211.1,160.5C211.1,160.5,211.1,160.5,211.1,160.5L211.1,160.5c0.6,0,1.1-0.5,1.1-1.1
		c0-0.3-0.1-0.6-0.3-0.8c-0.2-0.2-0.5-0.3-0.8-0.3c-0.6,0-1.1,0.5-1.1,1.1c0,0.3,0.1,0.6,0.3,0.8
		C210.5,160.4,210.8,160.5,211.1,160.5z"/>
	<path fill="#7500D4" d="M206.1,162c-0.3,0-0.6,0.1-0.8,0.4c-0.2,0.2-0.3,0.5-0.3,0.8c0,0.6,0.5,1.1,1.1,1.1c0,0,0,0,0,0h0
		c0.3,0,0.6-0.1,0.8-0.4c0.2-0.2,0.3-0.5,0.3-0.8C207.2,162.5,206.7,162,206.1,162z"/>
	<path fill="#7500D4" d="M203.6,160.5C203.6,160.5,203.7,160.5,203.6,160.5c0.3,0,0.6-0.1,0.8-0.3c0.2-0.2,0.3-0.5,0.3-0.8
		c0-0.3-0.1-0.6-0.3-0.8c-0.2-0.2-0.5-0.3-0.8-0.3c-0.6,0-1.1,0.5-1.1,1.1c0,0.3,0.1,0.6,0.3,0.8
		C203.1,160.4,203.3,160.5,203.6,160.5z"/>
	<path fill="#7500D4" d="M202.4,162.4C202.4,162.4,202.4,162.4,202.4,162.4c0.3,0,0.6-0.1,0.8-0.3c0.2-0.2,0.3-0.5,0.3-0.8
		c0-0.6-0.5-1.1-1.1-1.1c-0.3,0-0.6,0.1-0.8,0.3c-0.2,0.2-0.3,0.5-0.3,0.8C201.3,161.9,201.8,162.4,202.4,162.4z"/>
	<path fill="#7500D4" d="M203.8,161.3c0,0.6,0.5,1.1,1.1,1.1c0,0,0,0,0,0c0.3,0,0.6-0.1,0.8-0.3c0.2-0.2,0.3-0.5,0.3-0.8
		c0-0.6-0.5-1.1-1.1-1.1c0,0,0,0,0,0c-0.3,0-0.6,0.1-0.8,0.3C203.9,160.7,203.8,161,203.8,161.3z M205.5,161.3L205.5,161.3
		L205.5,161.3L205.5,161.3z"/>
	<path fill="#7500D4" d="M208.6,162C208.6,162,208.6,162,208.6,162c-0.6,0-1.1,0.5-1.1,1.1c0,0.3,0.1,0.6,0.3,0.8
		c0.2,0.2,0.5,0.3,0.8,0.3c0,0,0,0,0,0c0.3,0,0.6-0.1,0.8-0.3c0.2-0.2,0.3-0.5,0.3-0.8C209.7,162.5,209.2,162,208.6,162z"/>
</g>
</svg>
