<?xml version="1.0" encoding="utf-8"?>
<!-- Generator: Adobe Illustrator 26.3.1, SVG Export Plug-In . SVG Version: 6.00 Build 0)  -->
<svg version="1.1" baseProfile="tiny" id="Layer_1" xmlns="http://www.w3.org/2000/svg" xmlns:xlink="http://www.w3.org/1999/xlink"
	 x="0px" y="0px" width="514.7px" height="340.2px" viewBox="0 0 514.7 340.2" overflow="visible" xml:space="preserve">
<path fill="#F2EDED" d="M498.7,340.2H16c-8.8,0-16-7.1-16-16V16C0,7.1,7.1,0,16,0h482.7c8.8,0,16,7.1,16,16v308.3
	C514.7,333.1,507.5,340.2,498.7,340.2z"/>
<circle fill="#E7DAF0" cx="75.3" cy="164.2" r="43.1"/>
<g>
	<path fill="#363636" d="M78.1,56.7v5.2c0,0.6,0.1,1,0.4,1.3c0.3,0.3,0.7,0.4,1.2,0.4c0.5,0,1-0.1,1.3-0.4c0.3-0.3,0.4-0.7,0.4-1.3
		v-5.2h1.7v5.2c0,0.7-0.2,1.3-0.5,1.8c-0.3,0.5-0.7,0.9-1.2,1.1s-1.1,0.4-1.7,0.4c-0.6,0-1.2-0.1-1.7-0.4c-0.5-0.2-0.9-0.6-1.2-1.1
		c-0.3-0.5-0.4-1.1-0.4-1.8v-5.2H78.1z"/>
	<path fill="#363636" d="M90.4,59c0.5,0.5,0.7,1.2,0.7,2.1V65h-1.7v-3.7c0-0.5-0.1-0.9-0.4-1.2c-0.3-0.3-0.6-0.4-1.1-0.4
		c-0.5,0-0.8,0.1-1.1,0.4c-0.3,0.3-0.4,0.7-0.4,1.2V65h-1.7v-6.6h1.7v0.8c0.2-0.3,0.5-0.5,0.9-0.7c0.3-0.2,0.7-0.2,1.1-0.2
		C89.3,58.3,90,58.5,90.4,59z"/>
	<path fill="#363636" d="M92.7,59.9c0.3-0.5,0.6-0.9,1.1-1.2s1-0.4,1.5-0.4c0.4,0,0.8,0.1,1.2,0.3c0.4,0.2,0.7,0.4,0.9,0.8v-3.2h1.7
		V65h-1.7v-1c-0.2,0.3-0.5,0.6-0.9,0.8c-0.4,0.2-0.8,0.3-1.3,0.3c-0.6,0-1.1-0.1-1.5-0.4S93,64,92.7,63.5c-0.3-0.5-0.4-1.1-0.4-1.8
		C92.3,61,92.5,60.4,92.7,59.9z M97.3,60.7c-0.2-0.3-0.4-0.5-0.6-0.7c-0.3-0.2-0.6-0.2-0.9-0.2s-0.6,0.1-0.9,0.2
		c-0.3,0.2-0.5,0.4-0.6,0.7s-0.2,0.6-0.2,1c0,0.4,0.1,0.8,0.2,1s0.4,0.5,0.6,0.7c0.3,0.2,0.6,0.2,0.9,0.2c0.3,0,0.6-0.1,0.9-0.2
		c0.3-0.2,0.5-0.4,0.6-0.7c0.2-0.3,0.2-0.6,0.2-1S97.5,61,97.3,60.7z"/>
	<path fill="#363636" d="M107,62.2h-4.9c0,0.5,0.2,0.9,0.5,1.1c0.3,0.3,0.7,0.4,1.1,0.4c0.6,0,1.1-0.3,1.3-0.8h1.8
		c-0.2,0.6-0.6,1.2-1.1,1.6s-1.2,0.6-2,0.6c-0.6,0-1.2-0.1-1.7-0.4c-0.5-0.3-0.9-0.7-1.2-1.2c-0.3-0.5-0.4-1.1-0.4-1.8
		c0-0.7,0.1-1.3,0.4-1.8c0.3-0.5,0.7-0.9,1.2-1.2c0.5-0.3,1.1-0.4,1.7-0.4c0.6,0,1.2,0.1,1.7,0.4c0.5,0.3,0.9,0.7,1.2,1.2
		c0.3,0.5,0.4,1.1,0.4,1.7C107.1,61.8,107.1,62,107,62.2z M105.3,61.1c0-0.4-0.2-0.8-0.5-1c-0.3-0.3-0.7-0.4-1.1-0.4
		c-0.4,0-0.8,0.1-1.1,0.4c-0.3,0.3-0.5,0.6-0.5,1H105.3z"/>
	<path fill="#363636" d="M110.8,58.6c0.3-0.2,0.7-0.3,1.2-0.3v1.8h-0.4c-0.5,0-0.9,0.1-1.2,0.4c-0.3,0.2-0.4,0.7-0.4,1.3V65h-1.7
		v-6.6h1.7v1C110.2,59.1,110.5,58.8,110.8,58.6z"/>
	<path fill="#363636" d="M114.2,64.9c-0.4-0.2-0.8-0.5-1-0.8s-0.4-0.7-0.4-1.1h1.7c0,0.3,0.2,0.5,0.4,0.6c0.2,0.2,0.5,0.3,0.8,0.3
		c0.3,0,0.6-0.1,0.8-0.2c0.2-0.1,0.3-0.3,0.3-0.5c0-0.2-0.1-0.4-0.3-0.5c-0.2-0.1-0.6-0.2-1-0.4c-0.5-0.1-0.9-0.2-1.2-0.4
		c-0.3-0.1-0.6-0.3-0.8-0.6c-0.2-0.3-0.3-0.6-0.3-1.1c0-0.4,0.1-0.7,0.3-1c0.2-0.3,0.5-0.5,0.9-0.7s0.9-0.3,1.4-0.3
		c0.8,0,1.4,0.2,1.9,0.6c0.5,0.4,0.7,0.9,0.8,1.6h-1.6c0-0.3-0.1-0.5-0.3-0.6c-0.2-0.2-0.5-0.2-0.8-0.2c-0.3,0-0.5,0.1-0.7,0.2
		s-0.2,0.3-0.2,0.5c0,0.2,0.1,0.4,0.3,0.5c0.2,0.1,0.6,0.2,1,0.4c0.5,0.1,0.9,0.2,1.2,0.4s0.6,0.3,0.8,0.6c0.2,0.3,0.3,0.6,0.4,1.1
		c0,0.4-0.1,0.7-0.3,1c-0.2,0.3-0.5,0.5-0.9,0.7s-0.9,0.3-1.4,0.3C115.2,65.1,114.7,65,114.2,64.9z"/>
	<path fill="#363636" d="M121.7,59.8V63c0,0.2,0.1,0.4,0.2,0.5c0.1,0.1,0.3,0.2,0.5,0.2h0.8V65h-1.1c-1.4,0-2.1-0.7-2.1-2.1v-3.2
		h-0.8v-1.4h0.8v-1.6h1.7v1.6h1.5v1.4H121.7z"/>
	<path fill="#363636" d="M124.3,59.9c0.3-0.5,0.6-0.9,1.1-1.2c0.5-0.3,1-0.4,1.5-0.4c0.5,0,0.9,0.1,1.3,0.3s0.7,0.5,0.9,0.8v-0.9
		h1.7V65h-1.7v-1c-0.2,0.3-0.5,0.6-0.9,0.8s-0.8,0.3-1.3,0.3c-0.6,0-1.1-0.1-1.5-0.4c-0.5-0.3-0.8-0.7-1.1-1.2
		c-0.3-0.5-0.4-1.1-0.4-1.8C123.9,61,124.1,60.4,124.3,59.9z M128.9,60.7c-0.2-0.3-0.4-0.5-0.6-0.7c-0.3-0.2-0.6-0.2-0.9-0.2
		s-0.6,0.1-0.9,0.2c-0.3,0.2-0.5,0.4-0.6,0.7s-0.2,0.6-0.2,1c0,0.4,0.1,0.8,0.2,1s0.4,0.5,0.6,0.7c0.3,0.2,0.6,0.2,0.9,0.2
		c0.3,0,0.6-0.1,0.9-0.2c0.3-0.2,0.5-0.4,0.6-0.7c0.2-0.3,0.2-0.6,0.2-1S129.1,61,128.9,60.7z"/>
	<path fill="#363636" d="M138.1,59c0.5,0.5,0.7,1.2,0.7,2.1V65h-1.7v-3.7c0-0.5-0.1-0.9-0.4-1.2c-0.3-0.3-0.6-0.4-1.1-0.4
		c-0.5,0-0.8,0.1-1.1,0.4c-0.3,0.3-0.4,0.7-0.4,1.2V65h-1.7v-6.6h1.7v0.8c0.2-0.3,0.5-0.5,0.9-0.7c0.3-0.2,0.7-0.2,1.1-0.2
		C137,58.3,137.6,58.5,138.1,59z"/>
	<path fill="#363636" d="M140.4,59.9c0.3-0.5,0.6-0.9,1.1-1.2s1-0.4,1.5-0.4c0.4,0,0.8,0.1,1.2,0.3c0.4,0.2,0.7,0.4,0.9,0.8v-3.2
		h1.7V65h-1.7v-1c-0.2,0.3-0.5,0.6-0.9,0.8c-0.4,0.2-0.8,0.3-1.3,0.3c-0.6,0-1.1-0.1-1.5-0.4s-0.8-0.7-1.1-1.2
		c-0.3-0.5-0.4-1.1-0.4-1.8C140,61,140.1,60.4,140.4,59.9z M145,60.7c-0.2-0.3-0.4-0.5-0.6-0.7c-0.3-0.2-0.6-0.2-0.9-0.2
		s-0.6,0.1-0.9,0.2c-0.3,0.2-0.5,0.4-0.6,0.7s-0.2,0.6-0.2,1c0,0.4,0.1,0.8,0.2,1s0.4,0.5,0.6,0.7c0.3,0.2,0.6,0.2,0.9,0.2
		c0.3,0,0.6-0.1,0.9-0.2c0.3-0.2,0.5-0.4,0.6-0.7c0.2-0.3,0.2-0.6,0.2-1S145.1,61,145,60.7z"/>
</g>
<g>
	<path fill="#363636" d="M237.5,58.6c0.4-0.7,0.9-1.2,1.5-1.5c0.6-0.4,1.4-0.5,2.2-0.5c0.9,0,1.8,0.2,2.5,0.7c0.7,0.5,1.2,1.1,1.5,2
		h-1.9c-0.2-0.4-0.5-0.7-0.8-0.9c-0.3-0.2-0.8-0.3-1.2-0.3c-0.5,0-0.9,0.1-1.3,0.3c-0.4,0.2-0.7,0.5-0.9,1s-0.3,0.9-0.3,1.5
		c0,0.6,0.1,1,0.3,1.5s0.5,0.7,0.9,1c0.4,0.2,0.8,0.3,1.3,0.3c0.5,0,0.9-0.1,1.2-0.3c0.3-0.2,0.6-0.5,0.8-0.9h1.9
		c-0.3,0.9-0.8,1.5-1.5,2c-0.7,0.5-1.5,0.7-2.5,0.7c-0.8,0-1.5-0.2-2.2-0.5c-0.6-0.4-1.2-0.9-1.5-1.5c-0.4-0.6-0.6-1.4-0.6-2.2
		C236.9,60,237.1,59.3,237.5,58.6z"/>
	<path fill="#363636" d="M249.1,58.6c0.3-0.2,0.7-0.3,1.2-0.3v1.8h-0.4c-0.5,0-0.9,0.1-1.2,0.4c-0.3,0.2-0.4,0.7-0.4,1.3V65h-1.7
		v-6.6h1.7v1C248.4,59.1,248.7,58.8,249.1,58.6z"/>
	<path fill="#363636" d="M257.5,62.2h-4.9c0,0.5,0.2,0.9,0.5,1.1c0.3,0.3,0.7,0.4,1.1,0.4c0.6,0,1.1-0.3,1.3-0.8h1.8
		c-0.2,0.6-0.6,1.2-1.1,1.6s-1.2,0.6-2,0.6c-0.6,0-1.2-0.1-1.7-0.4c-0.5-0.3-0.9-0.7-1.2-1.2c-0.3-0.5-0.4-1.1-0.4-1.8
		c0-0.7,0.1-1.3,0.4-1.8c0.3-0.5,0.7-0.9,1.2-1.2c0.5-0.3,1.1-0.4,1.7-0.4c0.6,0,1.2,0.1,1.7,0.4c0.5,0.3,0.9,0.7,1.2,1.2
		c0.3,0.5,0.4,1.1,0.4,1.7C257.6,61.8,257.6,62,257.5,62.2z M255.8,61.1c0-0.4-0.2-0.8-0.5-1c-0.3-0.3-0.7-0.4-1.1-0.4
		c-0.4,0-0.8,0.1-1.1,0.4c-0.3,0.3-0.5,0.6-0.5,1H255.8z"/>
	<path fill="#363636" d="M258.8,59.9c0.3-0.5,0.6-0.9,1.1-1.2s1-0.4,1.5-0.4c0.5,0,0.9,0.1,1.3,0.3s0.7,0.5,0.9,0.8v-0.9h1.7V65
		h-1.7v-1c-0.2,0.3-0.5,0.6-0.9,0.8s-0.8,0.3-1.3,0.3c-0.6,0-1.1-0.1-1.5-0.4s-0.8-0.7-1.1-1.2c-0.3-0.5-0.4-1.1-0.4-1.8
		C258.4,61,258.5,60.4,258.8,59.9z M263.4,60.7c-0.2-0.3-0.4-0.5-0.6-0.7c-0.3-0.2-0.6-0.2-0.9-0.2c-0.3,0-0.6,0.1-0.9,0.2
		c-0.3,0.2-0.5,0.4-0.6,0.7s-0.2,0.6-0.2,1c0,0.4,0.1,0.8,0.2,1s0.4,0.5,0.6,0.7c0.3,0.2,0.6,0.2,0.9,0.2c0.3,0,0.6-0.1,0.9-0.2
		c0.3-0.2,0.5-0.4,0.6-0.7c0.2-0.3,0.2-0.6,0.2-1S263.5,61,263.4,60.7z"/>
	<path fill="#363636" d="M268.9,59.8V63c0,0.2,0.1,0.4,0.2,0.5c0.1,0.1,0.3,0.2,0.5,0.2h0.8V65h-1.1c-1.4,0-2.1-0.7-2.1-2.1v-3.2
		h-0.8v-1.4h0.8v-1.6h1.7v1.6h1.5v1.4H268.9z"/>
	<path fill="#363636" d="M277.7,62.2h-4.9c0,0.5,0.2,0.9,0.5,1.1c0.3,0.3,0.7,0.4,1.1,0.4c0.6,0,1.1-0.3,1.3-0.8h1.8
		c-0.2,0.6-0.6,1.2-1.1,1.6s-1.2,0.6-2,0.6c-0.6,0-1.2-0.1-1.7-0.4c-0.5-0.3-0.9-0.7-1.2-1.2c-0.3-0.5-0.4-1.1-0.4-1.8
		c0-0.7,0.1-1.3,0.4-1.8c0.3-0.5,0.7-0.9,1.2-1.2s1.1-0.4,1.7-0.4c0.6,0,1.2,0.1,1.7,0.4c0.5,0.3,0.9,0.7,1.2,1.2
		c0.3,0.5,0.4,1.1,0.4,1.7C277.8,61.8,277.7,62,277.7,62.2z M276,61.1c0-0.4-0.2-0.8-0.5-1c-0.3-0.3-0.7-0.4-1.1-0.4
		c-0.4,0-0.8,0.1-1.1,0.4c-0.3,0.3-0.5,0.6-0.5,1H276z"/>
</g>
<g>
	<path fill="#363636" d="M388,57.2c0.7,0.3,1.2,0.8,1.5,1.5c0.4,0.6,0.5,1.4,0.5,2.2s-0.2,1.6-0.5,2.2c-0.4,0.6-0.9,1.1-1.5,1.5
		c-0.7,0.3-1.4,0.5-2.3,0.5h-2.9v-8.4h2.9C386.5,56.7,387.3,56.8,388,57.2z M387.6,62.9c0.5-0.5,0.7-1.2,0.7-2s-0.2-1.6-0.7-2
		c-0.5-0.5-1.2-0.7-2-0.7h-1.2v5.5h1.2C386.5,63.6,387.2,63.4,387.6,62.9z"/>
	<path fill="#363636" d="M397.5,62.2h-4.9c0,0.5,0.2,0.9,0.5,1.1c0.3,0.3,0.7,0.4,1.1,0.4c0.6,0,1.1-0.3,1.3-0.8h1.8
		c-0.2,0.6-0.6,1.2-1.1,1.6s-1.2,0.6-2,0.6c-0.6,0-1.2-0.1-1.7-0.4c-0.5-0.3-0.9-0.7-1.2-1.2c-0.3-0.5-0.4-1.1-0.4-1.8
		c0-0.7,0.1-1.3,0.4-1.8c0.3-0.5,0.7-0.9,1.2-1.2s1.1-0.4,1.7-0.4c0.6,0,1.2,0.1,1.7,0.4c0.5,0.3,0.9,0.7,1.2,1.2
		c0.3,0.5,0.4,1.1,0.4,1.7C397.5,61.8,397.5,62,397.5,62.2z M395.8,61.1c0-0.4-0.2-0.8-0.5-1c-0.3-0.3-0.7-0.4-1.1-0.4
		c-0.4,0-0.8,0.1-1.1,0.4c-0.3,0.3-0.5,0.6-0.5,1H395.8z"/>
	<path fill="#363636" d="M400.4,56.2V65h-1.7v-8.9H400.4z"/>
	<path fill="#363636" d="M402.2,57.3c-0.2-0.2-0.3-0.4-0.3-0.7s0.1-0.5,0.3-0.7c0.2-0.2,0.4-0.3,0.7-0.3s0.5,0.1,0.7,0.3
		c0.2,0.2,0.3,0.4,0.3,0.7s-0.1,0.5-0.3,0.7c-0.2,0.2-0.4,0.3-0.7,0.3S402.4,57.5,402.2,57.3z M403.8,58.4V65h-1.7v-6.6H403.8z"/>
	<path fill="#363636" d="M408.2,63.5l1.7-5.1h1.8l-2.5,6.6h-2l-2.4-6.6h1.8L408.2,63.5z"/>
	<path fill="#363636" d="M418.7,62.2h-4.9c0,0.5,0.2,0.9,0.5,1.1c0.3,0.3,0.7,0.4,1.1,0.4c0.6,0,1.1-0.3,1.3-0.8h1.8
		c-0.2,0.6-0.6,1.2-1.1,1.6s-1.2,0.6-2,0.6c-0.6,0-1.2-0.1-1.7-0.4c-0.5-0.3-0.9-0.7-1.2-1.2c-0.3-0.5-0.4-1.1-0.4-1.8
		c0-0.7,0.1-1.3,0.4-1.8c0.3-0.5,0.7-0.9,1.2-1.2s1.1-0.4,1.7-0.4c0.6,0,1.2,0.1,1.7,0.4c0.5,0.3,0.9,0.7,1.2,1.2
		c0.3,0.5,0.4,1.1,0.4,1.7C418.8,61.8,418.8,62,418.7,62.2z M417,61.1c0-0.4-0.2-0.8-0.5-1c-0.3-0.3-0.7-0.4-1.1-0.4
		c-0.4,0-0.8,0.1-1.1,0.4c-0.3,0.3-0.5,0.6-0.5,1H417z"/>
	<path fill="#363636" d="M422.5,58.6c0.3-0.2,0.7-0.3,1.2-0.3v1.8h-0.4c-0.5,0-0.9,0.1-1.2,0.4c-0.3,0.2-0.4,0.7-0.4,1.3V65H420
		v-6.6h1.7v1C421.9,59.1,422.2,58.8,422.5,58.6z"/>
</g>
<polygon fill="#E7DAF0" points="207.9,250.9 125.6,203.4 125.6,298.4 "/>
<polygon fill="#E7DAF0" points="354.1,208.2 311.3,239.3 327.7,289.6 380.5,289.6 396.9,239.3 "/>
<rect x="214.3" y="121.1" fill="#E7DAF0" width="86.2" height="86.2"/>
<polygon fill="#E7DAF0" points="482.7,186.2 482.7,142.3 444.6,120.3 406.5,142.3 406.5,186.2 444.6,208.2 "/>
<g>
	<path fill="#7500D4" d="M52.8,160.6v2.5h2.7v0.8h-2.7v2.6h3v0.8h-4v-7.5h4v0.8H52.8z"/>
	<path fill="#7500D4" d="M65.6,161.6c0.4,0.2,0.6,0.5,0.8,0.9c0.2,0.4,0.3,0.8,0.3,1.4v3.5h-1v-3.3c0-0.6-0.1-1-0.4-1.3
		c-0.3-0.3-0.7-0.5-1.2-0.5c-0.5,0-0.9,0.2-1.2,0.5s-0.4,0.8-0.4,1.4v3.2h-1v-3.3c0-0.6-0.1-1-0.4-1.3c-0.3-0.3-0.7-0.5-1.2-0.5
		c-0.5,0-0.9,0.2-1.2,0.5c-0.3,0.3-0.4,0.8-0.4,1.4v3.2h-1v-5.9h1v0.8c0.2-0.3,0.5-0.5,0.8-0.7c0.3-0.2,0.7-0.2,1.1-0.2
		c0.5,0,0.9,0.1,1.3,0.3c0.4,0.2,0.7,0.5,0.8,1c0.2-0.4,0.4-0.7,0.8-1c0.4-0.2,0.8-0.3,1.3-0.3C64.9,161.3,65.3,161.4,65.6,161.6z"
		/>
	<path fill="#7500D4" d="M70.2,161.6c0.4-0.2,0.8-0.3,1.3-0.3c0.5,0,1,0.1,1.4,0.4c0.4,0.2,0.8,0.6,1,1.1c0.2,0.5,0.4,1,0.4,1.6
		c0,0.6-0.1,1.1-0.4,1.6c-0.2,0.5-0.6,0.8-1,1.1s-0.9,0.4-1.4,0.4c-0.5,0-0.9-0.1-1.3-0.3c-0.4-0.2-0.7-0.5-0.9-0.8v3.9h-1v-8.6h1
		v1.1C69.6,162.1,69.8,161.8,70.2,161.6z M73.1,163.1c-0.2-0.3-0.4-0.6-0.7-0.7c-0.3-0.2-0.6-0.3-1-0.3c-0.4,0-0.7,0.1-1,0.3
		s-0.5,0.4-0.7,0.8c-0.2,0.3-0.3,0.7-0.3,1.2c0,0.4,0.1,0.8,0.3,1.2c0.2,0.3,0.4,0.6,0.7,0.8s0.6,0.3,1,0.3c0.4,0,0.7-0.1,1-0.3
		s0.5-0.4,0.7-0.8c0.2-0.3,0.3-0.7,0.3-1.2C73.3,163.8,73.3,163.5,73.1,163.1z"/>
	<path fill="#7500D4" d="M75.6,162.7c0.2-0.5,0.6-0.8,1-1.1c0.4-0.2,0.9-0.4,1.4-0.4c0.5,0,1,0.1,1.3,0.3c0.4,0.2,0.7,0.5,0.8,0.8
		v-1.1h1v5.9h-1v-1.1c-0.2,0.3-0.5,0.6-0.9,0.9c-0.4,0.2-0.8,0.3-1.3,0.3c-0.5,0-1-0.1-1.4-0.4c-0.4-0.3-0.8-0.6-1-1.1
		c-0.2-0.5-0.4-1-0.4-1.6C75.3,163.7,75.4,163.2,75.6,162.7z M80,163.1c-0.2-0.3-0.4-0.6-0.7-0.8s-0.6-0.3-1-0.3s-0.7,0.1-1,0.3
		c-0.3,0.2-0.5,0.4-0.7,0.7c-0.2,0.3-0.3,0.7-0.3,1.2c0,0.4,0.1,0.8,0.3,1.2c0.2,0.3,0.4,0.6,0.7,0.8c0.3,0.2,0.6,0.3,1,0.3
		s0.7-0.1,1-0.3s0.5-0.4,0.7-0.8c0.2-0.3,0.3-0.7,0.3-1.2S80.1,163.5,80,163.1z"/>
	<path fill="#7500D4" d="M84,162.2v3.5c0,0.3,0.1,0.5,0.2,0.6c0.1,0.1,0.3,0.2,0.6,0.2h0.7v0.8h-0.9c-0.5,0-0.9-0.1-1.2-0.4
		c-0.3-0.2-0.4-0.7-0.4-1.2v-3.5h-0.8v-0.8h0.8v-1.5h1v1.5h1.5v0.8H84z"/>
	<path fill="#7500D4" d="M86.8,160.2c-0.1-0.1-0.2-0.3-0.2-0.5s0.1-0.3,0.2-0.5s0.3-0.2,0.5-0.2c0.2,0,0.3,0.1,0.5,0.2
		c0.1,0.1,0.2,0.3,0.2,0.5s-0.1,0.3-0.2,0.5c-0.1,0.1-0.3,0.2-0.5,0.2C87.1,160.4,86.9,160.4,86.8,160.2z M87.7,161.4v5.9h-1v-5.9
		H87.7z"/>
	<path fill="#7500D4" d="M90.1,166.4H93v0.8h-4v-0.8l2.8-4.3H89v-0.8H93v0.8L90.1,166.4z"/>
	<path fill="#7500D4" d="M99.6,164.7h-4.7c0,0.6,0.2,1,0.6,1.4c0.4,0.3,0.8,0.5,1.3,0.5c0.4,0,0.8-0.1,1.1-0.3s0.5-0.5,0.6-0.8h1
		c-0.2,0.6-0.5,1-0.9,1.4c-0.5,0.4-1.1,0.5-1.8,0.5c-0.6,0-1.1-0.1-1.5-0.4c-0.4-0.2-0.8-0.6-1-1.1c-0.2-0.5-0.4-1-0.4-1.6
		s0.1-1.1,0.4-1.6c0.2-0.5,0.6-0.8,1-1.1c0.4-0.2,0.9-0.4,1.5-0.4c0.6,0,1,0.1,1.5,0.4c0.4,0.2,0.8,0.6,1,1s0.3,0.9,0.3,1.4
		C99.6,164.3,99.6,164.5,99.6,164.7z M98.3,162.9c-0.2-0.3-0.4-0.5-0.7-0.6s-0.6-0.2-0.9-0.2c-0.5,0-0.9,0.2-1.3,0.5
		c-0.3,0.3-0.5,0.7-0.6,1.3h3.7C98.6,163.5,98.5,163.2,98.3,162.9z"/>
</g>
<g>
	<path fill="#7500D4" d="M242,159.8v7.5h-1v-7.5H242z"/>
	<path fill="#7500D4" d="M243.6,162.7c0.2-0.5,0.6-0.8,1-1.1c0.4-0.2,0.9-0.4,1.4-0.4c0.5,0,0.9,0.1,1.3,0.3
		c0.4,0.2,0.7,0.5,0.9,0.8v-3.1h1v7.9h-1v-1.1c-0.2,0.3-0.5,0.6-0.9,0.9c-0.4,0.2-0.8,0.3-1.3,0.3c-0.5,0-1-0.1-1.4-0.4
		c-0.4-0.3-0.8-0.6-1-1.1c-0.2-0.5-0.4-1-0.4-1.6C243.3,163.7,243.4,163.2,243.6,162.7z M248,163.1c-0.2-0.3-0.4-0.6-0.7-0.8
		s-0.6-0.3-1-0.3s-0.7,0.1-1,0.3c-0.3,0.2-0.5,0.4-0.7,0.7c-0.2,0.3-0.3,0.7-0.3,1.2c0,0.4,0.1,0.8,0.3,1.2c0.2,0.3,0.4,0.6,0.7,0.8
		c0.3,0.2,0.6,0.3,1,0.3s0.7-0.1,1-0.3s0.5-0.4,0.7-0.8c0.2-0.3,0.3-0.7,0.3-1.2S248.2,163.5,248,163.1z"/>
	<path fill="#7500D4" d="M256.2,164.7h-4.7c0,0.6,0.2,1,0.6,1.4c0.4,0.3,0.8,0.5,1.3,0.5c0.4,0,0.8-0.1,1.1-0.3s0.5-0.5,0.6-0.8h1
		c-0.2,0.6-0.5,1-0.9,1.4c-0.5,0.4-1.1,0.5-1.8,0.5c-0.6,0-1.1-0.1-1.5-0.4c-0.4-0.2-0.8-0.6-1-1.1c-0.2-0.5-0.4-1-0.4-1.6
		s0.1-1.1,0.4-1.6c0.2-0.5,0.6-0.8,1-1.1c0.4-0.2,0.9-0.4,1.5-0.4c0.6,0,1,0.1,1.5,0.4c0.4,0.2,0.8,0.6,1,1s0.3,0.9,0.3,1.4
		C256.2,164.3,256.2,164.5,256.2,164.7z M255,162.9c-0.2-0.3-0.4-0.5-0.7-0.6s-0.6-0.2-0.9-0.2c-0.5,0-0.9,0.2-1.3,0.5
		c-0.3,0.3-0.5,0.7-0.6,1.3h3.7C255.2,163.5,255.1,163.2,255,162.9z"/>
	<path fill="#7500D4" d="M257.5,162.7c0.2-0.5,0.6-0.8,1-1.1c0.4-0.2,0.9-0.4,1.4-0.4c0.5,0,1,0.1,1.3,0.3c0.4,0.2,0.7,0.5,0.8,0.8
		v-1.1h1v5.9h-1v-1.1c-0.2,0.3-0.5,0.6-0.9,0.9c-0.4,0.2-0.8,0.3-1.3,0.3c-0.5,0-1-0.1-1.4-0.4s-0.8-0.6-1-1.1
		c-0.2-0.5-0.4-1-0.4-1.6C257.1,163.7,257.3,163.2,257.5,162.7z M261.8,163.1c-0.2-0.3-0.4-0.6-0.7-0.8c-0.3-0.2-0.6-0.3-1-0.3
		c-0.4,0-0.7,0.1-1,0.3c-0.3,0.2-0.5,0.4-0.7,0.7c-0.2,0.3-0.3,0.7-0.3,1.2c0,0.4,0.1,0.8,0.3,1.2c0.2,0.3,0.4,0.6,0.7,0.8
		c0.3,0.2,0.6,0.3,1,0.3c0.4,0,0.7-0.1,1-0.3c0.3-0.2,0.5-0.4,0.7-0.8c0.2-0.3,0.3-0.7,0.3-1.2S262,163.5,261.8,163.1z"/>
	<path fill="#7500D4" d="M265.9,162.2v3.5c0,0.3,0.1,0.5,0.2,0.6c0.1,0.1,0.3,0.2,0.6,0.2h0.7v0.8h-0.9c-0.5,0-0.9-0.1-1.2-0.4
		c-0.3-0.2-0.4-0.7-0.4-1.2v-3.5h-0.8v-0.8h0.8v-1.5h1v1.5h1.5v0.8H265.9z"/>
	<path fill="#7500D4" d="M274,164.7h-4.7c0,0.6,0.2,1,0.6,1.4c0.4,0.3,0.8,0.5,1.3,0.5c0.4,0,0.8-0.1,1.1-0.3s0.5-0.5,0.6-0.8h1
		c-0.2,0.6-0.5,1-0.9,1.4c-0.5,0.4-1.1,0.5-1.8,0.5c-0.6,0-1.1-0.1-1.5-0.4s-0.8-0.6-1-1.1c-0.2-0.5-0.4-1-0.4-1.6s0.1-1.1,0.4-1.6
		c0.2-0.5,0.6-0.8,1-1.1s0.9-0.4,1.5-0.4c0.6,0,1,0.1,1.5,0.4c0.4,0.2,0.8,0.6,1,1c0.2,0.4,0.3,0.9,0.3,1.4
		C274,164.3,274,164.5,274,164.7z M272.7,162.9c-0.2-0.3-0.4-0.5-0.7-0.6c-0.3-0.1-0.6-0.2-0.9-0.2c-0.5,0-0.9,0.2-1.3,0.5
		c-0.3,0.3-0.5,0.7-0.6,1.3h3.7C273,163.5,272.9,163.2,272.7,162.9z"/>
</g>
<g>
	<path fill="#7500D4" d="M439.1,159.8v0.8h-2v6.7h-1v-6.7h-2v-0.8H439.1z"/>
	<path fill="#7500D4" d="M445.6,164.7h-4.7c0,0.6,0.2,1,0.6,1.4c0.4,0.3,0.8,0.5,1.3,0.5c0.4,0,0.8-0.1,1.1-0.3s0.5-0.5,0.6-0.8h1
		c-0.2,0.6-0.5,1-0.9,1.4c-0.5,0.4-1.1,0.5-1.8,0.5c-0.6,0-1.1-0.1-1.5-0.4s-0.8-0.6-1-1.1c-0.2-0.5-0.4-1-0.4-1.6s0.1-1.1,0.4-1.6
		c0.2-0.5,0.6-0.8,1-1.1s0.9-0.4,1.5-0.4c0.6,0,1,0.1,1.5,0.4c0.4,0.2,0.8,0.6,1,1c0.2,0.4,0.3,0.9,0.3,1.4
		C445.6,164.3,445.6,164.5,445.6,164.7z M444.4,162.9c-0.2-0.3-0.4-0.5-0.7-0.6c-0.3-0.1-0.6-0.2-0.9-0.2c-0.5,0-0.9,0.2-1.3,0.5
		c-0.3,0.3-0.5,0.7-0.6,1.3h3.7C444.6,163.5,444.5,163.2,444.4,162.9z"/>
	<path fill="#7500D4" d="M447.8,167.1c-0.4-0.2-0.6-0.4-0.8-0.6c-0.2-0.3-0.3-0.6-0.3-0.9h1c0,0.3,0.2,0.5,0.4,0.7s0.6,0.3,1,0.3
		c0.4,0,0.7-0.1,0.9-0.2s0.3-0.4,0.3-0.6c0-0.3-0.1-0.4-0.3-0.6s-0.6-0.2-1.1-0.4c-0.4-0.1-0.8-0.2-1.1-0.3
		c-0.3-0.1-0.5-0.3-0.7-0.5s-0.3-0.5-0.3-0.9c0-0.3,0.1-0.6,0.3-0.8c0.2-0.2,0.4-0.4,0.8-0.6c0.3-0.1,0.7-0.2,1.1-0.2
		c0.6,0,1.2,0.2,1.6,0.5s0.6,0.8,0.6,1.3h-1c0-0.3-0.1-0.6-0.4-0.7c-0.2-0.2-0.5-0.3-0.9-0.3c-0.3,0-0.6,0.1-0.8,0.2
		c-0.2,0.1-0.3,0.3-0.3,0.6c0,0.2,0.1,0.4,0.2,0.5c0.1,0.1,0.3,0.2,0.5,0.3c0.2,0.1,0.5,0.2,0.8,0.3c0.4,0.1,0.8,0.2,1,0.3
		c0.3,0.1,0.5,0.3,0.7,0.5c0.2,0.2,0.3,0.5,0.3,0.9c0,0.3-0.1,0.6-0.3,0.9s-0.4,0.5-0.8,0.6c-0.3,0.1-0.7,0.2-1.1,0.2
		C448.5,167.3,448.1,167.3,447.8,167.1z"/>
	<path fill="#7500D4" d="M453.7,162.2v3.5c0,0.3,0.1,0.5,0.2,0.6c0.1,0.1,0.3,0.2,0.6,0.2h0.7v0.8h-0.9c-0.5,0-0.9-0.1-1.2-0.4
		c-0.3-0.2-0.4-0.7-0.4-1.2v-3.5h-0.8v-0.8h0.8v-1.5h1v1.5h1.5v0.8H453.7z"/>
</g>
<g>
	<path fill="#7500D4" d="M143.5,247.4c0.6,0.3,1.1,0.7,1.4,1.3c0.3,0.6,0.5,1.2,0.5,2c0,0.8-0.2,1.4-0.5,2c-0.3,0.6-0.8,1-1.4,1.3
		s-1.3,0.4-2.1,0.4h-2.3V247h2.3C142.2,247,142.9,247.1,143.5,247.4z M143.6,252.9c0.5-0.5,0.8-1.2,0.8-2.1c0-0.9-0.3-1.7-0.8-2.2
		c-0.5-0.5-1.2-0.8-2.2-0.8H140v5.9h1.3C142.4,253.6,143.1,253.4,143.6,252.9z"/>
	<path fill="#7500D4" d="M152,251.9h-4.7c0,0.6,0.2,1,0.6,1.4c0.4,0.3,0.8,0.5,1.3,0.5c0.4,0,0.8-0.1,1.1-0.3s0.5-0.5,0.6-0.8h1
		c-0.2,0.6-0.5,1-0.9,1.4c-0.5,0.4-1.1,0.5-1.8,0.5c-0.6,0-1.1-0.1-1.5-0.4c-0.4-0.2-0.8-0.6-1-1.1c-0.2-0.5-0.4-1-0.4-1.6
		s0.1-1.1,0.4-1.6c0.2-0.5,0.6-0.8,1-1.1c0.4-0.2,0.9-0.4,1.5-0.4c0.6,0,1,0.1,1.5,0.4c0.4,0.2,0.8,0.6,1,1c0.2,0.4,0.3,0.9,0.3,1.4
		C152,251.5,152,251.7,152,251.9z M150.7,250.1c-0.2-0.3-0.4-0.5-0.7-0.6s-0.6-0.2-0.9-0.2c-0.5,0-0.9,0.2-1.3,0.5
		c-0.3,0.3-0.5,0.7-0.6,1.3h3.7C151,250.7,150.9,250.4,150.7,250.1z"/>
	<path fill="#7500D4" d="M155.7,249.4h-1.2v5.1h-1v-5.1h-0.8v-0.8h0.8v-0.4c0-0.7,0.2-1.1,0.5-1.4c0.3-0.3,0.9-0.5,1.6-0.5v0.8
		c-0.4,0-0.7,0.1-0.9,0.3c-0.2,0.2-0.3,0.4-0.3,0.8v0.4h1.2V249.4z"/>
	<path fill="#7500D4" d="M156.8,247.4c-0.1-0.1-0.2-0.3-0.2-0.5s0.1-0.3,0.2-0.5c0.1-0.1,0.3-0.2,0.5-0.2c0.2,0,0.3,0.1,0.5,0.2
		c0.1,0.1,0.2,0.3,0.2,0.5s-0.1,0.3-0.2,0.5c-0.1,0.1-0.3,0.2-0.5,0.2C157.1,247.6,157,247.6,156.8,247.4z M157.8,248.6v5.9h-1v-5.9
		H157.8z"/>
	<path fill="#7500D4" d="M164,249.1c0.4,0.4,0.7,1.1,0.7,1.9v3.5h-1v-3.3c0-0.6-0.1-1-0.4-1.3s-0.7-0.5-1.2-0.5
		c-0.5,0-0.9,0.2-1.2,0.5c-0.3,0.3-0.5,0.8-0.5,1.4v3.2h-1v-5.9h1v0.8c0.2-0.3,0.5-0.5,0.8-0.7c0.3-0.2,0.7-0.2,1.1-0.2
		C163,248.5,163.6,248.7,164,249.1z"/>
	<path fill="#7500D4" d="M171.6,251.9h-4.7c0,0.6,0.2,1,0.6,1.4c0.4,0.3,0.8,0.5,1.3,0.5c0.4,0,0.8-0.1,1.1-0.3s0.5-0.5,0.6-0.8h1
		c-0.2,0.6-0.5,1-0.9,1.4c-0.5,0.4-1.1,0.5-1.8,0.5c-0.6,0-1.1-0.1-1.5-0.4c-0.4-0.2-0.8-0.6-1-1.1c-0.2-0.5-0.4-1-0.4-1.6
		s0.1-1.1,0.4-1.6c0.2-0.5,0.6-0.8,1-1.1c0.4-0.2,0.9-0.4,1.5-0.4c0.6,0,1,0.1,1.5,0.4c0.4,0.2,0.8,0.6,1,1c0.2,0.4,0.3,0.9,0.3,1.4
		C171.6,251.5,171.6,251.7,171.6,251.9z M170.4,250.1c-0.2-0.3-0.4-0.5-0.7-0.6s-0.6-0.2-0.9-0.2c-0.5,0-0.9,0.2-1.3,0.5
		c-0.3,0.3-0.5,0.7-0.6,1.3h3.7C170.6,250.7,170.5,250.4,170.4,250.1z"/>
</g>
<g>
	<path fill="#7500D4" d="M333.5,251.6c-0.4,0.4-1.1,0.6-1.9,0.6h-1.4v3.1h-1v-7.5h2.4c0.8,0,1.5,0.2,1.9,0.6s0.7,0.9,0.7,1.6
		C334.1,250.7,333.9,251.2,333.5,251.6z M332.8,251.1c0.3-0.2,0.4-0.6,0.4-1c0-0.9-0.5-1.4-1.6-1.4h-1.4v2.7h1.4
		C332.1,251.4,332.5,251.3,332.8,251.1z"/>
	<path fill="#7500D4" d="M337,249.7c0.3-0.2,0.7-0.3,1.2-0.3v1H338c-1.1,0-1.6,0.6-1.6,1.8v3.2h-1v-5.9h1v1
		C336.5,250.1,336.7,249.8,337,249.7z"/>
	<path fill="#7500D4" d="M340.4,255.1c-0.4-0.2-0.8-0.6-1-1.1s-0.4-1-0.4-1.6c0-0.6,0.1-1.1,0.4-1.6c0.3-0.5,0.6-0.8,1.1-1.1
		c0.5-0.2,1-0.4,1.5-0.4c0.6,0,1.1,0.1,1.5,0.4c0.4,0.2,0.8,0.6,1.1,1.1c0.3,0.5,0.4,1,0.4,1.6s-0.1,1.1-0.4,1.6s-0.6,0.8-1.1,1.1
		c-0.5,0.2-1,0.4-1.5,0.4C341.3,255.5,340.8,255.3,340.4,255.1z M342.9,254.3c0.3-0.2,0.6-0.4,0.7-0.7c0.2-0.3,0.3-0.7,0.3-1.2
		c0-0.5-0.1-0.9-0.3-1.2s-0.4-0.6-0.7-0.7c-0.3-0.2-0.6-0.2-1-0.2c-0.4,0-0.7,0.1-1,0.2c-0.3,0.2-0.5,0.4-0.7,0.7
		c-0.2,0.3-0.3,0.7-0.3,1.2c0,0.5,0.1,0.9,0.3,1.2s0.4,0.6,0.7,0.7c0.3,0.2,0.6,0.2,1,0.2C342.2,254.6,342.6,254.5,342.9,254.3z"/>
	<path fill="#7500D4" d="M347.4,250.3v3.5c0,0.3,0.1,0.5,0.2,0.6c0.1,0.1,0.3,0.2,0.6,0.2h0.7v0.8H348c-0.5,0-0.9-0.1-1.2-0.4
		c-0.3-0.2-0.4-0.7-0.4-1.2v-3.5h-0.8v-0.8h0.8V248h1v1.5h1.5v0.8H347.4z"/>
	<path fill="#7500D4" d="M351.1,255.1c-0.4-0.2-0.8-0.6-1-1.1s-0.4-1-0.4-1.6c0-0.6,0.1-1.1,0.4-1.6c0.3-0.5,0.6-0.8,1.1-1.1
		c0.5-0.2,1-0.4,1.5-0.4c0.6,0,1.1,0.1,1.5,0.4c0.4,0.2,0.8,0.6,1.1,1.1c0.3,0.5,0.4,1,0.4,1.6s-0.1,1.1-0.4,1.6s-0.6,0.8-1.1,1.1
		c-0.5,0.2-1,0.4-1.5,0.4C352.1,255.5,351.6,255.3,351.1,255.1z M353.6,254.3c0.3-0.2,0.6-0.4,0.7-0.7c0.2-0.3,0.3-0.7,0.3-1.2
		c0-0.5-0.1-0.9-0.3-1.2s-0.4-0.6-0.7-0.7c-0.3-0.2-0.6-0.2-1-0.2c-0.4,0-0.7,0.1-1,0.2c-0.3,0.2-0.5,0.4-0.7,0.7
		c-0.2,0.3-0.3,0.7-0.3,1.2c0,0.5,0.1,0.9,0.3,1.2s0.4,0.6,0.7,0.7c0.3,0.2,0.6,0.2,1,0.2C353,254.6,353.3,254.5,353.6,254.3z"/>
	<path fill="#7500D4" d="M358.1,250.3v3.5c0,0.3,0.1,0.5,0.2,0.6c0.1,0.1,0.3,0.2,0.6,0.2h0.7v0.8h-0.9c-0.5,0-0.9-0.1-1.2-0.4
		c-0.3-0.2-0.4-0.7-0.4-1.2v-3.5h-0.8v-0.8h0.8V248h1v1.5h1.5v0.8H358.1z"/>
	<path fill="#7500D4" d="M365.9,249.5l-3.5,8.6h-1l1.2-2.8l-2.4-5.8h1.1l1.8,4.8l1.8-4.8H365.9z"/>
	<path fill="#7500D4" d="M368.7,249.7c0.4-0.2,0.8-0.3,1.3-0.3c0.5,0,1,0.1,1.4,0.4s0.8,0.6,1,1.1c0.2,0.5,0.4,1,0.4,1.6
		c0,0.6-0.1,1.1-0.4,1.6c-0.2,0.5-0.6,0.8-1,1.1s-0.9,0.4-1.4,0.4c-0.5,0-0.9-0.1-1.3-0.3c-0.4-0.2-0.7-0.5-0.9-0.8v3.9h-1v-8.6h1
		v1.1C368,250.2,368.3,250,368.7,249.7z M371.5,251.2c-0.2-0.3-0.4-0.6-0.7-0.7c-0.3-0.2-0.6-0.3-1-0.3c-0.4,0-0.7,0.1-1,0.3
		c-0.3,0.2-0.5,0.4-0.7,0.8c-0.2,0.3-0.3,0.7-0.3,1.2c0,0.4,0.1,0.8,0.3,1.2c0.2,0.3,0.4,0.6,0.7,0.8c0.3,0.2,0.6,0.3,1,0.3
		c0.4,0,0.7-0.1,1-0.3c0.3-0.2,0.5-0.4,0.7-0.8c0.2-0.3,0.3-0.7,0.3-1.2C371.8,252,371.7,251.6,371.5,251.2z"/>
	<path fill="#7500D4" d="M379.4,252.8h-4.7c0,0.6,0.2,1,0.6,1.4c0.4,0.3,0.8,0.5,1.3,0.5c0.4,0,0.8-0.1,1.1-0.3s0.5-0.5,0.6-0.8h1
		c-0.2,0.6-0.5,1-0.9,1.4c-0.5,0.4-1.1,0.5-1.8,0.5c-0.6,0-1.1-0.1-1.5-0.4s-0.8-0.6-1-1.1c-0.2-0.5-0.4-1-0.4-1.6s0.1-1.1,0.4-1.6
		c0.2-0.5,0.6-0.8,1-1.1s0.9-0.4,1.5-0.4c0.6,0,1,0.1,1.5,0.4c0.4,0.2,0.8,0.6,1,1c0.2,0.4,0.3,0.9,0.3,1.4
		C379.4,252.4,379.4,252.6,379.4,252.8z M378.2,251c-0.2-0.3-0.4-0.5-0.7-0.6c-0.3-0.1-0.6-0.2-0.9-0.2c-0.5,0-0.9,0.2-1.3,0.5
		c-0.3,0.3-0.5,0.7-0.6,1.3h3.7C378.4,251.6,378.3,251.3,378.2,251z"/>
</g>
<g>
	<polyline fill="none" stroke="#7500D4" stroke-miterlimit="10" points="108.1,248.7 112.8,253.4 108.1,258.1 	"/>
	<path fill="none" stroke="#7500D4" stroke-miterlimit="10" d="M112.8,253.4c-20.7,0-37.5-16.8-37.5-37.5"/>
</g>
<g>
	<polyline fill="none" stroke="#7500D4" stroke-miterlimit="10" points="252.7,220.7 257.4,216 262.1,220.7 	"/>
	<path fill="none" stroke="#7500D4" stroke-miterlimit="10" d="M257.4,216c0,20.7-16.8,37.5-37.5,37.5"/>
</g>
<g>
	<polyline fill="none" stroke="#7500D4" stroke-miterlimit="10" points="440.9,220.7 445.6,216 450.3,220.7 	"/>
	<path fill="none" stroke="#7500D4" stroke-miterlimit="10" d="M445.6,216c0,20.7-16.8,37.5-37.5,37.5"/>
</g>
<g>
	<polyline fill="none" stroke="#7500D4" stroke-miterlimit="10" points="348.7,194.1 353.4,198.8 358.1,194.1 	"/>
	<path fill="none" stroke="#7500D4" stroke-miterlimit="10" d="M353.4,198.8c0-20.7-16.8-37.5-37.5-37.5"/>
</g>
<line fill="none" stroke="#363636" stroke-miterlimit="10" x1="184.6" y1="75.9" x2="184.6" y2="44.4"/>
<line fill="none" stroke="#363636" stroke-miterlimit="10" x1="330.3" y1="75.9" x2="330.3" y2="44.4"/>
<circle fill="none" stroke="#DAC9E8" stroke-width="3" stroke-miterlimit="10" cx="75.3" cy="164.2" r="43.1"/>
<polygon fill="none" stroke="#DAC9E8" stroke-width="3" stroke-miterlimit="10" points="207.9,250.9 125.6,203.4 125.6,298.4 "/>
<rect x="214.3" y="121.1" fill="none" stroke="#DAC9E8" stroke-width="3" stroke-miterlimit="10" width="86.2" height="86.2"/>
<polygon fill="none" stroke="#DAC9E8" stroke-width="3" stroke-miterlimit="10" points="354.1,208.2 311.3,239.3 327.7,289.6 
	380.5,289.6 396.9,239.3 "/>
<polygon fill="none" stroke="#DAC9E8" stroke-width="3" stroke-miterlimit="10" points="482.7,186.2 482.7,142.3 444.6,120.3 
	406.5,142.3 406.5,186.2 444.6,208.2 "/>
</svg>
