<?xml version="1.0" encoding="utf-8"?>
<!-- Generator: Adobe Illustrator 26.2.1, SVG Export Plug-In . SVG Version: 6.00 Build 0)  -->
<svg version="1.1" baseProfile="tiny" id="Layer_1" xmlns="http://www.w3.org/2000/svg" xmlns:xlink="http://www.w3.org/1999/xlink"
	 x="0px" y="0px" width="48px" height="48px" viewBox="0 0 48 48" overflow="visible" xml:space="preserve">
<g id="lWNpAC_00000015357186417057856590000007368359121309866403_">
	<g>
		<g>
			<path fill="#3a405d" d="M35.6,6.8c1.1-1.1,2.3-2.3,3.4-3.4c0.1-0.1,0.2-0.2,0.4-0.3c0.5-0.3,1,0,1,0.5c0,0.7,0,1.4,0,2.1c0,0.1,0,0.3,0,0.5
				c0.6,0,1.2,0,1.8,0c0.3,0,0.5,0,0.8,0c0.3,0,0.5,0.1,0.7,0.4c0.1,0.3,0,0.6-0.2,0.8c-0.2,0.2-0.5,0.5-0.7,0.7
				c-0.9,0.9-1.9,1.9-2.9,2.9c2.8,3.8,4,8.1,3.8,12.8c-0.3,4.7-2.1,8.8-5.3,12.3c0.1,0.1,0.3,0.2,0.4,0.3c1.6,1.6,3.1,3.1,4.7,4.7
				c0.3,0.3,0.4,0.8,0.1,1c-0.3,0.3-0.7,0.2-1.1-0.1c-1.6-1.6-3.1-3.1-4.7-4.7c-0.1-0.1-0.2-0.3-0.3-0.4c-7.5,7-19.1,7.3-27,0.1
				c-0.3,0.4-0.7,0.7-1,1.1c-1.3,1.3-2.5,2.5-3.8,3.8c-0.5,0.5-0.9,0.5-1.1,0.2c-0.3-0.3-0.2-0.7,0.2-1.2c1.5-1.5,3-3,4.5-4.5
				c0.1-0.1,0.2-0.2,0.4-0.3C5.9,32,4.1,27.2,4.4,21.7c0.2-4.7,2-8.9,5.2-12.4C16.4,1.9,27.6,0.9,35.6,6.8z M33.8,12
				c0.4-0.4,0.8-0.8,1.2-1.2c0.1-0.1,0.2-0.3,0.2-0.4c0-0.7,0-1.4,0-2c0-0.1-0.1-0.3-0.2-0.4c-4.1-3-8.6-4.1-13.6-3.4
				c-3.5,0.5-6.6,1.9-9.3,4.2c-5,4.4-7,10-6.2,16.6c0.4,3.5,1.9,6.6,4.2,9.3c4.7,5.3,10.6,7.3,17.5,6c8.2-1.5,14.4-8.8,14.7-17.1
				c0.2-4.3-1-8.3-3.6-11.7c-0.1-0.1-0.3-0.2-0.4-0.2c-0.7,0-1.3,0-2,0c-0.1,0-0.3,0-0.3,0.1c-0.5,0.4-0.9,0.9-1.3,1.3
				c5.8,6.5,4.5,15.9-1.4,20.8c-5.5,4.6-13.9,4.7-19.4-0.8c-5.2-5.1-5.8-13.4-1-19.4C17.3,8,26.7,5.8,33.8,12z M31,16.7
				c1.6,1.9,2.4,4.2,2.2,6.8c-0.2,2.6-1.3,4.7-3.3,6.3c-3.7,3.1-8.9,2.6-12.1-0.4c-3.5-3.3-3.8-8.6-0.9-12.3
				c2.5-3.3,8.4-5.3,13.2-1.4c0.9-0.9,1.8-1.8,2.7-2.7c-4.4-4.3-12.7-4.9-18,0.5c-5.3,5.3-5.1,14.2,0.9,19.2
				c5.5,4.6,13.9,4,18.6-1.8c4.7-5.9,3-13.5-0.5-16.9C32.8,14.8,31.9,15.7,31,16.7z M27.3,20.4c1.1,2.3,0.8,4.2-0.9,5.4
				c-1.5,1.1-3.6,1-5-0.2c-1.4-1.3-1.7-3.3-0.7-5c0.4-0.7,1.1-1.2,1.8-1.5c1.3-0.5,2.6-0.3,3.7,0.4c0.9-1,1.9-1.9,2.8-2.8
				c-2.6-2.3-7.3-2.7-10.6,0.5c-3,3-3.2,7.9,0,11.1c3,3,7.9,3.2,11.1,0c3-3,3-7.7,0.5-10.6C29.1,18.6,28.2,19.5,27.3,20.4z
				 M26.2,21.4c-0.6,0.6-1.1,1.1-1.6,1.6c-0.4,0.4-0.7,0.4-1,0.1c-0.3-0.3-0.2-0.6,0.1-1c0.5-0.5,0.9-0.9,1.4-1.4
				c0.1-0.1,0.1-0.2,0.2-0.3c-1.2-0.7-2.7-0.3-3.5,0.8c-0.7,1.1-0.5,2.6,0.4,3.4c1.1,0.9,2.6,0.9,3.6-0.1
				C26.7,23.7,26.9,22.2,26.2,21.4z M36.5,9.3c0.8-0.8,1.4-1.5,2.1-2.1C39.2,6.6,39,6,39,5.2c-0.9,0.9-1.7,1.7-2.5,2.5
				c-0.1,0.1-0.1,0.2-0.1,0.3C36.4,8.4,36.5,8.8,36.5,9.3z M37.4,10.2c0.4,0,0.7,0,0.9,0c0.4,0,0.6-0.1,0.9-0.3
				C39.8,9.2,40.4,8.6,41,8c0.1-0.1,0.2-0.2,0.4-0.4c-0.4,0-0.7,0-1,0c-0.2,0-0.4,0-0.5,0.1C39.1,8.5,38.3,9.3,37.4,10.2z"/>
		</g>
	</g>
</g>
</svg>
