<?xml version="1.0" encoding="utf-8"?>
<!-- Generator: Adobe Illustrator 26.2.1, SVG Export Plug-In . SVG Version: 6.00 Build 0)  -->
<svg version="1.1" baseProfile="tiny" id="Layer_1" xmlns="http://www.w3.org/2000/svg" xmlns:xlink="http://www.w3.org/1999/xlink"
	 x="0px" y="0px" width="514.7px" height="325px" viewBox="0 0 514.7 325" overflow="visible" xml:space="preserve">
<path fill="#F2EDED" d="M498.6,325H15.9C7.1,325,0,317.8,0,308.9V16.1C0,7.2,7.1,0,15.9,0h482.8c8.8,0,15.9,7.2,15.9,16.1V309
	C514.6,317.8,507.4,325,498.6,325z"/>
<rect x="29.1" y="30.4" fill="none" width="184.4" height="24.8"/>
<text transform="matrix(1 0 0 1 29.0924 40.6334)" fill="#363636" font-family="'Poppins-SemiBold'" font-size="12px">Weekly Check-Ins</text>
<rect x="62.3" y="77.8" fill="none" width="135.6" height="24.8"/>
<text transform="matrix(1 0 0 1 62.3101 88.0063)" fill="#363636" font-family="'Poppins-Regular'" font-size="12px">How was your week?</text>
<rect x="62.3" y="115" fill="none" width="135.6" height="30.3"/>
<text transform="matrix(1 0 0 1 62.3101 125.2163)" fill="#363636" font-family="'Poppins-Regular'" font-size="12px">What are your </text>
<text transform="matrix(1 0 0 1 62.3101 139.6167)" fill="#363636" font-family="'Poppins-Regular'" font-size="12px">priorities this week?</text>
<rect x="62.3" y="169.8" fill="none" width="135.6" height="49.2"/>
<text transform="matrix(1 0 0 1 62.3101 179.9999)" fill="#363636" font-family="'Poppins-Regular'" font-size="12px">What challenges or </text>
<text transform="matrix(1 0 0 1 62.3101 194.4003)" fill="#363636" font-family="'Poppins-Regular'" font-size="12px">roadblocks are you</text>
<text transform="matrix(1 0 0 1 62.3101 208.8007)" fill="#363636" font-family="'Poppins-Regular'" font-size="12px">facing?</text>
<rect x="62.3" y="243.5" fill="none" width="135.6" height="35.7"/>
<text transform="matrix(1 0 0 1 62.3101 253.6589)" fill="#363636" font-family="'Poppins-Regular'" font-size="12px">Anything else you </text>
<text transform="matrix(1 0 0 1 62.3101 268.0593)" fill="#363636" font-family="'Poppins-Regular'" font-size="12px">would like to discuss?</text>
<rect x="277.9" y="30.4" fill="none" width="184.4" height="24.8"/>
<text transform="matrix(1 0 0 1 277.9241 40.6334)" fill="#363636" font-family="'Poppins-SemiBold'" font-size="12px">Monthly Look-Backs</text>
<rect x="307" y="67.6" fill="none" width="135.6" height="24.8"/>
<text transform="matrix(1 0 0 1 307.0168 77.8248)" fill="#363636" font-family="'Poppins-Regular'" font-size="12px">How was your week?</text>
<g>
	<path fill="#FF353A" d="M48.8,73.8v8.5c-5.8,0-11,5.2-11,11h-8.5C29.4,82.5,38.1,73.8,48.8,73.8z"/>
	<path fill="#FF9F15" d="M37.8,93.2h-7c0-9.9,8-17.9,17.9-17.9v7C43,82.2,37.8,87.4,37.8,93.2z"/>
	<path fill="#FFDB55" d="M37.8,93.2h-5.5c0-9.1,7.4-16.4,16.4-16.4v5.5C43,82.2,37.8,87.4,37.8,93.2z"/>
	<path fill="#55E900" d="M37.8,93.2h-4c0-8.3,6.7-14.9,14.9-14.9v4C43,82.2,37.8,87.4,37.8,93.2z"/>
	<path fill="#35C3FF" d="M37.8,93.2h-2.5c0-7.4,6-13.5,13.5-13.5v2.9C43,82.7,37.8,87.4,37.8,93.2z"/>
	<path fill="#EA5FFF" d="M38.3,93.2h-1.4c0-6.6,5.3-11.9,12-12v1.5C43,82.7,38.3,87.4,38.3,93.2z"/>
</g>
</svg>
